<?xml version="1.0" encoding="utf-8"?>
<!-- Generator: Adobe Illustrator 15.0.0, SVG Export Plug-In . SVG Version: 6.00 Build 0)  -->
<!DOCTYPE svg PUBLIC "-//W3C//DTD SVG 1.1//EN" "http://www.w3.org/Graphics/SVG/1.1/DTD/svg11.dtd">
<svg version="1.1" id="Layer_1" xmlns="http://www.w3.org/2000/svg" xmlns:xlink="http://www.w3.org/1999/xlink" x="0px" y="0px"
	 width="792px" height="612px" viewBox="0 0 792 612" enable-background="new 0 0 792 612" xml:space="preserve">
<g>
	<defs>
		<polyline id="SVGID_1_" points="105.077,480.586 673.037,480.586 673.037,98.265 105.077,98.265 105.077,480.586 		"/>
	</defs>
	<clipPath id="SVGID_2_">
		<use xlink:href="#SVGID_1_"  overflow="visible"/>
	</clipPath>
	
		<line clip-path="url(#SVGID_2_)" fill="none" stroke="#000000" stroke-width="1.44" stroke-linecap="round" stroke-linejoin="round" stroke-miterlimit="10" x1="136.756" y1="471.586" x2="641.357" y2="471.586"/>
	
		<line clip-path="url(#SVGID_2_)" fill="none" stroke="#000000" stroke-width="1.44" stroke-linecap="round" stroke-linejoin="round" stroke-miterlimit="10" x1="641.357" y1="107.265" x2="136.756" y2="107.265"/>
	
		<path clip-path="url(#SVGID_2_)" fill="none" stroke="#000000" stroke-width="1.44" stroke-linecap="round" stroke-linejoin="round" stroke-miterlimit="10" d="
		M127.276,161.326c0-2.552-2.068-4.62-4.62-4.62c-2.552,0-4.62,2.068-4.62,4.62c0,2.551,2.068,4.619,4.62,4.619
		C125.208,165.945,127.276,163.876,127.276,161.326"/>
	
		<path clip-path="url(#SVGID_2_)" fill="none" stroke="#000000" stroke-width="1.44" stroke-linecap="round" stroke-linejoin="round" stroke-miterlimit="10" d="
		M127.276,326.445c0-2.551-2.068-4.619-4.62-4.619c-2.552,0-4.62,2.068-4.62,4.619c0,2.552,2.068,4.62,4.62,4.62
		C125.208,331.065,127.276,328.997,127.276,326.445"/>
	
		<path clip-path="url(#SVGID_2_)" fill="none" stroke="#000000" stroke-width="1.44" stroke-linecap="round" stroke-linejoin="round" stroke-miterlimit="10" d="
		M127.276,343.365c0-2.552-2.068-4.619-4.62-4.619c-2.552,0-4.62,2.067-4.62,4.619s2.068,4.62,4.62,4.62
		C125.208,347.985,127.276,345.917,127.276,343.365"/>
	
		<path clip-path="url(#SVGID_2_)" fill="none" stroke="#000000" stroke-width="1.44" stroke-linecap="round" stroke-linejoin="round" stroke-miterlimit="10" d="
		M127.276,206.806c0-2.553-2.068-4.621-4.62-4.621c-2.552,0-4.62,2.068-4.62,4.621c0,2.551,2.068,4.619,4.62,4.619
		C125.208,211.425,127.276,209.357,127.276,206.806"/>
	
		<path clip-path="url(#SVGID_2_)" fill="none" stroke="#000000" stroke-width="1.44" stroke-linecap="round" stroke-linejoin="round" stroke-miterlimit="10" d="
		M127.276,235.365c0-2.551-2.068-4.619-4.62-4.619c-2.552,0-4.62,2.068-4.62,4.619c0,2.553,2.068,4.621,4.62,4.621
		C125.208,239.986,127.276,237.917,127.276,235.365"/>
	
		<path clip-path="url(#SVGID_2_)" fill="none" stroke="#000000" stroke-width="1.44" stroke-linecap="round" stroke-linejoin="round" stroke-miterlimit="10" d="
		M127.276,371.926c0-2.552-2.068-4.62-4.62-4.62c-2.552,0-4.62,2.068-4.62,4.62c0,2.551,2.068,4.62,4.62,4.62
		C125.208,376.546,127.276,374.477,127.276,371.926"/>
	
		<path clip-path="url(#SVGID_2_)" fill="none" stroke="#000000" stroke-width="1.44" stroke-linecap="round" stroke-linejoin="round" stroke-miterlimit="10" d="
		M127.276,252.286c0-2.552-2.068-4.62-4.62-4.62c-2.552,0-4.62,2.068-4.62,4.62s2.068,4.62,4.62,4.62
		C125.208,256.906,127.276,254.837,127.276,252.286"/>
	
		<path clip-path="url(#SVGID_2_)" fill="none" stroke="#000000" stroke-width="1.44" stroke-linecap="round" stroke-linejoin="round" stroke-miterlimit="10" d="
		M127.276,297.885c0-2.552-2.068-4.62-4.62-4.62c-2.552,0-4.62,2.068-4.62,4.62s2.068,4.62,4.62,4.62
		C125.208,302.505,127.276,300.437,127.276,297.885"/>
	
		<path clip-path="url(#SVGID_2_)" fill="none" stroke="#000000" stroke-width="1.44" stroke-linecap="round" stroke-linejoin="round" stroke-miterlimit="10" d="
		M127.276,417.405c0-2.552-2.068-4.62-4.62-4.62c-2.552,0-4.62,2.068-4.62,4.62s2.068,4.62,4.62,4.62
		C125.208,422.025,127.276,419.957,127.276,417.405"/>
	
		<path clip-path="url(#SVGID_2_)" fill="none" stroke="#000000" stroke-width="1.44" stroke-linecap="round" stroke-linejoin="round" stroke-miterlimit="10" d="
		M127.276,280.845c0-2.551-2.068-4.619-4.62-4.619c-2.552,0-4.62,2.068-4.62,4.619c0,2.552,2.068,4.62,4.62,4.62
		C125.208,285.465,127.276,283.397,127.276,280.845"/>
	
		<path clip-path="url(#SVGID_2_)" fill="none" stroke="#000000" stroke-width="1.44" stroke-linecap="round" stroke-linejoin="round" stroke-miterlimit="10" d="
		M127.276,115.726c0-2.553-2.068-4.621-4.62-4.621c-2.552,0-4.62,2.068-4.62,4.621c0,2.551,2.068,4.619,4.62,4.619
		C125.208,120.345,127.276,118.277,127.276,115.726"/>
	
		<path clip-path="url(#SVGID_2_)" fill="none" stroke="#000000" stroke-width="1.44" stroke-linecap="round" stroke-linejoin="round" stroke-miterlimit="10" d="
		M127.276,189.765c0-2.551-2.068-4.619-4.62-4.619c-2.552,0-4.62,2.068-4.62,4.619c0,2.552,2.068,4.621,4.62,4.621
		C125.208,194.386,127.276,192.317,127.276,189.765"/>
	
		<path clip-path="url(#SVGID_2_)" fill="none" stroke="#000000" stroke-width="1.44" stroke-linecap="round" stroke-linejoin="round" stroke-miterlimit="10" d="
		M127.276,144.286c0-2.552-2.068-4.62-4.62-4.62c-2.552,0-4.62,2.068-4.62,4.62s2.068,4.62,4.62,4.62
		C125.208,148.906,127.276,146.837,127.276,144.286"/>
	
		<path clip-path="url(#SVGID_2_)" fill="none" stroke="#000000" stroke-width="1.44" stroke-linecap="round" stroke-linejoin="round" stroke-miterlimit="10" d="
		M127.276,388.966c0-2.552-2.068-4.62-4.62-4.62c-2.552,0-4.62,2.068-4.62,4.62c0,2.551,2.068,4.62,4.62,4.62
		C125.208,393.586,127.276,391.517,127.276,388.966"/>
	
		<path clip-path="url(#SVGID_2_)" fill="none" stroke="#000000" stroke-width="1.44" stroke-linecap="round" stroke-linejoin="round" stroke-miterlimit="10" d="
		M127.276,434.445c0-2.552-2.068-4.62-4.62-4.62c-2.552,0-4.62,2.068-4.62,4.62s2.068,4.62,4.62,4.62
		C125.208,439.065,127.276,436.997,127.276,434.445"/>
	
		<path clip-path="url(#SVGID_2_)" fill="none" stroke="#000000" stroke-width="1.44" stroke-linecap="round" stroke-linejoin="round" stroke-miterlimit="10" d="
		M127.276,463.006c0-2.552-2.068-4.62-4.62-4.62c-2.552,0-4.62,2.068-4.62,4.62c0,2.551,2.068,4.619,4.62,4.619
		C125.208,467.625,127.276,465.557,127.276,463.006"/>
	
		<polyline display="none" clip-path="url(#SVGID_2_)" fill="none" stroke="#000000" stroke-width="1.44" stroke-linecap="round" stroke-linejoin="round" stroke-miterlimit="10" points="
		136.756,471.586 136.756,107.265 114.077,107.265 114.077,471.586 136.756,471.586 	"/>
	
		<path clip-path="url(#SVGID_2_)" fill="none" stroke="#000000" stroke-width="1.44" stroke-linecap="round" stroke-linejoin="round" stroke-miterlimit="10" d="
		M660.197,297.885c0-2.552-2.068-4.62-4.62-4.62s-4.62,2.068-4.62,4.62s2.068,4.62,4.62,4.62S660.197,300.437,660.197,297.885"/>
	
		<path clip-path="url(#SVGID_2_)" fill="none" stroke="#000000" stroke-width="1.44" stroke-linecap="round" stroke-linejoin="round" stroke-miterlimit="10" d="
		M660.197,280.845c0-2.551-2.068-4.619-4.62-4.619s-4.62,2.068-4.62,4.619c0,2.552,2.068,4.62,4.62,4.62
		S660.197,283.397,660.197,280.845"/>
	
		<path clip-path="url(#SVGID_2_)" fill="none" stroke="#000000" stroke-width="1.44" stroke-linecap="round" stroke-linejoin="round" stroke-miterlimit="10" d="
		M660.197,252.286c0-2.552-2.068-4.62-4.62-4.62s-4.62,2.068-4.62,4.62s2.068,4.62,4.62,4.62S660.197,254.837,660.197,252.286"/>
	
		<path clip-path="url(#SVGID_2_)" fill="none" stroke="#000000" stroke-width="1.44" stroke-linecap="round" stroke-linejoin="round" stroke-miterlimit="10" d="
		M660.197,235.365c0-2.551-2.068-4.619-4.62-4.619s-4.62,2.068-4.62,4.619c0,2.553,2.068,4.621,4.62,4.621
		S660.197,237.917,660.197,235.365"/>
	
		<path clip-path="url(#SVGID_2_)" fill="none" stroke="#000000" stroke-width="1.44" stroke-linecap="round" stroke-linejoin="round" stroke-miterlimit="10" d="
		M660.197,161.326c0-2.552-2.068-4.62-4.62-4.62s-4.62,2.068-4.62,4.62c0,2.551,2.068,4.619,4.62,4.619
		S660.197,163.876,660.197,161.326"/>
	
		<path clip-path="url(#SVGID_2_)" fill="none" stroke="#000000" stroke-width="1.44" stroke-linecap="round" stroke-linejoin="round" stroke-miterlimit="10" d="
		M660.197,206.806c0-2.553-2.068-4.621-4.62-4.621s-4.62,2.068-4.62,4.621c0,2.551,2.068,4.619,4.62,4.619
		S660.197,209.357,660.197,206.806"/>
	
		<path clip-path="url(#SVGID_2_)" fill="none" stroke="#000000" stroke-width="1.44" stroke-linecap="round" stroke-linejoin="round" stroke-miterlimit="10" d="
		M660.197,189.765c0-2.551-2.068-4.619-4.62-4.619s-4.62,2.068-4.62,4.619c0,2.552,2.068,4.621,4.62,4.621
		S660.197,192.317,660.197,189.765"/>
	
		<path clip-path="url(#SVGID_2_)" fill="none" stroke="#000000" stroke-width="1.44" stroke-linecap="round" stroke-linejoin="round" stroke-miterlimit="10" d="
		M660.197,343.365c0-2.552-2.068-4.619-4.62-4.619s-4.62,2.067-4.62,4.619s2.068,4.62,4.62,4.62S660.197,345.917,660.197,343.365"/>
	
		<path clip-path="url(#SVGID_2_)" fill="none" stroke="#000000" stroke-width="1.44" stroke-linecap="round" stroke-linejoin="round" stroke-miterlimit="10" d="
		M660.197,144.286c0-2.552-2.068-4.62-4.62-4.62s-4.62,2.068-4.62,4.62s2.068,4.62,4.62,4.62S660.197,146.837,660.197,144.286"/>
	
		<path clip-path="url(#SVGID_2_)" fill="none" stroke="#000000" stroke-width="1.44" stroke-linecap="round" stroke-linejoin="round" stroke-miterlimit="10" d="
		M660.197,434.445c0-2.552-2.068-4.62-4.62-4.62s-4.62,2.068-4.62,4.62s2.068,4.62,4.62,4.62S660.197,436.997,660.197,434.445"/>
	
		<path clip-path="url(#SVGID_2_)" fill="none" stroke="#000000" stroke-width="1.44" stroke-linecap="round" stroke-linejoin="round" stroke-miterlimit="10" d="
		M660.197,326.445c0-2.551-2.068-4.619-4.62-4.619s-4.62,2.068-4.62,4.619c0,2.552,2.068,4.62,4.62,4.62
		S660.197,328.997,660.197,326.445"/>
	
		<path clip-path="url(#SVGID_2_)" fill="none" stroke="#000000" stroke-width="1.44" stroke-linecap="round" stroke-linejoin="round" stroke-miterlimit="10" d="
		M660.197,115.726c0-2.553-2.068-4.621-4.62-4.621s-4.62,2.068-4.62,4.621c0,2.551,2.068,4.619,4.62,4.619
		S660.197,118.277,660.197,115.726"/>
	
		<path clip-path="url(#SVGID_2_)" fill="none" stroke="#000000" stroke-width="1.44" stroke-linecap="round" stroke-linejoin="round" stroke-miterlimit="10" d="
		M660.197,371.926c0-2.552-2.068-4.62-4.62-4.62s-4.62,2.068-4.62,4.62c0,2.551,2.068,4.62,4.62,4.62
		S660.197,374.477,660.197,371.926"/>
	
		<path clip-path="url(#SVGID_2_)" fill="none" stroke="#000000" stroke-width="1.44" stroke-linecap="round" stroke-linejoin="round" stroke-miterlimit="10" d="
		M660.197,417.405c0-2.552-2.068-4.62-4.62-4.62s-4.62,2.068-4.62,4.62s2.068,4.62,4.62,4.62S660.197,419.957,660.197,417.405"/>
	
		<path clip-path="url(#SVGID_2_)" fill="none" stroke="#000000" stroke-width="1.44" stroke-linecap="round" stroke-linejoin="round" stroke-miterlimit="10" d="
		M660.197,463.006c0-2.552-2.068-4.62-4.62-4.62s-4.62,2.068-4.62,4.62c0,2.551,2.068,4.619,4.62,4.619
		S660.197,465.557,660.197,463.006"/>
	
		<path clip-path="url(#SVGID_2_)" fill="none" stroke="#000000" stroke-width="1.44" stroke-linecap="round" stroke-linejoin="round" stroke-miterlimit="10" d="
		M660.197,388.966c0-2.552-2.068-4.62-4.62-4.62s-4.62,2.068-4.62,4.62c0,2.551,2.068,4.62,4.62,4.62
		S660.197,391.517,660.197,388.966"/>
	
		<polyline display="none" clip-path="url(#SVGID_2_)" fill="none" stroke="#000000" stroke-width="1.44" stroke-linecap="round" stroke-linejoin="round" stroke-miterlimit="10" points="
		641.357,107.265 641.357,471.586 664.037,471.586 664.037,107.265 641.357,107.265 	"/>
</g>
<rect x="136.756" y="107.265" fill="none" stroke="#000000" stroke-width="1.44" stroke-linecap="round" stroke-linejoin="round" stroke-miterlimit="10" width="504.601" height="364.321"/>
<rect x="114.077" y="462.912" fill="none" stroke="#000000" stroke-width="1.44" stroke-linecap="round" stroke-linejoin="round" stroke-miterlimit="10" width="8.673" height="8.674"/>
</svg>
