<?xml version="1.0" encoding="utf-8"?>
<!-- Generator: Adobe Illustrator 15.0.0, SVG Export Plug-In . SVG Version: 6.00 Build 0)  -->
<!DOCTYPE svg PUBLIC "-//W3C//DTD SVG 1.1//EN" "http://www.w3.org/Graphics/SVG/1.1/DTD/svg11.dtd">
<svg version="1.1" id="Layer_1" xmlns="http://www.w3.org/2000/svg" xmlns:xlink="http://www.w3.org/1999/xlink" x="0px" y="0px"
	 width="792px" height="612px" viewBox="0 0 792 612" enable-background="new 0 0 792 612" xml:space="preserve">
<path fill="none" stroke="#000000" stroke-width="1.44" stroke-linecap="round" stroke-linejoin="round" stroke-miterlimit="10" d="
	M134.476,161.326c0-2.552-2.068-4.62-4.62-4.62c-2.552,0-4.62,2.068-4.62,4.62c0,2.551,2.068,4.619,4.62,4.619
	C132.408,165.945,134.476,163.876,134.476,161.326"/>
<path fill="none" stroke="#000000" stroke-width="1.44" stroke-linecap="round" stroke-linejoin="round" stroke-miterlimit="10" d="
	M134.476,326.445c0-2.554-2.068-4.619-4.62-4.619c-2.552,0-4.62,2.065-4.62,4.619c0,2.552,2.068,4.62,4.62,4.62
	C132.408,331.065,134.476,328.997,134.476,326.445"/>
<path fill="none" stroke="#000000" stroke-width="1.44" stroke-linecap="round" stroke-linejoin="round" stroke-miterlimit="10" d="
	M134.476,343.365c0-2.555-2.068-4.619-4.62-4.619c-2.552,0-4.62,2.066-4.62,4.619c0,2.552,2.068,4.62,4.62,4.62
	C132.408,347.985,134.476,345.917,134.476,343.365"/>
<path fill="none" stroke="#000000" stroke-width="1.44" stroke-linecap="round" stroke-linejoin="round" stroke-miterlimit="10" d="
	M134.476,206.806c0-2.553-2.068-4.621-4.62-4.621c-2.552,0-4.62,2.068-4.62,4.621c0,2.551,2.068,4.619,4.62,4.619
	C132.408,211.425,134.476,209.357,134.476,206.806"/>
<path fill="none" stroke="#000000" stroke-width="1.44" stroke-linecap="round" stroke-linejoin="round" stroke-miterlimit="10" d="
	M134.476,235.365c0-2.551-2.068-4.619-4.62-4.619c-2.552,0-4.62,2.068-4.62,4.619c0,2.553,2.068,4.621,4.62,4.621
	C132.408,239.986,134.476,237.917,134.476,235.365"/>
<path fill="none" stroke="#000000" stroke-width="1.44" stroke-linecap="round" stroke-linejoin="round" stroke-miterlimit="10" d="
	M134.476,371.926c0-2.552-2.068-4.62-4.62-4.62c-2.552,0-4.62,2.068-4.62,4.62c0,2.551,2.068,4.62,4.62,4.62
	C132.408,376.546,134.476,374.477,134.476,371.926"/>
<path fill="none" stroke="#000000" stroke-width="1.44" stroke-linecap="round" stroke-linejoin="round" stroke-miterlimit="10" d="
	M134.476,252.286c0-2.552-2.068-4.62-4.62-4.62c-2.552,0-4.62,2.068-4.62,4.62c0,2.552,2.068,4.62,4.62,4.62
	C132.408,256.906,134.476,254.837,134.476,252.286"/>
<path fill="none" stroke="#000000" stroke-width="1.44" stroke-linecap="round" stroke-linejoin="round" stroke-miterlimit="10" d="
	M134.476,297.885c0-2.552-2.068-4.62-4.62-4.62c-2.552,0-4.62,2.068-4.62,4.62c0,2.552,2.068,4.62,4.62,4.62
	C132.408,302.505,134.476,300.437,134.476,297.885"/>
<path fill="none" stroke="#000000" stroke-width="1.44" stroke-linecap="round" stroke-linejoin="round" stroke-miterlimit="10" d="
	M134.476,417.405c0-2.555-2.068-4.62-4.62-4.62c-2.552,0-4.62,2.065-4.62,4.62c0,2.552,2.068,4.62,4.62,4.62
	C132.408,422.025,134.476,419.957,134.476,417.405"/>
<path fill="none" stroke="#000000" stroke-width="1.44" stroke-linecap="round" stroke-linejoin="round" stroke-miterlimit="10" d="
	M134.476,280.845c0-2.551-2.068-4.619-4.62-4.619c-2.552,0-4.62,2.068-4.62,4.619c0,2.552,2.068,4.62,4.62,4.62
	C132.408,285.465,134.476,283.397,134.476,280.845"/>
<path fill="none" stroke="#000000" stroke-width="1.44" stroke-linecap="round" stroke-linejoin="round" stroke-miterlimit="10" d="
	M134.476,115.726c0-2.553-2.068-4.621-4.62-4.621c-2.552,0-4.62,2.068-4.62,4.621c0,2.551,2.068,4.619,4.62,4.619
	C132.408,120.345,134.476,118.277,134.476,115.726"/>
<path fill="none" stroke="#000000" stroke-width="1.44" stroke-linecap="round" stroke-linejoin="round" stroke-miterlimit="10" d="
	M134.476,189.765c0-2.551-2.068-4.619-4.62-4.619c-2.552,0-4.62,2.068-4.62,4.619c0,2.552,2.068,4.621,4.62,4.621
	C132.408,194.386,134.476,192.317,134.476,189.765"/>
<path fill="none" stroke="#000000" stroke-width="1.44" stroke-linecap="round" stroke-linejoin="round" stroke-miterlimit="10" d="
	M134.476,144.286c0-2.552-2.068-4.62-4.62-4.62c-2.552,0-4.62,2.068-4.62,4.62c0,2.552,2.068,4.62,4.62,4.62
	C132.408,148.906,134.476,146.837,134.476,144.286"/>
<path fill="none" stroke="#000000" stroke-width="1.44" stroke-linecap="round" stroke-linejoin="round" stroke-miterlimit="10" d="
	M134.476,388.966c0-2.552-2.068-4.62-4.62-4.62c-2.552,0-4.62,2.068-4.62,4.62c0,2.551,2.068,4.62,4.62,4.62
	C132.408,393.586,134.476,391.517,134.476,388.966"/>
<path fill="none" stroke="#000000" stroke-width="1.44" stroke-linecap="round" stroke-linejoin="round" stroke-miterlimit="10" d="
	M134.476,434.445c0-2.555-2.068-4.62-4.62-4.62c-2.552,0-4.62,2.065-4.62,4.62c0,2.552,2.068,4.62,4.62,4.62
	C132.408,439.065,134.476,436.997,134.476,434.445"/>
<path fill="none" stroke="#000000" stroke-width="1.44" stroke-linecap="round" stroke-linejoin="round" stroke-miterlimit="10" d="
	M134.476,463.006c0-2.552-2.068-4.62-4.62-4.62c-2.552,0-4.62,2.068-4.62,4.62c0,2.551,2.068,4.619,4.62,4.619
	C132.408,467.625,134.476,465.557,134.476,463.006"/>
<path fill="none" stroke="#000000" stroke-width="1.44" stroke-linecap="round" stroke-linejoin="round" stroke-miterlimit="10" d="
	M652.997,297.885c0-2.552-2.068-4.62-4.62-4.62s-4.62,2.068-4.62,4.62c0,2.552,2.068,4.62,4.62,4.62
	S652.997,300.437,652.997,297.885"/>
<path fill="none" stroke="#000000" stroke-width="1.44" stroke-linecap="round" stroke-linejoin="round" stroke-miterlimit="10" d="
	M652.997,280.845c0-2.551-2.068-4.619-4.62-4.619s-4.62,2.068-4.62,4.619c0,2.552,2.068,4.62,4.62,4.62
	S652.997,283.397,652.997,280.845"/>
<path fill="none" stroke="#000000" stroke-width="1.44" stroke-linecap="round" stroke-linejoin="round" stroke-miterlimit="10" d="
	M652.997,252.286c0-2.552-2.068-4.62-4.62-4.62s-4.62,2.068-4.62,4.62c0,2.552,2.068,4.62,4.62,4.62
	S652.997,254.837,652.997,252.286"/>
<path fill="none" stroke="#000000" stroke-width="1.44" stroke-linecap="round" stroke-linejoin="round" stroke-miterlimit="10" d="
	M652.997,235.365c0-2.551-2.068-4.619-4.62-4.619s-4.62,2.068-4.62,4.619c0,2.553,2.068,4.621,4.62,4.621
	S652.997,237.917,652.997,235.365"/>
<path fill="none" stroke="#000000" stroke-width="1.44" stroke-linecap="round" stroke-linejoin="round" stroke-miterlimit="10" d="
	M652.997,161.326c0-2.552-2.068-4.62-4.62-4.62s-4.62,2.068-4.62,4.62c0,2.551,2.068,4.619,4.62,4.619
	S652.997,163.876,652.997,161.326"/>
<path fill="none" stroke="#000000" stroke-width="1.44" stroke-linecap="round" stroke-linejoin="round" stroke-miterlimit="10" d="
	M652.997,206.806c0-2.553-2.068-4.621-4.62-4.621s-4.62,2.068-4.62,4.621c0,2.551,2.068,4.619,4.62,4.619
	S652.997,209.357,652.997,206.806"/>
<path fill="none" stroke="#000000" stroke-width="1.44" stroke-linecap="round" stroke-linejoin="round" stroke-miterlimit="10" d="
	M652.997,189.765c0-2.551-2.068-4.619-4.62-4.619s-4.62,2.068-4.62,4.619c0,2.552,2.068,4.621,4.62,4.621
	S652.997,192.317,652.997,189.765"/>
<path fill="none" stroke="#000000" stroke-width="1.44" stroke-linecap="round" stroke-linejoin="round" stroke-miterlimit="10" d="
	M652.997,343.365c0-2.555-2.068-4.619-4.62-4.619s-4.62,2.066-4.62,4.619c0,2.552,2.068,4.62,4.62,4.62
	S652.997,345.917,652.997,343.365"/>
<path fill="none" stroke="#000000" stroke-width="1.44" stroke-linecap="round" stroke-linejoin="round" stroke-miterlimit="10" d="
	M652.997,144.286c0-2.552-2.068-4.62-4.62-4.62s-4.62,2.068-4.62,4.62c0,2.552,2.068,4.62,4.62,4.62
	S652.997,146.837,652.997,144.286"/>
<path fill="none" stroke="#000000" stroke-width="1.44" stroke-linecap="round" stroke-linejoin="round" stroke-miterlimit="10" d="
	M652.997,434.445c0-2.555-2.068-4.62-4.62-4.62s-4.62,2.065-4.62,4.62c0,2.552,2.068,4.62,4.62,4.62
	S652.997,436.997,652.997,434.445"/>
<path fill="none" stroke="#000000" stroke-width="1.44" stroke-linecap="round" stroke-linejoin="round" stroke-miterlimit="10" d="
	M652.997,326.445c0-2.554-2.068-4.619-4.62-4.619s-4.62,2.065-4.62,4.619c0,2.552,2.068,4.62,4.62,4.62
	S652.997,328.997,652.997,326.445"/>
<path fill="none" stroke="#000000" stroke-width="1.44" stroke-linecap="round" stroke-linejoin="round" stroke-miterlimit="10" d="
	M652.997,115.726c0-2.553-2.068-4.621-4.62-4.621s-4.62,2.068-4.62,4.621c0,2.551,2.068,4.619,4.62,4.619
	S652.997,118.277,652.997,115.726"/>
<path fill="none" stroke="#000000" stroke-width="1.44" stroke-linecap="round" stroke-linejoin="round" stroke-miterlimit="10" d="
	M652.997,371.926c0-2.552-2.068-4.62-4.62-4.62s-4.62,2.068-4.62,4.62c0,2.551,2.068,4.62,4.62,4.62
	S652.997,374.477,652.997,371.926"/>
<path fill="none" stroke="#000000" stroke-width="1.44" stroke-linecap="round" stroke-linejoin="round" stroke-miterlimit="10" d="
	M652.997,417.405c0-2.555-2.068-4.62-4.62-4.62s-4.62,2.065-4.62,4.62c0,2.552,2.068,4.62,4.62,4.62
	S652.997,419.957,652.997,417.405"/>
<path fill="none" stroke="#000000" stroke-width="1.44" stroke-linecap="round" stroke-linejoin="round" stroke-miterlimit="10" d="
	M652.997,463.006c0-2.552-2.068-4.62-4.62-4.62s-4.62,2.068-4.62,4.62c0,2.551,2.068,4.619,4.62,4.619
	S652.997,465.557,652.997,463.006"/>
<path fill="none" stroke="#000000" stroke-width="1.44" stroke-linecap="round" stroke-linejoin="round" stroke-miterlimit="10" d="
	M652.997,388.966c0-2.552-2.068-4.62-4.62-4.62s-4.62,2.068-4.62,4.62c0,2.551,2.068,4.62,4.62,4.62
	S652.997,391.517,652.997,388.966"/>
<g id="Big_Gaping_Hole" display="none">
	
		<rect x="136.756" y="115.725" display="inline" fill="none" stroke="#000000" stroke-width="1.44" stroke-linecap="round" stroke-linejoin="round" stroke-miterlimit="10" width="504.602" height="347.281"/>
</g>
<rect x="100.391" y="453.452" fill="none" stroke="#000000" stroke-width="1.44" stroke-linecap="round" stroke-linejoin="round" stroke-miterlimit="10" width="17.646" height="18.425"/>
<g id="Guides_-_horz_center" display="none">
</g>
<g id="Guides_-_panels" display="none">
</g>
<g id="_x31__x2F_4_H_open_panel" display="none">
	
		<rect x="187.172" y="389.059" display="inline" fill="#FFFFFF" stroke="#000000" stroke-miterlimit="10" width="453.32" height="73.947"/>
</g>
<rect x="187.172" y="297.885" fill="#FFFFFF" stroke="#000000" stroke-miterlimit="10" width="453.32" height="165.121"/>
<g id="LED32_Hole_Pattern">
	<circle fill="#FFFFFF" stroke="#000000" stroke-miterlimit="10" cx="201.345" cy="164.067" r="7.087"/>
	<circle fill="#FFFFFF" stroke="#000000" stroke-miterlimit="10" cx="201.345" cy="187.144" r="7.087"/>
	<circle fill="#FFFFFF" stroke="#000000" stroke-miterlimit="10" cx="229.693" cy="164.067" r="7.087"/>
	<circle fill="#FFFFFF" stroke="#000000" stroke-miterlimit="10" cx="229.693" cy="187.144" r="7.087"/>
	<circle fill="#FFFFFF" stroke="#000000" stroke-miterlimit="10" cx="258.039" cy="164.067" r="7.087"/>
	<circle fill="#FFFFFF" stroke="#000000" stroke-miterlimit="10" cx="258.039" cy="187.144" r="7.087"/>
	<circle fill="#FFFFFF" stroke="#000000" stroke-miterlimit="10" cx="286.386" cy="164.067" r="7.087"/>
	<circle fill="#FFFFFF" stroke="#000000" stroke-miterlimit="10" cx="286.386" cy="187.144" r="7.087"/>
	<circle fill="#FFFFFF" stroke="#000000" stroke-miterlimit="10" cx="314.733" cy="164.067" r="7.087"/>
	<circle fill="#FFFFFF" stroke="#000000" stroke-miterlimit="10" cx="314.733" cy="187.144" r="7.087"/>
	<circle fill="#FFFFFF" stroke="#000000" stroke-miterlimit="10" cx="342.972" cy="164.067" r="7.087"/>
	<circle fill="#FFFFFF" stroke="#000000" stroke-miterlimit="10" cx="342.972" cy="187.144" r="7.087"/>
	<circle fill="#FFFFFF" stroke="#000000" stroke-miterlimit="10" cx="371.319" cy="164.067" r="7.087"/>
	<circle fill="#FFFFFF" stroke="#000000" stroke-miterlimit="10" cx="371.319" cy="187.144" r="7.087"/>
	<circle fill="#FFFFFF" stroke="#000000" stroke-miterlimit="10" cx="399.665" cy="164.067" r="7.087"/>
	<circle fill="#FFFFFF" stroke="#000000" stroke-miterlimit="10" cx="399.665" cy="187.144" r="7.087"/>
	<circle fill="#FFFFFF" stroke="#000000" stroke-miterlimit="10" cx="428.012" cy="164.067" r="7.086"/>
	<circle fill="#FFFFFF" stroke="#000000" stroke-miterlimit="10" cx="428.012" cy="187.144" r="7.086"/>
	<circle fill="#FFFFFF" stroke="#000000" stroke-miterlimit="10" cx="456.347" cy="164.067" r="7.086"/>
	<circle fill="#FFFFFF" stroke="#000000" stroke-miterlimit="10" cx="456.347" cy="187.144" r="7.086"/>
	<circle fill="#FFFFFF" stroke="#000000" stroke-miterlimit="10" cx="484.694" cy="164.067" r="7.087"/>
	<circle fill="#FFFFFF" stroke="#000000" stroke-miterlimit="10" cx="484.694" cy="187.144" r="7.087"/>
	<circle fill="#FFFFFF" stroke="#000000" stroke-miterlimit="10" cx="513.041" cy="164.067" r="7.086"/>
	<circle fill="#FFFFFF" stroke="#000000" stroke-miterlimit="10" cx="513.041" cy="187.144" r="7.086"/>
	<circle fill="#FFFFFF" stroke="#000000" stroke-miterlimit="10" cx="541.388" cy="164.067" r="7.087"/>
	<circle fill="#FFFFFF" stroke="#000000" stroke-miterlimit="10" cx="541.388" cy="187.144" r="7.087"/>
	<circle fill="#FFFFFF" stroke="#000000" stroke-miterlimit="10" cx="569.626" cy="164.067" r="7.086"/>
	<circle fill="#FFFFFF" stroke="#000000" stroke-miterlimit="10" cx="569.626" cy="187.144" r="7.086"/>
	<circle fill="#FFFFFF" stroke="#000000" stroke-miterlimit="10" cx="597.974" cy="164.067" r="7.087"/>
	<circle fill="#FFFFFF" stroke="#000000" stroke-miterlimit="10" cx="597.974" cy="187.144" r="7.087"/>
	<circle fill="#FFFFFF" stroke="#000000" stroke-miterlimit="10" cx="626.32" cy="164.067" r="7.086"/>
	<circle fill="#FFFFFF" stroke="#000000" stroke-miterlimit="10" cx="626.32" cy="187.144" r="7.086"/>
	<g display="none">
		
			<rect x="122.656" y="161.189" display="inline" fill="#FFFFFF" stroke="#000000" stroke-miterlimit="10" width="78.69" height="2.878"/>
		
			<rect x="201.346" y="164.068" display="inline" fill="#FFFFFF" stroke="#000000" stroke-miterlimit="10" width="28.347" height="23.076"/>
		
			<rect x="229.693" y="164.068" display="inline" fill="#FFFFFF" stroke="#000000" stroke-miterlimit="10" width="28.347" height="23.076"/>
		
			<rect x="258.04" y="164.068" display="inline" fill="#FFFFFF" stroke="#000000" stroke-miterlimit="10" width="28.347" height="23.076"/>
		
			<rect x="286.386" y="164.068" display="inline" fill="#FFFFFF" stroke="#000000" stroke-miterlimit="10" width="28.347" height="23.076"/>
		
			<rect x="314.625" y="164.068" display="inline" fill="#FFFFFF" stroke="#000000" stroke-miterlimit="10" width="28.347" height="23.076"/>
		
			<rect x="342.972" y="164.068" display="inline" fill="#FFFFFF" stroke="#000000" stroke-miterlimit="10" width="28.347" height="23.076"/>
		
			<rect x="371.319" y="164.068" display="inline" fill="#FFFFFF" stroke="#000000" stroke-miterlimit="10" width="28.345" height="23.076"/>
		
			<rect x="399.664" y="164.068" display="inline" fill="#FFFFFF" stroke="#000000" stroke-miterlimit="10" width="28.348" height="23.076"/>
		
			<rect x="428" y="164.068" display="inline" fill="#FFFFFF" stroke="#000000" stroke-miterlimit="10" width="28.348" height="23.076"/>
		
			<rect x="456.348" y="164.068" display="inline" fill="#FFFFFF" stroke="#000000" stroke-miterlimit="10" width="28.347" height="23.076"/>
		
			<rect x="484.693" y="164.068" display="inline" fill="#FFFFFF" stroke="#000000" stroke-miterlimit="10" width="28.348" height="23.076"/>
		
			<rect x="513.041" y="164.068" display="inline" fill="#FFFFFF" stroke="#000000" stroke-miterlimit="10" width="28.346" height="23.076"/>
		
			<rect x="541.279" y="164.068" display="inline" fill="#FFFFFF" stroke="#000000" stroke-miterlimit="10" width="28.348" height="23.076"/>
		
			<rect x="569.627" y="164.068" display="inline" fill="#FFFFFF" stroke="#000000" stroke-miterlimit="10" width="28.346" height="23.076"/>
		
			<rect x="597.973" y="164.068" display="inline" fill="#FFFFFF" stroke="#000000" stroke-miterlimit="10" width="28.347" height="23.076"/>
	</g>
</g>
<g id="LED32_Hole_Pattern_copy">
	<circle fill="#FFFFFF" stroke="#000000" stroke-miterlimit="10" cx="201.345" cy="118.191" r="7.087"/>
	<circle fill="#FFFFFF" stroke="#000000" stroke-miterlimit="10" cx="201.345" cy="141.268" r="7.087"/>
	<circle fill="#FFFFFF" stroke="#000000" stroke-miterlimit="10" cx="229.693" cy="118.191" r="7.087"/>
	<circle fill="#FFFFFF" stroke="#000000" stroke-miterlimit="10" cx="229.693" cy="141.268" r="7.087"/>
	<circle fill="#FFFFFF" stroke="#000000" stroke-miterlimit="10" cx="258.039" cy="118.191" r="7.087"/>
	<circle fill="#FFFFFF" stroke="#000000" stroke-miterlimit="10" cx="258.039" cy="141.268" r="7.087"/>
	<circle fill="#FFFFFF" stroke="#000000" stroke-miterlimit="10" cx="286.386" cy="118.191" r="7.087"/>
	<circle fill="#FFFFFF" stroke="#000000" stroke-miterlimit="10" cx="286.386" cy="141.268" r="7.087"/>
	<circle fill="#FFFFFF" stroke="#000000" stroke-miterlimit="10" cx="314.733" cy="118.191" r="7.087"/>
	<circle fill="#FFFFFF" stroke="#000000" stroke-miterlimit="10" cx="314.733" cy="141.268" r="7.087"/>
	<circle fill="#FFFFFF" stroke="#000000" stroke-miterlimit="10" cx="342.972" cy="118.191" r="7.087"/>
	<circle fill="#FFFFFF" stroke="#000000" stroke-miterlimit="10" cx="342.972" cy="141.268" r="7.087"/>
	<circle fill="#FFFFFF" stroke="#000000" stroke-miterlimit="10" cx="371.319" cy="118.191" r="7.087"/>
	<circle fill="#FFFFFF" stroke="#000000" stroke-miterlimit="10" cx="371.319" cy="141.268" r="7.087"/>
	<circle fill="#FFFFFF" stroke="#000000" stroke-miterlimit="10" cx="399.665" cy="118.191" r="7.087"/>
	<circle fill="#FFFFFF" stroke="#000000" stroke-miterlimit="10" cx="399.665" cy="141.268" r="7.087"/>
	<circle fill="#FFFFFF" stroke="#000000" stroke-miterlimit="10" cx="428.012" cy="118.191" r="7.086"/>
	<circle fill="#FFFFFF" stroke="#000000" stroke-miterlimit="10" cx="428.012" cy="141.268" r="7.086"/>
	<circle fill="#FFFFFF" stroke="#000000" stroke-miterlimit="10" cx="456.347" cy="118.191" r="7.086"/>
	<circle fill="#FFFFFF" stroke="#000000" stroke-miterlimit="10" cx="456.347" cy="141.268" r="7.086"/>
	<circle fill="#FFFFFF" stroke="#000000" stroke-miterlimit="10" cx="484.694" cy="118.191" r="7.087"/>
	<circle fill="#FFFFFF" stroke="#000000" stroke-miterlimit="10" cx="484.694" cy="141.268" r="7.087"/>
	<circle fill="#FFFFFF" stroke="#000000" stroke-miterlimit="10" cx="513.041" cy="118.191" r="7.086"/>
	<circle fill="#FFFFFF" stroke="#000000" stroke-miterlimit="10" cx="513.041" cy="141.268" r="7.086"/>
	<circle fill="#FFFFFF" stroke="#000000" stroke-miterlimit="10" cx="541.388" cy="118.191" r="7.087"/>
	<circle fill="#FFFFFF" stroke="#000000" stroke-miterlimit="10" cx="541.388" cy="141.268" r="7.087"/>
	<circle fill="#FFFFFF" stroke="#000000" stroke-miterlimit="10" cx="569.626" cy="118.191" r="7.086"/>
	<circle fill="#FFFFFF" stroke="#000000" stroke-miterlimit="10" cx="569.626" cy="141.268" r="7.086"/>
	<circle fill="#FFFFFF" stroke="#000000" stroke-miterlimit="10" cx="597.974" cy="118.191" r="7.087"/>
	<circle fill="#FFFFFF" stroke="#000000" stroke-miterlimit="10" cx="597.974" cy="141.268" r="7.087"/>
	<circle fill="#FFFFFF" stroke="#000000" stroke-miterlimit="10" cx="626.32" cy="118.191" r="7.086"/>
	<circle fill="#FFFFFF" stroke="#000000" stroke-miterlimit="10" cx="626.32" cy="141.268" r="7.086"/>
	<g display="none">
		
			<rect x="122.656" y="115.313" display="inline" fill="#FFFFFF" stroke="#000000" stroke-miterlimit="10" width="78.69" height="2.878"/>
		
			<rect x="201.346" y="118.192" display="inline" fill="#FFFFFF" stroke="#000000" stroke-miterlimit="10" width="28.347" height="23.076"/>
		
			<rect x="229.693" y="118.192" display="inline" fill="#FFFFFF" stroke="#000000" stroke-miterlimit="10" width="28.347" height="23.076"/>
		
			<rect x="258.04" y="118.192" display="inline" fill="#FFFFFF" stroke="#000000" stroke-miterlimit="10" width="28.347" height="23.076"/>
		
			<rect x="286.386" y="118.192" display="inline" fill="#FFFFFF" stroke="#000000" stroke-miterlimit="10" width="28.347" height="23.076"/>
		
			<rect x="314.625" y="118.192" display="inline" fill="#FFFFFF" stroke="#000000" stroke-miterlimit="10" width="28.347" height="23.076"/>
		
			<rect x="342.972" y="118.192" display="inline" fill="#FFFFFF" stroke="#000000" stroke-miterlimit="10" width="28.347" height="23.076"/>
		
			<rect x="371.319" y="118.192" display="inline" fill="#FFFFFF" stroke="#000000" stroke-miterlimit="10" width="28.345" height="23.076"/>
		
			<rect x="399.664" y="118.192" display="inline" fill="#FFFFFF" stroke="#000000" stroke-miterlimit="10" width="28.348" height="23.076"/>
		
			<rect x="428" y="118.192" display="inline" fill="#FFFFFF" stroke="#000000" stroke-miterlimit="10" width="28.348" height="23.076"/>
		
			<rect x="456.348" y="118.192" display="inline" fill="#FFFFFF" stroke="#000000" stroke-miterlimit="10" width="28.347" height="23.076"/>
		
			<rect x="484.693" y="118.192" display="inline" fill="#FFFFFF" stroke="#000000" stroke-miterlimit="10" width="28.348" height="23.076"/>
		
			<rect x="513.041" y="118.192" display="inline" fill="#FFFFFF" stroke="#000000" stroke-miterlimit="10" width="28.346" height="23.076"/>
		
			<rect x="541.279" y="118.192" display="inline" fill="#FFFFFF" stroke="#000000" stroke-miterlimit="10" width="28.348" height="23.076"/>
		
			<rect x="569.627" y="118.192" display="inline" fill="#FFFFFF" stroke="#000000" stroke-miterlimit="10" width="28.346" height="23.076"/>
		
			<rect x="597.973" y="118.192" display="inline" fill="#FFFFFF" stroke="#000000" stroke-miterlimit="10" width="28.347" height="23.076"/>
	</g>
</g>
<g id="Knob16_hole_pattern">
	
		<circle fill="none" stroke="#000000" stroke-width="1.44" stroke-linecap="round" stroke-linejoin="round" stroke-miterlimit="10" cx="215.519" cy="221.066" r="9.213"/>
	
		<circle fill="none" stroke="#000000" stroke-width="1.44" stroke-linecap="round" stroke-linejoin="round" stroke-miterlimit="10" cx="272.212" cy="221.066" r="9.213"/>
	
		<circle fill="none" stroke="#000000" stroke-width="1.44" stroke-linecap="round" stroke-linejoin="round" stroke-miterlimit="10" cx="215.519" cy="266.598" r="9.213"/>
	
		<circle fill="none" stroke="#000000" stroke-width="1.44" stroke-linecap="round" stroke-linejoin="round" stroke-miterlimit="10" cx="272.212" cy="266.598" r="9.213"/>
	
		<circle fill="none" stroke="#000000" stroke-width="1.44" stroke-linecap="round" stroke-linejoin="round" stroke-miterlimit="10" cx="328.904" cy="221.066" r="9.213"/>
	
		<circle fill="none" stroke="#000000" stroke-width="1.44" stroke-linecap="round" stroke-linejoin="round" stroke-miterlimit="10" cx="328.904" cy="266.598" r="9.213"/>
	
		<circle fill="none" stroke="#000000" stroke-width="1.44" stroke-linecap="round" stroke-linejoin="round" stroke-miterlimit="10" cx="385.596" cy="221.066" r="9.213"/>
	
		<circle fill="none" stroke="#000000" stroke-width="1.44" stroke-linecap="round" stroke-linejoin="round" stroke-miterlimit="10" cx="385.596" cy="266.598" r="9.213"/>
	
		<circle fill="none" stroke="#000000" stroke-width="1.44" stroke-linecap="round" stroke-linejoin="round" stroke-miterlimit="10" cx="442.289" cy="221.066" r="9.213"/>
	
		<circle fill="none" stroke="#000000" stroke-width="1.44" stroke-linecap="round" stroke-linejoin="round" stroke-miterlimit="10" cx="442.289" cy="266.598" r="9.213"/>
	
		<circle fill="none" stroke="#000000" stroke-width="1.44" stroke-linecap="round" stroke-linejoin="round" stroke-miterlimit="10" cx="498.98" cy="221.066" r="9.213"/>
	
		<circle fill="none" stroke="#000000" stroke-width="1.44" stroke-linecap="round" stroke-linejoin="round" stroke-miterlimit="10" cx="498.98" cy="266.598" r="9.213"/>
	
		<circle fill="none" stroke="#000000" stroke-width="1.44" stroke-linecap="round" stroke-linejoin="round" stroke-miterlimit="10" cx="555.674" cy="221.066" r="9.212"/>
	
		<circle fill="none" stroke="#000000" stroke-width="1.44" stroke-linecap="round" stroke-linejoin="round" stroke-miterlimit="10" cx="555.674" cy="266.598" r="9.212"/>
	
		<circle fill="none" stroke="#000000" stroke-width="1.44" stroke-linecap="round" stroke-linejoin="round" stroke-miterlimit="10" cx="612.366" cy="221.066" r="9.213"/>
	
		<circle fill="none" stroke="#000000" stroke-width="1.44" stroke-linecap="round" stroke-linejoin="round" stroke-miterlimit="10" cx="612.366" cy="266.598" r="9.213"/>
	<g display="none">
		
			<rect x="215.519" y="221.065" display="inline" fill="none" stroke="#000000" stroke-width="1.44" stroke-linecap="round" stroke-linejoin="round" stroke-miterlimit="10" width="56.693" height="45.532"/>
		
			<rect x="272.211" y="221.065" display="inline" fill="none" stroke="#000000" stroke-width="1.44" stroke-linecap="round" stroke-linejoin="round" stroke-miterlimit="10" width="56.693" height="45.532"/>
		
			<rect x="328.904" y="221.065" display="inline" fill="none" stroke="#000000" stroke-width="1.44" stroke-linecap="round" stroke-linejoin="round" stroke-miterlimit="10" width="56.692" height="45.532"/>
		
			<rect x="385.596" y="221.065" display="inline" fill="none" stroke="#000000" stroke-width="1.44" stroke-linecap="round" stroke-linejoin="round" stroke-miterlimit="10" width="56.693" height="45.532"/>
		
			<rect x="442.289" y="221.065" display="inline" fill="none" stroke="#000000" stroke-width="1.44" stroke-linecap="round" stroke-linejoin="round" stroke-miterlimit="10" width="56.692" height="45.532"/>
		
			<rect x="498.98" y="221.065" display="inline" fill="none" stroke="#000000" stroke-width="1.44" stroke-linecap="round" stroke-linejoin="round" stroke-miterlimit="10" width="56.693" height="45.532"/>
		
			<rect x="555.674" y="221.065" display="inline" fill="none" stroke="#000000" stroke-width="1.44" stroke-linecap="round" stroke-linejoin="round" stroke-miterlimit="10" width="56.692" height="45.532"/>
		
			<rect x="122.656" y="206.805" display="inline" fill="none" stroke="#000000" stroke-width="1.44" stroke-linecap="round" stroke-linejoin="round" stroke-miterlimit="10" width="92.863" height="14.261"/>
	</g>
</g>
<g id="Knob16_hole_pattern_copy" display="none">
	
		<circle display="inline" fill="none" stroke="#000000" stroke-width="1.44" stroke-linecap="round" stroke-linejoin="round" stroke-miterlimit="10" cx="215.519" cy="312.146" r="9.213"/>
	
		<circle display="inline" fill="none" stroke="#000000" stroke-width="1.44" stroke-linecap="round" stroke-linejoin="round" stroke-miterlimit="10" cx="272.212" cy="312.146" r="9.213"/>
	
		<circle display="inline" fill="none" stroke="#000000" stroke-width="1.44" stroke-linecap="round" stroke-linejoin="round" stroke-miterlimit="10" cx="215.519" cy="357.678" r="9.213"/>
	
		<circle display="inline" fill="none" stroke="#000000" stroke-width="1.44" stroke-linecap="round" stroke-linejoin="round" stroke-miterlimit="10" cx="272.212" cy="357.678" r="9.213"/>
	
		<circle display="inline" fill="none" stroke="#000000" stroke-width="1.44" stroke-linecap="round" stroke-linejoin="round" stroke-miterlimit="10" cx="328.904" cy="312.146" r="9.213"/>
	
		<circle display="inline" fill="none" stroke="#000000" stroke-width="1.44" stroke-linecap="round" stroke-linejoin="round" stroke-miterlimit="10" cx="328.904" cy="357.678" r="9.213"/>
	
		<circle display="inline" fill="none" stroke="#000000" stroke-width="1.44" stroke-linecap="round" stroke-linejoin="round" stroke-miterlimit="10" cx="385.596" cy="312.146" r="9.213"/>
	
		<circle display="inline" fill="none" stroke="#000000" stroke-width="1.44" stroke-linecap="round" stroke-linejoin="round" stroke-miterlimit="10" cx="385.596" cy="357.678" r="9.213"/>
	
		<circle display="inline" fill="none" stroke="#000000" stroke-width="1.44" stroke-linecap="round" stroke-linejoin="round" stroke-miterlimit="10" cx="442.289" cy="312.146" r="9.213"/>
	
		<circle display="inline" fill="none" stroke="#000000" stroke-width="1.44" stroke-linecap="round" stroke-linejoin="round" stroke-miterlimit="10" cx="442.289" cy="357.678" r="9.213"/>
	
		<circle display="inline" fill="none" stroke="#000000" stroke-width="1.44" stroke-linecap="round" stroke-linejoin="round" stroke-miterlimit="10" cx="498.98" cy="312.146" r="9.213"/>
	
		<circle display="inline" fill="none" stroke="#000000" stroke-width="1.44" stroke-linecap="round" stroke-linejoin="round" stroke-miterlimit="10" cx="498.98" cy="357.678" r="9.213"/>
	
		<circle display="inline" fill="none" stroke="#000000" stroke-width="1.44" stroke-linecap="round" stroke-linejoin="round" stroke-miterlimit="10" cx="555.674" cy="312.146" r="9.212"/>
	
		<circle display="inline" fill="none" stroke="#000000" stroke-width="1.44" stroke-linecap="round" stroke-linejoin="round" stroke-miterlimit="10" cx="555.674" cy="357.678" r="9.212"/>
	
		<circle display="inline" fill="none" stroke="#000000" stroke-width="1.44" stroke-linecap="round" stroke-linejoin="round" stroke-miterlimit="10" cx="612.366" cy="312.146" r="9.213"/>
	
		<circle display="inline" fill="none" stroke="#000000" stroke-width="1.44" stroke-linecap="round" stroke-linejoin="round" stroke-miterlimit="10" cx="612.366" cy="357.678" r="9.213"/>
	<g>
		
			<rect x="215.519" y="312.146" display="inline" fill="none" stroke="#000000" stroke-width="1.44" stroke-linecap="round" stroke-linejoin="round" stroke-miterlimit="10" width="56.693" height="45.531"/>
		
			<rect x="272.211" y="312.146" display="inline" fill="none" stroke="#000000" stroke-width="1.44" stroke-linecap="round" stroke-linejoin="round" stroke-miterlimit="10" width="56.693" height="45.531"/>
		
			<rect x="328.904" y="312.146" display="inline" fill="none" stroke="#000000" stroke-width="1.44" stroke-linecap="round" stroke-linejoin="round" stroke-miterlimit="10" width="56.692" height="45.531"/>
		
			<rect x="385.596" y="312.146" display="inline" fill="none" stroke="#000000" stroke-width="1.44" stroke-linecap="round" stroke-linejoin="round" stroke-miterlimit="10" width="56.693" height="45.531"/>
		
			<rect x="442.289" y="312.146" display="inline" fill="none" stroke="#000000" stroke-width="1.44" stroke-linecap="round" stroke-linejoin="round" stroke-miterlimit="10" width="56.692" height="45.531"/>
		
			<rect x="498.98" y="312.146" display="inline" fill="none" stroke="#000000" stroke-width="1.44" stroke-linecap="round" stroke-linejoin="round" stroke-miterlimit="10" width="56.693" height="45.531"/>
		
			<rect x="555.674" y="312.146" display="inline" fill="none" stroke="#000000" stroke-width="1.44" stroke-linecap="round" stroke-linejoin="round" stroke-miterlimit="10" width="56.692" height="45.531"/>
		
			<rect x="122.656" y="297.885" display="inline" fill="none" stroke="#000000" stroke-width="1.44" stroke-linecap="round" stroke-linejoin="round" stroke-miterlimit="10" width="92.863" height="14.262"/>
	</g>
</g>
</svg>
