<?xml version="1.0" encoding="utf-8"?>
<!-- Generator: Adobe Illustrator 15.0.0, SVG Export Plug-In . SVG Version: 6.00 Build 0)  -->
<!DOCTYPE svg PUBLIC "-//W3C//DTD SVG 1.1//EN" "http://www.w3.org/Graphics/SVG/1.1/DTD/svg11.dtd">
<svg version="1.1" id="Layer_1" xmlns="http://www.w3.org/2000/svg" xmlns:xlink="http://www.w3.org/1999/xlink" x="0px" y="0px"
	 width="792px" height="612px" viewBox="0 0 792 612" enable-background="new 0 0 792 612" xml:space="preserve">
<path fill="none" stroke="#000000" stroke-width="1.44" stroke-linecap="round" stroke-linejoin="round" stroke-miterlimit="10" d="
	M127.276,115.726c0-2.553-2.068-4.621-4.62-4.621c-2.552,0-4.62,2.068-4.62,4.621c0,2.551,2.068,4.619,4.62,4.619
	C125.208,120.345,127.276,118.277,127.276,115.726"/>
<path fill="none" stroke="#000000" stroke-width="1.44" stroke-linecap="round" stroke-linejoin="round" stroke-miterlimit="10" d="
	M127.276,144.286c0-2.552-2.068-4.62-4.62-4.62c-2.552,0-4.62,2.068-4.62,4.62c0,2.552,2.068,4.62,4.62,4.62
	C125.208,148.906,127.276,146.837,127.276,144.286"/>
<path fill="none" stroke="#000000" stroke-width="1.44" stroke-linecap="round" stroke-linejoin="round" stroke-miterlimit="10" d="
	M660.197,144.286c0-2.552-2.068-4.62-4.62-4.62s-4.62,2.068-4.62,4.62c0,2.552,2.068,4.62,4.62,4.62
	S660.197,146.837,660.197,144.286"/>
<path fill="none" stroke="#000000" stroke-width="1.44" stroke-linecap="round" stroke-linejoin="round" stroke-miterlimit="10" d="
	M660.197,115.726c0-2.553-2.068-4.621-4.62-4.621s-4.62,2.068-4.62,4.621c0,2.551,2.068,4.619,4.62,4.619
	S660.197,118.277,660.197,115.726"/>
<g id="Big_Gaping_Hole" display="none">
	
		<rect x="136.756" y="115.725" display="inline" fill="none" stroke="#000000" stroke-width="1.44" stroke-linecap="round" stroke-linejoin="round" stroke-miterlimit="10" width="504.602" height="347.281"/>
</g>
<g id="Guides_-_horz_center" display="none">
</g>
<g id="Guides_-_panels" display="none">
</g>
<g id="_x31__x2F_4_H_open_panel" display="none">
	
		<rect x="187.172" y="389.059" display="inline" fill="#FFFFFF" stroke="#000000" stroke-miterlimit="10" width="453.32" height="73.947"/>
</g>
<g id="Knob16_hole_pattern_copy" display="none">
	
		<circle display="inline" fill="none" stroke="#000000" stroke-width="1.44" stroke-linecap="round" stroke-linejoin="round" stroke-miterlimit="10" cx="215.519" cy="312.146" r="9.213"/>
	
		<circle display="inline" fill="none" stroke="#000000" stroke-width="1.44" stroke-linecap="round" stroke-linejoin="round" stroke-miterlimit="10" cx="272.212" cy="312.146" r="9.213"/>
	
		<circle display="inline" fill="none" stroke="#000000" stroke-width="1.44" stroke-linecap="round" stroke-linejoin="round" stroke-miterlimit="10" cx="215.519" cy="357.678" r="9.213"/>
	
		<circle display="inline" fill="none" stroke="#000000" stroke-width="1.44" stroke-linecap="round" stroke-linejoin="round" stroke-miterlimit="10" cx="272.212" cy="357.678" r="9.213"/>
	
		<circle display="inline" fill="none" stroke="#000000" stroke-width="1.44" stroke-linecap="round" stroke-linejoin="round" stroke-miterlimit="10" cx="328.904" cy="312.146" r="9.213"/>
	
		<circle display="inline" fill="none" stroke="#000000" stroke-width="1.44" stroke-linecap="round" stroke-linejoin="round" stroke-miterlimit="10" cx="328.904" cy="357.678" r="9.213"/>
	
		<circle display="inline" fill="none" stroke="#000000" stroke-width="1.44" stroke-linecap="round" stroke-linejoin="round" stroke-miterlimit="10" cx="385.596" cy="312.146" r="9.213"/>
	
		<circle display="inline" fill="none" stroke="#000000" stroke-width="1.44" stroke-linecap="round" stroke-linejoin="round" stroke-miterlimit="10" cx="385.596" cy="357.678" r="9.213"/>
	
		<circle display="inline" fill="none" stroke="#000000" stroke-width="1.44" stroke-linecap="round" stroke-linejoin="round" stroke-miterlimit="10" cx="442.289" cy="312.146" r="9.213"/>
	
		<circle display="inline" fill="none" stroke="#000000" stroke-width="1.44" stroke-linecap="round" stroke-linejoin="round" stroke-miterlimit="10" cx="442.289" cy="357.678" r="9.213"/>
	
		<circle display="inline" fill="none" stroke="#000000" stroke-width="1.44" stroke-linecap="round" stroke-linejoin="round" stroke-miterlimit="10" cx="498.98" cy="312.146" r="9.213"/>
	
		<circle display="inline" fill="none" stroke="#000000" stroke-width="1.44" stroke-linecap="round" stroke-linejoin="round" stroke-miterlimit="10" cx="498.98" cy="357.678" r="9.213"/>
	
		<circle display="inline" fill="none" stroke="#000000" stroke-width="1.44" stroke-linecap="round" stroke-linejoin="round" stroke-miterlimit="10" cx="555.674" cy="312.146" r="9.212"/>
	
		<circle display="inline" fill="none" stroke="#000000" stroke-width="1.44" stroke-linecap="round" stroke-linejoin="round" stroke-miterlimit="10" cx="555.674" cy="357.678" r="9.212"/>
	
		<circle display="inline" fill="none" stroke="#000000" stroke-width="1.44" stroke-linecap="round" stroke-linejoin="round" stroke-miterlimit="10" cx="612.366" cy="312.146" r="9.213"/>
	
		<circle display="inline" fill="none" stroke="#000000" stroke-width="1.44" stroke-linecap="round" stroke-linejoin="round" stroke-miterlimit="10" cx="612.366" cy="357.678" r="9.213"/>
	<g display="inline">
		
			<rect x="215.519" y="312.146" fill="none" stroke="#000000" stroke-width="1.44" stroke-linecap="round" stroke-linejoin="round" stroke-miterlimit="10" width="56.693" height="45.529"/>
		
			<rect x="272.211" y="312.146" fill="none" stroke="#000000" stroke-width="1.44" stroke-linecap="round" stroke-linejoin="round" stroke-miterlimit="10" width="56.693" height="45.529"/>
		
			<rect x="328.904" y="312.146" fill="none" stroke="#000000" stroke-width="1.44" stroke-linecap="round" stroke-linejoin="round" stroke-miterlimit="10" width="56.692" height="45.529"/>
		
			<rect x="385.596" y="312.146" fill="none" stroke="#000000" stroke-width="1.44" stroke-linecap="round" stroke-linejoin="round" stroke-miterlimit="10" width="56.693" height="45.529"/>
		
			<rect x="442.289" y="312.146" fill="none" stroke="#000000" stroke-width="1.44" stroke-linecap="round" stroke-linejoin="round" stroke-miterlimit="10" width="56.692" height="45.529"/>
		
			<rect x="498.98" y="312.146" fill="none" stroke="#000000" stroke-width="1.44" stroke-linecap="round" stroke-linejoin="round" stroke-miterlimit="10" width="56.691" height="45.529"/>
		
			<rect x="555.674" y="312.146" fill="none" stroke="#000000" stroke-width="1.44" stroke-linecap="round" stroke-linejoin="round" stroke-miterlimit="10" width="56.692" height="45.529"/>
		
			<rect x="122.656" y="297.885" fill="none" stroke="#000000" stroke-width="1.44" stroke-linecap="round" stroke-linejoin="round" stroke-miterlimit="10" width="92.863" height="14.264"/>
	</g>
</g>
<rect x="114.152" y="107.221" fill="none" stroke="#000000" stroke-width="1.44" stroke-linecap="round" stroke-linejoin="round" stroke-miterlimit="10" width="549.929" height="45.569"/>
</svg>
