<?xml version="1.0" encoding="utf-8"?>
<!-- Generator: Adobe Illustrator 15.0.0, SVG Export Plug-In . SVG Version: 6.00 Build 0)  -->
<!DOCTYPE svg PUBLIC "-//W3C//DTD SVG 1.1//EN" "http://www.w3.org/Graphics/SVG/1.1/DTD/svg11.dtd">
<svg version="1.1" id="Layer_1" xmlns="http://www.w3.org/2000/svg" xmlns:xlink="http://www.w3.org/1999/xlink" x="0px" y="0px"
	 width="2239.371px" height="1088.504px" viewBox="0 0 2239.371 1088.504" enable-background="new 0 0 2239.371 1088.504"
	 xml:space="preserve">
<rect x="201.72" y="1022.624" fill="none" stroke="#0000FF" stroke-width="0.0283" stroke-miterlimit="10" width="28.346" height="9.922"/>
<rect x="604.239" y="1022.624" fill="none" stroke="#0000FF" stroke-width="0.0283" stroke-miterlimit="10" width="28.346" height="9.922"/>
<g>
	<polygon fill="none" stroke="#0000FF" stroke-width="0.0283" stroke-miterlimit="10" points="135.804,577.504 135.804,577.504 
		105.759,577.504 105.759,569.001 71.746,568.999 71.746,577.504 71.312,577.504 71.312,577.504 41.269,577.504 41.269,588.843 
		32.763,588.843 32.763,617.189 41.269,617.189 41.269,991.362 32.763,991.362 32.763,1019.708 41.269,1019.708 41.269,1031.049 
		71.312,1031.049 71.312,1031.049 71.744,1031.049 71.746,1031.049 71.746,1039.553 105.759,1039.553 105.759,1031.049 
		105.755,1031.049 135.804,1031.049 135.804,1031.049 136.111,1031.049 136.111,1019.708 144.614,1019.708 144.614,991.362 
		136.111,991.362 136.111,617.189 144.614,617.189 144.614,588.843 136.111,588.843 136.111,577.504 	"/>
</g>
<rect x="1861.605" y="1035.498" fill="none" stroke="#0000FF" stroke-width="0.0283" stroke-miterlimit="10" width="28.348" height="9.922"/>
<rect x="1666.947" y="1035.498" fill="none" stroke="#0000FF" stroke-width="0.0283" stroke-miterlimit="10" width="28.346" height="9.922"/>
<rect x="1084.317" y="1035.498" fill="none" stroke="#0000FF" stroke-width="0.0283" stroke-miterlimit="10" width="28.347" height="9.922"/>
<rect x="889.658" y="1035.498" fill="none" stroke="#0000FF" stroke-width="0.0283" stroke-miterlimit="10" width="28.346" height="9.922"/>
<g>
	<g>
		<polyline fill="none" stroke="#0000FF" stroke-width="0.0283" stroke-miterlimit="10" points="249.633,875.338 249.633,885.259 
			215.619,885.259 215.619,875.338 		"/>
		<polyline fill="none" stroke="#0000FF" stroke-width="0.0283" stroke-miterlimit="10" points="215.639,875.338 215.184,875.338 
			215.184,875.338 184.758,875.338 184.758,895.181 184.758,923.526 184.758,923.526 184.758,946.206 176.254,946.206 
			176.254,974.552 184.758,974.552 184.758,974.554 184.758,997.243 184.758,1025.588 184.758,1045.42 215.184,1045.42 
			215.184,1045.42 215.596,1045.42 215.619,1045.42 215.619,1035.497 249.633,1035.497 249.633,1045.42 249.633,1045.42 
			280.111,1045.42 280.111,1025.588 280.111,1025.588 280.111,997.243 280.111,997.243 280.111,974.552 288.614,974.552 
			288.614,946.206 280.744,946.206 280.111,946.206 280.111,923.526 280.111,895.181 280.109,875.338 249.633,875.338 
			249.633,875.338 279.676,875.338 279.676,875.338 		"/>
	</g>
</g>
<g>
	<g>
		<polyline fill="none" stroke="#0000FF" stroke-width="0.0283" stroke-miterlimit="10" points="249.633,274.131 249.633,284.051 
			215.619,284.051 215.619,274.131 		"/>
		<polyline fill="none" stroke="#0000FF" stroke-width="0.0283" stroke-miterlimit="10" points="215.639,274.131 215.184,274.131 
			215.184,274.131 184.758,274.131 184.758,293.974 184.758,322.319 184.758,322.319 184.758,345 176.254,345 176.254,373.345 
			184.758,373.345 184.758,373.347 184.758,396.036 184.758,424.383 184.758,444.213 215.184,444.213 215.184,444.213 
			215.596,444.213 215.619,444.213 215.619,434.29 249.633,434.29 249.633,444.213 249.633,444.213 280.111,444.213 
			280.111,424.383 280.111,424.383 280.111,396.036 280.111,396.036 280.111,373.345 288.614,373.345 288.614,345 280.744,345 
			280.111,345 280.111,322.319 280.111,293.974 280.109,274.131 249.633,274.131 249.633,274.131 279.676,274.131 279.676,274.131 
					"/>
	</g>
</g>
<g>
	
		<rect x="207.436" y="520.06" fill="none" stroke="#0000FF" stroke-width="0.0283" stroke-miterlimit="10" width="31.183" height="28.348"/>
	<g>
		<polyline fill="none" stroke="#0000FF" stroke-width="0.0283" stroke-miterlimit="10" points="249.633,467.052 249.633,476.974 
			215.619,476.974 215.619,467.052 		"/>
		<polyline fill="none" stroke="#0000FF" stroke-width="0.0283" stroke-miterlimit="10" points="215.639,467.052 215.184,467.052 
			215.184,467.052 184.758,467.052 184.758,486.894 184.758,515.238 184.758,515.238 184.758,537.918 176.254,537.918 
			176.254,566.266 184.758,566.266 184.758,566.266 184.758,588.955 184.758,617.301 184.758,637.131 215.184,637.131 
			215.184,637.131 215.596,637.131 215.619,637.131 215.619,627.211 249.633,627.211 249.633,637.131 249.633,637.131 
			280.111,637.131 280.111,617.301 280.111,617.301 280.111,588.955 280.111,588.955 280.111,566.266 288.614,566.266 
			288.614,537.918 280.744,537.918 280.111,537.918 280.111,515.238 280.111,486.894 280.109,467.052 249.633,467.052 
			249.633,467.052 279.676,467.052 279.676,467.052 		"/>
	</g>
</g>
<g>
	<g>
		<polyline fill="none" stroke="#0000FF" stroke-width="0.0283" stroke-miterlimit="10" points="249.633,665.719 249.633,675.639 
			215.619,675.639 215.619,665.719 		"/>
		<polyline fill="none" stroke="#0000FF" stroke-width="0.0283" stroke-miterlimit="10" points="215.639,665.719 215.184,665.719 
			215.184,665.719 184.758,665.719 184.758,685.561 184.758,713.906 184.758,713.906 184.758,736.586 176.254,736.586 
			176.254,764.932 184.758,764.932 184.758,764.934 184.758,787.623 184.758,815.969 184.758,835.799 215.184,835.799 
			215.184,835.799 215.596,835.799 215.619,835.799 215.619,825.877 249.633,825.877 249.633,835.799 249.633,835.799 
			280.111,835.799 280.111,815.969 280.111,815.969 280.111,787.623 280.111,787.623 280.111,764.932 288.614,764.932 
			288.614,736.586 280.744,736.586 280.111,736.586 280.111,713.906 280.111,685.561 280.109,665.719 249.633,665.719 
			249.633,665.719 279.676,665.719 279.676,665.719 		"/>
	</g>
</g>
</svg>
