<?xml version="1.0" encoding="UTF-8"?>
<svg xmlns="http://www.w3.org/2000/svg" xmlns:xlink="http://www.w3.org/1999/xlink" width="46pt" height="54pt" viewBox="0 0 46 54" version="1.1">
<g id="surface3033">
<path style=" stroke:none;fill-rule:evenodd;fill:rgb(45.098039%,45.098039%,87.058824%);fill-opacity:1;" d="M 12.839844 17.964844 L 15.390625 17.964844 L 15.390625 14.28125 L 12.839844 14.28125 Z M 12.839844 17.964844 "/>
<path style=" stroke:none;fill-rule:evenodd;fill:rgb(45.098039%,45.098039%,87.058824%);fill-opacity:1;" d="M 8.589844 17.964844 L 11.140625 17.964844 L 11.140625 14.28125 L 8.589844 14.28125 Z M 8.589844 17.964844 "/>
<path style=" stroke:none;fill-rule:evenodd;fill:rgb(45.098039%,45.098039%,87.058824%);fill-opacity:1;" d="M 19.429688 22.726563 L 22.886719 22.726563 L 22.886719 20.457031 L 19.429688 20.457031 Z M 19.429688 22.726563 "/>
<path style=" stroke:none;fill-rule:evenodd;fill:rgb(45.098039%,45.098039%,87.058824%);fill-opacity:1;" d="M 19.429688 24.570313 L 22.886719 24.570313 L 22.886719 22.300781 L 19.429688 22.300781 Z M 19.429688 24.570313 "/>
<path style=" stroke:none;fill-rule:evenodd;fill:rgb(45.098039%,45.098039%,87.058824%);fill-opacity:1;" d="M 19.429688 26.414063 L 22.886719 26.414063 L 22.886719 24.144531 L 19.429688 24.144531 Z M 19.429688 26.414063 "/>
<path style=" stroke:none;fill-rule:evenodd;fill:rgb(45.098039%,45.098039%,87.058824%);fill-opacity:1;" d="M 19.429688 28.257813 L 22.886719 28.257813 L 22.886719 25.988281 L 19.429688 25.988281 Z M 19.429688 28.257813 "/>
<path style=" stroke:none;fill-rule:evenodd;fill:rgb(45.098039%,45.098039%,87.058824%);fill-opacity:1;" d="M 19.429688 30.097656 L 22.886719 30.097656 L 22.886719 27.828125 L 19.429688 27.828125 Z M 19.429688 30.097656 "/>
<path style=" stroke:none;fill-rule:evenodd;fill:rgb(45.098039%,45.098039%,87.058824%);fill-opacity:1;" d="M 22.71875 33.386719 L 24.988281 33.386719 L 24.988281 29.929688 L 22.71875 29.929688 Z M 22.71875 33.386719 "/>
<path style=" stroke:none;fill-rule:evenodd;fill:rgb(45.098039%,45.098039%,87.058824%);fill-opacity:1;" d="M 24.5625 33.386719 L 26.832031 33.386719 L 26.832031 29.929688 L 24.5625 29.929688 Z M 24.5625 33.386719 "/>
<path style=" stroke:none;fill-rule:evenodd;fill:rgb(45.098039%,45.098039%,87.058824%);fill-opacity:1;" d="M 26.40625 33.386719 L 28.675781 33.386719 L 28.675781 29.929688 L 26.40625 29.929688 Z M 26.40625 33.386719 "/>
<path style=" stroke:none;fill-rule:evenodd;fill:rgb(45.098039%,45.098039%,87.058824%);fill-opacity:1;" d="M 28.246094 33.386719 L 30.515625 33.386719 L 30.515625 29.929688 L 28.246094 29.929688 Z M 28.246094 33.386719 "/>
<path style=" stroke:none;fill-rule:evenodd;fill:rgb(45.098039%,45.098039%,87.058824%);fill-opacity:1;" d="M 30.089844 33.386719 L 32.359375 33.386719 L 32.359375 29.929688 L 30.089844 29.929688 Z M 30.089844 33.386719 "/>
<path style=" stroke:none;fill-rule:evenodd;fill:rgb(45.098039%,45.098039%,87.058824%);fill-opacity:1;" d="M 32.1875 30.097656 L 35.644531 30.097656 L 35.644531 27.828125 L 32.1875 27.828125 Z M 32.1875 30.097656 "/>
<path style=" stroke:none;fill-rule:evenodd;fill:rgb(45.098039%,45.098039%,87.058824%);fill-opacity:1;" d="M 32.1875 28.257813 L 35.644531 28.257813 L 35.644531 25.988281 L 32.1875 25.988281 Z M 32.1875 28.257813 "/>
<path style=" stroke:none;fill-rule:evenodd;fill:rgb(45.098039%,45.098039%,87.058824%);fill-opacity:1;" d="M 32.1875 26.414063 L 35.644531 26.414063 L 35.644531 24.144531 L 32.1875 24.144531 Z M 32.1875 26.414063 "/>
<path style=" stroke:none;fill-rule:evenodd;fill:rgb(45.098039%,45.098039%,87.058824%);fill-opacity:1;" d="M 32.1875 24.570313 L 35.644531 24.570313 L 35.644531 22.300781 L 32.1875 22.300781 Z M 32.1875 24.570313 "/>
<path style=" stroke:none;fill-rule:evenodd;fill:rgb(45.098039%,45.098039%,87.058824%);fill-opacity:1;" d="M 32.1875 22.726563 L 35.644531 22.726563 L 35.644531 20.457031 L 32.1875 20.457031 Z M 32.1875 22.726563 "/>
<path style=" stroke:none;fill-rule:evenodd;fill:rgb(45.098039%,45.098039%,87.058824%);fill-opacity:1;" d="M 30.089844 20.628906 L 32.359375 20.628906 L 32.359375 17.171875 L 30.089844 17.171875 Z M 30.089844 20.628906 "/>
<path style=" stroke:none;fill-rule:evenodd;fill:rgb(45.098039%,45.098039%,87.058824%);fill-opacity:1;" d="M 28.246094 20.628906 L 30.515625 20.628906 L 30.515625 17.171875 L 28.246094 17.171875 Z M 28.246094 20.628906 "/>
<path style=" stroke:none;fill-rule:evenodd;fill:rgb(45.098039%,45.098039%,87.058824%);fill-opacity:1;" d="M 26.40625 20.628906 L 28.675781 20.628906 L 28.675781 17.171875 L 26.40625 17.171875 Z M 26.40625 20.628906 "/>
<path style=" stroke:none;fill-rule:evenodd;fill:rgb(45.098039%,45.098039%,87.058824%);fill-opacity:1;" d="M 24.5625 20.628906 L 26.832031 20.628906 L 26.832031 17.171875 L 24.5625 17.171875 Z M 24.5625 20.628906 "/>
<path style=" stroke:none;fill-rule:evenodd;fill:rgb(45.098039%,45.098039%,87.058824%);fill-opacity:1;" d="M 22.71875 20.628906 L 24.988281 20.628906 L 24.988281 17.171875 L 22.71875 17.171875 Z M 22.71875 20.628906 "/>
<path style=" stroke:none;fill-rule:evenodd;fill:rgb(45.098039%,45.098039%,87.058824%);fill-opacity:1;" d="M 8.914063 34.167969 L 11.464844 34.167969 L 11.464844 30.484375 L 8.914063 30.484375 Z M 8.914063 34.167969 "/>
<path style=" stroke:none;fill-rule:evenodd;fill:rgb(45.098039%,45.098039%,87.058824%);fill-opacity:1;" d="M 13.167969 34.167969 L 15.71875 34.167969 L 15.71875 30.484375 L 13.167969 30.484375 Z M 13.167969 34.167969 "/>
<path style=" stroke:none;fill-rule:evenodd;fill:rgb(45.098039%,45.098039%,87.058824%);fill-opacity:1;" d="M 13.167969 44.964844 L 15.71875 44.964844 L 15.71875 41.28125 L 13.167969 41.28125 Z M 13.167969 44.964844 "/>
<path style=" stroke:none;fill-rule:evenodd;fill:rgb(45.098039%,45.098039%,87.058824%);fill-opacity:1;" d="M 8.914063 44.964844 L 11.464844 44.964844 L 11.464844 41.28125 L 8.914063 41.28125 Z M 8.914063 44.964844 "/>
<path style=" stroke:none;fill-rule:evenodd;fill:rgb(45.098039%,45.098039%,87.058824%);fill-opacity:1;" d="M 13.160156 28.757813 L 15.710938 28.757813 L 15.710938 25.074219 L 13.160156 25.074219 Z M 13.160156 28.757813 "/>
<path style=" stroke:none;fill-rule:evenodd;fill:rgb(45.098039%,45.098039%,87.058824%);fill-opacity:1;" d="M 8.910156 28.757813 L 11.460938 28.757813 L 11.460938 25.074219 L 8.910156 25.074219 Z M 8.910156 28.757813 "/>
<path style=" stroke:none;fill-rule:evenodd;fill:rgb(45.098039%,45.098039%,87.058824%);fill-opacity:1;" d="M 13.167969 23.367188 L 15.71875 23.367188 L 15.71875 19.683594 L 13.167969 19.683594 Z M 13.167969 23.367188 "/>
<path style=" stroke:none;fill-rule:evenodd;fill:rgb(45.098039%,45.098039%,87.058824%);fill-opacity:1;" d="M 8.914063 23.367188 L 11.464844 23.367188 L 11.464844 19.683594 L 8.914063 19.683594 Z M 8.914063 23.367188 "/>
<path style=" stroke:none;fill-rule:evenodd;fill:rgb(45.098039%,45.098039%,87.058824%);fill-opacity:1;" d="M 8.132813 12.523438 C 8.132813 8.503906 2.101563 8.503906 2.101563 12.523438 C 2.101563 16.542969 8.132813 16.542969 8.132813 12.523438 "/>
<path style=" stroke:none;fill-rule:evenodd;fill:rgb(45.098039%,45.098039%,87.058824%);fill-opacity:1;" d="M 8.132813 5.324219 C 8.132813 1.304688 2.101563 1.304688 2.101563 5.324219 C 2.101563 9.34375 8.132813 9.34375 8.132813 5.324219 "/>
<path style=" stroke:none;fill-rule:evenodd;fill:rgb(45.098039%,45.098039%,87.058824%);fill-opacity:1;" d="M 8.132813 41.324219 C 8.132813 37.304688 2.101563 37.304688 2.101563 41.324219 C 2.101563 45.34375 8.132813 45.34375 8.132813 41.324219 "/>
<path style=" stroke:none;fill-rule:evenodd;fill:rgb(45.098039%,45.098039%,87.058824%);fill-opacity:1;" d="M 8.132813 19.722656 C 8.132813 15.703125 2.101563 15.703125 2.101563 19.722656 C 2.101563 23.742188 8.132813 23.742188 8.132813 19.722656 "/>
<path style=" stroke:none;fill-rule:evenodd;fill:rgb(45.098039%,45.098039%,87.058824%);fill-opacity:1;" d="M 8.132813 26.921875 C 8.132813 22.902344 2.101563 22.902344 2.101563 26.921875 C 2.101563 30.945313 8.132813 30.945313 8.132813 26.921875 "/>
<path style=" stroke:none;fill-rule:evenodd;fill:rgb(45.098039%,45.098039%,87.058824%);fill-opacity:1;" d="M 8.132813 34.125 C 8.132813 30.105469 2.101563 30.105469 2.101563 34.125 C 2.101563 38.144531 8.132813 38.144531 8.132813 34.125 "/>
<path style=" stroke:none;fill-rule:evenodd;fill:rgb(45.098039%,45.098039%,87.058824%);fill-opacity:1;" d="M 13.042969 39.238281 L 16.445313 39.238281 L 16.445313 35.976563 L 13.042969 35.976563 Z M 13.042969 39.238281 "/>
<path style=" stroke:none;fill-rule:evenodd;fill:rgb(45.098039%,45.098039%,87.058824%);fill-opacity:1;" d="M 8.792969 39.238281 L 12.195313 39.238281 L 12.195313 35.976563 L 8.792969 35.976563 Z M 8.792969 39.238281 "/>
<path style=" stroke:none;fill-rule:evenodd;fill:rgb(45.098039%,45.098039%,87.058824%);fill-opacity:1;" d="M 12.742188 12.351563 L 16.144531 12.351563 L 16.144531 9.089844 L 12.742188 9.089844 Z M 12.742188 12.351563 "/>
<path style=" stroke:none;fill-rule:evenodd;fill:rgb(45.098039%,45.098039%,87.058824%);fill-opacity:1;" d="M 8.488281 12.351563 L 11.890625 12.351563 L 11.890625 9.089844 L 8.488281 9.089844 Z M 8.488281 12.351563 "/>
<path style=" stroke:none;fill-rule:evenodd;fill:rgb(45.098039%,45.098039%,87.058824%);fill-opacity:1;" d="M 22.53125 48.523438 C 22.53125 44.503906 16.5 44.503906 16.5 48.523438 C 16.5 52.542969 22.53125 52.542969 22.53125 48.523438 "/>
<path style=" stroke:none;fill-rule:evenodd;fill:rgb(45.098039%,45.098039%,87.058824%);fill-opacity:1;" d="M 29.730469 48.523438 C 29.730469 44.503906 23.703125 44.503906 23.703125 48.523438 C 23.703125 52.542969 29.730469 52.542969 29.730469 48.523438 "/>
<path style=" stroke:none;fill-rule:evenodd;fill:rgb(45.098039%,45.098039%,87.058824%);fill-opacity:1;" d="M 36.929688 48.523438 C 36.929688 44.503906 30.902344 44.503906 30.902344 48.523438 C 30.902344 52.542969 36.929688 52.542969 36.929688 48.523438 "/>
<path style=" stroke:none;fill-rule:evenodd;fill:rgb(45.098039%,45.098039%,87.058824%);fill-opacity:1;" d="M 44.132813 48.523438 C 44.132813 44.503906 38.101563 44.503906 38.101563 48.523438 C 38.101563 52.542969 44.132813 52.542969 44.132813 48.523438 "/>
<path style=" stroke:none;fill-rule:evenodd;fill:rgb(45.098039%,45.098039%,87.058824%);fill-opacity:1;" d="M 44.132813 41.324219 C 44.132813 37.304688 38.101563 37.304688 38.101563 41.324219 C 38.101563 45.34375 44.132813 45.34375 44.132813 41.324219 "/>
<path style=" stroke:none;fill-rule:evenodd;fill:rgb(45.098039%,45.098039%,87.058824%);fill-opacity:1;" d="M 44.132813 34.125 C 44.132813 30.105469 38.101563 30.105469 38.101563 34.125 C 38.101563 38.144531 44.132813 38.144531 44.132813 34.125 "/>
<path style=" stroke:none;fill-rule:evenodd;fill:rgb(45.098039%,45.098039%,87.058824%);fill-opacity:1;" d="M 44.132813 26.921875 C 44.132813 22.902344 38.101563 22.902344 38.101563 26.921875 C 38.101563 30.945313 44.132813 30.945313 44.132813 26.921875 "/>
<path style=" stroke:none;fill-rule:evenodd;fill:rgb(45.098039%,45.098039%,87.058824%);fill-opacity:1;" d="M 44.132813 19.722656 C 44.132813 15.703125 38.101563 15.703125 38.101563 19.722656 C 38.101563 23.742188 44.132813 23.742188 44.132813 19.722656 "/>
<path style=" stroke:none;fill-rule:evenodd;fill:rgb(45.098039%,45.098039%,87.058824%);fill-opacity:1;" d="M 44.132813 5.324219 C 44.132813 1.304688 38.101563 1.304688 38.101563 5.324219 C 38.101563 9.34375 44.132813 9.34375 44.132813 5.324219 "/>
<path style=" stroke:none;fill-rule:evenodd;fill:rgb(45.098039%,45.098039%,87.058824%);fill-opacity:1;" d="M 36.929688 5.324219 C 36.929688 1.304688 30.902344 1.304688 30.902344 5.324219 C 30.902344 9.34375 36.929688 9.34375 36.929688 5.324219 "/>
<path style=" stroke:none;fill-rule:evenodd;fill:rgb(45.098039%,45.098039%,87.058824%);fill-opacity:1;" d="M 29.730469 5.324219 C 29.730469 1.304688 23.703125 1.304688 23.703125 5.324219 C 23.703125 9.34375 29.730469 9.34375 29.730469 5.324219 "/>
<path style=" stroke:none;fill-rule:evenodd;fill:rgb(45.098039%,45.098039%,87.058824%);fill-opacity:1;" d="M 22.53125 5.324219 C 22.53125 1.304688 16.5 1.304688 16.5 5.324219 C 16.5 9.34375 22.53125 9.34375 22.53125 5.324219 "/>
</g>
</svg>
