G04 #@! TF.FileFunction,Soldermask,Top*
%FSLAX46Y46*%
G04 Gerber Fmt 4.6, Leading zero omitted, Abs format (unit mm)*
G04 Created by KiCad (PCBNEW 4.0.4-stable) date 11/14/16 13:42:01*
%MOMM*%
%LPD*%
G01*
G04 APERTURE LIST*
%ADD10C,0.100000*%
%ADD11R,0.900000X1.300000*%
%ADD12R,1.220000X0.800000*%
%ADD13R,0.800000X1.220000*%
%ADD14C,2.127200*%
%ADD15R,1.200000X1.150000*%
G04 APERTURE END LIST*
D10*
D11*
X145415000Y-77470000D03*
X143915000Y-77470000D03*
D12*
X147900000Y-79400000D03*
X147900000Y-80050000D03*
X147900000Y-80700000D03*
X147900000Y-81350000D03*
X147900000Y-82000000D03*
D13*
X148850000Y-82950000D03*
X149500000Y-82950000D03*
X150150000Y-82950000D03*
X150800000Y-82950000D03*
X151450000Y-82950000D03*
D12*
X152400000Y-82000000D03*
X152400000Y-81350000D03*
X152400000Y-80700000D03*
X152400000Y-80050000D03*
X152400000Y-79400000D03*
D13*
X151450000Y-78450000D03*
X150800000Y-78450000D03*
X150150000Y-78450000D03*
X149500000Y-78450000D03*
X148850000Y-78450000D03*
D11*
X144030000Y-83185000D03*
X145530000Y-83185000D03*
X145530000Y-86995000D03*
X144030000Y-86995000D03*
X145528160Y-81277460D03*
X144028160Y-81277460D03*
X145530000Y-79375000D03*
X144030000Y-79375000D03*
D14*
X142240000Y-76200000D03*
X142240000Y-73660000D03*
X142240000Y-86360000D03*
X142240000Y-78740000D03*
X142240000Y-81280000D03*
X142240000Y-83820000D03*
D15*
X145636660Y-85048952D03*
X144136660Y-85048952D03*
X145530000Y-75565000D03*
X144030000Y-75565000D03*
D14*
X147320000Y-88900000D03*
X149860000Y-88900000D03*
X152400000Y-88900000D03*
X154940000Y-88900000D03*
X154940000Y-86360000D03*
X154940000Y-83820000D03*
X154940000Y-81280000D03*
X154940000Y-78740000D03*
X154940000Y-73660000D03*
X152400000Y-73660000D03*
X149860000Y-73660000D03*
X147320000Y-73660000D03*
M02*
