M48
INCH,TZ
T1C0.016
T2C0.040
%
G90
G05
T1
X56981Y-30526
X57000Y-33900
X57001Y-31256
X57025Y-32025
X57250Y-29000
X58000Y-33200
T2
X56000Y-29000
X56000Y-30000
X56000Y-31000
X56000Y-32000
X56000Y-33000
X56000Y-34000
X58000Y-29000
X58000Y-35000
X59000Y-29000
X59000Y-35000
X60000Y-29000
X60000Y-35000
X61000Y-29000
X61000Y-31000
X61000Y-32000
X61000Y-33000
X61000Y-34000
X61000Y-35000
T0
M30
