G04 #@! TF.FileFunction,Copper,L1,Top,Signal*
%FSLAX46Y46*%
G04 Gerber Fmt 4.6, Leading zero omitted, Abs format (unit mm)*
G04 Created by KiCad (PCBNEW 4.0.4-stable) date 11/14/16 13:42:01*
%MOMM*%
%LPD*%
G01*
G04 APERTURE LIST*
%ADD10C,0.100000*%
%ADD11R,0.500000X0.900000*%
%ADD12R,0.820000X0.400000*%
%ADD13R,0.400000X0.820000*%
%ADD14C,1.727200*%
%ADD15R,0.800000X0.750000*%
%ADD16C,0.600000*%
%ADD17C,0.250000*%
G04 APERTURE END LIST*
D10*
D11*
X145415000Y-77470000D03*
X143915000Y-77470000D03*
D12*
X147900000Y-79400000D03*
X147900000Y-80050000D03*
X147900000Y-80700000D03*
X147900000Y-81350000D03*
X147900000Y-82000000D03*
D13*
X148850000Y-82950000D03*
X149500000Y-82950000D03*
X150150000Y-82950000D03*
X150800000Y-82950000D03*
X151450000Y-82950000D03*
D12*
X152400000Y-82000000D03*
X152400000Y-81350000D03*
X152400000Y-80700000D03*
X152400000Y-80050000D03*
X152400000Y-79400000D03*
D13*
X151450000Y-78450000D03*
X150800000Y-78450000D03*
X150150000Y-78450000D03*
X149500000Y-78450000D03*
X148850000Y-78450000D03*
D11*
X144030000Y-83185000D03*
X145530000Y-83185000D03*
X145530000Y-86995000D03*
X144030000Y-86995000D03*
X145528160Y-81277460D03*
X144028160Y-81277460D03*
X145530000Y-79375000D03*
X144030000Y-79375000D03*
D14*
X142240000Y-76200000D03*
X142240000Y-73660000D03*
X142240000Y-86360000D03*
X142240000Y-78740000D03*
X142240000Y-81280000D03*
X142240000Y-83820000D03*
D15*
X145636660Y-85048952D03*
X144136660Y-85048952D03*
X145530000Y-75565000D03*
X144030000Y-75565000D03*
D14*
X147320000Y-88900000D03*
X149860000Y-88900000D03*
X152400000Y-88900000D03*
X154940000Y-88900000D03*
X154940000Y-86360000D03*
X154940000Y-83820000D03*
X154940000Y-81280000D03*
X154940000Y-78740000D03*
X154940000Y-73660000D03*
X152400000Y-73660000D03*
X149860000Y-73660000D03*
X147320000Y-73660000D03*
D16*
X144844759Y-81344759D03*
X144782371Y-79390743D03*
X144731950Y-77536948D03*
X145415000Y-73660000D03*
X147320000Y-84328000D03*
X144780000Y-86106000D03*
D17*
X144844759Y-81344759D02*
X145460861Y-81344759D01*
X145460861Y-81344759D02*
X145528160Y-81277460D01*
X148850000Y-78450000D02*
X148850000Y-78240000D01*
X148850000Y-78240000D02*
X146175000Y-75565000D01*
X146175000Y-75565000D02*
X145530000Y-75565000D01*
X145530000Y-79375000D02*
X144798114Y-79375000D01*
X144798114Y-79375000D02*
X144782371Y-79390743D01*
X145415000Y-77470000D02*
X144798898Y-77470000D01*
X144798898Y-77470000D02*
X144731950Y-77536948D01*
X144325000Y-73660000D02*
X145415000Y-73660000D01*
X145555000Y-75565000D02*
X145530000Y-75565000D01*
X145530000Y-75565000D02*
X145530000Y-74865000D01*
X145530000Y-74865000D02*
X144325000Y-73660000D01*
X143461314Y-73660000D02*
X142240000Y-73660000D01*
X144325000Y-73660000D02*
X143461314Y-73660000D01*
X145530000Y-75765000D02*
X145530000Y-75565000D01*
X148850000Y-83160000D02*
X147682000Y-84328000D01*
X148850000Y-82950000D02*
X148850000Y-83160000D01*
X147682000Y-84328000D02*
X147320000Y-84328000D01*
X144136660Y-85048952D02*
X144136660Y-85462660D01*
X144136660Y-85462660D02*
X144780000Y-86106000D01*
X144030000Y-86995000D02*
X144030000Y-86856000D01*
X144030000Y-86856000D02*
X144780000Y-86106000D01*
X142240000Y-76200000D02*
X143395000Y-76200000D01*
X143395000Y-76200000D02*
X144030000Y-75565000D01*
X144030000Y-86795000D02*
X144030000Y-86995000D01*
X146975000Y-81350000D02*
X147900000Y-81350000D01*
X146975000Y-81350000D02*
X146315000Y-81350000D01*
X146315000Y-81350000D02*
X146131000Y-81534000D01*
X146131000Y-81534000D02*
X146131000Y-81884000D01*
X146131000Y-81884000D02*
X145530000Y-82485000D01*
X145530000Y-82485000D02*
X145530000Y-83185000D01*
X145530000Y-86995000D02*
X146115000Y-86995000D01*
X146115000Y-86995000D02*
X149500000Y-83610000D01*
X149500000Y-83610000D02*
X149500000Y-82950000D01*
X144030000Y-83836659D02*
X143988951Y-83836659D01*
X143988951Y-83836659D02*
X143103599Y-84722011D01*
X143103599Y-84722011D02*
X143103599Y-85496401D01*
X143103599Y-85496401D02*
X142240000Y-86360000D01*
X144030000Y-83185000D02*
X144030000Y-83836659D01*
X143915000Y-77270000D02*
X143915000Y-77470000D01*
X145925001Y-76694999D02*
X144490001Y-76694999D01*
X147900000Y-78669998D02*
X145925001Y-76694999D01*
X144490001Y-76694999D02*
X143915000Y-77270000D01*
X147900000Y-79400000D02*
X147900000Y-78669998D01*
X143915000Y-77470000D02*
X143510000Y-77470000D01*
X143510000Y-77470000D02*
X142240000Y-78740000D01*
X144028160Y-81277460D02*
X144028160Y-81477460D01*
X144028160Y-81477460D02*
X143103599Y-82402021D01*
X143103599Y-82402021D02*
X143103599Y-82956401D01*
X143103599Y-82956401D02*
X142240000Y-83820000D01*
X144603161Y-80502459D02*
X144028160Y-81077460D01*
X147900000Y-80700000D02*
X147240000Y-80700000D01*
X147240000Y-80700000D02*
X147042459Y-80502459D01*
X147042459Y-80502459D02*
X144603161Y-80502459D01*
X144028160Y-81077460D02*
X144028160Y-81277460D01*
X144030000Y-78675000D02*
X144030000Y-79375000D01*
X144105001Y-78599999D02*
X144030000Y-78675000D01*
X146040001Y-78599999D02*
X144105001Y-78599999D01*
X146105001Y-78915001D02*
X146105001Y-78664999D01*
X147240000Y-80050000D02*
X146105001Y-78915001D01*
X147900000Y-80050000D02*
X147240000Y-80050000D01*
X146105001Y-78664999D02*
X146040001Y-78599999D01*
X144030000Y-79375000D02*
X144030000Y-79575000D01*
X144030000Y-79575000D02*
X142325000Y-81280000D01*
X142325000Y-81280000D02*
X142240000Y-81280000D01*
X147690000Y-82000000D02*
X147900000Y-82000000D01*
X145636660Y-84263340D02*
X147240000Y-82660000D01*
X147240000Y-82450000D02*
X147690000Y-82000000D01*
X145636660Y-85048952D02*
X145636660Y-84263340D01*
X147240000Y-82660000D02*
X147240000Y-82450000D01*
X147320000Y-88900000D02*
X150150000Y-86070000D01*
X150150000Y-86070000D02*
X150150000Y-82950000D01*
X149860000Y-88900000D02*
X150800000Y-87960000D01*
X150800000Y-87960000D02*
X150800000Y-82950000D01*
X152400000Y-88900000D02*
X152400000Y-87678686D01*
X152400000Y-87678686D02*
X151450000Y-86728686D01*
X151450000Y-86728686D02*
X151450000Y-83610000D01*
X151450000Y-83610000D02*
X151450000Y-82950000D01*
X154940000Y-88900000D02*
X152588000Y-86548000D01*
X152588000Y-86548000D02*
X152588000Y-82000000D01*
X153103590Y-81350000D02*
X152588000Y-81350000D01*
X153301388Y-81547798D02*
X153103590Y-81350000D01*
X153301388Y-84721388D02*
X153301388Y-81547798D01*
X154940000Y-86360000D02*
X153301388Y-84721388D01*
X153751399Y-81361399D02*
X153090000Y-80700000D01*
X153090000Y-80700000D02*
X152400000Y-80700000D01*
X154940000Y-83820000D02*
X153751399Y-82631399D01*
X153751399Y-82631399D02*
X153751399Y-81361399D01*
X154940000Y-81280000D02*
X153710000Y-80050000D01*
X153710000Y-80050000D02*
X152400000Y-80050000D01*
X154940000Y-78740000D02*
X152610000Y-78740000D01*
X152610000Y-78740000D02*
X152400000Y-78950000D01*
X152400000Y-78950000D02*
X152400000Y-79400000D01*
X151450000Y-78450000D02*
X151450000Y-77150000D01*
X151450000Y-77150000D02*
X154940000Y-73660000D01*
X150800000Y-78450000D02*
X150800000Y-75260000D01*
X150800000Y-75260000D02*
X152400000Y-73660000D01*
X150150000Y-78450000D02*
X150150000Y-73950000D01*
X150150000Y-73950000D02*
X149860000Y-73660000D01*
X149500000Y-78450000D02*
X149500000Y-75840000D01*
X149500000Y-75840000D02*
X147320000Y-73660000D01*
M02*
