G04 #@! TF.FileFunction,Copper,L2,Bot,Signal*
%FSLAX46Y46*%
G04 Gerber Fmt 4.6, Leading zero omitted, Abs format (unit mm)*
G04 Created by KiCad (PCBNEW 4.0.4-stable) date 11/14/16 13:42:01*
%MOMM*%
%LPD*%
G01*
G04 APERTURE LIST*
%ADD10C,0.100000*%
%ADD11C,1.727200*%
%ADD12C,0.600000*%
%ADD13C,0.250000*%
G04 APERTURE END LIST*
D10*
D11*
X142240000Y-76200000D03*
X142240000Y-73660000D03*
X142240000Y-86360000D03*
X142240000Y-78740000D03*
X142240000Y-81280000D03*
X142240000Y-83820000D03*
X147320000Y-88900000D03*
X149860000Y-88900000D03*
X152400000Y-88900000D03*
X154940000Y-88900000D03*
X154940000Y-86360000D03*
X154940000Y-83820000D03*
X154940000Y-81280000D03*
X154940000Y-78740000D03*
X154940000Y-73660000D03*
X152400000Y-73660000D03*
X149860000Y-73660000D03*
X147320000Y-73660000D03*
D12*
X144844759Y-81344759D03*
X144782371Y-79390743D03*
X144731950Y-77536948D03*
X145415000Y-73660000D03*
X147320000Y-84328000D03*
X144780000Y-86106000D03*
D13*
X144782371Y-81282371D02*
X144844759Y-81344759D01*
X144782371Y-79390743D02*
X144782371Y-81282371D01*
X144731950Y-77536948D02*
X144731950Y-79340322D01*
X144731950Y-79340322D02*
X144782371Y-79390743D01*
X145415000Y-73660000D02*
X144731950Y-74343050D01*
X144731950Y-74343050D02*
X144731950Y-77112684D01*
X144731950Y-77112684D02*
X144731950Y-77536948D01*
X144145000Y-81915000D02*
X146558000Y-84328000D01*
X146558000Y-84328000D02*
X146895736Y-84328000D01*
X146895736Y-84328000D02*
X147320000Y-84328000D01*
X144145000Y-85725000D02*
X144399000Y-85725000D01*
X144399000Y-85725000D02*
X144780000Y-86106000D01*
X144145000Y-81915000D02*
X144145000Y-85725000D01*
X144145000Y-78105000D02*
X144145000Y-81915000D01*
X142240000Y-76200000D02*
X144145000Y-78105000D01*
M02*
