G04 #@! TF.FileFunction,Copper,L1,Top,Signal*
%FSLAX46Y46*%
G04 Gerber Fmt 4.6, Leading zero omitted, Abs format (unit mm)*
G04 Created by KiCad (PCBNEW 4.0.4-stable) date 08/04/17 17:34:58*
%MOMM*%
%LPD*%
G01*
G04 APERTURE LIST*
%ADD10C,0.100000*%
%ADD11C,4.064000*%
%ADD12C,1.000000*%
%ADD13R,0.600000X1.900000*%
%ADD14R,2.100000X2.800000*%
%ADD15C,1.727200*%
%ADD16C,0.600000*%
%ADD17C,0.250000*%
%ADD18C,0.254000*%
G04 APERTURE END LIST*
D10*
D11*
X54000000Y10000000D03*
D12*
X81280000Y17780000D03*
X121920000Y17780000D03*
D11*
X156500000Y10000000D03*
D12*
X121920000Y25400000D03*
D13*
X112600000Y16510000D03*
X111600000Y16510000D03*
X110600000Y16510000D03*
X109600000Y16510000D03*
X108600000Y16510000D03*
X107600000Y16510000D03*
X106600000Y16510000D03*
X105600000Y16510000D03*
X104600000Y16510000D03*
X103600000Y16510000D03*
X102600000Y16510000D03*
X101600000Y16510000D03*
X100600000Y16510000D03*
X99600000Y16510000D03*
X98600000Y16510000D03*
X97600000Y16510000D03*
D14*
X90450000Y18860000D03*
X115750000Y18860000D03*
D13*
X96600000Y16510000D03*
X95600000Y16510000D03*
X94600000Y16510000D03*
X93600000Y16510000D03*
D15*
X69850000Y1270000D03*
X77470000Y1270000D03*
X120650000Y1270000D03*
X59690000Y1270000D03*
X52070000Y1270000D03*
X54610000Y1270000D03*
X57150000Y1270000D03*
X62230000Y1270000D03*
X72390000Y1270000D03*
X64770000Y1270000D03*
X67310000Y1270000D03*
X74930000Y1270000D03*
X85090000Y1270000D03*
X80010000Y1270000D03*
X82550000Y1270000D03*
X87630000Y1270000D03*
X97790000Y1270000D03*
X90170000Y1270000D03*
X92710000Y1270000D03*
X95250000Y1270000D03*
X100330000Y1270000D03*
X110490000Y1270000D03*
X102870000Y1270000D03*
X105410000Y1270000D03*
X107950000Y1270000D03*
X113030000Y1270000D03*
X123190000Y1270000D03*
X115570000Y1270000D03*
X118110000Y1270000D03*
X125730000Y1270000D03*
X135890000Y1270000D03*
X128270000Y1270000D03*
X130810000Y1270000D03*
X133350000Y1270000D03*
X138430000Y1270000D03*
X148590000Y1270000D03*
X140970000Y1270000D03*
X143510000Y1270000D03*
X146050000Y1270000D03*
X151130000Y1270000D03*
X133350000Y3810000D03*
X146050000Y3810000D03*
X128270000Y3810000D03*
X130810000Y3810000D03*
X140970000Y3810000D03*
X143510000Y3810000D03*
X135890000Y3810000D03*
X138430000Y3810000D03*
X148590000Y3810000D03*
X151130000Y3810000D03*
X82550000Y3810000D03*
X95250000Y3810000D03*
X77470000Y3810000D03*
X80010000Y3810000D03*
X90170000Y3810000D03*
X92710000Y3810000D03*
X85090000Y3810000D03*
X87630000Y3810000D03*
X97790000Y3810000D03*
X100330000Y3810000D03*
X57150000Y3810000D03*
X69850000Y3810000D03*
X52070000Y3810000D03*
X54610000Y3810000D03*
X64770000Y3810000D03*
X67310000Y3810000D03*
X59690000Y3810000D03*
X62230000Y3810000D03*
X72390000Y3810000D03*
X74930000Y3810000D03*
X107950000Y3810000D03*
X120650000Y3810000D03*
X102870000Y3810000D03*
X105410000Y3810000D03*
X115570000Y3810000D03*
X118110000Y3810000D03*
X110490000Y3810000D03*
X113030000Y3810000D03*
X123190000Y3810000D03*
X125730000Y3810000D03*
X121430553Y10703139D03*
X106190553Y10703139D03*
X103650553Y10703139D03*
X80790553Y10703139D03*
X83330553Y10703139D03*
X85870553Y10703139D03*
X113810553Y10703139D03*
X108730553Y10703139D03*
X111270553Y10703139D03*
X118890553Y10703139D03*
X116350553Y10703139D03*
X96030553Y10703139D03*
X93490553Y10703139D03*
X88410553Y10703139D03*
X90950553Y10703139D03*
X98570553Y10703139D03*
X123970553Y10703139D03*
X101110553Y10703139D03*
D16*
X107950000Y8255000D03*
X78740000Y8890000D03*
X80010000Y15875000D03*
X72390000Y7620000D03*
X73025000Y17145000D03*
X69850000Y6985000D03*
X70485000Y16510000D03*
X77470000Y7620000D03*
X78105000Y13970000D03*
X80010000Y8890000D03*
X84455000Y18415000D03*
D17*
X64770000Y1270000D02*
X64770000Y3810000D01*
X85090000Y1270000D02*
X85090000Y3810000D01*
X100330000Y1270000D02*
X100330000Y3810000D01*
X120650000Y1270000D02*
X120650000Y2491314D01*
X120650000Y2491314D02*
X120650000Y3810000D01*
X130810000Y1270000D02*
X130810000Y3810000D01*
X133350000Y1270000D02*
X133350000Y3810000D01*
X112600000Y16510000D02*
X118163692Y16510000D01*
X111600000Y16510000D02*
X112600000Y16510000D01*
X118163692Y16510000D02*
X123970553Y10703139D01*
X52070000Y1270000D02*
X52070000Y2491314D01*
X52070000Y2491314D02*
X52070000Y3810000D01*
X67310000Y1270000D02*
X67310000Y3810000D01*
X87630000Y1270000D02*
X87630000Y3810000D01*
X102870000Y1270000D02*
X102870000Y3810000D01*
X123190000Y1270000D02*
X123190000Y2491314D01*
X123190000Y2491314D02*
X123190000Y3810000D01*
X125730000Y1270000D02*
X125730000Y3810000D01*
X102600000Y16510000D02*
X102600000Y12192586D01*
X102600000Y12192586D02*
X101110553Y10703139D01*
X92710000Y1270000D02*
X92710000Y3810000D01*
X93531773Y13241773D02*
X89676365Y13241773D01*
X95600000Y16510000D02*
X95600000Y15310000D01*
X95600000Y15310000D02*
X93531773Y13241773D01*
X84194152Y11566738D02*
X83330553Y10703139D01*
X85142425Y12515011D02*
X84194152Y11566738D01*
X88949603Y12515011D02*
X85142425Y12515011D01*
X89676365Y13241773D02*
X88949603Y12515011D01*
X59690000Y1270000D02*
X59690000Y3810000D01*
X82466954Y9839540D02*
X83330553Y10703139D01*
X78076026Y5448612D02*
X82466954Y9839540D01*
X61328612Y5448612D02*
X78076026Y5448612D01*
X59690000Y3810000D02*
X61328612Y5448612D01*
X88962744Y11891740D02*
X87059154Y11891740D01*
X86734152Y11566738D02*
X85870553Y10703139D01*
X87059154Y11891740D02*
X86734152Y11566738D01*
X89862766Y12791762D02*
X88962744Y11891740D01*
X94081762Y12791762D02*
X89862766Y12791762D01*
X96600000Y15310000D02*
X94081762Y12791762D01*
X96600000Y16510000D02*
X96600000Y15310000D01*
X62230000Y1270000D02*
X62230000Y3810000D01*
X85870553Y10703139D02*
X80166015Y4998601D01*
X80166015Y4998601D02*
X63418601Y4998601D01*
X63418601Y4998601D02*
X63093599Y4673599D01*
X63093599Y4673599D02*
X62230000Y3810000D01*
X94271423Y10703139D02*
X93490553Y10703139D01*
X99600000Y16510000D02*
X99600000Y15310000D01*
X99600000Y15310000D02*
X96181740Y11891740D01*
X96181740Y11891740D02*
X95460024Y11891740D01*
X95460024Y11891740D02*
X94271423Y10703139D01*
X107950000Y1270000D02*
X107950000Y3810000D01*
X106690462Y9514538D02*
X107950000Y8255000D01*
X93490553Y10703139D02*
X94679154Y9514538D01*
X94679154Y9514538D02*
X106690462Y9514538D01*
X89274152Y11566738D02*
X88410553Y10703139D01*
X94631751Y12341751D02*
X90049165Y12341751D01*
X97600000Y16510000D02*
X97600000Y15310000D01*
X97600000Y15310000D02*
X94631751Y12341751D01*
X90049165Y12341751D02*
X89274152Y11566738D01*
X110490000Y1270000D02*
X110490000Y3810000D01*
X88410553Y10703139D02*
X92393712Y6719980D01*
X109626401Y4673599D02*
X110490000Y3810000D01*
X92393712Y6719980D02*
X107580020Y6719980D01*
X107580020Y6719980D02*
X109626401Y4673599D01*
X91814152Y11566738D02*
X90950553Y10703139D01*
X94823614Y11891740D02*
X92139154Y11891740D01*
X95631751Y12341751D02*
X95273624Y12341751D01*
X95273624Y12341751D02*
X94823614Y11891740D01*
X98600000Y16510000D02*
X98600000Y15310000D01*
X92139154Y11891740D02*
X91814152Y11566738D01*
X98600000Y15310000D02*
X95631751Y12341751D01*
X113030000Y1270000D02*
X113030000Y3810000D01*
X112166401Y4673599D02*
X113030000Y3810000D01*
X94023694Y7629998D02*
X109210002Y7629998D01*
X90950553Y10703139D02*
X94023694Y7629998D01*
X109210002Y7629998D02*
X112166401Y4673599D01*
X128270000Y1270000D02*
X128270000Y3810000D01*
X135890000Y1270000D02*
X135890000Y3810000D01*
X138430000Y1270000D02*
X138430000Y3810000D01*
X140970000Y3810000D02*
X140970000Y1270000D01*
X143510000Y1270000D02*
X143510000Y3810000D01*
X146050000Y1270000D02*
X146050000Y3810000D01*
X148590000Y1270000D02*
X148590000Y3810000D01*
X151130000Y1270000D02*
X151130000Y3810000D01*
X103600000Y16510000D02*
X103600000Y10753692D01*
X103600000Y10753692D02*
X103650553Y10703139D01*
X54610000Y1270000D02*
X54610000Y3810000D01*
X104600000Y16510000D02*
X104600000Y12293692D01*
X104600000Y12293692D02*
X106190553Y10703139D01*
X57150000Y1270000D02*
X57150000Y3810000D01*
X74930000Y1270000D02*
X74930000Y3810000D01*
X101600000Y16510000D02*
X101600000Y13732586D01*
X101600000Y13732586D02*
X98570553Y10703139D01*
X95250000Y1270000D02*
X95250000Y3810000D01*
X100600000Y16510000D02*
X100600000Y15272586D01*
X100600000Y15272586D02*
X96030553Y10703139D01*
X97790000Y1270000D02*
X97790000Y3810000D01*
X106600000Y16510000D02*
X106600000Y15310000D01*
X106600000Y15310000D02*
X111206861Y10703139D01*
X111206861Y10703139D02*
X111270553Y10703139D01*
X80010000Y1270000D02*
X80010000Y3810000D01*
X78740000Y14605000D02*
X78740000Y8890000D01*
X80010000Y15875000D02*
X78740000Y14605000D01*
X114381082Y11891740D02*
X114706084Y11566738D01*
X112900115Y12249987D02*
X113258362Y11891740D01*
X111931838Y12341751D02*
X112023601Y12249988D01*
X111568249Y12341751D02*
X111931838Y12341751D01*
X112023601Y12249988D02*
X112900115Y12249987D01*
X108600000Y16510000D02*
X108600000Y15310000D01*
X115486954Y11566738D02*
X116350553Y10703139D01*
X108600000Y15310000D02*
X111568249Y12341751D01*
X114706084Y11566738D02*
X115486954Y11566738D01*
X113258362Y11891740D02*
X114381082Y11891740D01*
X72390000Y1270000D02*
X72390000Y3810000D01*
X73025000Y8890000D02*
X72390000Y8255000D01*
X72390000Y8255000D02*
X72390000Y7620000D01*
X73025000Y17145000D02*
X73025000Y8890000D01*
X118026954Y11566738D02*
X118890553Y10703139D01*
X113444761Y12341751D02*
X114567482Y12341751D01*
X114567482Y12341751D02*
X114844232Y12065000D01*
X113086516Y12699996D02*
X113444761Y12341751D01*
X112210002Y12699998D02*
X113086516Y12699996D01*
X109600000Y15310000D02*
X112210002Y12699998D01*
X109600000Y16510000D02*
X109600000Y15310000D01*
X114844232Y12065000D02*
X117528692Y12065000D01*
X117528692Y12065000D02*
X118026954Y11566738D01*
X69850000Y1270000D02*
X69850000Y3810000D01*
X69850000Y15875000D02*
X69850000Y6985000D01*
X70485000Y16510000D02*
X69850000Y15875000D01*
X105600000Y16510000D02*
X105600000Y13833692D01*
X105600000Y13833692D02*
X108730553Y10703139D01*
X77470000Y1270000D02*
X77470000Y2491314D01*
X77470000Y2491314D02*
X77470000Y3810000D01*
X77470000Y13335000D02*
X77470000Y7620000D01*
X78105000Y13970000D02*
X77470000Y13335000D01*
X111745438Y11891740D02*
X111837200Y11799978D01*
X112713714Y11799978D02*
X112946954Y11566738D01*
X112946954Y11566738D02*
X113810553Y10703139D01*
X107600000Y16510000D02*
X107600000Y15310000D01*
X111837200Y11799978D02*
X112713714Y11799978D01*
X107600000Y15310000D02*
X111018260Y11891740D01*
X111018260Y11891740D02*
X111745438Y11891740D01*
X82550000Y1270000D02*
X82550000Y3810000D01*
X79375000Y9525000D02*
X80010000Y8890000D01*
X79375000Y13335000D02*
X79375000Y9525000D01*
X84455000Y18415000D02*
X79375000Y13335000D01*
X90170000Y1270000D02*
X90170000Y3810000D01*
X114845644Y12700000D02*
X119433692Y12700000D01*
X119433692Y12700000D02*
X121430553Y10703139D01*
X110600000Y15310000D02*
X112759993Y13150007D01*
X110600000Y16510000D02*
X110600000Y15310000D01*
X112759993Y13150007D02*
X114395644Y13150000D01*
X114395644Y13150000D02*
X114845644Y12700000D01*
X105410000Y1270000D02*
X105410000Y3810000D01*
X115570000Y1270000D02*
X115570000Y3810000D01*
X118110000Y1270000D02*
X118110000Y2491314D01*
X118110000Y2491314D02*
X118110000Y3810000D01*
D18*
G36*
X120523243Y25679100D02*
X120522758Y25123339D01*
X120734990Y24609697D01*
X121127630Y24216371D01*
X121640900Y24003243D01*
X122196661Y24002758D01*
X122710303Y24214990D01*
X123103629Y24607630D01*
X123316757Y25120900D01*
X123317242Y25676661D01*
X123189839Y25985000D01*
X159315000Y25985000D01*
X159315000Y685000D01*
X152509747Y685000D01*
X152628339Y970602D01*
X152628859Y1566782D01*
X152401192Y2117780D01*
X151979997Y2539710D01*
X151979069Y2540095D01*
X152399710Y2960003D01*
X152628339Y3510602D01*
X152628859Y4106782D01*
X152401192Y4657780D01*
X151979997Y5079710D01*
X151429398Y5308339D01*
X150833218Y5308859D01*
X150282220Y5081192D01*
X149860290Y4659997D01*
X149859905Y4659069D01*
X149439997Y5079710D01*
X148889398Y5308339D01*
X148293218Y5308859D01*
X147742220Y5081192D01*
X147320290Y4659997D01*
X147319905Y4659069D01*
X146899997Y5079710D01*
X146349398Y5308339D01*
X145753218Y5308859D01*
X145202220Y5081192D01*
X144780290Y4659997D01*
X144779905Y4659069D01*
X144359997Y5079710D01*
X143809398Y5308339D01*
X143213218Y5308859D01*
X142662220Y5081192D01*
X142240290Y4659997D01*
X142239905Y4659069D01*
X141819997Y5079710D01*
X141269398Y5308339D01*
X140673218Y5308859D01*
X140122220Y5081192D01*
X139700290Y4659997D01*
X139699905Y4659069D01*
X139279997Y5079710D01*
X138729398Y5308339D01*
X138133218Y5308859D01*
X137582220Y5081192D01*
X137160290Y4659997D01*
X137159905Y4659069D01*
X136739997Y5079710D01*
X136189398Y5308339D01*
X135593218Y5308859D01*
X135042220Y5081192D01*
X134620290Y4659997D01*
X134603459Y4619463D01*
X134403805Y4684200D01*
X133529605Y3810000D01*
X134403805Y2935800D01*
X134603033Y3000399D01*
X134618808Y2962220D01*
X135040003Y2540290D01*
X135040931Y2539905D01*
X134620290Y2119997D01*
X134603459Y2079463D01*
X134403805Y2144200D01*
X133529605Y1270000D01*
X133543748Y1255858D01*
X133364143Y1076253D01*
X133350000Y1090395D01*
X133335858Y1076253D01*
X133156253Y1255858D01*
X133170395Y1270000D01*
X132296195Y2144200D01*
X132080000Y2074099D01*
X131863805Y2144200D01*
X130989605Y1270000D01*
X131003748Y1255858D01*
X130824143Y1076253D01*
X130810000Y1090395D01*
X130795858Y1076253D01*
X130616253Y1255858D01*
X130630395Y1270000D01*
X129756195Y2144200D01*
X129556967Y2079601D01*
X129541192Y2117780D01*
X129119997Y2539710D01*
X129119069Y2540095D01*
X129335546Y2756195D01*
X129935800Y2756195D01*
X130005901Y2540000D01*
X129935800Y2323805D01*
X130810000Y1449605D01*
X131684200Y2323805D01*
X131614099Y2540000D01*
X131684200Y2756195D01*
X132475800Y2756195D01*
X132545901Y2540000D01*
X132475800Y2323805D01*
X133350000Y1449605D01*
X134224200Y2323805D01*
X134154099Y2540000D01*
X134224200Y2756195D01*
X133350000Y3630395D01*
X132475800Y2756195D01*
X131684200Y2756195D01*
X130810000Y3630395D01*
X129935800Y2756195D01*
X129335546Y2756195D01*
X129539710Y2960003D01*
X129556541Y3000537D01*
X129756195Y2935800D01*
X130630395Y3810000D01*
X130989605Y3810000D01*
X131863805Y2935800D01*
X132080000Y3005901D01*
X132296195Y2935800D01*
X133170395Y3810000D01*
X132296195Y4684200D01*
X132080000Y4614099D01*
X131863805Y4684200D01*
X130989605Y3810000D01*
X130630395Y3810000D01*
X129756195Y4684200D01*
X129556967Y4619601D01*
X129541192Y4657780D01*
X129335526Y4863805D01*
X129935800Y4863805D01*
X130810000Y3989605D01*
X131684200Y4863805D01*
X132475800Y4863805D01*
X133350000Y3989605D01*
X134224200Y4863805D01*
X134142259Y5116516D01*
X133581970Y5320248D01*
X132986365Y5294058D01*
X132557741Y5116516D01*
X132475800Y4863805D01*
X131684200Y4863805D01*
X131602259Y5116516D01*
X131041970Y5320248D01*
X130446365Y5294058D01*
X130017741Y5116516D01*
X129935800Y4863805D01*
X129335526Y4863805D01*
X129119997Y5079710D01*
X128569398Y5308339D01*
X127973218Y5308859D01*
X127422220Y5081192D01*
X127000290Y4659997D01*
X126999905Y4659069D01*
X126579997Y5079710D01*
X126029398Y5308339D01*
X125433218Y5308859D01*
X124882220Y5081192D01*
X124460290Y4659997D01*
X124459905Y4659069D01*
X124039997Y5079710D01*
X123489398Y5308339D01*
X122893218Y5308859D01*
X122342220Y5081192D01*
X121920290Y4659997D01*
X121903459Y4619463D01*
X121703805Y4684200D01*
X120829605Y3810000D01*
X121703805Y2935800D01*
X121903033Y3000399D01*
X121918808Y2962220D01*
X122340003Y2540290D01*
X122340931Y2539905D01*
X121920290Y2119997D01*
X121903459Y2079463D01*
X121703805Y2144200D01*
X120829605Y1270000D01*
X120843748Y1255858D01*
X120664143Y1076253D01*
X120650000Y1090395D01*
X120635858Y1076253D01*
X120456253Y1255858D01*
X120470395Y1270000D01*
X119596195Y2144200D01*
X119396967Y2079601D01*
X119381192Y2117780D01*
X118959997Y2539710D01*
X118959069Y2540095D01*
X119175546Y2756195D01*
X119775800Y2756195D01*
X119845901Y2540000D01*
X119775800Y2323805D01*
X120650000Y1449605D01*
X121524200Y2323805D01*
X121454099Y2540000D01*
X121524200Y2756195D01*
X120650000Y3630395D01*
X119775800Y2756195D01*
X119175546Y2756195D01*
X119379710Y2960003D01*
X119396541Y3000537D01*
X119596195Y2935800D01*
X120470395Y3810000D01*
X119596195Y4684200D01*
X119396967Y4619601D01*
X119381192Y4657780D01*
X119175526Y4863805D01*
X119775800Y4863805D01*
X120650000Y3989605D01*
X121524200Y4863805D01*
X121442259Y5116516D01*
X120881970Y5320248D01*
X120286365Y5294058D01*
X119857741Y5116516D01*
X119775800Y4863805D01*
X119175526Y4863805D01*
X118959997Y5079710D01*
X118409398Y5308339D01*
X117813218Y5308859D01*
X117262220Y5081192D01*
X116840290Y4659997D01*
X116839905Y4659069D01*
X116419997Y5079710D01*
X115869398Y5308339D01*
X115273218Y5308859D01*
X114722220Y5081192D01*
X114300290Y4659997D01*
X114299905Y4659069D01*
X113879997Y5079710D01*
X113329398Y5308339D01*
X112733218Y5308859D01*
X112643156Y5271646D01*
X109747403Y8167399D01*
X109500841Y8332146D01*
X109210002Y8389998D01*
X108885118Y8389998D01*
X108885162Y8440167D01*
X108743117Y8783943D01*
X108480327Y9047192D01*
X108136799Y9189838D01*
X108089923Y9189879D01*
X107443447Y9836355D01*
X107460263Y9853142D01*
X107460648Y9854070D01*
X107880556Y9433429D01*
X108431155Y9204800D01*
X109027335Y9204280D01*
X109578333Y9431947D01*
X110000263Y9853142D01*
X110000648Y9854070D01*
X110420556Y9433429D01*
X110971155Y9204800D01*
X111567335Y9204280D01*
X112118333Y9431947D01*
X112540263Y9853142D01*
X112540648Y9854070D01*
X112960556Y9433429D01*
X113511155Y9204800D01*
X114107335Y9204280D01*
X114658333Y9431947D01*
X115080263Y9853142D01*
X115080648Y9854070D01*
X115500556Y9433429D01*
X116051155Y9204800D01*
X116647335Y9204280D01*
X117198333Y9431947D01*
X117620263Y9853142D01*
X117620648Y9854070D01*
X118040556Y9433429D01*
X118591155Y9204800D01*
X119187335Y9204280D01*
X119738333Y9431947D01*
X120160263Y9853142D01*
X120160648Y9854070D01*
X120580556Y9433429D01*
X121131155Y9204800D01*
X121727335Y9204280D01*
X122278333Y9431947D01*
X122700263Y9853142D01*
X122700648Y9854070D01*
X123120556Y9433429D01*
X123671155Y9204800D01*
X124267335Y9204280D01*
X124818333Y9431947D01*
X124858283Y9471828D01*
X153832538Y9471828D01*
X154237709Y8491239D01*
X154987293Y7740345D01*
X155967173Y7333464D01*
X157028172Y7332538D01*
X158008761Y7737709D01*
X158759655Y8487293D01*
X159166536Y9467173D01*
X159167462Y10528172D01*
X158762291Y11508761D01*
X158012707Y12259655D01*
X157032827Y12666536D01*
X155971828Y12667462D01*
X154991239Y12262291D01*
X154240345Y11512707D01*
X153833464Y10532827D01*
X153832538Y9471828D01*
X124858283Y9471828D01*
X125240263Y9853142D01*
X125468892Y10403741D01*
X125469412Y10999921D01*
X125241745Y11550919D01*
X124820550Y11972849D01*
X124269951Y12201478D01*
X123673771Y12201998D01*
X123583709Y12164785D01*
X118701093Y17047401D01*
X118454531Y17212148D01*
X118163692Y17270000D01*
X117408964Y17270000D01*
X117447440Y17460000D01*
X117447440Y17503339D01*
X120522758Y17503339D01*
X120734990Y16989697D01*
X121127630Y16596371D01*
X121640900Y16383243D01*
X122196661Y16382758D01*
X122710303Y16594990D01*
X123103629Y16987630D01*
X123316757Y17500900D01*
X123317242Y18056661D01*
X123105010Y18570303D01*
X122712370Y18963629D01*
X122199100Y19176757D01*
X121643339Y19177242D01*
X121129697Y18965010D01*
X120736371Y18572370D01*
X120523243Y18059100D01*
X120522758Y17503339D01*
X117447440Y17503339D01*
X117447440Y20260000D01*
X117403162Y20495317D01*
X117264090Y20711441D01*
X117051890Y20856431D01*
X116800000Y20907440D01*
X114700000Y20907440D01*
X114464683Y20863162D01*
X114248559Y20724090D01*
X114103569Y20511890D01*
X114052560Y20260000D01*
X114052560Y17460000D01*
X114088311Y17270000D01*
X113547440Y17270000D01*
X113547440Y17460000D01*
X113503162Y17695317D01*
X113364090Y17911441D01*
X113151890Y18056431D01*
X112900000Y18107440D01*
X112300000Y18107440D01*
X112092658Y18068426D01*
X111900000Y18107440D01*
X111300000Y18107440D01*
X111092658Y18068426D01*
X110900000Y18107440D01*
X110300000Y18107440D01*
X110092658Y18068426D01*
X109900000Y18107440D01*
X109300000Y18107440D01*
X109092658Y18068426D01*
X108900000Y18107440D01*
X108300000Y18107440D01*
X108092658Y18068426D01*
X107900000Y18107440D01*
X107300000Y18107440D01*
X107092658Y18068426D01*
X106900000Y18107440D01*
X106300000Y18107440D01*
X106092658Y18068426D01*
X105900000Y18107440D01*
X105300000Y18107440D01*
X105092658Y18068426D01*
X104900000Y18107440D01*
X104300000Y18107440D01*
X104092658Y18068426D01*
X103900000Y18107440D01*
X103300000Y18107440D01*
X103092658Y18068426D01*
X102900000Y18107440D01*
X102300000Y18107440D01*
X102092658Y18068426D01*
X101900000Y18107440D01*
X101300000Y18107440D01*
X101092658Y18068426D01*
X100900000Y18107440D01*
X100300000Y18107440D01*
X100092658Y18068426D01*
X99900000Y18107440D01*
X99300000Y18107440D01*
X99092658Y18068426D01*
X98900000Y18107440D01*
X98300000Y18107440D01*
X98092658Y18068426D01*
X97900000Y18107440D01*
X97300000Y18107440D01*
X97092658Y18068426D01*
X96900000Y18107440D01*
X96300000Y18107440D01*
X96092658Y18068426D01*
X95900000Y18107440D01*
X95300000Y18107440D01*
X95091150Y18068142D01*
X95026309Y18095000D01*
X94885750Y18095000D01*
X94727000Y17936250D01*
X94727000Y17746182D01*
X94703569Y17711890D01*
X94652560Y17460000D01*
X94652560Y16363000D01*
X94473000Y16363000D01*
X94473000Y16383000D01*
X93727000Y16383000D01*
X93727000Y16286250D01*
X93665000Y16224250D01*
X93665000Y15433690D01*
X93727000Y15284009D01*
X93727000Y15083750D01*
X93885750Y14925000D01*
X94026309Y14925000D01*
X94100000Y14955524D01*
X94150008Y14934810D01*
X93216971Y14001773D01*
X89676365Y14001773D01*
X89385526Y13943921D01*
X89138964Y13779174D01*
X88634801Y13275011D01*
X85142425Y13275011D01*
X84851586Y13217159D01*
X84605024Y13052412D01*
X83717667Y12165055D01*
X83629951Y12201478D01*
X83033771Y12201998D01*
X82482773Y11974331D01*
X82060843Y11553136D01*
X82044012Y11512602D01*
X81844358Y11577339D01*
X80970158Y10703139D01*
X80984301Y10688997D01*
X80804696Y10509392D01*
X80790553Y10523534D01*
X80776411Y10509392D01*
X80596806Y10688997D01*
X80610948Y10703139D01*
X80596806Y10717282D01*
X80776411Y10896887D01*
X80790553Y10882744D01*
X81664753Y11756944D01*
X81582812Y12009655D01*
X81022523Y12213387D01*
X80426918Y12187197D01*
X80135000Y12066281D01*
X80135000Y13020198D01*
X83339052Y16224250D01*
X92665000Y16224250D01*
X92665000Y15433690D01*
X92761673Y15200301D01*
X92940302Y15021673D01*
X93173691Y14925000D01*
X93314250Y14925000D01*
X93473000Y15083750D01*
X93473000Y16383000D01*
X92823750Y16383000D01*
X92665000Y16224250D01*
X83339052Y16224250D01*
X84594680Y17479878D01*
X84640167Y17479838D01*
X84983943Y17621883D01*
X85247192Y17884673D01*
X85389838Y18228201D01*
X85390162Y18600167D01*
X85248117Y18943943D01*
X84985327Y19207192D01*
X84641799Y19349838D01*
X84269833Y19350162D01*
X83926057Y19208117D01*
X83662808Y18945327D01*
X83520162Y18601799D01*
X83520121Y18554923D01*
X82676941Y17711743D01*
X82677242Y18056661D01*
X82465010Y18570303D01*
X82072370Y18963629D01*
X81559100Y19176757D01*
X81003339Y19177242D01*
X80489697Y18965010D01*
X80096371Y18572370D01*
X79883243Y18059100D01*
X79882758Y17503339D01*
X80094990Y16989697D01*
X80329571Y16754706D01*
X80196799Y16809838D01*
X79824833Y16810162D01*
X79481057Y16668117D01*
X79217808Y16405327D01*
X79075162Y16061799D01*
X79075121Y16014923D01*
X78202599Y15142401D01*
X78044009Y14905054D01*
X77919833Y14905162D01*
X77576057Y14763117D01*
X77312808Y14500327D01*
X77170162Y14156799D01*
X77170121Y14109923D01*
X76932599Y13872401D01*
X76767852Y13625839D01*
X76710000Y13335000D01*
X76710000Y8182463D01*
X76677808Y8150327D01*
X76535162Y7806799D01*
X76534838Y7434833D01*
X76676883Y7091057D01*
X76939673Y6827808D01*
X77283201Y6685162D01*
X77655167Y6684838D01*
X77998943Y6826883D01*
X78262192Y7089673D01*
X78404838Y7433201D01*
X78405162Y7805167D01*
X78299690Y8060430D01*
X78553201Y7955162D01*
X78925167Y7954838D01*
X79268943Y8096883D01*
X79374954Y8202710D01*
X79479673Y8097808D01*
X79600322Y8047710D01*
X77761224Y6208612D01*
X70395701Y6208612D01*
X70642192Y6454673D01*
X70784838Y6798201D01*
X70785162Y7170167D01*
X70675805Y7434833D01*
X71454838Y7434833D01*
X71596883Y7091057D01*
X71859673Y6827808D01*
X72203201Y6685162D01*
X72575167Y6684838D01*
X72918943Y6826883D01*
X73182192Y7089673D01*
X73324838Y7433201D01*
X73325162Y7805167D01*
X73234467Y8024665D01*
X73562401Y8352599D01*
X73727148Y8599161D01*
X73785000Y8890000D01*
X73785000Y16582537D01*
X73817192Y16614673D01*
X73959838Y16958201D01*
X73960162Y17330167D01*
X73818117Y17673943D01*
X73555327Y17937192D01*
X73211799Y18079838D01*
X72839833Y18080162D01*
X72496057Y17938117D01*
X72232808Y17675327D01*
X72090162Y17331799D01*
X72089838Y16959833D01*
X72231883Y16616057D01*
X72265000Y16582882D01*
X72265000Y9204802D01*
X71852599Y8792401D01*
X71687852Y8545839D01*
X71630000Y8255000D01*
X71630000Y8182463D01*
X71597808Y8150327D01*
X71455162Y7806799D01*
X71454838Y7434833D01*
X70675805Y7434833D01*
X70643117Y7513943D01*
X70610000Y7547118D01*
X70610000Y15560198D01*
X70624680Y15574878D01*
X70670167Y15574838D01*
X71013943Y15716883D01*
X71277192Y15979673D01*
X71419838Y16323201D01*
X71420162Y16695167D01*
X71278117Y17038943D01*
X71015327Y17302192D01*
X70671799Y17444838D01*
X70299833Y17445162D01*
X69956057Y17303117D01*
X69692808Y17040327D01*
X69550162Y16696799D01*
X69550121Y16649923D01*
X69312599Y16412401D01*
X69147852Y16165839D01*
X69090000Y15875000D01*
X69090000Y7547463D01*
X69057808Y7515327D01*
X68915162Y7171799D01*
X68914838Y6799833D01*
X69056883Y6456057D01*
X69303897Y6208612D01*
X61328612Y6208612D01*
X61037772Y6150760D01*
X60791211Y5986013D01*
X60077114Y5271916D01*
X59989398Y5308339D01*
X59393218Y5308859D01*
X58842220Y5081192D01*
X58420290Y4659997D01*
X58419905Y4659069D01*
X57999997Y5079710D01*
X57449398Y5308339D01*
X56853218Y5308859D01*
X56302220Y5081192D01*
X55880290Y4659997D01*
X55879905Y4659069D01*
X55459997Y5079710D01*
X54909398Y5308339D01*
X54313218Y5308859D01*
X53762220Y5081192D01*
X53340290Y4659997D01*
X53339905Y4659069D01*
X52919997Y5079710D01*
X52369398Y5308339D01*
X51773218Y5308859D01*
X51485000Y5189770D01*
X51485000Y9102842D01*
X51737709Y8491239D01*
X52487293Y7740345D01*
X53467173Y7333464D01*
X54528172Y7332538D01*
X55508761Y7737709D01*
X56259655Y8487293D01*
X56666536Y9467173D01*
X56667462Y10528172D01*
X56262291Y11508761D01*
X55512707Y12259655D01*
X54532827Y12666536D01*
X53471828Y12667462D01*
X52491239Y12262291D01*
X51740345Y11512707D01*
X51485000Y10897767D01*
X51485000Y20260000D01*
X88752560Y20260000D01*
X88752560Y17460000D01*
X88796838Y17224683D01*
X88935910Y17008559D01*
X89148110Y16863569D01*
X89400000Y16812560D01*
X91500000Y16812560D01*
X91735317Y16856838D01*
X91951441Y16995910D01*
X92096431Y17208110D01*
X92147440Y17460000D01*
X92147440Y17586310D01*
X92665000Y17586310D01*
X92665000Y16795750D01*
X92823750Y16637000D01*
X93473000Y16637000D01*
X93473000Y17586310D01*
X93665000Y17586310D01*
X93665000Y16795750D01*
X93727000Y16733750D01*
X93727000Y16637000D01*
X94473000Y16637000D01*
X94473000Y16733750D01*
X94535000Y16795750D01*
X94535000Y17586310D01*
X94473000Y17735991D01*
X94473000Y17936250D01*
X94314250Y18095000D01*
X94173691Y18095000D01*
X94100000Y18064476D01*
X94026309Y18095000D01*
X93885750Y18095000D01*
X93727000Y17936250D01*
X93727000Y17735991D01*
X93665000Y17586310D01*
X93473000Y17586310D01*
X93473000Y17936250D01*
X93314250Y18095000D01*
X93173691Y18095000D01*
X92940302Y17998327D01*
X92761673Y17819699D01*
X92665000Y17586310D01*
X92147440Y17586310D01*
X92147440Y20260000D01*
X92103162Y20495317D01*
X91964090Y20711441D01*
X91751890Y20856431D01*
X91500000Y20907440D01*
X89400000Y20907440D01*
X89164683Y20863162D01*
X88948559Y20724090D01*
X88803569Y20511890D01*
X88752560Y20260000D01*
X51485000Y20260000D01*
X51485000Y25985000D01*
X120650264Y25985000D01*
X120523243Y25679100D01*
X120523243Y25679100D01*
G37*
X120523243Y25679100D02*
X120522758Y25123339D01*
X120734990Y24609697D01*
X121127630Y24216371D01*
X121640900Y24003243D01*
X122196661Y24002758D01*
X122710303Y24214990D01*
X123103629Y24607630D01*
X123316757Y25120900D01*
X123317242Y25676661D01*
X123189839Y25985000D01*
X159315000Y25985000D01*
X159315000Y685000D01*
X152509747Y685000D01*
X152628339Y970602D01*
X152628859Y1566782D01*
X152401192Y2117780D01*
X151979997Y2539710D01*
X151979069Y2540095D01*
X152399710Y2960003D01*
X152628339Y3510602D01*
X152628859Y4106782D01*
X152401192Y4657780D01*
X151979997Y5079710D01*
X151429398Y5308339D01*
X150833218Y5308859D01*
X150282220Y5081192D01*
X149860290Y4659997D01*
X149859905Y4659069D01*
X149439997Y5079710D01*
X148889398Y5308339D01*
X148293218Y5308859D01*
X147742220Y5081192D01*
X147320290Y4659997D01*
X147319905Y4659069D01*
X146899997Y5079710D01*
X146349398Y5308339D01*
X145753218Y5308859D01*
X145202220Y5081192D01*
X144780290Y4659997D01*
X144779905Y4659069D01*
X144359997Y5079710D01*
X143809398Y5308339D01*
X143213218Y5308859D01*
X142662220Y5081192D01*
X142240290Y4659997D01*
X142239905Y4659069D01*
X141819997Y5079710D01*
X141269398Y5308339D01*
X140673218Y5308859D01*
X140122220Y5081192D01*
X139700290Y4659997D01*
X139699905Y4659069D01*
X139279997Y5079710D01*
X138729398Y5308339D01*
X138133218Y5308859D01*
X137582220Y5081192D01*
X137160290Y4659997D01*
X137159905Y4659069D01*
X136739997Y5079710D01*
X136189398Y5308339D01*
X135593218Y5308859D01*
X135042220Y5081192D01*
X134620290Y4659997D01*
X134603459Y4619463D01*
X134403805Y4684200D01*
X133529605Y3810000D01*
X134403805Y2935800D01*
X134603033Y3000399D01*
X134618808Y2962220D01*
X135040003Y2540290D01*
X135040931Y2539905D01*
X134620290Y2119997D01*
X134603459Y2079463D01*
X134403805Y2144200D01*
X133529605Y1270000D01*
X133543748Y1255858D01*
X133364143Y1076253D01*
X133350000Y1090395D01*
X133335858Y1076253D01*
X133156253Y1255858D01*
X133170395Y1270000D01*
X132296195Y2144200D01*
X132080000Y2074099D01*
X131863805Y2144200D01*
X130989605Y1270000D01*
X131003748Y1255858D01*
X130824143Y1076253D01*
X130810000Y1090395D01*
X130795858Y1076253D01*
X130616253Y1255858D01*
X130630395Y1270000D01*
X129756195Y2144200D01*
X129556967Y2079601D01*
X129541192Y2117780D01*
X129119997Y2539710D01*
X129119069Y2540095D01*
X129335546Y2756195D01*
X129935800Y2756195D01*
X130005901Y2540000D01*
X129935800Y2323805D01*
X130810000Y1449605D01*
X131684200Y2323805D01*
X131614099Y2540000D01*
X131684200Y2756195D01*
X132475800Y2756195D01*
X132545901Y2540000D01*
X132475800Y2323805D01*
X133350000Y1449605D01*
X134224200Y2323805D01*
X134154099Y2540000D01*
X134224200Y2756195D01*
X133350000Y3630395D01*
X132475800Y2756195D01*
X131684200Y2756195D01*
X130810000Y3630395D01*
X129935800Y2756195D01*
X129335546Y2756195D01*
X129539710Y2960003D01*
X129556541Y3000537D01*
X129756195Y2935800D01*
X130630395Y3810000D01*
X130989605Y3810000D01*
X131863805Y2935800D01*
X132080000Y3005901D01*
X132296195Y2935800D01*
X133170395Y3810000D01*
X132296195Y4684200D01*
X132080000Y4614099D01*
X131863805Y4684200D01*
X130989605Y3810000D01*
X130630395Y3810000D01*
X129756195Y4684200D01*
X129556967Y4619601D01*
X129541192Y4657780D01*
X129335526Y4863805D01*
X129935800Y4863805D01*
X130810000Y3989605D01*
X131684200Y4863805D01*
X132475800Y4863805D01*
X133350000Y3989605D01*
X134224200Y4863805D01*
X134142259Y5116516D01*
X133581970Y5320248D01*
X132986365Y5294058D01*
X132557741Y5116516D01*
X132475800Y4863805D01*
X131684200Y4863805D01*
X131602259Y5116516D01*
X131041970Y5320248D01*
X130446365Y5294058D01*
X130017741Y5116516D01*
X129935800Y4863805D01*
X129335526Y4863805D01*
X129119997Y5079710D01*
X128569398Y5308339D01*
X127973218Y5308859D01*
X127422220Y5081192D01*
X127000290Y4659997D01*
X126999905Y4659069D01*
X126579997Y5079710D01*
X126029398Y5308339D01*
X125433218Y5308859D01*
X124882220Y5081192D01*
X124460290Y4659997D01*
X124459905Y4659069D01*
X124039997Y5079710D01*
X123489398Y5308339D01*
X122893218Y5308859D01*
X122342220Y5081192D01*
X121920290Y4659997D01*
X121903459Y4619463D01*
X121703805Y4684200D01*
X120829605Y3810000D01*
X121703805Y2935800D01*
X121903033Y3000399D01*
X121918808Y2962220D01*
X122340003Y2540290D01*
X122340931Y2539905D01*
X121920290Y2119997D01*
X121903459Y2079463D01*
X121703805Y2144200D01*
X120829605Y1270000D01*
X120843748Y1255858D01*
X120664143Y1076253D01*
X120650000Y1090395D01*
X120635858Y1076253D01*
X120456253Y1255858D01*
X120470395Y1270000D01*
X119596195Y2144200D01*
X119396967Y2079601D01*
X119381192Y2117780D01*
X118959997Y2539710D01*
X118959069Y2540095D01*
X119175546Y2756195D01*
X119775800Y2756195D01*
X119845901Y2540000D01*
X119775800Y2323805D01*
X120650000Y1449605D01*
X121524200Y2323805D01*
X121454099Y2540000D01*
X121524200Y2756195D01*
X120650000Y3630395D01*
X119775800Y2756195D01*
X119175546Y2756195D01*
X119379710Y2960003D01*
X119396541Y3000537D01*
X119596195Y2935800D01*
X120470395Y3810000D01*
X119596195Y4684200D01*
X119396967Y4619601D01*
X119381192Y4657780D01*
X119175526Y4863805D01*
X119775800Y4863805D01*
X120650000Y3989605D01*
X121524200Y4863805D01*
X121442259Y5116516D01*
X120881970Y5320248D01*
X120286365Y5294058D01*
X119857741Y5116516D01*
X119775800Y4863805D01*
X119175526Y4863805D01*
X118959997Y5079710D01*
X118409398Y5308339D01*
X117813218Y5308859D01*
X117262220Y5081192D01*
X116840290Y4659997D01*
X116839905Y4659069D01*
X116419997Y5079710D01*
X115869398Y5308339D01*
X115273218Y5308859D01*
X114722220Y5081192D01*
X114300290Y4659997D01*
X114299905Y4659069D01*
X113879997Y5079710D01*
X113329398Y5308339D01*
X112733218Y5308859D01*
X112643156Y5271646D01*
X109747403Y8167399D01*
X109500841Y8332146D01*
X109210002Y8389998D01*
X108885118Y8389998D01*
X108885162Y8440167D01*
X108743117Y8783943D01*
X108480327Y9047192D01*
X108136799Y9189838D01*
X108089923Y9189879D01*
X107443447Y9836355D01*
X107460263Y9853142D01*
X107460648Y9854070D01*
X107880556Y9433429D01*
X108431155Y9204800D01*
X109027335Y9204280D01*
X109578333Y9431947D01*
X110000263Y9853142D01*
X110000648Y9854070D01*
X110420556Y9433429D01*
X110971155Y9204800D01*
X111567335Y9204280D01*
X112118333Y9431947D01*
X112540263Y9853142D01*
X112540648Y9854070D01*
X112960556Y9433429D01*
X113511155Y9204800D01*
X114107335Y9204280D01*
X114658333Y9431947D01*
X115080263Y9853142D01*
X115080648Y9854070D01*
X115500556Y9433429D01*
X116051155Y9204800D01*
X116647335Y9204280D01*
X117198333Y9431947D01*
X117620263Y9853142D01*
X117620648Y9854070D01*
X118040556Y9433429D01*
X118591155Y9204800D01*
X119187335Y9204280D01*
X119738333Y9431947D01*
X120160263Y9853142D01*
X120160648Y9854070D01*
X120580556Y9433429D01*
X121131155Y9204800D01*
X121727335Y9204280D01*
X122278333Y9431947D01*
X122700263Y9853142D01*
X122700648Y9854070D01*
X123120556Y9433429D01*
X123671155Y9204800D01*
X124267335Y9204280D01*
X124818333Y9431947D01*
X124858283Y9471828D01*
X153832538Y9471828D01*
X154237709Y8491239D01*
X154987293Y7740345D01*
X155967173Y7333464D01*
X157028172Y7332538D01*
X158008761Y7737709D01*
X158759655Y8487293D01*
X159166536Y9467173D01*
X159167462Y10528172D01*
X158762291Y11508761D01*
X158012707Y12259655D01*
X157032827Y12666536D01*
X155971828Y12667462D01*
X154991239Y12262291D01*
X154240345Y11512707D01*
X153833464Y10532827D01*
X153832538Y9471828D01*
X124858283Y9471828D01*
X125240263Y9853142D01*
X125468892Y10403741D01*
X125469412Y10999921D01*
X125241745Y11550919D01*
X124820550Y11972849D01*
X124269951Y12201478D01*
X123673771Y12201998D01*
X123583709Y12164785D01*
X118701093Y17047401D01*
X118454531Y17212148D01*
X118163692Y17270000D01*
X117408964Y17270000D01*
X117447440Y17460000D01*
X117447440Y17503339D01*
X120522758Y17503339D01*
X120734990Y16989697D01*
X121127630Y16596371D01*
X121640900Y16383243D01*
X122196661Y16382758D01*
X122710303Y16594990D01*
X123103629Y16987630D01*
X123316757Y17500900D01*
X123317242Y18056661D01*
X123105010Y18570303D01*
X122712370Y18963629D01*
X122199100Y19176757D01*
X121643339Y19177242D01*
X121129697Y18965010D01*
X120736371Y18572370D01*
X120523243Y18059100D01*
X120522758Y17503339D01*
X117447440Y17503339D01*
X117447440Y20260000D01*
X117403162Y20495317D01*
X117264090Y20711441D01*
X117051890Y20856431D01*
X116800000Y20907440D01*
X114700000Y20907440D01*
X114464683Y20863162D01*
X114248559Y20724090D01*
X114103569Y20511890D01*
X114052560Y20260000D01*
X114052560Y17460000D01*
X114088311Y17270000D01*
X113547440Y17270000D01*
X113547440Y17460000D01*
X113503162Y17695317D01*
X113364090Y17911441D01*
X113151890Y18056431D01*
X112900000Y18107440D01*
X112300000Y18107440D01*
X112092658Y18068426D01*
X111900000Y18107440D01*
X111300000Y18107440D01*
X111092658Y18068426D01*
X110900000Y18107440D01*
X110300000Y18107440D01*
X110092658Y18068426D01*
X109900000Y18107440D01*
X109300000Y18107440D01*
X109092658Y18068426D01*
X108900000Y18107440D01*
X108300000Y18107440D01*
X108092658Y18068426D01*
X107900000Y18107440D01*
X107300000Y18107440D01*
X107092658Y18068426D01*
X106900000Y18107440D01*
X106300000Y18107440D01*
X106092658Y18068426D01*
X105900000Y18107440D01*
X105300000Y18107440D01*
X105092658Y18068426D01*
X104900000Y18107440D01*
X104300000Y18107440D01*
X104092658Y18068426D01*
X103900000Y18107440D01*
X103300000Y18107440D01*
X103092658Y18068426D01*
X102900000Y18107440D01*
X102300000Y18107440D01*
X102092658Y18068426D01*
X101900000Y18107440D01*
X101300000Y18107440D01*
X101092658Y18068426D01*
X100900000Y18107440D01*
X100300000Y18107440D01*
X100092658Y18068426D01*
X99900000Y18107440D01*
X99300000Y18107440D01*
X99092658Y18068426D01*
X98900000Y18107440D01*
X98300000Y18107440D01*
X98092658Y18068426D01*
X97900000Y18107440D01*
X97300000Y18107440D01*
X97092658Y18068426D01*
X96900000Y18107440D01*
X96300000Y18107440D01*
X96092658Y18068426D01*
X95900000Y18107440D01*
X95300000Y18107440D01*
X95091150Y18068142D01*
X95026309Y18095000D01*
X94885750Y18095000D01*
X94727000Y17936250D01*
X94727000Y17746182D01*
X94703569Y17711890D01*
X94652560Y17460000D01*
X94652560Y16363000D01*
X94473000Y16363000D01*
X94473000Y16383000D01*
X93727000Y16383000D01*
X93727000Y16286250D01*
X93665000Y16224250D01*
X93665000Y15433690D01*
X93727000Y15284009D01*
X93727000Y15083750D01*
X93885750Y14925000D01*
X94026309Y14925000D01*
X94100000Y14955524D01*
X94150008Y14934810D01*
X93216971Y14001773D01*
X89676365Y14001773D01*
X89385526Y13943921D01*
X89138964Y13779174D01*
X88634801Y13275011D01*
X85142425Y13275011D01*
X84851586Y13217159D01*
X84605024Y13052412D01*
X83717667Y12165055D01*
X83629951Y12201478D01*
X83033771Y12201998D01*
X82482773Y11974331D01*
X82060843Y11553136D01*
X82044012Y11512602D01*
X81844358Y11577339D01*
X80970158Y10703139D01*
X80984301Y10688997D01*
X80804696Y10509392D01*
X80790553Y10523534D01*
X80776411Y10509392D01*
X80596806Y10688997D01*
X80610948Y10703139D01*
X80596806Y10717282D01*
X80776411Y10896887D01*
X80790553Y10882744D01*
X81664753Y11756944D01*
X81582812Y12009655D01*
X81022523Y12213387D01*
X80426918Y12187197D01*
X80135000Y12066281D01*
X80135000Y13020198D01*
X83339052Y16224250D01*
X92665000Y16224250D01*
X92665000Y15433690D01*
X92761673Y15200301D01*
X92940302Y15021673D01*
X93173691Y14925000D01*
X93314250Y14925000D01*
X93473000Y15083750D01*
X93473000Y16383000D01*
X92823750Y16383000D01*
X92665000Y16224250D01*
X83339052Y16224250D01*
X84594680Y17479878D01*
X84640167Y17479838D01*
X84983943Y17621883D01*
X85247192Y17884673D01*
X85389838Y18228201D01*
X85390162Y18600167D01*
X85248117Y18943943D01*
X84985327Y19207192D01*
X84641799Y19349838D01*
X84269833Y19350162D01*
X83926057Y19208117D01*
X83662808Y18945327D01*
X83520162Y18601799D01*
X83520121Y18554923D01*
X82676941Y17711743D01*
X82677242Y18056661D01*
X82465010Y18570303D01*
X82072370Y18963629D01*
X81559100Y19176757D01*
X81003339Y19177242D01*
X80489697Y18965010D01*
X80096371Y18572370D01*
X79883243Y18059100D01*
X79882758Y17503339D01*
X80094990Y16989697D01*
X80329571Y16754706D01*
X80196799Y16809838D01*
X79824833Y16810162D01*
X79481057Y16668117D01*
X79217808Y16405327D01*
X79075162Y16061799D01*
X79075121Y16014923D01*
X78202599Y15142401D01*
X78044009Y14905054D01*
X77919833Y14905162D01*
X77576057Y14763117D01*
X77312808Y14500327D01*
X77170162Y14156799D01*
X77170121Y14109923D01*
X76932599Y13872401D01*
X76767852Y13625839D01*
X76710000Y13335000D01*
X76710000Y8182463D01*
X76677808Y8150327D01*
X76535162Y7806799D01*
X76534838Y7434833D01*
X76676883Y7091057D01*
X76939673Y6827808D01*
X77283201Y6685162D01*
X77655167Y6684838D01*
X77998943Y6826883D01*
X78262192Y7089673D01*
X78404838Y7433201D01*
X78405162Y7805167D01*
X78299690Y8060430D01*
X78553201Y7955162D01*
X78925167Y7954838D01*
X79268943Y8096883D01*
X79374954Y8202710D01*
X79479673Y8097808D01*
X79600322Y8047710D01*
X77761224Y6208612D01*
X70395701Y6208612D01*
X70642192Y6454673D01*
X70784838Y6798201D01*
X70785162Y7170167D01*
X70675805Y7434833D01*
X71454838Y7434833D01*
X71596883Y7091057D01*
X71859673Y6827808D01*
X72203201Y6685162D01*
X72575167Y6684838D01*
X72918943Y6826883D01*
X73182192Y7089673D01*
X73324838Y7433201D01*
X73325162Y7805167D01*
X73234467Y8024665D01*
X73562401Y8352599D01*
X73727148Y8599161D01*
X73785000Y8890000D01*
X73785000Y16582537D01*
X73817192Y16614673D01*
X73959838Y16958201D01*
X73960162Y17330167D01*
X73818117Y17673943D01*
X73555327Y17937192D01*
X73211799Y18079838D01*
X72839833Y18080162D01*
X72496057Y17938117D01*
X72232808Y17675327D01*
X72090162Y17331799D01*
X72089838Y16959833D01*
X72231883Y16616057D01*
X72265000Y16582882D01*
X72265000Y9204802D01*
X71852599Y8792401D01*
X71687852Y8545839D01*
X71630000Y8255000D01*
X71630000Y8182463D01*
X71597808Y8150327D01*
X71455162Y7806799D01*
X71454838Y7434833D01*
X70675805Y7434833D01*
X70643117Y7513943D01*
X70610000Y7547118D01*
X70610000Y15560198D01*
X70624680Y15574878D01*
X70670167Y15574838D01*
X71013943Y15716883D01*
X71277192Y15979673D01*
X71419838Y16323201D01*
X71420162Y16695167D01*
X71278117Y17038943D01*
X71015327Y17302192D01*
X70671799Y17444838D01*
X70299833Y17445162D01*
X69956057Y17303117D01*
X69692808Y17040327D01*
X69550162Y16696799D01*
X69550121Y16649923D01*
X69312599Y16412401D01*
X69147852Y16165839D01*
X69090000Y15875000D01*
X69090000Y7547463D01*
X69057808Y7515327D01*
X68915162Y7171799D01*
X68914838Y6799833D01*
X69056883Y6456057D01*
X69303897Y6208612D01*
X61328612Y6208612D01*
X61037772Y6150760D01*
X60791211Y5986013D01*
X60077114Y5271916D01*
X59989398Y5308339D01*
X59393218Y5308859D01*
X58842220Y5081192D01*
X58420290Y4659997D01*
X58419905Y4659069D01*
X57999997Y5079710D01*
X57449398Y5308339D01*
X56853218Y5308859D01*
X56302220Y5081192D01*
X55880290Y4659997D01*
X55879905Y4659069D01*
X55459997Y5079710D01*
X54909398Y5308339D01*
X54313218Y5308859D01*
X53762220Y5081192D01*
X53340290Y4659997D01*
X53339905Y4659069D01*
X52919997Y5079710D01*
X52369398Y5308339D01*
X51773218Y5308859D01*
X51485000Y5189770D01*
X51485000Y9102842D01*
X51737709Y8491239D01*
X52487293Y7740345D01*
X53467173Y7333464D01*
X54528172Y7332538D01*
X55508761Y7737709D01*
X56259655Y8487293D01*
X56666536Y9467173D01*
X56667462Y10528172D01*
X56262291Y11508761D01*
X55512707Y12259655D01*
X54532827Y12666536D01*
X53471828Y12667462D01*
X52491239Y12262291D01*
X51740345Y11512707D01*
X51485000Y10897767D01*
X51485000Y20260000D01*
X88752560Y20260000D01*
X88752560Y17460000D01*
X88796838Y17224683D01*
X88935910Y17008559D01*
X89148110Y16863569D01*
X89400000Y16812560D01*
X91500000Y16812560D01*
X91735317Y16856838D01*
X91951441Y16995910D01*
X92096431Y17208110D01*
X92147440Y17460000D01*
X92147440Y17586310D01*
X92665000Y17586310D01*
X92665000Y16795750D01*
X92823750Y16637000D01*
X93473000Y16637000D01*
X93473000Y17586310D01*
X93665000Y17586310D01*
X93665000Y16795750D01*
X93727000Y16733750D01*
X93727000Y16637000D01*
X94473000Y16637000D01*
X94473000Y16733750D01*
X94535000Y16795750D01*
X94535000Y17586310D01*
X94473000Y17735991D01*
X94473000Y17936250D01*
X94314250Y18095000D01*
X94173691Y18095000D01*
X94100000Y18064476D01*
X94026309Y18095000D01*
X93885750Y18095000D01*
X93727000Y17936250D01*
X93727000Y17735991D01*
X93665000Y17586310D01*
X93473000Y17586310D01*
X93473000Y17936250D01*
X93314250Y18095000D01*
X93173691Y18095000D01*
X92940302Y17998327D01*
X92761673Y17819699D01*
X92665000Y17586310D01*
X92147440Y17586310D01*
X92147440Y20260000D01*
X92103162Y20495317D01*
X91964090Y20711441D01*
X91751890Y20856431D01*
X91500000Y20907440D01*
X89400000Y20907440D01*
X89164683Y20863162D01*
X88948559Y20724090D01*
X88803569Y20511890D01*
X88752560Y20260000D01*
X51485000Y20260000D01*
X51485000Y25985000D01*
X120650264Y25985000D01*
X120523243Y25679100D01*
G36*
X87560556Y9433429D02*
X88111155Y9204800D01*
X88707335Y9204280D01*
X88797397Y9241493D01*
X91856311Y6182579D01*
X92102872Y6017832D01*
X92151126Y6008234D01*
X92393712Y5959980D01*
X107265218Y5959980D01*
X107916569Y5308629D01*
X107653218Y5308859D01*
X107102220Y5081192D01*
X106680290Y4659997D01*
X106679905Y4659069D01*
X106259997Y5079710D01*
X105709398Y5308339D01*
X105113218Y5308859D01*
X104562220Y5081192D01*
X104140290Y4659997D01*
X104139905Y4659069D01*
X103719997Y5079710D01*
X103169398Y5308339D01*
X102573218Y5308859D01*
X102022220Y5081192D01*
X101600290Y4659997D01*
X101583459Y4619463D01*
X101383805Y4684200D01*
X100509605Y3810000D01*
X101383805Y2935800D01*
X101583033Y3000399D01*
X101598808Y2962220D01*
X102020003Y2540290D01*
X102020931Y2539905D01*
X101600290Y2119997D01*
X101583459Y2079463D01*
X101383805Y2144200D01*
X100509605Y1270000D01*
X100523748Y1255858D01*
X100344143Y1076253D01*
X100330000Y1090395D01*
X100315858Y1076253D01*
X100136253Y1255858D01*
X100150395Y1270000D01*
X99276195Y2144200D01*
X99076967Y2079601D01*
X99061192Y2117780D01*
X98639997Y2539710D01*
X98639069Y2540095D01*
X98855546Y2756195D01*
X99455800Y2756195D01*
X99525901Y2540000D01*
X99455800Y2323805D01*
X100330000Y1449605D01*
X101204200Y2323805D01*
X101134099Y2540000D01*
X101204200Y2756195D01*
X100330000Y3630395D01*
X99455800Y2756195D01*
X98855546Y2756195D01*
X99059710Y2960003D01*
X99076541Y3000537D01*
X99276195Y2935800D01*
X100150395Y3810000D01*
X99276195Y4684200D01*
X99076967Y4619601D01*
X99061192Y4657780D01*
X98855526Y4863805D01*
X99455800Y4863805D01*
X100330000Y3989605D01*
X101204200Y4863805D01*
X101122259Y5116516D01*
X100561970Y5320248D01*
X99966365Y5294058D01*
X99537741Y5116516D01*
X99455800Y4863805D01*
X98855526Y4863805D01*
X98639997Y5079710D01*
X98089398Y5308339D01*
X97493218Y5308859D01*
X96942220Y5081192D01*
X96520290Y4659997D01*
X96519905Y4659069D01*
X96099997Y5079710D01*
X95549398Y5308339D01*
X94953218Y5308859D01*
X94402220Y5081192D01*
X93980290Y4659997D01*
X93979905Y4659069D01*
X93559997Y5079710D01*
X93009398Y5308339D01*
X92413218Y5308859D01*
X91862220Y5081192D01*
X91440290Y4659997D01*
X91439905Y4659069D01*
X91019997Y5079710D01*
X90469398Y5308339D01*
X89873218Y5308859D01*
X89322220Y5081192D01*
X88900290Y4659997D01*
X88899905Y4659069D01*
X88479997Y5079710D01*
X87929398Y5308339D01*
X87333218Y5308859D01*
X86782220Y5081192D01*
X86360290Y4659997D01*
X86343459Y4619463D01*
X86143805Y4684200D01*
X85269605Y3810000D01*
X86143805Y2935800D01*
X86343033Y3000399D01*
X86358808Y2962220D01*
X86780003Y2540290D01*
X86780931Y2539905D01*
X86360290Y2119997D01*
X86343459Y2079463D01*
X86143805Y2144200D01*
X85269605Y1270000D01*
X85283748Y1255858D01*
X85104143Y1076253D01*
X85090000Y1090395D01*
X85075858Y1076253D01*
X84896253Y1255858D01*
X84910395Y1270000D01*
X84036195Y2144200D01*
X83836967Y2079601D01*
X83821192Y2117780D01*
X83399997Y2539710D01*
X83399069Y2540095D01*
X83615546Y2756195D01*
X84215800Y2756195D01*
X84285901Y2540000D01*
X84215800Y2323805D01*
X85090000Y1449605D01*
X85964200Y2323805D01*
X85894099Y2540000D01*
X85964200Y2756195D01*
X85090000Y3630395D01*
X84215800Y2756195D01*
X83615546Y2756195D01*
X83819710Y2960003D01*
X83836541Y3000537D01*
X84036195Y2935800D01*
X84910395Y3810000D01*
X84036195Y4684200D01*
X83836967Y4619601D01*
X83821192Y4657780D01*
X83615526Y4863805D01*
X84215800Y4863805D01*
X85090000Y3989605D01*
X85964200Y4863805D01*
X85882259Y5116516D01*
X85321970Y5320248D01*
X84726365Y5294058D01*
X84297741Y5116516D01*
X84215800Y4863805D01*
X83615526Y4863805D01*
X83399997Y5079710D01*
X82849398Y5308339D01*
X82253218Y5308859D01*
X81702220Y5081192D01*
X81280290Y4659997D01*
X81279905Y4659069D01*
X81090760Y4848544D01*
X85483439Y9241223D01*
X85571155Y9204800D01*
X86167335Y9204280D01*
X86718333Y9431947D01*
X87140263Y9853142D01*
X87140648Y9854070D01*
X87560556Y9433429D01*
X87560556Y9433429D01*
G37*
X87560556Y9433429D02*
X88111155Y9204800D01*
X88707335Y9204280D01*
X88797397Y9241493D01*
X91856311Y6182579D01*
X92102872Y6017832D01*
X92151126Y6008234D01*
X92393712Y5959980D01*
X107265218Y5959980D01*
X107916569Y5308629D01*
X107653218Y5308859D01*
X107102220Y5081192D01*
X106680290Y4659997D01*
X106679905Y4659069D01*
X106259997Y5079710D01*
X105709398Y5308339D01*
X105113218Y5308859D01*
X104562220Y5081192D01*
X104140290Y4659997D01*
X104139905Y4659069D01*
X103719997Y5079710D01*
X103169398Y5308339D01*
X102573218Y5308859D01*
X102022220Y5081192D01*
X101600290Y4659997D01*
X101583459Y4619463D01*
X101383805Y4684200D01*
X100509605Y3810000D01*
X101383805Y2935800D01*
X101583033Y3000399D01*
X101598808Y2962220D01*
X102020003Y2540290D01*
X102020931Y2539905D01*
X101600290Y2119997D01*
X101583459Y2079463D01*
X101383805Y2144200D01*
X100509605Y1270000D01*
X100523748Y1255858D01*
X100344143Y1076253D01*
X100330000Y1090395D01*
X100315858Y1076253D01*
X100136253Y1255858D01*
X100150395Y1270000D01*
X99276195Y2144200D01*
X99076967Y2079601D01*
X99061192Y2117780D01*
X98639997Y2539710D01*
X98639069Y2540095D01*
X98855546Y2756195D01*
X99455800Y2756195D01*
X99525901Y2540000D01*
X99455800Y2323805D01*
X100330000Y1449605D01*
X101204200Y2323805D01*
X101134099Y2540000D01*
X101204200Y2756195D01*
X100330000Y3630395D01*
X99455800Y2756195D01*
X98855546Y2756195D01*
X99059710Y2960003D01*
X99076541Y3000537D01*
X99276195Y2935800D01*
X100150395Y3810000D01*
X99276195Y4684200D01*
X99076967Y4619601D01*
X99061192Y4657780D01*
X98855526Y4863805D01*
X99455800Y4863805D01*
X100330000Y3989605D01*
X101204200Y4863805D01*
X101122259Y5116516D01*
X100561970Y5320248D01*
X99966365Y5294058D01*
X99537741Y5116516D01*
X99455800Y4863805D01*
X98855526Y4863805D01*
X98639997Y5079710D01*
X98089398Y5308339D01*
X97493218Y5308859D01*
X96942220Y5081192D01*
X96520290Y4659997D01*
X96519905Y4659069D01*
X96099997Y5079710D01*
X95549398Y5308339D01*
X94953218Y5308859D01*
X94402220Y5081192D01*
X93980290Y4659997D01*
X93979905Y4659069D01*
X93559997Y5079710D01*
X93009398Y5308339D01*
X92413218Y5308859D01*
X91862220Y5081192D01*
X91440290Y4659997D01*
X91439905Y4659069D01*
X91019997Y5079710D01*
X90469398Y5308339D01*
X89873218Y5308859D01*
X89322220Y5081192D01*
X88900290Y4659997D01*
X88899905Y4659069D01*
X88479997Y5079710D01*
X87929398Y5308339D01*
X87333218Y5308859D01*
X86782220Y5081192D01*
X86360290Y4659997D01*
X86343459Y4619463D01*
X86143805Y4684200D01*
X85269605Y3810000D01*
X86143805Y2935800D01*
X86343033Y3000399D01*
X86358808Y2962220D01*
X86780003Y2540290D01*
X86780931Y2539905D01*
X86360290Y2119997D01*
X86343459Y2079463D01*
X86143805Y2144200D01*
X85269605Y1270000D01*
X85283748Y1255858D01*
X85104143Y1076253D01*
X85090000Y1090395D01*
X85075858Y1076253D01*
X84896253Y1255858D01*
X84910395Y1270000D01*
X84036195Y2144200D01*
X83836967Y2079601D01*
X83821192Y2117780D01*
X83399997Y2539710D01*
X83399069Y2540095D01*
X83615546Y2756195D01*
X84215800Y2756195D01*
X84285901Y2540000D01*
X84215800Y2323805D01*
X85090000Y1449605D01*
X85964200Y2323805D01*
X85894099Y2540000D01*
X85964200Y2756195D01*
X85090000Y3630395D01*
X84215800Y2756195D01*
X83615546Y2756195D01*
X83819710Y2960003D01*
X83836541Y3000537D01*
X84036195Y2935800D01*
X84910395Y3810000D01*
X84036195Y4684200D01*
X83836967Y4619601D01*
X83821192Y4657780D01*
X83615526Y4863805D01*
X84215800Y4863805D01*
X85090000Y3989605D01*
X85964200Y4863805D01*
X85882259Y5116516D01*
X85321970Y5320248D01*
X84726365Y5294058D01*
X84297741Y5116516D01*
X84215800Y4863805D01*
X83615526Y4863805D01*
X83399997Y5079710D01*
X82849398Y5308339D01*
X82253218Y5308859D01*
X81702220Y5081192D01*
X81280290Y4659997D01*
X81279905Y4659069D01*
X81090760Y4848544D01*
X85483439Y9241223D01*
X85571155Y9204800D01*
X86167335Y9204280D01*
X86718333Y9431947D01*
X87140263Y9853142D01*
X87140648Y9854070D01*
X87560556Y9433429D01*
G36*
X64963748Y3824143D02*
X64949605Y3810000D01*
X65823805Y2935800D01*
X66023033Y3000399D01*
X66038808Y2962220D01*
X66460003Y2540290D01*
X66460931Y2539905D01*
X66040290Y2119997D01*
X66023459Y2079463D01*
X65823805Y2144200D01*
X64949605Y1270000D01*
X64963748Y1255858D01*
X64784143Y1076253D01*
X64770000Y1090395D01*
X64755858Y1076253D01*
X64576253Y1255858D01*
X64590395Y1270000D01*
X63716195Y2144200D01*
X63516967Y2079601D01*
X63501192Y2117780D01*
X63079997Y2539710D01*
X63079069Y2540095D01*
X63295546Y2756195D01*
X63895800Y2756195D01*
X63965901Y2540000D01*
X63895800Y2323805D01*
X64770000Y1449605D01*
X65644200Y2323805D01*
X65574099Y2540000D01*
X65644200Y2756195D01*
X64770000Y3630395D01*
X63895800Y2756195D01*
X63295546Y2756195D01*
X63499710Y2960003D01*
X63516541Y3000537D01*
X63716195Y2935800D01*
X64590395Y3810000D01*
X64576253Y3824143D01*
X64755858Y4003748D01*
X64770000Y3989605D01*
X64784143Y4003748D01*
X64963748Y3824143D01*
X64963748Y3824143D01*
G37*
X64963748Y3824143D02*
X64949605Y3810000D01*
X65823805Y2935800D01*
X66023033Y3000399D01*
X66038808Y2962220D01*
X66460003Y2540290D01*
X66460931Y2539905D01*
X66040290Y2119997D01*
X66023459Y2079463D01*
X65823805Y2144200D01*
X64949605Y1270000D01*
X64963748Y1255858D01*
X64784143Y1076253D01*
X64770000Y1090395D01*
X64755858Y1076253D01*
X64576253Y1255858D01*
X64590395Y1270000D01*
X63716195Y2144200D01*
X63516967Y2079601D01*
X63501192Y2117780D01*
X63079997Y2539710D01*
X63079069Y2540095D01*
X63295546Y2756195D01*
X63895800Y2756195D01*
X63965901Y2540000D01*
X63895800Y2323805D01*
X64770000Y1449605D01*
X65644200Y2323805D01*
X65574099Y2540000D01*
X65644200Y2756195D01*
X64770000Y3630395D01*
X63895800Y2756195D01*
X63295546Y2756195D01*
X63499710Y2960003D01*
X63516541Y3000537D01*
X63716195Y2935800D01*
X64590395Y3810000D01*
X64576253Y3824143D01*
X64755858Y4003748D01*
X64770000Y3989605D01*
X64784143Y4003748D01*
X64963748Y3824143D01*
M02*
