M48
METRIC,TZ
T1C0.400
T2C1.016
T3C3.048
%
G90
G05
T1
X69850Y6985
X70485Y16510
X72390Y7620
X73025Y17145
X77470Y7620
X78105Y13970
X78740Y8890
X80010Y15875
X80010Y8890
X84455Y18415
X107950Y8255
T2
X52070Y3810
X52070Y1270
X54610Y3810
X54610Y1270
X57150Y3810
X57150Y1270
X59690Y3810
X59690Y1270
X62230Y3810
X62230Y1270
X64770Y3810
X64770Y1270
X67310Y3810
X67310Y1270
X69850Y3810
X69850Y1270
X72390Y3810
X72390Y1270
X74930Y3810
X74930Y1270
X77470Y3810
X77470Y1270
X80010Y3810
X80010Y1270
X80791Y10703
X82550Y3810
X82550Y1270
X83331Y10703
X85090Y3810
X85090Y1270
X85871Y10703
X87630Y3810
X87630Y1270
X88411Y10703
X90170Y3810
X90170Y1270
X90951Y10703
X92710Y3810
X92710Y1270
X93491Y10703
X95250Y3810
X95250Y1270
X96031Y10703
X97790Y3810
X97790Y1270
X98571Y10703
X100330Y3810
X100330Y1270
X101111Y10703
X102870Y3810
X102870Y1270
X103651Y10703
X105410Y3810
X105410Y1270
X106191Y10703
X107950Y3810
X107950Y1270
X108731Y10703
X110490Y3810
X110490Y1270
X111271Y10703
X113030Y3810
X113030Y1270
X113811Y10703
X115570Y3810
X115570Y1270
X116351Y10703
X118110Y3810
X118110Y1270
X118891Y10703
X120650Y3810
X120650Y1270
X121431Y10703
X123190Y3810
X123190Y1270
X123971Y10703
X125730Y3810
X125730Y1270
X128270Y3810
X128270Y1270
X130810Y3810
X130810Y1270
X133350Y3810
X133350Y1270
X135890Y3810
X135890Y1270
X138430Y3810
X138430Y1270
X140970Y3810
X140970Y1270
X143510Y3810
X143510Y1270
X146050Y3810
X146050Y1270
X148590Y3810
X148590Y1270
X151130Y3810
X151130Y1270
T3
X54000Y10000
X156500Y10000
T0
M30
