G04 #@! TF.FileFunction,Soldermask,Top*
%FSLAX46Y46*%
G04 Gerber Fmt 4.6, Leading zero omitted, Abs format (unit mm)*
G04 Created by KiCad (PCBNEW 4.0.4-stable) date 08/04/17 17:34:58*
%MOMM*%
%LPD*%
G01*
G04 APERTURE LIST*
%ADD10C,0.100000*%
%ADD11C,4.064000*%
%ADD12C,2.540000*%
%ADD13R,0.600000X1.900000*%
%ADD14R,2.100000X2.800000*%
%ADD15C,1.727200*%
G04 APERTURE END LIST*
D10*
D11*
X54000000Y10000000D03*
D12*
X81280000Y17780000D03*
X121920000Y17780000D03*
D11*
X156500000Y10000000D03*
D12*
X121920000Y25400000D03*
D13*
X112600000Y16510000D03*
X111600000Y16510000D03*
X110600000Y16510000D03*
X109600000Y16510000D03*
X108600000Y16510000D03*
X107600000Y16510000D03*
X106600000Y16510000D03*
X105600000Y16510000D03*
X104600000Y16510000D03*
X103600000Y16510000D03*
X102600000Y16510000D03*
X101600000Y16510000D03*
X100600000Y16510000D03*
X99600000Y16510000D03*
X98600000Y16510000D03*
X97600000Y16510000D03*
D14*
X90450000Y18860000D03*
X115750000Y18860000D03*
D13*
X96600000Y16510000D03*
X95600000Y16510000D03*
X94600000Y16510000D03*
X93600000Y16510000D03*
D15*
X69850000Y1270000D03*
X77470000Y1270000D03*
X120650000Y1270000D03*
X59690000Y1270000D03*
X52070000Y1270000D03*
X54610000Y1270000D03*
X57150000Y1270000D03*
X62230000Y1270000D03*
X72390000Y1270000D03*
X64770000Y1270000D03*
X67310000Y1270000D03*
X74930000Y1270000D03*
X85090000Y1270000D03*
X80010000Y1270000D03*
X82550000Y1270000D03*
X87630000Y1270000D03*
X97790000Y1270000D03*
X90170000Y1270000D03*
X92710000Y1270000D03*
X95250000Y1270000D03*
X100330000Y1270000D03*
X110490000Y1270000D03*
X102870000Y1270000D03*
X105410000Y1270000D03*
X107950000Y1270000D03*
X113030000Y1270000D03*
X123190000Y1270000D03*
X115570000Y1270000D03*
X118110000Y1270000D03*
X125730000Y1270000D03*
X135890000Y1270000D03*
X128270000Y1270000D03*
X130810000Y1270000D03*
X133350000Y1270000D03*
X138430000Y1270000D03*
X148590000Y1270000D03*
X140970000Y1270000D03*
X143510000Y1270000D03*
X146050000Y1270000D03*
X151130000Y1270000D03*
X133350000Y3810000D03*
X146050000Y3810000D03*
X128270000Y3810000D03*
X130810000Y3810000D03*
X140970000Y3810000D03*
X143510000Y3810000D03*
X135890000Y3810000D03*
X138430000Y3810000D03*
X148590000Y3810000D03*
X151130000Y3810000D03*
X82550000Y3810000D03*
X95250000Y3810000D03*
X77470000Y3810000D03*
X80010000Y3810000D03*
X90170000Y3810000D03*
X92710000Y3810000D03*
X85090000Y3810000D03*
X87630000Y3810000D03*
X97790000Y3810000D03*
X100330000Y3810000D03*
X57150000Y3810000D03*
X69850000Y3810000D03*
X52070000Y3810000D03*
X54610000Y3810000D03*
X64770000Y3810000D03*
X67310000Y3810000D03*
X59690000Y3810000D03*
X62230000Y3810000D03*
X72390000Y3810000D03*
X74930000Y3810000D03*
X107950000Y3810000D03*
X120650000Y3810000D03*
X102870000Y3810000D03*
X105410000Y3810000D03*
X115570000Y3810000D03*
X118110000Y3810000D03*
X110490000Y3810000D03*
X113030000Y3810000D03*
X123190000Y3810000D03*
X125730000Y3810000D03*
X121430553Y10703139D03*
X106190553Y10703139D03*
X103650553Y10703139D03*
X80790553Y10703139D03*
X83330553Y10703139D03*
X85870553Y10703139D03*
X113810553Y10703139D03*
X108730553Y10703139D03*
X111270553Y10703139D03*
X118890553Y10703139D03*
X116350553Y10703139D03*
X96030553Y10703139D03*
X93490553Y10703139D03*
X88410553Y10703139D03*
X90950553Y10703139D03*
X98570553Y10703139D03*
X123970553Y10703139D03*
X101110553Y10703139D03*
M02*
