G04 #@! TF.FileFunction,Legend,Top*
%FSLAX46Y46*%
G04 Gerber Fmt 4.6, Leading zero omitted, Abs format (unit mm)*
G04 Created by KiCad (PCBNEW 4.0.4-stable) date 08/04/17 17:34:58*
%MOMM*%
%LPD*%
G01*
G04 APERTURE LIST*
%ADD10C,0.100000*%
%ADD11C,0.150000*%
%ADD12C,0.120000*%
%ADD13C,0.125000*%
G04 APERTURE END LIST*
D10*
D11*
X145855954Y25133762D02*
X145855954Y26283762D01*
X145855954Y25845667D02*
X145965477Y25900429D01*
X146184525Y25900429D01*
X146294049Y25845667D01*
X146348811Y25790905D01*
X146403573Y25681381D01*
X146403573Y25352810D01*
X146348811Y25243286D01*
X146294049Y25188524D01*
X146184525Y25133762D01*
X145965477Y25133762D01*
X145855954Y25188524D01*
X147334525Y25188524D02*
X147225001Y25133762D01*
X147005953Y25133762D01*
X146896430Y25188524D01*
X146841668Y25298048D01*
X146841668Y25736143D01*
X146896430Y25845667D01*
X147005953Y25900429D01*
X147225001Y25900429D01*
X147334525Y25845667D01*
X147389287Y25736143D01*
X147389287Y25626619D01*
X146841668Y25517095D01*
X148046429Y25133762D02*
X147936905Y25188524D01*
X147882144Y25298048D01*
X147882144Y26283762D01*
X148484525Y25133762D02*
X148484525Y25900429D01*
X148484525Y26283762D02*
X148429763Y26229000D01*
X148484525Y26174238D01*
X148539286Y26229000D01*
X148484525Y26283762D01*
X148484525Y26174238D01*
X149470239Y25188524D02*
X149360715Y25133762D01*
X149141667Y25133762D01*
X149032144Y25188524D01*
X148977382Y25298048D01*
X148977382Y25736143D01*
X149032144Y25845667D01*
X149141667Y25900429D01*
X149360715Y25900429D01*
X149470239Y25845667D01*
X149525001Y25736143D01*
X149525001Y25626619D01*
X148977382Y25517095D01*
X149908334Y25900429D02*
X150182143Y25133762D01*
X150455953Y25900429D01*
X151058333Y25133762D02*
X150948809Y25188524D01*
X150894048Y25243286D01*
X150839286Y25352810D01*
X150839286Y25681381D01*
X150894048Y25790905D01*
X150948809Y25845667D01*
X151058333Y25900429D01*
X151222619Y25900429D01*
X151332143Y25845667D01*
X151386905Y25790905D01*
X151441667Y25681381D01*
X151441667Y25352810D01*
X151386905Y25243286D01*
X151332143Y25188524D01*
X151222619Y25133762D01*
X151058333Y25133762D01*
X151770238Y25900429D02*
X152208333Y25900429D01*
X151934524Y26283762D02*
X151934524Y25298048D01*
X151989285Y25188524D01*
X152098809Y25133762D01*
X152208333Y25133762D01*
X152591667Y25133762D02*
X152591667Y25900429D01*
X152591667Y25681381D02*
X152646428Y25790905D01*
X152701190Y25845667D01*
X152810714Y25900429D01*
X152920238Y25900429D01*
X153467857Y25133762D02*
X153358333Y25188524D01*
X153303572Y25243286D01*
X153248810Y25352810D01*
X153248810Y25681381D01*
X153303572Y25790905D01*
X153358333Y25845667D01*
X153467857Y25900429D01*
X153632143Y25900429D01*
X153741667Y25845667D01*
X153796429Y25790905D01*
X153851191Y25681381D01*
X153851191Y25352810D01*
X153796429Y25243286D01*
X153741667Y25188524D01*
X153632143Y25133762D01*
X153467857Y25133762D01*
X154344048Y25900429D02*
X154344048Y25133762D01*
X154344048Y25790905D02*
X154398809Y25845667D01*
X154508333Y25900429D01*
X154672619Y25900429D01*
X154782143Y25845667D01*
X154836905Y25736143D01*
X154836905Y25133762D01*
X155384524Y25243286D02*
X155439285Y25188524D01*
X155384524Y25133762D01*
X155329762Y25188524D01*
X155384524Y25243286D01*
X155384524Y25133762D01*
X156425000Y25188524D02*
X156315476Y25133762D01*
X156096428Y25133762D01*
X155986904Y25188524D01*
X155932143Y25243286D01*
X155877381Y25352810D01*
X155877381Y25681381D01*
X155932143Y25790905D01*
X155986904Y25845667D01*
X156096428Y25900429D01*
X156315476Y25900429D01*
X156425000Y25845667D01*
X157082142Y25133762D02*
X156972618Y25188524D01*
X156917857Y25243286D01*
X156863095Y25352810D01*
X156863095Y25681381D01*
X156917857Y25790905D01*
X156972618Y25845667D01*
X157082142Y25900429D01*
X157246428Y25900429D01*
X157355952Y25845667D01*
X157410714Y25790905D01*
X157465476Y25681381D01*
X157465476Y25352810D01*
X157410714Y25243286D01*
X157355952Y25188524D01*
X157246428Y25133762D01*
X157082142Y25133762D01*
X157958333Y25133762D02*
X157958333Y25900429D01*
X157958333Y25790905D02*
X158013094Y25845667D01*
X158122618Y25900429D01*
X158286904Y25900429D01*
X158396428Y25845667D01*
X158451190Y25736143D01*
X158451190Y25133762D01*
X158451190Y25736143D02*
X158505952Y25845667D01*
X158615475Y25900429D01*
X158779761Y25900429D01*
X158889285Y25845667D01*
X158944047Y25736143D01*
X158944047Y25133762D01*
X53530476Y23848095D02*
X53530476Y24648095D01*
X53835238Y24648095D01*
X53911429Y24610000D01*
X53949524Y24571905D01*
X53987619Y24495714D01*
X53987619Y24381429D01*
X53949524Y24305238D01*
X53911429Y24267143D01*
X53835238Y24229048D01*
X53530476Y24229048D01*
X54787619Y23924286D02*
X54749524Y23886190D01*
X54635238Y23848095D01*
X54559048Y23848095D01*
X54444762Y23886190D01*
X54368571Y23962381D01*
X54330476Y24038571D01*
X54292381Y24190952D01*
X54292381Y24305238D01*
X54330476Y24457619D01*
X54368571Y24533810D01*
X54444762Y24610000D01*
X54559048Y24648095D01*
X54635238Y24648095D01*
X54749524Y24610000D01*
X54787619Y24571905D01*
X55397143Y24267143D02*
X55511429Y24229048D01*
X55549524Y24190952D01*
X55587619Y24114762D01*
X55587619Y24000476D01*
X55549524Y23924286D01*
X55511429Y23886190D01*
X55435238Y23848095D01*
X55130476Y23848095D01*
X55130476Y24648095D01*
X55397143Y24648095D01*
X55473333Y24610000D01*
X55511429Y24571905D01*
X55549524Y24495714D01*
X55549524Y24419524D01*
X55511429Y24343333D01*
X55473333Y24305238D01*
X55397143Y24267143D01*
X55130476Y24267143D01*
X56349524Y23848095D02*
X55892381Y23848095D01*
X56120952Y23848095D02*
X56120952Y24648095D01*
X56044762Y24533810D01*
X55968571Y24457619D01*
X55892381Y24419524D01*
X56844762Y24648095D02*
X56920953Y24648095D01*
X56997143Y24610000D01*
X57035238Y24571905D01*
X57073334Y24495714D01*
X57111429Y24343333D01*
X57111429Y24152857D01*
X57073334Y24000476D01*
X57035238Y23924286D01*
X56997143Y23886190D01*
X56920953Y23848095D01*
X56844762Y23848095D01*
X56768572Y23886190D01*
X56730476Y23924286D01*
X56692381Y24000476D01*
X56654286Y24152857D01*
X56654286Y24343333D01*
X56692381Y24495714D01*
X56730476Y24571905D01*
X56768572Y24610000D01*
X56844762Y24648095D01*
X57873334Y23848095D02*
X57416191Y23848095D01*
X57644762Y23848095D02*
X57644762Y24648095D01*
X57568572Y24533810D01*
X57492381Y24457619D01*
X57416191Y24419524D01*
X58368572Y24648095D02*
X58444763Y24648095D01*
X58520953Y24610000D01*
X58559048Y24571905D01*
X58597144Y24495714D01*
X58635239Y24343333D01*
X58635239Y24152857D01*
X58597144Y24000476D01*
X58559048Y23924286D01*
X58520953Y23886190D01*
X58444763Y23848095D01*
X58368572Y23848095D01*
X58292382Y23886190D01*
X58254286Y23924286D01*
X58216191Y24000476D01*
X58178096Y24152857D01*
X58178096Y24343333D01*
X58216191Y24495714D01*
X58254286Y24571905D01*
X58292382Y24610000D01*
X58368572Y24648095D01*
X58787620Y23771905D02*
X59397144Y23771905D01*
X59854287Y24267143D02*
X59587620Y24267143D01*
X59587620Y23848095D02*
X59587620Y24648095D01*
X59968573Y24648095D01*
X60273334Y23848095D02*
X60273334Y24648095D01*
X60578096Y24648095D01*
X60654287Y24610000D01*
X60692382Y24571905D01*
X60730477Y24495714D01*
X60730477Y24381429D01*
X60692382Y24305238D01*
X60654287Y24267143D01*
X60578096Y24229048D01*
X60273334Y24229048D01*
X61530477Y23924286D02*
X61492382Y23886190D01*
X61378096Y23848095D01*
X61301906Y23848095D01*
X61187620Y23886190D01*
X61111429Y23962381D01*
X61073334Y24038571D01*
X61035239Y24190952D01*
X61035239Y24305238D01*
X61073334Y24457619D01*
X61111429Y24533810D01*
X61187620Y24610000D01*
X61301906Y24648095D01*
X61378096Y24648095D01*
X61492382Y24610000D01*
X61530477Y24571905D01*
X62749525Y24267143D02*
X62863811Y24229048D01*
X62901906Y24190952D01*
X62940001Y24114762D01*
X62940001Y24000476D01*
X62901906Y23924286D01*
X62863811Y23886190D01*
X62787620Y23848095D01*
X62482858Y23848095D01*
X62482858Y24648095D01*
X62749525Y24648095D01*
X62825715Y24610000D01*
X62863811Y24571905D01*
X62901906Y24495714D01*
X62901906Y24419524D01*
X62863811Y24343333D01*
X62825715Y24305238D01*
X62749525Y24267143D01*
X62482858Y24267143D01*
X63282858Y23848095D02*
X63282858Y24381429D01*
X63282858Y24229048D02*
X63320953Y24305238D01*
X63359049Y24343333D01*
X63435239Y24381429D01*
X63511430Y24381429D01*
X64082858Y23886190D02*
X64006668Y23848095D01*
X63854287Y23848095D01*
X63778096Y23886190D01*
X63740001Y23962381D01*
X63740001Y24267143D01*
X63778096Y24343333D01*
X63854287Y24381429D01*
X64006668Y24381429D01*
X64082858Y24343333D01*
X64120953Y24267143D01*
X64120953Y24190952D01*
X63740001Y24114762D01*
X64806667Y23848095D02*
X64806667Y24267143D01*
X64768572Y24343333D01*
X64692382Y24381429D01*
X64540001Y24381429D01*
X64463810Y24343333D01*
X64806667Y23886190D02*
X64730477Y23848095D01*
X64540001Y23848095D01*
X64463810Y23886190D01*
X64425715Y23962381D01*
X64425715Y24038571D01*
X64463810Y24114762D01*
X64540001Y24152857D01*
X64730477Y24152857D01*
X64806667Y24190952D01*
X65187620Y23848095D02*
X65187620Y24648095D01*
X65263811Y24152857D02*
X65492382Y23848095D01*
X65492382Y24381429D02*
X65187620Y24076667D01*
X65949525Y23848095D02*
X65873334Y23886190D01*
X65835239Y23924286D01*
X65797144Y24000476D01*
X65797144Y24229048D01*
X65835239Y24305238D01*
X65873334Y24343333D01*
X65949525Y24381429D01*
X66063811Y24381429D01*
X66140001Y24343333D01*
X66178096Y24305238D01*
X66216192Y24229048D01*
X66216192Y24000476D01*
X66178096Y23924286D01*
X66140001Y23886190D01*
X66063811Y23848095D01*
X65949525Y23848095D01*
X66901906Y24381429D02*
X66901906Y23848095D01*
X66559049Y24381429D02*
X66559049Y23962381D01*
X66597144Y23886190D01*
X66673335Y23848095D01*
X66787621Y23848095D01*
X66863811Y23886190D01*
X66901906Y23924286D01*
X67168573Y24381429D02*
X67473335Y24381429D01*
X67282859Y24648095D02*
X67282859Y23962381D01*
X67320954Y23886190D01*
X67397145Y23848095D01*
X67473335Y23848095D01*
X68311431Y24571905D02*
X68349526Y24610000D01*
X68425717Y24648095D01*
X68616193Y24648095D01*
X68692383Y24610000D01*
X68730479Y24571905D01*
X68768574Y24495714D01*
X68768574Y24419524D01*
X68730479Y24305238D01*
X68273336Y23848095D01*
X68768574Y23848095D01*
X69263812Y24648095D02*
X69340003Y24648095D01*
X69416193Y24610000D01*
X69454288Y24571905D01*
X69492384Y24495714D01*
X69530479Y24343333D01*
X69530479Y24152857D01*
X69492384Y24000476D01*
X69454288Y23924286D01*
X69416193Y23886190D01*
X69340003Y23848095D01*
X69263812Y23848095D01*
X69187622Y23886190D01*
X69149526Y23924286D01*
X69111431Y24000476D01*
X69073336Y24152857D01*
X69073336Y24343333D01*
X69111431Y24495714D01*
X69149526Y24571905D01*
X69187622Y24610000D01*
X69263812Y24648095D01*
X70292384Y23848095D02*
X69835241Y23848095D01*
X70063812Y23848095D02*
X70063812Y24648095D01*
X69987622Y24533810D01*
X69911431Y24457619D01*
X69835241Y24419524D01*
X70559051Y24648095D02*
X71092384Y24648095D01*
X70749527Y23848095D01*
X71397146Y24152857D02*
X72006670Y24152857D01*
X72540003Y24648095D02*
X72616194Y24648095D01*
X72692384Y24610000D01*
X72730479Y24571905D01*
X72768575Y24495714D01*
X72806670Y24343333D01*
X72806670Y24152857D01*
X72768575Y24000476D01*
X72730479Y23924286D01*
X72692384Y23886190D01*
X72616194Y23848095D01*
X72540003Y23848095D01*
X72463813Y23886190D01*
X72425717Y23924286D01*
X72387622Y24000476D01*
X72349527Y24152857D01*
X72349527Y24343333D01*
X72387622Y24495714D01*
X72425717Y24571905D01*
X72463813Y24610000D01*
X72540003Y24648095D01*
X73263813Y24305238D02*
X73187622Y24343333D01*
X73149527Y24381429D01*
X73111432Y24457619D01*
X73111432Y24495714D01*
X73149527Y24571905D01*
X73187622Y24610000D01*
X73263813Y24648095D01*
X73416194Y24648095D01*
X73492384Y24610000D01*
X73530480Y24571905D01*
X73568575Y24495714D01*
X73568575Y24457619D01*
X73530480Y24381429D01*
X73492384Y24343333D01*
X73416194Y24305238D01*
X73263813Y24305238D01*
X73187622Y24267143D01*
X73149527Y24229048D01*
X73111432Y24152857D01*
X73111432Y24000476D01*
X73149527Y23924286D01*
X73187622Y23886190D01*
X73263813Y23848095D01*
X73416194Y23848095D01*
X73492384Y23886190D01*
X73530480Y23924286D01*
X73568575Y24000476D01*
X73568575Y24152857D01*
X73530480Y24229048D01*
X73492384Y24267143D01*
X73416194Y24305238D01*
X73911432Y24152857D02*
X74520956Y24152857D01*
X75054289Y24648095D02*
X75130480Y24648095D01*
X75206670Y24610000D01*
X75244765Y24571905D01*
X75282861Y24495714D01*
X75320956Y24343333D01*
X75320956Y24152857D01*
X75282861Y24000476D01*
X75244765Y23924286D01*
X75206670Y23886190D01*
X75130480Y23848095D01*
X75054289Y23848095D01*
X74978099Y23886190D01*
X74940003Y23924286D01*
X74901908Y24000476D01*
X74863813Y24152857D01*
X74863813Y24343333D01*
X74901908Y24495714D01*
X74940003Y24571905D01*
X74978099Y24610000D01*
X75054289Y24648095D01*
X76006670Y24381429D02*
X76006670Y23848095D01*
X75816194Y24686190D02*
X75625718Y24114762D01*
X76120956Y24114762D01*
X53530476Y22498095D02*
X53530476Y23298095D01*
X53873333Y22498095D02*
X53873333Y22917143D01*
X53835238Y22993333D01*
X53759048Y23031429D01*
X53644762Y23031429D01*
X53568571Y22993333D01*
X53530476Y22955238D01*
X54140000Y23031429D02*
X54444762Y23031429D01*
X54254286Y23298095D02*
X54254286Y22612381D01*
X54292381Y22536190D01*
X54368572Y22498095D01*
X54444762Y22498095D01*
X54597143Y23031429D02*
X54901905Y23031429D01*
X54711429Y23298095D02*
X54711429Y22612381D01*
X54749524Y22536190D01*
X54825715Y22498095D01*
X54901905Y22498095D01*
X55168572Y23031429D02*
X55168572Y22231429D01*
X55168572Y22993333D02*
X55244763Y23031429D01*
X55397144Y23031429D01*
X55473334Y22993333D01*
X55511429Y22955238D01*
X55549525Y22879048D01*
X55549525Y22650476D01*
X55511429Y22574286D01*
X55473334Y22536190D01*
X55397144Y22498095D01*
X55244763Y22498095D01*
X55168572Y22536190D01*
X55854287Y22536190D02*
X55930477Y22498095D01*
X56082858Y22498095D01*
X56159049Y22536190D01*
X56197144Y22612381D01*
X56197144Y22650476D01*
X56159049Y22726667D01*
X56082858Y22764762D01*
X55968573Y22764762D01*
X55892382Y22802857D01*
X55854287Y22879048D01*
X55854287Y22917143D01*
X55892382Y22993333D01*
X55968573Y23031429D01*
X56082858Y23031429D01*
X56159049Y22993333D01*
X56540001Y22574286D02*
X56578096Y22536190D01*
X56540001Y22498095D01*
X56501906Y22536190D01*
X56540001Y22574286D01*
X56540001Y22498095D01*
X56540001Y22993333D02*
X56578096Y22955238D01*
X56540001Y22917143D01*
X56501906Y22955238D01*
X56540001Y22993333D01*
X56540001Y22917143D01*
X57492382Y23336190D02*
X56806667Y22307619D01*
X58330477Y23336190D02*
X57644762Y22307619D01*
X58940000Y23031429D02*
X58940000Y22383810D01*
X58901905Y22307619D01*
X58863810Y22269524D01*
X58787619Y22231429D01*
X58673334Y22231429D01*
X58597143Y22269524D01*
X58940000Y22536190D02*
X58863810Y22498095D01*
X58711429Y22498095D01*
X58635238Y22536190D01*
X58597143Y22574286D01*
X58559048Y22650476D01*
X58559048Y22879048D01*
X58597143Y22955238D01*
X58635238Y22993333D01*
X58711429Y23031429D01*
X58863810Y23031429D01*
X58940000Y22993333D01*
X59320953Y22498095D02*
X59320953Y23031429D01*
X59320953Y23298095D02*
X59282858Y23260000D01*
X59320953Y23221905D01*
X59359048Y23260000D01*
X59320953Y23298095D01*
X59320953Y23221905D01*
X59587619Y23031429D02*
X59892381Y23031429D01*
X59701905Y23298095D02*
X59701905Y22612381D01*
X59740000Y22536190D01*
X59816191Y22498095D01*
X59892381Y22498095D01*
X60159048Y22498095D02*
X60159048Y23298095D01*
X60501905Y22498095D02*
X60501905Y22917143D01*
X60463810Y22993333D01*
X60387620Y23031429D01*
X60273334Y23031429D01*
X60197143Y22993333D01*
X60159048Y22955238D01*
X61225715Y23031429D02*
X61225715Y22498095D01*
X60882858Y23031429D02*
X60882858Y22612381D01*
X60920953Y22536190D01*
X60997144Y22498095D01*
X61111430Y22498095D01*
X61187620Y22536190D01*
X61225715Y22574286D01*
X61606668Y22498095D02*
X61606668Y23298095D01*
X61606668Y22993333D02*
X61682859Y23031429D01*
X61835240Y23031429D01*
X61911430Y22993333D01*
X61949525Y22955238D01*
X61987621Y22879048D01*
X61987621Y22650476D01*
X61949525Y22574286D01*
X61911430Y22536190D01*
X61835240Y22498095D01*
X61682859Y22498095D01*
X61606668Y22536190D01*
X62330478Y22574286D02*
X62368573Y22536190D01*
X62330478Y22498095D01*
X62292383Y22536190D01*
X62330478Y22574286D01*
X62330478Y22498095D01*
X63054287Y22536190D02*
X62978097Y22498095D01*
X62825716Y22498095D01*
X62749525Y22536190D01*
X62711430Y22574286D01*
X62673335Y22650476D01*
X62673335Y22879048D01*
X62711430Y22955238D01*
X62749525Y22993333D01*
X62825716Y23031429D01*
X62978097Y23031429D01*
X63054287Y22993333D01*
X63511430Y22498095D02*
X63435239Y22536190D01*
X63397144Y22574286D01*
X63359049Y22650476D01*
X63359049Y22879048D01*
X63397144Y22955238D01*
X63435239Y22993333D01*
X63511430Y23031429D01*
X63625716Y23031429D01*
X63701906Y22993333D01*
X63740001Y22955238D01*
X63778097Y22879048D01*
X63778097Y22650476D01*
X63740001Y22574286D01*
X63701906Y22536190D01*
X63625716Y22498095D01*
X63511430Y22498095D01*
X64120954Y22498095D02*
X64120954Y23031429D01*
X64120954Y22955238D02*
X64159049Y22993333D01*
X64235240Y23031429D01*
X64349526Y23031429D01*
X64425716Y22993333D01*
X64463811Y22917143D01*
X64463811Y22498095D01*
X64463811Y22917143D02*
X64501907Y22993333D01*
X64578097Y23031429D01*
X64692383Y23031429D01*
X64768573Y22993333D01*
X64806668Y22917143D01*
X64806668Y22498095D01*
X65759050Y23336190D02*
X65073335Y22307619D01*
X66292383Y22917143D02*
X66406669Y22879048D01*
X66444764Y22840952D01*
X66482859Y22764762D01*
X66482859Y22650476D01*
X66444764Y22574286D01*
X66406669Y22536190D01*
X66330478Y22498095D01*
X66025716Y22498095D01*
X66025716Y23298095D01*
X66292383Y23298095D01*
X66368573Y23260000D01*
X66406669Y23221905D01*
X66444764Y23145714D01*
X66444764Y23069524D01*
X66406669Y22993333D01*
X66368573Y22955238D01*
X66292383Y22917143D01*
X66025716Y22917143D01*
X67130478Y22536190D02*
X67054288Y22498095D01*
X66901907Y22498095D01*
X66825716Y22536190D01*
X66787621Y22612381D01*
X66787621Y22917143D01*
X66825716Y22993333D01*
X66901907Y23031429D01*
X67054288Y23031429D01*
X67130478Y22993333D01*
X67168573Y22917143D01*
X67168573Y22840952D01*
X66787621Y22764762D01*
X67625716Y22498095D02*
X67549525Y22536190D01*
X67511430Y22612381D01*
X67511430Y23298095D01*
X67930478Y22498095D02*
X67930478Y23031429D01*
X67930478Y23298095D02*
X67892383Y23260000D01*
X67930478Y23221905D01*
X67968573Y23260000D01*
X67930478Y23298095D01*
X67930478Y23221905D01*
X68616192Y22536190D02*
X68540002Y22498095D01*
X68387621Y22498095D01*
X68311430Y22536190D01*
X68273335Y22612381D01*
X68273335Y22917143D01*
X68311430Y22993333D01*
X68387621Y23031429D01*
X68540002Y23031429D01*
X68616192Y22993333D01*
X68654287Y22917143D01*
X68654287Y22840952D01*
X68273335Y22764762D01*
X68920954Y23031429D02*
X69111430Y22498095D01*
X69301906Y23031429D01*
X69720954Y22498095D02*
X69644763Y22536190D01*
X69606668Y22574286D01*
X69568573Y22650476D01*
X69568573Y22879048D01*
X69606668Y22955238D01*
X69644763Y22993333D01*
X69720954Y23031429D01*
X69835240Y23031429D01*
X69911430Y22993333D01*
X69949525Y22955238D01*
X69987621Y22879048D01*
X69987621Y22650476D01*
X69949525Y22574286D01*
X69911430Y22536190D01*
X69835240Y22498095D01*
X69720954Y22498095D01*
X70216192Y23031429D02*
X70520954Y23031429D01*
X70330478Y23298095D02*
X70330478Y22612381D01*
X70368573Y22536190D01*
X70444764Y22498095D01*
X70520954Y22498095D01*
X70787621Y22498095D02*
X70787621Y23031429D01*
X70787621Y22879048D02*
X70825716Y22955238D01*
X70863812Y22993333D01*
X70940002Y23031429D01*
X71016193Y23031429D01*
X71397145Y22498095D02*
X71320954Y22536190D01*
X71282859Y22574286D01*
X71244764Y22650476D01*
X71244764Y22879048D01*
X71282859Y22955238D01*
X71320954Y22993333D01*
X71397145Y23031429D01*
X71511431Y23031429D01*
X71587621Y22993333D01*
X71625716Y22955238D01*
X71663812Y22879048D01*
X71663812Y22650476D01*
X71625716Y22574286D01*
X71587621Y22536190D01*
X71511431Y22498095D01*
X71397145Y22498095D01*
X72006669Y23031429D02*
X72006669Y22498095D01*
X72006669Y22955238D02*
X72044764Y22993333D01*
X72120955Y23031429D01*
X72235241Y23031429D01*
X72311431Y22993333D01*
X72349526Y22917143D01*
X72349526Y22498095D01*
X73301908Y23336190D02*
X72616193Y22307619D01*
X53797143Y21567143D02*
X53911429Y21529048D01*
X53949524Y21490952D01*
X53987619Y21414762D01*
X53987619Y21300476D01*
X53949524Y21224286D01*
X53911429Y21186190D01*
X53835238Y21148095D01*
X53530476Y21148095D01*
X53530476Y21948095D01*
X53797143Y21948095D01*
X53873333Y21910000D01*
X53911429Y21871905D01*
X53949524Y21795714D01*
X53949524Y21719524D01*
X53911429Y21643333D01*
X53873333Y21605238D01*
X53797143Y21567143D01*
X53530476Y21567143D01*
X54635238Y21186190D02*
X54559048Y21148095D01*
X54406667Y21148095D01*
X54330476Y21186190D01*
X54292381Y21262381D01*
X54292381Y21567143D01*
X54330476Y21643333D01*
X54406667Y21681429D01*
X54559048Y21681429D01*
X54635238Y21643333D01*
X54673333Y21567143D01*
X54673333Y21490952D01*
X54292381Y21414762D01*
X55130476Y21148095D02*
X55054285Y21186190D01*
X55016190Y21262381D01*
X55016190Y21948095D01*
X55435238Y21148095D02*
X55435238Y21681429D01*
X55435238Y21948095D02*
X55397143Y21910000D01*
X55435238Y21871905D01*
X55473333Y21910000D01*
X55435238Y21948095D01*
X55435238Y21871905D01*
X56120952Y21186190D02*
X56044762Y21148095D01*
X55892381Y21148095D01*
X55816190Y21186190D01*
X55778095Y21262381D01*
X55778095Y21567143D01*
X55816190Y21643333D01*
X55892381Y21681429D01*
X56044762Y21681429D01*
X56120952Y21643333D01*
X56159047Y21567143D01*
X56159047Y21490952D01*
X55778095Y21414762D01*
X56425714Y21681429D02*
X56616190Y21148095D01*
X56806666Y21681429D01*
X57225714Y21148095D02*
X57149523Y21186190D01*
X57111428Y21224286D01*
X57073333Y21300476D01*
X57073333Y21529048D01*
X57111428Y21605238D01*
X57149523Y21643333D01*
X57225714Y21681429D01*
X57340000Y21681429D01*
X57416190Y21643333D01*
X57454285Y21605238D01*
X57492381Y21529048D01*
X57492381Y21300476D01*
X57454285Y21224286D01*
X57416190Y21186190D01*
X57340000Y21148095D01*
X57225714Y21148095D01*
X57720952Y21681429D02*
X58025714Y21681429D01*
X57835238Y21948095D02*
X57835238Y21262381D01*
X57873333Y21186190D01*
X57949524Y21148095D01*
X58025714Y21148095D01*
X58292381Y21148095D02*
X58292381Y21681429D01*
X58292381Y21529048D02*
X58330476Y21605238D01*
X58368572Y21643333D01*
X58444762Y21681429D01*
X58520953Y21681429D01*
X58901905Y21148095D02*
X58825714Y21186190D01*
X58787619Y21224286D01*
X58749524Y21300476D01*
X58749524Y21529048D01*
X58787619Y21605238D01*
X58825714Y21643333D01*
X58901905Y21681429D01*
X59016191Y21681429D01*
X59092381Y21643333D01*
X59130476Y21605238D01*
X59168572Y21529048D01*
X59168572Y21300476D01*
X59130476Y21224286D01*
X59092381Y21186190D01*
X59016191Y21148095D01*
X58901905Y21148095D01*
X59511429Y21681429D02*
X59511429Y21148095D01*
X59511429Y21605238D02*
X59549524Y21643333D01*
X59625715Y21681429D01*
X59740001Y21681429D01*
X59816191Y21643333D01*
X59854286Y21567143D01*
X59854286Y21148095D01*
X60159049Y21948095D02*
X60349525Y21148095D01*
X60501906Y21719524D01*
X60654287Y21148095D01*
X60844763Y21948095D01*
X61492382Y21148095D02*
X61492382Y21567143D01*
X61454287Y21643333D01*
X61378097Y21681429D01*
X61225716Y21681429D01*
X61149525Y21643333D01*
X61492382Y21186190D02*
X61416192Y21148095D01*
X61225716Y21148095D01*
X61149525Y21186190D01*
X61111430Y21262381D01*
X61111430Y21338571D01*
X61149525Y21414762D01*
X61225716Y21452857D01*
X61416192Y21452857D01*
X61492382Y21490952D01*
X61873335Y21681429D02*
X61873335Y21148095D01*
X61873335Y21605238D02*
X61911430Y21643333D01*
X61987621Y21681429D01*
X62101907Y21681429D01*
X62178097Y21643333D01*
X62216192Y21567143D01*
X62216192Y21148095D01*
X62940002Y21148095D02*
X62940002Y21948095D01*
X62940002Y21186190D02*
X62863812Y21148095D01*
X62711431Y21148095D01*
X62635240Y21186190D01*
X62597145Y21224286D01*
X62559050Y21300476D01*
X62559050Y21529048D01*
X62597145Y21605238D01*
X62635240Y21643333D01*
X62711431Y21681429D01*
X62863812Y21681429D01*
X62940002Y21643333D01*
X63625717Y21186190D02*
X63549527Y21148095D01*
X63397146Y21148095D01*
X63320955Y21186190D01*
X63282860Y21262381D01*
X63282860Y21567143D01*
X63320955Y21643333D01*
X63397146Y21681429D01*
X63549527Y21681429D01*
X63625717Y21643333D01*
X63663812Y21567143D01*
X63663812Y21490952D01*
X63282860Y21414762D01*
X64006669Y21148095D02*
X64006669Y21681429D01*
X64006669Y21529048D02*
X64044764Y21605238D01*
X64082860Y21643333D01*
X64159050Y21681429D01*
X64235241Y21681429D01*
X64616193Y21148095D02*
X64540002Y21186190D01*
X64501907Y21262381D01*
X64501907Y21948095D01*
X65263812Y21681429D02*
X65263812Y21148095D01*
X64920955Y21681429D02*
X64920955Y21262381D01*
X64959050Y21186190D01*
X65035241Y21148095D01*
X65149527Y21148095D01*
X65225717Y21186190D01*
X65263812Y21224286D01*
X65606670Y21186190D02*
X65682860Y21148095D01*
X65835241Y21148095D01*
X65911432Y21186190D01*
X65949527Y21262381D01*
X65949527Y21300476D01*
X65911432Y21376667D01*
X65835241Y21414762D01*
X65720956Y21414762D01*
X65644765Y21452857D01*
X65606670Y21529048D01*
X65606670Y21567143D01*
X65644765Y21643333D01*
X65720956Y21681429D01*
X65835241Y21681429D01*
X65911432Y21643333D01*
X66178098Y21681429D02*
X66482860Y21681429D01*
X66292384Y21948095D02*
X66292384Y21262381D01*
X66330479Y21186190D01*
X66406670Y21148095D01*
X66482860Y21148095D01*
X66749527Y21148095D02*
X66749527Y21948095D01*
X66749527Y21567143D02*
X67206670Y21567143D01*
X67206670Y21148095D02*
X67206670Y21948095D01*
X67930479Y21148095D02*
X67930479Y21567143D01*
X67892384Y21643333D01*
X67816194Y21681429D01*
X67663813Y21681429D01*
X67587622Y21643333D01*
X67930479Y21186190D02*
X67854289Y21148095D01*
X67663813Y21148095D01*
X67587622Y21186190D01*
X67549527Y21262381D01*
X67549527Y21338571D01*
X67587622Y21414762D01*
X67663813Y21452857D01*
X67854289Y21452857D01*
X67930479Y21490952D01*
X68311432Y21148095D02*
X68311432Y21681429D01*
X68311432Y21529048D02*
X68349527Y21605238D01*
X68387623Y21643333D01*
X68463813Y21681429D01*
X68540004Y21681429D01*
X69149527Y21148095D02*
X69149527Y21948095D01*
X69149527Y21186190D02*
X69073337Y21148095D01*
X68920956Y21148095D01*
X68844765Y21186190D01*
X68806670Y21224286D01*
X68768575Y21300476D01*
X68768575Y21529048D01*
X68806670Y21605238D01*
X68844765Y21643333D01*
X68920956Y21681429D01*
X69073337Y21681429D01*
X69149527Y21643333D01*
X69454290Y21681429D02*
X69606671Y21148095D01*
X69759052Y21529048D01*
X69911433Y21148095D01*
X70063814Y21681429D01*
X70711432Y21148095D02*
X70711432Y21567143D01*
X70673337Y21643333D01*
X70597147Y21681429D01*
X70444766Y21681429D01*
X70368575Y21643333D01*
X70711432Y21186190D02*
X70635242Y21148095D01*
X70444766Y21148095D01*
X70368575Y21186190D01*
X70330480Y21262381D01*
X70330480Y21338571D01*
X70368575Y21414762D01*
X70444766Y21452857D01*
X70635242Y21452857D01*
X70711432Y21490952D01*
X71092385Y21148095D02*
X71092385Y21681429D01*
X71092385Y21529048D02*
X71130480Y21605238D01*
X71168576Y21643333D01*
X71244766Y21681429D01*
X71320957Y21681429D01*
X71892385Y21186190D02*
X71816195Y21148095D01*
X71663814Y21148095D01*
X71587623Y21186190D01*
X71549528Y21262381D01*
X71549528Y21567143D01*
X71587623Y21643333D01*
X71663814Y21681429D01*
X71816195Y21681429D01*
X71892385Y21643333D01*
X71930480Y21567143D01*
X71930480Y21490952D01*
X71549528Y21414762D01*
D12*
X56286000Y10000000D02*
G75*
G03X56286000Y10000000I-2286000J0D01*
G01*
X158786000Y10000000D02*
G75*
G03X158786000Y10000000I-2286000J0D01*
G01*
D11*
X89100000Y26510000D02*
X89100000Y13510000D01*
X91100000Y26510000D02*
X89100000Y26510000D01*
X117100000Y26510000D02*
X115100000Y26510000D01*
X117100000Y13510000D02*
X117100000Y26510000D01*
X114600000Y14510000D02*
G75*
G03X114600000Y14510000I-500000J0D01*
G01*
X113100000Y16510000D02*
X115100000Y16510000D01*
X91100000Y16510000D02*
X93100000Y16510000D01*
X91100000Y26510000D02*
X91100000Y16510000D01*
X115100000Y26510000D02*
X91100000Y26510000D01*
X115100000Y16510000D02*
X115100000Y26510000D01*
X115871667Y16057619D02*
X115871667Y15343333D01*
X115824047Y15200476D01*
X115728809Y15105238D01*
X115585952Y15057619D01*
X115490714Y15057619D01*
X116300238Y15962381D02*
X116347857Y16010000D01*
X116443095Y16057619D01*
X116681191Y16057619D01*
X116776429Y16010000D01*
X116824048Y15962381D01*
X116871667Y15867143D01*
X116871667Y15771905D01*
X116824048Y15629048D01*
X116252619Y15057619D01*
X116871667Y15057619D01*
X87552381Y17319524D02*
X87552381Y16843333D01*
X88028571Y16795714D01*
X87980952Y16843333D01*
X87933333Y16938571D01*
X87933333Y17176667D01*
X87980952Y17271905D01*
X88028571Y17319524D01*
X88123810Y17367143D01*
X88361905Y17367143D01*
X88457143Y17319524D01*
X88504762Y17271905D01*
X88552381Y17176667D01*
X88552381Y16938571D01*
X88504762Y16843333D01*
X88457143Y16795714D01*
X87647619Y17748095D02*
X87600000Y17795714D01*
X87552381Y17890952D01*
X87552381Y18129048D01*
X87600000Y18224286D01*
X87647619Y18271905D01*
X87742857Y18319524D01*
X87838095Y18319524D01*
X87980952Y18271905D01*
X88552381Y17700476D01*
X88552381Y18319524D01*
X87647619Y18700476D02*
X87600000Y18748095D01*
X87552381Y18843333D01*
X87552381Y19081429D01*
X87600000Y19176667D01*
X87647619Y19224286D01*
X87742857Y19271905D01*
X87838095Y19271905D01*
X87980952Y19224286D01*
X88552381Y18652857D01*
X88552381Y19271905D01*
X87552381Y19605238D02*
X87552381Y20271905D01*
X88552381Y19843333D01*
X88552381Y21176667D02*
X88552381Y20605238D01*
X88552381Y20890952D02*
X87552381Y20890952D01*
X87695238Y20795714D01*
X87790476Y20700476D01*
X87838095Y20605238D01*
X88171429Y21605238D02*
X88171429Y22367143D01*
X88552381Y23367143D02*
X88552381Y22795714D01*
X88552381Y23081428D02*
X87552381Y23081428D01*
X87695238Y22986190D01*
X87790476Y22890952D01*
X87838095Y22795714D01*
X87552381Y24224286D02*
X87552381Y24033809D01*
X87600000Y23938571D01*
X87647619Y23890952D01*
X87790476Y23795714D01*
X87980952Y23748095D01*
X88361905Y23748095D01*
X88457143Y23795714D01*
X88504762Y23843333D01*
X88552381Y23938571D01*
X88552381Y24129048D01*
X88504762Y24224286D01*
X88457143Y24271905D01*
X88361905Y24319524D01*
X88123810Y24319524D01*
X88028571Y24271905D01*
X87980952Y24224286D01*
X87933333Y24129048D01*
X87933333Y23938571D01*
X87980952Y23843333D01*
X88028571Y23795714D01*
X88123810Y23748095D01*
X87552381Y24652857D02*
X87552381Y25319524D01*
X88552381Y24890952D01*
X88552381Y25748095D02*
X88552381Y25938571D01*
X88504762Y26033810D01*
X88457143Y26081429D01*
X88314286Y26176667D01*
X88123810Y26224286D01*
X87742857Y26224286D01*
X87647619Y26176667D01*
X87600000Y26129048D01*
X87552381Y26033810D01*
X87552381Y25843333D01*
X87600000Y25748095D01*
X87647619Y25700476D01*
X87742857Y25652857D01*
X87980952Y25652857D01*
X88076190Y25700476D01*
X88123810Y25748095D01*
X88171429Y25843333D01*
X88171429Y26033810D01*
X88123810Y26129048D01*
X88076190Y26176667D01*
X87980952Y26224286D01*
X154282857Y2140000D02*
X155140000Y2140000D01*
X155311429Y2082858D01*
X155425714Y1968572D01*
X155482857Y1797143D01*
X155482857Y1682858D01*
X155482857Y3340001D02*
X155482857Y2654286D01*
X155482857Y2997144D02*
X154282857Y2997144D01*
X154454286Y2882858D01*
X154568571Y2768572D01*
X154625714Y2654286D01*
X151582381Y6135905D02*
X150582381Y6135905D01*
X151582381Y6707334D01*
X150582381Y6707334D01*
X151487143Y7754953D02*
X151534762Y7707334D01*
X151582381Y7564477D01*
X151582381Y7469239D01*
X151534762Y7326381D01*
X151439524Y7231143D01*
X151344286Y7183524D01*
X151153810Y7135905D01*
X151010952Y7135905D01*
X150820476Y7183524D01*
X150725238Y7231143D01*
X150630000Y7326381D01*
X150582381Y7469239D01*
X150582381Y7564477D01*
X150630000Y7707334D01*
X150677619Y7754953D01*
X150915714Y8612096D02*
X151582381Y8612096D01*
X150534762Y8374000D02*
X151249048Y8135905D01*
X151249048Y8754953D01*
X150582381Y9326381D02*
X150582381Y9421620D01*
X150630000Y9516858D01*
X150677619Y9564477D01*
X150772857Y9612096D01*
X150963333Y9659715D01*
X151201429Y9659715D01*
X151391905Y9612096D01*
X151487143Y9564477D01*
X151534762Y9516858D01*
X151582381Y9421620D01*
X151582381Y9326381D01*
X151534762Y9231143D01*
X151487143Y9183524D01*
X151391905Y9135905D01*
X151201429Y9088286D01*
X150963333Y9088286D01*
X150772857Y9135905D01*
X150677619Y9183524D01*
X150630000Y9231143D01*
X150582381Y9326381D01*
X149042381Y6135905D02*
X148042381Y6135905D01*
X149042381Y6707334D01*
X148042381Y6707334D01*
X148947143Y7754953D02*
X148994762Y7707334D01*
X149042381Y7564477D01*
X149042381Y7469239D01*
X148994762Y7326381D01*
X148899524Y7231143D01*
X148804286Y7183524D01*
X148613810Y7135905D01*
X148470952Y7135905D01*
X148280476Y7183524D01*
X148185238Y7231143D01*
X148090000Y7326381D01*
X148042381Y7469239D01*
X148042381Y7564477D01*
X148090000Y7707334D01*
X148137619Y7754953D01*
X148042381Y8088286D02*
X148042381Y8707334D01*
X148423333Y8374000D01*
X148423333Y8516858D01*
X148470952Y8612096D01*
X148518571Y8659715D01*
X148613810Y8707334D01*
X148851905Y8707334D01*
X148947143Y8659715D01*
X148994762Y8612096D01*
X149042381Y8516858D01*
X149042381Y8231143D01*
X148994762Y8135905D01*
X148947143Y8088286D01*
X149042381Y9183524D02*
X149042381Y9374000D01*
X148994762Y9469239D01*
X148947143Y9516858D01*
X148804286Y9612096D01*
X148613810Y9659715D01*
X148232857Y9659715D01*
X148137619Y9612096D01*
X148090000Y9564477D01*
X148042381Y9469239D01*
X148042381Y9278762D01*
X148090000Y9183524D01*
X148137619Y9135905D01*
X148232857Y9088286D01*
X148470952Y9088286D01*
X148566190Y9135905D01*
X148613810Y9183524D01*
X148661429Y9278762D01*
X148661429Y9469239D01*
X148613810Y9564477D01*
X148566190Y9612096D01*
X148470952Y9659715D01*
X146502381Y6135905D02*
X145502381Y6135905D01*
X146502381Y6707334D01*
X145502381Y6707334D01*
X146407143Y7754953D02*
X146454762Y7707334D01*
X146502381Y7564477D01*
X146502381Y7469239D01*
X146454762Y7326381D01*
X146359524Y7231143D01*
X146264286Y7183524D01*
X146073810Y7135905D01*
X145930952Y7135905D01*
X145740476Y7183524D01*
X145645238Y7231143D01*
X145550000Y7326381D01*
X145502381Y7469239D01*
X145502381Y7564477D01*
X145550000Y7707334D01*
X145597619Y7754953D01*
X145502381Y8088286D02*
X145502381Y8707334D01*
X145883333Y8374000D01*
X145883333Y8516858D01*
X145930952Y8612096D01*
X145978571Y8659715D01*
X146073810Y8707334D01*
X146311905Y8707334D01*
X146407143Y8659715D01*
X146454762Y8612096D01*
X146502381Y8516858D01*
X146502381Y8231143D01*
X146454762Y8135905D01*
X146407143Y8088286D01*
X145930952Y9278762D02*
X145883333Y9183524D01*
X145835714Y9135905D01*
X145740476Y9088286D01*
X145692857Y9088286D01*
X145597619Y9135905D01*
X145550000Y9183524D01*
X145502381Y9278762D01*
X145502381Y9469239D01*
X145550000Y9564477D01*
X145597619Y9612096D01*
X145692857Y9659715D01*
X145740476Y9659715D01*
X145835714Y9612096D01*
X145883333Y9564477D01*
X145930952Y9469239D01*
X145930952Y9278762D01*
X145978571Y9183524D01*
X146026190Y9135905D01*
X146121429Y9088286D01*
X146311905Y9088286D01*
X146407143Y9135905D01*
X146454762Y9183524D01*
X146502381Y9278762D01*
X146502381Y9469239D01*
X146454762Y9564477D01*
X146407143Y9612096D01*
X146311905Y9659715D01*
X146121429Y9659715D01*
X146026190Y9612096D01*
X145978571Y9564477D01*
X145930952Y9469239D01*
X143962381Y6802572D02*
X143486190Y6469238D01*
X143962381Y6231143D02*
X142962381Y6231143D01*
X142962381Y6612096D01*
X143010000Y6707334D01*
X143057619Y6754953D01*
X143152857Y6802572D01*
X143295714Y6802572D01*
X143390952Y6754953D01*
X143438571Y6707334D01*
X143486190Y6612096D01*
X143486190Y6231143D01*
X143962381Y7231143D02*
X142962381Y7231143D01*
X143962381Y7707333D02*
X142962381Y7707333D01*
X143962381Y8278762D01*
X142962381Y8278762D01*
X143581429Y8754952D02*
X143581429Y9516857D01*
X141422381Y6802572D02*
X140946190Y6469238D01*
X141422381Y6231143D02*
X140422381Y6231143D01*
X140422381Y6612096D01*
X140470000Y6707334D01*
X140517619Y6754953D01*
X140612857Y6802572D01*
X140755714Y6802572D01*
X140850952Y6754953D01*
X140898571Y6707334D01*
X140946190Y6612096D01*
X140946190Y6231143D01*
X141422381Y7231143D02*
X140422381Y7231143D01*
X141422381Y7707333D02*
X140422381Y7707333D01*
X141422381Y8278762D01*
X140422381Y8278762D01*
X141041429Y8754952D02*
X141041429Y9516857D01*
X141422381Y9135905D02*
X140660476Y9135905D01*
X138882381Y6548572D02*
X138882381Y6072381D01*
X137882381Y6072381D01*
X138882381Y6881905D02*
X137882381Y6881905D01*
X138882381Y7358095D02*
X137882381Y7358095D01*
X138882381Y7929524D01*
X137882381Y7929524D01*
X138501429Y8405714D02*
X138501429Y9167619D01*
X136342381Y6548572D02*
X136342381Y6072381D01*
X135342381Y6072381D01*
X136342381Y6881905D02*
X135342381Y6881905D01*
X136342381Y7358095D02*
X135342381Y7358095D01*
X136342381Y7929524D01*
X135342381Y7929524D01*
X135961429Y8405714D02*
X135961429Y9167619D01*
X136342381Y8786667D02*
X135580476Y8786667D01*
X132850000Y6413715D02*
X132802381Y6318477D01*
X132802381Y6175620D01*
X132850000Y6032762D01*
X132945238Y5937524D01*
X133040476Y5889905D01*
X133230952Y5842286D01*
X133373810Y5842286D01*
X133564286Y5889905D01*
X133659524Y5937524D01*
X133754762Y6032762D01*
X133802381Y6175620D01*
X133802381Y6270858D01*
X133754762Y6413715D01*
X133707143Y6461334D01*
X133373810Y6461334D01*
X133373810Y6270858D01*
X133802381Y6889905D02*
X132802381Y6889905D01*
X133802381Y7461334D01*
X132802381Y7461334D01*
X133802381Y7937524D02*
X132802381Y7937524D01*
X132802381Y8175619D01*
X132850000Y8318477D01*
X132945238Y8413715D01*
X133040476Y8461334D01*
X133230952Y8508953D01*
X133373810Y8508953D01*
X133564286Y8461334D01*
X133659524Y8413715D01*
X133754762Y8318477D01*
X133802381Y8175619D01*
X133802381Y7937524D01*
X132802381Y8842286D02*
X132802381Y9461334D01*
X133183333Y9128000D01*
X133183333Y9270858D01*
X133230952Y9366096D01*
X133278571Y9413715D01*
X133373810Y9461334D01*
X133611905Y9461334D01*
X133707143Y9413715D01*
X133754762Y9366096D01*
X133802381Y9270858D01*
X133802381Y8985143D01*
X133754762Y8889905D01*
X133707143Y8842286D01*
X132802381Y9794667D02*
X132802381Y10413715D01*
X133183333Y10080381D01*
X133183333Y10223239D01*
X133230952Y10318477D01*
X133278571Y10366096D01*
X133373810Y10413715D01*
X133611905Y10413715D01*
X133707143Y10366096D01*
X133754762Y10318477D01*
X133802381Y10223239D01*
X133802381Y9937524D01*
X133754762Y9842286D01*
X133707143Y9794667D01*
X130310000Y6413715D02*
X130262381Y6318477D01*
X130262381Y6175620D01*
X130310000Y6032762D01*
X130405238Y5937524D01*
X130500476Y5889905D01*
X130690952Y5842286D01*
X130833810Y5842286D01*
X131024286Y5889905D01*
X131119524Y5937524D01*
X131214762Y6032762D01*
X131262381Y6175620D01*
X131262381Y6270858D01*
X131214762Y6413715D01*
X131167143Y6461334D01*
X130833810Y6461334D01*
X130833810Y6270858D01*
X131262381Y6889905D02*
X130262381Y6889905D01*
X131262381Y7461334D01*
X130262381Y7461334D01*
X131262381Y7937524D02*
X130262381Y7937524D01*
X130262381Y8175619D01*
X130310000Y8318477D01*
X130405238Y8413715D01*
X130500476Y8461334D01*
X130690952Y8508953D01*
X130833810Y8508953D01*
X131024286Y8461334D01*
X131119524Y8413715D01*
X131214762Y8318477D01*
X131262381Y8175619D01*
X131262381Y7937524D01*
X130262381Y8842286D02*
X130262381Y9461334D01*
X130643333Y9128000D01*
X130643333Y9270858D01*
X130690952Y9366096D01*
X130738571Y9413715D01*
X130833810Y9461334D01*
X131071905Y9461334D01*
X131167143Y9413715D01*
X131214762Y9366096D01*
X131262381Y9270858D01*
X131262381Y8985143D01*
X131214762Y8889905D01*
X131167143Y8842286D01*
X130357619Y9842286D02*
X130310000Y9889905D01*
X130262381Y9985143D01*
X130262381Y10223239D01*
X130310000Y10318477D01*
X130357619Y10366096D01*
X130452857Y10413715D01*
X130548095Y10413715D01*
X130690952Y10366096D01*
X131262381Y9794667D01*
X131262381Y10413715D01*
X128627143Y6596096D02*
X128674762Y6548477D01*
X128722381Y6405620D01*
X128722381Y6310382D01*
X128674762Y6167524D01*
X128579524Y6072286D01*
X128484286Y6024667D01*
X128293810Y5977048D01*
X128150952Y5977048D01*
X127960476Y6024667D01*
X127865238Y6072286D01*
X127770000Y6167524D01*
X127722381Y6310382D01*
X127722381Y6405620D01*
X127770000Y6548477D01*
X127817619Y6596096D01*
X128722381Y7024667D02*
X127722381Y7024667D01*
X128436667Y7358001D01*
X127722381Y7691334D01*
X128722381Y7691334D01*
X125291905Y5391428D02*
X126091905Y5658095D01*
X125291905Y5924762D01*
X126091905Y6191428D02*
X125291905Y6191428D01*
X125291905Y6381904D01*
X125330000Y6496190D01*
X125406190Y6572381D01*
X125482381Y6610476D01*
X125634762Y6648571D01*
X125749048Y6648571D01*
X125901429Y6610476D01*
X125977619Y6572381D01*
X126053810Y6496190D01*
X126091905Y6381904D01*
X126091905Y6191428D01*
X126091905Y6991428D02*
X125291905Y6991428D01*
X125291905Y7181904D01*
X125330000Y7296190D01*
X125406190Y7372381D01*
X125482381Y7410476D01*
X125634762Y7448571D01*
X125749048Y7448571D01*
X125901429Y7410476D01*
X125977619Y7372381D01*
X126053810Y7296190D01*
X126091905Y7181904D01*
X126091905Y6991428D01*
X126015714Y8248571D02*
X126053810Y8210476D01*
X126091905Y8096190D01*
X126091905Y8020000D01*
X126053810Y7905714D01*
X125977619Y7829523D01*
X125901429Y7791428D01*
X125749048Y7753333D01*
X125634762Y7753333D01*
X125482381Y7791428D01*
X125406190Y7829523D01*
X125330000Y7905714D01*
X125291905Y8020000D01*
X125291905Y8096190D01*
X125330000Y8210476D01*
X125368095Y8248571D01*
X125291905Y8515238D02*
X125291905Y9010476D01*
X125596667Y8743809D01*
X125596667Y8858095D01*
X125634762Y8934285D01*
X125672857Y8972381D01*
X125749048Y9010476D01*
X125939524Y9010476D01*
X126015714Y8972381D01*
X126053810Y8934285D01*
X126091905Y8858095D01*
X126091905Y8629523D01*
X126053810Y8553333D01*
X126015714Y8515238D01*
X125291905Y9505714D02*
X125291905Y9581905D01*
X125330000Y9658095D01*
X125368095Y9696190D01*
X125444286Y9734286D01*
X125596667Y9772381D01*
X125787143Y9772381D01*
X125939524Y9734286D01*
X126015714Y9696190D01*
X126053810Y9658095D01*
X126091905Y9581905D01*
X126091905Y9505714D01*
X126053810Y9429524D01*
X126015714Y9391428D01*
X125939524Y9353333D01*
X125787143Y9315238D01*
X125596667Y9315238D01*
X125444286Y9353333D01*
X125368095Y9391428D01*
X125330000Y9429524D01*
X125291905Y9505714D01*
X122751905Y5391428D02*
X123551905Y5658095D01*
X122751905Y5924762D01*
X123551905Y6191428D02*
X122751905Y6191428D01*
X122751905Y6381904D01*
X122790000Y6496190D01*
X122866190Y6572381D01*
X122942381Y6610476D01*
X123094762Y6648571D01*
X123209048Y6648571D01*
X123361429Y6610476D01*
X123437619Y6572381D01*
X123513810Y6496190D01*
X123551905Y6381904D01*
X123551905Y6191428D01*
X123551905Y6991428D02*
X122751905Y6991428D01*
X122751905Y7181904D01*
X122790000Y7296190D01*
X122866190Y7372381D01*
X122942381Y7410476D01*
X123094762Y7448571D01*
X123209048Y7448571D01*
X123361429Y7410476D01*
X123437619Y7372381D01*
X123513810Y7296190D01*
X123551905Y7181904D01*
X123551905Y6991428D01*
X123475714Y8248571D02*
X123513810Y8210476D01*
X123551905Y8096190D01*
X123551905Y8020000D01*
X123513810Y7905714D01*
X123437619Y7829523D01*
X123361429Y7791428D01*
X123209048Y7753333D01*
X123094762Y7753333D01*
X122942381Y7791428D01*
X122866190Y7829523D01*
X122790000Y7905714D01*
X122751905Y8020000D01*
X122751905Y8096190D01*
X122790000Y8210476D01*
X122828095Y8248571D01*
X122828095Y8553333D02*
X122790000Y8591428D01*
X122751905Y8667619D01*
X122751905Y8858095D01*
X122790000Y8934285D01*
X122828095Y8972381D01*
X122904286Y9010476D01*
X122980476Y9010476D01*
X123094762Y8972381D01*
X123551905Y8515238D01*
X123551905Y9010476D01*
X123551905Y9391428D02*
X123551905Y9543809D01*
X123513810Y9620000D01*
X123475714Y9658095D01*
X123361429Y9734286D01*
X123209048Y9772381D01*
X122904286Y9772381D01*
X122828095Y9734286D01*
X122790000Y9696190D01*
X122751905Y9620000D01*
X122751905Y9467619D01*
X122790000Y9391428D01*
X122828095Y9353333D01*
X122904286Y9315238D01*
X123094762Y9315238D01*
X123170952Y9353333D01*
X123209048Y9391428D01*
X123247143Y9467619D01*
X123247143Y9620000D01*
X123209048Y9696190D01*
X123170952Y9734286D01*
X123094762Y9772381D01*
X120250000Y6248572D02*
X120211905Y6172381D01*
X120211905Y6058096D01*
X120250000Y5943810D01*
X120326190Y5867619D01*
X120402381Y5829524D01*
X120554762Y5791429D01*
X120669048Y5791429D01*
X120821429Y5829524D01*
X120897619Y5867619D01*
X120973810Y5943810D01*
X121011905Y6058096D01*
X121011905Y6134286D01*
X120973810Y6248572D01*
X120935714Y6286667D01*
X120669048Y6286667D01*
X120669048Y6134286D01*
X121011905Y6629524D02*
X120211905Y6629524D01*
X121011905Y7086667D01*
X120211905Y7086667D01*
X121011905Y7467619D02*
X120211905Y7467619D01*
X120211905Y7658095D01*
X120250000Y7772381D01*
X120326190Y7848572D01*
X120402381Y7886667D01*
X120554762Y7924762D01*
X120669048Y7924762D01*
X120821429Y7886667D01*
X120897619Y7848572D01*
X120973810Y7772381D01*
X121011905Y7658095D01*
X121011905Y7467619D01*
X120288095Y8229524D02*
X120250000Y8267619D01*
X120211905Y8343810D01*
X120211905Y8534286D01*
X120250000Y8610476D01*
X120288095Y8648572D01*
X120364286Y8686667D01*
X120440476Y8686667D01*
X120554762Y8648572D01*
X121011905Y8191429D01*
X121011905Y8686667D01*
X120554762Y9143810D02*
X120516667Y9067619D01*
X120478571Y9029524D01*
X120402381Y8991429D01*
X120364286Y8991429D01*
X120288095Y9029524D01*
X120250000Y9067619D01*
X120211905Y9143810D01*
X120211905Y9296191D01*
X120250000Y9372381D01*
X120288095Y9410477D01*
X120364286Y9448572D01*
X120402381Y9448572D01*
X120478571Y9410477D01*
X120516667Y9372381D01*
X120554762Y9296191D01*
X120554762Y9143810D01*
X120592857Y9067619D01*
X120630952Y9029524D01*
X120707143Y8991429D01*
X120859524Y8991429D01*
X120935714Y9029524D01*
X120973810Y9067619D01*
X121011905Y9143810D01*
X121011905Y9296191D01*
X120973810Y9372381D01*
X120935714Y9410477D01*
X120859524Y9448572D01*
X120707143Y9448572D01*
X120630952Y9410477D01*
X120592857Y9372381D01*
X120554762Y9296191D01*
X118562381Y5873905D02*
X117562381Y5873905D01*
X117562381Y6254858D01*
X117610000Y6350096D01*
X117657619Y6397715D01*
X117752857Y6445334D01*
X117895714Y6445334D01*
X117990952Y6397715D01*
X118038571Y6350096D01*
X118086190Y6254858D01*
X118086190Y5873905D01*
X118038571Y7207239D02*
X118086190Y7350096D01*
X118133810Y7397715D01*
X118229048Y7445334D01*
X118371905Y7445334D01*
X118467143Y7397715D01*
X118514762Y7350096D01*
X118562381Y7254858D01*
X118562381Y6873905D01*
X117562381Y6873905D01*
X117562381Y7207239D01*
X117610000Y7302477D01*
X117657619Y7350096D01*
X117752857Y7397715D01*
X117848095Y7397715D01*
X117943333Y7350096D01*
X117990952Y7302477D01*
X118038571Y7207239D01*
X118038571Y6873905D01*
X118562381Y8397715D02*
X118562381Y7826286D01*
X118562381Y8112000D02*
X117562381Y8112000D01*
X117705238Y8016762D01*
X117800476Y7921524D01*
X117848095Y7826286D01*
X116022381Y5873905D02*
X115022381Y5873905D01*
X115022381Y6254858D01*
X115070000Y6350096D01*
X115117619Y6397715D01*
X115212857Y6445334D01*
X115355714Y6445334D01*
X115450952Y6397715D01*
X115498571Y6350096D01*
X115546190Y6254858D01*
X115546190Y5873905D01*
X115498571Y7207239D02*
X115546190Y7350096D01*
X115593810Y7397715D01*
X115689048Y7445334D01*
X115831905Y7445334D01*
X115927143Y7397715D01*
X115974762Y7350096D01*
X116022381Y7254858D01*
X116022381Y6873905D01*
X115022381Y6873905D01*
X115022381Y7207239D01*
X115070000Y7302477D01*
X115117619Y7350096D01*
X115212857Y7397715D01*
X115308095Y7397715D01*
X115403333Y7350096D01*
X115450952Y7302477D01*
X115498571Y7207239D01*
X115498571Y6873905D01*
X115022381Y8064381D02*
X115022381Y8159620D01*
X115070000Y8254858D01*
X115117619Y8302477D01*
X115212857Y8350096D01*
X115403333Y8397715D01*
X115641429Y8397715D01*
X115831905Y8350096D01*
X115927143Y8302477D01*
X115974762Y8254858D01*
X116022381Y8159620D01*
X116022381Y8064381D01*
X115974762Y7969143D01*
X115927143Y7921524D01*
X115831905Y7873905D01*
X115641429Y7826286D01*
X115403333Y7826286D01*
X115212857Y7873905D01*
X115117619Y7921524D01*
X115070000Y7969143D01*
X115022381Y8064381D01*
X113482381Y5945333D02*
X112482381Y5945333D01*
X112482381Y6326286D01*
X112530000Y6421524D01*
X112577619Y6469143D01*
X112672857Y6516762D01*
X112815714Y6516762D01*
X112910952Y6469143D01*
X112958571Y6421524D01*
X113006190Y6326286D01*
X113006190Y5945333D01*
X113196667Y6897714D02*
X113196667Y7373905D01*
X113482381Y6802476D02*
X112482381Y7135809D01*
X113482381Y7469143D01*
X112482381Y7707238D02*
X112482381Y8373905D01*
X113482381Y7945333D01*
X110942381Y5945333D02*
X109942381Y5945333D01*
X109942381Y6326286D01*
X109990000Y6421524D01*
X110037619Y6469143D01*
X110132857Y6516762D01*
X110275714Y6516762D01*
X110370952Y6469143D01*
X110418571Y6421524D01*
X110466190Y6326286D01*
X110466190Y5945333D01*
X110656667Y6897714D02*
X110656667Y7373905D01*
X110942381Y6802476D02*
X109942381Y7135809D01*
X110942381Y7469143D01*
X109942381Y8231048D02*
X109942381Y8040571D01*
X109990000Y7945333D01*
X110037619Y7897714D01*
X110180476Y7802476D01*
X110370952Y7754857D01*
X110751905Y7754857D01*
X110847143Y7802476D01*
X110894762Y7850095D01*
X110942381Y7945333D01*
X110942381Y8135810D01*
X110894762Y8231048D01*
X110847143Y8278667D01*
X110751905Y8326286D01*
X110513810Y8326286D01*
X110418571Y8278667D01*
X110370952Y8231048D01*
X110323333Y8135810D01*
X110323333Y7945333D01*
X110370952Y7850095D01*
X110418571Y7802476D01*
X110513810Y7754857D01*
X108402381Y5945333D02*
X107402381Y5945333D01*
X107402381Y6326286D01*
X107450000Y6421524D01*
X107497619Y6469143D01*
X107592857Y6516762D01*
X107735714Y6516762D01*
X107830952Y6469143D01*
X107878571Y6421524D01*
X107926190Y6326286D01*
X107926190Y5945333D01*
X108116667Y6897714D02*
X108116667Y7373905D01*
X108402381Y6802476D02*
X107402381Y7135809D01*
X108402381Y7469143D01*
X107402381Y8278667D02*
X107402381Y7802476D01*
X107878571Y7754857D01*
X107830952Y7802476D01*
X107783333Y7897714D01*
X107783333Y8135810D01*
X107830952Y8231048D01*
X107878571Y8278667D01*
X107973810Y8326286D01*
X108211905Y8326286D01*
X108307143Y8278667D01*
X108354762Y8231048D01*
X108402381Y8135810D01*
X108402381Y7897714D01*
X108354762Y7802476D01*
X108307143Y7754857D01*
X105862381Y5945333D02*
X104862381Y5945333D01*
X104862381Y6326286D01*
X104910000Y6421524D01*
X104957619Y6469143D01*
X105052857Y6516762D01*
X105195714Y6516762D01*
X105290952Y6469143D01*
X105338571Y6421524D01*
X105386190Y6326286D01*
X105386190Y5945333D01*
X105576667Y6897714D02*
X105576667Y7373905D01*
X105862381Y6802476D02*
X104862381Y7135809D01*
X105862381Y7469143D01*
X105195714Y8231048D02*
X105862381Y8231048D01*
X104814762Y7992952D02*
X105529048Y7754857D01*
X105529048Y8373905D01*
X102431905Y5448571D02*
X103231905Y5715238D01*
X102431905Y5981905D01*
X103231905Y6248571D02*
X102431905Y6248571D01*
X102431905Y6439047D01*
X102470000Y6553333D01*
X102546190Y6629524D01*
X102622381Y6667619D01*
X102774762Y6705714D01*
X102889048Y6705714D01*
X103041429Y6667619D01*
X103117619Y6629524D01*
X103193810Y6553333D01*
X103231905Y6439047D01*
X103231905Y6248571D01*
X103231905Y7048571D02*
X102431905Y7048571D01*
X102431905Y7239047D01*
X102470000Y7353333D01*
X102546190Y7429524D01*
X102622381Y7467619D01*
X102774762Y7505714D01*
X102889048Y7505714D01*
X103041429Y7467619D01*
X103117619Y7429524D01*
X103193810Y7353333D01*
X103231905Y7239047D01*
X103231905Y7048571D01*
X103003333Y7810476D02*
X103003333Y8191428D01*
X103231905Y7734285D02*
X102431905Y8000952D01*
X103231905Y8267619D01*
X102508095Y8496190D02*
X102470000Y8534285D01*
X102431905Y8610476D01*
X102431905Y8800952D01*
X102470000Y8877142D01*
X102508095Y8915238D01*
X102584286Y8953333D01*
X102660476Y8953333D01*
X102774762Y8915238D01*
X103231905Y8458095D01*
X103231905Y8953333D01*
X103231905Y9715238D02*
X103231905Y9258095D01*
X103231905Y9486666D02*
X102431905Y9486666D01*
X102546190Y9410476D01*
X102622381Y9334285D01*
X102660476Y9258095D01*
X99930000Y6248572D02*
X99891905Y6172381D01*
X99891905Y6058096D01*
X99930000Y5943810D01*
X100006190Y5867619D01*
X100082381Y5829524D01*
X100234762Y5791429D01*
X100349048Y5791429D01*
X100501429Y5829524D01*
X100577619Y5867619D01*
X100653810Y5943810D01*
X100691905Y6058096D01*
X100691905Y6134286D01*
X100653810Y6248572D01*
X100615714Y6286667D01*
X100349048Y6286667D01*
X100349048Y6134286D01*
X100691905Y6629524D02*
X99891905Y6629524D01*
X100691905Y7086667D01*
X99891905Y7086667D01*
X100691905Y7467619D02*
X99891905Y7467619D01*
X99891905Y7658095D01*
X99930000Y7772381D01*
X100006190Y7848572D01*
X100082381Y7886667D01*
X100234762Y7924762D01*
X100349048Y7924762D01*
X100501429Y7886667D01*
X100577619Y7848572D01*
X100653810Y7772381D01*
X100691905Y7658095D01*
X100691905Y7467619D01*
X99968095Y8229524D02*
X99930000Y8267619D01*
X99891905Y8343810D01*
X99891905Y8534286D01*
X99930000Y8610476D01*
X99968095Y8648572D01*
X100044286Y8686667D01*
X100120476Y8686667D01*
X100234762Y8648572D01*
X100691905Y8191429D01*
X100691905Y8686667D01*
X99891905Y9181905D02*
X99891905Y9258096D01*
X99930000Y9334286D01*
X99968095Y9372381D01*
X100044286Y9410477D01*
X100196667Y9448572D01*
X100387143Y9448572D01*
X100539524Y9410477D01*
X100615714Y9372381D01*
X100653810Y9334286D01*
X100691905Y9258096D01*
X100691905Y9181905D01*
X100653810Y9105715D01*
X100615714Y9067619D01*
X100539524Y9029524D01*
X100387143Y8991429D01*
X100196667Y8991429D01*
X100044286Y9029524D01*
X99968095Y9067619D01*
X99930000Y9105715D01*
X99891905Y9181905D01*
X98242381Y5945333D02*
X97242381Y5945333D01*
X97242381Y6326286D01*
X97290000Y6421524D01*
X97337619Y6469143D01*
X97432857Y6516762D01*
X97575714Y6516762D01*
X97670952Y6469143D01*
X97718571Y6421524D01*
X97766190Y6326286D01*
X97766190Y5945333D01*
X97956667Y6897714D02*
X97956667Y7373905D01*
X98242381Y6802476D02*
X97242381Y7135809D01*
X98242381Y7469143D01*
X97242381Y7707238D02*
X97242381Y8326286D01*
X97623333Y7992952D01*
X97623333Y8135810D01*
X97670952Y8231048D01*
X97718571Y8278667D01*
X97813810Y8326286D01*
X98051905Y8326286D01*
X98147143Y8278667D01*
X98194762Y8231048D01*
X98242381Y8135810D01*
X98242381Y7850095D01*
X98194762Y7754857D01*
X98147143Y7707238D01*
X95702381Y5945333D02*
X94702381Y5945333D01*
X94702381Y6326286D01*
X94750000Y6421524D01*
X94797619Y6469143D01*
X94892857Y6516762D01*
X95035714Y6516762D01*
X95130952Y6469143D01*
X95178571Y6421524D01*
X95226190Y6326286D01*
X95226190Y5945333D01*
X95416667Y6897714D02*
X95416667Y7373905D01*
X95702381Y6802476D02*
X94702381Y7135809D01*
X95702381Y7469143D01*
X94797619Y7754857D02*
X94750000Y7802476D01*
X94702381Y7897714D01*
X94702381Y8135810D01*
X94750000Y8231048D01*
X94797619Y8278667D01*
X94892857Y8326286D01*
X94988095Y8326286D01*
X95130952Y8278667D01*
X95702381Y7707238D01*
X95702381Y8326286D01*
X93162381Y5945333D02*
X92162381Y5945333D01*
X92162381Y6326286D01*
X92210000Y6421524D01*
X92257619Y6469143D01*
X92352857Y6516762D01*
X92495714Y6516762D01*
X92590952Y6469143D01*
X92638571Y6421524D01*
X92686190Y6326286D01*
X92686190Y5945333D01*
X92876667Y6897714D02*
X92876667Y7373905D01*
X93162381Y6802476D02*
X92162381Y7135809D01*
X93162381Y7469143D01*
X93162381Y8326286D02*
X93162381Y7754857D01*
X93162381Y8040571D02*
X92162381Y8040571D01*
X92305238Y7945333D01*
X92400476Y7850095D01*
X92448095Y7754857D01*
X90622381Y5945333D02*
X89622381Y5945333D01*
X89622381Y6326286D01*
X89670000Y6421524D01*
X89717619Y6469143D01*
X89812857Y6516762D01*
X89955714Y6516762D01*
X90050952Y6469143D01*
X90098571Y6421524D01*
X90146190Y6326286D01*
X90146190Y5945333D01*
X90336667Y6897714D02*
X90336667Y7373905D01*
X90622381Y6802476D02*
X89622381Y7135809D01*
X90622381Y7469143D01*
X89622381Y7992952D02*
X89622381Y8088191D01*
X89670000Y8183429D01*
X89717619Y8231048D01*
X89812857Y8278667D01*
X90003333Y8326286D01*
X90241429Y8326286D01*
X90431905Y8278667D01*
X90527143Y8231048D01*
X90574762Y8183429D01*
X90622381Y8088191D01*
X90622381Y7992952D01*
X90574762Y7897714D01*
X90527143Y7850095D01*
X90431905Y7802476D01*
X90241429Y7754857D01*
X90003333Y7754857D01*
X89812857Y7802476D01*
X89717619Y7850095D01*
X89670000Y7897714D01*
X89622381Y7992952D01*
X87191905Y5448571D02*
X87991905Y5715238D01*
X87191905Y5981905D01*
X87991905Y6248571D02*
X87191905Y6248571D01*
X87191905Y6439047D01*
X87230000Y6553333D01*
X87306190Y6629524D01*
X87382381Y6667619D01*
X87534762Y6705714D01*
X87649048Y6705714D01*
X87801429Y6667619D01*
X87877619Y6629524D01*
X87953810Y6553333D01*
X87991905Y6439047D01*
X87991905Y6248571D01*
X87991905Y7048571D02*
X87191905Y7048571D01*
X87191905Y7239047D01*
X87230000Y7353333D01*
X87306190Y7429524D01*
X87382381Y7467619D01*
X87534762Y7505714D01*
X87649048Y7505714D01*
X87801429Y7467619D01*
X87877619Y7429524D01*
X87953810Y7353333D01*
X87991905Y7239047D01*
X87991905Y7048571D01*
X87763333Y7810476D02*
X87763333Y8191428D01*
X87991905Y7734285D02*
X87191905Y8000952D01*
X87991905Y8267619D01*
X87991905Y8953333D02*
X87991905Y8496190D01*
X87991905Y8724761D02*
X87191905Y8724761D01*
X87306190Y8648571D01*
X87382381Y8572380D01*
X87420476Y8496190D01*
X87191905Y9677143D02*
X87191905Y9296190D01*
X87572857Y9258095D01*
X87534762Y9296190D01*
X87496667Y9372381D01*
X87496667Y9562857D01*
X87534762Y9639047D01*
X87572857Y9677143D01*
X87649048Y9715238D01*
X87839524Y9715238D01*
X87915714Y9677143D01*
X87953810Y9639047D01*
X87991905Y9562857D01*
X87991905Y9372381D01*
X87953810Y9296190D01*
X87915714Y9258095D01*
X84690000Y6248572D02*
X84651905Y6172381D01*
X84651905Y6058096D01*
X84690000Y5943810D01*
X84766190Y5867619D01*
X84842381Y5829524D01*
X84994762Y5791429D01*
X85109048Y5791429D01*
X85261429Y5829524D01*
X85337619Y5867619D01*
X85413810Y5943810D01*
X85451905Y6058096D01*
X85451905Y6134286D01*
X85413810Y6248572D01*
X85375714Y6286667D01*
X85109048Y6286667D01*
X85109048Y6134286D01*
X85451905Y6629524D02*
X84651905Y6629524D01*
X85451905Y7086667D01*
X84651905Y7086667D01*
X85451905Y7467619D02*
X84651905Y7467619D01*
X84651905Y7658095D01*
X84690000Y7772381D01*
X84766190Y7848572D01*
X84842381Y7886667D01*
X84994762Y7924762D01*
X85109048Y7924762D01*
X85261429Y7886667D01*
X85337619Y7848572D01*
X85413810Y7772381D01*
X85451905Y7658095D01*
X85451905Y7467619D01*
X85451905Y8686667D02*
X85451905Y8229524D01*
X85451905Y8458095D02*
X84651905Y8458095D01*
X84766190Y8381905D01*
X84842381Y8305714D01*
X84880476Y8229524D01*
X84918571Y9372381D02*
X85451905Y9372381D01*
X84613810Y9181905D02*
X85185238Y8991429D01*
X85185238Y9486667D01*
X83002381Y5873905D02*
X82002381Y5873905D01*
X82002381Y6254858D01*
X82050000Y6350096D01*
X82097619Y6397715D01*
X82192857Y6445334D01*
X82335714Y6445334D01*
X82430952Y6397715D01*
X82478571Y6350096D01*
X82526190Y6254858D01*
X82526190Y5873905D01*
X82907143Y7445334D02*
X82954762Y7397715D01*
X83002381Y7254858D01*
X83002381Y7159620D01*
X82954762Y7016762D01*
X82859524Y6921524D01*
X82764286Y6873905D01*
X82573810Y6826286D01*
X82430952Y6826286D01*
X82240476Y6873905D01*
X82145238Y6921524D01*
X82050000Y7016762D01*
X82002381Y7159620D01*
X82002381Y7254858D01*
X82050000Y7397715D01*
X82097619Y7445334D01*
X82002381Y8350096D02*
X82002381Y7873905D01*
X82478571Y7826286D01*
X82430952Y7873905D01*
X82383333Y7969143D01*
X82383333Y8207239D01*
X82430952Y8302477D01*
X82478571Y8350096D01*
X82573810Y8397715D01*
X82811905Y8397715D01*
X82907143Y8350096D01*
X82954762Y8302477D01*
X83002381Y8207239D01*
X83002381Y7969143D01*
X82954762Y7873905D01*
X82907143Y7826286D01*
X80462381Y5873905D02*
X79462381Y5873905D01*
X79462381Y6254858D01*
X79510000Y6350096D01*
X79557619Y6397715D01*
X79652857Y6445334D01*
X79795714Y6445334D01*
X79890952Y6397715D01*
X79938571Y6350096D01*
X79986190Y6254858D01*
X79986190Y5873905D01*
X80367143Y7445334D02*
X80414762Y7397715D01*
X80462381Y7254858D01*
X80462381Y7159620D01*
X80414762Y7016762D01*
X80319524Y6921524D01*
X80224286Y6873905D01*
X80033810Y6826286D01*
X79890952Y6826286D01*
X79700476Y6873905D01*
X79605238Y6921524D01*
X79510000Y7016762D01*
X79462381Y7159620D01*
X79462381Y7254858D01*
X79510000Y7397715D01*
X79557619Y7445334D01*
X79795714Y8302477D02*
X80462381Y8302477D01*
X79414762Y8064381D02*
X80129048Y7826286D01*
X80129048Y8445334D01*
X77922381Y5873905D02*
X76922381Y5873905D01*
X76922381Y6254858D01*
X76970000Y6350096D01*
X77017619Y6397715D01*
X77112857Y6445334D01*
X77255714Y6445334D01*
X77350952Y6397715D01*
X77398571Y6350096D01*
X77446190Y6254858D01*
X77446190Y5873905D01*
X77827143Y7445334D02*
X77874762Y7397715D01*
X77922381Y7254858D01*
X77922381Y7159620D01*
X77874762Y7016762D01*
X77779524Y6921524D01*
X77684286Y6873905D01*
X77493810Y6826286D01*
X77350952Y6826286D01*
X77160476Y6873905D01*
X77065238Y6921524D01*
X76970000Y7016762D01*
X76922381Y7159620D01*
X76922381Y7254858D01*
X76970000Y7397715D01*
X77017619Y7445334D01*
X76922381Y7778667D02*
X76922381Y8397715D01*
X77303333Y8064381D01*
X77303333Y8207239D01*
X77350952Y8302477D01*
X77398571Y8350096D01*
X77493810Y8397715D01*
X77731905Y8397715D01*
X77827143Y8350096D01*
X77874762Y8302477D01*
X77922381Y8207239D01*
X77922381Y7921524D01*
X77874762Y7826286D01*
X77827143Y7778667D01*
X75382381Y5873905D02*
X74382381Y5873905D01*
X74382381Y6254858D01*
X74430000Y6350096D01*
X74477619Y6397715D01*
X74572857Y6445334D01*
X74715714Y6445334D01*
X74810952Y6397715D01*
X74858571Y6350096D01*
X74906190Y6254858D01*
X74906190Y5873905D01*
X75287143Y7445334D02*
X75334762Y7397715D01*
X75382381Y7254858D01*
X75382381Y7159620D01*
X75334762Y7016762D01*
X75239524Y6921524D01*
X75144286Y6873905D01*
X74953810Y6826286D01*
X74810952Y6826286D01*
X74620476Y6873905D01*
X74525238Y6921524D01*
X74430000Y7016762D01*
X74382381Y7159620D01*
X74382381Y7254858D01*
X74430000Y7397715D01*
X74477619Y7445334D01*
X74477619Y7826286D02*
X74430000Y7873905D01*
X74382381Y7969143D01*
X74382381Y8207239D01*
X74430000Y8302477D01*
X74477619Y8350096D01*
X74572857Y8397715D01*
X74668095Y8397715D01*
X74810952Y8350096D01*
X75382381Y7778667D01*
X75382381Y8397715D01*
X72842381Y5873905D02*
X71842381Y5873905D01*
X71842381Y6254858D01*
X71890000Y6350096D01*
X71937619Y6397715D01*
X72032857Y6445334D01*
X72175714Y6445334D01*
X72270952Y6397715D01*
X72318571Y6350096D01*
X72366190Y6254858D01*
X72366190Y5873905D01*
X72747143Y7445334D02*
X72794762Y7397715D01*
X72842381Y7254858D01*
X72842381Y7159620D01*
X72794762Y7016762D01*
X72699524Y6921524D01*
X72604286Y6873905D01*
X72413810Y6826286D01*
X72270952Y6826286D01*
X72080476Y6873905D01*
X71985238Y6921524D01*
X71890000Y7016762D01*
X71842381Y7159620D01*
X71842381Y7254858D01*
X71890000Y7397715D01*
X71937619Y7445334D01*
X72842381Y8397715D02*
X72842381Y7826286D01*
X72842381Y8112000D02*
X71842381Y8112000D01*
X71985238Y8016762D01*
X72080476Y7921524D01*
X72128095Y7826286D01*
X70302381Y5873905D02*
X69302381Y5873905D01*
X69302381Y6254858D01*
X69350000Y6350096D01*
X69397619Y6397715D01*
X69492857Y6445334D01*
X69635714Y6445334D01*
X69730952Y6397715D01*
X69778571Y6350096D01*
X69826190Y6254858D01*
X69826190Y5873905D01*
X70207143Y7445334D02*
X70254762Y7397715D01*
X70302381Y7254858D01*
X70302381Y7159620D01*
X70254762Y7016762D01*
X70159524Y6921524D01*
X70064286Y6873905D01*
X69873810Y6826286D01*
X69730952Y6826286D01*
X69540476Y6873905D01*
X69445238Y6921524D01*
X69350000Y7016762D01*
X69302381Y7159620D01*
X69302381Y7254858D01*
X69350000Y7397715D01*
X69397619Y7445334D01*
X69302381Y8064381D02*
X69302381Y8159620D01*
X69350000Y8254858D01*
X69397619Y8302477D01*
X69492857Y8350096D01*
X69683333Y8397715D01*
X69921429Y8397715D01*
X70111905Y8350096D01*
X70207143Y8302477D01*
X70254762Y8254858D01*
X70302381Y8159620D01*
X70302381Y8064381D01*
X70254762Y7969143D01*
X70207143Y7921524D01*
X70111905Y7873905D01*
X69921429Y7826286D01*
X69683333Y7826286D01*
X69492857Y7873905D01*
X69397619Y7921524D01*
X69350000Y7969143D01*
X69302381Y8064381D01*
X66762381Y5842286D02*
X67762381Y6175619D01*
X66762381Y6508953D01*
X67762381Y6842286D02*
X66762381Y6842286D01*
X66762381Y7080381D01*
X66810000Y7223239D01*
X66905238Y7318477D01*
X67000476Y7366096D01*
X67190952Y7413715D01*
X67333810Y7413715D01*
X67524286Y7366096D01*
X67619524Y7318477D01*
X67714762Y7223239D01*
X67762381Y7080381D01*
X67762381Y6842286D01*
X67762381Y7842286D02*
X66762381Y7842286D01*
X66762381Y8080381D01*
X66810000Y8223239D01*
X66905238Y8318477D01*
X67000476Y8366096D01*
X67190952Y8413715D01*
X67333810Y8413715D01*
X67524286Y8366096D01*
X67619524Y8318477D01*
X67714762Y8223239D01*
X67762381Y8080381D01*
X67762381Y7842286D01*
X67762381Y9366096D02*
X67762381Y8794667D01*
X67762381Y9080381D02*
X66762381Y9080381D01*
X66905238Y8985143D01*
X67000476Y8889905D01*
X67048095Y8794667D01*
X67762381Y10318477D02*
X67762381Y9747048D01*
X67762381Y10032762D02*
X66762381Y10032762D01*
X66905238Y9937524D01*
X67000476Y9842286D01*
X67048095Y9747048D01*
X64270000Y6413715D02*
X64222381Y6318477D01*
X64222381Y6175620D01*
X64270000Y6032762D01*
X64365238Y5937524D01*
X64460476Y5889905D01*
X64650952Y5842286D01*
X64793810Y5842286D01*
X64984286Y5889905D01*
X65079524Y5937524D01*
X65174762Y6032762D01*
X65222381Y6175620D01*
X65222381Y6270858D01*
X65174762Y6413715D01*
X65127143Y6461334D01*
X64793810Y6461334D01*
X64793810Y6270858D01*
X65222381Y6889905D02*
X64222381Y6889905D01*
X65222381Y7461334D01*
X64222381Y7461334D01*
X65222381Y7937524D02*
X64222381Y7937524D01*
X64222381Y8175619D01*
X64270000Y8318477D01*
X64365238Y8413715D01*
X64460476Y8461334D01*
X64650952Y8508953D01*
X64793810Y8508953D01*
X64984286Y8461334D01*
X65079524Y8413715D01*
X65174762Y8318477D01*
X65222381Y8175619D01*
X65222381Y7937524D01*
X65222381Y9461334D02*
X65222381Y8889905D01*
X65222381Y9175619D02*
X64222381Y9175619D01*
X64365238Y9080381D01*
X64460476Y8985143D01*
X64508095Y8889905D01*
X64222381Y10080381D02*
X64222381Y10175620D01*
X64270000Y10270858D01*
X64317619Y10318477D01*
X64412857Y10366096D01*
X64603333Y10413715D01*
X64841429Y10413715D01*
X65031905Y10366096D01*
X65127143Y10318477D01*
X65174762Y10270858D01*
X65222381Y10175620D01*
X65222381Y10080381D01*
X65174762Y9985143D01*
X65127143Y9937524D01*
X65031905Y9889905D01*
X64841429Y9842286D01*
X64603333Y9842286D01*
X64412857Y9889905D01*
X64317619Y9937524D01*
X64270000Y9985143D01*
X64222381Y10080381D01*
X62682381Y5873905D02*
X61682381Y5873905D01*
X61682381Y6254858D01*
X61730000Y6350096D01*
X61777619Y6397715D01*
X61872857Y6445334D01*
X62015714Y6445334D01*
X62110952Y6397715D01*
X62158571Y6350096D01*
X62206190Y6254858D01*
X62206190Y5873905D01*
X62158571Y7207239D02*
X62206190Y7350096D01*
X62253810Y7397715D01*
X62349048Y7445334D01*
X62491905Y7445334D01*
X62587143Y7397715D01*
X62634762Y7350096D01*
X62682381Y7254858D01*
X62682381Y6873905D01*
X61682381Y6873905D01*
X61682381Y7207239D01*
X61730000Y7302477D01*
X61777619Y7350096D01*
X61872857Y7397715D01*
X61968095Y7397715D01*
X62063333Y7350096D01*
X62110952Y7302477D01*
X62158571Y7207239D01*
X62158571Y6873905D01*
X62682381Y7921524D02*
X62682381Y8112000D01*
X62634762Y8207239D01*
X62587143Y8254858D01*
X62444286Y8350096D01*
X62253810Y8397715D01*
X61872857Y8397715D01*
X61777619Y8350096D01*
X61730000Y8302477D01*
X61682381Y8207239D01*
X61682381Y8016762D01*
X61730000Y7921524D01*
X61777619Y7873905D01*
X61872857Y7826286D01*
X62110952Y7826286D01*
X62206190Y7873905D01*
X62253810Y7921524D01*
X62301429Y8016762D01*
X62301429Y8207239D01*
X62253810Y8302477D01*
X62206190Y8350096D01*
X62110952Y8397715D01*
X60142381Y5873905D02*
X59142381Y5873905D01*
X59142381Y6254858D01*
X59190000Y6350096D01*
X59237619Y6397715D01*
X59332857Y6445334D01*
X59475714Y6445334D01*
X59570952Y6397715D01*
X59618571Y6350096D01*
X59666190Y6254858D01*
X59666190Y5873905D01*
X59618571Y7207239D02*
X59666190Y7350096D01*
X59713810Y7397715D01*
X59809048Y7445334D01*
X59951905Y7445334D01*
X60047143Y7397715D01*
X60094762Y7350096D01*
X60142381Y7254858D01*
X60142381Y6873905D01*
X59142381Y6873905D01*
X59142381Y7207239D01*
X59190000Y7302477D01*
X59237619Y7350096D01*
X59332857Y7397715D01*
X59428095Y7397715D01*
X59523333Y7350096D01*
X59570952Y7302477D01*
X59618571Y7207239D01*
X59618571Y6873905D01*
X59570952Y8016762D02*
X59523333Y7921524D01*
X59475714Y7873905D01*
X59380476Y7826286D01*
X59332857Y7826286D01*
X59237619Y7873905D01*
X59190000Y7921524D01*
X59142381Y8016762D01*
X59142381Y8207239D01*
X59190000Y8302477D01*
X59237619Y8350096D01*
X59332857Y8397715D01*
X59380476Y8397715D01*
X59475714Y8350096D01*
X59523333Y8302477D01*
X59570952Y8207239D01*
X59570952Y8016762D01*
X59618571Y7921524D01*
X59666190Y7873905D01*
X59761429Y7826286D01*
X59951905Y7826286D01*
X60047143Y7873905D01*
X60094762Y7921524D01*
X60142381Y8016762D01*
X60142381Y8207239D01*
X60094762Y8302477D01*
X60047143Y8350096D01*
X59951905Y8397715D01*
X59761429Y8397715D01*
X59666190Y8350096D01*
X59618571Y8302477D01*
X59570952Y8207239D01*
X57602381Y5873905D02*
X56602381Y5873905D01*
X56602381Y6254858D01*
X56650000Y6350096D01*
X56697619Y6397715D01*
X56792857Y6445334D01*
X56935714Y6445334D01*
X57030952Y6397715D01*
X57078571Y6350096D01*
X57126190Y6254858D01*
X57126190Y5873905D01*
X57078571Y7207239D02*
X57126190Y7350096D01*
X57173810Y7397715D01*
X57269048Y7445334D01*
X57411905Y7445334D01*
X57507143Y7397715D01*
X57554762Y7350096D01*
X57602381Y7254858D01*
X57602381Y6873905D01*
X56602381Y6873905D01*
X56602381Y7207239D01*
X56650000Y7302477D01*
X56697619Y7350096D01*
X56792857Y7397715D01*
X56888095Y7397715D01*
X56983333Y7350096D01*
X57030952Y7302477D01*
X57078571Y7207239D01*
X57078571Y6873905D01*
X56602381Y7778667D02*
X56602381Y8445334D01*
X57602381Y8016762D01*
X54971905Y5359524D02*
X54171905Y5359524D01*
X54171905Y5664286D01*
X54210000Y5740477D01*
X54248095Y5778572D01*
X54324286Y5816667D01*
X54438571Y5816667D01*
X54514762Y5778572D01*
X54552857Y5740477D01*
X54590952Y5664286D01*
X54590952Y5359524D01*
X54552857Y6426191D02*
X54590952Y6540477D01*
X54629048Y6578572D01*
X54705238Y6616667D01*
X54819524Y6616667D01*
X54895714Y6578572D01*
X54933810Y6540477D01*
X54971905Y6464286D01*
X54971905Y6159524D01*
X54171905Y6159524D01*
X54171905Y6426191D01*
X54210000Y6502381D01*
X54248095Y6540477D01*
X54324286Y6578572D01*
X54400476Y6578572D01*
X54476667Y6540477D01*
X54514762Y6502381D01*
X54552857Y6426191D01*
X54552857Y6159524D01*
X54171905Y7302381D02*
X54171905Y7150000D01*
X54210000Y7073810D01*
X54248095Y7035715D01*
X54362381Y6959524D01*
X54514762Y6921429D01*
X54819524Y6921429D01*
X54895714Y6959524D01*
X54933810Y6997619D01*
X54971905Y7073810D01*
X54971905Y7226191D01*
X54933810Y7302381D01*
X54895714Y7340477D01*
X54819524Y7378572D01*
X54629048Y7378572D01*
X54552857Y7340477D01*
X54514762Y7302381D01*
X54476667Y7226191D01*
X54476667Y7073810D01*
X54514762Y6997619D01*
X54552857Y6959524D01*
X54629048Y6921429D01*
X51631905Y5156381D02*
X52431905Y5423048D01*
X51631905Y5689715D01*
X52431905Y5956381D02*
X51631905Y5956381D01*
X51631905Y6146857D01*
X51670000Y6261143D01*
X51746190Y6337334D01*
X51822381Y6375429D01*
X51974762Y6413524D01*
X52089048Y6413524D01*
X52241429Y6375429D01*
X52317619Y6337334D01*
X52393810Y6261143D01*
X52431905Y6146857D01*
X52431905Y5956381D01*
X52431905Y6756381D02*
X51631905Y6756381D01*
X51631905Y6946857D01*
X51670000Y7061143D01*
X51746190Y7137334D01*
X51822381Y7175429D01*
X51974762Y7213524D01*
X52089048Y7213524D01*
X52241429Y7175429D01*
X52317619Y7137334D01*
X52393810Y7061143D01*
X52431905Y6946857D01*
X52431905Y6756381D01*
X52431905Y7975429D02*
X52431905Y7518286D01*
X52431905Y7746857D02*
X51631905Y7746857D01*
X51746190Y7670667D01*
X51822381Y7594476D01*
X51860476Y7518286D01*
D13*
X121513886Y10790758D02*
X121513886Y11028853D01*
X121656743Y10743139D02*
X121156743Y10909806D01*
X121656743Y11076472D01*
X121656743Y11243139D02*
X121156743Y11243139D01*
X121656743Y11528853D01*
X121156743Y11528853D01*
X121513886Y11743139D02*
X121513886Y11981234D01*
X121656743Y11695520D02*
X121156743Y11862187D01*
X121656743Y12028853D01*
X121656743Y12433615D02*
X121656743Y12195520D01*
X121156743Y12195520D01*
X121156743Y12695520D02*
X121156743Y12790758D01*
X121180553Y12838377D01*
X121228172Y12885996D01*
X121323410Y12909805D01*
X121490077Y12909805D01*
X121585315Y12885996D01*
X121632934Y12838377D01*
X121656743Y12790758D01*
X121656743Y12695520D01*
X121632934Y12647901D01*
X121585315Y12600282D01*
X121490077Y12576472D01*
X121323410Y12576472D01*
X121228172Y12600282D01*
X121180553Y12647901D01*
X121156743Y12695520D01*
X121180553Y13385996D02*
X121156743Y13338377D01*
X121156743Y13266949D01*
X121180553Y13195520D01*
X121228172Y13147901D01*
X121275791Y13124092D01*
X121371029Y13100282D01*
X121442458Y13100282D01*
X121537696Y13124092D01*
X121585315Y13147901D01*
X121632934Y13195520D01*
X121656743Y13266949D01*
X121656743Y13314568D01*
X121632934Y13385996D01*
X121609124Y13409806D01*
X121442458Y13409806D01*
X121442458Y13314568D01*
X121704363Y13505044D02*
X121704363Y13885996D01*
X121156743Y14100282D02*
X121156743Y14195520D01*
X121180553Y14243139D01*
X121228172Y14290758D01*
X121323410Y14314567D01*
X121490077Y14314567D01*
X121585315Y14290758D01*
X121632934Y14243139D01*
X121656743Y14195520D01*
X121656743Y14100282D01*
X121632934Y14052663D01*
X121585315Y14005044D01*
X121490077Y13981234D01*
X121323410Y13981234D01*
X121228172Y14005044D01*
X121180553Y14052663D01*
X121156743Y14100282D01*
X121156743Y14528854D02*
X121561505Y14528854D01*
X121609124Y14552663D01*
X121632934Y14576473D01*
X121656743Y14624092D01*
X121656743Y14719330D01*
X121632934Y14766949D01*
X121609124Y14790758D01*
X121561505Y14814568D01*
X121156743Y14814568D01*
X121156743Y14981235D02*
X121156743Y15266949D01*
X121656743Y15124092D02*
X121156743Y15124092D01*
X121156743Y15528854D02*
X121156743Y15576473D01*
X121180553Y15624092D01*
X121204363Y15647901D01*
X121251982Y15671711D01*
X121347220Y15695520D01*
X121466267Y15695520D01*
X121561505Y15671711D01*
X121609124Y15647901D01*
X121632934Y15624092D01*
X121656743Y15576473D01*
X121656743Y15528854D01*
X121632934Y15481235D01*
X121609124Y15457425D01*
X121561505Y15433616D01*
X121466267Y15409806D01*
X121347220Y15409806D01*
X121251982Y15433616D01*
X121204363Y15457425D01*
X121180553Y15481235D01*
X121156743Y15528854D01*
X106369124Y12302664D02*
X106392934Y12278854D01*
X106416743Y12207426D01*
X106416743Y12159807D01*
X106392934Y12088378D01*
X106345315Y12040759D01*
X106297696Y12016950D01*
X106202458Y11993140D01*
X106131029Y11993140D01*
X106035791Y12016950D01*
X105988172Y12040759D01*
X105940553Y12088378D01*
X105916743Y12159807D01*
X105916743Y12207426D01*
X105940553Y12278854D01*
X105964363Y12302664D01*
X106392934Y12493140D02*
X106416743Y12564569D01*
X106416743Y12683616D01*
X106392934Y12731235D01*
X106369124Y12755045D01*
X106321505Y12778854D01*
X106273886Y12778854D01*
X106226267Y12755045D01*
X106202458Y12731235D01*
X106178648Y12683616D01*
X106154839Y12588378D01*
X106131029Y12540759D01*
X106107220Y12516950D01*
X106059601Y12493140D01*
X106011982Y12493140D01*
X105964363Y12516950D01*
X105940553Y12540759D01*
X105916743Y12588378D01*
X105916743Y12707426D01*
X105940553Y12778854D01*
X106464363Y12874092D02*
X106464363Y13255044D01*
X105916743Y13469330D02*
X105916743Y13516949D01*
X105940553Y13564568D01*
X105964363Y13588377D01*
X106011982Y13612187D01*
X106107220Y13635996D01*
X106226267Y13635996D01*
X106321505Y13612187D01*
X106369124Y13588377D01*
X106392934Y13564568D01*
X106416743Y13516949D01*
X106416743Y13469330D01*
X106392934Y13421711D01*
X106369124Y13397901D01*
X106321505Y13374092D01*
X106226267Y13350282D01*
X106107220Y13350282D01*
X106011982Y13374092D01*
X105964363Y13397901D01*
X105940553Y13421711D01*
X105916743Y13469330D01*
X106464363Y13731234D02*
X106464363Y14112186D01*
X105916743Y14183615D02*
X105916743Y14516948D01*
X106416743Y14302662D01*
X103829124Y12064569D02*
X103852934Y12040759D01*
X103876743Y11969331D01*
X103876743Y11921712D01*
X103852934Y11850283D01*
X103805315Y11802664D01*
X103757696Y11778855D01*
X103662458Y11755045D01*
X103591029Y11755045D01*
X103495791Y11778855D01*
X103448172Y11802664D01*
X103400553Y11850283D01*
X103376743Y11921712D01*
X103376743Y11969331D01*
X103400553Y12040759D01*
X103424363Y12064569D01*
X103852934Y12255045D02*
X103876743Y12326474D01*
X103876743Y12445521D01*
X103852934Y12493140D01*
X103829124Y12516950D01*
X103781505Y12540759D01*
X103733886Y12540759D01*
X103686267Y12516950D01*
X103662458Y12493140D01*
X103638648Y12445521D01*
X103614839Y12350283D01*
X103591029Y12302664D01*
X103567220Y12278855D01*
X103519601Y12255045D01*
X103471982Y12255045D01*
X103424363Y12278855D01*
X103400553Y12302664D01*
X103376743Y12350283D01*
X103376743Y12469331D01*
X103400553Y12540759D01*
X103924363Y12635997D02*
X103924363Y13016949D01*
X103591029Y13207425D02*
X103567220Y13159806D01*
X103543410Y13135997D01*
X103495791Y13112187D01*
X103471982Y13112187D01*
X103424363Y13135997D01*
X103400553Y13159806D01*
X103376743Y13207425D01*
X103376743Y13302663D01*
X103400553Y13350282D01*
X103424363Y13374092D01*
X103471982Y13397901D01*
X103495791Y13397901D01*
X103543410Y13374092D01*
X103567220Y13350282D01*
X103591029Y13302663D01*
X103591029Y13207425D01*
X103614839Y13159806D01*
X103638648Y13135997D01*
X103686267Y13112187D01*
X103781505Y13112187D01*
X103829124Y13135997D01*
X103852934Y13159806D01*
X103876743Y13207425D01*
X103876743Y13302663D01*
X103852934Y13350282D01*
X103829124Y13374092D01*
X103781505Y13397901D01*
X103686267Y13397901D01*
X103638648Y13374092D01*
X103614839Y13350282D01*
X103591029Y13302663D01*
X103924363Y13493139D02*
X103924363Y13874091D01*
X103876743Y14255043D02*
X103876743Y13969329D01*
X103876743Y14112186D02*
X103376743Y14112186D01*
X103448172Y14064567D01*
X103495791Y14016948D01*
X103519601Y13969329D01*
X103376743Y14707424D02*
X103376743Y14469329D01*
X103614839Y14445519D01*
X103591029Y14469329D01*
X103567220Y14516948D01*
X103567220Y14635995D01*
X103591029Y14683614D01*
X103614839Y14707424D01*
X103662458Y14731233D01*
X103781505Y14731233D01*
X103829124Y14707424D01*
X103852934Y14683614D01*
X103876743Y14635995D01*
X103876743Y14516948D01*
X103852934Y14469329D01*
X103829124Y14445519D01*
X80540553Y12624091D02*
X80516743Y12576472D01*
X80516743Y12505044D01*
X80540553Y12433615D01*
X80588172Y12385996D01*
X80635791Y12362187D01*
X80731029Y12338377D01*
X80802458Y12338377D01*
X80897696Y12362187D01*
X80945315Y12385996D01*
X80992934Y12433615D01*
X81016743Y12505044D01*
X81016743Y12552663D01*
X80992934Y12624091D01*
X80969124Y12647901D01*
X80802458Y12647901D01*
X80802458Y12552663D01*
X81016743Y12862187D02*
X80516743Y12862187D01*
X81016743Y13147901D01*
X80516743Y13147901D01*
X81016743Y13385997D02*
X80516743Y13385997D01*
X80516743Y13505044D01*
X80540553Y13576473D01*
X80588172Y13624092D01*
X80635791Y13647901D01*
X80731029Y13671711D01*
X80802458Y13671711D01*
X80897696Y13647901D01*
X80945315Y13624092D01*
X80992934Y13576473D01*
X81016743Y13505044D01*
X81016743Y13385997D01*
X80516743Y13981235D02*
X80516743Y14028854D01*
X80540553Y14076473D01*
X80564363Y14100282D01*
X80611982Y14124092D01*
X80707220Y14147901D01*
X80826267Y14147901D01*
X80921505Y14124092D01*
X80969124Y14100282D01*
X80992934Y14076473D01*
X81016743Y14028854D01*
X81016743Y13981235D01*
X80992934Y13933616D01*
X80969124Y13909806D01*
X80921505Y13885997D01*
X80826267Y13862187D01*
X80707220Y13862187D01*
X80611982Y13885997D01*
X80564363Y13909806D01*
X80540553Y13933616D01*
X80516743Y13981235D01*
X83556743Y12362859D02*
X83056743Y12362859D01*
X83104363Y12577144D02*
X83080553Y12600954D01*
X83056743Y12648573D01*
X83056743Y12767620D01*
X83080553Y12815239D01*
X83104363Y12839049D01*
X83151982Y12862858D01*
X83199601Y12862858D01*
X83271029Y12839049D01*
X83556743Y12553335D01*
X83556743Y12862858D01*
X83509124Y13362858D02*
X83532934Y13339048D01*
X83556743Y13267620D01*
X83556743Y13220001D01*
X83532934Y13148572D01*
X83485315Y13100953D01*
X83437696Y13077144D01*
X83342458Y13053334D01*
X83271029Y13053334D01*
X83175791Y13077144D01*
X83128172Y13100953D01*
X83080553Y13148572D01*
X83056743Y13220001D01*
X83056743Y13267620D01*
X83080553Y13339048D01*
X83104363Y13362858D01*
X83604363Y13458096D02*
X83604363Y13839048D01*
X83532934Y13934286D02*
X83556743Y14005715D01*
X83556743Y14124762D01*
X83532934Y14172381D01*
X83509124Y14196191D01*
X83461505Y14220000D01*
X83413886Y14220000D01*
X83366267Y14196191D01*
X83342458Y14172381D01*
X83318648Y14124762D01*
X83294839Y14029524D01*
X83271029Y13981905D01*
X83247220Y13958096D01*
X83199601Y13934286D01*
X83151982Y13934286D01*
X83104363Y13958096D01*
X83080553Y13981905D01*
X83056743Y14029524D01*
X83056743Y14148572D01*
X83080553Y14220000D01*
X83509124Y14720000D02*
X83532934Y14696190D01*
X83556743Y14624762D01*
X83556743Y14577143D01*
X83532934Y14505714D01*
X83485315Y14458095D01*
X83437696Y14434286D01*
X83342458Y14410476D01*
X83271029Y14410476D01*
X83175791Y14434286D01*
X83128172Y14458095D01*
X83080553Y14505714D01*
X83056743Y14577143D01*
X83056743Y14624762D01*
X83080553Y14696190D01*
X83104363Y14720000D01*
X83556743Y15172381D02*
X83556743Y14934286D01*
X83056743Y14934286D01*
X83056743Y15434286D02*
X83056743Y15481905D01*
X83080553Y15529524D01*
X83104363Y15553333D01*
X83151982Y15577143D01*
X83247220Y15600952D01*
X83366267Y15600952D01*
X83461505Y15577143D01*
X83509124Y15553333D01*
X83532934Y15529524D01*
X83556743Y15481905D01*
X83556743Y15434286D01*
X83532934Y15386667D01*
X83509124Y15362857D01*
X83461505Y15339048D01*
X83366267Y15315238D01*
X83247220Y15315238D01*
X83151982Y15339048D01*
X83104363Y15362857D01*
X83080553Y15386667D01*
X83056743Y15434286D01*
X86096743Y12350954D02*
X85596743Y12350954D01*
X85644363Y12565239D02*
X85620553Y12589049D01*
X85596743Y12636668D01*
X85596743Y12755715D01*
X85620553Y12803334D01*
X85644363Y12827144D01*
X85691982Y12850953D01*
X85739601Y12850953D01*
X85811029Y12827144D01*
X86096743Y12541430D01*
X86096743Y12850953D01*
X86049124Y13350953D02*
X86072934Y13327143D01*
X86096743Y13255715D01*
X86096743Y13208096D01*
X86072934Y13136667D01*
X86025315Y13089048D01*
X85977696Y13065239D01*
X85882458Y13041429D01*
X85811029Y13041429D01*
X85715791Y13065239D01*
X85668172Y13089048D01*
X85620553Y13136667D01*
X85596743Y13208096D01*
X85596743Y13255715D01*
X85620553Y13327143D01*
X85644363Y13350953D01*
X86144363Y13446191D02*
X86144363Y13827143D01*
X86072934Y13922381D02*
X86096743Y13993810D01*
X86096743Y14112857D01*
X86072934Y14160476D01*
X86049124Y14184286D01*
X86001505Y14208095D01*
X85953886Y14208095D01*
X85906267Y14184286D01*
X85882458Y14160476D01*
X85858648Y14112857D01*
X85834839Y14017619D01*
X85811029Y13970000D01*
X85787220Y13946191D01*
X85739601Y13922381D01*
X85691982Y13922381D01*
X85644363Y13946191D01*
X85620553Y13970000D01*
X85596743Y14017619D01*
X85596743Y14136667D01*
X85620553Y14208095D01*
X86096743Y14422381D02*
X85596743Y14422381D01*
X85596743Y14541428D01*
X85620553Y14612857D01*
X85668172Y14660476D01*
X85715791Y14684285D01*
X85811029Y14708095D01*
X85882458Y14708095D01*
X85977696Y14684285D01*
X86025315Y14660476D01*
X86072934Y14612857D01*
X86096743Y14541428D01*
X86096743Y14422381D01*
X85953886Y14898571D02*
X85953886Y15136666D01*
X86096743Y14850952D02*
X85596743Y15017619D01*
X86096743Y15184285D01*
X85596743Y15446190D02*
X85596743Y15493809D01*
X85620553Y15541428D01*
X85644363Y15565237D01*
X85691982Y15589047D01*
X85787220Y15612856D01*
X85906267Y15612856D01*
X86001505Y15589047D01*
X86049124Y15565237D01*
X86072934Y15541428D01*
X86096743Y15493809D01*
X86096743Y15446190D01*
X86072934Y15398571D01*
X86049124Y15374761D01*
X86001505Y15350952D01*
X85906267Y15327142D01*
X85787220Y15327142D01*
X85691982Y15350952D01*
X85644363Y15374761D01*
X85620553Y15398571D01*
X85596743Y15446190D01*
X112756190Y11739763D02*
X113113333Y11739763D01*
X113184762Y11715953D01*
X113232381Y11668334D01*
X113256190Y11596906D01*
X113256190Y11549287D01*
X112756190Y12073096D02*
X112756190Y12168334D01*
X112780000Y12215953D01*
X112827619Y12263572D01*
X112922857Y12287381D01*
X113089524Y12287381D01*
X113184762Y12263572D01*
X113232381Y12215953D01*
X113256190Y12168334D01*
X113256190Y12073096D01*
X113232381Y12025477D01*
X113184762Y11977858D01*
X113089524Y11954048D01*
X112922857Y11954048D01*
X112827619Y11977858D01*
X112780000Y12025477D01*
X112756190Y12073096D01*
X113018095Y12596906D02*
X113256190Y12596906D01*
X112756190Y12430239D02*
X113018095Y12596906D01*
X112756190Y12763572D01*
X112756190Y13025477D02*
X112756190Y13073096D01*
X112780000Y13120715D01*
X112803810Y13144524D01*
X112851429Y13168334D01*
X112946667Y13192143D01*
X113065714Y13192143D01*
X113160952Y13168334D01*
X113208571Y13144524D01*
X113232381Y13120715D01*
X113256190Y13073096D01*
X113256190Y13025477D01*
X113232381Y12977858D01*
X113208571Y12954048D01*
X113160952Y12930239D01*
X113065714Y12906429D01*
X112946667Y12906429D01*
X112851429Y12930239D01*
X112803810Y12954048D01*
X112780000Y12977858D01*
X112756190Y13025477D01*
X113303810Y13287381D02*
X113303810Y13668333D01*
X113232381Y13763571D02*
X113256190Y13835000D01*
X113256190Y13954047D01*
X113232381Y14001666D01*
X113208571Y14025476D01*
X113160952Y14049285D01*
X113113333Y14049285D01*
X113065714Y14025476D01*
X113041905Y14001666D01*
X113018095Y13954047D01*
X112994286Y13858809D01*
X112970476Y13811190D01*
X112946667Y13787381D01*
X112899048Y13763571D01*
X112851429Y13763571D01*
X112803810Y13787381D01*
X112780000Y13811190D01*
X112756190Y13858809D01*
X112756190Y13977857D01*
X112780000Y14049285D01*
X112756190Y14215952D02*
X113256190Y14334999D01*
X112899048Y14430237D01*
X113256190Y14525475D01*
X112756190Y14644523D01*
X112756190Y14930238D02*
X112756190Y14977857D01*
X112780000Y15025476D01*
X112803810Y15049285D01*
X112851429Y15073095D01*
X112946667Y15096904D01*
X113065714Y15096904D01*
X113160952Y15073095D01*
X113208571Y15049285D01*
X113232381Y15025476D01*
X113256190Y14977857D01*
X113256190Y14930238D01*
X113232381Y14882619D01*
X113208571Y14858809D01*
X113160952Y14835000D01*
X113065714Y14811190D01*
X112946667Y14811190D01*
X112851429Y14835000D01*
X112803810Y14858809D01*
X112780000Y14882619D01*
X112756190Y14930238D01*
X108456743Y11933617D02*
X108813886Y11933617D01*
X108885315Y11909807D01*
X108932934Y11862188D01*
X108956743Y11790760D01*
X108956743Y11743141D01*
X108456743Y12266950D02*
X108456743Y12362188D01*
X108480553Y12409807D01*
X108528172Y12457426D01*
X108623410Y12481235D01*
X108790077Y12481235D01*
X108885315Y12457426D01*
X108932934Y12409807D01*
X108956743Y12362188D01*
X108956743Y12266950D01*
X108932934Y12219331D01*
X108885315Y12171712D01*
X108790077Y12147902D01*
X108623410Y12147902D01*
X108528172Y12171712D01*
X108480553Y12219331D01*
X108456743Y12266950D01*
X108718648Y12790760D02*
X108956743Y12790760D01*
X108456743Y12624093D02*
X108718648Y12790760D01*
X108456743Y12957426D01*
X108456743Y13219331D02*
X108456743Y13266950D01*
X108480553Y13314569D01*
X108504363Y13338378D01*
X108551982Y13362188D01*
X108647220Y13385997D01*
X108766267Y13385997D01*
X108861505Y13362188D01*
X108909124Y13338378D01*
X108932934Y13314569D01*
X108956743Y13266950D01*
X108956743Y13219331D01*
X108932934Y13171712D01*
X108909124Y13147902D01*
X108861505Y13124093D01*
X108766267Y13100283D01*
X108647220Y13100283D01*
X108551982Y13124093D01*
X108504363Y13147902D01*
X108480553Y13171712D01*
X108456743Y13219331D01*
X109004363Y13481235D02*
X109004363Y13862187D01*
X108456743Y13933616D02*
X108956743Y14266949D01*
X108456743Y14266949D02*
X108956743Y13933616D01*
X108456743Y14552663D02*
X108456743Y14600282D01*
X108480553Y14647901D01*
X108504363Y14671710D01*
X108551982Y14695520D01*
X108647220Y14719329D01*
X108766267Y14719329D01*
X108861505Y14695520D01*
X108909124Y14671710D01*
X108932934Y14647901D01*
X108956743Y14600282D01*
X108956743Y14552663D01*
X108932934Y14505044D01*
X108909124Y14481234D01*
X108861505Y14457425D01*
X108766267Y14433615D01*
X108647220Y14433615D01*
X108551982Y14457425D01*
X108504363Y14481234D01*
X108480553Y14505044D01*
X108456743Y14552663D01*
X110996743Y11957426D02*
X111353886Y11957426D01*
X111425315Y11933616D01*
X111472934Y11885997D01*
X111496743Y11814569D01*
X111496743Y11766950D01*
X110996743Y12290759D02*
X110996743Y12385997D01*
X111020553Y12433616D01*
X111068172Y12481235D01*
X111163410Y12505044D01*
X111330077Y12505044D01*
X111425315Y12481235D01*
X111472934Y12433616D01*
X111496743Y12385997D01*
X111496743Y12290759D01*
X111472934Y12243140D01*
X111425315Y12195521D01*
X111330077Y12171711D01*
X111163410Y12171711D01*
X111068172Y12195521D01*
X111020553Y12243140D01*
X110996743Y12290759D01*
X111258648Y12814569D02*
X111496743Y12814569D01*
X110996743Y12647902D02*
X111258648Y12814569D01*
X110996743Y12981235D01*
X110996743Y13243140D02*
X110996743Y13290759D01*
X111020553Y13338378D01*
X111044363Y13362187D01*
X111091982Y13385997D01*
X111187220Y13409806D01*
X111306267Y13409806D01*
X111401505Y13385997D01*
X111449124Y13362187D01*
X111472934Y13338378D01*
X111496743Y13290759D01*
X111496743Y13243140D01*
X111472934Y13195521D01*
X111449124Y13171711D01*
X111401505Y13147902D01*
X111306267Y13124092D01*
X111187220Y13124092D01*
X111091982Y13147902D01*
X111044363Y13171711D01*
X111020553Y13195521D01*
X110996743Y13243140D01*
X111544363Y13505044D02*
X111544363Y13885996D01*
X111258648Y14100282D02*
X111496743Y14100282D01*
X110996743Y13933615D02*
X111258648Y14100282D01*
X110996743Y14266948D01*
X110996743Y14528853D02*
X110996743Y14576472D01*
X111020553Y14624091D01*
X111044363Y14647900D01*
X111091982Y14671710D01*
X111187220Y14695519D01*
X111306267Y14695519D01*
X111401505Y14671710D01*
X111449124Y14647900D01*
X111472934Y14624091D01*
X111496743Y14576472D01*
X111496743Y14528853D01*
X111472934Y14481234D01*
X111449124Y14457424D01*
X111401505Y14433615D01*
X111306267Y14409805D01*
X111187220Y14409805D01*
X111091982Y14433615D01*
X111044363Y14457424D01*
X111020553Y14481234D01*
X110996743Y14528853D01*
X119116743Y12624092D02*
X118616743Y12624092D01*
X118616743Y12814568D01*
X118640553Y12862187D01*
X118664363Y12885996D01*
X118711982Y12909806D01*
X118783410Y12909806D01*
X118831029Y12885996D01*
X118854839Y12862187D01*
X118878648Y12814568D01*
X118878648Y12624092D01*
X119069124Y13409806D02*
X119092934Y13385996D01*
X119116743Y13314568D01*
X119116743Y13266949D01*
X119092934Y13195520D01*
X119045315Y13147901D01*
X118997696Y13124092D01*
X118902458Y13100282D01*
X118831029Y13100282D01*
X118735791Y13124092D01*
X118688172Y13147901D01*
X118640553Y13195520D01*
X118616743Y13266949D01*
X118616743Y13314568D01*
X118640553Y13385996D01*
X118664363Y13409806D01*
X118616743Y13719330D02*
X118616743Y13766949D01*
X118640553Y13814568D01*
X118664363Y13838377D01*
X118711982Y13862187D01*
X118807220Y13885996D01*
X118926267Y13885996D01*
X119021505Y13862187D01*
X119069124Y13838377D01*
X119092934Y13814568D01*
X119116743Y13766949D01*
X119116743Y13719330D01*
X119092934Y13671711D01*
X119069124Y13647901D01*
X119021505Y13624092D01*
X118926267Y13600282D01*
X118807220Y13600282D01*
X118711982Y13624092D01*
X118664363Y13647901D01*
X118640553Y13671711D01*
X118616743Y13719330D01*
X116576743Y12624092D02*
X116076743Y12624092D01*
X116076743Y12814568D01*
X116100553Y12862187D01*
X116124363Y12885996D01*
X116171982Y12909806D01*
X116243410Y12909806D01*
X116291029Y12885996D01*
X116314839Y12862187D01*
X116338648Y12814568D01*
X116338648Y12624092D01*
X116529124Y13409806D02*
X116552934Y13385996D01*
X116576743Y13314568D01*
X116576743Y13266949D01*
X116552934Y13195520D01*
X116505315Y13147901D01*
X116457696Y13124092D01*
X116362458Y13100282D01*
X116291029Y13100282D01*
X116195791Y13124092D01*
X116148172Y13147901D01*
X116100553Y13195520D01*
X116076743Y13266949D01*
X116076743Y13314568D01*
X116100553Y13385996D01*
X116124363Y13409806D01*
X116576743Y13885996D02*
X116576743Y13600282D01*
X116576743Y13743139D02*
X116076743Y13743139D01*
X116148172Y13695520D01*
X116195791Y13647901D01*
X116219601Y13600282D01*
X96256743Y12921711D02*
X96018648Y12755044D01*
X96256743Y12635997D02*
X95756743Y12635997D01*
X95756743Y12826473D01*
X95780553Y12874092D01*
X95804363Y12897901D01*
X95851982Y12921711D01*
X95923410Y12921711D01*
X95971029Y12897901D01*
X95994839Y12874092D01*
X96018648Y12826473D01*
X96018648Y12635997D01*
X95756743Y13088378D02*
X96256743Y13421711D01*
X95756743Y13421711D02*
X96256743Y13088378D01*
X95756743Y13707425D02*
X95756743Y13755044D01*
X95780553Y13802663D01*
X95804363Y13826472D01*
X95851982Y13850282D01*
X95947220Y13874091D01*
X96066267Y13874091D01*
X96161505Y13850282D01*
X96209124Y13826472D01*
X96232934Y13802663D01*
X96256743Y13755044D01*
X96256743Y13707425D01*
X96232934Y13659806D01*
X96209124Y13635996D01*
X96161505Y13612187D01*
X96066267Y13588377D01*
X95947220Y13588377D01*
X95851982Y13612187D01*
X95804363Y13635996D01*
X95780553Y13659806D01*
X95756743Y13707425D01*
X93692934Y11692144D02*
X93716743Y11763573D01*
X93716743Y11882620D01*
X93692934Y11930239D01*
X93669124Y11954049D01*
X93621505Y11977858D01*
X93573886Y11977858D01*
X93526267Y11954049D01*
X93502458Y11930239D01*
X93478648Y11882620D01*
X93454839Y11787382D01*
X93431029Y11739763D01*
X93407220Y11715954D01*
X93359601Y11692144D01*
X93311982Y11692144D01*
X93264363Y11715954D01*
X93240553Y11739763D01*
X93216743Y11787382D01*
X93216743Y11906430D01*
X93240553Y11977858D01*
X93716743Y12192144D02*
X93216743Y12192144D01*
X93216743Y12382620D01*
X93240553Y12430239D01*
X93264363Y12454048D01*
X93311982Y12477858D01*
X93383410Y12477858D01*
X93431029Y12454048D01*
X93454839Y12430239D01*
X93478648Y12382620D01*
X93478648Y12192144D01*
X93716743Y12692144D02*
X93216743Y12692144D01*
X93764363Y12811191D02*
X93764363Y13192143D01*
X93669124Y13596905D02*
X93692934Y13573095D01*
X93716743Y13501667D01*
X93716743Y13454048D01*
X93692934Y13382619D01*
X93645315Y13335000D01*
X93597696Y13311191D01*
X93502458Y13287381D01*
X93431029Y13287381D01*
X93335791Y13311191D01*
X93288172Y13335000D01*
X93240553Y13382619D01*
X93216743Y13454048D01*
X93216743Y13501667D01*
X93240553Y13573095D01*
X93264363Y13596905D01*
X93716743Y14049286D02*
X93716743Y13811191D01*
X93216743Y13811191D01*
X93716743Y14215953D02*
X93216743Y14215953D01*
X93716743Y14501667D02*
X93431029Y14287381D01*
X93216743Y14501667D02*
X93502458Y14215953D01*
X93216743Y14811191D02*
X93216743Y14858810D01*
X93240553Y14906429D01*
X93264363Y14930238D01*
X93311982Y14954048D01*
X93407220Y14977857D01*
X93526267Y14977857D01*
X93621505Y14954048D01*
X93669124Y14930238D01*
X93692934Y14906429D01*
X93716743Y14858810D01*
X93716743Y14811191D01*
X93692934Y14763572D01*
X93669124Y14739762D01*
X93621505Y14715953D01*
X93526267Y14692143D01*
X93407220Y14692143D01*
X93311982Y14715953D01*
X93264363Y14739762D01*
X93240553Y14763572D01*
X93216743Y14811191D01*
X88612934Y12124763D02*
X88636743Y12196192D01*
X88636743Y12315239D01*
X88612934Y12362858D01*
X88589124Y12386668D01*
X88541505Y12410477D01*
X88493886Y12410477D01*
X88446267Y12386668D01*
X88422458Y12362858D01*
X88398648Y12315239D01*
X88374839Y12220001D01*
X88351029Y12172382D01*
X88327220Y12148573D01*
X88279601Y12124763D01*
X88231982Y12124763D01*
X88184363Y12148573D01*
X88160553Y12172382D01*
X88136743Y12220001D01*
X88136743Y12339049D01*
X88160553Y12410477D01*
X88636743Y12624763D02*
X88136743Y12624763D01*
X88136743Y12815239D01*
X88160553Y12862858D01*
X88184363Y12886667D01*
X88231982Y12910477D01*
X88303410Y12910477D01*
X88351029Y12886667D01*
X88374839Y12862858D01*
X88398648Y12815239D01*
X88398648Y12624763D01*
X88636743Y13124763D02*
X88136743Y13124763D01*
X88684363Y13243810D02*
X88684363Y13624762D01*
X88636743Y13743810D02*
X88136743Y13743810D01*
X88493886Y13910476D01*
X88136743Y14077143D01*
X88636743Y14077143D01*
X88636743Y14315239D02*
X88136743Y14315239D01*
X88612934Y14529524D02*
X88636743Y14600953D01*
X88636743Y14720000D01*
X88612934Y14767619D01*
X88589124Y14791429D01*
X88541505Y14815238D01*
X88493886Y14815238D01*
X88446267Y14791429D01*
X88422458Y14767619D01*
X88398648Y14720000D01*
X88374839Y14624762D01*
X88351029Y14577143D01*
X88327220Y14553334D01*
X88279601Y14529524D01*
X88231982Y14529524D01*
X88184363Y14553334D01*
X88160553Y14577143D01*
X88136743Y14624762D01*
X88136743Y14743810D01*
X88160553Y14815238D01*
X88136743Y15124762D02*
X88136743Y15220000D01*
X88160553Y15267619D01*
X88208172Y15315238D01*
X88303410Y15339047D01*
X88470077Y15339047D01*
X88565315Y15315238D01*
X88612934Y15267619D01*
X88636743Y15220000D01*
X88636743Y15124762D01*
X88612934Y15077143D01*
X88565315Y15029524D01*
X88470077Y15005714D01*
X88303410Y15005714D01*
X88208172Y15029524D01*
X88160553Y15077143D01*
X88136743Y15124762D01*
X88136743Y15648572D02*
X88136743Y15696191D01*
X88160553Y15743810D01*
X88184363Y15767619D01*
X88231982Y15791429D01*
X88327220Y15815238D01*
X88446267Y15815238D01*
X88541505Y15791429D01*
X88589124Y15767619D01*
X88612934Y15743810D01*
X88636743Y15696191D01*
X88636743Y15648572D01*
X88612934Y15600953D01*
X88589124Y15577143D01*
X88541505Y15553334D01*
X88446267Y15529524D01*
X88327220Y15529524D01*
X88231982Y15553334D01*
X88184363Y15577143D01*
X88160553Y15600953D01*
X88136743Y15648572D01*
X91007381Y12124763D02*
X91031190Y12196192D01*
X91031190Y12315239D01*
X91007381Y12362858D01*
X90983571Y12386668D01*
X90935952Y12410477D01*
X90888333Y12410477D01*
X90840714Y12386668D01*
X90816905Y12362858D01*
X90793095Y12315239D01*
X90769286Y12220001D01*
X90745476Y12172382D01*
X90721667Y12148573D01*
X90674048Y12124763D01*
X90626429Y12124763D01*
X90578810Y12148573D01*
X90555000Y12172382D01*
X90531190Y12220001D01*
X90531190Y12339049D01*
X90555000Y12410477D01*
X91031190Y12624763D02*
X90531190Y12624763D01*
X90531190Y12815239D01*
X90555000Y12862858D01*
X90578810Y12886667D01*
X90626429Y12910477D01*
X90697857Y12910477D01*
X90745476Y12886667D01*
X90769286Y12862858D01*
X90793095Y12815239D01*
X90793095Y12624763D01*
X91031190Y13124763D02*
X90531190Y13124763D01*
X91078810Y13243810D02*
X91078810Y13624762D01*
X91031190Y13743810D02*
X90531190Y13743810D01*
X90888333Y13910476D01*
X90531190Y14077143D01*
X91031190Y14077143D01*
X90531190Y14410477D02*
X90531190Y14505715D01*
X90555000Y14553334D01*
X90602619Y14600953D01*
X90697857Y14624762D01*
X90864524Y14624762D01*
X90959762Y14600953D01*
X91007381Y14553334D01*
X91031190Y14505715D01*
X91031190Y14410477D01*
X91007381Y14362858D01*
X90959762Y14315239D01*
X90864524Y14291429D01*
X90697857Y14291429D01*
X90602619Y14315239D01*
X90555000Y14362858D01*
X90531190Y14410477D01*
X91007381Y14815239D02*
X91031190Y14886668D01*
X91031190Y15005715D01*
X91007381Y15053334D01*
X90983571Y15077144D01*
X90935952Y15100953D01*
X90888333Y15100953D01*
X90840714Y15077144D01*
X90816905Y15053334D01*
X90793095Y15005715D01*
X90769286Y14910477D01*
X90745476Y14862858D01*
X90721667Y14839049D01*
X90674048Y14815239D01*
X90626429Y14815239D01*
X90578810Y14839049D01*
X90555000Y14862858D01*
X90531190Y14910477D01*
X90531190Y15029525D01*
X90555000Y15100953D01*
X91031190Y15315239D02*
X90531190Y15315239D01*
X90531190Y15648572D02*
X90531190Y15696191D01*
X90555000Y15743810D01*
X90578810Y15767619D01*
X90626429Y15791429D01*
X90721667Y15815238D01*
X90840714Y15815238D01*
X90935952Y15791429D01*
X90983571Y15767619D01*
X91007381Y15743810D01*
X91031190Y15696191D01*
X91031190Y15648572D01*
X91007381Y15600953D01*
X90983571Y15577143D01*
X90935952Y15553334D01*
X90840714Y15529524D01*
X90721667Y15529524D01*
X90626429Y15553334D01*
X90578810Y15577143D01*
X90555000Y15600953D01*
X90531190Y15648572D01*
X98296743Y12624092D02*
X98296743Y12909806D01*
X98796743Y12766949D02*
X98296743Y12766949D01*
X98296743Y13028854D02*
X98796743Y13362187D01*
X98296743Y13362187D02*
X98796743Y13028854D01*
X98296743Y13647901D02*
X98296743Y13695520D01*
X98320553Y13743139D01*
X98344363Y13766948D01*
X98391982Y13790758D01*
X98487220Y13814567D01*
X98606267Y13814567D01*
X98701505Y13790758D01*
X98749124Y13766948D01*
X98772934Y13743139D01*
X98796743Y13695520D01*
X98796743Y13647901D01*
X98772934Y13600282D01*
X98749124Y13576472D01*
X98701505Y13552663D01*
X98606267Y13528853D01*
X98487220Y13528853D01*
X98391982Y13552663D01*
X98344363Y13576472D01*
X98320553Y13600282D01*
X98296743Y13647901D01*
X123696743Y12338378D02*
X124196743Y12505045D01*
X123696743Y12671711D01*
X124149124Y13124092D02*
X124172934Y13100282D01*
X124196743Y13028854D01*
X124196743Y12981235D01*
X124172934Y12909806D01*
X124125315Y12862187D01*
X124077696Y12838378D01*
X123982458Y12814568D01*
X123911029Y12814568D01*
X123815791Y12838378D01*
X123768172Y12862187D01*
X123720553Y12909806D01*
X123696743Y12981235D01*
X123696743Y13028854D01*
X123720553Y13100282D01*
X123744363Y13124092D01*
X124149124Y13624092D02*
X124172934Y13600282D01*
X124196743Y13528854D01*
X124196743Y13481235D01*
X124172934Y13409806D01*
X124125315Y13362187D01*
X124077696Y13338378D01*
X123982458Y13314568D01*
X123911029Y13314568D01*
X123815791Y13338378D01*
X123768172Y13362187D01*
X123720553Y13409806D01*
X123696743Y13481235D01*
X123696743Y13528854D01*
X123720553Y13600282D01*
X123744363Y13624092D01*
X123696743Y13933616D02*
X123696743Y13981235D01*
X123720553Y14028854D01*
X123744363Y14052663D01*
X123791982Y14076473D01*
X123887220Y14100282D01*
X124006267Y14100282D01*
X124101505Y14076473D01*
X124149124Y14052663D01*
X124172934Y14028854D01*
X124196743Y13981235D01*
X124196743Y13933616D01*
X124172934Y13885997D01*
X124149124Y13862187D01*
X124101505Y13838378D01*
X124006267Y13814568D01*
X123887220Y13814568D01*
X123791982Y13838378D01*
X123744363Y13862187D01*
X123720553Y13885997D01*
X123696743Y13933616D01*
X100836743Y11600282D02*
X101336743Y11766949D01*
X100836743Y11933615D01*
X100836743Y12195520D02*
X100836743Y12290758D01*
X100860553Y12338377D01*
X100908172Y12385996D01*
X101003410Y12409805D01*
X101170077Y12409805D01*
X101265315Y12385996D01*
X101312934Y12338377D01*
X101336743Y12290758D01*
X101336743Y12195520D01*
X101312934Y12147901D01*
X101265315Y12100282D01*
X101170077Y12076472D01*
X101003410Y12076472D01*
X100908172Y12100282D01*
X100860553Y12147901D01*
X100836743Y12195520D01*
X101336743Y12862187D02*
X101336743Y12624092D01*
X100836743Y12624092D01*
X100836743Y13028854D02*
X101241505Y13028854D01*
X101289124Y13052663D01*
X101312934Y13076473D01*
X101336743Y13124092D01*
X101336743Y13219330D01*
X101312934Y13266949D01*
X101289124Y13290758D01*
X101241505Y13314568D01*
X100836743Y13314568D01*
X101336743Y13552664D02*
X100836743Y13552664D01*
X101193886Y13719330D01*
X100836743Y13885997D01*
X101336743Y13885997D01*
X101074839Y14124093D02*
X101074839Y14290759D01*
X101336743Y14362188D02*
X101336743Y14124093D01*
X100836743Y14124093D01*
X100836743Y14362188D01*
X100836743Y14671712D02*
X100836743Y14719331D01*
X100860553Y14766950D01*
X100884363Y14790759D01*
X100931982Y14814569D01*
X101027220Y14838378D01*
X101146267Y14838378D01*
X101241505Y14814569D01*
X101289124Y14790759D01*
X101312934Y14766950D01*
X101336743Y14719331D01*
X101336743Y14671712D01*
X101312934Y14624093D01*
X101289124Y14600283D01*
X101241505Y14576474D01*
X101146267Y14552664D01*
X101027220Y14552664D01*
X100931982Y14576474D01*
X100884363Y14600283D01*
X100860553Y14624093D01*
X100836743Y14671712D01*
M02*
