G04 #@! TF.FileFunction,Copper,L2,Bot,Signal*
%FSLAX46Y46*%
G04 Gerber Fmt 4.6, Leading zero omitted, Abs format (unit mm)*
G04 Created by KiCad (PCBNEW 4.0.4-stable) date 08/04/17 17:34:58*
%MOMM*%
%LPD*%
G01*
G04 APERTURE LIST*
%ADD10C,0.100000*%
%ADD11C,4.064000*%
%ADD12C,1.727200*%
%ADD13C,0.600000*%
%ADD14C,0.250000*%
%ADD15C,0.254000*%
G04 APERTURE END LIST*
D10*
D11*
X54000000Y10000000D03*
X156500000Y10000000D03*
D12*
X69850000Y1270000D03*
X77470000Y1270000D03*
X120650000Y1270000D03*
X59690000Y1270000D03*
X52070000Y1270000D03*
X54610000Y1270000D03*
X57150000Y1270000D03*
X62230000Y1270000D03*
X72390000Y1270000D03*
X64770000Y1270000D03*
X67310000Y1270000D03*
X74930000Y1270000D03*
X85090000Y1270000D03*
X80010000Y1270000D03*
X82550000Y1270000D03*
X87630000Y1270000D03*
X97790000Y1270000D03*
X90170000Y1270000D03*
X92710000Y1270000D03*
X95250000Y1270000D03*
X100330000Y1270000D03*
X110490000Y1270000D03*
X102870000Y1270000D03*
X105410000Y1270000D03*
X107950000Y1270000D03*
X113030000Y1270000D03*
X123190000Y1270000D03*
X115570000Y1270000D03*
X118110000Y1270000D03*
X125730000Y1270000D03*
X135890000Y1270000D03*
X128270000Y1270000D03*
X130810000Y1270000D03*
X133350000Y1270000D03*
X138430000Y1270000D03*
X148590000Y1270000D03*
X140970000Y1270000D03*
X143510000Y1270000D03*
X146050000Y1270000D03*
X151130000Y1270000D03*
X133350000Y3810000D03*
X146050000Y3810000D03*
X128270000Y3810000D03*
X130810000Y3810000D03*
X140970000Y3810000D03*
X143510000Y3810000D03*
X135890000Y3810000D03*
X138430000Y3810000D03*
X148590000Y3810000D03*
X151130000Y3810000D03*
X82550000Y3810000D03*
X95250000Y3810000D03*
X77470000Y3810000D03*
X80010000Y3810000D03*
X90170000Y3810000D03*
X92710000Y3810000D03*
X85090000Y3810000D03*
X87630000Y3810000D03*
X97790000Y3810000D03*
X100330000Y3810000D03*
X57150000Y3810000D03*
X69850000Y3810000D03*
X52070000Y3810000D03*
X54610000Y3810000D03*
X64770000Y3810000D03*
X67310000Y3810000D03*
X59690000Y3810000D03*
X62230000Y3810000D03*
X72390000Y3810000D03*
X74930000Y3810000D03*
X107950000Y3810000D03*
X120650000Y3810000D03*
X102870000Y3810000D03*
X105410000Y3810000D03*
X115570000Y3810000D03*
X118110000Y3810000D03*
X110490000Y3810000D03*
X113030000Y3810000D03*
X123190000Y3810000D03*
X125730000Y3810000D03*
X121430553Y10703139D03*
X106190553Y10703139D03*
X103650553Y10703139D03*
X80790553Y10703139D03*
X83330553Y10703139D03*
X85870553Y10703139D03*
X113810553Y10703139D03*
X108730553Y10703139D03*
X111270553Y10703139D03*
X118890553Y10703139D03*
X116350553Y10703139D03*
X96030553Y10703139D03*
X93490553Y10703139D03*
X88410553Y10703139D03*
X90950553Y10703139D03*
X98570553Y10703139D03*
X123970553Y10703139D03*
X101110553Y10703139D03*
D13*
X107950000Y8255000D03*
X78740000Y8890000D03*
X80010000Y15875000D03*
X72390000Y7620000D03*
X73025000Y17145000D03*
X69850000Y6985000D03*
X70485000Y16510000D03*
X77470000Y7620000D03*
X78105000Y13970000D03*
X80010000Y8890000D03*
X84455000Y18415000D03*
D14*
X67310000Y3810000D02*
X66040000Y2540000D01*
X66040000Y2540000D02*
X53340000Y2540000D01*
X53340000Y2540000D02*
X52070000Y3810000D01*
X87630000Y3810000D02*
X86441399Y2621399D01*
X86441399Y2621399D02*
X68498601Y2621399D01*
X68498601Y2621399D02*
X68173599Y2946401D01*
X68173599Y2946401D02*
X67310000Y3810000D01*
X101600000Y2540000D02*
X88900000Y2540000D01*
X88900000Y2540000D02*
X87630000Y3810000D01*
X102870000Y3810000D02*
X101600000Y2540000D01*
X123190000Y3810000D02*
X121838601Y2458601D01*
X121838601Y2458601D02*
X104221399Y2458601D01*
X104221399Y2458601D02*
X103733599Y2946401D01*
X103733599Y2946401D02*
X102870000Y3810000D01*
X125730000Y3810000D02*
X123190000Y3810000D01*
X123970553Y10703139D02*
X123970553Y4590553D01*
X123970553Y4590553D02*
X123190000Y3810000D01*
X93370035Y12341751D02*
X92301952Y11273668D01*
X92710000Y5031314D02*
X92710000Y3810000D01*
X92301952Y5439362D02*
X92710000Y5031314D01*
X99471941Y12341751D02*
X93370035Y12341751D01*
X101110553Y10703139D02*
X99471941Y12341751D01*
X92301952Y11273668D02*
X92301952Y5439362D01*
X107950000Y8255000D02*
X107950000Y3810000D01*
X55473599Y4673599D02*
X54610000Y3810000D01*
X101111919Y13241773D02*
X64041773Y13241773D01*
X64041773Y13241773D02*
X55473599Y4673599D01*
X103650553Y10703139D02*
X101111919Y13241773D01*
X106190553Y10703139D02*
X105001952Y9514538D01*
X102461952Y10132610D02*
X102461952Y11255330D01*
X58013599Y4673599D02*
X57150000Y3810000D01*
X103080024Y9514538D02*
X102461952Y10132610D01*
X66131762Y12791762D02*
X58013599Y4673599D01*
X102461952Y11255330D02*
X100925520Y12791762D01*
X105001952Y9514538D02*
X103080024Y9514538D01*
X100925520Y12791762D02*
X66131762Y12791762D01*
X95250000Y5031314D02*
X95250000Y3810000D01*
X95460024Y11891740D02*
X94841952Y11273668D01*
X94841952Y5439362D02*
X95250000Y5031314D01*
X98570553Y10703139D02*
X97381952Y11891740D01*
X97381952Y11891740D02*
X95460024Y11891740D01*
X94841952Y11273668D02*
X94841952Y5439362D01*
X96030553Y10703139D02*
X96030553Y5569447D01*
X96030553Y5569447D02*
X97790000Y3810000D01*
X78740000Y8890000D02*
X78740000Y7620000D01*
X78740000Y7620000D02*
X80010000Y6350000D01*
X80010000Y6350000D02*
X80010000Y3810000D01*
X106685006Y16510000D02*
X80645000Y16510000D01*
X80645000Y16510000D02*
X80010000Y15875000D01*
X111270553Y10703139D02*
X111270553Y11924453D01*
X111270553Y11924453D02*
X106685006Y16510000D01*
X72390000Y7620000D02*
X72390000Y3810000D01*
X76200000Y20955000D02*
X73025000Y17780000D01*
X73025000Y17780000D02*
X73025000Y17145000D01*
X116350553Y10703139D02*
X106098692Y20955000D01*
X106098692Y20955000D02*
X76200000Y20955000D01*
X69850000Y6985000D02*
X69850000Y3810000D01*
X75565000Y21590000D02*
X70485000Y16510000D01*
X118890553Y10703139D02*
X108003692Y21590000D01*
X108003692Y21590000D02*
X75565000Y21590000D01*
X77470000Y7620000D02*
X77470000Y3810000D01*
X106050006Y14605000D02*
X78740000Y14605000D01*
X78740000Y14605000D02*
X78105000Y13970000D01*
X108730553Y10703139D02*
X108730553Y11924453D01*
X108730553Y11924453D02*
X106050006Y14605000D01*
X80010000Y8890000D02*
X82550000Y6350000D01*
X82550000Y6350000D02*
X82550000Y3810000D01*
X107320006Y18415000D02*
X84455000Y18415000D01*
X113810553Y10703139D02*
X113810553Y11924453D01*
X113810553Y11924453D02*
X107320006Y18415000D01*
X106670001Y8880001D02*
X105410000Y7620000D01*
X105410000Y7620000D02*
X105410000Y3810000D01*
X121430553Y10703139D02*
X119607415Y8880001D01*
X119607415Y8880001D02*
X106670001Y8880001D01*
D15*
G36*
X159315000Y685000D02*
X152509747Y685000D01*
X152628339Y970602D01*
X152628859Y1566782D01*
X152401192Y2117780D01*
X151979997Y2539710D01*
X151979069Y2540095D01*
X152399710Y2960003D01*
X152628339Y3510602D01*
X152628859Y4106782D01*
X152401192Y4657780D01*
X151979997Y5079710D01*
X151429398Y5308339D01*
X150833218Y5308859D01*
X150282220Y5081192D01*
X149860290Y4659997D01*
X149859905Y4659069D01*
X149439997Y5079710D01*
X148889398Y5308339D01*
X148293218Y5308859D01*
X147742220Y5081192D01*
X147320290Y4659997D01*
X147319905Y4659069D01*
X146899997Y5079710D01*
X146349398Y5308339D01*
X145753218Y5308859D01*
X145202220Y5081192D01*
X144780290Y4659997D01*
X144779905Y4659069D01*
X144359997Y5079710D01*
X143809398Y5308339D01*
X143213218Y5308859D01*
X142662220Y5081192D01*
X142240290Y4659997D01*
X142239905Y4659069D01*
X141819997Y5079710D01*
X141269398Y5308339D01*
X140673218Y5308859D01*
X140122220Y5081192D01*
X139700290Y4659997D01*
X139699905Y4659069D01*
X139279997Y5079710D01*
X138729398Y5308339D01*
X138133218Y5308859D01*
X137582220Y5081192D01*
X137160290Y4659997D01*
X137159905Y4659069D01*
X136739997Y5079710D01*
X136189398Y5308339D01*
X135593218Y5308859D01*
X135042220Y5081192D01*
X134620290Y4659997D01*
X134603459Y4619463D01*
X134403805Y4684200D01*
X133529605Y3810000D01*
X134403805Y2935800D01*
X134603033Y3000399D01*
X134618808Y2962220D01*
X135040003Y2540290D01*
X135040931Y2539905D01*
X134620290Y2119997D01*
X134603459Y2079463D01*
X134403805Y2144200D01*
X133529605Y1270000D01*
X133543748Y1255858D01*
X133364143Y1076253D01*
X133350000Y1090395D01*
X133335858Y1076253D01*
X133156253Y1255858D01*
X133170395Y1270000D01*
X132296195Y2144200D01*
X132080000Y2074099D01*
X131863805Y2144200D01*
X130989605Y1270000D01*
X131003748Y1255858D01*
X130824143Y1076253D01*
X130810000Y1090395D01*
X130795858Y1076253D01*
X130616253Y1255858D01*
X130630395Y1270000D01*
X129756195Y2144200D01*
X129556967Y2079601D01*
X129541192Y2117780D01*
X129119997Y2539710D01*
X129119069Y2540095D01*
X129335546Y2756195D01*
X129935800Y2756195D01*
X130005901Y2540000D01*
X129935800Y2323805D01*
X130810000Y1449605D01*
X131684200Y2323805D01*
X131614099Y2540000D01*
X131684200Y2756195D01*
X132475800Y2756195D01*
X132545901Y2540000D01*
X132475800Y2323805D01*
X133350000Y1449605D01*
X134224200Y2323805D01*
X134154099Y2540000D01*
X134224200Y2756195D01*
X133350000Y3630395D01*
X132475800Y2756195D01*
X131684200Y2756195D01*
X130810000Y3630395D01*
X129935800Y2756195D01*
X129335546Y2756195D01*
X129539710Y2960003D01*
X129556541Y3000537D01*
X129756195Y2935800D01*
X130630395Y3810000D01*
X130989605Y3810000D01*
X131863805Y2935800D01*
X132080000Y3005901D01*
X132296195Y2935800D01*
X133170395Y3810000D01*
X132296195Y4684200D01*
X132080000Y4614099D01*
X131863805Y4684200D01*
X130989605Y3810000D01*
X130630395Y3810000D01*
X129756195Y4684200D01*
X129556967Y4619601D01*
X129541192Y4657780D01*
X129335526Y4863805D01*
X129935800Y4863805D01*
X130810000Y3989605D01*
X131684200Y4863805D01*
X132475800Y4863805D01*
X133350000Y3989605D01*
X134224200Y4863805D01*
X134142259Y5116516D01*
X133581970Y5320248D01*
X132986365Y5294058D01*
X132557741Y5116516D01*
X132475800Y4863805D01*
X131684200Y4863805D01*
X131602259Y5116516D01*
X131041970Y5320248D01*
X130446365Y5294058D01*
X130017741Y5116516D01*
X129935800Y4863805D01*
X129335526Y4863805D01*
X129119997Y5079710D01*
X128569398Y5308339D01*
X127973218Y5308859D01*
X127422220Y5081192D01*
X127000290Y4659997D01*
X126999905Y4659069D01*
X126579997Y5079710D01*
X126029398Y5308339D01*
X125433218Y5308859D01*
X124882220Y5081192D01*
X124730553Y4929789D01*
X124730553Y9395677D01*
X124818333Y9431947D01*
X124858283Y9471828D01*
X153832538Y9471828D01*
X154237709Y8491239D01*
X154987293Y7740345D01*
X155967173Y7333464D01*
X157028172Y7332538D01*
X158008761Y7737709D01*
X158759655Y8487293D01*
X159166536Y9467173D01*
X159167462Y10528172D01*
X158762291Y11508761D01*
X158012707Y12259655D01*
X157032827Y12666536D01*
X155971828Y12667462D01*
X154991239Y12262291D01*
X154240345Y11512707D01*
X153833464Y10532827D01*
X153832538Y9471828D01*
X124858283Y9471828D01*
X125240263Y9853142D01*
X125468892Y10403741D01*
X125469412Y10999921D01*
X125241745Y11550919D01*
X124820550Y11972849D01*
X124269951Y12201478D01*
X123673771Y12201998D01*
X123122773Y11974331D01*
X122700843Y11553136D01*
X122700458Y11552208D01*
X122280550Y11972849D01*
X121729951Y12201478D01*
X121133771Y12201998D01*
X120582773Y11974331D01*
X120160843Y11553136D01*
X120160458Y11552208D01*
X119740550Y11972849D01*
X119189951Y12201478D01*
X118593771Y12201998D01*
X118503709Y12164785D01*
X108541093Y22127401D01*
X108294531Y22292148D01*
X108003692Y22350000D01*
X75565000Y22350000D01*
X75274161Y22292148D01*
X75027599Y22127401D01*
X70345320Y17445122D01*
X70299833Y17445162D01*
X69956057Y17303117D01*
X69692808Y17040327D01*
X69550162Y16696799D01*
X69549838Y16324833D01*
X69691883Y15981057D01*
X69954673Y15717808D01*
X70298201Y15575162D01*
X70670167Y15574838D01*
X71013943Y15716883D01*
X71277192Y15979673D01*
X71419838Y16323201D01*
X71419879Y16370077D01*
X72089908Y17040106D01*
X72089838Y16959833D01*
X72231883Y16616057D01*
X72494673Y16352808D01*
X72838201Y16210162D01*
X73210167Y16209838D01*
X73553943Y16351883D01*
X73817192Y16614673D01*
X73959838Y16958201D01*
X73960162Y17330167D01*
X73869467Y17549665D01*
X76514802Y20195000D01*
X105783890Y20195000D01*
X106803890Y19175000D01*
X85017463Y19175000D01*
X84985327Y19207192D01*
X84641799Y19349838D01*
X84269833Y19350162D01*
X83926057Y19208117D01*
X83662808Y18945327D01*
X83520162Y18601799D01*
X83519838Y18229833D01*
X83661883Y17886057D01*
X83924673Y17622808D01*
X84268201Y17480162D01*
X84640167Y17479838D01*
X84983943Y17621883D01*
X85017118Y17655000D01*
X107005204Y17655000D01*
X112824202Y11836002D01*
X112540843Y11553136D01*
X112540458Y11552208D01*
X112120550Y11972849D01*
X112011957Y12017941D01*
X111972701Y12215292D01*
X111807954Y12461854D01*
X107222407Y17047401D01*
X106975845Y17212148D01*
X106685006Y17270000D01*
X80645000Y17270000D01*
X80354161Y17212148D01*
X80107599Y17047401D01*
X79870320Y16810122D01*
X79824833Y16810162D01*
X79481057Y16668117D01*
X79217808Y16405327D01*
X79075162Y16061799D01*
X79074838Y15689833D01*
X79209056Y15365000D01*
X78740000Y15365000D01*
X78449161Y15307148D01*
X78202599Y15142401D01*
X77965320Y14905122D01*
X77919833Y14905162D01*
X77576057Y14763117D01*
X77312808Y14500327D01*
X77170162Y14156799D01*
X77170027Y14001773D01*
X64041773Y14001773D01*
X63750934Y13943921D01*
X63504372Y13779174D01*
X54997114Y5271916D01*
X54909398Y5308339D01*
X54313218Y5308859D01*
X53762220Y5081192D01*
X53340290Y4659997D01*
X53339905Y4659069D01*
X52919997Y5079710D01*
X52369398Y5308339D01*
X51773218Y5308859D01*
X51485000Y5189770D01*
X51485000Y9102842D01*
X51737709Y8491239D01*
X52487293Y7740345D01*
X53467173Y7333464D01*
X54528172Y7332538D01*
X55508761Y7737709D01*
X56259655Y8487293D01*
X56666536Y9467173D01*
X56667462Y10528172D01*
X56262291Y11508761D01*
X55512707Y12259655D01*
X54532827Y12666536D01*
X53471828Y12667462D01*
X52491239Y12262291D01*
X51740345Y11512707D01*
X51485000Y10897767D01*
X51485000Y25985000D01*
X159315000Y25985000D01*
X159315000Y685000D01*
X159315000Y685000D01*
G37*
X159315000Y685000D02*
X152509747Y685000D01*
X152628339Y970602D01*
X152628859Y1566782D01*
X152401192Y2117780D01*
X151979997Y2539710D01*
X151979069Y2540095D01*
X152399710Y2960003D01*
X152628339Y3510602D01*
X152628859Y4106782D01*
X152401192Y4657780D01*
X151979997Y5079710D01*
X151429398Y5308339D01*
X150833218Y5308859D01*
X150282220Y5081192D01*
X149860290Y4659997D01*
X149859905Y4659069D01*
X149439997Y5079710D01*
X148889398Y5308339D01*
X148293218Y5308859D01*
X147742220Y5081192D01*
X147320290Y4659997D01*
X147319905Y4659069D01*
X146899997Y5079710D01*
X146349398Y5308339D01*
X145753218Y5308859D01*
X145202220Y5081192D01*
X144780290Y4659997D01*
X144779905Y4659069D01*
X144359997Y5079710D01*
X143809398Y5308339D01*
X143213218Y5308859D01*
X142662220Y5081192D01*
X142240290Y4659997D01*
X142239905Y4659069D01*
X141819997Y5079710D01*
X141269398Y5308339D01*
X140673218Y5308859D01*
X140122220Y5081192D01*
X139700290Y4659997D01*
X139699905Y4659069D01*
X139279997Y5079710D01*
X138729398Y5308339D01*
X138133218Y5308859D01*
X137582220Y5081192D01*
X137160290Y4659997D01*
X137159905Y4659069D01*
X136739997Y5079710D01*
X136189398Y5308339D01*
X135593218Y5308859D01*
X135042220Y5081192D01*
X134620290Y4659997D01*
X134603459Y4619463D01*
X134403805Y4684200D01*
X133529605Y3810000D01*
X134403805Y2935800D01*
X134603033Y3000399D01*
X134618808Y2962220D01*
X135040003Y2540290D01*
X135040931Y2539905D01*
X134620290Y2119997D01*
X134603459Y2079463D01*
X134403805Y2144200D01*
X133529605Y1270000D01*
X133543748Y1255858D01*
X133364143Y1076253D01*
X133350000Y1090395D01*
X133335858Y1076253D01*
X133156253Y1255858D01*
X133170395Y1270000D01*
X132296195Y2144200D01*
X132080000Y2074099D01*
X131863805Y2144200D01*
X130989605Y1270000D01*
X131003748Y1255858D01*
X130824143Y1076253D01*
X130810000Y1090395D01*
X130795858Y1076253D01*
X130616253Y1255858D01*
X130630395Y1270000D01*
X129756195Y2144200D01*
X129556967Y2079601D01*
X129541192Y2117780D01*
X129119997Y2539710D01*
X129119069Y2540095D01*
X129335546Y2756195D01*
X129935800Y2756195D01*
X130005901Y2540000D01*
X129935800Y2323805D01*
X130810000Y1449605D01*
X131684200Y2323805D01*
X131614099Y2540000D01*
X131684200Y2756195D01*
X132475800Y2756195D01*
X132545901Y2540000D01*
X132475800Y2323805D01*
X133350000Y1449605D01*
X134224200Y2323805D01*
X134154099Y2540000D01*
X134224200Y2756195D01*
X133350000Y3630395D01*
X132475800Y2756195D01*
X131684200Y2756195D01*
X130810000Y3630395D01*
X129935800Y2756195D01*
X129335546Y2756195D01*
X129539710Y2960003D01*
X129556541Y3000537D01*
X129756195Y2935800D01*
X130630395Y3810000D01*
X130989605Y3810000D01*
X131863805Y2935800D01*
X132080000Y3005901D01*
X132296195Y2935800D01*
X133170395Y3810000D01*
X132296195Y4684200D01*
X132080000Y4614099D01*
X131863805Y4684200D01*
X130989605Y3810000D01*
X130630395Y3810000D01*
X129756195Y4684200D01*
X129556967Y4619601D01*
X129541192Y4657780D01*
X129335526Y4863805D01*
X129935800Y4863805D01*
X130810000Y3989605D01*
X131684200Y4863805D01*
X132475800Y4863805D01*
X133350000Y3989605D01*
X134224200Y4863805D01*
X134142259Y5116516D01*
X133581970Y5320248D01*
X132986365Y5294058D01*
X132557741Y5116516D01*
X132475800Y4863805D01*
X131684200Y4863805D01*
X131602259Y5116516D01*
X131041970Y5320248D01*
X130446365Y5294058D01*
X130017741Y5116516D01*
X129935800Y4863805D01*
X129335526Y4863805D01*
X129119997Y5079710D01*
X128569398Y5308339D01*
X127973218Y5308859D01*
X127422220Y5081192D01*
X127000290Y4659997D01*
X126999905Y4659069D01*
X126579997Y5079710D01*
X126029398Y5308339D01*
X125433218Y5308859D01*
X124882220Y5081192D01*
X124730553Y4929789D01*
X124730553Y9395677D01*
X124818333Y9431947D01*
X124858283Y9471828D01*
X153832538Y9471828D01*
X154237709Y8491239D01*
X154987293Y7740345D01*
X155967173Y7333464D01*
X157028172Y7332538D01*
X158008761Y7737709D01*
X158759655Y8487293D01*
X159166536Y9467173D01*
X159167462Y10528172D01*
X158762291Y11508761D01*
X158012707Y12259655D01*
X157032827Y12666536D01*
X155971828Y12667462D01*
X154991239Y12262291D01*
X154240345Y11512707D01*
X153833464Y10532827D01*
X153832538Y9471828D01*
X124858283Y9471828D01*
X125240263Y9853142D01*
X125468892Y10403741D01*
X125469412Y10999921D01*
X125241745Y11550919D01*
X124820550Y11972849D01*
X124269951Y12201478D01*
X123673771Y12201998D01*
X123122773Y11974331D01*
X122700843Y11553136D01*
X122700458Y11552208D01*
X122280550Y11972849D01*
X121729951Y12201478D01*
X121133771Y12201998D01*
X120582773Y11974331D01*
X120160843Y11553136D01*
X120160458Y11552208D01*
X119740550Y11972849D01*
X119189951Y12201478D01*
X118593771Y12201998D01*
X118503709Y12164785D01*
X108541093Y22127401D01*
X108294531Y22292148D01*
X108003692Y22350000D01*
X75565000Y22350000D01*
X75274161Y22292148D01*
X75027599Y22127401D01*
X70345320Y17445122D01*
X70299833Y17445162D01*
X69956057Y17303117D01*
X69692808Y17040327D01*
X69550162Y16696799D01*
X69549838Y16324833D01*
X69691883Y15981057D01*
X69954673Y15717808D01*
X70298201Y15575162D01*
X70670167Y15574838D01*
X71013943Y15716883D01*
X71277192Y15979673D01*
X71419838Y16323201D01*
X71419879Y16370077D01*
X72089908Y17040106D01*
X72089838Y16959833D01*
X72231883Y16616057D01*
X72494673Y16352808D01*
X72838201Y16210162D01*
X73210167Y16209838D01*
X73553943Y16351883D01*
X73817192Y16614673D01*
X73959838Y16958201D01*
X73960162Y17330167D01*
X73869467Y17549665D01*
X76514802Y20195000D01*
X105783890Y20195000D01*
X106803890Y19175000D01*
X85017463Y19175000D01*
X84985327Y19207192D01*
X84641799Y19349838D01*
X84269833Y19350162D01*
X83926057Y19208117D01*
X83662808Y18945327D01*
X83520162Y18601799D01*
X83519838Y18229833D01*
X83661883Y17886057D01*
X83924673Y17622808D01*
X84268201Y17480162D01*
X84640167Y17479838D01*
X84983943Y17621883D01*
X85017118Y17655000D01*
X107005204Y17655000D01*
X112824202Y11836002D01*
X112540843Y11553136D01*
X112540458Y11552208D01*
X112120550Y11972849D01*
X112011957Y12017941D01*
X111972701Y12215292D01*
X111807954Y12461854D01*
X107222407Y17047401D01*
X106975845Y17212148D01*
X106685006Y17270000D01*
X80645000Y17270000D01*
X80354161Y17212148D01*
X80107599Y17047401D01*
X79870320Y16810122D01*
X79824833Y16810162D01*
X79481057Y16668117D01*
X79217808Y16405327D01*
X79075162Y16061799D01*
X79074838Y15689833D01*
X79209056Y15365000D01*
X78740000Y15365000D01*
X78449161Y15307148D01*
X78202599Y15142401D01*
X77965320Y14905122D01*
X77919833Y14905162D01*
X77576057Y14763117D01*
X77312808Y14500327D01*
X77170162Y14156799D01*
X77170027Y14001773D01*
X64041773Y14001773D01*
X63750934Y13943921D01*
X63504372Y13779174D01*
X54997114Y5271916D01*
X54909398Y5308339D01*
X54313218Y5308859D01*
X53762220Y5081192D01*
X53340290Y4659997D01*
X53339905Y4659069D01*
X52919997Y5079710D01*
X52369398Y5308339D01*
X51773218Y5308859D01*
X51485000Y5189770D01*
X51485000Y9102842D01*
X51737709Y8491239D01*
X52487293Y7740345D01*
X53467173Y7333464D01*
X54528172Y7332538D01*
X55508761Y7737709D01*
X56259655Y8487293D01*
X56666536Y9467173D01*
X56667462Y10528172D01*
X56262291Y11508761D01*
X55512707Y12259655D01*
X54532827Y12666536D01*
X53471828Y12667462D01*
X52491239Y12262291D01*
X51740345Y11512707D01*
X51485000Y10897767D01*
X51485000Y25985000D01*
X159315000Y25985000D01*
X159315000Y685000D01*
G36*
X120843748Y1284143D02*
X120829605Y1270000D01*
X120843748Y1255858D01*
X120664143Y1076253D01*
X120650000Y1090395D01*
X120635858Y1076253D01*
X120456253Y1255858D01*
X120470395Y1270000D01*
X120456253Y1284143D01*
X120635858Y1463748D01*
X120650000Y1449605D01*
X120664143Y1463748D01*
X120843748Y1284143D01*
X120843748Y1284143D01*
G37*
X120843748Y1284143D02*
X120829605Y1270000D01*
X120843748Y1255858D01*
X120664143Y1076253D01*
X120650000Y1090395D01*
X120635858Y1076253D01*
X120456253Y1255858D01*
X120470395Y1270000D01*
X120456253Y1284143D01*
X120635858Y1463748D01*
X120650000Y1449605D01*
X120664143Y1463748D01*
X120843748Y1284143D01*
G36*
X100523748Y1284143D02*
X100509605Y1270000D01*
X100523748Y1255858D01*
X100344143Y1076253D01*
X100330000Y1090395D01*
X100315858Y1076253D01*
X100136253Y1255858D01*
X100150395Y1270000D01*
X100136253Y1284143D01*
X100315858Y1463748D01*
X100330000Y1449605D01*
X100344143Y1463748D01*
X100523748Y1284143D01*
X100523748Y1284143D01*
G37*
X100523748Y1284143D02*
X100509605Y1270000D01*
X100523748Y1255858D01*
X100344143Y1076253D01*
X100330000Y1090395D01*
X100315858Y1076253D01*
X100136253Y1255858D01*
X100150395Y1270000D01*
X100136253Y1284143D01*
X100315858Y1463748D01*
X100330000Y1449605D01*
X100344143Y1463748D01*
X100523748Y1284143D01*
G36*
X85283748Y1284143D02*
X85269605Y1270000D01*
X85283748Y1255858D01*
X85104143Y1076253D01*
X85090000Y1090395D01*
X85075858Y1076253D01*
X84896253Y1255858D01*
X84910395Y1270000D01*
X84896253Y1284143D01*
X85075858Y1463748D01*
X85090000Y1449605D01*
X85104143Y1463748D01*
X85283748Y1284143D01*
X85283748Y1284143D01*
G37*
X85283748Y1284143D02*
X85269605Y1270000D01*
X85283748Y1255858D01*
X85104143Y1076253D01*
X85090000Y1090395D01*
X85075858Y1076253D01*
X84896253Y1255858D01*
X84910395Y1270000D01*
X84896253Y1284143D01*
X85075858Y1463748D01*
X85090000Y1449605D01*
X85104143Y1463748D01*
X85283748Y1284143D01*
G36*
X64963748Y1284143D02*
X64949605Y1270000D01*
X64963748Y1255858D01*
X64784143Y1076253D01*
X64770000Y1090395D01*
X64755858Y1076253D01*
X64576253Y1255858D01*
X64590395Y1270000D01*
X64576253Y1284143D01*
X64755858Y1463748D01*
X64770000Y1449605D01*
X64784143Y1463748D01*
X64963748Y1284143D01*
X64963748Y1284143D01*
G37*
X64963748Y1284143D02*
X64949605Y1270000D01*
X64963748Y1255858D01*
X64784143Y1076253D01*
X64770000Y1090395D01*
X64755858Y1076253D01*
X64576253Y1255858D01*
X64590395Y1270000D01*
X64576253Y1284143D01*
X64755858Y1463748D01*
X64770000Y1449605D01*
X64784143Y1463748D01*
X64963748Y1284143D01*
G36*
X123120556Y9433429D02*
X123210553Y9396059D01*
X123210553Y5308582D01*
X122893218Y5308859D01*
X122342220Y5081192D01*
X121920290Y4659997D01*
X121903459Y4619463D01*
X121703805Y4684200D01*
X120829605Y3810000D01*
X120843748Y3795858D01*
X120664143Y3616253D01*
X120650000Y3630395D01*
X120635858Y3616253D01*
X120456253Y3795858D01*
X120470395Y3810000D01*
X119596195Y4684200D01*
X119396967Y4619601D01*
X119381192Y4657780D01*
X119175526Y4863805D01*
X119775800Y4863805D01*
X120650000Y3989605D01*
X121524200Y4863805D01*
X121442259Y5116516D01*
X120881970Y5320248D01*
X120286365Y5294058D01*
X119857741Y5116516D01*
X119775800Y4863805D01*
X119175526Y4863805D01*
X118959997Y5079710D01*
X118409398Y5308339D01*
X117813218Y5308859D01*
X117262220Y5081192D01*
X116840290Y4659997D01*
X116839905Y4659069D01*
X116419997Y5079710D01*
X115869398Y5308339D01*
X115273218Y5308859D01*
X114722220Y5081192D01*
X114300290Y4659997D01*
X114299905Y4659069D01*
X113879997Y5079710D01*
X113329398Y5308339D01*
X112733218Y5308859D01*
X112182220Y5081192D01*
X111760290Y4659997D01*
X111759905Y4659069D01*
X111339997Y5079710D01*
X110789398Y5308339D01*
X110193218Y5308859D01*
X109642220Y5081192D01*
X109220290Y4659997D01*
X109219905Y4659069D01*
X108799997Y5079710D01*
X108710000Y5117080D01*
X108710000Y7692537D01*
X108742192Y7724673D01*
X108884838Y8068201D01*
X108884883Y8120001D01*
X119607415Y8120001D01*
X119898254Y8177853D01*
X120144816Y8342600D01*
X121043439Y9241223D01*
X121131155Y9204800D01*
X121727335Y9204280D01*
X122278333Y9431947D01*
X122700263Y9853142D01*
X122700648Y9854070D01*
X123120556Y9433429D01*
X123120556Y9433429D01*
G37*
X123120556Y9433429D02*
X123210553Y9396059D01*
X123210553Y5308582D01*
X122893218Y5308859D01*
X122342220Y5081192D01*
X121920290Y4659997D01*
X121903459Y4619463D01*
X121703805Y4684200D01*
X120829605Y3810000D01*
X120843748Y3795858D01*
X120664143Y3616253D01*
X120650000Y3630395D01*
X120635858Y3616253D01*
X120456253Y3795858D01*
X120470395Y3810000D01*
X119596195Y4684200D01*
X119396967Y4619601D01*
X119381192Y4657780D01*
X119175526Y4863805D01*
X119775800Y4863805D01*
X120650000Y3989605D01*
X121524200Y4863805D01*
X121442259Y5116516D01*
X120881970Y5320248D01*
X120286365Y5294058D01*
X119857741Y5116516D01*
X119775800Y4863805D01*
X119175526Y4863805D01*
X118959997Y5079710D01*
X118409398Y5308339D01*
X117813218Y5308859D01*
X117262220Y5081192D01*
X116840290Y4659997D01*
X116839905Y4659069D01*
X116419997Y5079710D01*
X115869398Y5308339D01*
X115273218Y5308859D01*
X114722220Y5081192D01*
X114300290Y4659997D01*
X114299905Y4659069D01*
X113879997Y5079710D01*
X113329398Y5308339D01*
X112733218Y5308859D01*
X112182220Y5081192D01*
X111760290Y4659997D01*
X111759905Y4659069D01*
X111339997Y5079710D01*
X110789398Y5308339D01*
X110193218Y5308859D01*
X109642220Y5081192D01*
X109220290Y4659997D01*
X109219905Y4659069D01*
X108799997Y5079710D01*
X108710000Y5117080D01*
X108710000Y7692537D01*
X108742192Y7724673D01*
X108884838Y8068201D01*
X108884883Y8120001D01*
X119607415Y8120001D01*
X119898254Y8177853D01*
X120144816Y8342600D01*
X121043439Y9241223D01*
X121131155Y9204800D01*
X121727335Y9204280D01*
X122278333Y9431947D01*
X122700263Y9853142D01*
X122700648Y9854070D01*
X123120556Y9433429D01*
G36*
X79998294Y12009655D02*
X79916353Y11756944D01*
X80790553Y10882744D01*
X81664753Y11756944D01*
X81582812Y12009655D01*
X81522015Y12031762D01*
X82621767Y12031762D01*
X82482773Y11974331D01*
X82060843Y11553136D01*
X82044012Y11512602D01*
X81844358Y11577339D01*
X80970158Y10703139D01*
X81844358Y9828939D01*
X82043586Y9893538D01*
X82059361Y9855359D01*
X82480556Y9433429D01*
X83031155Y9204800D01*
X83627335Y9204280D01*
X84178333Y9431947D01*
X84600263Y9853142D01*
X84600648Y9854070D01*
X85020556Y9433429D01*
X85571155Y9204800D01*
X86167335Y9204280D01*
X86718333Y9431947D01*
X87140263Y9853142D01*
X87140648Y9854070D01*
X87560556Y9433429D01*
X88111155Y9204800D01*
X88707335Y9204280D01*
X89258333Y9431947D01*
X89680263Y9853142D01*
X89680648Y9854070D01*
X90100556Y9433429D01*
X90651155Y9204800D01*
X91247335Y9204280D01*
X91541952Y9326013D01*
X91541952Y5439362D01*
X91599804Y5148523D01*
X91731791Y4950990D01*
X91440290Y4659997D01*
X91439905Y4659069D01*
X91019997Y5079710D01*
X90469398Y5308339D01*
X89873218Y5308859D01*
X89322220Y5081192D01*
X88900290Y4659997D01*
X88899905Y4659069D01*
X88479997Y5079710D01*
X87929398Y5308339D01*
X87333218Y5308859D01*
X86782220Y5081192D01*
X86360290Y4659997D01*
X86343459Y4619463D01*
X86143805Y4684200D01*
X85269605Y3810000D01*
X85283748Y3795858D01*
X85104143Y3616253D01*
X85090000Y3630395D01*
X85075858Y3616253D01*
X84896253Y3795858D01*
X84910395Y3810000D01*
X84036195Y4684200D01*
X83836967Y4619601D01*
X83821192Y4657780D01*
X83615526Y4863805D01*
X84215800Y4863805D01*
X85090000Y3989605D01*
X85964200Y4863805D01*
X85882259Y5116516D01*
X85321970Y5320248D01*
X84726365Y5294058D01*
X84297741Y5116516D01*
X84215800Y4863805D01*
X83615526Y4863805D01*
X83399997Y5079710D01*
X83310000Y5117080D01*
X83310000Y6350000D01*
X83252148Y6640839D01*
X83252148Y6640840D01*
X83087401Y6887401D01*
X80945122Y9029680D01*
X80945162Y9075167D01*
X80890489Y9207486D01*
X81154188Y9219081D01*
X81582812Y9396623D01*
X81664753Y9649334D01*
X80790553Y10523534D01*
X80776411Y10509392D01*
X80596806Y10688997D01*
X80610948Y10703139D01*
X79736748Y11577339D01*
X79484037Y11495398D01*
X79280305Y10935109D01*
X79306495Y10339504D01*
X79484037Y9910880D01*
X79736746Y9828940D01*
X79668283Y9760477D01*
X79481057Y9683117D01*
X79375046Y9577290D01*
X79270327Y9682192D01*
X78926799Y9824838D01*
X78554833Y9825162D01*
X78211057Y9683117D01*
X77947808Y9420327D01*
X77805162Y9076799D01*
X77804838Y8704833D01*
X77910310Y8449570D01*
X77656799Y8554838D01*
X77284833Y8555162D01*
X76941057Y8413117D01*
X76677808Y8150327D01*
X76535162Y7806799D01*
X76534838Y7434833D01*
X76676883Y7091057D01*
X76710000Y7057882D01*
X76710000Y5117462D01*
X76622220Y5081192D01*
X76200290Y4659997D01*
X76199905Y4659069D01*
X75779997Y5079710D01*
X75229398Y5308339D01*
X74633218Y5308859D01*
X74082220Y5081192D01*
X73660290Y4659997D01*
X73659905Y4659069D01*
X73239997Y5079710D01*
X73150000Y5117080D01*
X73150000Y7057537D01*
X73182192Y7089673D01*
X73324838Y7433201D01*
X73325162Y7805167D01*
X73183117Y8148943D01*
X72920327Y8412192D01*
X72576799Y8554838D01*
X72204833Y8555162D01*
X71861057Y8413117D01*
X71597808Y8150327D01*
X71455162Y7806799D01*
X71454838Y7434833D01*
X71596883Y7091057D01*
X71630000Y7057882D01*
X71630000Y5117462D01*
X71542220Y5081192D01*
X71120290Y4659997D01*
X71119905Y4659069D01*
X70699997Y5079710D01*
X70610000Y5117080D01*
X70610000Y6422537D01*
X70642192Y6454673D01*
X70784838Y6798201D01*
X70785162Y7170167D01*
X70643117Y7513943D01*
X70380327Y7777192D01*
X70036799Y7919838D01*
X69664833Y7920162D01*
X69321057Y7778117D01*
X69057808Y7515327D01*
X68915162Y7171799D01*
X68914838Y6799833D01*
X69056883Y6456057D01*
X69090000Y6422882D01*
X69090000Y5117462D01*
X69002220Y5081192D01*
X68580290Y4659997D01*
X68579905Y4659069D01*
X68159997Y5079710D01*
X67609398Y5308339D01*
X67013218Y5308859D01*
X66462220Y5081192D01*
X66040290Y4659997D01*
X66023459Y4619463D01*
X65823805Y4684200D01*
X64949605Y3810000D01*
X64963748Y3795858D01*
X64784143Y3616253D01*
X64770000Y3630395D01*
X64755858Y3616253D01*
X64576253Y3795858D01*
X64590395Y3810000D01*
X63716195Y4684200D01*
X63516967Y4619601D01*
X63501192Y4657780D01*
X63295526Y4863805D01*
X63895800Y4863805D01*
X64770000Y3989605D01*
X65644200Y4863805D01*
X65562259Y5116516D01*
X65001970Y5320248D01*
X64406365Y5294058D01*
X63977741Y5116516D01*
X63895800Y4863805D01*
X63295526Y4863805D01*
X63079997Y5079710D01*
X62529398Y5308339D01*
X61933218Y5308859D01*
X61382220Y5081192D01*
X60960290Y4659997D01*
X60959905Y4659069D01*
X60539997Y5079710D01*
X59989398Y5308339D01*
X59723373Y5308571D01*
X66446564Y12031762D01*
X80051665Y12031762D01*
X79998294Y12009655D01*
X79998294Y12009655D01*
G37*
X79998294Y12009655D02*
X79916353Y11756944D01*
X80790553Y10882744D01*
X81664753Y11756944D01*
X81582812Y12009655D01*
X81522015Y12031762D01*
X82621767Y12031762D01*
X82482773Y11974331D01*
X82060843Y11553136D01*
X82044012Y11512602D01*
X81844358Y11577339D01*
X80970158Y10703139D01*
X81844358Y9828939D01*
X82043586Y9893538D01*
X82059361Y9855359D01*
X82480556Y9433429D01*
X83031155Y9204800D01*
X83627335Y9204280D01*
X84178333Y9431947D01*
X84600263Y9853142D01*
X84600648Y9854070D01*
X85020556Y9433429D01*
X85571155Y9204800D01*
X86167335Y9204280D01*
X86718333Y9431947D01*
X87140263Y9853142D01*
X87140648Y9854070D01*
X87560556Y9433429D01*
X88111155Y9204800D01*
X88707335Y9204280D01*
X89258333Y9431947D01*
X89680263Y9853142D01*
X89680648Y9854070D01*
X90100556Y9433429D01*
X90651155Y9204800D01*
X91247335Y9204280D01*
X91541952Y9326013D01*
X91541952Y5439362D01*
X91599804Y5148523D01*
X91731791Y4950990D01*
X91440290Y4659997D01*
X91439905Y4659069D01*
X91019997Y5079710D01*
X90469398Y5308339D01*
X89873218Y5308859D01*
X89322220Y5081192D01*
X88900290Y4659997D01*
X88899905Y4659069D01*
X88479997Y5079710D01*
X87929398Y5308339D01*
X87333218Y5308859D01*
X86782220Y5081192D01*
X86360290Y4659997D01*
X86343459Y4619463D01*
X86143805Y4684200D01*
X85269605Y3810000D01*
X85283748Y3795858D01*
X85104143Y3616253D01*
X85090000Y3630395D01*
X85075858Y3616253D01*
X84896253Y3795858D01*
X84910395Y3810000D01*
X84036195Y4684200D01*
X83836967Y4619601D01*
X83821192Y4657780D01*
X83615526Y4863805D01*
X84215800Y4863805D01*
X85090000Y3989605D01*
X85964200Y4863805D01*
X85882259Y5116516D01*
X85321970Y5320248D01*
X84726365Y5294058D01*
X84297741Y5116516D01*
X84215800Y4863805D01*
X83615526Y4863805D01*
X83399997Y5079710D01*
X83310000Y5117080D01*
X83310000Y6350000D01*
X83252148Y6640839D01*
X83252148Y6640840D01*
X83087401Y6887401D01*
X80945122Y9029680D01*
X80945162Y9075167D01*
X80890489Y9207486D01*
X81154188Y9219081D01*
X81582812Y9396623D01*
X81664753Y9649334D01*
X80790553Y10523534D01*
X80776411Y10509392D01*
X80596806Y10688997D01*
X80610948Y10703139D01*
X79736748Y11577339D01*
X79484037Y11495398D01*
X79280305Y10935109D01*
X79306495Y10339504D01*
X79484037Y9910880D01*
X79736746Y9828940D01*
X79668283Y9760477D01*
X79481057Y9683117D01*
X79375046Y9577290D01*
X79270327Y9682192D01*
X78926799Y9824838D01*
X78554833Y9825162D01*
X78211057Y9683117D01*
X77947808Y9420327D01*
X77805162Y9076799D01*
X77804838Y8704833D01*
X77910310Y8449570D01*
X77656799Y8554838D01*
X77284833Y8555162D01*
X76941057Y8413117D01*
X76677808Y8150327D01*
X76535162Y7806799D01*
X76534838Y7434833D01*
X76676883Y7091057D01*
X76710000Y7057882D01*
X76710000Y5117462D01*
X76622220Y5081192D01*
X76200290Y4659997D01*
X76199905Y4659069D01*
X75779997Y5079710D01*
X75229398Y5308339D01*
X74633218Y5308859D01*
X74082220Y5081192D01*
X73660290Y4659997D01*
X73659905Y4659069D01*
X73239997Y5079710D01*
X73150000Y5117080D01*
X73150000Y7057537D01*
X73182192Y7089673D01*
X73324838Y7433201D01*
X73325162Y7805167D01*
X73183117Y8148943D01*
X72920327Y8412192D01*
X72576799Y8554838D01*
X72204833Y8555162D01*
X71861057Y8413117D01*
X71597808Y8150327D01*
X71455162Y7806799D01*
X71454838Y7434833D01*
X71596883Y7091057D01*
X71630000Y7057882D01*
X71630000Y5117462D01*
X71542220Y5081192D01*
X71120290Y4659997D01*
X71119905Y4659069D01*
X70699997Y5079710D01*
X70610000Y5117080D01*
X70610000Y6422537D01*
X70642192Y6454673D01*
X70784838Y6798201D01*
X70785162Y7170167D01*
X70643117Y7513943D01*
X70380327Y7777192D01*
X70036799Y7919838D01*
X69664833Y7920162D01*
X69321057Y7778117D01*
X69057808Y7515327D01*
X68915162Y7171799D01*
X68914838Y6799833D01*
X69056883Y6456057D01*
X69090000Y6422882D01*
X69090000Y5117462D01*
X69002220Y5081192D01*
X68580290Y4659997D01*
X68579905Y4659069D01*
X68159997Y5079710D01*
X67609398Y5308339D01*
X67013218Y5308859D01*
X66462220Y5081192D01*
X66040290Y4659997D01*
X66023459Y4619463D01*
X65823805Y4684200D01*
X64949605Y3810000D01*
X64963748Y3795858D01*
X64784143Y3616253D01*
X64770000Y3630395D01*
X64755858Y3616253D01*
X64576253Y3795858D01*
X64590395Y3810000D01*
X63716195Y4684200D01*
X63516967Y4619601D01*
X63501192Y4657780D01*
X63295526Y4863805D01*
X63895800Y4863805D01*
X64770000Y3989605D01*
X65644200Y4863805D01*
X65562259Y5116516D01*
X65001970Y5320248D01*
X64406365Y5294058D01*
X63977741Y5116516D01*
X63895800Y4863805D01*
X63295526Y4863805D01*
X63079997Y5079710D01*
X62529398Y5308339D01*
X61933218Y5308859D01*
X61382220Y5081192D01*
X60960290Y4659997D01*
X60959905Y4659069D01*
X60539997Y5079710D01*
X59989398Y5308339D01*
X59723373Y5308571D01*
X66446564Y12031762D01*
X80051665Y12031762D01*
X79998294Y12009655D01*
G36*
X100260556Y9433429D02*
X100811155Y9204800D01*
X101407335Y9204280D01*
X101958333Y9431947D01*
X102023129Y9496631D01*
X102542623Y8977137D01*
X102789185Y8812390D01*
X103080024Y8754538D01*
X105001952Y8754538D01*
X105292791Y8812390D01*
X105539353Y8977137D01*
X105803439Y9241223D01*
X105891155Y9204800D01*
X105919972Y9204775D01*
X104872599Y8157401D01*
X104707852Y7910839D01*
X104650000Y7620000D01*
X104650000Y5117462D01*
X104562220Y5081192D01*
X104140290Y4659997D01*
X104139905Y4659069D01*
X103719997Y5079710D01*
X103169398Y5308339D01*
X102573218Y5308859D01*
X102022220Y5081192D01*
X101600290Y4659997D01*
X101583459Y4619463D01*
X101383805Y4684200D01*
X100509605Y3810000D01*
X100523748Y3795858D01*
X100344143Y3616253D01*
X100330000Y3630395D01*
X100315858Y3616253D01*
X100136253Y3795858D01*
X100150395Y3810000D01*
X99276195Y4684200D01*
X99076967Y4619601D01*
X99061192Y4657780D01*
X98855526Y4863805D01*
X99455800Y4863805D01*
X100330000Y3989605D01*
X101204200Y4863805D01*
X101122259Y5116516D01*
X100561970Y5320248D01*
X99966365Y5294058D01*
X99537741Y5116516D01*
X99455800Y4863805D01*
X98855526Y4863805D01*
X98639997Y5079710D01*
X98089398Y5308339D01*
X97493218Y5308859D01*
X97403156Y5271646D01*
X96790553Y5884249D01*
X96790553Y9395677D01*
X96878333Y9431947D01*
X97300263Y9853142D01*
X97300648Y9854070D01*
X97720556Y9433429D01*
X98271155Y9204800D01*
X98867335Y9204280D01*
X99418333Y9431947D01*
X99840263Y9853142D01*
X99840648Y9854070D01*
X100260556Y9433429D01*
X100260556Y9433429D01*
G37*
X100260556Y9433429D02*
X100811155Y9204800D01*
X101407335Y9204280D01*
X101958333Y9431947D01*
X102023129Y9496631D01*
X102542623Y8977137D01*
X102789185Y8812390D01*
X103080024Y8754538D01*
X105001952Y8754538D01*
X105292791Y8812390D01*
X105539353Y8977137D01*
X105803439Y9241223D01*
X105891155Y9204800D01*
X105919972Y9204775D01*
X104872599Y8157401D01*
X104707852Y7910839D01*
X104650000Y7620000D01*
X104650000Y5117462D01*
X104562220Y5081192D01*
X104140290Y4659997D01*
X104139905Y4659069D01*
X103719997Y5079710D01*
X103169398Y5308339D01*
X102573218Y5308859D01*
X102022220Y5081192D01*
X101600290Y4659997D01*
X101583459Y4619463D01*
X101383805Y4684200D01*
X100509605Y3810000D01*
X100523748Y3795858D01*
X100344143Y3616253D01*
X100330000Y3630395D01*
X100315858Y3616253D01*
X100136253Y3795858D01*
X100150395Y3810000D01*
X99276195Y4684200D01*
X99076967Y4619601D01*
X99061192Y4657780D01*
X98855526Y4863805D01*
X99455800Y4863805D01*
X100330000Y3989605D01*
X101204200Y4863805D01*
X101122259Y5116516D01*
X100561970Y5320248D01*
X99966365Y5294058D01*
X99537741Y5116516D01*
X99455800Y4863805D01*
X98855526Y4863805D01*
X98639997Y5079710D01*
X98089398Y5308339D01*
X97493218Y5308859D01*
X97403156Y5271646D01*
X96790553Y5884249D01*
X96790553Y9395677D01*
X96878333Y9431947D01*
X97300263Y9853142D01*
X97300648Y9854070D01*
X97720556Y9433429D01*
X98271155Y9204800D01*
X98867335Y9204280D01*
X99418333Y9431947D01*
X99840263Y9853142D01*
X99840648Y9854070D01*
X100260556Y9433429D01*
M02*
