G04 #@! TF.FileFunction,Copper,L2,Bot,Signal*
%FSLAX46Y46*%
G04 Gerber Fmt 4.6, Leading zero omitted, Abs format (unit mm)*
G04 Created by KiCad (PCBNEW 4.0.4-stable) date 06/07/17 13:37:54*
%MOMM*%
%LPD*%
G01*
G04 APERTURE LIST*
%ADD10C,0.100000*%
%ADD11C,4.064000*%
%ADD12R,1.800000X1.800000*%
%ADD13C,1.800000*%
%ADD14C,3.100000*%
%ADD15C,1.600000*%
%ADD16C,1.727200*%
%ADD17C,0.600000*%
%ADD18C,0.250000*%
%ADD19C,0.254000*%
G04 APERTURE END LIST*
D10*
D11*
X54000000Y10000000D03*
D12*
X77720000Y12540000D03*
D13*
X77720000Y15240000D03*
X77720000Y17915000D03*
X73820000Y21840000D03*
X71120000Y21840000D03*
X68420000Y21840000D03*
X66520000Y15240000D03*
X71120000Y10640000D03*
D11*
X156500000Y40000000D03*
X156500000Y10000000D03*
X3500000Y40000000D03*
D14*
X124460000Y34874200D03*
X124460000Y26085800D03*
D15*
X117449600Y32980000D03*
X117449600Y30480000D03*
X117449600Y27980000D03*
D14*
X106680000Y34874200D03*
X106680000Y26085800D03*
D15*
X99669600Y32980000D03*
X99669600Y30480000D03*
X99669600Y27980000D03*
D14*
X71120000Y34874200D03*
X71120000Y26085800D03*
D15*
X64109600Y32980000D03*
X64109600Y30480000D03*
X64109600Y27980000D03*
D14*
X53340000Y34874200D03*
X53340000Y26085800D03*
D15*
X46329600Y32980000D03*
X46329600Y30480000D03*
X46329600Y27980000D03*
D14*
X35560000Y34874200D03*
X35560000Y26085800D03*
D15*
X28549600Y32980000D03*
X28549600Y30480000D03*
X28549600Y27980000D03*
D14*
X17780000Y34874200D03*
X17780000Y26085800D03*
D15*
X10769600Y32980000D03*
X10769600Y30480000D03*
X10769600Y27980000D03*
D14*
X142240000Y34874200D03*
X142240000Y26085800D03*
D15*
X135229600Y32980000D03*
X135229600Y30480000D03*
X135229600Y27980000D03*
D14*
X88900000Y34874200D03*
X88900000Y26085800D03*
D15*
X81889600Y32980000D03*
X81889600Y30480000D03*
X81889600Y27980000D03*
D11*
X54000000Y40000000D03*
X3500000Y10000000D03*
D12*
X42160000Y12540000D03*
D13*
X42160000Y15240000D03*
X42160000Y17915000D03*
X38260000Y21840000D03*
X35560000Y21840000D03*
X32860000Y21840000D03*
X30960000Y15240000D03*
X35560000Y10640000D03*
D16*
X52070000Y3810000D03*
X54610000Y3810000D03*
X57150000Y3810000D03*
X59690000Y3810000D03*
X62230000Y3810000D03*
X64770000Y3810000D03*
X67310000Y3810000D03*
X69850000Y3810000D03*
X72390000Y3810000D03*
X74930000Y3810000D03*
X77470000Y3810000D03*
X80010000Y3810000D03*
X82550000Y3810000D03*
X85090000Y3810000D03*
X87630000Y3810000D03*
X90170000Y3810000D03*
X92710000Y3810000D03*
X95250000Y3810000D03*
X97790000Y3810000D03*
X100330000Y3810000D03*
X102870000Y3810000D03*
X105410000Y3810000D03*
X107950000Y3810000D03*
X110490000Y3810000D03*
X113030000Y3810000D03*
X115570000Y3810000D03*
X118110000Y3810000D03*
X120650000Y3810000D03*
X123190000Y3810000D03*
X125730000Y3810000D03*
X128270000Y3810000D03*
X130810000Y3810000D03*
X133350000Y3810000D03*
X135890000Y3810000D03*
X138430000Y3810000D03*
X140970000Y3810000D03*
X143510000Y3810000D03*
X146050000Y3810000D03*
X148590000Y3810000D03*
X151130000Y3810000D03*
X59690000Y3810000D03*
X52070000Y3810000D03*
X54610000Y3810000D03*
X57150000Y3810000D03*
X62230000Y3810000D03*
X72390000Y3810000D03*
X64770000Y3810000D03*
X67310000Y3810000D03*
X69850000Y3810000D03*
X74930000Y3810000D03*
X85090000Y3810000D03*
X77470000Y3810000D03*
X80010000Y3810000D03*
X82550000Y3810000D03*
X87630000Y3810000D03*
X97790000Y3810000D03*
X90170000Y3810000D03*
X92710000Y3810000D03*
X95250000Y3810000D03*
X100330000Y3810000D03*
X110490000Y3810000D03*
X102870000Y3810000D03*
X105410000Y3810000D03*
X107950000Y3810000D03*
X113030000Y3810000D03*
X123190000Y3810000D03*
X115570000Y3810000D03*
X118110000Y3810000D03*
X120650000Y3810000D03*
X125730000Y3810000D03*
X135890000Y3810000D03*
X128270000Y3810000D03*
X130810000Y3810000D03*
X133350000Y3810000D03*
X138430000Y3810000D03*
X148590000Y3810000D03*
X140970000Y3810000D03*
X143510000Y3810000D03*
X146050000Y3810000D03*
X151130000Y3810000D03*
X59690000Y3810000D03*
X52070000Y3810000D03*
X54610000Y3810000D03*
X57150000Y3810000D03*
X62230000Y3810000D03*
X72390000Y3810000D03*
X64770000Y3810000D03*
X67310000Y3810000D03*
X69850000Y3810000D03*
X74930000Y3810000D03*
X85090000Y3810000D03*
X77470000Y3810000D03*
X80010000Y3810000D03*
X82550000Y3810000D03*
X87630000Y3810000D03*
X97790000Y3810000D03*
X90170000Y3810000D03*
X92710000Y3810000D03*
X95250000Y3810000D03*
X100330000Y3810000D03*
X110490000Y3810000D03*
X102870000Y3810000D03*
X105410000Y3810000D03*
X107950000Y3810000D03*
X113030000Y3810000D03*
X123190000Y3810000D03*
X115570000Y3810000D03*
X118110000Y3810000D03*
X120650000Y3810000D03*
X125730000Y3810000D03*
X135890000Y3810000D03*
X128270000Y3810000D03*
X130810000Y3810000D03*
X133350000Y3810000D03*
X138430000Y3810000D03*
X148590000Y3810000D03*
X140970000Y3810000D03*
X143510000Y3810000D03*
X146050000Y3810000D03*
X151130000Y3810000D03*
X133350000Y6350000D03*
X133350000Y6350000D03*
X135890000Y6350000D03*
X135890000Y6350000D03*
X133350000Y6350000D03*
X146050000Y6350000D03*
X146050000Y6350000D03*
X148590000Y6350000D03*
X148590000Y6350000D03*
X146050000Y6350000D03*
X128270000Y6350000D03*
X128270000Y6350000D03*
X130810000Y6350000D03*
X128270000Y6350000D03*
X130810000Y6350000D03*
X130810000Y6350000D03*
X140970000Y6350000D03*
X140970000Y6350000D03*
X143510000Y6350000D03*
X140970000Y6350000D03*
X143510000Y6350000D03*
X143510000Y6350000D03*
X135890000Y6350000D03*
X138430000Y6350000D03*
X138430000Y6350000D03*
X138430000Y6350000D03*
X148590000Y6350000D03*
X151130000Y6350000D03*
X151130000Y6350000D03*
X151130000Y6350000D03*
X82550000Y6350000D03*
X82550000Y6350000D03*
X85090000Y6350000D03*
X85090000Y6350000D03*
X82550000Y6350000D03*
X95250000Y6350000D03*
X95250000Y6350000D03*
X97790000Y6350000D03*
X97790000Y6350000D03*
X95250000Y6350000D03*
X77470000Y6350000D03*
X77470000Y6350000D03*
X80010000Y6350000D03*
X77470000Y6350000D03*
X80010000Y6350000D03*
X80010000Y6350000D03*
X90170000Y6350000D03*
X90170000Y6350000D03*
X92710000Y6350000D03*
X90170000Y6350000D03*
X92710000Y6350000D03*
X92710000Y6350000D03*
X85090000Y6350000D03*
X87630000Y6350000D03*
X87630000Y6350000D03*
X87630000Y6350000D03*
X97790000Y6350000D03*
X100330000Y6350000D03*
X100330000Y6350000D03*
X100330000Y6350000D03*
X57150000Y6350000D03*
X57150000Y6350000D03*
X59690000Y6350000D03*
X59690000Y6350000D03*
X57150000Y6350000D03*
X69850000Y6350000D03*
X69850000Y6350000D03*
X72390000Y6350000D03*
X72390000Y6350000D03*
X69850000Y6350000D03*
X52070000Y6350000D03*
X52070000Y6350000D03*
X54610000Y6350000D03*
X52070000Y6350000D03*
X54610000Y6350000D03*
X54610000Y6350000D03*
X64770000Y6350000D03*
X64770000Y6350000D03*
X67310000Y6350000D03*
X64770000Y6350000D03*
X67310000Y6350000D03*
X67310000Y6350000D03*
X59690000Y6350000D03*
X62230000Y6350000D03*
X62230000Y6350000D03*
X62230000Y6350000D03*
X72390000Y6350000D03*
X74930000Y6350000D03*
X74930000Y6350000D03*
X74930000Y6350000D03*
X107950000Y6350000D03*
X107950000Y6350000D03*
X110490000Y6350000D03*
X110490000Y6350000D03*
X107950000Y6350000D03*
X120650000Y6350000D03*
X120650000Y6350000D03*
X123190000Y6350000D03*
X123190000Y6350000D03*
X120650000Y6350000D03*
X102870000Y6350000D03*
X102870000Y6350000D03*
X105410000Y6350000D03*
X102870000Y6350000D03*
X105410000Y6350000D03*
X105410000Y6350000D03*
X115570000Y6350000D03*
X115570000Y6350000D03*
X118110000Y6350000D03*
X115570000Y6350000D03*
X118110000Y6350000D03*
X118110000Y6350000D03*
X110490000Y6350000D03*
X113030000Y6350000D03*
X113030000Y6350000D03*
X113030000Y6350000D03*
X123190000Y6350000D03*
X125730000Y6350000D03*
X125730000Y6350000D03*
X125730000Y6350000D03*
D13*
X10160000Y38100000D03*
X10160000Y40640000D03*
X10160000Y43180000D03*
X10160000Y45720000D03*
X60960000Y38100000D03*
X60960000Y40640000D03*
X60960000Y43180000D03*
X60960000Y45720000D03*
X111760000Y38100000D03*
X111760000Y40640000D03*
X111760000Y43180000D03*
X111760000Y45720000D03*
D12*
X113280000Y12540000D03*
D13*
X113280000Y15240000D03*
X113280000Y17915000D03*
X109380000Y21840000D03*
X106680000Y21840000D03*
X103980000Y21840000D03*
X102080000Y15240000D03*
X106680000Y10640000D03*
D12*
X148840000Y12540000D03*
D13*
X148840000Y15240000D03*
X148840000Y17915000D03*
X144940000Y21840000D03*
X142240000Y21840000D03*
X139540000Y21840000D03*
X137640000Y15240000D03*
X142240000Y10640000D03*
D14*
X17780000Y19634200D03*
X17780000Y10845800D03*
D15*
X10769600Y17740000D03*
X10769600Y15240000D03*
X10769600Y12740000D03*
D16*
X48260000Y10160000D03*
X45720000Y10160000D03*
D17*
X82550000Y8890000D03*
X58420000Y25400000D03*
X99060000Y12700000D03*
X91440000Y9525000D03*
X33655000Y10160000D03*
X49530000Y7620000D03*
X116840000Y12065000D03*
X5080000Y32512000D03*
X2540000Y32512000D03*
X44450000Y6985000D03*
X41910000Y10160000D03*
X65405000Y10160000D03*
X67310000Y11430000D03*
X127635000Y9525008D03*
X97155000Y10160000D03*
X73660000Y13970000D03*
X62230000Y15240000D03*
X60960000Y10160000D03*
X58420000Y10160000D03*
X66795545Y34800764D03*
X49243165Y32729473D03*
X48951102Y31801000D03*
X67564000Y34290000D03*
X67818000Y32766000D03*
X48006000Y29972000D03*
X85344000Y28956000D03*
X85852000Y21971000D03*
X83947000Y28194000D03*
X117465010Y13208000D03*
X116586000Y17272000D03*
X74930000Y9534990D03*
X64262000Y23368000D03*
X60960000Y26543000D03*
X52070000Y43815000D03*
X128905006Y20701000D03*
X129286000Y28194000D03*
X98679000Y23241000D03*
X77470000Y20320000D03*
X68453000Y18034000D03*
X127634996Y20701000D03*
X103378000Y24638000D03*
X99695000Y24892000D03*
X107950000Y19685000D03*
X111125000Y20320000D03*
X126492000Y20701000D03*
X130554051Y18162949D03*
X131572000Y25273000D03*
X98171000Y24257000D03*
D18*
X117449600Y32980000D02*
X112329600Y38100000D01*
X112329600Y38100000D02*
X111760000Y38100000D01*
X36195000Y7620000D02*
X33954999Y9860001D01*
X33954999Y9860001D02*
X33655000Y10160000D01*
X44149998Y6359998D02*
X42889996Y7620000D01*
X48269998Y6359998D02*
X44149998Y6359998D01*
X49530000Y7620000D02*
X48269998Y6359998D01*
X42889996Y7620000D02*
X36195000Y7620000D01*
X83771314Y8890000D02*
X82550000Y8890000D01*
X85090000Y6350000D02*
X85090000Y7571314D01*
X85090000Y7571314D02*
X83771314Y8890000D01*
X59690000Y26670000D02*
X59690000Y28560400D01*
X59690000Y28560400D02*
X64109600Y32980000D01*
X58420000Y25400000D02*
X59690000Y26670000D01*
X64770000Y3810000D02*
X65958601Y2621399D01*
X65958601Y2621399D02*
X83901399Y2621399D01*
X83901399Y2621399D02*
X84226401Y2946401D01*
X84226401Y2946401D02*
X85090000Y3810000D01*
X99060000Y12065000D02*
X99060000Y12700000D01*
X98425000Y11430000D02*
X99060000Y12065000D01*
X95250000Y11430000D02*
X98425000Y11430000D01*
X95250000Y10795000D02*
X95250000Y11430000D01*
X95250000Y10160000D02*
X95250000Y10795000D01*
X95885000Y9525000D02*
X95250000Y10160000D01*
X98376314Y9525000D02*
X95885000Y9525000D01*
X100330000Y6350000D02*
X100330000Y7571314D01*
X100330000Y7571314D02*
X98376314Y9525000D01*
X92710000Y8255000D02*
X98425000Y8255000D01*
X98425000Y8255000D02*
X100330000Y6350000D01*
X91440000Y9525000D02*
X92710000Y8255000D01*
X133350000Y6350000D02*
X137640000Y10640000D01*
X137640000Y10640000D02*
X137640000Y15240000D01*
X130810000Y3810000D02*
X131673599Y2946401D01*
X131673599Y2946401D02*
X132486401Y2946401D01*
X132486401Y2946401D02*
X133350000Y3810000D01*
X120650000Y3810000D02*
X121920000Y2540000D01*
X121920000Y2540000D02*
X129540000Y2540000D01*
X129540000Y2540000D02*
X130810000Y3810000D01*
X38212208Y15240000D02*
X30960000Y15240000D01*
X42160000Y17915000D02*
X40887208Y17915000D01*
X40887208Y17915000D02*
X38212208Y15240000D01*
X102080000Y15240000D02*
X102979999Y16139999D01*
X102979999Y16139999D02*
X102979999Y20839999D01*
X102979999Y20839999D02*
X103980000Y21840000D01*
X116840000Y12065000D02*
X116840000Y15875000D01*
X116840000Y15875000D02*
X115570000Y17145000D01*
X115570000Y17145000D02*
X114050000Y17145000D01*
X114050000Y17145000D02*
X113280000Y17915000D01*
X133350000Y3810000D02*
X133350000Y5031314D01*
X133350000Y5031314D02*
X133350000Y6350000D01*
X130810000Y3810000D02*
X130810000Y5031314D01*
X130810000Y5031314D02*
X130810000Y6350000D01*
X120650000Y3810000D02*
X120650000Y5031314D01*
X120650000Y5031314D02*
X120650000Y6350000D01*
X100330000Y3810000D02*
X100330000Y5031314D01*
X100330000Y5031314D02*
X100330000Y6350000D01*
X85090000Y3810000D02*
X85090000Y5031314D01*
X85090000Y5031314D02*
X85090000Y6350000D01*
X64770000Y3810000D02*
X64770000Y6350000D01*
X2540000Y32512000D02*
X5080000Y32512000D01*
X64109600Y27980000D02*
X64909599Y28779999D01*
X64909599Y28779999D02*
X70054999Y28779999D01*
X70054999Y28779999D02*
X72995001Y31720001D01*
X72995001Y31720001D02*
X72995001Y35774201D01*
X72995001Y35774201D02*
X68129202Y40640000D01*
X68129202Y40640000D02*
X60960000Y40640000D01*
X44387184Y5486401D02*
X51206401Y5486401D01*
X51206401Y5486401D02*
X52070000Y6350000D01*
X34290000Y6350000D02*
X43523585Y6350000D01*
X33020000Y7620000D02*
X34290000Y6350000D01*
X33020000Y12700000D02*
X33020000Y7620000D01*
X34290000Y13970000D02*
X33020000Y12700000D01*
X38100000Y13970000D02*
X34290000Y13970000D01*
X42160000Y12540000D02*
X39530000Y12540000D01*
X43523585Y6350000D02*
X44387184Y5486401D01*
X39530000Y12540000D02*
X38100000Y13970000D01*
X41910000Y9525000D02*
X44450000Y6985000D01*
X41910000Y10160000D02*
X41910000Y9525000D01*
X64770000Y10160000D02*
X64135000Y10160000D01*
X64135000Y10160000D02*
X63500000Y9525000D01*
X67310000Y6985000D02*
X67310000Y6350000D01*
X63500000Y9525000D02*
X64770000Y9525000D01*
X64770000Y9525000D02*
X67310000Y6985000D01*
X60960000Y10160000D02*
X64770000Y10160000D01*
X65405000Y10160000D02*
X64770000Y10160000D01*
X68580000Y12700000D02*
X67310000Y11430000D01*
X108689999Y13865001D02*
X109380000Y14555002D01*
X109380000Y14555002D02*
X109380000Y21840000D01*
X117449600Y27980000D02*
X116318230Y27980000D01*
X116318230Y27980000D02*
X116278230Y27940000D01*
X116278230Y27940000D02*
X111760000Y27940000D01*
X111760000Y27940000D02*
X109380000Y25560000D01*
X109380000Y25560000D02*
X109380000Y21840000D01*
X127635000Y9100744D02*
X127635000Y9525008D01*
X127635000Y8255000D02*
X127635000Y9100744D01*
X125730000Y6350000D02*
X127635000Y8255000D01*
X123190000Y6350000D02*
X125730000Y6350000D01*
X123190000Y6350000D02*
X123190000Y7571314D01*
X123190000Y7571314D02*
X119966314Y10795000D01*
X119966314Y10795000D02*
X116175000Y10795000D01*
X116175000Y10795000D02*
X114430000Y12540000D01*
X114430000Y12540000D02*
X113280000Y12540000D01*
X102870000Y10523002D02*
X102870000Y6350000D01*
X110015000Y12540000D02*
X108689999Y13865001D01*
X108689999Y13865001D02*
X106211999Y13865001D01*
X106211999Y13865001D02*
X102870000Y10523002D01*
X113280000Y12540000D02*
X110015000Y12540000D01*
X87630000Y3810000D02*
X88818601Y2621399D01*
X88818601Y2621399D02*
X101681399Y2621399D01*
X101681399Y2621399D02*
X102006401Y2946401D01*
X102006401Y2946401D02*
X102870000Y3810000D01*
X100965000Y10160000D02*
X97155000Y10160000D01*
X102870000Y8255000D02*
X100965000Y10160000D01*
X102870000Y6350000D02*
X102870000Y8255000D01*
X87630000Y6350000D02*
X83820000Y10160000D01*
X83820000Y10160000D02*
X76200000Y10160000D01*
X76200000Y10160000D02*
X73660000Y12700000D01*
X73660000Y12700000D02*
X73660000Y13970000D01*
X69850000Y13970000D02*
X73660000Y13970000D01*
X68580000Y12700000D02*
X69850000Y13970000D01*
X64770000Y12700000D02*
X68580000Y12700000D01*
X63500000Y13970000D02*
X64770000Y12700000D01*
X62230000Y15240000D02*
X63500000Y13970000D01*
X60960000Y10160000D02*
X58420000Y10160000D01*
X125730000Y3810000D02*
X125730000Y5031314D01*
X125730000Y5031314D02*
X125730000Y6350000D01*
X123190000Y3810000D02*
X123190000Y5031314D01*
X123190000Y5031314D02*
X123190000Y6350000D01*
X102870000Y3810000D02*
X102870000Y6350000D01*
X87630000Y3810000D02*
X87630000Y5031314D01*
X87630000Y5031314D02*
X87630000Y6350000D01*
X67310000Y3810000D02*
X67310000Y5031314D01*
X67310000Y5031314D02*
X67310000Y6350000D01*
X53970275Y32729473D02*
X56341565Y35100763D01*
X56341565Y35100763D02*
X66495546Y35100763D01*
X49243165Y32729473D02*
X53970275Y32729473D01*
X66495546Y35100763D02*
X66795545Y34800764D01*
X49375366Y31801000D02*
X48951102Y31801000D01*
X56432225Y34555012D02*
X53678213Y31801000D01*
X53678213Y31801000D02*
X49375366Y31801000D01*
X66157399Y34555012D02*
X56432225Y34555012D01*
X67264001Y33990001D02*
X66722410Y33990001D01*
X67564000Y34290000D02*
X67264001Y33990001D01*
X66722410Y33990001D02*
X66157399Y34555012D01*
X65970999Y34105001D02*
X67310000Y32766000D01*
X67310000Y32766000D02*
X67818000Y32766000D01*
X48006000Y29972000D02*
X52485624Y29972000D01*
X56618625Y34105001D02*
X65970999Y34105001D01*
X52485624Y29972000D02*
X56618625Y34105001D01*
X85598000Y29210000D02*
X85344000Y28956000D01*
X97268230Y29210000D02*
X85598000Y29210000D01*
X99669600Y30480000D02*
X98538230Y30480000D01*
X98538230Y30480000D02*
X97268230Y29210000D01*
X99314000Y21971000D02*
X85852000Y21971000D01*
X101600000Y24257000D02*
X99314000Y21971000D01*
X101600000Y28245398D02*
X101600000Y24257000D01*
X117449600Y30480000D02*
X103834602Y30480000D01*
X103834602Y30480000D02*
X101600000Y28245398D01*
X83947000Y28956000D02*
X83947000Y28194000D01*
X86596001Y31605001D02*
X83947000Y28956000D01*
X135229600Y30480000D02*
X134104599Y31605001D01*
X134104599Y31605001D02*
X86596001Y31605001D01*
X10769600Y15240000D02*
X11994601Y16465001D01*
X11994601Y16465001D02*
X24085001Y16465001D01*
X24085001Y16465001D02*
X26760001Y19140001D01*
X26760001Y19140001D02*
X72934999Y19140001D01*
X75438000Y11684000D02*
X76511989Y10610011D01*
X76511989Y10610011D02*
X84006400Y10610011D01*
X72934999Y19140001D02*
X75438000Y16637000D01*
X75438000Y16637000D02*
X75438000Y11684000D01*
X84006400Y10610011D02*
X84710410Y9906000D01*
X84710410Y9906000D02*
X89154000Y9906000D01*
X89154000Y9906000D02*
X91846401Y7213599D01*
X91846401Y7213599D02*
X92710000Y6350000D01*
X92710000Y3810000D02*
X92710000Y5031314D01*
X92710000Y5031314D02*
X92710000Y6350000D01*
X59690000Y3810000D02*
X59690000Y6350000D01*
X62230000Y3810000D02*
X62230000Y5031314D01*
X62230000Y5031314D02*
X62230000Y6350000D01*
X107950000Y3810000D02*
X107950000Y5031314D01*
X107950000Y5031314D02*
X107950000Y6350000D01*
X113030000Y3810000D02*
X113030000Y5031314D01*
X113030000Y5031314D02*
X113030000Y6350000D01*
X128270000Y3810000D02*
X128270000Y5031314D01*
X128270000Y5031314D02*
X128270000Y6350000D01*
X135890000Y3810000D02*
X135890000Y5031314D01*
X135890000Y5031314D02*
X135890000Y6350000D01*
X138430000Y3810000D02*
X138430000Y6350000D01*
X140970000Y3810000D02*
X140970000Y5031314D01*
X140970000Y5031314D02*
X140970000Y6350000D01*
X143510000Y3810000D02*
X143510000Y6350000D01*
X146050000Y3810000D02*
X146050000Y6350000D01*
X148590000Y3810000D02*
X148590000Y5031314D01*
X148590000Y5031314D02*
X148590000Y6350000D01*
X151130000Y3810000D02*
X151130000Y6350000D01*
X116586000Y17272000D02*
X117465010Y16392990D01*
X117465010Y16392990D02*
X117465010Y13632264D01*
X117465010Y13632264D02*
X117465010Y13208000D01*
X57150000Y3810000D02*
X57150000Y5031314D01*
X57150000Y5031314D02*
X57150000Y6350000D01*
X77470000Y3810000D02*
X77470000Y6350000D01*
X80010000Y3810000D02*
X80010000Y5031314D01*
X80010000Y5031314D02*
X80010000Y6350000D01*
X82550000Y3810000D02*
X82550000Y5031314D01*
X82550000Y5031314D02*
X82550000Y6350000D01*
X90170000Y3810000D02*
X90170000Y5031314D01*
X90170000Y5031314D02*
X90170000Y6350000D01*
X95250000Y3810000D02*
X95250000Y5031314D01*
X95250000Y5031314D02*
X95250000Y6350000D01*
X97790000Y3810000D02*
X97790000Y5031314D01*
X97790000Y5031314D02*
X97790000Y6350000D01*
X105410000Y3810000D02*
X105410000Y5031314D01*
X105410000Y5031314D02*
X105410000Y6350000D01*
X74930000Y6350000D02*
X74930000Y9534990D01*
X74930000Y6350000D02*
X74930000Y3810000D01*
X64262000Y23495000D02*
X64262000Y23368000D01*
X61513999Y26243001D02*
X64262000Y23495000D01*
X60960000Y26543000D02*
X61259999Y26243001D01*
X61259999Y26243001D02*
X61513999Y26243001D01*
X52070000Y43815000D02*
X59055000Y43815000D01*
X59055000Y43815000D02*
X60960000Y45720000D01*
X68986401Y7213599D02*
X69850000Y6350000D01*
X68986401Y7847189D02*
X68986401Y7213599D01*
X64476589Y12357001D02*
X68986401Y7847189D01*
X43424001Y10785001D02*
X44996001Y12357001D01*
X41609999Y10785001D02*
X43424001Y10785001D01*
X41464998Y10640000D02*
X41609999Y10785001D01*
X44996001Y12357001D02*
X64476589Y12357001D01*
X35560000Y10640000D02*
X41464998Y10640000D01*
X69850000Y3810000D02*
X69850000Y5031314D01*
X69850000Y5031314D02*
X69850000Y6350000D01*
X72390000Y6350000D02*
X72390000Y9370000D01*
X72390000Y9370000D02*
X71120000Y10640000D01*
X72390000Y3810000D02*
X72390000Y5031314D01*
X72390000Y5031314D02*
X72390000Y6350000D01*
X106680000Y10640000D02*
X111280000Y10640000D01*
X111280000Y10640000D02*
X115570000Y6350000D01*
X115570000Y3810000D02*
X115570000Y5031314D01*
X115570000Y5031314D02*
X115570000Y6350000D01*
X118110000Y3810000D02*
X118110000Y6350000D01*
X128905006Y27813006D02*
X128905006Y21125264D01*
X129286000Y28194000D02*
X128905006Y27813006D01*
X128905006Y21125264D02*
X128905006Y20701000D01*
X81407000Y23241000D02*
X98679000Y23241000D01*
X78486000Y20320000D02*
X81407000Y23241000D01*
X77470000Y20320000D02*
X78486000Y20320000D01*
X44954000Y18034000D02*
X68453000Y18034000D01*
X42160000Y15240000D02*
X44954000Y18034000D01*
X127634996Y20701000D02*
X126755995Y21580001D01*
X118849999Y29105001D02*
X105686001Y29105001D01*
X126755995Y21580001D02*
X125739999Y21580001D01*
X125739999Y21580001D02*
X119359199Y27960801D01*
X119359199Y27960801D02*
X119359199Y28595801D01*
X119359199Y28595801D02*
X118849999Y29105001D01*
X105686001Y29105001D02*
X103378000Y26797000D01*
X103378000Y26797000D02*
X103378000Y24638000D01*
X96626199Y27960801D02*
X99695000Y24892000D01*
X66802000Y22479000D02*
X66802000Y24542802D01*
X66802000Y24542802D02*
X70219999Y27960801D01*
X70219999Y27960801D02*
X80243797Y27960801D01*
X80243797Y27960801D02*
X81349599Y26854999D01*
X81349599Y26854999D02*
X86894197Y26854999D01*
X86894197Y26854999D02*
X87999999Y27960801D01*
X87999999Y27960801D02*
X96626199Y27960801D01*
X66294000Y21971000D02*
X66802000Y22479000D01*
X62992000Y21971000D02*
X66294000Y21971000D01*
X61341000Y23622000D02*
X62992000Y21971000D01*
X37342000Y23622000D02*
X61341000Y23622000D01*
X35560000Y21840000D02*
X37342000Y23622000D01*
X107525736Y19685000D02*
X107950000Y19685000D01*
X106772000Y19685000D02*
X107525736Y19685000D01*
X105205001Y21251999D02*
X106772000Y19685000D01*
X105205001Y22428001D02*
X105205001Y21251999D01*
X104568001Y23065001D02*
X105205001Y22428001D01*
X103391999Y23065001D02*
X104568001Y23065001D01*
X95566998Y15240000D02*
X103391999Y23065001D01*
X77720000Y15240000D02*
X95566998Y15240000D01*
X111633000Y20193000D02*
X111252000Y20193000D01*
X111252000Y20193000D02*
X111125000Y20320000D01*
X125984000Y20193000D02*
X111633000Y20193000D01*
X125984000Y20193000D02*
X126192001Y20401001D01*
X126192001Y20401001D02*
X126492000Y20701000D01*
X130854050Y18462948D02*
X130554051Y18162949D01*
X131572000Y19180898D02*
X130854050Y18462948D01*
X131572000Y25273000D02*
X131572000Y19180898D01*
X98044000Y24003000D02*
X98171000Y24130000D01*
X98171000Y24130000D02*
X98171000Y24257000D01*
X73283000Y24003000D02*
X98044000Y24003000D01*
X71120000Y21840000D02*
X73283000Y24003000D01*
D19*
G36*
X109477599Y12002599D02*
X109724160Y11837852D01*
X110015000Y11780000D01*
X111732560Y11780000D01*
X111732560Y11640000D01*
X111776838Y11404683D01*
X111915910Y11188559D01*
X112128110Y11043569D01*
X112380000Y10992560D01*
X114180000Y10992560D01*
X114415317Y11036838D01*
X114631441Y11175910D01*
X114667100Y11228098D01*
X115637599Y10257599D01*
X115884161Y10092852D01*
X116175000Y10035000D01*
X119651512Y10035000D01*
X122203649Y7482863D01*
X121920290Y7199997D01*
X121903459Y7159463D01*
X121703805Y7224200D01*
X120829605Y6350000D01*
X121703805Y5475800D01*
X121903033Y5540399D01*
X121918808Y5502220D01*
X122340003Y5080290D01*
X122340931Y5079905D01*
X121920290Y4659997D01*
X121903459Y4619463D01*
X121703805Y4684200D01*
X120829605Y3810000D01*
X121703805Y2935800D01*
X121903033Y3000399D01*
X121918808Y2962220D01*
X122195545Y2685000D01*
X121501115Y2685000D01*
X121524200Y2756195D01*
X120650000Y3630395D01*
X119775800Y2756195D01*
X119798885Y2685000D01*
X119104227Y2685000D01*
X119379710Y2960003D01*
X119396541Y3000537D01*
X119596195Y2935800D01*
X120470395Y3810000D01*
X119596195Y4684200D01*
X119396967Y4619601D01*
X119381192Y4657780D01*
X118959997Y5079710D01*
X118959069Y5080095D01*
X119175546Y5296195D01*
X119775800Y5296195D01*
X119845901Y5080000D01*
X119775800Y4863805D01*
X120650000Y3989605D01*
X121524200Y4863805D01*
X121454099Y5080000D01*
X121524200Y5296195D01*
X120650000Y6170395D01*
X119775800Y5296195D01*
X119175546Y5296195D01*
X119379710Y5500003D01*
X119396541Y5540537D01*
X119596195Y5475800D01*
X120470395Y6350000D01*
X119596195Y7224200D01*
X119396967Y7159601D01*
X119381192Y7197780D01*
X119175526Y7403805D01*
X119775800Y7403805D01*
X120650000Y6529605D01*
X121524200Y7403805D01*
X121442259Y7656516D01*
X120881970Y7860248D01*
X120286365Y7834058D01*
X119857741Y7656516D01*
X119775800Y7403805D01*
X119175526Y7403805D01*
X118959997Y7619710D01*
X118409398Y7848339D01*
X117813218Y7848859D01*
X117262220Y7621192D01*
X116840290Y7199997D01*
X116839905Y7199069D01*
X116419997Y7619710D01*
X115869398Y7848339D01*
X115273218Y7848859D01*
X115183156Y7811646D01*
X111817401Y11177401D01*
X111570839Y11342148D01*
X111280000Y11400000D01*
X108026846Y11400000D01*
X107982068Y11508371D01*
X107550643Y11940551D01*
X107548596Y11941401D01*
X107768735Y12161155D01*
X107964777Y12633276D01*
X107965189Y13105001D01*
X108375197Y13105001D01*
X109477599Y12002599D01*
X109477599Y12002599D01*
G37*
X109477599Y12002599D02*
X109724160Y11837852D01*
X110015000Y11780000D01*
X111732560Y11780000D01*
X111732560Y11640000D01*
X111776838Y11404683D01*
X111915910Y11188559D01*
X112128110Y11043569D01*
X112380000Y10992560D01*
X114180000Y10992560D01*
X114415317Y11036838D01*
X114631441Y11175910D01*
X114667100Y11228098D01*
X115637599Y10257599D01*
X115884161Y10092852D01*
X116175000Y10035000D01*
X119651512Y10035000D01*
X122203649Y7482863D01*
X121920290Y7199997D01*
X121903459Y7159463D01*
X121703805Y7224200D01*
X120829605Y6350000D01*
X121703805Y5475800D01*
X121903033Y5540399D01*
X121918808Y5502220D01*
X122340003Y5080290D01*
X122340931Y5079905D01*
X121920290Y4659997D01*
X121903459Y4619463D01*
X121703805Y4684200D01*
X120829605Y3810000D01*
X121703805Y2935800D01*
X121903033Y3000399D01*
X121918808Y2962220D01*
X122195545Y2685000D01*
X121501115Y2685000D01*
X121524200Y2756195D01*
X120650000Y3630395D01*
X119775800Y2756195D01*
X119798885Y2685000D01*
X119104227Y2685000D01*
X119379710Y2960003D01*
X119396541Y3000537D01*
X119596195Y2935800D01*
X120470395Y3810000D01*
X119596195Y4684200D01*
X119396967Y4619601D01*
X119381192Y4657780D01*
X118959997Y5079710D01*
X118959069Y5080095D01*
X119175546Y5296195D01*
X119775800Y5296195D01*
X119845901Y5080000D01*
X119775800Y4863805D01*
X120650000Y3989605D01*
X121524200Y4863805D01*
X121454099Y5080000D01*
X121524200Y5296195D01*
X120650000Y6170395D01*
X119775800Y5296195D01*
X119175546Y5296195D01*
X119379710Y5500003D01*
X119396541Y5540537D01*
X119596195Y5475800D01*
X120470395Y6350000D01*
X119596195Y7224200D01*
X119396967Y7159601D01*
X119381192Y7197780D01*
X119175526Y7403805D01*
X119775800Y7403805D01*
X120650000Y6529605D01*
X121524200Y7403805D01*
X121442259Y7656516D01*
X120881970Y7860248D01*
X120286365Y7834058D01*
X119857741Y7656516D01*
X119775800Y7403805D01*
X119175526Y7403805D01*
X118959997Y7619710D01*
X118409398Y7848339D01*
X117813218Y7848859D01*
X117262220Y7621192D01*
X116840290Y7199997D01*
X116839905Y7199069D01*
X116419997Y7619710D01*
X115869398Y7848339D01*
X115273218Y7848859D01*
X115183156Y7811646D01*
X111817401Y11177401D01*
X111570839Y11342148D01*
X111280000Y11400000D01*
X108026846Y11400000D01*
X107982068Y11508371D01*
X107550643Y11940551D01*
X107548596Y11941401D01*
X107768735Y12161155D01*
X107964777Y12633276D01*
X107965189Y13105001D01*
X108375197Y13105001D01*
X109477599Y12002599D01*
G36*
X75909160Y9457852D02*
X75957414Y9448254D01*
X76200000Y9400000D01*
X83505198Y9400000D01*
X85056618Y7848580D01*
X84726365Y7834058D01*
X84297741Y7656516D01*
X84215800Y7403805D01*
X85090000Y6529605D01*
X85104143Y6543748D01*
X85283748Y6364143D01*
X85269605Y6350000D01*
X86143805Y5475800D01*
X86343033Y5540399D01*
X86358808Y5502220D01*
X86780003Y5080290D01*
X86780931Y5079905D01*
X86360290Y4659997D01*
X86343459Y4619463D01*
X86143805Y4684200D01*
X85269605Y3810000D01*
X86143805Y2935800D01*
X86343033Y3000399D01*
X86358808Y2962220D01*
X86635545Y2685000D01*
X85941115Y2685000D01*
X85964200Y2756195D01*
X85090000Y3630395D01*
X84215800Y2756195D01*
X84238885Y2685000D01*
X83544227Y2685000D01*
X83819710Y2960003D01*
X83836541Y3000537D01*
X84036195Y2935800D01*
X84910395Y3810000D01*
X84036195Y4684200D01*
X83836967Y4619601D01*
X83821192Y4657780D01*
X83399997Y5079710D01*
X83399069Y5080095D01*
X83615546Y5296195D01*
X84215800Y5296195D01*
X84285901Y5080000D01*
X84215800Y4863805D01*
X85090000Y3989605D01*
X85964200Y4863805D01*
X85894099Y5080000D01*
X85964200Y5296195D01*
X85090000Y6170395D01*
X84215800Y5296195D01*
X83615546Y5296195D01*
X83819710Y5500003D01*
X83836541Y5540537D01*
X84036195Y5475800D01*
X84910395Y6350000D01*
X84036195Y7224200D01*
X83836967Y7159601D01*
X83821192Y7197780D01*
X83399997Y7619710D01*
X82849398Y7848339D01*
X82253218Y7848859D01*
X81702220Y7621192D01*
X81280290Y7199997D01*
X81279905Y7199069D01*
X80859997Y7619710D01*
X80309398Y7848339D01*
X79713218Y7848859D01*
X79162220Y7621192D01*
X78740290Y7199997D01*
X78739905Y7199069D01*
X78319997Y7619710D01*
X77769398Y7848339D01*
X77173218Y7848859D01*
X76622220Y7621192D01*
X76200290Y7199997D01*
X76199905Y7199069D01*
X75779997Y7619710D01*
X75690000Y7657080D01*
X75690000Y8972527D01*
X75722192Y9004663D01*
X75864838Y9348191D01*
X75864959Y9487386D01*
X75909160Y9457852D01*
X75909160Y9457852D01*
G37*
X75909160Y9457852D02*
X75957414Y9448254D01*
X76200000Y9400000D01*
X83505198Y9400000D01*
X85056618Y7848580D01*
X84726365Y7834058D01*
X84297741Y7656516D01*
X84215800Y7403805D01*
X85090000Y6529605D01*
X85104143Y6543748D01*
X85283748Y6364143D01*
X85269605Y6350000D01*
X86143805Y5475800D01*
X86343033Y5540399D01*
X86358808Y5502220D01*
X86780003Y5080290D01*
X86780931Y5079905D01*
X86360290Y4659997D01*
X86343459Y4619463D01*
X86143805Y4684200D01*
X85269605Y3810000D01*
X86143805Y2935800D01*
X86343033Y3000399D01*
X86358808Y2962220D01*
X86635545Y2685000D01*
X85941115Y2685000D01*
X85964200Y2756195D01*
X85090000Y3630395D01*
X84215800Y2756195D01*
X84238885Y2685000D01*
X83544227Y2685000D01*
X83819710Y2960003D01*
X83836541Y3000537D01*
X84036195Y2935800D01*
X84910395Y3810000D01*
X84036195Y4684200D01*
X83836967Y4619601D01*
X83821192Y4657780D01*
X83399997Y5079710D01*
X83399069Y5080095D01*
X83615546Y5296195D01*
X84215800Y5296195D01*
X84285901Y5080000D01*
X84215800Y4863805D01*
X85090000Y3989605D01*
X85964200Y4863805D01*
X85894099Y5080000D01*
X85964200Y5296195D01*
X85090000Y6170395D01*
X84215800Y5296195D01*
X83615546Y5296195D01*
X83819710Y5500003D01*
X83836541Y5540537D01*
X84036195Y5475800D01*
X84910395Y6350000D01*
X84036195Y7224200D01*
X83836967Y7159601D01*
X83821192Y7197780D01*
X83399997Y7619710D01*
X82849398Y7848339D01*
X82253218Y7848859D01*
X81702220Y7621192D01*
X81280290Y7199997D01*
X81279905Y7199069D01*
X80859997Y7619710D01*
X80309398Y7848339D01*
X79713218Y7848859D01*
X79162220Y7621192D01*
X78740290Y7199997D01*
X78739905Y7199069D01*
X78319997Y7619710D01*
X77769398Y7848339D01*
X77173218Y7848859D01*
X76622220Y7621192D01*
X76200290Y7199997D01*
X76199905Y7199069D01*
X75779997Y7619710D01*
X75690000Y7657080D01*
X75690000Y8972527D01*
X75722192Y9004663D01*
X75864838Y9348191D01*
X75864959Y9487386D01*
X75909160Y9457852D01*
G36*
X64838788Y10920000D02*
X61522463Y10920000D01*
X61490327Y10952192D01*
X61146799Y11094838D01*
X60774833Y11095162D01*
X60431057Y10953117D01*
X60397882Y10920000D01*
X58982463Y10920000D01*
X58950327Y10952192D01*
X58606799Y11094838D01*
X58234833Y11095162D01*
X57891057Y10953117D01*
X57627808Y10690327D01*
X57485162Y10346799D01*
X57484838Y9974833D01*
X57626883Y9631057D01*
X57889673Y9367808D01*
X58233201Y9225162D01*
X58605167Y9224838D01*
X58948943Y9366883D01*
X58982118Y9400000D01*
X60397537Y9400000D01*
X60429673Y9367808D01*
X60773201Y9225162D01*
X61145167Y9224838D01*
X61488943Y9366883D01*
X61522118Y9400000D01*
X62764864Y9400000D01*
X62797852Y9234161D01*
X62962599Y8987599D01*
X63209161Y8822852D01*
X63500000Y8765000D01*
X64455198Y8765000D01*
X65730295Y7489903D01*
X65644199Y7403807D01*
X65562259Y7656516D01*
X65001970Y7860248D01*
X64406365Y7834058D01*
X63977741Y7656516D01*
X63895800Y7403805D01*
X64770000Y6529605D01*
X64784143Y6543748D01*
X64963748Y6364143D01*
X64949605Y6350000D01*
X65823805Y5475800D01*
X66023033Y5540399D01*
X66038808Y5502220D01*
X66460003Y5080290D01*
X66460931Y5079905D01*
X66040290Y4659997D01*
X66023459Y4619463D01*
X65823805Y4684200D01*
X64949605Y3810000D01*
X65823805Y2935800D01*
X66023033Y3000399D01*
X66038808Y2962220D01*
X66315545Y2685000D01*
X65621115Y2685000D01*
X65644200Y2756195D01*
X64770000Y3630395D01*
X63895800Y2756195D01*
X63918885Y2685000D01*
X63224227Y2685000D01*
X63499710Y2960003D01*
X63516541Y3000537D01*
X63716195Y2935800D01*
X64590395Y3810000D01*
X63716195Y4684200D01*
X63516967Y4619601D01*
X63501192Y4657780D01*
X63079997Y5079710D01*
X63079069Y5080095D01*
X63295546Y5296195D01*
X63895800Y5296195D01*
X63965901Y5080000D01*
X63895800Y4863805D01*
X64770000Y3989605D01*
X65644200Y4863805D01*
X65574099Y5080000D01*
X65644200Y5296195D01*
X64770000Y6170395D01*
X63895800Y5296195D01*
X63295546Y5296195D01*
X63499710Y5500003D01*
X63516541Y5540537D01*
X63716195Y5475800D01*
X64590395Y6350000D01*
X63716195Y7224200D01*
X63516967Y7159601D01*
X63501192Y7197780D01*
X63079997Y7619710D01*
X62529398Y7848339D01*
X61933218Y7848859D01*
X61382220Y7621192D01*
X60960290Y7199997D01*
X60959905Y7199069D01*
X60539997Y7619710D01*
X59989398Y7848339D01*
X59393218Y7848859D01*
X58842220Y7621192D01*
X58420290Y7199997D01*
X58419905Y7199069D01*
X57999997Y7619710D01*
X57449398Y7848339D01*
X56853218Y7848859D01*
X56302220Y7621192D01*
X55880290Y7199997D01*
X55879905Y7199069D01*
X55459997Y7619710D01*
X55341882Y7668756D01*
X55508761Y7737709D01*
X56259655Y8487293D01*
X56666536Y9467173D01*
X56667462Y10528172D01*
X56262291Y11508761D01*
X56174205Y11597001D01*
X64161787Y11597001D01*
X64838788Y10920000D01*
X64838788Y10920000D01*
G37*
X64838788Y10920000D02*
X61522463Y10920000D01*
X61490327Y10952192D01*
X61146799Y11094838D01*
X60774833Y11095162D01*
X60431057Y10953117D01*
X60397882Y10920000D01*
X58982463Y10920000D01*
X58950327Y10952192D01*
X58606799Y11094838D01*
X58234833Y11095162D01*
X57891057Y10953117D01*
X57627808Y10690327D01*
X57485162Y10346799D01*
X57484838Y9974833D01*
X57626883Y9631057D01*
X57889673Y9367808D01*
X58233201Y9225162D01*
X58605167Y9224838D01*
X58948943Y9366883D01*
X58982118Y9400000D01*
X60397537Y9400000D01*
X60429673Y9367808D01*
X60773201Y9225162D01*
X61145167Y9224838D01*
X61488943Y9366883D01*
X61522118Y9400000D01*
X62764864Y9400000D01*
X62797852Y9234161D01*
X62962599Y8987599D01*
X63209161Y8822852D01*
X63500000Y8765000D01*
X64455198Y8765000D01*
X65730295Y7489903D01*
X65644199Y7403807D01*
X65562259Y7656516D01*
X65001970Y7860248D01*
X64406365Y7834058D01*
X63977741Y7656516D01*
X63895800Y7403805D01*
X64770000Y6529605D01*
X64784143Y6543748D01*
X64963748Y6364143D01*
X64949605Y6350000D01*
X65823805Y5475800D01*
X66023033Y5540399D01*
X66038808Y5502220D01*
X66460003Y5080290D01*
X66460931Y5079905D01*
X66040290Y4659997D01*
X66023459Y4619463D01*
X65823805Y4684200D01*
X64949605Y3810000D01*
X65823805Y2935800D01*
X66023033Y3000399D01*
X66038808Y2962220D01*
X66315545Y2685000D01*
X65621115Y2685000D01*
X65644200Y2756195D01*
X64770000Y3630395D01*
X63895800Y2756195D01*
X63918885Y2685000D01*
X63224227Y2685000D01*
X63499710Y2960003D01*
X63516541Y3000537D01*
X63716195Y2935800D01*
X64590395Y3810000D01*
X63716195Y4684200D01*
X63516967Y4619601D01*
X63501192Y4657780D01*
X63079997Y5079710D01*
X63079069Y5080095D01*
X63295546Y5296195D01*
X63895800Y5296195D01*
X63965901Y5080000D01*
X63895800Y4863805D01*
X64770000Y3989605D01*
X65644200Y4863805D01*
X65574099Y5080000D01*
X65644200Y5296195D01*
X64770000Y6170395D01*
X63895800Y5296195D01*
X63295546Y5296195D01*
X63499710Y5500003D01*
X63516541Y5540537D01*
X63716195Y5475800D01*
X64590395Y6350000D01*
X63716195Y7224200D01*
X63516967Y7159601D01*
X63501192Y7197780D01*
X63079997Y7619710D01*
X62529398Y7848339D01*
X61933218Y7848859D01*
X61382220Y7621192D01*
X60960290Y7199997D01*
X60959905Y7199069D01*
X60539997Y7619710D01*
X59989398Y7848339D01*
X59393218Y7848859D01*
X58842220Y7621192D01*
X58420290Y7199997D01*
X58419905Y7199069D01*
X57999997Y7619710D01*
X57449398Y7848339D01*
X56853218Y7848859D01*
X56302220Y7621192D01*
X55880290Y7199997D01*
X55879905Y7199069D01*
X55459997Y7619710D01*
X55341882Y7668756D01*
X55508761Y7737709D01*
X56259655Y8487293D01*
X56666536Y9467173D01*
X56667462Y10528172D01*
X56262291Y11508761D01*
X56174205Y11597001D01*
X64161787Y11597001D01*
X64838788Y10920000D01*
G36*
X159315000Y2685000D02*
X152124227Y2685000D01*
X152399710Y2960003D01*
X152628339Y3510602D01*
X152628859Y4106782D01*
X152401192Y4657780D01*
X151979997Y5079710D01*
X151979069Y5080095D01*
X152399710Y5500003D01*
X152628339Y6050602D01*
X152628859Y6646782D01*
X152401192Y7197780D01*
X151979997Y7619710D01*
X151429398Y7848339D01*
X150833218Y7848859D01*
X150282220Y7621192D01*
X149860290Y7199997D01*
X149859905Y7199069D01*
X149439997Y7619710D01*
X148889398Y7848339D01*
X148293218Y7848859D01*
X147742220Y7621192D01*
X147320290Y7199997D01*
X147319905Y7199069D01*
X146899997Y7619710D01*
X146349398Y7848339D01*
X145753218Y7848859D01*
X145202220Y7621192D01*
X144780290Y7199997D01*
X144779905Y7199069D01*
X144359997Y7619710D01*
X143809398Y7848339D01*
X143213218Y7848859D01*
X142662220Y7621192D01*
X142240290Y7199997D01*
X142239905Y7199069D01*
X141819997Y7619710D01*
X141269398Y7848339D01*
X140673218Y7848859D01*
X140122220Y7621192D01*
X139700290Y7199997D01*
X139699905Y7199069D01*
X139279997Y7619710D01*
X138729398Y7848339D01*
X138133218Y7848859D01*
X137582220Y7621192D01*
X137160290Y7199997D01*
X137159905Y7199069D01*
X136739997Y7619710D01*
X136189398Y7848339D01*
X135593218Y7848859D01*
X135042220Y7621192D01*
X134620290Y7199997D01*
X134603459Y7159463D01*
X134403805Y7224200D01*
X133529605Y6350000D01*
X134403805Y5475800D01*
X134603033Y5540399D01*
X134618808Y5502220D01*
X135040003Y5080290D01*
X135040931Y5079905D01*
X134620290Y4659997D01*
X134603459Y4619463D01*
X134403805Y4684200D01*
X133529605Y3810000D01*
X134403805Y2935800D01*
X134603033Y3000399D01*
X134618808Y2962220D01*
X134895545Y2685000D01*
X134201115Y2685000D01*
X134224200Y2756195D01*
X133350000Y3630395D01*
X132475800Y2756195D01*
X132498885Y2685000D01*
X131661115Y2685000D01*
X131684200Y2756195D01*
X130810000Y3630395D01*
X129935800Y2756195D01*
X129958885Y2685000D01*
X129264227Y2685000D01*
X129539710Y2960003D01*
X129556541Y3000537D01*
X129756195Y2935800D01*
X130630395Y3810000D01*
X130989605Y3810000D01*
X131863805Y2935800D01*
X132080000Y3005901D01*
X132296195Y2935800D01*
X133170395Y3810000D01*
X132296195Y4684200D01*
X132080000Y4614099D01*
X131863805Y4684200D01*
X130989605Y3810000D01*
X130630395Y3810000D01*
X129756195Y4684200D01*
X129556967Y4619601D01*
X129541192Y4657780D01*
X129119997Y5079710D01*
X129119069Y5080095D01*
X129335546Y5296195D01*
X129935800Y5296195D01*
X130005901Y5080000D01*
X129935800Y4863805D01*
X130810000Y3989605D01*
X131684200Y4863805D01*
X131614099Y5080000D01*
X131684200Y5296195D01*
X132475800Y5296195D01*
X132545901Y5080000D01*
X132475800Y4863805D01*
X133350000Y3989605D01*
X134224200Y4863805D01*
X134154099Y5080000D01*
X134224200Y5296195D01*
X133350000Y6170395D01*
X132475800Y5296195D01*
X131684200Y5296195D01*
X130810000Y6170395D01*
X129935800Y5296195D01*
X129335546Y5296195D01*
X129539710Y5500003D01*
X129556541Y5540537D01*
X129756195Y5475800D01*
X130630395Y6350000D01*
X130989605Y6350000D01*
X131863805Y5475800D01*
X132080000Y5545901D01*
X132296195Y5475800D01*
X133170395Y6350000D01*
X132296195Y7224200D01*
X132080000Y7154099D01*
X131863805Y7224200D01*
X130989605Y6350000D01*
X130630395Y6350000D01*
X129756195Y7224200D01*
X129556967Y7159601D01*
X129541192Y7197780D01*
X129335526Y7403805D01*
X129935800Y7403805D01*
X130810000Y6529605D01*
X131684200Y7403805D01*
X132475800Y7403805D01*
X133350000Y6529605D01*
X134224200Y7403805D01*
X134142259Y7656516D01*
X133581970Y7860248D01*
X132986365Y7834058D01*
X132557741Y7656516D01*
X132475800Y7403805D01*
X131684200Y7403805D01*
X131602259Y7656516D01*
X131041970Y7860248D01*
X130446365Y7834058D01*
X130017741Y7656516D01*
X129935800Y7403805D01*
X129335526Y7403805D01*
X129119997Y7619710D01*
X128569398Y7848339D01*
X128259939Y7848609D01*
X128337148Y7964161D01*
X128395000Y8255000D01*
X128395000Y8962545D01*
X128427192Y8994681D01*
X128569838Y9338209D01*
X128570162Y9710175D01*
X128428117Y10053951D01*
X128165327Y10317200D01*
X128120031Y10336009D01*
X140704735Y10336009D01*
X140937932Y9771629D01*
X141369357Y9339449D01*
X141933330Y9105267D01*
X142543991Y9104735D01*
X143108371Y9337932D01*
X143242501Y9471828D01*
X153832538Y9471828D01*
X154237709Y8491239D01*
X154987293Y7740345D01*
X155967173Y7333464D01*
X157028172Y7332538D01*
X158008761Y7737709D01*
X158759655Y8487293D01*
X159166536Y9467173D01*
X159167462Y10528172D01*
X158762291Y11508761D01*
X158012707Y12259655D01*
X157032827Y12666536D01*
X155971828Y12667462D01*
X154991239Y12262291D01*
X154240345Y11512707D01*
X153833464Y10532827D01*
X153832538Y9471828D01*
X143242501Y9471828D01*
X143540551Y9769357D01*
X143774733Y10333330D01*
X143775265Y10943991D01*
X143542068Y11508371D01*
X143110643Y11940551D01*
X143108596Y11941401D01*
X143328735Y12161155D01*
X143524777Y12633276D01*
X143525223Y13144481D01*
X143403117Y13440000D01*
X147292560Y13440000D01*
X147292560Y11640000D01*
X147336838Y11404683D01*
X147475910Y11188559D01*
X147688110Y11043569D01*
X147940000Y10992560D01*
X149740000Y10992560D01*
X149975317Y11036838D01*
X150191441Y11175910D01*
X150336431Y11388110D01*
X150387440Y11640000D01*
X150387440Y13440000D01*
X150343162Y13675317D01*
X150204090Y13891441D01*
X149991890Y14036431D01*
X149838216Y14067551D01*
X150140551Y14369357D01*
X150374733Y14933330D01*
X150375265Y15543991D01*
X150142068Y16108371D01*
X149710643Y16540551D01*
X149636851Y16571192D01*
X149654148Y16578357D01*
X149740554Y16834841D01*
X148840000Y17735395D01*
X147939446Y16834841D01*
X148025852Y16578357D01*
X148043674Y16571837D01*
X147971629Y16542068D01*
X147539449Y16110643D01*
X147305267Y15546670D01*
X147304735Y14936009D01*
X147537932Y14371629D01*
X147840343Y14068688D01*
X147704683Y14043162D01*
X147488559Y13904090D01*
X147343569Y13691890D01*
X147292560Y13440000D01*
X143403117Y13440000D01*
X143330005Y13616943D01*
X142968845Y13978735D01*
X142496724Y14174777D01*
X141985519Y14175223D01*
X141513057Y13980005D01*
X141151265Y13618845D01*
X140955223Y13146724D01*
X140954777Y12635519D01*
X141149995Y12163057D01*
X141371113Y11941552D01*
X140939449Y11510643D01*
X140705267Y10946670D01*
X140704735Y10336009D01*
X128120031Y10336009D01*
X127821799Y10459846D01*
X127449833Y10460170D01*
X127106057Y10318125D01*
X126842808Y10055335D01*
X126700162Y9711807D01*
X126699838Y9339841D01*
X126841883Y8996065D01*
X126875000Y8962890D01*
X126875000Y8569802D01*
X126117114Y7811916D01*
X126029398Y7848339D01*
X125433218Y7848859D01*
X124882220Y7621192D01*
X124460290Y7199997D01*
X124459905Y7199069D01*
X124039997Y7619710D01*
X123931404Y7664802D01*
X123901746Y7813900D01*
X123892148Y7862154D01*
X123727401Y8108715D01*
X120503715Y11332401D01*
X120257153Y11497148D01*
X119966314Y11555000D01*
X116489802Y11555000D01*
X114967401Y13077401D01*
X114827440Y13170920D01*
X114827440Y13440000D01*
X114783162Y13675317D01*
X114644090Y13891441D01*
X114431890Y14036431D01*
X114278216Y14067551D01*
X114580551Y14369357D01*
X114814733Y14933330D01*
X114815265Y15543991D01*
X114582068Y16108371D01*
X114150643Y16540551D01*
X114076851Y16571192D01*
X114094148Y16578357D01*
X114180554Y16834841D01*
X113280000Y17735395D01*
X112379446Y16834841D01*
X112465852Y16578357D01*
X112483674Y16571837D01*
X112411629Y16542068D01*
X111979449Y16110643D01*
X111745267Y15546670D01*
X111744735Y14936009D01*
X111977932Y14371629D01*
X112280343Y14068688D01*
X112144683Y14043162D01*
X111928559Y13904090D01*
X111783569Y13691890D01*
X111732560Y13440000D01*
X111732560Y13300000D01*
X110329802Y13300000D01*
X109764801Y13865001D01*
X109917401Y14017601D01*
X110082148Y14264163D01*
X110140000Y14555002D01*
X110140000Y18155664D01*
X111733542Y18155664D01*
X111759161Y17545540D01*
X111943357Y17100852D01*
X112199841Y17014446D01*
X113100395Y17915000D01*
X113459605Y17915000D01*
X114360159Y17014446D01*
X114575029Y17086833D01*
X115650838Y17086833D01*
X115792883Y16743057D01*
X116055673Y16479808D01*
X116399201Y16337162D01*
X116446077Y16337121D01*
X116705010Y16078188D01*
X116705010Y13770463D01*
X116672818Y13738327D01*
X116530172Y13394799D01*
X116529848Y13022833D01*
X116671893Y12679057D01*
X116934683Y12415808D01*
X117278211Y12273162D01*
X117650177Y12272838D01*
X117993953Y12414883D01*
X118257202Y12677673D01*
X118399848Y13021201D01*
X118400172Y13393167D01*
X118258127Y13736943D01*
X118225010Y13770118D01*
X118225010Y14159841D01*
X136739446Y14159841D01*
X136825852Y13903357D01*
X137399336Y13693542D01*
X138009460Y13719161D01*
X138454148Y13903357D01*
X138540554Y14159841D01*
X137640000Y15060395D01*
X136739446Y14159841D01*
X118225010Y14159841D01*
X118225010Y15480664D01*
X136093542Y15480664D01*
X136119161Y14870540D01*
X136303357Y14425852D01*
X136559841Y14339446D01*
X137460395Y15240000D01*
X137819605Y15240000D01*
X138720159Y14339446D01*
X138976643Y14425852D01*
X139186458Y14999336D01*
X139160839Y15609460D01*
X138976643Y16054148D01*
X138720159Y16140554D01*
X137819605Y15240000D01*
X137460395Y15240000D01*
X136559841Y16140554D01*
X136303357Y16054148D01*
X136093542Y15480664D01*
X118225010Y15480664D01*
X118225010Y16320159D01*
X136739446Y16320159D01*
X137640000Y15419605D01*
X138540554Y16320159D01*
X138454148Y16576643D01*
X137880664Y16786458D01*
X137270540Y16760839D01*
X136825852Y16576643D01*
X136739446Y16320159D01*
X118225010Y16320159D01*
X118225010Y16392990D01*
X118167158Y16683829D01*
X118002411Y16930391D01*
X117521122Y17411680D01*
X117521162Y17457167D01*
X117379117Y17800943D01*
X117202587Y17977782D01*
X129618889Y17977782D01*
X129760934Y17634006D01*
X130023724Y17370757D01*
X130367252Y17228111D01*
X130739218Y17227787D01*
X130999949Y17335519D01*
X140954777Y17335519D01*
X141149995Y16863057D01*
X141511155Y16501265D01*
X141983276Y16305223D01*
X142494481Y16304777D01*
X142966943Y16499995D01*
X143328735Y16861155D01*
X143524777Y17333276D01*
X143525223Y17844481D01*
X143396645Y18155664D01*
X147293542Y18155664D01*
X147319161Y17545540D01*
X147503357Y17100852D01*
X147759841Y17014446D01*
X148660395Y17915000D01*
X149019605Y17915000D01*
X149920159Y17014446D01*
X150176643Y17100852D01*
X150386458Y17674336D01*
X150360839Y18284460D01*
X150176643Y18729148D01*
X149920159Y18815554D01*
X149019605Y17915000D01*
X148660395Y17915000D01*
X147759841Y18815554D01*
X147503357Y18729148D01*
X147293542Y18155664D01*
X143396645Y18155664D01*
X143330005Y18316943D01*
X142968845Y18678735D01*
X142496724Y18874777D01*
X141985519Y18875223D01*
X141513057Y18680005D01*
X141151265Y18318845D01*
X140955223Y17846724D01*
X140954777Y17335519D01*
X130999949Y17335519D01*
X131082994Y17369832D01*
X131346243Y17632622D01*
X131488889Y17976150D01*
X131488930Y18023026D01*
X132109401Y18643497D01*
X132274148Y18890059D01*
X132295053Y18995159D01*
X147939446Y18995159D01*
X148840000Y18094605D01*
X149740554Y18995159D01*
X149654148Y19251643D01*
X149080664Y19461458D01*
X148470540Y19435839D01*
X148025852Y19251643D01*
X147939446Y18995159D01*
X132295053Y18995159D01*
X132332000Y19180898D01*
X132332000Y20759841D01*
X138639446Y20759841D01*
X138725852Y20503357D01*
X139299336Y20293542D01*
X139909460Y20319161D01*
X140354148Y20503357D01*
X140440554Y20759841D01*
X139540000Y21660395D01*
X138639446Y20759841D01*
X132332000Y20759841D01*
X132332000Y22080664D01*
X137993542Y22080664D01*
X138019161Y21470540D01*
X138203357Y21025852D01*
X138459841Y20939446D01*
X139360395Y21840000D01*
X139719605Y21840000D01*
X140620159Y20939446D01*
X140876643Y21025852D01*
X140894904Y21075765D01*
X140937932Y20971629D01*
X141369357Y20539449D01*
X141933330Y20305267D01*
X142543991Y20304735D01*
X143108371Y20537932D01*
X143540551Y20969357D01*
X143589832Y21088039D01*
X143637932Y20971629D01*
X144069357Y20539449D01*
X144633330Y20305267D01*
X145243991Y20304735D01*
X145808371Y20537932D01*
X146240551Y20969357D01*
X146474733Y21533330D01*
X146475265Y22143991D01*
X146242068Y22708371D01*
X145810643Y23140551D01*
X145246670Y23374733D01*
X144636009Y23375265D01*
X144071629Y23142068D01*
X143639449Y22710643D01*
X143590168Y22591961D01*
X143542068Y22708371D01*
X143110643Y23140551D01*
X142546670Y23374733D01*
X141936009Y23375265D01*
X141371629Y23142068D01*
X140939449Y22710643D01*
X140896292Y22606710D01*
X140876643Y22654148D01*
X140620159Y22740554D01*
X139719605Y21840000D01*
X139360395Y21840000D01*
X138459841Y22740554D01*
X138203357Y22654148D01*
X137993542Y22080664D01*
X132332000Y22080664D01*
X132332000Y22920159D01*
X138639446Y22920159D01*
X139540000Y22019605D01*
X140440554Y22920159D01*
X140354148Y23176643D01*
X139780664Y23386458D01*
X139170540Y23360839D01*
X138725852Y23176643D01*
X138639446Y22920159D01*
X132332000Y22920159D01*
X132332000Y24710537D01*
X132364192Y24742673D01*
X132506838Y25086201D01*
X132507162Y25458167D01*
X132426625Y25653083D01*
X140054621Y25653083D01*
X140386567Y24849714D01*
X141000681Y24234527D01*
X141803470Y23901180D01*
X142672717Y23900421D01*
X143476086Y24232367D01*
X144091273Y24846481D01*
X144424620Y25649270D01*
X144425379Y26518517D01*
X144093433Y27321886D01*
X143479319Y27937073D01*
X142676530Y28270420D01*
X141807283Y28271179D01*
X141003914Y27939233D01*
X140388727Y27325119D01*
X140055380Y26522330D01*
X140054621Y25653083D01*
X132426625Y25653083D01*
X132365117Y25801943D01*
X132102327Y26065192D01*
X131758799Y26207838D01*
X131386833Y26208162D01*
X131043057Y26066117D01*
X130779808Y25803327D01*
X130637162Y25459799D01*
X130636838Y25087833D01*
X130778883Y24744057D01*
X130812000Y24710882D01*
X130812000Y19495700D01*
X130414371Y19098071D01*
X130368884Y19098111D01*
X130025108Y18956066D01*
X129761859Y18693276D01*
X129619213Y18349748D01*
X129618889Y17977782D01*
X117202587Y17977782D01*
X117116327Y18064192D01*
X116772799Y18206838D01*
X116400833Y18207162D01*
X116057057Y18065117D01*
X115793808Y17802327D01*
X115651162Y17458799D01*
X115650838Y17086833D01*
X114575029Y17086833D01*
X114616643Y17100852D01*
X114826458Y17674336D01*
X114800839Y18284460D01*
X114616643Y18729148D01*
X114360159Y18815554D01*
X113459605Y17915000D01*
X113100395Y17915000D01*
X112199841Y18815554D01*
X111943357Y18729148D01*
X111733542Y18155664D01*
X110140000Y18155664D01*
X110140000Y20493154D01*
X110193712Y20515347D01*
X110190162Y20506799D01*
X110189838Y20134833D01*
X110331883Y19791057D01*
X110594673Y19527808D01*
X110938201Y19385162D01*
X111310167Y19384838D01*
X111426728Y19433000D01*
X112903686Y19433000D01*
X112465852Y19251643D01*
X112379446Y18995159D01*
X113280000Y18094605D01*
X114180554Y18995159D01*
X114094148Y19251643D01*
X113598448Y19433000D01*
X125984000Y19433000D01*
X126274839Y19490852D01*
X126521401Y19655599D01*
X126631680Y19765878D01*
X126677167Y19765838D01*
X127020943Y19907883D01*
X127063342Y19950208D01*
X127104669Y19908808D01*
X127448197Y19766162D01*
X127820163Y19765838D01*
X128163939Y19907883D01*
X128269955Y20013715D01*
X128374679Y19908808D01*
X128718207Y19766162D01*
X129090173Y19765838D01*
X129433949Y19907883D01*
X129697198Y20170673D01*
X129839844Y20514201D01*
X129840168Y20886167D01*
X129698123Y21229943D01*
X129665006Y21263118D01*
X129665006Y27338930D01*
X129814943Y27400883D01*
X130078192Y27663673D01*
X130220838Y28007201D01*
X130221162Y28379167D01*
X130079117Y28722943D01*
X129816327Y28986192D01*
X129472799Y29128838D01*
X129100833Y29129162D01*
X128757057Y28987117D01*
X128493808Y28724327D01*
X128351162Y28380799D01*
X128351114Y28325726D01*
X128202858Y28103845D01*
X128145006Y27813006D01*
X128145006Y21501628D01*
X127821795Y21635838D01*
X127774919Y21635879D01*
X127293396Y22117402D01*
X127046834Y22282149D01*
X126755995Y22340001D01*
X126054801Y22340001D01*
X124494033Y23900769D01*
X124892717Y23900421D01*
X125696086Y24232367D01*
X126311273Y24846481D01*
X126644620Y25649270D01*
X126645379Y26518517D01*
X126313433Y27321886D01*
X125699319Y27937073D01*
X124896530Y28270420D01*
X124027283Y28271179D01*
X123223914Y27939233D01*
X122608727Y27325119D01*
X122275380Y26522330D01*
X122275028Y26119774D01*
X120119199Y28275603D01*
X120119199Y28595801D01*
X120061347Y28886640D01*
X119896600Y29133202D01*
X119387400Y29642402D01*
X119140838Y29807149D01*
X118849999Y29865001D01*
X118748025Y29865001D01*
X118884350Y30193309D01*
X118884848Y30764187D01*
X118851456Y30845001D01*
X133789797Y30845001D01*
X133816344Y30818454D01*
X133794850Y30766691D01*
X133794352Y30195813D01*
X134012357Y29668200D01*
X134415677Y29264176D01*
X134497531Y29230187D01*
X134417800Y29197243D01*
X134013776Y28793923D01*
X133794850Y28266691D01*
X133794352Y27695813D01*
X134012357Y27168200D01*
X134415677Y26764176D01*
X134942909Y26545250D01*
X135513787Y26544752D01*
X136041400Y26762757D01*
X136445424Y27166077D01*
X136664350Y27693309D01*
X136664848Y28264187D01*
X136446843Y28791800D01*
X136043523Y29195824D01*
X135961669Y29229813D01*
X136041400Y29262757D01*
X136445424Y29666077D01*
X136664350Y30193309D01*
X136664848Y30764187D01*
X136446843Y31291800D01*
X136043523Y31695824D01*
X135977056Y31723423D01*
X135983605Y31726136D01*
X136057739Y31972255D01*
X135229600Y32800395D01*
X135215458Y32786252D01*
X135035853Y32965858D01*
X135049995Y32980000D01*
X135409205Y32980000D01*
X136237345Y32151861D01*
X136483464Y32225995D01*
X136676565Y32763223D01*
X136649378Y33333454D01*
X136483464Y33734005D01*
X136237345Y33808139D01*
X135409205Y32980000D01*
X135049995Y32980000D01*
X134221855Y33808139D01*
X133975736Y33734005D01*
X133782635Y33196777D01*
X133809822Y32626546D01*
X133918158Y32365001D01*
X118753428Y32365001D01*
X118896565Y32763223D01*
X118869378Y33333454D01*
X118703464Y33734005D01*
X118457345Y33808139D01*
X117629205Y32980000D01*
X117643348Y32965858D01*
X117463742Y32786252D01*
X117449600Y32800395D01*
X117435458Y32786252D01*
X117255852Y32965858D01*
X117269995Y32980000D01*
X116441855Y33808139D01*
X116195736Y33734005D01*
X116002635Y33196777D01*
X116029822Y32626546D01*
X116138158Y32365001D01*
X100973428Y32365001D01*
X101116565Y32763223D01*
X101089378Y33333454D01*
X100923464Y33734005D01*
X100677345Y33808139D01*
X99849205Y32980000D01*
X99863348Y32965858D01*
X99683742Y32786252D01*
X99669600Y32800395D01*
X99655458Y32786252D01*
X99475852Y32965858D01*
X99489995Y32980000D01*
X98661855Y33808139D01*
X98415736Y33734005D01*
X98222635Y33196777D01*
X98249822Y32626546D01*
X98358158Y32365001D01*
X86596001Y32365001D01*
X86305162Y32307149D01*
X86058600Y32142402D01*
X83409599Y29493401D01*
X83244852Y29246839D01*
X83187000Y28956000D01*
X83187000Y28756463D01*
X83154808Y28724327D01*
X83144740Y28700081D01*
X83106843Y28791800D01*
X82703523Y29195824D01*
X82621669Y29229813D01*
X82701400Y29262757D01*
X83105424Y29666077D01*
X83324350Y30193309D01*
X83324848Y30764187D01*
X83106843Y31291800D01*
X82703523Y31695824D01*
X82637056Y31723423D01*
X82643605Y31726136D01*
X82717739Y31972255D01*
X81889600Y32800395D01*
X81061461Y31972255D01*
X81135595Y31726136D01*
X81142083Y31723804D01*
X81077800Y31697243D01*
X80673776Y31293923D01*
X80454850Y30766691D01*
X80454352Y30195813D01*
X80672357Y29668200D01*
X81075677Y29264176D01*
X81157531Y29230187D01*
X81077800Y29197243D01*
X80673776Y28793923D01*
X80600983Y28618618D01*
X80534636Y28662949D01*
X80243797Y28720801D01*
X71070603Y28720801D01*
X73532402Y31182600D01*
X73697149Y31429162D01*
X73755001Y31720001D01*
X73755001Y33196777D01*
X80442635Y33196777D01*
X80469822Y32626546D01*
X80635736Y32225995D01*
X80881855Y32151861D01*
X81709995Y32980000D01*
X82069205Y32980000D01*
X82897345Y32151861D01*
X83143464Y32225995D01*
X83336565Y32763223D01*
X83309378Y33333454D01*
X83143464Y33734005D01*
X82897345Y33808139D01*
X82069205Y32980000D01*
X81709995Y32980000D01*
X80881855Y33808139D01*
X80635736Y33734005D01*
X80442635Y33196777D01*
X73755001Y33196777D01*
X73755001Y33987745D01*
X81061461Y33987745D01*
X81889600Y33159605D01*
X82717739Y33987745D01*
X82643605Y34233864D01*
X82106377Y34426965D01*
X81536146Y34399778D01*
X81135595Y34233864D01*
X81061461Y33987745D01*
X73755001Y33987745D01*
X73755001Y34441483D01*
X86714621Y34441483D01*
X87046567Y33638114D01*
X87660681Y33022927D01*
X88463470Y32689580D01*
X89332717Y32688821D01*
X90136086Y33020767D01*
X90751273Y33634881D01*
X90897794Y33987745D01*
X98841461Y33987745D01*
X99669600Y33159605D01*
X100497739Y33987745D01*
X100423605Y34233864D01*
X99886377Y34426965D01*
X99316146Y34399778D01*
X98915595Y34233864D01*
X98841461Y33987745D01*
X90897794Y33987745D01*
X91084620Y34437670D01*
X91084623Y34441483D01*
X104494621Y34441483D01*
X104826567Y33638114D01*
X105440681Y33022927D01*
X106243470Y32689580D01*
X107112717Y32688821D01*
X107916086Y33020767D01*
X108531273Y33634881D01*
X108677794Y33987745D01*
X116621461Y33987745D01*
X117449600Y33159605D01*
X118277739Y33987745D01*
X118203605Y34233864D01*
X117666377Y34426965D01*
X117096146Y34399778D01*
X116695595Y34233864D01*
X116621461Y33987745D01*
X108677794Y33987745D01*
X108864620Y34437670D01*
X108864623Y34441483D01*
X122274621Y34441483D01*
X122606567Y33638114D01*
X123220681Y33022927D01*
X124023470Y32689580D01*
X124892717Y32688821D01*
X125696086Y33020767D01*
X126311273Y33634881D01*
X126457794Y33987745D01*
X134401461Y33987745D01*
X135229600Y33159605D01*
X136057739Y33987745D01*
X135983605Y34233864D01*
X135446377Y34426965D01*
X134876146Y34399778D01*
X134475595Y34233864D01*
X134401461Y33987745D01*
X126457794Y33987745D01*
X126644620Y34437670D01*
X126644623Y34441483D01*
X140054621Y34441483D01*
X140386567Y33638114D01*
X141000681Y33022927D01*
X141803470Y32689580D01*
X142672717Y32688821D01*
X143476086Y33020767D01*
X144091273Y33634881D01*
X144424620Y34437670D01*
X144425379Y35306917D01*
X144093433Y36110286D01*
X143479319Y36725473D01*
X142676530Y37058820D01*
X141807283Y37059579D01*
X141003914Y36727633D01*
X140388727Y36113519D01*
X140055380Y35310730D01*
X140054621Y34441483D01*
X126644623Y34441483D01*
X126645379Y35306917D01*
X126313433Y36110286D01*
X125699319Y36725473D01*
X124896530Y37058820D01*
X124027283Y37059579D01*
X123223914Y36727633D01*
X122608727Y36113519D01*
X122275380Y35310730D01*
X122274621Y34441483D01*
X108864623Y34441483D01*
X108865379Y35306917D01*
X108533433Y36110286D01*
X107919319Y36725473D01*
X107210402Y37019841D01*
X110859446Y37019841D01*
X110945852Y36763357D01*
X111519336Y36553542D01*
X112129460Y36579161D01*
X112574148Y36763357D01*
X112660554Y37019841D01*
X111760000Y37920395D01*
X110859446Y37019841D01*
X107210402Y37019841D01*
X107116530Y37058820D01*
X106247283Y37059579D01*
X105443914Y36727633D01*
X104828727Y36113519D01*
X104495380Y35310730D01*
X104494621Y34441483D01*
X91084623Y34441483D01*
X91085379Y35306917D01*
X90753433Y36110286D01*
X90139319Y36725473D01*
X89336530Y37058820D01*
X88467283Y37059579D01*
X87663914Y36727633D01*
X87048727Y36113519D01*
X86715380Y35310730D01*
X86714621Y34441483D01*
X73755001Y34441483D01*
X73755001Y35774201D01*
X73697149Y36065040D01*
X73532402Y36311602D01*
X71503340Y38340664D01*
X110213542Y38340664D01*
X110239161Y37730540D01*
X110423357Y37285852D01*
X110679841Y37199446D01*
X111580395Y38100000D01*
X111939605Y38100000D01*
X112840159Y37199446D01*
X113096643Y37285852D01*
X113306458Y37859336D01*
X113280839Y38469460D01*
X113096643Y38914148D01*
X112840159Y39000554D01*
X111939605Y38100000D01*
X111580395Y38100000D01*
X110679841Y39000554D01*
X110423357Y38914148D01*
X110213542Y38340664D01*
X71503340Y38340664D01*
X68666603Y41177401D01*
X68420041Y41342148D01*
X68129202Y41400000D01*
X62306846Y41400000D01*
X62262068Y41508371D01*
X61860818Y41910323D01*
X62260551Y42309357D01*
X62494733Y42873330D01*
X62495265Y43483991D01*
X62262068Y44048371D01*
X61860818Y44450323D01*
X62260551Y44849357D01*
X62494733Y45413330D01*
X62494735Y45416009D01*
X110224735Y45416009D01*
X110457932Y44851629D01*
X110859182Y44449677D01*
X110459449Y44050643D01*
X110225267Y43486670D01*
X110224735Y42876009D01*
X110457932Y42311629D01*
X110859182Y41909677D01*
X110459449Y41510643D01*
X110225267Y40946670D01*
X110224735Y40336009D01*
X110457932Y39771629D01*
X110889357Y39339449D01*
X110910194Y39330797D01*
X110859446Y39180159D01*
X111760000Y38279605D01*
X112660554Y39180159D01*
X112609965Y39330327D01*
X112628371Y39337932D01*
X112762501Y39471828D01*
X153832538Y39471828D01*
X154237709Y38491239D01*
X154987293Y37740345D01*
X155967173Y37333464D01*
X157028172Y37332538D01*
X158008761Y37737709D01*
X158759655Y38487293D01*
X159166536Y39467173D01*
X159167462Y40528172D01*
X158762291Y41508761D01*
X158012707Y42259655D01*
X157032827Y42666536D01*
X155971828Y42667462D01*
X154991239Y42262291D01*
X154240345Y41512707D01*
X153833464Y40532827D01*
X153832538Y39471828D01*
X112762501Y39471828D01*
X113060551Y39769357D01*
X113294733Y40333330D01*
X113295265Y40943991D01*
X113062068Y41508371D01*
X112660818Y41910323D01*
X113060551Y42309357D01*
X113294733Y42873330D01*
X113295265Y43483991D01*
X113062068Y44048371D01*
X112660818Y44450323D01*
X113060551Y44849357D01*
X113294733Y45413330D01*
X113295265Y46023991D01*
X113062068Y46588371D01*
X112630643Y47020551D01*
X112066670Y47254733D01*
X111456009Y47255265D01*
X110891629Y47022068D01*
X110459449Y46590643D01*
X110225267Y46026670D01*
X110224735Y45416009D01*
X62494735Y45416009D01*
X62495265Y46023991D01*
X62262068Y46588371D01*
X61830643Y47020551D01*
X61266670Y47254733D01*
X60656009Y47255265D01*
X60091629Y47022068D01*
X59659449Y46590643D01*
X59425267Y46026670D01*
X59424735Y45416009D01*
X59470485Y45305287D01*
X58740198Y44575000D01*
X52632463Y44575000D01*
X52600327Y44607192D01*
X52256799Y44749838D01*
X51884833Y44750162D01*
X51541057Y44608117D01*
X51277808Y44345327D01*
X51135162Y44001799D01*
X51134838Y43629833D01*
X51276883Y43286057D01*
X51539673Y43022808D01*
X51883201Y42880162D01*
X52255167Y42879838D01*
X52598943Y43021883D01*
X52632118Y43055000D01*
X59055000Y43055000D01*
X59345839Y43112852D01*
X59424987Y43165737D01*
X59424735Y42876009D01*
X59657932Y42311629D01*
X60059182Y41909677D01*
X59659449Y41510643D01*
X59425267Y40946670D01*
X59424735Y40336009D01*
X59657932Y39771629D01*
X60089357Y39339449D01*
X60110194Y39330797D01*
X60059446Y39180159D01*
X60960000Y38279605D01*
X61860554Y39180159D01*
X61809965Y39330327D01*
X61828371Y39337932D01*
X62260551Y39769357D01*
X62306494Y39880000D01*
X67814400Y39880000D01*
X70650160Y37044240D01*
X69883914Y36727633D01*
X69268727Y36113519D01*
X68935380Y35310730D01*
X68934621Y34441483D01*
X69266567Y33638114D01*
X69880681Y33022927D01*
X70683470Y32689580D01*
X71552717Y32688821D01*
X72235001Y32970736D01*
X72235001Y32034803D01*
X69740197Y29539999D01*
X65199126Y29539999D01*
X65325424Y29666077D01*
X65544350Y30193309D01*
X65544848Y30764187D01*
X65326843Y31291800D01*
X64923523Y31695824D01*
X64857056Y31723423D01*
X64863605Y31726136D01*
X64937739Y31972255D01*
X64109600Y32800395D01*
X63281461Y31972255D01*
X63355595Y31726136D01*
X63362083Y31723804D01*
X63297800Y31697243D01*
X62893776Y31293923D01*
X62674850Y30766691D01*
X62674352Y30195813D01*
X62892357Y29668200D01*
X63295677Y29264176D01*
X63377531Y29230187D01*
X63297800Y29197243D01*
X62893776Y28793923D01*
X62674850Y28266691D01*
X62674352Y27695813D01*
X62892357Y27168200D01*
X63295677Y26764176D01*
X63822909Y26545250D01*
X64393787Y26544752D01*
X64921400Y26762757D01*
X65325424Y27166077D01*
X65544350Y27693309D01*
X65544635Y28019999D01*
X69204395Y28019999D01*
X66264599Y25080203D01*
X66099852Y24833641D01*
X66042000Y24542802D01*
X66042000Y22793802D01*
X65979198Y22731000D01*
X64947333Y22731000D01*
X65054192Y22837673D01*
X65196838Y23181201D01*
X65197162Y23553167D01*
X65055117Y23896943D01*
X64792327Y24160192D01*
X64585889Y24245913D01*
X62051400Y26780402D01*
X61805762Y26944531D01*
X61753117Y27071943D01*
X61490327Y27335192D01*
X61146799Y27477838D01*
X60774833Y27478162D01*
X60431057Y27336117D01*
X60167808Y27073327D01*
X60025162Y26729799D01*
X60024838Y26357833D01*
X60166883Y26014057D01*
X60429673Y25750808D01*
X60773201Y25608162D01*
X60868549Y25608079D01*
X60969160Y25540853D01*
X61184100Y25498098D01*
X63326988Y23355210D01*
X63326838Y23182833D01*
X63468883Y22839057D01*
X63576752Y22731000D01*
X63306802Y22731000D01*
X61878401Y24159401D01*
X61631839Y24324148D01*
X61341000Y24382000D01*
X54725980Y24382000D01*
X55191273Y24846481D01*
X55524620Y25649270D01*
X55525379Y26518517D01*
X55193433Y27321886D01*
X54579319Y27937073D01*
X53776530Y28270420D01*
X52907283Y28271179D01*
X52103914Y27939233D01*
X51488727Y27325119D01*
X51155380Y26522330D01*
X51154621Y25653083D01*
X51486567Y24849714D01*
X51953465Y24382000D01*
X37342000Y24382000D01*
X37051161Y24324148D01*
X36804599Y24159401D01*
X35974964Y23329766D01*
X35866670Y23374733D01*
X35256009Y23375265D01*
X34691629Y23142068D01*
X34259449Y22710643D01*
X34216292Y22606710D01*
X34196643Y22654148D01*
X33940159Y22740554D01*
X33039605Y21840000D01*
X33940159Y20939446D01*
X34196643Y21025852D01*
X34214904Y21075765D01*
X34257932Y20971629D01*
X34689357Y20539449D01*
X35253330Y20305267D01*
X35863991Y20304735D01*
X36428371Y20537932D01*
X36860551Y20969357D01*
X36909832Y21088039D01*
X36957932Y20971629D01*
X37389357Y20539449D01*
X37953330Y20305267D01*
X38563991Y20304735D01*
X39128371Y20537932D01*
X39350668Y20759841D01*
X67519446Y20759841D01*
X67605852Y20503357D01*
X68179336Y20293542D01*
X68789460Y20319161D01*
X69234148Y20503357D01*
X69320554Y20759841D01*
X68420000Y21660395D01*
X67519446Y20759841D01*
X39350668Y20759841D01*
X39560551Y20969357D01*
X39794733Y21533330D01*
X39795265Y22143991D01*
X39562068Y22708371D01*
X39408707Y22862000D01*
X61026198Y22862000D01*
X62454599Y21433599D01*
X62701161Y21268852D01*
X62992000Y21211000D01*
X66294000Y21211000D01*
X66584839Y21268852D01*
X66831401Y21433599D01*
X66897919Y21500117D01*
X66899161Y21470540D01*
X67083357Y21025852D01*
X67339841Y20939446D01*
X68240395Y21840000D01*
X68226253Y21854143D01*
X68405858Y22033748D01*
X68420000Y22019605D01*
X69320554Y22920159D01*
X69234148Y23176643D01*
X68660664Y23386458D01*
X68050540Y23360839D01*
X67605852Y23176643D01*
X67562000Y23046475D01*
X67562000Y24228000D01*
X68949960Y25615960D01*
X69266567Y24849714D01*
X69880681Y24234527D01*
X70683470Y23901180D01*
X71552717Y23900421D01*
X72356086Y24232367D01*
X72971273Y24846481D01*
X73304620Y25649270D01*
X73305379Y26518517D01*
X73023464Y27200801D01*
X79928995Y27200801D01*
X80812198Y26317598D01*
X81058759Y26152851D01*
X81349599Y26094999D01*
X86715007Y26094999D01*
X86714621Y25653083D01*
X87046567Y24849714D01*
X87133130Y24763000D01*
X73283000Y24763000D01*
X72992161Y24705148D01*
X72745599Y24540401D01*
X71534964Y23329766D01*
X71426670Y23374733D01*
X70816009Y23375265D01*
X70251629Y23142068D01*
X69819449Y22710643D01*
X69776292Y22606710D01*
X69756643Y22654148D01*
X69500159Y22740554D01*
X68599605Y21840000D01*
X69500159Y20939446D01*
X69756643Y21025852D01*
X69774904Y21075765D01*
X69817932Y20971629D01*
X70249357Y20539449D01*
X70813330Y20305267D01*
X71423991Y20304735D01*
X71988371Y20537932D01*
X72420551Y20969357D01*
X72469832Y21088039D01*
X72517932Y20971629D01*
X72949357Y20539449D01*
X73513330Y20305267D01*
X74123991Y20304735D01*
X74688371Y20537932D01*
X75120551Y20969357D01*
X75354733Y21533330D01*
X75355265Y22143991D01*
X75122068Y22708371D01*
X74690643Y23140551D01*
X74443918Y23243000D01*
X80334198Y23243000D01*
X78171198Y21080000D01*
X78032463Y21080000D01*
X78000327Y21112192D01*
X77656799Y21254838D01*
X77284833Y21255162D01*
X76941057Y21113117D01*
X76677808Y20850327D01*
X76535162Y20506799D01*
X76534838Y20134833D01*
X76676883Y19791057D01*
X76939673Y19527808D01*
X77255732Y19396568D01*
X76905852Y19251643D01*
X76819446Y18995159D01*
X77720000Y18094605D01*
X78620554Y18995159D01*
X78534148Y19251643D01*
X77960664Y19461458D01*
X77827021Y19455846D01*
X77998943Y19526883D01*
X78032118Y19560000D01*
X78486000Y19560000D01*
X78776839Y19617852D01*
X79023401Y19782599D01*
X81721802Y22481000D01*
X85051367Y22481000D01*
X84917162Y22157799D01*
X84916838Y21785833D01*
X85058883Y21442057D01*
X85321673Y21178808D01*
X85665201Y21036162D01*
X86037167Y21035838D01*
X86380943Y21177883D01*
X86414118Y21211000D01*
X99314000Y21211000D01*
X99604839Y21268852D01*
X99851401Y21433599D01*
X102137401Y23719599D01*
X102302148Y23966160D01*
X102360000Y24257000D01*
X102360000Y27930596D01*
X104149404Y29720000D01*
X105264733Y29720000D01*
X105148600Y29642402D01*
X102840599Y27334401D01*
X102675852Y27087839D01*
X102618000Y26797000D01*
X102618000Y25200463D01*
X102585808Y25168327D01*
X102443162Y24824799D01*
X102442838Y24452833D01*
X102584883Y24109057D01*
X102847673Y23845808D01*
X103076609Y23750745D01*
X102854598Y23602402D01*
X95252196Y16000000D01*
X79066846Y16000000D01*
X79022068Y16108371D01*
X78590643Y16540551D01*
X78516851Y16571192D01*
X78534148Y16578357D01*
X78620554Y16834841D01*
X77720000Y17735395D01*
X76819446Y16834841D01*
X76905852Y16578357D01*
X76923674Y16571837D01*
X76851629Y16542068D01*
X76419449Y16110643D01*
X76198000Y15577334D01*
X76198000Y16637000D01*
X76140148Y16927839D01*
X75975401Y17174401D01*
X74994138Y18155664D01*
X76173542Y18155664D01*
X76199161Y17545540D01*
X76383357Y17100852D01*
X76639841Y17014446D01*
X77540395Y17915000D01*
X77899605Y17915000D01*
X78800159Y17014446D01*
X79056643Y17100852D01*
X79266458Y17674336D01*
X79240839Y18284460D01*
X79056643Y18729148D01*
X78800159Y18815554D01*
X77899605Y17915000D01*
X77540395Y17915000D01*
X76639841Y18815554D01*
X76383357Y18729148D01*
X76173542Y18155664D01*
X74994138Y18155664D01*
X73472400Y19677402D01*
X73225838Y19842149D01*
X72934999Y19900001D01*
X26760001Y19900001D01*
X26469161Y19842149D01*
X26222600Y19677402D01*
X23770199Y17225001D01*
X12109372Y17225001D01*
X12216565Y17523223D01*
X12189378Y18093454D01*
X12023464Y18494005D01*
X11777345Y18568139D01*
X10949205Y17740000D01*
X10963348Y17725858D01*
X10783742Y17546252D01*
X10769600Y17560395D01*
X9941461Y16732255D01*
X10015595Y16486136D01*
X10022083Y16483804D01*
X9957800Y16457243D01*
X9553776Y16053923D01*
X9334850Y15526691D01*
X9334352Y14955813D01*
X9552357Y14428200D01*
X9955677Y14024176D01*
X10037531Y13990187D01*
X9957800Y13957243D01*
X9553776Y13553923D01*
X9334850Y13026691D01*
X9334352Y12455813D01*
X9552357Y11928200D01*
X9955677Y11524176D01*
X10482909Y11305250D01*
X11053787Y11304752D01*
X11581400Y11522757D01*
X11985424Y11926077D01*
X12204350Y12453309D01*
X12204848Y13024187D01*
X11986843Y13551800D01*
X11583523Y13955824D01*
X11501669Y13989813D01*
X11581400Y14022757D01*
X11718723Y14159841D01*
X30059446Y14159841D01*
X30145852Y13903357D01*
X30719336Y13693542D01*
X31329460Y13719161D01*
X31774148Y13903357D01*
X31860554Y14159841D01*
X30960000Y15060395D01*
X30059446Y14159841D01*
X11718723Y14159841D01*
X11985424Y14426077D01*
X12204350Y14953309D01*
X12204810Y15480664D01*
X29413542Y15480664D01*
X29439161Y14870540D01*
X29623357Y14425852D01*
X29879841Y14339446D01*
X30780395Y15240000D01*
X31139605Y15240000D01*
X32040159Y14339446D01*
X32296643Y14425852D01*
X32506458Y14999336D01*
X32480839Y15609460D01*
X32296643Y16054148D01*
X32040159Y16140554D01*
X31139605Y15240000D01*
X30780395Y15240000D01*
X29879841Y16140554D01*
X29623357Y16054148D01*
X29413542Y15480664D01*
X12204810Y15480664D01*
X12204848Y15524187D01*
X12182551Y15578149D01*
X12309403Y15705001D01*
X24085001Y15705001D01*
X24375840Y15762853D01*
X24622402Y15927600D01*
X25014961Y16320159D01*
X30059446Y16320159D01*
X30960000Y15419605D01*
X31860554Y16320159D01*
X31774148Y16576643D01*
X31200664Y16786458D01*
X30590540Y16760839D01*
X30145852Y16576643D01*
X30059446Y16320159D01*
X25014961Y16320159D01*
X27074803Y18380001D01*
X34532528Y18380001D01*
X34471265Y18318845D01*
X34275223Y17846724D01*
X34274777Y17335519D01*
X34469995Y16863057D01*
X34831155Y16501265D01*
X35303276Y16305223D01*
X35814481Y16304777D01*
X36286943Y16499995D01*
X36648735Y16861155D01*
X36844777Y17333276D01*
X36845223Y17844481D01*
X36650005Y18316943D01*
X36587057Y18380001D01*
X40695618Y18380001D01*
X40613542Y18155664D01*
X40639161Y17545540D01*
X40823357Y17100852D01*
X41079841Y17014446D01*
X41980395Y17915000D01*
X41966253Y17929143D01*
X42145858Y18108748D01*
X42160000Y18094605D01*
X42174143Y18108748D01*
X42353748Y17929143D01*
X42339605Y17915000D01*
X42353748Y17900858D01*
X42174143Y17721253D01*
X42160000Y17735395D01*
X41259446Y16834841D01*
X41345852Y16578357D01*
X41363674Y16571837D01*
X41291629Y16542068D01*
X40859449Y16110643D01*
X40625267Y15546670D01*
X40624735Y14936009D01*
X40857932Y14371629D01*
X41160343Y14068688D01*
X41024683Y14043162D01*
X40808559Y13904090D01*
X40663569Y13691890D01*
X40612560Y13440000D01*
X40612560Y13300000D01*
X39844802Y13300000D01*
X38637401Y14507401D01*
X38390839Y14672148D01*
X38100000Y14730000D01*
X34290000Y14730000D01*
X33999160Y14672148D01*
X33752599Y14507401D01*
X32482599Y13237401D01*
X32317852Y12990839D01*
X32260000Y12700000D01*
X32260000Y7620000D01*
X32317852Y7329161D01*
X32482599Y7082599D01*
X33752599Y5812599D01*
X33999160Y5647852D01*
X34290000Y5590000D01*
X43208783Y5590000D01*
X43849783Y4949000D01*
X44096344Y4784253D01*
X44144598Y4774655D01*
X44387184Y4726401D01*
X50866810Y4726401D01*
X50800290Y4659997D01*
X50571661Y4109398D01*
X50571141Y3513218D01*
X50798808Y2962220D01*
X51075545Y2685000D01*
X685000Y2685000D01*
X685000Y9471828D01*
X832538Y9471828D01*
X1237709Y8491239D01*
X1987293Y7740345D01*
X2967173Y7333464D01*
X4028172Y7332538D01*
X5008761Y7737709D01*
X5759655Y8487293D01*
X6166536Y9467173D01*
X6167361Y10413083D01*
X15594621Y10413083D01*
X15926567Y9609714D01*
X16540681Y8994527D01*
X17343470Y8661180D01*
X18212717Y8660421D01*
X19016086Y8992367D01*
X19631273Y9606481D01*
X19964620Y10409270D01*
X19965379Y11278517D01*
X19633433Y12081886D01*
X19019319Y12697073D01*
X18216530Y13030420D01*
X17347283Y13031179D01*
X16543914Y12699233D01*
X15928727Y12085119D01*
X15595380Y11282330D01*
X15594621Y10413083D01*
X6167361Y10413083D01*
X6167462Y10528172D01*
X5762291Y11508761D01*
X5012707Y12259655D01*
X4032827Y12666536D01*
X2971828Y12667462D01*
X1991239Y12262291D01*
X1240345Y11512707D01*
X833464Y10532827D01*
X832538Y9471828D01*
X685000Y9471828D01*
X685000Y17956777D01*
X9322635Y17956777D01*
X9349822Y17386546D01*
X9515736Y16985995D01*
X9761855Y16911861D01*
X10589995Y17740000D01*
X9761855Y18568139D01*
X9515736Y18494005D01*
X9322635Y17956777D01*
X685000Y17956777D01*
X685000Y18747745D01*
X9941461Y18747745D01*
X10769600Y17919605D01*
X11597739Y18747745D01*
X11523605Y18993864D01*
X10986377Y19186965D01*
X10416146Y19159778D01*
X10015595Y18993864D01*
X9941461Y18747745D01*
X685000Y18747745D01*
X685000Y19201483D01*
X15594621Y19201483D01*
X15926567Y18398114D01*
X16540681Y17782927D01*
X17343470Y17449580D01*
X18212717Y17448821D01*
X19016086Y17780767D01*
X19631273Y18394881D01*
X19964620Y19197670D01*
X19965379Y20066917D01*
X19679069Y20759841D01*
X31959446Y20759841D01*
X32045852Y20503357D01*
X32619336Y20293542D01*
X33229460Y20319161D01*
X33674148Y20503357D01*
X33760554Y20759841D01*
X32860000Y21660395D01*
X31959446Y20759841D01*
X19679069Y20759841D01*
X19633433Y20870286D01*
X19019319Y21485473D01*
X18216530Y21818820D01*
X17347283Y21819579D01*
X16543914Y21487633D01*
X15928727Y20873519D01*
X15595380Y20070730D01*
X15594621Y19201483D01*
X685000Y19201483D01*
X685000Y22080664D01*
X31313542Y22080664D01*
X31339161Y21470540D01*
X31523357Y21025852D01*
X31779841Y20939446D01*
X32680395Y21840000D01*
X31779841Y22740554D01*
X31523357Y22654148D01*
X31313542Y22080664D01*
X685000Y22080664D01*
X685000Y22920159D01*
X31959446Y22920159D01*
X32860000Y22019605D01*
X33760554Y22920159D01*
X33674148Y23176643D01*
X33100664Y23386458D01*
X32490540Y23360839D01*
X32045852Y23176643D01*
X31959446Y22920159D01*
X685000Y22920159D01*
X685000Y25653083D01*
X15594621Y25653083D01*
X15926567Y24849714D01*
X16540681Y24234527D01*
X17343470Y23901180D01*
X18212717Y23900421D01*
X19016086Y24232367D01*
X19631273Y24846481D01*
X19964620Y25649270D01*
X19964623Y25653083D01*
X33374621Y25653083D01*
X33706567Y24849714D01*
X34320681Y24234527D01*
X35123470Y23901180D01*
X35992717Y23900421D01*
X36796086Y24232367D01*
X37411273Y24846481D01*
X37744620Y25649270D01*
X37745379Y26518517D01*
X37413433Y27321886D01*
X36799319Y27937073D01*
X35996530Y28270420D01*
X35127283Y28271179D01*
X34323914Y27939233D01*
X33708727Y27325119D01*
X33375380Y26522330D01*
X33374621Y25653083D01*
X19964623Y25653083D01*
X19965379Y26518517D01*
X19633433Y27321886D01*
X19019319Y27937073D01*
X18216530Y28270420D01*
X17347283Y28271179D01*
X16543914Y27939233D01*
X15928727Y27325119D01*
X15595380Y26522330D01*
X15594621Y25653083D01*
X685000Y25653083D01*
X685000Y30195813D01*
X9334352Y30195813D01*
X9552357Y29668200D01*
X9955677Y29264176D01*
X10037531Y29230187D01*
X9957800Y29197243D01*
X9553776Y28793923D01*
X9334850Y28266691D01*
X9334352Y27695813D01*
X9552357Y27168200D01*
X9955677Y26764176D01*
X10482909Y26545250D01*
X11053787Y26544752D01*
X11581400Y26762757D01*
X11985424Y27166077D01*
X12204350Y27693309D01*
X12204848Y28264187D01*
X11986843Y28791800D01*
X11583523Y29195824D01*
X11501669Y29229813D01*
X11581400Y29262757D01*
X11985424Y29666077D01*
X12204350Y30193309D01*
X12204352Y30195813D01*
X27114352Y30195813D01*
X27332357Y29668200D01*
X27735677Y29264176D01*
X27817531Y29230187D01*
X27737800Y29197243D01*
X27333776Y28793923D01*
X27114850Y28266691D01*
X27114352Y27695813D01*
X27332357Y27168200D01*
X27735677Y26764176D01*
X28262909Y26545250D01*
X28833787Y26544752D01*
X29361400Y26762757D01*
X29765424Y27166077D01*
X29984350Y27693309D01*
X29984848Y28264187D01*
X29766843Y28791800D01*
X29363523Y29195824D01*
X29281669Y29229813D01*
X29361400Y29262757D01*
X29765424Y29666077D01*
X29984350Y30193309D01*
X29984352Y30195813D01*
X44894352Y30195813D01*
X45112357Y29668200D01*
X45515677Y29264176D01*
X45597531Y29230187D01*
X45517800Y29197243D01*
X45113776Y28793923D01*
X44894850Y28266691D01*
X44894352Y27695813D01*
X45112357Y27168200D01*
X45515677Y26764176D01*
X46042909Y26545250D01*
X46613787Y26544752D01*
X47141400Y26762757D01*
X47545424Y27166077D01*
X47764350Y27693309D01*
X47764848Y28264187D01*
X47546843Y28791800D01*
X47143523Y29195824D01*
X47061669Y29229813D01*
X47141400Y29262757D01*
X47267354Y29388491D01*
X47475673Y29179808D01*
X47819201Y29037162D01*
X48191167Y29036838D01*
X48534943Y29178883D01*
X48568118Y29212000D01*
X52485624Y29212000D01*
X52776463Y29269852D01*
X53023025Y29434599D01*
X56933427Y33345001D01*
X62715913Y33345001D01*
X62662635Y33196777D01*
X62689822Y32626546D01*
X62855736Y32225995D01*
X63101855Y32151861D01*
X63929995Y32980000D01*
X63915853Y32994143D01*
X64095458Y33173748D01*
X64109600Y33159605D01*
X64123743Y33173748D01*
X64303348Y32994143D01*
X64289205Y32980000D01*
X65117345Y32151861D01*
X65363464Y32225995D01*
X65556565Y32763223D01*
X65529378Y33333454D01*
X65524595Y33345001D01*
X65656197Y33345001D01*
X66772599Y32228599D01*
X67019160Y32063852D01*
X67242043Y32019518D01*
X67287673Y31973808D01*
X67631201Y31831162D01*
X68003167Y31830838D01*
X68346943Y31972883D01*
X68610192Y32235673D01*
X68752838Y32579201D01*
X68753162Y32951167D01*
X68611117Y33294943D01*
X68348327Y33558192D01*
X68211340Y33615074D01*
X68356192Y33759673D01*
X68498838Y34103201D01*
X68499162Y34475167D01*
X68357117Y34818943D01*
X68094327Y35082192D01*
X67750799Y35224838D01*
X67631950Y35224942D01*
X67588662Y35329707D01*
X67325872Y35592956D01*
X66982344Y35735602D01*
X66886996Y35735685D01*
X66786385Y35802911D01*
X66495546Y35860763D01*
X56341565Y35860763D01*
X56098979Y35812509D01*
X56050725Y35802911D01*
X55804164Y35638164D01*
X55510040Y35344040D01*
X55193433Y36110286D01*
X54579319Y36725473D01*
X53870402Y37019841D01*
X60059446Y37019841D01*
X60145852Y36763357D01*
X60719336Y36553542D01*
X61329460Y36579161D01*
X61774148Y36763357D01*
X61860554Y37019841D01*
X60960000Y37920395D01*
X60059446Y37019841D01*
X53870402Y37019841D01*
X53776530Y37058820D01*
X52907283Y37059579D01*
X52103914Y36727633D01*
X51488727Y36113519D01*
X51155380Y35310730D01*
X51154621Y34441483D01*
X51486567Y33638114D01*
X51634949Y33489473D01*
X49805628Y33489473D01*
X49773492Y33521665D01*
X49429964Y33664311D01*
X49057998Y33664635D01*
X48714222Y33522590D01*
X48450973Y33259800D01*
X48308327Y32916272D01*
X48308003Y32544306D01*
X48326768Y32498892D01*
X48158910Y32331327D01*
X48016264Y31987799D01*
X48015940Y31615833D01*
X48157985Y31272057D01*
X48420775Y31008808D01*
X48764303Y30866162D01*
X49136269Y30865838D01*
X49480045Y31007883D01*
X49513220Y31041000D01*
X52479822Y31041000D01*
X52170822Y30732000D01*
X48568463Y30732000D01*
X48536327Y30764192D01*
X48192799Y30906838D01*
X47820833Y30907162D01*
X47722551Y30866553D01*
X47546843Y31291800D01*
X47143523Y31695824D01*
X47077056Y31723423D01*
X47083605Y31726136D01*
X47157739Y31972255D01*
X46329600Y32800395D01*
X45501461Y31972255D01*
X45575595Y31726136D01*
X45582083Y31723804D01*
X45517800Y31697243D01*
X45113776Y31293923D01*
X44894850Y30766691D01*
X44894352Y30195813D01*
X29984352Y30195813D01*
X29984848Y30764187D01*
X29766843Y31291800D01*
X29363523Y31695824D01*
X29297056Y31723423D01*
X29303605Y31726136D01*
X29377739Y31972255D01*
X28549600Y32800395D01*
X27721461Y31972255D01*
X27795595Y31726136D01*
X27802083Y31723804D01*
X27737800Y31697243D01*
X27333776Y31293923D01*
X27114850Y30766691D01*
X27114352Y30195813D01*
X12204352Y30195813D01*
X12204848Y30764187D01*
X11986843Y31291800D01*
X11583523Y31695824D01*
X11517056Y31723423D01*
X11523605Y31726136D01*
X11597739Y31972255D01*
X10769600Y32800395D01*
X9941461Y31972255D01*
X10015595Y31726136D01*
X10022083Y31723804D01*
X9957800Y31697243D01*
X9553776Y31293923D01*
X9334850Y30766691D01*
X9334352Y30195813D01*
X685000Y30195813D01*
X685000Y32326833D01*
X1604838Y32326833D01*
X1746883Y31983057D01*
X2009673Y31719808D01*
X2353201Y31577162D01*
X2725167Y31576838D01*
X3068943Y31718883D01*
X3102118Y31752000D01*
X4517537Y31752000D01*
X4549673Y31719808D01*
X4893201Y31577162D01*
X5265167Y31576838D01*
X5608943Y31718883D01*
X5872192Y31981673D01*
X6014838Y32325201D01*
X6015162Y32697167D01*
X5873117Y33040943D01*
X5717555Y33196777D01*
X9322635Y33196777D01*
X9349822Y32626546D01*
X9515736Y32225995D01*
X9761855Y32151861D01*
X10589995Y32980000D01*
X10949205Y32980000D01*
X11777345Y32151861D01*
X12023464Y32225995D01*
X12216565Y32763223D01*
X12189378Y33333454D01*
X12023464Y33734005D01*
X11777345Y33808139D01*
X10949205Y32980000D01*
X10589995Y32980000D01*
X9761855Y33808139D01*
X9515736Y33734005D01*
X9322635Y33196777D01*
X5717555Y33196777D01*
X5610327Y33304192D01*
X5266799Y33446838D01*
X4894833Y33447162D01*
X4551057Y33305117D01*
X4517882Y33272000D01*
X3102463Y33272000D01*
X3070327Y33304192D01*
X2726799Y33446838D01*
X2354833Y33447162D01*
X2011057Y33305117D01*
X1747808Y33042327D01*
X1605162Y32698799D01*
X1604838Y32326833D01*
X685000Y32326833D01*
X685000Y33987745D01*
X9941461Y33987745D01*
X10769600Y33159605D01*
X11597739Y33987745D01*
X11523605Y34233864D01*
X10986377Y34426965D01*
X10416146Y34399778D01*
X10015595Y34233864D01*
X9941461Y33987745D01*
X685000Y33987745D01*
X685000Y34441483D01*
X15594621Y34441483D01*
X15926567Y33638114D01*
X16540681Y33022927D01*
X17343470Y32689580D01*
X18212717Y32688821D01*
X19016086Y33020767D01*
X19192403Y33196777D01*
X27102635Y33196777D01*
X27129822Y32626546D01*
X27295736Y32225995D01*
X27541855Y32151861D01*
X28369995Y32980000D01*
X28729205Y32980000D01*
X29557345Y32151861D01*
X29803464Y32225995D01*
X29996565Y32763223D01*
X29969378Y33333454D01*
X29803464Y33734005D01*
X29557345Y33808139D01*
X28729205Y32980000D01*
X28369995Y32980000D01*
X27541855Y33808139D01*
X27295736Y33734005D01*
X27102635Y33196777D01*
X19192403Y33196777D01*
X19631273Y33634881D01*
X19777794Y33987745D01*
X27721461Y33987745D01*
X28549600Y33159605D01*
X29377739Y33987745D01*
X29303605Y34233864D01*
X28766377Y34426965D01*
X28196146Y34399778D01*
X27795595Y34233864D01*
X27721461Y33987745D01*
X19777794Y33987745D01*
X19964620Y34437670D01*
X19964623Y34441483D01*
X33374621Y34441483D01*
X33706567Y33638114D01*
X34320681Y33022927D01*
X35123470Y32689580D01*
X35992717Y32688821D01*
X36796086Y33020767D01*
X36972403Y33196777D01*
X44882635Y33196777D01*
X44909822Y32626546D01*
X45075736Y32225995D01*
X45321855Y32151861D01*
X46149995Y32980000D01*
X46509205Y32980000D01*
X47337345Y32151861D01*
X47583464Y32225995D01*
X47776565Y32763223D01*
X47749378Y33333454D01*
X47583464Y33734005D01*
X47337345Y33808139D01*
X46509205Y32980000D01*
X46149995Y32980000D01*
X45321855Y33808139D01*
X45075736Y33734005D01*
X44882635Y33196777D01*
X36972403Y33196777D01*
X37411273Y33634881D01*
X37557794Y33987745D01*
X45501461Y33987745D01*
X46329600Y33159605D01*
X47157739Y33987745D01*
X47083605Y34233864D01*
X46546377Y34426965D01*
X45976146Y34399778D01*
X45575595Y34233864D01*
X45501461Y33987745D01*
X37557794Y33987745D01*
X37744620Y34437670D01*
X37745379Y35306917D01*
X37413433Y36110286D01*
X36799319Y36725473D01*
X35996530Y37058820D01*
X35127283Y37059579D01*
X34323914Y36727633D01*
X33708727Y36113519D01*
X33375380Y35310730D01*
X33374621Y34441483D01*
X19964623Y34441483D01*
X19965379Y35306917D01*
X19633433Y36110286D01*
X19019319Y36725473D01*
X18216530Y37058820D01*
X17347283Y37059579D01*
X16543914Y36727633D01*
X15928727Y36113519D01*
X15595380Y35310730D01*
X15594621Y34441483D01*
X685000Y34441483D01*
X685000Y37019841D01*
X9259446Y37019841D01*
X9345852Y36763357D01*
X9919336Y36553542D01*
X10529460Y36579161D01*
X10974148Y36763357D01*
X11060554Y37019841D01*
X10160000Y37920395D01*
X9259446Y37019841D01*
X685000Y37019841D01*
X685000Y39471828D01*
X832538Y39471828D01*
X1237709Y38491239D01*
X1987293Y37740345D01*
X2967173Y37333464D01*
X4028172Y37332538D01*
X5008761Y37737709D01*
X5612769Y38340664D01*
X8613542Y38340664D01*
X8639161Y37730540D01*
X8823357Y37285852D01*
X9079841Y37199446D01*
X9980395Y38100000D01*
X10339605Y38100000D01*
X11240159Y37199446D01*
X11496643Y37285852D01*
X11706458Y37859336D01*
X11680839Y38469460D01*
X11496643Y38914148D01*
X11240159Y39000554D01*
X10339605Y38100000D01*
X9980395Y38100000D01*
X9079841Y39000554D01*
X8823357Y38914148D01*
X8613542Y38340664D01*
X5612769Y38340664D01*
X5759655Y38487293D01*
X6166536Y39467173D01*
X6167462Y40528172D01*
X5762291Y41508761D01*
X5012707Y42259655D01*
X4032827Y42666536D01*
X2971828Y42667462D01*
X1991239Y42262291D01*
X1240345Y41512707D01*
X833464Y40532827D01*
X832538Y39471828D01*
X685000Y39471828D01*
X685000Y45416009D01*
X8624735Y45416009D01*
X8857932Y44851629D01*
X9259182Y44449677D01*
X8859449Y44050643D01*
X8625267Y43486670D01*
X8624735Y42876009D01*
X8857932Y42311629D01*
X9259182Y41909677D01*
X8859449Y41510643D01*
X8625267Y40946670D01*
X8624735Y40336009D01*
X8857932Y39771629D01*
X9289357Y39339449D01*
X9310194Y39330797D01*
X9259446Y39180159D01*
X10160000Y38279605D01*
X11060554Y39180159D01*
X11009965Y39330327D01*
X11028371Y39337932D01*
X11162501Y39471828D01*
X51332538Y39471828D01*
X51737709Y38491239D01*
X52487293Y37740345D01*
X53467173Y37333464D01*
X54528172Y37332538D01*
X55508761Y37737709D01*
X56112769Y38340664D01*
X59413542Y38340664D01*
X59439161Y37730540D01*
X59623357Y37285852D01*
X59879841Y37199446D01*
X60780395Y38100000D01*
X61139605Y38100000D01*
X62040159Y37199446D01*
X62296643Y37285852D01*
X62506458Y37859336D01*
X62480839Y38469460D01*
X62296643Y38914148D01*
X62040159Y39000554D01*
X61139605Y38100000D01*
X60780395Y38100000D01*
X59879841Y39000554D01*
X59623357Y38914148D01*
X59413542Y38340664D01*
X56112769Y38340664D01*
X56259655Y38487293D01*
X56666536Y39467173D01*
X56667462Y40528172D01*
X56262291Y41508761D01*
X55512707Y42259655D01*
X54532827Y42666536D01*
X53471828Y42667462D01*
X52491239Y42262291D01*
X51740345Y41512707D01*
X51333464Y40532827D01*
X51332538Y39471828D01*
X11162501Y39471828D01*
X11460551Y39769357D01*
X11694733Y40333330D01*
X11695265Y40943991D01*
X11462068Y41508371D01*
X11060818Y41910323D01*
X11460551Y42309357D01*
X11694733Y42873330D01*
X11695265Y43483991D01*
X11462068Y44048371D01*
X11060818Y44450323D01*
X11460551Y44849357D01*
X11694733Y45413330D01*
X11695265Y46023991D01*
X11462068Y46588371D01*
X11030643Y47020551D01*
X10466670Y47254733D01*
X9856009Y47255265D01*
X9291629Y47022068D01*
X8859449Y46590643D01*
X8625267Y46026670D01*
X8624735Y45416009D01*
X685000Y45416009D01*
X685000Y47315000D01*
X159315000Y47315000D01*
X159315000Y2685000D01*
X159315000Y2685000D01*
G37*
X159315000Y2685000D02*
X152124227Y2685000D01*
X152399710Y2960003D01*
X152628339Y3510602D01*
X152628859Y4106782D01*
X152401192Y4657780D01*
X151979997Y5079710D01*
X151979069Y5080095D01*
X152399710Y5500003D01*
X152628339Y6050602D01*
X152628859Y6646782D01*
X152401192Y7197780D01*
X151979997Y7619710D01*
X151429398Y7848339D01*
X150833218Y7848859D01*
X150282220Y7621192D01*
X149860290Y7199997D01*
X149859905Y7199069D01*
X149439997Y7619710D01*
X148889398Y7848339D01*
X148293218Y7848859D01*
X147742220Y7621192D01*
X147320290Y7199997D01*
X147319905Y7199069D01*
X146899997Y7619710D01*
X146349398Y7848339D01*
X145753218Y7848859D01*
X145202220Y7621192D01*
X144780290Y7199997D01*
X144779905Y7199069D01*
X144359997Y7619710D01*
X143809398Y7848339D01*
X143213218Y7848859D01*
X142662220Y7621192D01*
X142240290Y7199997D01*
X142239905Y7199069D01*
X141819997Y7619710D01*
X141269398Y7848339D01*
X140673218Y7848859D01*
X140122220Y7621192D01*
X139700290Y7199997D01*
X139699905Y7199069D01*
X139279997Y7619710D01*
X138729398Y7848339D01*
X138133218Y7848859D01*
X137582220Y7621192D01*
X137160290Y7199997D01*
X137159905Y7199069D01*
X136739997Y7619710D01*
X136189398Y7848339D01*
X135593218Y7848859D01*
X135042220Y7621192D01*
X134620290Y7199997D01*
X134603459Y7159463D01*
X134403805Y7224200D01*
X133529605Y6350000D01*
X134403805Y5475800D01*
X134603033Y5540399D01*
X134618808Y5502220D01*
X135040003Y5080290D01*
X135040931Y5079905D01*
X134620290Y4659997D01*
X134603459Y4619463D01*
X134403805Y4684200D01*
X133529605Y3810000D01*
X134403805Y2935800D01*
X134603033Y3000399D01*
X134618808Y2962220D01*
X134895545Y2685000D01*
X134201115Y2685000D01*
X134224200Y2756195D01*
X133350000Y3630395D01*
X132475800Y2756195D01*
X132498885Y2685000D01*
X131661115Y2685000D01*
X131684200Y2756195D01*
X130810000Y3630395D01*
X129935800Y2756195D01*
X129958885Y2685000D01*
X129264227Y2685000D01*
X129539710Y2960003D01*
X129556541Y3000537D01*
X129756195Y2935800D01*
X130630395Y3810000D01*
X130989605Y3810000D01*
X131863805Y2935800D01*
X132080000Y3005901D01*
X132296195Y2935800D01*
X133170395Y3810000D01*
X132296195Y4684200D01*
X132080000Y4614099D01*
X131863805Y4684200D01*
X130989605Y3810000D01*
X130630395Y3810000D01*
X129756195Y4684200D01*
X129556967Y4619601D01*
X129541192Y4657780D01*
X129119997Y5079710D01*
X129119069Y5080095D01*
X129335546Y5296195D01*
X129935800Y5296195D01*
X130005901Y5080000D01*
X129935800Y4863805D01*
X130810000Y3989605D01*
X131684200Y4863805D01*
X131614099Y5080000D01*
X131684200Y5296195D01*
X132475800Y5296195D01*
X132545901Y5080000D01*
X132475800Y4863805D01*
X133350000Y3989605D01*
X134224200Y4863805D01*
X134154099Y5080000D01*
X134224200Y5296195D01*
X133350000Y6170395D01*
X132475800Y5296195D01*
X131684200Y5296195D01*
X130810000Y6170395D01*
X129935800Y5296195D01*
X129335546Y5296195D01*
X129539710Y5500003D01*
X129556541Y5540537D01*
X129756195Y5475800D01*
X130630395Y6350000D01*
X130989605Y6350000D01*
X131863805Y5475800D01*
X132080000Y5545901D01*
X132296195Y5475800D01*
X133170395Y6350000D01*
X132296195Y7224200D01*
X132080000Y7154099D01*
X131863805Y7224200D01*
X130989605Y6350000D01*
X130630395Y6350000D01*
X129756195Y7224200D01*
X129556967Y7159601D01*
X129541192Y7197780D01*
X129335526Y7403805D01*
X129935800Y7403805D01*
X130810000Y6529605D01*
X131684200Y7403805D01*
X132475800Y7403805D01*
X133350000Y6529605D01*
X134224200Y7403805D01*
X134142259Y7656516D01*
X133581970Y7860248D01*
X132986365Y7834058D01*
X132557741Y7656516D01*
X132475800Y7403805D01*
X131684200Y7403805D01*
X131602259Y7656516D01*
X131041970Y7860248D01*
X130446365Y7834058D01*
X130017741Y7656516D01*
X129935800Y7403805D01*
X129335526Y7403805D01*
X129119997Y7619710D01*
X128569398Y7848339D01*
X128259939Y7848609D01*
X128337148Y7964161D01*
X128395000Y8255000D01*
X128395000Y8962545D01*
X128427192Y8994681D01*
X128569838Y9338209D01*
X128570162Y9710175D01*
X128428117Y10053951D01*
X128165327Y10317200D01*
X128120031Y10336009D01*
X140704735Y10336009D01*
X140937932Y9771629D01*
X141369357Y9339449D01*
X141933330Y9105267D01*
X142543991Y9104735D01*
X143108371Y9337932D01*
X143242501Y9471828D01*
X153832538Y9471828D01*
X154237709Y8491239D01*
X154987293Y7740345D01*
X155967173Y7333464D01*
X157028172Y7332538D01*
X158008761Y7737709D01*
X158759655Y8487293D01*
X159166536Y9467173D01*
X159167462Y10528172D01*
X158762291Y11508761D01*
X158012707Y12259655D01*
X157032827Y12666536D01*
X155971828Y12667462D01*
X154991239Y12262291D01*
X154240345Y11512707D01*
X153833464Y10532827D01*
X153832538Y9471828D01*
X143242501Y9471828D01*
X143540551Y9769357D01*
X143774733Y10333330D01*
X143775265Y10943991D01*
X143542068Y11508371D01*
X143110643Y11940551D01*
X143108596Y11941401D01*
X143328735Y12161155D01*
X143524777Y12633276D01*
X143525223Y13144481D01*
X143403117Y13440000D01*
X147292560Y13440000D01*
X147292560Y11640000D01*
X147336838Y11404683D01*
X147475910Y11188559D01*
X147688110Y11043569D01*
X147940000Y10992560D01*
X149740000Y10992560D01*
X149975317Y11036838D01*
X150191441Y11175910D01*
X150336431Y11388110D01*
X150387440Y11640000D01*
X150387440Y13440000D01*
X150343162Y13675317D01*
X150204090Y13891441D01*
X149991890Y14036431D01*
X149838216Y14067551D01*
X150140551Y14369357D01*
X150374733Y14933330D01*
X150375265Y15543991D01*
X150142068Y16108371D01*
X149710643Y16540551D01*
X149636851Y16571192D01*
X149654148Y16578357D01*
X149740554Y16834841D01*
X148840000Y17735395D01*
X147939446Y16834841D01*
X148025852Y16578357D01*
X148043674Y16571837D01*
X147971629Y16542068D01*
X147539449Y16110643D01*
X147305267Y15546670D01*
X147304735Y14936009D01*
X147537932Y14371629D01*
X147840343Y14068688D01*
X147704683Y14043162D01*
X147488559Y13904090D01*
X147343569Y13691890D01*
X147292560Y13440000D01*
X143403117Y13440000D01*
X143330005Y13616943D01*
X142968845Y13978735D01*
X142496724Y14174777D01*
X141985519Y14175223D01*
X141513057Y13980005D01*
X141151265Y13618845D01*
X140955223Y13146724D01*
X140954777Y12635519D01*
X141149995Y12163057D01*
X141371113Y11941552D01*
X140939449Y11510643D01*
X140705267Y10946670D01*
X140704735Y10336009D01*
X128120031Y10336009D01*
X127821799Y10459846D01*
X127449833Y10460170D01*
X127106057Y10318125D01*
X126842808Y10055335D01*
X126700162Y9711807D01*
X126699838Y9339841D01*
X126841883Y8996065D01*
X126875000Y8962890D01*
X126875000Y8569802D01*
X126117114Y7811916D01*
X126029398Y7848339D01*
X125433218Y7848859D01*
X124882220Y7621192D01*
X124460290Y7199997D01*
X124459905Y7199069D01*
X124039997Y7619710D01*
X123931404Y7664802D01*
X123901746Y7813900D01*
X123892148Y7862154D01*
X123727401Y8108715D01*
X120503715Y11332401D01*
X120257153Y11497148D01*
X119966314Y11555000D01*
X116489802Y11555000D01*
X114967401Y13077401D01*
X114827440Y13170920D01*
X114827440Y13440000D01*
X114783162Y13675317D01*
X114644090Y13891441D01*
X114431890Y14036431D01*
X114278216Y14067551D01*
X114580551Y14369357D01*
X114814733Y14933330D01*
X114815265Y15543991D01*
X114582068Y16108371D01*
X114150643Y16540551D01*
X114076851Y16571192D01*
X114094148Y16578357D01*
X114180554Y16834841D01*
X113280000Y17735395D01*
X112379446Y16834841D01*
X112465852Y16578357D01*
X112483674Y16571837D01*
X112411629Y16542068D01*
X111979449Y16110643D01*
X111745267Y15546670D01*
X111744735Y14936009D01*
X111977932Y14371629D01*
X112280343Y14068688D01*
X112144683Y14043162D01*
X111928559Y13904090D01*
X111783569Y13691890D01*
X111732560Y13440000D01*
X111732560Y13300000D01*
X110329802Y13300000D01*
X109764801Y13865001D01*
X109917401Y14017601D01*
X110082148Y14264163D01*
X110140000Y14555002D01*
X110140000Y18155664D01*
X111733542Y18155664D01*
X111759161Y17545540D01*
X111943357Y17100852D01*
X112199841Y17014446D01*
X113100395Y17915000D01*
X113459605Y17915000D01*
X114360159Y17014446D01*
X114575029Y17086833D01*
X115650838Y17086833D01*
X115792883Y16743057D01*
X116055673Y16479808D01*
X116399201Y16337162D01*
X116446077Y16337121D01*
X116705010Y16078188D01*
X116705010Y13770463D01*
X116672818Y13738327D01*
X116530172Y13394799D01*
X116529848Y13022833D01*
X116671893Y12679057D01*
X116934683Y12415808D01*
X117278211Y12273162D01*
X117650177Y12272838D01*
X117993953Y12414883D01*
X118257202Y12677673D01*
X118399848Y13021201D01*
X118400172Y13393167D01*
X118258127Y13736943D01*
X118225010Y13770118D01*
X118225010Y14159841D01*
X136739446Y14159841D01*
X136825852Y13903357D01*
X137399336Y13693542D01*
X138009460Y13719161D01*
X138454148Y13903357D01*
X138540554Y14159841D01*
X137640000Y15060395D01*
X136739446Y14159841D01*
X118225010Y14159841D01*
X118225010Y15480664D01*
X136093542Y15480664D01*
X136119161Y14870540D01*
X136303357Y14425852D01*
X136559841Y14339446D01*
X137460395Y15240000D01*
X137819605Y15240000D01*
X138720159Y14339446D01*
X138976643Y14425852D01*
X139186458Y14999336D01*
X139160839Y15609460D01*
X138976643Y16054148D01*
X138720159Y16140554D01*
X137819605Y15240000D01*
X137460395Y15240000D01*
X136559841Y16140554D01*
X136303357Y16054148D01*
X136093542Y15480664D01*
X118225010Y15480664D01*
X118225010Y16320159D01*
X136739446Y16320159D01*
X137640000Y15419605D01*
X138540554Y16320159D01*
X138454148Y16576643D01*
X137880664Y16786458D01*
X137270540Y16760839D01*
X136825852Y16576643D01*
X136739446Y16320159D01*
X118225010Y16320159D01*
X118225010Y16392990D01*
X118167158Y16683829D01*
X118002411Y16930391D01*
X117521122Y17411680D01*
X117521162Y17457167D01*
X117379117Y17800943D01*
X117202587Y17977782D01*
X129618889Y17977782D01*
X129760934Y17634006D01*
X130023724Y17370757D01*
X130367252Y17228111D01*
X130739218Y17227787D01*
X130999949Y17335519D01*
X140954777Y17335519D01*
X141149995Y16863057D01*
X141511155Y16501265D01*
X141983276Y16305223D01*
X142494481Y16304777D01*
X142966943Y16499995D01*
X143328735Y16861155D01*
X143524777Y17333276D01*
X143525223Y17844481D01*
X143396645Y18155664D01*
X147293542Y18155664D01*
X147319161Y17545540D01*
X147503357Y17100852D01*
X147759841Y17014446D01*
X148660395Y17915000D01*
X149019605Y17915000D01*
X149920159Y17014446D01*
X150176643Y17100852D01*
X150386458Y17674336D01*
X150360839Y18284460D01*
X150176643Y18729148D01*
X149920159Y18815554D01*
X149019605Y17915000D01*
X148660395Y17915000D01*
X147759841Y18815554D01*
X147503357Y18729148D01*
X147293542Y18155664D01*
X143396645Y18155664D01*
X143330005Y18316943D01*
X142968845Y18678735D01*
X142496724Y18874777D01*
X141985519Y18875223D01*
X141513057Y18680005D01*
X141151265Y18318845D01*
X140955223Y17846724D01*
X140954777Y17335519D01*
X130999949Y17335519D01*
X131082994Y17369832D01*
X131346243Y17632622D01*
X131488889Y17976150D01*
X131488930Y18023026D01*
X132109401Y18643497D01*
X132274148Y18890059D01*
X132295053Y18995159D01*
X147939446Y18995159D01*
X148840000Y18094605D01*
X149740554Y18995159D01*
X149654148Y19251643D01*
X149080664Y19461458D01*
X148470540Y19435839D01*
X148025852Y19251643D01*
X147939446Y18995159D01*
X132295053Y18995159D01*
X132332000Y19180898D01*
X132332000Y20759841D01*
X138639446Y20759841D01*
X138725852Y20503357D01*
X139299336Y20293542D01*
X139909460Y20319161D01*
X140354148Y20503357D01*
X140440554Y20759841D01*
X139540000Y21660395D01*
X138639446Y20759841D01*
X132332000Y20759841D01*
X132332000Y22080664D01*
X137993542Y22080664D01*
X138019161Y21470540D01*
X138203357Y21025852D01*
X138459841Y20939446D01*
X139360395Y21840000D01*
X139719605Y21840000D01*
X140620159Y20939446D01*
X140876643Y21025852D01*
X140894904Y21075765D01*
X140937932Y20971629D01*
X141369357Y20539449D01*
X141933330Y20305267D01*
X142543991Y20304735D01*
X143108371Y20537932D01*
X143540551Y20969357D01*
X143589832Y21088039D01*
X143637932Y20971629D01*
X144069357Y20539449D01*
X144633330Y20305267D01*
X145243991Y20304735D01*
X145808371Y20537932D01*
X146240551Y20969357D01*
X146474733Y21533330D01*
X146475265Y22143991D01*
X146242068Y22708371D01*
X145810643Y23140551D01*
X145246670Y23374733D01*
X144636009Y23375265D01*
X144071629Y23142068D01*
X143639449Y22710643D01*
X143590168Y22591961D01*
X143542068Y22708371D01*
X143110643Y23140551D01*
X142546670Y23374733D01*
X141936009Y23375265D01*
X141371629Y23142068D01*
X140939449Y22710643D01*
X140896292Y22606710D01*
X140876643Y22654148D01*
X140620159Y22740554D01*
X139719605Y21840000D01*
X139360395Y21840000D01*
X138459841Y22740554D01*
X138203357Y22654148D01*
X137993542Y22080664D01*
X132332000Y22080664D01*
X132332000Y22920159D01*
X138639446Y22920159D01*
X139540000Y22019605D01*
X140440554Y22920159D01*
X140354148Y23176643D01*
X139780664Y23386458D01*
X139170540Y23360839D01*
X138725852Y23176643D01*
X138639446Y22920159D01*
X132332000Y22920159D01*
X132332000Y24710537D01*
X132364192Y24742673D01*
X132506838Y25086201D01*
X132507162Y25458167D01*
X132426625Y25653083D01*
X140054621Y25653083D01*
X140386567Y24849714D01*
X141000681Y24234527D01*
X141803470Y23901180D01*
X142672717Y23900421D01*
X143476086Y24232367D01*
X144091273Y24846481D01*
X144424620Y25649270D01*
X144425379Y26518517D01*
X144093433Y27321886D01*
X143479319Y27937073D01*
X142676530Y28270420D01*
X141807283Y28271179D01*
X141003914Y27939233D01*
X140388727Y27325119D01*
X140055380Y26522330D01*
X140054621Y25653083D01*
X132426625Y25653083D01*
X132365117Y25801943D01*
X132102327Y26065192D01*
X131758799Y26207838D01*
X131386833Y26208162D01*
X131043057Y26066117D01*
X130779808Y25803327D01*
X130637162Y25459799D01*
X130636838Y25087833D01*
X130778883Y24744057D01*
X130812000Y24710882D01*
X130812000Y19495700D01*
X130414371Y19098071D01*
X130368884Y19098111D01*
X130025108Y18956066D01*
X129761859Y18693276D01*
X129619213Y18349748D01*
X129618889Y17977782D01*
X117202587Y17977782D01*
X117116327Y18064192D01*
X116772799Y18206838D01*
X116400833Y18207162D01*
X116057057Y18065117D01*
X115793808Y17802327D01*
X115651162Y17458799D01*
X115650838Y17086833D01*
X114575029Y17086833D01*
X114616643Y17100852D01*
X114826458Y17674336D01*
X114800839Y18284460D01*
X114616643Y18729148D01*
X114360159Y18815554D01*
X113459605Y17915000D01*
X113100395Y17915000D01*
X112199841Y18815554D01*
X111943357Y18729148D01*
X111733542Y18155664D01*
X110140000Y18155664D01*
X110140000Y20493154D01*
X110193712Y20515347D01*
X110190162Y20506799D01*
X110189838Y20134833D01*
X110331883Y19791057D01*
X110594673Y19527808D01*
X110938201Y19385162D01*
X111310167Y19384838D01*
X111426728Y19433000D01*
X112903686Y19433000D01*
X112465852Y19251643D01*
X112379446Y18995159D01*
X113280000Y18094605D01*
X114180554Y18995159D01*
X114094148Y19251643D01*
X113598448Y19433000D01*
X125984000Y19433000D01*
X126274839Y19490852D01*
X126521401Y19655599D01*
X126631680Y19765878D01*
X126677167Y19765838D01*
X127020943Y19907883D01*
X127063342Y19950208D01*
X127104669Y19908808D01*
X127448197Y19766162D01*
X127820163Y19765838D01*
X128163939Y19907883D01*
X128269955Y20013715D01*
X128374679Y19908808D01*
X128718207Y19766162D01*
X129090173Y19765838D01*
X129433949Y19907883D01*
X129697198Y20170673D01*
X129839844Y20514201D01*
X129840168Y20886167D01*
X129698123Y21229943D01*
X129665006Y21263118D01*
X129665006Y27338930D01*
X129814943Y27400883D01*
X130078192Y27663673D01*
X130220838Y28007201D01*
X130221162Y28379167D01*
X130079117Y28722943D01*
X129816327Y28986192D01*
X129472799Y29128838D01*
X129100833Y29129162D01*
X128757057Y28987117D01*
X128493808Y28724327D01*
X128351162Y28380799D01*
X128351114Y28325726D01*
X128202858Y28103845D01*
X128145006Y27813006D01*
X128145006Y21501628D01*
X127821795Y21635838D01*
X127774919Y21635879D01*
X127293396Y22117402D01*
X127046834Y22282149D01*
X126755995Y22340001D01*
X126054801Y22340001D01*
X124494033Y23900769D01*
X124892717Y23900421D01*
X125696086Y24232367D01*
X126311273Y24846481D01*
X126644620Y25649270D01*
X126645379Y26518517D01*
X126313433Y27321886D01*
X125699319Y27937073D01*
X124896530Y28270420D01*
X124027283Y28271179D01*
X123223914Y27939233D01*
X122608727Y27325119D01*
X122275380Y26522330D01*
X122275028Y26119774D01*
X120119199Y28275603D01*
X120119199Y28595801D01*
X120061347Y28886640D01*
X119896600Y29133202D01*
X119387400Y29642402D01*
X119140838Y29807149D01*
X118849999Y29865001D01*
X118748025Y29865001D01*
X118884350Y30193309D01*
X118884848Y30764187D01*
X118851456Y30845001D01*
X133789797Y30845001D01*
X133816344Y30818454D01*
X133794850Y30766691D01*
X133794352Y30195813D01*
X134012357Y29668200D01*
X134415677Y29264176D01*
X134497531Y29230187D01*
X134417800Y29197243D01*
X134013776Y28793923D01*
X133794850Y28266691D01*
X133794352Y27695813D01*
X134012357Y27168200D01*
X134415677Y26764176D01*
X134942909Y26545250D01*
X135513787Y26544752D01*
X136041400Y26762757D01*
X136445424Y27166077D01*
X136664350Y27693309D01*
X136664848Y28264187D01*
X136446843Y28791800D01*
X136043523Y29195824D01*
X135961669Y29229813D01*
X136041400Y29262757D01*
X136445424Y29666077D01*
X136664350Y30193309D01*
X136664848Y30764187D01*
X136446843Y31291800D01*
X136043523Y31695824D01*
X135977056Y31723423D01*
X135983605Y31726136D01*
X136057739Y31972255D01*
X135229600Y32800395D01*
X135215458Y32786252D01*
X135035853Y32965858D01*
X135049995Y32980000D01*
X135409205Y32980000D01*
X136237345Y32151861D01*
X136483464Y32225995D01*
X136676565Y32763223D01*
X136649378Y33333454D01*
X136483464Y33734005D01*
X136237345Y33808139D01*
X135409205Y32980000D01*
X135049995Y32980000D01*
X134221855Y33808139D01*
X133975736Y33734005D01*
X133782635Y33196777D01*
X133809822Y32626546D01*
X133918158Y32365001D01*
X118753428Y32365001D01*
X118896565Y32763223D01*
X118869378Y33333454D01*
X118703464Y33734005D01*
X118457345Y33808139D01*
X117629205Y32980000D01*
X117643348Y32965858D01*
X117463742Y32786252D01*
X117449600Y32800395D01*
X117435458Y32786252D01*
X117255852Y32965858D01*
X117269995Y32980000D01*
X116441855Y33808139D01*
X116195736Y33734005D01*
X116002635Y33196777D01*
X116029822Y32626546D01*
X116138158Y32365001D01*
X100973428Y32365001D01*
X101116565Y32763223D01*
X101089378Y33333454D01*
X100923464Y33734005D01*
X100677345Y33808139D01*
X99849205Y32980000D01*
X99863348Y32965858D01*
X99683742Y32786252D01*
X99669600Y32800395D01*
X99655458Y32786252D01*
X99475852Y32965858D01*
X99489995Y32980000D01*
X98661855Y33808139D01*
X98415736Y33734005D01*
X98222635Y33196777D01*
X98249822Y32626546D01*
X98358158Y32365001D01*
X86596001Y32365001D01*
X86305162Y32307149D01*
X86058600Y32142402D01*
X83409599Y29493401D01*
X83244852Y29246839D01*
X83187000Y28956000D01*
X83187000Y28756463D01*
X83154808Y28724327D01*
X83144740Y28700081D01*
X83106843Y28791800D01*
X82703523Y29195824D01*
X82621669Y29229813D01*
X82701400Y29262757D01*
X83105424Y29666077D01*
X83324350Y30193309D01*
X83324848Y30764187D01*
X83106843Y31291800D01*
X82703523Y31695824D01*
X82637056Y31723423D01*
X82643605Y31726136D01*
X82717739Y31972255D01*
X81889600Y32800395D01*
X81061461Y31972255D01*
X81135595Y31726136D01*
X81142083Y31723804D01*
X81077800Y31697243D01*
X80673776Y31293923D01*
X80454850Y30766691D01*
X80454352Y30195813D01*
X80672357Y29668200D01*
X81075677Y29264176D01*
X81157531Y29230187D01*
X81077800Y29197243D01*
X80673776Y28793923D01*
X80600983Y28618618D01*
X80534636Y28662949D01*
X80243797Y28720801D01*
X71070603Y28720801D01*
X73532402Y31182600D01*
X73697149Y31429162D01*
X73755001Y31720001D01*
X73755001Y33196777D01*
X80442635Y33196777D01*
X80469822Y32626546D01*
X80635736Y32225995D01*
X80881855Y32151861D01*
X81709995Y32980000D01*
X82069205Y32980000D01*
X82897345Y32151861D01*
X83143464Y32225995D01*
X83336565Y32763223D01*
X83309378Y33333454D01*
X83143464Y33734005D01*
X82897345Y33808139D01*
X82069205Y32980000D01*
X81709995Y32980000D01*
X80881855Y33808139D01*
X80635736Y33734005D01*
X80442635Y33196777D01*
X73755001Y33196777D01*
X73755001Y33987745D01*
X81061461Y33987745D01*
X81889600Y33159605D01*
X82717739Y33987745D01*
X82643605Y34233864D01*
X82106377Y34426965D01*
X81536146Y34399778D01*
X81135595Y34233864D01*
X81061461Y33987745D01*
X73755001Y33987745D01*
X73755001Y34441483D01*
X86714621Y34441483D01*
X87046567Y33638114D01*
X87660681Y33022927D01*
X88463470Y32689580D01*
X89332717Y32688821D01*
X90136086Y33020767D01*
X90751273Y33634881D01*
X90897794Y33987745D01*
X98841461Y33987745D01*
X99669600Y33159605D01*
X100497739Y33987745D01*
X100423605Y34233864D01*
X99886377Y34426965D01*
X99316146Y34399778D01*
X98915595Y34233864D01*
X98841461Y33987745D01*
X90897794Y33987745D01*
X91084620Y34437670D01*
X91084623Y34441483D01*
X104494621Y34441483D01*
X104826567Y33638114D01*
X105440681Y33022927D01*
X106243470Y32689580D01*
X107112717Y32688821D01*
X107916086Y33020767D01*
X108531273Y33634881D01*
X108677794Y33987745D01*
X116621461Y33987745D01*
X117449600Y33159605D01*
X118277739Y33987745D01*
X118203605Y34233864D01*
X117666377Y34426965D01*
X117096146Y34399778D01*
X116695595Y34233864D01*
X116621461Y33987745D01*
X108677794Y33987745D01*
X108864620Y34437670D01*
X108864623Y34441483D01*
X122274621Y34441483D01*
X122606567Y33638114D01*
X123220681Y33022927D01*
X124023470Y32689580D01*
X124892717Y32688821D01*
X125696086Y33020767D01*
X126311273Y33634881D01*
X126457794Y33987745D01*
X134401461Y33987745D01*
X135229600Y33159605D01*
X136057739Y33987745D01*
X135983605Y34233864D01*
X135446377Y34426965D01*
X134876146Y34399778D01*
X134475595Y34233864D01*
X134401461Y33987745D01*
X126457794Y33987745D01*
X126644620Y34437670D01*
X126644623Y34441483D01*
X140054621Y34441483D01*
X140386567Y33638114D01*
X141000681Y33022927D01*
X141803470Y32689580D01*
X142672717Y32688821D01*
X143476086Y33020767D01*
X144091273Y33634881D01*
X144424620Y34437670D01*
X144425379Y35306917D01*
X144093433Y36110286D01*
X143479319Y36725473D01*
X142676530Y37058820D01*
X141807283Y37059579D01*
X141003914Y36727633D01*
X140388727Y36113519D01*
X140055380Y35310730D01*
X140054621Y34441483D01*
X126644623Y34441483D01*
X126645379Y35306917D01*
X126313433Y36110286D01*
X125699319Y36725473D01*
X124896530Y37058820D01*
X124027283Y37059579D01*
X123223914Y36727633D01*
X122608727Y36113519D01*
X122275380Y35310730D01*
X122274621Y34441483D01*
X108864623Y34441483D01*
X108865379Y35306917D01*
X108533433Y36110286D01*
X107919319Y36725473D01*
X107210402Y37019841D01*
X110859446Y37019841D01*
X110945852Y36763357D01*
X111519336Y36553542D01*
X112129460Y36579161D01*
X112574148Y36763357D01*
X112660554Y37019841D01*
X111760000Y37920395D01*
X110859446Y37019841D01*
X107210402Y37019841D01*
X107116530Y37058820D01*
X106247283Y37059579D01*
X105443914Y36727633D01*
X104828727Y36113519D01*
X104495380Y35310730D01*
X104494621Y34441483D01*
X91084623Y34441483D01*
X91085379Y35306917D01*
X90753433Y36110286D01*
X90139319Y36725473D01*
X89336530Y37058820D01*
X88467283Y37059579D01*
X87663914Y36727633D01*
X87048727Y36113519D01*
X86715380Y35310730D01*
X86714621Y34441483D01*
X73755001Y34441483D01*
X73755001Y35774201D01*
X73697149Y36065040D01*
X73532402Y36311602D01*
X71503340Y38340664D01*
X110213542Y38340664D01*
X110239161Y37730540D01*
X110423357Y37285852D01*
X110679841Y37199446D01*
X111580395Y38100000D01*
X111939605Y38100000D01*
X112840159Y37199446D01*
X113096643Y37285852D01*
X113306458Y37859336D01*
X113280839Y38469460D01*
X113096643Y38914148D01*
X112840159Y39000554D01*
X111939605Y38100000D01*
X111580395Y38100000D01*
X110679841Y39000554D01*
X110423357Y38914148D01*
X110213542Y38340664D01*
X71503340Y38340664D01*
X68666603Y41177401D01*
X68420041Y41342148D01*
X68129202Y41400000D01*
X62306846Y41400000D01*
X62262068Y41508371D01*
X61860818Y41910323D01*
X62260551Y42309357D01*
X62494733Y42873330D01*
X62495265Y43483991D01*
X62262068Y44048371D01*
X61860818Y44450323D01*
X62260551Y44849357D01*
X62494733Y45413330D01*
X62494735Y45416009D01*
X110224735Y45416009D01*
X110457932Y44851629D01*
X110859182Y44449677D01*
X110459449Y44050643D01*
X110225267Y43486670D01*
X110224735Y42876009D01*
X110457932Y42311629D01*
X110859182Y41909677D01*
X110459449Y41510643D01*
X110225267Y40946670D01*
X110224735Y40336009D01*
X110457932Y39771629D01*
X110889357Y39339449D01*
X110910194Y39330797D01*
X110859446Y39180159D01*
X111760000Y38279605D01*
X112660554Y39180159D01*
X112609965Y39330327D01*
X112628371Y39337932D01*
X112762501Y39471828D01*
X153832538Y39471828D01*
X154237709Y38491239D01*
X154987293Y37740345D01*
X155967173Y37333464D01*
X157028172Y37332538D01*
X158008761Y37737709D01*
X158759655Y38487293D01*
X159166536Y39467173D01*
X159167462Y40528172D01*
X158762291Y41508761D01*
X158012707Y42259655D01*
X157032827Y42666536D01*
X155971828Y42667462D01*
X154991239Y42262291D01*
X154240345Y41512707D01*
X153833464Y40532827D01*
X153832538Y39471828D01*
X112762501Y39471828D01*
X113060551Y39769357D01*
X113294733Y40333330D01*
X113295265Y40943991D01*
X113062068Y41508371D01*
X112660818Y41910323D01*
X113060551Y42309357D01*
X113294733Y42873330D01*
X113295265Y43483991D01*
X113062068Y44048371D01*
X112660818Y44450323D01*
X113060551Y44849357D01*
X113294733Y45413330D01*
X113295265Y46023991D01*
X113062068Y46588371D01*
X112630643Y47020551D01*
X112066670Y47254733D01*
X111456009Y47255265D01*
X110891629Y47022068D01*
X110459449Y46590643D01*
X110225267Y46026670D01*
X110224735Y45416009D01*
X62494735Y45416009D01*
X62495265Y46023991D01*
X62262068Y46588371D01*
X61830643Y47020551D01*
X61266670Y47254733D01*
X60656009Y47255265D01*
X60091629Y47022068D01*
X59659449Y46590643D01*
X59425267Y46026670D01*
X59424735Y45416009D01*
X59470485Y45305287D01*
X58740198Y44575000D01*
X52632463Y44575000D01*
X52600327Y44607192D01*
X52256799Y44749838D01*
X51884833Y44750162D01*
X51541057Y44608117D01*
X51277808Y44345327D01*
X51135162Y44001799D01*
X51134838Y43629833D01*
X51276883Y43286057D01*
X51539673Y43022808D01*
X51883201Y42880162D01*
X52255167Y42879838D01*
X52598943Y43021883D01*
X52632118Y43055000D01*
X59055000Y43055000D01*
X59345839Y43112852D01*
X59424987Y43165737D01*
X59424735Y42876009D01*
X59657932Y42311629D01*
X60059182Y41909677D01*
X59659449Y41510643D01*
X59425267Y40946670D01*
X59424735Y40336009D01*
X59657932Y39771629D01*
X60089357Y39339449D01*
X60110194Y39330797D01*
X60059446Y39180159D01*
X60960000Y38279605D01*
X61860554Y39180159D01*
X61809965Y39330327D01*
X61828371Y39337932D01*
X62260551Y39769357D01*
X62306494Y39880000D01*
X67814400Y39880000D01*
X70650160Y37044240D01*
X69883914Y36727633D01*
X69268727Y36113519D01*
X68935380Y35310730D01*
X68934621Y34441483D01*
X69266567Y33638114D01*
X69880681Y33022927D01*
X70683470Y32689580D01*
X71552717Y32688821D01*
X72235001Y32970736D01*
X72235001Y32034803D01*
X69740197Y29539999D01*
X65199126Y29539999D01*
X65325424Y29666077D01*
X65544350Y30193309D01*
X65544848Y30764187D01*
X65326843Y31291800D01*
X64923523Y31695824D01*
X64857056Y31723423D01*
X64863605Y31726136D01*
X64937739Y31972255D01*
X64109600Y32800395D01*
X63281461Y31972255D01*
X63355595Y31726136D01*
X63362083Y31723804D01*
X63297800Y31697243D01*
X62893776Y31293923D01*
X62674850Y30766691D01*
X62674352Y30195813D01*
X62892357Y29668200D01*
X63295677Y29264176D01*
X63377531Y29230187D01*
X63297800Y29197243D01*
X62893776Y28793923D01*
X62674850Y28266691D01*
X62674352Y27695813D01*
X62892357Y27168200D01*
X63295677Y26764176D01*
X63822909Y26545250D01*
X64393787Y26544752D01*
X64921400Y26762757D01*
X65325424Y27166077D01*
X65544350Y27693309D01*
X65544635Y28019999D01*
X69204395Y28019999D01*
X66264599Y25080203D01*
X66099852Y24833641D01*
X66042000Y24542802D01*
X66042000Y22793802D01*
X65979198Y22731000D01*
X64947333Y22731000D01*
X65054192Y22837673D01*
X65196838Y23181201D01*
X65197162Y23553167D01*
X65055117Y23896943D01*
X64792327Y24160192D01*
X64585889Y24245913D01*
X62051400Y26780402D01*
X61805762Y26944531D01*
X61753117Y27071943D01*
X61490327Y27335192D01*
X61146799Y27477838D01*
X60774833Y27478162D01*
X60431057Y27336117D01*
X60167808Y27073327D01*
X60025162Y26729799D01*
X60024838Y26357833D01*
X60166883Y26014057D01*
X60429673Y25750808D01*
X60773201Y25608162D01*
X60868549Y25608079D01*
X60969160Y25540853D01*
X61184100Y25498098D01*
X63326988Y23355210D01*
X63326838Y23182833D01*
X63468883Y22839057D01*
X63576752Y22731000D01*
X63306802Y22731000D01*
X61878401Y24159401D01*
X61631839Y24324148D01*
X61341000Y24382000D01*
X54725980Y24382000D01*
X55191273Y24846481D01*
X55524620Y25649270D01*
X55525379Y26518517D01*
X55193433Y27321886D01*
X54579319Y27937073D01*
X53776530Y28270420D01*
X52907283Y28271179D01*
X52103914Y27939233D01*
X51488727Y27325119D01*
X51155380Y26522330D01*
X51154621Y25653083D01*
X51486567Y24849714D01*
X51953465Y24382000D01*
X37342000Y24382000D01*
X37051161Y24324148D01*
X36804599Y24159401D01*
X35974964Y23329766D01*
X35866670Y23374733D01*
X35256009Y23375265D01*
X34691629Y23142068D01*
X34259449Y22710643D01*
X34216292Y22606710D01*
X34196643Y22654148D01*
X33940159Y22740554D01*
X33039605Y21840000D01*
X33940159Y20939446D01*
X34196643Y21025852D01*
X34214904Y21075765D01*
X34257932Y20971629D01*
X34689357Y20539449D01*
X35253330Y20305267D01*
X35863991Y20304735D01*
X36428371Y20537932D01*
X36860551Y20969357D01*
X36909832Y21088039D01*
X36957932Y20971629D01*
X37389357Y20539449D01*
X37953330Y20305267D01*
X38563991Y20304735D01*
X39128371Y20537932D01*
X39350668Y20759841D01*
X67519446Y20759841D01*
X67605852Y20503357D01*
X68179336Y20293542D01*
X68789460Y20319161D01*
X69234148Y20503357D01*
X69320554Y20759841D01*
X68420000Y21660395D01*
X67519446Y20759841D01*
X39350668Y20759841D01*
X39560551Y20969357D01*
X39794733Y21533330D01*
X39795265Y22143991D01*
X39562068Y22708371D01*
X39408707Y22862000D01*
X61026198Y22862000D01*
X62454599Y21433599D01*
X62701161Y21268852D01*
X62992000Y21211000D01*
X66294000Y21211000D01*
X66584839Y21268852D01*
X66831401Y21433599D01*
X66897919Y21500117D01*
X66899161Y21470540D01*
X67083357Y21025852D01*
X67339841Y20939446D01*
X68240395Y21840000D01*
X68226253Y21854143D01*
X68405858Y22033748D01*
X68420000Y22019605D01*
X69320554Y22920159D01*
X69234148Y23176643D01*
X68660664Y23386458D01*
X68050540Y23360839D01*
X67605852Y23176643D01*
X67562000Y23046475D01*
X67562000Y24228000D01*
X68949960Y25615960D01*
X69266567Y24849714D01*
X69880681Y24234527D01*
X70683470Y23901180D01*
X71552717Y23900421D01*
X72356086Y24232367D01*
X72971273Y24846481D01*
X73304620Y25649270D01*
X73305379Y26518517D01*
X73023464Y27200801D01*
X79928995Y27200801D01*
X80812198Y26317598D01*
X81058759Y26152851D01*
X81349599Y26094999D01*
X86715007Y26094999D01*
X86714621Y25653083D01*
X87046567Y24849714D01*
X87133130Y24763000D01*
X73283000Y24763000D01*
X72992161Y24705148D01*
X72745599Y24540401D01*
X71534964Y23329766D01*
X71426670Y23374733D01*
X70816009Y23375265D01*
X70251629Y23142068D01*
X69819449Y22710643D01*
X69776292Y22606710D01*
X69756643Y22654148D01*
X69500159Y22740554D01*
X68599605Y21840000D01*
X69500159Y20939446D01*
X69756643Y21025852D01*
X69774904Y21075765D01*
X69817932Y20971629D01*
X70249357Y20539449D01*
X70813330Y20305267D01*
X71423991Y20304735D01*
X71988371Y20537932D01*
X72420551Y20969357D01*
X72469832Y21088039D01*
X72517932Y20971629D01*
X72949357Y20539449D01*
X73513330Y20305267D01*
X74123991Y20304735D01*
X74688371Y20537932D01*
X75120551Y20969357D01*
X75354733Y21533330D01*
X75355265Y22143991D01*
X75122068Y22708371D01*
X74690643Y23140551D01*
X74443918Y23243000D01*
X80334198Y23243000D01*
X78171198Y21080000D01*
X78032463Y21080000D01*
X78000327Y21112192D01*
X77656799Y21254838D01*
X77284833Y21255162D01*
X76941057Y21113117D01*
X76677808Y20850327D01*
X76535162Y20506799D01*
X76534838Y20134833D01*
X76676883Y19791057D01*
X76939673Y19527808D01*
X77255732Y19396568D01*
X76905852Y19251643D01*
X76819446Y18995159D01*
X77720000Y18094605D01*
X78620554Y18995159D01*
X78534148Y19251643D01*
X77960664Y19461458D01*
X77827021Y19455846D01*
X77998943Y19526883D01*
X78032118Y19560000D01*
X78486000Y19560000D01*
X78776839Y19617852D01*
X79023401Y19782599D01*
X81721802Y22481000D01*
X85051367Y22481000D01*
X84917162Y22157799D01*
X84916838Y21785833D01*
X85058883Y21442057D01*
X85321673Y21178808D01*
X85665201Y21036162D01*
X86037167Y21035838D01*
X86380943Y21177883D01*
X86414118Y21211000D01*
X99314000Y21211000D01*
X99604839Y21268852D01*
X99851401Y21433599D01*
X102137401Y23719599D01*
X102302148Y23966160D01*
X102360000Y24257000D01*
X102360000Y27930596D01*
X104149404Y29720000D01*
X105264733Y29720000D01*
X105148600Y29642402D01*
X102840599Y27334401D01*
X102675852Y27087839D01*
X102618000Y26797000D01*
X102618000Y25200463D01*
X102585808Y25168327D01*
X102443162Y24824799D01*
X102442838Y24452833D01*
X102584883Y24109057D01*
X102847673Y23845808D01*
X103076609Y23750745D01*
X102854598Y23602402D01*
X95252196Y16000000D01*
X79066846Y16000000D01*
X79022068Y16108371D01*
X78590643Y16540551D01*
X78516851Y16571192D01*
X78534148Y16578357D01*
X78620554Y16834841D01*
X77720000Y17735395D01*
X76819446Y16834841D01*
X76905852Y16578357D01*
X76923674Y16571837D01*
X76851629Y16542068D01*
X76419449Y16110643D01*
X76198000Y15577334D01*
X76198000Y16637000D01*
X76140148Y16927839D01*
X75975401Y17174401D01*
X74994138Y18155664D01*
X76173542Y18155664D01*
X76199161Y17545540D01*
X76383357Y17100852D01*
X76639841Y17014446D01*
X77540395Y17915000D01*
X77899605Y17915000D01*
X78800159Y17014446D01*
X79056643Y17100852D01*
X79266458Y17674336D01*
X79240839Y18284460D01*
X79056643Y18729148D01*
X78800159Y18815554D01*
X77899605Y17915000D01*
X77540395Y17915000D01*
X76639841Y18815554D01*
X76383357Y18729148D01*
X76173542Y18155664D01*
X74994138Y18155664D01*
X73472400Y19677402D01*
X73225838Y19842149D01*
X72934999Y19900001D01*
X26760001Y19900001D01*
X26469161Y19842149D01*
X26222600Y19677402D01*
X23770199Y17225001D01*
X12109372Y17225001D01*
X12216565Y17523223D01*
X12189378Y18093454D01*
X12023464Y18494005D01*
X11777345Y18568139D01*
X10949205Y17740000D01*
X10963348Y17725858D01*
X10783742Y17546252D01*
X10769600Y17560395D01*
X9941461Y16732255D01*
X10015595Y16486136D01*
X10022083Y16483804D01*
X9957800Y16457243D01*
X9553776Y16053923D01*
X9334850Y15526691D01*
X9334352Y14955813D01*
X9552357Y14428200D01*
X9955677Y14024176D01*
X10037531Y13990187D01*
X9957800Y13957243D01*
X9553776Y13553923D01*
X9334850Y13026691D01*
X9334352Y12455813D01*
X9552357Y11928200D01*
X9955677Y11524176D01*
X10482909Y11305250D01*
X11053787Y11304752D01*
X11581400Y11522757D01*
X11985424Y11926077D01*
X12204350Y12453309D01*
X12204848Y13024187D01*
X11986843Y13551800D01*
X11583523Y13955824D01*
X11501669Y13989813D01*
X11581400Y14022757D01*
X11718723Y14159841D01*
X30059446Y14159841D01*
X30145852Y13903357D01*
X30719336Y13693542D01*
X31329460Y13719161D01*
X31774148Y13903357D01*
X31860554Y14159841D01*
X30960000Y15060395D01*
X30059446Y14159841D01*
X11718723Y14159841D01*
X11985424Y14426077D01*
X12204350Y14953309D01*
X12204810Y15480664D01*
X29413542Y15480664D01*
X29439161Y14870540D01*
X29623357Y14425852D01*
X29879841Y14339446D01*
X30780395Y15240000D01*
X31139605Y15240000D01*
X32040159Y14339446D01*
X32296643Y14425852D01*
X32506458Y14999336D01*
X32480839Y15609460D01*
X32296643Y16054148D01*
X32040159Y16140554D01*
X31139605Y15240000D01*
X30780395Y15240000D01*
X29879841Y16140554D01*
X29623357Y16054148D01*
X29413542Y15480664D01*
X12204810Y15480664D01*
X12204848Y15524187D01*
X12182551Y15578149D01*
X12309403Y15705001D01*
X24085001Y15705001D01*
X24375840Y15762853D01*
X24622402Y15927600D01*
X25014961Y16320159D01*
X30059446Y16320159D01*
X30960000Y15419605D01*
X31860554Y16320159D01*
X31774148Y16576643D01*
X31200664Y16786458D01*
X30590540Y16760839D01*
X30145852Y16576643D01*
X30059446Y16320159D01*
X25014961Y16320159D01*
X27074803Y18380001D01*
X34532528Y18380001D01*
X34471265Y18318845D01*
X34275223Y17846724D01*
X34274777Y17335519D01*
X34469995Y16863057D01*
X34831155Y16501265D01*
X35303276Y16305223D01*
X35814481Y16304777D01*
X36286943Y16499995D01*
X36648735Y16861155D01*
X36844777Y17333276D01*
X36845223Y17844481D01*
X36650005Y18316943D01*
X36587057Y18380001D01*
X40695618Y18380001D01*
X40613542Y18155664D01*
X40639161Y17545540D01*
X40823357Y17100852D01*
X41079841Y17014446D01*
X41980395Y17915000D01*
X41966253Y17929143D01*
X42145858Y18108748D01*
X42160000Y18094605D01*
X42174143Y18108748D01*
X42353748Y17929143D01*
X42339605Y17915000D01*
X42353748Y17900858D01*
X42174143Y17721253D01*
X42160000Y17735395D01*
X41259446Y16834841D01*
X41345852Y16578357D01*
X41363674Y16571837D01*
X41291629Y16542068D01*
X40859449Y16110643D01*
X40625267Y15546670D01*
X40624735Y14936009D01*
X40857932Y14371629D01*
X41160343Y14068688D01*
X41024683Y14043162D01*
X40808559Y13904090D01*
X40663569Y13691890D01*
X40612560Y13440000D01*
X40612560Y13300000D01*
X39844802Y13300000D01*
X38637401Y14507401D01*
X38390839Y14672148D01*
X38100000Y14730000D01*
X34290000Y14730000D01*
X33999160Y14672148D01*
X33752599Y14507401D01*
X32482599Y13237401D01*
X32317852Y12990839D01*
X32260000Y12700000D01*
X32260000Y7620000D01*
X32317852Y7329161D01*
X32482599Y7082599D01*
X33752599Y5812599D01*
X33999160Y5647852D01*
X34290000Y5590000D01*
X43208783Y5590000D01*
X43849783Y4949000D01*
X44096344Y4784253D01*
X44144598Y4774655D01*
X44387184Y4726401D01*
X50866810Y4726401D01*
X50800290Y4659997D01*
X50571661Y4109398D01*
X50571141Y3513218D01*
X50798808Y2962220D01*
X51075545Y2685000D01*
X685000Y2685000D01*
X685000Y9471828D01*
X832538Y9471828D01*
X1237709Y8491239D01*
X1987293Y7740345D01*
X2967173Y7333464D01*
X4028172Y7332538D01*
X5008761Y7737709D01*
X5759655Y8487293D01*
X6166536Y9467173D01*
X6167361Y10413083D01*
X15594621Y10413083D01*
X15926567Y9609714D01*
X16540681Y8994527D01*
X17343470Y8661180D01*
X18212717Y8660421D01*
X19016086Y8992367D01*
X19631273Y9606481D01*
X19964620Y10409270D01*
X19965379Y11278517D01*
X19633433Y12081886D01*
X19019319Y12697073D01*
X18216530Y13030420D01*
X17347283Y13031179D01*
X16543914Y12699233D01*
X15928727Y12085119D01*
X15595380Y11282330D01*
X15594621Y10413083D01*
X6167361Y10413083D01*
X6167462Y10528172D01*
X5762291Y11508761D01*
X5012707Y12259655D01*
X4032827Y12666536D01*
X2971828Y12667462D01*
X1991239Y12262291D01*
X1240345Y11512707D01*
X833464Y10532827D01*
X832538Y9471828D01*
X685000Y9471828D01*
X685000Y17956777D01*
X9322635Y17956777D01*
X9349822Y17386546D01*
X9515736Y16985995D01*
X9761855Y16911861D01*
X10589995Y17740000D01*
X9761855Y18568139D01*
X9515736Y18494005D01*
X9322635Y17956777D01*
X685000Y17956777D01*
X685000Y18747745D01*
X9941461Y18747745D01*
X10769600Y17919605D01*
X11597739Y18747745D01*
X11523605Y18993864D01*
X10986377Y19186965D01*
X10416146Y19159778D01*
X10015595Y18993864D01*
X9941461Y18747745D01*
X685000Y18747745D01*
X685000Y19201483D01*
X15594621Y19201483D01*
X15926567Y18398114D01*
X16540681Y17782927D01*
X17343470Y17449580D01*
X18212717Y17448821D01*
X19016086Y17780767D01*
X19631273Y18394881D01*
X19964620Y19197670D01*
X19965379Y20066917D01*
X19679069Y20759841D01*
X31959446Y20759841D01*
X32045852Y20503357D01*
X32619336Y20293542D01*
X33229460Y20319161D01*
X33674148Y20503357D01*
X33760554Y20759841D01*
X32860000Y21660395D01*
X31959446Y20759841D01*
X19679069Y20759841D01*
X19633433Y20870286D01*
X19019319Y21485473D01*
X18216530Y21818820D01*
X17347283Y21819579D01*
X16543914Y21487633D01*
X15928727Y20873519D01*
X15595380Y20070730D01*
X15594621Y19201483D01*
X685000Y19201483D01*
X685000Y22080664D01*
X31313542Y22080664D01*
X31339161Y21470540D01*
X31523357Y21025852D01*
X31779841Y20939446D01*
X32680395Y21840000D01*
X31779841Y22740554D01*
X31523357Y22654148D01*
X31313542Y22080664D01*
X685000Y22080664D01*
X685000Y22920159D01*
X31959446Y22920159D01*
X32860000Y22019605D01*
X33760554Y22920159D01*
X33674148Y23176643D01*
X33100664Y23386458D01*
X32490540Y23360839D01*
X32045852Y23176643D01*
X31959446Y22920159D01*
X685000Y22920159D01*
X685000Y25653083D01*
X15594621Y25653083D01*
X15926567Y24849714D01*
X16540681Y24234527D01*
X17343470Y23901180D01*
X18212717Y23900421D01*
X19016086Y24232367D01*
X19631273Y24846481D01*
X19964620Y25649270D01*
X19964623Y25653083D01*
X33374621Y25653083D01*
X33706567Y24849714D01*
X34320681Y24234527D01*
X35123470Y23901180D01*
X35992717Y23900421D01*
X36796086Y24232367D01*
X37411273Y24846481D01*
X37744620Y25649270D01*
X37745379Y26518517D01*
X37413433Y27321886D01*
X36799319Y27937073D01*
X35996530Y28270420D01*
X35127283Y28271179D01*
X34323914Y27939233D01*
X33708727Y27325119D01*
X33375380Y26522330D01*
X33374621Y25653083D01*
X19964623Y25653083D01*
X19965379Y26518517D01*
X19633433Y27321886D01*
X19019319Y27937073D01*
X18216530Y28270420D01*
X17347283Y28271179D01*
X16543914Y27939233D01*
X15928727Y27325119D01*
X15595380Y26522330D01*
X15594621Y25653083D01*
X685000Y25653083D01*
X685000Y30195813D01*
X9334352Y30195813D01*
X9552357Y29668200D01*
X9955677Y29264176D01*
X10037531Y29230187D01*
X9957800Y29197243D01*
X9553776Y28793923D01*
X9334850Y28266691D01*
X9334352Y27695813D01*
X9552357Y27168200D01*
X9955677Y26764176D01*
X10482909Y26545250D01*
X11053787Y26544752D01*
X11581400Y26762757D01*
X11985424Y27166077D01*
X12204350Y27693309D01*
X12204848Y28264187D01*
X11986843Y28791800D01*
X11583523Y29195824D01*
X11501669Y29229813D01*
X11581400Y29262757D01*
X11985424Y29666077D01*
X12204350Y30193309D01*
X12204352Y30195813D01*
X27114352Y30195813D01*
X27332357Y29668200D01*
X27735677Y29264176D01*
X27817531Y29230187D01*
X27737800Y29197243D01*
X27333776Y28793923D01*
X27114850Y28266691D01*
X27114352Y27695813D01*
X27332357Y27168200D01*
X27735677Y26764176D01*
X28262909Y26545250D01*
X28833787Y26544752D01*
X29361400Y26762757D01*
X29765424Y27166077D01*
X29984350Y27693309D01*
X29984848Y28264187D01*
X29766843Y28791800D01*
X29363523Y29195824D01*
X29281669Y29229813D01*
X29361400Y29262757D01*
X29765424Y29666077D01*
X29984350Y30193309D01*
X29984352Y30195813D01*
X44894352Y30195813D01*
X45112357Y29668200D01*
X45515677Y29264176D01*
X45597531Y29230187D01*
X45517800Y29197243D01*
X45113776Y28793923D01*
X44894850Y28266691D01*
X44894352Y27695813D01*
X45112357Y27168200D01*
X45515677Y26764176D01*
X46042909Y26545250D01*
X46613787Y26544752D01*
X47141400Y26762757D01*
X47545424Y27166077D01*
X47764350Y27693309D01*
X47764848Y28264187D01*
X47546843Y28791800D01*
X47143523Y29195824D01*
X47061669Y29229813D01*
X47141400Y29262757D01*
X47267354Y29388491D01*
X47475673Y29179808D01*
X47819201Y29037162D01*
X48191167Y29036838D01*
X48534943Y29178883D01*
X48568118Y29212000D01*
X52485624Y29212000D01*
X52776463Y29269852D01*
X53023025Y29434599D01*
X56933427Y33345001D01*
X62715913Y33345001D01*
X62662635Y33196777D01*
X62689822Y32626546D01*
X62855736Y32225995D01*
X63101855Y32151861D01*
X63929995Y32980000D01*
X63915853Y32994143D01*
X64095458Y33173748D01*
X64109600Y33159605D01*
X64123743Y33173748D01*
X64303348Y32994143D01*
X64289205Y32980000D01*
X65117345Y32151861D01*
X65363464Y32225995D01*
X65556565Y32763223D01*
X65529378Y33333454D01*
X65524595Y33345001D01*
X65656197Y33345001D01*
X66772599Y32228599D01*
X67019160Y32063852D01*
X67242043Y32019518D01*
X67287673Y31973808D01*
X67631201Y31831162D01*
X68003167Y31830838D01*
X68346943Y31972883D01*
X68610192Y32235673D01*
X68752838Y32579201D01*
X68753162Y32951167D01*
X68611117Y33294943D01*
X68348327Y33558192D01*
X68211340Y33615074D01*
X68356192Y33759673D01*
X68498838Y34103201D01*
X68499162Y34475167D01*
X68357117Y34818943D01*
X68094327Y35082192D01*
X67750799Y35224838D01*
X67631950Y35224942D01*
X67588662Y35329707D01*
X67325872Y35592956D01*
X66982344Y35735602D01*
X66886996Y35735685D01*
X66786385Y35802911D01*
X66495546Y35860763D01*
X56341565Y35860763D01*
X56098979Y35812509D01*
X56050725Y35802911D01*
X55804164Y35638164D01*
X55510040Y35344040D01*
X55193433Y36110286D01*
X54579319Y36725473D01*
X53870402Y37019841D01*
X60059446Y37019841D01*
X60145852Y36763357D01*
X60719336Y36553542D01*
X61329460Y36579161D01*
X61774148Y36763357D01*
X61860554Y37019841D01*
X60960000Y37920395D01*
X60059446Y37019841D01*
X53870402Y37019841D01*
X53776530Y37058820D01*
X52907283Y37059579D01*
X52103914Y36727633D01*
X51488727Y36113519D01*
X51155380Y35310730D01*
X51154621Y34441483D01*
X51486567Y33638114D01*
X51634949Y33489473D01*
X49805628Y33489473D01*
X49773492Y33521665D01*
X49429964Y33664311D01*
X49057998Y33664635D01*
X48714222Y33522590D01*
X48450973Y33259800D01*
X48308327Y32916272D01*
X48308003Y32544306D01*
X48326768Y32498892D01*
X48158910Y32331327D01*
X48016264Y31987799D01*
X48015940Y31615833D01*
X48157985Y31272057D01*
X48420775Y31008808D01*
X48764303Y30866162D01*
X49136269Y30865838D01*
X49480045Y31007883D01*
X49513220Y31041000D01*
X52479822Y31041000D01*
X52170822Y30732000D01*
X48568463Y30732000D01*
X48536327Y30764192D01*
X48192799Y30906838D01*
X47820833Y30907162D01*
X47722551Y30866553D01*
X47546843Y31291800D01*
X47143523Y31695824D01*
X47077056Y31723423D01*
X47083605Y31726136D01*
X47157739Y31972255D01*
X46329600Y32800395D01*
X45501461Y31972255D01*
X45575595Y31726136D01*
X45582083Y31723804D01*
X45517800Y31697243D01*
X45113776Y31293923D01*
X44894850Y30766691D01*
X44894352Y30195813D01*
X29984352Y30195813D01*
X29984848Y30764187D01*
X29766843Y31291800D01*
X29363523Y31695824D01*
X29297056Y31723423D01*
X29303605Y31726136D01*
X29377739Y31972255D01*
X28549600Y32800395D01*
X27721461Y31972255D01*
X27795595Y31726136D01*
X27802083Y31723804D01*
X27737800Y31697243D01*
X27333776Y31293923D01*
X27114850Y30766691D01*
X27114352Y30195813D01*
X12204352Y30195813D01*
X12204848Y30764187D01*
X11986843Y31291800D01*
X11583523Y31695824D01*
X11517056Y31723423D01*
X11523605Y31726136D01*
X11597739Y31972255D01*
X10769600Y32800395D01*
X9941461Y31972255D01*
X10015595Y31726136D01*
X10022083Y31723804D01*
X9957800Y31697243D01*
X9553776Y31293923D01*
X9334850Y30766691D01*
X9334352Y30195813D01*
X685000Y30195813D01*
X685000Y32326833D01*
X1604838Y32326833D01*
X1746883Y31983057D01*
X2009673Y31719808D01*
X2353201Y31577162D01*
X2725167Y31576838D01*
X3068943Y31718883D01*
X3102118Y31752000D01*
X4517537Y31752000D01*
X4549673Y31719808D01*
X4893201Y31577162D01*
X5265167Y31576838D01*
X5608943Y31718883D01*
X5872192Y31981673D01*
X6014838Y32325201D01*
X6015162Y32697167D01*
X5873117Y33040943D01*
X5717555Y33196777D01*
X9322635Y33196777D01*
X9349822Y32626546D01*
X9515736Y32225995D01*
X9761855Y32151861D01*
X10589995Y32980000D01*
X10949205Y32980000D01*
X11777345Y32151861D01*
X12023464Y32225995D01*
X12216565Y32763223D01*
X12189378Y33333454D01*
X12023464Y33734005D01*
X11777345Y33808139D01*
X10949205Y32980000D01*
X10589995Y32980000D01*
X9761855Y33808139D01*
X9515736Y33734005D01*
X9322635Y33196777D01*
X5717555Y33196777D01*
X5610327Y33304192D01*
X5266799Y33446838D01*
X4894833Y33447162D01*
X4551057Y33305117D01*
X4517882Y33272000D01*
X3102463Y33272000D01*
X3070327Y33304192D01*
X2726799Y33446838D01*
X2354833Y33447162D01*
X2011057Y33305117D01*
X1747808Y33042327D01*
X1605162Y32698799D01*
X1604838Y32326833D01*
X685000Y32326833D01*
X685000Y33987745D01*
X9941461Y33987745D01*
X10769600Y33159605D01*
X11597739Y33987745D01*
X11523605Y34233864D01*
X10986377Y34426965D01*
X10416146Y34399778D01*
X10015595Y34233864D01*
X9941461Y33987745D01*
X685000Y33987745D01*
X685000Y34441483D01*
X15594621Y34441483D01*
X15926567Y33638114D01*
X16540681Y33022927D01*
X17343470Y32689580D01*
X18212717Y32688821D01*
X19016086Y33020767D01*
X19192403Y33196777D01*
X27102635Y33196777D01*
X27129822Y32626546D01*
X27295736Y32225995D01*
X27541855Y32151861D01*
X28369995Y32980000D01*
X28729205Y32980000D01*
X29557345Y32151861D01*
X29803464Y32225995D01*
X29996565Y32763223D01*
X29969378Y33333454D01*
X29803464Y33734005D01*
X29557345Y33808139D01*
X28729205Y32980000D01*
X28369995Y32980000D01*
X27541855Y33808139D01*
X27295736Y33734005D01*
X27102635Y33196777D01*
X19192403Y33196777D01*
X19631273Y33634881D01*
X19777794Y33987745D01*
X27721461Y33987745D01*
X28549600Y33159605D01*
X29377739Y33987745D01*
X29303605Y34233864D01*
X28766377Y34426965D01*
X28196146Y34399778D01*
X27795595Y34233864D01*
X27721461Y33987745D01*
X19777794Y33987745D01*
X19964620Y34437670D01*
X19964623Y34441483D01*
X33374621Y34441483D01*
X33706567Y33638114D01*
X34320681Y33022927D01*
X35123470Y32689580D01*
X35992717Y32688821D01*
X36796086Y33020767D01*
X36972403Y33196777D01*
X44882635Y33196777D01*
X44909822Y32626546D01*
X45075736Y32225995D01*
X45321855Y32151861D01*
X46149995Y32980000D01*
X46509205Y32980000D01*
X47337345Y32151861D01*
X47583464Y32225995D01*
X47776565Y32763223D01*
X47749378Y33333454D01*
X47583464Y33734005D01*
X47337345Y33808139D01*
X46509205Y32980000D01*
X46149995Y32980000D01*
X45321855Y33808139D01*
X45075736Y33734005D01*
X44882635Y33196777D01*
X36972403Y33196777D01*
X37411273Y33634881D01*
X37557794Y33987745D01*
X45501461Y33987745D01*
X46329600Y33159605D01*
X47157739Y33987745D01*
X47083605Y34233864D01*
X46546377Y34426965D01*
X45976146Y34399778D01*
X45575595Y34233864D01*
X45501461Y33987745D01*
X37557794Y33987745D01*
X37744620Y34437670D01*
X37745379Y35306917D01*
X37413433Y36110286D01*
X36799319Y36725473D01*
X35996530Y37058820D01*
X35127283Y37059579D01*
X34323914Y36727633D01*
X33708727Y36113519D01*
X33375380Y35310730D01*
X33374621Y34441483D01*
X19964623Y34441483D01*
X19965379Y35306917D01*
X19633433Y36110286D01*
X19019319Y36725473D01*
X18216530Y37058820D01*
X17347283Y37059579D01*
X16543914Y36727633D01*
X15928727Y36113519D01*
X15595380Y35310730D01*
X15594621Y34441483D01*
X685000Y34441483D01*
X685000Y37019841D01*
X9259446Y37019841D01*
X9345852Y36763357D01*
X9919336Y36553542D01*
X10529460Y36579161D01*
X10974148Y36763357D01*
X11060554Y37019841D01*
X10160000Y37920395D01*
X9259446Y37019841D01*
X685000Y37019841D01*
X685000Y39471828D01*
X832538Y39471828D01*
X1237709Y38491239D01*
X1987293Y37740345D01*
X2967173Y37333464D01*
X4028172Y37332538D01*
X5008761Y37737709D01*
X5612769Y38340664D01*
X8613542Y38340664D01*
X8639161Y37730540D01*
X8823357Y37285852D01*
X9079841Y37199446D01*
X9980395Y38100000D01*
X10339605Y38100000D01*
X11240159Y37199446D01*
X11496643Y37285852D01*
X11706458Y37859336D01*
X11680839Y38469460D01*
X11496643Y38914148D01*
X11240159Y39000554D01*
X10339605Y38100000D01*
X9980395Y38100000D01*
X9079841Y39000554D01*
X8823357Y38914148D01*
X8613542Y38340664D01*
X5612769Y38340664D01*
X5759655Y38487293D01*
X6166536Y39467173D01*
X6167462Y40528172D01*
X5762291Y41508761D01*
X5012707Y42259655D01*
X4032827Y42666536D01*
X2971828Y42667462D01*
X1991239Y42262291D01*
X1240345Y41512707D01*
X833464Y40532827D01*
X832538Y39471828D01*
X685000Y39471828D01*
X685000Y45416009D01*
X8624735Y45416009D01*
X8857932Y44851629D01*
X9259182Y44449677D01*
X8859449Y44050643D01*
X8625267Y43486670D01*
X8624735Y42876009D01*
X8857932Y42311629D01*
X9259182Y41909677D01*
X8859449Y41510643D01*
X8625267Y40946670D01*
X8624735Y40336009D01*
X8857932Y39771629D01*
X9289357Y39339449D01*
X9310194Y39330797D01*
X9259446Y39180159D01*
X10160000Y38279605D01*
X11060554Y39180159D01*
X11009965Y39330327D01*
X11028371Y39337932D01*
X11162501Y39471828D01*
X51332538Y39471828D01*
X51737709Y38491239D01*
X52487293Y37740345D01*
X53467173Y37333464D01*
X54528172Y37332538D01*
X55508761Y37737709D01*
X56112769Y38340664D01*
X59413542Y38340664D01*
X59439161Y37730540D01*
X59623357Y37285852D01*
X59879841Y37199446D01*
X60780395Y38100000D01*
X61139605Y38100000D01*
X62040159Y37199446D01*
X62296643Y37285852D01*
X62506458Y37859336D01*
X62480839Y38469460D01*
X62296643Y38914148D01*
X62040159Y39000554D01*
X61139605Y38100000D01*
X60780395Y38100000D01*
X59879841Y39000554D01*
X59623357Y38914148D01*
X59413542Y38340664D01*
X56112769Y38340664D01*
X56259655Y38487293D01*
X56666536Y39467173D01*
X56667462Y40528172D01*
X56262291Y41508761D01*
X55512707Y42259655D01*
X54532827Y42666536D01*
X53471828Y42667462D01*
X52491239Y42262291D01*
X51740345Y41512707D01*
X51333464Y40532827D01*
X51332538Y39471828D01*
X11162501Y39471828D01*
X11460551Y39769357D01*
X11694733Y40333330D01*
X11695265Y40943991D01*
X11462068Y41508371D01*
X11060818Y41910323D01*
X11460551Y42309357D01*
X11694733Y42873330D01*
X11695265Y43483991D01*
X11462068Y44048371D01*
X11060818Y44450323D01*
X11460551Y44849357D01*
X11694733Y45413330D01*
X11695265Y46023991D01*
X11462068Y46588371D01*
X11030643Y47020551D01*
X10466670Y47254733D01*
X9856009Y47255265D01*
X9291629Y47022068D01*
X8859449Y46590643D01*
X8625267Y46026670D01*
X8624735Y45416009D01*
X685000Y45416009D01*
X685000Y47315000D01*
X159315000Y47315000D01*
X159315000Y2685000D01*
G36*
X104173748Y21854143D02*
X104159605Y21840000D01*
X104173748Y21825858D01*
X103994143Y21646253D01*
X103980000Y21660395D01*
X103079446Y20759841D01*
X103165852Y20503357D01*
X103739336Y20293542D01*
X104349460Y20319161D01*
X104794148Y20503357D01*
X104815490Y20566708D01*
X106234599Y19147599D01*
X106481160Y18982852D01*
X106772000Y18925000D01*
X107387537Y18925000D01*
X107419673Y18892808D01*
X107763201Y18750162D01*
X108135167Y18749838D01*
X108478943Y18891883D01*
X108620000Y19032694D01*
X108620000Y14869804D01*
X108375197Y14625001D01*
X106211999Y14625001D01*
X105921159Y14567149D01*
X105674598Y14402402D01*
X102332599Y11060403D01*
X102167852Y10813841D01*
X102110000Y10523002D01*
X102110000Y10089802D01*
X101502401Y10697401D01*
X101255839Y10862148D01*
X100965000Y10920000D01*
X97717463Y10920000D01*
X97685327Y10952192D01*
X97341799Y11094838D01*
X96969833Y11095162D01*
X96626057Y10953117D01*
X96362808Y10690327D01*
X96220162Y10346799D01*
X96219838Y9974833D01*
X96361883Y9631057D01*
X96624673Y9367808D01*
X96968201Y9225162D01*
X97340167Y9224838D01*
X97683943Y9366883D01*
X97717118Y9400000D01*
X100650198Y9400000D01*
X102110000Y7940198D01*
X102110000Y7657462D01*
X102022220Y7621192D01*
X101600290Y7199997D01*
X101583459Y7159463D01*
X101383805Y7224200D01*
X100509605Y6350000D01*
X101383805Y5475800D01*
X101583033Y5540399D01*
X101598808Y5502220D01*
X102020003Y5080290D01*
X102020931Y5079905D01*
X101600290Y4659997D01*
X101583459Y4619463D01*
X101383805Y4684200D01*
X100509605Y3810000D01*
X100523748Y3795858D01*
X100344143Y3616253D01*
X100330000Y3630395D01*
X100315858Y3616253D01*
X100136253Y3795858D01*
X100150395Y3810000D01*
X99276195Y4684200D01*
X99076967Y4619601D01*
X99061192Y4657780D01*
X98639997Y5079710D01*
X98639069Y5080095D01*
X98855546Y5296195D01*
X99455800Y5296195D01*
X99525901Y5080000D01*
X99455800Y4863805D01*
X100330000Y3989605D01*
X101204200Y4863805D01*
X101134099Y5080000D01*
X101204200Y5296195D01*
X100330000Y6170395D01*
X99455800Y5296195D01*
X98855546Y5296195D01*
X99059710Y5500003D01*
X99076541Y5540537D01*
X99276195Y5475800D01*
X100150395Y6350000D01*
X99276195Y7224200D01*
X99076967Y7159601D01*
X99061192Y7197780D01*
X98855526Y7403805D01*
X99455800Y7403805D01*
X100330000Y6529605D01*
X101204200Y7403805D01*
X101122259Y7656516D01*
X100561970Y7860248D01*
X99966365Y7834058D01*
X99537741Y7656516D01*
X99455800Y7403805D01*
X98855526Y7403805D01*
X98639997Y7619710D01*
X98089398Y7848339D01*
X97493218Y7848859D01*
X96942220Y7621192D01*
X96520290Y7199997D01*
X96519905Y7199069D01*
X96099997Y7619710D01*
X95549398Y7848339D01*
X94953218Y7848859D01*
X94402220Y7621192D01*
X93980290Y7199997D01*
X93979905Y7199069D01*
X93559997Y7619710D01*
X93009398Y7848339D01*
X92413218Y7848859D01*
X92323156Y7811646D01*
X89691401Y10443401D01*
X89444839Y10608148D01*
X89154000Y10666000D01*
X85025213Y10666000D01*
X84543802Y11147412D01*
X84297240Y11312159D01*
X84006401Y11370011D01*
X79204064Y11370011D01*
X79216431Y11388110D01*
X79267440Y11640000D01*
X79267440Y13440000D01*
X79223162Y13675317D01*
X79084090Y13891441D01*
X78871890Y14036431D01*
X78718216Y14067551D01*
X78810667Y14159841D01*
X101179446Y14159841D01*
X101265852Y13903357D01*
X101839336Y13693542D01*
X102449460Y13719161D01*
X102894148Y13903357D01*
X102980554Y14159841D01*
X102080000Y15060395D01*
X101179446Y14159841D01*
X78810667Y14159841D01*
X79020551Y14369357D01*
X79066494Y14480000D01*
X95566998Y14480000D01*
X95857837Y14537852D01*
X96104399Y14702599D01*
X96882464Y15480664D01*
X100533542Y15480664D01*
X100559161Y14870540D01*
X100743357Y14425852D01*
X100999841Y14339446D01*
X101900395Y15240000D01*
X102259605Y15240000D01*
X103160159Y14339446D01*
X103416643Y14425852D01*
X103626458Y14999336D01*
X103600839Y15609460D01*
X103416643Y16054148D01*
X103160159Y16140554D01*
X102259605Y15240000D01*
X101900395Y15240000D01*
X100999841Y16140554D01*
X100743357Y16054148D01*
X100533542Y15480664D01*
X96882464Y15480664D01*
X97721959Y16320159D01*
X101179446Y16320159D01*
X102080000Y15419605D01*
X102980554Y16320159D01*
X102894148Y16576643D01*
X102320664Y16786458D01*
X101710540Y16760839D01*
X101265852Y16576643D01*
X101179446Y16320159D01*
X97721959Y16320159D01*
X98737319Y17335519D01*
X105394777Y17335519D01*
X105589995Y16863057D01*
X105951155Y16501265D01*
X106423276Y16305223D01*
X106934481Y16304777D01*
X107406943Y16499995D01*
X107768735Y16861155D01*
X107964777Y17333276D01*
X107965223Y17844481D01*
X107770005Y18316943D01*
X107408845Y18678735D01*
X106936724Y18874777D01*
X106425519Y18875223D01*
X105953057Y18680005D01*
X105591265Y18318845D01*
X105395223Y17846724D01*
X105394777Y17335519D01*
X98737319Y17335519D01*
X102580178Y21178378D01*
X102643357Y21025852D01*
X102899841Y20939446D01*
X103800395Y21840000D01*
X103786253Y21854143D01*
X103965858Y22033748D01*
X103980000Y22019605D01*
X103994143Y22033748D01*
X104173748Y21854143D01*
X104173748Y21854143D01*
G37*
X104173748Y21854143D02*
X104159605Y21840000D01*
X104173748Y21825858D01*
X103994143Y21646253D01*
X103980000Y21660395D01*
X103079446Y20759841D01*
X103165852Y20503357D01*
X103739336Y20293542D01*
X104349460Y20319161D01*
X104794148Y20503357D01*
X104815490Y20566708D01*
X106234599Y19147599D01*
X106481160Y18982852D01*
X106772000Y18925000D01*
X107387537Y18925000D01*
X107419673Y18892808D01*
X107763201Y18750162D01*
X108135167Y18749838D01*
X108478943Y18891883D01*
X108620000Y19032694D01*
X108620000Y14869804D01*
X108375197Y14625001D01*
X106211999Y14625001D01*
X105921159Y14567149D01*
X105674598Y14402402D01*
X102332599Y11060403D01*
X102167852Y10813841D01*
X102110000Y10523002D01*
X102110000Y10089802D01*
X101502401Y10697401D01*
X101255839Y10862148D01*
X100965000Y10920000D01*
X97717463Y10920000D01*
X97685327Y10952192D01*
X97341799Y11094838D01*
X96969833Y11095162D01*
X96626057Y10953117D01*
X96362808Y10690327D01*
X96220162Y10346799D01*
X96219838Y9974833D01*
X96361883Y9631057D01*
X96624673Y9367808D01*
X96968201Y9225162D01*
X97340167Y9224838D01*
X97683943Y9366883D01*
X97717118Y9400000D01*
X100650198Y9400000D01*
X102110000Y7940198D01*
X102110000Y7657462D01*
X102022220Y7621192D01*
X101600290Y7199997D01*
X101583459Y7159463D01*
X101383805Y7224200D01*
X100509605Y6350000D01*
X101383805Y5475800D01*
X101583033Y5540399D01*
X101598808Y5502220D01*
X102020003Y5080290D01*
X102020931Y5079905D01*
X101600290Y4659997D01*
X101583459Y4619463D01*
X101383805Y4684200D01*
X100509605Y3810000D01*
X100523748Y3795858D01*
X100344143Y3616253D01*
X100330000Y3630395D01*
X100315858Y3616253D01*
X100136253Y3795858D01*
X100150395Y3810000D01*
X99276195Y4684200D01*
X99076967Y4619601D01*
X99061192Y4657780D01*
X98639997Y5079710D01*
X98639069Y5080095D01*
X98855546Y5296195D01*
X99455800Y5296195D01*
X99525901Y5080000D01*
X99455800Y4863805D01*
X100330000Y3989605D01*
X101204200Y4863805D01*
X101134099Y5080000D01*
X101204200Y5296195D01*
X100330000Y6170395D01*
X99455800Y5296195D01*
X98855546Y5296195D01*
X99059710Y5500003D01*
X99076541Y5540537D01*
X99276195Y5475800D01*
X100150395Y6350000D01*
X99276195Y7224200D01*
X99076967Y7159601D01*
X99061192Y7197780D01*
X98855526Y7403805D01*
X99455800Y7403805D01*
X100330000Y6529605D01*
X101204200Y7403805D01*
X101122259Y7656516D01*
X100561970Y7860248D01*
X99966365Y7834058D01*
X99537741Y7656516D01*
X99455800Y7403805D01*
X98855526Y7403805D01*
X98639997Y7619710D01*
X98089398Y7848339D01*
X97493218Y7848859D01*
X96942220Y7621192D01*
X96520290Y7199997D01*
X96519905Y7199069D01*
X96099997Y7619710D01*
X95549398Y7848339D01*
X94953218Y7848859D01*
X94402220Y7621192D01*
X93980290Y7199997D01*
X93979905Y7199069D01*
X93559997Y7619710D01*
X93009398Y7848339D01*
X92413218Y7848859D01*
X92323156Y7811646D01*
X89691401Y10443401D01*
X89444839Y10608148D01*
X89154000Y10666000D01*
X85025213Y10666000D01*
X84543802Y11147412D01*
X84297240Y11312159D01*
X84006401Y11370011D01*
X79204064Y11370011D01*
X79216431Y11388110D01*
X79267440Y11640000D01*
X79267440Y13440000D01*
X79223162Y13675317D01*
X79084090Y13891441D01*
X78871890Y14036431D01*
X78718216Y14067551D01*
X78810667Y14159841D01*
X101179446Y14159841D01*
X101265852Y13903357D01*
X101839336Y13693542D01*
X102449460Y13719161D01*
X102894148Y13903357D01*
X102980554Y14159841D01*
X102080000Y15060395D01*
X101179446Y14159841D01*
X78810667Y14159841D01*
X79020551Y14369357D01*
X79066494Y14480000D01*
X95566998Y14480000D01*
X95857837Y14537852D01*
X96104399Y14702599D01*
X96882464Y15480664D01*
X100533542Y15480664D01*
X100559161Y14870540D01*
X100743357Y14425852D01*
X100999841Y14339446D01*
X101900395Y15240000D01*
X102259605Y15240000D01*
X103160159Y14339446D01*
X103416643Y14425852D01*
X103626458Y14999336D01*
X103600839Y15609460D01*
X103416643Y16054148D01*
X103160159Y16140554D01*
X102259605Y15240000D01*
X101900395Y15240000D01*
X100999841Y16140554D01*
X100743357Y16054148D01*
X100533542Y15480664D01*
X96882464Y15480664D01*
X97721959Y16320159D01*
X101179446Y16320159D01*
X102080000Y15419605D01*
X102980554Y16320159D01*
X102894148Y16576643D01*
X102320664Y16786458D01*
X101710540Y16760839D01*
X101265852Y16576643D01*
X101179446Y16320159D01*
X97721959Y16320159D01*
X98737319Y17335519D01*
X105394777Y17335519D01*
X105589995Y16863057D01*
X105951155Y16501265D01*
X106423276Y16305223D01*
X106934481Y16304777D01*
X107406943Y16499995D01*
X107768735Y16861155D01*
X107964777Y17333276D01*
X107965223Y17844481D01*
X107770005Y18316943D01*
X107408845Y18678735D01*
X106936724Y18874777D01*
X106425519Y18875223D01*
X105953057Y18680005D01*
X105591265Y18318845D01*
X105395223Y17846724D01*
X105394777Y17335519D01*
X98737319Y17335519D01*
X102580178Y21178378D01*
X102643357Y21025852D01*
X102899841Y20939446D01*
X103800395Y21840000D01*
X103786253Y21854143D01*
X103965858Y22033748D01*
X103980000Y22019605D01*
X103994143Y22033748D01*
X104173748Y21854143D01*
G36*
X51740345Y11512707D02*
X51333464Y10532827D01*
X51332538Y9471828D01*
X51737709Y8491239D01*
X52386630Y7841183D01*
X52369398Y7848339D01*
X51773218Y7848859D01*
X51222220Y7621192D01*
X50800290Y7199997D01*
X50571661Y6649398D01*
X50571309Y6246401D01*
X45033556Y6246401D01*
X45242192Y6454673D01*
X45384838Y6798201D01*
X45385162Y7170167D01*
X45243117Y7513943D01*
X44980327Y7777192D01*
X44636799Y7919838D01*
X44589923Y7919879D01*
X42754400Y9755402D01*
X42844838Y9973201D01*
X42844883Y10025001D01*
X43424001Y10025001D01*
X43714840Y10082853D01*
X43961402Y10247600D01*
X44256073Y10542271D01*
X44221661Y10459398D01*
X44221141Y9863218D01*
X44448808Y9312220D01*
X44870003Y8890290D01*
X45420602Y8661661D01*
X46016782Y8661141D01*
X46567780Y8888808D01*
X46989710Y9310003D01*
X46990095Y9310931D01*
X47410003Y8890290D01*
X47960602Y8661661D01*
X48556782Y8661141D01*
X49107780Y8888808D01*
X49529710Y9310003D01*
X49758339Y9860602D01*
X49758859Y10456782D01*
X49531192Y11007780D01*
X49109997Y11429710D01*
X48707116Y11597001D01*
X51824786Y11597001D01*
X51740345Y11512707D01*
X51740345Y11512707D01*
G37*
X51740345Y11512707D02*
X51333464Y10532827D01*
X51332538Y9471828D01*
X51737709Y8491239D01*
X52386630Y7841183D01*
X52369398Y7848339D01*
X51773218Y7848859D01*
X51222220Y7621192D01*
X50800290Y7199997D01*
X50571661Y6649398D01*
X50571309Y6246401D01*
X45033556Y6246401D01*
X45242192Y6454673D01*
X45384838Y6798201D01*
X45385162Y7170167D01*
X45243117Y7513943D01*
X44980327Y7777192D01*
X44636799Y7919838D01*
X44589923Y7919879D01*
X42754400Y9755402D01*
X42844838Y9973201D01*
X42844883Y10025001D01*
X43424001Y10025001D01*
X43714840Y10082853D01*
X43961402Y10247600D01*
X44256073Y10542271D01*
X44221661Y10459398D01*
X44221141Y9863218D01*
X44448808Y9312220D01*
X44870003Y8890290D01*
X45420602Y8661661D01*
X46016782Y8661141D01*
X46567780Y8888808D01*
X46989710Y9310003D01*
X46990095Y9310931D01*
X47410003Y8890290D01*
X47960602Y8661661D01*
X48556782Y8661141D01*
X49107780Y8888808D01*
X49529710Y9310003D01*
X49758339Y9860602D01*
X49758859Y10456782D01*
X49531192Y11007780D01*
X49109997Y11429710D01*
X48707116Y11597001D01*
X51824786Y11597001D01*
X51740345Y11512707D01*
G36*
X34274777Y12635519D02*
X34469995Y12163057D01*
X34691113Y11941552D01*
X34259449Y11510643D01*
X34025267Y10946670D01*
X34024735Y10336009D01*
X34257932Y9771629D01*
X34689357Y9339449D01*
X35253330Y9105267D01*
X35863991Y9104735D01*
X36428371Y9337932D01*
X36860551Y9769357D01*
X36906494Y9880000D01*
X41014022Y9880000D01*
X41116883Y9631057D01*
X41150000Y9597882D01*
X41150000Y9525000D01*
X41207852Y9234161D01*
X41372599Y8987599D01*
X43250198Y7110000D01*
X34604802Y7110000D01*
X33780000Y7934802D01*
X33780000Y12385198D01*
X34274990Y12880188D01*
X34274777Y12635519D01*
X34274777Y12635519D01*
G37*
X34274777Y12635519D02*
X34469995Y12163057D01*
X34691113Y11941552D01*
X34259449Y11510643D01*
X34025267Y10946670D01*
X34024735Y10336009D01*
X34257932Y9771629D01*
X34689357Y9339449D01*
X35253330Y9105267D01*
X35863991Y9104735D01*
X36428371Y9337932D01*
X36860551Y9769357D01*
X36906494Y9880000D01*
X41014022Y9880000D01*
X41116883Y9631057D01*
X41150000Y9597882D01*
X41150000Y9525000D01*
X41207852Y9234161D01*
X41372599Y8987599D01*
X43250198Y7110000D01*
X34604802Y7110000D01*
X33780000Y7934802D01*
X33780000Y12385198D01*
X34274990Y12880188D01*
X34274777Y12635519D01*
G36*
X70031265Y18318845D02*
X69835223Y17846724D01*
X69834777Y17335519D01*
X70029995Y16863057D01*
X70391155Y16501265D01*
X70863276Y16305223D01*
X71374481Y16304777D01*
X71846943Y16499995D01*
X72208735Y16861155D01*
X72404777Y17333276D01*
X72405223Y17844481D01*
X72210005Y18316943D01*
X72147057Y18380001D01*
X72620197Y18380001D01*
X74678000Y16322198D01*
X74678000Y12756802D01*
X74420000Y13014802D01*
X74420000Y13407537D01*
X74452192Y13439673D01*
X74594838Y13783201D01*
X74595162Y14155167D01*
X74453117Y14498943D01*
X74190327Y14762192D01*
X73846799Y14904838D01*
X73474833Y14905162D01*
X73131057Y14763117D01*
X73097882Y14730000D01*
X69850000Y14730000D01*
X69559160Y14672148D01*
X69312599Y14507401D01*
X68265198Y13460000D01*
X65084802Y13460000D01*
X64384961Y14159841D01*
X65619446Y14159841D01*
X65705852Y13903357D01*
X66279336Y13693542D01*
X66889460Y13719161D01*
X67334148Y13903357D01*
X67420554Y14159841D01*
X66520000Y15060395D01*
X65619446Y14159841D01*
X64384961Y14159841D01*
X63165122Y15379680D01*
X63165162Y15425167D01*
X63142232Y15480664D01*
X64973542Y15480664D01*
X64999161Y14870540D01*
X65183357Y14425852D01*
X65439841Y14339446D01*
X66340395Y15240000D01*
X66699605Y15240000D01*
X67600159Y14339446D01*
X67856643Y14425852D01*
X68066458Y14999336D01*
X68040839Y15609460D01*
X67856643Y16054148D01*
X67600159Y16140554D01*
X66699605Y15240000D01*
X66340395Y15240000D01*
X65439841Y16140554D01*
X65183357Y16054148D01*
X64973542Y15480664D01*
X63142232Y15480664D01*
X63023117Y15768943D01*
X62760327Y16032192D01*
X62416799Y16174838D01*
X62044833Y16175162D01*
X61701057Y16033117D01*
X61437808Y15770327D01*
X61295162Y15426799D01*
X61294838Y15054833D01*
X61436883Y14711057D01*
X61699673Y14447808D01*
X62043201Y14305162D01*
X62090077Y14305121D01*
X63278197Y13117001D01*
X44996001Y13117001D01*
X44705162Y13059149D01*
X44458600Y12894402D01*
X43707440Y12143242D01*
X43707440Y13440000D01*
X43663162Y13675317D01*
X43524090Y13891441D01*
X43311890Y14036431D01*
X43158216Y14067551D01*
X43460551Y14369357D01*
X43694733Y14933330D01*
X43695265Y15543991D01*
X43649515Y15654713D01*
X44314961Y16320159D01*
X65619446Y16320159D01*
X66520000Y15419605D01*
X67420554Y16320159D01*
X67334148Y16576643D01*
X66760664Y16786458D01*
X66150540Y16760839D01*
X65705852Y16576643D01*
X65619446Y16320159D01*
X44314961Y16320159D01*
X45268802Y17274000D01*
X67890537Y17274000D01*
X67922673Y17241808D01*
X68266201Y17099162D01*
X68638167Y17098838D01*
X68981943Y17240883D01*
X69245192Y17503673D01*
X69387838Y17847201D01*
X69388162Y18219167D01*
X69321707Y18380001D01*
X70092528Y18380001D01*
X70031265Y18318845D01*
X70031265Y18318845D01*
G37*
X70031265Y18318845D02*
X69835223Y17846724D01*
X69834777Y17335519D01*
X70029995Y16863057D01*
X70391155Y16501265D01*
X70863276Y16305223D01*
X71374481Y16304777D01*
X71846943Y16499995D01*
X72208735Y16861155D01*
X72404777Y17333276D01*
X72405223Y17844481D01*
X72210005Y18316943D01*
X72147057Y18380001D01*
X72620197Y18380001D01*
X74678000Y16322198D01*
X74678000Y12756802D01*
X74420000Y13014802D01*
X74420000Y13407537D01*
X74452192Y13439673D01*
X74594838Y13783201D01*
X74595162Y14155167D01*
X74453117Y14498943D01*
X74190327Y14762192D01*
X73846799Y14904838D01*
X73474833Y14905162D01*
X73131057Y14763117D01*
X73097882Y14730000D01*
X69850000Y14730000D01*
X69559160Y14672148D01*
X69312599Y14507401D01*
X68265198Y13460000D01*
X65084802Y13460000D01*
X64384961Y14159841D01*
X65619446Y14159841D01*
X65705852Y13903357D01*
X66279336Y13693542D01*
X66889460Y13719161D01*
X67334148Y13903357D01*
X67420554Y14159841D01*
X66520000Y15060395D01*
X65619446Y14159841D01*
X64384961Y14159841D01*
X63165122Y15379680D01*
X63165162Y15425167D01*
X63142232Y15480664D01*
X64973542Y15480664D01*
X64999161Y14870540D01*
X65183357Y14425852D01*
X65439841Y14339446D01*
X66340395Y15240000D01*
X66699605Y15240000D01*
X67600159Y14339446D01*
X67856643Y14425852D01*
X68066458Y14999336D01*
X68040839Y15609460D01*
X67856643Y16054148D01*
X67600159Y16140554D01*
X66699605Y15240000D01*
X66340395Y15240000D01*
X65439841Y16140554D01*
X65183357Y16054148D01*
X64973542Y15480664D01*
X63142232Y15480664D01*
X63023117Y15768943D01*
X62760327Y16032192D01*
X62416799Y16174838D01*
X62044833Y16175162D01*
X61701057Y16033117D01*
X61437808Y15770327D01*
X61295162Y15426799D01*
X61294838Y15054833D01*
X61436883Y14711057D01*
X61699673Y14447808D01*
X62043201Y14305162D01*
X62090077Y14305121D01*
X63278197Y13117001D01*
X44996001Y13117001D01*
X44705162Y13059149D01*
X44458600Y12894402D01*
X43707440Y12143242D01*
X43707440Y13440000D01*
X43663162Y13675317D01*
X43524090Y13891441D01*
X43311890Y14036431D01*
X43158216Y14067551D01*
X43460551Y14369357D01*
X43694733Y14933330D01*
X43695265Y15543991D01*
X43649515Y15654713D01*
X44314961Y16320159D01*
X65619446Y16320159D01*
X66520000Y15419605D01*
X67420554Y16320159D01*
X67334148Y16576643D01*
X66760664Y16786458D01*
X66150540Y16760839D01*
X65705852Y16576643D01*
X65619446Y16320159D01*
X44314961Y16320159D01*
X45268802Y17274000D01*
X67890537Y17274000D01*
X67922673Y17241808D01*
X68266201Y17099162D01*
X68638167Y17098838D01*
X68981943Y17240883D01*
X69245192Y17503673D01*
X69387838Y17847201D01*
X69388162Y18219167D01*
X69321707Y18380001D01*
X70092528Y18380001D01*
X70031265Y18318845D01*
M02*
