G04 #@! TF.FileFunction,Soldermask,Top*
%FSLAX46Y46*%
G04 Gerber Fmt 4.6, Leading zero omitted, Abs format (unit mm)*
G04 Created by KiCad (PCBNEW 4.0.4-stable) date 06/07/17 13:37:54*
%MOMM*%
%LPD*%
G01*
G04 APERTURE LIST*
%ADD10C,0.100000*%
%ADD11R,0.500000X0.900000*%
%ADD12C,4.064000*%
%ADD13R,1.800000X1.800000*%
%ADD14C,1.800000*%
%ADD15C,1.300000*%
%ADD16C,2.540000*%
%ADD17C,3.100000*%
%ADD18C,1.600000*%
%ADD19R,0.600000X1.500000*%
%ADD20C,1.727200*%
%ADD21R,0.750000X0.800000*%
%ADD22R,0.900000X0.500000*%
%ADD23R,0.550000X1.500000*%
%ADD24R,0.800000X0.750000*%
G04 APERTURE END LIST*
D10*
D11*
X57035000Y45720000D03*
X58535000Y45720000D03*
D12*
X54000000Y10000000D03*
D13*
X77720000Y12540000D03*
D14*
X77720000Y15240000D03*
X77720000Y17915000D03*
X73820000Y21840000D03*
X71120000Y21840000D03*
X68420000Y21840000D03*
X66520000Y15240000D03*
X71120000Y10640000D03*
D15*
X71120000Y17590000D03*
X71120000Y12890000D03*
D16*
X157480000Y45720000D03*
D12*
X156500000Y40000000D03*
X156500000Y10000000D03*
D16*
X157480000Y5080000D03*
X2540000Y45720000D03*
D12*
X3500000Y40000000D03*
D17*
X124460000Y34874200D03*
X124460000Y26085800D03*
D18*
X117449600Y32980000D03*
X117449600Y30480000D03*
X117449600Y27980000D03*
D17*
X106680000Y34874200D03*
X106680000Y26085800D03*
D18*
X99669600Y32980000D03*
X99669600Y30480000D03*
X99669600Y27980000D03*
D17*
X71120000Y34874200D03*
X71120000Y26085800D03*
D18*
X64109600Y32980000D03*
X64109600Y30480000D03*
X64109600Y27980000D03*
D17*
X53340000Y34874200D03*
X53340000Y26085800D03*
D18*
X46329600Y32980000D03*
X46329600Y30480000D03*
X46329600Y27980000D03*
D17*
X35560000Y34874200D03*
X35560000Y26085800D03*
D18*
X28549600Y32980000D03*
X28549600Y30480000D03*
X28549600Y27980000D03*
D17*
X17780000Y34874200D03*
X17780000Y26085800D03*
D18*
X10769600Y32980000D03*
X10769600Y30480000D03*
X10769600Y27980000D03*
D17*
X142240000Y34874200D03*
X142240000Y26085800D03*
D18*
X135229600Y32980000D03*
X135229600Y30480000D03*
X135229600Y27980000D03*
D17*
X88900000Y34874200D03*
X88900000Y26085800D03*
D18*
X81889600Y32980000D03*
X81889600Y30480000D03*
X81889600Y27980000D03*
D12*
X54000000Y40000000D03*
X3500000Y10000000D03*
D19*
X128905000Y12640000D03*
X128905000Y17840000D03*
X127635000Y12640000D03*
X127635000Y17840000D03*
X126365000Y12640000D03*
X126365000Y17840000D03*
X125095000Y12640000D03*
X125095000Y17840000D03*
X123825000Y12640000D03*
X123825000Y17840000D03*
X122555000Y12640000D03*
X122555000Y17840000D03*
X121285000Y12640000D03*
X121285000Y17840000D03*
X120015000Y12640000D03*
X120015000Y17840000D03*
X93345000Y12640000D03*
X93345000Y17840000D03*
X92075000Y12640000D03*
X92075000Y17840000D03*
X90805000Y12640000D03*
X90805000Y17840000D03*
X89535000Y12640000D03*
X89535000Y17840000D03*
X88265000Y12640000D03*
X88265000Y17840000D03*
X86995000Y12640000D03*
X86995000Y17840000D03*
X85725000Y12640000D03*
X85725000Y17840000D03*
X84455000Y12640000D03*
X84455000Y17840000D03*
D13*
X42160000Y12540000D03*
D14*
X42160000Y15240000D03*
X42160000Y17915000D03*
X38260000Y21840000D03*
X35560000Y21840000D03*
X32860000Y21840000D03*
X30960000Y15240000D03*
X35560000Y10640000D03*
D15*
X35560000Y17590000D03*
X35560000Y12890000D03*
D20*
X52070000Y3810000D03*
X54610000Y3810000D03*
X57150000Y3810000D03*
X59690000Y3810000D03*
X62230000Y3810000D03*
X64770000Y3810000D03*
X67310000Y3810000D03*
X69850000Y3810000D03*
X72390000Y3810000D03*
X74930000Y3810000D03*
X77470000Y3810000D03*
X80010000Y3810000D03*
X82550000Y3810000D03*
X85090000Y3810000D03*
X87630000Y3810000D03*
X90170000Y3810000D03*
X92710000Y3810000D03*
X95250000Y3810000D03*
X97790000Y3810000D03*
X100330000Y3810000D03*
X102870000Y3810000D03*
X105410000Y3810000D03*
X107950000Y3810000D03*
X110490000Y3810000D03*
X113030000Y3810000D03*
X115570000Y3810000D03*
X118110000Y3810000D03*
X120650000Y3810000D03*
X123190000Y3810000D03*
X125730000Y3810000D03*
X128270000Y3810000D03*
X130810000Y3810000D03*
X133350000Y3810000D03*
X135890000Y3810000D03*
X138430000Y3810000D03*
X140970000Y3810000D03*
X143510000Y3810000D03*
X146050000Y3810000D03*
X148590000Y3810000D03*
X151130000Y3810000D03*
X59690000Y3810000D03*
X52070000Y3810000D03*
X54610000Y3810000D03*
X57150000Y3810000D03*
X62230000Y3810000D03*
X72390000Y3810000D03*
X64770000Y3810000D03*
X67310000Y3810000D03*
X69850000Y3810000D03*
X74930000Y3810000D03*
X85090000Y3810000D03*
X77470000Y3810000D03*
X80010000Y3810000D03*
X82550000Y3810000D03*
X87630000Y3810000D03*
X97790000Y3810000D03*
X90170000Y3810000D03*
X92710000Y3810000D03*
X95250000Y3810000D03*
X100330000Y3810000D03*
X110490000Y3810000D03*
X102870000Y3810000D03*
X105410000Y3810000D03*
X107950000Y3810000D03*
X113030000Y3810000D03*
X123190000Y3810000D03*
X115570000Y3810000D03*
X118110000Y3810000D03*
X120650000Y3810000D03*
X125730000Y3810000D03*
X135890000Y3810000D03*
X128270000Y3810000D03*
X130810000Y3810000D03*
X133350000Y3810000D03*
X138430000Y3810000D03*
X148590000Y3810000D03*
X140970000Y3810000D03*
X143510000Y3810000D03*
X146050000Y3810000D03*
X151130000Y3810000D03*
X59690000Y3810000D03*
X52070000Y3810000D03*
X54610000Y3810000D03*
X57150000Y3810000D03*
X62230000Y3810000D03*
X72390000Y3810000D03*
X64770000Y3810000D03*
X67310000Y3810000D03*
X69850000Y3810000D03*
X74930000Y3810000D03*
X85090000Y3810000D03*
X77470000Y3810000D03*
X80010000Y3810000D03*
X82550000Y3810000D03*
X87630000Y3810000D03*
X97790000Y3810000D03*
X90170000Y3810000D03*
X92710000Y3810000D03*
X95250000Y3810000D03*
X100330000Y3810000D03*
X110490000Y3810000D03*
X102870000Y3810000D03*
X105410000Y3810000D03*
X107950000Y3810000D03*
X113030000Y3810000D03*
X123190000Y3810000D03*
X115570000Y3810000D03*
X118110000Y3810000D03*
X120650000Y3810000D03*
X125730000Y3810000D03*
X135890000Y3810000D03*
X128270000Y3810000D03*
X130810000Y3810000D03*
X133350000Y3810000D03*
X138430000Y3810000D03*
X148590000Y3810000D03*
X140970000Y3810000D03*
X143510000Y3810000D03*
X146050000Y3810000D03*
X151130000Y3810000D03*
X133350000Y6350000D03*
X133350000Y6350000D03*
X135890000Y6350000D03*
X135890000Y6350000D03*
X133350000Y6350000D03*
X146050000Y6350000D03*
X146050000Y6350000D03*
X148590000Y6350000D03*
X148590000Y6350000D03*
X146050000Y6350000D03*
X128270000Y6350000D03*
X128270000Y6350000D03*
X130810000Y6350000D03*
X128270000Y6350000D03*
X130810000Y6350000D03*
X130810000Y6350000D03*
X140970000Y6350000D03*
X140970000Y6350000D03*
X143510000Y6350000D03*
X140970000Y6350000D03*
X143510000Y6350000D03*
X143510000Y6350000D03*
X135890000Y6350000D03*
X138430000Y6350000D03*
X138430000Y6350000D03*
X138430000Y6350000D03*
X148590000Y6350000D03*
X151130000Y6350000D03*
X151130000Y6350000D03*
X151130000Y6350000D03*
X82550000Y6350000D03*
X82550000Y6350000D03*
X85090000Y6350000D03*
X85090000Y6350000D03*
X82550000Y6350000D03*
X95250000Y6350000D03*
X95250000Y6350000D03*
X97790000Y6350000D03*
X97790000Y6350000D03*
X95250000Y6350000D03*
X77470000Y6350000D03*
X77470000Y6350000D03*
X80010000Y6350000D03*
X77470000Y6350000D03*
X80010000Y6350000D03*
X80010000Y6350000D03*
X90170000Y6350000D03*
X90170000Y6350000D03*
X92710000Y6350000D03*
X90170000Y6350000D03*
X92710000Y6350000D03*
X92710000Y6350000D03*
X85090000Y6350000D03*
X87630000Y6350000D03*
X87630000Y6350000D03*
X87630000Y6350000D03*
X97790000Y6350000D03*
X100330000Y6350000D03*
X100330000Y6350000D03*
X100330000Y6350000D03*
X57150000Y6350000D03*
X57150000Y6350000D03*
X59690000Y6350000D03*
X59690000Y6350000D03*
X57150000Y6350000D03*
X69850000Y6350000D03*
X69850000Y6350000D03*
X72390000Y6350000D03*
X72390000Y6350000D03*
X69850000Y6350000D03*
X52070000Y6350000D03*
X52070000Y6350000D03*
X54610000Y6350000D03*
X52070000Y6350000D03*
X54610000Y6350000D03*
X54610000Y6350000D03*
X64770000Y6350000D03*
X64770000Y6350000D03*
X67310000Y6350000D03*
X64770000Y6350000D03*
X67310000Y6350000D03*
X67310000Y6350000D03*
X59690000Y6350000D03*
X62230000Y6350000D03*
X62230000Y6350000D03*
X62230000Y6350000D03*
X72390000Y6350000D03*
X74930000Y6350000D03*
X74930000Y6350000D03*
X74930000Y6350000D03*
X107950000Y6350000D03*
X107950000Y6350000D03*
X110490000Y6350000D03*
X110490000Y6350000D03*
X107950000Y6350000D03*
X120650000Y6350000D03*
X120650000Y6350000D03*
X123190000Y6350000D03*
X123190000Y6350000D03*
X120650000Y6350000D03*
X102870000Y6350000D03*
X102870000Y6350000D03*
X105410000Y6350000D03*
X102870000Y6350000D03*
X105410000Y6350000D03*
X105410000Y6350000D03*
X115570000Y6350000D03*
X115570000Y6350000D03*
X118110000Y6350000D03*
X115570000Y6350000D03*
X118110000Y6350000D03*
X118110000Y6350000D03*
X110490000Y6350000D03*
X113030000Y6350000D03*
X113030000Y6350000D03*
X113030000Y6350000D03*
X123190000Y6350000D03*
X125730000Y6350000D03*
X125730000Y6350000D03*
X125730000Y6350000D03*
D21*
X60325000Y17792000D03*
X60325000Y19292000D03*
D22*
X5080000Y33540000D03*
X5080000Y35040000D03*
D11*
X55360000Y45720000D03*
X53860000Y45720000D03*
X107200000Y43180000D03*
X108700000Y43180000D03*
D22*
X48260000Y13450000D03*
X48260000Y11950000D03*
X2540000Y33540000D03*
X2540000Y35040000D03*
D11*
X107200000Y45720000D03*
X108700000Y45720000D03*
D22*
X45720000Y13450000D03*
X45720000Y11950000D03*
D23*
X57785000Y16350000D03*
X57785000Y21750000D03*
X56515000Y16350000D03*
X56515000Y21750000D03*
X55245000Y16350000D03*
X55245000Y21750000D03*
X53975000Y16350000D03*
X53975000Y21750000D03*
X52705000Y16350000D03*
X52705000Y21750000D03*
X51435000Y16350000D03*
X51435000Y21750000D03*
X50165000Y16350000D03*
X50165000Y21750000D03*
X48895000Y16350000D03*
X48895000Y21750000D03*
D14*
X10160000Y38100000D03*
X10160000Y40640000D03*
X10160000Y43180000D03*
X10160000Y45720000D03*
X60960000Y38100000D03*
X60960000Y40640000D03*
X60960000Y43180000D03*
X60960000Y45720000D03*
X111760000Y38100000D03*
X111760000Y40640000D03*
X111760000Y43180000D03*
X111760000Y45720000D03*
D22*
X58420000Y11950000D03*
X58420000Y13450000D03*
X60960000Y11950000D03*
X60960000Y13450000D03*
X60325000Y22872000D03*
X60325000Y24372000D03*
D21*
X132080000Y16105000D03*
X132080000Y14605000D03*
D24*
X95770000Y12700000D03*
X97270000Y12700000D03*
D13*
X113280000Y12540000D03*
D14*
X113280000Y15240000D03*
X113280000Y17915000D03*
X109380000Y21840000D03*
X106680000Y21840000D03*
X103980000Y21840000D03*
X102080000Y15240000D03*
X106680000Y10640000D03*
D15*
X106680000Y17590000D03*
X106680000Y12890000D03*
D13*
X148840000Y12540000D03*
D14*
X148840000Y15240000D03*
X148840000Y17915000D03*
X144940000Y21840000D03*
X142240000Y21840000D03*
X139540000Y21840000D03*
X137640000Y15240000D03*
X142240000Y10640000D03*
D15*
X142240000Y17590000D03*
X142240000Y12890000D03*
D17*
X17780000Y19634200D03*
X17780000Y10845800D03*
D18*
X10769600Y17740000D03*
X10769600Y15240000D03*
X10769600Y12740000D03*
D20*
X48260000Y10160000D03*
X45720000Y10160000D03*
M02*
