G04 #@! TF.FileFunction,Legend,Bot*
%FSLAX46Y46*%
G04 Gerber Fmt 4.6, Leading zero omitted, Abs format (unit mm)*
G04 Created by KiCad (PCBNEW 4.0.4-stable) date 06/07/17 13:37:54*
%MOMM*%
%LPD*%
G01*
G04 APERTURE LIST*
%ADD10C,0.100000*%
%ADD11C,0.150000*%
G04 APERTURE END LIST*
D10*
D11*
X154047857Y46988571D02*
X153933571Y46988571D01*
X153876429Y46960000D01*
X153819286Y46902857D01*
X153790714Y46788571D01*
X153790714Y46588571D01*
X153819286Y46474286D01*
X153876429Y46417143D01*
X153933571Y46388571D01*
X154047857Y46388571D01*
X154105000Y46417143D01*
X154162143Y46474286D01*
X154190714Y46588571D01*
X154190714Y46788571D01*
X154162143Y46902857D01*
X154105000Y46960000D01*
X154047857Y46988571D01*
X153533572Y46788571D02*
X153533572Y46188571D01*
X153533572Y46760000D02*
X153476429Y46788571D01*
X153362143Y46788571D01*
X153305000Y46760000D01*
X153276429Y46731429D01*
X153247858Y46674286D01*
X153247858Y46502857D01*
X153276429Y46445714D01*
X153305000Y46417143D01*
X153362143Y46388571D01*
X153476429Y46388571D01*
X153533572Y46417143D01*
X152762143Y46417143D02*
X152819286Y46388571D01*
X152933572Y46388571D01*
X152990715Y46417143D01*
X153019286Y46474286D01*
X153019286Y46702857D01*
X152990715Y46760000D01*
X152933572Y46788571D01*
X152819286Y46788571D01*
X152762143Y46760000D01*
X152733572Y46702857D01*
X152733572Y46645714D01*
X153019286Y46588571D01*
X152476429Y46788571D02*
X152476429Y46388571D01*
X152476429Y46731429D02*
X152447857Y46760000D01*
X152390715Y46788571D01*
X152305000Y46788571D01*
X152247857Y46760000D01*
X152219286Y46702857D01*
X152219286Y46388571D01*
X151505000Y46417143D02*
X151447857Y46388571D01*
X151333572Y46388571D01*
X151276429Y46417143D01*
X151247857Y46474286D01*
X151247857Y46502857D01*
X151276429Y46560000D01*
X151333572Y46588571D01*
X151419286Y46588571D01*
X151476429Y46617143D01*
X151505000Y46674286D01*
X151505000Y46702857D01*
X151476429Y46760000D01*
X151419286Y46788571D01*
X151333572Y46788571D01*
X151276429Y46760000D01*
X150905001Y46388571D02*
X150962143Y46417143D01*
X150990715Y46445714D01*
X151019286Y46502857D01*
X151019286Y46674286D01*
X150990715Y46731429D01*
X150962143Y46760000D01*
X150905001Y46788571D01*
X150819286Y46788571D01*
X150762143Y46760000D01*
X150733572Y46731429D01*
X150705001Y46674286D01*
X150705001Y46502857D01*
X150733572Y46445714D01*
X150762143Y46417143D01*
X150819286Y46388571D01*
X150905001Y46388571D01*
X150190715Y46788571D02*
X150190715Y46388571D01*
X150447858Y46788571D02*
X150447858Y46474286D01*
X150419286Y46417143D01*
X150362144Y46388571D01*
X150276429Y46388571D01*
X150219286Y46417143D01*
X150190715Y46445714D01*
X149905001Y46388571D02*
X149905001Y46788571D01*
X149905001Y46674286D02*
X149876429Y46731429D01*
X149847858Y46760000D01*
X149790715Y46788571D01*
X149733572Y46788571D01*
X149276429Y46417143D02*
X149333572Y46388571D01*
X149447858Y46388571D01*
X149505000Y46417143D01*
X149533572Y46445714D01*
X149562143Y46502857D01*
X149562143Y46674286D01*
X149533572Y46731429D01*
X149505000Y46760000D01*
X149447858Y46788571D01*
X149333572Y46788571D01*
X149276429Y46760000D01*
X148790714Y46417143D02*
X148847857Y46388571D01*
X148962143Y46388571D01*
X149019286Y46417143D01*
X149047857Y46474286D01*
X149047857Y46702857D01*
X149019286Y46760000D01*
X148962143Y46788571D01*
X148847857Y46788571D01*
X148790714Y46760000D01*
X148762143Y46702857D01*
X148762143Y46645714D01*
X149047857Y46588571D01*
X148047857Y46388571D02*
X148047857Y46988571D01*
X147847857Y46560000D01*
X147647857Y46988571D01*
X147647857Y46388571D01*
X147362143Y46388571D02*
X147362143Y46988571D01*
X147162143Y46988571D02*
X146819286Y46988571D01*
X146990715Y46388571D02*
X146990715Y46988571D01*
X146076429Y46388571D02*
X146133571Y46417143D01*
X146162143Y46474286D01*
X146162143Y46988571D01*
X145847857Y46388571D02*
X145847857Y46788571D01*
X145847857Y46988571D02*
X145876428Y46960000D01*
X145847857Y46931429D01*
X145819285Y46960000D01*
X145847857Y46988571D01*
X145847857Y46931429D01*
X145305000Y46417143D02*
X145362143Y46388571D01*
X145476429Y46388571D01*
X145533571Y46417143D01*
X145562143Y46445714D01*
X145590714Y46502857D01*
X145590714Y46674286D01*
X145562143Y46731429D01*
X145533571Y46760000D01*
X145476429Y46788571D01*
X145362143Y46788571D01*
X145305000Y46760000D01*
X144819285Y46417143D02*
X144876428Y46388571D01*
X144990714Y46388571D01*
X145047857Y46417143D01*
X145076428Y46474286D01*
X145076428Y46702857D01*
X145047857Y46760000D01*
X144990714Y46788571D01*
X144876428Y46788571D01*
X144819285Y46760000D01*
X144790714Y46702857D01*
X144790714Y46645714D01*
X145076428Y46588571D01*
X144533571Y46788571D02*
X144533571Y46388571D01*
X144533571Y46731429D02*
X144504999Y46760000D01*
X144447857Y46788571D01*
X144362142Y46788571D01*
X144304999Y46760000D01*
X144276428Y46702857D01*
X144276428Y46388571D01*
X144019285Y46417143D02*
X143962142Y46388571D01*
X143847857Y46388571D01*
X143790714Y46417143D01*
X143762142Y46474286D01*
X143762142Y46502857D01*
X143790714Y46560000D01*
X143847857Y46588571D01*
X143933571Y46588571D01*
X143990714Y46617143D01*
X144019285Y46674286D01*
X144019285Y46702857D01*
X143990714Y46760000D01*
X143933571Y46788571D01*
X143847857Y46788571D01*
X143790714Y46760000D01*
X143276428Y46417143D02*
X143333571Y46388571D01*
X143447857Y46388571D01*
X143505000Y46417143D01*
X143533571Y46474286D01*
X143533571Y46702857D01*
X143505000Y46760000D01*
X143447857Y46788571D01*
X143333571Y46788571D01*
X143276428Y46760000D01*
X143247857Y46702857D01*
X143247857Y46645714D01*
X143533571Y46588571D01*
X142619285Y46788571D02*
X142390714Y46788571D01*
X142533571Y46388571D02*
X142533571Y46902857D01*
X142504999Y46960000D01*
X142447857Y46988571D01*
X142390714Y46988571D01*
X142190714Y46388571D02*
X142190714Y46788571D01*
X142190714Y46988571D02*
X142219285Y46960000D01*
X142190714Y46931429D01*
X142162142Y46960000D01*
X142190714Y46988571D01*
X142190714Y46931429D01*
X141819286Y46388571D02*
X141876428Y46417143D01*
X141905000Y46474286D01*
X141905000Y46988571D01*
X141362142Y46417143D02*
X141419285Y46388571D01*
X141533571Y46388571D01*
X141590714Y46417143D01*
X141619285Y46474286D01*
X141619285Y46702857D01*
X141590714Y46760000D01*
X141533571Y46788571D01*
X141419285Y46788571D01*
X141362142Y46760000D01*
X141333571Y46702857D01*
X141333571Y46645714D01*
X141619285Y46588571D01*
X141104999Y46417143D02*
X141047856Y46388571D01*
X140933571Y46388571D01*
X140876428Y46417143D01*
X140847856Y46474286D01*
X140847856Y46502857D01*
X140876428Y46560000D01*
X140933571Y46588571D01*
X141019285Y46588571D01*
X141076428Y46617143D01*
X141104999Y46674286D01*
X141104999Y46702857D01*
X141076428Y46760000D01*
X141019285Y46788571D01*
X140933571Y46788571D01*
X140876428Y46760000D01*
X139876428Y46388571D02*
X139876428Y46702857D01*
X139904999Y46760000D01*
X139962142Y46788571D01*
X140076428Y46788571D01*
X140133571Y46760000D01*
X139876428Y46417143D02*
X139933571Y46388571D01*
X140076428Y46388571D01*
X140133571Y46417143D01*
X140162142Y46474286D01*
X140162142Y46531429D01*
X140133571Y46588571D01*
X140076428Y46617143D01*
X139933571Y46617143D01*
X139876428Y46645714D01*
X139676428Y46788571D02*
X139447857Y46788571D01*
X139590714Y46988571D02*
X139590714Y46474286D01*
X139562142Y46417143D01*
X139505000Y46388571D01*
X139447857Y46388571D01*
X139247857Y46445714D02*
X139219285Y46417143D01*
X139247857Y46388571D01*
X139276428Y46417143D01*
X139247857Y46445714D01*
X139247857Y46388571D01*
X139247857Y46760000D02*
X139219285Y46731429D01*
X139247857Y46702857D01*
X139276428Y46731429D01*
X139247857Y46760000D01*
X139247857Y46702857D01*
X138247857Y46788571D02*
X138247857Y46302857D01*
X138276428Y46245714D01*
X138305000Y46217143D01*
X138362143Y46188571D01*
X138447857Y46188571D01*
X138505000Y46217143D01*
X138247857Y46417143D02*
X138305000Y46388571D01*
X138419286Y46388571D01*
X138476428Y46417143D01*
X138505000Y46445714D01*
X138533571Y46502857D01*
X138533571Y46674286D01*
X138505000Y46731429D01*
X138476428Y46760000D01*
X138419286Y46788571D01*
X138305000Y46788571D01*
X138247857Y46760000D01*
X137962143Y46388571D02*
X137962143Y46788571D01*
X137962143Y46988571D02*
X137990714Y46960000D01*
X137962143Y46931429D01*
X137933571Y46960000D01*
X137962143Y46988571D01*
X137962143Y46931429D01*
X137762143Y46788571D02*
X137533572Y46788571D01*
X137676429Y46988571D02*
X137676429Y46474286D01*
X137647857Y46417143D01*
X137590715Y46388571D01*
X137533572Y46388571D01*
X137333572Y46388571D02*
X137333572Y46988571D01*
X137076429Y46388571D02*
X137076429Y46702857D01*
X137105000Y46760000D01*
X137162143Y46788571D01*
X137247858Y46788571D01*
X137305000Y46760000D01*
X137333572Y46731429D01*
X136533572Y46788571D02*
X136533572Y46388571D01*
X136790715Y46788571D02*
X136790715Y46474286D01*
X136762143Y46417143D01*
X136705001Y46388571D01*
X136619286Y46388571D01*
X136562143Y46417143D01*
X136533572Y46445714D01*
X136247858Y46388571D02*
X136247858Y46988571D01*
X136247858Y46760000D02*
X136190715Y46788571D01*
X136076429Y46788571D01*
X136019286Y46760000D01*
X135990715Y46731429D01*
X135962144Y46674286D01*
X135962144Y46502857D01*
X135990715Y46445714D01*
X136019286Y46417143D01*
X136076429Y46388571D01*
X136190715Y46388571D01*
X136247858Y46417143D01*
X135705001Y46445714D02*
X135676429Y46417143D01*
X135705001Y46388571D01*
X135733572Y46417143D01*
X135705001Y46445714D01*
X135705001Y46388571D01*
X135162144Y46417143D02*
X135219287Y46388571D01*
X135333573Y46388571D01*
X135390715Y46417143D01*
X135419287Y46445714D01*
X135447858Y46502857D01*
X135447858Y46674286D01*
X135419287Y46731429D01*
X135390715Y46760000D01*
X135333573Y46788571D01*
X135219287Y46788571D01*
X135162144Y46760000D01*
X134819287Y46388571D02*
X134876429Y46417143D01*
X134905001Y46445714D01*
X134933572Y46502857D01*
X134933572Y46674286D01*
X134905001Y46731429D01*
X134876429Y46760000D01*
X134819287Y46788571D01*
X134733572Y46788571D01*
X134676429Y46760000D01*
X134647858Y46731429D01*
X134619287Y46674286D01*
X134619287Y46502857D01*
X134647858Y46445714D01*
X134676429Y46417143D01*
X134733572Y46388571D01*
X134819287Y46388571D01*
X134362144Y46388571D02*
X134362144Y46788571D01*
X134362144Y46731429D02*
X134333572Y46760000D01*
X134276430Y46788571D01*
X134190715Y46788571D01*
X134133572Y46760000D01*
X134105001Y46702857D01*
X134105001Y46388571D01*
X134105001Y46702857D02*
X134076430Y46760000D01*
X134019287Y46788571D01*
X133933572Y46788571D01*
X133876430Y46760000D01*
X133847858Y46702857D01*
X133847858Y46388571D01*
X133133572Y47017143D02*
X133647858Y46245714D01*
X132733573Y46702857D02*
X132647859Y46674286D01*
X132619287Y46645714D01*
X132590716Y46588571D01*
X132590716Y46502857D01*
X132619287Y46445714D01*
X132647859Y46417143D01*
X132705001Y46388571D01*
X132933573Y46388571D01*
X132933573Y46988571D01*
X132733573Y46988571D01*
X132676430Y46960000D01*
X132647859Y46931429D01*
X132619287Y46874286D01*
X132619287Y46817143D01*
X132647859Y46760000D01*
X132676430Y46731429D01*
X132733573Y46702857D01*
X132933573Y46702857D01*
X132105001Y46417143D02*
X132162144Y46388571D01*
X132276430Y46388571D01*
X132333573Y46417143D01*
X132362144Y46474286D01*
X132362144Y46702857D01*
X132333573Y46760000D01*
X132276430Y46788571D01*
X132162144Y46788571D01*
X132105001Y46760000D01*
X132076430Y46702857D01*
X132076430Y46645714D01*
X132362144Y46588571D01*
X131733573Y46388571D02*
X131790715Y46417143D01*
X131819287Y46474286D01*
X131819287Y46988571D01*
X131505001Y46388571D02*
X131505001Y46788571D01*
X131505001Y46988571D02*
X131533572Y46960000D01*
X131505001Y46931429D01*
X131476429Y46960000D01*
X131505001Y46988571D01*
X131505001Y46931429D01*
X130990715Y46417143D02*
X131047858Y46388571D01*
X131162144Y46388571D01*
X131219287Y46417143D01*
X131247858Y46474286D01*
X131247858Y46702857D01*
X131219287Y46760000D01*
X131162144Y46788571D01*
X131047858Y46788571D01*
X130990715Y46760000D01*
X130962144Y46702857D01*
X130962144Y46645714D01*
X131247858Y46588571D01*
X130762144Y46788571D02*
X130619287Y46388571D01*
X130476429Y46788571D01*
X130162144Y46388571D02*
X130219286Y46417143D01*
X130247858Y46445714D01*
X130276429Y46502857D01*
X130276429Y46674286D01*
X130247858Y46731429D01*
X130219286Y46760000D01*
X130162144Y46788571D01*
X130076429Y46788571D01*
X130019286Y46760000D01*
X129990715Y46731429D01*
X129962144Y46674286D01*
X129962144Y46502857D01*
X129990715Y46445714D01*
X130019286Y46417143D01*
X130076429Y46388571D01*
X130162144Y46388571D01*
X129790715Y46788571D02*
X129562144Y46788571D01*
X129705001Y46988571D02*
X129705001Y46474286D01*
X129676429Y46417143D01*
X129619287Y46388571D01*
X129562144Y46388571D01*
X129362144Y46388571D02*
X129362144Y46788571D01*
X129362144Y46674286D02*
X129333572Y46731429D01*
X129305001Y46760000D01*
X129247858Y46788571D01*
X129190715Y46788571D01*
X128905001Y46388571D02*
X128962143Y46417143D01*
X128990715Y46445714D01*
X129019286Y46502857D01*
X129019286Y46674286D01*
X128990715Y46731429D01*
X128962143Y46760000D01*
X128905001Y46788571D01*
X128819286Y46788571D01*
X128762143Y46760000D01*
X128733572Y46731429D01*
X128705001Y46674286D01*
X128705001Y46502857D01*
X128733572Y46445714D01*
X128762143Y46417143D01*
X128819286Y46388571D01*
X128905001Y46388571D01*
X128447858Y46788571D02*
X128447858Y46388571D01*
X128447858Y46731429D02*
X128419286Y46760000D01*
X128362144Y46788571D01*
X128276429Y46788571D01*
X128219286Y46760000D01*
X128190715Y46702857D01*
X128190715Y46388571D01*
X127476429Y47017143D02*
X127990715Y46245714D01*
X127076430Y46702857D02*
X126990716Y46674286D01*
X126962144Y46645714D01*
X126933573Y46588571D01*
X126933573Y46502857D01*
X126962144Y46445714D01*
X126990716Y46417143D01*
X127047858Y46388571D01*
X127276430Y46388571D01*
X127276430Y46988571D01*
X127076430Y46988571D01*
X127019287Y46960000D01*
X126990716Y46931429D01*
X126962144Y46874286D01*
X126962144Y46817143D01*
X126990716Y46760000D01*
X127019287Y46731429D01*
X127076430Y46702857D01*
X127276430Y46702857D01*
X126447858Y46417143D02*
X126505001Y46388571D01*
X126619287Y46388571D01*
X126676430Y46417143D01*
X126705001Y46474286D01*
X126705001Y46702857D01*
X126676430Y46760000D01*
X126619287Y46788571D01*
X126505001Y46788571D01*
X126447858Y46760000D01*
X126419287Y46702857D01*
X126419287Y46645714D01*
X126705001Y46588571D01*
X126076430Y46388571D02*
X126133572Y46417143D01*
X126162144Y46474286D01*
X126162144Y46988571D01*
X125847858Y46388571D02*
X125847858Y46788571D01*
X125847858Y46988571D02*
X125876429Y46960000D01*
X125847858Y46931429D01*
X125819286Y46960000D01*
X125847858Y46988571D01*
X125847858Y46931429D01*
X125333572Y46417143D02*
X125390715Y46388571D01*
X125505001Y46388571D01*
X125562144Y46417143D01*
X125590715Y46474286D01*
X125590715Y46702857D01*
X125562144Y46760000D01*
X125505001Y46788571D01*
X125390715Y46788571D01*
X125333572Y46760000D01*
X125305001Y46702857D01*
X125305001Y46645714D01*
X125590715Y46588571D01*
X125105001Y46788571D02*
X124962144Y46388571D01*
X124819286Y46788571D01*
X124505001Y46388571D02*
X124562143Y46417143D01*
X124590715Y46445714D01*
X124619286Y46502857D01*
X124619286Y46674286D01*
X124590715Y46731429D01*
X124562143Y46760000D01*
X124505001Y46788571D01*
X124419286Y46788571D01*
X124362143Y46760000D01*
X124333572Y46731429D01*
X124305001Y46674286D01*
X124305001Y46502857D01*
X124333572Y46445714D01*
X124362143Y46417143D01*
X124419286Y46388571D01*
X124505001Y46388571D01*
X124133572Y46788571D02*
X123905001Y46788571D01*
X124047858Y46988571D02*
X124047858Y46474286D01*
X124019286Y46417143D01*
X123962144Y46388571D01*
X123905001Y46388571D01*
X123705001Y46388571D02*
X123705001Y46788571D01*
X123705001Y46674286D02*
X123676429Y46731429D01*
X123647858Y46760000D01*
X123590715Y46788571D01*
X123533572Y46788571D01*
X123247858Y46388571D02*
X123305000Y46417143D01*
X123333572Y46445714D01*
X123362143Y46502857D01*
X123362143Y46674286D01*
X123333572Y46731429D01*
X123305000Y46760000D01*
X123247858Y46788571D01*
X123162143Y46788571D01*
X123105000Y46760000D01*
X123076429Y46731429D01*
X123047858Y46674286D01*
X123047858Y46502857D01*
X123076429Y46445714D01*
X123105000Y46417143D01*
X123162143Y46388571D01*
X123247858Y46388571D01*
X122790715Y46788571D02*
X122790715Y46388571D01*
X122790715Y46731429D02*
X122762143Y46760000D01*
X122705001Y46788571D01*
X122619286Y46788571D01*
X122562143Y46760000D01*
X122533572Y46702857D01*
X122533572Y46388571D01*
X122305001Y46988571D02*
X122162144Y46388571D01*
X122047858Y46817143D01*
X121933572Y46388571D01*
X121790715Y46988571D01*
X121305001Y46388571D02*
X121305001Y46702857D01*
X121333572Y46760000D01*
X121390715Y46788571D01*
X121505001Y46788571D01*
X121562144Y46760000D01*
X121305001Y46417143D02*
X121362144Y46388571D01*
X121505001Y46388571D01*
X121562144Y46417143D01*
X121590715Y46474286D01*
X121590715Y46531429D01*
X121562144Y46588571D01*
X121505001Y46617143D01*
X121362144Y46617143D01*
X121305001Y46645714D01*
X121019287Y46788571D02*
X121019287Y46388571D01*
X121019287Y46731429D02*
X120990715Y46760000D01*
X120933573Y46788571D01*
X120847858Y46788571D01*
X120790715Y46760000D01*
X120762144Y46702857D01*
X120762144Y46388571D01*
X120219287Y46388571D02*
X120219287Y46988571D01*
X120219287Y46417143D02*
X120276430Y46388571D01*
X120390716Y46388571D01*
X120447858Y46417143D01*
X120476430Y46445714D01*
X120505001Y46502857D01*
X120505001Y46674286D01*
X120476430Y46731429D01*
X120447858Y46760000D01*
X120390716Y46788571D01*
X120276430Y46788571D01*
X120219287Y46760000D01*
X119705001Y46417143D02*
X119762144Y46388571D01*
X119876430Y46388571D01*
X119933573Y46417143D01*
X119962144Y46474286D01*
X119962144Y46702857D01*
X119933573Y46760000D01*
X119876430Y46788571D01*
X119762144Y46788571D01*
X119705001Y46760000D01*
X119676430Y46702857D01*
X119676430Y46645714D01*
X119962144Y46588571D01*
X119419287Y46388571D02*
X119419287Y46788571D01*
X119419287Y46674286D02*
X119390715Y46731429D01*
X119362144Y46760000D01*
X119305001Y46788571D01*
X119247858Y46788571D01*
X118962144Y46388571D02*
X119019286Y46417143D01*
X119047858Y46474286D01*
X119047858Y46988571D01*
X118476429Y46788571D02*
X118476429Y46388571D01*
X118733572Y46788571D02*
X118733572Y46474286D01*
X118705000Y46417143D01*
X118647858Y46388571D01*
X118562143Y46388571D01*
X118505000Y46417143D01*
X118476429Y46445714D01*
X118219286Y46417143D02*
X118162143Y46388571D01*
X118047858Y46388571D01*
X117990715Y46417143D01*
X117962143Y46474286D01*
X117962143Y46502857D01*
X117990715Y46560000D01*
X118047858Y46588571D01*
X118133572Y46588571D01*
X118190715Y46617143D01*
X118219286Y46674286D01*
X118219286Y46702857D01*
X118190715Y46760000D01*
X118133572Y46788571D01*
X118047858Y46788571D01*
X117990715Y46760000D01*
X117790715Y46788571D02*
X117562144Y46788571D01*
X117705001Y46988571D02*
X117705001Y46474286D01*
X117676429Y46417143D01*
X117619287Y46388571D01*
X117562144Y46388571D01*
X117362144Y46388571D02*
X117362144Y46988571D01*
X117362144Y46702857D02*
X117019287Y46702857D01*
X117019287Y46388571D02*
X117019287Y46988571D01*
X116476430Y46388571D02*
X116476430Y46702857D01*
X116505001Y46760000D01*
X116562144Y46788571D01*
X116676430Y46788571D01*
X116733573Y46760000D01*
X116476430Y46417143D02*
X116533573Y46388571D01*
X116676430Y46388571D01*
X116733573Y46417143D01*
X116762144Y46474286D01*
X116762144Y46531429D01*
X116733573Y46588571D01*
X116676430Y46617143D01*
X116533573Y46617143D01*
X116476430Y46645714D01*
X116190716Y46388571D02*
X116190716Y46788571D01*
X116190716Y46674286D02*
X116162144Y46731429D01*
X116133573Y46760000D01*
X116076430Y46788571D01*
X116019287Y46788571D01*
X115562144Y46388571D02*
X115562144Y46988571D01*
X115562144Y46417143D02*
X115619287Y46388571D01*
X115733573Y46388571D01*
X115790715Y46417143D01*
X115819287Y46445714D01*
X115847858Y46502857D01*
X115847858Y46674286D01*
X115819287Y46731429D01*
X115790715Y46760000D01*
X115733573Y46788571D01*
X115619287Y46788571D01*
X115562144Y46760000D01*
X115333573Y46788571D02*
X115219287Y46388571D01*
X115105001Y46674286D01*
X114990716Y46388571D01*
X114876430Y46788571D01*
X114390716Y46388571D02*
X114390716Y46702857D01*
X114419287Y46760000D01*
X114476430Y46788571D01*
X114590716Y46788571D01*
X114647859Y46760000D01*
X114390716Y46417143D02*
X114447859Y46388571D01*
X114590716Y46388571D01*
X114647859Y46417143D01*
X114676430Y46474286D01*
X114676430Y46531429D01*
X114647859Y46588571D01*
X114590716Y46617143D01*
X114447859Y46617143D01*
X114390716Y46645714D01*
X114105002Y46388571D02*
X114105002Y46788571D01*
X114105002Y46674286D02*
X114076430Y46731429D01*
X114047859Y46760000D01*
X113990716Y46788571D01*
X113933573Y46788571D01*
X113505001Y46417143D02*
X113562144Y46388571D01*
X113676430Y46388571D01*
X113733573Y46417143D01*
X113762144Y46474286D01*
X113762144Y46702857D01*
X113733573Y46760000D01*
X113676430Y46788571D01*
X113562144Y46788571D01*
X113505001Y46760000D01*
X113476430Y46702857D01*
X113476430Y46645714D01*
X113762144Y46588571D01*
X153819286Y45338571D02*
X154019286Y45624286D01*
X154162143Y45338571D02*
X154162143Y45938571D01*
X153933571Y45938571D01*
X153876429Y45910000D01*
X153847857Y45881429D01*
X153819286Y45824286D01*
X153819286Y45738571D01*
X153847857Y45681429D01*
X153876429Y45652857D01*
X153933571Y45624286D01*
X154162143Y45624286D01*
X153333571Y45367143D02*
X153390714Y45338571D01*
X153505000Y45338571D01*
X153562143Y45367143D01*
X153590714Y45424286D01*
X153590714Y45652857D01*
X153562143Y45710000D01*
X153505000Y45738571D01*
X153390714Y45738571D01*
X153333571Y45710000D01*
X153305000Y45652857D01*
X153305000Y45595714D01*
X153590714Y45538571D01*
X153047857Y45738571D02*
X153047857Y45138571D01*
X153047857Y45710000D02*
X152990714Y45738571D01*
X152876428Y45738571D01*
X152819285Y45710000D01*
X152790714Y45681429D01*
X152762143Y45624286D01*
X152762143Y45452857D01*
X152790714Y45395714D01*
X152819285Y45367143D01*
X152876428Y45338571D01*
X152990714Y45338571D01*
X153047857Y45367143D01*
X152419286Y45338571D02*
X152476428Y45367143D01*
X152505000Y45424286D01*
X152505000Y45938571D01*
X151933571Y45338571D02*
X151933571Y45652857D01*
X151962142Y45710000D01*
X152019285Y45738571D01*
X152133571Y45738571D01*
X152190714Y45710000D01*
X151933571Y45367143D02*
X151990714Y45338571D01*
X152133571Y45338571D01*
X152190714Y45367143D01*
X152219285Y45424286D01*
X152219285Y45481429D01*
X152190714Y45538571D01*
X152133571Y45567143D01*
X151990714Y45567143D01*
X151933571Y45595714D01*
X151390714Y45367143D02*
X151447857Y45338571D01*
X151562143Y45338571D01*
X151619285Y45367143D01*
X151647857Y45395714D01*
X151676428Y45452857D01*
X151676428Y45624286D01*
X151647857Y45681429D01*
X151619285Y45710000D01*
X151562143Y45738571D01*
X151447857Y45738571D01*
X151390714Y45710000D01*
X150904999Y45367143D02*
X150962142Y45338571D01*
X151076428Y45338571D01*
X151133571Y45367143D01*
X151162142Y45424286D01*
X151162142Y45652857D01*
X151133571Y45710000D01*
X151076428Y45738571D01*
X150962142Y45738571D01*
X150904999Y45710000D01*
X150876428Y45652857D01*
X150876428Y45595714D01*
X151162142Y45538571D01*
X150619285Y45338571D02*
X150619285Y45738571D01*
X150619285Y45681429D02*
X150590713Y45710000D01*
X150533571Y45738571D01*
X150447856Y45738571D01*
X150390713Y45710000D01*
X150362142Y45652857D01*
X150362142Y45338571D01*
X150362142Y45652857D02*
X150333571Y45710000D01*
X150276428Y45738571D01*
X150190713Y45738571D01*
X150133571Y45710000D01*
X150104999Y45652857D01*
X150104999Y45338571D01*
X149590713Y45367143D02*
X149647856Y45338571D01*
X149762142Y45338571D01*
X149819285Y45367143D01*
X149847856Y45424286D01*
X149847856Y45652857D01*
X149819285Y45710000D01*
X149762142Y45738571D01*
X149647856Y45738571D01*
X149590713Y45710000D01*
X149562142Y45652857D01*
X149562142Y45595714D01*
X149847856Y45538571D01*
X149304999Y45738571D02*
X149304999Y45338571D01*
X149304999Y45681429D02*
X149276427Y45710000D01*
X149219285Y45738571D01*
X149133570Y45738571D01*
X149076427Y45710000D01*
X149047856Y45652857D01*
X149047856Y45338571D01*
X148847856Y45738571D02*
X148619285Y45738571D01*
X148762142Y45938571D02*
X148762142Y45424286D01*
X148733570Y45367143D01*
X148676428Y45338571D01*
X148619285Y45338571D01*
X147962142Y45738571D02*
X147962142Y45138571D01*
X147962142Y45710000D02*
X147904999Y45738571D01*
X147790713Y45738571D01*
X147733570Y45710000D01*
X147704999Y45681429D01*
X147676428Y45624286D01*
X147676428Y45452857D01*
X147704999Y45395714D01*
X147733570Y45367143D01*
X147790713Y45338571D01*
X147904999Y45338571D01*
X147962142Y45367143D01*
X147162142Y45338571D02*
X147162142Y45652857D01*
X147190713Y45710000D01*
X147247856Y45738571D01*
X147362142Y45738571D01*
X147419285Y45710000D01*
X147162142Y45367143D02*
X147219285Y45338571D01*
X147362142Y45338571D01*
X147419285Y45367143D01*
X147447856Y45424286D01*
X147447856Y45481429D01*
X147419285Y45538571D01*
X147362142Y45567143D01*
X147219285Y45567143D01*
X147162142Y45595714D01*
X146876428Y45338571D02*
X146876428Y45738571D01*
X146876428Y45624286D02*
X146847856Y45681429D01*
X146819285Y45710000D01*
X146762142Y45738571D01*
X146704999Y45738571D01*
X146590713Y45738571D02*
X146362142Y45738571D01*
X146504999Y45938571D02*
X146504999Y45424286D01*
X146476427Y45367143D01*
X146419285Y45338571D01*
X146362142Y45338571D01*
X146190713Y45367143D02*
X146133570Y45338571D01*
X146019285Y45338571D01*
X145962142Y45367143D01*
X145933570Y45424286D01*
X145933570Y45452857D01*
X145962142Y45510000D01*
X146019285Y45538571D01*
X146104999Y45538571D01*
X146162142Y45567143D01*
X146190713Y45624286D01*
X146190713Y45652857D01*
X146162142Y45710000D01*
X146104999Y45738571D01*
X146019285Y45738571D01*
X145962142Y45710000D01*
X145647856Y45367143D02*
X145647856Y45338571D01*
X145676428Y45281429D01*
X145704999Y45252857D01*
X144676428Y45738571D02*
X144676428Y45338571D01*
X144933571Y45738571D02*
X144933571Y45424286D01*
X144904999Y45367143D01*
X144847857Y45338571D01*
X144762142Y45338571D01*
X144704999Y45367143D01*
X144676428Y45395714D01*
X144390714Y45738571D02*
X144390714Y45138571D01*
X144390714Y45710000D02*
X144333571Y45738571D01*
X144219285Y45738571D01*
X144162142Y45710000D01*
X144133571Y45681429D01*
X144105000Y45624286D01*
X144105000Y45452857D01*
X144133571Y45395714D01*
X144162142Y45367143D01*
X144219285Y45338571D01*
X144333571Y45338571D01*
X144390714Y45367143D01*
X143590714Y45738571D02*
X143590714Y45252857D01*
X143619285Y45195714D01*
X143647857Y45167143D01*
X143705000Y45138571D01*
X143790714Y45138571D01*
X143847857Y45167143D01*
X143590714Y45367143D02*
X143647857Y45338571D01*
X143762143Y45338571D01*
X143819285Y45367143D01*
X143847857Y45395714D01*
X143876428Y45452857D01*
X143876428Y45624286D01*
X143847857Y45681429D01*
X143819285Y45710000D01*
X143762143Y45738571D01*
X143647857Y45738571D01*
X143590714Y45710000D01*
X143305000Y45338571D02*
X143305000Y45738571D01*
X143305000Y45624286D02*
X143276428Y45681429D01*
X143247857Y45710000D01*
X143190714Y45738571D01*
X143133571Y45738571D01*
X142676428Y45338571D02*
X142676428Y45652857D01*
X142704999Y45710000D01*
X142762142Y45738571D01*
X142876428Y45738571D01*
X142933571Y45710000D01*
X142676428Y45367143D02*
X142733571Y45338571D01*
X142876428Y45338571D01*
X142933571Y45367143D01*
X142962142Y45424286D01*
X142962142Y45481429D01*
X142933571Y45538571D01*
X142876428Y45567143D01*
X142733571Y45567143D01*
X142676428Y45595714D01*
X142133571Y45338571D02*
X142133571Y45938571D01*
X142133571Y45367143D02*
X142190714Y45338571D01*
X142305000Y45338571D01*
X142362142Y45367143D01*
X142390714Y45395714D01*
X142419285Y45452857D01*
X142419285Y45624286D01*
X142390714Y45681429D01*
X142362142Y45710000D01*
X142305000Y45738571D01*
X142190714Y45738571D01*
X142133571Y45710000D01*
X141619285Y45367143D02*
X141676428Y45338571D01*
X141790714Y45338571D01*
X141847857Y45367143D01*
X141876428Y45424286D01*
X141876428Y45652857D01*
X141847857Y45710000D01*
X141790714Y45738571D01*
X141676428Y45738571D01*
X141619285Y45710000D01*
X141590714Y45652857D01*
X141590714Y45595714D01*
X141876428Y45538571D01*
X141362142Y45367143D02*
X141304999Y45338571D01*
X141190714Y45338571D01*
X141133571Y45367143D01*
X141104999Y45424286D01*
X141104999Y45452857D01*
X141133571Y45510000D01*
X141190714Y45538571D01*
X141276428Y45538571D01*
X141333571Y45567143D01*
X141362142Y45624286D01*
X141362142Y45652857D01*
X141333571Y45710000D01*
X141276428Y45738571D01*
X141190714Y45738571D01*
X141133571Y45710000D01*
X140819285Y45367143D02*
X140819285Y45338571D01*
X140847857Y45281429D01*
X140876428Y45252857D01*
X139847857Y45738571D02*
X139847857Y45338571D01*
X140105000Y45738571D02*
X140105000Y45424286D01*
X140076428Y45367143D01*
X140019286Y45338571D01*
X139933571Y45338571D01*
X139876428Y45367143D01*
X139847857Y45395714D01*
X139562143Y45738571D02*
X139562143Y45138571D01*
X139562143Y45710000D02*
X139505000Y45738571D01*
X139390714Y45738571D01*
X139333571Y45710000D01*
X139305000Y45681429D01*
X139276429Y45624286D01*
X139276429Y45452857D01*
X139305000Y45395714D01*
X139333571Y45367143D01*
X139390714Y45338571D01*
X139505000Y45338571D01*
X139562143Y45367143D01*
X138762143Y45338571D02*
X138762143Y45938571D01*
X138762143Y45367143D02*
X138819286Y45338571D01*
X138933572Y45338571D01*
X138990714Y45367143D01*
X139019286Y45395714D01*
X139047857Y45452857D01*
X139047857Y45624286D01*
X139019286Y45681429D01*
X138990714Y45710000D01*
X138933572Y45738571D01*
X138819286Y45738571D01*
X138762143Y45710000D01*
X138219286Y45338571D02*
X138219286Y45652857D01*
X138247857Y45710000D01*
X138305000Y45738571D01*
X138419286Y45738571D01*
X138476429Y45710000D01*
X138219286Y45367143D02*
X138276429Y45338571D01*
X138419286Y45338571D01*
X138476429Y45367143D01*
X138505000Y45424286D01*
X138505000Y45481429D01*
X138476429Y45538571D01*
X138419286Y45567143D01*
X138276429Y45567143D01*
X138219286Y45595714D01*
X138019286Y45738571D02*
X137790715Y45738571D01*
X137933572Y45938571D02*
X137933572Y45424286D01*
X137905000Y45367143D01*
X137847858Y45338571D01*
X137790715Y45338571D01*
X137362143Y45367143D02*
X137419286Y45338571D01*
X137533572Y45338571D01*
X137590715Y45367143D01*
X137619286Y45424286D01*
X137619286Y45652857D01*
X137590715Y45710000D01*
X137533572Y45738571D01*
X137419286Y45738571D01*
X137362143Y45710000D01*
X137333572Y45652857D01*
X137333572Y45595714D01*
X137619286Y45538571D01*
X137105000Y45367143D02*
X137047857Y45338571D01*
X136933572Y45338571D01*
X136876429Y45367143D01*
X136847857Y45424286D01*
X136847857Y45452857D01*
X136876429Y45510000D01*
X136933572Y45538571D01*
X137019286Y45538571D01*
X137076429Y45567143D01*
X137105000Y45624286D01*
X137105000Y45652857D01*
X137076429Y45710000D01*
X137019286Y45738571D01*
X136933572Y45738571D01*
X136876429Y45710000D01*
X136562143Y45367143D02*
X136562143Y45338571D01*
X136590715Y45281429D01*
X136619286Y45252857D01*
X135847858Y45738571D02*
X135847858Y45338571D01*
X135847858Y45681429D02*
X135819286Y45710000D01*
X135762144Y45738571D01*
X135676429Y45738571D01*
X135619286Y45710000D01*
X135590715Y45652857D01*
X135590715Y45338571D01*
X135076429Y45367143D02*
X135133572Y45338571D01*
X135247858Y45338571D01*
X135305001Y45367143D01*
X135333572Y45424286D01*
X135333572Y45652857D01*
X135305001Y45710000D01*
X135247858Y45738571D01*
X135133572Y45738571D01*
X135076429Y45710000D01*
X135047858Y45652857D01*
X135047858Y45595714D01*
X135333572Y45538571D01*
X134847858Y45738571D02*
X134733572Y45338571D01*
X134619286Y45624286D01*
X134505001Y45338571D01*
X134390715Y45738571D01*
X133447858Y45738571D02*
X133447858Y45252857D01*
X133476429Y45195714D01*
X133505001Y45167143D01*
X133562144Y45138571D01*
X133647858Y45138571D01*
X133705001Y45167143D01*
X133447858Y45367143D02*
X133505001Y45338571D01*
X133619287Y45338571D01*
X133676429Y45367143D01*
X133705001Y45395714D01*
X133733572Y45452857D01*
X133733572Y45624286D01*
X133705001Y45681429D01*
X133676429Y45710000D01*
X133619287Y45738571D01*
X133505001Y45738571D01*
X133447858Y45710000D01*
X132933572Y45367143D02*
X132990715Y45338571D01*
X133105001Y45338571D01*
X133162144Y45367143D01*
X133190715Y45424286D01*
X133190715Y45652857D01*
X133162144Y45710000D01*
X133105001Y45738571D01*
X132990715Y45738571D01*
X132933572Y45710000D01*
X132905001Y45652857D01*
X132905001Y45595714D01*
X133190715Y45538571D01*
X132390715Y45338571D02*
X132390715Y45652857D01*
X132419286Y45710000D01*
X132476429Y45738571D01*
X132590715Y45738571D01*
X132647858Y45710000D01*
X132390715Y45367143D02*
X132447858Y45338571D01*
X132590715Y45338571D01*
X132647858Y45367143D01*
X132676429Y45424286D01*
X132676429Y45481429D01*
X132647858Y45538571D01*
X132590715Y45567143D01*
X132447858Y45567143D01*
X132390715Y45595714D01*
X132105001Y45338571D02*
X132105001Y45738571D01*
X132105001Y45624286D02*
X132076429Y45681429D01*
X132047858Y45710000D01*
X131990715Y45738571D01*
X131933572Y45738571D01*
X131705000Y45367143D02*
X131705000Y45338571D01*
X131733572Y45281429D01*
X131762143Y45252857D01*
X130733572Y45338571D02*
X130733572Y45652857D01*
X130762143Y45710000D01*
X130819286Y45738571D01*
X130933572Y45738571D01*
X130990715Y45710000D01*
X130733572Y45367143D02*
X130790715Y45338571D01*
X130933572Y45338571D01*
X130990715Y45367143D01*
X131019286Y45424286D01*
X131019286Y45481429D01*
X130990715Y45538571D01*
X130933572Y45567143D01*
X130790715Y45567143D01*
X130733572Y45595714D01*
X130447858Y45738571D02*
X130447858Y45338571D01*
X130447858Y45681429D02*
X130419286Y45710000D01*
X130362144Y45738571D01*
X130276429Y45738571D01*
X130219286Y45710000D01*
X130190715Y45652857D01*
X130190715Y45338571D01*
X129647858Y45338571D02*
X129647858Y45938571D01*
X129647858Y45367143D02*
X129705001Y45338571D01*
X129819287Y45338571D01*
X129876429Y45367143D01*
X129905001Y45395714D01*
X129933572Y45452857D01*
X129933572Y45624286D01*
X129905001Y45681429D01*
X129876429Y45710000D01*
X129819287Y45738571D01*
X129705001Y45738571D01*
X129647858Y45710000D01*
X128905001Y45338571D02*
X128905001Y45738571D01*
X128905001Y45681429D02*
X128876429Y45710000D01*
X128819287Y45738571D01*
X128733572Y45738571D01*
X128676429Y45710000D01*
X128647858Y45652857D01*
X128647858Y45338571D01*
X128647858Y45652857D02*
X128619287Y45710000D01*
X128562144Y45738571D01*
X128476429Y45738571D01*
X128419287Y45710000D01*
X128390715Y45652857D01*
X128390715Y45338571D01*
X127847858Y45338571D02*
X127847858Y45652857D01*
X127876429Y45710000D01*
X127933572Y45738571D01*
X128047858Y45738571D01*
X128105001Y45710000D01*
X127847858Y45367143D02*
X127905001Y45338571D01*
X128047858Y45338571D01*
X128105001Y45367143D01*
X128133572Y45424286D01*
X128133572Y45481429D01*
X128105001Y45538571D01*
X128047858Y45567143D01*
X127905001Y45567143D01*
X127847858Y45595714D01*
X127562144Y45338571D02*
X127562144Y45738571D01*
X127562144Y45624286D02*
X127533572Y45681429D01*
X127505001Y45710000D01*
X127447858Y45738571D01*
X127390715Y45738571D01*
X127190715Y45338571D02*
X127190715Y45938571D01*
X127133572Y45567143D02*
X126962143Y45338571D01*
X126962143Y45738571D02*
X127190715Y45510000D01*
X126476429Y45367143D02*
X126533572Y45338571D01*
X126647858Y45338571D01*
X126705001Y45367143D01*
X126733572Y45424286D01*
X126733572Y45652857D01*
X126705001Y45710000D01*
X126647858Y45738571D01*
X126533572Y45738571D01*
X126476429Y45710000D01*
X126447858Y45652857D01*
X126447858Y45595714D01*
X126733572Y45538571D01*
X126276429Y45738571D02*
X126047858Y45738571D01*
X126190715Y45938571D02*
X126190715Y45424286D01*
X126162143Y45367143D01*
X126105001Y45338571D01*
X126047858Y45338571D01*
X125847858Y45338571D02*
X125847858Y45738571D01*
X125847858Y45938571D02*
X125876429Y45910000D01*
X125847858Y45881429D01*
X125819286Y45910000D01*
X125847858Y45938571D01*
X125847858Y45881429D01*
X125562144Y45738571D02*
X125562144Y45338571D01*
X125562144Y45681429D02*
X125533572Y45710000D01*
X125476430Y45738571D01*
X125390715Y45738571D01*
X125333572Y45710000D01*
X125305001Y45652857D01*
X125305001Y45338571D01*
X124762144Y45738571D02*
X124762144Y45252857D01*
X124790715Y45195714D01*
X124819287Y45167143D01*
X124876430Y45138571D01*
X124962144Y45138571D01*
X125019287Y45167143D01*
X124762144Y45367143D02*
X124819287Y45338571D01*
X124933573Y45338571D01*
X124990715Y45367143D01*
X125019287Y45395714D01*
X125047858Y45452857D01*
X125047858Y45624286D01*
X125019287Y45681429D01*
X124990715Y45710000D01*
X124933573Y45738571D01*
X124819287Y45738571D01*
X124762144Y45710000D01*
X124019287Y45738571D02*
X124019287Y45138571D01*
X124019287Y45710000D02*
X123962144Y45738571D01*
X123847858Y45738571D01*
X123790715Y45710000D01*
X123762144Y45681429D01*
X123733573Y45624286D01*
X123733573Y45452857D01*
X123762144Y45395714D01*
X123790715Y45367143D01*
X123847858Y45338571D01*
X123962144Y45338571D01*
X124019287Y45367143D01*
X123219287Y45338571D02*
X123219287Y45652857D01*
X123247858Y45710000D01*
X123305001Y45738571D01*
X123419287Y45738571D01*
X123476430Y45710000D01*
X123219287Y45367143D02*
X123276430Y45338571D01*
X123419287Y45338571D01*
X123476430Y45367143D01*
X123505001Y45424286D01*
X123505001Y45481429D01*
X123476430Y45538571D01*
X123419287Y45567143D01*
X123276430Y45567143D01*
X123219287Y45595714D01*
X122933573Y45738571D02*
X122933573Y45138571D01*
X122933573Y45710000D02*
X122876430Y45738571D01*
X122762144Y45738571D01*
X122705001Y45710000D01*
X122676430Y45681429D01*
X122647859Y45624286D01*
X122647859Y45452857D01*
X122676430Y45395714D01*
X122705001Y45367143D01*
X122762144Y45338571D01*
X122876430Y45338571D01*
X122933573Y45367143D01*
X122390716Y45395714D02*
X122362144Y45367143D01*
X122390716Y45338571D01*
X122419287Y45367143D01*
X122390716Y45395714D01*
X122390716Y45338571D01*
X122390716Y45710000D02*
X122362144Y45681429D01*
X122390716Y45652857D01*
X122419287Y45681429D01*
X122390716Y45710000D01*
X122390716Y45652857D01*
X121447859Y45652857D02*
X121362145Y45624286D01*
X121333573Y45595714D01*
X121305002Y45538571D01*
X121305002Y45452857D01*
X121333573Y45395714D01*
X121362145Y45367143D01*
X121419287Y45338571D01*
X121647859Y45338571D01*
X121647859Y45938571D01*
X121447859Y45938571D01*
X121390716Y45910000D01*
X121362145Y45881429D01*
X121333573Y45824286D01*
X121333573Y45767143D01*
X121362145Y45710000D01*
X121390716Y45681429D01*
X121447859Y45652857D01*
X121647859Y45652857D01*
X120819287Y45367143D02*
X120876430Y45338571D01*
X120990716Y45338571D01*
X121047859Y45367143D01*
X121076430Y45424286D01*
X121076430Y45652857D01*
X121047859Y45710000D01*
X120990716Y45738571D01*
X120876430Y45738571D01*
X120819287Y45710000D01*
X120790716Y45652857D01*
X120790716Y45595714D01*
X121076430Y45538571D01*
X120447859Y45338571D02*
X120505001Y45367143D01*
X120533573Y45424286D01*
X120533573Y45938571D01*
X120219287Y45338571D02*
X120219287Y45738571D01*
X120219287Y45938571D02*
X120247858Y45910000D01*
X120219287Y45881429D01*
X120190715Y45910000D01*
X120219287Y45938571D01*
X120219287Y45881429D01*
X119705001Y45367143D02*
X119762144Y45338571D01*
X119876430Y45338571D01*
X119933573Y45367143D01*
X119962144Y45424286D01*
X119962144Y45652857D01*
X119933573Y45710000D01*
X119876430Y45738571D01*
X119762144Y45738571D01*
X119705001Y45710000D01*
X119676430Y45652857D01*
X119676430Y45595714D01*
X119962144Y45538571D01*
X119476430Y45738571D02*
X119333573Y45338571D01*
X119190715Y45738571D01*
X118876430Y45338571D02*
X118933572Y45367143D01*
X118962144Y45395714D01*
X118990715Y45452857D01*
X118990715Y45624286D01*
X118962144Y45681429D01*
X118933572Y45710000D01*
X118876430Y45738571D01*
X118790715Y45738571D01*
X118733572Y45710000D01*
X118705001Y45681429D01*
X118676430Y45624286D01*
X118676430Y45452857D01*
X118705001Y45395714D01*
X118733572Y45367143D01*
X118790715Y45338571D01*
X118876430Y45338571D01*
X118505001Y45738571D02*
X118276430Y45738571D01*
X118419287Y45938571D02*
X118419287Y45424286D01*
X118390715Y45367143D01*
X118333573Y45338571D01*
X118276430Y45338571D01*
X118076430Y45338571D02*
X118076430Y45738571D01*
X118076430Y45624286D02*
X118047858Y45681429D01*
X118019287Y45710000D01*
X117962144Y45738571D01*
X117905001Y45738571D01*
X117619287Y45338571D02*
X117676429Y45367143D01*
X117705001Y45395714D01*
X117733572Y45452857D01*
X117733572Y45624286D01*
X117705001Y45681429D01*
X117676429Y45710000D01*
X117619287Y45738571D01*
X117533572Y45738571D01*
X117476429Y45710000D01*
X117447858Y45681429D01*
X117419287Y45624286D01*
X117419287Y45452857D01*
X117447858Y45395714D01*
X117476429Y45367143D01*
X117533572Y45338571D01*
X117619287Y45338571D01*
X117162144Y45738571D02*
X117162144Y45338571D01*
X117162144Y45681429D02*
X117133572Y45710000D01*
X117076430Y45738571D01*
X116990715Y45738571D01*
X116933572Y45710000D01*
X116905001Y45652857D01*
X116905001Y45338571D01*
X116619287Y45395714D02*
X116590715Y45367143D01*
X116619287Y45338571D01*
X116647858Y45367143D01*
X116619287Y45395714D01*
X116619287Y45338571D01*
X116076430Y45367143D02*
X116133573Y45338571D01*
X116247859Y45338571D01*
X116305001Y45367143D01*
X116333573Y45395714D01*
X116362144Y45452857D01*
X116362144Y45624286D01*
X116333573Y45681429D01*
X116305001Y45710000D01*
X116247859Y45738571D01*
X116133573Y45738571D01*
X116076430Y45710000D01*
X115733573Y45338571D02*
X115790715Y45367143D01*
X115819287Y45395714D01*
X115847858Y45452857D01*
X115847858Y45624286D01*
X115819287Y45681429D01*
X115790715Y45710000D01*
X115733573Y45738571D01*
X115647858Y45738571D01*
X115590715Y45710000D01*
X115562144Y45681429D01*
X115533573Y45624286D01*
X115533573Y45452857D01*
X115562144Y45395714D01*
X115590715Y45367143D01*
X115647858Y45338571D01*
X115733573Y45338571D01*
X115276430Y45338571D02*
X115276430Y45738571D01*
X115276430Y45681429D02*
X115247858Y45710000D01*
X115190716Y45738571D01*
X115105001Y45738571D01*
X115047858Y45710000D01*
X115019287Y45652857D01*
X115019287Y45338571D01*
X115019287Y45652857D02*
X114990716Y45710000D01*
X114933573Y45738571D01*
X114847858Y45738571D01*
X114790716Y45710000D01*
X114762144Y45652857D01*
X114762144Y45338571D01*
X153962143Y44602857D02*
X154162143Y44602857D01*
X154162143Y44288571D02*
X154162143Y44888571D01*
X153876429Y44888571D01*
X153562143Y44288571D02*
X153619285Y44317143D01*
X153647857Y44345714D01*
X153676428Y44402857D01*
X153676428Y44574286D01*
X153647857Y44631429D01*
X153619285Y44660000D01*
X153562143Y44688571D01*
X153476428Y44688571D01*
X153419285Y44660000D01*
X153390714Y44631429D01*
X153362143Y44574286D01*
X153362143Y44402857D01*
X153390714Y44345714D01*
X153419285Y44317143D01*
X153476428Y44288571D01*
X153562143Y44288571D01*
X153105000Y44288571D02*
X153105000Y44688571D01*
X153105000Y44574286D02*
X153076428Y44631429D01*
X153047857Y44660000D01*
X152990714Y44688571D01*
X152933571Y44688571D01*
X152276428Y44288571D02*
X152276428Y44888571D01*
X152019285Y44288571D02*
X152019285Y44602857D01*
X152047856Y44660000D01*
X152104999Y44688571D01*
X152190714Y44688571D01*
X152247856Y44660000D01*
X152276428Y44631429D01*
X151504999Y44317143D02*
X151562142Y44288571D01*
X151676428Y44288571D01*
X151733571Y44317143D01*
X151762142Y44374286D01*
X151762142Y44602857D01*
X151733571Y44660000D01*
X151676428Y44688571D01*
X151562142Y44688571D01*
X151504999Y44660000D01*
X151476428Y44602857D01*
X151476428Y44545714D01*
X151762142Y44488571D01*
X151133571Y44288571D02*
X151190713Y44317143D01*
X151219285Y44374286D01*
X151219285Y44888571D01*
X150904999Y44688571D02*
X150904999Y44088571D01*
X150904999Y44660000D02*
X150847856Y44688571D01*
X150733570Y44688571D01*
X150676427Y44660000D01*
X150647856Y44631429D01*
X150619285Y44574286D01*
X150619285Y44402857D01*
X150647856Y44345714D01*
X150676427Y44317143D01*
X150733570Y44288571D01*
X150847856Y44288571D01*
X150904999Y44317143D01*
X150333570Y44317143D02*
X150333570Y44288571D01*
X150362142Y44231429D01*
X150390713Y44202857D01*
X149619285Y44288571D02*
X149619285Y44888571D01*
X149619285Y44660000D02*
X149562142Y44688571D01*
X149447856Y44688571D01*
X149390713Y44660000D01*
X149362142Y44631429D01*
X149333571Y44574286D01*
X149333571Y44402857D01*
X149362142Y44345714D01*
X149390713Y44317143D01*
X149447856Y44288571D01*
X149562142Y44288571D01*
X149619285Y44317143D01*
X148819285Y44688571D02*
X148819285Y44288571D01*
X149076428Y44688571D02*
X149076428Y44374286D01*
X149047856Y44317143D01*
X148990714Y44288571D01*
X148904999Y44288571D01*
X148847856Y44317143D01*
X148819285Y44345714D01*
X148276428Y44688571D02*
X148276428Y44202857D01*
X148304999Y44145714D01*
X148333571Y44117143D01*
X148390714Y44088571D01*
X148476428Y44088571D01*
X148533571Y44117143D01*
X148276428Y44317143D02*
X148333571Y44288571D01*
X148447857Y44288571D01*
X148504999Y44317143D01*
X148533571Y44345714D01*
X148562142Y44402857D01*
X148562142Y44574286D01*
X148533571Y44631429D01*
X148504999Y44660000D01*
X148447857Y44688571D01*
X148333571Y44688571D01*
X148276428Y44660000D01*
X147533571Y44288571D02*
X147533571Y44688571D01*
X147533571Y44574286D02*
X147504999Y44631429D01*
X147476428Y44660000D01*
X147419285Y44688571D01*
X147362142Y44688571D01*
X146933570Y44317143D02*
X146990713Y44288571D01*
X147104999Y44288571D01*
X147162142Y44317143D01*
X147190713Y44374286D01*
X147190713Y44602857D01*
X147162142Y44660000D01*
X147104999Y44688571D01*
X146990713Y44688571D01*
X146933570Y44660000D01*
X146904999Y44602857D01*
X146904999Y44545714D01*
X147190713Y44488571D01*
X146647856Y44688571D02*
X146647856Y44088571D01*
X146647856Y44660000D02*
X146590713Y44688571D01*
X146476427Y44688571D01*
X146419284Y44660000D01*
X146390713Y44631429D01*
X146362142Y44574286D01*
X146362142Y44402857D01*
X146390713Y44345714D01*
X146419284Y44317143D01*
X146476427Y44288571D01*
X146590713Y44288571D01*
X146647856Y44317143D01*
X146019285Y44288571D02*
X146076427Y44317143D01*
X146104999Y44345714D01*
X146133570Y44402857D01*
X146133570Y44574286D01*
X146104999Y44631429D01*
X146076427Y44660000D01*
X146019285Y44688571D01*
X145933570Y44688571D01*
X145876427Y44660000D01*
X145847856Y44631429D01*
X145819285Y44574286D01*
X145819285Y44402857D01*
X145847856Y44345714D01*
X145876427Y44317143D01*
X145933570Y44288571D01*
X146019285Y44288571D01*
X145562142Y44288571D02*
X145562142Y44688571D01*
X145562142Y44574286D02*
X145533570Y44631429D01*
X145504999Y44660000D01*
X145447856Y44688571D01*
X145390713Y44688571D01*
X145276427Y44688571D02*
X145047856Y44688571D01*
X145190713Y44888571D02*
X145190713Y44374286D01*
X145162141Y44317143D01*
X145104999Y44288571D01*
X145047856Y44288571D01*
X144847856Y44288571D02*
X144847856Y44688571D01*
X144847856Y44888571D02*
X144876427Y44860000D01*
X144847856Y44831429D01*
X144819284Y44860000D01*
X144847856Y44888571D01*
X144847856Y44831429D01*
X144562142Y44688571D02*
X144562142Y44288571D01*
X144562142Y44631429D02*
X144533570Y44660000D01*
X144476428Y44688571D01*
X144390713Y44688571D01*
X144333570Y44660000D01*
X144304999Y44602857D01*
X144304999Y44288571D01*
X143762142Y44688571D02*
X143762142Y44202857D01*
X143790713Y44145714D01*
X143819285Y44117143D01*
X143876428Y44088571D01*
X143962142Y44088571D01*
X144019285Y44117143D01*
X143762142Y44317143D02*
X143819285Y44288571D01*
X143933571Y44288571D01*
X143990713Y44317143D01*
X144019285Y44345714D01*
X144047856Y44402857D01*
X144047856Y44574286D01*
X144019285Y44631429D01*
X143990713Y44660000D01*
X143933571Y44688571D01*
X143819285Y44688571D01*
X143762142Y44660000D01*
X143447856Y44317143D02*
X143447856Y44288571D01*
X143476428Y44231429D01*
X143504999Y44202857D01*
X142476428Y44288571D02*
X142476428Y44888571D01*
X142476428Y44317143D02*
X142533571Y44288571D01*
X142647857Y44288571D01*
X142704999Y44317143D01*
X142733571Y44345714D01*
X142762142Y44402857D01*
X142762142Y44574286D01*
X142733571Y44631429D01*
X142704999Y44660000D01*
X142647857Y44688571D01*
X142533571Y44688571D01*
X142476428Y44660000D01*
X141962142Y44317143D02*
X142019285Y44288571D01*
X142133571Y44288571D01*
X142190714Y44317143D01*
X142219285Y44374286D01*
X142219285Y44602857D01*
X142190714Y44660000D01*
X142133571Y44688571D01*
X142019285Y44688571D01*
X141962142Y44660000D01*
X141933571Y44602857D01*
X141933571Y44545714D01*
X142219285Y44488571D01*
X141733571Y44688571D02*
X141590714Y44288571D01*
X141447856Y44688571D01*
X141219285Y44517143D02*
X140762142Y44517143D01*
X140476428Y44288571D02*
X140476428Y44888571D01*
X140476428Y44660000D02*
X140419285Y44688571D01*
X140304999Y44688571D01*
X140247856Y44660000D01*
X140219285Y44631429D01*
X140190714Y44574286D01*
X140190714Y44402857D01*
X140219285Y44345714D01*
X140247856Y44317143D01*
X140304999Y44288571D01*
X140419285Y44288571D01*
X140476428Y44317143D01*
X139847857Y44288571D02*
X139904999Y44317143D01*
X139933571Y44374286D01*
X139933571Y44888571D01*
X139533571Y44288571D02*
X139590713Y44317143D01*
X139619285Y44345714D01*
X139647856Y44402857D01*
X139647856Y44574286D01*
X139619285Y44631429D01*
X139590713Y44660000D01*
X139533571Y44688571D01*
X139447856Y44688571D01*
X139390713Y44660000D01*
X139362142Y44631429D01*
X139333571Y44574286D01*
X139333571Y44402857D01*
X139362142Y44345714D01*
X139390713Y44317143D01*
X139447856Y44288571D01*
X139533571Y44288571D01*
X138819285Y44688571D02*
X138819285Y44202857D01*
X138847856Y44145714D01*
X138876428Y44117143D01*
X138933571Y44088571D01*
X139019285Y44088571D01*
X139076428Y44117143D01*
X138819285Y44317143D02*
X138876428Y44288571D01*
X138990714Y44288571D01*
X139047856Y44317143D01*
X139076428Y44345714D01*
X139104999Y44402857D01*
X139104999Y44574286D01*
X139076428Y44631429D01*
X139047856Y44660000D01*
X138990714Y44688571D01*
X138876428Y44688571D01*
X138819285Y44660000D01*
X138562142Y44317143D02*
X138504999Y44288571D01*
X138390714Y44288571D01*
X138333571Y44317143D01*
X138304999Y44374286D01*
X138304999Y44402857D01*
X138333571Y44460000D01*
X138390714Y44488571D01*
X138476428Y44488571D01*
X138533571Y44517143D01*
X138562142Y44574286D01*
X138562142Y44602857D01*
X138533571Y44660000D01*
X138476428Y44688571D01*
X138390714Y44688571D01*
X138333571Y44660000D01*
X138019285Y44317143D02*
X138019285Y44288571D01*
X138047857Y44231429D01*
X138076428Y44202857D01*
X137219286Y44288571D02*
X137276428Y44317143D01*
X137305000Y44345714D01*
X137333571Y44402857D01*
X137333571Y44574286D01*
X137305000Y44631429D01*
X137276428Y44660000D01*
X137219286Y44688571D01*
X137133571Y44688571D01*
X137076428Y44660000D01*
X137047857Y44631429D01*
X137019286Y44574286D01*
X137019286Y44402857D01*
X137047857Y44345714D01*
X137076428Y44317143D01*
X137133571Y44288571D01*
X137219286Y44288571D01*
X136762143Y44288571D02*
X136762143Y44688571D01*
X136762143Y44574286D02*
X136733571Y44631429D01*
X136705000Y44660000D01*
X136647857Y44688571D01*
X136590714Y44688571D01*
X135933571Y44688571D02*
X135933571Y44174286D01*
X135962142Y44117143D01*
X136019285Y44088571D01*
X136047857Y44088571D01*
X135933571Y44888571D02*
X135962142Y44860000D01*
X135933571Y44831429D01*
X135904999Y44860000D01*
X135933571Y44888571D01*
X135933571Y44831429D01*
X135562143Y44288571D02*
X135619285Y44317143D01*
X135647857Y44345714D01*
X135676428Y44402857D01*
X135676428Y44574286D01*
X135647857Y44631429D01*
X135619285Y44660000D01*
X135562143Y44688571D01*
X135476428Y44688571D01*
X135419285Y44660000D01*
X135390714Y44631429D01*
X135362143Y44574286D01*
X135362143Y44402857D01*
X135390714Y44345714D01*
X135419285Y44317143D01*
X135476428Y44288571D01*
X135562143Y44288571D01*
X135162143Y44688571D02*
X135019286Y44288571D01*
X134876428Y44688571D02*
X135019286Y44288571D01*
X135076428Y44145714D01*
X135105000Y44117143D01*
X135162143Y44088571D01*
X133933571Y44288571D02*
X133933571Y44602857D01*
X133962142Y44660000D01*
X134019285Y44688571D01*
X134133571Y44688571D01*
X134190714Y44660000D01*
X133933571Y44317143D02*
X133990714Y44288571D01*
X134133571Y44288571D01*
X134190714Y44317143D01*
X134219285Y44374286D01*
X134219285Y44431429D01*
X134190714Y44488571D01*
X134133571Y44517143D01*
X133990714Y44517143D01*
X133933571Y44545714D01*
X133733571Y44688571D02*
X133505000Y44688571D01*
X133647857Y44888571D02*
X133647857Y44374286D01*
X133619285Y44317143D01*
X133562143Y44288571D01*
X133505000Y44288571D01*
X132905000Y44688571D02*
X132762143Y44288571D01*
X132619285Y44688571D02*
X132762143Y44288571D01*
X132819285Y44145714D01*
X132847857Y44117143D01*
X132905000Y44088571D01*
X132305000Y44288571D02*
X132362142Y44317143D01*
X132390714Y44345714D01*
X132419285Y44402857D01*
X132419285Y44574286D01*
X132390714Y44631429D01*
X132362142Y44660000D01*
X132305000Y44688571D01*
X132219285Y44688571D01*
X132162142Y44660000D01*
X132133571Y44631429D01*
X132105000Y44574286D01*
X132105000Y44402857D01*
X132133571Y44345714D01*
X132162142Y44317143D01*
X132219285Y44288571D01*
X132305000Y44288571D01*
X131590714Y44688571D02*
X131590714Y44288571D01*
X131847857Y44688571D02*
X131847857Y44374286D01*
X131819285Y44317143D01*
X131762143Y44288571D01*
X131676428Y44288571D01*
X131619285Y44317143D01*
X131590714Y44345714D01*
X131305000Y44288571D02*
X131305000Y44688571D01*
X131305000Y44574286D02*
X131276428Y44631429D01*
X131247857Y44660000D01*
X131190714Y44688571D01*
X131133571Y44688571D01*
X130476428Y44288571D02*
X130476428Y44888571D01*
X130476428Y44660000D02*
X130419285Y44688571D01*
X130304999Y44688571D01*
X130247856Y44660000D01*
X130219285Y44631429D01*
X130190714Y44574286D01*
X130190714Y44402857D01*
X130219285Y44345714D01*
X130247856Y44317143D01*
X130304999Y44288571D01*
X130419285Y44288571D01*
X130476428Y44317143D01*
X129847857Y44288571D02*
X129904999Y44317143D01*
X129933571Y44345714D01*
X129962142Y44402857D01*
X129962142Y44574286D01*
X129933571Y44631429D01*
X129904999Y44660000D01*
X129847857Y44688571D01*
X129762142Y44688571D01*
X129704999Y44660000D01*
X129676428Y44631429D01*
X129647857Y44574286D01*
X129647857Y44402857D01*
X129676428Y44345714D01*
X129704999Y44317143D01*
X129762142Y44288571D01*
X129847857Y44288571D01*
X129390714Y44688571D02*
X129390714Y44288571D01*
X129390714Y44631429D02*
X129362142Y44660000D01*
X129305000Y44688571D01*
X129219285Y44688571D01*
X129162142Y44660000D01*
X129133571Y44602857D01*
X129133571Y44288571D01*
X128847857Y44288571D02*
X128847857Y44888571D01*
X128790714Y44517143D02*
X128619285Y44288571D01*
X128619285Y44688571D02*
X128847857Y44460000D01*
X128133571Y44317143D02*
X128190714Y44288571D01*
X128305000Y44288571D01*
X128362143Y44317143D01*
X128390714Y44374286D01*
X128390714Y44602857D01*
X128362143Y44660000D01*
X128305000Y44688571D01*
X128190714Y44688571D01*
X128133571Y44660000D01*
X128105000Y44602857D01*
X128105000Y44545714D01*
X128390714Y44488571D01*
X127847857Y44288571D02*
X127847857Y44688571D01*
X127847857Y44574286D02*
X127819285Y44631429D01*
X127790714Y44660000D01*
X127733571Y44688571D01*
X127676428Y44688571D01*
X127504999Y44317143D02*
X127447856Y44288571D01*
X127333571Y44288571D01*
X127276428Y44317143D01*
X127247856Y44374286D01*
X127247856Y44402857D01*
X127276428Y44460000D01*
X127333571Y44488571D01*
X127419285Y44488571D01*
X127476428Y44517143D01*
X127504999Y44574286D01*
X127504999Y44602857D01*
X127476428Y44660000D01*
X127419285Y44688571D01*
X127333571Y44688571D01*
X127276428Y44660000D01*
X126990714Y44517143D02*
X126533571Y44517143D01*
X125990714Y44317143D02*
X126047857Y44288571D01*
X126162143Y44288571D01*
X126219285Y44317143D01*
X126247857Y44345714D01*
X126276428Y44402857D01*
X126276428Y44574286D01*
X126247857Y44631429D01*
X126219285Y44660000D01*
X126162143Y44688571D01*
X126047857Y44688571D01*
X125990714Y44660000D01*
X125647857Y44288571D02*
X125704999Y44317143D01*
X125733571Y44345714D01*
X125762142Y44402857D01*
X125762142Y44574286D01*
X125733571Y44631429D01*
X125704999Y44660000D01*
X125647857Y44688571D01*
X125562142Y44688571D01*
X125504999Y44660000D01*
X125476428Y44631429D01*
X125447857Y44574286D01*
X125447857Y44402857D01*
X125476428Y44345714D01*
X125504999Y44317143D01*
X125562142Y44288571D01*
X125647857Y44288571D01*
X125105000Y44288571D02*
X125162142Y44317143D01*
X125190714Y44345714D01*
X125219285Y44402857D01*
X125219285Y44574286D01*
X125190714Y44631429D01*
X125162142Y44660000D01*
X125105000Y44688571D01*
X125019285Y44688571D01*
X124962142Y44660000D01*
X124933571Y44631429D01*
X124905000Y44574286D01*
X124905000Y44402857D01*
X124933571Y44345714D01*
X124962142Y44317143D01*
X125019285Y44288571D01*
X125105000Y44288571D01*
X124562143Y44288571D02*
X124619285Y44317143D01*
X124647857Y44374286D01*
X124647857Y44888571D01*
X123619285Y44317143D02*
X123676428Y44288571D01*
X123790714Y44288571D01*
X123847856Y44317143D01*
X123876428Y44345714D01*
X123904999Y44402857D01*
X123904999Y44574286D01*
X123876428Y44631429D01*
X123847856Y44660000D01*
X123790714Y44688571D01*
X123676428Y44688571D01*
X123619285Y44660000D01*
X123362142Y44288571D02*
X123362142Y44688571D01*
X123362142Y44574286D02*
X123333570Y44631429D01*
X123304999Y44660000D01*
X123247856Y44688571D01*
X123190713Y44688571D01*
X122762141Y44317143D02*
X122819284Y44288571D01*
X122933570Y44288571D01*
X122990713Y44317143D01*
X123019284Y44374286D01*
X123019284Y44602857D01*
X122990713Y44660000D01*
X122933570Y44688571D01*
X122819284Y44688571D01*
X122762141Y44660000D01*
X122733570Y44602857D01*
X122733570Y44545714D01*
X123019284Y44488571D01*
X122219284Y44288571D02*
X122219284Y44602857D01*
X122247855Y44660000D01*
X122304998Y44688571D01*
X122419284Y44688571D01*
X122476427Y44660000D01*
X122219284Y44317143D02*
X122276427Y44288571D01*
X122419284Y44288571D01*
X122476427Y44317143D01*
X122504998Y44374286D01*
X122504998Y44431429D01*
X122476427Y44488571D01*
X122419284Y44517143D01*
X122276427Y44517143D01*
X122219284Y44545714D01*
X122019284Y44688571D02*
X121790713Y44688571D01*
X121933570Y44888571D02*
X121933570Y44374286D01*
X121904998Y44317143D01*
X121847856Y44288571D01*
X121790713Y44288571D01*
X121590713Y44288571D02*
X121590713Y44688571D01*
X121590713Y44888571D02*
X121619284Y44860000D01*
X121590713Y44831429D01*
X121562141Y44860000D01*
X121590713Y44888571D01*
X121590713Y44831429D01*
X121219285Y44288571D02*
X121276427Y44317143D01*
X121304999Y44345714D01*
X121333570Y44402857D01*
X121333570Y44574286D01*
X121304999Y44631429D01*
X121276427Y44660000D01*
X121219285Y44688571D01*
X121133570Y44688571D01*
X121076427Y44660000D01*
X121047856Y44631429D01*
X121019285Y44574286D01*
X121019285Y44402857D01*
X121047856Y44345714D01*
X121076427Y44317143D01*
X121133570Y44288571D01*
X121219285Y44288571D01*
X120762142Y44688571D02*
X120762142Y44288571D01*
X120762142Y44631429D02*
X120733570Y44660000D01*
X120676428Y44688571D01*
X120590713Y44688571D01*
X120533570Y44660000D01*
X120504999Y44602857D01*
X120504999Y44288571D01*
X120190713Y44317143D02*
X120190713Y44288571D01*
X120219285Y44231429D01*
X120247856Y44202857D01*
X154247857Y43638571D02*
X154019286Y43638571D01*
X154162143Y43838571D02*
X154162143Y43324286D01*
X154133571Y43267143D01*
X154076429Y43238571D01*
X154019286Y43238571D01*
X153819286Y43238571D02*
X153819286Y43838571D01*
X153562143Y43238571D02*
X153562143Y43552857D01*
X153590714Y43610000D01*
X153647857Y43638571D01*
X153733572Y43638571D01*
X153790714Y43610000D01*
X153819286Y43581429D01*
X153047857Y43267143D02*
X153105000Y43238571D01*
X153219286Y43238571D01*
X153276429Y43267143D01*
X153305000Y43324286D01*
X153305000Y43552857D01*
X153276429Y43610000D01*
X153219286Y43638571D01*
X153105000Y43638571D01*
X153047857Y43610000D01*
X153019286Y43552857D01*
X153019286Y43495714D01*
X153305000Y43438571D01*
X152047857Y43638571D02*
X152047857Y43152857D01*
X152076428Y43095714D01*
X152105000Y43067143D01*
X152162143Y43038571D01*
X152247857Y43038571D01*
X152305000Y43067143D01*
X152047857Y43267143D02*
X152105000Y43238571D01*
X152219286Y43238571D01*
X152276428Y43267143D01*
X152305000Y43295714D01*
X152333571Y43352857D01*
X152333571Y43524286D01*
X152305000Y43581429D01*
X152276428Y43610000D01*
X152219286Y43638571D01*
X152105000Y43638571D01*
X152047857Y43610000D01*
X151676429Y43238571D02*
X151733571Y43267143D01*
X151762143Y43295714D01*
X151790714Y43352857D01*
X151790714Y43524286D01*
X151762143Y43581429D01*
X151733571Y43610000D01*
X151676429Y43638571D01*
X151590714Y43638571D01*
X151533571Y43610000D01*
X151505000Y43581429D01*
X151476429Y43524286D01*
X151476429Y43352857D01*
X151505000Y43295714D01*
X151533571Y43267143D01*
X151590714Y43238571D01*
X151676429Y43238571D01*
X151133572Y43238571D02*
X151190714Y43267143D01*
X151219286Y43295714D01*
X151247857Y43352857D01*
X151247857Y43524286D01*
X151219286Y43581429D01*
X151190714Y43610000D01*
X151133572Y43638571D01*
X151047857Y43638571D01*
X150990714Y43610000D01*
X150962143Y43581429D01*
X150933572Y43524286D01*
X150933572Y43352857D01*
X150962143Y43295714D01*
X150990714Y43267143D01*
X151047857Y43238571D01*
X151133572Y43238571D01*
X150419286Y43238571D02*
X150419286Y43838571D01*
X150419286Y43267143D02*
X150476429Y43238571D01*
X150590715Y43238571D01*
X150647857Y43267143D01*
X150676429Y43295714D01*
X150705000Y43352857D01*
X150705000Y43524286D01*
X150676429Y43581429D01*
X150647857Y43610000D01*
X150590715Y43638571D01*
X150476429Y43638571D01*
X150419286Y43610000D01*
X149705000Y43267143D02*
X149647857Y43238571D01*
X149533572Y43238571D01*
X149476429Y43267143D01*
X149447857Y43324286D01*
X149447857Y43352857D01*
X149476429Y43410000D01*
X149533572Y43438571D01*
X149619286Y43438571D01*
X149676429Y43467143D01*
X149705000Y43524286D01*
X149705000Y43552857D01*
X149676429Y43610000D01*
X149619286Y43638571D01*
X149533572Y43638571D01*
X149476429Y43610000D01*
X149276429Y43638571D02*
X149047858Y43638571D01*
X149190715Y43838571D02*
X149190715Y43324286D01*
X149162143Y43267143D01*
X149105001Y43238571D01*
X149047858Y43238571D01*
X148590715Y43638571D02*
X148590715Y43238571D01*
X148847858Y43638571D02*
X148847858Y43324286D01*
X148819286Y43267143D01*
X148762144Y43238571D01*
X148676429Y43238571D01*
X148619286Y43267143D01*
X148590715Y43295714D01*
X148390715Y43638571D02*
X148162144Y43638571D01*
X148305001Y43238571D02*
X148305001Y43752857D01*
X148276429Y43810000D01*
X148219287Y43838571D01*
X148162144Y43838571D01*
X148047858Y43638571D02*
X147819287Y43638571D01*
X147962144Y43238571D02*
X147962144Y43752857D01*
X147933572Y43810000D01*
X147876430Y43838571D01*
X147819287Y43838571D01*
X147162144Y43238571D02*
X147162144Y43638571D01*
X147162144Y43838571D02*
X147190715Y43810000D01*
X147162144Y43781429D01*
X147133572Y43810000D01*
X147162144Y43838571D01*
X147162144Y43781429D01*
X146905001Y43267143D02*
X146847858Y43238571D01*
X146733573Y43238571D01*
X146676430Y43267143D01*
X146647858Y43324286D01*
X146647858Y43352857D01*
X146676430Y43410000D01*
X146733573Y43438571D01*
X146819287Y43438571D01*
X146876430Y43467143D01*
X146905001Y43524286D01*
X146905001Y43552857D01*
X146876430Y43610000D01*
X146819287Y43638571D01*
X146733573Y43638571D01*
X146676430Y43610000D01*
X145933573Y43238571D02*
X145933573Y43838571D01*
X145676430Y43238571D02*
X145676430Y43552857D01*
X145705001Y43610000D01*
X145762144Y43638571D01*
X145847859Y43638571D01*
X145905001Y43610000D01*
X145933573Y43581429D01*
X145162144Y43267143D02*
X145219287Y43238571D01*
X145333573Y43238571D01*
X145390716Y43267143D01*
X145419287Y43324286D01*
X145419287Y43552857D01*
X145390716Y43610000D01*
X145333573Y43638571D01*
X145219287Y43638571D01*
X145162144Y43610000D01*
X145133573Y43552857D01*
X145133573Y43495714D01*
X145419287Y43438571D01*
X144876430Y43238571D02*
X144876430Y43638571D01*
X144876430Y43524286D02*
X144847858Y43581429D01*
X144819287Y43610000D01*
X144762144Y43638571D01*
X144705001Y43638571D01*
X144276429Y43267143D02*
X144333572Y43238571D01*
X144447858Y43238571D01*
X144505001Y43267143D01*
X144533572Y43324286D01*
X144533572Y43552857D01*
X144505001Y43610000D01*
X144447858Y43638571D01*
X144333572Y43638571D01*
X144276429Y43610000D01*
X144247858Y43552857D01*
X144247858Y43495714D01*
X144533572Y43438571D01*
X143990715Y43295714D02*
X143962143Y43267143D01*
X143990715Y43238571D01*
X144019286Y43267143D01*
X143990715Y43295714D01*
X143990715Y43238571D01*
X143990715Y43610000D02*
X143962143Y43581429D01*
X143990715Y43552857D01*
X144019286Y43581429D01*
X143990715Y43610000D01*
X143990715Y43552857D01*
X142990715Y43267143D02*
X143047858Y43238571D01*
X143162144Y43238571D01*
X143219286Y43267143D01*
X143247858Y43295714D01*
X143276429Y43352857D01*
X143276429Y43524286D01*
X143247858Y43581429D01*
X143219286Y43610000D01*
X143162144Y43638571D01*
X143047858Y43638571D01*
X142990715Y43610000D01*
X142647858Y43238571D02*
X142705000Y43267143D01*
X142733572Y43295714D01*
X142762143Y43352857D01*
X142762143Y43524286D01*
X142733572Y43581429D01*
X142705000Y43610000D01*
X142647858Y43638571D01*
X142562143Y43638571D01*
X142505000Y43610000D01*
X142476429Y43581429D01*
X142447858Y43524286D01*
X142447858Y43352857D01*
X142476429Y43295714D01*
X142505000Y43267143D01*
X142562143Y43238571D01*
X142647858Y43238571D01*
X142190715Y43238571D02*
X142190715Y43638571D01*
X142190715Y43581429D02*
X142162143Y43610000D01*
X142105001Y43638571D01*
X142019286Y43638571D01*
X141962143Y43610000D01*
X141933572Y43552857D01*
X141933572Y43238571D01*
X141933572Y43552857D02*
X141905001Y43610000D01*
X141847858Y43638571D01*
X141762143Y43638571D01*
X141705001Y43610000D01*
X141676429Y43552857D01*
X141676429Y43238571D01*
X141390715Y43238571D02*
X141390715Y43638571D01*
X141390715Y43581429D02*
X141362143Y43610000D01*
X141305001Y43638571D01*
X141219286Y43638571D01*
X141162143Y43610000D01*
X141133572Y43552857D01*
X141133572Y43238571D01*
X141133572Y43552857D02*
X141105001Y43610000D01*
X141047858Y43638571D01*
X140962143Y43638571D01*
X140905001Y43610000D01*
X140876429Y43552857D01*
X140876429Y43238571D01*
X140333572Y43638571D02*
X140333572Y43238571D01*
X140590715Y43638571D02*
X140590715Y43324286D01*
X140562143Y43267143D01*
X140505001Y43238571D01*
X140419286Y43238571D01*
X140362143Y43267143D01*
X140333572Y43295714D01*
X140047858Y43638571D02*
X140047858Y43238571D01*
X140047858Y43581429D02*
X140019286Y43610000D01*
X139962144Y43638571D01*
X139876429Y43638571D01*
X139819286Y43610000D01*
X139790715Y43552857D01*
X139790715Y43238571D01*
X139505001Y43238571D02*
X139505001Y43638571D01*
X139505001Y43838571D02*
X139533572Y43810000D01*
X139505001Y43781429D01*
X139476429Y43810000D01*
X139505001Y43838571D01*
X139505001Y43781429D01*
X139305001Y43638571D02*
X139076430Y43638571D01*
X139219287Y43838571D02*
X139219287Y43324286D01*
X139190715Y43267143D01*
X139133573Y43238571D01*
X139076430Y43238571D01*
X138933573Y43638571D02*
X138790716Y43238571D01*
X138647858Y43638571D02*
X138790716Y43238571D01*
X138847858Y43095714D01*
X138876430Y43067143D01*
X138933573Y43038571D01*
X138419287Y43295714D02*
X138390715Y43267143D01*
X138419287Y43238571D01*
X138447858Y43267143D01*
X138419287Y43295714D01*
X138419287Y43238571D01*
X138133573Y43238571D02*
X138133573Y43838571D01*
X138133573Y43610000D02*
X138076430Y43638571D01*
X137962144Y43638571D01*
X137905001Y43610000D01*
X137876430Y43581429D01*
X137847859Y43524286D01*
X137847859Y43352857D01*
X137876430Y43295714D01*
X137905001Y43267143D01*
X137962144Y43238571D01*
X138076430Y43238571D01*
X138133573Y43267143D01*
X137362144Y43267143D02*
X137419287Y43238571D01*
X137533573Y43238571D01*
X137590716Y43267143D01*
X137619287Y43324286D01*
X137619287Y43552857D01*
X137590716Y43610000D01*
X137533573Y43638571D01*
X137419287Y43638571D01*
X137362144Y43610000D01*
X137333573Y43552857D01*
X137333573Y43495714D01*
X137619287Y43438571D01*
X136990716Y43238571D02*
X137047858Y43267143D01*
X137076430Y43324286D01*
X137076430Y43838571D01*
X136762144Y43238571D02*
X136762144Y43638571D01*
X136762144Y43838571D02*
X136790715Y43810000D01*
X136762144Y43781429D01*
X136733572Y43810000D01*
X136762144Y43838571D01*
X136762144Y43781429D01*
X136247858Y43267143D02*
X136305001Y43238571D01*
X136419287Y43238571D01*
X136476430Y43267143D01*
X136505001Y43324286D01*
X136505001Y43552857D01*
X136476430Y43610000D01*
X136419287Y43638571D01*
X136305001Y43638571D01*
X136247858Y43610000D01*
X136219287Y43552857D01*
X136219287Y43495714D01*
X136505001Y43438571D01*
X136019287Y43638571D02*
X135876430Y43238571D01*
X135733572Y43638571D01*
X135419287Y43238571D02*
X135476429Y43267143D01*
X135505001Y43295714D01*
X135533572Y43352857D01*
X135533572Y43524286D01*
X135505001Y43581429D01*
X135476429Y43610000D01*
X135419287Y43638571D01*
X135333572Y43638571D01*
X135276429Y43610000D01*
X135247858Y43581429D01*
X135219287Y43524286D01*
X135219287Y43352857D01*
X135247858Y43295714D01*
X135276429Y43267143D01*
X135333572Y43238571D01*
X135419287Y43238571D01*
X135047858Y43638571D02*
X134819287Y43638571D01*
X134962144Y43838571D02*
X134962144Y43324286D01*
X134933572Y43267143D01*
X134876430Y43238571D01*
X134819287Y43238571D01*
X134619287Y43238571D02*
X134619287Y43638571D01*
X134619287Y43524286D02*
X134590715Y43581429D01*
X134562144Y43610000D01*
X134505001Y43638571D01*
X134447858Y43638571D01*
X134162144Y43238571D02*
X134219286Y43267143D01*
X134247858Y43295714D01*
X134276429Y43352857D01*
X134276429Y43524286D01*
X134247858Y43581429D01*
X134219286Y43610000D01*
X134162144Y43638571D01*
X134076429Y43638571D01*
X134019286Y43610000D01*
X133990715Y43581429D01*
X133962144Y43524286D01*
X133962144Y43352857D01*
X133990715Y43295714D01*
X134019286Y43267143D01*
X134076429Y43238571D01*
X134162144Y43238571D01*
X133705001Y43638571D02*
X133705001Y43238571D01*
X133705001Y43581429D02*
X133676429Y43610000D01*
X133619287Y43638571D01*
X133533572Y43638571D01*
X133476429Y43610000D01*
X133447858Y43552857D01*
X133447858Y43238571D01*
X133162144Y43295714D02*
X133133572Y43267143D01*
X133162144Y43238571D01*
X133190715Y43267143D01*
X133162144Y43295714D01*
X133162144Y43238571D01*
X132619287Y43267143D02*
X132676430Y43238571D01*
X132790716Y43238571D01*
X132847858Y43267143D01*
X132876430Y43295714D01*
X132905001Y43352857D01*
X132905001Y43524286D01*
X132876430Y43581429D01*
X132847858Y43610000D01*
X132790716Y43638571D01*
X132676430Y43638571D01*
X132619287Y43610000D01*
X132276430Y43238571D02*
X132333572Y43267143D01*
X132362144Y43295714D01*
X132390715Y43352857D01*
X132390715Y43524286D01*
X132362144Y43581429D01*
X132333572Y43610000D01*
X132276430Y43638571D01*
X132190715Y43638571D01*
X132133572Y43610000D01*
X132105001Y43581429D01*
X132076430Y43524286D01*
X132076430Y43352857D01*
X132105001Y43295714D01*
X132133572Y43267143D01*
X132190715Y43238571D01*
X132276430Y43238571D01*
X131819287Y43238571D02*
X131819287Y43638571D01*
X131819287Y43581429D02*
X131790715Y43610000D01*
X131733573Y43638571D01*
X131647858Y43638571D01*
X131590715Y43610000D01*
X131562144Y43552857D01*
X131562144Y43238571D01*
X131562144Y43552857D02*
X131533573Y43610000D01*
X131476430Y43638571D01*
X131390715Y43638571D01*
X131333573Y43610000D01*
X131305001Y43552857D01*
X131305001Y43238571D01*
X151582381Y12152095D02*
X150582381Y12152095D01*
X151582381Y11580666D01*
X150582381Y11580666D01*
X151487143Y10533047D02*
X151534762Y10580666D01*
X151582381Y10723523D01*
X151582381Y10818761D01*
X151534762Y10961619D01*
X151439524Y11056857D01*
X151344286Y11104476D01*
X151153810Y11152095D01*
X151010952Y11152095D01*
X150820476Y11104476D01*
X150725238Y11056857D01*
X150630000Y10961619D01*
X150582381Y10818761D01*
X150582381Y10723523D01*
X150630000Y10580666D01*
X150677619Y10533047D01*
X150915714Y9675904D02*
X151582381Y9675904D01*
X150534762Y9914000D02*
X151249048Y10152095D01*
X151249048Y9533047D01*
X150582381Y8961619D02*
X150582381Y8866380D01*
X150630000Y8771142D01*
X150677619Y8723523D01*
X150772857Y8675904D01*
X150963333Y8628285D01*
X151201429Y8628285D01*
X151391905Y8675904D01*
X151487143Y8723523D01*
X151534762Y8771142D01*
X151582381Y8866380D01*
X151582381Y8961619D01*
X151534762Y9056857D01*
X151487143Y9104476D01*
X151391905Y9152095D01*
X151201429Y9199714D01*
X150963333Y9199714D01*
X150772857Y9152095D01*
X150677619Y9104476D01*
X150630000Y9056857D01*
X150582381Y8961619D01*
X148929286Y11463572D02*
X148179286Y11463572D01*
X148929286Y11035000D01*
X148179286Y11035000D01*
X148857857Y10249286D02*
X148893571Y10285000D01*
X148929286Y10392143D01*
X148929286Y10463572D01*
X148893571Y10570715D01*
X148822143Y10642143D01*
X148750714Y10677858D01*
X148607857Y10713572D01*
X148500714Y10713572D01*
X148357857Y10677858D01*
X148286429Y10642143D01*
X148215000Y10570715D01*
X148179286Y10463572D01*
X148179286Y10392143D01*
X148215000Y10285000D01*
X148250714Y10249286D01*
X148179286Y9999286D02*
X148179286Y9535000D01*
X148465000Y9785000D01*
X148465000Y9677858D01*
X148500714Y9606429D01*
X148536429Y9570715D01*
X148607857Y9535000D01*
X148786429Y9535000D01*
X148857857Y9570715D01*
X148893571Y9606429D01*
X148929286Y9677858D01*
X148929286Y9892143D01*
X148893571Y9963572D01*
X148857857Y9999286D01*
X148929286Y9177857D02*
X148929286Y9035000D01*
X148893571Y8963572D01*
X148857857Y8927857D01*
X148750714Y8856429D01*
X148607857Y8820714D01*
X148322143Y8820714D01*
X148250714Y8856429D01*
X148215000Y8892143D01*
X148179286Y8963572D01*
X148179286Y9106429D01*
X148215000Y9177857D01*
X148250714Y9213572D01*
X148322143Y9249286D01*
X148500714Y9249286D01*
X148572143Y9213572D01*
X148607857Y9177857D01*
X148643571Y9106429D01*
X148643571Y8963572D01*
X148607857Y8892143D01*
X148572143Y8856429D01*
X148500714Y8820714D01*
X146502381Y12152095D02*
X145502381Y12152095D01*
X146502381Y11580666D01*
X145502381Y11580666D01*
X146407143Y10533047D02*
X146454762Y10580666D01*
X146502381Y10723523D01*
X146502381Y10818761D01*
X146454762Y10961619D01*
X146359524Y11056857D01*
X146264286Y11104476D01*
X146073810Y11152095D01*
X145930952Y11152095D01*
X145740476Y11104476D01*
X145645238Y11056857D01*
X145550000Y10961619D01*
X145502381Y10818761D01*
X145502381Y10723523D01*
X145550000Y10580666D01*
X145597619Y10533047D01*
X145502381Y10199714D02*
X145502381Y9580666D01*
X145883333Y9914000D01*
X145883333Y9771142D01*
X145930952Y9675904D01*
X145978571Y9628285D01*
X146073810Y9580666D01*
X146311905Y9580666D01*
X146407143Y9628285D01*
X146454762Y9675904D01*
X146502381Y9771142D01*
X146502381Y10056857D01*
X146454762Y10152095D01*
X146407143Y10199714D01*
X145930952Y9009238D02*
X145883333Y9104476D01*
X145835714Y9152095D01*
X145740476Y9199714D01*
X145692857Y9199714D01*
X145597619Y9152095D01*
X145550000Y9104476D01*
X145502381Y9009238D01*
X145502381Y8818761D01*
X145550000Y8723523D01*
X145597619Y8675904D01*
X145692857Y8628285D01*
X145740476Y8628285D01*
X145835714Y8675904D01*
X145883333Y8723523D01*
X145930952Y8818761D01*
X145930952Y9009238D01*
X145978571Y9104476D01*
X146026190Y9152095D01*
X146121429Y9199714D01*
X146311905Y9199714D01*
X146407143Y9152095D01*
X146454762Y9104476D01*
X146502381Y9009238D01*
X146502381Y8818761D01*
X146454762Y8723523D01*
X146407143Y8675904D01*
X146311905Y8628285D01*
X146121429Y8628285D01*
X146026190Y8675904D01*
X145978571Y8723523D01*
X145930952Y8818761D01*
X143962381Y13517428D02*
X143486190Y13850762D01*
X143962381Y14088857D02*
X142962381Y14088857D01*
X142962381Y13707904D01*
X143010000Y13612666D01*
X143057619Y13565047D01*
X143152857Y13517428D01*
X143295714Y13517428D01*
X143390952Y13565047D01*
X143438571Y13612666D01*
X143486190Y13707904D01*
X143486190Y14088857D01*
X143962381Y13088857D02*
X142962381Y13088857D01*
X143962381Y12612667D02*
X142962381Y12612667D01*
X143962381Y12041238D01*
X142962381Y12041238D01*
X143581429Y11565048D02*
X143581429Y10803143D01*
X141422381Y13517428D02*
X140946190Y13850762D01*
X141422381Y14088857D02*
X140422381Y14088857D01*
X140422381Y13707904D01*
X140470000Y13612666D01*
X140517619Y13565047D01*
X140612857Y13517428D01*
X140755714Y13517428D01*
X140850952Y13565047D01*
X140898571Y13612666D01*
X140946190Y13707904D01*
X140946190Y14088857D01*
X141422381Y13088857D02*
X140422381Y13088857D01*
X141422381Y12612667D02*
X140422381Y12612667D01*
X141422381Y12041238D01*
X140422381Y12041238D01*
X141041429Y11565048D02*
X141041429Y10803143D01*
X141422381Y11184095D02*
X140660476Y11184095D01*
X138882381Y11231428D02*
X138882381Y11707619D01*
X137882381Y11707619D01*
X138882381Y10898095D02*
X137882381Y10898095D01*
X138882381Y10421905D02*
X137882381Y10421905D01*
X138882381Y9850476D01*
X137882381Y9850476D01*
X138501429Y9374286D02*
X138501429Y8612381D01*
X136342381Y11231428D02*
X136342381Y11707619D01*
X135342381Y11707619D01*
X136342381Y10898095D02*
X135342381Y10898095D01*
X136342381Y10421905D02*
X135342381Y10421905D01*
X136342381Y9850476D01*
X135342381Y9850476D01*
X135961429Y9374286D02*
X135961429Y8612381D01*
X136342381Y8993333D02*
X135580476Y8993333D01*
X132850000Y12382285D02*
X132802381Y12477523D01*
X132802381Y12620380D01*
X132850000Y12763238D01*
X132945238Y12858476D01*
X133040476Y12906095D01*
X133230952Y12953714D01*
X133373810Y12953714D01*
X133564286Y12906095D01*
X133659524Y12858476D01*
X133754762Y12763238D01*
X133802381Y12620380D01*
X133802381Y12525142D01*
X133754762Y12382285D01*
X133707143Y12334666D01*
X133373810Y12334666D01*
X133373810Y12525142D01*
X133802381Y11906095D02*
X132802381Y11906095D01*
X133802381Y11334666D01*
X132802381Y11334666D01*
X133802381Y10858476D02*
X132802381Y10858476D01*
X132802381Y10620381D01*
X132850000Y10477523D01*
X132945238Y10382285D01*
X133040476Y10334666D01*
X133230952Y10287047D01*
X133373810Y10287047D01*
X133564286Y10334666D01*
X133659524Y10382285D01*
X133754762Y10477523D01*
X133802381Y10620381D01*
X133802381Y10858476D01*
X132802381Y9953714D02*
X132802381Y9334666D01*
X133183333Y9668000D01*
X133183333Y9525142D01*
X133230952Y9429904D01*
X133278571Y9382285D01*
X133373810Y9334666D01*
X133611905Y9334666D01*
X133707143Y9382285D01*
X133754762Y9429904D01*
X133802381Y9525142D01*
X133802381Y9810857D01*
X133754762Y9906095D01*
X133707143Y9953714D01*
X132802381Y9001333D02*
X132802381Y8382285D01*
X133183333Y8715619D01*
X133183333Y8572761D01*
X133230952Y8477523D01*
X133278571Y8429904D01*
X133373810Y8382285D01*
X133611905Y8382285D01*
X133707143Y8429904D01*
X133754762Y8477523D01*
X133802381Y8572761D01*
X133802381Y8858476D01*
X133754762Y8953714D01*
X133707143Y9001333D01*
X130310000Y12382285D02*
X130262381Y12477523D01*
X130262381Y12620380D01*
X130310000Y12763238D01*
X130405238Y12858476D01*
X130500476Y12906095D01*
X130690952Y12953714D01*
X130833810Y12953714D01*
X131024286Y12906095D01*
X131119524Y12858476D01*
X131214762Y12763238D01*
X131262381Y12620380D01*
X131262381Y12525142D01*
X131214762Y12382285D01*
X131167143Y12334666D01*
X130833810Y12334666D01*
X130833810Y12525142D01*
X131262381Y11906095D02*
X130262381Y11906095D01*
X131262381Y11334666D01*
X130262381Y11334666D01*
X131262381Y10858476D02*
X130262381Y10858476D01*
X130262381Y10620381D01*
X130310000Y10477523D01*
X130405238Y10382285D01*
X130500476Y10334666D01*
X130690952Y10287047D01*
X130833810Y10287047D01*
X131024286Y10334666D01*
X131119524Y10382285D01*
X131214762Y10477523D01*
X131262381Y10620381D01*
X131262381Y10858476D01*
X130262381Y9953714D02*
X130262381Y9334666D01*
X130643333Y9668000D01*
X130643333Y9525142D01*
X130690952Y9429904D01*
X130738571Y9382285D01*
X130833810Y9334666D01*
X131071905Y9334666D01*
X131167143Y9382285D01*
X131214762Y9429904D01*
X131262381Y9525142D01*
X131262381Y9810857D01*
X131214762Y9906095D01*
X131167143Y9953714D01*
X130357619Y8953714D02*
X130310000Y8906095D01*
X130262381Y8810857D01*
X130262381Y8572761D01*
X130310000Y8477523D01*
X130357619Y8429904D01*
X130452857Y8382285D01*
X130548095Y8382285D01*
X130690952Y8429904D01*
X131262381Y9001333D01*
X131262381Y8382285D01*
X128627143Y9659904D02*
X128674762Y9707523D01*
X128722381Y9850380D01*
X128722381Y9945618D01*
X128674762Y10088476D01*
X128579524Y10183714D01*
X128484286Y10231333D01*
X128293810Y10278952D01*
X128150952Y10278952D01*
X127960476Y10231333D01*
X127865238Y10183714D01*
X127770000Y10088476D01*
X127722381Y9945618D01*
X127722381Y9850380D01*
X127770000Y9707523D01*
X127817619Y9659904D01*
X128722381Y9231333D02*
X127722381Y9231333D01*
X128436667Y8897999D01*
X127722381Y8564666D01*
X128722381Y8564666D01*
X125182381Y13961714D02*
X126182381Y13628381D01*
X125182381Y13295047D01*
X126182381Y12961714D02*
X125182381Y12961714D01*
X125182381Y12723619D01*
X125230000Y12580761D01*
X125325238Y12485523D01*
X125420476Y12437904D01*
X125610952Y12390285D01*
X125753810Y12390285D01*
X125944286Y12437904D01*
X126039524Y12485523D01*
X126134762Y12580761D01*
X126182381Y12723619D01*
X126182381Y12961714D01*
X126182381Y11961714D02*
X125182381Y11961714D01*
X125182381Y11723619D01*
X125230000Y11580761D01*
X125325238Y11485523D01*
X125420476Y11437904D01*
X125610952Y11390285D01*
X125753810Y11390285D01*
X125944286Y11437904D01*
X126039524Y11485523D01*
X126134762Y11580761D01*
X126182381Y11723619D01*
X126182381Y11961714D01*
X126087143Y10390285D02*
X126134762Y10437904D01*
X126182381Y10580761D01*
X126182381Y10675999D01*
X126134762Y10818857D01*
X126039524Y10914095D01*
X125944286Y10961714D01*
X125753810Y11009333D01*
X125610952Y11009333D01*
X125420476Y10961714D01*
X125325238Y10914095D01*
X125230000Y10818857D01*
X125182381Y10675999D01*
X125182381Y10580761D01*
X125230000Y10437904D01*
X125277619Y10390285D01*
X125182381Y10056952D02*
X125182381Y9437904D01*
X125563333Y9771238D01*
X125563333Y9628380D01*
X125610952Y9533142D01*
X125658571Y9485523D01*
X125753810Y9437904D01*
X125991905Y9437904D01*
X126087143Y9485523D01*
X126134762Y9533142D01*
X126182381Y9628380D01*
X126182381Y9914095D01*
X126134762Y10009333D01*
X126087143Y10056952D01*
X125182381Y8818857D02*
X125182381Y8723618D01*
X125230000Y8628380D01*
X125277619Y8580761D01*
X125372857Y8533142D01*
X125563333Y8485523D01*
X125801429Y8485523D01*
X125991905Y8533142D01*
X126087143Y8580761D01*
X126134762Y8628380D01*
X126182381Y8723618D01*
X126182381Y8818857D01*
X126134762Y8914095D01*
X126087143Y8961714D01*
X125991905Y9009333D01*
X125801429Y9056952D01*
X125563333Y9056952D01*
X125372857Y9009333D01*
X125277619Y8961714D01*
X125230000Y8914095D01*
X125182381Y8818857D01*
X122642381Y13961714D02*
X123642381Y13628381D01*
X122642381Y13295047D01*
X123642381Y12961714D02*
X122642381Y12961714D01*
X122642381Y12723619D01*
X122690000Y12580761D01*
X122785238Y12485523D01*
X122880476Y12437904D01*
X123070952Y12390285D01*
X123213810Y12390285D01*
X123404286Y12437904D01*
X123499524Y12485523D01*
X123594762Y12580761D01*
X123642381Y12723619D01*
X123642381Y12961714D01*
X123642381Y11961714D02*
X122642381Y11961714D01*
X122642381Y11723619D01*
X122690000Y11580761D01*
X122785238Y11485523D01*
X122880476Y11437904D01*
X123070952Y11390285D01*
X123213810Y11390285D01*
X123404286Y11437904D01*
X123499524Y11485523D01*
X123594762Y11580761D01*
X123642381Y11723619D01*
X123642381Y11961714D01*
X123547143Y10390285D02*
X123594762Y10437904D01*
X123642381Y10580761D01*
X123642381Y10675999D01*
X123594762Y10818857D01*
X123499524Y10914095D01*
X123404286Y10961714D01*
X123213810Y11009333D01*
X123070952Y11009333D01*
X122880476Y10961714D01*
X122785238Y10914095D01*
X122690000Y10818857D01*
X122642381Y10675999D01*
X122642381Y10580761D01*
X122690000Y10437904D01*
X122737619Y10390285D01*
X122737619Y10009333D02*
X122690000Y9961714D01*
X122642381Y9866476D01*
X122642381Y9628380D01*
X122690000Y9533142D01*
X122737619Y9485523D01*
X122832857Y9437904D01*
X122928095Y9437904D01*
X123070952Y9485523D01*
X123642381Y10056952D01*
X123642381Y9437904D01*
X123642381Y8961714D02*
X123642381Y8771238D01*
X123594762Y8675999D01*
X123547143Y8628380D01*
X123404286Y8533142D01*
X123213810Y8485523D01*
X122832857Y8485523D01*
X122737619Y8533142D01*
X122690000Y8580761D01*
X122642381Y8675999D01*
X122642381Y8866476D01*
X122690000Y8961714D01*
X122737619Y9009333D01*
X122832857Y9056952D01*
X123070952Y9056952D01*
X123166190Y9009333D01*
X123213810Y8961714D01*
X123261429Y8866476D01*
X123261429Y8675999D01*
X123213810Y8580761D01*
X123166190Y8533142D01*
X123070952Y8485523D01*
X120150000Y12382285D02*
X120102381Y12477523D01*
X120102381Y12620380D01*
X120150000Y12763238D01*
X120245238Y12858476D01*
X120340476Y12906095D01*
X120530952Y12953714D01*
X120673810Y12953714D01*
X120864286Y12906095D01*
X120959524Y12858476D01*
X121054762Y12763238D01*
X121102381Y12620380D01*
X121102381Y12525142D01*
X121054762Y12382285D01*
X121007143Y12334666D01*
X120673810Y12334666D01*
X120673810Y12525142D01*
X121102381Y11906095D02*
X120102381Y11906095D01*
X121102381Y11334666D01*
X120102381Y11334666D01*
X121102381Y10858476D02*
X120102381Y10858476D01*
X120102381Y10620381D01*
X120150000Y10477523D01*
X120245238Y10382285D01*
X120340476Y10334666D01*
X120530952Y10287047D01*
X120673810Y10287047D01*
X120864286Y10334666D01*
X120959524Y10382285D01*
X121054762Y10477523D01*
X121102381Y10620381D01*
X121102381Y10858476D01*
X120197619Y9906095D02*
X120150000Y9858476D01*
X120102381Y9763238D01*
X120102381Y9525142D01*
X120150000Y9429904D01*
X120197619Y9382285D01*
X120292857Y9334666D01*
X120388095Y9334666D01*
X120530952Y9382285D01*
X121102381Y9953714D01*
X121102381Y9334666D01*
X120530952Y8763238D02*
X120483333Y8858476D01*
X120435714Y8906095D01*
X120340476Y8953714D01*
X120292857Y8953714D01*
X120197619Y8906095D01*
X120150000Y8858476D01*
X120102381Y8763238D01*
X120102381Y8572761D01*
X120150000Y8477523D01*
X120197619Y8429904D01*
X120292857Y8382285D01*
X120340476Y8382285D01*
X120435714Y8429904D01*
X120483333Y8477523D01*
X120530952Y8572761D01*
X120530952Y8763238D01*
X120578571Y8858476D01*
X120626190Y8906095D01*
X120721429Y8953714D01*
X120911905Y8953714D01*
X121007143Y8906095D01*
X121054762Y8858476D01*
X121102381Y8763238D01*
X121102381Y8572761D01*
X121054762Y8477523D01*
X121007143Y8429904D01*
X120911905Y8382285D01*
X120721429Y8382285D01*
X120626190Y8429904D01*
X120578571Y8477523D01*
X120530952Y8572761D01*
X118562381Y10890095D02*
X117562381Y10890095D01*
X117562381Y10509142D01*
X117610000Y10413904D01*
X117657619Y10366285D01*
X117752857Y10318666D01*
X117895714Y10318666D01*
X117990952Y10366285D01*
X118038571Y10413904D01*
X118086190Y10509142D01*
X118086190Y10890095D01*
X118038571Y9556761D02*
X118086190Y9413904D01*
X118133810Y9366285D01*
X118229048Y9318666D01*
X118371905Y9318666D01*
X118467143Y9366285D01*
X118514762Y9413904D01*
X118562381Y9509142D01*
X118562381Y9890095D01*
X117562381Y9890095D01*
X117562381Y9556761D01*
X117610000Y9461523D01*
X117657619Y9413904D01*
X117752857Y9366285D01*
X117848095Y9366285D01*
X117943333Y9413904D01*
X117990952Y9461523D01*
X118038571Y9556761D01*
X118038571Y9890095D01*
X118562381Y8366285D02*
X118562381Y8937714D01*
X118562381Y8652000D02*
X117562381Y8652000D01*
X117705238Y8747238D01*
X117800476Y8842476D01*
X117848095Y8937714D01*
X116022381Y10890095D02*
X115022381Y10890095D01*
X115022381Y10509142D01*
X115070000Y10413904D01*
X115117619Y10366285D01*
X115212857Y10318666D01*
X115355714Y10318666D01*
X115450952Y10366285D01*
X115498571Y10413904D01*
X115546190Y10509142D01*
X115546190Y10890095D01*
X115498571Y9556761D02*
X115546190Y9413904D01*
X115593810Y9366285D01*
X115689048Y9318666D01*
X115831905Y9318666D01*
X115927143Y9366285D01*
X115974762Y9413904D01*
X116022381Y9509142D01*
X116022381Y9890095D01*
X115022381Y9890095D01*
X115022381Y9556761D01*
X115070000Y9461523D01*
X115117619Y9413904D01*
X115212857Y9366285D01*
X115308095Y9366285D01*
X115403333Y9413904D01*
X115450952Y9461523D01*
X115498571Y9556761D01*
X115498571Y9890095D01*
X115022381Y8699619D02*
X115022381Y8604380D01*
X115070000Y8509142D01*
X115117619Y8461523D01*
X115212857Y8413904D01*
X115403333Y8366285D01*
X115641429Y8366285D01*
X115831905Y8413904D01*
X115927143Y8461523D01*
X115974762Y8509142D01*
X116022381Y8604380D01*
X116022381Y8699619D01*
X115974762Y8794857D01*
X115927143Y8842476D01*
X115831905Y8890095D01*
X115641429Y8937714D01*
X115403333Y8937714D01*
X115212857Y8890095D01*
X115117619Y8842476D01*
X115070000Y8794857D01*
X115022381Y8699619D01*
X113482381Y10818667D02*
X112482381Y10818667D01*
X112482381Y10437714D01*
X112530000Y10342476D01*
X112577619Y10294857D01*
X112672857Y10247238D01*
X112815714Y10247238D01*
X112910952Y10294857D01*
X112958571Y10342476D01*
X113006190Y10437714D01*
X113006190Y10818667D01*
X113196667Y9866286D02*
X113196667Y9390095D01*
X113482381Y9961524D02*
X112482381Y9628191D01*
X113482381Y9294857D01*
X112482381Y9056762D02*
X112482381Y8390095D01*
X113482381Y8818667D01*
X110942381Y10818667D02*
X109942381Y10818667D01*
X109942381Y10437714D01*
X109990000Y10342476D01*
X110037619Y10294857D01*
X110132857Y10247238D01*
X110275714Y10247238D01*
X110370952Y10294857D01*
X110418571Y10342476D01*
X110466190Y10437714D01*
X110466190Y10818667D01*
X110656667Y9866286D02*
X110656667Y9390095D01*
X110942381Y9961524D02*
X109942381Y9628191D01*
X110942381Y9294857D01*
X109942381Y8532952D02*
X109942381Y8723429D01*
X109990000Y8818667D01*
X110037619Y8866286D01*
X110180476Y8961524D01*
X110370952Y9009143D01*
X110751905Y9009143D01*
X110847143Y8961524D01*
X110894762Y8913905D01*
X110942381Y8818667D01*
X110942381Y8628190D01*
X110894762Y8532952D01*
X110847143Y8485333D01*
X110751905Y8437714D01*
X110513810Y8437714D01*
X110418571Y8485333D01*
X110370952Y8532952D01*
X110323333Y8628190D01*
X110323333Y8818667D01*
X110370952Y8913905D01*
X110418571Y8961524D01*
X110513810Y9009143D01*
X108402381Y14120667D02*
X107402381Y14120667D01*
X107402381Y13739714D01*
X107450000Y13644476D01*
X107497619Y13596857D01*
X107592857Y13549238D01*
X107735714Y13549238D01*
X107830952Y13596857D01*
X107878571Y13644476D01*
X107926190Y13739714D01*
X107926190Y14120667D01*
X108116667Y13168286D02*
X108116667Y12692095D01*
X108402381Y13263524D02*
X107402381Y12930191D01*
X108402381Y12596857D01*
X107402381Y11787333D02*
X107402381Y12263524D01*
X107878571Y12311143D01*
X107830952Y12263524D01*
X107783333Y12168286D01*
X107783333Y11930190D01*
X107830952Y11834952D01*
X107878571Y11787333D01*
X107973810Y11739714D01*
X108211905Y11739714D01*
X108307143Y11787333D01*
X108354762Y11834952D01*
X108402381Y11930190D01*
X108402381Y12168286D01*
X108354762Y12263524D01*
X108307143Y12311143D01*
X105862381Y14120667D02*
X104862381Y14120667D01*
X104862381Y13739714D01*
X104910000Y13644476D01*
X104957619Y13596857D01*
X105052857Y13549238D01*
X105195714Y13549238D01*
X105290952Y13596857D01*
X105338571Y13644476D01*
X105386190Y13739714D01*
X105386190Y14120667D01*
X105576667Y13168286D02*
X105576667Y12692095D01*
X105862381Y13263524D02*
X104862381Y12930191D01*
X105862381Y12596857D01*
X105195714Y11834952D02*
X105862381Y11834952D01*
X104814762Y12073048D02*
X105529048Y12311143D01*
X105529048Y11692095D01*
X102322381Y13890286D02*
X103322381Y13556953D01*
X102322381Y13223619D01*
X103322381Y12890286D02*
X102322381Y12890286D01*
X102322381Y12652191D01*
X102370000Y12509333D01*
X102465238Y12414095D01*
X102560476Y12366476D01*
X102750952Y12318857D01*
X102893810Y12318857D01*
X103084286Y12366476D01*
X103179524Y12414095D01*
X103274762Y12509333D01*
X103322381Y12652191D01*
X103322381Y12890286D01*
X103322381Y11890286D02*
X102322381Y11890286D01*
X102322381Y11652191D01*
X102370000Y11509333D01*
X102465238Y11414095D01*
X102560476Y11366476D01*
X102750952Y11318857D01*
X102893810Y11318857D01*
X103084286Y11366476D01*
X103179524Y11414095D01*
X103274762Y11509333D01*
X103322381Y11652191D01*
X103322381Y11890286D01*
X103036667Y10937905D02*
X103036667Y10461714D01*
X103322381Y11033143D02*
X102322381Y10699810D01*
X103322381Y10366476D01*
X102417619Y10080762D02*
X102370000Y10033143D01*
X102322381Y9937905D01*
X102322381Y9699809D01*
X102370000Y9604571D01*
X102417619Y9556952D01*
X102512857Y9509333D01*
X102608095Y9509333D01*
X102750952Y9556952D01*
X103322381Y10128381D01*
X103322381Y9509333D01*
X103322381Y8556952D02*
X103322381Y9128381D01*
X103322381Y8842667D02*
X102322381Y8842667D01*
X102465238Y8937905D01*
X102560476Y9033143D01*
X102608095Y9128381D01*
X99830000Y12382285D02*
X99782381Y12477523D01*
X99782381Y12620380D01*
X99830000Y12763238D01*
X99925238Y12858476D01*
X100020476Y12906095D01*
X100210952Y12953714D01*
X100353810Y12953714D01*
X100544286Y12906095D01*
X100639524Y12858476D01*
X100734762Y12763238D01*
X100782381Y12620380D01*
X100782381Y12525142D01*
X100734762Y12382285D01*
X100687143Y12334666D01*
X100353810Y12334666D01*
X100353810Y12525142D01*
X100782381Y11906095D02*
X99782381Y11906095D01*
X100782381Y11334666D01*
X99782381Y11334666D01*
X100782381Y10858476D02*
X99782381Y10858476D01*
X99782381Y10620381D01*
X99830000Y10477523D01*
X99925238Y10382285D01*
X100020476Y10334666D01*
X100210952Y10287047D01*
X100353810Y10287047D01*
X100544286Y10334666D01*
X100639524Y10382285D01*
X100734762Y10477523D01*
X100782381Y10620381D01*
X100782381Y10858476D01*
X99877619Y9906095D02*
X99830000Y9858476D01*
X99782381Y9763238D01*
X99782381Y9525142D01*
X99830000Y9429904D01*
X99877619Y9382285D01*
X99972857Y9334666D01*
X100068095Y9334666D01*
X100210952Y9382285D01*
X100782381Y9953714D01*
X100782381Y9334666D01*
X99782381Y8715619D02*
X99782381Y8620380D01*
X99830000Y8525142D01*
X99877619Y8477523D01*
X99972857Y8429904D01*
X100163333Y8382285D01*
X100401429Y8382285D01*
X100591905Y8429904D01*
X100687143Y8477523D01*
X100734762Y8525142D01*
X100782381Y8620380D01*
X100782381Y8715619D01*
X100734762Y8810857D01*
X100687143Y8858476D01*
X100591905Y8906095D01*
X100401429Y8953714D01*
X100163333Y8953714D01*
X99972857Y8906095D01*
X99877619Y8858476D01*
X99830000Y8810857D01*
X99782381Y8715619D01*
X98242381Y10818667D02*
X97242381Y10818667D01*
X97242381Y10437714D01*
X97290000Y10342476D01*
X97337619Y10294857D01*
X97432857Y10247238D01*
X97575714Y10247238D01*
X97670952Y10294857D01*
X97718571Y10342476D01*
X97766190Y10437714D01*
X97766190Y10818667D01*
X97956667Y9866286D02*
X97956667Y9390095D01*
X98242381Y9961524D02*
X97242381Y9628191D01*
X98242381Y9294857D01*
X97242381Y9056762D02*
X97242381Y8437714D01*
X97623333Y8771048D01*
X97623333Y8628190D01*
X97670952Y8532952D01*
X97718571Y8485333D01*
X97813810Y8437714D01*
X98051905Y8437714D01*
X98147143Y8485333D01*
X98194762Y8532952D01*
X98242381Y8628190D01*
X98242381Y8913905D01*
X98194762Y9009143D01*
X98147143Y9056762D01*
X95702381Y10818667D02*
X94702381Y10818667D01*
X94702381Y10437714D01*
X94750000Y10342476D01*
X94797619Y10294857D01*
X94892857Y10247238D01*
X95035714Y10247238D01*
X95130952Y10294857D01*
X95178571Y10342476D01*
X95226190Y10437714D01*
X95226190Y10818667D01*
X95416667Y9866286D02*
X95416667Y9390095D01*
X95702381Y9961524D02*
X94702381Y9628191D01*
X95702381Y9294857D01*
X94797619Y9009143D02*
X94750000Y8961524D01*
X94702381Y8866286D01*
X94702381Y8628190D01*
X94750000Y8532952D01*
X94797619Y8485333D01*
X94892857Y8437714D01*
X94988095Y8437714D01*
X95130952Y8485333D01*
X95702381Y9056762D01*
X95702381Y8437714D01*
X93162381Y10818667D02*
X92162381Y10818667D01*
X92162381Y10437714D01*
X92210000Y10342476D01*
X92257619Y10294857D01*
X92352857Y10247238D01*
X92495714Y10247238D01*
X92590952Y10294857D01*
X92638571Y10342476D01*
X92686190Y10437714D01*
X92686190Y10818667D01*
X92876667Y9866286D02*
X92876667Y9390095D01*
X93162381Y9961524D02*
X92162381Y9628191D01*
X93162381Y9294857D01*
X93162381Y8437714D02*
X93162381Y9009143D01*
X93162381Y8723429D02*
X92162381Y8723429D01*
X92305238Y8818667D01*
X92400476Y8913905D01*
X92448095Y9009143D01*
X90622381Y10818667D02*
X89622381Y10818667D01*
X89622381Y10437714D01*
X89670000Y10342476D01*
X89717619Y10294857D01*
X89812857Y10247238D01*
X89955714Y10247238D01*
X90050952Y10294857D01*
X90098571Y10342476D01*
X90146190Y10437714D01*
X90146190Y10818667D01*
X90336667Y9866286D02*
X90336667Y9390095D01*
X90622381Y9961524D02*
X89622381Y9628191D01*
X90622381Y9294857D01*
X89622381Y8771048D02*
X89622381Y8675809D01*
X89670000Y8580571D01*
X89717619Y8532952D01*
X89812857Y8485333D01*
X90003333Y8437714D01*
X90241429Y8437714D01*
X90431905Y8485333D01*
X90527143Y8532952D01*
X90574762Y8580571D01*
X90622381Y8675809D01*
X90622381Y8771048D01*
X90574762Y8866286D01*
X90527143Y8913905D01*
X90431905Y8961524D01*
X90241429Y9009143D01*
X90003333Y9009143D01*
X89812857Y8961524D01*
X89717619Y8913905D01*
X89670000Y8866286D01*
X89622381Y8771048D01*
X87082381Y13890286D02*
X88082381Y13556953D01*
X87082381Y13223619D01*
X88082381Y12890286D02*
X87082381Y12890286D01*
X87082381Y12652191D01*
X87130000Y12509333D01*
X87225238Y12414095D01*
X87320476Y12366476D01*
X87510952Y12318857D01*
X87653810Y12318857D01*
X87844286Y12366476D01*
X87939524Y12414095D01*
X88034762Y12509333D01*
X88082381Y12652191D01*
X88082381Y12890286D01*
X88082381Y11890286D02*
X87082381Y11890286D01*
X87082381Y11652191D01*
X87130000Y11509333D01*
X87225238Y11414095D01*
X87320476Y11366476D01*
X87510952Y11318857D01*
X87653810Y11318857D01*
X87844286Y11366476D01*
X87939524Y11414095D01*
X88034762Y11509333D01*
X88082381Y11652191D01*
X88082381Y11890286D01*
X87796667Y10937905D02*
X87796667Y10461714D01*
X88082381Y11033143D02*
X87082381Y10699810D01*
X88082381Y10366476D01*
X88082381Y9509333D02*
X88082381Y10080762D01*
X88082381Y9795048D02*
X87082381Y9795048D01*
X87225238Y9890286D01*
X87320476Y9985524D01*
X87368095Y10080762D01*
X87082381Y8604571D02*
X87082381Y9080762D01*
X87558571Y9128381D01*
X87510952Y9080762D01*
X87463333Y8985524D01*
X87463333Y8747428D01*
X87510952Y8652190D01*
X87558571Y8604571D01*
X87653810Y8556952D01*
X87891905Y8556952D01*
X87987143Y8604571D01*
X88034762Y8652190D01*
X88082381Y8747428D01*
X88082381Y8985524D01*
X88034762Y9080762D01*
X87987143Y9128381D01*
X84590000Y12382285D02*
X84542381Y12477523D01*
X84542381Y12620380D01*
X84590000Y12763238D01*
X84685238Y12858476D01*
X84780476Y12906095D01*
X84970952Y12953714D01*
X85113810Y12953714D01*
X85304286Y12906095D01*
X85399524Y12858476D01*
X85494762Y12763238D01*
X85542381Y12620380D01*
X85542381Y12525142D01*
X85494762Y12382285D01*
X85447143Y12334666D01*
X85113810Y12334666D01*
X85113810Y12525142D01*
X85542381Y11906095D02*
X84542381Y11906095D01*
X85542381Y11334666D01*
X84542381Y11334666D01*
X85542381Y10858476D02*
X84542381Y10858476D01*
X84542381Y10620381D01*
X84590000Y10477523D01*
X84685238Y10382285D01*
X84780476Y10334666D01*
X84970952Y10287047D01*
X85113810Y10287047D01*
X85304286Y10334666D01*
X85399524Y10382285D01*
X85494762Y10477523D01*
X85542381Y10620381D01*
X85542381Y10858476D01*
X85542381Y9334666D02*
X85542381Y9906095D01*
X85542381Y9620381D02*
X84542381Y9620381D01*
X84685238Y9715619D01*
X84780476Y9810857D01*
X84828095Y9906095D01*
X84875714Y8477523D02*
X85542381Y8477523D01*
X84494762Y8715619D02*
X85209048Y8953714D01*
X85209048Y8334666D01*
X83002381Y10890095D02*
X82002381Y10890095D01*
X82002381Y10509142D01*
X82050000Y10413904D01*
X82097619Y10366285D01*
X82192857Y10318666D01*
X82335714Y10318666D01*
X82430952Y10366285D01*
X82478571Y10413904D01*
X82526190Y10509142D01*
X82526190Y10890095D01*
X82907143Y9318666D02*
X82954762Y9366285D01*
X83002381Y9509142D01*
X83002381Y9604380D01*
X82954762Y9747238D01*
X82859524Y9842476D01*
X82764286Y9890095D01*
X82573810Y9937714D01*
X82430952Y9937714D01*
X82240476Y9890095D01*
X82145238Y9842476D01*
X82050000Y9747238D01*
X82002381Y9604380D01*
X82002381Y9509142D01*
X82050000Y9366285D01*
X82097619Y9318666D01*
X82002381Y8413904D02*
X82002381Y8890095D01*
X82478571Y8937714D01*
X82430952Y8890095D01*
X82383333Y8794857D01*
X82383333Y8556761D01*
X82430952Y8461523D01*
X82478571Y8413904D01*
X82573810Y8366285D01*
X82811905Y8366285D01*
X82907143Y8413904D01*
X82954762Y8461523D01*
X83002381Y8556761D01*
X83002381Y8794857D01*
X82954762Y8890095D01*
X82907143Y8937714D01*
X80462381Y10890095D02*
X79462381Y10890095D01*
X79462381Y10509142D01*
X79510000Y10413904D01*
X79557619Y10366285D01*
X79652857Y10318666D01*
X79795714Y10318666D01*
X79890952Y10366285D01*
X79938571Y10413904D01*
X79986190Y10509142D01*
X79986190Y10890095D01*
X80367143Y9318666D02*
X80414762Y9366285D01*
X80462381Y9509142D01*
X80462381Y9604380D01*
X80414762Y9747238D01*
X80319524Y9842476D01*
X80224286Y9890095D01*
X80033810Y9937714D01*
X79890952Y9937714D01*
X79700476Y9890095D01*
X79605238Y9842476D01*
X79510000Y9747238D01*
X79462381Y9604380D01*
X79462381Y9509142D01*
X79510000Y9366285D01*
X79557619Y9318666D01*
X79795714Y8461523D02*
X80462381Y8461523D01*
X79414762Y8699619D02*
X80129048Y8937714D01*
X80129048Y8318666D01*
X77922381Y10890095D02*
X76922381Y10890095D01*
X76922381Y10509142D01*
X76970000Y10413904D01*
X77017619Y10366285D01*
X77112857Y10318666D01*
X77255714Y10318666D01*
X77350952Y10366285D01*
X77398571Y10413904D01*
X77446190Y10509142D01*
X77446190Y10890095D01*
X77827143Y9318666D02*
X77874762Y9366285D01*
X77922381Y9509142D01*
X77922381Y9604380D01*
X77874762Y9747238D01*
X77779524Y9842476D01*
X77684286Y9890095D01*
X77493810Y9937714D01*
X77350952Y9937714D01*
X77160476Y9890095D01*
X77065238Y9842476D01*
X76970000Y9747238D01*
X76922381Y9604380D01*
X76922381Y9509142D01*
X76970000Y9366285D01*
X77017619Y9318666D01*
X76922381Y8985333D02*
X76922381Y8366285D01*
X77303333Y8699619D01*
X77303333Y8556761D01*
X77350952Y8461523D01*
X77398571Y8413904D01*
X77493810Y8366285D01*
X77731905Y8366285D01*
X77827143Y8413904D01*
X77874762Y8461523D01*
X77922381Y8556761D01*
X77922381Y8842476D01*
X77874762Y8937714D01*
X77827143Y8985333D01*
X75382381Y10890095D02*
X74382381Y10890095D01*
X74382381Y10509142D01*
X74430000Y10413904D01*
X74477619Y10366285D01*
X74572857Y10318666D01*
X74715714Y10318666D01*
X74810952Y10366285D01*
X74858571Y10413904D01*
X74906190Y10509142D01*
X74906190Y10890095D01*
X75287143Y9318666D02*
X75334762Y9366285D01*
X75382381Y9509142D01*
X75382381Y9604380D01*
X75334762Y9747238D01*
X75239524Y9842476D01*
X75144286Y9890095D01*
X74953810Y9937714D01*
X74810952Y9937714D01*
X74620476Y9890095D01*
X74525238Y9842476D01*
X74430000Y9747238D01*
X74382381Y9604380D01*
X74382381Y9509142D01*
X74430000Y9366285D01*
X74477619Y9318666D01*
X74477619Y8937714D02*
X74430000Y8890095D01*
X74382381Y8794857D01*
X74382381Y8556761D01*
X74430000Y8461523D01*
X74477619Y8413904D01*
X74572857Y8366285D01*
X74668095Y8366285D01*
X74810952Y8413904D01*
X75382381Y8985333D01*
X75382381Y8366285D01*
X72588381Y15970095D02*
X71588381Y15970095D01*
X71588381Y15589142D01*
X71636000Y15493904D01*
X71683619Y15446285D01*
X71778857Y15398666D01*
X71921714Y15398666D01*
X72016952Y15446285D01*
X72064571Y15493904D01*
X72112190Y15589142D01*
X72112190Y15970095D01*
X72493143Y14398666D02*
X72540762Y14446285D01*
X72588381Y14589142D01*
X72588381Y14684380D01*
X72540762Y14827238D01*
X72445524Y14922476D01*
X72350286Y14970095D01*
X72159810Y15017714D01*
X72016952Y15017714D01*
X71826476Y14970095D01*
X71731238Y14922476D01*
X71636000Y14827238D01*
X71588381Y14684380D01*
X71588381Y14589142D01*
X71636000Y14446285D01*
X71683619Y14398666D01*
X72588381Y13446285D02*
X72588381Y14017714D01*
X72588381Y13732000D02*
X71588381Y13732000D01*
X71731238Y13827238D01*
X71826476Y13922476D01*
X71874095Y14017714D01*
X70048381Y15970095D02*
X69048381Y15970095D01*
X69048381Y15589142D01*
X69096000Y15493904D01*
X69143619Y15446285D01*
X69238857Y15398666D01*
X69381714Y15398666D01*
X69476952Y15446285D01*
X69524571Y15493904D01*
X69572190Y15589142D01*
X69572190Y15970095D01*
X69953143Y14398666D02*
X70000762Y14446285D01*
X70048381Y14589142D01*
X70048381Y14684380D01*
X70000762Y14827238D01*
X69905524Y14922476D01*
X69810286Y14970095D01*
X69619810Y15017714D01*
X69476952Y15017714D01*
X69286476Y14970095D01*
X69191238Y14922476D01*
X69096000Y14827238D01*
X69048381Y14684380D01*
X69048381Y14589142D01*
X69096000Y14446285D01*
X69143619Y14398666D01*
X69048381Y13779619D02*
X69048381Y13684380D01*
X69096000Y13589142D01*
X69143619Y13541523D01*
X69238857Y13493904D01*
X69429333Y13446285D01*
X69667429Y13446285D01*
X69857905Y13493904D01*
X69953143Y13541523D01*
X70000762Y13589142D01*
X70048381Y13684380D01*
X70048381Y13779619D01*
X70000762Y13874857D01*
X69953143Y13922476D01*
X69857905Y13970095D01*
X69667429Y14017714D01*
X69429333Y14017714D01*
X69238857Y13970095D01*
X69143619Y13922476D01*
X69096000Y13874857D01*
X69048381Y13779619D01*
X66762381Y12953714D02*
X67762381Y12620381D01*
X66762381Y12287047D01*
X67762381Y11953714D02*
X66762381Y11953714D01*
X66762381Y11715619D01*
X66810000Y11572761D01*
X66905238Y11477523D01*
X67000476Y11429904D01*
X67190952Y11382285D01*
X67333810Y11382285D01*
X67524286Y11429904D01*
X67619524Y11477523D01*
X67714762Y11572761D01*
X67762381Y11715619D01*
X67762381Y11953714D01*
X67762381Y10953714D02*
X66762381Y10953714D01*
X66762381Y10715619D01*
X66810000Y10572761D01*
X66905238Y10477523D01*
X67000476Y10429904D01*
X67190952Y10382285D01*
X67333810Y10382285D01*
X67524286Y10429904D01*
X67619524Y10477523D01*
X67714762Y10572761D01*
X67762381Y10715619D01*
X67762381Y10953714D01*
X67762381Y9429904D02*
X67762381Y10001333D01*
X67762381Y9715619D02*
X66762381Y9715619D01*
X66905238Y9810857D01*
X67000476Y9906095D01*
X67048095Y10001333D01*
X67762381Y8477523D02*
X67762381Y9048952D01*
X67762381Y8763238D02*
X66762381Y8763238D01*
X66905238Y8858476D01*
X67000476Y8953714D01*
X67048095Y9048952D01*
X64270000Y12382285D02*
X64222381Y12477523D01*
X64222381Y12620380D01*
X64270000Y12763238D01*
X64365238Y12858476D01*
X64460476Y12906095D01*
X64650952Y12953714D01*
X64793810Y12953714D01*
X64984286Y12906095D01*
X65079524Y12858476D01*
X65174762Y12763238D01*
X65222381Y12620380D01*
X65222381Y12525142D01*
X65174762Y12382285D01*
X65127143Y12334666D01*
X64793810Y12334666D01*
X64793810Y12525142D01*
X65222381Y11906095D02*
X64222381Y11906095D01*
X65222381Y11334666D01*
X64222381Y11334666D01*
X65222381Y10858476D02*
X64222381Y10858476D01*
X64222381Y10620381D01*
X64270000Y10477523D01*
X64365238Y10382285D01*
X64460476Y10334666D01*
X64650952Y10287047D01*
X64793810Y10287047D01*
X64984286Y10334666D01*
X65079524Y10382285D01*
X65174762Y10477523D01*
X65222381Y10620381D01*
X65222381Y10858476D01*
X65222381Y9334666D02*
X65222381Y9906095D01*
X65222381Y9620381D02*
X64222381Y9620381D01*
X64365238Y9715619D01*
X64460476Y9810857D01*
X64508095Y9906095D01*
X64222381Y8715619D02*
X64222381Y8620380D01*
X64270000Y8525142D01*
X64317619Y8477523D01*
X64412857Y8429904D01*
X64603333Y8382285D01*
X64841429Y8382285D01*
X65031905Y8429904D01*
X65127143Y8477523D01*
X65174762Y8525142D01*
X65222381Y8620380D01*
X65222381Y8715619D01*
X65174762Y8810857D01*
X65127143Y8858476D01*
X65031905Y8906095D01*
X64841429Y8953714D01*
X64603333Y8953714D01*
X64412857Y8906095D01*
X64317619Y8858476D01*
X64270000Y8810857D01*
X64222381Y8715619D01*
X62682381Y10890095D02*
X61682381Y10890095D01*
X61682381Y10509142D01*
X61730000Y10413904D01*
X61777619Y10366285D01*
X61872857Y10318666D01*
X62015714Y10318666D01*
X62110952Y10366285D01*
X62158571Y10413904D01*
X62206190Y10509142D01*
X62206190Y10890095D01*
X62158571Y9556761D02*
X62206190Y9413904D01*
X62253810Y9366285D01*
X62349048Y9318666D01*
X62491905Y9318666D01*
X62587143Y9366285D01*
X62634762Y9413904D01*
X62682381Y9509142D01*
X62682381Y9890095D01*
X61682381Y9890095D01*
X61682381Y9556761D01*
X61730000Y9461523D01*
X61777619Y9413904D01*
X61872857Y9366285D01*
X61968095Y9366285D01*
X62063333Y9413904D01*
X62110952Y9461523D01*
X62158571Y9556761D01*
X62158571Y9890095D01*
X62682381Y8842476D02*
X62682381Y8652000D01*
X62634762Y8556761D01*
X62587143Y8509142D01*
X62444286Y8413904D01*
X62253810Y8366285D01*
X61872857Y8366285D01*
X61777619Y8413904D01*
X61730000Y8461523D01*
X61682381Y8556761D01*
X61682381Y8747238D01*
X61730000Y8842476D01*
X61777619Y8890095D01*
X61872857Y8937714D01*
X62110952Y8937714D01*
X62206190Y8890095D01*
X62253810Y8842476D01*
X62301429Y8747238D01*
X62301429Y8556761D01*
X62253810Y8461523D01*
X62206190Y8413904D01*
X62110952Y8366285D01*
X60142381Y10890095D02*
X59142381Y10890095D01*
X59142381Y10509142D01*
X59190000Y10413904D01*
X59237619Y10366285D01*
X59332857Y10318666D01*
X59475714Y10318666D01*
X59570952Y10366285D01*
X59618571Y10413904D01*
X59666190Y10509142D01*
X59666190Y10890095D01*
X59618571Y9556761D02*
X59666190Y9413904D01*
X59713810Y9366285D01*
X59809048Y9318666D01*
X59951905Y9318666D01*
X60047143Y9366285D01*
X60094762Y9413904D01*
X60142381Y9509142D01*
X60142381Y9890095D01*
X59142381Y9890095D01*
X59142381Y9556761D01*
X59190000Y9461523D01*
X59237619Y9413904D01*
X59332857Y9366285D01*
X59428095Y9366285D01*
X59523333Y9413904D01*
X59570952Y9461523D01*
X59618571Y9556761D01*
X59618571Y9890095D01*
X59570952Y8747238D02*
X59523333Y8842476D01*
X59475714Y8890095D01*
X59380476Y8937714D01*
X59332857Y8937714D01*
X59237619Y8890095D01*
X59190000Y8842476D01*
X59142381Y8747238D01*
X59142381Y8556761D01*
X59190000Y8461523D01*
X59237619Y8413904D01*
X59332857Y8366285D01*
X59380476Y8366285D01*
X59475714Y8413904D01*
X59523333Y8461523D01*
X59570952Y8556761D01*
X59570952Y8747238D01*
X59618571Y8842476D01*
X59666190Y8890095D01*
X59761429Y8937714D01*
X59951905Y8937714D01*
X60047143Y8890095D01*
X60094762Y8842476D01*
X60142381Y8747238D01*
X60142381Y8556761D01*
X60094762Y8461523D01*
X60047143Y8413904D01*
X59951905Y8366285D01*
X59761429Y8366285D01*
X59666190Y8413904D01*
X59618571Y8461523D01*
X59570952Y8556761D01*
X57602381Y10890095D02*
X56602381Y10890095D01*
X56602381Y10509142D01*
X56650000Y10413904D01*
X56697619Y10366285D01*
X56792857Y10318666D01*
X56935714Y10318666D01*
X57030952Y10366285D01*
X57078571Y10413904D01*
X57126190Y10509142D01*
X57126190Y10890095D01*
X57078571Y9556761D02*
X57126190Y9413904D01*
X57173810Y9366285D01*
X57269048Y9318666D01*
X57411905Y9318666D01*
X57507143Y9366285D01*
X57554762Y9413904D01*
X57602381Y9509142D01*
X57602381Y9890095D01*
X56602381Y9890095D01*
X56602381Y9556761D01*
X56650000Y9461523D01*
X56697619Y9413904D01*
X56792857Y9366285D01*
X56888095Y9366285D01*
X56983333Y9413904D01*
X57030952Y9461523D01*
X57078571Y9556761D01*
X57078571Y9890095D01*
X56602381Y8985333D02*
X56602381Y8318666D01*
X57602381Y8747238D01*
X55062381Y15970095D02*
X54062381Y15970095D01*
X54062381Y15589142D01*
X54110000Y15493904D01*
X54157619Y15446285D01*
X54252857Y15398666D01*
X54395714Y15398666D01*
X54490952Y15446285D01*
X54538571Y15493904D01*
X54586190Y15589142D01*
X54586190Y15970095D01*
X54538571Y14636761D02*
X54586190Y14493904D01*
X54633810Y14446285D01*
X54729048Y14398666D01*
X54871905Y14398666D01*
X54967143Y14446285D01*
X55014762Y14493904D01*
X55062381Y14589142D01*
X55062381Y14970095D01*
X54062381Y14970095D01*
X54062381Y14636761D01*
X54110000Y14541523D01*
X54157619Y14493904D01*
X54252857Y14446285D01*
X54348095Y14446285D01*
X54443333Y14493904D01*
X54490952Y14541523D01*
X54538571Y14636761D01*
X54538571Y14970095D01*
X54062381Y13541523D02*
X54062381Y13732000D01*
X54110000Y13827238D01*
X54157619Y13874857D01*
X54300476Y13970095D01*
X54490952Y14017714D01*
X54871905Y14017714D01*
X54967143Y13970095D01*
X55014762Y13922476D01*
X55062381Y13827238D01*
X55062381Y13636761D01*
X55014762Y13541523D01*
X54967143Y13493904D01*
X54871905Y13446285D01*
X54633810Y13446285D01*
X54538571Y13493904D01*
X54490952Y13541523D01*
X54443333Y13636761D01*
X54443333Y13827238D01*
X54490952Y13922476D01*
X54538571Y13970095D01*
X54633810Y14017714D01*
X51522381Y16541524D02*
X52522381Y16208191D01*
X51522381Y15874857D01*
X52522381Y15541524D02*
X51522381Y15541524D01*
X51522381Y15303429D01*
X51570000Y15160571D01*
X51665238Y15065333D01*
X51760476Y15017714D01*
X51950952Y14970095D01*
X52093810Y14970095D01*
X52284286Y15017714D01*
X52379524Y15065333D01*
X52474762Y15160571D01*
X52522381Y15303429D01*
X52522381Y15541524D01*
X52522381Y14541524D02*
X51522381Y14541524D01*
X51522381Y14303429D01*
X51570000Y14160571D01*
X51665238Y14065333D01*
X51760476Y14017714D01*
X51950952Y13970095D01*
X52093810Y13970095D01*
X52284286Y14017714D01*
X52379524Y14065333D01*
X52474762Y14160571D01*
X52522381Y14303429D01*
X52522381Y14541524D01*
X52522381Y13017714D02*
X52522381Y13589143D01*
X52522381Y13303429D02*
X51522381Y13303429D01*
X51665238Y13398667D01*
X51760476Y13493905D01*
X51808095Y13589143D01*
M02*
