G04 #@! TF.FileFunction,Legend,Top*
%FSLAX46Y46*%
G04 Gerber Fmt 4.6, Leading zero omitted, Abs format (unit mm)*
G04 Created by KiCad (PCBNEW 4.0.4-stable) date 06/07/17 13:37:54*
%MOMM*%
%LPD*%
G01*
G04 APERTURE LIST*
%ADD10C,0.100000*%
%ADD11C,0.150000*%
%ADD12C,0.200000*%
%ADD13C,0.187500*%
%ADD14C,0.120000*%
%ADD15C,0.125000*%
G04 APERTURE END LIST*
D10*
D11*
X2643667Y15176476D02*
X2643667Y15652667D01*
X2929381Y15081238D02*
X1929381Y15414571D01*
X2929381Y15747905D01*
X2929381Y16224095D02*
X2881762Y16128857D01*
X2786524Y16081238D01*
X1929381Y16081238D01*
X2929381Y16747905D02*
X2881762Y16652667D01*
X2786524Y16605048D01*
X1929381Y16605048D01*
X2929381Y18462192D02*
X2453190Y18128858D01*
X2929381Y17890763D02*
X1929381Y17890763D01*
X1929381Y18271716D01*
X1977000Y18366954D01*
X2024619Y18414573D01*
X2119857Y18462192D01*
X2262714Y18462192D01*
X2357952Y18414573D01*
X2405571Y18366954D01*
X2453190Y18271716D01*
X2453190Y17890763D01*
X2405571Y18890763D02*
X2405571Y19652668D01*
X2691286Y19652668D02*
X2691286Y18890763D01*
X2929381Y20652668D02*
X2929381Y20081239D01*
X2929381Y20366953D02*
X1929381Y20366953D01*
X2072238Y20271715D01*
X2167476Y20176477D01*
X2215095Y20081239D01*
X1929381Y21271715D02*
X1929381Y21366954D01*
X1977000Y21462192D01*
X2024619Y21509811D01*
X2119857Y21557430D01*
X2310333Y21605049D01*
X2548429Y21605049D01*
X2738905Y21557430D01*
X2834143Y21509811D01*
X2881762Y21462192D01*
X2929381Y21366954D01*
X2929381Y21271715D01*
X2881762Y21176477D01*
X2834143Y21128858D01*
X2738905Y21081239D01*
X2548429Y21033620D01*
X2310333Y21033620D01*
X2119857Y21081239D01*
X2024619Y21128858D01*
X1977000Y21176477D01*
X1929381Y21271715D01*
X2929381Y22033620D02*
X1929381Y22033620D01*
X2929381Y22605049D02*
X2357952Y22176477D01*
X1929381Y22605049D02*
X2500810Y22033620D01*
X2929381Y22986001D02*
X2929381Y23224096D01*
X2738905Y23224096D01*
X2691286Y23128858D01*
X2596048Y23033620D01*
X2453190Y22986001D01*
X2215095Y22986001D01*
X2072238Y23033620D01*
X1977000Y23128858D01*
X1929381Y23271715D01*
X1929381Y23462192D01*
X1977000Y23605049D01*
X2072238Y23700287D01*
X2215095Y23747906D01*
X2453190Y23747906D01*
X2596048Y23700287D01*
X2691286Y23605049D01*
X2738905Y23509811D01*
X2929381Y23509811D01*
X2929381Y23747906D01*
X4293667Y15176476D02*
X4293667Y15652667D01*
X4579381Y15081238D02*
X3579381Y15414571D01*
X4579381Y15747905D01*
X4579381Y16224095D02*
X4531762Y16128857D01*
X4436524Y16081238D01*
X3579381Y16081238D01*
X4579381Y16747905D02*
X4531762Y16652667D01*
X4436524Y16605048D01*
X3579381Y16605048D01*
X4484143Y18462192D02*
X4531762Y18414573D01*
X4579381Y18271716D01*
X4579381Y18176478D01*
X4531762Y18033620D01*
X4436524Y17938382D01*
X4341286Y17890763D01*
X4150810Y17843144D01*
X4007952Y17843144D01*
X3817476Y17890763D01*
X3722238Y17938382D01*
X3627000Y18033620D01*
X3579381Y18176478D01*
X3579381Y18271716D01*
X3627000Y18414573D01*
X3674619Y18462192D01*
X4055571Y18890763D02*
X4055571Y19652668D01*
X4341286Y19652668D02*
X4341286Y18890763D01*
X3579381Y20319334D02*
X3579381Y20414573D01*
X3627000Y20509811D01*
X3674619Y20557430D01*
X3769857Y20605049D01*
X3960333Y20652668D01*
X4198429Y20652668D01*
X4388905Y20605049D01*
X4484143Y20557430D01*
X4531762Y20509811D01*
X4579381Y20414573D01*
X4579381Y20319334D01*
X4531762Y20224096D01*
X4484143Y20176477D01*
X4388905Y20128858D01*
X4198429Y20081239D01*
X3960333Y20081239D01*
X3769857Y20128858D01*
X3674619Y20176477D01*
X3627000Y20224096D01*
X3579381Y20319334D01*
X4484143Y21081239D02*
X4531762Y21128858D01*
X4579381Y21081239D01*
X4531762Y21033620D01*
X4484143Y21081239D01*
X4579381Y21081239D01*
X4579381Y22081239D02*
X4579381Y21509810D01*
X4579381Y21795524D02*
X3579381Y21795524D01*
X3722238Y21700286D01*
X3817476Y21605048D01*
X3865095Y21509810D01*
X3912714Y22938382D02*
X4579381Y22938382D01*
X3912714Y22509810D02*
X4436524Y22509810D01*
X4531762Y22557429D01*
X4579381Y22652667D01*
X4579381Y22795525D01*
X4531762Y22890763D01*
X4484143Y22938382D01*
X4055571Y23747906D02*
X4055571Y23414572D01*
X4579381Y23414572D02*
X3579381Y23414572D01*
X3579381Y23890763D01*
D12*
X8763000Y36703000D02*
X10160000Y36703000D01*
X8763000Y47117000D02*
X8763000Y36703000D01*
X10160000Y47117000D02*
X8763000Y47117000D01*
X110363000Y36703000D02*
X111760000Y36703000D01*
X110363000Y47117000D02*
X110363000Y36703000D01*
X111760000Y47117000D02*
X110363000Y47117000D01*
X60960000Y36703000D02*
X59563000Y36703000D01*
X59563000Y47117000D02*
X59563000Y36703000D01*
X60960000Y47117000D02*
X59563000Y47117000D01*
D13*
X46442381Y15137381D02*
X46442381Y15708810D01*
X47442381Y15423095D02*
X46442381Y15423095D01*
X47347143Y16613572D02*
X47394762Y16565953D01*
X47442381Y16423096D01*
X47442381Y16327858D01*
X47394762Y16185000D01*
X47299524Y16089762D01*
X47204286Y16042143D01*
X47013810Y15994524D01*
X46870952Y15994524D01*
X46680476Y16042143D01*
X46585238Y16089762D01*
X46490000Y16185000D01*
X46442381Y16327858D01*
X46442381Y16423096D01*
X46490000Y16565953D01*
X46537619Y16613572D01*
X47156667Y16994524D02*
X47156667Y17470715D01*
X47442381Y16899286D02*
X46442381Y17232619D01*
X47442381Y17565953D01*
X47442381Y17946905D02*
X47442381Y18137381D01*
X47394762Y18232620D01*
X47347143Y18280239D01*
X47204286Y18375477D01*
X47013810Y18423096D01*
X46632857Y18423096D01*
X46537619Y18375477D01*
X46490000Y18327858D01*
X46442381Y18232620D01*
X46442381Y18042143D01*
X46490000Y17946905D01*
X46537619Y17899286D01*
X46632857Y17851667D01*
X46870952Y17851667D01*
X46966190Y17899286D01*
X47013810Y17946905D01*
X47061429Y18042143D01*
X47061429Y18232620D01*
X47013810Y18327858D01*
X46966190Y18375477D01*
X46870952Y18423096D01*
X46442381Y19327858D02*
X46442381Y18851667D01*
X46918571Y18804048D01*
X46870952Y18851667D01*
X46823333Y18946905D01*
X46823333Y19185001D01*
X46870952Y19280239D01*
X46918571Y19327858D01*
X47013810Y19375477D01*
X47251905Y19375477D01*
X47347143Y19327858D01*
X47394762Y19280239D01*
X47442381Y19185001D01*
X47442381Y18946905D01*
X47394762Y18851667D01*
X47347143Y18804048D01*
X46775714Y20232620D02*
X47442381Y20232620D01*
X46394762Y19994524D02*
X47109048Y19756429D01*
X47109048Y20375477D01*
X46442381Y21185001D02*
X46442381Y20994524D01*
X46490000Y20899286D01*
X46537619Y20851667D01*
X46680476Y20756429D01*
X46870952Y20708810D01*
X47251905Y20708810D01*
X47347143Y20756429D01*
X47394762Y20804048D01*
X47442381Y20899286D01*
X47442381Y21089763D01*
X47394762Y21185001D01*
X47347143Y21232620D01*
X47251905Y21280239D01*
X47013810Y21280239D01*
X46918571Y21232620D01*
X46870952Y21185001D01*
X46823333Y21089763D01*
X46823333Y20899286D01*
X46870952Y20804048D01*
X46918571Y20756429D01*
X47013810Y20708810D01*
X47156667Y21661191D02*
X47156667Y22137382D01*
X47442381Y21565953D02*
X46442381Y21899286D01*
X47442381Y22232620D01*
X47442381Y22565953D02*
X46442381Y22565953D01*
X46442381Y22804048D01*
X46490000Y22946906D01*
X46585238Y23042144D01*
X46680476Y23089763D01*
X46870952Y23137382D01*
X47013810Y23137382D01*
X47204286Y23089763D01*
X47299524Y23042144D01*
X47394762Y22946906D01*
X47442381Y22804048D01*
X47442381Y22565953D01*
X47442381Y24137382D02*
X46966190Y23804048D01*
X47442381Y23565953D02*
X46442381Y23565953D01*
X46442381Y23946906D01*
X46490000Y24042144D01*
X46537619Y24089763D01*
X46632857Y24137382D01*
X46775714Y24137382D01*
X46870952Y24089763D01*
X46918571Y24042144D01*
X46966190Y23946906D01*
X46966190Y23565953D01*
D12*
X149860000Y36703000D02*
X111760000Y36703000D01*
X149860000Y46990000D02*
X149860000Y36830000D01*
X111760000Y47117000D02*
X149860000Y47117000D01*
X99060000Y36703000D02*
X60960000Y36703000D01*
X99060000Y39370000D02*
X99060000Y36830000D01*
X99060000Y46990000D02*
X99060000Y39370000D01*
X60960000Y47117000D02*
X99060000Y47117000D01*
X48260000Y36703000D02*
X10160000Y36703000D01*
X48260000Y46990000D02*
X48260000Y36830000D01*
X10160000Y47117000D02*
X48260000Y47117000D01*
D11*
X118562381Y11899048D02*
X117562381Y11899048D01*
X118276667Y12232382D01*
X117562381Y12565715D01*
X118562381Y12565715D01*
X118467143Y13613334D02*
X118514762Y13565715D01*
X118562381Y13422858D01*
X118562381Y13327620D01*
X118514762Y13184762D01*
X118419524Y13089524D01*
X118324286Y13041905D01*
X118133810Y12994286D01*
X117990952Y12994286D01*
X117800476Y13041905D01*
X117705238Y13089524D01*
X117610000Y13184762D01*
X117562381Y13327620D01*
X117562381Y13422858D01*
X117610000Y13565715D01*
X117657619Y13613334D01*
X118562381Y14041905D02*
X117562381Y14041905D01*
X117562381Y14422858D01*
X117610000Y14518096D01*
X117657619Y14565715D01*
X117752857Y14613334D01*
X117895714Y14613334D01*
X117990952Y14565715D01*
X118038571Y14518096D01*
X118086190Y14422858D01*
X118086190Y14041905D01*
X117562381Y14946667D02*
X117562381Y15565715D01*
X117943333Y15232381D01*
X117943333Y15375239D01*
X117990952Y15470477D01*
X118038571Y15518096D01*
X118133810Y15565715D01*
X118371905Y15565715D01*
X118467143Y15518096D01*
X118514762Y15470477D01*
X118562381Y15375239D01*
X118562381Y15089524D01*
X118514762Y14994286D01*
X118467143Y14946667D01*
X117562381Y16184762D02*
X117562381Y16280001D01*
X117610000Y16375239D01*
X117657619Y16422858D01*
X117752857Y16470477D01*
X117943333Y16518096D01*
X118181429Y16518096D01*
X118371905Y16470477D01*
X118467143Y16422858D01*
X118514762Y16375239D01*
X118562381Y16280001D01*
X118562381Y16184762D01*
X118514762Y16089524D01*
X118467143Y16041905D01*
X118371905Y15994286D01*
X118181429Y15946667D01*
X117943333Y15946667D01*
X117752857Y15994286D01*
X117657619Y16041905D01*
X117610000Y16089524D01*
X117562381Y16184762D01*
X117562381Y17137143D02*
X117562381Y17232382D01*
X117610000Y17327620D01*
X117657619Y17375239D01*
X117752857Y17422858D01*
X117943333Y17470477D01*
X118181429Y17470477D01*
X118371905Y17422858D01*
X118467143Y17375239D01*
X118514762Y17327620D01*
X118562381Y17232382D01*
X118562381Y17137143D01*
X118514762Y17041905D01*
X118467143Y16994286D01*
X118371905Y16946667D01*
X118181429Y16899048D01*
X117943333Y16899048D01*
X117752857Y16946667D01*
X117657619Y16994286D01*
X117610000Y17041905D01*
X117562381Y17137143D01*
X117990952Y18041905D02*
X117943333Y17946667D01*
X117895714Y17899048D01*
X117800476Y17851429D01*
X117752857Y17851429D01*
X117657619Y17899048D01*
X117610000Y17946667D01*
X117562381Y18041905D01*
X117562381Y18232382D01*
X117610000Y18327620D01*
X117657619Y18375239D01*
X117752857Y18422858D01*
X117800476Y18422858D01*
X117895714Y18375239D01*
X117943333Y18327620D01*
X117990952Y18232382D01*
X117990952Y18041905D01*
X118038571Y17946667D01*
X118086190Y17899048D01*
X118181429Y17851429D01*
X118371905Y17851429D01*
X118467143Y17899048D01*
X118514762Y17946667D01*
X118562381Y18041905D01*
X118562381Y18232382D01*
X118514762Y18327620D01*
X118467143Y18375239D01*
X118371905Y18422858D01*
X118181429Y18422858D01*
X118086190Y18375239D01*
X118038571Y18327620D01*
X117990952Y18232382D01*
X117562381Y18708572D02*
X117562381Y19280001D01*
X118562381Y18994286D02*
X117562381Y18994286D01*
X118181429Y19613334D02*
X118181429Y20375239D01*
X118562381Y20851429D02*
X117562381Y20851429D01*
X117514762Y22041905D02*
X118800476Y21184762D01*
X118514762Y22327619D02*
X118562381Y22470476D01*
X118562381Y22708572D01*
X118514762Y22803810D01*
X118467143Y22851429D01*
X118371905Y22899048D01*
X118276667Y22899048D01*
X118181429Y22851429D01*
X118133810Y22803810D01*
X118086190Y22708572D01*
X118038571Y22518095D01*
X117990952Y22422857D01*
X117943333Y22375238D01*
X117848095Y22327619D01*
X117752857Y22327619D01*
X117657619Y22375238D01*
X117610000Y22422857D01*
X117562381Y22518095D01*
X117562381Y22756191D01*
X117610000Y22899048D01*
X118562381Y23803810D02*
X118562381Y23327619D01*
X117562381Y23327619D01*
D12*
X56975000Y40005000D02*
G75*
G03X56975000Y40005000I-3000000J0D01*
G01*
D13*
X28122619Y11081428D02*
X28075000Y11129047D01*
X28027381Y11224285D01*
X28027381Y11462381D01*
X28075000Y11557619D01*
X28122619Y11605238D01*
X28217857Y11652857D01*
X28313095Y11652857D01*
X28455952Y11605238D01*
X29027381Y11033809D01*
X29027381Y11652857D01*
X28027381Y12557619D02*
X28027381Y12081428D01*
X28503571Y12033809D01*
X28455952Y12081428D01*
X28408333Y12176666D01*
X28408333Y12414762D01*
X28455952Y12510000D01*
X28503571Y12557619D01*
X28598810Y12605238D01*
X28836905Y12605238D01*
X28932143Y12557619D01*
X28979762Y12510000D01*
X29027381Y12414762D01*
X29027381Y12176666D01*
X28979762Y12081428D01*
X28932143Y12033809D01*
X28360714Y13462381D02*
X29027381Y13462381D01*
X27979762Y13224285D02*
X28694048Y12986190D01*
X28694048Y13605238D01*
X28027381Y13843333D02*
X28027381Y14414762D01*
X29027381Y14129047D02*
X28027381Y14129047D01*
X28741667Y14700476D02*
X28741667Y15176667D01*
X29027381Y14605238D02*
X28027381Y14938571D01*
X29027381Y15271905D01*
X29027381Y16129048D02*
X29027381Y15557619D01*
X29027381Y15843333D02*
X28027381Y15843333D01*
X28170238Y15748095D01*
X28265476Y15652857D01*
X28313095Y15557619D01*
X28027381Y16748095D02*
X28027381Y16843334D01*
X28075000Y16938572D01*
X28122619Y16986191D01*
X28217857Y17033810D01*
X28408333Y17081429D01*
X28646429Y17081429D01*
X28836905Y17033810D01*
X28932143Y16986191D01*
X28979762Y16938572D01*
X29027381Y16843334D01*
X29027381Y16748095D01*
X28979762Y16652857D01*
X28932143Y16605238D01*
X28836905Y16557619D01*
X28646429Y16510000D01*
X28408333Y16510000D01*
X28217857Y16557619D01*
X28122619Y16605238D01*
X28075000Y16652857D01*
X28027381Y16748095D01*
X28027381Y17414762D02*
X28027381Y18033810D01*
X28408333Y17700476D01*
X28408333Y17843334D01*
X28455952Y17938572D01*
X28503571Y17986191D01*
X28598810Y18033810D01*
X28836905Y18033810D01*
X28932143Y17986191D01*
X28979762Y17938572D01*
X29027381Y17843334D01*
X29027381Y17557619D01*
X28979762Y17462381D01*
X28932143Y17414762D01*
X28503571Y18795715D02*
X28551190Y18938572D01*
X28598810Y18986191D01*
X28694048Y19033810D01*
X28836905Y19033810D01*
X28932143Y18986191D01*
X28979762Y18938572D01*
X29027381Y18843334D01*
X29027381Y18462381D01*
X28027381Y18462381D01*
X28027381Y18795715D01*
X28075000Y18890953D01*
X28122619Y18938572D01*
X28217857Y18986191D01*
X28313095Y18986191D01*
X28408333Y18938572D01*
X28455952Y18890953D01*
X28503571Y18795715D01*
X28503571Y18462381D01*
X28027381Y19938572D02*
X28027381Y19462381D01*
X28503571Y19414762D01*
X28455952Y19462381D01*
X28408333Y19557619D01*
X28408333Y19795715D01*
X28455952Y19890953D01*
X28503571Y19938572D01*
X28598810Y19986191D01*
X28836905Y19986191D01*
X28932143Y19938572D01*
X28979762Y19890953D01*
X29027381Y19795715D01*
X29027381Y19557619D01*
X28979762Y19462381D01*
X28932143Y19414762D01*
X28027381Y20605238D02*
X28027381Y20700477D01*
X28075000Y20795715D01*
X28122619Y20843334D01*
X28217857Y20890953D01*
X28408333Y20938572D01*
X28646429Y20938572D01*
X28836905Y20890953D01*
X28932143Y20843334D01*
X28979762Y20795715D01*
X29027381Y20700477D01*
X29027381Y20605238D01*
X28979762Y20510000D01*
X28932143Y20462381D01*
X28836905Y20414762D01*
X28646429Y20367143D01*
X28408333Y20367143D01*
X28217857Y20414762D01*
X28122619Y20462381D01*
X28075000Y20510000D01*
X28027381Y20605238D01*
X28503571Y21700477D02*
X28551190Y21843334D01*
X28598810Y21890953D01*
X28694048Y21938572D01*
X28836905Y21938572D01*
X28932143Y21890953D01*
X28979762Y21843334D01*
X29027381Y21748096D01*
X29027381Y21367143D01*
X28027381Y21367143D01*
X28027381Y21700477D01*
X28075000Y21795715D01*
X28122619Y21843334D01*
X28217857Y21890953D01*
X28313095Y21890953D01*
X28408333Y21843334D01*
X28455952Y21795715D01*
X28503571Y21700477D01*
X28503571Y21367143D01*
X9342381Y13447143D02*
X8866190Y13113809D01*
X9342381Y12875714D02*
X8342381Y12875714D01*
X8342381Y13256667D01*
X8390000Y13351905D01*
X8437619Y13399524D01*
X8532857Y13447143D01*
X8675714Y13447143D01*
X8770952Y13399524D01*
X8818571Y13351905D01*
X8866190Y13256667D01*
X8866190Y12875714D01*
X8342381Y13732857D02*
X9342381Y14066190D01*
X8342381Y14399524D01*
X8342381Y14923333D02*
X8342381Y15018572D01*
X8390000Y15113810D01*
X8437619Y15161429D01*
X8532857Y15209048D01*
X8723333Y15256667D01*
X8961429Y15256667D01*
X9151905Y15209048D01*
X9247143Y15161429D01*
X9294762Y15113810D01*
X9342381Y15018572D01*
X9342381Y14923333D01*
X9294762Y14828095D01*
X9247143Y14780476D01*
X9151905Y14732857D01*
X8961429Y14685238D01*
X8723333Y14685238D01*
X8532857Y14732857D01*
X8437619Y14780476D01*
X8390000Y14828095D01*
X8342381Y14923333D01*
X9342381Y15732857D02*
X9342381Y15923333D01*
X9294762Y16018572D01*
X9247143Y16066191D01*
X9104286Y16161429D01*
X8913810Y16209048D01*
X8532857Y16209048D01*
X8437619Y16161429D01*
X8390000Y16113810D01*
X8342381Y16018572D01*
X8342381Y15828095D01*
X8390000Y15732857D01*
X8437619Y15685238D01*
X8532857Y15637619D01*
X8770952Y15637619D01*
X8866190Y15685238D01*
X8913810Y15732857D01*
X8961429Y15828095D01*
X8961429Y16018572D01*
X8913810Y16113810D01*
X8866190Y16161429D01*
X8770952Y16209048D01*
X9056667Y16590000D02*
X9056667Y17066191D01*
X9342381Y16494762D02*
X8342381Y16828095D01*
X9342381Y17161429D01*
X8818571Y17828096D02*
X8818571Y17494762D01*
X9342381Y17494762D02*
X8342381Y17494762D01*
X8342381Y17970953D01*
X8961429Y18351905D02*
X8961429Y19113810D01*
X8675714Y20018572D02*
X9342381Y20018572D01*
X8294762Y19780476D02*
X9009048Y19542381D01*
X9009048Y20161429D01*
X8342381Y20732857D02*
X8342381Y20828096D01*
X8390000Y20923334D01*
X8437619Y20970953D01*
X8532857Y21018572D01*
X8723333Y21066191D01*
X8961429Y21066191D01*
X9151905Y21018572D01*
X9247143Y20970953D01*
X9294762Y20923334D01*
X9342381Y20828096D01*
X9342381Y20732857D01*
X9294762Y20637619D01*
X9247143Y20590000D01*
X9151905Y20542381D01*
X8961429Y20494762D01*
X8723333Y20494762D01*
X8532857Y20542381D01*
X8437619Y20590000D01*
X8390000Y20637619D01*
X8342381Y20732857D01*
X8961429Y21494762D02*
X8961429Y22256667D01*
X8437619Y22685238D02*
X8390000Y22732857D01*
X8342381Y22828095D01*
X8342381Y23066191D01*
X8390000Y23161429D01*
X8437619Y23209048D01*
X8532857Y23256667D01*
X8628095Y23256667D01*
X8770952Y23209048D01*
X9342381Y22637619D01*
X9342381Y23256667D01*
X8342381Y23875714D02*
X8342381Y23970953D01*
X8390000Y24066191D01*
X8437619Y24113810D01*
X8532857Y24161429D01*
X8723333Y24209048D01*
X8961429Y24209048D01*
X9151905Y24161429D01*
X9247143Y24113810D01*
X9294762Y24066191D01*
X9342381Y23970953D01*
X9342381Y23875714D01*
X9294762Y23780476D01*
X9247143Y23732857D01*
X9151905Y23685238D01*
X8961429Y23637619D01*
X8723333Y23637619D01*
X8532857Y23685238D01*
X8437619Y23732857D01*
X8390000Y23780476D01*
X8342381Y23875714D01*
X9342381Y24637619D02*
X8342381Y24637619D01*
X9342381Y25209048D02*
X8770952Y24780476D01*
X8342381Y25209048D02*
X8913810Y24637619D01*
X8961429Y25637619D02*
X8961429Y26399524D01*
X8818571Y27209048D02*
X8866190Y27351905D01*
X8913810Y27399524D01*
X9009048Y27447143D01*
X9151905Y27447143D01*
X9247143Y27399524D01*
X9294762Y27351905D01*
X9342381Y27256667D01*
X9342381Y26875714D01*
X8342381Y26875714D01*
X8342381Y27209048D01*
X8390000Y27304286D01*
X8437619Y27351905D01*
X8532857Y27399524D01*
X8628095Y27399524D01*
X8723333Y27351905D01*
X8770952Y27304286D01*
X8818571Y27209048D01*
X8818571Y26875714D01*
X9342381Y28399524D02*
X9342381Y27828095D01*
X9342381Y28113809D02*
X8342381Y28113809D01*
X8485238Y28018571D01*
X8580476Y27923333D01*
X8628095Y27828095D01*
X8342381Y29018571D02*
X8342381Y29113810D01*
X8390000Y29209048D01*
X8437619Y29256667D01*
X8532857Y29304286D01*
X8723333Y29351905D01*
X8961429Y29351905D01*
X9151905Y29304286D01*
X9247143Y29256667D01*
X9294762Y29209048D01*
X9342381Y29113810D01*
X9342381Y29018571D01*
X9294762Y28923333D01*
X9247143Y28875714D01*
X9151905Y28828095D01*
X8961429Y28780476D01*
X8723333Y28780476D01*
X8532857Y28828095D01*
X8437619Y28875714D01*
X8390000Y28923333D01*
X8342381Y29018571D01*
X9342381Y29780476D02*
X8342381Y29780476D01*
X9342381Y30351905D02*
X8770952Y29923333D01*
X8342381Y30351905D02*
X8913810Y29780476D01*
D11*
X83002381Y11899048D02*
X82002381Y11899048D01*
X82716667Y12232382D01*
X82002381Y12565715D01*
X83002381Y12565715D01*
X82907143Y13613334D02*
X82954762Y13565715D01*
X83002381Y13422858D01*
X83002381Y13327620D01*
X82954762Y13184762D01*
X82859524Y13089524D01*
X82764286Y13041905D01*
X82573810Y12994286D01*
X82430952Y12994286D01*
X82240476Y13041905D01*
X82145238Y13089524D01*
X82050000Y13184762D01*
X82002381Y13327620D01*
X82002381Y13422858D01*
X82050000Y13565715D01*
X82097619Y13613334D01*
X83002381Y14041905D02*
X82002381Y14041905D01*
X82002381Y14422858D01*
X82050000Y14518096D01*
X82097619Y14565715D01*
X82192857Y14613334D01*
X82335714Y14613334D01*
X82430952Y14565715D01*
X82478571Y14518096D01*
X82526190Y14422858D01*
X82526190Y14041905D01*
X82002381Y14946667D02*
X82002381Y15565715D01*
X82383333Y15232381D01*
X82383333Y15375239D01*
X82430952Y15470477D01*
X82478571Y15518096D01*
X82573810Y15565715D01*
X82811905Y15565715D01*
X82907143Y15518096D01*
X82954762Y15470477D01*
X83002381Y15375239D01*
X83002381Y15089524D01*
X82954762Y14994286D01*
X82907143Y14946667D01*
X82002381Y16184762D02*
X82002381Y16280001D01*
X82050000Y16375239D01*
X82097619Y16422858D01*
X82192857Y16470477D01*
X82383333Y16518096D01*
X82621429Y16518096D01*
X82811905Y16470477D01*
X82907143Y16422858D01*
X82954762Y16375239D01*
X83002381Y16280001D01*
X83002381Y16184762D01*
X82954762Y16089524D01*
X82907143Y16041905D01*
X82811905Y15994286D01*
X82621429Y15946667D01*
X82383333Y15946667D01*
X82192857Y15994286D01*
X82097619Y16041905D01*
X82050000Y16089524D01*
X82002381Y16184762D01*
X82002381Y17137143D02*
X82002381Y17232382D01*
X82050000Y17327620D01*
X82097619Y17375239D01*
X82192857Y17422858D01*
X82383333Y17470477D01*
X82621429Y17470477D01*
X82811905Y17422858D01*
X82907143Y17375239D01*
X82954762Y17327620D01*
X83002381Y17232382D01*
X83002381Y17137143D01*
X82954762Y17041905D01*
X82907143Y16994286D01*
X82811905Y16946667D01*
X82621429Y16899048D01*
X82383333Y16899048D01*
X82192857Y16946667D01*
X82097619Y16994286D01*
X82050000Y17041905D01*
X82002381Y17137143D01*
X82430952Y18041905D02*
X82383333Y17946667D01*
X82335714Y17899048D01*
X82240476Y17851429D01*
X82192857Y17851429D01*
X82097619Y17899048D01*
X82050000Y17946667D01*
X82002381Y18041905D01*
X82002381Y18232382D01*
X82050000Y18327620D01*
X82097619Y18375239D01*
X82192857Y18422858D01*
X82240476Y18422858D01*
X82335714Y18375239D01*
X82383333Y18327620D01*
X82430952Y18232382D01*
X82430952Y18041905D01*
X82478571Y17946667D01*
X82526190Y17899048D01*
X82621429Y17851429D01*
X82811905Y17851429D01*
X82907143Y17899048D01*
X82954762Y17946667D01*
X83002381Y18041905D01*
X83002381Y18232382D01*
X82954762Y18327620D01*
X82907143Y18375239D01*
X82811905Y18422858D01*
X82621429Y18422858D01*
X82526190Y18375239D01*
X82478571Y18327620D01*
X82430952Y18232382D01*
X82002381Y18708572D02*
X82002381Y19280001D01*
X83002381Y18994286D02*
X82002381Y18994286D01*
X82621429Y19613334D02*
X82621429Y20375239D01*
X83002381Y20851429D02*
X82002381Y20851429D01*
X81954762Y22041905D02*
X83240476Y21184762D01*
X82954762Y22327619D02*
X83002381Y22470476D01*
X83002381Y22708572D01*
X82954762Y22803810D01*
X82907143Y22851429D01*
X82811905Y22899048D01*
X82716667Y22899048D01*
X82621429Y22851429D01*
X82573810Y22803810D01*
X82526190Y22708572D01*
X82478571Y22518095D01*
X82430952Y22422857D01*
X82383333Y22375238D01*
X82288095Y22327619D01*
X82192857Y22327619D01*
X82097619Y22375238D01*
X82050000Y22422857D01*
X82002381Y22518095D01*
X82002381Y22756191D01*
X82050000Y22899048D01*
X83002381Y23803810D02*
X83002381Y23327619D01*
X82002381Y23327619D01*
X159270238Y19363954D02*
X158120238Y19363954D01*
X158558333Y19363954D02*
X158503571Y19473477D01*
X158503571Y19692525D01*
X158558333Y19802049D01*
X158613095Y19856811D01*
X158722619Y19911573D01*
X159051190Y19911573D01*
X159160714Y19856811D01*
X159215476Y19802049D01*
X159270238Y19692525D01*
X159270238Y19473477D01*
X159215476Y19363954D01*
X159215476Y20842525D02*
X159270238Y20733001D01*
X159270238Y20513953D01*
X159215476Y20404430D01*
X159105952Y20349668D01*
X158667857Y20349668D01*
X158558333Y20404430D01*
X158503571Y20513953D01*
X158503571Y20733001D01*
X158558333Y20842525D01*
X158667857Y20897287D01*
X158777381Y20897287D01*
X158886905Y20349668D01*
X159270238Y21554429D02*
X159215476Y21444905D01*
X159105952Y21390144D01*
X158120238Y21390144D01*
X159270238Y21992525D02*
X158503571Y21992525D01*
X158120238Y21992525D02*
X158175000Y21937763D01*
X158229762Y21992525D01*
X158175000Y22047286D01*
X158120238Y21992525D01*
X158229762Y21992525D01*
X159215476Y22978239D02*
X159270238Y22868715D01*
X159270238Y22649667D01*
X159215476Y22540144D01*
X159105952Y22485382D01*
X158667857Y22485382D01*
X158558333Y22540144D01*
X158503571Y22649667D01*
X158503571Y22868715D01*
X158558333Y22978239D01*
X158667857Y23033001D01*
X158777381Y23033001D01*
X158886905Y22485382D01*
X158503571Y23416334D02*
X159270238Y23690143D01*
X158503571Y23963953D01*
X159270238Y24566333D02*
X159215476Y24456809D01*
X159160714Y24402048D01*
X159051190Y24347286D01*
X158722619Y24347286D01*
X158613095Y24402048D01*
X158558333Y24456809D01*
X158503571Y24566333D01*
X158503571Y24730619D01*
X158558333Y24840143D01*
X158613095Y24894905D01*
X158722619Y24949667D01*
X159051190Y24949667D01*
X159160714Y24894905D01*
X159215476Y24840143D01*
X159270238Y24730619D01*
X159270238Y24566333D01*
X158503571Y25278238D02*
X158503571Y25716333D01*
X158120238Y25442524D02*
X159105952Y25442524D01*
X159215476Y25497285D01*
X159270238Y25606809D01*
X159270238Y25716333D01*
X159270238Y26099667D02*
X158503571Y26099667D01*
X158722619Y26099667D02*
X158613095Y26154428D01*
X158558333Y26209190D01*
X158503571Y26318714D01*
X158503571Y26428238D01*
X159270238Y26975857D02*
X159215476Y26866333D01*
X159160714Y26811572D01*
X159051190Y26756810D01*
X158722619Y26756810D01*
X158613095Y26811572D01*
X158558333Y26866333D01*
X158503571Y26975857D01*
X158503571Y27140143D01*
X158558333Y27249667D01*
X158613095Y27304429D01*
X158722619Y27359191D01*
X159051190Y27359191D01*
X159160714Y27304429D01*
X159215476Y27249667D01*
X159270238Y27140143D01*
X159270238Y26975857D01*
X158503571Y27852048D02*
X159270238Y27852048D01*
X158613095Y27852048D02*
X158558333Y27906809D01*
X158503571Y28016333D01*
X158503571Y28180619D01*
X158558333Y28290143D01*
X158667857Y28344905D01*
X159270238Y28344905D01*
X159160714Y28892524D02*
X159215476Y28947285D01*
X159270238Y28892524D01*
X159215476Y28837762D01*
X159160714Y28892524D01*
X159270238Y28892524D01*
X159215476Y29933000D02*
X159270238Y29823476D01*
X159270238Y29604428D01*
X159215476Y29494904D01*
X159160714Y29440143D01*
X159051190Y29385381D01*
X158722619Y29385381D01*
X158613095Y29440143D01*
X158558333Y29494904D01*
X158503571Y29604428D01*
X158503571Y29823476D01*
X158558333Y29933000D01*
X159270238Y30590142D02*
X159215476Y30480618D01*
X159160714Y30425857D01*
X159051190Y30371095D01*
X158722619Y30371095D01*
X158613095Y30425857D01*
X158558333Y30480618D01*
X158503571Y30590142D01*
X158503571Y30754428D01*
X158558333Y30863952D01*
X158613095Y30918714D01*
X158722619Y30973476D01*
X159051190Y30973476D01*
X159160714Y30918714D01*
X159215476Y30863952D01*
X159270238Y30754428D01*
X159270238Y30590142D01*
X159270238Y31466333D02*
X158503571Y31466333D01*
X158613095Y31466333D02*
X158558333Y31521094D01*
X158503571Y31630618D01*
X158503571Y31794904D01*
X158558333Y31904428D01*
X158667857Y31959190D01*
X159270238Y31959190D01*
X158667857Y31959190D02*
X158558333Y32013952D01*
X158503571Y32123475D01*
X158503571Y32287761D01*
X158558333Y32397285D01*
X158667857Y32452047D01*
X159270238Y32452047D01*
X155361190Y17249284D02*
X155837381Y17249284D01*
X154837381Y16915951D02*
X155361190Y17249284D01*
X154837381Y17582618D01*
X155837381Y18058808D02*
X155789762Y17963570D01*
X155742143Y17915951D01*
X155646905Y17868332D01*
X155361190Y17868332D01*
X155265952Y17915951D01*
X155218333Y17963570D01*
X155170714Y18058808D01*
X155170714Y18201666D01*
X155218333Y18296904D01*
X155265952Y18344523D01*
X155361190Y18392142D01*
X155646905Y18392142D01*
X155742143Y18344523D01*
X155789762Y18296904D01*
X155837381Y18201666D01*
X155837381Y18058808D01*
X155170714Y19249285D02*
X155837381Y19249285D01*
X155170714Y18820713D02*
X155694524Y18820713D01*
X155789762Y18868332D01*
X155837381Y18963570D01*
X155837381Y19106428D01*
X155789762Y19201666D01*
X155742143Y19249285D01*
X155837381Y20915952D02*
X155313571Y20915952D01*
X155218333Y20868333D01*
X155170714Y20773095D01*
X155170714Y20582618D01*
X155218333Y20487380D01*
X155789762Y20915952D02*
X155837381Y20820714D01*
X155837381Y20582618D01*
X155789762Y20487380D01*
X155694524Y20439761D01*
X155599286Y20439761D01*
X155504048Y20487380D01*
X155456429Y20582618D01*
X155456429Y20820714D01*
X155408810Y20915952D01*
X155837381Y21392142D02*
X155170714Y21392142D01*
X155361190Y21392142D02*
X155265952Y21439761D01*
X155218333Y21487380D01*
X155170714Y21582618D01*
X155170714Y21677857D01*
X155789762Y22392143D02*
X155837381Y22296905D01*
X155837381Y22106428D01*
X155789762Y22011190D01*
X155694524Y21963571D01*
X155313571Y21963571D01*
X155218333Y22011190D01*
X155170714Y22106428D01*
X155170714Y22296905D01*
X155218333Y22392143D01*
X155313571Y22439762D01*
X155408810Y22439762D01*
X155504048Y21963571D01*
X155837381Y23630238D02*
X155170714Y23630238D01*
X155265952Y23630238D02*
X155218333Y23677857D01*
X155170714Y23773095D01*
X155170714Y23915953D01*
X155218333Y24011191D01*
X155313571Y24058810D01*
X155837381Y24058810D01*
X155313571Y24058810D02*
X155218333Y24106429D01*
X155170714Y24201667D01*
X155170714Y24344524D01*
X155218333Y24439762D01*
X155313571Y24487381D01*
X155837381Y24487381D01*
X155837381Y25106428D02*
X155789762Y25011190D01*
X155742143Y24963571D01*
X155646905Y24915952D01*
X155361190Y24915952D01*
X155265952Y24963571D01*
X155218333Y25011190D01*
X155170714Y25106428D01*
X155170714Y25249286D01*
X155218333Y25344524D01*
X155265952Y25392143D01*
X155361190Y25439762D01*
X155646905Y25439762D01*
X155742143Y25392143D01*
X155789762Y25344524D01*
X155837381Y25249286D01*
X155837381Y25106428D01*
X155837381Y25868333D02*
X155170714Y25868333D01*
X155361190Y25868333D02*
X155265952Y25915952D01*
X155218333Y25963571D01*
X155170714Y26058809D01*
X155170714Y26154048D01*
X155789762Y26868334D02*
X155837381Y26773096D01*
X155837381Y26582619D01*
X155789762Y26487381D01*
X155694524Y26439762D01*
X155313571Y26439762D01*
X155218333Y26487381D01*
X155170714Y26582619D01*
X155170714Y26773096D01*
X155218333Y26868334D01*
X155313571Y26915953D01*
X155408810Y26915953D01*
X155504048Y26439762D01*
X155837381Y28106429D02*
X154837381Y28106429D01*
X155218333Y28106429D02*
X155170714Y28201667D01*
X155170714Y28392144D01*
X155218333Y28487382D01*
X155265952Y28535001D01*
X155361190Y28582620D01*
X155646905Y28582620D01*
X155742143Y28535001D01*
X155789762Y28487382D01*
X155837381Y28392144D01*
X155837381Y28201667D01*
X155789762Y28106429D01*
X155789762Y29392144D02*
X155837381Y29296906D01*
X155837381Y29106429D01*
X155789762Y29011191D01*
X155694524Y28963572D01*
X155313571Y28963572D01*
X155218333Y29011191D01*
X155170714Y29106429D01*
X155170714Y29296906D01*
X155218333Y29392144D01*
X155313571Y29439763D01*
X155408810Y29439763D01*
X155504048Y28963572D01*
X155837381Y30296906D02*
X155313571Y30296906D01*
X155218333Y30249287D01*
X155170714Y30154049D01*
X155170714Y29963572D01*
X155218333Y29868334D01*
X155789762Y30296906D02*
X155837381Y30201668D01*
X155837381Y29963572D01*
X155789762Y29868334D01*
X155694524Y29820715D01*
X155599286Y29820715D01*
X155504048Y29868334D01*
X155456429Y29963572D01*
X155456429Y30201668D01*
X155408810Y30296906D01*
X155170714Y31201668D02*
X155837381Y31201668D01*
X155170714Y30773096D02*
X155694524Y30773096D01*
X155789762Y30820715D01*
X155837381Y30915953D01*
X155837381Y31058811D01*
X155789762Y31154049D01*
X155742143Y31201668D01*
X155170714Y31535001D02*
X155170714Y31915953D01*
X154837381Y31677858D02*
X155694524Y31677858D01*
X155789762Y31725477D01*
X155837381Y31820715D01*
X155837381Y31915953D01*
X155837381Y32249287D02*
X155170714Y32249287D01*
X154837381Y32249287D02*
X154885000Y32201668D01*
X154932619Y32249287D01*
X154885000Y32296906D01*
X154837381Y32249287D01*
X154932619Y32249287D01*
X155170714Y32582620D02*
X155170714Y32963572D01*
X155837381Y32725477D02*
X154980238Y32725477D01*
X154885000Y32773096D01*
X154837381Y32868334D01*
X154837381Y32963572D01*
X155170714Y33725478D02*
X155837381Y33725478D01*
X155170714Y33296906D02*
X155694524Y33296906D01*
X155789762Y33344525D01*
X155837381Y33439763D01*
X155837381Y33582621D01*
X155789762Y33677859D01*
X155742143Y33725478D01*
X155837381Y34344525D02*
X155789762Y34249287D01*
X155694524Y34201668D01*
X154837381Y34201668D01*
X156820714Y17011189D02*
X156820714Y17392141D01*
X156487381Y17154046D02*
X157344524Y17154046D01*
X157439762Y17201665D01*
X157487381Y17296903D01*
X157487381Y17392141D01*
X157487381Y17725475D02*
X156487381Y17725475D01*
X157487381Y18154047D02*
X156963571Y18154047D01*
X156868333Y18106428D01*
X156820714Y18011190D01*
X156820714Y17868332D01*
X156868333Y17773094D01*
X156915952Y17725475D01*
X157487381Y19058809D02*
X156963571Y19058809D01*
X156868333Y19011190D01*
X156820714Y18915952D01*
X156820714Y18725475D01*
X156868333Y18630237D01*
X157439762Y19058809D02*
X157487381Y18963571D01*
X157487381Y18725475D01*
X157439762Y18630237D01*
X157344524Y18582618D01*
X157249286Y18582618D01*
X157154048Y18630237D01*
X157106429Y18725475D01*
X157106429Y18963571D01*
X157058810Y19058809D01*
X156820714Y19534999D02*
X157487381Y19534999D01*
X156915952Y19534999D02*
X156868333Y19582618D01*
X156820714Y19677856D01*
X156820714Y19820714D01*
X156868333Y19915952D01*
X156963571Y19963571D01*
X157487381Y19963571D01*
X156820714Y21106428D02*
X157487381Y21344523D01*
X156820714Y21582619D02*
X157487381Y21344523D01*
X157725476Y21249285D01*
X157773095Y21201666D01*
X157820714Y21106428D01*
X157487381Y22106428D02*
X157439762Y22011190D01*
X157392143Y21963571D01*
X157296905Y21915952D01*
X157011190Y21915952D01*
X156915952Y21963571D01*
X156868333Y22011190D01*
X156820714Y22106428D01*
X156820714Y22249286D01*
X156868333Y22344524D01*
X156915952Y22392143D01*
X157011190Y22439762D01*
X157296905Y22439762D01*
X157392143Y22392143D01*
X157439762Y22344524D01*
X157487381Y22249286D01*
X157487381Y22106428D01*
X156820714Y23296905D02*
X157487381Y23296905D01*
X156820714Y22868333D02*
X157344524Y22868333D01*
X157439762Y22915952D01*
X157487381Y23011190D01*
X157487381Y23154048D01*
X157439762Y23249286D01*
X157392143Y23296905D01*
X156820714Y24439762D02*
X157487381Y24630238D01*
X157011190Y24820715D01*
X157487381Y25011191D01*
X156820714Y25201667D01*
X157487381Y25582619D02*
X156820714Y25582619D01*
X156487381Y25582619D02*
X156535000Y25535000D01*
X156582619Y25582619D01*
X156535000Y25630238D01*
X156487381Y25582619D01*
X156582619Y25582619D01*
X157487381Y26201666D02*
X157439762Y26106428D01*
X157344524Y26058809D01*
X156487381Y26058809D01*
X157487381Y26725476D02*
X157439762Y26630238D01*
X157344524Y26582619D01*
X156487381Y26582619D01*
X157439762Y28249287D02*
X157487381Y28154049D01*
X157487381Y27963572D01*
X157439762Y27868334D01*
X157344524Y27820715D01*
X156963571Y27820715D01*
X156868333Y27868334D01*
X156820714Y27963572D01*
X156820714Y28154049D01*
X156868333Y28249287D01*
X156963571Y28296906D01*
X157058810Y28296906D01*
X157154048Y27820715D01*
X156820714Y28630239D02*
X157487381Y28868334D01*
X156820714Y29106430D01*
X157439762Y29868335D02*
X157487381Y29773097D01*
X157487381Y29582620D01*
X157439762Y29487382D01*
X157344524Y29439763D01*
X156963571Y29439763D01*
X156868333Y29487382D01*
X156820714Y29582620D01*
X156820714Y29773097D01*
X156868333Y29868335D01*
X156963571Y29915954D01*
X157058810Y29915954D01*
X157154048Y29439763D01*
X157487381Y30344525D02*
X156820714Y30344525D01*
X157011190Y30344525D02*
X156915952Y30392144D01*
X156868333Y30439763D01*
X156820714Y30535001D01*
X156820714Y30630240D01*
X157487381Y31725478D02*
X156487381Y31725478D01*
X157106429Y31820716D02*
X157487381Y32106431D01*
X156820714Y32106431D02*
X157201667Y31725478D01*
X156820714Y32535002D02*
X157487381Y32535002D01*
X156915952Y32535002D02*
X156868333Y32582621D01*
X156820714Y32677859D01*
X156820714Y32820717D01*
X156868333Y32915955D01*
X156963571Y32963574D01*
X157487381Y32963574D01*
X157487381Y33582621D02*
X157439762Y33487383D01*
X157392143Y33439764D01*
X157296905Y33392145D01*
X157011190Y33392145D01*
X156915952Y33439764D01*
X156868333Y33487383D01*
X156820714Y33582621D01*
X156820714Y33725479D01*
X156868333Y33820717D01*
X156915952Y33868336D01*
X157011190Y33915955D01*
X157296905Y33915955D01*
X157392143Y33868336D01*
X157439762Y33820717D01*
X157487381Y33725479D01*
X157487381Y33582621D01*
X156820714Y34249288D02*
X157487381Y34439764D01*
X157011190Y34630241D01*
X157487381Y34820717D01*
X156820714Y35011193D01*
X873095Y6277619D02*
X873095Y7277619D01*
X1254048Y7277619D01*
X1349286Y7230000D01*
X1396905Y7182381D01*
X1444524Y7087143D01*
X1444524Y6944286D01*
X1396905Y6849048D01*
X1349286Y6801429D01*
X1254048Y6753810D01*
X873095Y6753810D01*
X2444524Y6372857D02*
X2396905Y6325238D01*
X2254048Y6277619D01*
X2158810Y6277619D01*
X2015952Y6325238D01*
X1920714Y6420476D01*
X1873095Y6515714D01*
X1825476Y6706190D01*
X1825476Y6849048D01*
X1873095Y7039524D01*
X1920714Y7134762D01*
X2015952Y7230000D01*
X2158810Y7277619D01*
X2254048Y7277619D01*
X2396905Y7230000D01*
X2444524Y7182381D01*
X3206429Y6801429D02*
X3349286Y6753810D01*
X3396905Y6706190D01*
X3444524Y6610952D01*
X3444524Y6468095D01*
X3396905Y6372857D01*
X3349286Y6325238D01*
X3254048Y6277619D01*
X2873095Y6277619D01*
X2873095Y7277619D01*
X3206429Y7277619D01*
X3301667Y7230000D01*
X3349286Y7182381D01*
X3396905Y7087143D01*
X3396905Y6991905D01*
X3349286Y6896667D01*
X3301667Y6849048D01*
X3206429Y6801429D01*
X2873095Y6801429D01*
X4396905Y6277619D02*
X3825476Y6277619D01*
X4111190Y6277619D02*
X4111190Y7277619D01*
X4015952Y7134762D01*
X3920714Y7039524D01*
X3825476Y6991905D01*
X5015952Y7277619D02*
X5111191Y7277619D01*
X5206429Y7230000D01*
X5254048Y7182381D01*
X5301667Y7087143D01*
X5349286Y6896667D01*
X5349286Y6658571D01*
X5301667Y6468095D01*
X5254048Y6372857D01*
X5206429Y6325238D01*
X5111191Y6277619D01*
X5015952Y6277619D01*
X4920714Y6325238D01*
X4873095Y6372857D01*
X4825476Y6468095D01*
X4777857Y6658571D01*
X4777857Y6896667D01*
X4825476Y7087143D01*
X4873095Y7182381D01*
X4920714Y7230000D01*
X5015952Y7277619D01*
X5968333Y7277619D02*
X6063572Y7277619D01*
X6158810Y7230000D01*
X6206429Y7182381D01*
X6254048Y7087143D01*
X6301667Y6896667D01*
X6301667Y6658571D01*
X6254048Y6468095D01*
X6206429Y6372857D01*
X6158810Y6325238D01*
X6063572Y6277619D01*
X5968333Y6277619D01*
X5873095Y6325238D01*
X5825476Y6372857D01*
X5777857Y6468095D01*
X5730238Y6658571D01*
X5730238Y6896667D01*
X5777857Y7087143D01*
X5825476Y7182381D01*
X5873095Y7230000D01*
X5968333Y7277619D01*
X7206429Y7277619D02*
X6730238Y7277619D01*
X6682619Y6801429D01*
X6730238Y6849048D01*
X6825476Y6896667D01*
X7063572Y6896667D01*
X7158810Y6849048D01*
X7206429Y6801429D01*
X7254048Y6706190D01*
X7254048Y6468095D01*
X7206429Y6372857D01*
X7158810Y6325238D01*
X7063572Y6277619D01*
X6825476Y6277619D01*
X6730238Y6325238D01*
X6682619Y6372857D01*
X7444524Y6182381D02*
X8206429Y6182381D01*
X8444524Y6277619D02*
X8444524Y7277619D01*
X9015953Y6277619D02*
X8587381Y6849048D01*
X9015953Y7277619D02*
X8444524Y6706190D01*
X9444524Y6944286D02*
X9444524Y6277619D01*
X9444524Y6849048D02*
X9492143Y6896667D01*
X9587381Y6944286D01*
X9730239Y6944286D01*
X9825477Y6896667D01*
X9873096Y6801429D01*
X9873096Y6277619D01*
X10492143Y6277619D02*
X10396905Y6325238D01*
X10349286Y6372857D01*
X10301667Y6468095D01*
X10301667Y6753810D01*
X10349286Y6849048D01*
X10396905Y6896667D01*
X10492143Y6944286D01*
X10635001Y6944286D01*
X10730239Y6896667D01*
X10777858Y6849048D01*
X10825477Y6753810D01*
X10825477Y6468095D01*
X10777858Y6372857D01*
X10730239Y6325238D01*
X10635001Y6277619D01*
X10492143Y6277619D01*
X11254048Y6277619D02*
X11254048Y7277619D01*
X11254048Y6896667D02*
X11349286Y6944286D01*
X11539763Y6944286D01*
X11635001Y6896667D01*
X11682620Y6849048D01*
X11730239Y6753810D01*
X11730239Y6468095D01*
X11682620Y6372857D01*
X11635001Y6325238D01*
X11539763Y6277619D01*
X11349286Y6277619D01*
X11254048Y6325238D01*
X12730239Y6372857D02*
X12682620Y6325238D01*
X12539763Y6277619D01*
X12444525Y6277619D01*
X12301667Y6325238D01*
X12206429Y6420476D01*
X12158810Y6515714D01*
X12111191Y6706190D01*
X12111191Y6849048D01*
X12158810Y7039524D01*
X12206429Y7134762D01*
X12301667Y7230000D01*
X12444525Y7277619D01*
X12539763Y7277619D01*
X12682620Y7230000D01*
X12730239Y7182381D01*
X13301667Y6277619D02*
X13206429Y6325238D01*
X13158810Y6372857D01*
X13111191Y6468095D01*
X13111191Y6753810D01*
X13158810Y6849048D01*
X13206429Y6896667D01*
X13301667Y6944286D01*
X13444525Y6944286D01*
X13539763Y6896667D01*
X13587382Y6849048D01*
X13635001Y6753810D01*
X13635001Y6468095D01*
X13587382Y6372857D01*
X13539763Y6325238D01*
X13444525Y6277619D01*
X13301667Y6277619D01*
X14063572Y6277619D02*
X14063572Y6944286D01*
X14063572Y6753810D02*
X14111191Y6849048D01*
X14158810Y6896667D01*
X14254048Y6944286D01*
X14349287Y6944286D01*
X15063573Y6325238D02*
X14968335Y6277619D01*
X14777858Y6277619D01*
X14682620Y6325238D01*
X14635001Y6420476D01*
X14635001Y6801429D01*
X14682620Y6896667D01*
X14777858Y6944286D01*
X14968335Y6944286D01*
X15063573Y6896667D01*
X15111192Y6801429D01*
X15111192Y6706190D01*
X14635001Y6610952D01*
X15301668Y6182381D02*
X16063573Y6182381D01*
X16254049Y7182381D02*
X16301668Y7230000D01*
X16396906Y7277619D01*
X16635002Y7277619D01*
X16730240Y7230000D01*
X16777859Y7182381D01*
X16825478Y7087143D01*
X16825478Y6991905D01*
X16777859Y6849048D01*
X16206430Y6277619D01*
X16825478Y6277619D01*
X17444525Y7277619D02*
X17539764Y7277619D01*
X17635002Y7230000D01*
X17682621Y7182381D01*
X17730240Y7087143D01*
X17777859Y6896667D01*
X17777859Y6658571D01*
X17730240Y6468095D01*
X17682621Y6372857D01*
X17635002Y6325238D01*
X17539764Y6277619D01*
X17444525Y6277619D01*
X17349287Y6325238D01*
X17301668Y6372857D01*
X17254049Y6468095D01*
X17206430Y6658571D01*
X17206430Y6896667D01*
X17254049Y7087143D01*
X17301668Y7182381D01*
X17349287Y7230000D01*
X17444525Y7277619D01*
X18730240Y6277619D02*
X18158811Y6277619D01*
X18444525Y6277619D02*
X18444525Y7277619D01*
X18349287Y7134762D01*
X18254049Y7039524D01*
X18158811Y6991905D01*
X19063573Y7277619D02*
X19730240Y7277619D01*
X19301668Y6277619D01*
X20111192Y6658571D02*
X20873097Y6658571D01*
X21539763Y7277619D02*
X21635002Y7277619D01*
X21730240Y7230000D01*
X21777859Y7182381D01*
X21825478Y7087143D01*
X21873097Y6896667D01*
X21873097Y6658571D01*
X21825478Y6468095D01*
X21777859Y6372857D01*
X21730240Y6325238D01*
X21635002Y6277619D01*
X21539763Y6277619D01*
X21444525Y6325238D01*
X21396906Y6372857D01*
X21349287Y6468095D01*
X21301668Y6658571D01*
X21301668Y6896667D01*
X21349287Y7087143D01*
X21396906Y7182381D01*
X21444525Y7230000D01*
X21539763Y7277619D01*
X22730240Y7277619D02*
X22539763Y7277619D01*
X22444525Y7230000D01*
X22396906Y7182381D01*
X22301668Y7039524D01*
X22254049Y6849048D01*
X22254049Y6468095D01*
X22301668Y6372857D01*
X22349287Y6325238D01*
X22444525Y6277619D01*
X22635002Y6277619D01*
X22730240Y6325238D01*
X22777859Y6372857D01*
X22825478Y6468095D01*
X22825478Y6706190D01*
X22777859Y6801429D01*
X22730240Y6849048D01*
X22635002Y6896667D01*
X22444525Y6896667D01*
X22349287Y6849048D01*
X22301668Y6801429D01*
X22254049Y6706190D01*
X23254049Y6658571D02*
X24015954Y6658571D01*
X24682620Y7277619D02*
X24777859Y7277619D01*
X24873097Y7230000D01*
X24920716Y7182381D01*
X24968335Y7087143D01*
X25015954Y6896667D01*
X25015954Y6658571D01*
X24968335Y6468095D01*
X24920716Y6372857D01*
X24873097Y6325238D01*
X24777859Y6277619D01*
X24682620Y6277619D01*
X24587382Y6325238D01*
X24539763Y6372857D01*
X24492144Y6468095D01*
X24444525Y6658571D01*
X24444525Y6896667D01*
X24492144Y7087143D01*
X24539763Y7182381D01*
X24587382Y7230000D01*
X24682620Y7277619D01*
X25349287Y7277619D02*
X26015954Y7277619D01*
X25587382Y6277619D01*
X1015952Y5199048D02*
X920714Y5246667D01*
X873095Y5294286D01*
X825476Y5389524D01*
X825476Y5437143D01*
X873095Y5532381D01*
X920714Y5580000D01*
X1015952Y5627619D01*
X1206429Y5627619D01*
X1301667Y5580000D01*
X1349286Y5532381D01*
X1396905Y5437143D01*
X1396905Y5389524D01*
X1349286Y5294286D01*
X1301667Y5246667D01*
X1206429Y5199048D01*
X1015952Y5199048D01*
X920714Y5151429D01*
X873095Y5103810D01*
X825476Y5008571D01*
X825476Y4818095D01*
X873095Y4722857D01*
X920714Y4675238D01*
X1015952Y4627619D01*
X1206429Y4627619D01*
X1301667Y4675238D01*
X1349286Y4722857D01*
X1396905Y4818095D01*
X1396905Y5008571D01*
X1349286Y5103810D01*
X1301667Y5151429D01*
X1206429Y5199048D01*
X2396905Y4722857D02*
X2349286Y4675238D01*
X2206429Y4627619D01*
X2111191Y4627619D01*
X1968333Y4675238D01*
X1873095Y4770476D01*
X1825476Y4865714D01*
X1777857Y5056190D01*
X1777857Y5199048D01*
X1825476Y5389524D01*
X1873095Y5484762D01*
X1968333Y5580000D01*
X2111191Y5627619D01*
X2206429Y5627619D01*
X2349286Y5580000D01*
X2396905Y5532381D01*
X2825476Y4627619D02*
X2825476Y5627619D01*
X2825476Y5151429D02*
X3396905Y5151429D01*
X3396905Y4627619D02*
X3396905Y5627619D01*
X4635000Y4627619D02*
X4635000Y5627619D01*
X5206429Y4627619D02*
X4777857Y5199048D01*
X5206429Y5627619D02*
X4635000Y5056190D01*
X5635000Y5294286D02*
X5635000Y4627619D01*
X5635000Y5199048D02*
X5682619Y5246667D01*
X5777857Y5294286D01*
X5920715Y5294286D01*
X6015953Y5246667D01*
X6063572Y5151429D01*
X6063572Y4627619D01*
X6682619Y4627619D02*
X6587381Y4675238D01*
X6539762Y4722857D01*
X6492143Y4818095D01*
X6492143Y5103810D01*
X6539762Y5199048D01*
X6587381Y5246667D01*
X6682619Y5294286D01*
X6825477Y5294286D01*
X6920715Y5246667D01*
X6968334Y5199048D01*
X7015953Y5103810D01*
X7015953Y4818095D01*
X6968334Y4722857D01*
X6920715Y4675238D01*
X6825477Y4627619D01*
X6682619Y4627619D01*
X7444524Y4627619D02*
X7444524Y5627619D01*
X7444524Y5246667D02*
X7539762Y5294286D01*
X7730239Y5294286D01*
X7825477Y5246667D01*
X7873096Y5199048D01*
X7920715Y5103810D01*
X7920715Y4818095D01*
X7873096Y4722857D01*
X7825477Y4675238D01*
X7730239Y4627619D01*
X7539762Y4627619D01*
X7444524Y4675238D01*
X8301667Y4675238D02*
X8396905Y4627619D01*
X8587381Y4627619D01*
X8682620Y4675238D01*
X8730239Y4770476D01*
X8730239Y4818095D01*
X8682620Y4913333D01*
X8587381Y4960952D01*
X8444524Y4960952D01*
X8349286Y5008571D01*
X8301667Y5103810D01*
X8301667Y5151429D01*
X8349286Y5246667D01*
X8444524Y5294286D01*
X8587381Y5294286D01*
X8682620Y5246667D01*
X9920715Y5008571D02*
X10682620Y5008571D01*
X10301668Y4627619D02*
X10301668Y5389524D01*
X11777858Y5627619D02*
X12111191Y4627619D01*
X12444525Y5627619D01*
X12920715Y4627619D02*
X12825477Y4675238D01*
X12777858Y4722857D01*
X12730239Y4818095D01*
X12730239Y5103810D01*
X12777858Y5199048D01*
X12825477Y5246667D01*
X12920715Y5294286D01*
X13063573Y5294286D01*
X13158811Y5246667D01*
X13206430Y5199048D01*
X13254049Y5103810D01*
X13254049Y4818095D01*
X13206430Y4722857D01*
X13158811Y4675238D01*
X13063573Y4627619D01*
X12920715Y4627619D01*
X13825477Y4627619D02*
X13730239Y4675238D01*
X13682620Y4770476D01*
X13682620Y5627619D01*
X14968335Y5008571D02*
X15730240Y5008571D01*
X15349288Y4627619D02*
X15349288Y5389524D01*
X17396907Y5294286D02*
X17396907Y4627619D01*
X17158811Y5675238D02*
X16920716Y4960952D01*
X17539764Y4960952D01*
X18492145Y4722857D02*
X18444526Y4675238D01*
X18301669Y4627619D01*
X18206431Y4627619D01*
X18063573Y4675238D01*
X17968335Y4770476D01*
X17920716Y4865714D01*
X17873097Y5056190D01*
X17873097Y5199048D01*
X17920716Y5389524D01*
X17968335Y5484762D01*
X18063573Y5580000D01*
X18206431Y5627619D01*
X18301669Y5627619D01*
X18444526Y5580000D01*
X18492145Y5532381D01*
X18920716Y4627619D02*
X18920716Y5627619D01*
X18920716Y5151429D02*
X19492145Y5151429D01*
X19492145Y4627619D02*
X19492145Y5627619D01*
X21015955Y5627619D02*
X21015955Y4913333D01*
X20968335Y4770476D01*
X20873097Y4675238D01*
X20730240Y4627619D01*
X20635002Y4627619D01*
X21635002Y4627619D02*
X21539764Y4675238D01*
X21492145Y4722857D01*
X21444526Y4818095D01*
X21444526Y5103810D01*
X21492145Y5199048D01*
X21539764Y5246667D01*
X21635002Y5294286D01*
X21777860Y5294286D01*
X21873098Y5246667D01*
X21920717Y5199048D01*
X21968336Y5103810D01*
X21968336Y4818095D01*
X21920717Y4722857D01*
X21873098Y4675238D01*
X21777860Y4627619D01*
X21635002Y4627619D01*
X22301669Y5294286D02*
X22539764Y4627619D01*
X22777860Y5294286D02*
X22539764Y4627619D01*
X22444526Y4389524D01*
X22396907Y4341905D01*
X22301669Y4294286D01*
X23063574Y5627619D02*
X23730241Y4627619D01*
X23730241Y5627619D02*
X23063574Y4627619D01*
X24301669Y5103810D02*
X24301669Y4627619D01*
X23968336Y5627619D02*
X24301669Y5103810D01*
X24635003Y5627619D01*
X25730241Y5008571D02*
X26492146Y5008571D01*
X26111194Y4627619D02*
X26111194Y5389524D01*
X27635003Y5627619D02*
X28254051Y5627619D01*
X27920717Y5246667D01*
X28063575Y5246667D01*
X28158813Y5199048D01*
X28206432Y5151429D01*
X28254051Y5056190D01*
X28254051Y4818095D01*
X28206432Y4722857D01*
X28158813Y4675238D01*
X28063575Y4627619D01*
X27777860Y4627619D01*
X27682622Y4675238D01*
X27635003Y4722857D01*
X29254051Y4722857D02*
X29206432Y4675238D01*
X29063575Y4627619D01*
X28968337Y4627619D01*
X28825479Y4675238D01*
X28730241Y4770476D01*
X28682622Y4865714D01*
X28635003Y5056190D01*
X28635003Y5199048D01*
X28682622Y5389524D01*
X28730241Y5484762D01*
X28825479Y5580000D01*
X28968337Y5627619D01*
X29063575Y5627619D01*
X29206432Y5580000D01*
X29254051Y5532381D01*
X29682622Y4627619D02*
X29682622Y5627619D01*
X29682622Y5151429D02*
X30254051Y5151429D01*
X30254051Y4627619D02*
X30254051Y5627619D01*
X31682622Y5627619D02*
X31873099Y5627619D01*
X31968337Y5580000D01*
X32063575Y5484762D01*
X32111194Y5294286D01*
X32111194Y4960952D01*
X32063575Y4770476D01*
X31968337Y4675238D01*
X31873099Y4627619D01*
X31682622Y4627619D01*
X31587384Y4675238D01*
X31492146Y4770476D01*
X31444527Y4960952D01*
X31444527Y5294286D01*
X31492146Y5484762D01*
X31587384Y5580000D01*
X31682622Y5627619D01*
X33015956Y4627619D02*
X32539765Y4627619D01*
X32539765Y5627619D01*
X33349289Y5151429D02*
X33682623Y5151429D01*
X33825480Y4627619D02*
X33349289Y4627619D01*
X33349289Y5627619D01*
X33825480Y5627619D01*
X34254051Y4627619D02*
X34254051Y5627619D01*
X34492146Y5627619D01*
X34635004Y5580000D01*
X34730242Y5484762D01*
X34777861Y5389524D01*
X34825480Y5199048D01*
X34825480Y5056190D01*
X34777861Y4865714D01*
X34730242Y4770476D01*
X34635004Y4675238D01*
X34492146Y4627619D01*
X34254051Y4627619D01*
X873095Y2977619D02*
X873095Y3977619D01*
X1301667Y2977619D02*
X1301667Y3501429D01*
X1254048Y3596667D01*
X1158810Y3644286D01*
X1015952Y3644286D01*
X920714Y3596667D01*
X873095Y3549048D01*
X1635000Y3644286D02*
X2015952Y3644286D01*
X1777857Y3977619D02*
X1777857Y3120476D01*
X1825476Y3025238D01*
X1920714Y2977619D01*
X2015952Y2977619D01*
X2206429Y3644286D02*
X2587381Y3644286D01*
X2349286Y3977619D02*
X2349286Y3120476D01*
X2396905Y3025238D01*
X2492143Y2977619D01*
X2587381Y2977619D01*
X2920715Y3644286D02*
X2920715Y2644286D01*
X2920715Y3596667D02*
X3015953Y3644286D01*
X3206430Y3644286D01*
X3301668Y3596667D01*
X3349287Y3549048D01*
X3396906Y3453810D01*
X3396906Y3168095D01*
X3349287Y3072857D01*
X3301668Y3025238D01*
X3206430Y2977619D01*
X3015953Y2977619D01*
X2920715Y3025238D01*
X3777858Y3025238D02*
X3873096Y2977619D01*
X4063572Y2977619D01*
X4158811Y3025238D01*
X4206430Y3120476D01*
X4206430Y3168095D01*
X4158811Y3263333D01*
X4063572Y3310952D01*
X3920715Y3310952D01*
X3825477Y3358571D01*
X3777858Y3453810D01*
X3777858Y3501429D01*
X3825477Y3596667D01*
X3920715Y3644286D01*
X4063572Y3644286D01*
X4158811Y3596667D01*
X4635001Y3072857D02*
X4682620Y3025238D01*
X4635001Y2977619D01*
X4587382Y3025238D01*
X4635001Y3072857D01*
X4635001Y2977619D01*
X4635001Y3596667D02*
X4682620Y3549048D01*
X4635001Y3501429D01*
X4587382Y3549048D01*
X4635001Y3596667D01*
X4635001Y3501429D01*
X5825477Y4025238D02*
X4968334Y2739524D01*
X6873096Y4025238D02*
X6015953Y2739524D01*
X7635001Y3644286D02*
X7635001Y2834762D01*
X7587382Y2739524D01*
X7539763Y2691905D01*
X7444524Y2644286D01*
X7301667Y2644286D01*
X7206429Y2691905D01*
X7635001Y3025238D02*
X7539763Y2977619D01*
X7349286Y2977619D01*
X7254048Y3025238D01*
X7206429Y3072857D01*
X7158810Y3168095D01*
X7158810Y3453810D01*
X7206429Y3549048D01*
X7254048Y3596667D01*
X7349286Y3644286D01*
X7539763Y3644286D01*
X7635001Y3596667D01*
X8111191Y2977619D02*
X8111191Y3644286D01*
X8111191Y3977619D02*
X8063572Y3930000D01*
X8111191Y3882381D01*
X8158810Y3930000D01*
X8111191Y3977619D01*
X8111191Y3882381D01*
X8444524Y3644286D02*
X8825476Y3644286D01*
X8587381Y3977619D02*
X8587381Y3120476D01*
X8635000Y3025238D01*
X8730238Y2977619D01*
X8825476Y2977619D01*
X9158810Y2977619D02*
X9158810Y3977619D01*
X9587382Y2977619D02*
X9587382Y3501429D01*
X9539763Y3596667D01*
X9444525Y3644286D01*
X9301667Y3644286D01*
X9206429Y3596667D01*
X9158810Y3549048D01*
X10492144Y3644286D02*
X10492144Y2977619D01*
X10063572Y3644286D02*
X10063572Y3120476D01*
X10111191Y3025238D01*
X10206429Y2977619D01*
X10349287Y2977619D01*
X10444525Y3025238D01*
X10492144Y3072857D01*
X10968334Y2977619D02*
X10968334Y3977619D01*
X10968334Y3596667D02*
X11063572Y3644286D01*
X11254049Y3644286D01*
X11349287Y3596667D01*
X11396906Y3549048D01*
X11444525Y3453810D01*
X11444525Y3168095D01*
X11396906Y3072857D01*
X11349287Y3025238D01*
X11254049Y2977619D01*
X11063572Y2977619D01*
X10968334Y3025238D01*
X11873096Y3072857D02*
X11920715Y3025238D01*
X11873096Y2977619D01*
X11825477Y3025238D01*
X11873096Y3072857D01*
X11873096Y2977619D01*
X12777858Y3025238D02*
X12682620Y2977619D01*
X12492143Y2977619D01*
X12396905Y3025238D01*
X12349286Y3072857D01*
X12301667Y3168095D01*
X12301667Y3453810D01*
X12349286Y3549048D01*
X12396905Y3596667D01*
X12492143Y3644286D01*
X12682620Y3644286D01*
X12777858Y3596667D01*
X13349286Y2977619D02*
X13254048Y3025238D01*
X13206429Y3072857D01*
X13158810Y3168095D01*
X13158810Y3453810D01*
X13206429Y3549048D01*
X13254048Y3596667D01*
X13349286Y3644286D01*
X13492144Y3644286D01*
X13587382Y3596667D01*
X13635001Y3549048D01*
X13682620Y3453810D01*
X13682620Y3168095D01*
X13635001Y3072857D01*
X13587382Y3025238D01*
X13492144Y2977619D01*
X13349286Y2977619D01*
X14111191Y2977619D02*
X14111191Y3644286D01*
X14111191Y3549048D02*
X14158810Y3596667D01*
X14254048Y3644286D01*
X14396906Y3644286D01*
X14492144Y3596667D01*
X14539763Y3501429D01*
X14539763Y2977619D01*
X14539763Y3501429D02*
X14587382Y3596667D01*
X14682620Y3644286D01*
X14825477Y3644286D01*
X14920715Y3596667D01*
X14968334Y3501429D01*
X14968334Y2977619D01*
X16158810Y4025238D02*
X15301667Y2739524D01*
X16825477Y3501429D02*
X16968334Y3453810D01*
X17015953Y3406190D01*
X17063572Y3310952D01*
X17063572Y3168095D01*
X17015953Y3072857D01*
X16968334Y3025238D01*
X16873096Y2977619D01*
X16492143Y2977619D01*
X16492143Y3977619D01*
X16825477Y3977619D01*
X16920715Y3930000D01*
X16968334Y3882381D01*
X17015953Y3787143D01*
X17015953Y3691905D01*
X16968334Y3596667D01*
X16920715Y3549048D01*
X16825477Y3501429D01*
X16492143Y3501429D01*
X17873096Y3025238D02*
X17777858Y2977619D01*
X17587381Y2977619D01*
X17492143Y3025238D01*
X17444524Y3120476D01*
X17444524Y3501429D01*
X17492143Y3596667D01*
X17587381Y3644286D01*
X17777858Y3644286D01*
X17873096Y3596667D01*
X17920715Y3501429D01*
X17920715Y3406190D01*
X17444524Y3310952D01*
X18492143Y2977619D02*
X18396905Y3025238D01*
X18349286Y3120476D01*
X18349286Y3977619D01*
X18873096Y2977619D02*
X18873096Y3644286D01*
X18873096Y3977619D02*
X18825477Y3930000D01*
X18873096Y3882381D01*
X18920715Y3930000D01*
X18873096Y3977619D01*
X18873096Y3882381D01*
X19730239Y3025238D02*
X19635001Y2977619D01*
X19444524Y2977619D01*
X19349286Y3025238D01*
X19301667Y3120476D01*
X19301667Y3501429D01*
X19349286Y3596667D01*
X19444524Y3644286D01*
X19635001Y3644286D01*
X19730239Y3596667D01*
X19777858Y3501429D01*
X19777858Y3406190D01*
X19301667Y3310952D01*
X20111191Y3644286D02*
X20349286Y2977619D01*
X20587382Y3644286D01*
X21111191Y2977619D02*
X21015953Y3025238D01*
X20968334Y3072857D01*
X20920715Y3168095D01*
X20920715Y3453810D01*
X20968334Y3549048D01*
X21015953Y3596667D01*
X21111191Y3644286D01*
X21254049Y3644286D01*
X21349287Y3596667D01*
X21396906Y3549048D01*
X21444525Y3453810D01*
X21444525Y3168095D01*
X21396906Y3072857D01*
X21349287Y3025238D01*
X21254049Y2977619D01*
X21111191Y2977619D01*
X21730239Y3644286D02*
X22111191Y3644286D01*
X21873096Y3977619D02*
X21873096Y3120476D01*
X21920715Y3025238D01*
X22015953Y2977619D01*
X22111191Y2977619D01*
X22444525Y2977619D02*
X22444525Y3644286D01*
X22444525Y3453810D02*
X22492144Y3549048D01*
X22539763Y3596667D01*
X22635001Y3644286D01*
X22730240Y3644286D01*
X23206430Y2977619D02*
X23111192Y3025238D01*
X23063573Y3072857D01*
X23015954Y3168095D01*
X23015954Y3453810D01*
X23063573Y3549048D01*
X23111192Y3596667D01*
X23206430Y3644286D01*
X23349288Y3644286D01*
X23444526Y3596667D01*
X23492145Y3549048D01*
X23539764Y3453810D01*
X23539764Y3168095D01*
X23492145Y3072857D01*
X23444526Y3025238D01*
X23349288Y2977619D01*
X23206430Y2977619D01*
X23968335Y3644286D02*
X23968335Y2977619D01*
X23968335Y3549048D02*
X24015954Y3596667D01*
X24111192Y3644286D01*
X24254050Y3644286D01*
X24349288Y3596667D01*
X24396907Y3501429D01*
X24396907Y2977619D01*
X25587383Y4025238D02*
X24730240Y2739524D01*
X26254050Y3501429D02*
X26396907Y3453810D01*
X26444526Y3406190D01*
X26492145Y3310952D01*
X26492145Y3168095D01*
X26444526Y3072857D01*
X26396907Y3025238D01*
X26301669Y2977619D01*
X25920716Y2977619D01*
X25920716Y3977619D01*
X26254050Y3977619D01*
X26349288Y3930000D01*
X26396907Y3882381D01*
X26444526Y3787143D01*
X26444526Y3691905D01*
X26396907Y3596667D01*
X26349288Y3549048D01*
X26254050Y3501429D01*
X25920716Y3501429D01*
X27301669Y3025238D02*
X27206431Y2977619D01*
X27015954Y2977619D01*
X26920716Y3025238D01*
X26873097Y3120476D01*
X26873097Y3501429D01*
X26920716Y3596667D01*
X27015954Y3644286D01*
X27206431Y3644286D01*
X27301669Y3596667D01*
X27349288Y3501429D01*
X27349288Y3406190D01*
X26873097Y3310952D01*
X27920716Y2977619D02*
X27825478Y3025238D01*
X27777859Y3120476D01*
X27777859Y3977619D01*
X28301669Y2977619D02*
X28301669Y3644286D01*
X28301669Y3977619D02*
X28254050Y3930000D01*
X28301669Y3882381D01*
X28349288Y3930000D01*
X28301669Y3977619D01*
X28301669Y3882381D01*
X29158812Y3025238D02*
X29063574Y2977619D01*
X28873097Y2977619D01*
X28777859Y3025238D01*
X28730240Y3120476D01*
X28730240Y3501429D01*
X28777859Y3596667D01*
X28873097Y3644286D01*
X29063574Y3644286D01*
X29158812Y3596667D01*
X29206431Y3501429D01*
X29206431Y3406190D01*
X28730240Y3310952D01*
X29539764Y3644286D02*
X29777859Y2977619D01*
X30015955Y3644286D01*
X30539764Y2977619D02*
X30444526Y3025238D01*
X30396907Y3072857D01*
X30349288Y3168095D01*
X30349288Y3453810D01*
X30396907Y3549048D01*
X30444526Y3596667D01*
X30539764Y3644286D01*
X30682622Y3644286D01*
X30777860Y3596667D01*
X30825479Y3549048D01*
X30873098Y3453810D01*
X30873098Y3168095D01*
X30825479Y3072857D01*
X30777860Y3025238D01*
X30682622Y2977619D01*
X30539764Y2977619D01*
X31158812Y3644286D02*
X31539764Y3644286D01*
X31301669Y3977619D02*
X31301669Y3120476D01*
X31349288Y3025238D01*
X31444526Y2977619D01*
X31539764Y2977619D01*
X31873098Y2977619D02*
X31873098Y3644286D01*
X31873098Y3453810D02*
X31920717Y3549048D01*
X31968336Y3596667D01*
X32063574Y3644286D01*
X32158813Y3644286D01*
X32635003Y2977619D02*
X32539765Y3025238D01*
X32492146Y3072857D01*
X32444527Y3168095D01*
X32444527Y3453810D01*
X32492146Y3549048D01*
X32539765Y3596667D01*
X32635003Y3644286D01*
X32777861Y3644286D01*
X32873099Y3596667D01*
X32920718Y3549048D01*
X32968337Y3453810D01*
X32968337Y3168095D01*
X32920718Y3072857D01*
X32873099Y3025238D01*
X32777861Y2977619D01*
X32635003Y2977619D01*
X33396908Y3644286D02*
X33396908Y2977619D01*
X33396908Y3549048D02*
X33444527Y3596667D01*
X33539765Y3644286D01*
X33682623Y3644286D01*
X33777861Y3596667D01*
X33825480Y3501429D01*
X33825480Y2977619D01*
X34206432Y3977619D02*
X34444527Y2977619D01*
X34635004Y3691905D01*
X34825480Y2977619D01*
X35063575Y3977619D01*
X35873099Y2977619D02*
X35873099Y3501429D01*
X35825480Y3596667D01*
X35730242Y3644286D01*
X35539765Y3644286D01*
X35444527Y3596667D01*
X35873099Y3025238D02*
X35777861Y2977619D01*
X35539765Y2977619D01*
X35444527Y3025238D01*
X35396908Y3120476D01*
X35396908Y3215714D01*
X35444527Y3310952D01*
X35539765Y3358571D01*
X35777861Y3358571D01*
X35873099Y3406190D01*
X36349289Y3644286D02*
X36349289Y2977619D01*
X36349289Y3549048D02*
X36396908Y3596667D01*
X36492146Y3644286D01*
X36635004Y3644286D01*
X36730242Y3596667D01*
X36777861Y3501429D01*
X36777861Y2977619D01*
X37682623Y2977619D02*
X37682623Y3977619D01*
X37682623Y3025238D02*
X37587385Y2977619D01*
X37396908Y2977619D01*
X37301670Y3025238D01*
X37254051Y3072857D01*
X37206432Y3168095D01*
X37206432Y3453810D01*
X37254051Y3549048D01*
X37301670Y3596667D01*
X37396908Y3644286D01*
X37587385Y3644286D01*
X37682623Y3596667D01*
X38539766Y3025238D02*
X38444528Y2977619D01*
X38254051Y2977619D01*
X38158813Y3025238D01*
X38111194Y3120476D01*
X38111194Y3501429D01*
X38158813Y3596667D01*
X38254051Y3644286D01*
X38444528Y3644286D01*
X38539766Y3596667D01*
X38587385Y3501429D01*
X38587385Y3406190D01*
X38111194Y3310952D01*
X39015956Y2977619D02*
X39015956Y3644286D01*
X39015956Y3453810D02*
X39063575Y3549048D01*
X39111194Y3596667D01*
X39206432Y3644286D01*
X39301671Y3644286D01*
X39777861Y2977619D02*
X39682623Y3025238D01*
X39635004Y3120476D01*
X39635004Y3977619D01*
X40587386Y3644286D02*
X40587386Y2977619D01*
X40158814Y3644286D02*
X40158814Y3120476D01*
X40206433Y3025238D01*
X40301671Y2977619D01*
X40444529Y2977619D01*
X40539767Y3025238D01*
X40587386Y3072857D01*
X41015957Y3025238D02*
X41111195Y2977619D01*
X41301671Y2977619D01*
X41396910Y3025238D01*
X41444529Y3120476D01*
X41444529Y3168095D01*
X41396910Y3263333D01*
X41301671Y3310952D01*
X41158814Y3310952D01*
X41063576Y3358571D01*
X41015957Y3453810D01*
X41015957Y3501429D01*
X41063576Y3596667D01*
X41158814Y3644286D01*
X41301671Y3644286D01*
X41396910Y3596667D01*
X41730243Y3644286D02*
X42111195Y3644286D01*
X41873100Y3977619D02*
X41873100Y3120476D01*
X41920719Y3025238D01*
X42015957Y2977619D01*
X42111195Y2977619D01*
X42444529Y2977619D02*
X42444529Y3977619D01*
X42444529Y3501429D02*
X43015958Y3501429D01*
X43015958Y2977619D02*
X43015958Y3977619D01*
X43920720Y2977619D02*
X43920720Y3501429D01*
X43873101Y3596667D01*
X43777863Y3644286D01*
X43587386Y3644286D01*
X43492148Y3596667D01*
X43920720Y3025238D02*
X43825482Y2977619D01*
X43587386Y2977619D01*
X43492148Y3025238D01*
X43444529Y3120476D01*
X43444529Y3215714D01*
X43492148Y3310952D01*
X43587386Y3358571D01*
X43825482Y3358571D01*
X43920720Y3406190D01*
X44396910Y2977619D02*
X44396910Y3644286D01*
X44396910Y3453810D02*
X44444529Y3549048D01*
X44492148Y3596667D01*
X44587386Y3644286D01*
X44682625Y3644286D01*
X45444530Y2977619D02*
X45444530Y3977619D01*
X45444530Y3025238D02*
X45349292Y2977619D01*
X45158815Y2977619D01*
X45063577Y3025238D01*
X45015958Y3072857D01*
X44968339Y3168095D01*
X44968339Y3453810D01*
X45015958Y3549048D01*
X45063577Y3596667D01*
X45158815Y3644286D01*
X45349292Y3644286D01*
X45444530Y3596667D01*
X45825482Y3644286D02*
X46015958Y2977619D01*
X46206435Y3453810D01*
X46396911Y2977619D01*
X46587387Y3644286D01*
X47396911Y2977619D02*
X47396911Y3501429D01*
X47349292Y3596667D01*
X47254054Y3644286D01*
X47063577Y3644286D01*
X46968339Y3596667D01*
X47396911Y3025238D02*
X47301673Y2977619D01*
X47063577Y2977619D01*
X46968339Y3025238D01*
X46920720Y3120476D01*
X46920720Y3215714D01*
X46968339Y3310952D01*
X47063577Y3358571D01*
X47301673Y3358571D01*
X47396911Y3406190D01*
X47873101Y2977619D02*
X47873101Y3644286D01*
X47873101Y3453810D02*
X47920720Y3549048D01*
X47968339Y3596667D01*
X48063577Y3644286D01*
X48158816Y3644286D01*
X48873102Y3025238D02*
X48777864Y2977619D01*
X48587387Y2977619D01*
X48492149Y3025238D01*
X48444530Y3120476D01*
X48444530Y3501429D01*
X48492149Y3596667D01*
X48587387Y3644286D01*
X48777864Y3644286D01*
X48873102Y3596667D01*
X48920721Y3501429D01*
X48920721Y3406190D01*
X48444530Y3310952D01*
D14*
X58285000Y45040000D02*
X57285000Y45040000D01*
X57285000Y46400000D02*
X58285000Y46400000D01*
X56286000Y10000000D02*
G75*
G03X56286000Y10000000I-2286000J0D01*
G01*
D11*
X65120000Y23240000D02*
X79120000Y23240000D01*
X65120000Y9240000D02*
X65120000Y23240000D01*
X79120000Y9240000D02*
X65120000Y9240000D01*
X79120000Y23240000D02*
X79120000Y9240000D01*
D14*
X158786000Y40000000D02*
G75*
G03X158786000Y40000000I-2286000J0D01*
G01*
X158786000Y10000000D02*
G75*
G03X158786000Y10000000I-2286000J0D01*
G01*
X5786000Y40000000D02*
G75*
G03X5786000Y40000000I-2286000J0D01*
G01*
D11*
X116954800Y35480000D02*
X118954800Y35480000D01*
X116954800Y25480000D02*
X118954800Y25480000D01*
X118454800Y35480000D02*
X130954800Y35480000D01*
X116954800Y25480000D02*
X116954800Y35480000D01*
X130954800Y25480000D02*
X118454800Y25480000D01*
X130954800Y35480000D02*
X130954800Y25480000D01*
X99174800Y35480000D02*
X101174800Y35480000D01*
X99174800Y25480000D02*
X101174800Y25480000D01*
X100674800Y35480000D02*
X113174800Y35480000D01*
X99174800Y25480000D02*
X99174800Y35480000D01*
X113174800Y25480000D02*
X100674800Y25480000D01*
X113174800Y35480000D02*
X113174800Y25480000D01*
X63614800Y35480000D02*
X65614800Y35480000D01*
X63614800Y25480000D02*
X65614800Y25480000D01*
X65114800Y35480000D02*
X77614800Y35480000D01*
X63614800Y25480000D02*
X63614800Y35480000D01*
X77614800Y25480000D02*
X65114800Y25480000D01*
X77614800Y35480000D02*
X77614800Y25480000D01*
X45834800Y35480000D02*
X47834800Y35480000D01*
X45834800Y25480000D02*
X47834800Y25480000D01*
X47334800Y35480000D02*
X59834800Y35480000D01*
X45834800Y25480000D02*
X45834800Y35480000D01*
X59834800Y25480000D02*
X47334800Y25480000D01*
X59834800Y35480000D02*
X59834800Y25480000D01*
X28054800Y35480000D02*
X30054800Y35480000D01*
X28054800Y25480000D02*
X30054800Y25480000D01*
X29554800Y35480000D02*
X42054800Y35480000D01*
X28054800Y25480000D02*
X28054800Y35480000D01*
X42054800Y25480000D02*
X29554800Y25480000D01*
X42054800Y35480000D02*
X42054800Y25480000D01*
X10274800Y35480000D02*
X12274800Y35480000D01*
X10274800Y25480000D02*
X12274800Y25480000D01*
X11774800Y35480000D02*
X24274800Y35480000D01*
X10274800Y25480000D02*
X10274800Y35480000D01*
X24274800Y25480000D02*
X11774800Y25480000D01*
X24274800Y35480000D02*
X24274800Y25480000D01*
X134734800Y35480000D02*
X136734800Y35480000D01*
X134734800Y25480000D02*
X136734800Y25480000D01*
X136234800Y35480000D02*
X148734800Y35480000D01*
X134734800Y25480000D02*
X134734800Y35480000D01*
X148734800Y25480000D02*
X136234800Y25480000D01*
X148734800Y35480000D02*
X148734800Y25480000D01*
X81394800Y35480000D02*
X83394800Y35480000D01*
X81394800Y25480000D02*
X83394800Y25480000D01*
X82894800Y35480000D02*
X95394800Y35480000D01*
X81394800Y25480000D02*
X81394800Y35480000D01*
X95394800Y25480000D02*
X82894800Y25480000D01*
X95394800Y35480000D02*
X95394800Y25480000D01*
D14*
X56286000Y40000000D02*
G75*
G03X56286000Y40000000I-2286000J0D01*
G01*
X5786000Y10000000D02*
G75*
G03X5786000Y10000000I-2286000J0D01*
G01*
D11*
X129264210Y19812000D02*
G75*
G03X129264210Y19812000I-359210J0D01*
G01*
X119380000Y19050000D02*
X119380000Y11430000D01*
X128270000Y19050000D02*
X119380000Y19050000D01*
X129540000Y17780000D02*
X128270000Y19050000D01*
X129540000Y11430000D02*
X129540000Y17780000D01*
X119380000Y11430000D02*
X129540000Y11430000D01*
X93704210Y19812000D02*
G75*
G03X93704210Y19812000I-359210J0D01*
G01*
X83820000Y19050000D02*
X83820000Y11430000D01*
X92710000Y19050000D02*
X83820000Y19050000D01*
X93980000Y17780000D02*
X92710000Y19050000D01*
X93980000Y11430000D02*
X93980000Y17780000D01*
X83820000Y11430000D02*
X93980000Y11430000D01*
X29560000Y23240000D02*
X43560000Y23240000D01*
X29560000Y9240000D02*
X29560000Y23240000D01*
X43560000Y9240000D02*
X29560000Y9240000D01*
X43560000Y23240000D02*
X43560000Y9240000D01*
D14*
X59725000Y18192000D02*
X59725000Y18892000D01*
X60925000Y18892000D02*
X60925000Y18192000D01*
X5760000Y34790000D02*
X5760000Y33790000D01*
X4400000Y33790000D02*
X4400000Y34790000D01*
X54110000Y46400000D02*
X55110000Y46400000D01*
X55110000Y45040000D02*
X54110000Y45040000D01*
X108450000Y42500000D02*
X107450000Y42500000D01*
X107450000Y43860000D02*
X108450000Y43860000D01*
X47580000Y12200000D02*
X47580000Y13200000D01*
X48940000Y13200000D02*
X48940000Y12200000D01*
X3220000Y34790000D02*
X3220000Y33790000D01*
X1860000Y33790000D02*
X1860000Y34790000D01*
X108450000Y45040000D02*
X107450000Y45040000D01*
X107450000Y46400000D02*
X108450000Y46400000D01*
X45040000Y12200000D02*
X45040000Y13200000D01*
X46400000Y13200000D02*
X46400000Y12200000D01*
D11*
X58560000Y22000000D02*
X57560000Y23000000D01*
X58560000Y15100000D02*
X58560000Y22000000D01*
X57560000Y23000000D02*
X48120000Y23000000D01*
X48120000Y23000000D02*
X48120000Y15100000D01*
X48120000Y15100000D02*
X58560000Y15100000D01*
X8760000Y36700000D02*
X8760000Y47120000D01*
X8760000Y47120000D02*
X11560000Y47120000D01*
X11560000Y47120000D02*
X11560000Y36700000D01*
X11560000Y36700000D02*
X8760000Y36700000D01*
X8760000Y39370000D02*
X11560000Y39370000D01*
X59560000Y36700000D02*
X59560000Y47120000D01*
X59560000Y47120000D02*
X62360000Y47120000D01*
X62360000Y47120000D02*
X62360000Y36700000D01*
X62360000Y36700000D02*
X59560000Y36700000D01*
X59560000Y39370000D02*
X62360000Y39370000D01*
X110360000Y36700000D02*
X110360000Y47120000D01*
X110360000Y47120000D02*
X113160000Y47120000D01*
X113160000Y47120000D02*
X113160000Y36700000D01*
X113160000Y36700000D02*
X110360000Y36700000D01*
X110360000Y39370000D02*
X113160000Y39370000D01*
D14*
X59100000Y13200000D02*
X59100000Y12200000D01*
X57740000Y12200000D02*
X57740000Y13200000D01*
X61640000Y13200000D02*
X61640000Y12200000D01*
X60280000Y12200000D02*
X60280000Y13200000D01*
X61005000Y24122000D02*
X61005000Y23122000D01*
X59645000Y23122000D02*
X59645000Y24122000D01*
X132680000Y15705000D02*
X132680000Y15005000D01*
X131480000Y15005000D02*
X131480000Y15705000D01*
X96170000Y13300000D02*
X96870000Y13300000D01*
X96870000Y12100000D02*
X96170000Y12100000D01*
D11*
X100680000Y23240000D02*
X114680000Y23240000D01*
X100680000Y9240000D02*
X100680000Y23240000D01*
X114680000Y9240000D02*
X100680000Y9240000D01*
X114680000Y23240000D02*
X114680000Y9240000D01*
X136240000Y23240000D02*
X150240000Y23240000D01*
X136240000Y9240000D02*
X136240000Y23240000D01*
X150240000Y9240000D02*
X136240000Y9240000D01*
X150240000Y23240000D02*
X150240000Y9240000D01*
X10274800Y20240000D02*
X12274800Y20240000D01*
X10274800Y10240000D02*
X12274800Y10240000D01*
X11774800Y20240000D02*
X24274800Y20240000D01*
X10274800Y10240000D02*
X10274800Y20240000D01*
X24274800Y10240000D02*
X11774800Y10240000D01*
X24274800Y20240000D02*
X24274800Y10240000D01*
X58237381Y41402143D02*
X57761190Y41068809D01*
X58237381Y40830714D02*
X57237381Y40830714D01*
X57237381Y41211667D01*
X57285000Y41306905D01*
X57332619Y41354524D01*
X57427857Y41402143D01*
X57570714Y41402143D01*
X57665952Y41354524D01*
X57713571Y41306905D01*
X57761190Y41211667D01*
X57761190Y40830714D01*
X58237381Y41830714D02*
X57237381Y41830714D01*
X57237381Y42068809D01*
X57285000Y42211667D01*
X57380238Y42306905D01*
X57475476Y42354524D01*
X57665952Y42402143D01*
X57808810Y42402143D01*
X57999286Y42354524D01*
X58094524Y42306905D01*
X58189762Y42211667D01*
X58237381Y42068809D01*
X58237381Y41830714D01*
X57332619Y42783095D02*
X57285000Y42830714D01*
X57237381Y42925952D01*
X57237381Y43164048D01*
X57285000Y43259286D01*
X57332619Y43306905D01*
X57427857Y43354524D01*
X57523095Y43354524D01*
X57665952Y43306905D01*
X58237381Y42735476D01*
X58237381Y43354524D01*
X57237381Y43973571D02*
X57237381Y44068810D01*
X57285000Y44164048D01*
X57332619Y44211667D01*
X57427857Y44259286D01*
X57618333Y44306905D01*
X57856429Y44306905D01*
X58046905Y44259286D01*
X58142143Y44211667D01*
X58189762Y44164048D01*
X58237381Y44068810D01*
X58237381Y43973571D01*
X58189762Y43878333D01*
X58142143Y43830714D01*
X58046905Y43783095D01*
X57856429Y43735476D01*
X57618333Y43735476D01*
X57427857Y43783095D01*
X57332619Y43830714D01*
X57285000Y43878333D01*
X57237381Y43973571D01*
X76184286Y8802619D02*
X76184286Y8088333D01*
X76136666Y7945476D01*
X76041428Y7850238D01*
X75898571Y7802619D01*
X75803333Y7802619D01*
X76850952Y8802619D02*
X77041429Y8802619D01*
X77136667Y8755000D01*
X77231905Y8659762D01*
X77279524Y8469286D01*
X77279524Y8135952D01*
X77231905Y7945476D01*
X77136667Y7850238D01*
X77041429Y7802619D01*
X76850952Y7802619D01*
X76755714Y7850238D01*
X76660476Y7945476D01*
X76612857Y8135952D01*
X76612857Y8469286D01*
X76660476Y8659762D01*
X76755714Y8755000D01*
X76850952Y8802619D01*
X77898571Y8278810D02*
X77898571Y7802619D01*
X77565238Y8802619D02*
X77898571Y8278810D01*
X78231905Y8802619D01*
X79089048Y7802619D02*
X78517619Y7802619D01*
X78803333Y7802619D02*
X78803333Y8802619D01*
X78708095Y8659762D01*
X78612857Y8564524D01*
X78517619Y8516905D01*
X128944762Y23677619D02*
X128611428Y24153810D01*
X128373333Y23677619D02*
X128373333Y24677619D01*
X128754286Y24677619D01*
X128849524Y24630000D01*
X128897143Y24582381D01*
X128944762Y24487143D01*
X128944762Y24344286D01*
X128897143Y24249048D01*
X128849524Y24201429D01*
X128754286Y24153810D01*
X128373333Y24153810D01*
X129230476Y24677619D02*
X129563809Y23677619D01*
X129897143Y24677619D01*
X130659048Y24677619D02*
X130468571Y24677619D01*
X130373333Y24630000D01*
X130325714Y24582381D01*
X130230476Y24439524D01*
X130182857Y24249048D01*
X130182857Y23868095D01*
X130230476Y23772857D01*
X130278095Y23725238D01*
X130373333Y23677619D01*
X130563810Y23677619D01*
X130659048Y23725238D01*
X130706667Y23772857D01*
X130754286Y23868095D01*
X130754286Y24106190D01*
X130706667Y24201429D01*
X130659048Y24249048D01*
X130563810Y24296667D01*
X130373333Y24296667D01*
X130278095Y24249048D01*
X130230476Y24201429D01*
X130182857Y24106190D01*
X111164762Y23677619D02*
X110831428Y24153810D01*
X110593333Y23677619D02*
X110593333Y24677619D01*
X110974286Y24677619D01*
X111069524Y24630000D01*
X111117143Y24582381D01*
X111164762Y24487143D01*
X111164762Y24344286D01*
X111117143Y24249048D01*
X111069524Y24201429D01*
X110974286Y24153810D01*
X110593333Y24153810D01*
X111450476Y24677619D02*
X111783809Y23677619D01*
X112117143Y24677619D01*
X112926667Y24677619D02*
X112450476Y24677619D01*
X112402857Y24201429D01*
X112450476Y24249048D01*
X112545714Y24296667D01*
X112783810Y24296667D01*
X112879048Y24249048D01*
X112926667Y24201429D01*
X112974286Y24106190D01*
X112974286Y23868095D01*
X112926667Y23772857D01*
X112879048Y23725238D01*
X112783810Y23677619D01*
X112545714Y23677619D01*
X112450476Y23725238D01*
X112402857Y23772857D01*
X75604762Y23677619D02*
X75271428Y24153810D01*
X75033333Y23677619D02*
X75033333Y24677619D01*
X75414286Y24677619D01*
X75509524Y24630000D01*
X75557143Y24582381D01*
X75604762Y24487143D01*
X75604762Y24344286D01*
X75557143Y24249048D01*
X75509524Y24201429D01*
X75414286Y24153810D01*
X75033333Y24153810D01*
X75890476Y24677619D02*
X76223809Y23677619D01*
X76557143Y24677619D01*
X76795238Y24677619D02*
X77414286Y24677619D01*
X77080952Y24296667D01*
X77223810Y24296667D01*
X77319048Y24249048D01*
X77366667Y24201429D01*
X77414286Y24106190D01*
X77414286Y23868095D01*
X77366667Y23772857D01*
X77319048Y23725238D01*
X77223810Y23677619D01*
X76938095Y23677619D01*
X76842857Y23725238D01*
X76795238Y23772857D01*
X57062762Y23677619D02*
X56729428Y24153810D01*
X56491333Y23677619D02*
X56491333Y24677619D01*
X56872286Y24677619D01*
X56967524Y24630000D01*
X57015143Y24582381D01*
X57062762Y24487143D01*
X57062762Y24344286D01*
X57015143Y24249048D01*
X56967524Y24201429D01*
X56872286Y24153810D01*
X56491333Y24153810D01*
X57348476Y24677619D02*
X57681809Y23677619D01*
X58015143Y24677619D01*
X58300857Y24582381D02*
X58348476Y24630000D01*
X58443714Y24677619D01*
X58681810Y24677619D01*
X58777048Y24630000D01*
X58824667Y24582381D01*
X58872286Y24487143D01*
X58872286Y24391905D01*
X58824667Y24249048D01*
X58253238Y23677619D01*
X58872286Y23677619D01*
X40044762Y23677619D02*
X39711428Y24153810D01*
X39473333Y23677619D02*
X39473333Y24677619D01*
X39854286Y24677619D01*
X39949524Y24630000D01*
X39997143Y24582381D01*
X40044762Y24487143D01*
X40044762Y24344286D01*
X39997143Y24249048D01*
X39949524Y24201429D01*
X39854286Y24153810D01*
X39473333Y24153810D01*
X40330476Y24677619D02*
X40663809Y23677619D01*
X40997143Y24677619D01*
X41854286Y23677619D02*
X41282857Y23677619D01*
X41568571Y23677619D02*
X41568571Y24677619D01*
X41473333Y24534762D01*
X41378095Y24439524D01*
X41282857Y24391905D01*
X22264762Y23677619D02*
X21931428Y24153810D01*
X21693333Y23677619D02*
X21693333Y24677619D01*
X22074286Y24677619D01*
X22169524Y24630000D01*
X22217143Y24582381D01*
X22264762Y24487143D01*
X22264762Y24344286D01*
X22217143Y24249048D01*
X22169524Y24201429D01*
X22074286Y24153810D01*
X21693333Y24153810D01*
X22550476Y24677619D02*
X22883809Y23677619D01*
X23217143Y24677619D01*
X23740952Y24677619D02*
X23836191Y24677619D01*
X23931429Y24630000D01*
X23979048Y24582381D01*
X24026667Y24487143D01*
X24074286Y24296667D01*
X24074286Y24058571D01*
X24026667Y23868095D01*
X23979048Y23772857D01*
X23931429Y23725238D01*
X23836191Y23677619D01*
X23740952Y23677619D01*
X23645714Y23725238D01*
X23598095Y23772857D01*
X23550476Y23868095D01*
X23502857Y24058571D01*
X23502857Y24296667D01*
X23550476Y24487143D01*
X23598095Y24582381D01*
X23645714Y24630000D01*
X23740952Y24677619D01*
X146724762Y23677619D02*
X146391428Y24153810D01*
X146153333Y23677619D02*
X146153333Y24677619D01*
X146534286Y24677619D01*
X146629524Y24630000D01*
X146677143Y24582381D01*
X146724762Y24487143D01*
X146724762Y24344286D01*
X146677143Y24249048D01*
X146629524Y24201429D01*
X146534286Y24153810D01*
X146153333Y24153810D01*
X147010476Y24677619D02*
X147343809Y23677619D01*
X147677143Y24677619D01*
X147915238Y24677619D02*
X148581905Y24677619D01*
X148153333Y23677619D01*
X93384762Y23677619D02*
X93051428Y24153810D01*
X92813333Y23677619D02*
X92813333Y24677619D01*
X93194286Y24677619D01*
X93289524Y24630000D01*
X93337143Y24582381D01*
X93384762Y24487143D01*
X93384762Y24344286D01*
X93337143Y24249048D01*
X93289524Y24201429D01*
X93194286Y24153810D01*
X92813333Y24153810D01*
X93670476Y24677619D02*
X94003809Y23677619D01*
X94337143Y24677619D01*
X95099048Y24344286D02*
X95099048Y23677619D01*
X94860952Y24725238D02*
X94622857Y24010952D01*
X95241905Y24010952D01*
X130152857Y19659714D02*
X131124286Y19659714D01*
X131238571Y19716857D01*
X131295714Y19774000D01*
X131352857Y19888286D01*
X131352857Y20116857D01*
X131295714Y20231143D01*
X131238571Y20288286D01*
X131124286Y20345429D01*
X130152857Y20345429D01*
X130267143Y20859714D02*
X130210000Y20916857D01*
X130152857Y21031143D01*
X130152857Y21316857D01*
X130210000Y21431143D01*
X130267143Y21488286D01*
X130381429Y21545429D01*
X130495714Y21545429D01*
X130667143Y21488286D01*
X131352857Y20802572D01*
X131352857Y21545429D01*
X94592857Y17056429D02*
X95564286Y17056429D01*
X95678571Y17113572D01*
X95735714Y17170715D01*
X95792857Y17285001D01*
X95792857Y17513572D01*
X95735714Y17627858D01*
X95678571Y17685001D01*
X95564286Y17742144D01*
X94592857Y17742144D01*
X95792857Y18942144D02*
X95792857Y18256429D01*
X95792857Y18599287D02*
X94592857Y18599287D01*
X94764286Y18485001D01*
X94878571Y18370715D01*
X94935714Y18256429D01*
X94592857Y19685001D02*
X94592857Y19799286D01*
X94650000Y19913572D01*
X94707143Y19970715D01*
X94821429Y20027858D01*
X95050000Y20085001D01*
X95335714Y20085001D01*
X95564286Y20027858D01*
X95678571Y19970715D01*
X95735714Y19913572D01*
X95792857Y19799286D01*
X95792857Y19685001D01*
X95735714Y19570715D01*
X95678571Y19513572D01*
X95564286Y19456429D01*
X95335714Y19399286D01*
X95050000Y19399286D01*
X94821429Y19456429D01*
X94707143Y19513572D01*
X94650000Y19570715D01*
X94592857Y19685001D01*
X94592857Y20827858D02*
X94592857Y20942143D01*
X94650000Y21056429D01*
X94707143Y21113572D01*
X94821429Y21170715D01*
X95050000Y21227858D01*
X95335714Y21227858D01*
X95564286Y21170715D01*
X95678571Y21113572D01*
X95735714Y21056429D01*
X95792857Y20942143D01*
X95792857Y20827858D01*
X95735714Y20713572D01*
X95678571Y20656429D01*
X95564286Y20599286D01*
X95335714Y20542143D01*
X95050000Y20542143D01*
X94821429Y20599286D01*
X94707143Y20656429D01*
X94650000Y20713572D01*
X94592857Y20827858D01*
X94592857Y21970715D02*
X94592857Y22085000D01*
X94650000Y22199286D01*
X94707143Y22256429D01*
X94821429Y22313572D01*
X95050000Y22370715D01*
X95335714Y22370715D01*
X95564286Y22313572D01*
X95678571Y22256429D01*
X95735714Y22199286D01*
X95792857Y22085000D01*
X95792857Y21970715D01*
X95735714Y21856429D01*
X95678571Y21799286D01*
X95564286Y21742143D01*
X95335714Y21685000D01*
X95050000Y21685000D01*
X94821429Y21742143D01*
X94707143Y21799286D01*
X94650000Y21856429D01*
X94592857Y21970715D01*
X40624286Y8802619D02*
X40624286Y8088333D01*
X40576666Y7945476D01*
X40481428Y7850238D01*
X40338571Y7802619D01*
X40243333Y7802619D01*
X41290952Y8802619D02*
X41481429Y8802619D01*
X41576667Y8755000D01*
X41671905Y8659762D01*
X41719524Y8469286D01*
X41719524Y8135952D01*
X41671905Y7945476D01*
X41576667Y7850238D01*
X41481429Y7802619D01*
X41290952Y7802619D01*
X41195714Y7850238D01*
X41100476Y7945476D01*
X41052857Y8135952D01*
X41052857Y8469286D01*
X41100476Y8659762D01*
X41195714Y8755000D01*
X41290952Y8802619D01*
X42338571Y8278810D02*
X42338571Y7802619D01*
X42005238Y8802619D02*
X42338571Y8278810D01*
X42671905Y8802619D01*
X43195714Y8802619D02*
X43290953Y8802619D01*
X43386191Y8755000D01*
X43433810Y8707381D01*
X43481429Y8612143D01*
X43529048Y8421667D01*
X43529048Y8183571D01*
X43481429Y7993095D01*
X43433810Y7897857D01*
X43386191Y7850238D01*
X43290953Y7802619D01*
X43195714Y7802619D01*
X43100476Y7850238D01*
X43052857Y7897857D01*
X43005238Y7993095D01*
X42957619Y8183571D01*
X42957619Y8421667D01*
X43005238Y8612143D01*
X43052857Y8707381D01*
X43100476Y8755000D01*
X43195714Y8802619D01*
X153012857Y4680000D02*
X153870000Y4680000D01*
X154041429Y4622858D01*
X154155714Y4508572D01*
X154212857Y4337143D01*
X154212857Y4222858D01*
X154212857Y5880001D02*
X154212857Y5194286D01*
X154212857Y5537144D02*
X153012857Y5537144D01*
X153184286Y5422858D01*
X153298571Y5308572D01*
X153355714Y5194286D01*
X60682143Y15835334D02*
X60729762Y15787715D01*
X60777381Y15644858D01*
X60777381Y15549620D01*
X60729762Y15406762D01*
X60634524Y15311524D01*
X60539286Y15263905D01*
X60348810Y15216286D01*
X60205952Y15216286D01*
X60015476Y15263905D01*
X59920238Y15311524D01*
X59825000Y15406762D01*
X59777381Y15549620D01*
X59777381Y15644858D01*
X59825000Y15787715D01*
X59872619Y15835334D01*
X60777381Y16787715D02*
X60777381Y16216286D01*
X60777381Y16502000D02*
X59777381Y16502000D01*
X59920238Y16406762D01*
X60015476Y16311524D01*
X60063095Y16216286D01*
X5532381Y29337143D02*
X5056190Y29003809D01*
X5532381Y28765714D02*
X4532381Y28765714D01*
X4532381Y29146667D01*
X4580000Y29241905D01*
X4627619Y29289524D01*
X4722857Y29337143D01*
X4865714Y29337143D01*
X4960952Y29289524D01*
X5008571Y29241905D01*
X5056190Y29146667D01*
X5056190Y28765714D01*
X5437143Y30337143D02*
X5484762Y30289524D01*
X5532381Y30146667D01*
X5532381Y30051429D01*
X5484762Y29908571D01*
X5389524Y29813333D01*
X5294286Y29765714D01*
X5103810Y29718095D01*
X4960952Y29718095D01*
X4770476Y29765714D01*
X4675238Y29813333D01*
X4580000Y29908571D01*
X4532381Y30051429D01*
X4532381Y30146667D01*
X4580000Y30289524D01*
X4627619Y30337143D01*
X5532381Y31289524D02*
X5532381Y30718095D01*
X5532381Y31003809D02*
X4532381Y31003809D01*
X4675238Y30908571D01*
X4770476Y30813333D01*
X4818095Y30718095D01*
X4532381Y31908571D02*
X4532381Y32003810D01*
X4580000Y32099048D01*
X4627619Y32146667D01*
X4722857Y32194286D01*
X4913333Y32241905D01*
X5151429Y32241905D01*
X5341905Y32194286D01*
X5437143Y32146667D01*
X5484762Y32099048D01*
X5532381Y32003810D01*
X5532381Y31908571D01*
X5484762Y31813333D01*
X5437143Y31765714D01*
X5341905Y31718095D01*
X5151429Y31670476D01*
X4913333Y31670476D01*
X4722857Y31718095D01*
X4627619Y31765714D01*
X4580000Y31813333D01*
X4532381Y31908571D01*
X50292143Y45267619D02*
X49958809Y45743810D01*
X49720714Y45267619D02*
X49720714Y46267619D01*
X50101667Y46267619D01*
X50196905Y46220000D01*
X50244524Y46172381D01*
X50292143Y46077143D01*
X50292143Y45934286D01*
X50244524Y45839048D01*
X50196905Y45791429D01*
X50101667Y45743810D01*
X49720714Y45743810D01*
X51292143Y45362857D02*
X51244524Y45315238D01*
X51101667Y45267619D01*
X51006429Y45267619D01*
X50863571Y45315238D01*
X50768333Y45410476D01*
X50720714Y45505714D01*
X50673095Y45696190D01*
X50673095Y45839048D01*
X50720714Y46029524D01*
X50768333Y46124762D01*
X50863571Y46220000D01*
X51006429Y46267619D01*
X51101667Y46267619D01*
X51244524Y46220000D01*
X51292143Y46172381D01*
X51673095Y46172381D02*
X51720714Y46220000D01*
X51815952Y46267619D01*
X52054048Y46267619D01*
X52149286Y46220000D01*
X52196905Y46172381D01*
X52244524Y46077143D01*
X52244524Y45981905D01*
X52196905Y45839048D01*
X51625476Y45267619D01*
X52244524Y45267619D01*
X52863571Y46267619D02*
X52958810Y46267619D01*
X53054048Y46220000D01*
X53101667Y46172381D01*
X53149286Y46077143D01*
X53196905Y45886667D01*
X53196905Y45648571D01*
X53149286Y45458095D01*
X53101667Y45362857D01*
X53054048Y45315238D01*
X52958810Y45267619D01*
X52863571Y45267619D01*
X52768333Y45315238D01*
X52720714Y45362857D01*
X52673095Y45458095D01*
X52625476Y45648571D01*
X52625476Y45886667D01*
X52673095Y46077143D01*
X52720714Y46172381D01*
X52768333Y46220000D01*
X52863571Y46267619D01*
X102997143Y42727619D02*
X102663809Y43203810D01*
X102425714Y42727619D02*
X102425714Y43727619D01*
X102806667Y43727619D01*
X102901905Y43680000D01*
X102949524Y43632381D01*
X102997143Y43537143D01*
X102997143Y43394286D01*
X102949524Y43299048D01*
X102901905Y43251429D01*
X102806667Y43203810D01*
X102425714Y43203810D01*
X103997143Y42822857D02*
X103949524Y42775238D01*
X103806667Y42727619D01*
X103711429Y42727619D01*
X103568571Y42775238D01*
X103473333Y42870476D01*
X103425714Y42965714D01*
X103378095Y43156190D01*
X103378095Y43299048D01*
X103425714Y43489524D01*
X103473333Y43584762D01*
X103568571Y43680000D01*
X103711429Y43727619D01*
X103806667Y43727619D01*
X103949524Y43680000D01*
X103997143Y43632381D01*
X104330476Y43727619D02*
X104949524Y43727619D01*
X104616190Y43346667D01*
X104759048Y43346667D01*
X104854286Y43299048D01*
X104901905Y43251429D01*
X104949524Y43156190D01*
X104949524Y42918095D01*
X104901905Y42822857D01*
X104854286Y42775238D01*
X104759048Y42727619D01*
X104473333Y42727619D01*
X104378095Y42775238D01*
X104330476Y42822857D01*
X105568571Y43727619D02*
X105663810Y43727619D01*
X105759048Y43680000D01*
X105806667Y43632381D01*
X105854286Y43537143D01*
X105901905Y43346667D01*
X105901905Y43108571D01*
X105854286Y42918095D01*
X105806667Y42822857D01*
X105759048Y42775238D01*
X105663810Y42727619D01*
X105568571Y42727619D01*
X105473333Y42775238D01*
X105425714Y42822857D01*
X105378095Y42918095D01*
X105330476Y43108571D01*
X105330476Y43346667D01*
X105378095Y43537143D01*
X105425714Y43632381D01*
X105473333Y43680000D01*
X105568571Y43727619D01*
X50617381Y11557143D02*
X50141190Y11223809D01*
X50617381Y10985714D02*
X49617381Y10985714D01*
X49617381Y11366667D01*
X49665000Y11461905D01*
X49712619Y11509524D01*
X49807857Y11557143D01*
X49950714Y11557143D01*
X50045952Y11509524D01*
X50093571Y11461905D01*
X50141190Y11366667D01*
X50141190Y10985714D01*
X50522143Y12557143D02*
X50569762Y12509524D01*
X50617381Y12366667D01*
X50617381Y12271429D01*
X50569762Y12128571D01*
X50474524Y12033333D01*
X50379286Y11985714D01*
X50188810Y11938095D01*
X50045952Y11938095D01*
X49855476Y11985714D01*
X49760238Y12033333D01*
X49665000Y12128571D01*
X49617381Y12271429D01*
X49617381Y12366667D01*
X49665000Y12509524D01*
X49712619Y12557143D01*
X49950714Y13414286D02*
X50617381Y13414286D01*
X49569762Y13176190D02*
X50284048Y12938095D01*
X50284048Y13557143D01*
X49617381Y14128571D02*
X49617381Y14223810D01*
X49665000Y14319048D01*
X49712619Y14366667D01*
X49807857Y14414286D01*
X49998333Y14461905D01*
X50236429Y14461905D01*
X50426905Y14414286D01*
X50522143Y14366667D01*
X50569762Y14319048D01*
X50617381Y14223810D01*
X50617381Y14128571D01*
X50569762Y14033333D01*
X50522143Y13985714D01*
X50426905Y13938095D01*
X50236429Y13890476D01*
X49998333Y13890476D01*
X49807857Y13938095D01*
X49712619Y13985714D01*
X49665000Y14033333D01*
X49617381Y14128571D01*
X2992381Y29337143D02*
X2516190Y29003809D01*
X2992381Y28765714D02*
X1992381Y28765714D01*
X1992381Y29146667D01*
X2040000Y29241905D01*
X2087619Y29289524D01*
X2182857Y29337143D01*
X2325714Y29337143D01*
X2420952Y29289524D01*
X2468571Y29241905D01*
X2516190Y29146667D01*
X2516190Y28765714D01*
X2992381Y29765714D02*
X1992381Y29765714D01*
X1992381Y30003809D01*
X2040000Y30146667D01*
X2135238Y30241905D01*
X2230476Y30289524D01*
X2420952Y30337143D01*
X2563810Y30337143D01*
X2754286Y30289524D01*
X2849524Y30241905D01*
X2944762Y30146667D01*
X2992381Y30003809D01*
X2992381Y29765714D01*
X2992381Y31289524D02*
X2992381Y30718095D01*
X2992381Y31003809D02*
X1992381Y31003809D01*
X2135238Y30908571D01*
X2230476Y30813333D01*
X2278095Y30718095D01*
X1992381Y31908571D02*
X1992381Y32003810D01*
X2040000Y32099048D01*
X2087619Y32146667D01*
X2182857Y32194286D01*
X2373333Y32241905D01*
X2611429Y32241905D01*
X2801905Y32194286D01*
X2897143Y32146667D01*
X2944762Y32099048D01*
X2992381Y32003810D01*
X2992381Y31908571D01*
X2944762Y31813333D01*
X2897143Y31765714D01*
X2801905Y31718095D01*
X2611429Y31670476D01*
X2373333Y31670476D01*
X2182857Y31718095D01*
X2087619Y31765714D01*
X2040000Y31813333D01*
X1992381Y31908571D01*
X102997143Y45267619D02*
X102663809Y45743810D01*
X102425714Y45267619D02*
X102425714Y46267619D01*
X102806667Y46267619D01*
X102901905Y46220000D01*
X102949524Y46172381D01*
X102997143Y46077143D01*
X102997143Y45934286D01*
X102949524Y45839048D01*
X102901905Y45791429D01*
X102806667Y45743810D01*
X102425714Y45743810D01*
X103425714Y45267619D02*
X103425714Y46267619D01*
X103663809Y46267619D01*
X103806667Y46220000D01*
X103901905Y46124762D01*
X103949524Y46029524D01*
X103997143Y45839048D01*
X103997143Y45696190D01*
X103949524Y45505714D01*
X103901905Y45410476D01*
X103806667Y45315238D01*
X103663809Y45267619D01*
X103425714Y45267619D01*
X104330476Y46267619D02*
X104949524Y46267619D01*
X104616190Y45886667D01*
X104759048Y45886667D01*
X104854286Y45839048D01*
X104901905Y45791429D01*
X104949524Y45696190D01*
X104949524Y45458095D01*
X104901905Y45362857D01*
X104854286Y45315238D01*
X104759048Y45267619D01*
X104473333Y45267619D01*
X104378095Y45315238D01*
X104330476Y45362857D01*
X105568571Y46267619D02*
X105663810Y46267619D01*
X105759048Y46220000D01*
X105806667Y46172381D01*
X105854286Y46077143D01*
X105901905Y45886667D01*
X105901905Y45648571D01*
X105854286Y45458095D01*
X105806667Y45362857D01*
X105759048Y45315238D01*
X105663810Y45267619D01*
X105568571Y45267619D01*
X105473333Y45315238D01*
X105425714Y45362857D01*
X105378095Y45458095D01*
X105330476Y45648571D01*
X105330476Y45886667D01*
X105378095Y46077143D01*
X105425714Y46172381D01*
X105473333Y46220000D01*
X105568571Y46267619D01*
X44902381Y14732143D02*
X44426190Y14398809D01*
X44902381Y14160714D02*
X43902381Y14160714D01*
X43902381Y14541667D01*
X43950000Y14636905D01*
X43997619Y14684524D01*
X44092857Y14732143D01*
X44235714Y14732143D01*
X44330952Y14684524D01*
X44378571Y14636905D01*
X44426190Y14541667D01*
X44426190Y14160714D01*
X44902381Y15160714D02*
X43902381Y15160714D01*
X43902381Y15398809D01*
X43950000Y15541667D01*
X44045238Y15636905D01*
X44140476Y15684524D01*
X44330952Y15732143D01*
X44473810Y15732143D01*
X44664286Y15684524D01*
X44759524Y15636905D01*
X44854762Y15541667D01*
X44902381Y15398809D01*
X44902381Y15160714D01*
X44235714Y16589286D02*
X44902381Y16589286D01*
X43854762Y16351190D02*
X44569048Y16113095D01*
X44569048Y16732143D01*
X43902381Y17303571D02*
X43902381Y17398810D01*
X43950000Y17494048D01*
X43997619Y17541667D01*
X44092857Y17589286D01*
X44283333Y17636905D01*
X44521429Y17636905D01*
X44711905Y17589286D01*
X44807143Y17541667D01*
X44854762Y17494048D01*
X44902381Y17398810D01*
X44902381Y17303571D01*
X44854762Y17208333D01*
X44807143Y17160714D01*
X44711905Y17113095D01*
X44521429Y17065476D01*
X44283333Y17065476D01*
X44092857Y17113095D01*
X43997619Y17160714D01*
X43950000Y17208333D01*
X43902381Y17303571D01*
X47980714Y24787143D02*
X47980714Y23815714D01*
X48037857Y23701429D01*
X48095000Y23644286D01*
X48209286Y23587143D01*
X48437857Y23587143D01*
X48552143Y23644286D01*
X48609286Y23701429D01*
X48666429Y23815714D01*
X48666429Y24787143D01*
X49809286Y24787143D02*
X49237857Y24787143D01*
X49180714Y24215714D01*
X49237857Y24272857D01*
X49352143Y24330000D01*
X49637857Y24330000D01*
X49752143Y24272857D01*
X49809286Y24215714D01*
X49866429Y24101429D01*
X49866429Y23815714D01*
X49809286Y23701429D01*
X49752143Y23644286D01*
X49637857Y23587143D01*
X49352143Y23587143D01*
X49237857Y23644286D01*
X49180714Y23701429D01*
X6962857Y37249286D02*
X7934286Y37249286D01*
X8048571Y37306429D01*
X8105714Y37363572D01*
X8162857Y37477858D01*
X8162857Y37706429D01*
X8105714Y37820715D01*
X8048571Y37877858D01*
X7934286Y37935001D01*
X6962857Y37935001D01*
X8162857Y39135001D02*
X8162857Y38449286D01*
X8162857Y38792144D02*
X6962857Y38792144D01*
X7134286Y38677858D01*
X7248571Y38563572D01*
X7305714Y38449286D01*
X6962857Y39877858D02*
X6962857Y39992143D01*
X7020000Y40106429D01*
X7077143Y40163572D01*
X7191429Y40220715D01*
X7420000Y40277858D01*
X7705714Y40277858D01*
X7934286Y40220715D01*
X8048571Y40163572D01*
X8105714Y40106429D01*
X8162857Y39992143D01*
X8162857Y39877858D01*
X8105714Y39763572D01*
X8048571Y39706429D01*
X7934286Y39649286D01*
X7705714Y39592143D01*
X7420000Y39592143D01*
X7191429Y39649286D01*
X7077143Y39706429D01*
X7020000Y39763572D01*
X6962857Y39877858D01*
X12430476Y45315238D02*
X12573333Y45267619D01*
X12811429Y45267619D01*
X12906667Y45315238D01*
X12954286Y45362857D01*
X13001905Y45458095D01*
X13001905Y45553333D01*
X12954286Y45648571D01*
X12906667Y45696190D01*
X12811429Y45743810D01*
X12620952Y45791429D01*
X12525714Y45839048D01*
X12478095Y45886667D01*
X12430476Y45981905D01*
X12430476Y46077143D01*
X12478095Y46172381D01*
X12525714Y46220000D01*
X12620952Y46267619D01*
X12859048Y46267619D01*
X13001905Y46220000D01*
X13430476Y45267619D02*
X13430476Y46267619D01*
X13811429Y46267619D01*
X13906667Y46220000D01*
X13954286Y46172381D01*
X14001905Y46077143D01*
X14001905Y45934286D01*
X13954286Y45839048D01*
X13906667Y45791429D01*
X13811429Y45743810D01*
X13430476Y45743810D01*
X14430476Y45267619D02*
X14430476Y46267619D01*
X14668571Y45172381D02*
X15430476Y45172381D01*
X15620952Y45315238D02*
X15763809Y45267619D01*
X16001905Y45267619D01*
X16097143Y45315238D01*
X16144762Y45362857D01*
X16192381Y45458095D01*
X16192381Y45553333D01*
X16144762Y45648571D01*
X16097143Y45696190D01*
X16001905Y45743810D01*
X15811428Y45791429D01*
X15716190Y45839048D01*
X15668571Y45886667D01*
X15620952Y45981905D01*
X15620952Y46077143D01*
X15668571Y46172381D01*
X15716190Y46220000D01*
X15811428Y46267619D01*
X16049524Y46267619D01*
X16192381Y46220000D01*
X16620952Y45267619D02*
X16620952Y46267619D01*
X16859047Y46267619D01*
X17001905Y46220000D01*
X17097143Y46124762D01*
X17144762Y46029524D01*
X17192381Y45839048D01*
X17192381Y45696190D01*
X17144762Y45505714D01*
X17097143Y45410476D01*
X17001905Y45315238D01*
X16859047Y45267619D01*
X16620952Y45267619D01*
X17573333Y45553333D02*
X18049524Y45553333D01*
X17478095Y45267619D02*
X17811428Y46267619D01*
X18144762Y45267619D01*
X12454286Y42775238D02*
X12597143Y42727619D01*
X12835239Y42727619D01*
X12930477Y42775238D01*
X12978096Y42822857D01*
X13025715Y42918095D01*
X13025715Y43013333D01*
X12978096Y43108571D01*
X12930477Y43156190D01*
X12835239Y43203810D01*
X12644762Y43251429D01*
X12549524Y43299048D01*
X12501905Y43346667D01*
X12454286Y43441905D01*
X12454286Y43537143D01*
X12501905Y43632381D01*
X12549524Y43680000D01*
X12644762Y43727619D01*
X12882858Y43727619D01*
X13025715Y43680000D01*
X13454286Y42727619D02*
X13454286Y43727619D01*
X13835239Y43727619D01*
X13930477Y43680000D01*
X13978096Y43632381D01*
X14025715Y43537143D01*
X14025715Y43394286D01*
X13978096Y43299048D01*
X13930477Y43251429D01*
X13835239Y43203810D01*
X13454286Y43203810D01*
X14454286Y42727619D02*
X14454286Y43727619D01*
X14692381Y42632381D02*
X15454286Y42632381D01*
X15644762Y42775238D02*
X15787619Y42727619D01*
X16025715Y42727619D01*
X16120953Y42775238D01*
X16168572Y42822857D01*
X16216191Y42918095D01*
X16216191Y43013333D01*
X16168572Y43108571D01*
X16120953Y43156190D01*
X16025715Y43203810D01*
X15835238Y43251429D01*
X15740000Y43299048D01*
X15692381Y43346667D01*
X15644762Y43441905D01*
X15644762Y43537143D01*
X15692381Y43632381D01*
X15740000Y43680000D01*
X15835238Y43727619D01*
X16073334Y43727619D01*
X16216191Y43680000D01*
X17216191Y42822857D02*
X17168572Y42775238D01*
X17025715Y42727619D01*
X16930477Y42727619D01*
X16787619Y42775238D01*
X16692381Y42870476D01*
X16644762Y42965714D01*
X16597143Y43156190D01*
X16597143Y43299048D01*
X16644762Y43489524D01*
X16692381Y43584762D01*
X16787619Y43680000D01*
X16930477Y43727619D01*
X17025715Y43727619D01*
X17168572Y43680000D01*
X17216191Y43632381D01*
X18120953Y42727619D02*
X17644762Y42727619D01*
X17644762Y43727619D01*
X12636667Y41187619D02*
X12970000Y40187619D01*
X13303334Y41187619D01*
X14208096Y40282857D02*
X14160477Y40235238D01*
X14017620Y40187619D01*
X13922382Y40187619D01*
X13779524Y40235238D01*
X13684286Y40330476D01*
X13636667Y40425714D01*
X13589048Y40616190D01*
X13589048Y40759048D01*
X13636667Y40949524D01*
X13684286Y41044762D01*
X13779524Y41140000D01*
X13922382Y41187619D01*
X14017620Y41187619D01*
X14160477Y41140000D01*
X14208096Y41092381D01*
X15208096Y40282857D02*
X15160477Y40235238D01*
X15017620Y40187619D01*
X14922382Y40187619D01*
X14779524Y40235238D01*
X14684286Y40330476D01*
X14636667Y40425714D01*
X14589048Y40616190D01*
X14589048Y40759048D01*
X14636667Y40949524D01*
X14684286Y41044762D01*
X14779524Y41140000D01*
X14922382Y41187619D01*
X15017620Y41187619D01*
X15160477Y41140000D01*
X15208096Y41092381D01*
X13208096Y38600000D02*
X13112858Y38647619D01*
X12970001Y38647619D01*
X12827143Y38600000D01*
X12731905Y38504762D01*
X12684286Y38409524D01*
X12636667Y38219048D01*
X12636667Y38076190D01*
X12684286Y37885714D01*
X12731905Y37790476D01*
X12827143Y37695238D01*
X12970001Y37647619D01*
X13065239Y37647619D01*
X13208096Y37695238D01*
X13255715Y37742857D01*
X13255715Y38076190D01*
X13065239Y38076190D01*
X13684286Y37647619D02*
X13684286Y38647619D01*
X14255715Y37647619D01*
X14255715Y38647619D01*
X14731905Y37647619D02*
X14731905Y38647619D01*
X14970000Y38647619D01*
X15112858Y38600000D01*
X15208096Y38504762D01*
X15255715Y38409524D01*
X15303334Y38219048D01*
X15303334Y38076190D01*
X15255715Y37885714D01*
X15208096Y37790476D01*
X15112858Y37695238D01*
X14970000Y37647619D01*
X14731905Y37647619D01*
X57508857Y36614286D02*
X58480286Y36614286D01*
X58594571Y36671429D01*
X58651714Y36728572D01*
X58708857Y36842858D01*
X58708857Y37071429D01*
X58651714Y37185715D01*
X58594571Y37242858D01*
X58480286Y37300001D01*
X57508857Y37300001D01*
X57623143Y37814286D02*
X57566000Y37871429D01*
X57508857Y37985715D01*
X57508857Y38271429D01*
X57566000Y38385715D01*
X57623143Y38442858D01*
X57737429Y38500001D01*
X57851714Y38500001D01*
X58023143Y38442858D01*
X58708857Y37757144D01*
X58708857Y38500001D01*
X57508857Y39242858D02*
X57508857Y39357143D01*
X57566000Y39471429D01*
X57623143Y39528572D01*
X57737429Y39585715D01*
X57966000Y39642858D01*
X58251714Y39642858D01*
X58480286Y39585715D01*
X58594571Y39528572D01*
X58651714Y39471429D01*
X58708857Y39357143D01*
X58708857Y39242858D01*
X58651714Y39128572D01*
X58594571Y39071429D01*
X58480286Y39014286D01*
X58251714Y38957143D01*
X57966000Y38957143D01*
X57737429Y39014286D01*
X57623143Y39071429D01*
X57566000Y39128572D01*
X57508857Y39242858D01*
X63230476Y45315238D02*
X63373333Y45267619D01*
X63611429Y45267619D01*
X63706667Y45315238D01*
X63754286Y45362857D01*
X63801905Y45458095D01*
X63801905Y45553333D01*
X63754286Y45648571D01*
X63706667Y45696190D01*
X63611429Y45743810D01*
X63420952Y45791429D01*
X63325714Y45839048D01*
X63278095Y45886667D01*
X63230476Y45981905D01*
X63230476Y46077143D01*
X63278095Y46172381D01*
X63325714Y46220000D01*
X63420952Y46267619D01*
X63659048Y46267619D01*
X63801905Y46220000D01*
X64230476Y45267619D02*
X64230476Y46267619D01*
X64611429Y46267619D01*
X64706667Y46220000D01*
X64754286Y46172381D01*
X64801905Y46077143D01*
X64801905Y45934286D01*
X64754286Y45839048D01*
X64706667Y45791429D01*
X64611429Y45743810D01*
X64230476Y45743810D01*
X65230476Y45267619D02*
X65230476Y46267619D01*
X65468571Y45172381D02*
X66230476Y45172381D01*
X66420952Y45315238D02*
X66563809Y45267619D01*
X66801905Y45267619D01*
X66897143Y45315238D01*
X66944762Y45362857D01*
X66992381Y45458095D01*
X66992381Y45553333D01*
X66944762Y45648571D01*
X66897143Y45696190D01*
X66801905Y45743810D01*
X66611428Y45791429D01*
X66516190Y45839048D01*
X66468571Y45886667D01*
X66420952Y45981905D01*
X66420952Y46077143D01*
X66468571Y46172381D01*
X66516190Y46220000D01*
X66611428Y46267619D01*
X66849524Y46267619D01*
X66992381Y46220000D01*
X67420952Y45267619D02*
X67420952Y46267619D01*
X67659047Y46267619D01*
X67801905Y46220000D01*
X67897143Y46124762D01*
X67944762Y46029524D01*
X67992381Y45839048D01*
X67992381Y45696190D01*
X67944762Y45505714D01*
X67897143Y45410476D01*
X67801905Y45315238D01*
X67659047Y45267619D01*
X67420952Y45267619D01*
X68373333Y45553333D02*
X68849524Y45553333D01*
X68278095Y45267619D02*
X68611428Y46267619D01*
X68944762Y45267619D01*
X63254286Y42775238D02*
X63397143Y42727619D01*
X63635239Y42727619D01*
X63730477Y42775238D01*
X63778096Y42822857D01*
X63825715Y42918095D01*
X63825715Y43013333D01*
X63778096Y43108571D01*
X63730477Y43156190D01*
X63635239Y43203810D01*
X63444762Y43251429D01*
X63349524Y43299048D01*
X63301905Y43346667D01*
X63254286Y43441905D01*
X63254286Y43537143D01*
X63301905Y43632381D01*
X63349524Y43680000D01*
X63444762Y43727619D01*
X63682858Y43727619D01*
X63825715Y43680000D01*
X64254286Y42727619D02*
X64254286Y43727619D01*
X64635239Y43727619D01*
X64730477Y43680000D01*
X64778096Y43632381D01*
X64825715Y43537143D01*
X64825715Y43394286D01*
X64778096Y43299048D01*
X64730477Y43251429D01*
X64635239Y43203810D01*
X64254286Y43203810D01*
X65254286Y42727619D02*
X65254286Y43727619D01*
X65492381Y42632381D02*
X66254286Y42632381D01*
X66444762Y42775238D02*
X66587619Y42727619D01*
X66825715Y42727619D01*
X66920953Y42775238D01*
X66968572Y42822857D01*
X67016191Y42918095D01*
X67016191Y43013333D01*
X66968572Y43108571D01*
X66920953Y43156190D01*
X66825715Y43203810D01*
X66635238Y43251429D01*
X66540000Y43299048D01*
X66492381Y43346667D01*
X66444762Y43441905D01*
X66444762Y43537143D01*
X66492381Y43632381D01*
X66540000Y43680000D01*
X66635238Y43727619D01*
X66873334Y43727619D01*
X67016191Y43680000D01*
X68016191Y42822857D02*
X67968572Y42775238D01*
X67825715Y42727619D01*
X67730477Y42727619D01*
X67587619Y42775238D01*
X67492381Y42870476D01*
X67444762Y42965714D01*
X67397143Y43156190D01*
X67397143Y43299048D01*
X67444762Y43489524D01*
X67492381Y43584762D01*
X67587619Y43680000D01*
X67730477Y43727619D01*
X67825715Y43727619D01*
X67968572Y43680000D01*
X68016191Y43632381D01*
X68920953Y42727619D02*
X68444762Y42727619D01*
X68444762Y43727619D01*
X63436667Y41187619D02*
X63770000Y40187619D01*
X64103334Y41187619D01*
X65008096Y40282857D02*
X64960477Y40235238D01*
X64817620Y40187619D01*
X64722382Y40187619D01*
X64579524Y40235238D01*
X64484286Y40330476D01*
X64436667Y40425714D01*
X64389048Y40616190D01*
X64389048Y40759048D01*
X64436667Y40949524D01*
X64484286Y41044762D01*
X64579524Y41140000D01*
X64722382Y41187619D01*
X64817620Y41187619D01*
X64960477Y41140000D01*
X65008096Y41092381D01*
X66008096Y40282857D02*
X65960477Y40235238D01*
X65817620Y40187619D01*
X65722382Y40187619D01*
X65579524Y40235238D01*
X65484286Y40330476D01*
X65436667Y40425714D01*
X65389048Y40616190D01*
X65389048Y40759048D01*
X65436667Y40949524D01*
X65484286Y41044762D01*
X65579524Y41140000D01*
X65722382Y41187619D01*
X65817620Y41187619D01*
X65960477Y41140000D01*
X66008096Y41092381D01*
X64008096Y38600000D02*
X63912858Y38647619D01*
X63770001Y38647619D01*
X63627143Y38600000D01*
X63531905Y38504762D01*
X63484286Y38409524D01*
X63436667Y38219048D01*
X63436667Y38076190D01*
X63484286Y37885714D01*
X63531905Y37790476D01*
X63627143Y37695238D01*
X63770001Y37647619D01*
X63865239Y37647619D01*
X64008096Y37695238D01*
X64055715Y37742857D01*
X64055715Y38076190D01*
X63865239Y38076190D01*
X64484286Y37647619D02*
X64484286Y38647619D01*
X65055715Y37647619D01*
X65055715Y38647619D01*
X65531905Y37647619D02*
X65531905Y38647619D01*
X65770000Y38647619D01*
X65912858Y38600000D01*
X66008096Y38504762D01*
X66055715Y38409524D01*
X66103334Y38219048D01*
X66103334Y38076190D01*
X66055715Y37885714D01*
X66008096Y37790476D01*
X65912858Y37695238D01*
X65770000Y37647619D01*
X65531905Y37647619D01*
X108562857Y39154286D02*
X109534286Y39154286D01*
X109648571Y39211429D01*
X109705714Y39268572D01*
X109762857Y39382858D01*
X109762857Y39611429D01*
X109705714Y39725715D01*
X109648571Y39782858D01*
X109534286Y39840001D01*
X108562857Y39840001D01*
X108562857Y40297144D02*
X108562857Y41040001D01*
X109020000Y40640001D01*
X109020000Y40811429D01*
X109077143Y40925715D01*
X109134286Y40982858D01*
X109248571Y41040001D01*
X109534286Y41040001D01*
X109648571Y40982858D01*
X109705714Y40925715D01*
X109762857Y40811429D01*
X109762857Y40468572D01*
X109705714Y40354286D01*
X109648571Y40297144D01*
X108562857Y41782858D02*
X108562857Y41897143D01*
X108620000Y42011429D01*
X108677143Y42068572D01*
X108791429Y42125715D01*
X109020000Y42182858D01*
X109305714Y42182858D01*
X109534286Y42125715D01*
X109648571Y42068572D01*
X109705714Y42011429D01*
X109762857Y41897143D01*
X109762857Y41782858D01*
X109705714Y41668572D01*
X109648571Y41611429D01*
X109534286Y41554286D01*
X109305714Y41497143D01*
X109020000Y41497143D01*
X108791429Y41554286D01*
X108677143Y41611429D01*
X108620000Y41668572D01*
X108562857Y41782858D01*
X114030476Y45315238D02*
X114173333Y45267619D01*
X114411429Y45267619D01*
X114506667Y45315238D01*
X114554286Y45362857D01*
X114601905Y45458095D01*
X114601905Y45553333D01*
X114554286Y45648571D01*
X114506667Y45696190D01*
X114411429Y45743810D01*
X114220952Y45791429D01*
X114125714Y45839048D01*
X114078095Y45886667D01*
X114030476Y45981905D01*
X114030476Y46077143D01*
X114078095Y46172381D01*
X114125714Y46220000D01*
X114220952Y46267619D01*
X114459048Y46267619D01*
X114601905Y46220000D01*
X115030476Y45267619D02*
X115030476Y46267619D01*
X115411429Y46267619D01*
X115506667Y46220000D01*
X115554286Y46172381D01*
X115601905Y46077143D01*
X115601905Y45934286D01*
X115554286Y45839048D01*
X115506667Y45791429D01*
X115411429Y45743810D01*
X115030476Y45743810D01*
X116030476Y45267619D02*
X116030476Y46267619D01*
X116268571Y45172381D02*
X117030476Y45172381D01*
X117220952Y45315238D02*
X117363809Y45267619D01*
X117601905Y45267619D01*
X117697143Y45315238D01*
X117744762Y45362857D01*
X117792381Y45458095D01*
X117792381Y45553333D01*
X117744762Y45648571D01*
X117697143Y45696190D01*
X117601905Y45743810D01*
X117411428Y45791429D01*
X117316190Y45839048D01*
X117268571Y45886667D01*
X117220952Y45981905D01*
X117220952Y46077143D01*
X117268571Y46172381D01*
X117316190Y46220000D01*
X117411428Y46267619D01*
X117649524Y46267619D01*
X117792381Y46220000D01*
X118220952Y45267619D02*
X118220952Y46267619D01*
X118459047Y46267619D01*
X118601905Y46220000D01*
X118697143Y46124762D01*
X118744762Y46029524D01*
X118792381Y45839048D01*
X118792381Y45696190D01*
X118744762Y45505714D01*
X118697143Y45410476D01*
X118601905Y45315238D01*
X118459047Y45267619D01*
X118220952Y45267619D01*
X119173333Y45553333D02*
X119649524Y45553333D01*
X119078095Y45267619D02*
X119411428Y46267619D01*
X119744762Y45267619D01*
X114054286Y42775238D02*
X114197143Y42727619D01*
X114435239Y42727619D01*
X114530477Y42775238D01*
X114578096Y42822857D01*
X114625715Y42918095D01*
X114625715Y43013333D01*
X114578096Y43108571D01*
X114530477Y43156190D01*
X114435239Y43203810D01*
X114244762Y43251429D01*
X114149524Y43299048D01*
X114101905Y43346667D01*
X114054286Y43441905D01*
X114054286Y43537143D01*
X114101905Y43632381D01*
X114149524Y43680000D01*
X114244762Y43727619D01*
X114482858Y43727619D01*
X114625715Y43680000D01*
X115054286Y42727619D02*
X115054286Y43727619D01*
X115435239Y43727619D01*
X115530477Y43680000D01*
X115578096Y43632381D01*
X115625715Y43537143D01*
X115625715Y43394286D01*
X115578096Y43299048D01*
X115530477Y43251429D01*
X115435239Y43203810D01*
X115054286Y43203810D01*
X116054286Y42727619D02*
X116054286Y43727619D01*
X116292381Y42632381D02*
X117054286Y42632381D01*
X117244762Y42775238D02*
X117387619Y42727619D01*
X117625715Y42727619D01*
X117720953Y42775238D01*
X117768572Y42822857D01*
X117816191Y42918095D01*
X117816191Y43013333D01*
X117768572Y43108571D01*
X117720953Y43156190D01*
X117625715Y43203810D01*
X117435238Y43251429D01*
X117340000Y43299048D01*
X117292381Y43346667D01*
X117244762Y43441905D01*
X117244762Y43537143D01*
X117292381Y43632381D01*
X117340000Y43680000D01*
X117435238Y43727619D01*
X117673334Y43727619D01*
X117816191Y43680000D01*
X118816191Y42822857D02*
X118768572Y42775238D01*
X118625715Y42727619D01*
X118530477Y42727619D01*
X118387619Y42775238D01*
X118292381Y42870476D01*
X118244762Y42965714D01*
X118197143Y43156190D01*
X118197143Y43299048D01*
X118244762Y43489524D01*
X118292381Y43584762D01*
X118387619Y43680000D01*
X118530477Y43727619D01*
X118625715Y43727619D01*
X118768572Y43680000D01*
X118816191Y43632381D01*
X119720953Y42727619D02*
X119244762Y42727619D01*
X119244762Y43727619D01*
X114236667Y41187619D02*
X114570000Y40187619D01*
X114903334Y41187619D01*
X115808096Y40282857D02*
X115760477Y40235238D01*
X115617620Y40187619D01*
X115522382Y40187619D01*
X115379524Y40235238D01*
X115284286Y40330476D01*
X115236667Y40425714D01*
X115189048Y40616190D01*
X115189048Y40759048D01*
X115236667Y40949524D01*
X115284286Y41044762D01*
X115379524Y41140000D01*
X115522382Y41187619D01*
X115617620Y41187619D01*
X115760477Y41140000D01*
X115808096Y41092381D01*
X116808096Y40282857D02*
X116760477Y40235238D01*
X116617620Y40187619D01*
X116522382Y40187619D01*
X116379524Y40235238D01*
X116284286Y40330476D01*
X116236667Y40425714D01*
X116189048Y40616190D01*
X116189048Y40759048D01*
X116236667Y40949524D01*
X116284286Y41044762D01*
X116379524Y41140000D01*
X116522382Y41187619D01*
X116617620Y41187619D01*
X116760477Y41140000D01*
X116808096Y41092381D01*
X114808096Y38600000D02*
X114712858Y38647619D01*
X114570001Y38647619D01*
X114427143Y38600000D01*
X114331905Y38504762D01*
X114284286Y38409524D01*
X114236667Y38219048D01*
X114236667Y38076190D01*
X114284286Y37885714D01*
X114331905Y37790476D01*
X114427143Y37695238D01*
X114570001Y37647619D01*
X114665239Y37647619D01*
X114808096Y37695238D01*
X114855715Y37742857D01*
X114855715Y38076190D01*
X114665239Y38076190D01*
X115284286Y37647619D02*
X115284286Y38647619D01*
X115855715Y37647619D01*
X115855715Y38647619D01*
X116331905Y37647619D02*
X116331905Y38647619D01*
X116570000Y38647619D01*
X116712858Y38600000D01*
X116808096Y38504762D01*
X116855715Y38409524D01*
X116903334Y38219048D01*
X116903334Y38076190D01*
X116855715Y37885714D01*
X116808096Y37790476D01*
X116712858Y37695238D01*
X116570000Y37647619D01*
X116331905Y37647619D01*
X58872381Y9493334D02*
X58396190Y9160000D01*
X58872381Y8921905D02*
X57872381Y8921905D01*
X57872381Y9302858D01*
X57920000Y9398096D01*
X57967619Y9445715D01*
X58062857Y9493334D01*
X58205714Y9493334D01*
X58300952Y9445715D01*
X58348571Y9398096D01*
X58396190Y9302858D01*
X58396190Y8921905D01*
X58777143Y10493334D02*
X58824762Y10445715D01*
X58872381Y10302858D01*
X58872381Y10207620D01*
X58824762Y10064762D01*
X58729524Y9969524D01*
X58634286Y9921905D01*
X58443810Y9874286D01*
X58300952Y9874286D01*
X58110476Y9921905D01*
X58015238Y9969524D01*
X57920000Y10064762D01*
X57872381Y10207620D01*
X57872381Y10302858D01*
X57920000Y10445715D01*
X57967619Y10493334D01*
X57872381Y11112381D02*
X57872381Y11207620D01*
X57920000Y11302858D01*
X57967619Y11350477D01*
X58062857Y11398096D01*
X58253333Y11445715D01*
X58491429Y11445715D01*
X58681905Y11398096D01*
X58777143Y11350477D01*
X58824762Y11302858D01*
X58872381Y11207620D01*
X58872381Y11112381D01*
X58824762Y11017143D01*
X58777143Y10969524D01*
X58681905Y10921905D01*
X58491429Y10874286D01*
X58253333Y10874286D01*
X58062857Y10921905D01*
X57967619Y10969524D01*
X57920000Y11017143D01*
X57872381Y11112381D01*
X61412381Y9493334D02*
X60936190Y9160000D01*
X61412381Y8921905D02*
X60412381Y8921905D01*
X60412381Y9302858D01*
X60460000Y9398096D01*
X60507619Y9445715D01*
X60602857Y9493334D01*
X60745714Y9493334D01*
X60840952Y9445715D01*
X60888571Y9398096D01*
X60936190Y9302858D01*
X60936190Y8921905D01*
X61412381Y9921905D02*
X60412381Y9921905D01*
X60412381Y10160000D01*
X60460000Y10302858D01*
X60555238Y10398096D01*
X60650476Y10445715D01*
X60840952Y10493334D01*
X60983810Y10493334D01*
X61174286Y10445715D01*
X61269524Y10398096D01*
X61364762Y10302858D01*
X61412381Y10160000D01*
X61412381Y9921905D01*
X60412381Y11112381D02*
X60412381Y11207620D01*
X60460000Y11302858D01*
X60507619Y11350477D01*
X60602857Y11398096D01*
X60793333Y11445715D01*
X61031429Y11445715D01*
X61221905Y11398096D01*
X61317143Y11350477D01*
X61364762Y11302858D01*
X61412381Y11207620D01*
X61412381Y11112381D01*
X61364762Y11017143D01*
X61317143Y10969524D01*
X61221905Y10921905D01*
X61031429Y10874286D01*
X60793333Y10874286D01*
X60602857Y10921905D01*
X60507619Y10969524D01*
X60460000Y11017143D01*
X60412381Y11112381D01*
X62047381Y22955334D02*
X61571190Y22622000D01*
X62047381Y22383905D02*
X61047381Y22383905D01*
X61047381Y22764858D01*
X61095000Y22860096D01*
X61142619Y22907715D01*
X61237857Y22955334D01*
X61380714Y22955334D01*
X61475952Y22907715D01*
X61523571Y22860096D01*
X61571190Y22764858D01*
X61571190Y22383905D01*
X62047381Y23955334D02*
X61571190Y23622000D01*
X62047381Y23383905D02*
X61047381Y23383905D01*
X61047381Y23764858D01*
X61095000Y23860096D01*
X61142619Y23907715D01*
X61237857Y23955334D01*
X61380714Y23955334D01*
X61475952Y23907715D01*
X61523571Y23860096D01*
X61571190Y23764858D01*
X61571190Y23383905D01*
X61047381Y24574381D02*
X61047381Y24669620D01*
X61095000Y24764858D01*
X61142619Y24812477D01*
X61237857Y24860096D01*
X61428333Y24907715D01*
X61666429Y24907715D01*
X61856905Y24860096D01*
X61952143Y24812477D01*
X61999762Y24764858D01*
X62047381Y24669620D01*
X62047381Y24574381D01*
X61999762Y24479143D01*
X61952143Y24431524D01*
X61856905Y24383905D01*
X61666429Y24336286D01*
X61428333Y24336286D01*
X61237857Y24383905D01*
X61142619Y24431524D01*
X61095000Y24479143D01*
X61047381Y24574381D01*
X134342143Y15188334D02*
X134389762Y15140715D01*
X134437381Y14997858D01*
X134437381Y14902620D01*
X134389762Y14759762D01*
X134294524Y14664524D01*
X134199286Y14616905D01*
X134008810Y14569286D01*
X133865952Y14569286D01*
X133675476Y14616905D01*
X133580238Y14664524D01*
X133485000Y14759762D01*
X133437381Y14902620D01*
X133437381Y14997858D01*
X133485000Y15140715D01*
X133532619Y15188334D01*
X133532619Y15569286D02*
X133485000Y15616905D01*
X133437381Y15712143D01*
X133437381Y15950239D01*
X133485000Y16045477D01*
X133532619Y16093096D01*
X133627857Y16140715D01*
X133723095Y16140715D01*
X133865952Y16093096D01*
X134437381Y15521667D01*
X134437381Y16140715D01*
X94924762Y10437857D02*
X94877143Y10390238D01*
X94734286Y10342619D01*
X94639048Y10342619D01*
X94496190Y10390238D01*
X94400952Y10485476D01*
X94353333Y10580714D01*
X94305714Y10771190D01*
X94305714Y10914048D01*
X94353333Y11104524D01*
X94400952Y11199762D01*
X94496190Y11295000D01*
X94639048Y11342619D01*
X94734286Y11342619D01*
X94877143Y11295000D01*
X94924762Y11247381D01*
X95877143Y10342619D02*
X95305714Y10342619D01*
X95591428Y10342619D02*
X95591428Y11342619D01*
X95496190Y11199762D01*
X95400952Y11104524D01*
X95305714Y11056905D01*
X96496190Y11342619D02*
X96591429Y11342619D01*
X96686667Y11295000D01*
X96734286Y11247381D01*
X96781905Y11152143D01*
X96829524Y10961667D01*
X96829524Y10723571D01*
X96781905Y10533095D01*
X96734286Y10437857D01*
X96686667Y10390238D01*
X96591429Y10342619D01*
X96496190Y10342619D01*
X96400952Y10390238D01*
X96353333Y10437857D01*
X96305714Y10533095D01*
X96258095Y10723571D01*
X96258095Y10961667D01*
X96305714Y11152143D01*
X96353333Y11247381D01*
X96400952Y11295000D01*
X96496190Y11342619D01*
X97448571Y11342619D02*
X97543810Y11342619D01*
X97639048Y11295000D01*
X97686667Y11247381D01*
X97734286Y11152143D01*
X97781905Y10961667D01*
X97781905Y10723571D01*
X97734286Y10533095D01*
X97686667Y10437857D01*
X97639048Y10390238D01*
X97543810Y10342619D01*
X97448571Y10342619D01*
X97353333Y10390238D01*
X97305714Y10437857D01*
X97258095Y10533095D01*
X97210476Y10723571D01*
X97210476Y10961667D01*
X97258095Y11152143D01*
X97305714Y11247381D01*
X97353333Y11295000D01*
X97448571Y11342619D01*
X98400952Y11342619D02*
X98496191Y11342619D01*
X98591429Y11295000D01*
X98639048Y11247381D01*
X98686667Y11152143D01*
X98734286Y10961667D01*
X98734286Y10723571D01*
X98686667Y10533095D01*
X98639048Y10437857D01*
X98591429Y10390238D01*
X98496191Y10342619D01*
X98400952Y10342619D01*
X98305714Y10390238D01*
X98258095Y10437857D01*
X98210476Y10533095D01*
X98162857Y10723571D01*
X98162857Y10961667D01*
X98210476Y11152143D01*
X98258095Y11247381D01*
X98305714Y11295000D01*
X98400952Y11342619D01*
X111394286Y8787619D02*
X111394286Y8073333D01*
X111346666Y7930476D01*
X111251428Y7835238D01*
X111108571Y7787619D01*
X111013333Y7787619D01*
X112060952Y8787619D02*
X112251429Y8787619D01*
X112346667Y8740000D01*
X112441905Y8644762D01*
X112489524Y8454286D01*
X112489524Y8120952D01*
X112441905Y7930476D01*
X112346667Y7835238D01*
X112251429Y7787619D01*
X112060952Y7787619D01*
X111965714Y7835238D01*
X111870476Y7930476D01*
X111822857Y8120952D01*
X111822857Y8454286D01*
X111870476Y8644762D01*
X111965714Y8740000D01*
X112060952Y8787619D01*
X113108571Y8263810D02*
X113108571Y7787619D01*
X112775238Y8787619D02*
X113108571Y8263810D01*
X113441905Y8787619D01*
X113727619Y8692381D02*
X113775238Y8740000D01*
X113870476Y8787619D01*
X114108572Y8787619D01*
X114203810Y8740000D01*
X114251429Y8692381D01*
X114299048Y8597143D01*
X114299048Y8501905D01*
X114251429Y8359048D01*
X113680000Y7787619D01*
X114299048Y7787619D01*
X147304286Y8802619D02*
X147304286Y8088333D01*
X147256666Y7945476D01*
X147161428Y7850238D01*
X147018571Y7802619D01*
X146923333Y7802619D01*
X147970952Y8802619D02*
X148161429Y8802619D01*
X148256667Y8755000D01*
X148351905Y8659762D01*
X148399524Y8469286D01*
X148399524Y8135952D01*
X148351905Y7945476D01*
X148256667Y7850238D01*
X148161429Y7802619D01*
X147970952Y7802619D01*
X147875714Y7850238D01*
X147780476Y7945476D01*
X147732857Y8135952D01*
X147732857Y8469286D01*
X147780476Y8659762D01*
X147875714Y8755000D01*
X147970952Y8802619D01*
X149018571Y8278810D02*
X149018571Y7802619D01*
X148685238Y8802619D02*
X149018571Y8278810D01*
X149351905Y8802619D01*
X149590000Y8802619D02*
X150209048Y8802619D01*
X149875714Y8421667D01*
X150018572Y8421667D01*
X150113810Y8374048D01*
X150161429Y8326429D01*
X150209048Y8231190D01*
X150209048Y7993095D01*
X150161429Y7897857D01*
X150113810Y7850238D01*
X150018572Y7802619D01*
X149732857Y7802619D01*
X149637619Y7850238D01*
X149590000Y7897857D01*
X11636667Y21137619D02*
X11303333Y21613810D01*
X11065238Y21137619D02*
X11065238Y22137619D01*
X11446191Y22137619D01*
X11541429Y22090000D01*
X11589048Y22042381D01*
X11636667Y21947143D01*
X11636667Y21804286D01*
X11589048Y21709048D01*
X11541429Y21661429D01*
X11446191Y21613810D01*
X11065238Y21613810D01*
X11922381Y22137619D02*
X12255714Y21137619D01*
X12589048Y22137619D01*
X12684286Y21042381D02*
X13446191Y21042381D01*
X13541429Y22137619D02*
X13874762Y21137619D01*
X14208096Y22137619D01*
X14731905Y22137619D02*
X14922382Y22137619D01*
X15017620Y22090000D01*
X15112858Y21994762D01*
X15160477Y21804286D01*
X15160477Y21470952D01*
X15112858Y21280476D01*
X15017620Y21185238D01*
X14922382Y21137619D01*
X14731905Y21137619D01*
X14636667Y21185238D01*
X14541429Y21280476D01*
X14493810Y21470952D01*
X14493810Y21804286D01*
X14541429Y21994762D01*
X14636667Y22090000D01*
X14731905Y22137619D01*
X16065239Y21137619D02*
X15589048Y21137619D01*
X15589048Y22137619D01*
X16922382Y21137619D02*
X16350953Y21137619D01*
X16636667Y21137619D02*
X16636667Y22137619D01*
X16541429Y21994762D01*
X16446191Y21899524D01*
X16350953Y21851905D01*
D15*
X48486190Y5377859D02*
X47986190Y5377859D01*
X48033810Y5592144D02*
X48010000Y5615954D01*
X47986190Y5663573D01*
X47986190Y5782620D01*
X48010000Y5830239D01*
X48033810Y5854049D01*
X48081429Y5877858D01*
X48129048Y5877858D01*
X48200476Y5854049D01*
X48486190Y5568335D01*
X48486190Y5877858D01*
X48438571Y6377858D02*
X48462381Y6354048D01*
X48486190Y6282620D01*
X48486190Y6235001D01*
X48462381Y6163572D01*
X48414762Y6115953D01*
X48367143Y6092144D01*
X48271905Y6068334D01*
X48200476Y6068334D01*
X48105238Y6092144D01*
X48057619Y6115953D01*
X48010000Y6163572D01*
X47986190Y6235001D01*
X47986190Y6282620D01*
X48010000Y6354048D01*
X48033810Y6377858D01*
X48533810Y6473096D02*
X48533810Y6854048D01*
X48462381Y6949286D02*
X48486190Y7020715D01*
X48486190Y7139762D01*
X48462381Y7187381D01*
X48438571Y7211191D01*
X48390952Y7235000D01*
X48343333Y7235000D01*
X48295714Y7211191D01*
X48271905Y7187381D01*
X48248095Y7139762D01*
X48224286Y7044524D01*
X48200476Y6996905D01*
X48176667Y6973096D01*
X48129048Y6949286D01*
X48081429Y6949286D01*
X48033810Y6973096D01*
X48010000Y6996905D01*
X47986190Y7044524D01*
X47986190Y7163572D01*
X48010000Y7235000D01*
X48438571Y7735000D02*
X48462381Y7711190D01*
X48486190Y7639762D01*
X48486190Y7592143D01*
X48462381Y7520714D01*
X48414762Y7473095D01*
X48367143Y7449286D01*
X48271905Y7425476D01*
X48200476Y7425476D01*
X48105238Y7449286D01*
X48057619Y7473095D01*
X48010000Y7520714D01*
X47986190Y7592143D01*
X47986190Y7639762D01*
X48010000Y7711190D01*
X48033810Y7735000D01*
X48486190Y8187381D02*
X48486190Y7949286D01*
X47986190Y7949286D01*
X47986190Y8306429D02*
X47986190Y8615952D01*
X48176667Y8449286D01*
X48176667Y8520714D01*
X48200476Y8568333D01*
X48224286Y8592143D01*
X48271905Y8615952D01*
X48390952Y8615952D01*
X48438571Y8592143D01*
X48462381Y8568333D01*
X48486190Y8520714D01*
X48486190Y8377857D01*
X48462381Y8330238D01*
X48438571Y8306429D01*
X45946190Y5365954D02*
X45446190Y5365954D01*
X45493810Y5580239D02*
X45470000Y5604049D01*
X45446190Y5651668D01*
X45446190Y5770715D01*
X45470000Y5818334D01*
X45493810Y5842144D01*
X45541429Y5865953D01*
X45589048Y5865953D01*
X45660476Y5842144D01*
X45946190Y5556430D01*
X45946190Y5865953D01*
X45898571Y6365953D02*
X45922381Y6342143D01*
X45946190Y6270715D01*
X45946190Y6223096D01*
X45922381Y6151667D01*
X45874762Y6104048D01*
X45827143Y6080239D01*
X45731905Y6056429D01*
X45660476Y6056429D01*
X45565238Y6080239D01*
X45517619Y6104048D01*
X45470000Y6151667D01*
X45446190Y6223096D01*
X45446190Y6270715D01*
X45470000Y6342143D01*
X45493810Y6365953D01*
X45993810Y6461191D02*
X45993810Y6842143D01*
X45922381Y6937381D02*
X45946190Y7008810D01*
X45946190Y7127857D01*
X45922381Y7175476D01*
X45898571Y7199286D01*
X45850952Y7223095D01*
X45803333Y7223095D01*
X45755714Y7199286D01*
X45731905Y7175476D01*
X45708095Y7127857D01*
X45684286Y7032619D01*
X45660476Y6985000D01*
X45636667Y6961191D01*
X45589048Y6937381D01*
X45541429Y6937381D01*
X45493810Y6961191D01*
X45470000Y6985000D01*
X45446190Y7032619D01*
X45446190Y7151667D01*
X45470000Y7223095D01*
X45946190Y7437381D02*
X45446190Y7437381D01*
X45446190Y7556428D01*
X45470000Y7627857D01*
X45517619Y7675476D01*
X45565238Y7699285D01*
X45660476Y7723095D01*
X45731905Y7723095D01*
X45827143Y7699285D01*
X45874762Y7675476D01*
X45922381Y7627857D01*
X45946190Y7556428D01*
X45946190Y7437381D01*
X45803333Y7913571D02*
X45803333Y8151666D01*
X45946190Y7865952D02*
X45446190Y8032619D01*
X45946190Y8199285D01*
X45446190Y8318333D02*
X45446190Y8627856D01*
X45636667Y8461190D01*
X45636667Y8532618D01*
X45660476Y8580237D01*
X45684286Y8604047D01*
X45731905Y8627856D01*
X45850952Y8627856D01*
X45898571Y8604047D01*
X45922381Y8580237D01*
X45946190Y8532618D01*
X45946190Y8389761D01*
X45922381Y8342142D01*
X45898571Y8318333D01*
M02*
