M48
METRIC,TZ
T1C0.400
T2C1.000
T3C1.016
T4C1.200
T5C2.500
T6C3.048
%
G90
G05
T1
X2540Y32512
X5080Y32512
X33655Y10160
X41910Y10160
X44450Y6985
X48006Y29972
X48951Y31801
X49243Y32729
X49530Y7620
X52070Y43815
X58420Y25400
X58420Y10160
X60960Y26543
X60960Y10160
X62230Y15240
X64262Y23368
X65405Y10160
X66796Y34801
X67310Y11430
X67564Y34290
X67818Y32766
X68453Y18034
X73660Y13970
X74930Y9535
X77470Y20320
X82550Y8890
X83947Y28194
X85344Y28956
X85852Y21971
X91440Y9525
X97155Y10160
X98171Y24257
X98679Y23241
X99060Y12700
X99695Y24892
X103378Y24638
X107950Y19685
X111125Y20320
X116586Y17272
X116840Y12065
X117465Y13208
X126492Y20701
X127635Y20701
X127635Y9525
X128905Y20701
X129286Y28194
X130554Y18163
X131572Y25273
T2
X10770Y32980
X10770Y30480
X10770Y27980
X10770Y17740
X10770Y15240
X10770Y12740
X28550Y32980
X28550Y30480
X28550Y27980
X46330Y32980
X46330Y30480
X46330Y27980
X64110Y32980
X64110Y30480
X64110Y27980
X81890Y32980
X81890Y30480
X81890Y27980
X99670Y32980
X99670Y30480
X99670Y27980
X117450Y32980
X117450Y30480
X117450Y27980
X135230Y32980
X135230Y30480
X135230Y27980
T3
X10160Y45720
X10160Y43180
X10160Y40640
X10160Y38100
X45720Y10160
X48260Y10160
X52070Y6350
X52070Y6350
X52070Y6350
X52070Y3810
X52070Y3810
X52070Y3810
X54610Y6350
X54610Y6350
X54610Y6350
X54610Y3810
X54610Y3810
X54610Y3810
X57150Y6350
X57150Y6350
X57150Y6350
X57150Y3810
X57150Y3810
X57150Y3810
X59690Y6350
X59690Y6350
X59690Y6350
X59690Y3810
X59690Y3810
X59690Y3810
X60960Y45720
X60960Y43180
X60960Y40640
X60960Y38100
X62230Y6350
X62230Y6350
X62230Y6350
X62230Y3810
X62230Y3810
X62230Y3810
X64770Y6350
X64770Y6350
X64770Y6350
X64770Y3810
X64770Y3810
X64770Y3810
X67310Y6350
X67310Y6350
X67310Y6350
X67310Y3810
X67310Y3810
X67310Y3810
X69850Y6350
X69850Y6350
X69850Y6350
X69850Y3810
X69850Y3810
X69850Y3810
X72390Y6350
X72390Y6350
X72390Y6350
X72390Y3810
X72390Y3810
X72390Y3810
X74930Y6350
X74930Y6350
X74930Y6350
X74930Y3810
X74930Y3810
X74930Y3810
X77470Y6350
X77470Y6350
X77470Y6350
X77470Y3810
X77470Y3810
X77470Y3810
X80010Y6350
X80010Y6350
X80010Y6350
X80010Y3810
X80010Y3810
X80010Y3810
X82550Y6350
X82550Y6350
X82550Y6350
X82550Y3810
X82550Y3810
X82550Y3810
X85090Y6350
X85090Y6350
X85090Y6350
X85090Y3810
X85090Y3810
X85090Y3810
X87630Y6350
X87630Y6350
X87630Y6350
X87630Y3810
X87630Y3810
X87630Y3810
X90170Y6350
X90170Y6350
X90170Y6350
X90170Y3810
X90170Y3810
X90170Y3810
X92710Y6350
X92710Y6350
X92710Y6350
X92710Y3810
X92710Y3810
X92710Y3810
X95250Y6350
X95250Y6350
X95250Y6350
X95250Y3810
X95250Y3810
X95250Y3810
X97790Y6350
X97790Y6350
X97790Y6350
X97790Y3810
X97790Y3810
X97790Y3810
X100330Y6350
X100330Y6350
X100330Y6350
X100330Y3810
X100330Y3810
X100330Y3810
X102870Y6350
X102870Y6350
X102870Y6350
X102870Y3810
X102870Y3810
X102870Y3810
X105410Y6350
X105410Y6350
X105410Y6350
X105410Y3810
X105410Y3810
X105410Y3810
X107950Y6350
X107950Y6350
X107950Y6350
X107950Y3810
X107950Y3810
X107950Y3810
X110490Y6350
X110490Y6350
X110490Y6350
X110490Y3810
X110490Y3810
X110490Y3810
X111760Y45720
X111760Y43180
X111760Y40640
X111760Y38100
X113030Y6350
X113030Y6350
X113030Y6350
X113030Y3810
X113030Y3810
X113030Y3810
X115570Y6350
X115570Y6350
X115570Y6350
X115570Y3810
X115570Y3810
X115570Y3810
X118110Y6350
X118110Y6350
X118110Y6350
X118110Y3810
X118110Y3810
X118110Y3810
X120650Y6350
X120650Y6350
X120650Y6350
X120650Y3810
X120650Y3810
X120650Y3810
X123190Y6350
X123190Y6350
X123190Y6350
X123190Y3810
X123190Y3810
X123190Y3810
X125730Y6350
X125730Y6350
X125730Y6350
X125730Y3810
X125730Y3810
X125730Y3810
X128270Y6350
X128270Y6350
X128270Y6350
X128270Y3810
X128270Y3810
X128270Y3810
X130810Y6350
X130810Y6350
X130810Y6350
X130810Y3810
X130810Y3810
X130810Y3810
X133350Y6350
X133350Y6350
X133350Y6350
X133350Y3810
X133350Y3810
X133350Y3810
X135890Y6350
X135890Y6350
X135890Y6350
X135890Y3810
X135890Y3810
X135890Y3810
X138430Y6350
X138430Y6350
X138430Y6350
X138430Y3810
X138430Y3810
X138430Y3810
X140970Y6350
X140970Y6350
X140970Y6350
X140970Y3810
X140970Y3810
X140970Y3810
X143510Y6350
X143510Y6350
X143510Y6350
X143510Y3810
X143510Y3810
X143510Y3810
X146050Y6350
X146050Y6350
X146050Y6350
X146050Y3810
X146050Y3810
X146050Y3810
X148590Y6350
X148590Y6350
X148590Y6350
X148590Y3810
X148590Y3810
X148590Y3810
X151130Y6350
X151130Y6350
X151130Y6350
X151130Y3810
X151130Y3810
X151130Y3810
T4
X30960Y15240
X32860Y21840
X35560Y21840
X35560Y10640
X38260Y21840
X42160Y17915
X42160Y15240
X42160Y12540
X66520Y15240
X68420Y21840
X71120Y21840
X71120Y10640
X73820Y21840
X77720Y17915
X77720Y15240
X77720Y12540
X102080Y15240
X103980Y21840
X106680Y21840
X106680Y10640
X109380Y21840
X113280Y17915
X113280Y15240
X113280Y12540
X137640Y15240
X139540Y21840
X142240Y21840
X142240Y10640
X144940Y21840
X148840Y17915
X148840Y15240
X148840Y12540
T5
X17780Y34874
X17780Y26086
X17780Y19634
X17780Y10846
X35560Y34874
X35560Y26086
X53340Y34874
X53340Y26086
X71120Y34874
X71120Y26086
X88900Y34874
X88900Y26086
X106680Y34874
X106680Y26086
X124460Y34874
X124460Y26086
X142240Y34874
X142240Y26086
T6
X3500Y40000
X3500Y10000
X54000Y40000
X54000Y10000
X156500Y40000
X156500Y10000
T0
M30
