%FSLAX33Y33*%
%MOMM*%
%AMRect-W741421-H941421-RO1.000*
21,1,0.741421,0.941421,0.,0.,180*%
%AMRR-H1089615-W1469615-R544807-RO0.000*
21,1,0.380001,1.089615,0.,0.,360*
21,1,1.469615,0.000001,0.,0.,360*
1,1,1.089614,-0.1900005,0.0000005*
1,1,1.089614,0.1900005,0.0000005*
1,1,1.089614,0.1900005,-0.0000005*
1,1,1.089614,-0.1900005,-0.0000005*%
%AMRect-W670710-H870710-RO0.500*
21,1,0.67071,0.87071,0.,0.,270*%
%AMRect-W842120-H941421-RO0.500*
21,1,0.84212,0.941421,0.,0.,270*%
%AMRect-W741421-H941421-RO1.500*
21,1,0.741421,0.941421,0.,0.,90*%
%AMRect-W800000-H900000-RO0.500*
21,1,0.8,0.9,0.,0.,270*%
%AMRect-W741421-H941421-RO0.500*
21,1,0.741421,0.941421,0.,0.,270*%
%AMRect-W670710-H870710-RO1.000*
21,1,0.67071,0.87071,0.,0.,180*%
%AMRect-W842120-H941421-RO1.500*
21,1,0.84212,0.941421,0.,0.,90*%
%AMRect-W670710-H870710-RO1.500*
21,1,0.67071,0.87071,0.,0.,90*%
%AMRR-H192474-W893701-R96237-RO0.000*
21,1,0.701227,0.192474,0.,0.,360*
1,1,0.192474,-0.3506135,0.*
1,1,0.192474,0.3506135,0.*
1,1,0.192474,0.3506135,-0.*
1,1,0.192474,-0.3506135,0.*%
%AMRR-H192474-W850000-R96237-RO0.000*
21,1,0.657526,0.192474,0.,0.,360*
1,1,0.192474,-0.328763,0.*
1,1,0.192474,0.328763,0.*
1,1,0.192474,0.328763,-0.*
1,1,0.192474,-0.328763,0.*%
%AMRR-H850000-W192474-R96237-RO0.000*
21,1,0.192474,0.657526,0.,0.,360*
1,1,0.192474,0.,0.328763*
1,1,0.192474,0.,0.328763*
1,1,0.192474,0.,-0.328763*
1,1,0.192474,-0.,-0.328763*%
%AMRR-H893701-W192474-R96237-RO0.000*
21,1,0.192474,0.701227,0.,0.,360*
1,1,0.192474,0.,0.3506135*
1,1,0.192474,0.,0.3506135*
1,1,0.192474,0.,-0.3506135*
1,1,0.192474,-0.,-0.3506135*%
%AMRR-H820000-W192474-R96237-RO0.000*
21,1,0.192474,0.627526,0.,0.,360*
1,1,0.192474,0.,0.313763*
1,1,0.192474,0.,0.313763*
1,1,0.192474,0.,-0.313763*
1,1,0.192474,-0.,-0.313763*%
%AMRect-W842120-H941421-RO1.000*
21,1,0.84212,0.941421,0.,0.,180*%
%AMRect-W600000-H1500000-RO1.500*
21,1,0.6,1.5,0.,0.,90*%
%AMRect-W820000-H192474-RO1.000*
21,1,0.82,0.192474,0.,0.,180*%
%AMRR-H192474-W893701-R96237-RO1.000*
21,1,0.701227,0.192474,0.,0.,180*
1,1,0.192474,0.3506135,-0.*
1,1,0.192474,-0.3506135,-0.*
1,1,0.192474,-0.3506135,0.*
1,1,0.192474,0.3506135,0.*%
%AMRR-H192474-W850000-R96237-RO1.000*
21,1,0.657526,0.192474,0.,0.,180*
1,1,0.192474,0.328763,-0.*
1,1,0.192474,-0.328763,-0.*
1,1,0.192474,-0.328763,0.*
1,1,0.192474,0.328763,0.*%
%AMRR-H850000-W192474-R96237-RO1.000*
21,1,0.192474,0.657526,0.,0.,180*
1,1,0.192474,0.,-0.328763*
1,1,0.192474,-0.,-0.328763*
1,1,0.192474,-0.,0.328763*
1,1,0.192474,0.,0.328763*%
%AMRR-H893701-W192474-R96237-RO1.000*
21,1,0.192474,0.701227,0.,0.,180*
1,1,0.192474,0.,-0.3506135*
1,1,0.192474,-0.,-0.3506135*
1,1,0.192474,-0.,0.3506135*
1,1,0.192474,0.,0.3506135*%
%AMRR-H820000-W192474-R96237-RO1.000*
21,1,0.192474,0.627526,0.,0.,180*
1,1,0.192474,0.,-0.313763*
1,1,0.192474,-0.,-0.313763*
1,1,0.192474,-0.,0.313763*
1,1,0.192474,0.,0.313763*%
%AMRR-H250000-W1550000-R125000-RO0.000*
21,1,1.3,0.25,0.,0.,360*
1,1,0.25,-0.65,0.*
1,1,0.25,0.65,0.*
1,1,0.25,0.65,-0.*
1,1,0.25,-0.65,0.*%
%ADD10Rect-W741421-H941421-RO1.000*%
%ADD11R,0.67071X0.87071*%
%ADD12R,1.469615X1.089615*%
%ADD13RR-H1089615-W1469615-R544807-RO0.000*%
%ADD14R,0.741421X0.941421*%
%ADD15Rect-W670710-H870710-RO0.500*%
%ADD16Rect-W842120-H941421-RO0.500*%
%ADD17Rect-W741421-H941421-RO1.500*%
%ADD18Rect-W800000-H900000-RO0.500*%
%ADD19Rect-W741421-H941421-RO0.500*%
%ADD20Rect-W670710-H870710-RO1.000*%
%ADD21Rect-W842120-H941421-RO1.500*%
%ADD22Rect-W670710-H870710-RO1.500*%
%ADD23R,0.82X0.192474*%
%ADD24RR-H192474-W893701-R96237-RO0.000*%
%ADD25RR-H192474-W850000-R96237-RO0.000*%
%ADD26RR-H850000-W192474-R96237-RO0.000*%
%ADD27RR-H893701-W192474-R96237-RO0.000*%
%ADD28RR-H820000-W192474-R96237-RO0.000*%
%ADD29R,1.05X0.6*%
%ADD30Rect-W842120-H941421-RO1.000*%
%ADD31Rect-W600000-H1500000-RO1.500*%
%ADD32R,0.84212X0.941421*%
%ADD33Rect-W820000-H192474-RO1.000*%
%ADD34RR-H192474-W893701-R96237-RO1.000*%
%ADD35RR-H192474-W850000-R96237-RO1.000*%
%ADD36RR-H850000-W192474-R96237-RO1.000*%
%ADD37RR-H893701-W192474-R96237-RO1.000*%
%ADD38RR-H820000-W192474-R96237-RO1.000*%
%ADD39R,1.55X0.25*%
%ADD40RR-H250000-W1550000-R125000-RO0.000*%
D10*
%LNtop paste_traces*%
%LNtop paste component 2cb417fd89b64ff1*%
G01*
X68985Y125755D03*
X67285Y125755D03*
%LNtop paste component cb32256eb6e29e30*%
D11*
X84075Y78445D03*
X85775Y78445D03*
%LNtop paste component 50e8ad344c7d4b8f*%
D12*
X177900Y101645D03*
D13*
X182100Y98445D03*
X177900Y98445D03*
X182100Y101645D03*
X182100Y100045D03*
X177900Y100045D03*
%LNtop paste component 87d4757989b5faab*%
D14*
X48204Y104205D03*
X49904Y104205D03*
%LNtop paste component b027ff144b44c17e*%
D15*
X211793Y96669D03*
X211793Y94969D03*
%LNtop paste component 208970e27ef767f2*%
D12*
X97900Y121645D03*
D13*
X102100Y118445D03*
X97900Y118445D03*
X102100Y121645D03*
X102100Y120045D03*
X97900Y120045D03*
%LNtop paste component e6c093e4fb0ef7fd*%
D12*
X137900Y101645D03*
D13*
X142100Y98445D03*
X137900Y98445D03*
X142100Y101645D03*
X142100Y100045D03*
X137900Y100045D03*
%LNtop paste component cb78a816f7b119bb*%
D16*
X8029Y25075D03*
X8029Y23475D03*
%LNtop paste component 7f1e47caf152ae98*%
D11*
X65480Y118554D03*
X67180Y118554D03*
%LNtop paste component 58a1288a180aeb08*%
D17*
X207025Y79938D03*
X207025Y81638D03*
%LNtop paste component 101642b7feb7559f*%
D11*
X63950Y78450D03*
X65650Y78450D03*
%LNtop paste component 4aa0ec8f7d4abd44*%
X104300Y98445D03*
X106000Y98445D03*
%LNtop paste component 5dcb23a1593b6b07*%
D18*
X2200Y126200D03*
X2200Y124300D03*
X4200Y125250D03*
%LNtop paste component b89bd2635b4bd775*%
D11*
X165125Y118450D03*
X166825Y118450D03*
%LNtop paste component 4039f8620c22d145*%
D15*
X184200Y98445D03*
X184200Y96745D03*
%LNtop paste component 39d65e26780576d4*%
D11*
X164150Y78445D03*
X165850Y78445D03*
%LNtop paste component d38423d823e8d2e1*%
D12*
X17900Y81645D03*
D13*
X22100Y78445D03*
X17900Y78445D03*
X22100Y81645D03*
X22100Y80045D03*
X17900Y80045D03*
%LNtop paste component 6f74c3785349d0d5*%
D11*
X124175Y78445D03*
X125875Y78445D03*
%LNtop paste component 26c1b4b607a29686*%
D15*
X5375Y114925D03*
X5375Y113225D03*
%LNtop paste component 7d0a4e2d061378cf*%
D10*
X39748Y83885D03*
X38048Y83885D03*
%LNtop paste component 19b7ae7034783336*%
D19*
X214348Y81705D03*
X214348Y80005D03*
%LNtop paste component 3cf36ddb64d95e52*%
D17*
X212350Y80005D03*
X212350Y81705D03*
%LNtop paste component 8ce11e64e60d2ce9*%
D11*
X144000Y78554D03*
X145700Y78554D03*
%LNtop paste component ab15ae813f6f3aa1*%
X184275Y118450D03*
X185975Y118450D03*
%LNtop paste component 0e368f23a025e6cc*%
X63900Y98445D03*
X65600Y98445D03*
%LNtop paste component 01c29c7f8cfffb4b*%
X83950Y118575D03*
X85650Y118575D03*
%LNtop paste component 5ebd81450b63c694*%
D12*
X37900Y81645D03*
D13*
X42100Y78445D03*
X37900Y78445D03*
X42100Y81645D03*
X42100Y80045D03*
X37900Y80045D03*
%LNtop paste component 32cc1e32022eae04*%
D17*
X7050Y104625D03*
X7050Y106325D03*
%LNtop paste component e85196ca949464c4*%
D20*
X39819Y106385D03*
X38119Y106385D03*
%LNtop paste component ab2fc442c780097c*%
D21*
X211800Y111951D03*
X211800Y113550D03*
%LNtop paste component 4f76a2a9eaa2a2fe*%
D12*
X97900Y101645D03*
D13*
X102100Y98445D03*
X97900Y98445D03*
X102100Y101645D03*
X102100Y100045D03*
X97900Y100045D03*
%LNtop paste component 2e9ef28c2831b1bc*%
D12*
X57972Y81645D03*
D13*
X62172Y78445D03*
X57972Y78445D03*
X62172Y81645D03*
X62172Y80045D03*
X57972Y80045D03*
%LNtop paste component 28689b4c8158a79f*%
D10*
X72700Y78445D03*
X71000Y78445D03*
%LNtop paste component 7b562a51c2d66994*%
D11*
X104050Y118475D03*
X105750Y118475D03*
%LNtop paste component 44887bd3d44aa71f*%
D19*
X8745Y112675D03*
X8745Y110975D03*
%LNtop paste component 5baf418b44386f3e*%
D10*
X39819Y101841D03*
X38119Y101841D03*
%LNtop paste component 98269289897f6ba6*%
D15*
X210985Y94005D03*
X210985Y92305D03*
%LNtop paste component a86400f42089c71c*%
D11*
X144025Y98445D03*
X145725Y98445D03*
%LNtop paste component e784ba3ac1935508*%
D17*
X31700Y108466D03*
X31700Y110166D03*
%LNtop paste component c74a98aa77dc13b3*%
D11*
X24930Y78445D03*
X26630Y78445D03*
%LNtop paste component 43a2ab67652ac8d7*%
D22*
X203875Y98550D03*
X203875Y100250D03*
%LNtop paste component af7c4f35f2bc9333*%
D21*
X210717Y79955D03*
X210717Y81554D03*
%LNtop paste component b8b07e4af1db7061*%
D10*
X56285Y125755D03*
X54585Y125755D03*
%LNtop paste component 841befa43e51882c*%
D23*
X28161Y30675D03*
D24*
X28161Y30275D03*
X28161Y29875D03*
X28161Y29475D03*
D25*
X28161Y29075D03*
X30939Y29075D03*
D24*
X30939Y29475D03*
X30939Y29875D03*
X30939Y30275D03*
D25*
X30939Y30675D03*
D26*
X28750Y28486D03*
D27*
X29150Y28486D03*
X29550Y28486D03*
X29950Y28486D03*
D26*
X30350Y28486D03*
X30350Y31264D03*
D27*
X29950Y31264D03*
X29550Y31264D03*
X29150Y31264D03*
D28*
X28750Y31264D03*
%LNtop paste component 110faed1cc146b02*%
D17*
X33300Y112326D03*
X33300Y114026D03*
%LNtop paste component 22e543a28086d96e*%
D10*
X68985Y123215D03*
X67285Y123215D03*
%LNtop paste component 0711ebfc8202c0ed*%
D11*
X144400Y118425D03*
X146100Y118425D03*
%LNtop paste component ffb1b8a22baaf954*%
D18*
X9085Y94150D03*
X9085Y92250D03*
X11085Y93200D03*
%LNtop paste component 51d1d5a90901b739*%
D29*
X46510Y83300D03*
X46510Y82350D03*
X46510Y81400D03*
X49210Y81400D03*
X49210Y83300D03*
%LNtop paste component 116d0418d04e5f4f*%
D11*
X103850Y78455D03*
X105550Y78455D03*
%LNtop paste component 422269f795c4b49e*%
D21*
X47200Y32250D03*
X47200Y33850D03*
%LNtop paste component 14933e70956be4d4*%
D30*
X11396Y35304D03*
X9797Y35304D03*
%LNtop paste component a9a86f59fad873e5*%
D15*
X28173Y24715D03*
X28173Y23015D03*
%LNtop paste component b8f167eb817f45c9*%
D19*
X13490Y82145D03*
X13490Y80445D03*
%LNtop paste component 8d538f7f95303938*%
D31*
X49575Y85030D03*
X49575Y86300D03*
X49575Y87570D03*
X49575Y88840D03*
X49575Y90110D03*
X49575Y91380D03*
X49575Y92650D03*
X49575Y93920D03*
X44175Y93920D03*
X44175Y92650D03*
X44175Y91380D03*
X44175Y90110D03*
X44175Y88840D03*
X44175Y87570D03*
X44175Y86300D03*
X44175Y85030D03*
%LNtop paste component 8d773e40d9ff8c97*%
D14*
X51867Y123047D03*
X53567Y123047D03*
%LNtop paste component 362fc440c7609de4*%
D12*
X77900Y121645D03*
D13*
X82100Y118445D03*
X77900Y118445D03*
X82100Y121645D03*
X82100Y120045D03*
X77900Y120045D03*
%LNtop paste component 22777a1fd5ef78f6*%
D12*
X157900Y81645D03*
D13*
X162100Y78445D03*
X157900Y78445D03*
X162100Y81645D03*
X162100Y80045D03*
X157900Y80045D03*
%LNtop paste component e2b7cb41e3b42ff7*%
D11*
X207340Y97827D03*
X209040Y97827D03*
%LNtop paste component 3f34ece6ffbf9a07*%
X50549Y83414D03*
X52249Y83414D03*
%LNtop paste component 1b8cbfd094050d32*%
D12*
X97900Y81645D03*
D13*
X102100Y78445D03*
X97900Y78445D03*
X102100Y81645D03*
X102100Y80045D03*
X97900Y80045D03*
%LNtop paste component f89053a2e4f60840*%
D19*
X5560Y33875D03*
X5560Y32175D03*
%LNtop paste component 76f14d7369327f0d*%
D15*
X211090Y105990D03*
X211090Y104290D03*
%LNtop paste component 5a332b9c7c6b454e*%
D17*
X8500Y29310D03*
X8500Y31010D03*
%LNtop paste component 3d096520bff5873b*%
D19*
X205725Y100745D03*
X205725Y99045D03*
%LNtop paste component 0b32193e593047df*%
D12*
X177950Y81650D03*
D13*
X182150Y78450D03*
X177950Y78450D03*
X182150Y81650D03*
X182150Y80050D03*
X177950Y80050D03*
%LNtop paste component 3244838e2437b951*%
D19*
X5850Y56710D03*
X5850Y55010D03*
%LNtop paste component 4d63013c9b8810b0*%
D16*
X28138Y36177D03*
X28138Y34577D03*
%LNtop paste component 9606dd0b3b4181df*%
D22*
X44175Y80590D03*
X44175Y82290D03*
%LNtop paste component 4705e07a40114c09*%
D14*
X37999Y86425D03*
X39699Y86425D03*
%LNtop paste component b486b3018109de37*%
D12*
X177900Y121645D03*
D13*
X182100Y118445D03*
X177900Y118445D03*
X182100Y121645D03*
X182100Y120045D03*
X177900Y120045D03*
%LNtop paste component 01015ca45b8bb0bc*%
D10*
X70775Y98455D03*
X69075Y98455D03*
%LNtop paste component ef78370791fd3d8b*%
X39699Y88965D03*
X37999Y88965D03*
%LNtop paste component e572c9809e58cf0f*%
D12*
X117900Y101645D03*
D13*
X122100Y98445D03*
X117900Y98445D03*
X122100Y101645D03*
X122100Y100045D03*
X117900Y100045D03*
%LNtop paste component 2acf0be01d619105*%
D12*
X77900Y81645D03*
D13*
X82100Y78445D03*
X77900Y78445D03*
X82100Y81645D03*
X82100Y80045D03*
X77900Y80045D03*
%LNtop paste component 6df6cc68a2bdf09c*%
D11*
X124125Y118425D03*
X125825Y118425D03*
%LNtop paste component ad1c61057d5f85b7*%
D12*
X197900Y81645D03*
D13*
X202100Y78445D03*
X197900Y78445D03*
X202100Y81645D03*
X202100Y80045D03*
X197900Y80045D03*
%LNtop paste component ab6498ba432a0b55*%
D14*
X12850Y101525D03*
X14550Y101525D03*
%LNtop paste component 0cff4b9a53bad90f*%
D12*
X157900Y121645D03*
D13*
X162100Y118445D03*
X157900Y118445D03*
X162100Y121645D03*
X162100Y120045D03*
X157900Y120045D03*
%LNtop paste component ca5038e2ccbbc460*%
D12*
X197900Y121645D03*
D13*
X202100Y118445D03*
X197900Y118445D03*
X202100Y121645D03*
X202100Y120045D03*
X197900Y120045D03*
%LNtop paste component e20cf9e83588ac86*%
D32*
X212699Y76581D03*
X214299Y76581D03*
%LNtop paste component 00c8401b6cf4bd8f*%
D15*
X204125Y79567D03*
X204125Y77867D03*
%LNtop paste component 9fbf70fbd30795f4*%
D20*
X53695Y81960D03*
X51995Y81960D03*
%LNtop paste component 1aa80e2305d3c3f5*%
D14*
X65396Y116850D03*
X67096Y116850D03*
%LNtop paste component e8b37e7f08e4b4ce*%
D10*
X49904Y99125D03*
X48204Y99125D03*
%LNtop paste component 3da4608edc6e80ef*%
D20*
X214856Y85200D03*
X213156Y85200D03*
%LNtop paste component 1376364b9f4b7526*%
D31*
X49075Y105555D03*
X49075Y106825D03*
X49075Y108095D03*
X49075Y109365D03*
X49075Y110635D03*
X49075Y111905D03*
X49075Y113175D03*
X49075Y114445D03*
X43675Y114445D03*
X43675Y113175D03*
X43675Y111905D03*
X43675Y110635D03*
X43675Y109365D03*
X43675Y108095D03*
X43675Y106825D03*
X43675Y105555D03*
%LNtop paste component 7e7211f8812d17fd*%
D22*
X26775Y23015D03*
X26775Y24715D03*
%LNtop paste component 264957ead632d6c1*%
D10*
X30799Y85725D03*
X29099Y85725D03*
%LNtop paste component bfe6143774099665*%
D14*
X38048Y94045D03*
X39748Y94045D03*
%LNtop paste component c1f03332e9856203*%
D19*
X10860Y31010D03*
X10860Y29310D03*
%LNtop paste component db7c6cb3d87cf7fe*%
D12*
X137900Y81645D03*
D13*
X142100Y78445D03*
X137900Y78445D03*
X142100Y81645D03*
X142100Y80045D03*
X137900Y80045D03*
%LNtop paste component a3a28f654af52e6d*%
D21*
X207635Y99775D03*
X207635Y101374D03*
%LNtop paste component c928a8fc3e3d20d2*%
D12*
X77900Y101645D03*
D13*
X82100Y98445D03*
X77900Y98445D03*
X82100Y101645D03*
X82100Y100045D03*
X77900Y100045D03*
%LNtop paste component b3d7406c263ee182*%
D12*
X157900Y101645D03*
D13*
X162100Y98445D03*
X157900Y98445D03*
X162100Y101645D03*
X162100Y100045D03*
X157900Y100045D03*
%LNtop paste component 652fff0cf240bfb2*%
D16*
X212296Y93825D03*
X212296Y92225D03*
%LNtop paste component 707e6c11d1cca362*%
D14*
X48204Y101665D03*
X49904Y101665D03*
%LNtop paste component 92ba980cb6ada6c2*%
D12*
X57900Y121645D03*
D13*
X62100Y118445D03*
X57900Y118445D03*
X62100Y121645D03*
X62100Y120045D03*
X57900Y120045D03*
%LNtop paste component 5b22a68f09ffcba4*%
D17*
X26613Y32961D03*
X26613Y34661D03*
%LNtop paste component 5f39a1bbc8e10a34*%
D15*
X29451Y36262D03*
X29451Y34562D03*
%LNtop paste component 17d3a0ee983cedc9*%
D14*
X37999Y91505D03*
X39699Y91505D03*
%LNtop paste component 88d59f1f56311b83*%
D33*
X211539Y87325D03*
D34*
X211539Y87725D03*
X211539Y88125D03*
X211539Y88525D03*
D35*
X211539Y88925D03*
X208761Y88925D03*
D34*
X208761Y88525D03*
X208761Y88125D03*
X208761Y87725D03*
D35*
X208761Y87325D03*
D36*
X210950Y89514D03*
D37*
X210550Y89514D03*
X210150Y89514D03*
X209750Y89514D03*
D36*
X209350Y89514D03*
X209350Y86736D03*
D37*
X209750Y86736D03*
X210150Y86736D03*
X210550Y86736D03*
D38*
X210950Y86736D03*
%LNtop paste component 7c5862ef05c6b57e*%
D19*
X30000Y106596D03*
X30000Y104896D03*
%LNtop paste component d66d5715dd5ea0f6*%
D11*
X183912Y78450D03*
X185612Y78450D03*
%LNtop paste component 65289798f47177d4*%
D23*
X210936Y100975D03*
D24*
X210936Y100575D03*
X210936Y100175D03*
X210936Y99775D03*
D25*
X210936Y99375D03*
X213714Y99375D03*
D24*
X213714Y99775D03*
X213714Y100175D03*
X213714Y100575D03*
D25*
X213714Y100975D03*
D26*
X211525Y98786D03*
D27*
X211925Y98786D03*
X212325Y98786D03*
X212725Y98786D03*
D26*
X213125Y98786D03*
X213125Y101564D03*
D27*
X212725Y101564D03*
X212325Y101564D03*
X211925Y101564D03*
D28*
X211525Y101564D03*
%LNtop paste component 3ee2067a7940f73c*%
D14*
X38040Y112992D03*
X39740Y112992D03*
%LNtop paste component c3bb4e8e86108661*%
D12*
X117900Y81645D03*
D13*
X122100Y78445D03*
X117900Y78445D03*
X122100Y81645D03*
X122100Y80045D03*
X117900Y80045D03*
%LNtop paste component 1090ed080a1beb2c*%
D11*
X83800Y98445D03*
X85500Y98445D03*
%LNtop paste component d72e272e4740b0c6*%
D19*
X10800Y108310D03*
X10800Y106610D03*
%LNtop paste component 49beb2a2a790b48d*%
D17*
X213925Y90615D03*
X213925Y92315D03*
%LNtop paste component 66a2352ef12547e6*%
D10*
X14400Y98275D03*
X12700Y98275D03*
%LNtop paste component 80fbe409ce6ad601*%
D11*
X53695Y83436D03*
X55395Y83436D03*
%LNtop paste component f2b8dcf9fc5b61b9*%
X203900Y118500D03*
X205600Y118500D03*
%LNtop paste component ddb2af37f6a94b60*%
D12*
X57900Y101645D03*
D13*
X62100Y98445D03*
X57900Y98445D03*
X62100Y101645D03*
X62100Y100045D03*
X57900Y100045D03*
%LNtop paste component b52b50502c51dacb*%
D12*
X197900Y101645D03*
D13*
X202100Y98445D03*
X197900Y98445D03*
X202100Y101645D03*
X202100Y100045D03*
X197900Y100045D03*
%LNtop paste component afb2019f5953c4e2*%
D14*
X38119Y107997D03*
X39819Y107997D03*
%LNtop paste component 807992e83262e177*%
D12*
X117900Y121645D03*
D13*
X122100Y118445D03*
X117900Y118445D03*
X122100Y121645D03*
X122100Y120045D03*
X117900Y120045D03*
%LNtop paste component e7393894ce705798*%
D14*
X38119Y103825D03*
X39819Y103825D03*
%LNtop paste component e182ecc0a0b9ab00*%
D11*
X163850Y98445D03*
X165550Y98445D03*
%LNtop paste component 9838140f6d8fc3a3*%
D10*
X30750Y83425D03*
X29050Y83425D03*
%LNtop paste component 19f5bff069822602*%
D22*
X208590Y92210D03*
X208590Y93910D03*
%LNtop paste component 2855dc77c2e8dde1*%
D11*
X7265Y90315D03*
X8965Y90315D03*
%LNtop paste component 4de6dc9ddc697575*%
D19*
X213404Y110040D03*
X213404Y108340D03*
%LNtop paste component e90434b9302ec0b9*%
D14*
X38040Y115541D03*
X39740Y115541D03*
%LNtop paste component 76e5300c46c5832f*%
D21*
X215265Y91098D03*
X215265Y92697D03*
%LNtop paste component 42107fc99cd43302*%
D14*
X22525Y102781D03*
X24225Y102781D03*
%LNtop paste component fca1a590c33dcb53*%
D19*
X5450Y92290D03*
X5450Y90590D03*
%LNtop paste component 175f9e2f385f0166*%
D17*
X208875Y104125D03*
X208875Y105825D03*
%LNtop paste component 45386d5e65213c57*%
X5540Y39790D03*
X5540Y41490D03*
%LNtop paste component 8d9dea7f49d2440b*%
D39*
X50636Y80290D03*
D40*
X50636Y78340D03*
X50636Y78990D03*
X50636Y79640D03*
X54036Y78340D03*
X54036Y78990D03*
X54036Y79640D03*
X54036Y80290D03*
%LNtop paste component 037ab21f56739a3d*%
D11*
X123900Y98445D03*
X125600Y98445D03*
%LNtop paste component 4cda8897de2b8f63*%
D10*
X39740Y110537D03*
X38040Y110537D03*
%LNtop paste component cf01b5d8126ae9b4*%
D12*
X137900Y121645D03*
D13*
X142100Y118445D03*
X137900Y118445D03*
X142100Y121645D03*
X142100Y120045D03*
X137900Y120045D03*
%LNtop paste component fcb33d2da6a8351b*%
D17*
X208879Y79938D03*
X208879Y81638D03*
%LNtop paste component 58632b713c9df017*%
D11*
X42890Y83550D03*
X44590Y83550D03*
M02*