<?xml version="1.0" encoding="utf-8"?>
<!-- Generator: Adobe Illustrator 15.0.0, SVG Export Plug-In . SVG Version: 6.00 Build 0)  -->
<!DOCTYPE svg PUBLIC "-//W3C//DTD SVG 1.1//EN" "http://www.w3.org/Graphics/SVG/1.1/DTD/svg11.dtd">
<svg version="1.1" xmlns="http://www.w3.org/2000/svg" xmlns:xlink="http://www.w3.org/1999/xlink" x="0px" y="0px" width="864px"
	 height="864px" viewBox="0 0 864 864" enable-background="new 0 0 864 864" xml:space="preserve">
<g id="Layer_1">
	<g id="CIRCLE_5_">
		<path fill="none" stroke="#0000FF" stroke-width="0.0283" stroke-miterlimit="10" d="M174.745,384.835
			c0-14.092-11.422-25.516-25.512-25.516s-25.512,11.424-25.512,25.516c0,14.09,11.422,25.51,25.512,25.51
			S174.745,398.925,174.745,384.835L174.745,384.835z"/>
	</g>
	<g id="CIRCLE_4_">
		<path fill="none" stroke="#0000FF" stroke-width="0.0283" stroke-miterlimit="10" d="M411.654,406.06
			c0-5.477-4.439-9.92-9.92-9.92c-5.479,0-9.922,4.443-9.922,9.92c0,5.48,4.441,9.922,9.922,9.922S411.654,411.541,411.654,406.06
			L411.654,406.06z"/>
	</g>
	<g id="CIRCLE_3_">
		<path fill="none" stroke="#0000FF" stroke-width="0.0283" stroke-miterlimit="10" d="M232.272,384.908
			c0.039-14.09-11.35-25.547-25.438-25.588c-14.093-0.041-25.548,11.352-25.587,25.439c-0.041,14.092,11.349,25.545,25.438,25.586
			C220.774,410.386,232.231,398.998,232.272,384.908L232.272,384.908z"/>
	</g>
	<g id="CIRCLE_2_">
		<path fill="none" stroke="#0000FF" stroke-width="0.0283" stroke-miterlimit="10" d="M523.752,390.099
			c0-12.506-10.14-22.646-22.648-22.646c-12.508,0-22.648,10.141-22.648,22.646c0,12.508,10.142,22.648,22.648,22.648
			C513.613,412.748,523.752,402.607,523.752,390.099L523.752,390.099z"/>
	</g>
	<g id="CIRCLE_1_">
		<path fill="none" stroke="#0000FF" stroke-width="0.0283" stroke-miterlimit="10" d="M468.545,390.099
			c0-12.506-10.141-22.646-22.647-22.646s-22.648,10.141-22.648,22.646c0,12.508,10.142,22.648,22.648,22.648
			S468.545,402.607,468.545,390.099L468.545,390.099z"/>
	</g>
	<polygon fill="none" stroke="#0000FF" stroke-width="0.0283" stroke-miterlimit="10" points="239.355,413.144 289.914,413.144 
		289.914,415.486 316.843,415.486 316.843,413.15 354.4,413.15 354.4,422.355 388.416,422.355 388.416,395.425 354.4,395.425 
		354.4,404.646 316.843,404.646 316.843,367.296 289.914,367.296 289.914,409.322 239.355,409.322 	"/>
	<path fill="none" stroke="#0000FF" stroke-width="0.0283" stroke-miterlimit="10" d="M112.38,487.437
		c0-2.504-2.031-4.535-4.536-4.535c-2.503,0-4.535,2.031-4.535,4.535s2.032,4.535,4.535,4.535
		C110.349,491.972,112.38,489.943,112.38,487.437"/>
	<path fill="none" stroke="#0000FF" stroke-width="0.0283" stroke-miterlimit="10" d="M112.38,572.457
		c0-2.506-2.031-4.535-4.536-4.535c-2.503,0-4.535,2.031-4.535,4.535s2.032,4.535,4.535,4.535
		C110.349,576.992,112.38,574.962,112.38,572.457"/>
	<path fill="none" stroke="#0000FF" stroke-width="0.0283" stroke-miterlimit="10" d="M227.22,572.457
		c0-2.506-2.031-4.535-4.535-4.535s-4.536,2.031-4.536,4.535s2.032,4.535,4.536,4.535S227.22,574.962,227.22,572.457"/>
	<path fill="none" stroke="#0000FF" stroke-width="0.0283" stroke-miterlimit="10" d="M255.541,572.457
		c0-2.506-2.032-4.535-4.536-4.535s-4.535,2.031-4.535,4.535s2.031,4.535,4.535,4.535S255.541,574.962,255.541,572.457"/>
	<path fill="none" stroke="#0000FF" stroke-width="0.0283" stroke-miterlimit="10" d="M255.541,487.437
		c0-2.504-2.032-4.535-4.536-4.535s-4.535,2.031-4.535,4.535s2.031,4.535,4.535,4.535S255.541,489.943,255.541,487.437"/>
	<path fill="none" stroke="#0000FF" stroke-width="0.0283" stroke-miterlimit="10" d="M431.279,572.457
		c0-2.506-2.03-4.535-4.535-4.535c-2.507,0-4.535,2.031-4.535,4.535s2.029,4.535,4.535,4.535
		C429.25,576.994,431.279,574.962,431.279,572.457"/>
	<path fill="none" stroke="#0000FF" stroke-width="0.0283" stroke-miterlimit="10" d="M546.119,572.457
		c0-2.506-2.031-4.535-4.535-4.535c-2.505,0-4.536,2.031-4.536,4.535s2.031,4.535,4.536,4.535
		C544.088,576.992,546.119,574.962,546.119,572.457"/>
	<path fill="none" stroke="#0000FF" stroke-width="0.0283" stroke-miterlimit="10" d="M112.38,626.936
		c0-2.506-2.031-4.535-4.536-4.535c-2.503,0-4.535,2.031-4.535,4.535s2.032,4.535,4.535,4.535
		C110.349,631.471,112.38,629.442,112.38,626.936"/>
	<path fill="none" stroke="#0000FF" stroke-width="0.0283" stroke-miterlimit="10" d="M227.22,626.936
		c0-2.506-2.031-4.535-4.535-4.535s-4.536,2.031-4.536,4.535s2.032,4.535,4.536,4.535S227.22,629.442,227.22,626.936"/>
	<path fill="none" stroke="#0000FF" stroke-width="0.0283" stroke-miterlimit="10" d="M546.119,626.936
		c0-2.506-2.031-4.535-4.535-4.535c-2.505,0-4.536,2.031-4.536,4.535s2.031,4.535,4.536,4.535
		C544.088,631.471,546.119,629.442,546.119,626.936"/>
	<path fill="none" stroke="#0000FF" stroke-width="0.0283" stroke-miterlimit="10" d="M546.119,487.437
		c0-2.504-2.031-4.535-4.535-4.535c-2.505,0-4.536,2.031-4.536,4.535s2.031,4.535,4.536,4.535
		C544.088,491.972,546.119,489.943,546.119,487.437"/>
	<path fill="none" stroke="#0000FF" stroke-width="0.0283" stroke-miterlimit="10" d="M495.669,171.482
		c-19.571,0-35.436-15.862-35.436-35.433s15.864-35.434,35.436-35.434c19.565,0,35.431,15.863,35.431,35.434
		S515.235,171.482,495.669,171.482z"/>
	<path fill="none" stroke="#0000FF" stroke-width="0.0283" stroke-miterlimit="10" d="M384.069,171.375
		c-19.571,0-35.436-15.862-35.436-35.433s15.865-35.434,35.436-35.434c19.565,0,35.431,15.863,35.431,35.434
		S403.634,171.375,384.069,171.375z"/>
	<path fill="none" stroke="#0000FF" stroke-width="0.0283" stroke-miterlimit="10" d="M272.469,171.375
		c-19.571,0-35.436-15.862-35.436-35.433s15.865-35.434,35.436-35.434c19.565,0,35.431,15.863,35.431,35.434
		S292.034,171.375,272.469,171.375z"/>
	<path fill="none" stroke="#0000FF" stroke-width="0.0283" stroke-miterlimit="10" d="M160.87,171.375
		c-19.571,0-35.436-15.862-35.436-35.433s15.864-35.434,35.436-35.434c19.565,0,35.43,15.863,35.43,35.434
		S180.435,171.375,160.87,171.375z"/>
	<circle fill="none" stroke="#0000FF" stroke-width="0.0283" stroke-miterlimit="10" cx="132.068" cy="218.477" r="11.338"/>
	<circle fill="none" stroke="#0000FF" stroke-width="0.0283" stroke-miterlimit="10" cx="187.868" cy="218.477" r="11.338"/>
	<path fill="none" stroke="#0000FF" stroke-width="0.0283" stroke-miterlimit="10" d="M243.666,229.815
		c-6.261,0-11.337-5.075-11.337-11.339c0-6.262,5.076-11.338,11.337-11.338c6.264,0,11.34,5.076,11.34,11.338
		C255.006,224.74,249.93,229.815,243.666,229.815z"/>
	<circle fill="none" stroke="#0000FF" stroke-width="0.0283" stroke-miterlimit="10" cx="299.34" cy="218.476" r="11.338"/>
	<circle fill="none" stroke="#0000FF" stroke-width="0.0283" stroke-miterlimit="10" cx="355.267" cy="218.476" r="11.338"/>
	<circle fill="none" stroke="#0000FF" stroke-width="0.0283" stroke-miterlimit="10" cx="411.067" cy="218.476" r="11.338"/>
	<circle fill="none" stroke="#0000FF" stroke-width="0.0283" stroke-miterlimit="10" cx="466.866" cy="218.476" r="11.338"/>
	<circle fill="none" stroke="#0000FF" stroke-width="0.0283" stroke-miterlimit="10" cx="522.667" cy="218.476" r="11.338"/>
	
		<rect x="458.674" y="242.563" fill="none" stroke="#0000FF" stroke-width="0.0283" stroke-miterlimit="10" width="73.984" height="26.469"/>
	
		<rect x="347.073" y="242.526" fill="none" stroke="#0000FF" stroke-width="0.0283" stroke-miterlimit="10" width="73.986" height="26.506"/>
	
		<rect x="235.473" y="242.526" fill="none" stroke="#0000FF" stroke-width="0.0283" stroke-miterlimit="10" width="73.986" height="26.506"/>
	
		<rect x="123.874" y="242.526" fill="none" stroke="#0000FF" stroke-width="0.0283" stroke-miterlimit="10" width="73.986" height="26.506"/>
	<polygon fill="none" stroke="#0000FF" stroke-width="0.0283" stroke-miterlimit="10" points="559.971,426.707 540.128,426.707 
		540.128,435.21 511.782,435.21 511.782,426.707 137.609,426.707 137.609,435.21 109.262,435.21 109.262,426.707 89.419,426.707 
		89.419,382.325 97.923,382.325 97.923,353.979 89.419,353.979 89.419,309.246 109.262,309.246 109.262,300.742 137.609,300.742 
		137.609,309.246 511.782,309.246 511.782,300.742 540.128,300.742 540.128,309.246 559.971,309.246 559.971,353.979 
		551.467,353.979 551.467,382.325 559.971,382.325 	"/>
	<polygon fill="none" stroke="#0000FF" stroke-width="0.0283" stroke-miterlimit="10" points="549.16,838.438 529.318,838.438 
		529.318,846.942 500.971,846.942 500.971,838.438 126.8,838.438 126.8,846.942 98.452,846.942 98.452,838.438 78.61,838.438 
		78.61,794.055 87.114,794.055 87.114,765.709 78.61,765.709 78.61,720.977 98.452,720.977 98.452,712.473 126.8,712.473 
		126.8,720.977 500.971,720.976 500.971,712.472 529.318,712.472 529.318,720.976 549.16,720.976 549.16,765.709 540.655,765.709 
		540.655,794.055 549.16,794.055 	"/>
	<g>
		<path fill="none" stroke="#0000FF" stroke-width="0.0283" stroke-miterlimit="10" d="M537.009,162.978
			c0,2.506,2.031,4.536,4.536,4.536c2.504,0,4.535-2.031,4.535-4.536c0-2.502-2.031-4.535-4.535-4.535
			C539.04,158.443,537.009,160.473,537.009,162.978"/>
		<path fill="none" stroke="#0000FF" stroke-width="0.0283" stroke-miterlimit="10" d="M102.137,162.978
			c0,3.132,2.538,5.67,5.669,5.67s5.669-2.539,5.669-5.67c0-3.129-2.539-5.669-5.669-5.669S102.137,159.847,102.137,162.978"/>
	</g>
	
		<rect x="109.261" y="276.379" fill="none" stroke="#0000FF" stroke-width="0.0283" stroke-miterlimit="10" width="28.347" height="8.504"/>
	
		<rect x="511.781" y="276.379" fill="none" stroke="#0000FF" stroke-width="0.0283" stroke-miterlimit="10" width="28.345" height="8.504"/>
	<path fill="none" stroke="#0000FF" stroke-width="0.0283" stroke-miterlimit="10" d="M80.916,458.504c0-9.389,7.611-17,17-17
		h453.559c9.389,0,17,7.611,17,17V685.85c0,9.389-7.611,17-17,17H97.916c-9.389,0-17-7.611-17-17V458.504z"/>
	
		<rect x="551.467" y="558.284" fill="none" stroke="#0000FF" stroke-width="0.0283" stroke-miterlimit="10" width="8.504" height="28.346"/>
	
		<rect x="511.782" y="450.008" fill="none" stroke="#0000FF" stroke-width="0.0283" stroke-miterlimit="10" width="28.346" height="8.504"/>
	
		<rect x="109.263" y="450.008" fill="none" stroke="#0000FF" stroke-width="0.0283" stroke-miterlimit="10" width="28.346" height="8.504"/>
	
		<rect x="89.419" y="558.284" fill="none" stroke="#0000FF" stroke-width="0.0283" stroke-miterlimit="10" width="8.504" height="28.346"/>
	
		<rect x="109.263" y="685.842" fill="none" stroke="#0000FF" stroke-width="0.0283" stroke-miterlimit="10" width="28.346" height="8.504"/>
	
		<rect x="511.782" y="685.842" fill="none" stroke="#0000FF" stroke-width="0.0283" stroke-miterlimit="10" width="28.346" height="8.504"/>
	<path fill="none" stroke="#0000FF" stroke-width="0.0283" stroke-miterlimit="10" d="M568.475,276.651c0,9.389-7.611,17-17,17
		H97.916c-9.389,0-17-7.611-17-17V49.305c0-9.389,7.611-17,17-17h453.559c9.389,0,17,7.611,17,17V276.651z"/>
	
		<rect x="89.419" y="148.526" fill="none" stroke="#0000FF" stroke-width="0.0283" stroke-miterlimit="10" width="8.504" height="28.346"/>
	
		<rect x="109.261" y="276.643" fill="none" stroke="#0000FF" stroke-width="0.0283" stroke-miterlimit="10" width="28.347" height="8.504"/>
	
		<rect x="511.781" y="276.643" fill="none" stroke="#0000FF" stroke-width="0.0283" stroke-miterlimit="10" width="28.345" height="8.504"/>
	
		<rect x="551.467" y="148.526" fill="none" stroke="#0000FF" stroke-width="0.0283" stroke-miterlimit="10" width="8.504" height="28.346"/>
	
		<rect x="511.781" y="40.809" fill="none" stroke="#0000FF" stroke-width="0.0283" stroke-miterlimit="10" width="28.345" height="8.504"/>
	
		<rect x="109.261" y="40.809" fill="none" stroke="#0000FF" stroke-width="0.0283" stroke-miterlimit="10" width="28.347" height="8.504"/>
</g>
<g id="Layer_5">
	<g>
		<g>
			<g>
				
					<rect x="602.375" y="478.326" fill="none" stroke="#0000FF" stroke-width="0.0283" stroke-miterlimit="10" width="32.598" height="28.348"/>
			</g>
		</g>
		<polygon fill="none" stroke="#0000FF" stroke-width="0.0283" stroke-miterlimit="10" points="589.617,423.619 581.113,423.619 
			581.113,451.964 589.617,451.964 589.619,551.177 630.721,551.177 630.721,559.681 659.066,559.681 659.066,551.177 
			706.688,551.177 706.691,451.964 715.193,451.964 715.193,423.619 706.691,423.619 706.689,423.619 706.689,324.406 
			659.066,324.406 659.066,315.902 630.721,315.902 630.721,324.406 589.617,324.406 		"/>
	</g>
	<g>
		<polygon fill="none" stroke="#0000FF" stroke-width="0.0283" stroke-miterlimit="10" points="706.689,171.444 715.193,171.444 
			715.193,143.096 706.689,143.096 706.688,43.883 665.586,43.883 665.586,35.379 637.24,35.379 637.24,43.883 589.619,43.883 
			589.615,143.096 581.113,143.096 581.113,171.442 589.615,171.442 589.617,171.442 589.617,270.655 637.24,270.655 
			637.24,279.159 665.586,279.159 665.586,270.655 706.689,270.655 		"/>
	</g>
</g>
</svg>
