<?xml version="1.0" encoding="utf-8"?>
<!-- Generator: Adobe Illustrator 15.0.0, SVG Export Plug-In . SVG Version: 6.00 Build 0)  -->
<!DOCTYPE svg PUBLIC "-//W3C//DTD SVG 1.1//EN" "http://www.w3.org/Graphics/SVG/1.1/DTD/svg11.dtd">
<svg version="1.1" id="Layer_1" xmlns="http://www.w3.org/2000/svg" xmlns:xlink="http://www.w3.org/1999/xlink" x="0px" y="0px"
	 width="2239.371px" height="1088.504px" viewBox="0 0 2239.371 1088.504" enable-background="new 0 0 2239.371 1088.504"
	 xml:space="preserve">
<g>
	<path fill="none" stroke="#0000FF" stroke-width="0.0283" stroke-miterlimit="10" d="M2031.411,527.698
		c-2.584,0-4.678,2.096-4.678,4.678c0,2.584,2.094,4.678,4.678,4.678s4.678-2.094,4.678-4.678
		C2036.089,529.794,2033.995,527.698,2031.411,527.698"/>
	<path fill="none" stroke="#0000FF" stroke-width="0.0283" stroke-miterlimit="10" d="M2031.411,758.1
		c-2.584,0-4.678,2.094-4.678,4.678c0,2.582,2.094,4.676,4.678,4.676s4.678-2.094,4.678-4.676
		C2036.089,760.193,2033.995,758.1,2031.411,758.1"/>
	<path fill="none" stroke="#0000FF" stroke-width="0.0283" stroke-miterlimit="10" d="M2031.411,988.502
		c-2.584,0-4.678,2.094-4.678,4.678c0,2.582,2.094,4.676,4.678,4.676s4.678-2.094,4.678-4.676
		C2036.089,990.596,2033.995,988.502,2031.411,988.502"/>
	<path fill="none" stroke="#0000FF" stroke-width="0.0283" stroke-miterlimit="10" d="M2031.411,974.102
		c-2.584,0-4.678,2.094-4.678,4.678s2.094,4.678,4.678,4.678s4.678-2.094,4.678-4.678S2033.995,974.102,2031.411,974.102"/>
	<path fill="none" stroke="#0000FF" stroke-width="0.0283" stroke-miterlimit="10" d="M2031.411,959.701
		c-2.584,0-4.678,2.096-4.678,4.678c0,2.584,2.094,4.678,4.678,4.678s4.678-2.094,4.678-4.678
		C2036.089,961.797,2033.995,959.701,2031.411,959.701"/>
	<path fill="none" stroke="#0000FF" stroke-width="0.0283" stroke-miterlimit="10" d="M2031.411,945.303
		c-2.584,0-4.678,2.094-4.678,4.676c0,2.584,2.094,4.678,4.678,4.678s4.678-2.094,4.678-4.678
		C2036.089,947.396,2033.995,945.303,2031.411,945.303"/>
	<path fill="none" stroke="#0000FF" stroke-width="0.0283" stroke-miterlimit="10" d="M2031.411,930.902
		c-2.584,0-4.678,2.094-4.678,4.678c0,2.582,2.094,4.676,4.678,4.676s4.678-2.094,4.678-4.676
		C2036.089,932.996,2033.995,930.902,2031.411,930.902"/>
	<path fill="none" stroke="#0000FF" stroke-width="0.0283" stroke-miterlimit="10" d="M2031.411,916.502
		c-2.584,0-4.678,2.094-4.678,4.678c0,2.582,2.094,4.676,4.678,4.676s4.678-2.094,4.678-4.676
		C2036.089,918.596,2033.995,916.502,2031.411,916.502"/>
	<path fill="none" stroke="#0000FF" stroke-width="0.0283" stroke-miterlimit="10" d="M2031.411,902.102
		c-2.584,0-4.678,2.094-4.678,4.678s2.094,4.678,4.678,4.678s4.678-2.094,4.678-4.678S2033.995,902.102,2031.411,902.102"/>
	<path fill="none" stroke="#0000FF" stroke-width="0.0283" stroke-miterlimit="10" d="M2031.411,858.902
		c-2.584,0-4.678,2.094-4.678,4.678c0,2.582,2.094,4.676,4.678,4.676s4.678-2.094,4.678-4.676
		C2036.089,860.996,2033.995,858.902,2031.411,858.902"/>
	<path fill="none" stroke="#0000FF" stroke-width="0.0283" stroke-miterlimit="10" d="M2031.411,844.5
		c-2.584,0-4.678,2.094-4.678,4.678c0,2.582,2.094,4.676,4.678,4.676s4.678-2.094,4.678-4.676
		C2036.089,846.594,2033.995,844.5,2031.411,844.5"/>
	<path fill="none" stroke="#0000FF" stroke-width="0.0283" stroke-miterlimit="10" d="M2031.411,830.1
		c-2.584,0-4.678,2.094-4.678,4.678s2.094,4.678,4.678,4.678s4.678-2.094,4.678-4.678S2033.995,830.1,2031.411,830.1"/>
	<path fill="none" stroke="#0000FF" stroke-width="0.0283" stroke-miterlimit="10" d="M2031.411,815.701
		c-2.584,0-4.678,2.094-4.678,4.678c0,2.582,2.094,4.676,4.678,4.676s4.678-2.094,4.678-4.676
		C2036.089,817.795,2033.995,815.701,2031.411,815.701"/>
	<path fill="none" stroke="#0000FF" stroke-width="0.0283" stroke-miterlimit="10" d="M2031.411,801.301
		c-2.584,0-4.678,2.094-4.678,4.678s2.094,4.678,4.678,4.678s4.678-2.094,4.678-4.678S2033.995,801.301,2031.411,801.301"/>
	<path fill="none" stroke="#0000FF" stroke-width="0.0283" stroke-miterlimit="10" d="M2031.411,786.9
		c-2.584,0-4.678,2.096-4.678,4.678c0,2.584,2.094,4.678,4.678,4.678s4.678-2.094,4.678-4.678
		C2036.089,788.996,2033.995,786.9,2031.411,786.9"/>
	<path fill="none" stroke="#0000FF" stroke-width="0.0283" stroke-miterlimit="10" d="M2031.411,772.502
		c-2.584,0-4.678,2.094-4.678,4.676c0,2.584,2.094,4.678,4.678,4.678s4.678-2.094,4.678-4.678
		C2036.089,774.596,2033.995,772.502,2031.411,772.502"/>
	<path fill="none" stroke="#0000FF" stroke-width="0.0283" stroke-miterlimit="10" d="M2031.411,743.699
		c-2.584,0-4.678,2.094-4.678,4.678c0,2.582,2.094,4.678,4.678,4.678s4.678-2.096,4.678-4.678
		C2036.089,745.793,2033.995,743.699,2031.411,743.699"/>
	<path fill="none" stroke="#0000FF" stroke-width="0.0283" stroke-miterlimit="10" d="M2031.411,729.299
		c-2.584,0-4.678,2.094-4.678,4.678s2.094,4.678,4.678,4.678s4.678-2.094,4.678-4.678S2033.995,729.299,2031.411,729.299"/>
	<path fill="none" stroke="#0000FF" stroke-width="0.0283" stroke-miterlimit="10" d="M2031.411,714.898
		c-2.584,0-4.678,2.096-4.678,4.678c0,2.584,2.094,4.678,4.678,4.678s4.678-2.094,4.678-4.678
		C2036.089,716.994,2033.995,714.898,2031.411,714.898"/>
	<path fill="none" stroke="#0000FF" stroke-width="0.0283" stroke-miterlimit="10" d="M2031.411,700.5
		c-2.584,0-4.678,2.094-4.678,4.676c0,2.584,2.094,4.678,4.678,4.678s4.678-2.094,4.678-4.678
		C2036.089,702.594,2033.995,700.5,2031.411,700.5"/>
	<path fill="none" stroke="#0000FF" stroke-width="0.0283" stroke-miterlimit="10" d="M2031.411,686.1
		c-2.584,0-4.678,2.094-4.678,4.678c0,2.582,2.094,4.676,4.678,4.676s4.678-2.094,4.678-4.676
		C2036.089,688.193,2033.995,686.1,2031.411,686.1"/>
	<path fill="none" stroke="#0000FF" stroke-width="0.0283" stroke-miterlimit="10" d="M2031.411,671.699
		c-2.584,0-4.678,2.094-4.678,4.678c0,2.582,2.094,4.678,4.678,4.678s4.678-2.096,4.678-4.678
		C2036.089,673.793,2033.995,671.699,2031.411,671.699"/>
	<path fill="none" stroke="#0000FF" stroke-width="0.0283" stroke-miterlimit="10" d="M2031.411,657.299
		c-2.584,0-4.678,2.094-4.678,4.678s2.094,4.678,4.678,4.678s4.678-2.094,4.678-4.678S2033.995,657.299,2031.411,657.299"/>
	<path fill="none" stroke="#0000FF" stroke-width="0.0283" stroke-miterlimit="10" d="M2031.411,642.898
		c-2.584,0-4.678,2.096-4.678,4.678c0,2.584,2.094,4.678,4.678,4.678s4.678-2.094,4.678-4.678
		C2036.089,644.994,2033.995,642.898,2031.411,642.898"/>
	<path fill="none" stroke="#0000FF" stroke-width="0.0283" stroke-miterlimit="10" d="M2031.411,628.5
		c-2.584,0-4.678,2.094-4.678,4.676c0,2.584,2.094,4.678,4.678,4.678s4.678-2.094,4.678-4.678
		C2036.089,630.594,2033.995,628.5,2031.411,628.5"/>
	<path fill="none" stroke="#0000FF" stroke-width="0.0283" stroke-miterlimit="10" d="M2031.411,614.1
		c-2.584,0-4.678,2.094-4.678,4.678c0,2.582,2.094,4.676,4.678,4.676s4.678-2.094,4.678-4.676
		C2036.089,616.193,2033.995,614.1,2031.411,614.1"/>
	<path fill="none" stroke="#0000FF" stroke-width="0.0283" stroke-miterlimit="10" d="M2031.411,599.699
		c-2.584,0-4.678,2.094-4.678,4.678c0,2.582,2.094,4.678,4.678,4.678s4.678-2.096,4.678-4.678
		C2036.089,601.793,2033.995,599.699,2031.411,599.699"/>
	<path fill="none" stroke="#0000FF" stroke-width="0.0283" stroke-miterlimit="10" d="M2031.411,887.701
		c-2.584,0-4.678,2.096-4.678,4.678c0,2.584,2.094,4.678,4.678,4.678s4.678-2.094,4.678-4.678
		C2036.089,889.797,2033.995,887.701,2031.411,887.701"/>
	<path fill="none" stroke="#0000FF" stroke-width="0.0283" stroke-miterlimit="10" d="M2031.411,873.303
		c-2.584,0-4.678,2.094-4.678,4.676c0,2.584,2.094,4.678,4.678,4.678s4.678-2.094,4.678-4.678
		C2036.089,875.396,2033.995,873.303,2031.411,873.303"/>
	<path fill="none" stroke="#0000FF" stroke-width="0.0283" stroke-miterlimit="10" d="M2031.411,585.299
		c-2.584,0-4.678,2.094-4.678,4.678s2.094,4.678,4.678,4.678s4.678-2.094,4.678-4.678S2033.995,585.299,2031.411,585.299"/>
	<path fill="none" stroke="#0000FF" stroke-width="0.0283" stroke-miterlimit="10" d="M2031.411,1002.902
		c-2.584,0-4.678,2.094-4.678,4.678c0,2.582,2.094,4.676,4.678,4.676s4.678-2.094,4.678-4.676
		C2036.089,1004.996,2033.995,1002.902,2031.411,1002.902"/>
	<path fill="none" stroke="#0000FF" stroke-width="0.0283" stroke-miterlimit="10" d="M2031.411,542.099
		c-2.584,0-4.678,2.094-4.678,4.678s2.094,4.678,4.678,4.678s4.678-2.094,4.678-4.678S2033.995,542.099,2031.411,542.099"/>
	<path fill="none" stroke="#0000FF" stroke-width="0.0283" stroke-miterlimit="10" d="M2031.411,556.499
		c-2.584,0-4.678,2.094-4.678,4.678c0,2.582,2.094,4.678,4.678,4.678s4.678-2.096,4.678-4.678
		C2036.089,558.593,2033.995,556.499,2031.411,556.499"/>
	<path fill="none" stroke="#0000FF" stroke-width="0.0283" stroke-miterlimit="10" d="M2031.411,570.899
		c-2.584,0-4.678,2.094-4.678,4.677c0,2.584,2.094,4.678,4.678,4.678s4.678-2.094,4.678-4.678
		C2036.089,572.993,2033.995,570.899,2031.411,570.899"/>
	<polyline fill="none" stroke="#0000FF" stroke-width="0.0283" stroke-miterlimit="10" points="2011.286,640.547 2011.286,668.893 
		2019.79,668.893 2019.79,755.803 2011.286,755.803 2011.286,784.15 2019.79,784.15 2019.79,871.119 2011.286,871.119 
		2011.286,899.465 2019.79,899.465 2019.79,993.404 2011.286,993.404 2011.286,1021.752 2019.79,1021.752 2019.79,1037.342 
		2043.034,1037.342 2043.034,502.613 2019.79,502.613 2019.79,518.203 2011.286,518.203 2011.286,546.548 2019.79,546.548 
		2019.79,640.547 2011.286,640.547 	"/>
</g>
<g>
	<path fill="none" stroke="#0000FF" stroke-width="0.0283" stroke-miterlimit="10" d="M2074.53,1012.254
		c2.582,0,4.676-2.094,4.676-4.678c0-2.582-2.094-4.678-4.676-4.678c-2.584,0-4.678,2.096-4.678,4.678
		C2069.853,1010.16,2071.946,1012.254,2074.53,1012.254"/>
	<path fill="none" stroke="#0000FF" stroke-width="0.0283" stroke-miterlimit="10" d="M2074.53,781.854
		c2.582,0,4.676-2.094,4.676-4.678s-2.094-4.678-4.676-4.678c-2.584,0-4.678,2.094-4.678,4.678S2071.946,781.854,2074.53,781.854"/>
	<path fill="none" stroke="#0000FF" stroke-width="0.0283" stroke-miterlimit="10" d="M2074.53,551.452
		c2.584,0,4.678-2.094,4.678-4.678c0-2.582-2.094-4.676-4.678-4.676s-4.678,2.094-4.678,4.676
		C2069.853,549.358,2071.946,551.452,2074.53,551.452"/>
	<path fill="none" stroke="#0000FF" stroke-width="0.0283" stroke-miterlimit="10" d="M2074.53,565.853
		c2.584,0,4.678-2.094,4.678-4.678s-2.094-4.678-4.678-4.678s-4.678,2.094-4.678,4.678S2071.946,565.853,2074.53,565.853"/>
	<path fill="none" stroke="#0000FF" stroke-width="0.0283" stroke-miterlimit="10" d="M2074.53,580.252
		c2.584,0,4.678-2.096,4.678-4.678c0-2.583-2.094-4.677-4.678-4.677s-4.678,2.094-4.678,4.677
		C2069.853,578.156,2071.946,580.252,2074.53,580.252"/>
	<path fill="none" stroke="#0000FF" stroke-width="0.0283" stroke-miterlimit="10" d="M2074.53,594.65
		c2.584,0,4.678-2.094,4.678-4.676c0-2.584-2.094-4.678-4.678-4.678s-4.678,2.094-4.678,4.678
		C2069.853,592.557,2071.946,594.65,2074.53,594.65"/>
	<path fill="none" stroke="#0000FF" stroke-width="0.0283" stroke-miterlimit="10" d="M2074.53,609.051
		c2.584,0,4.678-2.094,4.678-4.678c0-2.582-2.094-4.676-4.678-4.676s-4.678,2.094-4.678,4.676
		C2069.853,606.957,2071.946,609.051,2074.53,609.051"/>
	<path fill="none" stroke="#0000FF" stroke-width="0.0283" stroke-miterlimit="10" d="M2074.53,623.451
		c2.584,0,4.678-2.094,4.678-4.678c0-2.582-2.094-4.676-4.678-4.676s-4.678,2.094-4.678,4.676
		C2069.853,621.357,2071.946,623.451,2074.53,623.451"/>
	<path fill="none" stroke="#0000FF" stroke-width="0.0283" stroke-miterlimit="10" d="M2074.53,637.852
		c2.584,0,4.678-2.094,4.678-4.678s-2.094-4.678-4.678-4.678s-4.678,2.094-4.678,4.678S2071.946,637.852,2074.53,637.852"/>
	<path fill="none" stroke="#0000FF" stroke-width="0.0283" stroke-miterlimit="10" d="M2074.53,681.051
		c2.582,0,4.676-2.094,4.676-4.678c0-2.582-2.092-4.676-4.676-4.676s-4.678,2.094-4.678,4.676
		C2069.853,678.957,2071.946,681.051,2074.53,681.051"/>
	<path fill="none" stroke="#0000FF" stroke-width="0.0283" stroke-miterlimit="10" d="M2074.53,695.451
		c2.582,0,4.676-2.094,4.676-4.678c0-2.582-2.094-4.676-4.676-4.676c-2.584,0-4.678,2.094-4.678,4.676
		C2069.853,693.357,2071.946,695.451,2074.53,695.451"/>
	<path fill="none" stroke="#0000FF" stroke-width="0.0283" stroke-miterlimit="10" d="M2074.53,709.852
		c2.582,0,4.676-2.094,4.676-4.678s-2.094-4.678-4.676-4.678c-2.584,0-4.678,2.094-4.678,4.678S2071.946,709.852,2074.53,709.852"/>
	<path fill="none" stroke="#0000FF" stroke-width="0.0283" stroke-miterlimit="10" d="M2074.53,724.252
		c2.582,0,4.676-2.096,4.676-4.678c0-2.584-2.094-4.678-4.676-4.678c-2.584,0-4.678,2.094-4.678,4.678
		C2069.853,722.156,2071.946,724.252,2074.53,724.252"/>
	<path fill="none" stroke="#0000FF" stroke-width="0.0283" stroke-miterlimit="10" d="M2074.53,738.65
		c2.582,0,4.676-2.094,4.676-4.676c0-2.584-2.094-4.678-4.676-4.678c-2.584,0-4.678,2.094-4.678,4.678
		C2069.853,736.557,2071.946,738.65,2074.53,738.65"/>
	<path fill="none" stroke="#0000FF" stroke-width="0.0283" stroke-miterlimit="10" d="M2074.53,753.051
		c2.582,0,4.676-2.094,4.676-4.678c0-2.582-2.094-4.676-4.676-4.676c-2.584,0-4.678,2.094-4.678,4.676
		C2069.853,750.957,2071.946,753.051,2074.53,753.051"/>
	<path fill="none" stroke="#0000FF" stroke-width="0.0283" stroke-miterlimit="10" d="M2074.53,767.451
		c2.582,0,4.676-2.094,4.676-4.678c0-2.582-2.094-4.676-4.676-4.676c-2.584,0-4.678,2.094-4.678,4.676
		C2069.853,765.357,2071.946,767.451,2074.53,767.451"/>
	<path fill="none" stroke="#0000FF" stroke-width="0.0283" stroke-miterlimit="10" d="M2074.53,796.254
		c2.582,0,4.676-2.096,4.676-4.678c0-2.584-2.094-4.678-4.676-4.678c-2.584,0-4.678,2.094-4.678,4.678
		C2069.853,794.158,2071.946,796.254,2074.53,796.254"/>
	<path fill="none" stroke="#0000FF" stroke-width="0.0283" stroke-miterlimit="10" d="M2074.53,810.652
		c2.582,0,4.676-2.094,4.676-4.676c0-2.584-2.094-4.678-4.676-4.678c-2.584,0-4.678,2.094-4.678,4.678
		C2069.853,808.559,2071.946,810.652,2074.53,810.652"/>
	<path fill="none" stroke="#0000FF" stroke-width="0.0283" stroke-miterlimit="10" d="M2074.53,825.053
		c2.582,0,4.676-2.094,4.676-4.678c0-2.582-2.094-4.676-4.676-4.676c-2.584,0-4.678,2.094-4.678,4.676
		C2069.853,822.959,2071.946,825.053,2074.53,825.053"/>
	<path fill="none" stroke="#0000FF" stroke-width="0.0283" stroke-miterlimit="10" d="M2074.53,839.453
		c2.582,0,4.676-2.094,4.676-4.678c0-2.582-2.094-4.678-4.676-4.678c-2.584,0-4.678,2.096-4.678,4.678
		C2069.853,837.359,2071.946,839.453,2074.53,839.453"/>
	<path fill="none" stroke="#0000FF" stroke-width="0.0283" stroke-miterlimit="10" d="M2074.53,853.854
		c2.582,0,4.676-2.094,4.676-4.678s-2.094-4.678-4.676-4.678c-2.584,0-4.678,2.094-4.678,4.678S2071.946,853.854,2074.53,853.854"/>
	<path fill="none" stroke="#0000FF" stroke-width="0.0283" stroke-miterlimit="10" d="M2074.53,868.254
		c2.582,0,4.676-2.094,4.676-4.678c0-2.582-2.094-4.678-4.676-4.678c-2.584,0-4.678,2.096-4.678,4.678
		C2069.853,866.16,2071.946,868.254,2074.53,868.254"/>
	<path fill="none" stroke="#0000FF" stroke-width="0.0283" stroke-miterlimit="10" d="M2074.53,882.654
		c2.582,0,4.676-2.094,4.676-4.678s-2.094-4.678-4.676-4.678c-2.584,0-4.678,2.094-4.678,4.678S2071.946,882.654,2074.53,882.654"/>
	<path fill="none" stroke="#0000FF" stroke-width="0.0283" stroke-miterlimit="10" d="M2074.53,897.055
		c2.582,0,4.676-2.096,4.676-4.678c0-2.584-2.094-4.678-4.676-4.678c-2.584,0-4.678,2.094-4.678,4.678
		C2069.853,894.959,2071.946,897.055,2074.53,897.055"/>
	<path fill="none" stroke="#0000FF" stroke-width="0.0283" stroke-miterlimit="10" d="M2074.53,911.453
		c2.582,0,4.676-2.094,4.676-4.676c0-2.584-2.094-4.678-4.676-4.678c-2.584,0-4.678,2.094-4.678,4.678
		C2069.853,909.359,2071.946,911.453,2074.53,911.453"/>
	<path fill="none" stroke="#0000FF" stroke-width="0.0283" stroke-miterlimit="10" d="M2074.53,925.854
		c2.582,0,4.676-2.094,4.676-4.678c0-2.582-2.094-4.676-4.676-4.676c-2.584,0-4.678,2.094-4.678,4.676
		C2069.853,923.76,2071.946,925.854,2074.53,925.854"/>
	<path fill="none" stroke="#0000FF" stroke-width="0.0283" stroke-miterlimit="10" d="M2074.53,940.254
		c2.582,0,4.676-2.094,4.676-4.678c0-2.582-2.094-4.678-4.676-4.678c-2.584,0-4.678,2.096-4.678,4.678
		C2069.853,938.16,2071.946,940.254,2074.53,940.254"/>
	<path fill="none" stroke="#0000FF" stroke-width="0.0283" stroke-miterlimit="10" d="M2074.53,652.252
		c2.584,0,4.678-2.096,4.678-4.678c0-2.584-2.094-4.678-4.678-4.678s-4.678,2.094-4.678,4.678
		C2069.853,650.156,2071.946,652.252,2074.53,652.252"/>
	<path fill="none" stroke="#0000FF" stroke-width="0.0283" stroke-miterlimit="10" d="M2074.53,666.65
		c2.584,0,4.678-2.094,4.678-4.676c0-2.584-2.094-4.678-4.678-4.678s-4.678,2.094-4.678,4.678
		C2069.853,664.557,2071.946,666.65,2074.53,666.65"/>
	<path fill="none" stroke="#0000FF" stroke-width="0.0283" stroke-miterlimit="10" d="M2074.53,954.654
		c2.582,0,4.676-2.094,4.676-4.678s-2.094-4.678-4.676-4.678c-2.584,0-4.678,2.094-4.678,4.678S2071.946,954.654,2074.53,954.654"/>
	<path fill="none" stroke="#0000FF" stroke-width="0.0283" stroke-miterlimit="10" d="M2074.53,537.052
		c2.584,0,4.678-2.094,4.678-4.678c0-2.582-2.094-4.676-4.678-4.676s-4.678,2.094-4.678,4.676
		C2069.853,534.958,2071.946,537.052,2074.53,537.052"/>
	<path fill="none" stroke="#0000FF" stroke-width="0.0283" stroke-miterlimit="10" d="M2074.53,997.854
		c2.582,0,4.676-2.094,4.676-4.678c0-2.582-2.094-4.676-4.676-4.676c-2.584,0-4.678,2.094-4.678,4.676
		C2069.853,995.76,2071.946,997.854,2074.53,997.854"/>
	<path fill="none" stroke="#0000FF" stroke-width="0.0283" stroke-miterlimit="10" d="M2074.53,983.453
		c2.582,0,4.676-2.094,4.676-4.676c0-2.584-2.094-4.678-4.676-4.678c-2.584,0-4.678,2.094-4.678,4.678
		C2069.853,981.359,2071.946,983.453,2074.53,983.453"/>
	<path fill="none" stroke="#0000FF" stroke-width="0.0283" stroke-miterlimit="10" d="M2074.53,969.055
		c2.582,0,4.676-2.096,4.676-4.678c0-2.584-2.094-4.678-4.676-4.678c-2.584,0-4.678,2.094-4.678,4.678
		C2069.853,966.959,2071.946,969.055,2074.53,969.055"/>
	<polyline fill="none" stroke="#0000FF" stroke-width="0.0283" stroke-miterlimit="10" points="2094.655,899.406 2094.655,871.059 
		2086.151,871.061 2086.151,784.15 2094.655,784.15 2094.655,755.801 2086.151,755.801 2086.151,668.834 2094.655,668.834 
		2094.655,640.488 2086.151,640.488 2086.151,546.55 2094.655,546.55 2094.655,518.201 2086.151,518.201 2086.151,502.611 
		2062.907,502.611 2062.905,1037.34 2086.151,1037.34 2086.151,1021.75 2094.655,1021.75 2094.655,993.404 2086.151,993.404 
		2086.151,899.406 2094.655,899.406 	"/>
</g>
<g>
	<path fill="none" stroke="#0000FF" stroke-width="0.0283" stroke-miterlimit="10" d="M1456.855,527.698
		c-2.584,0-4.678,2.096-4.678,4.678c0,2.584,2.094,4.678,4.678,4.678s4.678-2.094,4.678-4.678
		C1461.533,529.794,1459.439,527.698,1456.855,527.698"/>
	<path fill="none" stroke="#0000FF" stroke-width="0.0283" stroke-miterlimit="10" d="M1456.855,758.1
		c-2.584,0-4.678,2.094-4.678,4.678c0,2.582,2.094,4.676,4.678,4.676s4.678-2.094,4.678-4.676
		C1461.533,760.193,1459.439,758.1,1456.855,758.1"/>
	<path fill="none" stroke="#0000FF" stroke-width="0.0283" stroke-miterlimit="10" d="M1456.855,988.502
		c-2.584,0-4.678,2.094-4.678,4.678c0,2.582,2.094,4.676,4.678,4.676s4.678-2.094,4.678-4.676
		C1461.533,990.596,1459.439,988.502,1456.855,988.502"/>
	<path fill="none" stroke="#0000FF" stroke-width="0.0283" stroke-miterlimit="10" d="M1456.855,974.102
		c-2.584,0-4.678,2.094-4.678,4.678s2.094,4.678,4.678,4.678s4.678-2.094,4.678-4.678S1459.439,974.102,1456.855,974.102"/>
	<path fill="none" stroke="#0000FF" stroke-width="0.0283" stroke-miterlimit="10" d="M1456.855,959.701
		c-2.584,0-4.678,2.096-4.678,4.678c0,2.584,2.094,4.678,4.678,4.678s4.678-2.094,4.678-4.678
		C1461.533,961.797,1459.439,959.701,1456.855,959.701"/>
	<path fill="none" stroke="#0000FF" stroke-width="0.0283" stroke-miterlimit="10" d="M1456.855,945.303
		c-2.584,0-4.678,2.094-4.678,4.676c0,2.584,2.094,4.678,4.678,4.678s4.678-2.094,4.678-4.678
		C1461.533,947.396,1459.439,945.303,1456.855,945.303"/>
	<path fill="none" stroke="#0000FF" stroke-width="0.0283" stroke-miterlimit="10" d="M1456.855,930.902
		c-2.584,0-4.678,2.094-4.678,4.678c0,2.582,2.094,4.676,4.678,4.676s4.678-2.094,4.678-4.676
		C1461.533,932.996,1459.439,930.902,1456.855,930.902"/>
	<path fill="none" stroke="#0000FF" stroke-width="0.0283" stroke-miterlimit="10" d="M1456.855,916.502
		c-2.584,0-4.678,2.094-4.678,4.678c0,2.582,2.094,4.676,4.678,4.676s4.678-2.094,4.678-4.676
		C1461.533,918.596,1459.439,916.502,1456.855,916.502"/>
	<path fill="none" stroke="#0000FF" stroke-width="0.0283" stroke-miterlimit="10" d="M1456.855,902.102
		c-2.584,0-4.678,2.094-4.678,4.678s2.094,4.678,4.678,4.678s4.678-2.094,4.678-4.678S1459.439,902.102,1456.855,902.102"/>
	<path fill="none" stroke="#0000FF" stroke-width="0.0283" stroke-miterlimit="10" d="M1456.855,858.902
		c-2.584,0-4.678,2.094-4.678,4.678c0,2.582,2.094,4.676,4.678,4.676s4.678-2.094,4.678-4.676
		C1461.533,860.996,1459.439,858.902,1456.855,858.902"/>
	<path fill="none" stroke="#0000FF" stroke-width="0.0283" stroke-miterlimit="10" d="M1456.855,844.5
		c-2.584,0-4.678,2.094-4.678,4.678c0,2.582,2.094,4.676,4.678,4.676s4.678-2.094,4.678-4.676
		C1461.533,846.594,1459.439,844.5,1456.855,844.5"/>
	<path fill="none" stroke="#0000FF" stroke-width="0.0283" stroke-miterlimit="10" d="M1456.855,830.1
		c-2.584,0-4.678,2.094-4.678,4.678s2.094,4.678,4.678,4.678s4.678-2.094,4.678-4.678S1459.439,830.1,1456.855,830.1"/>
	<path fill="none" stroke="#0000FF" stroke-width="0.0283" stroke-miterlimit="10" d="M1456.855,815.701
		c-2.584,0-4.678,2.094-4.678,4.678c0,2.582,2.094,4.676,4.678,4.676s4.678-2.094,4.678-4.676
		C1461.533,817.795,1459.439,815.701,1456.855,815.701"/>
	<path fill="none" stroke="#0000FF" stroke-width="0.0283" stroke-miterlimit="10" d="M1456.855,801.301
		c-2.584,0-4.678,2.094-4.678,4.678s2.094,4.678,4.678,4.678s4.678-2.094,4.678-4.678S1459.439,801.301,1456.855,801.301"/>
	<path fill="none" stroke="#0000FF" stroke-width="0.0283" stroke-miterlimit="10" d="M1456.855,786.9
		c-2.584,0-4.678,2.096-4.678,4.678c0,2.584,2.094,4.678,4.678,4.678s4.678-2.094,4.678-4.678
		C1461.533,788.996,1459.439,786.9,1456.855,786.9"/>
	<path fill="none" stroke="#0000FF" stroke-width="0.0283" stroke-miterlimit="10" d="M1456.855,772.502
		c-2.584,0-4.678,2.094-4.678,4.676c0,2.584,2.094,4.678,4.678,4.678s4.678-2.094,4.678-4.678
		C1461.533,774.596,1459.439,772.502,1456.855,772.502"/>
	<path fill="none" stroke="#0000FF" stroke-width="0.0283" stroke-miterlimit="10" d="M1456.855,743.699
		c-2.584,0-4.678,2.094-4.678,4.678c0,2.582,2.094,4.678,4.678,4.678s4.678-2.096,4.678-4.678
		C1461.533,745.793,1459.439,743.699,1456.855,743.699"/>
	<path fill="none" stroke="#0000FF" stroke-width="0.0283" stroke-miterlimit="10" d="M1456.855,729.299
		c-2.584,0-4.678,2.094-4.678,4.678s2.094,4.678,4.678,4.678s4.678-2.094,4.678-4.678S1459.439,729.299,1456.855,729.299"/>
	<path fill="none" stroke="#0000FF" stroke-width="0.0283" stroke-miterlimit="10" d="M1456.855,714.898
		c-2.584,0-4.678,2.096-4.678,4.678c0,2.584,2.094,4.678,4.678,4.678s4.678-2.094,4.678-4.678
		C1461.533,716.994,1459.439,714.898,1456.855,714.898"/>
	<path fill="none" stroke="#0000FF" stroke-width="0.0283" stroke-miterlimit="10" d="M1456.855,700.5
		c-2.584,0-4.678,2.094-4.678,4.676c0,2.584,2.094,4.678,4.678,4.678s4.678-2.094,4.678-4.678
		C1461.533,702.594,1459.439,700.5,1456.855,700.5"/>
	<path fill="none" stroke="#0000FF" stroke-width="0.0283" stroke-miterlimit="10" d="M1456.855,686.1
		c-2.584,0-4.678,2.094-4.678,4.678c0,2.582,2.094,4.676,4.678,4.676s4.678-2.094,4.678-4.676
		C1461.533,688.193,1459.439,686.1,1456.855,686.1"/>
	<path fill="none" stroke="#0000FF" stroke-width="0.0283" stroke-miterlimit="10" d="M1456.855,671.699
		c-2.584,0-4.678,2.094-4.678,4.678c0,2.582,2.094,4.678,4.678,4.678s4.678-2.096,4.678-4.678
		C1461.533,673.793,1459.439,671.699,1456.855,671.699"/>
	<path fill="none" stroke="#0000FF" stroke-width="0.0283" stroke-miterlimit="10" d="M1456.855,657.299
		c-2.584,0-4.678,2.094-4.678,4.678s2.094,4.678,4.678,4.678s4.678-2.094,4.678-4.678S1459.439,657.299,1456.855,657.299"/>
	<path fill="none" stroke="#0000FF" stroke-width="0.0283" stroke-miterlimit="10" d="M1456.855,642.898
		c-2.584,0-4.678,2.096-4.678,4.678c0,2.584,2.094,4.678,4.678,4.678s4.678-2.094,4.678-4.678
		C1461.533,644.994,1459.439,642.898,1456.855,642.898"/>
	<path fill="none" stroke="#0000FF" stroke-width="0.0283" stroke-miterlimit="10" d="M1456.855,628.5
		c-2.584,0-4.678,2.094-4.678,4.676c0,2.584,2.094,4.678,4.678,4.678s4.678-2.094,4.678-4.678
		C1461.533,630.594,1459.439,628.5,1456.855,628.5"/>
	<path fill="none" stroke="#0000FF" stroke-width="0.0283" stroke-miterlimit="10" d="M1456.855,614.1
		c-2.584,0-4.678,2.094-4.678,4.678c0,2.582,2.094,4.676,4.678,4.676s4.678-2.094,4.678-4.676
		C1461.533,616.193,1459.439,614.1,1456.855,614.1"/>
	<path fill="none" stroke="#0000FF" stroke-width="0.0283" stroke-miterlimit="10" d="M1456.855,599.699
		c-2.584,0-4.678,2.094-4.678,4.678c0,2.582,2.094,4.678,4.678,4.678s4.678-2.096,4.678-4.678
		C1461.533,601.793,1459.439,599.699,1456.855,599.699"/>
	<path fill="none" stroke="#0000FF" stroke-width="0.0283" stroke-miterlimit="10" d="M1456.855,887.701
		c-2.584,0-4.678,2.096-4.678,4.678c0,2.584,2.094,4.678,4.678,4.678s4.678-2.094,4.678-4.678
		C1461.533,889.797,1459.439,887.701,1456.855,887.701"/>
	<path fill="none" stroke="#0000FF" stroke-width="0.0283" stroke-miterlimit="10" d="M1456.855,873.303
		c-2.584,0-4.678,2.094-4.678,4.676c0,2.584,2.094,4.678,4.678,4.678s4.678-2.094,4.678-4.678
		C1461.533,875.396,1459.439,873.303,1456.855,873.303"/>
	<path fill="none" stroke="#0000FF" stroke-width="0.0283" stroke-miterlimit="10" d="M1456.855,585.299
		c-2.584,0-4.678,2.094-4.678,4.678s2.094,4.678,4.678,4.678s4.678-2.094,4.678-4.678S1459.439,585.299,1456.855,585.299"/>
	<path fill="none" stroke="#0000FF" stroke-width="0.0283" stroke-miterlimit="10" d="M1456.855,1002.902
		c-2.584,0-4.678,2.094-4.678,4.678c0,2.582,2.094,4.676,4.678,4.676s4.678-2.094,4.678-4.676
		C1461.533,1004.996,1459.439,1002.902,1456.855,1002.902"/>
	<path fill="none" stroke="#0000FF" stroke-width="0.0283" stroke-miterlimit="10" d="M1456.855,542.099
		c-2.584,0-4.678,2.094-4.678,4.678s2.094,4.678,4.678,4.678s4.678-2.094,4.678-4.678S1459.439,542.099,1456.855,542.099"/>
	<path fill="none" stroke="#0000FF" stroke-width="0.0283" stroke-miterlimit="10" d="M1456.855,556.499
		c-2.584,0-4.678,2.094-4.678,4.678c0,2.582,2.094,4.678,4.678,4.678s4.678-2.096,4.678-4.678
		C1461.533,558.593,1459.439,556.499,1456.855,556.499"/>
	<path fill="none" stroke="#0000FF" stroke-width="0.0283" stroke-miterlimit="10" d="M1456.855,570.899
		c-2.584,0-4.678,2.094-4.678,4.677c0,2.584,2.094,4.678,4.678,4.678s4.678-2.094,4.678-4.678
		C1461.533,572.993,1459.439,570.899,1456.855,570.899"/>
	<polyline fill="none" stroke="#0000FF" stroke-width="0.0283" stroke-miterlimit="10" points="1436.73,640.547 1436.73,668.893 
		1445.234,668.893 1445.234,755.803 1436.73,755.803 1436.73,784.15 1445.234,784.15 1445.234,871.119 1436.73,871.119 
		1436.73,899.465 1445.234,899.465 1445.234,993.404 1436.73,993.404 1436.73,1021.752 1445.234,1021.752 1445.234,1037.342 
		1468.479,1037.342 1468.479,502.613 1445.234,502.613 1445.234,518.203 1436.73,518.203 1436.73,546.548 1445.234,546.548 
		1445.234,640.547 1436.73,640.547 	"/>
</g>
<g>
	<path fill="none" stroke="#0000FF" stroke-width="0.0283" stroke-miterlimit="10" d="M1499.975,1012.254
		c2.582,0,4.676-2.094,4.676-4.678c0-2.582-2.094-4.678-4.676-4.678c-2.584,0-4.678,2.096-4.678,4.678
		C1495.297,1010.16,1497.391,1012.254,1499.975,1012.254"/>
	<path fill="none" stroke="#0000FF" stroke-width="0.0283" stroke-miterlimit="10" d="M1499.975,781.854
		c2.582,0,4.676-2.094,4.676-4.678s-2.094-4.678-4.676-4.678c-2.584,0-4.678,2.094-4.678,4.678S1497.391,781.854,1499.975,781.854"
		/>
	<path fill="none" stroke="#0000FF" stroke-width="0.0283" stroke-miterlimit="10" d="M1499.975,551.452
		c2.584,0,4.678-2.094,4.678-4.678c0-2.582-2.094-4.676-4.678-4.676s-4.678,2.094-4.678,4.676
		C1495.297,549.358,1497.391,551.452,1499.975,551.452"/>
	<path fill="none" stroke="#0000FF" stroke-width="0.0283" stroke-miterlimit="10" d="M1499.975,565.853
		c2.584,0,4.678-2.094,4.678-4.678s-2.094-4.678-4.678-4.678s-4.678,2.094-4.678,4.678S1497.391,565.853,1499.975,565.853"/>
	<path fill="none" stroke="#0000FF" stroke-width="0.0283" stroke-miterlimit="10" d="M1499.975,580.252
		c2.584,0,4.678-2.096,4.678-4.678c0-2.583-2.094-4.677-4.678-4.677s-4.678,2.094-4.678,4.677
		C1495.297,578.156,1497.391,580.252,1499.975,580.252"/>
	<path fill="none" stroke="#0000FF" stroke-width="0.0283" stroke-miterlimit="10" d="M1499.975,594.65
		c2.584,0,4.678-2.094,4.678-4.676c0-2.584-2.094-4.678-4.678-4.678s-4.678,2.094-4.678,4.678
		C1495.297,592.557,1497.391,594.65,1499.975,594.65"/>
	<path fill="none" stroke="#0000FF" stroke-width="0.0283" stroke-miterlimit="10" d="M1499.975,609.051
		c2.584,0,4.678-2.094,4.678-4.678c0-2.582-2.094-4.676-4.678-4.676s-4.678,2.094-4.678,4.676
		C1495.297,606.957,1497.391,609.051,1499.975,609.051"/>
	<path fill="none" stroke="#0000FF" stroke-width="0.0283" stroke-miterlimit="10" d="M1499.975,623.451
		c2.584,0,4.678-2.094,4.678-4.678c0-2.582-2.094-4.676-4.678-4.676s-4.678,2.094-4.678,4.676
		C1495.297,621.357,1497.391,623.451,1499.975,623.451"/>
	<path fill="none" stroke="#0000FF" stroke-width="0.0283" stroke-miterlimit="10" d="M1499.975,637.852
		c2.584,0,4.678-2.094,4.678-4.678s-2.094-4.678-4.678-4.678s-4.678,2.094-4.678,4.678S1497.391,637.852,1499.975,637.852"/>
	<path fill="none" stroke="#0000FF" stroke-width="0.0283" stroke-miterlimit="10" d="M1499.975,681.051
		c2.582,0,4.676-2.094,4.676-4.678c0-2.582-2.092-4.676-4.676-4.676s-4.678,2.094-4.678,4.676
		C1495.297,678.957,1497.391,681.051,1499.975,681.051"/>
	<path fill="none" stroke="#0000FF" stroke-width="0.0283" stroke-miterlimit="10" d="M1499.975,695.451
		c2.582,0,4.676-2.094,4.676-4.678c0-2.582-2.094-4.676-4.676-4.676c-2.584,0-4.678,2.094-4.678,4.676
		C1495.297,693.357,1497.391,695.451,1499.975,695.451"/>
	<path fill="none" stroke="#0000FF" stroke-width="0.0283" stroke-miterlimit="10" d="M1499.975,709.852
		c2.582,0,4.676-2.094,4.676-4.678s-2.094-4.678-4.676-4.678c-2.584,0-4.678,2.094-4.678,4.678S1497.391,709.852,1499.975,709.852"
		/>
	<path fill="none" stroke="#0000FF" stroke-width="0.0283" stroke-miterlimit="10" d="M1499.975,724.252
		c2.582,0,4.676-2.096,4.676-4.678c0-2.584-2.094-4.678-4.676-4.678c-2.584,0-4.678,2.094-4.678,4.678
		C1495.297,722.156,1497.391,724.252,1499.975,724.252"/>
	<path fill="none" stroke="#0000FF" stroke-width="0.0283" stroke-miterlimit="10" d="M1499.975,738.65
		c2.582,0,4.676-2.094,4.676-4.676c0-2.584-2.094-4.678-4.676-4.678c-2.584,0-4.678,2.094-4.678,4.678
		C1495.297,736.557,1497.391,738.65,1499.975,738.65"/>
	<path fill="none" stroke="#0000FF" stroke-width="0.0283" stroke-miterlimit="10" d="M1499.975,753.051
		c2.582,0,4.676-2.094,4.676-4.678c0-2.582-2.094-4.676-4.676-4.676c-2.584,0-4.678,2.094-4.678,4.676
		C1495.297,750.957,1497.391,753.051,1499.975,753.051"/>
	<path fill="none" stroke="#0000FF" stroke-width="0.0283" stroke-miterlimit="10" d="M1499.975,767.451
		c2.582,0,4.676-2.094,4.676-4.678c0-2.582-2.094-4.676-4.676-4.676c-2.584,0-4.678,2.094-4.678,4.676
		C1495.297,765.357,1497.391,767.451,1499.975,767.451"/>
	<path fill="none" stroke="#0000FF" stroke-width="0.0283" stroke-miterlimit="10" d="M1499.975,796.254
		c2.582,0,4.676-2.096,4.676-4.678c0-2.584-2.094-4.678-4.676-4.678c-2.584,0-4.678,2.094-4.678,4.678
		C1495.297,794.158,1497.391,796.254,1499.975,796.254"/>
	<path fill="none" stroke="#0000FF" stroke-width="0.0283" stroke-miterlimit="10" d="M1499.975,810.652
		c2.582,0,4.676-2.094,4.676-4.676c0-2.584-2.094-4.678-4.676-4.678c-2.584,0-4.678,2.094-4.678,4.678
		C1495.297,808.559,1497.391,810.652,1499.975,810.652"/>
	<path fill="none" stroke="#0000FF" stroke-width="0.0283" stroke-miterlimit="10" d="M1499.975,825.053
		c2.582,0,4.676-2.094,4.676-4.678c0-2.582-2.094-4.676-4.676-4.676c-2.584,0-4.678,2.094-4.678,4.676
		C1495.297,822.959,1497.391,825.053,1499.975,825.053"/>
	<path fill="none" stroke="#0000FF" stroke-width="0.0283" stroke-miterlimit="10" d="M1499.975,839.453
		c2.582,0,4.676-2.094,4.676-4.678c0-2.582-2.094-4.678-4.676-4.678c-2.584,0-4.678,2.096-4.678,4.678
		C1495.297,837.359,1497.391,839.453,1499.975,839.453"/>
	<path fill="none" stroke="#0000FF" stroke-width="0.0283" stroke-miterlimit="10" d="M1499.975,853.854
		c2.582,0,4.676-2.094,4.676-4.678s-2.094-4.678-4.676-4.678c-2.584,0-4.678,2.094-4.678,4.678S1497.391,853.854,1499.975,853.854"
		/>
	<path fill="none" stroke="#0000FF" stroke-width="0.0283" stroke-miterlimit="10" d="M1499.975,868.254
		c2.582,0,4.676-2.094,4.676-4.678c0-2.582-2.094-4.678-4.676-4.678c-2.584,0-4.678,2.096-4.678,4.678
		C1495.297,866.16,1497.391,868.254,1499.975,868.254"/>
	<path fill="none" stroke="#0000FF" stroke-width="0.0283" stroke-miterlimit="10" d="M1499.975,882.654
		c2.582,0,4.676-2.094,4.676-4.678s-2.094-4.678-4.676-4.678c-2.584,0-4.678,2.094-4.678,4.678S1497.391,882.654,1499.975,882.654"
		/>
	<path fill="none" stroke="#0000FF" stroke-width="0.0283" stroke-miterlimit="10" d="M1499.975,897.055
		c2.582,0,4.676-2.096,4.676-4.678c0-2.584-2.094-4.678-4.676-4.678c-2.584,0-4.678,2.094-4.678,4.678
		C1495.297,894.959,1497.391,897.055,1499.975,897.055"/>
	<path fill="none" stroke="#0000FF" stroke-width="0.0283" stroke-miterlimit="10" d="M1499.975,911.453
		c2.582,0,4.676-2.094,4.676-4.676c0-2.584-2.094-4.678-4.676-4.678c-2.584,0-4.678,2.094-4.678,4.678
		C1495.297,909.359,1497.391,911.453,1499.975,911.453"/>
	<path fill="none" stroke="#0000FF" stroke-width="0.0283" stroke-miterlimit="10" d="M1499.975,925.854
		c2.582,0,4.676-2.094,4.676-4.678c0-2.582-2.094-4.676-4.676-4.676c-2.584,0-4.678,2.094-4.678,4.676
		C1495.297,923.76,1497.391,925.854,1499.975,925.854"/>
	<path fill="none" stroke="#0000FF" stroke-width="0.0283" stroke-miterlimit="10" d="M1499.975,940.254
		c2.582,0,4.676-2.094,4.676-4.678c0-2.582-2.094-4.678-4.676-4.678c-2.584,0-4.678,2.096-4.678,4.678
		C1495.297,938.16,1497.391,940.254,1499.975,940.254"/>
	<path fill="none" stroke="#0000FF" stroke-width="0.0283" stroke-miterlimit="10" d="M1499.975,652.252
		c2.584,0,4.678-2.096,4.678-4.678c0-2.584-2.094-4.678-4.678-4.678s-4.678,2.094-4.678,4.678
		C1495.297,650.156,1497.391,652.252,1499.975,652.252"/>
	<path fill="none" stroke="#0000FF" stroke-width="0.0283" stroke-miterlimit="10" d="M1499.975,666.65
		c2.584,0,4.678-2.094,4.678-4.676c0-2.584-2.094-4.678-4.678-4.678s-4.678,2.094-4.678,4.678
		C1495.297,664.557,1497.391,666.65,1499.975,666.65"/>
	<path fill="none" stroke="#0000FF" stroke-width="0.0283" stroke-miterlimit="10" d="M1499.975,954.654
		c2.582,0,4.676-2.094,4.676-4.678s-2.094-4.678-4.676-4.678c-2.584,0-4.678,2.094-4.678,4.678S1497.391,954.654,1499.975,954.654"
		/>
	<path fill="none" stroke="#0000FF" stroke-width="0.0283" stroke-miterlimit="10" d="M1499.975,537.052
		c2.584,0,4.678-2.094,4.678-4.678c0-2.582-2.094-4.676-4.678-4.676s-4.678,2.094-4.678,4.676
		C1495.297,534.958,1497.391,537.052,1499.975,537.052"/>
	<path fill="none" stroke="#0000FF" stroke-width="0.0283" stroke-miterlimit="10" d="M1499.975,997.854
		c2.582,0,4.676-2.094,4.676-4.678c0-2.582-2.094-4.676-4.676-4.676c-2.584,0-4.678,2.094-4.678,4.676
		C1495.297,995.76,1497.391,997.854,1499.975,997.854"/>
	<path fill="none" stroke="#0000FF" stroke-width="0.0283" stroke-miterlimit="10" d="M1499.975,983.453
		c2.582,0,4.676-2.094,4.676-4.676c0-2.584-2.094-4.678-4.676-4.678c-2.584,0-4.678,2.094-4.678,4.678
		C1495.297,981.359,1497.391,983.453,1499.975,983.453"/>
	<path fill="none" stroke="#0000FF" stroke-width="0.0283" stroke-miterlimit="10" d="M1499.975,969.055
		c2.582,0,4.676-2.096,4.676-4.678c0-2.584-2.094-4.678-4.676-4.678c-2.584,0-4.678,2.094-4.678,4.678
		C1495.297,966.959,1497.391,969.055,1499.975,969.055"/>
	<polyline fill="none" stroke="#0000FF" stroke-width="0.0283" stroke-miterlimit="10" points="1520.1,899.406 1520.1,871.059 
		1511.596,871.061 1511.596,784.15 1520.1,784.15 1520.1,755.801 1511.596,755.801 1511.596,668.834 1520.1,668.834 1520.1,640.488 
		1511.596,640.488 1511.596,546.55 1520.1,546.55 1520.1,518.201 1511.596,518.201 1511.596,502.611 1488.352,502.611 
		1488.35,1037.34 1511.596,1037.34 1511.596,1021.75 1520.1,1021.75 1520.1,993.404 1511.596,993.404 1511.596,899.406 
		1520.1,899.406 	"/>
</g>
<g>
	<path fill="none" stroke="#0000FF" stroke-width="0.0283" stroke-miterlimit="10" d="M482.589,489.721
		c0-4.697-3.807-8.504-8.504-8.504"/>
	
		<line fill="none" stroke="#0000FF" stroke-width="0.0283" stroke-miterlimit="10" x1="482.587" y1="489.722" x2="482.587" y2="1024.453"/>
	
		<line fill="none" stroke="#0000FF" stroke-width="0.0283" stroke-miterlimit="10" x1="474.084" y1="1032.955" x2="69.577" y2="1032.955"/>
	
		<line fill="none" stroke="#0000FF" stroke-width="0.0283" stroke-miterlimit="10" x1="61.074" y1="1024.453" x2="61.074" y2="489.722"/>
	<polyline fill="none" stroke="#0000FF" stroke-width="0.0283" stroke-miterlimit="10" points="370.76,1015.664 370.76,1024.734 
		399.674,1024.734 399.674,1015.664 370.76,1015.664 	"/>
	<polyline fill="none" stroke="#0000FF" stroke-width="0.0283" stroke-miterlimit="10" points="257.373,1015.664 257.373,1024.734 
		286.288,1024.734 286.288,1015.664 257.373,1015.664 	"/>
	<polyline fill="none" stroke="#0000FF" stroke-width="0.0283" stroke-miterlimit="10" points="465.296,944.799 465.296,973.713 
		474.367,973.713 474.367,944.799 465.296,944.799 	"/>
	<polyline fill="none" stroke="#0000FF" stroke-width="0.0283" stroke-miterlimit="10" points="465.296,540.462 465.296,569.377 
		474.367,569.377 474.367,540.462 465.296,540.462 	"/>
	<polyline fill="none" stroke="#0000FF" stroke-width="0.0283" stroke-miterlimit="10" points="465.296,742.629 465.296,771.545 
		474.367,771.545 474.367,742.629 465.296,742.629 	"/>
	<polyline fill="none" stroke="#0000FF" stroke-width="0.0283" stroke-miterlimit="10" points="143.987,1015.664 143.987,1024.734 
		172.901,1024.734 172.901,1015.664 143.987,1015.664 	"/>
	<polyline fill="none" stroke="#0000FF" stroke-width="0.0283" stroke-miterlimit="10" points="78.365,944.799 69.294,944.799 
		69.294,973.713 78.365,973.713 78.365,944.799 	"/>
	<polyline fill="none" stroke="#0000FF" stroke-width="0.0283" stroke-miterlimit="10" points="78.365,742.629 69.294,742.629 
		69.294,771.545 	"/>
	<path fill="none" stroke="#0000FF" stroke-width="0.0283" stroke-miterlimit="10" d="M474.085,1032.955
		c4.697,0,8.504-3.807,8.504-8.504"/>
	
		<line fill="none" stroke="#0000FF" stroke-width="0.0283" stroke-miterlimit="10" x1="69.294" y1="771.545" x2="78.365" y2="771.545"/>
	<path fill="none" stroke="#0000FF" stroke-width="0.0283" stroke-miterlimit="10" d="M61.074,1024.451
		c0,4.697,3.807,8.504,8.504,8.504"/>
	
		<line fill="none" stroke="#0000FF" stroke-width="0.0283" stroke-miterlimit="10" x1="78.365" y1="771.545" x2="78.365" y2="742.629"/>
	<path fill="none" stroke="#0000FF" stroke-width="0.0283" stroke-miterlimit="10" d="M69.578,481.217
		c-4.697,0-8.504,3.808-8.504,8.504"/>
	<polyline fill="none" stroke="#0000FF" stroke-width="0.0283" stroke-miterlimit="10" points="78.365,540.462 69.294,540.462 
		69.294,569.377 78.365,569.377 78.365,540.462 	"/>
	<polyline fill="none" stroke="#0000FF" stroke-width="0.0283" stroke-miterlimit="10" points="172.901,489.439 143.987,489.439 
		143.987,498.51 172.901,498.51 172.901,489.439 	"/>
	<polyline fill="none" stroke="#0000FF" stroke-width="0.0283" stroke-miterlimit="10" points="286.288,489.439 257.373,489.439 
		257.373,498.51 286.288,498.51 286.288,489.439 	"/>
	<polyline fill="none" stroke="#0000FF" stroke-width="0.0283" stroke-miterlimit="10" points="399.674,489.439 370.76,489.439 
		370.76,498.51 399.674,498.51 399.674,489.439 	"/>
	
		<line fill="none" stroke="#0000FF" stroke-width="0.0283" stroke-miterlimit="10" x1="69.577" y1="481.219" x2="474.084" y2="481.219"/>
</g>
<g>
	<polyline fill="none" stroke="#0000FF" stroke-width="0.0283" stroke-miterlimit="10" points="973.649,796.03 973.65,969.852 
		965.146,969.852 965.146,998.197 973.65,998.197 973.65,1040.717 1016.169,1040.716 1016.169,1049.221 1044.516,1049.221 
		1044.517,1040.717 1101.208,1040.717 1101.207,1049.221 1129.555,1049.221 1129.555,1040.716 1149.396,1040.716 1149.396,1049.221 
		1157.902,1049.221 1157.902,1040.716 1174.908,1040.717 1174.909,522.994 1157.902,522.995 1157.902,514.491 1149.396,514.491 
		1149.396,522.995 1129.555,522.995 1129.555,514.491 1101.206,514.492 1101.207,522.994 1044.516,522.994 1044.515,514.492 
		1016.168,514.492 1016.168,522.995 	"/>
	<polyline fill="none" stroke="#0000FF" stroke-width="0.0283" stroke-miterlimit="10" points="1158.186,1005 1149.116,1004.999 
		1149.116,1033.913 1158.186,1033.914 1158.186,1005 	"/>
	<polyline fill="none" stroke="#0000FF" stroke-width="0.0283" stroke-miterlimit="10" points="1158.186,529.8 1149.115,529.8 
		1149.115,558.712 1158.186,558.712 1158.186,529.8 	"/>
	<polyline fill="none" stroke="#0000FF" stroke-width="0.0283" stroke-miterlimit="10" points="1158.186,652.085 1149.116,652.085 
		1149.116,680.999 1158.186,681 1158.186,652.085 	"/>
	<polyline fill="none" stroke="#0000FF" stroke-width="0.0283" stroke-miterlimit="10" points="1149.116,796.314 1158.186,796.313 
		1158.186,767.399 1149.116,767.4 1149.116,796.314 	"/>
	<polyline fill="none" stroke="#0000FF" stroke-width="0.0283" stroke-miterlimit="10" points="1158.186,882.658 1149.116,882.657 
		1149.116,911.57 1158.186,911.569 1158.186,882.658 	"/>
	<polyline fill="none" stroke="#0000FF" stroke-width="0.0283" stroke-miterlimit="10" points="973.649,796.03 965.146,796.03 
		965.146,767.684 973.649,767.683 973.649,593.86 965.145,593.86 965.145,565.515 973.648,565.515 973.648,522.994 
		1016.168,522.995 	"/>
</g>
<g>
	<polyline fill="none" stroke="#0000FF" stroke-width="0.0283" stroke-miterlimit="10" points="1388.293,767.681 1388.293,593.861 
		1396.795,593.861 1396.795,565.515 1388.293,565.515 1388.293,522.995 1345.774,522.996 1345.773,514.491 1317.426,514.491 
		1317.427,522.995 1260.732,522.996 1260.733,514.491 1232.387,514.492 1232.388,522.995 1212.543,522.996 1212.543,514.491 
		1204.039,514.492 1204.039,522.995 1187.033,522.996 1187.034,1040.716 1204.039,1040.717 1204.039,1049.22 1212.543,1049.221 
		1212.543,1040.716 1232.388,1040.717 1232.387,1049.221 1260.733,1049.221 1260.732,1040.717 1317.427,1040.717 1317.426,1049.221 
		1345.773,1049.221 1345.774,1040.717 	"/>
	<polyline fill="none" stroke="#0000FF" stroke-width="0.0283" stroke-miterlimit="10" points="1203.756,558.712 1212.826,558.712 
		1212.827,529.799 1203.756,529.799 1203.756,558.712 	"/>
	<polyline fill="none" stroke="#0000FF" stroke-width="0.0283" stroke-miterlimit="10" points="1203.757,1033.912 
		1212.826,1033.911 1212.826,1005 1203.757,1004.999 1203.757,1033.912 	"/>
	<polyline fill="none" stroke="#0000FF" stroke-width="0.0283" stroke-miterlimit="10" points="1203.757,911.627 1212.826,911.626 
		1212.826,882.712 1203.757,882.713 1203.757,911.627 	"/>
	<polyline fill="none" stroke="#0000FF" stroke-width="0.0283" stroke-miterlimit="10" points="1212.826,767.398 1203.757,767.397 
		1203.757,796.312 1212.826,796.313 1212.826,767.398 	"/>
	<polyline fill="none" stroke="#0000FF" stroke-width="0.0283" stroke-miterlimit="10" points="1203.757,681.055 1212.826,681.054 
		1212.826,652.142 1203.757,652.142 1203.757,681.055 	"/>
	<polyline fill="none" stroke="#0000FF" stroke-width="0.0283" stroke-miterlimit="10" points="1388.293,767.681 1396.796,767.682 
		1396.795,796.028 1388.293,796.028 1388.293,969.852 1396.795,969.852 1396.796,998.197 1388.294,998.197 1388.293,1040.717 
		1345.774,1040.717 	"/>
</g>
<g>
	<polyline fill="none" stroke="#0000FF" stroke-width="0.0283" stroke-miterlimit="10" points="1226.64,29.232 1052.819,29.233 
		1052.819,20.729 1024.474,20.729 1024.474,29.233 981.954,29.233 981.954,71.753 973.45,71.753 973.45,100.1 981.954,100.1 
		981.954,156.791 973.45,156.791 973.45,185.139 981.954,185.139 981.954,204.98 973.45,204.98 973.45,213.486 981.954,213.486 
		981.954,230.492 1499.676,230.492 1499.676,213.486 1508.179,213.486 1508.179,204.98 1499.676,204.98 1499.676,185.139 
		1508.179,185.139 1508.179,156.79 1499.676,156.79 1499.676,100.099 1508.179,100.099 1508.179,71.752 1499.676,71.752 	"/>
	<polyline fill="none" stroke="#0000FF" stroke-width="0.0283" stroke-miterlimit="10" points="1017.671,213.77 1017.671,204.699 
		988.757,204.699 988.757,213.77 1017.671,213.77 	"/>
	<polyline fill="none" stroke="#0000FF" stroke-width="0.0283" stroke-miterlimit="10" points="1492.871,213.77 1492.871,204.699 
		1463.959,204.699 1463.959,213.77 1492.871,213.77 	"/>
	<polyline fill="none" stroke="#0000FF" stroke-width="0.0283" stroke-miterlimit="10" points="1370.586,213.77 1370.586,204.699 
		1341.671,204.699 1341.671,213.77 1370.586,213.77 	"/>
	<polyline fill="none" stroke="#0000FF" stroke-width="0.0283" stroke-miterlimit="10" points="1226.356,204.699 1226.356,213.77 
		1255.271,213.77 1255.271,204.699 1226.356,204.699 	"/>
	<polyline fill="none" stroke="#0000FF" stroke-width="0.0283" stroke-miterlimit="10" points="1140.013,213.77 1140.013,204.699 
		1111.101,204.699 1111.101,213.77 1140.013,213.77 	"/>
	<polyline fill="none" stroke="#0000FF" stroke-width="0.0283" stroke-miterlimit="10" points="1226.64,29.232 1226.64,20.729 
		1254.987,20.729 1254.987,29.232 1428.811,29.232 1428.811,20.729 1457.156,20.729 1457.156,29.232 1499.676,29.232 
		1499.676,71.752 	"/>
</g>
<g>
	<polyline fill="none" stroke="#0000FF" stroke-width="0.0283" stroke-miterlimit="10" points="1254.989,443.877 1428.811,443.877 
		1428.811,452.379 1457.156,452.379 1457.156,443.877 1499.675,443.877 1499.675,401.357 1508.179,401.357 1508.179,373.01 
		1499.675,373.01 1499.675,316.316 1508.179,316.316 1508.179,287.971 1499.675,287.971 1499.675,268.127 1508.179,268.127 
		1508.179,259.623 1499.675,259.623 1499.675,242.617 981.954,242.617 981.954,259.623 973.45,259.623 973.45,268.127 
		981.954,268.127 981.954,287.971 973.45,287.971 973.45,316.316 981.954,316.316 981.954,373.01 973.45,373.01 973.45,401.357 
		981.954,401.357 	"/>
	<polyline fill="none" stroke="#0000FF" stroke-width="0.0283" stroke-miterlimit="10" points="1463.959,259.34 1463.959,268.41 
		1492.872,268.41 1492.872,259.34 1463.959,259.34 	"/>
	<polyline fill="none" stroke="#0000FF" stroke-width="0.0283" stroke-miterlimit="10" points="988.759,259.34 988.759,268.41 
		1017.671,268.41 1017.671,259.34 988.759,259.34 	"/>
	<polyline fill="none" stroke="#0000FF" stroke-width="0.0283" stroke-miterlimit="10" points="1111.044,259.34 1111.044,268.41 
		1139.958,268.41 1139.958,259.34 1111.044,259.34 	"/>
	<polyline fill="none" stroke="#0000FF" stroke-width="0.0283" stroke-miterlimit="10" points="1255.272,268.41 1255.272,259.34 
		1226.358,259.34 1226.358,268.41 1255.272,268.41 	"/>
	<polyline fill="none" stroke="#0000FF" stroke-width="0.0283" stroke-miterlimit="10" points="1341.616,259.34 1341.616,268.41 
		1370.529,268.41 1370.529,259.34 1341.616,259.34 	"/>
	<polyline fill="none" stroke="#0000FF" stroke-width="0.0283" stroke-miterlimit="10" points="1254.989,443.877 1254.989,452.379 
		1226.642,452.379 1226.642,443.877 1052.819,443.877 1052.819,452.379 1024.474,452.379 1024.474,443.877 981.954,443.877 
		981.954,401.357 	"/>
</g>
<g>
	<polyline fill="none" stroke="#0000FF" stroke-width="0.0283" stroke-miterlimit="10" points="69.297,385.152 78.368,385.152 
		78.368,414.065 	"/>
	<polyline fill="none" stroke="#0000FF" stroke-width="0.0283" stroke-miterlimit="10" points="69.297,300.111 78.368,300.111 
		78.368,329.024 	"/>
	<polyline fill="none" stroke="#0000FF" stroke-width="0.0283" stroke-miterlimit="10" points="101.611,280.837 101.611,271.765 
		69.297,271.765 	"/>
	<polyline fill="none" stroke="#0000FF" stroke-width="0.0283" stroke-miterlimit="10" points="474.368,329.026 465.297,329.026 
		465.297,299.545 465.582,299.545 465.582,299.545 	"/>
	<polyline fill="none" stroke="#0000FF" stroke-width="0.0283" stroke-miterlimit="10" points="474.368,280.838 442.054,280.838 
		442.054,280.553 442.054,280.553 442.054,272.05 442.054,272.05 442.054,271.766 	"/>
	<polyline fill="none" stroke="#0000FF" stroke-width="0.0283" stroke-miterlimit="10" points="465.297,385.154 465.297,414.067 
		474.368,414.067 	"/>
	<path fill="none" stroke="#0000FF" stroke-width="0.0283" stroke-miterlimit="10" d="M69.58,255.041
		c-4.697,0-8.505,3.807-8.505,8.504"/>
	
		<line fill="none" stroke="#0000FF" stroke-width="0.0283" stroke-miterlimit="10" x1="399.392" y1="456.304" x2="399.392" y2="464.807"/>
	<path fill="none" stroke="#0000FF" stroke-width="0.0283" stroke-miterlimit="10" d="M482.588,263.544
		c0-4.696-3.808-8.504-8.505-8.504"/>
	<polyline fill="none" stroke="#0000FF" stroke-width="0.0283" stroke-miterlimit="10" points="399.392,464.807 371.045,464.807 
		371.045,456.304 286.006,456.304 286.006,464.806 257.659,464.806 257.659,456.304 172.619,456.303 172.619,464.806 
		144.273,464.806 144.273,456.303 61.077,456.303 	"/>
	
		<line fill="none" stroke="#0000FF" stroke-width="0.0283" stroke-miterlimit="10" x1="78.368" y1="414.065" x2="69.297" y2="414.065"/>
	
		<line fill="none" stroke="#0000FF" stroke-width="0.0283" stroke-miterlimit="10" x1="78.368" y1="329.024" x2="69.297" y2="329.024"/>
	<polyline fill="none" stroke="#0000FF" stroke-width="0.0283" stroke-miterlimit="10" points="101.611,280.837 69.297,280.837 
		69.297,271.765 	"/>
	
		<line fill="none" stroke="#0000FF" stroke-width="0.0283" stroke-miterlimit="10" x1="69.297" y1="300.111" x2="69.297" y2="329.024"/>
	
		<line fill="none" stroke="#0000FF" stroke-width="0.0283" stroke-miterlimit="10" x1="69.297" y1="385.152" x2="69.297" y2="414.065"/>
	
		<line fill="none" stroke="#0000FF" stroke-width="0.0283" stroke-miterlimit="10" x1="482.588" y1="263.545" x2="482.588" y2="456.304"/>
	
		<line fill="none" stroke="#0000FF" stroke-width="0.0283" stroke-miterlimit="10" x1="465.297" y1="385.154" x2="474.368" y2="385.154"/>
	
		<line fill="none" stroke="#0000FF" stroke-width="0.0283" stroke-miterlimit="10" x1="442.054" y1="271.766" x2="474.368" y2="271.766"/>
	
		<line fill="none" stroke="#0000FF" stroke-width="0.0283" stroke-miterlimit="10" x1="465.582" y1="299.541" x2="474.368" y2="299.541"/>
	
		<line fill="none" stroke="#0000FF" stroke-width="0.0283" stroke-miterlimit="10" x1="399.392" y1="456.304" x2="482.588" y2="456.304"/>
	
		<line fill="none" stroke="#0000FF" stroke-width="0.0283" stroke-miterlimit="10" x1="474.368" y1="385.154" x2="474.368" y2="414.067"/>
	
		<line fill="none" stroke="#0000FF" stroke-width="0.0283" stroke-miterlimit="10" x1="474.368" y1="271.766" x2="474.368" y2="280.838"/>
	
		<line fill="none" stroke="#0000FF" stroke-width="0.0283" stroke-miterlimit="10" x1="474.368" y1="300.113" x2="474.368" y2="329.026"/>
	
		<line fill="none" stroke="#0000FF" stroke-width="0.0283" stroke-miterlimit="10" x1="61.077" y1="456.303" x2="61.077" y2="263.545"/>
	
		<line fill="none" stroke="#0000FF" stroke-width="0.0283" stroke-miterlimit="10" x1="474.085" y1="255.042" x2="69.58" y2="255.042"/>
</g>
<g>
	<polyline fill="none" stroke="#0000FF" stroke-width="0.0283" stroke-miterlimit="10" points="474.366,106.442 465.295,106.442 
		465.295,77.528 	"/>
	<polyline fill="none" stroke="#0000FF" stroke-width="0.0283" stroke-miterlimit="10" points="474.366,191.483 465.295,191.483 
		465.295,162.569 	"/>
	<polyline fill="none" stroke="#0000FF" stroke-width="0.0283" stroke-miterlimit="10" points="442.053,210.757 442.053,219.829 
		474.366,219.829 	"/>
	<polyline fill="none" stroke="#0000FF" stroke-width="0.0283" stroke-miterlimit="10" points="69.295,162.568 78.366,162.568 
		78.366,192.049 78.082,192.049 78.082,192.049 	"/>
	<polyline fill="none" stroke="#0000FF" stroke-width="0.0283" stroke-miterlimit="10" points="69.295,210.756 101.609,210.756 
		101.609,211.041 101.609,211.041 101.609,219.544 101.609,219.544 101.609,219.828 	"/>
	<polyline fill="none" stroke="#0000FF" stroke-width="0.0283" stroke-miterlimit="10" points="78.366,106.44 78.366,77.527 
		69.295,77.527 	"/>
	<path fill="none" stroke="#0000FF" stroke-width="0.0283" stroke-miterlimit="10" d="M474.084,236.554
		c4.697,0,8.504-3.807,8.504-8.504"/>
	
		<line fill="none" stroke="#0000FF" stroke-width="0.0283" stroke-miterlimit="10" x1="144.271" y1="35.29" x2="144.271" y2="26.787"/>
	<path fill="none" stroke="#0000FF" stroke-width="0.0283" stroke-miterlimit="10" d="M61.075,228.05
		c0,4.696,3.808,8.504,8.505,8.504"/>
	<polyline fill="none" stroke="#0000FF" stroke-width="0.0283" stroke-miterlimit="10" points="144.271,26.787 172.618,26.787 
		172.618,35.29 257.657,35.29 257.657,26.788 286.004,26.788 286.004,35.29 371.045,35.292 371.045,26.788 399.391,26.788 
		399.391,35.292 482.586,35.292 	"/>
	
		<line fill="none" stroke="#0000FF" stroke-width="0.0283" stroke-miterlimit="10" x1="465.295" y1="77.528" x2="474.366" y2="77.528"/>
	
		<line fill="none" stroke="#0000FF" stroke-width="0.0283" stroke-miterlimit="10" x1="465.295" y1="162.569" x2="474.366" y2="162.569"/>
	<polyline fill="none" stroke="#0000FF" stroke-width="0.0283" stroke-miterlimit="10" points="442.053,210.757 474.366,210.757 
		474.366,219.829 	"/>
	
		<line fill="none" stroke="#0000FF" stroke-width="0.0283" stroke-miterlimit="10" x1="474.366" y1="191.483" x2="474.366" y2="162.569"/>
	
		<line fill="none" stroke="#0000FF" stroke-width="0.0283" stroke-miterlimit="10" x1="474.366" y1="106.442" x2="474.366" y2="77.528"/>
	
		<line fill="none" stroke="#0000FF" stroke-width="0.0283" stroke-miterlimit="10" x1="61.075" y1="228.049" x2="61.075" y2="35.29"/>
	
		<line fill="none" stroke="#0000FF" stroke-width="0.0283" stroke-miterlimit="10" x1="78.366" y1="106.44" x2="69.295" y2="106.44"/>
	
		<line fill="none" stroke="#0000FF" stroke-width="0.0283" stroke-miterlimit="10" x1="101.609" y1="219.828" x2="69.295" y2="219.828"/>
	
		<line fill="none" stroke="#0000FF" stroke-width="0.0283" stroke-miterlimit="10" x1="78.082" y1="192.054" x2="69.295" y2="192.054"/>
	
		<line fill="none" stroke="#0000FF" stroke-width="0.0283" stroke-miterlimit="10" x1="144.271" y1="35.29" x2="61.075" y2="35.29"/>
	
		<line fill="none" stroke="#0000FF" stroke-width="0.0283" stroke-miterlimit="10" x1="69.295" y1="106.44" x2="69.295" y2="77.527"/>
	
		<line fill="none" stroke="#0000FF" stroke-width="0.0283" stroke-miterlimit="10" x1="69.295" y1="219.828" x2="69.295" y2="210.756"/>
	
		<line fill="none" stroke="#0000FF" stroke-width="0.0283" stroke-miterlimit="10" x1="69.295" y1="191.481" x2="69.295" y2="162.568"/>
	
		<line fill="none" stroke="#0000FF" stroke-width="0.0283" stroke-miterlimit="10" x1="482.586" y1="35.292" x2="482.586" y2="228.049"/>
	
		<line fill="none" stroke="#0000FF" stroke-width="0.0283" stroke-miterlimit="10" x1="69.578" y1="236.552" x2="474.084" y2="236.552"/>
</g>
<g>
	<path fill="none" stroke="#0000FF" stroke-width="0.0283" stroke-miterlimit="10" d="M932.235,489.721
		c0-4.697-3.807-8.504-8.504-8.504"/>
	
		<line fill="none" stroke="#0000FF" stroke-width="0.0283" stroke-miterlimit="10" x1="932.234" y1="489.722" x2="932.234" y2="1024.453"/>
	
		<line fill="none" stroke="#0000FF" stroke-width="0.0283" stroke-miterlimit="10" x1="923.73" y1="1032.955" x2="519.224" y2="1032.955"/>
	
		<line fill="none" stroke="#0000FF" stroke-width="0.0283" stroke-miterlimit="10" x1="510.721" y1="1024.453" x2="510.721" y2="489.722"/>
	<polyline fill="none" stroke="#0000FF" stroke-width="0.0283" stroke-miterlimit="10" points="820.407,1015.664 820.407,1024.734 
		849.32,1024.734 849.32,1015.664 820.407,1015.664 	"/>
	<polyline fill="none" stroke="#0000FF" stroke-width="0.0283" stroke-miterlimit="10" points="707.02,1015.664 707.02,1024.734 
		735.935,1024.734 735.935,1015.664 707.02,1015.664 	"/>
	<polyline fill="none" stroke="#0000FF" stroke-width="0.0283" stroke-miterlimit="10" points="914.943,944.799 914.943,973.713 
		924.013,973.713 924.013,944.799 914.943,944.799 	"/>
	<polyline fill="none" stroke="#0000FF" stroke-width="0.0283" stroke-miterlimit="10" points="914.943,540.462 914.943,569.377 
		924.013,569.377 924.013,540.462 914.943,540.462 	"/>
	<polyline fill="none" stroke="#0000FF" stroke-width="0.0283" stroke-miterlimit="10" points="914.943,742.629 914.943,771.545 
		924.013,771.545 924.013,742.629 914.943,742.629 	"/>
	<polyline fill="none" stroke="#0000FF" stroke-width="0.0283" stroke-miterlimit="10" points="593.634,1015.664 593.634,1024.734 
		622.547,1024.734 622.547,1015.664 593.634,1015.664 	"/>
	<polyline fill="none" stroke="#0000FF" stroke-width="0.0283" stroke-miterlimit="10" points="528.011,944.799 518.941,944.799 
		518.941,973.713 528.011,973.713 528.011,944.799 	"/>
	<polyline fill="none" stroke="#0000FF" stroke-width="0.0283" stroke-miterlimit="10" points="528.011,742.629 518.941,742.629 
		518.941,771.545 	"/>
	<path fill="none" stroke="#0000FF" stroke-width="0.0283" stroke-miterlimit="10" d="M923.731,1032.955
		c4.697,0,8.504-3.807,8.504-8.504"/>
	
		<line fill="none" stroke="#0000FF" stroke-width="0.0283" stroke-miterlimit="10" x1="518.941" y1="771.545" x2="528.011" y2="771.545"/>
	<path fill="none" stroke="#0000FF" stroke-width="0.0283" stroke-miterlimit="10" d="M510.721,1024.451
		c0,4.697,3.807,8.504,8.504,8.504"/>
	
		<line fill="none" stroke="#0000FF" stroke-width="0.0283" stroke-miterlimit="10" x1="528.011" y1="771.545" x2="528.011" y2="742.629"/>
	<path fill="none" stroke="#0000FF" stroke-width="0.0283" stroke-miterlimit="10" d="M519.225,481.217
		c-4.697,0-8.504,3.808-8.504,8.504"/>
	<polyline fill="none" stroke="#0000FF" stroke-width="0.0283" stroke-miterlimit="10" points="528.011,540.462 518.941,540.462 
		518.941,569.377 528.011,569.377 528.011,540.462 	"/>
	<polyline fill="none" stroke="#0000FF" stroke-width="0.0283" stroke-miterlimit="10" points="622.547,489.439 593.634,489.439 
		593.634,498.51 622.547,498.51 622.547,489.439 	"/>
	<polyline fill="none" stroke="#0000FF" stroke-width="0.0283" stroke-miterlimit="10" points="735.935,489.439 707.02,489.439 
		707.02,498.51 735.935,498.51 735.935,489.439 	"/>
	<polyline fill="none" stroke="#0000FF" stroke-width="0.0283" stroke-miterlimit="10" points="849.32,489.439 820.407,489.439 
		820.407,498.51 849.32,498.51 849.32,489.439 	"/>
	
		<line fill="none" stroke="#0000FF" stroke-width="0.0283" stroke-miterlimit="10" x1="519.224" y1="481.219" x2="923.73" y2="481.219"/>
</g>
<g>
	<polyline fill="none" stroke="#0000FF" stroke-width="0.0283" stroke-miterlimit="10" points="518.944,385.152 528.014,385.152 
		528.014,414.065 	"/>
	<polyline fill="none" stroke="#0000FF" stroke-width="0.0283" stroke-miterlimit="10" points="518.944,300.111 528.014,300.111 
		528.014,329.024 	"/>
	<polyline fill="none" stroke="#0000FF" stroke-width="0.0283" stroke-miterlimit="10" points="551.257,280.837 551.257,271.765 
		518.944,271.765 	"/>
	<polyline fill="none" stroke="#0000FF" stroke-width="0.0283" stroke-miterlimit="10" points="924.014,329.026 914.944,329.026 
		914.944,299.545 915.228,299.545 915.228,299.545 	"/>
	<polyline fill="none" stroke="#0000FF" stroke-width="0.0283" stroke-miterlimit="10" points="924.014,280.838 891.701,280.838 
		891.701,280.553 891.701,280.553 891.701,272.05 891.701,272.05 891.701,271.766 	"/>
	<polyline fill="none" stroke="#0000FF" stroke-width="0.0283" stroke-miterlimit="10" points="914.944,385.154 914.944,414.067 
		924.014,414.067 	"/>
	<path fill="none" stroke="#0000FF" stroke-width="0.0283" stroke-miterlimit="10" d="M519.226,255.041
		c-4.697,0-8.505,3.807-8.505,8.504"/>
	
		<line fill="none" stroke="#0000FF" stroke-width="0.0283" stroke-miterlimit="10" x1="849.039" y1="456.304" x2="849.039" y2="464.807"/>
	<path fill="none" stroke="#0000FF" stroke-width="0.0283" stroke-miterlimit="10" d="M932.235,263.544
		c0-4.696-3.808-8.504-8.505-8.504"/>
	<polyline fill="none" stroke="#0000FF" stroke-width="0.0283" stroke-miterlimit="10" points="849.039,464.807 820.692,464.807 
		820.692,456.304 735.653,456.304 735.653,464.806 707.305,464.806 707.305,456.304 622.265,456.303 622.265,464.806 
		593.919,464.806 593.919,456.303 510.723,456.303 	"/>
	
		<line fill="none" stroke="#0000FF" stroke-width="0.0283" stroke-miterlimit="10" x1="528.014" y1="414.065" x2="518.944" y2="414.065"/>
	
		<line fill="none" stroke="#0000FF" stroke-width="0.0283" stroke-miterlimit="10" x1="528.014" y1="329.024" x2="518.944" y2="329.024"/>
	<polyline fill="none" stroke="#0000FF" stroke-width="0.0283" stroke-miterlimit="10" points="551.257,280.837 518.944,280.837 
		518.944,271.765 	"/>
	
		<line fill="none" stroke="#0000FF" stroke-width="0.0283" stroke-miterlimit="10" x1="518.944" y1="300.111" x2="518.944" y2="329.024"/>
	
		<line fill="none" stroke="#0000FF" stroke-width="0.0283" stroke-miterlimit="10" x1="518.944" y1="385.152" x2="518.944" y2="414.065"/>
	
		<line fill="none" stroke="#0000FF" stroke-width="0.0283" stroke-miterlimit="10" x1="932.235" y1="263.545" x2="932.235" y2="456.304"/>
	
		<line fill="none" stroke="#0000FF" stroke-width="0.0283" stroke-miterlimit="10" x1="914.944" y1="385.154" x2="924.014" y2="385.154"/>
	
		<line fill="none" stroke="#0000FF" stroke-width="0.0283" stroke-miterlimit="10" x1="891.701" y1="271.766" x2="924.014" y2="271.766"/>
	
		<line fill="none" stroke="#0000FF" stroke-width="0.0283" stroke-miterlimit="10" x1="915.228" y1="299.541" x2="924.014" y2="299.541"/>
	
		<line fill="none" stroke="#0000FF" stroke-width="0.0283" stroke-miterlimit="10" x1="849.039" y1="456.304" x2="932.235" y2="456.304"/>
	
		<line fill="none" stroke="#0000FF" stroke-width="0.0283" stroke-miterlimit="10" x1="924.014" y1="385.154" x2="924.014" y2="414.067"/>
	
		<line fill="none" stroke="#0000FF" stroke-width="0.0283" stroke-miterlimit="10" x1="924.014" y1="271.766" x2="924.014" y2="280.838"/>
	
		<line fill="none" stroke="#0000FF" stroke-width="0.0283" stroke-miterlimit="10" x1="924.014" y1="300.113" x2="924.014" y2="329.026"/>
	
		<line fill="none" stroke="#0000FF" stroke-width="0.0283" stroke-miterlimit="10" x1="510.723" y1="456.303" x2="510.723" y2="263.545"/>
	
		<line fill="none" stroke="#0000FF" stroke-width="0.0283" stroke-miterlimit="10" x1="923.732" y1="255.042" x2="519.226" y2="255.042"/>
</g>
<g>
	<polyline fill="none" stroke="#0000FF" stroke-width="0.0283" stroke-miterlimit="10" points="924.012,106.442 914.942,106.442 
		914.942,77.528 	"/>
	<polyline fill="none" stroke="#0000FF" stroke-width="0.0283" stroke-miterlimit="10" points="924.012,191.483 914.942,191.483 
		914.942,162.569 	"/>
	<polyline fill="none" stroke="#0000FF" stroke-width="0.0283" stroke-miterlimit="10" points="891.7,210.757 891.7,219.829 
		924.012,219.829 	"/>
	<polyline fill="none" stroke="#0000FF" stroke-width="0.0283" stroke-miterlimit="10" points="518.942,162.568 528.012,162.568 
		528.012,192.049 527.728,192.049 527.728,192.049 	"/>
	<polyline fill="none" stroke="#0000FF" stroke-width="0.0283" stroke-miterlimit="10" points="518.942,210.756 551.255,210.756 
		551.255,211.041 551.255,211.041 551.255,219.544 551.255,219.544 551.255,219.828 	"/>
	<polyline fill="none" stroke="#0000FF" stroke-width="0.0283" stroke-miterlimit="10" points="528.012,106.44 528.012,77.527 
		518.942,77.527 	"/>
	<path fill="none" stroke="#0000FF" stroke-width="0.0283" stroke-miterlimit="10" d="M923.731,236.554
		c4.697,0,8.504-3.807,8.504-8.504"/>
	
		<line fill="none" stroke="#0000FF" stroke-width="0.0283" stroke-miterlimit="10" x1="593.917" y1="35.29" x2="593.917" y2="26.787"/>
	<path fill="none" stroke="#0000FF" stroke-width="0.0283" stroke-miterlimit="10" d="M510.721,228.05
		c0,4.696,3.808,8.504,8.505,8.504"/>
	<polyline fill="none" stroke="#0000FF" stroke-width="0.0283" stroke-miterlimit="10" points="593.917,26.787 622.264,26.787 
		622.264,35.29 707.303,35.29 707.303,26.788 735.651,26.788 735.651,35.29 820.692,35.292 820.692,26.788 849.038,26.788 
		849.038,35.292 932.233,35.292 	"/>
	
		<line fill="none" stroke="#0000FF" stroke-width="0.0283" stroke-miterlimit="10" x1="914.942" y1="77.528" x2="924.012" y2="77.528"/>
	
		<line fill="none" stroke="#0000FF" stroke-width="0.0283" stroke-miterlimit="10" x1="914.942" y1="162.569" x2="924.012" y2="162.569"/>
	<polyline fill="none" stroke="#0000FF" stroke-width="0.0283" stroke-miterlimit="10" points="891.7,210.757 924.012,210.757 
		924.012,219.829 	"/>
	
		<line fill="none" stroke="#0000FF" stroke-width="0.0283" stroke-miterlimit="10" x1="924.012" y1="191.483" x2="924.012" y2="162.569"/>
	
		<line fill="none" stroke="#0000FF" stroke-width="0.0283" stroke-miterlimit="10" x1="924.012" y1="106.442" x2="924.012" y2="77.528"/>
	
		<line fill="none" stroke="#0000FF" stroke-width="0.0283" stroke-miterlimit="10" x1="510.721" y1="228.049" x2="510.721" y2="35.29"/>
	
		<line fill="none" stroke="#0000FF" stroke-width="0.0283" stroke-miterlimit="10" x1="528.012" y1="106.44" x2="518.942" y2="106.44"/>
	
		<line fill="none" stroke="#0000FF" stroke-width="0.0283" stroke-miterlimit="10" x1="551.255" y1="219.828" x2="518.942" y2="219.828"/>
	
		<line fill="none" stroke="#0000FF" stroke-width="0.0283" stroke-miterlimit="10" x1="527.728" y1="192.054" x2="518.942" y2="192.054"/>
	
		<line fill="none" stroke="#0000FF" stroke-width="0.0283" stroke-miterlimit="10" x1="593.917" y1="35.29" x2="510.721" y2="35.29"/>
	
		<line fill="none" stroke="#0000FF" stroke-width="0.0283" stroke-miterlimit="10" x1="518.942" y1="106.44" x2="518.942" y2="77.527"/>
	
		<line fill="none" stroke="#0000FF" stroke-width="0.0283" stroke-miterlimit="10" x1="518.942" y1="219.828" x2="518.942" y2="210.756"/>
	
		<line fill="none" stroke="#0000FF" stroke-width="0.0283" stroke-miterlimit="10" x1="518.942" y1="191.481" x2="518.942" y2="162.568"/>
	
		<line fill="none" stroke="#0000FF" stroke-width="0.0283" stroke-miterlimit="10" x1="932.233" y1="35.292" x2="932.233" y2="228.049"/>
	
		<line fill="none" stroke="#0000FF" stroke-width="0.0283" stroke-miterlimit="10" x1="519.224" y1="236.552" x2="923.731" y2="236.552"/>
</g>
</svg>
