<?xml version="1.0" encoding="utf-8"?>
<!-- Generator: Adobe Illustrator 15.0.0, SVG Export Plug-In . SVG Version: 6.00 Build 0)  -->
<!DOCTYPE svg PUBLIC "-//W3C//DTD SVG 1.1//EN" "http://www.w3.org/Graphics/SVG/1.1/DTD/svg11.dtd">
<svg version="1.1" id="Layer_1" xmlns="http://www.w3.org/2000/svg" xmlns:xlink="http://www.w3.org/1999/xlink" x="0px" y="0px"
	 width="2239.371px" height="1088.504px" viewBox="0 0 2239.371 1088.504" enable-background="new 0 0 2239.371 1088.504"
	 xml:space="preserve">
<g>
	<g>
		<g>
			<circle fill="none" stroke="#0000FF" stroke-width="0.0283" stroke-miterlimit="10" cx="106.771" cy="94.793" r="21.26"/>
		</g>
		<g>
			<circle fill="none" stroke="#0000FF" stroke-width="0.0283" stroke-miterlimit="10" cx="106.771" cy="151.486" r="21.26"/>
		</g>
		<g>
			<circle fill="none" stroke="#0000FF" stroke-width="0.0283" stroke-miterlimit="10" cx="106.771" cy="208.178" r="21.26"/>
		</g>
		<g>
			<circle fill="none" stroke="#0000FF" stroke-width="0.0283" stroke-miterlimit="10" cx="163.464" cy="94.793" r="21.26"/>
		</g>
		<g>
			<circle fill="none" stroke="#0000FF" stroke-width="0.0283" stroke-miterlimit="10" cx="163.464" cy="151.486" r="21.26"/>
		</g>
		<g>
			<circle fill="none" stroke="#0000FF" stroke-width="0.0283" stroke-miterlimit="10" cx="163.464" cy="208.178" r="21.26"/>
		</g>
		<g>
			<circle fill="none" stroke="#0000FF" stroke-width="0.0283" stroke-miterlimit="10" cx="220.157" cy="94.793" r="21.26"/>
		</g>
		<g>
			<circle fill="none" stroke="#0000FF" stroke-width="0.0283" stroke-miterlimit="10" cx="220.157" cy="151.486" r="21.26"/>
		</g>
		<g>
			<circle fill="none" stroke="#0000FF" stroke-width="0.0283" stroke-miterlimit="10" cx="220.157" cy="208.178" r="21.26"/>
		</g>
		<g>
			<circle fill="none" stroke="#0000FF" stroke-width="0.0283" stroke-miterlimit="10" cx="276.85" cy="94.793" r="21.26"/>
		</g>
		<g>
			<circle fill="none" stroke="#0000FF" stroke-width="0.0283" stroke-miterlimit="10" cx="276.85" cy="151.486" r="21.26"/>
		</g>
		<g>
			<circle fill="none" stroke="#0000FF" stroke-width="0.0283" stroke-miterlimit="10" cx="276.85" cy="208.178" r="21.26"/>
		</g>
		<g>
			<circle fill="none" stroke="#0000FF" stroke-width="0.0283" stroke-miterlimit="10" cx="333.543" cy="94.793" r="21.26"/>
		</g>
		<g>
			<circle fill="none" stroke="#0000FF" stroke-width="0.0283" stroke-miterlimit="10" cx="333.543" cy="151.486" r="21.26"/>
		</g>
		<g>
			<circle fill="none" stroke="#0000FF" stroke-width="0.0283" stroke-miterlimit="10" cx="333.543" cy="208.178" r="21.26"/>
		</g>
		<g>
			<circle fill="none" stroke="#0000FF" stroke-width="0.0283" stroke-miterlimit="10" cx="390.236" cy="94.793" r="21.26"/>
		</g>
		<g>
			<circle fill="none" stroke="#0000FF" stroke-width="0.0283" stroke-miterlimit="10" cx="390.236" cy="151.486" r="21.26"/>
		</g>
		<g>
			<circle fill="none" stroke="#0000FF" stroke-width="0.0283" stroke-miterlimit="10" cx="390.236" cy="208.178" r="21.26"/>
		</g>
		<g>
			<circle fill="none" stroke="#0000FF" stroke-width="0.0283" stroke-miterlimit="10" cx="446.929" cy="94.793" r="21.26"/>
		</g>
		<g>
			<circle fill="none" stroke="#0000FF" stroke-width="0.0283" stroke-miterlimit="10" cx="446.929" cy="151.486" r="21.26"/>
		</g>
		<g>
			<circle fill="none" stroke="#0000FF" stroke-width="0.0283" stroke-miterlimit="10" cx="446.929" cy="208.178" r="21.26"/>
		</g>
		<g>
			<circle fill="none" stroke="#0000FF" stroke-width="0.0283" stroke-miterlimit="10" cx="503.622" cy="94.793" r="21.26"/>
		</g>
		<g>
			<circle fill="none" stroke="#0000FF" stroke-width="0.0283" stroke-miterlimit="10" cx="503.622" cy="151.486" r="21.26"/>
		</g>
		<g>
			<circle fill="none" stroke="#0000FF" stroke-width="0.0283" stroke-miterlimit="10" cx="503.622" cy="208.178" r="21.26"/>
		</g>
	</g>
	<g>
		
			<rect x="39.136" y="60.424" fill="none" stroke="#0000FF" stroke-width="0.0283" stroke-miterlimit="10" width="532.122" height="182.127"/>
		<circle fill="none" stroke="#0000FF" stroke-width="0.0283" stroke-miterlimit="10" cx="60.396" cy="234.015" r="4.677"/>
		<circle fill="none" stroke="#0000FF" stroke-width="0.0283" stroke-miterlimit="10" cx="60.396" cy="68.928" r="4.677"/>
		<circle fill="none" stroke="#0000FF" stroke-width="0.0283" stroke-miterlimit="10" cx="549.998" cy="234.015" r="4.678"/>
		<circle fill="none" stroke="#0000FF" stroke-width="0.0283" stroke-miterlimit="10" cx="549.998" cy="68.928" r="4.678"/>
	</g>
</g>
<g>
	<g>
		<g>
			<g>
				<g>
					<circle fill="none" stroke="#0000FF" stroke-width="0.0283" stroke-miterlimit="10" cx="105.77" cy="289.197" r="21.26"/>
					<circle fill="none" stroke="#0000FF" stroke-width="0.0283" stroke-miterlimit="10" cx="162.463" cy="289.197" r="21.26"/>
					<circle fill="none" stroke="#0000FF" stroke-width="0.0283" stroke-miterlimit="10" cx="219.156" cy="289.197" r="21.26"/>
					<circle fill="none" stroke="#0000FF" stroke-width="0.0283" stroke-miterlimit="10" cx="275.849" cy="289.197" r="21.26"/>
					<circle fill="none" stroke="#0000FF" stroke-width="0.0283" stroke-miterlimit="10" cx="332.542" cy="289.197" r="21.26"/>
					<circle fill="none" stroke="#0000FF" stroke-width="0.0283" stroke-miterlimit="10" cx="389.236" cy="289.197" r="21.26"/>
					<circle fill="none" stroke="#0000FF" stroke-width="0.0283" stroke-miterlimit="10" cx="445.928" cy="289.197" r="21.26"/>
					<circle fill="none" stroke="#0000FF" stroke-width="0.0283" stroke-miterlimit="10" cx="502.621" cy="289.197" r="21.26"/>
				</g>
			</g>
			<circle fill="none" stroke="#0000FF" stroke-width="0.0283" stroke-miterlimit="10" cx="133.696" cy="374.236" r="35.433"/>
			<circle fill="none" stroke="#0000FF" stroke-width="0.0283" stroke-miterlimit="10" cx="247.753" cy="374.236" r="35.433"/>
			<circle fill="none" stroke="#0000FF" stroke-width="0.0283" stroke-miterlimit="10" cx="361.139" cy="374.236" r="35.434"/>
			<circle fill="none" stroke="#0000FF" stroke-width="0.0283" stroke-miterlimit="10" cx="473.975" cy="374.236" r="35.434"/>
		</g>
	</g>
	<g>
		<g>
			
				<rect x="39.136" y="254.827" fill="none" stroke="#0000FF" stroke-width="0.0283" stroke-miterlimit="10" width="532.122" height="182.127"/>
			<circle fill="none" stroke="#0000FF" stroke-width="0.0283" stroke-miterlimit="10" cx="60.396" cy="428.419" r="4.677"/>
			<circle fill="none" stroke="#0000FF" stroke-width="0.0283" stroke-miterlimit="10" cx="60.396" cy="263.331" r="4.677"/>
			<circle fill="none" stroke="#0000FF" stroke-width="0.0283" stroke-miterlimit="10" cx="549.998" cy="428.419" r="4.678"/>
			<circle fill="none" stroke="#0000FF" stroke-width="0.0283" stroke-miterlimit="10" cx="549.998" cy="263.331" r="4.678"/>
		</g>
		<circle fill="none" stroke="#0000FF" stroke-width="0.0283" stroke-miterlimit="10" cx="78.708" cy="317.544" r="4.677"/>
		<circle fill="none" stroke="#0000FF" stroke-width="0.0283" stroke-miterlimit="10" cx="78.708" cy="374.237" r="4.677"/>
		<circle fill="none" stroke="#0000FF" stroke-width="0.0283" stroke-miterlimit="10" cx="305.197" cy="317.544" r="4.677"/>
		<circle fill="none" stroke="#0000FF" stroke-width="0.0283" stroke-miterlimit="10" cx="305.197" cy="374.237" r="4.677"/>
		<circle fill="none" stroke="#0000FF" stroke-width="0.0283" stroke-miterlimit="10" cx="531.968" cy="317.544" r="4.677"/>
		<circle fill="none" stroke="#0000FF" stroke-width="0.0283" stroke-miterlimit="10" cx="531.968" cy="374.237" r="4.677"/>
	</g>
</g>
<g>
	<g>
		
			<rect x="1794.93" y="489.484" fill="none" stroke="#0000FF" stroke-width="0.0283" stroke-miterlimit="10" width="91.063" height="532.119"/>
		<circle fill="none" stroke="#0000FF" stroke-width="0.0283" stroke-miterlimit="10" cx="1877.488" cy="510.744" r="4.678"/>
		<circle fill="none" stroke="#0000FF" stroke-width="0.0283" stroke-miterlimit="10" cx="1803.434" cy="510.744" r="4.678"/>
		<circle fill="none" stroke="#0000FF" stroke-width="0.0283" stroke-miterlimit="10" cx="1877.488" cy="1000.345" r="4.678"/>
		<circle fill="none" stroke="#0000FF" stroke-width="0.0283" stroke-miterlimit="10" cx="1803.434" cy="1000.345" r="4.678"/>
	</g>
	<g>
		<g>
			<g id="CIRCLE_45_">
				<path fill="none" stroke="#0000FF" stroke-width="0.0283" stroke-miterlimit="10" d="M1851.734,904.188
					c14.092,0,25.516,11.423,25.516,25.513s-11.424,25.513-25.516,25.513c-14.095,0-25.515-11.423-25.515-25.513
					C1826.223,915.609,1837.645,904.188,1851.734,904.188L1851.734,904.188z"/>
			</g>
			<g id="CIRCLE_44_">
				<path fill="none" stroke="#0000FF" stroke-width="0.0283" stroke-miterlimit="10" d="M1830.51,667.279
					c5.479,0,9.92,4.438,9.92,9.92c0,5.479-4.44,9.922-9.92,9.922c-5.479,0-9.922-4.439-9.922-9.922
					C1820.588,671.719,1825.029,667.279,1830.51,667.279L1830.51,667.279z"/>
			</g>
			<g id="CIRCLE_43_">
				<path fill="none" stroke="#0000FF" stroke-width="0.0283" stroke-miterlimit="10" d="M1851.662,846.66
					c14.09-0.039,25.547,11.354,25.588,25.438c0.041,14.094-11.352,25.547-25.438,25.586c-14.093,0.041-25.546-11.348-25.587-25.438
					C1826.184,858.156,1837.572,846.701,1851.662,846.66L1851.662,846.66z"/>
			</g>
			<g id="CIRCLE_42_">
				<path fill="none" stroke="#0000FF" stroke-width="0.0283" stroke-miterlimit="10" d="M1846.471,555.182
					c12.506,0,22.646,10.14,22.646,22.646c0,12.512-10.146,22.647-22.646,22.647c-12.508,0-22.646-10.146-22.646-22.647
					C1823.822,565.32,1833.963,555.182,1846.471,555.182L1846.471,555.182z"/>
			</g>
			<g id="CIRCLE_41_">
				<path fill="none" stroke="#0000FF" stroke-width="0.0283" stroke-miterlimit="10" d="M1846.471,610.389
					c12.506,0,22.646,10.142,22.646,22.646c0,12.504-10.146,22.647-22.646,22.647c-12.508,0-22.646-10.146-22.646-22.647
					C1823.824,620.531,1833.963,610.389,1846.471,610.389L1846.471,610.389z"/>
			</g>
			<polygon fill="none" stroke="#0000FF" stroke-width="0.0283" stroke-miterlimit="10" points="1823.426,839.578 1823.426,789.02 
				1821.084,789.02 1821.084,762.09 1823.42,762.09 1823.42,724.533 1814.215,724.533 1814.215,690.518 1841.145,690.518 
				1841.145,724.533 1831.924,724.533 1831.924,762.09 1869.271,762.09 1869.271,789.02 1827.248,789.02 1827.248,839.578 			"/>
		</g>
		<circle fill="none" stroke="#0000FF" stroke-width="0.0283" stroke-miterlimit="10" cx="1855.593" cy="974.813" r="4.677"/>
		<circle fill="none" stroke="#0000FF" stroke-width="0.0283" stroke-miterlimit="10" cx="1855.593" cy="538.277" r="4.678"/>
	</g>
</g>
<g>
	<circle fill="none" stroke="#0000FF" stroke-width="0.0283" stroke-miterlimit="10" cx="1927.235" cy="1000.345" r="4.677"/>
	<circle fill="none" stroke="#0000FF" stroke-width="0.0283" stroke-miterlimit="10" cx="1927.235" cy="510.744" r="4.678"/>
	<g>
		<g>
			<g>
				
					<rect x="1918.73" y="489.484" fill="none" stroke="#0000FF" stroke-width="0.0283" stroke-miterlimit="10" width="273.223" height="532.119"/>
				<circle fill="none" stroke="#0000FF" stroke-width="0.0283" stroke-miterlimit="10" cx="2183.417" cy="1000.344" r="4.677"/>
				<circle fill="none" stroke="#0000FF" stroke-width="0.0283" stroke-miterlimit="10" cx="2183.417" cy="510.744" r="4.678"/>
			</g>
		</g>
	</g>
	<g>
		<path fill="none" stroke="#0000FF" stroke-width="0.0283" stroke-miterlimit="10" d="M2053.054,927.519
			c0-19.568,15.862-35.438,35.435-35.438s35.437,15.865,35.437,35.438c0,19.563-15.862,35.434-35.437,35.434
			C2068.917,962.951,2053.054,947.084,2053.054,927.519z"/>
		<path fill="none" stroke="#0000FF" stroke-width="0.0283" stroke-miterlimit="10" d="M2053.161,815.918
			c0-19.57,15.858-35.436,35.435-35.436c19.572,0,35.435,15.864,35.435,35.436c0,19.566-15.861,35.432-35.435,35.432
			C2069.021,851.349,2053.161,835.484,2053.161,815.918z"/>
		<path fill="none" stroke="#0000FF" stroke-width="0.0283" stroke-miterlimit="10" d="M2053.161,704.318
			c0-19.57,15.858-35.438,35.435-35.438c19.572,0,35.435,15.865,35.435,35.438c0,19.563-15.861,35.432-35.435,35.432
			C2069.021,739.75,2053.161,723.885,2053.161,704.318z"/>
		<path fill="none" stroke="#0000FF" stroke-width="0.0283" stroke-miterlimit="10" d="M2053.161,592.719
			c0-19.565,15.858-35.436,35.435-35.436c19.572,0,35.435,15.865,35.435,35.436c0,19.566-15.861,35.435-35.435,35.435
			C2069.021,628.152,2053.161,612.285,2053.161,592.719z"/>
		<circle fill="none" stroke="#0000FF" stroke-width="0.0283" stroke-miterlimit="10" cx="2006.061" cy="563.918" r="11.338"/>
		<circle fill="none" stroke="#0000FF" stroke-width="0.0283" stroke-miterlimit="10" cx="2006.061" cy="619.717" r="11.338"/>
		<path fill="none" stroke="#0000FF" stroke-width="0.0283" stroke-miterlimit="10" d="M1994.722,675.516
			c0-6.262,5.073-11.338,11.339-11.338s11.338,5.076,11.338,11.338c0,6.267-5.072,11.343-11.338,11.343
			C1999.795,686.855,1994.722,681.781,1994.722,675.516z"/>
		<circle fill="none" stroke="#0000FF" stroke-width="0.0283" stroke-miterlimit="10" cx="2006.061" cy="731.191" r="11.338"/>
		<circle fill="none" stroke="#0000FF" stroke-width="0.0283" stroke-miterlimit="10" cx="2006.061" cy="787.117" r="11.338"/>
		<circle fill="none" stroke="#0000FF" stroke-width="0.0283" stroke-miterlimit="10" cx="2006.061" cy="842.916" r="11.338"/>
		<circle fill="none" stroke="#0000FF" stroke-width="0.0283" stroke-miterlimit="10" cx="2006.061" cy="898.716" r="11.338"/>
		<circle fill="none" stroke="#0000FF" stroke-width="0.0283" stroke-miterlimit="10" cx="2006.061" cy="954.517" r="11.338"/>
		
			<rect x="1955.504" y="890.525" fill="none" stroke="#0000FF" stroke-width="0.0283" stroke-miterlimit="10" width="26.47" height="73.98"/>
		
			<rect x="1955.504" y="778.924" fill="none" stroke="#0000FF" stroke-width="0.0283" stroke-miterlimit="10" width="26.507" height="73.986"/>
		
			<rect x="1955.504" y="667.324" fill="none" stroke="#0000FF" stroke-width="0.0283" stroke-miterlimit="10" width="26.507" height="73.985"/>
		
			<rect x="1955.504" y="555.725" fill="none" stroke="#0000FF" stroke-width="0.0283" stroke-miterlimit="10" width="26.507" height="73.984"/>
		<g>
			<path fill="none" stroke="#0000FF" stroke-width="0.0283" stroke-miterlimit="10" d="M2061.559,968.859
				c-2.507,0-4.535,2.029-4.535,4.535s2.031,4.535,4.535,4.535c2.502,0,4.534-2.029,4.534-4.535
				C2066.093,970.89,2064.063,968.859,2061.559,968.859"/>
			<path fill="none" stroke="#0000FF" stroke-width="0.0283" stroke-miterlimit="10" d="M2061.559,533.988
				c-3.132,0-5.67,2.537-5.67,5.668s2.539,5.67,5.67,5.67c3.129,0,5.67-2.539,5.67-5.67
				C2067.229,536.527,2064.688,533.988,2061.559,533.988"/>
		</g>
		<circle fill="none" stroke="#0000FF" stroke-width="0.0283" stroke-miterlimit="10" cx="2035.765" cy="973.396" r="4.677"/>
		<circle fill="none" stroke="#0000FF" stroke-width="0.0283" stroke-miterlimit="10" cx="2035.767" cy="539.695" r="4.677"/>
		<circle fill="none" stroke="#0000FF" stroke-width="0.0283" stroke-miterlimit="10" cx="2117.825" cy="539.695" r="4.677"/>
		<circle fill="none" stroke="#0000FF" stroke-width="0.0283" stroke-miterlimit="10" cx="2118.594" cy="973.396" r="4.677"/>
	</g>
</g>
<g>
	<g>
		
			<rect x="1374.008" y="489.484" fill="none" stroke="#0000FF" stroke-width="0.0283" stroke-miterlimit="10" width="91.063" height="532.119"/>
		<circle fill="none" stroke="#0000FF" stroke-width="0.0283" stroke-miterlimit="10" cx="1456.566" cy="510.744" r="4.678"/>
		<circle fill="none" stroke="#0000FF" stroke-width="0.0283" stroke-miterlimit="10" cx="1382.512" cy="510.744" r="4.678"/>
		<circle fill="none" stroke="#0000FF" stroke-width="0.0283" stroke-miterlimit="10" cx="1456.566" cy="1000.345" r="4.678"/>
		<circle fill="none" stroke="#0000FF" stroke-width="0.0283" stroke-miterlimit="10" cx="1382.512" cy="1000.345" r="4.678"/>
	</g>
	<g>
		<g>
			<g id="CIRCLE_50_">
				<path fill="none" stroke="#0000FF" stroke-width="0.0283" stroke-miterlimit="10" d="M1430.813,904.188
					c14.093,0,25.517,11.423,25.517,25.513s-11.424,25.513-25.517,25.513c-14.094,0-25.514-11.423-25.514-25.513
					C1405.301,915.609,1416.723,904.188,1430.813,904.188L1430.813,904.188z"/>
			</g>
			<g id="CIRCLE_49_">
				<path fill="none" stroke="#0000FF" stroke-width="0.0283" stroke-miterlimit="10" d="M1409.588,667.279
					c5.479,0,9.92,4.438,9.92,9.92c0,5.479-4.44,9.922-9.92,9.922c-5.479,0-9.922-4.439-9.922-9.922
					C1399.666,671.719,1404.107,667.279,1409.588,667.279L1409.588,667.279z"/>
			</g>
			<g id="CIRCLE_48_">
				<path fill="none" stroke="#0000FF" stroke-width="0.0283" stroke-miterlimit="10" d="M1430.74,846.66
					c14.09-0.039,25.547,11.354,25.588,25.438c0.041,14.094-11.353,25.547-25.438,25.586c-14.092,0.041-25.545-11.348-25.586-25.438
					C1405.262,858.156,1416.65,846.701,1430.74,846.66L1430.74,846.66z"/>
			</g>
			<g id="CIRCLE_47_">
				<path fill="none" stroke="#0000FF" stroke-width="0.0283" stroke-miterlimit="10" d="M1425.549,555.182
					c12.506,0,22.646,10.14,22.646,22.646c0,12.512-10.146,22.647-22.646,22.647c-12.508,0-22.646-10.146-22.646-22.647
					C1402.9,565.32,1413.041,555.182,1425.549,555.182L1425.549,555.182z"/>
			</g>
			<g id="CIRCLE_46_">
				<path fill="none" stroke="#0000FF" stroke-width="0.0283" stroke-miterlimit="10" d="M1425.549,610.389
					c12.506,0,22.646,10.142,22.646,22.646c0,12.504-10.146,22.647-22.646,22.647c-12.508,0-22.646-10.146-22.646-22.647
					C1402.902,620.531,1413.041,610.389,1425.549,610.389L1425.549,610.389z"/>
			</g>
			<polygon fill="none" stroke="#0000FF" stroke-width="0.0283" stroke-miterlimit="10" points="1402.504,839.578 1402.504,789.02 
				1400.162,789.02 1400.162,762.09 1402.498,762.09 1402.498,724.533 1393.293,724.533 1393.293,690.518 1420.223,690.518 
				1420.223,724.533 1411.002,724.533 1411.002,762.09 1448.35,762.09 1448.35,789.02 1406.326,789.02 1406.326,839.578 			"/>
		</g>
		<circle fill="none" stroke="#0000FF" stroke-width="0.0283" stroke-miterlimit="10" cx="1434.671" cy="974.813" r="4.677"/>
		<circle fill="none" stroke="#0000FF" stroke-width="0.0283" stroke-miterlimit="10" cx="1434.671" cy="538.277" r="4.678"/>
	</g>
</g>
<g>
	<circle fill="none" stroke="#0000FF" stroke-width="0.0283" stroke-miterlimit="10" cx="1506.313" cy="1000.345" r="4.677"/>
	<circle fill="none" stroke="#0000FF" stroke-width="0.0283" stroke-miterlimit="10" cx="1506.313" cy="510.744" r="4.678"/>
	<g>
		<g>
			<g>
				
					<rect x="1497.811" y="489.484" fill="none" stroke="#0000FF" stroke-width="0.0283" stroke-miterlimit="10" width="273.222" height="532.119"/>
				<circle fill="none" stroke="#0000FF" stroke-width="0.0283" stroke-miterlimit="10" cx="1762.496" cy="1000.344" r="4.677"/>
				<circle fill="none" stroke="#0000FF" stroke-width="0.0283" stroke-miterlimit="10" cx="1762.496" cy="510.744" r="4.678"/>
			</g>
		</g>
	</g>
	<g>
		<path fill="none" stroke="#0000FF" stroke-width="0.0283" stroke-miterlimit="10" d="M1632.132,927.519
			c0-19.568,15.862-35.438,35.435-35.438c19.571,0,35.437,15.865,35.437,35.438c0,19.563-15.863,35.434-35.437,35.434
			C1647.995,962.951,1632.132,947.084,1632.132,927.519z"/>
		<path fill="none" stroke="#0000FF" stroke-width="0.0283" stroke-miterlimit="10" d="M1632.239,815.918
			c0-19.57,15.858-35.436,35.435-35.436c19.572,0,35.435,15.864,35.435,35.436c0,19.566-15.861,35.432-35.435,35.432
			C1648.099,851.349,1632.239,835.484,1632.239,815.918z"/>
		<path fill="none" stroke="#0000FF" stroke-width="0.0283" stroke-miterlimit="10" d="M1632.239,704.318
			c0-19.57,15.858-35.438,35.435-35.438c19.572,0,35.435,15.865,35.435,35.438c0,19.563-15.861,35.432-35.435,35.432
			C1648.099,739.75,1632.239,723.885,1632.239,704.318z"/>
		<path fill="none" stroke="#0000FF" stroke-width="0.0283" stroke-miterlimit="10" d="M1632.239,592.719
			c0-19.565,15.858-35.436,35.435-35.436c19.572,0,35.435,15.865,35.435,35.436c0,19.566-15.861,35.435-35.435,35.435
			C1648.099,628.152,1632.239,612.285,1632.239,592.719z"/>
		<circle fill="none" stroke="#0000FF" stroke-width="0.0283" stroke-miterlimit="10" cx="1585.138" cy="563.918" r="11.338"/>
		<circle fill="none" stroke="#0000FF" stroke-width="0.0283" stroke-miterlimit="10" cx="1585.138" cy="619.717" r="11.338"/>
		<path fill="none" stroke="#0000FF" stroke-width="0.0283" stroke-miterlimit="10" d="M1573.8,675.516
			c0-6.262,5.073-11.338,11.338-11.338c6.267,0,11.339,5.076,11.339,11.338c0,6.267-5.072,11.343-11.339,11.343
			C1578.873,686.855,1573.8,681.781,1573.8,675.516z"/>
		<circle fill="none" stroke="#0000FF" stroke-width="0.0283" stroke-miterlimit="10" cx="1585.138" cy="731.191" r="11.338"/>
		<circle fill="none" stroke="#0000FF" stroke-width="0.0283" stroke-miterlimit="10" cx="1585.138" cy="787.117" r="11.338"/>
		<circle fill="none" stroke="#0000FF" stroke-width="0.0283" stroke-miterlimit="10" cx="1585.138" cy="842.916" r="11.338"/>
		<circle fill="none" stroke="#0000FF" stroke-width="0.0283" stroke-miterlimit="10" cx="1585.138" cy="898.716" r="11.338"/>
		<circle fill="none" stroke="#0000FF" stroke-width="0.0283" stroke-miterlimit="10" cx="1585.138" cy="954.517" r="11.338"/>
		
			<rect x="1534.582" y="890.525" fill="none" stroke="#0000FF" stroke-width="0.0283" stroke-miterlimit="10" width="26.47" height="73.98"/>
		
			<rect x="1534.582" y="778.924" fill="none" stroke="#0000FF" stroke-width="0.0283" stroke-miterlimit="10" width="26.507" height="73.986"/>
		
			<rect x="1534.582" y="667.324" fill="none" stroke="#0000FF" stroke-width="0.0283" stroke-miterlimit="10" width="26.507" height="73.985"/>
		
			<rect x="1534.582" y="555.725" fill="none" stroke="#0000FF" stroke-width="0.0283" stroke-miterlimit="10" width="26.507" height="73.984"/>
		<g>
			<path fill="none" stroke="#0000FF" stroke-width="0.0283" stroke-miterlimit="10" d="M1640.636,968.859
				c-2.506,0-4.535,2.029-4.535,4.535s2.031,4.535,4.535,4.535c2.502,0,4.535-2.029,4.535-4.535
				C1645.171,970.89,1643.142,968.859,1640.636,968.859"/>
			<path fill="none" stroke="#0000FF" stroke-width="0.0283" stroke-miterlimit="10" d="M1640.636,533.988
				c-3.131,0-5.67,2.537-5.67,5.668s2.539,5.67,5.67,5.67c3.129,0,5.67-2.539,5.67-5.67
				C1646.306,536.527,1643.767,533.988,1640.636,533.988"/>
		</g>
		<circle fill="none" stroke="#0000FF" stroke-width="0.0283" stroke-miterlimit="10" cx="1614.843" cy="973.396" r="4.677"/>
		<circle fill="none" stroke="#0000FF" stroke-width="0.0283" stroke-miterlimit="10" cx="1614.845" cy="539.695" r="4.677"/>
		<circle fill="none" stroke="#0000FF" stroke-width="0.0283" stroke-miterlimit="10" cx="1696.903" cy="539.695" r="4.677"/>
		<circle fill="none" stroke="#0000FF" stroke-width="0.0283" stroke-miterlimit="10" cx="1697.672" cy="973.396" r="4.677"/>
	</g>
</g>
<g>
	<g id="CIRCLE_10_">
		<path fill="none" stroke="#0000FF" stroke-width="0.0283" stroke-miterlimit="10" d="M1458.665,177.344
			c14.092,0,25.516,11.422,25.516,25.512c0,14.091-11.424,25.513-25.516,25.513c-14.095,0-25.515-11.422-25.515-25.513
			C1433.152,188.766,1444.574,177.344,1458.665,177.344L1458.665,177.344z"/>
	</g>
	<g id="CIRCLE_8_">
		<path fill="none" stroke="#0000FF" stroke-width="0.0283" stroke-miterlimit="10" d="M1458.593,119.815
			c14.09-0.038,25.547,11.354,25.588,25.439c0.041,14.092-11.352,25.547-25.438,25.586c-14.092,0.041-25.545-11.348-25.586-25.438
			C1433.113,131.313,1444.503,119.856,1458.593,119.815L1458.593,119.815z"/>
	</g>
	
		<rect x="1425.689" y="118.396" display="none" fill="none" stroke="#0000FF" stroke-width="0.0283" stroke-miterlimit="10" width="4.534" height="136.063"/>
</g>
<g>
	<g id="CIRCLE_9_">
		<path fill="none" stroke="#0000FF" stroke-width="0.0283" stroke-miterlimit="10" d="M1375.973,238.767
			c5.479,0,9.92,4.439,9.92,9.92s-4.439,9.924-9.92,9.924c-5.479,0-9.922-4.441-9.922-9.924
			C1366.052,243.206,1370.493,238.767,1375.973,238.767L1375.973,238.767z"/>
	</g>
	<g id="CIRCLE_7_">
		<path fill="none" stroke="#0000FF" stroke-width="0.0283" stroke-miterlimit="10" d="M1391.934,126.67
			c12.506,0,22.646,10.139,22.646,22.645c0,12.512-10.146,22.648-22.646,22.648c-12.508,0-22.646-10.145-22.646-22.648
			C1369.286,136.808,1379.427,126.67,1391.934,126.67L1391.934,126.67z"/>
	</g>
	<g id="CIRCLE_6_">
		<path fill="none" stroke="#0000FF" stroke-width="0.0283" stroke-miterlimit="10" d="M1391.934,181.877
			c12.506,0,22.646,10.141,22.646,22.645c0,12.506-10.146,22.648-22.646,22.648c-12.508,0-22.646-10.145-22.646-22.648
			S1379.427,181.877,1391.934,181.877L1391.934,181.877z"/>
	</g>
	<polygon fill="none" stroke="#0000FF" stroke-width="0.0283" stroke-miterlimit="10" points="1368.89,411.064 1368.89,360.508 
		1366.548,360.508 1366.548,333.579 1368.884,333.579 1368.884,296.021 1359.679,296.021 1359.679,262.006 1386.607,262.006 
		1386.607,296.021 1377.388,296.021 1377.388,333.579 1414.734,333.579 1414.734,360.508 1372.712,360.508 1372.712,411.064 	"/>
	
		<rect x="1364.223" y="99.254" display="none" fill="none" stroke="#0000FF" stroke-width="0.0283" stroke-miterlimit="10" width="4.535" height="311.812"/>
</g>
<g>
	
		<rect x="1335.876" y="76.865" fill="none" stroke="#0000FF" stroke-width="0.0283" stroke-miterlimit="10" width="157.719" height="354.33"/>
	<circle fill="none" stroke="#0000FF" stroke-width="0.0283" stroke-miterlimit="10" cx="1371.536" cy="85.369" r="4.677"/>
	<circle fill="none" stroke="#0000FF" stroke-width="0.0283" stroke-miterlimit="10" cx="1457.936" cy="85.369" r="4.677"/>
	<circle fill="none" stroke="#0000FF" stroke-width="0.0283" stroke-miterlimit="10" cx="1457.936" cy="422.691" r="4.677"/>
	<circle fill="none" stroke="#0000FF" stroke-width="0.0283" stroke-miterlimit="10" cx="1371.536" cy="422.691" r="4.677"/>
</g>
<circle fill="none" stroke="#0000FF" stroke-width="0.0283" stroke-miterlimit="10" cx="1458.571" cy="109.893" r="4.677"/>
<circle fill="none" stroke="#0000FF" stroke-width="0.0283" stroke-miterlimit="10" cx="1458.571" cy="262.862" r="4.677"/>
<circle fill="none" stroke="#0000FF" stroke-width="0.0283" stroke-miterlimit="10" cx="1397.104" cy="107.759" r="4.677"/>
<circle fill="none" stroke="#0000FF" stroke-width="0.0283" stroke-miterlimit="10" cx="1397.104" cy="402.561" r="4.677"/>
<g>
	<g id="CIRCLE_25_">
		<path fill="none" stroke="#0000FF" stroke-width="0.0283" stroke-miterlimit="10" d="M1632.467,177.344
			c14.092,0,25.517,11.422,25.517,25.512c0,14.091-11.425,25.513-25.517,25.513c-14.094,0-25.514-11.422-25.514-25.513
			C1606.955,188.766,1618.377,177.344,1632.467,177.344L1632.467,177.344z"/>
	</g>
	<g id="CIRCLE_24_">
		<path fill="none" stroke="#0000FF" stroke-width="0.0283" stroke-miterlimit="10" d="M1632.395,119.815
			c14.091-0.038,25.548,11.354,25.589,25.439c0.041,14.092-11.353,25.547-25.438,25.586c-14.092,0.041-25.545-11.348-25.586-25.438
			C1606.916,131.313,1618.305,119.856,1632.395,119.815L1632.395,119.815z"/>
	</g>
	
		<rect x="1599.493" y="118.396" display="none" fill="none" stroke="#0000FF" stroke-width="0.0283" stroke-miterlimit="10" width="4.534" height="136.063"/>
</g>
<g>
	<g id="CIRCLE_23_">
		<path fill="none" stroke="#0000FF" stroke-width="0.0283" stroke-miterlimit="10" d="M1549.775,238.767
			c5.479,0,9.92,4.439,9.92,9.92s-4.44,9.924-9.92,9.924s-9.922-4.441-9.922-9.924
			C1539.854,243.206,1544.295,238.767,1549.775,238.767L1549.775,238.767z"/>
	</g>
	<g id="CIRCLE_22_">
		<path fill="none" stroke="#0000FF" stroke-width="0.0283" stroke-miterlimit="10" d="M1565.736,126.67
			c12.506,0,22.646,10.139,22.646,22.645c0,12.512-10.146,22.648-22.646,22.648c-12.509,0-22.646-10.145-22.646-22.648
			C1543.088,136.808,1553.229,126.67,1565.736,126.67L1565.736,126.67z"/>
	</g>
	<g id="CIRCLE_21_">
		<path fill="none" stroke="#0000FF" stroke-width="0.0283" stroke-miterlimit="10" d="M1565.736,181.877
			c12.506,0,22.646,10.141,22.646,22.645c0,12.506-10.146,22.648-22.646,22.648c-12.509,0-22.646-10.145-22.646-22.648
			S1553.229,181.877,1565.736,181.877L1565.736,181.877z"/>
	</g>
	<polygon fill="none" stroke="#0000FF" stroke-width="0.0283" stroke-miterlimit="10" points="1542.691,411.064 1542.691,360.508 
		1540.35,360.508 1540.35,333.579 1542.686,333.579 1542.686,296.021 1533.48,296.021 1533.48,262.006 1560.411,262.006 
		1560.411,296.021 1551.189,296.021 1551.189,333.579 1588.536,333.579 1588.536,360.508 1546.514,360.508 1546.514,411.064 	"/>
	
		<rect x="1538.025" y="99.254" display="none" fill="none" stroke="#0000FF" stroke-width="0.0283" stroke-miterlimit="10" width="4.535" height="311.812"/>
</g>
<g>
	
		<rect x="1509.678" y="76.865" fill="none" stroke="#0000FF" stroke-width="0.0283" stroke-miterlimit="10" width="157.719" height="354.33"/>
	<circle fill="none" stroke="#0000FF" stroke-width="0.0283" stroke-miterlimit="10" cx="1545.338" cy="85.369" r="4.677"/>
	<circle fill="none" stroke="#0000FF" stroke-width="0.0283" stroke-miterlimit="10" cx="1631.736" cy="85.369" r="4.677"/>
	<circle fill="none" stroke="#0000FF" stroke-width="0.0283" stroke-miterlimit="10" cx="1631.736" cy="422.691" r="4.677"/>
	<circle fill="none" stroke="#0000FF" stroke-width="0.0283" stroke-miterlimit="10" cx="1545.338" cy="422.691" r="4.677"/>
</g>
<circle fill="none" stroke="#0000FF" stroke-width="0.0283" stroke-miterlimit="10" cx="1632.374" cy="109.893" r="4.677"/>
<circle fill="none" stroke="#0000FF" stroke-width="0.0283" stroke-miterlimit="10" cx="1632.374" cy="262.862" r="4.677"/>
<circle fill="none" stroke="#0000FF" stroke-width="0.0283" stroke-miterlimit="10" cx="1570.906" cy="107.759" r="4.677"/>
<circle fill="none" stroke="#0000FF" stroke-width="0.0283" stroke-miterlimit="10" cx="1570.906" cy="402.561" r="4.677"/>
<g>
	<g id="CIRCLE_35_">
		<path fill="none" stroke="#0000FF" stroke-width="0.0283" stroke-miterlimit="10" d="M1815.691,177.343
			c14.092,0,25.516,11.422,25.516,25.512c0,14.092-11.424,25.514-25.516,25.514c-14.095,0-25.515-11.422-25.515-25.514
			C1790.18,188.765,1801.602,177.343,1815.691,177.343L1815.691,177.343z"/>
	</g>
	<g id="CIRCLE_34_">
		<path fill="none" stroke="#0000FF" stroke-width="0.0283" stroke-miterlimit="10" d="M1815.619,119.815
			c14.09-0.038,25.547,11.354,25.588,25.439c0.041,14.092-11.352,25.547-25.438,25.586c-14.093,0.041-25.546-11.348-25.587-25.438
			C1790.141,131.313,1801.529,119.856,1815.619,119.815L1815.619,119.815z"/>
	</g>
	
		<rect x="1782.717" y="118.396" display="none" fill="none" stroke="#0000FF" stroke-width="0.0283" stroke-miterlimit="10" width="4.535" height="136.063"/>
</g>
<g>
	<g id="CIRCLE_33_">
		<path fill="none" stroke="#0000FF" stroke-width="0.0283" stroke-miterlimit="10" d="M1733,238.766
			c5.479,0,9.921,4.439,9.921,9.92s-4.44,9.924-9.921,9.924c-5.479,0-9.922-4.44-9.922-9.924
			C1723.078,243.205,1727.52,238.766,1733,238.766L1733,238.766z"/>
	</g>
	<g id="CIRCLE_32_">
		<path fill="none" stroke="#0000FF" stroke-width="0.0283" stroke-miterlimit="10" d="M1748.961,126.67
			c12.506,0,22.646,10.139,22.646,22.645c0,12.513-10.146,22.648-22.646,22.648c-12.509,0-22.646-10.146-22.646-22.648
			C1726.313,136.807,1736.453,126.67,1748.961,126.67L1748.961,126.67z"/>
	</g>
	<g id="CIRCLE_31_">
		<path fill="none" stroke="#0000FF" stroke-width="0.0283" stroke-miterlimit="10" d="M1748.961,181.877
			c12.506,0,22.646,10.141,22.646,22.645c0,12.506-10.146,22.648-22.646,22.648c-12.509,0-22.646-10.146-22.646-22.648
			S1736.453,181.877,1748.961,181.877L1748.961,181.877z"/>
	</g>
	<polygon fill="none" stroke="#0000FF" stroke-width="0.0283" stroke-miterlimit="10" points="1725.916,411.064 1725.916,360.508 
		1723.574,360.508 1723.574,333.578 1725.91,333.578 1725.91,296.02 1716.705,296.02 1716.705,262.006 1743.635,262.006 
		1743.635,296.02 1734.414,296.02 1734.414,333.578 1771.762,333.578 1771.762,360.508 1729.738,360.508 1729.738,411.064 	"/>
	
		<rect x="1721.25" y="99.254" display="none" fill="none" stroke="#0000FF" stroke-width="0.0283" stroke-miterlimit="10" width="4.535" height="311.812"/>
</g>
<g>
	
		<rect x="1692.902" y="76.865" fill="none" stroke="#0000FF" stroke-width="0.0283" stroke-miterlimit="10" width="157.719" height="354.33"/>
	<circle fill="none" stroke="#0000FF" stroke-width="0.0283" stroke-miterlimit="10" cx="1728.563" cy="85.369" r="4.678"/>
	<circle fill="none" stroke="#0000FF" stroke-width="0.0283" stroke-miterlimit="10" cx="1814.962" cy="85.369" r="4.677"/>
	<circle fill="none" stroke="#0000FF" stroke-width="0.0283" stroke-miterlimit="10" cx="1814.962" cy="422.692" r="4.677"/>
	<circle fill="none" stroke="#0000FF" stroke-width="0.0283" stroke-miterlimit="10" cx="1728.563" cy="422.692" r="4.678"/>
</g>
<circle fill="none" stroke="#0000FF" stroke-width="0.0283" stroke-miterlimit="10" cx="1815.599" cy="109.893" r="4.677"/>
<circle fill="none" stroke="#0000FF" stroke-width="0.0283" stroke-miterlimit="10" cx="1815.599" cy="262.862" r="4.677"/>
<circle fill="none" stroke="#0000FF" stroke-width="0.0283" stroke-miterlimit="10" cx="1754.132" cy="107.758" r="4.677"/>
<circle fill="none" stroke="#0000FF" stroke-width="0.0283" stroke-miterlimit="10" cx="1754.132" cy="402.561" r="4.677"/>
<g>
	<g id="CIRCLE_30_">
		<path fill="none" stroke="#0000FF" stroke-width="0.0283" stroke-miterlimit="10" d="M1989.494,177.343
			c14.093,0,25.517,11.422,25.517,25.512c0,14.092-11.424,25.514-25.517,25.514c-14.094,0-25.514-11.422-25.514-25.514
			C1963.982,188.765,1975.404,177.343,1989.494,177.343L1989.494,177.343z"/>
	</g>
	<g id="CIRCLE_29_">
		<path fill="none" stroke="#0000FF" stroke-width="0.0283" stroke-miterlimit="10" d="M1989.422,119.815
			c14.09-0.038,25.547,11.354,25.588,25.439c0.041,14.092-11.353,25.547-25.438,25.586c-14.093,0.041-25.545-11.348-25.586-25.438
			C1963.943,131.313,1975.332,119.856,1989.422,119.815L1989.422,119.815z"/>
	</g>
	
		<rect x="1956.52" y="118.396" display="none" fill="none" stroke="#0000FF" stroke-width="0.0283" stroke-miterlimit="10" width="4.535" height="136.063"/>
</g>
<g>
	<g id="CIRCLE_28_">
		<path fill="none" stroke="#0000FF" stroke-width="0.0283" stroke-miterlimit="10" d="M1906.803,238.766
			c5.479,0,9.92,4.439,9.92,9.92s-4.44,9.924-9.92,9.924c-5.479,0-9.922-4.44-9.922-9.924
			C1896.881,243.205,1901.322,238.766,1906.803,238.766L1906.803,238.766z"/>
	</g>
	<g id="CIRCLE_27_">
		<path fill="none" stroke="#0000FF" stroke-width="0.0283" stroke-miterlimit="10" d="M1922.764,126.67
			c12.506,0,22.646,10.139,22.646,22.645c0,12.513-10.146,22.648-22.646,22.648c-12.508,0-22.646-10.146-22.646-22.648
			C1900.115,136.807,1910.256,126.67,1922.764,126.67L1922.764,126.67z"/>
	</g>
	<g id="CIRCLE_26_">
		<path fill="none" stroke="#0000FF" stroke-width="0.0283" stroke-miterlimit="10" d="M1922.764,181.877
			c12.506,0,22.646,10.141,22.646,22.645c0,12.506-10.146,22.648-22.646,22.648c-12.508,0-22.646-10.146-22.646-22.648
			S1910.256,181.877,1922.764,181.877L1922.764,181.877z"/>
	</g>
	<polygon fill="none" stroke="#0000FF" stroke-width="0.0283" stroke-miterlimit="10" points="1899.719,411.064 1899.719,360.508 
		1897.377,360.508 1897.377,333.578 1899.713,333.578 1899.713,296.02 1890.508,296.02 1890.508,262.006 1917.438,262.006 
		1917.438,296.02 1908.217,296.02 1908.217,333.578 1945.564,333.578 1945.564,360.508 1903.541,360.508 1903.541,411.064 	"/>
	
		<rect x="1895.053" y="99.254" display="none" fill="none" stroke="#0000FF" stroke-width="0.0283" stroke-miterlimit="10" width="4.535" height="311.812"/>
</g>
<g>
	
		<rect x="1866.705" y="76.865" fill="none" stroke="#0000FF" stroke-width="0.0283" stroke-miterlimit="10" width="157.72" height="354.33"/>
	<circle fill="none" stroke="#0000FF" stroke-width="0.0283" stroke-miterlimit="10" cx="1902.364" cy="85.369" r="4.677"/>
	<circle fill="none" stroke="#0000FF" stroke-width="0.0283" stroke-miterlimit="10" cx="1988.765" cy="85.369" r="4.677"/>
	<circle fill="none" stroke="#0000FF" stroke-width="0.0283" stroke-miterlimit="10" cx="1988.765" cy="422.692" r="4.677"/>
	<circle fill="none" stroke="#0000FF" stroke-width="0.0283" stroke-miterlimit="10" cx="1902.364" cy="422.692" r="4.677"/>
</g>
<circle fill="none" stroke="#0000FF" stroke-width="0.0283" stroke-miterlimit="10" cx="1989.4" cy="109.893" r="4.677"/>
<circle fill="none" stroke="#0000FF" stroke-width="0.0283" stroke-miterlimit="10" cx="1989.4" cy="262.862" r="4.677"/>
<circle fill="none" stroke="#0000FF" stroke-width="0.0283" stroke-miterlimit="10" cx="1927.936" cy="107.758" r="4.677"/>
<circle fill="none" stroke="#0000FF" stroke-width="0.0283" stroke-miterlimit="10" cx="1927.936" cy="402.561" r="4.677"/>
<g>
	<g id="CIRCLE_15_">
		<path fill="none" stroke="#0000FF" stroke-width="0.0283" stroke-miterlimit="10" d="M2170.074,177.343
			c14.093,0,25.517,11.422,25.517,25.512c0,14.092-11.424,25.514-25.517,25.514c-14.094,0-25.514-11.422-25.514-25.514
			C2144.563,188.765,2155.984,177.343,2170.074,177.343L2170.074,177.343z"/>
	</g>
	<g id="CIRCLE_14_">
		<path fill="none" stroke="#0000FF" stroke-width="0.0283" stroke-miterlimit="10" d="M2170.002,119.815
			c14.09-0.038,25.547,11.354,25.588,25.439c0.041,14.092-11.354,25.547-25.439,25.586c-14.092,0.041-25.545-11.348-25.586-25.438
			C2144.523,131.313,2155.912,119.856,2170.002,119.815L2170.002,119.815z"/>
	</g>
	
		<rect x="2137.1" y="118.396" display="none" fill="none" stroke="#0000FF" stroke-width="0.0283" stroke-miterlimit="10" width="4.535" height="136.063"/>
</g>
<g>
	<g id="CIRCLE_13_">
		<path fill="none" stroke="#0000FF" stroke-width="0.0283" stroke-miterlimit="10" d="M2087.383,238.766
			c5.479,0,9.92,4.439,9.92,9.92s-4.44,9.924-9.92,9.924c-5.479,0-9.922-4.44-9.922-9.924
			C2077.461,243.205,2081.902,238.766,2087.383,238.766L2087.383,238.766z"/>
	</g>
	<g id="CIRCLE_12_">
		<path fill="none" stroke="#0000FF" stroke-width="0.0283" stroke-miterlimit="10" d="M2103.344,126.67
			c12.506,0,22.646,10.139,22.646,22.645c0,12.513-10.146,22.648-22.646,22.648c-12.508,0-22.646-10.146-22.646-22.648
			C2080.695,136.807,2090.836,126.67,2103.344,126.67L2103.344,126.67z"/>
	</g>
	<g id="CIRCLE_11_">
		<path fill="none" stroke="#0000FF" stroke-width="0.0283" stroke-miterlimit="10" d="M2103.344,181.877
			c12.506,0,22.646,10.141,22.646,22.645c0,12.506-10.146,22.648-22.646,22.648c-12.508,0-22.646-10.146-22.646-22.648
			S2090.836,181.877,2103.344,181.877L2103.344,181.877z"/>
	</g>
	<polygon fill="none" stroke="#0000FF" stroke-width="0.0283" stroke-miterlimit="10" points="2080.299,411.064 2080.299,360.508 
		2077.957,360.508 2077.957,333.578 2080.293,333.578 2080.293,296.02 2071.088,296.02 2071.088,262.006 2098.018,262.006 
		2098.018,296.02 2088.797,296.02 2088.797,333.578 2126.145,333.578 2126.145,360.508 2084.121,360.508 2084.121,411.064 	"/>
	
		<rect x="2075.633" y="99.254" display="none" fill="none" stroke="#0000FF" stroke-width="0.0283" stroke-miterlimit="10" width="4.535" height="311.812"/>
</g>
<g>
	
		<rect x="2047.285" y="76.865" fill="none" stroke="#0000FF" stroke-width="0.0283" stroke-miterlimit="10" width="157.72" height="354.33"/>
	<circle fill="none" stroke="#0000FF" stroke-width="0.0283" stroke-miterlimit="10" cx="2082.944" cy="85.369" r="4.677"/>
	<circle fill="none" stroke="#0000FF" stroke-width="0.0283" stroke-miterlimit="10" cx="2169.345" cy="85.369" r="4.677"/>
	<circle fill="none" stroke="#0000FF" stroke-width="0.0283" stroke-miterlimit="10" cx="2169.345" cy="422.692" r="4.677"/>
	<circle fill="none" stroke="#0000FF" stroke-width="0.0283" stroke-miterlimit="10" cx="2082.944" cy="422.692" r="4.677"/>
</g>
<circle fill="none" stroke="#0000FF" stroke-width="0.0283" stroke-miterlimit="10" cx="2169.98" cy="109.893" r="4.677"/>
<circle fill="none" stroke="#0000FF" stroke-width="0.0283" stroke-miterlimit="10" cx="2169.98" cy="262.862" r="4.677"/>
<circle fill="none" stroke="#0000FF" stroke-width="0.0283" stroke-miterlimit="10" cx="2108.515" cy="107.758" r="4.677"/>
<circle fill="none" stroke="#0000FF" stroke-width="0.0283" stroke-miterlimit="10" cx="2108.515" cy="402.561" r="4.677"/>
<g>
	<g>
		
			<rect x="1078.452" y="507.549" fill="none" stroke="#0000FF" stroke-width="0.0283" stroke-miterlimit="10" width="157.72" height="354.332"/>
		<circle fill="none" stroke="#0000FF" stroke-width="0.0283" stroke-miterlimit="10" cx="1114.112" cy="516.052" r="4.677"/>
		<circle fill="none" stroke="#0000FF" stroke-width="0.0283" stroke-miterlimit="10" cx="1200.512" cy="516.052" r="4.677"/>
		<circle fill="none" stroke="#0000FF" stroke-width="0.0283" stroke-miterlimit="10" cx="1200.512" cy="853.376" r="4.677"/>
		<circle fill="none" stroke="#0000FF" stroke-width="0.0283" stroke-miterlimit="10" cx="1114.112" cy="853.376" r="4.677"/>
	</g>
	<g>
		<g>
			<circle fill="none" stroke="#0000FF" stroke-width="0.0283" stroke-miterlimit="10" cx="1117.628" cy="545.89" r="11.339"/>
			<circle fill="none" stroke="#0000FF" stroke-width="0.0283" stroke-miterlimit="10" cx="1117.628" cy="585.575" r="11.339"/>
			<circle fill="none" stroke="#0000FF" stroke-width="0.0283" stroke-miterlimit="10" cx="1117.628" cy="625.261" r="11.339"/>
			<circle fill="none" stroke="#0000FF" stroke-width="0.0283" stroke-miterlimit="10" cx="1117.628" cy="664.946" r="11.339"/>
			<circle fill="none" stroke="#0000FF" stroke-width="0.0283" stroke-miterlimit="10" cx="1117.628" cy="704.632" r="11.339"/>
			<circle fill="none" stroke="#0000FF" stroke-width="0.0283" stroke-miterlimit="10" cx="1117.628" cy="744.315" r="11.339"/>
			<circle fill="none" stroke="#0000FF" stroke-width="0.0283" stroke-miterlimit="10" cx="1117.628" cy="784.001" r="11.339"/>
			<circle fill="none" stroke="#0000FF" stroke-width="0.0283" stroke-miterlimit="10" cx="1117.628" cy="823.685" r="11.339"/>
		</g>
		<g>
			<circle fill="none" stroke="#0000FF" stroke-width="0.0283" stroke-miterlimit="10" cx="1157.313" cy="545.89" r="11.339"/>
			<circle fill="none" stroke="#0000FF" stroke-width="0.0283" stroke-miterlimit="10" cx="1157.313" cy="585.575" r="11.339"/>
			<circle fill="none" stroke="#0000FF" stroke-width="0.0283" stroke-miterlimit="10" cx="1157.313" cy="625.261" r="11.339"/>
			<circle fill="none" stroke="#0000FF" stroke-width="0.0283" stroke-miterlimit="10" cx="1157.313" cy="664.946" r="11.339"/>
			<circle fill="none" stroke="#0000FF" stroke-width="0.0283" stroke-miterlimit="10" cx="1157.313" cy="704.632" r="11.339"/>
			<circle fill="none" stroke="#0000FF" stroke-width="0.0283" stroke-miterlimit="10" cx="1157.313" cy="744.315" r="11.339"/>
			<circle fill="none" stroke="#0000FF" stroke-width="0.0283" stroke-miterlimit="10" cx="1157.313" cy="784.001" r="11.339"/>
			<circle fill="none" stroke="#0000FF" stroke-width="0.0283" stroke-miterlimit="10" cx="1157.313" cy="823.685" r="11.339"/>
		</g>
		<g>
			<circle fill="none" stroke="#0000FF" stroke-width="0.0283" stroke-miterlimit="10" cx="1196.997" cy="545.89" r="11.339"/>
			<circle fill="none" stroke="#0000FF" stroke-width="0.0283" stroke-miterlimit="10" cx="1196.997" cy="585.575" r="11.339"/>
			<circle fill="none" stroke="#0000FF" stroke-width="0.0283" stroke-miterlimit="10" cx="1196.997" cy="625.261" r="11.339"/>
			<circle fill="none" stroke="#0000FF" stroke-width="0.0283" stroke-miterlimit="10" cx="1196.997" cy="664.946" r="11.339"/>
			<circle fill="none" stroke="#0000FF" stroke-width="0.0283" stroke-miterlimit="10" cx="1196.997" cy="704.632" r="11.339"/>
			<circle fill="none" stroke="#0000FF" stroke-width="0.0283" stroke-miterlimit="10" cx="1196.997" cy="744.315" r="11.339"/>
			<circle fill="none" stroke="#0000FF" stroke-width="0.0283" stroke-miterlimit="10" cx="1196.997" cy="784.001" r="11.339"/>
			<circle fill="none" stroke="#0000FF" stroke-width="0.0283" stroke-miterlimit="10" cx="1196.997" cy="823.685" r="11.339"/>
		</g>
		<circle fill="none" stroke="#0000FF" stroke-width="0.0283" stroke-miterlimit="10" cx="1137.469" cy="565.733" r="4.677"/>
		<circle fill="none" stroke="#0000FF" stroke-width="0.0283" stroke-miterlimit="10" cx="1177.153" cy="565.733" r="4.677"/>
		<circle fill="none" stroke="#0000FF" stroke-width="0.0283" stroke-miterlimit="10" cx="1137.469" cy="803.843" r="4.677"/>
		<circle fill="none" stroke="#0000FF" stroke-width="0.0283" stroke-miterlimit="10" cx="1177.153" cy="803.843" r="4.677"/>
		<circle fill="none" stroke="#0000FF" stroke-width="0.0283" stroke-miterlimit="10" cx="1137.469" cy="684.714" r="4.677"/>
		<circle fill="none" stroke="#0000FF" stroke-width="0.0283" stroke-miterlimit="10" cx="1177.153" cy="684.714" r="4.677"/>
	</g>
</g>
<g>
	<g>
		
			<rect x="1255.075" y="509.955" fill="none" stroke="#0000FF" stroke-width="0.0283" stroke-miterlimit="10" width="100.119" height="354.331"/>
		<circle fill="none" stroke="#0000FF" stroke-width="0.0283" stroke-miterlimit="10" cx="1276.337" cy="518.458" r="4.677"/>
		<circle fill="none" stroke="#0000FF" stroke-width="0.0283" stroke-miterlimit="10" cx="1333.935" cy="518.458" r="4.677"/>
		<circle fill="none" stroke="#0000FF" stroke-width="0.0283" stroke-miterlimit="10" cx="1333.935" cy="855.782" r="4.677"/>
		<circle fill="none" stroke="#0000FF" stroke-width="0.0283" stroke-miterlimit="10" cx="1276.337" cy="855.782" r="4.677"/>
	</g>
	<g>
		<circle fill="none" stroke="#0000FF" stroke-width="0.0283" stroke-miterlimit="10" cx="1305.138" cy="548.297" r="11.339"/>
		<circle fill="none" stroke="#0000FF" stroke-width="0.0283" stroke-miterlimit="10" cx="1305.138" cy="587.981" r="11.339"/>
		<circle fill="none" stroke="#0000FF" stroke-width="0.0283" stroke-miterlimit="10" cx="1305.138" cy="627.666" r="11.339"/>
		<circle fill="none" stroke="#0000FF" stroke-width="0.0283" stroke-miterlimit="10" cx="1305.138" cy="667.353" r="11.339"/>
		<circle fill="none" stroke="#0000FF" stroke-width="0.0283" stroke-miterlimit="10" cx="1305.138" cy="707.037" r="11.339"/>
		<circle fill="none" stroke="#0000FF" stroke-width="0.0283" stroke-miterlimit="10" cx="1305.138" cy="746.722" r="11.339"/>
		<circle fill="none" stroke="#0000FF" stroke-width="0.0283" stroke-miterlimit="10" cx="1305.138" cy="786.407" r="11.339"/>
		<circle fill="none" stroke="#0000FF" stroke-width="0.0283" stroke-miterlimit="10" cx="1305.138" cy="826.092" r="11.339"/>
	</g>
	<circle fill="none" stroke="#0000FF" stroke-width="0.0283" stroke-miterlimit="10" cx="1325.376" cy="568.139" r="4.677"/>
	<circle fill="none" stroke="#0000FF" stroke-width="0.0283" stroke-miterlimit="10" cx="1285.69" cy="568.139" r="4.677"/>
	<circle fill="none" stroke="#0000FF" stroke-width="0.0283" stroke-miterlimit="10" cx="1325.376" cy="689.361" r="4.677"/>
	<circle fill="none" stroke="#0000FF" stroke-width="0.0283" stroke-miterlimit="10" cx="1285.69" cy="689.361" r="4.677"/>
	<circle fill="none" stroke="#0000FF" stroke-width="0.0283" stroke-miterlimit="10" cx="1325.376" cy="806.25" r="4.678"/>
	<circle fill="none" stroke="#0000FF" stroke-width="0.0283" stroke-miterlimit="10" cx="1285.69" cy="806.25" r="4.678"/>
</g>
<g>
	<g>
		
			<rect x="1221.148" y="82.127" fill="none" stroke="#0000FF" stroke-width="0.0283" stroke-miterlimit="10" width="100.119" height="354.331"/>
		<circle fill="none" stroke="#0000FF" stroke-width="0.0283" stroke-miterlimit="10" cx="1242.408" cy="90.632" r="4.677"/>
		<circle fill="none" stroke="#0000FF" stroke-width="0.0283" stroke-miterlimit="10" cx="1300.008" cy="90.632" r="4.677"/>
		<circle fill="none" stroke="#0000FF" stroke-width="0.0283" stroke-miterlimit="10" cx="1300.008" cy="427.955" r="4.677"/>
		<circle fill="none" stroke="#0000FF" stroke-width="0.0283" stroke-miterlimit="10" cx="1242.408" cy="427.955" r="4.677"/>
	</g>
	<g>
		
			<rect x="1234.217" y="120.059" fill="none" stroke="#0000FF" stroke-width="0.0283" stroke-miterlimit="10" width="73.98" height="26.469"/>
		
			<rect x="1234.217" y="156.059" fill="none" stroke="#0000FF" stroke-width="0.0283" stroke-miterlimit="10" width="73.98" height="26.469"/>
		
			<rect x="1234.217" y="192.059" fill="none" stroke="#0000FF" stroke-width="0.0283" stroke-miterlimit="10" width="73.98" height="26.469"/>
		
			<rect x="1234.217" y="228.059" fill="none" stroke="#0000FF" stroke-width="0.0283" stroke-miterlimit="10" width="73.98" height="26.469"/>
		
			<rect x="1234.217" y="264.059" fill="none" stroke="#0000FF" stroke-width="0.0283" stroke-miterlimit="10" width="73.98" height="26.469"/>
		
			<rect x="1234.217" y="300.059" fill="none" stroke="#0000FF" stroke-width="0.0283" stroke-miterlimit="10" width="73.98" height="26.469"/>
		
			<rect x="1234.217" y="336.059" fill="none" stroke="#0000FF" stroke-width="0.0283" stroke-miterlimit="10" width="73.98" height="26.469"/>
		
			<rect x="1234.217" y="372.059" fill="none" stroke="#0000FF" stroke-width="0.0283" stroke-miterlimit="10" width="73.98" height="26.469"/>
	</g>
</g>
<g>
	<g>
		
			<rect x="1086.513" y="82.127" fill="none" stroke="#0000FF" stroke-width="0.0283" stroke-miterlimit="10" width="100.12" height="354.331"/>
		<circle fill="none" stroke="#0000FF" stroke-width="0.0283" stroke-miterlimit="10" cx="1107.774" cy="90.632" r="4.677"/>
		<circle fill="none" stroke="#0000FF" stroke-width="0.0283" stroke-miterlimit="10" cx="1165.373" cy="90.632" r="4.677"/>
		<circle fill="none" stroke="#0000FF" stroke-width="0.0283" stroke-miterlimit="10" cx="1165.373" cy="427.955" r="4.677"/>
		<circle fill="none" stroke="#0000FF" stroke-width="0.0283" stroke-miterlimit="10" cx="1107.774" cy="427.955" r="4.677"/>
	</g>
	<g>
		<circle fill="none" stroke="#0000FF" stroke-width="0.0283" stroke-miterlimit="10" cx="1116.531" cy="118.987" r="11.338"/>
		<circle fill="none" stroke="#0000FF" stroke-width="0.0283" stroke-miterlimit="10" cx="1156.619" cy="159.075" r="11.338"/>
		<circle fill="none" stroke="#0000FF" stroke-width="0.0283" stroke-miterlimit="10" cx="1116.531" cy="199.161" r="11.338"/>
		<circle fill="none" stroke="#0000FF" stroke-width="0.0283" stroke-miterlimit="10" cx="1156.619" cy="239.249" r="11.338"/>
		<circle fill="none" stroke="#0000FF" stroke-width="0.0283" stroke-miterlimit="10" cx="1116.531" cy="279.337" r="11.338"/>
		<circle fill="none" stroke="#0000FF" stroke-width="0.0283" stroke-miterlimit="10" cx="1156.619" cy="319.425" r="11.339"/>
		<circle fill="none" stroke="#0000FF" stroke-width="0.0283" stroke-miterlimit="10" cx="1116.531" cy="359.513" r="11.339"/>
		<circle fill="none" stroke="#0000FF" stroke-width="0.0283" stroke-miterlimit="10" cx="1156.619" cy="399.601" r="11.339"/>
		<circle fill="none" stroke="#0000FF" stroke-width="0.0283" stroke-miterlimit="10" cx="1156.617" cy="118.985" r="4.677"/>
	</g>
</g>
<circle fill="none" stroke="#0000FF" stroke-width="0.0283" stroke-miterlimit="10" cx="1242.41" cy="105.886" r="4.677"/>
<circle fill="none" stroke="#0000FF" stroke-width="0.0283" stroke-miterlimit="10" cx="1300.008" cy="105.886" r="4.677"/>
<circle fill="none" stroke="#0000FF" stroke-width="0.0283" stroke-miterlimit="10" cx="1242.41" cy="412.701" r="4.677"/>
<circle fill="none" stroke="#0000FF" stroke-width="0.0283" stroke-miterlimit="10" cx="1300.008" cy="412.701" r="4.677"/>
<circle fill="none" stroke="#0000FF" stroke-width="0.0283" stroke-miterlimit="10" cx="1156.617" cy="279.337" r="4.677"/>
<circle fill="none" stroke="#0000FF" stroke-width="0.0283" stroke-miterlimit="10" cx="1116.53" cy="239.25" r="4.677"/>
<circle fill="none" stroke="#0000FF" stroke-width="0.0283" stroke-miterlimit="10" cx="1116.53" cy="399.601" r="4.677"/>
<g>
	<path fill="none" stroke="#0000FF" stroke-width="0.0283" stroke-miterlimit="10" d="M525.029,498.734
		c-2.583,0-4.678,2.095-4.678,4.678s2.095,4.678,4.678,4.678s4.677-2.095,4.677-4.678S527.612,498.734,525.029,498.734"/>
	<path fill="none" stroke="#0000FF" stroke-width="0.0283" stroke-miterlimit="10" d="M525.029,729.135
		c-2.583,0-4.678,2.094-4.678,4.678c0,2.582,2.095,4.677,4.678,4.677s4.677-2.095,4.677-4.677
		C529.706,731.229,527.612,729.135,525.029,729.135"/>
	<path fill="none" stroke="#0000FF" stroke-width="0.0283" stroke-miterlimit="10" d="M525.029,959.536
		c-2.583,0-4.678,2.094-4.678,4.678c0,2.582,2.095,4.676,4.678,4.676s4.677-2.094,4.677-4.676
		C529.706,961.63,527.612,959.536,525.029,959.536"/>
	<path fill="none" stroke="#0000FF" stroke-width="0.0283" stroke-miterlimit="10" d="M525.029,945.136
		c-2.583,0-4.678,2.095-4.678,4.679s2.095,4.678,4.678,4.678s4.677-2.094,4.677-4.678S527.612,945.136,525.029,945.136"/>
	<path fill="none" stroke="#0000FF" stroke-width="0.0283" stroke-miterlimit="10" d="M525.029,930.735
		c-2.583,0-4.678,2.096-4.678,4.678c0,2.584,2.095,4.678,4.678,4.678s4.677-2.094,4.677-4.678
		C529.706,932.831,527.612,930.735,525.029,930.735"/>
	<path fill="none" stroke="#0000FF" stroke-width="0.0283" stroke-miterlimit="10" d="M525.029,916.337
		c-2.583,0-4.678,2.094-4.678,4.676c0,2.584,2.095,4.679,4.678,4.679s4.677-2.095,4.677-4.679
		C529.706,918.431,527.612,916.337,525.029,916.337"/>
	<path fill="none" stroke="#0000FF" stroke-width="0.0283" stroke-miterlimit="10" d="M525.029,901.938
		c-2.583,0-4.678,2.094-4.678,4.678c0,2.582,2.095,4.676,4.678,4.676s4.677-2.094,4.677-4.676
		C529.706,904.03,527.612,901.938,525.029,901.938"/>
	<path fill="none" stroke="#0000FF" stroke-width="0.0283" stroke-miterlimit="10" d="M525.029,887.536
		c-2.583,0-4.678,2.094-4.678,4.678c0,2.582,2.095,4.676,4.678,4.676s4.677-2.094,4.677-4.676
		C529.706,889.63,527.612,887.536,525.029,887.536"/>
	<path fill="none" stroke="#0000FF" stroke-width="0.0283" stroke-miterlimit="10" d="M525.029,873.136
		c-2.583,0-4.678,2.095-4.678,4.679s2.095,4.678,4.678,4.678s4.677-2.094,4.677-4.678S527.612,873.136,525.029,873.136"/>
	<path fill="none" stroke="#0000FF" stroke-width="0.0283" stroke-miterlimit="10" d="M525.029,829.938
		c-2.583,0-4.678,2.094-4.678,4.678c0,2.582,2.095,4.676,4.678,4.676s4.677-2.094,4.677-4.676
		C529.706,832.03,527.612,829.938,525.029,829.938"/>
	<path fill="none" stroke="#0000FF" stroke-width="0.0283" stroke-miterlimit="10" d="M525.029,815.536
		c-2.583,0-4.678,2.094-4.678,4.678c0,2.582,2.095,4.676,4.678,4.676s4.677-2.094,4.677-4.676
		C529.706,817.63,527.612,815.536,525.029,815.536"/>
	<path fill="none" stroke="#0000FF" stroke-width="0.0283" stroke-miterlimit="10" d="M525.029,801.136
		c-2.583,0-4.678,2.095-4.678,4.679s2.095,4.678,4.678,4.678s4.677-2.094,4.677-4.678S527.612,801.136,525.029,801.136"/>
	<path fill="none" stroke="#0000FF" stroke-width="0.0283" stroke-miterlimit="10" d="M525.029,786.736
		c-2.583,0-4.678,2.094-4.678,4.678c0,2.583,2.095,4.677,4.678,4.677s4.677-2.094,4.677-4.677
		C529.706,788.83,527.612,786.736,525.029,786.736"/>
	<path fill="none" stroke="#0000FF" stroke-width="0.0283" stroke-miterlimit="10" d="M525.029,772.336
		c-2.583,0-4.678,2.094-4.678,4.678s2.095,4.679,4.678,4.679s4.677-2.095,4.677-4.679S527.612,772.336,525.029,772.336"/>
	<path fill="none" stroke="#0000FF" stroke-width="0.0283" stroke-miterlimit="10" d="M525.029,757.936
		c-2.583,0-4.678,2.097-4.678,4.679c0,2.584,2.095,4.678,4.678,4.678s4.677-2.094,4.677-4.678
		C529.706,760.031,527.612,757.936,525.029,757.936"/>
	<path fill="none" stroke="#0000FF" stroke-width="0.0283" stroke-miterlimit="10" d="M525.029,743.537
		c-2.583,0-4.678,2.094-4.678,4.676c0,2.584,2.095,4.678,4.678,4.678s4.677-2.094,4.677-4.678
		C529.706,745.631,527.612,743.537,525.029,743.537"/>
	<path fill="none" stroke="#0000FF" stroke-width="0.0283" stroke-miterlimit="10" d="M525.029,714.734
		c-2.583,0-4.678,2.094-4.678,4.678c0,2.582,2.095,4.678,4.678,4.678s4.677-2.096,4.677-4.678
		C529.706,716.828,527.612,714.734,525.029,714.734"/>
	<path fill="none" stroke="#0000FF" stroke-width="0.0283" stroke-miterlimit="10" d="M525.029,700.334
		c-2.583,0-4.678,2.094-4.678,4.678s2.095,4.678,4.678,4.678s4.677-2.094,4.677-4.678S527.612,700.334,525.029,700.334"/>
	<path fill="none" stroke="#0000FF" stroke-width="0.0283" stroke-miterlimit="10" d="M525.029,685.934
		c-2.583,0-4.678,2.097-4.678,4.679c0,2.584,2.095,4.678,4.678,4.678s4.677-2.094,4.677-4.678
		C529.706,688.029,527.612,685.934,525.029,685.934"/>
	<path fill="none" stroke="#0000FF" stroke-width="0.0283" stroke-miterlimit="10" d="M525.029,671.535
		c-2.583,0-4.678,2.094-4.678,4.676c0,2.584,2.095,4.678,4.678,4.678s4.677-2.094,4.677-4.678
		C529.706,673.629,527.612,671.535,525.029,671.535"/>
	<path fill="none" stroke="#0000FF" stroke-width="0.0283" stroke-miterlimit="10" d="M525.029,657.135
		c-2.583,0-4.678,2.094-4.678,4.678c0,2.582,2.095,4.677,4.678,4.677s4.677-2.095,4.677-4.677
		C529.706,659.229,527.612,657.135,525.029,657.135"/>
	<path fill="none" stroke="#0000FF" stroke-width="0.0283" stroke-miterlimit="10" d="M525.029,642.734
		c-2.583,0-4.678,2.094-4.678,4.678c0,2.582,2.095,4.678,4.678,4.678s4.677-2.096,4.677-4.678
		C529.706,644.828,527.612,642.734,525.029,642.734"/>
	<path fill="none" stroke="#0000FF" stroke-width="0.0283" stroke-miterlimit="10" d="M525.029,628.334
		c-2.583,0-4.678,2.094-4.678,4.678s2.095,4.678,4.678,4.678s4.677-2.094,4.677-4.678S527.612,628.334,525.029,628.334"/>
	<path fill="none" stroke="#0000FF" stroke-width="0.0283" stroke-miterlimit="10" d="M525.029,613.934
		c-2.583,0-4.678,2.097-4.678,4.679c0,2.584,2.095,4.678,4.678,4.678s4.677-2.094,4.677-4.678
		C529.706,616.029,527.612,613.934,525.029,613.934"/>
	<path fill="none" stroke="#0000FF" stroke-width="0.0283" stroke-miterlimit="10" d="M525.029,599.535
		c-2.583,0-4.678,2.094-4.678,4.676c0,2.584,2.095,4.678,4.678,4.678s4.677-2.094,4.677-4.678
		C529.706,601.629,527.612,599.535,525.029,599.535"/>
	<path fill="none" stroke="#0000FF" stroke-width="0.0283" stroke-miterlimit="10" d="M525.029,585.135
		c-2.583,0-4.678,2.094-4.678,4.678c0,2.582,2.095,4.677,4.678,4.677s4.677-2.095,4.677-4.677
		C529.706,587.229,527.612,585.135,525.029,585.135"/>
	<path fill="none" stroke="#0000FF" stroke-width="0.0283" stroke-miterlimit="10" d="M525.029,570.734
		c-2.583,0-4.678,2.094-4.678,4.678c0,2.582,2.095,4.678,4.678,4.678s4.677-2.096,4.677-4.678
		C529.706,572.828,527.612,570.734,525.029,570.734"/>
	<path fill="none" stroke="#0000FF" stroke-width="0.0283" stroke-miterlimit="10" d="M525.029,858.735
		c-2.583,0-4.678,2.096-4.678,4.678c0,2.584,2.095,4.678,4.678,4.678s4.677-2.094,4.677-4.678
		C529.706,860.831,527.612,858.735,525.029,858.735"/>
	<path fill="none" stroke="#0000FF" stroke-width="0.0283" stroke-miterlimit="10" d="M525.029,844.337
		c-2.583,0-4.678,2.094-4.678,4.676c0,2.584,2.095,4.679,4.678,4.679s4.677-2.095,4.677-4.679
		C529.706,846.431,527.612,844.337,525.029,844.337"/>
	<path fill="none" stroke="#0000FF" stroke-width="0.0283" stroke-miterlimit="10" d="M525.029,556.334
		c-2.583,0-4.678,2.094-4.678,4.678s2.095,4.678,4.678,4.678s4.677-2.094,4.677-4.678S527.612,556.334,525.029,556.334"/>
	<path fill="none" stroke="#0000FF" stroke-width="0.0283" stroke-miterlimit="10" d="M525.029,973.938
		c-2.583,0-4.678,2.094-4.678,4.678c0,2.582,2.095,4.676,4.678,4.676s4.677-2.094,4.677-4.676
		C529.706,976.03,527.612,973.938,525.029,973.938"/>
	<path fill="none" stroke="#0000FF" stroke-width="0.0283" stroke-miterlimit="10" d="M525.029,513.134
		c-2.583,0-4.678,2.094-4.678,4.678c0,2.583,2.095,4.678,4.678,4.678s4.677-2.095,4.677-4.678S527.612,513.134,525.029,513.134"/>
	<path fill="none" stroke="#0000FF" stroke-width="0.0283" stroke-miterlimit="10" d="M525.029,527.535
		c-2.583,0-4.678,2.094-4.678,4.677s2.095,4.678,4.678,4.678s4.677-2.095,4.677-4.678S527.612,527.535,525.029,527.535"/>
	<path fill="none" stroke="#0000FF" stroke-width="0.0283" stroke-miterlimit="10" d="M525.029,541.934
		c-2.583,0-4.678,2.096-4.678,4.678c0,2.584,2.095,4.678,4.678,4.678s4.677-2.094,4.677-4.678
		C529.706,544.029,527.612,541.934,525.029,541.934"/>
	<polyline fill="none" stroke="#0000FF" stroke-width="0.0283" stroke-miterlimit="10" points="504.904,611.582 504.904,639.928 
		513.407,639.928 513.407,726.838 504.904,726.838 504.904,755.186 513.407,755.186 513.407,842.153 504.904,842.153 
		504.904,870.499 513.407,870.499 513.407,964.438 504.904,964.438 504.904,992.786 513.407,992.786 513.407,1008.376 
		536.652,1008.376 536.652,473.648 513.407,473.648 513.407,489.238 504.904,489.238 504.904,517.583 513.407,517.583 
		513.407,611.582 504.904,611.582 	"/>
</g>
<g>
	<path fill="none" stroke="#0000FF" stroke-width="0.0283" stroke-miterlimit="10" d="M568.146,983.289
		c2.584,0,4.678-2.095,4.678-4.678s-2.094-4.679-4.678-4.679c-2.582,0-4.677,2.096-4.677,4.679S565.564,983.289,568.146,983.289"/>
	<path fill="none" stroke="#0000FF" stroke-width="0.0283" stroke-miterlimit="10" d="M568.146,752.889
		c2.584,0,4.678-2.094,4.678-4.678c0-2.583-2.094-4.677-4.678-4.677c-2.582,0-4.677,2.094-4.677,4.677
		C563.47,750.795,565.564,752.889,568.146,752.889"/>
	<path fill="none" stroke="#0000FF" stroke-width="0.0283" stroke-miterlimit="10" d="M568.146,522.487
		c2.584,0,4.679-2.095,4.679-4.679c0-2.582-2.095-4.676-4.679-4.676c-2.582,0-4.677,2.094-4.677,4.676
		C563.47,520.393,565.564,522.487,568.146,522.487"/>
	<path fill="none" stroke="#0000FF" stroke-width="0.0283" stroke-miterlimit="10" d="M568.146,536.887
		c2.584,0,4.679-2.094,4.679-4.678s-2.095-4.678-4.679-4.678c-2.582,0-4.677,2.094-4.677,4.678S565.564,536.887,568.146,536.887"/>
	<path fill="none" stroke="#0000FF" stroke-width="0.0283" stroke-miterlimit="10" d="M568.146,551.287
		c2.584,0,4.679-2.096,4.679-4.678c0-2.583-2.095-4.678-4.679-4.678c-2.582,0-4.677,2.095-4.677,4.678
		C563.47,549.191,565.564,551.287,568.146,551.287"/>
	<path fill="none" stroke="#0000FF" stroke-width="0.0283" stroke-miterlimit="10" d="M568.146,565.686
		c2.584,0,4.679-2.094,4.679-4.676c0-2.584-2.095-4.678-4.679-4.678c-2.582,0-4.677,2.094-4.677,4.678
		C563.47,563.592,565.564,565.686,568.146,565.686"/>
	<path fill="none" stroke="#0000FF" stroke-width="0.0283" stroke-miterlimit="10" d="M568.146,580.086
		c2.584,0,4.679-2.094,4.679-4.678c0-2.582-2.095-4.676-4.679-4.676c-2.582,0-4.677,2.094-4.677,4.676
		C563.47,577.992,565.564,580.086,568.146,580.086"/>
	<path fill="none" stroke="#0000FF" stroke-width="0.0283" stroke-miterlimit="10" d="M568.146,594.486
		c2.584,0,4.679-2.095,4.679-4.679c0-2.581-2.095-4.676-4.679-4.676c-2.582,0-4.677,2.094-4.677,4.676
		C563.47,592.393,565.564,594.486,568.146,594.486"/>
	<path fill="none" stroke="#0000FF" stroke-width="0.0283" stroke-miterlimit="10" d="M568.146,608.887
		c2.584,0,4.679-2.094,4.679-4.678s-2.095-4.678-4.679-4.678c-2.582,0-4.677,2.094-4.677,4.678S565.564,608.887,568.146,608.887"/>
	<path fill="none" stroke="#0000FF" stroke-width="0.0283" stroke-miterlimit="10" d="M568.146,652.086
		c2.584,0,4.678-2.094,4.678-4.678c0-2.582-2.094-4.676-4.678-4.676c-2.582,0-4.677,2.094-4.677,4.676
		C563.47,649.992,565.564,652.086,568.146,652.086"/>
	<path fill="none" stroke="#0000FF" stroke-width="0.0283" stroke-miterlimit="10" d="M568.146,666.486
		c2.584,0,4.678-2.095,4.678-4.679c0-2.581-2.094-4.676-4.678-4.676c-2.582,0-4.677,2.094-4.677,4.676
		C563.47,664.393,565.564,666.486,568.146,666.486"/>
	<path fill="none" stroke="#0000FF" stroke-width="0.0283" stroke-miterlimit="10" d="M568.146,680.887
		c2.584,0,4.678-2.094,4.678-4.678s-2.094-4.678-4.678-4.678c-2.582,0-4.677,2.094-4.677,4.678S565.564,680.887,568.146,680.887"/>
	<path fill="none" stroke="#0000FF" stroke-width="0.0283" stroke-miterlimit="10" d="M568.146,695.287
		c2.584,0,4.678-2.095,4.678-4.678c0-2.584-2.094-4.679-4.678-4.679c-2.582,0-4.677,2.095-4.677,4.679
		C563.47,693.192,565.564,695.287,568.146,695.287"/>
	<path fill="none" stroke="#0000FF" stroke-width="0.0283" stroke-miterlimit="10" d="M568.146,709.688
		c2.584,0,4.678-2.095,4.678-4.678c0-2.584-2.094-4.678-4.678-4.678c-2.582,0-4.677,2.094-4.677,4.678
		C563.47,707.593,565.564,709.688,568.146,709.688"/>
	<path fill="none" stroke="#0000FF" stroke-width="0.0283" stroke-miterlimit="10" d="M568.146,724.087
		c2.584,0,4.678-2.095,4.678-4.678s-2.094-4.677-4.678-4.677c-2.582,0-4.677,2.094-4.677,4.677S565.564,724.087,568.146,724.087"/>
	<path fill="none" stroke="#0000FF" stroke-width="0.0283" stroke-miterlimit="10" d="M568.146,738.486
		c2.584,0,4.678-2.095,4.678-4.678s-2.094-4.677-4.678-4.677c-2.582,0-4.677,2.094-4.677,4.677S565.564,738.486,568.146,738.486"/>
	<path fill="none" stroke="#0000FF" stroke-width="0.0283" stroke-miterlimit="10" d="M568.146,767.289
		c2.584,0,4.678-2.095,4.678-4.678s-2.094-4.679-4.678-4.679c-2.582,0-4.677,2.096-4.677,4.679S565.564,767.289,568.146,767.289"/>
	<path fill="none" stroke="#0000FF" stroke-width="0.0283" stroke-miterlimit="10" d="M568.146,781.688
		c2.584,0,4.678-2.094,4.678-4.677c0-2.584-2.094-4.678-4.678-4.678c-2.582,0-4.677,2.094-4.677,4.678
		S565.564,781.688,568.146,781.688"/>
	<path fill="none" stroke="#0000FF" stroke-width="0.0283" stroke-miterlimit="10" d="M568.146,796.089
		c2.584,0,4.678-2.095,4.678-4.678s-2.094-4.677-4.678-4.677c-2.582,0-4.677,2.094-4.677,4.677S565.564,796.089,568.146,796.089"/>
	<path fill="none" stroke="#0000FF" stroke-width="0.0283" stroke-miterlimit="10" d="M568.146,810.488
		c2.584,0,4.678-2.095,4.678-4.678s-2.094-4.678-4.678-4.678c-2.582,0-4.677,2.095-4.677,4.678S565.564,810.488,568.146,810.488"/>
	<path fill="none" stroke="#0000FF" stroke-width="0.0283" stroke-miterlimit="10" d="M568.146,824.889
		c2.584,0,4.678-2.094,4.678-4.678c0-2.583-2.094-4.677-4.678-4.677c-2.582,0-4.677,2.094-4.677,4.677
		C563.47,822.795,565.564,824.889,568.146,824.889"/>
	<path fill="none" stroke="#0000FF" stroke-width="0.0283" stroke-miterlimit="10" d="M568.146,839.289
		c2.584,0,4.678-2.095,4.678-4.678s-2.094-4.679-4.678-4.679c-2.582,0-4.677,2.096-4.677,4.679S565.564,839.289,568.146,839.289"/>
	<path fill="none" stroke="#0000FF" stroke-width="0.0283" stroke-miterlimit="10" d="M568.146,853.688
		c2.584,0,4.678-2.094,4.678-4.677c0-2.584-2.094-4.678-4.678-4.678c-2.582,0-4.677,2.094-4.677,4.678
		S565.564,853.688,568.146,853.688"/>
	<path fill="none" stroke="#0000FF" stroke-width="0.0283" stroke-miterlimit="10" d="M568.146,868.089
		c2.584,0,4.678-2.095,4.678-4.678s-2.094-4.677-4.678-4.677c-2.582,0-4.677,2.094-4.677,4.677S565.564,868.089,568.146,868.089"/>
	<path fill="none" stroke="#0000FF" stroke-width="0.0283" stroke-miterlimit="10" d="M568.146,882.488
		c2.584,0,4.678-2.095,4.678-4.678s-2.094-4.678-4.678-4.678c-2.582,0-4.677,2.095-4.677,4.678S565.564,882.488,568.146,882.488"/>
	<path fill="none" stroke="#0000FF" stroke-width="0.0283" stroke-miterlimit="10" d="M568.146,896.889
		c2.584,0,4.678-2.094,4.678-4.678c0-2.583-2.094-4.677-4.678-4.677c-2.582,0-4.677,2.094-4.677,4.677
		C563.47,894.795,565.564,896.889,568.146,896.889"/>
	<path fill="none" stroke="#0000FF" stroke-width="0.0283" stroke-miterlimit="10" d="M568.146,911.289
		c2.584,0,4.678-2.095,4.678-4.678s-2.094-4.679-4.678-4.679c-2.582,0-4.677,2.096-4.677,4.679S565.564,911.289,568.146,911.289"/>
	<path fill="none" stroke="#0000FF" stroke-width="0.0283" stroke-miterlimit="10" d="M568.146,623.287
		c2.584,0,4.679-2.096,4.679-4.678c0-2.584-2.095-4.679-4.679-4.679c-2.582,0-4.677,2.095-4.677,4.679
		C563.47,621.191,565.564,623.287,568.146,623.287"/>
	<path fill="none" stroke="#0000FF" stroke-width="0.0283" stroke-miterlimit="10" d="M568.146,637.686
		c2.584,0,4.679-2.094,4.679-4.676c0-2.584-2.095-4.678-4.679-4.678c-2.582,0-4.677,2.094-4.677,4.678
		C563.47,635.592,565.564,637.686,568.146,637.686"/>
	<path fill="none" stroke="#0000FF" stroke-width="0.0283" stroke-miterlimit="10" d="M568.146,925.688
		c2.584,0,4.678-2.094,4.678-4.677c0-2.584-2.094-4.678-4.678-4.678c-2.582,0-4.677,2.094-4.677,4.678
		S565.564,925.688,568.146,925.688"/>
	<path fill="none" stroke="#0000FF" stroke-width="0.0283" stroke-miterlimit="10" d="M568.146,508.086
		c2.584,0,4.679-2.094,4.679-4.678c0-2.582-2.095-4.676-4.679-4.676c-2.582,0-4.677,2.094-4.677,4.676
		C563.47,505.993,565.564,508.086,568.146,508.086"/>
	<path fill="none" stroke="#0000FF" stroke-width="0.0283" stroke-miterlimit="10" d="M568.146,968.889
		c2.584,0,4.678-2.094,4.678-4.678c0-2.583-2.094-4.677-4.678-4.677c-2.582,0-4.677,2.094-4.677,4.677
		C563.47,966.795,565.564,968.889,568.146,968.889"/>
	<path fill="none" stroke="#0000FF" stroke-width="0.0283" stroke-miterlimit="10" d="M568.146,954.488
		c2.584,0,4.678-2.095,4.678-4.678s-2.094-4.678-4.678-4.678c-2.582,0-4.677,2.095-4.677,4.678S565.564,954.488,568.146,954.488"/>
	<path fill="none" stroke="#0000FF" stroke-width="0.0283" stroke-miterlimit="10" d="M568.146,940.089
		c2.584,0,4.678-2.095,4.678-4.678s-2.094-4.677-4.678-4.677c-2.582,0-4.677,2.094-4.677,4.677S565.564,940.089,568.146,940.089"/>
	<polyline fill="none" stroke="#0000FF" stroke-width="0.0283" stroke-miterlimit="10" points="588.271,870.441 588.271,842.095 
		579.769,842.095 579.769,755.186 588.271,755.186 588.271,726.837 579.769,726.837 579.769,639.869 588.271,639.869 
		588.271,611.523 579.769,611.523 579.769,517.584 588.271,517.584 588.271,489.237 579.769,489.237 579.769,473.647 
		556.524,473.647 556.523,1008.375 579.769,1008.375 579.769,992.785 588.271,992.785 588.271,964.439 579.769,964.439 
		579.769,870.441 588.271,870.441 	"/>
</g>
<g>
	<path fill="none" stroke="#0000FF" stroke-width="0.0283" stroke-miterlimit="10" d="M1052.646,489.721
		c0-4.696-3.808-8.504-8.505-8.504"/>
	
		<line fill="none" stroke="#0000FF" stroke-width="0.0283" stroke-miterlimit="10" x1="1052.645" y1="489.722" x2="1052.645" y2="1024.453"/>
	
		<line fill="none" stroke="#0000FF" stroke-width="0.0283" stroke-miterlimit="10" x1="1044.141" y1="1032.955" x2="639.634" y2="1032.955"/>
	
		<line fill="none" stroke="#0000FF" stroke-width="0.0283" stroke-miterlimit="10" x1="631.131" y1="1024.453" x2="631.131" y2="489.722"/>
	<polyline fill="none" stroke="#0000FF" stroke-width="0.0283" stroke-miterlimit="10" points="940.817,1015.664 940.817,1024.734 
		969.731,1024.734 969.731,1015.664 940.817,1015.664 	"/>
	<polyline fill="none" stroke="#0000FF" stroke-width="0.0283" stroke-miterlimit="10" points="827.43,1015.664 827.43,1024.734 
		856.345,1024.734 856.345,1015.664 827.43,1015.664 	"/>
	<polyline fill="none" stroke="#0000FF" stroke-width="0.0283" stroke-miterlimit="10" points="1035.354,944.799 1035.354,973.713 
		1044.424,973.713 1044.424,944.799 1035.354,944.799 	"/>
	<polyline fill="none" stroke="#0000FF" stroke-width="0.0283" stroke-miterlimit="10" points="1035.354,540.462 1035.354,569.377 
		1044.424,569.377 1044.424,540.462 1035.354,540.462 	"/>
	<polyline fill="none" stroke="#0000FF" stroke-width="0.0283" stroke-miterlimit="10" points="1035.354,742.629 1035.354,771.545 
		1044.424,771.545 1044.424,742.629 1035.354,742.629 	"/>
	<polyline fill="none" stroke="#0000FF" stroke-width="0.0283" stroke-miterlimit="10" points="714.044,1015.664 714.044,1024.734 
		742.958,1024.734 742.958,1015.664 714.044,1015.664 	"/>
	<polyline fill="none" stroke="#0000FF" stroke-width="0.0283" stroke-miterlimit="10" points="648.422,944.799 639.352,944.799 
		639.352,973.713 648.422,973.713 648.422,944.799 	"/>
	<polyline fill="none" stroke="#0000FF" stroke-width="0.0283" stroke-miterlimit="10" points="648.422,742.629 639.352,742.629 
		639.352,771.545 	"/>
	<path fill="none" stroke="#0000FF" stroke-width="0.0283" stroke-miterlimit="10" d="M1044.142,1032.955
		c4.697,0,8.505-3.807,8.505-8.504"/>
	
		<line fill="none" stroke="#0000FF" stroke-width="0.0283" stroke-miterlimit="10" x1="639.352" y1="771.545" x2="648.422" y2="771.545"/>
	<path fill="none" stroke="#0000FF" stroke-width="0.0283" stroke-miterlimit="10" d="M631.131,1024.451
		c0,4.697,3.807,8.504,8.504,8.504"/>
	
		<line fill="none" stroke="#0000FF" stroke-width="0.0283" stroke-miterlimit="10" x1="648.422" y1="771.545" x2="648.422" y2="742.629"/>
	<path fill="none" stroke="#0000FF" stroke-width="0.0283" stroke-miterlimit="10" d="M639.635,481.217
		c-4.697,0-8.504,3.809-8.504,8.504"/>
	<polyline fill="none" stroke="#0000FF" stroke-width="0.0283" stroke-miterlimit="10" points="648.422,540.462 639.352,540.462 
		639.352,569.377 648.422,569.377 648.422,540.462 	"/>
	<polyline fill="none" stroke="#0000FF" stroke-width="0.0283" stroke-miterlimit="10" points="742.958,489.439 714.044,489.439 
		714.044,498.51 742.958,498.51 742.958,489.439 	"/>
	<polyline fill="none" stroke="#0000FF" stroke-width="0.0283" stroke-miterlimit="10" points="856.345,489.439 827.43,489.439 
		827.43,498.51 856.345,498.51 856.345,489.439 	"/>
	<polyline fill="none" stroke="#0000FF" stroke-width="0.0283" stroke-miterlimit="10" points="969.731,489.439 940.817,489.439 
		940.817,498.51 969.731,498.51 969.731,489.439 	"/>
	
		<line fill="none" stroke="#0000FF" stroke-width="0.0283" stroke-miterlimit="10" x1="639.634" y1="481.219" x2="1044.141" y2="481.219"/>
</g>
<g>
	<polyline fill="none" stroke="#0000FF" stroke-width="0.0283" stroke-miterlimit="10" points="42.315,755.188 42.315,929.007 
		33.813,929.007 33.813,957.354 42.315,957.354 42.315,999.872 84.835,999.872 84.835,1008.376 113.182,1008.376 113.182,999.872 
		169.874,999.872 169.874,1008.376 198.221,1008.376 198.221,999.872 218.063,999.872 218.063,1008.376 226.569,1008.376 
		226.569,999.872 243.575,999.872 243.575,482.151 226.569,482.151 226.569,473.648 218.063,473.648 218.063,482.151 
		198.221,482.151 198.221,473.648 169.874,473.648 169.874,482.151 113.182,482.151 113.182,473.648 84.835,473.648 84.835,482.151 
			"/>
	<polyline fill="none" stroke="#0000FF" stroke-width="0.0283" stroke-miterlimit="10" points="226.852,964.155 217.782,964.155 
		217.782,993.069 226.852,993.069 226.852,964.155 	"/>
	<polyline fill="none" stroke="#0000FF" stroke-width="0.0283" stroke-miterlimit="10" points="226.852,488.956 217.782,488.956 
		217.782,517.869 226.852,517.869 226.852,488.956 	"/>
	<polyline fill="none" stroke="#0000FF" stroke-width="0.0283" stroke-miterlimit="10" points="226.852,611.241 217.782,611.241 
		217.782,640.155 226.852,640.155 226.852,611.241 	"/>
	<polyline fill="none" stroke="#0000FF" stroke-width="0.0283" stroke-miterlimit="10" points="217.782,755.47 226.852,755.47 
		226.852,726.556 217.782,726.556 217.782,755.47 	"/>
	<polyline fill="none" stroke="#0000FF" stroke-width="0.0283" stroke-miterlimit="10" points="226.852,841.813 217.782,841.813 
		217.782,870.726 226.852,870.726 226.852,841.813 	"/>
	<polyline fill="none" stroke="#0000FF" stroke-width="0.0283" stroke-miterlimit="10" points="42.315,755.188 33.813,755.188 
		33.813,726.839 42.315,726.839 42.315,553.017 33.813,553.017 33.813,524.67 42.315,524.67 42.315,482.151 84.835,482.151 	"/>
</g>
<g>
	<polyline fill="none" stroke="#0000FF" stroke-width="0.0283" stroke-miterlimit="10" points="456.959,726.838 456.959,553.017 
		465.462,553.017 465.462,524.67 456.959,524.67 456.959,482.152 414.44,482.152 414.44,473.648 386.093,473.648 386.093,482.152 
		329.4,482.152 329.4,473.648 301.054,473.648 301.054,482.152 281.211,482.152 281.211,473.648 272.706,473.648 272.706,482.152 
		255.7,482.152 255.7,999.873 272.706,999.873 272.706,1008.376 281.211,1008.376 281.211,999.873 301.054,999.873 
		301.054,1008.376 329.4,1008.376 329.4,999.873 386.093,999.873 386.093,1008.376 414.44,1008.376 414.44,999.873 	"/>
	<polyline fill="none" stroke="#0000FF" stroke-width="0.0283" stroke-miterlimit="10" points="272.423,517.869 281.494,517.869 
		281.494,488.955 272.423,488.955 272.423,517.869 	"/>
	<polyline fill="none" stroke="#0000FF" stroke-width="0.0283" stroke-miterlimit="10" points="272.423,993.068 281.494,993.068 
		281.494,964.155 272.423,964.155 272.423,993.068 	"/>
	<polyline fill="none" stroke="#0000FF" stroke-width="0.0283" stroke-miterlimit="10" points="272.423,870.782 281.494,870.782 
		281.494,841.869 272.423,841.869 272.423,870.782 	"/>
	<polyline fill="none" stroke="#0000FF" stroke-width="0.0283" stroke-miterlimit="10" points="281.494,726.555 272.423,726.555 
		272.423,755.469 281.494,755.469 281.494,726.555 	"/>
	<polyline fill="none" stroke="#0000FF" stroke-width="0.0283" stroke-miterlimit="10" points="272.423,640.211 281.494,640.211 
		281.494,611.298 272.423,611.298 272.423,640.211 	"/>
	<polyline fill="none" stroke="#0000FF" stroke-width="0.0283" stroke-miterlimit="10" points="456.959,726.838 465.462,726.838 
		465.462,755.186 456.959,755.186 456.959,929.007 465.462,929.007 465.462,957.354 456.959,957.354 456.959,999.873 
		414.44,999.873 	"/>
</g>
<g>
	<polyline fill="none" stroke="#0000FF" stroke-width="0.0283" stroke-miterlimit="10" points="639.354,385.152 648.425,385.152 
		648.425,414.065 	"/>
	<polyline fill="none" stroke="#0000FF" stroke-width="0.0283" stroke-miterlimit="10" points="639.354,300.111 648.425,300.111 
		648.425,329.024 	"/>
	<polyline fill="none" stroke="#0000FF" stroke-width="0.0283" stroke-miterlimit="10" points="671.668,280.837 671.668,271.765 
		639.354,271.765 	"/>
	<polyline fill="none" stroke="#0000FF" stroke-width="0.0283" stroke-miterlimit="10" points="1044.425,329.026 1035.354,329.026 
		1035.354,299.545 1035.639,299.545 1035.639,299.545 	"/>
	<polyline fill="none" stroke="#0000FF" stroke-width="0.0283" stroke-miterlimit="10" points="1044.425,280.838 1012.111,280.838 
		1012.111,280.553 1012.111,280.553 1012.111,272.05 1012.111,272.05 1012.111,271.766 	"/>
	<polyline fill="none" stroke="#0000FF" stroke-width="0.0283" stroke-miterlimit="10" points="1035.354,385.154 1035.354,414.067 
		1044.425,414.067 	"/>
	<path fill="none" stroke="#0000FF" stroke-width="0.0283" stroke-miterlimit="10" d="M639.637,255.041
		c-4.696,0-8.505,3.807-8.505,8.504"/>
	
		<line fill="none" stroke="#0000FF" stroke-width="0.0283" stroke-miterlimit="10" x1="969.449" y1="456.304" x2="969.449" y2="464.807"/>
	<path fill="none" stroke="#0000FF" stroke-width="0.0283" stroke-miterlimit="10" d="M1052.646,263.544
		c0-4.696-3.809-8.504-8.506-8.504"/>
	<polyline fill="none" stroke="#0000FF" stroke-width="0.0283" stroke-miterlimit="10" points="969.449,464.807 941.104,464.807 
		941.104,456.304 856.063,456.304 856.063,464.806 827.716,464.806 827.716,456.304 742.676,456.303 742.676,464.806 
		714.33,464.806 714.33,456.303 631.134,456.303 	"/>
	
		<line fill="none" stroke="#0000FF" stroke-width="0.0283" stroke-miterlimit="10" x1="648.425" y1="414.065" x2="639.354" y2="414.065"/>
	
		<line fill="none" stroke="#0000FF" stroke-width="0.0283" stroke-miterlimit="10" x1="648.425" y1="329.024" x2="639.354" y2="329.024"/>
	<polyline fill="none" stroke="#0000FF" stroke-width="0.0283" stroke-miterlimit="10" points="671.668,280.837 639.354,280.837 
		639.354,271.765 	"/>
	
		<line fill="none" stroke="#0000FF" stroke-width="0.0283" stroke-miterlimit="10" x1="639.354" y1="300.111" x2="639.354" y2="329.024"/>
	
		<line fill="none" stroke="#0000FF" stroke-width="0.0283" stroke-miterlimit="10" x1="639.354" y1="385.152" x2="639.354" y2="414.065"/>
	
		<line fill="none" stroke="#0000FF" stroke-width="0.0283" stroke-miterlimit="10" x1="1052.646" y1="263.545" x2="1052.646" y2="456.304"/>
	
		<line fill="none" stroke="#0000FF" stroke-width="0.0283" stroke-miterlimit="10" x1="1035.354" y1="385.154" x2="1044.425" y2="385.154"/>
	
		<line fill="none" stroke="#0000FF" stroke-width="0.0283" stroke-miterlimit="10" x1="1012.111" y1="271.766" x2="1044.425" y2="271.766"/>
	
		<line fill="none" stroke="#0000FF" stroke-width="0.0283" stroke-miterlimit="10" x1="1035.639" y1="299.541" x2="1044.425" y2="299.541"/>
	
		<line fill="none" stroke="#0000FF" stroke-width="0.0283" stroke-miterlimit="10" x1="969.449" y1="456.304" x2="1052.646" y2="456.304"/>
	
		<line fill="none" stroke="#0000FF" stroke-width="0.0283" stroke-miterlimit="10" x1="1044.425" y1="385.154" x2="1044.425" y2="414.067"/>
	
		<line fill="none" stroke="#0000FF" stroke-width="0.0283" stroke-miterlimit="10" x1="1044.425" y1="271.766" x2="1044.425" y2="280.838"/>
	
		<line fill="none" stroke="#0000FF" stroke-width="0.0283" stroke-miterlimit="10" x1="1044.425" y1="300.113" x2="1044.425" y2="329.026"/>
	
		<line fill="none" stroke="#0000FF" stroke-width="0.0283" stroke-miterlimit="10" x1="631.134" y1="456.303" x2="631.134" y2="263.545"/>
	
		<line fill="none" stroke="#0000FF" stroke-width="0.0283" stroke-miterlimit="10" x1="1044.143" y1="255.042" x2="639.637" y2="255.042"/>
</g>
<g>
	<polyline fill="none" stroke="#0000FF" stroke-width="0.0283" stroke-miterlimit="10" points="1044.423,106.442 1035.354,106.442 
		1035.354,77.528 	"/>
	<polyline fill="none" stroke="#0000FF" stroke-width="0.0283" stroke-miterlimit="10" points="1044.423,191.483 1035.354,191.483 
		1035.354,162.569 	"/>
	<polyline fill="none" stroke="#0000FF" stroke-width="0.0283" stroke-miterlimit="10" points="1012.11,210.757 1012.11,219.829 
		1044.423,219.829 	"/>
	<polyline fill="none" stroke="#0000FF" stroke-width="0.0283" stroke-miterlimit="10" points="639.354,162.568 648.423,162.568 
		648.423,192.049 648.139,192.049 648.139,192.049 	"/>
	<polyline fill="none" stroke="#0000FF" stroke-width="0.0283" stroke-miterlimit="10" points="639.354,210.756 671.666,210.756 
		671.666,211.041 671.666,211.041 671.666,219.544 671.666,219.544 671.666,219.828 	"/>
	<polyline fill="none" stroke="#0000FF" stroke-width="0.0283" stroke-miterlimit="10" points="648.423,106.44 648.423,77.527 
		639.354,77.527 	"/>
	<path fill="none" stroke="#0000FF" stroke-width="0.0283" stroke-miterlimit="10" d="M1044.142,236.554
		c4.697,0,8.505-3.807,8.505-8.504"/>
	
		<line fill="none" stroke="#0000FF" stroke-width="0.0283" stroke-miterlimit="10" x1="714.328" y1="35.29" x2="714.328" y2="26.787"/>
	<path fill="none" stroke="#0000FF" stroke-width="0.0283" stroke-miterlimit="10" d="M631.132,228.05
		c0,4.696,3.809,8.504,8.505,8.504"/>
	<polyline fill="none" stroke="#0000FF" stroke-width="0.0283" stroke-miterlimit="10" points="714.328,26.787 742.675,26.787 
		742.675,35.29 827.714,35.29 827.714,26.788 856.063,26.788 856.063,35.29 941.104,35.292 941.104,26.788 969.448,26.788 
		969.448,35.292 1052.645,35.292 	"/>
	
		<line fill="none" stroke="#0000FF" stroke-width="0.0283" stroke-miterlimit="10" x1="1035.354" y1="77.528" x2="1044.423" y2="77.528"/>
	
		<line fill="none" stroke="#0000FF" stroke-width="0.0283" stroke-miterlimit="10" x1="1035.354" y1="162.569" x2="1044.423" y2="162.569"/>
	<polyline fill="none" stroke="#0000FF" stroke-width="0.0283" stroke-miterlimit="10" points="1012.11,210.757 1044.423,210.757 
		1044.423,219.829 	"/>
	
		<line fill="none" stroke="#0000FF" stroke-width="0.0283" stroke-miterlimit="10" x1="1044.423" y1="191.483" x2="1044.423" y2="162.569"/>
	
		<line fill="none" stroke="#0000FF" stroke-width="0.0283" stroke-miterlimit="10" x1="1044.423" y1="106.442" x2="1044.423" y2="77.528"/>
	
		<line fill="none" stroke="#0000FF" stroke-width="0.0283" stroke-miterlimit="10" x1="631.132" y1="228.049" x2="631.132" y2="35.29"/>
	
		<line fill="none" stroke="#0000FF" stroke-width="0.0283" stroke-miterlimit="10" x1="648.423" y1="106.44" x2="639.354" y2="106.44"/>
	
		<line fill="none" stroke="#0000FF" stroke-width="0.0283" stroke-miterlimit="10" x1="671.666" y1="219.828" x2="639.354" y2="219.828"/>
	
		<line fill="none" stroke="#0000FF" stroke-width="0.0283" stroke-miterlimit="10" x1="648.139" y1="192.054" x2="639.354" y2="192.054"/>
	
		<line fill="none" stroke="#0000FF" stroke-width="0.0283" stroke-miterlimit="10" x1="714.328" y1="35.29" x2="631.132" y2="35.29"/>
	
		<line fill="none" stroke="#0000FF" stroke-width="0.0283" stroke-miterlimit="10" x1="639.354" y1="106.44" x2="639.354" y2="77.527"/>
	
		<line fill="none" stroke="#0000FF" stroke-width="0.0283" stroke-miterlimit="10" x1="639.354" y1="219.828" x2="639.354" y2="210.756"/>
	
		<line fill="none" stroke="#0000FF" stroke-width="0.0283" stroke-miterlimit="10" x1="639.354" y1="191.481" x2="639.354" y2="162.568"/>
	
		<line fill="none" stroke="#0000FF" stroke-width="0.0283" stroke-miterlimit="10" x1="1052.645" y1="35.292" x2="1052.645" y2="228.049"/>
	
		<line fill="none" stroke="#0000FF" stroke-width="0.0283" stroke-miterlimit="10" x1="639.635" y1="236.552" x2="1044.142" y2="236.552"/>
</g>
</svg>
