<?xml version="1.0" encoding="utf-8"?>
<!-- Generator: Adobe Illustrator 15.0.0, SVG Export Plug-In . SVG Version: 6.00 Build 0)  -->
<!DOCTYPE svg PUBLIC "-//W3C//DTD SVG 1.1//EN" "http://www.w3.org/Graphics/SVG/1.1/DTD/svg11.dtd">
<svg version="1.1" id="Layer_1" xmlns="http://www.w3.org/2000/svg" xmlns:xlink="http://www.w3.org/1999/xlink" x="0px" y="0px"
	 width="2239.371px" height="1088.504px" viewBox="0 0 2239.371 1088.504" enable-background="new 0 0 2239.371 1088.504"
	 xml:space="preserve">
<g id="Layer_1_1_">
	<g>
		<g id="CIRCLE_5_">
			<path fill="none" stroke="#0000FF" stroke-width="0.0283" stroke-miterlimit="10" d="M441.5,722.517
				c0-14.092,11.422-25.516,25.512-25.516s25.514,11.424,25.514,25.516s-11.424,25.512-25.514,25.512S441.5,736.606,441.5,722.517
				L441.5,722.517z"/>
		</g>
		<g id="CIRCLE_4_">
			<path fill="none" stroke="#0000FF" stroke-width="0.0283" stroke-miterlimit="10" d="M204.591,743.741
				c0-5.479,4.439-9.92,9.92-9.92c5.479,0,9.922,4.441,9.922,9.92s-4.441,9.922-9.922,9.922
				C209.03,753.663,204.591,749.222,204.591,743.741L204.591,743.741z"/>
		</g>
		<g id="CIRCLE_3_">
			<path fill="none" stroke="#0000FF" stroke-width="0.0283" stroke-miterlimit="10" d="M383.973,722.589
				c-0.039-14.09,11.35-25.547,25.438-25.588c14.093-0.041,25.548,11.352,25.587,25.439c0.041,14.092-11.349,25.545-25.438,25.586
				C395.471,748.067,384.014,736.679,383.973,722.589L383.973,722.589z"/>
		</g>
		<g id="CIRCLE_2_">
			<path fill="none" stroke="#0000FF" stroke-width="0.0283" stroke-miterlimit="10" d="M92.492,727.78
				c0-12.506,10.14-22.646,22.648-22.646c12.508,0,22.648,10.143,22.648,22.646c0,12.508-10.142,22.646-22.648,22.646
				C102.632,750.429,92.492,740.288,92.492,727.78L92.492,727.78z"/>
		</g>
		<g id="CIRCLE_1_">
			<path fill="none" stroke="#0000FF" stroke-width="0.0283" stroke-miterlimit="10" d="M147.699,727.78
				c0-12.506,10.141-22.646,22.647-22.646c12.506,0,22.648,10.143,22.648,22.646c0,12.508-10.142,22.646-22.648,22.646
				C157.84,750.428,147.699,740.288,147.699,727.78L147.699,727.78z"/>
		</g>
		<polygon fill="none" stroke="#0000FF" stroke-width="0.0283" stroke-miterlimit="10" points="376.89,750.825 326.331,750.825 
			326.331,753.167 299.401,753.167 299.401,750.831 261.845,750.831 261.845,760.036 227.829,760.036 227.829,733.106 
			261.845,733.106 261.845,742.327 299.401,742.327 299.401,704.979 326.331,704.979 326.331,747.003 376.89,747.003 		"/>
	</g>
	<path fill="none" stroke="#0000FF" stroke-width="0.0283" stroke-miterlimit="10" d="M503.866,835.118
		c0,2.506,2.031,4.535,4.536,4.535c2.503,0,4.535-2.031,4.535-4.535s-2.032-4.535-4.535-4.535
		C505.896,830.583,503.866,832.614,503.866,835.118"/>
	<path fill="none" stroke="#0000FF" stroke-width="0.0283" stroke-miterlimit="10" d="M503.866,920.138
		c0,2.506,2.031,4.535,4.536,4.535c2.503,0,4.535-2.031,4.535-4.535s-2.032-4.534-4.535-4.534
		C505.896,915.604,503.866,917.632,503.866,920.138"/>
	<path fill="none" stroke="#0000FF" stroke-width="0.0283" stroke-miterlimit="10" d="M389.025,920.138
		c0,2.506,2.031,4.535,4.535,4.535s4.536-2.031,4.536-4.535s-2.032-4.534-4.536-4.534S389.025,917.632,389.025,920.138"/>
	<path fill="none" stroke="#0000FF" stroke-width="0.0283" stroke-miterlimit="10" d="M360.705,920.138
		c0,2.506,2.032,4.535,4.536,4.535c2.504,0,4.535-2.031,4.535-4.535s-2.031-4.534-4.535-4.534
		C362.736,915.604,360.705,917.632,360.705,920.138"/>
	<path fill="none" stroke="#0000FF" stroke-width="0.0283" stroke-miterlimit="10" d="M360.705,835.118
		c0,2.506,2.032,4.535,4.536,4.535c2.504,0,4.535-2.031,4.535-4.535s-2.031-4.535-4.535-4.535
		C362.736,830.583,360.705,832.614,360.705,835.118"/>
	<path fill="none" stroke="#0000FF" stroke-width="0.0283" stroke-miterlimit="10" d="M184.967,920.138
		c0,2.506,2.029,4.537,4.535,4.535c2.506,0,4.535-2.031,4.535-4.535s-2.028-4.534-4.535-4.534
		C186.996,915.604,184.967,917.632,184.967,920.138"/>
	<path fill="none" stroke="#0000FF" stroke-width="0.0283" stroke-miterlimit="10" d="M70.127,920.138
		c0,2.506,2.029,4.535,4.535,4.535c2.505,0,4.535-2.031,4.535-4.535s-2.03-4.534-4.535-4.534
		C72.156,915.604,70.127,917.632,70.127,920.138"/>
	<path fill="none" stroke="#0000FF" stroke-width="0.0283" stroke-miterlimit="10" d="M503.866,974.617
		c0,2.506,2.031,4.535,4.536,4.535c2.503,0,4.535-2.031,4.535-4.535s-2.032-4.535-4.535-4.535
		C505.896,970.082,503.866,972.111,503.866,974.617"/>
	<path fill="none" stroke="#0000FF" stroke-width="0.0283" stroke-miterlimit="10" d="M389.025,974.617
		c0,2.506,2.031,4.535,4.535,4.535s4.536-2.031,4.536-4.535s-2.032-4.535-4.536-4.535S389.025,972.111,389.025,974.617"/>
	<path fill="none" stroke="#0000FF" stroke-width="0.0283" stroke-miterlimit="10" d="M70.127,974.617
		c0,2.506,2.029,4.535,4.535,4.535c2.505,0,4.535-2.031,4.535-4.535s-2.03-4.535-4.535-4.535
		C72.156,970.082,70.127,972.111,70.127,974.617"/>
	<path fill="none" stroke="#0000FF" stroke-width="0.0283" stroke-miterlimit="10" d="M70.127,835.118
		c0,2.506,2.029,4.535,4.535,4.535c2.505,0,4.535-2.031,4.534-4.535c0-2.504-2.029-4.535-4.534-4.535
		C72.156,830.583,70.127,832.614,70.127,835.118"/>
	<path fill="none" stroke="#0000FF" stroke-width="0.0283" stroke-miterlimit="10" d="M462.523,489.163
		c-19.571,0-35.438-15.862-35.438-35.433c0-19.571,15.864-35.436,35.438-35.436c19.563,0,35.431,15.863,35.431,35.436
		C497.954,473.301,482.089,489.163,462.523,489.163z"/>
	<path fill="none" stroke="#0000FF" stroke-width="0.0283" stroke-miterlimit="10" d="M350.923,489.056
		c-19.571,0-35.436-15.86-35.436-35.433s15.865-35.434,35.436-35.434c19.565,0,35.431,15.861,35.431,35.434
		S370.488,489.056,350.923,489.056z"/>
	<path fill="none" stroke="#0000FF" stroke-width="0.0283" stroke-miterlimit="10" d="M239.323,489.056
		c-19.571,0-35.437-15.86-35.437-35.433s15.865-35.434,35.437-35.434c19.565,0,35.431,15.861,35.431,35.434
		S258.888,489.056,239.323,489.056z"/>
	<path fill="none" stroke="#0000FF" stroke-width="0.0283" stroke-miterlimit="10" d="M127.724,489.056
		c-19.571,0-35.436-15.86-35.436-35.433s15.864-35.434,35.436-35.434c19.565,0,35.43,15.861,35.43,35.434
		S147.289,489.056,127.724,489.056z"/>
	<circle fill="none" stroke="#0000FF" stroke-width="0.0283" stroke-miterlimit="10" cx="98.922" cy="536.158" r="11.338"/>
	<circle fill="none" stroke="#0000FF" stroke-width="0.0283" stroke-miterlimit="10" cx="154.722" cy="536.158" r="11.338"/>
	<path fill="none" stroke="#0000FF" stroke-width="0.0283" stroke-miterlimit="10" d="M210.52,547.496
		c-6.261,0-11.337-5.075-11.337-11.339s5.076-11.338,11.337-11.338c6.264,0,11.34,5.074,11.34,11.338
		S216.784,547.496,210.52,547.496z"/>
	<circle fill="none" stroke="#0000FF" stroke-width="0.0283" stroke-miterlimit="10" cx="266.194" cy="536.157" r="11.338"/>
	<circle fill="none" stroke="#0000FF" stroke-width="0.0283" stroke-miterlimit="10" cx="322.121" cy="536.157" r="11.338"/>
	<circle fill="none" stroke="#0000FF" stroke-width="0.0283" stroke-miterlimit="10" cx="377.921" cy="536.157" r="11.338"/>
	<circle fill="none" stroke="#0000FF" stroke-width="0.0283" stroke-miterlimit="10" cx="433.72" cy="536.157" r="11.338"/>
	<circle fill="none" stroke="#0000FF" stroke-width="0.0283" stroke-miterlimit="10" cx="489.521" cy="536.157" r="11.338"/>
	
		<rect x="425.528" y="560.244" fill="none" stroke="#0000FF" stroke-width="0.0283" stroke-miterlimit="10" width="73.982" height="26.469"/>
	
		<rect x="313.927" y="560.207" fill="none" stroke="#0000FF" stroke-width="0.0283" stroke-miterlimit="10" width="73.986" height="26.506"/>
	
		<rect x="202.327" y="560.207" fill="none" stroke="#0000FF" stroke-width="0.0283" stroke-miterlimit="10" width="73.986" height="26.506"/>
	
		<rect x="90.728" y="560.207" fill="none" stroke="#0000FF" stroke-width="0.0283" stroke-miterlimit="10" width="73.986" height="26.506"/>
	<polygon fill="none" stroke="#0000FF" stroke-width="0.0283" stroke-miterlimit="10" points="56.274,764.388 76.116,764.388 
		76.116,772.892 104.463,772.892 104.463,764.388 478.636,764.388 478.636,772.892 506.982,772.892 506.982,764.388 
		526.825,764.388 526.825,720.006 518.321,720.006 518.321,691.66 526.825,691.66 526.825,646.927 506.982,646.927 506.982,638.423 
		478.636,638.423 478.636,646.927 104.463,646.927 104.463,638.423 76.116,638.423 76.116,646.927 56.274,646.927 56.274,691.66 
		64.778,691.66 64.778,720.006 56.274,720.006 	"/>
	<polygon fill="none" stroke="#0000FF" stroke-width="0.0283" stroke-miterlimit="10" points="526.823,315.858 506.98,315.858 
		506.98,324.362 478.634,324.362 478.634,315.858 104.463,315.858 104.463,324.362 76.115,324.362 76.115,315.858 56.273,315.858 
		56.273,271.476 64.777,271.476 64.777,243.13 56.273,243.13 56.273,198.397 76.115,198.397 76.115,189.894 104.463,189.894 
		104.463,198.397 478.634,198.396 478.634,189.893 506.98,189.893 506.98,198.396 526.823,198.396 526.823,243.13 518.319,243.13 
		518.319,271.476 526.823,271.476 	"/>
	<g>
		<path fill="none" stroke="#0000FF" stroke-width="0.0283" stroke-miterlimit="10" d="M503.863,480.659
			c0,2.506,2.031,4.536,4.536,4.536c2.504,0,4.534-2.031,4.534-4.536c0-2.502-2.03-4.535-4.534-4.535
			C505.895,476.124,503.863,478.154,503.863,480.659"/>
		<path fill="none" stroke="#0000FF" stroke-width="0.0283" stroke-miterlimit="10" d="M68.991,480.659
			c0,3.132,2.538,5.67,5.669,5.67c3.131,0,5.669-2.539,5.669-5.67c0-3.129-2.539-5.669-5.669-5.669S68.991,477.528,68.991,480.659"
			/>
	</g>
	
		<rect x="76.115" y="594.061" fill="none" stroke="#0000FF" stroke-width="0.0283" stroke-miterlimit="10" width="28.347" height="8.506"/>
	
		<rect x="478.635" y="594.061" fill="none" stroke="#0000FF" stroke-width="0.0283" stroke-miterlimit="10" width="28.348" height="8.506"/>
	<path fill="none" stroke="#0000FF" stroke-width="0.0283" stroke-miterlimit="10" d="M535.33,806.186v227.348
		c0,9.389-7.611,17-17,17H64.771c-9.389,0-17-7.611-17-17V806.186c0-9.389,7.611-17,17-17H518.33
		C527.719,789.186,535.33,796.797,535.33,806.186L535.33,806.186z"/>
	
		<rect x="55.85" y="905.681" fill="none" stroke="#0000FF" stroke-width="0.0283" stroke-miterlimit="10" width="9.354" height="28.914"/>
	
		<rect x="76.115" y="797.689" fill="none" stroke="#0000FF" stroke-width="0.0283" stroke-miterlimit="10" width="28.349" height="8.504"/>
	
		<rect x="478.637" y="797.689" fill="none" stroke="#0000FF" stroke-width="0.0283" stroke-miterlimit="10" width="28.346" height="8.504"/>
	
		<rect x="517.897" y="905.681" fill="none" stroke="#0000FF" stroke-width="0.0283" stroke-miterlimit="10" width="9.354" height="28.914"/>
	
		<rect x="478.637" y="1033.523" fill="none" stroke="#0000FF" stroke-width="0.0283" stroke-miterlimit="10" width="28.346" height="8.504"/>
	
		<rect x="76.115" y="1033.523" fill="none" stroke="#0000FF" stroke-width="0.0283" stroke-miterlimit="10" width="28.349" height="8.504"/>
	<path fill="none" stroke="#0000FF" stroke-width="0.0283" stroke-miterlimit="10" d="M535.329,594.332c0,9.389-7.611,17-17,17
		H64.77c-9.389,0-17-7.611-17-17V366.986c0-9.391,7.611-17,17-17h453.559c9.389,0,17,7.609,17,17V594.332z"/>
	
		<rect x="56.273" y="466.207" fill="none" stroke="#0000FF" stroke-width="0.0283" stroke-miterlimit="10" width="8.504" height="28.346"/>
	
		<rect x="518.321" y="466.207" fill="none" stroke="#0000FF" stroke-width="0.0283" stroke-miterlimit="10" width="8.504" height="28.346"/>
	
		<rect x="478.635" y="358.49" fill="none" stroke="#0000FF" stroke-width="0.0283" stroke-miterlimit="10" width="28.348" height="8.504"/>
	
		<rect x="76.115" y="358.49" fill="none" stroke="#0000FF" stroke-width="0.0283" stroke-miterlimit="10" width="28.347" height="8.504"/>
	<g>
		<g id="CIRCLE_10_">
			<path fill="none" stroke="#0000FF" stroke-width="0.0283" stroke-miterlimit="10" d="M969.334,722.517
				c0-14.092,11.422-25.516,25.512-25.516s25.514,11.424,25.514,25.516s-11.424,25.512-25.514,25.512
				S969.334,736.606,969.334,722.517L969.334,722.517z"/>
		</g>
		<g id="CIRCLE_9_">
			<path fill="none" stroke="#0000FF" stroke-width="0.0283" stroke-miterlimit="10" d="M732.425,743.741
				c0-5.479,4.439-9.92,9.92-9.92c5.479,0,9.922,4.441,9.922,9.92s-4.439,9.922-9.922,9.922
				C736.864,753.663,732.425,749.222,732.425,743.741L732.425,743.741z"/>
		</g>
		<g id="CIRCLE_8_">
			<path fill="none" stroke="#0000FF" stroke-width="0.0283" stroke-miterlimit="10" d="M911.807,722.589
				c-0.039-14.09,11.352-25.547,25.438-25.588c14.093-0.041,25.548,11.352,25.587,25.439c0.041,14.092-11.35,25.545-25.438,25.586
				C923.305,748.067,911.848,736.679,911.807,722.589L911.807,722.589z"/>
		</g>
		<g id="CIRCLE_7_">
			<path fill="none" stroke="#0000FF" stroke-width="0.0283" stroke-miterlimit="10" d="M620.327,727.78
				c0-12.506,10.14-22.646,22.646-22.646c12.509,0,22.648,10.143,22.648,22.646c0,12.508-10.142,22.646-22.648,22.646
				C630.466,750.429,620.327,740.288,620.327,727.78L620.327,727.78z"/>
		</g>
		<g id="CIRCLE_6_">
			<path fill="none" stroke="#0000FF" stroke-width="0.0283" stroke-miterlimit="10" d="M675.534,727.78
				c0-12.506,10.141-22.646,22.646-22.646c12.506,0,22.648,10.143,22.648,22.646c0,12.508-10.143,22.646-22.648,22.646
				C685.675,750.427,675.534,740.288,675.534,727.78L675.534,727.78z"/>
		</g>
		<polygon fill="none" stroke="#0000FF" stroke-width="0.0283" stroke-miterlimit="10" points="904.724,750.825 854.166,750.825 
			854.166,753.167 827.236,753.167 827.236,750.831 789.679,750.831 789.679,760.036 755.664,760.036 755.664,733.106 
			789.679,733.106 789.679,742.327 827.236,742.327 827.236,704.979 854.166,704.979 854.166,747.003 904.724,747.003 		"/>
	</g>
	<path fill="none" stroke="#0000FF" stroke-width="0.0283" stroke-miterlimit="10" d="M1031.698,835.118
		c0,2.506,2.031,4.535,4.536,4.535c2.503,0,4.535-2.031,4.535-4.535s-2.032-4.535-4.535-4.535
		C1033.729,830.583,1031.698,832.614,1031.698,835.118"/>
	<path fill="none" stroke="#0000FF" stroke-width="0.0283" stroke-miterlimit="10" d="M1031.698,920.138
		c0,2.506,2.031,4.535,4.536,4.535c2.503,0,4.535-2.031,4.535-4.535s-2.032-4.534-4.535-4.534
		C1033.729,915.604,1031.698,917.632,1031.698,920.138"/>
	<path fill="none" stroke="#0000FF" stroke-width="0.0283" stroke-miterlimit="10" d="M916.858,920.138
		c0,2.506,2.031,4.535,4.535,4.535s4.536-2.031,4.536-4.535s-2.032-4.534-4.536-4.534S916.858,917.632,916.858,920.138"/>
	<path fill="none" stroke="#0000FF" stroke-width="0.0283" stroke-miterlimit="10" d="M888.539,920.138
		c0,2.506,2.03,4.535,4.534,4.535s4.535-2.031,4.535-4.535s-2.031-4.534-4.535-4.534S888.539,917.632,888.539,920.138"/>
	<path fill="none" stroke="#0000FF" stroke-width="0.0283" stroke-miterlimit="10" d="M888.539,835.118
		c0,2.506,2.03,4.535,4.534,4.535s4.535-2.031,4.535-4.535s-2.031-4.535-4.535-4.535S888.539,832.614,888.539,835.118"/>
	<path fill="none" stroke="#0000FF" stroke-width="0.0283" stroke-miterlimit="10" d="M712.801,920.138
		c0,2.506,2.029,4.537,4.535,4.535c2.506,0,4.535-2.031,4.535-4.535s-2.028-4.534-4.535-4.534
		C714.83,915.604,712.801,917.632,712.801,920.138"/>
	<path fill="none" stroke="#0000FF" stroke-width="0.0283" stroke-miterlimit="10" d="M597.96,920.138
		c0,2.506,2.031,4.535,4.534,4.535c2.506,0,4.536-2.031,4.536-4.535s-2.03-4.534-4.536-4.534
		C599.989,915.604,597.96,917.632,597.96,920.138"/>
	<path fill="none" stroke="#0000FF" stroke-width="0.0283" stroke-miterlimit="10" d="M1031.698,974.617
		c0,2.506,2.031,4.535,4.536,4.535c2.503,0,4.535-2.031,4.535-4.535s-2.032-4.535-4.535-4.535
		C1033.729,970.082,1031.698,972.111,1031.698,974.617"/>
	<path fill="none" stroke="#0000FF" stroke-width="0.0283" stroke-miterlimit="10" d="M916.858,974.617
		c0,2.506,2.031,4.535,4.535,4.535s4.536-2.031,4.536-4.535s-2.032-4.535-4.536-4.535S916.858,972.111,916.858,974.617"/>
	<path fill="none" stroke="#0000FF" stroke-width="0.0283" stroke-miterlimit="10" d="M597.96,974.617
		c0,2.506,2.031,4.535,4.534,4.535c2.506,0,4.536-2.031,4.536-4.535s-2.03-4.535-4.536-4.535
		C599.989,970.082,597.96,972.111,597.96,974.617"/>
	<path fill="none" stroke="#0000FF" stroke-width="0.0283" stroke-miterlimit="10" d="M597.96,835.118
		c0,2.506,2.031,4.535,4.534,4.535c2.506,0,4.536-2.031,4.535-4.535c0-2.504-2.029-4.535-4.535-4.535
		C599.989,830.583,597.96,832.614,597.96,835.118"/>
	<path fill="none" stroke="#0000FF" stroke-width="0.0283" stroke-miterlimit="10" d="M990.357,489.163
		c-19.57,0-35.437-15.862-35.437-35.433c0-19.571,15.864-35.436,35.437-35.436c19.564,0,35.432,15.863,35.432,35.436
		C1025.789,473.301,1009.923,489.163,990.357,489.163z"/>
	<path fill="none" stroke="#0000FF" stroke-width="0.0283" stroke-miterlimit="10" d="M878.757,489.056
		c-19.571,0-35.436-15.86-35.436-35.433s15.864-35.434,35.436-35.434c19.565,0,35.431,15.861,35.431,35.434
		S898.323,489.056,878.757,489.056z"/>
	<path fill="none" stroke="#0000FF" stroke-width="0.0283" stroke-miterlimit="10" d="M767.157,489.056
		c-19.571,0-35.438-15.86-35.438-35.433s15.865-35.434,35.438-35.434c19.563,0,35.431,15.861,35.431,35.434
		S786.723,489.056,767.157,489.056z"/>
	<path fill="none" stroke="#0000FF" stroke-width="0.0283" stroke-miterlimit="10" d="M655.558,489.056
		c-19.569,0-35.436-15.86-35.436-35.433s15.864-35.434,35.436-35.434c19.565,0,35.432,15.861,35.432,35.434
		S675.124,489.056,655.558,489.056z"/>
	<circle fill="none" stroke="#0000FF" stroke-width="0.0283" stroke-miterlimit="10" cx="626.756" cy="536.158" r="11.338"/>
	<circle fill="none" stroke="#0000FF" stroke-width="0.0283" stroke-miterlimit="10" cx="682.556" cy="536.158" r="11.338"/>
	<path fill="none" stroke="#0000FF" stroke-width="0.0283" stroke-miterlimit="10" d="M738.354,547.496
		c-6.261,0-11.336-5.075-11.336-11.339s5.075-11.338,11.336-11.338c6.266,0,11.342,5.074,11.342,11.338
		C749.694,542.421,744.619,547.496,738.354,547.496z"/>
	<circle fill="none" stroke="#0000FF" stroke-width="0.0283" stroke-miterlimit="10" cx="794.029" cy="536.157" r="11.338"/>
	<circle fill="none" stroke="#0000FF" stroke-width="0.0283" stroke-miterlimit="10" cx="849.956" cy="536.157" r="11.338"/>
	<circle fill="none" stroke="#0000FF" stroke-width="0.0283" stroke-miterlimit="10" cx="905.755" cy="536.157" r="11.338"/>
	<circle fill="none" stroke="#0000FF" stroke-width="0.0283" stroke-miterlimit="10" cx="961.554" cy="536.157" r="11.338"/>
	<circle fill="none" stroke="#0000FF" stroke-width="0.0283" stroke-miterlimit="10" cx="1017.355" cy="536.157" r="11.338"/>
	
		<rect x="953.363" y="560.244" fill="none" stroke="#0000FF" stroke-width="0.0283" stroke-miterlimit="10" width="73.982" height="26.469"/>
	
		<rect x="841.762" y="560.207" fill="none" stroke="#0000FF" stroke-width="0.0283" stroke-miterlimit="10" width="73.986" height="26.506"/>
	
		<rect x="730.162" y="560.207" fill="none" stroke="#0000FF" stroke-width="0.0283" stroke-miterlimit="10" width="73.986" height="26.506"/>
	
		<rect x="618.563" y="560.207" fill="none" stroke="#0000FF" stroke-width="0.0283" stroke-miterlimit="10" width="73.985" height="26.506"/>
	<polygon fill="none" stroke="#0000FF" stroke-width="0.0283" stroke-miterlimit="10" points="584.107,764.388 603.951,764.388 
		603.951,772.892 632.297,772.892 632.297,764.388 1006.47,764.388 1006.47,772.892 1034.817,772.892 1034.817,764.388 
		1054.659,764.388 1054.659,720.006 1046.155,720.006 1046.155,691.66 1054.659,691.66 1054.659,646.927 1034.817,646.927 
		1034.817,638.423 1006.47,638.423 1006.47,646.927 632.297,646.927 632.297,638.423 603.951,638.423 603.951,646.927 
		584.107,646.927 584.107,691.66 592.612,691.66 592.612,720.006 584.107,720.006 	"/>
	<polygon fill="none" stroke="#0000FF" stroke-width="0.0283" stroke-miterlimit="10" points="1054.657,315.858 1034.816,315.858 
		1034.816,324.362 1006.468,324.362 1006.468,315.858 632.297,315.858 632.297,324.362 603.95,324.362 603.95,315.858 
		584.107,315.858 584.107,271.476 592.612,271.476 592.612,243.13 584.107,243.13 584.107,198.397 603.95,198.397 603.95,189.894 
		632.297,189.894 632.297,198.397 1006.468,198.396 1006.468,189.893 1034.816,189.893 1034.816,198.396 1054.657,198.396 
		1054.657,243.13 1046.153,243.13 1046.153,271.476 1054.657,271.476 	"/>
	<g>
		<path fill="none" stroke="#0000FF" stroke-width="0.0283" stroke-miterlimit="10" d="M1031.698,480.659
			c0,2.506,2.03,4.536,4.536,4.536c2.504,0,4.535-2.031,4.535-4.536c0-2.502-2.031-4.535-4.535-4.535
			C1033.729,476.124,1031.698,478.154,1031.698,480.659"/>
		<path fill="none" stroke="#0000FF" stroke-width="0.0283" stroke-miterlimit="10" d="M596.826,480.659
			c0,3.132,2.538,5.67,5.669,5.67s5.669-2.539,5.669-5.67c0-3.129-2.539-5.669-5.669-5.669S596.826,477.528,596.826,480.659"/>
	</g>
	
		<rect x="603.95" y="594.061" fill="none" stroke="#0000FF" stroke-width="0.0283" stroke-miterlimit="10" width="28.347" height="8.506"/>
	
		<rect x="1006.469" y="594.061" fill="none" stroke="#0000FF" stroke-width="0.0283" stroke-miterlimit="10" width="28.346" height="8.506"/>
	<path fill="none" stroke="#0000FF" stroke-width="0.0283" stroke-miterlimit="10" d="M1063.164,1033.533c0,9.389-7.611,17-17,17
		H592.604c-9.389,0-17-7.611-17-17V806.186c0-9.389,7.611-17,17-17h453.561c9.389,0,17,7.611,17,17V1033.533z"/>
	
		<rect x="583.684" y="905.681" fill="none" stroke="#0000FF" stroke-width="0.0283" stroke-miterlimit="10" width="9.354" height="28.914"/>
	
		<rect x="603.949" y="797.689" fill="none" stroke="#0000FF" stroke-width="0.0283" stroke-miterlimit="10" width="28.349" height="8.504"/>
	
		<rect x="1006.47" y="797.689" fill="none" stroke="#0000FF" stroke-width="0.0283" stroke-miterlimit="10" width="28.346" height="8.504"/>
	
		<rect x="1045.73" y="905.681" fill="none" stroke="#0000FF" stroke-width="0.0283" stroke-miterlimit="10" width="9.354" height="28.914"/>
	
		<rect x="1006.47" y="1033.523" fill="none" stroke="#0000FF" stroke-width="0.0283" stroke-miterlimit="10" width="28.346" height="8.504"/>
	
		<rect x="603.949" y="1033.523" fill="none" stroke="#0000FF" stroke-width="0.0283" stroke-miterlimit="10" width="28.349" height="8.504"/>
	<path fill="none" stroke="#0000FF" stroke-width="0.0283" stroke-miterlimit="10" d="M1063.163,594.332c0,9.389-7.611,17-17,17
		h-453.56c-9.39,0-17-7.611-17-17V366.986c0-9.391,7.61-17,17-17h453.56c9.389,0,17,7.609,17,17V594.332z"/>
	
		<rect x="584.107" y="466.207" fill="none" stroke="#0000FF" stroke-width="0.0283" stroke-miterlimit="10" width="8.505" height="28.346"/>
	
		<rect x="1046.155" y="466.207" fill="none" stroke="#0000FF" stroke-width="0.0283" stroke-miterlimit="10" width="8.504" height="28.346"/>
	
		<rect x="1006.469" y="358.49" fill="none" stroke="#0000FF" stroke-width="0.0283" stroke-miterlimit="10" width="28.346" height="8.504"/>
	
		<rect x="603.95" y="358.49" fill="none" stroke="#0000FF" stroke-width="0.0283" stroke-miterlimit="10" width="28.347" height="8.504"/>
	<g>
		<g id="CIRCLE_20_">
			<path fill="none" stroke="#0000FF" stroke-width="0.0283" stroke-miterlimit="10" d="M1497.333,722.517
				c0-14.092,11.422-25.516,25.512-25.516c14.091,0,25.513,11.424,25.513,25.516s-11.422,25.512-25.513,25.512
				C1508.755,748.028,1497.333,736.606,1497.333,722.517L1497.333,722.517z"/>
		</g>
		<g id="CIRCLE_19_">
			<path fill="none" stroke="#0000FF" stroke-width="0.0283" stroke-miterlimit="10" d="M1260.425,743.741
				c0-5.479,4.439-9.92,9.92-9.92c5.479,0,9.923,4.441,9.923,9.92s-4.441,9.922-9.923,9.922
				C1264.864,753.663,1260.425,749.222,1260.425,743.741L1260.425,743.741z"/>
		</g>
		<g id="CIRCLE_18_">
			<path fill="none" stroke="#0000FF" stroke-width="0.0283" stroke-miterlimit="10" d="M1439.806,722.589
				c-0.038-14.09,11.353-25.547,25.439-25.588c14.092-0.041,25.547,11.352,25.586,25.439c0.041,14.092-11.348,25.545-25.438,25.586
				C1451.303,748.067,1439.847,736.679,1439.806,722.589L1439.806,722.589z"/>
		</g>
		<g id="CIRCLE_17_">
			<path fill="none" stroke="#0000FF" stroke-width="0.0283" stroke-miterlimit="10" d="M1148.328,727.78
				c0-12.506,10.139-22.646,22.646-22.646c12.511,0,22.648,10.143,22.648,22.646c0,12.508-10.144,22.646-22.648,22.646
				C1158.466,750.429,1148.328,740.288,1148.328,727.78L1148.328,727.78z"/>
		</g>
		<g id="CIRCLE_16_">
			<path fill="none" stroke="#0000FF" stroke-width="0.0283" stroke-miterlimit="10" d="M1203.535,727.78
				c0-12.506,10.141-22.646,22.646-22.646s22.648,10.143,22.648,22.646c0,12.508-10.144,22.646-22.648,22.646
				S1203.535,740.288,1203.535,727.78L1203.535,727.78z"/>
		</g>
		<polygon fill="none" stroke="#0000FF" stroke-width="0.0283" stroke-miterlimit="10" points="1432.724,750.825 1382.166,750.825 
			1382.166,753.167 1355.236,753.167 1355.236,750.831 1317.679,750.831 1317.679,760.036 1283.664,760.036 1283.664,733.106 
			1317.679,733.106 1317.679,742.327 1355.236,742.327 1355.236,704.979 1382.166,704.979 1382.166,747.003 1432.724,747.003 		"/>
	</g>
	<path fill="none" stroke="#0000FF" stroke-width="0.0283" stroke-miterlimit="10" d="M1559.699,835.118
		c0,2.506,2.031,4.535,4.537,4.535c2.502,0,4.535-2.031,4.535-4.535s-2.033-4.535-4.535-4.535
		C1561.73,830.583,1559.699,832.614,1559.699,835.118"/>
	<path fill="none" stroke="#0000FF" stroke-width="0.0283" stroke-miterlimit="10" d="M1559.699,920.138
		c0,2.506,2.031,4.535,4.537,4.535c2.502,0,4.535-2.031,4.535-4.535s-2.033-4.534-4.535-4.534
		C1561.73,915.604,1559.699,917.632,1559.699,920.138"/>
	<path fill="none" stroke="#0000FF" stroke-width="0.0283" stroke-miterlimit="10" d="M1444.859,920.138
		c0,2.506,2.031,4.535,4.535,4.535s4.537-2.031,4.537-4.535s-2.033-4.534-4.537-4.534S1444.859,917.632,1444.859,920.138"/>
	<path fill="none" stroke="#0000FF" stroke-width="0.0283" stroke-miterlimit="10" d="M1416.541,920.138
		c0,2.506,2.031,4.535,4.535,4.535s4.535-2.031,4.535-4.535s-2.031-4.534-4.535-4.534S1416.541,917.632,1416.541,920.138"/>
	<path fill="none" stroke="#0000FF" stroke-width="0.0283" stroke-miterlimit="10" d="M1416.541,835.118
		c0,2.506,2.031,4.535,4.535,4.535s4.535-2.031,4.535-4.535s-2.031-4.535-4.535-4.535S1416.541,832.614,1416.541,835.118"/>
	<path fill="none" stroke="#0000FF" stroke-width="0.0283" stroke-miterlimit="10" d="M1240.804,920.138
		c0,2.506,2.028,4.537,4.535,4.535c2.506,0,4.535-2.031,4.535-4.535s-2.029-4.534-4.535-4.534S1240.804,917.632,1240.804,920.138"/>
	<path fill="none" stroke="#0000FF" stroke-width="0.0283" stroke-miterlimit="10" d="M1125.963,920.138
		c0,2.506,2.029,4.535,4.535,4.535c2.504,0,4.535-2.031,4.535-4.535s-2.031-4.534-4.535-4.534
		C1127.992,915.604,1125.963,917.632,1125.963,920.138"/>
	<path fill="none" stroke="#0000FF" stroke-width="0.0283" stroke-miterlimit="10" d="M1559.699,974.617
		c0,2.506,2.031,4.535,4.537,4.535c2.502,0,4.535-2.031,4.535-4.535s-2.033-4.535-4.535-4.535
		C1561.73,970.082,1559.699,972.111,1559.699,974.617"/>
	<path fill="none" stroke="#0000FF" stroke-width="0.0283" stroke-miterlimit="10" d="M1444.859,974.617
		c0,2.506,2.031,4.535,4.535,4.535s4.537-2.031,4.537-4.535s-2.033-4.535-4.537-4.535S1444.859,972.111,1444.859,974.617"/>
	<path fill="none" stroke="#0000FF" stroke-width="0.0283" stroke-miterlimit="10" d="M1125.963,974.617
		c0,2.506,2.029,4.535,4.535,4.535c2.504,0,4.535-2.031,4.535-4.535s-2.031-4.535-4.535-4.535
		C1127.992,970.082,1125.963,972.111,1125.963,974.617"/>
	<path fill="none" stroke="#0000FF" stroke-width="0.0283" stroke-miterlimit="10" d="M1125.963,835.118
		c0,2.506,2.029,4.535,4.535,4.535c2.504,0,4.535-2.031,4.533-4.535c0-2.504-2.029-4.535-4.533-4.535
		C1127.992,830.583,1125.963,832.614,1125.963,835.118"/>
	<path fill="none" stroke="#0000FF" stroke-width="0.0283" stroke-miterlimit="10" d="M1518.359,489.163
		c-19.572,0-35.438-15.862-35.438-35.433c0-19.571,15.865-35.436,35.438-35.436c19.563,0,35.43,15.863,35.43,35.436
		C1553.789,473.301,1537.923,489.163,1518.359,489.163z"/>
	<path fill="none" stroke="#0000FF" stroke-width="0.0283" stroke-miterlimit="10" d="M1406.757,489.056
		c-19.572,0-35.436-15.86-35.436-35.433s15.862-35.434,35.436-35.434c19.564,0,35.431,15.861,35.431,35.434
		S1426.324,489.056,1406.757,489.056z"/>
	<path fill="none" stroke="#0000FF" stroke-width="0.0283" stroke-miterlimit="10" d="M1295.158,489.056
		c-19.57,0-35.438-15.86-35.438-35.433s15.865-35.434,35.438-35.434c19.563,0,35.432,15.861,35.432,35.434
		S1314.722,489.056,1295.158,489.056z"/>
	<path fill="none" stroke="#0000FF" stroke-width="0.0283" stroke-miterlimit="10" d="M1183.558,489.056
		c-19.569,0-35.436-15.86-35.436-35.433s15.863-35.434,35.436-35.434c19.564,0,35.431,15.861,35.431,35.434
		S1203.125,489.056,1183.558,489.056z"/>
	<circle fill="none" stroke="#0000FF" stroke-width="0.0283" stroke-miterlimit="10" cx="1154.755" cy="536.158" r="11.338"/>
	<circle fill="none" stroke="#0000FF" stroke-width="0.0283" stroke-miterlimit="10" cx="1210.556" cy="536.158" r="11.338"/>
	<path fill="none" stroke="#0000FF" stroke-width="0.0283" stroke-miterlimit="10" d="M1266.354,547.496
		c-6.261,0-11.337-5.075-11.337-11.339s5.076-11.338,11.337-11.338c6.266,0,11.342,5.074,11.342,11.338
		S1272.619,547.496,1266.354,547.496z"/>
	<circle fill="none" stroke="#0000FF" stroke-width="0.0283" stroke-miterlimit="10" cx="1322.029" cy="536.157" r="11.338"/>
	<circle fill="none" stroke="#0000FF" stroke-width="0.0283" stroke-miterlimit="10" cx="1377.957" cy="536.157" r="11.338"/>
	<circle fill="none" stroke="#0000FF" stroke-width="0.0283" stroke-miterlimit="10" cx="1433.755" cy="536.157" r="11.338"/>
	<circle fill="none" stroke="#0000FF" stroke-width="0.0283" stroke-miterlimit="10" cx="1489.554" cy="536.157" r="11.338"/>
	<circle fill="none" stroke="#0000FF" stroke-width="0.0283" stroke-miterlimit="10" cx="1545.355" cy="536.157" r="11.338"/>
	
		<rect x="1481.363" y="560.244" fill="none" stroke="#0000FF" stroke-width="0.0283" stroke-miterlimit="10" width="73.984" height="26.469"/>
	
		<rect x="1369.761" y="560.207" fill="none" stroke="#0000FF" stroke-width="0.0283" stroke-miterlimit="10" width="73.986" height="26.506"/>
	
		<rect x="1258.162" y="560.207" fill="none" stroke="#0000FF" stroke-width="0.0283" stroke-miterlimit="10" width="73.984" height="26.506"/>
	
		<rect x="1146.563" y="560.207" fill="none" stroke="#0000FF" stroke-width="0.0283" stroke-miterlimit="10" width="73.985" height="26.506"/>
	<polygon fill="none" stroke="#0000FF" stroke-width="0.0283" stroke-miterlimit="10" points="1112.108,764.388 1131.951,764.388 
		1131.951,772.892 1160.296,772.892 1160.296,764.388 1534.47,764.388 1534.47,772.892 1562.818,772.892 1562.818,764.388 
		1582.66,764.388 1582.66,720.006 1574.156,720.006 1574.156,691.66 1582.66,691.66 1582.66,646.927 1562.818,646.927 
		1562.818,638.423 1534.47,638.423 1534.47,646.927 1160.296,646.927 1160.296,638.423 1131.951,638.423 1131.951,646.927 
		1112.108,646.927 1112.108,691.66 1120.613,691.66 1120.613,720.006 1112.108,720.006 	"/>
	<polygon fill="none" stroke="#0000FF" stroke-width="0.0283" stroke-miterlimit="10" points="1582.658,315.858 1562.816,315.858 
		1562.816,324.362 1534.468,324.362 1534.468,315.858 1160.296,315.858 1160.296,324.362 1131.951,324.362 1131.951,315.858 
		1112.108,315.858 1112.108,271.476 1120.613,271.476 1120.613,243.13 1112.108,243.13 1112.108,198.397 1131.951,198.397 
		1131.951,189.894 1160.296,189.894 1160.296,198.397 1534.468,198.396 1534.468,189.893 1562.816,189.893 1562.816,198.396 
		1582.658,198.396 1582.658,243.13 1574.154,243.13 1574.154,271.476 1582.658,271.476 	"/>
	<g>
		<path fill="none" stroke="#0000FF" stroke-width="0.0283" stroke-miterlimit="10" d="M1559.699,480.659
			c0,2.506,2.029,4.536,4.535,4.536c2.504,0,4.533-2.031,4.533-4.536c0-2.502-2.029-4.535-4.533-4.535
			C1561.729,476.124,1559.699,478.154,1559.699,480.659"/>
		<path fill="none" stroke="#0000FF" stroke-width="0.0283" stroke-miterlimit="10" d="M1124.826,480.659
			c0,3.132,2.539,5.67,5.67,5.67s5.668-2.539,5.668-5.67c0-3.129-2.539-5.669-5.668-5.669
			C1127.365,474.99,1124.826,477.528,1124.826,480.659"/>
	</g>
	
		<rect x="1131.951" y="594.061" fill="none" stroke="#0000FF" stroke-width="0.0283" stroke-miterlimit="10" width="28.346" height="8.506"/>
	
		<rect x="1534.468" y="594.061" fill="none" stroke="#0000FF" stroke-width="0.0283" stroke-miterlimit="10" width="28.347" height="8.506"/>
	<path fill="none" stroke="#0000FF" stroke-width="0.0283" stroke-miterlimit="10" d="M1591.166,1033.533c0,9.389-7.612,17-17,17
		h-453.562c-9.39,0-17-7.611-17-17V806.186c0-9.389,7.61-17,17-17h453.562c9.389,0,17,7.611,17,17V1033.533z"/>
	
		<rect x="1111.685" y="905.681" fill="none" stroke="#0000FF" stroke-width="0.0283" stroke-miterlimit="10" width="9.354" height="28.914"/>
	
		<rect x="1131.951" y="797.689" fill="none" stroke="#0000FF" stroke-width="0.0283" stroke-miterlimit="10" width="28.349" height="8.504"/>
	
		<rect x="1534.471" y="797.689" fill="none" stroke="#0000FF" stroke-width="0.0283" stroke-miterlimit="10" width="28.346" height="8.504"/>
	
		<rect x="1573.732" y="905.681" fill="none" stroke="#0000FF" stroke-width="0.0283" stroke-miterlimit="10" width="9.354" height="28.914"/>
	
		<rect x="1534.471" y="1033.523" fill="none" stroke="#0000FF" stroke-width="0.0283" stroke-miterlimit="10" width="28.346" height="8.504"/>
	
		<rect x="1131.951" y="1033.523" fill="none" stroke="#0000FF" stroke-width="0.0283" stroke-miterlimit="10" width="28.349" height="8.504"/>
	<path fill="none" stroke="#0000FF" stroke-width="0.0283" stroke-miterlimit="10" d="M1591.164,594.332c0,9.389-7.611,17-17,17
		h-453.562c-9.388,0-17-7.611-17-17V366.986c0-9.391,7.611-17,17-17h453.562c9.389,0,17,7.609,17,17V594.332z"/>
	
		<rect x="1112.108" y="466.207" fill="none" stroke="#0000FF" stroke-width="0.0283" stroke-miterlimit="10" width="8.504" height="28.346"/>
	
		<rect x="1574.156" y="466.207" fill="none" stroke="#0000FF" stroke-width="0.0283" stroke-miterlimit="10" width="8.504" height="28.346"/>
	
		<rect x="1534.468" y="358.49" fill="none" stroke="#0000FF" stroke-width="0.0283" stroke-miterlimit="10" width="28.347" height="8.504"/>
	
		<rect x="1131.951" y="358.49" fill="none" stroke="#0000FF" stroke-width="0.0283" stroke-miterlimit="10" width="28.346" height="8.504"/>
	<g>
		<g id="CIRCLE_15_">
			<path fill="none" stroke="#0000FF" stroke-width="0.0283" stroke-miterlimit="10" d="M2025.167,722.517
				c0-14.092,11.422-25.516,25.512-25.516c14.091,0,25.513,11.424,25.513,25.516s-11.423,25.512-25.513,25.512
				S2025.167,736.606,2025.167,722.517L2025.167,722.517z"/>
		</g>
		<g id="CIRCLE_14_">
			<path fill="none" stroke="#0000FF" stroke-width="0.0283" stroke-miterlimit="10" d="M1788.259,743.741
				c0-5.479,4.439-9.92,9.921-9.92c5.48,0,9.922,4.441,9.922,9.92s-4.439,9.922-9.922,9.922
				C1792.699,753.663,1788.259,749.222,1788.259,743.741L1788.259,743.741z"/>
		</g>
		<g id="CIRCLE_13_">
			<path fill="none" stroke="#0000FF" stroke-width="0.0283" stroke-miterlimit="10" d="M1967.641,722.589
				c-0.039-14.09,11.352-25.547,25.438-25.588c14.094-0.041,25.549,11.352,25.588,25.439c0.041,14.092-11.353,25.545-25.438,25.586
				C1979.138,748.067,1967.682,736.679,1967.641,722.589L1967.641,722.589z"/>
		</g>
		<g id="CIRCLE_12_">
			<path fill="none" stroke="#0000FF" stroke-width="0.0283" stroke-miterlimit="10" d="M1676.162,727.78
				c0-12.506,10.141-22.646,22.646-22.646c12.508,0,22.647,10.143,22.647,22.646c0,12.508-10.142,22.646-22.647,22.646
				C1686.302,750.428,1676.162,740.288,1676.162,727.78L1676.162,727.78z"/>
		</g>
		<g id="CIRCLE_11_">
			<path fill="none" stroke="#0000FF" stroke-width="0.0283" stroke-miterlimit="10" d="M1731.369,727.78
				c0-12.506,10.141-22.646,22.646-22.646c12.504,0,22.647,10.143,22.647,22.646c0,12.508-10.144,22.646-22.647,22.646
				C1741.507,750.429,1731.369,740.288,1731.369,727.78L1731.369,727.78z"/>
		</g>
		<polygon fill="none" stroke="#0000FF" stroke-width="0.0283" stroke-miterlimit="10" points="1960.559,750.825 1910,750.825 
			1910,753.167 1883.072,753.167 1883.072,750.831 1845.513,750.831 1845.513,760.036 1811.5,760.036 1811.5,733.106 
			1845.513,733.106 1845.513,742.327 1883.072,742.327 1883.072,704.979 1910,704.979 1910,747.003 1960.559,747.003 		"/>
	</g>
	<path fill="none" stroke="#0000FF" stroke-width="0.0283" stroke-miterlimit="10" d="M2087.531,835.118
		c0,2.506,2.031,4.535,4.535,4.535s4.535-2.031,4.535-4.535s-2.031-4.535-4.535-4.535S2087.531,832.614,2087.531,835.118"/>
	<path fill="none" stroke="#0000FF" stroke-width="0.0283" stroke-miterlimit="10" d="M2087.531,920.138
		c0,2.506,2.031,4.535,4.535,4.535s4.535-2.031,4.535-4.535s-2.031-4.534-4.535-4.534S2087.531,917.632,2087.531,920.138"/>
	<path fill="none" stroke="#0000FF" stroke-width="0.0283" stroke-miterlimit="10" d="M1972.691,920.138
		c0,2.506,2.031,4.535,4.535,4.535s4.535-2.031,4.535-4.535s-2.031-4.534-4.535-4.534S1972.691,917.632,1972.691,920.138"/>
	<path fill="none" stroke="#0000FF" stroke-width="0.0283" stroke-miterlimit="10" d="M1944.373,920.138
		c0,2.506,2.029,4.535,4.533,4.535c2.506,0,4.535-2.031,4.535-4.535s-2.029-4.534-4.535-4.534
		C1946.402,915.604,1944.373,917.632,1944.373,920.138"/>
	<path fill="none" stroke="#0000FF" stroke-width="0.0283" stroke-miterlimit="10" d="M1944.373,835.118
		c0,2.506,2.029,4.535,4.533,4.535c2.506,0,4.535-2.031,4.535-4.535s-2.029-4.535-4.535-4.535
		C1946.402,830.583,1944.373,832.614,1944.373,835.118"/>
	<path fill="none" stroke="#0000FF" stroke-width="0.0283" stroke-miterlimit="10" d="M1768.636,920.138
		c0,2.506,2.028,4.537,4.534,4.535c2.507,0,4.535-2.031,4.535-4.535s-2.028-4.534-4.535-4.534
		C1770.664,915.604,1768.636,917.632,1768.636,920.138"/>
	<path fill="none" stroke="#0000FF" stroke-width="0.0283" stroke-miterlimit="10" d="M1653.793,920.138
		c0,2.506,2.031,4.535,4.535,4.535s4.535-2.031,4.535-4.535s-2.031-4.534-4.535-4.534S1653.793,917.632,1653.793,920.138"/>
	<path fill="none" stroke="#0000FF" stroke-width="0.0283" stroke-miterlimit="10" d="M2087.531,974.617
		c0,2.506,2.031,4.535,4.535,4.535s4.535-2.031,4.535-4.535s-2.031-4.535-4.535-4.535S2087.531,972.111,2087.531,974.617"/>
	<path fill="none" stroke="#0000FF" stroke-width="0.0283" stroke-miterlimit="10" d="M1972.691,974.617
		c0,2.506,2.031,4.535,4.535,4.535s4.535-2.031,4.535-4.535s-2.031-4.535-4.535-4.535S1972.691,972.111,1972.691,974.617"/>
	<path fill="none" stroke="#0000FF" stroke-width="0.0283" stroke-miterlimit="10" d="M1653.793,974.617
		c0,2.506,2.031,4.535,4.535,4.535s4.535-2.031,4.535-4.535s-2.031-4.535-4.535-4.535S1653.793,972.111,1653.793,974.617"/>
	<path fill="none" stroke="#0000FF" stroke-width="0.0283" stroke-miterlimit="10" d="M1653.793,835.118
		c0,2.506,2.031,4.535,4.535,4.535s4.535-2.031,4.535-4.535s-2.031-4.535-4.535-4.535S1653.793,832.614,1653.793,835.118"/>
	<path fill="none" stroke="#0000FF" stroke-width="0.0283" stroke-miterlimit="10" d="M2046.191,489.163
		c-19.568,0-35.437-15.862-35.437-35.433c0-19.571,15.865-35.436,35.437-35.436c19.565,0,35.434,15.863,35.434,35.436
		C2081.625,473.301,2065.757,489.163,2046.191,489.163z"/>
	<path fill="none" stroke="#0000FF" stroke-width="0.0283" stroke-miterlimit="10" d="M1934.591,489.056
		c-19.569,0-35.437-15.86-35.437-35.433s15.863-35.434,35.437-35.434c19.563,0,35.431,15.861,35.431,35.434
		S1954.158,489.056,1934.591,489.056z"/>
	<path fill="none" stroke="#0000FF" stroke-width="0.0283" stroke-miterlimit="10" d="M1822.992,489.056
		c-19.57,0-35.437-15.86-35.437-35.433s15.863-35.434,35.437-35.434c19.563,0,35.432,15.861,35.432,35.434
		S1842.557,489.056,1822.992,489.056z"/>
	<path fill="none" stroke="#0000FF" stroke-width="0.0283" stroke-miterlimit="10" d="M1711.393,489.056
		c-19.57,0-35.437-15.86-35.437-35.433s15.862-35.434,35.437-35.434c19.563,0,35.432,15.861,35.432,35.434
		S1730.958,489.056,1711.393,489.056z"/>
	<circle fill="none" stroke="#0000FF" stroke-width="0.0283" stroke-miterlimit="10" cx="1682.589" cy="536.158" r="11.338"/>
	<path fill="none" stroke="#0000FF" stroke-width="0.0283" stroke-miterlimit="10" d="M1738.391,547.496
		c-6.265,0-11.341-5.075-11.341-11.339s5.076-11.338,11.341-11.338c6.262,0,11.338,5.074,11.338,11.338
		S1744.652,547.496,1738.391,547.496z"/>
	<path fill="none" stroke="#0000FF" stroke-width="0.0283" stroke-miterlimit="10" d="M1794.189,547.496
		c-6.263,0-11.338-5.075-11.338-11.339s5.075-11.338,11.338-11.338c6.266,0,11.34,5.074,11.34,11.338
		S1800.455,547.496,1794.189,547.496z"/>
	<circle fill="none" stroke="#0000FF" stroke-width="0.0283" stroke-miterlimit="10" cx="1849.865" cy="536.157" r="11.338"/>
	<circle fill="none" stroke="#0000FF" stroke-width="0.0283" stroke-miterlimit="10" cx="1905.791" cy="536.157" r="11.338"/>
	<circle fill="none" stroke="#0000FF" stroke-width="0.0283" stroke-miterlimit="10" cx="1961.589" cy="536.157" r="11.338"/>
	<circle fill="none" stroke="#0000FF" stroke-width="0.0283" stroke-miterlimit="10" cx="2017.388" cy="536.157" r="11.338"/>
	<circle fill="none" stroke="#0000FF" stroke-width="0.0283" stroke-miterlimit="10" cx="2073.189" cy="536.157" r="11.338"/>
	
		<rect x="2009.199" y="560.244" fill="none" stroke="#0000FF" stroke-width="0.0283" stroke-miterlimit="10" width="73.981" height="26.469"/>
	
		<rect x="1897.595" y="560.207" fill="none" stroke="#0000FF" stroke-width="0.0283" stroke-miterlimit="10" width="73.986" height="26.506"/>
	
		<rect x="1785.998" y="560.207" fill="none" stroke="#0000FF" stroke-width="0.0283" stroke-miterlimit="10" width="73.984" height="26.506"/>
	
		<rect x="1674.396" y="560.207" fill="none" stroke="#0000FF" stroke-width="0.0283" stroke-miterlimit="10" width="73.985" height="26.506"/>
	<polygon fill="none" stroke="#0000FF" stroke-width="0.0283" stroke-miterlimit="10" points="1639.943,764.388 1659.787,764.388 
		1659.787,772.892 1688.13,772.892 1688.13,764.388 2062.304,764.388 2062.304,772.892 2090.65,772.892 2090.65,764.388 
		2110.494,764.388 2110.494,720.006 2101.99,720.006 2101.99,691.66 2110.494,691.66 2110.494,646.927 2090.65,646.927 
		2090.65,638.423 2062.304,638.423 2062.304,646.927 1688.13,646.927 1688.13,638.423 1659.787,638.423 1659.787,646.927 
		1639.943,646.927 1639.943,691.66 1648.447,691.66 1648.447,720.006 1639.943,720.006 	"/>
	<polygon fill="none" stroke="#0000FF" stroke-width="0.0283" stroke-miterlimit="10" points="2110.492,315.858 2090.65,315.858 
		2090.65,324.362 2062.302,324.362 2062.302,315.858 1688.13,315.858 1688.13,324.362 1659.785,324.362 1659.785,315.858 
		1639.943,315.858 1639.943,271.476 1648.447,271.476 1648.447,243.13 1639.943,243.13 1639.943,198.397 1659.785,198.397 
		1659.785,189.894 1688.13,189.894 1688.13,198.397 2062.302,198.396 2062.302,189.893 2090.65,189.893 2090.65,198.396 
		2110.492,198.396 2110.492,243.13 2101.988,243.13 2101.988,271.476 2110.492,271.476 	"/>
	<g>
		<path fill="none" stroke="#0000FF" stroke-width="0.0283" stroke-miterlimit="10" d="M2087.533,480.659
			c0,2.506,2.029,4.536,4.535,4.536c2.504,0,4.534-2.031,4.534-4.536c0-2.502-2.03-4.535-4.534-4.535
			C2089.563,476.124,2087.533,478.154,2087.533,480.659"/>
		<path fill="none" stroke="#0000FF" stroke-width="0.0283" stroke-miterlimit="10" d="M1652.662,480.659
			c0,3.132,2.537,5.67,5.668,5.67s5.67-2.539,5.67-5.67c0-3.129-2.539-5.669-5.67-5.669
			C1655.201,474.99,1652.662,477.528,1652.662,480.659"/>
	</g>
	
		<rect x="1659.785" y="594.061" fill="none" stroke="#0000FF" stroke-width="0.0283" stroke-miterlimit="10" width="28.348" height="8.506"/>
	
		<rect x="2062.302" y="594.061" fill="none" stroke="#0000FF" stroke-width="0.0283" stroke-miterlimit="10" width="28.347" height="8.506"/>
	<path fill="none" stroke="#0000FF" stroke-width="0.0283" stroke-miterlimit="10" d="M2118.998,1033.533c0,9.389-7.61,17-17,17
		h-453.561c-9.389,0-17-7.611-17-17V806.186c0-9.389,7.611-17,17-17h453.561c9.39,0,17,7.611,17,17V1033.533z"/>
	
		<rect x="1639.517" y="905.681" fill="none" stroke="#0000FF" stroke-width="0.0283" stroke-miterlimit="10" width="9.354" height="28.914"/>
	
		<rect x="1659.785" y="797.689" fill="none" stroke="#0000FF" stroke-width="0.0283" stroke-miterlimit="10" width="28.347" height="8.504"/>
	
		<rect x="2062.303" y="797.689" fill="none" stroke="#0000FF" stroke-width="0.0283" stroke-miterlimit="10" width="28.346" height="8.504"/>
	
		<rect x="2101.564" y="905.681" fill="none" stroke="#0000FF" stroke-width="0.0283" stroke-miterlimit="10" width="9.354" height="28.914"/>
	
		<rect x="2062.303" y="1033.523" fill="none" stroke="#0000FF" stroke-width="0.0283" stroke-miterlimit="10" width="28.346" height="8.504"/>
	
		<rect x="1659.785" y="1033.523" fill="none" stroke="#0000FF" stroke-width="0.0283" stroke-miterlimit="10" width="28.347" height="8.504"/>
	<path fill="none" stroke="#0000FF" stroke-width="0.0283" stroke-miterlimit="10" d="M2118.998,594.332c0,9.389-7.611,17-17,17
		h-453.561c-9.39,0-17-7.611-17-17V366.986c0-9.391,7.61-17,17-17h453.561c9.389,0,17,7.609,17,17V594.332z"/>
	
		<rect x="1639.943" y="466.207" fill="none" stroke="#0000FF" stroke-width="0.0283" stroke-miterlimit="10" width="8.504" height="28.346"/>
	
		<rect x="2101.99" y="466.207" fill="none" stroke="#0000FF" stroke-width="0.0283" stroke-miterlimit="10" width="8.504" height="28.346"/>
	
		<rect x="2062.302" y="358.49" fill="none" stroke="#0000FF" stroke-width="0.0283" stroke-miterlimit="10" width="28.347" height="8.504"/>
	
		<rect x="1659.785" y="358.49" fill="none" stroke="#0000FF" stroke-width="0.0283" stroke-miterlimit="10" width="28.348" height="8.504"/>
</g>
<g id="Layer_6">
	<g>
		<g>
			<g>
				<g>
					
						<rect x="356.115" y="122.815" fill="none" stroke="#0000FF" stroke-width="0.0283" stroke-miterlimit="10" width="28.348" height="32.598"/>
				</g>
			</g>
			<polygon fill="none" stroke="#0000FF" stroke-width="0.0283" stroke-miterlimit="10" points="439.169,167.82 439.169,176.324 
				410.824,176.324 410.824,167.821 311.611,167.819 311.611,123.438 303.107,123.438 303.107,95.092 311.611,95.092 
				311.611,50.362 410.824,50.358 410.824,41.855 439.169,41.855 439.169,50.359 439.169,50.359 538.384,50.359 538.384,95.092 
				546.888,95.092 546.888,123.438 538.384,123.438 538.384,167.82 			"/>
		</g>
		<g>
			<polygon fill="none" stroke="#0000FF" stroke-width="0.0283" stroke-miterlimit="10" points="172.276,50.359 172.276,41.855 
				143.928,41.855 143.928,50.359 44.715,50.361 44.715,95.091 36.211,95.091 36.211,123.437 44.715,123.437 44.715,167.82 
				143.928,167.824 143.928,176.324 172.274,176.324 172.274,167.82 172.274,167.82 271.487,167.82 271.487,123.437 
				279.991,123.437 279.991,95.091 271.487,95.091 271.487,50.359 			"/>
		</g>
	</g>
	<g>
		<g>
			<g>
				<g>
					
						<rect x="883.949" y="122.815" fill="none" stroke="#0000FF" stroke-width="0.0283" stroke-miterlimit="10" width="28.348" height="32.598"/>
				</g>
			</g>
			<polygon fill="none" stroke="#0000FF" stroke-width="0.0283" stroke-miterlimit="10" points="967.004,167.82 967.004,176.324 
				938.658,176.324 938.658,167.821 839.445,167.819 839.445,123.438 830.941,123.438 830.941,95.092 839.445,95.092 
				839.445,50.362 938.658,50.358 938.658,41.855 967.004,41.855 967.004,50.359 967.004,50.359 1066.219,50.359 1066.219,95.092 
				1074.723,95.092 1074.723,123.438 1066.219,123.438 1066.219,167.82 			"/>
		</g>
		<g>
			<polygon fill="none" stroke="#0000FF" stroke-width="0.0283" stroke-miterlimit="10" points="700.11,50.359 700.11,41.855 
				671.763,41.855 671.763,50.359 572.55,50.361 572.55,95.091 564.046,95.091 564.046,123.437 572.55,123.437 572.55,167.82 
				671.763,167.824 671.763,176.324 700.107,176.324 700.107,167.82 700.107,167.82 799.321,167.82 799.321,123.437 
				807.825,123.437 807.825,95.091 799.321,95.091 799.321,50.359 			"/>
		</g>
	</g>
	<g>
		<g>
			<g>
				<g>
					
						<rect x="1411.951" y="122.815" fill="none" stroke="#0000FF" stroke-width="0.0283" stroke-miterlimit="10" width="28.348" height="32.598"/>
				</g>
			</g>
			<polygon fill="none" stroke="#0000FF" stroke-width="0.0283" stroke-miterlimit="10" points="1495.003,167.82 1495.003,176.324 
				1466.66,176.324 1466.66,167.821 1367.447,167.819 1367.447,123.438 1358.943,123.438 1358.943,95.092 1367.447,95.092 
				1367.447,50.362 1466.66,50.358 1466.66,41.855 1495.003,41.855 1495.003,50.359 1495.003,50.359 1594.218,50.359 
				1594.218,95.092 1602.723,95.092 1602.723,123.438 1594.218,123.438 1594.218,167.82 			"/>
		</g>
		<g>
			<polygon fill="none" stroke="#0000FF" stroke-width="0.0283" stroke-miterlimit="10" points="1228.111,50.359 1228.111,41.855 
				1199.763,41.855 1199.763,50.359 1100.55,50.361 1100.55,95.091 1092.046,95.091 1092.046,123.437 1100.55,123.437 
				1100.55,167.82 1199.763,167.824 1199.763,176.324 1228.109,176.324 1228.109,167.82 1228.109,167.82 1327.322,167.82 
				1327.322,123.437 1335.826,123.437 1335.826,95.091 1327.322,95.091 1327.322,50.359 			"/>
		</g>
	</g>
	<g>
		<g>
			<g>
				<g>
					
						<rect x="1939.785" y="122.815" fill="none" stroke="#0000FF" stroke-width="0.0283" stroke-miterlimit="10" width="28.348" height="32.598"/>
				</g>
			</g>
			<polygon fill="none" stroke="#0000FF" stroke-width="0.0283" stroke-miterlimit="10" points="2022.837,167.82 2022.837,176.324 
				1994.494,176.324 1994.494,167.821 1895.281,167.819 1895.281,123.438 1886.777,123.438 1886.777,95.092 1895.281,95.092 
				1895.281,50.362 1994.494,50.358 1994.494,41.855 2022.837,41.855 2022.837,50.359 2022.837,50.359 2122.052,50.359 
				2122.052,95.092 2130.556,95.092 2130.556,123.438 2122.052,123.438 2122.052,167.82 			"/>
		</g>
		<g>
			<polygon fill="none" stroke="#0000FF" stroke-width="0.0283" stroke-miterlimit="10" points="1755.945,50.359 1755.945,41.855 
				1727.598,41.855 1727.598,50.359 1628.384,50.361 1628.384,95.091 1619.88,95.091 1619.88,123.437 1628.384,123.437 
				1628.384,167.82 1727.598,167.824 1727.598,176.324 1755.943,176.324 1755.943,167.82 1755.943,167.82 1855.156,167.82 
				1855.156,123.437 1863.66,123.437 1863.66,95.091 1855.156,95.091 1855.156,50.359 			"/>
		</g>
	</g>
</g>
<rect x="204.185" y="864.752" fill="none" width="534" height="268"/>
</svg>
