<?xml version="1.0" encoding="utf-8"?>
<!-- Generator: Adobe Illustrator 15.0.0, SVG Export Plug-In . SVG Version: 6.00 Build 0)  -->
<!DOCTYPE svg PUBLIC "-//W3C//DTD SVG 1.1//EN" "http://www.w3.org/Graphics/SVG/1.1/DTD/svg11.dtd">
<svg version="1.1" id="Layer_1" xmlns="http://www.w3.org/2000/svg" xmlns:xlink="http://www.w3.org/1999/xlink" x="0px" y="0px"
	 width="612px" height="792px" viewBox="0 0 612 792" enable-background="new 0 0 612 792" xml:space="preserve">
<path fill="none" stroke="#010101" stroke-width="1.44" stroke-linecap="round" stroke-linejoin="round" stroke-miterlimit="10" d="
	M37.379,358.33c0-2.568-2.082-4.65-4.648-4.65c-2.567,0-4.649,2.082-4.649,4.65s2.082,4.65,4.649,4.65
	C35.297,362.98,37.379,360.898,37.379,358.33"/>
<path fill="none" stroke="#010101" stroke-width="1.44" stroke-linecap="round" stroke-linejoin="round" stroke-miterlimit="10" d="
	M37.379,386.83c0-2.568-2.082-4.65-4.648-4.65c-2.567,0-4.649,2.082-4.649,4.65s2.082,4.65,4.649,4.65
	C35.297,391.48,37.379,389.398,37.379,386.83"/>
<path fill="none" stroke="#010101" stroke-width="1.44" stroke-linecap="round" stroke-linejoin="round" stroke-miterlimit="10" d="
	M37.379,403.87c0-2.568-2.082-4.649-4.648-4.649c-2.567,0-4.649,2.081-4.649,4.649c0,2.567,2.082,4.649,4.649,4.649
	C35.297,408.52,37.379,406.438,37.379,403.87"/>
<path fill="none" stroke="#010101" stroke-width="1.44" stroke-linecap="round" stroke-linejoin="round" stroke-miterlimit="10" d="
	M37.38,432.37c-0.001-2.568-2.083-4.649-4.649-4.649c-2.567,0-4.649,2.081-4.649,4.649c0,2.567,2.082,4.649,4.649,4.649
	S37.38,434.938,37.38,432.37"/>
<path fill="none" stroke="#010101" stroke-width="1.44" stroke-linecap="round" stroke-linejoin="round" stroke-miterlimit="10" d="
	M584.579,403.87c0-2.568-2.082-4.649-4.65-4.649c-2.567,0-4.648,2.081-4.648,4.649c0,2.567,2.081,4.649,4.648,4.649
	C582.497,408.52,584.579,406.438,584.579,403.87"/>
<path fill="none" stroke="#010101" stroke-width="1.44" stroke-linecap="round" stroke-linejoin="round" stroke-miterlimit="10" d="
	M584.579,386.83c0-2.568-2.082-4.65-4.65-4.65c-2.567,0-4.648,2.082-4.648,4.65s2.081,4.65,4.648,4.65
	C582.497,391.48,584.579,389.398,584.579,386.83"/>
<path fill="none" stroke="#010101" stroke-width="1.44" stroke-linecap="round" stroke-linejoin="round" stroke-miterlimit="10" d="
	M584.579,432.37c0-2.568-2.082-4.649-4.65-4.649c-2.567,0-4.648,2.081-4.648,4.649c0,2.567,2.081,4.649,4.648,4.649
	C582.497,437.02,584.579,434.938,584.579,432.37"/>
<path fill="none" stroke="#010101" stroke-width="1.44" stroke-linecap="round" stroke-linejoin="round" stroke-miterlimit="10" d="
	M584.579,358.33c0-2.568-2.082-4.65-4.65-4.65c-2.567,0-4.648,2.082-4.648,4.65s2.081,4.65,4.648,4.65
	C582.497,362.98,584.579,360.898,584.579,358.33"/>
<polyline fill="none" stroke="#010101" stroke-width="1.44" stroke-linecap="round" stroke-linejoin="round" stroke-miterlimit="10" points="
	23.829,440.874 23.829,349.826 588.434,349.826 588.434,440.874 23.829,440.874 "/>
<path fill="none" stroke="#010101" stroke-width="1.44" stroke-linecap="round" stroke-linejoin="round" stroke-miterlimit="10" d="
	M51.779,463c0-2.568-2.082-4.65-4.648-4.65c-2.567,0-4.649,2.082-4.649,4.65s2.082,4.65,4.649,4.65
	C49.697,467.65,51.779,465.568,51.779,463"/>
<path fill="none" stroke="#010101" stroke-width="1.44" stroke-linecap="round" stroke-linejoin="round" stroke-miterlimit="10" d="
	M51.779,491.5c0-2.568-2.082-4.65-4.648-4.65c-2.567,0-4.649,2.082-4.649,4.65s2.082,4.65,4.649,4.65
	C49.697,496.15,51.779,494.068,51.779,491.5"/>
<path fill="none" stroke="#010101" stroke-width="1.44" stroke-linecap="round" stroke-linejoin="round" stroke-miterlimit="10" d="
	M51.779,508.54c0-2.568-2.082-4.649-4.648-4.649c-2.567,0-4.649,2.081-4.649,4.649c0,2.567,2.082,4.649,4.649,4.649
	C49.697,513.189,51.779,511.107,51.779,508.54"/>
<path fill="none" stroke="#010101" stroke-width="1.44" stroke-linecap="round" stroke-linejoin="round" stroke-miterlimit="10" d="
	M51.78,537.04c-0.001-2.568-2.083-4.649-4.649-4.649c-2.567,0-4.649,2.081-4.649,4.649c0,2.567,2.082,4.649,4.649,4.649
	S51.78,539.607,51.78,537.04"/>
<path fill="none" stroke="#010101" stroke-width="1.44" stroke-linecap="round" stroke-linejoin="round" stroke-miterlimit="10" d="
	M570.179,508.54c0-2.568-2.082-4.649-4.65-4.649c-2.567,0-4.648,2.081-4.648,4.649c0,2.567,2.081,4.649,4.648,4.649
	C568.097,513.189,570.179,511.107,570.179,508.54"/>
<path fill="none" stroke="#010101" stroke-width="1.44" stroke-linecap="round" stroke-linejoin="round" stroke-miterlimit="10" d="
	M570.179,491.5c0-2.568-2.082-4.65-4.65-4.65c-2.567,0-4.648,2.082-4.648,4.65s2.081,4.65,4.648,4.65
	C568.097,496.15,570.179,494.068,570.179,491.5"/>
<path fill="none" stroke="#010101" stroke-width="1.44" stroke-linecap="round" stroke-linejoin="round" stroke-miterlimit="10" d="
	M570.179,537.04c0-2.568-2.082-4.649-4.65-4.649c-2.567,0-4.648,2.081-4.648,4.649c0,2.567,2.081,4.649,4.648,4.649
	C568.097,541.689,570.179,539.607,570.179,537.04"/>
<path fill="none" stroke="#010101" stroke-width="1.44" stroke-linecap="round" stroke-linejoin="round" stroke-miterlimit="10" d="
	M570.179,463c0-2.568-2.082-4.65-4.65-4.65c-2.567,0-4.648,2.082-4.648,4.65s2.081,4.65,4.648,4.65
	C568.097,467.65,570.179,465.568,570.179,463"/>
<polyline fill="none" stroke="#010101" stroke-width="1.44" stroke-linecap="round" stroke-linejoin="round" stroke-miterlimit="10" points="
	38.229,545.544 38.229,454.496 574.033,454.496 574.033,545.544 38.229,545.544 "/>
</svg>
