G04 #@! TF.FileFunction,Legend,Top*
%FSLAX46Y46*%
G04 Gerber Fmt 4.6, Leading zero omitted, Abs format (unit mm)*
G04 Created by KiCad (PCBNEW 4.0.4-stable) date 11/14/16 13:42:01*
%MOMM*%
%LPD*%
G01*
G04 APERTURE LIST*
%ADD10C,0.100000*%
%ADD11C,0.125000*%
%ADD12C,0.150000*%
G04 APERTURE END LIST*
D10*
D11*
X141716430Y-88673810D02*
X141740240Y-88650000D01*
X141787859Y-88626190D01*
X141906906Y-88626190D01*
X141954525Y-88650000D01*
X141978335Y-88673810D01*
X142002144Y-88721429D01*
X142002144Y-88769048D01*
X141978335Y-88840476D01*
X141692621Y-89126190D01*
X142002144Y-89126190D01*
X142311668Y-88626190D02*
X142359287Y-88626190D01*
X142406906Y-88650000D01*
X142430715Y-88673810D01*
X142454525Y-88721429D01*
X142478334Y-88816667D01*
X142478334Y-88935714D01*
X142454525Y-89030952D01*
X142430715Y-89078571D01*
X142406906Y-89102381D01*
X142359287Y-89126190D01*
X142311668Y-89126190D01*
X142264049Y-89102381D01*
X142240239Y-89078571D01*
X142216430Y-89030952D01*
X142192620Y-88935714D01*
X142192620Y-88816667D01*
X142216430Y-88721429D01*
X142240239Y-88673810D01*
X142264049Y-88650000D01*
X142311668Y-88626190D01*
X142954524Y-89126190D02*
X142668810Y-89126190D01*
X142811667Y-89126190D02*
X142811667Y-88626190D01*
X142764048Y-88697619D01*
X142716429Y-88745238D01*
X142668810Y-88769048D01*
X143383095Y-88626190D02*
X143287857Y-88626190D01*
X143240238Y-88650000D01*
X143216429Y-88673810D01*
X143168810Y-88745238D01*
X143145000Y-88840476D01*
X143145000Y-89030952D01*
X143168810Y-89078571D01*
X143192619Y-89102381D01*
X143240238Y-89126190D01*
X143335476Y-89126190D01*
X143383095Y-89102381D01*
X143406905Y-89078571D01*
X143430714Y-89030952D01*
X143430714Y-88911905D01*
X143406905Y-88864286D01*
X143383095Y-88840476D01*
X143335476Y-88816667D01*
X143240238Y-88816667D01*
X143192619Y-88840476D01*
X143168810Y-88864286D01*
X143145000Y-88911905D01*
X143645000Y-88935714D02*
X144025952Y-88935714D01*
X144525952Y-89126190D02*
X144240238Y-89126190D01*
X144383095Y-89126190D02*
X144383095Y-88626190D01*
X144335476Y-88697619D01*
X144287857Y-88745238D01*
X144240238Y-88769048D01*
X145002142Y-89126190D02*
X144716428Y-89126190D01*
X144859285Y-89126190D02*
X144859285Y-88626190D01*
X144811666Y-88697619D01*
X144764047Y-88745238D01*
X144716428Y-88769048D01*
X145216428Y-88935714D02*
X145597380Y-88935714D01*
X146097380Y-89126190D02*
X145811666Y-89126190D01*
X145954523Y-89126190D02*
X145954523Y-88626190D01*
X145906904Y-88697619D01*
X145859285Y-88745238D01*
X145811666Y-88769048D01*
X146525951Y-88792857D02*
X146525951Y-89126190D01*
X146406904Y-88602381D02*
X146287856Y-88959524D01*
X146597380Y-88959524D01*
X141775952Y-88229286D02*
X141847381Y-88253095D01*
X141871190Y-88276905D01*
X141895000Y-88324524D01*
X141895000Y-88395952D01*
X141871190Y-88443571D01*
X141847381Y-88467381D01*
X141799762Y-88491190D01*
X141609286Y-88491190D01*
X141609286Y-87991190D01*
X141775952Y-87991190D01*
X141823571Y-88015000D01*
X141847381Y-88038810D01*
X141871190Y-88086429D01*
X141871190Y-88134048D01*
X141847381Y-88181667D01*
X141823571Y-88205476D01*
X141775952Y-88229286D01*
X141609286Y-88229286D01*
X142037857Y-87991190D02*
X142323571Y-87991190D01*
X142180714Y-88491190D02*
X142180714Y-87991190D01*
X142752142Y-88491190D02*
X142466428Y-88491190D01*
X142609285Y-88491190D02*
X142609285Y-87991190D01*
X142561666Y-88062619D01*
X142514047Y-88110238D01*
X142466428Y-88134048D01*
X142942618Y-88038810D02*
X142966428Y-88015000D01*
X143014047Y-87991190D01*
X143133094Y-87991190D01*
X143180713Y-88015000D01*
X143204523Y-88038810D01*
X143228332Y-88086429D01*
X143228332Y-88134048D01*
X143204523Y-88205476D01*
X142918809Y-88491190D01*
X143228332Y-88491190D01*
X143728332Y-88443571D02*
X143704522Y-88467381D01*
X143633094Y-88491190D01*
X143585475Y-88491190D01*
X143514046Y-88467381D01*
X143466427Y-88419762D01*
X143442618Y-88372143D01*
X143418808Y-88276905D01*
X143418808Y-88205476D01*
X143442618Y-88110238D01*
X143466427Y-88062619D01*
X143514046Y-88015000D01*
X143585475Y-87991190D01*
X143633094Y-87991190D01*
X143704522Y-88015000D01*
X143728332Y-88038810D01*
X143942618Y-88491190D02*
X143942618Y-87991190D01*
X143942618Y-88229286D02*
X144228332Y-88229286D01*
X144228332Y-88491190D02*
X144228332Y-87991190D01*
X144394999Y-87991190D02*
X144680713Y-87991190D01*
X144537856Y-88491190D02*
X144537856Y-87991190D01*
X144942618Y-87991190D02*
X145037856Y-87991190D01*
X145085475Y-88015000D01*
X145133094Y-88062619D01*
X145156903Y-88157857D01*
X145156903Y-88324524D01*
X145133094Y-88419762D01*
X145085475Y-88467381D01*
X145037856Y-88491190D01*
X144942618Y-88491190D01*
X144894999Y-88467381D01*
X144847380Y-88419762D01*
X144823570Y-88324524D01*
X144823570Y-88157857D01*
X144847380Y-88062619D01*
X144894999Y-88015000D01*
X144942618Y-87991190D01*
X145371190Y-87991190D02*
X145371190Y-88395952D01*
X145394999Y-88443571D01*
X145418809Y-88467381D01*
X145466428Y-88491190D01*
X145561666Y-88491190D01*
X145609285Y-88467381D01*
X145633094Y-88443571D01*
X145656904Y-88395952D01*
X145656904Y-87991190D01*
X146180714Y-88443571D02*
X146156904Y-88467381D01*
X146085476Y-88491190D01*
X146037857Y-88491190D01*
X145966428Y-88467381D01*
X145918809Y-88419762D01*
X145895000Y-88372143D01*
X145871190Y-88276905D01*
X145871190Y-88205476D01*
X145895000Y-88110238D01*
X145918809Y-88062619D01*
X145966428Y-88015000D01*
X146037857Y-87991190D01*
X146085476Y-87991190D01*
X146156904Y-88015000D01*
X146180714Y-88038810D01*
X146395000Y-88491190D02*
X146395000Y-87991190D01*
X146395000Y-88229286D02*
X146680714Y-88229286D01*
X146680714Y-88491190D02*
X146680714Y-87991190D01*
D12*
X144165000Y-76795000D02*
X145165000Y-76795000D01*
X145165000Y-78145000D02*
X144165000Y-78145000D01*
X146340000Y-78160000D02*
G75*
G03X146340000Y-78160000I-1270000J0D01*
G01*
X152800000Y-78050000D02*
X152800000Y-78975000D01*
X147500000Y-83350000D02*
X147500000Y-82425000D01*
X152800000Y-83350000D02*
X152800000Y-82425000D01*
X147500000Y-78050000D02*
X148425000Y-78050000D01*
X147500000Y-83350000D02*
X148425000Y-83350000D01*
X152800000Y-83350000D02*
X151875000Y-83350000D01*
X152800000Y-78050000D02*
X151875000Y-78050000D01*
X145280000Y-83860000D02*
X144280000Y-83860000D01*
X144280000Y-82510000D02*
X145280000Y-82510000D01*
X144280000Y-86320000D02*
X145280000Y-86320000D01*
X145280000Y-87670000D02*
X144280000Y-87670000D01*
X144278160Y-80602460D02*
X145278160Y-80602460D01*
X145278160Y-81952460D02*
X144278160Y-81952460D01*
X144280000Y-78700000D02*
X145280000Y-78700000D01*
X145280000Y-80050000D02*
X144280000Y-80050000D01*
X145236660Y-85648952D02*
X144536660Y-85648952D01*
X144536660Y-84448952D02*
X145236660Y-84448952D01*
X145130000Y-76165000D02*
X144430000Y-76165000D01*
X144430000Y-74965000D02*
X145130000Y-74965000D01*
X149388095Y-76627381D02*
X149388095Y-77436905D01*
X149435714Y-77532143D01*
X149483333Y-77579762D01*
X149578571Y-77627381D01*
X149769048Y-77627381D01*
X149864286Y-77579762D01*
X149911905Y-77532143D01*
X149959524Y-77436905D01*
X149959524Y-76627381D01*
X150959524Y-77627381D02*
X150388095Y-77627381D01*
X150673809Y-77627381D02*
X150673809Y-76627381D01*
X150578571Y-76770238D01*
X150483333Y-76865476D01*
X150388095Y-76913095D01*
D11*
X147546190Y-87602142D02*
X147046190Y-87602142D01*
X147046190Y-87411666D01*
X147070000Y-87364047D01*
X147093810Y-87340238D01*
X147141429Y-87316428D01*
X147212857Y-87316428D01*
X147260476Y-87340238D01*
X147284286Y-87364047D01*
X147308095Y-87411666D01*
X147308095Y-87602142D01*
X147046190Y-87006904D02*
X147046190Y-86959285D01*
X147070000Y-86911666D01*
X147093810Y-86887857D01*
X147141429Y-86864047D01*
X147236667Y-86840238D01*
X147355714Y-86840238D01*
X147450952Y-86864047D01*
X147498571Y-86887857D01*
X147522381Y-86911666D01*
X147546190Y-86959285D01*
X147546190Y-87006904D01*
X147522381Y-87054523D01*
X147498571Y-87078333D01*
X147450952Y-87102142D01*
X147355714Y-87125952D01*
X147236667Y-87125952D01*
X147141429Y-87102142D01*
X147093810Y-87078333D01*
X147070000Y-87054523D01*
X147046190Y-87006904D01*
X147046190Y-86530714D02*
X147046190Y-86483095D01*
X147070000Y-86435476D01*
X147093810Y-86411667D01*
X147141429Y-86387857D01*
X147236667Y-86364048D01*
X147355714Y-86364048D01*
X147450952Y-86387857D01*
X147498571Y-86411667D01*
X147522381Y-86435476D01*
X147546190Y-86483095D01*
X147546190Y-86530714D01*
X147522381Y-86578333D01*
X147498571Y-86602143D01*
X147450952Y-86625952D01*
X147355714Y-86649762D01*
X147236667Y-86649762D01*
X147141429Y-86625952D01*
X147093810Y-86602143D01*
X147070000Y-86578333D01*
X147046190Y-86530714D01*
X150086190Y-87602142D02*
X149586190Y-87602142D01*
X149586190Y-87411666D01*
X149610000Y-87364047D01*
X149633810Y-87340238D01*
X149681429Y-87316428D01*
X149752857Y-87316428D01*
X149800476Y-87340238D01*
X149824286Y-87364047D01*
X149848095Y-87411666D01*
X149848095Y-87602142D01*
X149586190Y-87006904D02*
X149586190Y-86959285D01*
X149610000Y-86911666D01*
X149633810Y-86887857D01*
X149681429Y-86864047D01*
X149776667Y-86840238D01*
X149895714Y-86840238D01*
X149990952Y-86864047D01*
X150038571Y-86887857D01*
X150062381Y-86911666D01*
X150086190Y-86959285D01*
X150086190Y-87006904D01*
X150062381Y-87054523D01*
X150038571Y-87078333D01*
X149990952Y-87102142D01*
X149895714Y-87125952D01*
X149776667Y-87125952D01*
X149681429Y-87102142D01*
X149633810Y-87078333D01*
X149610000Y-87054523D01*
X149586190Y-87006904D01*
X150086190Y-86364048D02*
X150086190Y-86649762D01*
X150086190Y-86506905D02*
X149586190Y-86506905D01*
X149657619Y-86554524D01*
X149705238Y-86602143D01*
X149729048Y-86649762D01*
X152626190Y-87602142D02*
X152126190Y-87602142D01*
X152126190Y-87411666D01*
X152150000Y-87364047D01*
X152173810Y-87340238D01*
X152221429Y-87316428D01*
X152292857Y-87316428D01*
X152340476Y-87340238D01*
X152364286Y-87364047D01*
X152388095Y-87411666D01*
X152388095Y-87602142D01*
X152126190Y-87006904D02*
X152126190Y-86959285D01*
X152150000Y-86911666D01*
X152173810Y-86887857D01*
X152221429Y-86864047D01*
X152316667Y-86840238D01*
X152435714Y-86840238D01*
X152530952Y-86864047D01*
X152578571Y-86887857D01*
X152602381Y-86911666D01*
X152626190Y-86959285D01*
X152626190Y-87006904D01*
X152602381Y-87054523D01*
X152578571Y-87078333D01*
X152530952Y-87102142D01*
X152435714Y-87125952D01*
X152316667Y-87125952D01*
X152221429Y-87102142D01*
X152173810Y-87078333D01*
X152150000Y-87054523D01*
X152126190Y-87006904D01*
X152173810Y-86649762D02*
X152150000Y-86625952D01*
X152126190Y-86578333D01*
X152126190Y-86459286D01*
X152150000Y-86411667D01*
X152173810Y-86387857D01*
X152221429Y-86364048D01*
X152269048Y-86364048D01*
X152340476Y-86387857D01*
X152626190Y-86673571D01*
X152626190Y-86364048D01*
X153896190Y-88237142D02*
X153396190Y-88237142D01*
X153396190Y-88046666D01*
X153420000Y-87999047D01*
X153443810Y-87975238D01*
X153491429Y-87951428D01*
X153562857Y-87951428D01*
X153610476Y-87975238D01*
X153634286Y-87999047D01*
X153658095Y-88046666D01*
X153658095Y-88237142D01*
X153396190Y-87641904D02*
X153396190Y-87594285D01*
X153420000Y-87546666D01*
X153443810Y-87522857D01*
X153491429Y-87499047D01*
X153586667Y-87475238D01*
X153705714Y-87475238D01*
X153800952Y-87499047D01*
X153848571Y-87522857D01*
X153872381Y-87546666D01*
X153896190Y-87594285D01*
X153896190Y-87641904D01*
X153872381Y-87689523D01*
X153848571Y-87713333D01*
X153800952Y-87737142D01*
X153705714Y-87760952D01*
X153586667Y-87760952D01*
X153491429Y-87737142D01*
X153443810Y-87713333D01*
X153420000Y-87689523D01*
X153396190Y-87641904D01*
X153396190Y-87308571D02*
X153396190Y-86999048D01*
X153586667Y-87165714D01*
X153586667Y-87094286D01*
X153610476Y-87046667D01*
X153634286Y-87022857D01*
X153681905Y-86999048D01*
X153800952Y-86999048D01*
X153848571Y-87022857D01*
X153872381Y-87046667D01*
X153896190Y-87094286D01*
X153896190Y-87237143D01*
X153872381Y-87284762D01*
X153848571Y-87308571D01*
X153062858Y-85316190D02*
X153062858Y-84816190D01*
X153253334Y-84816190D01*
X153300953Y-84840000D01*
X153324762Y-84863810D01*
X153348572Y-84911429D01*
X153348572Y-84982857D01*
X153324762Y-85030476D01*
X153300953Y-85054286D01*
X153253334Y-85078095D01*
X153062858Y-85078095D01*
X153658096Y-84816190D02*
X153705715Y-84816190D01*
X153753334Y-84840000D01*
X153777143Y-84863810D01*
X153800953Y-84911429D01*
X153824762Y-85006667D01*
X153824762Y-85125714D01*
X153800953Y-85220952D01*
X153777143Y-85268571D01*
X153753334Y-85292381D01*
X153705715Y-85316190D01*
X153658096Y-85316190D01*
X153610477Y-85292381D01*
X153586667Y-85268571D01*
X153562858Y-85220952D01*
X153539048Y-85125714D01*
X153539048Y-85006667D01*
X153562858Y-84911429D01*
X153586667Y-84863810D01*
X153610477Y-84840000D01*
X153658096Y-84816190D01*
X154253333Y-84982857D02*
X154253333Y-85316190D01*
X154134286Y-84792381D02*
X154015238Y-85149524D01*
X154324762Y-85149524D01*
X153062858Y-82776190D02*
X153062858Y-82276190D01*
X153253334Y-82276190D01*
X153300953Y-82300000D01*
X153324762Y-82323810D01*
X153348572Y-82371429D01*
X153348572Y-82442857D01*
X153324762Y-82490476D01*
X153300953Y-82514286D01*
X153253334Y-82538095D01*
X153062858Y-82538095D01*
X153658096Y-82276190D02*
X153705715Y-82276190D01*
X153753334Y-82300000D01*
X153777143Y-82323810D01*
X153800953Y-82371429D01*
X153824762Y-82466667D01*
X153824762Y-82585714D01*
X153800953Y-82680952D01*
X153777143Y-82728571D01*
X153753334Y-82752381D01*
X153705715Y-82776190D01*
X153658096Y-82776190D01*
X153610477Y-82752381D01*
X153586667Y-82728571D01*
X153562858Y-82680952D01*
X153539048Y-82585714D01*
X153539048Y-82466667D01*
X153562858Y-82371429D01*
X153586667Y-82323810D01*
X153610477Y-82300000D01*
X153658096Y-82276190D01*
X154277143Y-82276190D02*
X154039048Y-82276190D01*
X154015238Y-82514286D01*
X154039048Y-82490476D01*
X154086667Y-82466667D01*
X154205714Y-82466667D01*
X154253333Y-82490476D01*
X154277143Y-82514286D01*
X154300952Y-82561905D01*
X154300952Y-82680952D01*
X154277143Y-82728571D01*
X154253333Y-82752381D01*
X154205714Y-82776190D01*
X154086667Y-82776190D01*
X154039048Y-82752381D01*
X154015238Y-82728571D01*
X153062858Y-80236190D02*
X153062858Y-79736190D01*
X153253334Y-79736190D01*
X153300953Y-79760000D01*
X153324762Y-79783810D01*
X153348572Y-79831429D01*
X153348572Y-79902857D01*
X153324762Y-79950476D01*
X153300953Y-79974286D01*
X153253334Y-79998095D01*
X153062858Y-79998095D01*
X153658096Y-79736190D02*
X153705715Y-79736190D01*
X153753334Y-79760000D01*
X153777143Y-79783810D01*
X153800953Y-79831429D01*
X153824762Y-79926667D01*
X153824762Y-80045714D01*
X153800953Y-80140952D01*
X153777143Y-80188571D01*
X153753334Y-80212381D01*
X153705715Y-80236190D01*
X153658096Y-80236190D01*
X153610477Y-80212381D01*
X153586667Y-80188571D01*
X153562858Y-80140952D01*
X153539048Y-80045714D01*
X153539048Y-79926667D01*
X153562858Y-79831429D01*
X153586667Y-79783810D01*
X153610477Y-79760000D01*
X153658096Y-79736190D01*
X154253333Y-79736190D02*
X154158095Y-79736190D01*
X154110476Y-79760000D01*
X154086667Y-79783810D01*
X154039048Y-79855238D01*
X154015238Y-79950476D01*
X154015238Y-80140952D01*
X154039048Y-80188571D01*
X154062857Y-80212381D01*
X154110476Y-80236190D01*
X154205714Y-80236190D01*
X154253333Y-80212381D01*
X154277143Y-80188571D01*
X154300952Y-80140952D01*
X154300952Y-80021905D01*
X154277143Y-79974286D01*
X154253333Y-79950476D01*
X154205714Y-79926667D01*
X154110476Y-79926667D01*
X154062857Y-79950476D01*
X154039048Y-79974286D01*
X154015238Y-80021905D01*
X153062858Y-77696190D02*
X153062858Y-77196190D01*
X153253334Y-77196190D01*
X153300953Y-77220000D01*
X153324762Y-77243810D01*
X153348572Y-77291429D01*
X153348572Y-77362857D01*
X153324762Y-77410476D01*
X153300953Y-77434286D01*
X153253334Y-77458095D01*
X153062858Y-77458095D01*
X153658096Y-77196190D02*
X153705715Y-77196190D01*
X153753334Y-77220000D01*
X153777143Y-77243810D01*
X153800953Y-77291429D01*
X153824762Y-77386667D01*
X153824762Y-77505714D01*
X153800953Y-77600952D01*
X153777143Y-77648571D01*
X153753334Y-77672381D01*
X153705715Y-77696190D01*
X153658096Y-77696190D01*
X153610477Y-77672381D01*
X153586667Y-77648571D01*
X153562858Y-77600952D01*
X153539048Y-77505714D01*
X153539048Y-77386667D01*
X153562858Y-77291429D01*
X153586667Y-77243810D01*
X153610477Y-77220000D01*
X153658096Y-77196190D01*
X153991429Y-77196190D02*
X154324762Y-77196190D01*
X154110476Y-77696190D01*
X155166190Y-76172142D02*
X154666190Y-76172142D01*
X154666190Y-75981666D01*
X154690000Y-75934047D01*
X154713810Y-75910238D01*
X154761429Y-75886428D01*
X154832857Y-75886428D01*
X154880476Y-75910238D01*
X154904286Y-75934047D01*
X154928095Y-75981666D01*
X154928095Y-76172142D01*
X154666190Y-75576904D02*
X154666190Y-75529285D01*
X154690000Y-75481666D01*
X154713810Y-75457857D01*
X154761429Y-75434047D01*
X154856667Y-75410238D01*
X154975714Y-75410238D01*
X155070952Y-75434047D01*
X155118571Y-75457857D01*
X155142381Y-75481666D01*
X155166190Y-75529285D01*
X155166190Y-75576904D01*
X155142381Y-75624523D01*
X155118571Y-75648333D01*
X155070952Y-75672142D01*
X154975714Y-75695952D01*
X154856667Y-75695952D01*
X154761429Y-75672142D01*
X154713810Y-75648333D01*
X154690000Y-75624523D01*
X154666190Y-75576904D01*
X154880476Y-75124524D02*
X154856667Y-75172143D01*
X154832857Y-75195952D01*
X154785238Y-75219762D01*
X154761429Y-75219762D01*
X154713810Y-75195952D01*
X154690000Y-75172143D01*
X154666190Y-75124524D01*
X154666190Y-75029286D01*
X154690000Y-74981667D01*
X154713810Y-74957857D01*
X154761429Y-74934048D01*
X154785238Y-74934048D01*
X154832857Y-74957857D01*
X154856667Y-74981667D01*
X154880476Y-75029286D01*
X154880476Y-75124524D01*
X154904286Y-75172143D01*
X154928095Y-75195952D01*
X154975714Y-75219762D01*
X155070952Y-75219762D01*
X155118571Y-75195952D01*
X155142381Y-75172143D01*
X155166190Y-75124524D01*
X155166190Y-75029286D01*
X155142381Y-74981667D01*
X155118571Y-74957857D01*
X155070952Y-74934048D01*
X154975714Y-74934048D01*
X154928095Y-74957857D01*
X154904286Y-74981667D01*
X154880476Y-75029286D01*
X152626190Y-76172142D02*
X152126190Y-76172142D01*
X152126190Y-75981666D01*
X152150000Y-75934047D01*
X152173810Y-75910238D01*
X152221429Y-75886428D01*
X152292857Y-75886428D01*
X152340476Y-75910238D01*
X152364286Y-75934047D01*
X152388095Y-75981666D01*
X152388095Y-76172142D01*
X152126190Y-75576904D02*
X152126190Y-75529285D01*
X152150000Y-75481666D01*
X152173810Y-75457857D01*
X152221429Y-75434047D01*
X152316667Y-75410238D01*
X152435714Y-75410238D01*
X152530952Y-75434047D01*
X152578571Y-75457857D01*
X152602381Y-75481666D01*
X152626190Y-75529285D01*
X152626190Y-75576904D01*
X152602381Y-75624523D01*
X152578571Y-75648333D01*
X152530952Y-75672142D01*
X152435714Y-75695952D01*
X152316667Y-75695952D01*
X152221429Y-75672142D01*
X152173810Y-75648333D01*
X152150000Y-75624523D01*
X152126190Y-75576904D01*
X152626190Y-75172143D02*
X152626190Y-75076905D01*
X152602381Y-75029286D01*
X152578571Y-75005476D01*
X152507143Y-74957857D01*
X152411905Y-74934048D01*
X152221429Y-74934048D01*
X152173810Y-74957857D01*
X152150000Y-74981667D01*
X152126190Y-75029286D01*
X152126190Y-75124524D01*
X152150000Y-75172143D01*
X152173810Y-75195952D01*
X152221429Y-75219762D01*
X152340476Y-75219762D01*
X152388095Y-75195952D01*
X152411905Y-75172143D01*
X152435714Y-75124524D01*
X152435714Y-75029286D01*
X152411905Y-74981667D01*
X152388095Y-74957857D01*
X152340476Y-74934048D01*
X150086190Y-76172142D02*
X149586190Y-76172142D01*
X149586190Y-75981666D01*
X149610000Y-75934047D01*
X149633810Y-75910238D01*
X149681429Y-75886428D01*
X149752857Y-75886428D01*
X149800476Y-75910238D01*
X149824286Y-75934047D01*
X149848095Y-75981666D01*
X149848095Y-76172142D01*
X150086190Y-75410238D02*
X150086190Y-75695952D01*
X150086190Y-75553095D02*
X149586190Y-75553095D01*
X149657619Y-75600714D01*
X149705238Y-75648333D01*
X149729048Y-75695952D01*
X149586190Y-75100714D02*
X149586190Y-75053095D01*
X149610000Y-75005476D01*
X149633810Y-74981667D01*
X149681429Y-74957857D01*
X149776667Y-74934048D01*
X149895714Y-74934048D01*
X149990952Y-74957857D01*
X150038571Y-74981667D01*
X150062381Y-75005476D01*
X150086190Y-75053095D01*
X150086190Y-75100714D01*
X150062381Y-75148333D01*
X150038571Y-75172143D01*
X149990952Y-75195952D01*
X149895714Y-75219762D01*
X149776667Y-75219762D01*
X149681429Y-75195952D01*
X149633810Y-75172143D01*
X149610000Y-75148333D01*
X149586190Y-75100714D01*
X147546190Y-76172142D02*
X147046190Y-76172142D01*
X147046190Y-75981666D01*
X147070000Y-75934047D01*
X147093810Y-75910238D01*
X147141429Y-75886428D01*
X147212857Y-75886428D01*
X147260476Y-75910238D01*
X147284286Y-75934047D01*
X147308095Y-75981666D01*
X147308095Y-76172142D01*
X147546190Y-75410238D02*
X147546190Y-75695952D01*
X147546190Y-75553095D02*
X147046190Y-75553095D01*
X147117619Y-75600714D01*
X147165238Y-75648333D01*
X147189048Y-75695952D01*
X147546190Y-74934048D02*
X147546190Y-75219762D01*
X147546190Y-75076905D02*
X147046190Y-75076905D01*
X147117619Y-75124524D01*
X147165238Y-75172143D01*
X147189048Y-75219762D01*
M02*
