G04 #@! TF.FileFunction,Copper,L2,Bot,Signal*
%FSLAX46Y46*%
G04 Gerber Fmt 4.6, Leading zero omitted, Abs format (unit mm)*
G04 Created by KiCad (PCBNEW 4.0.4-stable) date 01/02/17 17:56:56*
%MOMM*%
%LPD*%
G01*
G04 APERTURE LIST*
%ADD10C,0.100000*%
%ADD11C,3.100000*%
%ADD12C,1.600000*%
%ADD13C,1.727200*%
%ADD14C,0.600000*%
%ADD15C,0.250000*%
G04 APERTURE END LIST*
D10*
D11*
X115760000Y28488200D03*
X115760000Y19699800D03*
D12*
X108749600Y26594000D03*
X108749600Y24094000D03*
X108749600Y21594000D03*
D11*
X175760000Y28488200D03*
X175760000Y19699800D03*
D12*
X168749600Y26594000D03*
X168749600Y24094000D03*
X168749600Y21594000D03*
D11*
X35760000Y28488200D03*
X35760000Y19699800D03*
D12*
X28749600Y26594000D03*
X28749600Y24094000D03*
X28749600Y21594000D03*
D11*
X55760000Y28488200D03*
X55760000Y19699800D03*
D12*
X48749600Y26594000D03*
X48749600Y24094000D03*
X48749600Y21594000D03*
D11*
X75760000Y28488200D03*
X75760000Y19699800D03*
D12*
X68749600Y26594000D03*
X68749600Y24094000D03*
X68749600Y21594000D03*
D11*
X95760000Y28488200D03*
X95760000Y19699800D03*
D12*
X88749600Y26594000D03*
X88749600Y24094000D03*
X88749600Y21594000D03*
D11*
X135760000Y28488200D03*
X135760000Y19699800D03*
D12*
X128749600Y26594000D03*
X128749600Y24094000D03*
X128749600Y21594000D03*
D11*
X155760000Y28488200D03*
X155760000Y19699800D03*
D12*
X148749600Y26594000D03*
X148749600Y24094000D03*
X148749600Y21594000D03*
D11*
X35760000Y12425600D03*
X35760000Y3637200D03*
D12*
X28749600Y10531400D03*
X28749600Y8031400D03*
X28749600Y5531400D03*
D11*
X55760000Y12425600D03*
X55760000Y3637200D03*
D12*
X48749600Y10531400D03*
X48749600Y8031400D03*
X48749600Y5531400D03*
D11*
X75760000Y12425600D03*
X75760000Y3637200D03*
D12*
X68749600Y10531400D03*
X68749600Y8031400D03*
X68749600Y5531400D03*
D11*
X95760000Y12425600D03*
X95760000Y3637200D03*
D12*
X88749600Y10531400D03*
X88749600Y8031400D03*
X88749600Y5531400D03*
D11*
X115760000Y12425600D03*
X115760000Y3637200D03*
D12*
X108749600Y10531400D03*
X108749600Y8031400D03*
X108749600Y5531400D03*
D11*
X135760000Y12425600D03*
X135760000Y3637200D03*
D12*
X128749600Y10531400D03*
X128749600Y8031400D03*
X128749600Y5531400D03*
D11*
X155760000Y12425600D03*
X155760000Y3637200D03*
D12*
X148749600Y10531400D03*
X148749600Y8031400D03*
X148749600Y5531400D03*
D11*
X175760000Y12425600D03*
X175760000Y3637200D03*
D12*
X168749600Y10531400D03*
X168749600Y8031400D03*
X168749600Y5531400D03*
D13*
X7493000Y29997400D03*
X10033000Y29997400D03*
X7493000Y12217400D03*
X10033000Y12217400D03*
X7493000Y9677400D03*
X10033000Y9677400D03*
X7493000Y7137400D03*
X10033000Y7137400D03*
X7493000Y4597400D03*
X10033000Y4597400D03*
X7493000Y2057400D03*
X10033000Y2057400D03*
X7493000Y14757400D03*
X10033000Y14757400D03*
X7493000Y19837400D03*
X10033000Y19837400D03*
X7493000Y22377400D03*
X10033000Y22377400D03*
X7493000Y17297400D03*
X10033000Y17297400D03*
X7493000Y27457400D03*
X10033000Y27457400D03*
X7493000Y24917400D03*
X10033000Y24917400D03*
D14*
X12446000Y16256000D03*
X30226000Y30226000D03*
X16002000Y30734000D03*
X11684000Y1270000D03*
X17780000Y1270000D03*
X12954000Y14477994D03*
X15521060Y13955955D03*
X17017998Y14224000D03*
X16799338Y15122990D03*
X14224000Y14985980D03*
X33782000Y22860000D03*
X23348600Y22332600D03*
X20724482Y25968990D03*
X19872400Y1524000D03*
X46482000Y2032000D03*
X66294000Y4318000D03*
X85419799Y5512201D03*
X24384000Y13208000D03*
X21844000Y12446000D03*
D15*
X12446000Y16256000D02*
X12954000Y15748000D01*
X19558000Y12317590D02*
X19558000Y15748000D01*
X19558000Y15748000D02*
X19558000Y25908000D01*
X12954000Y15748000D02*
X19558000Y15748000D01*
X30226000Y30226000D02*
X28749600Y28749600D01*
X28749600Y28749600D02*
X28749600Y26594000D01*
X20244000Y26594000D02*
X21844000Y26594000D01*
X21844000Y26594000D02*
X27618230Y26594000D01*
X16002000Y30734000D02*
X20142000Y26594000D01*
X20142000Y26594000D02*
X21844000Y26594000D01*
X11221601Y1732399D02*
X11684000Y1270000D01*
X11221601Y2240399D02*
X11221601Y1732399D01*
X10033000Y14757400D02*
X11221601Y13568799D01*
X11221601Y13568799D02*
X11221601Y2240399D01*
X28301009Y10979991D02*
X20895599Y10979991D01*
X28749600Y10531400D02*
X28301009Y10979991D01*
X20895599Y10979991D02*
X19558000Y12317590D01*
X27618230Y26594000D02*
X28749600Y26594000D01*
X19558000Y25908000D02*
X20244000Y26594000D01*
X5080000Y27584400D02*
X5080000Y17951270D01*
X7085269Y15946001D02*
X11485993Y15946001D01*
X5080000Y17951270D02*
X7085269Y15946001D01*
X12654001Y14777993D02*
X12954000Y14477994D01*
X11485993Y15946001D02*
X12654001Y14777993D01*
X7493000Y29997400D02*
X5080000Y27584400D01*
X18079999Y1569999D02*
X17780000Y1270000D01*
X24638000Y8128000D02*
X18079999Y1569999D01*
X24638000Y9156401D02*
X24638000Y8128000D01*
X29289601Y9156401D02*
X24638000Y9156401D01*
X24638000Y9156401D02*
X18275593Y9156401D01*
X29874601Y8571401D02*
X29289601Y9156401D01*
X18275593Y9156401D02*
X13253999Y14177995D01*
X13253999Y14177995D02*
X12954000Y14477994D01*
X21590000Y11430000D02*
X23368000Y11430000D01*
X29289601Y11656401D02*
X29874601Y11071401D01*
X28749600Y21594000D02*
X24891553Y17735953D01*
X23368000Y11430000D02*
X23594401Y11656401D01*
X24891553Y17735953D02*
X24891553Y17017553D01*
X24891553Y17017553D02*
X20828000Y12954000D01*
X20828000Y12954000D02*
X20828000Y12192000D01*
X20828000Y12192000D02*
X21590000Y11430000D01*
X23594401Y11656401D02*
X29289601Y11656401D01*
X29874601Y11071401D02*
X29874601Y8571401D01*
X28749600Y5531400D02*
X29874601Y6656401D01*
X29874601Y6656401D02*
X29874601Y8571401D01*
X88749600Y21594000D02*
X68749600Y21594000D01*
X108749600Y21594000D02*
X94879198Y21594000D01*
X94879198Y21594000D02*
X88749600Y21594000D01*
X148749600Y21594000D02*
X168749600Y21594000D01*
X128749600Y21594000D02*
X129880970Y21594000D01*
X129880970Y21594000D02*
X148749600Y21594000D01*
X108749600Y21594000D02*
X128749600Y21594000D01*
X48749600Y21594000D02*
X68749600Y21594000D01*
X28749600Y21594000D02*
X48749600Y21594000D01*
X148749600Y5531400D02*
X149549599Y6331399D01*
X149549599Y6331399D02*
X167949601Y6331399D01*
X167949601Y6331399D02*
X168749600Y5531400D01*
X135128000Y6350000D02*
X147931000Y6350000D01*
X147931000Y6350000D02*
X148749600Y5531400D01*
X134309400Y5531400D02*
X135128000Y6350000D01*
X128749600Y5531400D02*
X134309400Y5531400D01*
X108749600Y5531400D02*
X112374601Y9156401D01*
X112374601Y9156401D02*
X129289601Y9156401D01*
X129289601Y9156401D02*
X129874601Y8571401D01*
X129874601Y8571401D02*
X129874601Y6656401D01*
X129874601Y6656401D02*
X129549599Y6331399D01*
X129549599Y6331399D02*
X128749600Y5531400D01*
X103829400Y5531400D02*
X107454401Y9156401D01*
X107454401Y9156401D02*
X109289601Y9156401D01*
X109289601Y9156401D02*
X109874601Y8571401D01*
X109549599Y6331399D02*
X108749600Y5531400D01*
X109874601Y8571401D02*
X109874601Y6656401D01*
X109874601Y6656401D02*
X109549599Y6331399D01*
X88749600Y5531400D02*
X103829400Y5531400D01*
X84271400Y5531400D02*
X87896401Y9156401D01*
X87896401Y9156401D02*
X89289601Y9156401D01*
X89289601Y9156401D02*
X89874601Y8571401D01*
X89874601Y8571401D02*
X89874601Y6656401D01*
X89874601Y6656401D02*
X89549599Y6331399D01*
X89549599Y6331399D02*
X88749600Y5531400D01*
X68749600Y5531400D02*
X84271400Y5531400D01*
X65005399Y6331399D02*
X67830401Y9156401D01*
X67830401Y9156401D02*
X69289601Y9156401D01*
X69289601Y9156401D02*
X69874601Y8571401D01*
X69549599Y6331399D02*
X68749600Y5531400D01*
X69874601Y8571401D02*
X69874601Y6656401D01*
X69874601Y6656401D02*
X69549599Y6331399D01*
X49549599Y6331399D02*
X65005399Y6331399D01*
X44139400Y5531400D02*
X47764401Y9156401D01*
X47764401Y9156401D02*
X49289601Y9156401D01*
X49289601Y9156401D02*
X49874601Y8571401D01*
X49874601Y8571401D02*
X49874601Y6656401D01*
X49874601Y6656401D02*
X49549599Y6331399D01*
X49549599Y6331399D02*
X48749600Y5531400D01*
X28749600Y5531400D02*
X44139400Y5531400D01*
X15789105Y14224000D02*
X15521060Y13955955D01*
X17017998Y14224000D02*
X15789105Y14224000D01*
X16662328Y14985980D02*
X16799338Y15122990D01*
X14224000Y14985980D02*
X16662328Y14985980D01*
X33641001Y22719001D02*
X33782000Y22860000D01*
X23348600Y22332600D02*
X23735001Y22719001D01*
X23735001Y22719001D02*
X33641001Y22719001D01*
X21024481Y25668991D02*
X20724482Y25968990D01*
X167374601Y25468999D02*
X21224473Y25468999D01*
X168749600Y24094000D02*
X167374601Y25468999D01*
X21224473Y25468999D02*
X21024481Y25668991D01*
X19872400Y1524000D02*
X20380400Y1016000D01*
X20380400Y1016000D02*
X26416000Y1016000D01*
X26416000Y1016000D02*
X27624599Y2224599D01*
X27624599Y6906399D02*
X27949601Y7231401D01*
X27624599Y2224599D02*
X27624599Y6906399D01*
X27949601Y7231401D02*
X28749600Y8031400D01*
X28605400Y8031400D02*
X28749600Y8031400D01*
X46482000Y2032000D02*
X46482000Y5763800D01*
X46482000Y5763800D02*
X48749600Y8031400D01*
X66294000Y4318000D02*
X66294000Y5575800D01*
X66294000Y5575800D02*
X68749600Y8031400D01*
X85419799Y5512201D02*
X86230401Y5512201D01*
X86230401Y5512201D02*
X88749600Y8031400D01*
X24384000Y13208000D02*
X31496000Y13208000D01*
X114300000Y10160000D02*
X125984000Y10160000D01*
X71374000Y12192000D02*
X73406000Y10160000D01*
X31496000Y13208000D02*
X34798000Y9906000D01*
X134620000Y9906000D02*
X146459198Y9906000D01*
X34798000Y9906000D02*
X44450000Y9906000D01*
X149549599Y8831399D02*
X148749600Y8031400D01*
X94742000Y10160000D02*
X105918000Y10160000D01*
X112268000Y12192000D02*
X114300000Y10160000D01*
X44450000Y9906000D02*
X46990000Y12446000D01*
X67564000Y12192000D02*
X71374000Y12192000D01*
X46990000Y12446000D02*
X51816000Y12446000D01*
X87630000Y12192000D02*
X92710000Y12192000D01*
X51816000Y12446000D02*
X54102000Y10160000D01*
X54102000Y10160000D02*
X65532000Y10160000D01*
X65532000Y10160000D02*
X67564000Y12192000D01*
X105918000Y10160000D02*
X107950000Y12192000D01*
X73406000Y10160000D02*
X85598000Y10160000D01*
X146459198Y9906000D02*
X148209599Y11656401D01*
X85598000Y10160000D02*
X87630000Y12192000D01*
X92710000Y12192000D02*
X94742000Y10160000D01*
X107950000Y12192000D02*
X112268000Y12192000D01*
X125984000Y10160000D02*
X128016000Y12192000D01*
X149874601Y11071401D02*
X149874601Y9156401D01*
X128016000Y12192000D02*
X132334000Y12192000D01*
X132334000Y12192000D02*
X134620000Y9906000D01*
X149874601Y9156401D02*
X149549599Y8831399D01*
X148209599Y11656401D02*
X149289601Y11656401D01*
X149289601Y11656401D02*
X149874601Y11071401D01*
X23698601Y14300601D02*
X166645401Y14300601D01*
X21844000Y12446000D02*
X23698601Y14300601D01*
X169874601Y11071401D02*
X169874601Y9156401D01*
X169874601Y9156401D02*
X169549599Y8831399D01*
X166645401Y14300601D02*
X169874601Y11071401D01*
X169549599Y8831399D02*
X168749600Y8031400D01*
M02*
