G04 #@! TF.FileFunction,Soldermask,Top*
%FSLAX46Y46*%
G04 Gerber Fmt 4.6, Leading zero omitted, Abs format (unit mm)*
G04 Created by KiCad (PCBNEW 4.0.4-stable) date 01/02/17 17:56:56*
%MOMM*%
%LPD*%
G01*
G04 APERTURE LIST*
%ADD10C,0.100000*%
%ADD11R,1.500000X0.600000*%
%ADD12C,3.300000*%
%ADD13C,3.100000*%
%ADD14C,1.600000*%
%ADD15R,0.800000X0.750000*%
%ADD16C,1.727200*%
G04 APERTURE END LIST*
D10*
D11*
X13160000Y19792600D03*
X18360000Y19792600D03*
X13160000Y21062600D03*
X18360000Y21062600D03*
X13160000Y22332600D03*
X18360000Y22332600D03*
X13160000Y23602600D03*
X18360000Y23602600D03*
X13160000Y24872600D03*
X18360000Y24872600D03*
X13160000Y26142600D03*
X18360000Y26142600D03*
X13160000Y27412600D03*
X18360000Y27412600D03*
X13160000Y28682600D03*
X18360000Y28682600D03*
X13160000Y3586400D03*
X18360000Y3586400D03*
X13160000Y4856400D03*
X18360000Y4856400D03*
X13160000Y6126400D03*
X18360000Y6126400D03*
X13160000Y7396400D03*
X18360000Y7396400D03*
X13160000Y8666400D03*
X18360000Y8666400D03*
X13160000Y9936400D03*
X18360000Y9936400D03*
X13160000Y11206400D03*
X18360000Y11206400D03*
X13160000Y12476400D03*
X18360000Y12476400D03*
D12*
X24130000Y29210000D03*
X24130000Y3000000D03*
X3000000Y29125000D03*
X3000000Y3000000D03*
X190960000Y3000000D03*
D13*
X115760000Y28488200D03*
X115760000Y19699800D03*
D14*
X108749600Y26594000D03*
X108749600Y24094000D03*
X108749600Y21594000D03*
D13*
X175760000Y28488200D03*
X175760000Y19699800D03*
D14*
X168749600Y26594000D03*
X168749600Y24094000D03*
X168749600Y21594000D03*
D13*
X35760000Y28488200D03*
X35760000Y19699800D03*
D14*
X28749600Y26594000D03*
X28749600Y24094000D03*
X28749600Y21594000D03*
D13*
X55760000Y28488200D03*
X55760000Y19699800D03*
D14*
X48749600Y26594000D03*
X48749600Y24094000D03*
X48749600Y21594000D03*
D13*
X75760000Y28488200D03*
X75760000Y19699800D03*
D14*
X68749600Y26594000D03*
X68749600Y24094000D03*
X68749600Y21594000D03*
D13*
X95760000Y28488200D03*
X95760000Y19699800D03*
D14*
X88749600Y26594000D03*
X88749600Y24094000D03*
X88749600Y21594000D03*
D13*
X135760000Y28488200D03*
X135760000Y19699800D03*
D14*
X128749600Y26594000D03*
X128749600Y24094000D03*
X128749600Y21594000D03*
D13*
X155760000Y28488200D03*
X155760000Y19699800D03*
D14*
X148749600Y26594000D03*
X148749600Y24094000D03*
X148749600Y21594000D03*
D15*
X13958000Y2032000D03*
X12458000Y2032000D03*
D13*
X35760000Y12425600D03*
X35760000Y3637200D03*
D14*
X28749600Y10531400D03*
X28749600Y8031400D03*
X28749600Y5531400D03*
D13*
X55760000Y12425600D03*
X55760000Y3637200D03*
D14*
X48749600Y10531400D03*
X48749600Y8031400D03*
X48749600Y5531400D03*
D13*
X75760000Y12425600D03*
X75760000Y3637200D03*
D14*
X68749600Y10531400D03*
X68749600Y8031400D03*
X68749600Y5531400D03*
D13*
X95760000Y12425600D03*
X95760000Y3637200D03*
D14*
X88749600Y10531400D03*
X88749600Y8031400D03*
X88749600Y5531400D03*
D13*
X115760000Y12425600D03*
X115760000Y3637200D03*
D14*
X108749600Y10531400D03*
X108749600Y8031400D03*
X108749600Y5531400D03*
D13*
X135760000Y12425600D03*
X135760000Y3637200D03*
D14*
X128749600Y10531400D03*
X128749600Y8031400D03*
X128749600Y5531400D03*
D13*
X155760000Y12425600D03*
X155760000Y3637200D03*
D14*
X148749600Y10531400D03*
X148749600Y8031400D03*
X148749600Y5531400D03*
D13*
X175760000Y12425600D03*
X175760000Y3637200D03*
D14*
X168749600Y10531400D03*
X168749600Y8031400D03*
X168749600Y5531400D03*
D12*
X190960000Y29125000D03*
D16*
X7493000Y29997400D03*
X10033000Y29997400D03*
X7493000Y12217400D03*
X10033000Y12217400D03*
X7493000Y9677400D03*
X10033000Y9677400D03*
X7493000Y7137400D03*
X10033000Y7137400D03*
X7493000Y4597400D03*
X10033000Y4597400D03*
X7493000Y2057400D03*
X10033000Y2057400D03*
X7493000Y14757400D03*
X10033000Y14757400D03*
X7493000Y19837400D03*
X10033000Y19837400D03*
X7493000Y22377400D03*
X10033000Y22377400D03*
X7493000Y17297400D03*
X10033000Y17297400D03*
X7493000Y27457400D03*
X10033000Y27457400D03*
X7493000Y24917400D03*
X10033000Y24917400D03*
D15*
X13970000Y17780000D03*
X12470000Y17780000D03*
M02*
