M48
INCH,TZ
T1C0.016
T2C0.039
T3C0.040
T4C0.098
%
G90
G05
T1
X4600Y500
X4900Y6400
X5100Y5700
X5600Y5900
X6111Y5494
X6300Y12100
X6614Y5954
X6700Y5600
X7000Y500
X7824Y600
X8159Y10224
X8600Y4900
X9192Y8792
X9600Y5200
X11900Y11900
X13300Y9000
X18300Y800
X26100Y1700
X33630Y2170
T2
X11319Y10470
X11319Y9486
X11319Y8502
X11319Y4146
X11319Y3162
X11319Y2178
X19193Y10470
X19193Y9486
X19193Y8502
X19193Y4146
X19193Y3162
X19193Y2178
X27067Y10470
X27067Y9486
X27067Y8502
X27067Y4146
X27067Y3162
X27067Y2178
X34941Y10470
X34941Y9486
X34941Y8502
X34941Y4146
X34941Y3162
X34941Y2178
X42815Y10470
X42815Y9486
X42815Y8502
X42815Y4146
X42815Y3162
X42815Y2178
X50689Y10470
X50689Y9486
X50689Y8502
X50689Y4146
X50689Y3162
X50689Y2178
X58563Y10470
X58563Y9486
X58563Y8502
X58563Y4146
X58563Y3162
X58563Y2178
X66437Y10470
X66437Y9486
X66437Y8502
X66437Y4146
X66437Y3162
X66437Y2178
T3
X2950Y11810
X2950Y10810
X2950Y9810
X2950Y8810
X2950Y7810
X2950Y6810
X2950Y5810
X2950Y4810
X2950Y3810
X2950Y2810
X2950Y1810
X2950Y810
X3950Y11810
X3950Y10810
X3950Y9810
X3950Y8810
X3950Y7810
X3950Y6810
X3950Y5810
X3950Y4810
X3950Y3810
X3950Y2810
X3950Y1810
X3950Y810
T4
X14079Y11216
X14079Y7756
X14079Y4892
X14079Y1432
X21953Y11216
X21953Y7756
X21953Y4892
X21953Y1432
X29827Y11216
X29827Y7756
X29827Y4892
X29827Y1432
X37701Y11216
X37701Y7756
X37701Y4892
X37701Y1432
X45575Y11216
X45575Y7756
X45575Y4892
X45575Y1432
X53449Y11216
X53449Y7756
X53449Y4892
X53449Y1432
X61323Y11216
X61323Y7756
X61323Y4892
X61323Y1432
X69197Y11216
X69197Y7756
X69197Y4892
X69197Y1432
T0
M30
