G04 #@! TF.FileFunction,Copper,L1,Top,Signal*
%FSLAX46Y46*%
G04 Gerber Fmt 4.6, Leading zero omitted, Abs format (unit mm)*
G04 Created by KiCad (PCBNEW 4.0.4-stable) date 01/02/17 17:56:56*
%MOMM*%
%LPD*%
G01*
G04 APERTURE LIST*
%ADD10C,0.100000*%
%ADD11R,1.500000X0.600000*%
%ADD12C,3.100000*%
%ADD13C,1.600000*%
%ADD14R,0.800000X0.750000*%
%ADD15C,1.727200*%
%ADD16C,0.600000*%
%ADD17C,0.250000*%
%ADD18C,0.254000*%
G04 APERTURE END LIST*
D10*
D11*
X13160000Y19792600D03*
X18360000Y19792600D03*
X13160000Y21062600D03*
X18360000Y21062600D03*
X13160000Y22332600D03*
X18360000Y22332600D03*
X13160000Y23602600D03*
X18360000Y23602600D03*
X13160000Y24872600D03*
X18360000Y24872600D03*
X13160000Y26142600D03*
X18360000Y26142600D03*
X13160000Y27412600D03*
X18360000Y27412600D03*
X13160000Y28682600D03*
X18360000Y28682600D03*
X13160000Y3586400D03*
X18360000Y3586400D03*
X13160000Y4856400D03*
X18360000Y4856400D03*
X13160000Y6126400D03*
X18360000Y6126400D03*
X13160000Y7396400D03*
X18360000Y7396400D03*
X13160000Y8666400D03*
X18360000Y8666400D03*
X13160000Y9936400D03*
X18360000Y9936400D03*
X13160000Y11206400D03*
X18360000Y11206400D03*
X13160000Y12476400D03*
X18360000Y12476400D03*
D12*
X115760000Y28488200D03*
X115760000Y19699800D03*
D13*
X108749600Y26594000D03*
X108749600Y24094000D03*
X108749600Y21594000D03*
D12*
X175760000Y28488200D03*
X175760000Y19699800D03*
D13*
X168749600Y26594000D03*
X168749600Y24094000D03*
X168749600Y21594000D03*
D12*
X35760000Y28488200D03*
X35760000Y19699800D03*
D13*
X28749600Y26594000D03*
X28749600Y24094000D03*
X28749600Y21594000D03*
D12*
X55760000Y28488200D03*
X55760000Y19699800D03*
D13*
X48749600Y26594000D03*
X48749600Y24094000D03*
X48749600Y21594000D03*
D12*
X75760000Y28488200D03*
X75760000Y19699800D03*
D13*
X68749600Y26594000D03*
X68749600Y24094000D03*
X68749600Y21594000D03*
D12*
X95760000Y28488200D03*
X95760000Y19699800D03*
D13*
X88749600Y26594000D03*
X88749600Y24094000D03*
X88749600Y21594000D03*
D12*
X135760000Y28488200D03*
X135760000Y19699800D03*
D13*
X128749600Y26594000D03*
X128749600Y24094000D03*
X128749600Y21594000D03*
D12*
X155760000Y28488200D03*
X155760000Y19699800D03*
D13*
X148749600Y26594000D03*
X148749600Y24094000D03*
X148749600Y21594000D03*
D14*
X13958000Y2032000D03*
X12458000Y2032000D03*
D12*
X35760000Y12425600D03*
X35760000Y3637200D03*
D13*
X28749600Y10531400D03*
X28749600Y8031400D03*
X28749600Y5531400D03*
D12*
X55760000Y12425600D03*
X55760000Y3637200D03*
D13*
X48749600Y10531400D03*
X48749600Y8031400D03*
X48749600Y5531400D03*
D12*
X75760000Y12425600D03*
X75760000Y3637200D03*
D13*
X68749600Y10531400D03*
X68749600Y8031400D03*
X68749600Y5531400D03*
D12*
X95760000Y12425600D03*
X95760000Y3637200D03*
D13*
X88749600Y10531400D03*
X88749600Y8031400D03*
X88749600Y5531400D03*
D12*
X115760000Y12425600D03*
X115760000Y3637200D03*
D13*
X108749600Y10531400D03*
X108749600Y8031400D03*
X108749600Y5531400D03*
D12*
X135760000Y12425600D03*
X135760000Y3637200D03*
D13*
X128749600Y10531400D03*
X128749600Y8031400D03*
X128749600Y5531400D03*
D12*
X155760000Y12425600D03*
X155760000Y3637200D03*
D13*
X148749600Y10531400D03*
X148749600Y8031400D03*
X148749600Y5531400D03*
D12*
X175760000Y12425600D03*
X175760000Y3637200D03*
D13*
X168749600Y10531400D03*
X168749600Y8031400D03*
X168749600Y5531400D03*
D15*
X7493000Y29997400D03*
X10033000Y29997400D03*
X7493000Y12217400D03*
X10033000Y12217400D03*
X7493000Y9677400D03*
X10033000Y9677400D03*
X7493000Y7137400D03*
X10033000Y7137400D03*
X7493000Y4597400D03*
X10033000Y4597400D03*
X7493000Y2057400D03*
X10033000Y2057400D03*
X7493000Y14757400D03*
X10033000Y14757400D03*
X7493000Y19837400D03*
X10033000Y19837400D03*
X7493000Y22377400D03*
X10033000Y22377400D03*
X7493000Y17297400D03*
X10033000Y17297400D03*
X7493000Y27457400D03*
X10033000Y27457400D03*
X7493000Y24917400D03*
X10033000Y24917400D03*
D14*
X13970000Y17780000D03*
X12470000Y17780000D03*
D16*
X12446000Y16256000D03*
X30226000Y30226000D03*
X16002000Y30734000D03*
X11684000Y1270000D03*
X17780000Y1270000D03*
X12954000Y14477994D03*
X15521060Y13955955D03*
X17017998Y14224000D03*
X16799338Y15122990D03*
X14224000Y14985980D03*
X33782000Y22860000D03*
X23348600Y22332600D03*
X20724482Y25968990D03*
X19872400Y1524000D03*
X46482000Y2032000D03*
X66294000Y4318000D03*
X85419799Y5512201D03*
X24384000Y13208000D03*
X21844000Y12446000D03*
D17*
X11938000Y16764000D02*
X12446000Y16256000D01*
X11744999Y16764000D02*
X11744999Y18542000D01*
X11744999Y16469399D02*
X11744999Y16764000D01*
X11744999Y16764000D02*
X11938000Y16764000D01*
X33858000Y26594000D02*
X30226000Y30226000D01*
X48749600Y26594000D02*
X33858000Y26594000D01*
X68749600Y26594000D02*
X48749600Y26594000D01*
X88749600Y26594000D02*
X87618230Y26594000D01*
X87618230Y26594000D02*
X68749600Y26594000D01*
X108749600Y26594000D02*
X88749600Y26594000D01*
X128749600Y26594000D02*
X108749600Y26594000D01*
X148749600Y26594000D02*
X128749600Y26594000D01*
X168749600Y26594000D02*
X148749600Y26594000D01*
X148749600Y10531400D02*
X168749600Y10531400D01*
X128749600Y10531400D02*
X148749600Y10531400D01*
X108749600Y10531400D02*
X128749600Y10531400D01*
X88749600Y10531400D02*
X108749600Y10531400D01*
X68749600Y10531400D02*
X88749600Y10531400D01*
X48749600Y10531400D02*
X49549599Y9731401D01*
X49549599Y9731401D02*
X67949601Y9731401D01*
X67949601Y9731401D02*
X68749600Y10531400D01*
X28749600Y10531400D02*
X29880970Y10531400D01*
X29880970Y10531400D02*
X48749600Y10531400D01*
X14407400Y30480000D02*
X15748000Y30480000D01*
X15748000Y30480000D02*
X16002000Y30734000D01*
X13160000Y28682600D02*
X13160000Y29232600D01*
X13160000Y29232600D02*
X14407400Y30480000D01*
X12084999Y21622601D02*
X12794998Y22332600D01*
X12794998Y22332600D02*
X13160000Y22332600D01*
X12084999Y18882000D02*
X12084999Y21622601D01*
X11744999Y18542000D02*
X12084999Y18882000D01*
X11938000Y3177000D02*
X11938000Y5354400D01*
X11938000Y5354400D02*
X12710000Y6126400D01*
X12710000Y6126400D02*
X13160000Y6126400D01*
X12458000Y2032000D02*
X12458000Y2657000D01*
X12458000Y2657000D02*
X11938000Y3177000D01*
X11684000Y1270000D02*
X11696000Y1270000D01*
X11696000Y1270000D02*
X12458000Y2032000D01*
X11582400Y13208000D02*
X12314000Y12476400D01*
X10033000Y14757400D02*
X11582400Y13208000D01*
X12314000Y12476400D02*
X13160000Y12476400D01*
X11744999Y18542000D02*
X11744999Y18480001D01*
X11744999Y18480001D02*
X12445000Y17780000D01*
X12445000Y17780000D02*
X12470000Y17780000D01*
X7493000Y14757400D02*
X8714314Y14757400D01*
X8714314Y14757400D02*
X10033000Y14757400D01*
X10033000Y14757400D02*
X11744999Y16469399D01*
X12954000Y14902258D02*
X12954000Y14477994D01*
X13970000Y15918258D02*
X12954000Y14902258D01*
X13970000Y17780000D02*
X13970000Y15918258D01*
X7493000Y29997400D02*
X10033000Y29997400D01*
X13958000Y2032000D02*
X13958000Y2788400D01*
X13958000Y2788400D02*
X13160000Y3586400D01*
X13970000Y17780000D02*
X13970000Y19432600D01*
X13970000Y19432600D02*
X13610000Y19792600D01*
X13610000Y19792600D02*
X13160000Y19792600D01*
X17480001Y1569999D02*
X17780000Y1270000D01*
X14193600Y4856400D02*
X17480001Y1569999D01*
X13160000Y4856400D02*
X14193600Y4856400D01*
X13160000Y3586400D02*
X13160000Y4856400D01*
X13160000Y19792600D02*
X13160000Y21062600D01*
X15240000Y10296400D02*
X15240000Y13674895D01*
X13610000Y8666400D02*
X15240000Y10296400D01*
X13160000Y8666400D02*
X13610000Y8666400D01*
X15472402Y23010198D02*
X15472402Y15524922D01*
X13610000Y24872600D02*
X15472402Y23010198D01*
X15240000Y13674895D02*
X15521060Y13955955D01*
X13160000Y24872600D02*
X13610000Y24872600D01*
X16773324Y14224000D02*
X17017998Y14224000D01*
X15472402Y15524922D02*
X16773324Y14224000D01*
X10033000Y20449821D02*
X11184977Y21601798D01*
X11184977Y21601798D02*
X11184977Y21995401D01*
X12710000Y24872600D02*
X13160000Y24872600D01*
X10033000Y19837400D02*
X10033000Y20449821D01*
X11221601Y22665614D02*
X11938000Y23382013D01*
X11184977Y21995401D02*
X11221601Y22032025D01*
X11938000Y24100600D02*
X12710000Y24872600D01*
X11938000Y23382013D02*
X11938000Y24100600D01*
X11221601Y22032025D02*
X11221601Y22665614D01*
X7493000Y19837400D02*
X8714314Y19837400D01*
X8714314Y19837400D02*
X10033000Y19837400D01*
X16499339Y15422989D02*
X16799338Y15122990D01*
X15934966Y15987362D02*
X16499339Y15422989D01*
X13160000Y26142600D02*
X13610000Y26142600D01*
X15934966Y23817634D02*
X15934966Y15987362D01*
X13610000Y26142600D02*
X15934966Y23817634D01*
X10033000Y22377400D02*
X11430000Y23774400D01*
X11430000Y23774400D02*
X11430000Y24862600D01*
X11430000Y24862600D02*
X12710000Y26142600D01*
X12710000Y26142600D02*
X13160000Y26142600D01*
X14523999Y14685981D02*
X14224000Y14985980D01*
X13610000Y9936400D02*
X14523999Y10850399D01*
X13160000Y9936400D02*
X13610000Y9936400D01*
X14523999Y10850399D02*
X14523999Y14685981D01*
X7493000Y22377400D02*
X10033000Y22377400D01*
X18360000Y19792600D02*
X24448200Y19792600D01*
X24448200Y19792600D02*
X28749600Y24094000D01*
X48749600Y24094000D02*
X30414602Y24094000D01*
X30414602Y24094000D02*
X29289601Y25219001D01*
X29289601Y25219001D02*
X27759001Y25219001D01*
X23602600Y21062600D02*
X18360000Y21062600D01*
X27759001Y25219001D02*
X23602600Y21062600D01*
X18360000Y21062600D02*
X17994998Y21062600D01*
X33782000Y22860000D02*
X36145198Y22860000D01*
X36145198Y22860000D02*
X36254197Y22968999D01*
X18360000Y22332600D02*
X23348600Y22332600D01*
X18360000Y22332600D02*
X17910000Y22332600D01*
X67949601Y23294001D02*
X68749600Y24094000D01*
X67624599Y22968999D02*
X67949601Y23294001D01*
X36254197Y22968999D02*
X67624599Y22968999D01*
X82480399Y17824799D02*
X87949601Y23294001D01*
X17284999Y19232599D02*
X18692799Y17824799D01*
X18692799Y17824799D02*
X82480399Y17824799D01*
X87949601Y23294001D02*
X88749600Y24094000D01*
X17360000Y23052600D02*
X17360000Y22967602D01*
X17284999Y22892601D02*
X17284999Y19232599D01*
X17360000Y22967602D02*
X17284999Y22892601D01*
X17910000Y23602600D02*
X17360000Y23052600D01*
X18360000Y23602600D02*
X17910000Y23602600D01*
X107618230Y24094000D02*
X108749600Y24094000D01*
X16834988Y19046199D02*
X18506397Y17374790D01*
X16902022Y23864622D02*
X16902022Y23146035D01*
X18360000Y24872600D02*
X17910000Y24872600D01*
X87478790Y17374790D02*
X94198000Y24094000D01*
X18506397Y17374790D02*
X87478790Y17374790D01*
X16902022Y23146035D02*
X16834988Y23079001D01*
X17910000Y24872600D02*
X16902022Y23864622D01*
X94198000Y24094000D02*
X107618230Y24094000D01*
X16834988Y23079001D02*
X16834988Y19046199D01*
X127949601Y23294001D02*
X128749600Y24094000D01*
X127374601Y22719001D02*
X127949601Y23294001D01*
X95617001Y22719001D02*
X127374601Y22719001D01*
X89822779Y16924779D02*
X95617001Y22719001D01*
X16384977Y18859799D02*
X18319997Y16924779D01*
X18360000Y26142600D02*
X17910000Y26142600D01*
X16384977Y23265401D02*
X16384977Y18859799D01*
X16452011Y24684611D02*
X16452011Y23332435D01*
X16452011Y23332435D02*
X16384977Y23265401D01*
X17910000Y26142600D02*
X16452011Y24684611D01*
X18319997Y16924779D02*
X89822779Y16924779D01*
X147624599Y25219001D02*
X147949601Y24893999D01*
X31789601Y25219001D02*
X147624599Y25219001D01*
X29289601Y27719001D02*
X31789601Y25219001D01*
X22098000Y25219001D02*
X25709599Y25219001D01*
X28209599Y27719001D02*
X29289601Y27719001D01*
X25709599Y25219001D02*
X28209599Y27719001D01*
X147949601Y24893999D02*
X148749600Y24094000D01*
X20549469Y25219001D02*
X22098000Y25219001D01*
X20099481Y26123119D02*
X20099481Y25668989D01*
X18810000Y27412600D02*
X20099481Y26123119D01*
X18360000Y27412600D02*
X18810000Y27412600D01*
X20099481Y25668989D02*
X20549469Y25219001D01*
X21770999Y25219001D02*
X22098000Y25219001D01*
X20724482Y26393254D02*
X20724482Y25968990D01*
X20724482Y26768118D02*
X20724482Y26393254D01*
X18360000Y28682600D02*
X18810000Y28682600D01*
X18810000Y28682600D02*
X20724482Y26768118D01*
X18360000Y3586400D02*
X18360000Y3036400D01*
X18360000Y3036400D02*
X19872400Y1524000D01*
X46182001Y1732001D02*
X46482000Y2032000D01*
X27607213Y3506377D02*
X28243624Y3506377D01*
X30018000Y1732001D02*
X46182001Y1732001D01*
X19360000Y5406400D02*
X25707190Y5406400D01*
X18810000Y4856400D02*
X19360000Y5406400D01*
X18360000Y4856400D02*
X18810000Y4856400D01*
X25707190Y5406400D02*
X27607213Y3506377D01*
X28243624Y3506377D02*
X30018000Y1732001D01*
X18360000Y6126400D02*
X25623600Y6126400D01*
X28023199Y3956388D02*
X33304186Y3956388D01*
X43795612Y3956388D02*
X53304187Y3956388D01*
X57854202Y4318000D02*
X65869736Y4318000D01*
X25623600Y6126400D02*
X26945001Y4804999D01*
X26945001Y4804999D02*
X27174588Y4804999D01*
X27174588Y4804999D02*
X28023199Y3956388D01*
X33304186Y3956388D02*
X34859999Y5512201D01*
X34859999Y5512201D02*
X42239799Y5512201D01*
X42239799Y5512201D02*
X43795612Y3956388D01*
X53304187Y3956388D02*
X54859999Y5512201D01*
X54859999Y5512201D02*
X56660001Y5512201D01*
X56660001Y5512201D02*
X57854202Y4318000D01*
X65869736Y4318000D02*
X66294000Y4318000D01*
X25626420Y7396400D02*
X25656820Y7366000D01*
X25656820Y7366000D02*
X27624599Y5398221D01*
X18360000Y7396400D02*
X19360000Y7396400D01*
X19360000Y7396400D02*
X19390400Y7366000D01*
X19390400Y7366000D02*
X25656820Y7366000D01*
X34673599Y5962212D02*
X46653786Y5962212D01*
X46653786Y5962212D02*
X48209599Y4406399D01*
X67103797Y5512201D02*
X68209599Y4406399D01*
X73754197Y4406399D02*
X74859999Y5512201D01*
X54673599Y5962212D02*
X56846401Y5962212D01*
X33117786Y4406399D02*
X34673599Y5962212D01*
X84995535Y5512201D02*
X85419799Y5512201D01*
X57296411Y5512201D02*
X67103797Y5512201D01*
X53117787Y4406399D02*
X54673599Y5962212D01*
X48209599Y4406399D02*
X53117787Y4406399D01*
X27624599Y4991399D02*
X28209599Y4406399D01*
X27624599Y5398221D02*
X27624599Y4991399D01*
X28209599Y4406399D02*
X33117786Y4406399D01*
X74859999Y5512201D02*
X84995535Y5512201D01*
X68209599Y4406399D02*
X73754197Y4406399D01*
X56846401Y5962212D02*
X57296411Y5512201D01*
X18360000Y8666400D02*
X24992832Y8666400D01*
X107949601Y7231401D02*
X108749600Y8031400D01*
X107374601Y6656401D02*
X107949601Y7231401D01*
X24992832Y8666400D02*
X27002831Y6656401D01*
X27002831Y6656401D02*
X107374601Y6656401D01*
X18360000Y9936400D02*
X18810000Y9936400D01*
X18810000Y9936400D02*
X19589999Y9156401D01*
X19589999Y9156401D02*
X127624599Y9156401D01*
X127949601Y8831399D02*
X128749600Y8031400D01*
X127624599Y9156401D02*
X127949601Y8831399D01*
X18360000Y11206400D02*
X22382400Y11206400D01*
X22382400Y11206400D02*
X24384000Y13208000D01*
X18360000Y12476400D02*
X21813600Y12476400D01*
X21813600Y12476400D02*
X21844000Y12446000D01*
X16373002Y13923998D02*
X15865006Y13416002D01*
X13610000Y7396400D02*
X13160000Y7396400D01*
X15865006Y9651406D02*
X13610000Y7396400D01*
X14986000Y22226600D02*
X14986000Y15374913D01*
X13610000Y23602600D02*
X14986000Y22226600D01*
X13160000Y23602600D02*
X13610000Y23602600D01*
X14986000Y15374913D02*
X16373002Y13987911D01*
X15865006Y13416002D02*
X15865006Y9651406D01*
X16373002Y13987911D02*
X16373002Y13923998D01*
X12794998Y23602600D02*
X13160000Y23602600D01*
X12084999Y22892601D02*
X12794998Y23602600D01*
X12084999Y22259011D02*
X12084999Y22892601D01*
X11634988Y21415398D02*
X11634988Y21809001D01*
X11294988Y18559388D02*
X11294989Y21075400D01*
X10033000Y17297400D02*
X11294988Y18559388D01*
X11294989Y21075400D02*
X11634988Y21415398D01*
X11634988Y21809001D02*
X12084999Y22259011D01*
X7493000Y17297400D02*
X10033000Y17297400D01*
X7493000Y27457400D02*
X10033000Y27457400D01*
X10033000Y27457400D02*
X13115200Y27457400D01*
X13115200Y27457400D02*
X13160000Y27412600D01*
X7493000Y24917400D02*
X6304399Y23728799D01*
X11982399Y11028799D02*
X12160000Y11206400D01*
X6304399Y23728799D02*
X6304399Y11646871D01*
X6922471Y11028799D02*
X11982399Y11028799D01*
X6304399Y11646871D02*
X6922471Y11028799D01*
X12160000Y11206400D02*
X13160000Y11206400D01*
X7493000Y24917400D02*
X8714314Y24917400D01*
X8714314Y24917400D02*
X10033000Y24917400D01*
X7493000Y12217400D02*
X10033000Y12217400D01*
X7493000Y9677400D02*
X10033000Y9677400D01*
X7493000Y7137400D02*
X10033000Y7137400D01*
X7493000Y4597400D02*
X10033000Y4597400D01*
X7493000Y2057400D02*
X10033000Y2057400D01*
D18*
G36*
X22194001Y30506039D02*
X21845397Y29666509D01*
X21844604Y28757479D01*
X22191742Y27917342D01*
X22833961Y27274001D01*
X23673491Y26925397D01*
X24582521Y26924604D01*
X25422658Y27271742D01*
X26065999Y27913961D01*
X26414603Y28753491D01*
X26415396Y29662521D01*
X26068258Y30502658D01*
X25768939Y30802500D01*
X189406128Y30802500D01*
X189024001Y30421039D01*
X188675397Y29581509D01*
X188674604Y28672479D01*
X189021742Y27832342D01*
X189663961Y27189001D01*
X190503491Y26840397D01*
X191412521Y26839604D01*
X192252658Y27186742D01*
X192895999Y27828961D01*
X193244603Y28668491D01*
X193245396Y29577521D01*
X192898258Y30417658D01*
X192514087Y30802500D01*
X193275000Y30802500D01*
X193275000Y1322500D01*
X192513872Y1322500D01*
X192895999Y1703961D01*
X193244603Y2543491D01*
X193245396Y3452521D01*
X192898258Y4292658D01*
X192256039Y4935999D01*
X191416509Y5284603D01*
X190507479Y5285396D01*
X189667342Y4938258D01*
X189024001Y4296039D01*
X188675397Y3456509D01*
X188674604Y2547479D01*
X189021742Y1707342D01*
X189405913Y1322500D01*
X47094706Y1322500D01*
X47274192Y1501673D01*
X47416838Y1845201D01*
X47417162Y2217167D01*
X47275117Y2560943D01*
X47012327Y2824192D01*
X46668799Y2966838D01*
X46296833Y2967162D01*
X45953057Y2825117D01*
X45689808Y2562327D01*
X45660606Y2492001D01*
X37650355Y2492001D01*
X37944620Y3200670D01*
X37945379Y4069917D01*
X37663464Y4752201D01*
X41924997Y4752201D01*
X43258211Y3418987D01*
X43504773Y3254240D01*
X43795612Y3196388D01*
X53304187Y3196388D01*
X53574661Y3250189D01*
X53574621Y3204483D01*
X53906567Y2401114D01*
X54520681Y1785927D01*
X55323470Y1452580D01*
X56192717Y1451821D01*
X56996086Y1783767D01*
X57611273Y2397881D01*
X57944620Y3200670D01*
X57944932Y3558000D01*
X65731537Y3558000D01*
X65763673Y3525808D01*
X66107201Y3383162D01*
X66479167Y3382838D01*
X66822943Y3524883D01*
X67086192Y3787673D01*
X67228838Y4131201D01*
X67228996Y4312200D01*
X67672198Y3868998D01*
X67918759Y3704251D01*
X68209599Y3646399D01*
X73575007Y3646399D01*
X73574621Y3204483D01*
X73906567Y2401114D01*
X74520681Y1785927D01*
X75323470Y1452580D01*
X76192717Y1451821D01*
X76996086Y1783767D01*
X77611273Y2397881D01*
X77944620Y3200670D01*
X77944623Y3204483D01*
X93574621Y3204483D01*
X93906567Y2401114D01*
X94520681Y1785927D01*
X95323470Y1452580D01*
X96192717Y1451821D01*
X96996086Y1783767D01*
X97611273Y2397881D01*
X97944620Y3200670D01*
X97944623Y3204483D01*
X113574621Y3204483D01*
X113906567Y2401114D01*
X114520681Y1785927D01*
X115323470Y1452580D01*
X116192717Y1451821D01*
X116996086Y1783767D01*
X117611273Y2397881D01*
X117944620Y3200670D01*
X117944623Y3204483D01*
X133574621Y3204483D01*
X133906567Y2401114D01*
X134520681Y1785927D01*
X135323470Y1452580D01*
X136192717Y1451821D01*
X136996086Y1783767D01*
X137611273Y2397881D01*
X137944620Y3200670D01*
X137944623Y3204483D01*
X153574621Y3204483D01*
X153906567Y2401114D01*
X154520681Y1785927D01*
X155323470Y1452580D01*
X156192717Y1451821D01*
X156996086Y1783767D01*
X157611273Y2397881D01*
X157944620Y3200670D01*
X157944623Y3204483D01*
X173574621Y3204483D01*
X173906567Y2401114D01*
X174520681Y1785927D01*
X175323470Y1452580D01*
X176192717Y1451821D01*
X176996086Y1783767D01*
X177611273Y2397881D01*
X177944620Y3200670D01*
X177945379Y4069917D01*
X177613433Y4873286D01*
X176999319Y5488473D01*
X176196530Y5821820D01*
X175327283Y5822579D01*
X174523914Y5490633D01*
X173908727Y4876519D01*
X173575380Y4073730D01*
X173574621Y3204483D01*
X157944623Y3204483D01*
X157945379Y4069917D01*
X157613433Y4873286D01*
X156999319Y5488473D01*
X156196530Y5821820D01*
X155327283Y5822579D01*
X154523914Y5490633D01*
X153908727Y4876519D01*
X153575380Y4073730D01*
X153574621Y3204483D01*
X137944623Y3204483D01*
X137945379Y4069917D01*
X137613433Y4873286D01*
X136999319Y5488473D01*
X136196530Y5821820D01*
X135327283Y5822579D01*
X134523914Y5490633D01*
X133908727Y4876519D01*
X133575380Y4073730D01*
X133574621Y3204483D01*
X117944623Y3204483D01*
X117945379Y4069917D01*
X117613433Y4873286D01*
X116999319Y5488473D01*
X116196530Y5821820D01*
X115327283Y5822579D01*
X114523914Y5490633D01*
X113908727Y4876519D01*
X113575380Y4073730D01*
X113574621Y3204483D01*
X97944623Y3204483D01*
X97945379Y4069917D01*
X97613433Y4873286D01*
X96999319Y5488473D01*
X96196530Y5821820D01*
X95327283Y5822579D01*
X94523914Y5490633D01*
X93908727Y4876519D01*
X93575380Y4073730D01*
X93574621Y3204483D01*
X77944623Y3204483D01*
X77945379Y4069917D01*
X77663464Y4752201D01*
X84857336Y4752201D01*
X84889472Y4720009D01*
X85233000Y4577363D01*
X85604966Y4577039D01*
X85948742Y4719084D01*
X86211991Y4981874D01*
X86354637Y5325402D01*
X86354961Y5697368D01*
X86272722Y5896401D01*
X87347367Y5896401D01*
X87314850Y5818091D01*
X87314352Y5247213D01*
X87532357Y4719600D01*
X87935677Y4315576D01*
X88462909Y4096650D01*
X89033787Y4096152D01*
X89561400Y4314157D01*
X89965424Y4717477D01*
X90184350Y5244709D01*
X90184848Y5815587D01*
X90151456Y5896401D01*
X107347367Y5896401D01*
X107314850Y5818091D01*
X107314352Y5247213D01*
X107532357Y4719600D01*
X107935677Y4315576D01*
X108462909Y4096650D01*
X109033787Y4096152D01*
X109561400Y4314157D01*
X109965424Y4717477D01*
X110184350Y5244709D01*
X110184848Y5815587D01*
X109966843Y6343200D01*
X109563523Y6747224D01*
X109481669Y6781213D01*
X109561400Y6814157D01*
X109965424Y7217477D01*
X110184350Y7744709D01*
X110184848Y8315587D01*
X110151456Y8396401D01*
X127309797Y8396401D01*
X127336344Y8369854D01*
X127314850Y8318091D01*
X127314352Y7747213D01*
X127532357Y7219600D01*
X127935677Y6815576D01*
X128017531Y6781587D01*
X127937800Y6748643D01*
X127533776Y6345323D01*
X127314850Y5818091D01*
X127314352Y5247213D01*
X127532357Y4719600D01*
X127935677Y4315576D01*
X128462909Y4096650D01*
X129033787Y4096152D01*
X129561400Y4314157D01*
X129965424Y4717477D01*
X130184350Y5244709D01*
X130184848Y5815587D01*
X129966843Y6343200D01*
X129563523Y6747224D01*
X129481669Y6781213D01*
X129561400Y6814157D01*
X129965424Y7217477D01*
X130184350Y7744709D01*
X130184352Y7747213D01*
X147314352Y7747213D01*
X147532357Y7219600D01*
X147935677Y6815576D01*
X148017531Y6781587D01*
X147937800Y6748643D01*
X147533776Y6345323D01*
X147314850Y5818091D01*
X147314352Y5247213D01*
X147532357Y4719600D01*
X147935677Y4315576D01*
X148462909Y4096650D01*
X149033787Y4096152D01*
X149561400Y4314157D01*
X149965424Y4717477D01*
X150184350Y5244709D01*
X150184848Y5815587D01*
X149966843Y6343200D01*
X149563523Y6747224D01*
X149481669Y6781213D01*
X149561400Y6814157D01*
X149965424Y7217477D01*
X150184350Y7744709D01*
X150184352Y7747213D01*
X167314352Y7747213D01*
X167532357Y7219600D01*
X167935677Y6815576D01*
X168017531Y6781587D01*
X167937800Y6748643D01*
X167533776Y6345323D01*
X167314850Y5818091D01*
X167314352Y5247213D01*
X167532357Y4719600D01*
X167935677Y4315576D01*
X168462909Y4096650D01*
X169033787Y4096152D01*
X169561400Y4314157D01*
X169965424Y4717477D01*
X170184350Y5244709D01*
X170184848Y5815587D01*
X169966843Y6343200D01*
X169563523Y6747224D01*
X169481669Y6781213D01*
X169561400Y6814157D01*
X169965424Y7217477D01*
X170184350Y7744709D01*
X170184848Y8315587D01*
X169966843Y8843200D01*
X169563523Y9247224D01*
X169497056Y9274823D01*
X169503605Y9277536D01*
X169577739Y9523655D01*
X168749600Y10351795D01*
X167921461Y9523655D01*
X167995595Y9277536D01*
X168002083Y9275204D01*
X167937800Y9248643D01*
X167533776Y8845323D01*
X167314850Y8318091D01*
X167314352Y7747213D01*
X150184352Y7747213D01*
X150184848Y8315587D01*
X149966843Y8843200D01*
X149563523Y9247224D01*
X149497056Y9274823D01*
X149503605Y9277536D01*
X149577739Y9523655D01*
X148749600Y10351795D01*
X147921461Y9523655D01*
X147995595Y9277536D01*
X148002083Y9275204D01*
X147937800Y9248643D01*
X147533776Y8845323D01*
X147314850Y8318091D01*
X147314352Y7747213D01*
X130184352Y7747213D01*
X130184848Y8315587D01*
X129966843Y8843200D01*
X129563523Y9247224D01*
X129497056Y9274823D01*
X129503605Y9277536D01*
X129577739Y9523655D01*
X128749600Y10351795D01*
X128735458Y10337652D01*
X128555853Y10517258D01*
X128569995Y10531400D01*
X128929205Y10531400D01*
X129757345Y9703261D01*
X130003464Y9777395D01*
X130196565Y10314623D01*
X130169378Y10884854D01*
X130003464Y11285405D01*
X129757345Y11359539D01*
X128929205Y10531400D01*
X128569995Y10531400D01*
X127741855Y11359539D01*
X127495736Y11285405D01*
X127302635Y10748177D01*
X127329822Y10177946D01*
X127438158Y9916401D01*
X110053428Y9916401D01*
X110196565Y10314623D01*
X110169378Y10884854D01*
X110003464Y11285405D01*
X109757345Y11359539D01*
X108929205Y10531400D01*
X108943348Y10517258D01*
X108763742Y10337652D01*
X108749600Y10351795D01*
X108735458Y10337652D01*
X108555852Y10517258D01*
X108569995Y10531400D01*
X107741855Y11359539D01*
X107495736Y11285405D01*
X107302635Y10748177D01*
X107329822Y10177946D01*
X107438158Y9916401D01*
X90053428Y9916401D01*
X90196565Y10314623D01*
X90169378Y10884854D01*
X90003464Y11285405D01*
X89757345Y11359539D01*
X88929205Y10531400D01*
X88943348Y10517258D01*
X88763742Y10337652D01*
X88749600Y10351795D01*
X88735458Y10337652D01*
X88555852Y10517258D01*
X88569995Y10531400D01*
X87741855Y11359539D01*
X87495736Y11285405D01*
X87302635Y10748177D01*
X87329822Y10177946D01*
X87438158Y9916401D01*
X70053428Y9916401D01*
X70196565Y10314623D01*
X70169378Y10884854D01*
X70003464Y11285405D01*
X69757345Y11359539D01*
X68929205Y10531400D01*
X68943348Y10517258D01*
X68763742Y10337652D01*
X68749600Y10351795D01*
X68735458Y10337652D01*
X68555852Y10517258D01*
X68569995Y10531400D01*
X67741855Y11359539D01*
X67495736Y11285405D01*
X67302635Y10748177D01*
X67329822Y10177946D01*
X67438158Y9916401D01*
X50053428Y9916401D01*
X50196565Y10314623D01*
X50169378Y10884854D01*
X50003464Y11285405D01*
X49757345Y11359539D01*
X48929205Y10531400D01*
X48943348Y10517258D01*
X48763742Y10337652D01*
X48749600Y10351795D01*
X48735458Y10337652D01*
X48555852Y10517258D01*
X48569995Y10531400D01*
X47741855Y11359539D01*
X47495736Y11285405D01*
X47302635Y10748177D01*
X47329822Y10177946D01*
X47438158Y9916401D01*
X30053428Y9916401D01*
X30196565Y10314623D01*
X30169378Y10884854D01*
X30003464Y11285405D01*
X29757345Y11359539D01*
X28929205Y10531400D01*
X28943348Y10517258D01*
X28763742Y10337652D01*
X28749600Y10351795D01*
X28735458Y10337652D01*
X28555852Y10517258D01*
X28569995Y10531400D01*
X27741855Y11359539D01*
X27495736Y11285405D01*
X27302635Y10748177D01*
X27329822Y10177946D01*
X27438158Y9916401D01*
X19904801Y9916401D01*
X19757440Y10063762D01*
X19757440Y10236400D01*
X19717926Y10446400D01*
X22382400Y10446400D01*
X22673239Y10504252D01*
X22919801Y10668999D01*
X23789947Y11539145D01*
X27921461Y11539145D01*
X28749600Y10711005D01*
X29577739Y11539145D01*
X29503605Y11785264D01*
X28966377Y11978365D01*
X28396146Y11951178D01*
X27995595Y11785264D01*
X27921461Y11539145D01*
X23789947Y11539145D01*
X24243685Y11992883D01*
X33574621Y11992883D01*
X33906567Y11189514D01*
X34520681Y10574327D01*
X35323470Y10240980D01*
X36192717Y10240221D01*
X36996086Y10572167D01*
X37611273Y11186281D01*
X37757794Y11539145D01*
X47921461Y11539145D01*
X48749600Y10711005D01*
X49577739Y11539145D01*
X49503605Y11785264D01*
X48966377Y11978365D01*
X48396146Y11951178D01*
X47995595Y11785264D01*
X47921461Y11539145D01*
X37757794Y11539145D01*
X37944620Y11989070D01*
X37944623Y11992883D01*
X53574621Y11992883D01*
X53906567Y11189514D01*
X54520681Y10574327D01*
X55323470Y10240980D01*
X56192717Y10240221D01*
X56996086Y10572167D01*
X57611273Y11186281D01*
X57757794Y11539145D01*
X67921461Y11539145D01*
X68749600Y10711005D01*
X69577739Y11539145D01*
X69503605Y11785264D01*
X68966377Y11978365D01*
X68396146Y11951178D01*
X67995595Y11785264D01*
X67921461Y11539145D01*
X57757794Y11539145D01*
X57944620Y11989070D01*
X57944623Y11992883D01*
X73574621Y11992883D01*
X73906567Y11189514D01*
X74520681Y10574327D01*
X75323470Y10240980D01*
X76192717Y10240221D01*
X76996086Y10572167D01*
X77611273Y11186281D01*
X77757794Y11539145D01*
X87921461Y11539145D01*
X88749600Y10711005D01*
X89577739Y11539145D01*
X89503605Y11785264D01*
X88966377Y11978365D01*
X88396146Y11951178D01*
X87995595Y11785264D01*
X87921461Y11539145D01*
X77757794Y11539145D01*
X77944620Y11989070D01*
X77944623Y11992883D01*
X93574621Y11992883D01*
X93906567Y11189514D01*
X94520681Y10574327D01*
X95323470Y10240980D01*
X96192717Y10240221D01*
X96996086Y10572167D01*
X97611273Y11186281D01*
X97757794Y11539145D01*
X107921461Y11539145D01*
X108749600Y10711005D01*
X109577739Y11539145D01*
X109503605Y11785264D01*
X108966377Y11978365D01*
X108396146Y11951178D01*
X107995595Y11785264D01*
X107921461Y11539145D01*
X97757794Y11539145D01*
X97944620Y11989070D01*
X97944623Y11992883D01*
X113574621Y11992883D01*
X113906567Y11189514D01*
X114520681Y10574327D01*
X115323470Y10240980D01*
X116192717Y10240221D01*
X116996086Y10572167D01*
X117611273Y11186281D01*
X117757794Y11539145D01*
X127921461Y11539145D01*
X128749600Y10711005D01*
X129577739Y11539145D01*
X129503605Y11785264D01*
X128966377Y11978365D01*
X128396146Y11951178D01*
X127995595Y11785264D01*
X127921461Y11539145D01*
X117757794Y11539145D01*
X117944620Y11989070D01*
X117944623Y11992883D01*
X133574621Y11992883D01*
X133906567Y11189514D01*
X134520681Y10574327D01*
X135323470Y10240980D01*
X136192717Y10240221D01*
X136996086Y10572167D01*
X137172403Y10748177D01*
X147302635Y10748177D01*
X147329822Y10177946D01*
X147495736Y9777395D01*
X147741855Y9703261D01*
X148569995Y10531400D01*
X148929205Y10531400D01*
X149757345Y9703261D01*
X150003464Y9777395D01*
X150196565Y10314623D01*
X150169378Y10884854D01*
X150003464Y11285405D01*
X149757345Y11359539D01*
X148929205Y10531400D01*
X148569995Y10531400D01*
X147741855Y11359539D01*
X147495736Y11285405D01*
X147302635Y10748177D01*
X137172403Y10748177D01*
X137611273Y11186281D01*
X137757794Y11539145D01*
X147921461Y11539145D01*
X148749600Y10711005D01*
X149577739Y11539145D01*
X149503605Y11785264D01*
X148966377Y11978365D01*
X148396146Y11951178D01*
X147995595Y11785264D01*
X147921461Y11539145D01*
X137757794Y11539145D01*
X137944620Y11989070D01*
X137944623Y11992883D01*
X153574621Y11992883D01*
X153906567Y11189514D01*
X154520681Y10574327D01*
X155323470Y10240980D01*
X156192717Y10240221D01*
X156996086Y10572167D01*
X157172403Y10748177D01*
X167302635Y10748177D01*
X167329822Y10177946D01*
X167495736Y9777395D01*
X167741855Y9703261D01*
X168569995Y10531400D01*
X168929205Y10531400D01*
X169757345Y9703261D01*
X170003464Y9777395D01*
X170196565Y10314623D01*
X170169378Y10884854D01*
X170003464Y11285405D01*
X169757345Y11359539D01*
X168929205Y10531400D01*
X168569995Y10531400D01*
X167741855Y11359539D01*
X167495736Y11285405D01*
X167302635Y10748177D01*
X157172403Y10748177D01*
X157611273Y11186281D01*
X157757794Y11539145D01*
X167921461Y11539145D01*
X168749600Y10711005D01*
X169577739Y11539145D01*
X169503605Y11785264D01*
X168966377Y11978365D01*
X168396146Y11951178D01*
X167995595Y11785264D01*
X167921461Y11539145D01*
X157757794Y11539145D01*
X157944620Y11989070D01*
X157944623Y11992883D01*
X173574621Y11992883D01*
X173906567Y11189514D01*
X174520681Y10574327D01*
X175323470Y10240980D01*
X176192717Y10240221D01*
X176996086Y10572167D01*
X177611273Y11186281D01*
X177944620Y11989070D01*
X177945379Y12858317D01*
X177613433Y13661686D01*
X176999319Y14276873D01*
X176196530Y14610220D01*
X175327283Y14610979D01*
X174523914Y14279033D01*
X173908727Y13664919D01*
X173575380Y12862130D01*
X173574621Y11992883D01*
X157944623Y11992883D01*
X157945379Y12858317D01*
X157613433Y13661686D01*
X156999319Y14276873D01*
X156196530Y14610220D01*
X155327283Y14610979D01*
X154523914Y14279033D01*
X153908727Y13664919D01*
X153575380Y12862130D01*
X153574621Y11992883D01*
X137944623Y11992883D01*
X137945379Y12858317D01*
X137613433Y13661686D01*
X136999319Y14276873D01*
X136196530Y14610220D01*
X135327283Y14610979D01*
X134523914Y14279033D01*
X133908727Y13664919D01*
X133575380Y12862130D01*
X133574621Y11992883D01*
X117944623Y11992883D01*
X117945379Y12858317D01*
X117613433Y13661686D01*
X116999319Y14276873D01*
X116196530Y14610220D01*
X115327283Y14610979D01*
X114523914Y14279033D01*
X113908727Y13664919D01*
X113575380Y12862130D01*
X113574621Y11992883D01*
X97944623Y11992883D01*
X97945379Y12858317D01*
X97613433Y13661686D01*
X96999319Y14276873D01*
X96196530Y14610220D01*
X95327283Y14610979D01*
X94523914Y14279033D01*
X93908727Y13664919D01*
X93575380Y12862130D01*
X93574621Y11992883D01*
X77944623Y11992883D01*
X77945379Y12858317D01*
X77613433Y13661686D01*
X76999319Y14276873D01*
X76196530Y14610220D01*
X75327283Y14610979D01*
X74523914Y14279033D01*
X73908727Y13664919D01*
X73575380Y12862130D01*
X73574621Y11992883D01*
X57944623Y11992883D01*
X57945379Y12858317D01*
X57613433Y13661686D01*
X56999319Y14276873D01*
X56196530Y14610220D01*
X55327283Y14610979D01*
X54523914Y14279033D01*
X53908727Y13664919D01*
X53575380Y12862130D01*
X53574621Y11992883D01*
X37944623Y11992883D01*
X37945379Y12858317D01*
X37613433Y13661686D01*
X36999319Y14276873D01*
X36196530Y14610220D01*
X35327283Y14610979D01*
X34523914Y14279033D01*
X33908727Y13664919D01*
X33575380Y12862130D01*
X33574621Y11992883D01*
X24243685Y11992883D01*
X24523680Y12272878D01*
X24569167Y12272838D01*
X24912943Y12414883D01*
X25176192Y12677673D01*
X25318838Y13021201D01*
X25319162Y13393167D01*
X25177117Y13736943D01*
X24914327Y14000192D01*
X24570799Y14142838D01*
X24198833Y14143162D01*
X23855057Y14001117D01*
X23591808Y13738327D01*
X23449162Y13394799D01*
X23449121Y13347923D01*
X22765479Y12664281D01*
X22637117Y12974943D01*
X22374327Y13238192D01*
X22030799Y13380838D01*
X21658833Y13381162D01*
X21315057Y13239117D01*
X21312335Y13236400D01*
X19561563Y13236400D01*
X19361890Y13372831D01*
X19110000Y13423840D01*
X17610000Y13423840D01*
X17462914Y13396164D01*
X17546941Y13430883D01*
X17810190Y13693673D01*
X17952836Y14037201D01*
X17953160Y14409167D01*
X17811115Y14752943D01*
X17703040Y14861207D01*
X17734176Y14936191D01*
X17734500Y15308157D01*
X17592455Y15651933D01*
X17329665Y15915182D01*
X16986137Y16057828D01*
X16939261Y16057869D01*
X16694966Y16302164D01*
X16694966Y17475008D01*
X17782596Y16387378D01*
X18029158Y16222631D01*
X18319997Y16164779D01*
X89822779Y16164779D01*
X90113618Y16222631D01*
X90360180Y16387378D01*
X93574914Y19602112D01*
X93574621Y19267083D01*
X93906567Y18463714D01*
X94520681Y17848527D01*
X95323470Y17515180D01*
X96192717Y17514421D01*
X96996086Y17846367D01*
X97611273Y18460481D01*
X97944620Y19263270D01*
X97944623Y19267083D01*
X113574621Y19267083D01*
X113906567Y18463714D01*
X114520681Y17848527D01*
X115323470Y17515180D01*
X116192717Y17514421D01*
X116996086Y17846367D01*
X117611273Y18460481D01*
X117944620Y19263270D01*
X117944623Y19267083D01*
X133574621Y19267083D01*
X133906567Y18463714D01*
X134520681Y17848527D01*
X135323470Y17515180D01*
X136192717Y17514421D01*
X136996086Y17846367D01*
X137611273Y18460481D01*
X137944620Y19263270D01*
X137944623Y19267083D01*
X153574621Y19267083D01*
X153906567Y18463714D01*
X154520681Y17848527D01*
X155323470Y17515180D01*
X156192717Y17514421D01*
X156996086Y17846367D01*
X157611273Y18460481D01*
X157944620Y19263270D01*
X157944623Y19267083D01*
X173574621Y19267083D01*
X173906567Y18463714D01*
X174520681Y17848527D01*
X175323470Y17515180D01*
X176192717Y17514421D01*
X176996086Y17846367D01*
X177611273Y18460481D01*
X177944620Y19263270D01*
X177945379Y20132517D01*
X177613433Y20935886D01*
X176999319Y21551073D01*
X176196530Y21884420D01*
X175327283Y21885179D01*
X174523914Y21553233D01*
X173908727Y20939119D01*
X173575380Y20136330D01*
X173574621Y19267083D01*
X157944623Y19267083D01*
X157945379Y20132517D01*
X157613433Y20935886D01*
X156999319Y21551073D01*
X156196530Y21884420D01*
X155327283Y21885179D01*
X154523914Y21553233D01*
X153908727Y20939119D01*
X153575380Y20136330D01*
X153574621Y19267083D01*
X137944623Y19267083D01*
X137945379Y20132517D01*
X137613433Y20935886D01*
X136999319Y21551073D01*
X136196530Y21884420D01*
X135327283Y21885179D01*
X134523914Y21553233D01*
X133908727Y20939119D01*
X133575380Y20136330D01*
X133574621Y19267083D01*
X117944623Y19267083D01*
X117945379Y20132517D01*
X117613433Y20935886D01*
X116999319Y21551073D01*
X116196530Y21884420D01*
X115327283Y21885179D01*
X114523914Y21553233D01*
X113908727Y20939119D01*
X113575380Y20136330D01*
X113574621Y19267083D01*
X97944623Y19267083D01*
X97945379Y20132517D01*
X97613433Y20935886D01*
X96999319Y21551073D01*
X96196530Y21884420D01*
X95857518Y21884716D01*
X95931803Y21959001D01*
X107347367Y21959001D01*
X107314850Y21880691D01*
X107314352Y21309813D01*
X107532357Y20782200D01*
X107935677Y20378176D01*
X108462909Y20159250D01*
X109033787Y20158752D01*
X109561400Y20376757D01*
X109965424Y20780077D01*
X110184350Y21307309D01*
X110184848Y21878187D01*
X110151456Y21959001D01*
X127347367Y21959001D01*
X127314850Y21880691D01*
X127314352Y21309813D01*
X127532357Y20782200D01*
X127935677Y20378176D01*
X128462909Y20159250D01*
X129033787Y20158752D01*
X129561400Y20376757D01*
X129965424Y20780077D01*
X130184350Y21307309D01*
X130184848Y21878187D01*
X129966843Y22405800D01*
X129563523Y22809824D01*
X129481669Y22843813D01*
X129561400Y22876757D01*
X129965424Y23280077D01*
X130184350Y23807309D01*
X130184848Y24378187D01*
X130151456Y24459001D01*
X147309797Y24459001D01*
X147336344Y24432454D01*
X147314850Y24380691D01*
X147314352Y23809813D01*
X147532357Y23282200D01*
X147935677Y22878176D01*
X148017531Y22844187D01*
X147937800Y22811243D01*
X147533776Y22407923D01*
X147314850Y21880691D01*
X147314352Y21309813D01*
X147532357Y20782200D01*
X147935677Y20378176D01*
X148462909Y20159250D01*
X149033787Y20158752D01*
X149561400Y20376757D01*
X149965424Y20780077D01*
X150184350Y21307309D01*
X150184848Y21878187D01*
X149966843Y22405800D01*
X149563523Y22809824D01*
X149481669Y22843813D01*
X149561400Y22876757D01*
X149965424Y23280077D01*
X150184350Y23807309D01*
X150184352Y23809813D01*
X167314352Y23809813D01*
X167532357Y23282200D01*
X167935677Y22878176D01*
X168017531Y22844187D01*
X167937800Y22811243D01*
X167533776Y22407923D01*
X167314850Y21880691D01*
X167314352Y21309813D01*
X167532357Y20782200D01*
X167935677Y20378176D01*
X168462909Y20159250D01*
X169033787Y20158752D01*
X169561400Y20376757D01*
X169965424Y20780077D01*
X170184350Y21307309D01*
X170184848Y21878187D01*
X169966843Y22405800D01*
X169563523Y22809824D01*
X169481669Y22843813D01*
X169561400Y22876757D01*
X169965424Y23280077D01*
X170184350Y23807309D01*
X170184848Y24378187D01*
X169966843Y24905800D01*
X169563523Y25309824D01*
X169497056Y25337423D01*
X169503605Y25340136D01*
X169577739Y25586255D01*
X168749600Y26414395D01*
X167921461Y25586255D01*
X167995595Y25340136D01*
X168002083Y25337804D01*
X167937800Y25311243D01*
X167533776Y24907923D01*
X167314850Y24380691D01*
X167314352Y23809813D01*
X150184352Y23809813D01*
X150184848Y24378187D01*
X149966843Y24905800D01*
X149563523Y25309824D01*
X149497056Y25337423D01*
X149503605Y25340136D01*
X149577739Y25586255D01*
X148749600Y26414395D01*
X148735458Y26400252D01*
X148555853Y26579858D01*
X148569995Y26594000D01*
X148929205Y26594000D01*
X149757345Y25765861D01*
X150003464Y25839995D01*
X150196565Y26377223D01*
X150169378Y26947454D01*
X150003464Y27348005D01*
X149757345Y27422139D01*
X148929205Y26594000D01*
X148569995Y26594000D01*
X147741855Y27422139D01*
X147495736Y27348005D01*
X147302635Y26810777D01*
X147329822Y26240546D01*
X147438158Y25979001D01*
X130053428Y25979001D01*
X130196565Y26377223D01*
X130169378Y26947454D01*
X130003464Y27348005D01*
X129757345Y27422139D01*
X128929205Y26594000D01*
X128943348Y26579858D01*
X128763742Y26400252D01*
X128749600Y26414395D01*
X128735458Y26400252D01*
X128555852Y26579858D01*
X128569995Y26594000D01*
X127741855Y27422139D01*
X127495736Y27348005D01*
X127302635Y26810777D01*
X127329822Y26240546D01*
X127438158Y25979001D01*
X110053428Y25979001D01*
X110196565Y26377223D01*
X110169378Y26947454D01*
X110003464Y27348005D01*
X109757345Y27422139D01*
X108929205Y26594000D01*
X108943348Y26579858D01*
X108763742Y26400252D01*
X108749600Y26414395D01*
X108735458Y26400252D01*
X108555852Y26579858D01*
X108569995Y26594000D01*
X107741855Y27422139D01*
X107495736Y27348005D01*
X107302635Y26810777D01*
X107329822Y26240546D01*
X107438158Y25979001D01*
X90053428Y25979001D01*
X90196565Y26377223D01*
X90169378Y26947454D01*
X90003464Y27348005D01*
X89757345Y27422139D01*
X88929205Y26594000D01*
X88943348Y26579858D01*
X88763742Y26400252D01*
X88749600Y26414395D01*
X88735458Y26400252D01*
X88555852Y26579858D01*
X88569995Y26594000D01*
X87741855Y27422139D01*
X87495736Y27348005D01*
X87302635Y26810777D01*
X87329822Y26240546D01*
X87438158Y25979001D01*
X70053428Y25979001D01*
X70196565Y26377223D01*
X70169378Y26947454D01*
X70003464Y27348005D01*
X69757345Y27422139D01*
X68929205Y26594000D01*
X68943348Y26579858D01*
X68763742Y26400252D01*
X68749600Y26414395D01*
X68735458Y26400252D01*
X68555852Y26579858D01*
X68569995Y26594000D01*
X67741855Y27422139D01*
X67495736Y27348005D01*
X67302635Y26810777D01*
X67329822Y26240546D01*
X67438158Y25979001D01*
X50053428Y25979001D01*
X50196565Y26377223D01*
X50169378Y26947454D01*
X50003464Y27348005D01*
X49757345Y27422139D01*
X48929205Y26594000D01*
X48943348Y26579858D01*
X48763742Y26400252D01*
X48749600Y26414395D01*
X48735458Y26400252D01*
X48555852Y26579858D01*
X48569995Y26594000D01*
X47741855Y27422139D01*
X47495736Y27348005D01*
X47302635Y26810777D01*
X47329822Y26240546D01*
X47438158Y25979001D01*
X32104403Y25979001D01*
X30027921Y28055483D01*
X33574621Y28055483D01*
X33906567Y27252114D01*
X34520681Y26636927D01*
X35323470Y26303580D01*
X36192717Y26302821D01*
X36996086Y26634767D01*
X37611273Y27248881D01*
X37757794Y27601745D01*
X47921461Y27601745D01*
X48749600Y26773605D01*
X49577739Y27601745D01*
X49503605Y27847864D01*
X48966377Y28040965D01*
X48396146Y28013778D01*
X47995595Y27847864D01*
X47921461Y27601745D01*
X37757794Y27601745D01*
X37944620Y28051670D01*
X37944623Y28055483D01*
X53574621Y28055483D01*
X53906567Y27252114D01*
X54520681Y26636927D01*
X55323470Y26303580D01*
X56192717Y26302821D01*
X56996086Y26634767D01*
X57611273Y27248881D01*
X57757794Y27601745D01*
X67921461Y27601745D01*
X68749600Y26773605D01*
X69577739Y27601745D01*
X69503605Y27847864D01*
X68966377Y28040965D01*
X68396146Y28013778D01*
X67995595Y27847864D01*
X67921461Y27601745D01*
X57757794Y27601745D01*
X57944620Y28051670D01*
X57944623Y28055483D01*
X73574621Y28055483D01*
X73906567Y27252114D01*
X74520681Y26636927D01*
X75323470Y26303580D01*
X76192717Y26302821D01*
X76996086Y26634767D01*
X77611273Y27248881D01*
X77757794Y27601745D01*
X87921461Y27601745D01*
X88749600Y26773605D01*
X89577739Y27601745D01*
X89503605Y27847864D01*
X88966377Y28040965D01*
X88396146Y28013778D01*
X87995595Y27847864D01*
X87921461Y27601745D01*
X77757794Y27601745D01*
X77944620Y28051670D01*
X77944623Y28055483D01*
X93574621Y28055483D01*
X93906567Y27252114D01*
X94520681Y26636927D01*
X95323470Y26303580D01*
X96192717Y26302821D01*
X96996086Y26634767D01*
X97611273Y27248881D01*
X97757794Y27601745D01*
X107921461Y27601745D01*
X108749600Y26773605D01*
X109577739Y27601745D01*
X109503605Y27847864D01*
X108966377Y28040965D01*
X108396146Y28013778D01*
X107995595Y27847864D01*
X107921461Y27601745D01*
X97757794Y27601745D01*
X97944620Y28051670D01*
X97944623Y28055483D01*
X113574621Y28055483D01*
X113906567Y27252114D01*
X114520681Y26636927D01*
X115323470Y26303580D01*
X116192717Y26302821D01*
X116996086Y26634767D01*
X117611273Y27248881D01*
X117757794Y27601745D01*
X127921461Y27601745D01*
X128749600Y26773605D01*
X129577739Y27601745D01*
X129503605Y27847864D01*
X128966377Y28040965D01*
X128396146Y28013778D01*
X127995595Y27847864D01*
X127921461Y27601745D01*
X117757794Y27601745D01*
X117944620Y28051670D01*
X117944623Y28055483D01*
X133574621Y28055483D01*
X133906567Y27252114D01*
X134520681Y26636927D01*
X135323470Y26303580D01*
X136192717Y26302821D01*
X136996086Y26634767D01*
X137611273Y27248881D01*
X137757794Y27601745D01*
X147921461Y27601745D01*
X148749600Y26773605D01*
X149577739Y27601745D01*
X149503605Y27847864D01*
X148966377Y28040965D01*
X148396146Y28013778D01*
X147995595Y27847864D01*
X147921461Y27601745D01*
X137757794Y27601745D01*
X137944620Y28051670D01*
X137944623Y28055483D01*
X153574621Y28055483D01*
X153906567Y27252114D01*
X154520681Y26636927D01*
X155323470Y26303580D01*
X156192717Y26302821D01*
X156996086Y26634767D01*
X157172403Y26810777D01*
X167302635Y26810777D01*
X167329822Y26240546D01*
X167495736Y25839995D01*
X167741855Y25765861D01*
X168569995Y26594000D01*
X168929205Y26594000D01*
X169757345Y25765861D01*
X170003464Y25839995D01*
X170196565Y26377223D01*
X170169378Y26947454D01*
X170003464Y27348005D01*
X169757345Y27422139D01*
X168929205Y26594000D01*
X168569995Y26594000D01*
X167741855Y27422139D01*
X167495736Y27348005D01*
X167302635Y26810777D01*
X157172403Y26810777D01*
X157611273Y27248881D01*
X157757794Y27601745D01*
X167921461Y27601745D01*
X168749600Y26773605D01*
X169577739Y27601745D01*
X169503605Y27847864D01*
X168966377Y28040965D01*
X168396146Y28013778D01*
X167995595Y27847864D01*
X167921461Y27601745D01*
X157757794Y27601745D01*
X157944620Y28051670D01*
X157944623Y28055483D01*
X173574621Y28055483D01*
X173906567Y27252114D01*
X174520681Y26636927D01*
X175323470Y26303580D01*
X176192717Y26302821D01*
X176996086Y26634767D01*
X177611273Y27248881D01*
X177944620Y28051670D01*
X177945379Y28920917D01*
X177613433Y29724286D01*
X176999319Y30339473D01*
X176196530Y30672820D01*
X175327283Y30673579D01*
X174523914Y30341633D01*
X173908727Y29727519D01*
X173575380Y28924730D01*
X173574621Y28055483D01*
X157944623Y28055483D01*
X157945379Y28920917D01*
X157613433Y29724286D01*
X156999319Y30339473D01*
X156196530Y30672820D01*
X155327283Y30673579D01*
X154523914Y30341633D01*
X153908727Y29727519D01*
X153575380Y28924730D01*
X153574621Y28055483D01*
X137944623Y28055483D01*
X137945379Y28920917D01*
X137613433Y29724286D01*
X136999319Y30339473D01*
X136196530Y30672820D01*
X135327283Y30673579D01*
X134523914Y30341633D01*
X133908727Y29727519D01*
X133575380Y28924730D01*
X133574621Y28055483D01*
X117944623Y28055483D01*
X117945379Y28920917D01*
X117613433Y29724286D01*
X116999319Y30339473D01*
X116196530Y30672820D01*
X115327283Y30673579D01*
X114523914Y30341633D01*
X113908727Y29727519D01*
X113575380Y28924730D01*
X113574621Y28055483D01*
X97944623Y28055483D01*
X97945379Y28920917D01*
X97613433Y29724286D01*
X96999319Y30339473D01*
X96196530Y30672820D01*
X95327283Y30673579D01*
X94523914Y30341633D01*
X93908727Y29727519D01*
X93575380Y28924730D01*
X93574621Y28055483D01*
X77944623Y28055483D01*
X77945379Y28920917D01*
X77613433Y29724286D01*
X76999319Y30339473D01*
X76196530Y30672820D01*
X75327283Y30673579D01*
X74523914Y30341633D01*
X73908727Y29727519D01*
X73575380Y28924730D01*
X73574621Y28055483D01*
X57944623Y28055483D01*
X57945379Y28920917D01*
X57613433Y29724286D01*
X56999319Y30339473D01*
X56196530Y30672820D01*
X55327283Y30673579D01*
X54523914Y30341633D01*
X53908727Y29727519D01*
X53575380Y28924730D01*
X53574621Y28055483D01*
X37944623Y28055483D01*
X37945379Y28920917D01*
X37613433Y29724286D01*
X36999319Y30339473D01*
X36196530Y30672820D01*
X35327283Y30673579D01*
X34523914Y30341633D01*
X33908727Y29727519D01*
X33575380Y28924730D01*
X33574621Y28055483D01*
X30027921Y28055483D01*
X29827002Y28256402D01*
X29580440Y28421149D01*
X29289601Y28479001D01*
X28209599Y28479001D01*
X27918760Y28421149D01*
X27672198Y28256402D01*
X25394797Y25979001D01*
X21659491Y25979001D01*
X21659644Y26154157D01*
X21517599Y26497933D01*
X21484482Y26531108D01*
X21484482Y26768118D01*
X21426630Y27058957D01*
X21426630Y27058958D01*
X21261883Y27305519D01*
X19757440Y28809962D01*
X19757440Y28982600D01*
X19713162Y29217917D01*
X19574090Y29434041D01*
X19361890Y29579031D01*
X19110000Y29630040D01*
X17610000Y29630040D01*
X17374683Y29585762D01*
X17158559Y29446690D01*
X17013569Y29234490D01*
X16962560Y28982600D01*
X16962560Y28382600D01*
X17006838Y28147283D01*
X17070678Y28048072D01*
X17013569Y27964490D01*
X16962560Y27712600D01*
X16962560Y27112600D01*
X17006838Y26877283D01*
X17070678Y26778072D01*
X17013569Y26694490D01*
X16962560Y26442600D01*
X16962560Y26269962D01*
X15914610Y25222012D01*
X15790754Y25036648D01*
X14557440Y26269962D01*
X14557440Y26442600D01*
X14513162Y26677917D01*
X14449322Y26777128D01*
X14506431Y26860710D01*
X14557440Y27112600D01*
X14557440Y27712600D01*
X14513162Y27947917D01*
X14454821Y28038581D01*
X14545000Y28256291D01*
X14545000Y28396850D01*
X14386250Y28555600D01*
X13287000Y28555600D01*
X13287000Y28535600D01*
X13033000Y28535600D01*
X13033000Y28555600D01*
X11933750Y28555600D01*
X11775000Y28396850D01*
X11775000Y28256291D01*
X11791109Y28217400D01*
X11340462Y28217400D01*
X11304192Y28305180D01*
X10882997Y28727110D01*
X10882069Y28727495D01*
X11264148Y29108909D01*
X11775000Y29108909D01*
X11775000Y28968350D01*
X11933750Y28809600D01*
X13033000Y28809600D01*
X13033000Y29458850D01*
X13287000Y29458850D01*
X13287000Y28809600D01*
X14386250Y28809600D01*
X14545000Y28968350D01*
X14545000Y29108909D01*
X14448327Y29342298D01*
X14269699Y29520927D01*
X14036310Y29617600D01*
X13445750Y29617600D01*
X13287000Y29458850D01*
X13033000Y29458850D01*
X12874250Y29617600D01*
X12283690Y29617600D01*
X12050301Y29520927D01*
X11871673Y29342298D01*
X11775000Y29108909D01*
X11264148Y29108909D01*
X11302710Y29147403D01*
X11531339Y29698002D01*
X11531859Y30294182D01*
X11321827Y30802500D01*
X22490980Y30802500D01*
X22194001Y30506039D01*
X22194001Y30506039D01*
G37*
X22194001Y30506039D02*
X21845397Y29666509D01*
X21844604Y28757479D01*
X22191742Y27917342D01*
X22833961Y27274001D01*
X23673491Y26925397D01*
X24582521Y26924604D01*
X25422658Y27271742D01*
X26065999Y27913961D01*
X26414603Y28753491D01*
X26415396Y29662521D01*
X26068258Y30502658D01*
X25768939Y30802500D01*
X189406128Y30802500D01*
X189024001Y30421039D01*
X188675397Y29581509D01*
X188674604Y28672479D01*
X189021742Y27832342D01*
X189663961Y27189001D01*
X190503491Y26840397D01*
X191412521Y26839604D01*
X192252658Y27186742D01*
X192895999Y27828961D01*
X193244603Y28668491D01*
X193245396Y29577521D01*
X192898258Y30417658D01*
X192514087Y30802500D01*
X193275000Y30802500D01*
X193275000Y1322500D01*
X192513872Y1322500D01*
X192895999Y1703961D01*
X193244603Y2543491D01*
X193245396Y3452521D01*
X192898258Y4292658D01*
X192256039Y4935999D01*
X191416509Y5284603D01*
X190507479Y5285396D01*
X189667342Y4938258D01*
X189024001Y4296039D01*
X188675397Y3456509D01*
X188674604Y2547479D01*
X189021742Y1707342D01*
X189405913Y1322500D01*
X47094706Y1322500D01*
X47274192Y1501673D01*
X47416838Y1845201D01*
X47417162Y2217167D01*
X47275117Y2560943D01*
X47012327Y2824192D01*
X46668799Y2966838D01*
X46296833Y2967162D01*
X45953057Y2825117D01*
X45689808Y2562327D01*
X45660606Y2492001D01*
X37650355Y2492001D01*
X37944620Y3200670D01*
X37945379Y4069917D01*
X37663464Y4752201D01*
X41924997Y4752201D01*
X43258211Y3418987D01*
X43504773Y3254240D01*
X43795612Y3196388D01*
X53304187Y3196388D01*
X53574661Y3250189D01*
X53574621Y3204483D01*
X53906567Y2401114D01*
X54520681Y1785927D01*
X55323470Y1452580D01*
X56192717Y1451821D01*
X56996086Y1783767D01*
X57611273Y2397881D01*
X57944620Y3200670D01*
X57944932Y3558000D01*
X65731537Y3558000D01*
X65763673Y3525808D01*
X66107201Y3383162D01*
X66479167Y3382838D01*
X66822943Y3524883D01*
X67086192Y3787673D01*
X67228838Y4131201D01*
X67228996Y4312200D01*
X67672198Y3868998D01*
X67918759Y3704251D01*
X68209599Y3646399D01*
X73575007Y3646399D01*
X73574621Y3204483D01*
X73906567Y2401114D01*
X74520681Y1785927D01*
X75323470Y1452580D01*
X76192717Y1451821D01*
X76996086Y1783767D01*
X77611273Y2397881D01*
X77944620Y3200670D01*
X77944623Y3204483D01*
X93574621Y3204483D01*
X93906567Y2401114D01*
X94520681Y1785927D01*
X95323470Y1452580D01*
X96192717Y1451821D01*
X96996086Y1783767D01*
X97611273Y2397881D01*
X97944620Y3200670D01*
X97944623Y3204483D01*
X113574621Y3204483D01*
X113906567Y2401114D01*
X114520681Y1785927D01*
X115323470Y1452580D01*
X116192717Y1451821D01*
X116996086Y1783767D01*
X117611273Y2397881D01*
X117944620Y3200670D01*
X117944623Y3204483D01*
X133574621Y3204483D01*
X133906567Y2401114D01*
X134520681Y1785927D01*
X135323470Y1452580D01*
X136192717Y1451821D01*
X136996086Y1783767D01*
X137611273Y2397881D01*
X137944620Y3200670D01*
X137944623Y3204483D01*
X153574621Y3204483D01*
X153906567Y2401114D01*
X154520681Y1785927D01*
X155323470Y1452580D01*
X156192717Y1451821D01*
X156996086Y1783767D01*
X157611273Y2397881D01*
X157944620Y3200670D01*
X157944623Y3204483D01*
X173574621Y3204483D01*
X173906567Y2401114D01*
X174520681Y1785927D01*
X175323470Y1452580D01*
X176192717Y1451821D01*
X176996086Y1783767D01*
X177611273Y2397881D01*
X177944620Y3200670D01*
X177945379Y4069917D01*
X177613433Y4873286D01*
X176999319Y5488473D01*
X176196530Y5821820D01*
X175327283Y5822579D01*
X174523914Y5490633D01*
X173908727Y4876519D01*
X173575380Y4073730D01*
X173574621Y3204483D01*
X157944623Y3204483D01*
X157945379Y4069917D01*
X157613433Y4873286D01*
X156999319Y5488473D01*
X156196530Y5821820D01*
X155327283Y5822579D01*
X154523914Y5490633D01*
X153908727Y4876519D01*
X153575380Y4073730D01*
X153574621Y3204483D01*
X137944623Y3204483D01*
X137945379Y4069917D01*
X137613433Y4873286D01*
X136999319Y5488473D01*
X136196530Y5821820D01*
X135327283Y5822579D01*
X134523914Y5490633D01*
X133908727Y4876519D01*
X133575380Y4073730D01*
X133574621Y3204483D01*
X117944623Y3204483D01*
X117945379Y4069917D01*
X117613433Y4873286D01*
X116999319Y5488473D01*
X116196530Y5821820D01*
X115327283Y5822579D01*
X114523914Y5490633D01*
X113908727Y4876519D01*
X113575380Y4073730D01*
X113574621Y3204483D01*
X97944623Y3204483D01*
X97945379Y4069917D01*
X97613433Y4873286D01*
X96999319Y5488473D01*
X96196530Y5821820D01*
X95327283Y5822579D01*
X94523914Y5490633D01*
X93908727Y4876519D01*
X93575380Y4073730D01*
X93574621Y3204483D01*
X77944623Y3204483D01*
X77945379Y4069917D01*
X77663464Y4752201D01*
X84857336Y4752201D01*
X84889472Y4720009D01*
X85233000Y4577363D01*
X85604966Y4577039D01*
X85948742Y4719084D01*
X86211991Y4981874D01*
X86354637Y5325402D01*
X86354961Y5697368D01*
X86272722Y5896401D01*
X87347367Y5896401D01*
X87314850Y5818091D01*
X87314352Y5247213D01*
X87532357Y4719600D01*
X87935677Y4315576D01*
X88462909Y4096650D01*
X89033787Y4096152D01*
X89561400Y4314157D01*
X89965424Y4717477D01*
X90184350Y5244709D01*
X90184848Y5815587D01*
X90151456Y5896401D01*
X107347367Y5896401D01*
X107314850Y5818091D01*
X107314352Y5247213D01*
X107532357Y4719600D01*
X107935677Y4315576D01*
X108462909Y4096650D01*
X109033787Y4096152D01*
X109561400Y4314157D01*
X109965424Y4717477D01*
X110184350Y5244709D01*
X110184848Y5815587D01*
X109966843Y6343200D01*
X109563523Y6747224D01*
X109481669Y6781213D01*
X109561400Y6814157D01*
X109965424Y7217477D01*
X110184350Y7744709D01*
X110184848Y8315587D01*
X110151456Y8396401D01*
X127309797Y8396401D01*
X127336344Y8369854D01*
X127314850Y8318091D01*
X127314352Y7747213D01*
X127532357Y7219600D01*
X127935677Y6815576D01*
X128017531Y6781587D01*
X127937800Y6748643D01*
X127533776Y6345323D01*
X127314850Y5818091D01*
X127314352Y5247213D01*
X127532357Y4719600D01*
X127935677Y4315576D01*
X128462909Y4096650D01*
X129033787Y4096152D01*
X129561400Y4314157D01*
X129965424Y4717477D01*
X130184350Y5244709D01*
X130184848Y5815587D01*
X129966843Y6343200D01*
X129563523Y6747224D01*
X129481669Y6781213D01*
X129561400Y6814157D01*
X129965424Y7217477D01*
X130184350Y7744709D01*
X130184352Y7747213D01*
X147314352Y7747213D01*
X147532357Y7219600D01*
X147935677Y6815576D01*
X148017531Y6781587D01*
X147937800Y6748643D01*
X147533776Y6345323D01*
X147314850Y5818091D01*
X147314352Y5247213D01*
X147532357Y4719600D01*
X147935677Y4315576D01*
X148462909Y4096650D01*
X149033787Y4096152D01*
X149561400Y4314157D01*
X149965424Y4717477D01*
X150184350Y5244709D01*
X150184848Y5815587D01*
X149966843Y6343200D01*
X149563523Y6747224D01*
X149481669Y6781213D01*
X149561400Y6814157D01*
X149965424Y7217477D01*
X150184350Y7744709D01*
X150184352Y7747213D01*
X167314352Y7747213D01*
X167532357Y7219600D01*
X167935677Y6815576D01*
X168017531Y6781587D01*
X167937800Y6748643D01*
X167533776Y6345323D01*
X167314850Y5818091D01*
X167314352Y5247213D01*
X167532357Y4719600D01*
X167935677Y4315576D01*
X168462909Y4096650D01*
X169033787Y4096152D01*
X169561400Y4314157D01*
X169965424Y4717477D01*
X170184350Y5244709D01*
X170184848Y5815587D01*
X169966843Y6343200D01*
X169563523Y6747224D01*
X169481669Y6781213D01*
X169561400Y6814157D01*
X169965424Y7217477D01*
X170184350Y7744709D01*
X170184848Y8315587D01*
X169966843Y8843200D01*
X169563523Y9247224D01*
X169497056Y9274823D01*
X169503605Y9277536D01*
X169577739Y9523655D01*
X168749600Y10351795D01*
X167921461Y9523655D01*
X167995595Y9277536D01*
X168002083Y9275204D01*
X167937800Y9248643D01*
X167533776Y8845323D01*
X167314850Y8318091D01*
X167314352Y7747213D01*
X150184352Y7747213D01*
X150184848Y8315587D01*
X149966843Y8843200D01*
X149563523Y9247224D01*
X149497056Y9274823D01*
X149503605Y9277536D01*
X149577739Y9523655D01*
X148749600Y10351795D01*
X147921461Y9523655D01*
X147995595Y9277536D01*
X148002083Y9275204D01*
X147937800Y9248643D01*
X147533776Y8845323D01*
X147314850Y8318091D01*
X147314352Y7747213D01*
X130184352Y7747213D01*
X130184848Y8315587D01*
X129966843Y8843200D01*
X129563523Y9247224D01*
X129497056Y9274823D01*
X129503605Y9277536D01*
X129577739Y9523655D01*
X128749600Y10351795D01*
X128735458Y10337652D01*
X128555853Y10517258D01*
X128569995Y10531400D01*
X128929205Y10531400D01*
X129757345Y9703261D01*
X130003464Y9777395D01*
X130196565Y10314623D01*
X130169378Y10884854D01*
X130003464Y11285405D01*
X129757345Y11359539D01*
X128929205Y10531400D01*
X128569995Y10531400D01*
X127741855Y11359539D01*
X127495736Y11285405D01*
X127302635Y10748177D01*
X127329822Y10177946D01*
X127438158Y9916401D01*
X110053428Y9916401D01*
X110196565Y10314623D01*
X110169378Y10884854D01*
X110003464Y11285405D01*
X109757345Y11359539D01*
X108929205Y10531400D01*
X108943348Y10517258D01*
X108763742Y10337652D01*
X108749600Y10351795D01*
X108735458Y10337652D01*
X108555852Y10517258D01*
X108569995Y10531400D01*
X107741855Y11359539D01*
X107495736Y11285405D01*
X107302635Y10748177D01*
X107329822Y10177946D01*
X107438158Y9916401D01*
X90053428Y9916401D01*
X90196565Y10314623D01*
X90169378Y10884854D01*
X90003464Y11285405D01*
X89757345Y11359539D01*
X88929205Y10531400D01*
X88943348Y10517258D01*
X88763742Y10337652D01*
X88749600Y10351795D01*
X88735458Y10337652D01*
X88555852Y10517258D01*
X88569995Y10531400D01*
X87741855Y11359539D01*
X87495736Y11285405D01*
X87302635Y10748177D01*
X87329822Y10177946D01*
X87438158Y9916401D01*
X70053428Y9916401D01*
X70196565Y10314623D01*
X70169378Y10884854D01*
X70003464Y11285405D01*
X69757345Y11359539D01*
X68929205Y10531400D01*
X68943348Y10517258D01*
X68763742Y10337652D01*
X68749600Y10351795D01*
X68735458Y10337652D01*
X68555852Y10517258D01*
X68569995Y10531400D01*
X67741855Y11359539D01*
X67495736Y11285405D01*
X67302635Y10748177D01*
X67329822Y10177946D01*
X67438158Y9916401D01*
X50053428Y9916401D01*
X50196565Y10314623D01*
X50169378Y10884854D01*
X50003464Y11285405D01*
X49757345Y11359539D01*
X48929205Y10531400D01*
X48943348Y10517258D01*
X48763742Y10337652D01*
X48749600Y10351795D01*
X48735458Y10337652D01*
X48555852Y10517258D01*
X48569995Y10531400D01*
X47741855Y11359539D01*
X47495736Y11285405D01*
X47302635Y10748177D01*
X47329822Y10177946D01*
X47438158Y9916401D01*
X30053428Y9916401D01*
X30196565Y10314623D01*
X30169378Y10884854D01*
X30003464Y11285405D01*
X29757345Y11359539D01*
X28929205Y10531400D01*
X28943348Y10517258D01*
X28763742Y10337652D01*
X28749600Y10351795D01*
X28735458Y10337652D01*
X28555852Y10517258D01*
X28569995Y10531400D01*
X27741855Y11359539D01*
X27495736Y11285405D01*
X27302635Y10748177D01*
X27329822Y10177946D01*
X27438158Y9916401D01*
X19904801Y9916401D01*
X19757440Y10063762D01*
X19757440Y10236400D01*
X19717926Y10446400D01*
X22382400Y10446400D01*
X22673239Y10504252D01*
X22919801Y10668999D01*
X23789947Y11539145D01*
X27921461Y11539145D01*
X28749600Y10711005D01*
X29577739Y11539145D01*
X29503605Y11785264D01*
X28966377Y11978365D01*
X28396146Y11951178D01*
X27995595Y11785264D01*
X27921461Y11539145D01*
X23789947Y11539145D01*
X24243685Y11992883D01*
X33574621Y11992883D01*
X33906567Y11189514D01*
X34520681Y10574327D01*
X35323470Y10240980D01*
X36192717Y10240221D01*
X36996086Y10572167D01*
X37611273Y11186281D01*
X37757794Y11539145D01*
X47921461Y11539145D01*
X48749600Y10711005D01*
X49577739Y11539145D01*
X49503605Y11785264D01*
X48966377Y11978365D01*
X48396146Y11951178D01*
X47995595Y11785264D01*
X47921461Y11539145D01*
X37757794Y11539145D01*
X37944620Y11989070D01*
X37944623Y11992883D01*
X53574621Y11992883D01*
X53906567Y11189514D01*
X54520681Y10574327D01*
X55323470Y10240980D01*
X56192717Y10240221D01*
X56996086Y10572167D01*
X57611273Y11186281D01*
X57757794Y11539145D01*
X67921461Y11539145D01*
X68749600Y10711005D01*
X69577739Y11539145D01*
X69503605Y11785264D01*
X68966377Y11978365D01*
X68396146Y11951178D01*
X67995595Y11785264D01*
X67921461Y11539145D01*
X57757794Y11539145D01*
X57944620Y11989070D01*
X57944623Y11992883D01*
X73574621Y11992883D01*
X73906567Y11189514D01*
X74520681Y10574327D01*
X75323470Y10240980D01*
X76192717Y10240221D01*
X76996086Y10572167D01*
X77611273Y11186281D01*
X77757794Y11539145D01*
X87921461Y11539145D01*
X88749600Y10711005D01*
X89577739Y11539145D01*
X89503605Y11785264D01*
X88966377Y11978365D01*
X88396146Y11951178D01*
X87995595Y11785264D01*
X87921461Y11539145D01*
X77757794Y11539145D01*
X77944620Y11989070D01*
X77944623Y11992883D01*
X93574621Y11992883D01*
X93906567Y11189514D01*
X94520681Y10574327D01*
X95323470Y10240980D01*
X96192717Y10240221D01*
X96996086Y10572167D01*
X97611273Y11186281D01*
X97757794Y11539145D01*
X107921461Y11539145D01*
X108749600Y10711005D01*
X109577739Y11539145D01*
X109503605Y11785264D01*
X108966377Y11978365D01*
X108396146Y11951178D01*
X107995595Y11785264D01*
X107921461Y11539145D01*
X97757794Y11539145D01*
X97944620Y11989070D01*
X97944623Y11992883D01*
X113574621Y11992883D01*
X113906567Y11189514D01*
X114520681Y10574327D01*
X115323470Y10240980D01*
X116192717Y10240221D01*
X116996086Y10572167D01*
X117611273Y11186281D01*
X117757794Y11539145D01*
X127921461Y11539145D01*
X128749600Y10711005D01*
X129577739Y11539145D01*
X129503605Y11785264D01*
X128966377Y11978365D01*
X128396146Y11951178D01*
X127995595Y11785264D01*
X127921461Y11539145D01*
X117757794Y11539145D01*
X117944620Y11989070D01*
X117944623Y11992883D01*
X133574621Y11992883D01*
X133906567Y11189514D01*
X134520681Y10574327D01*
X135323470Y10240980D01*
X136192717Y10240221D01*
X136996086Y10572167D01*
X137172403Y10748177D01*
X147302635Y10748177D01*
X147329822Y10177946D01*
X147495736Y9777395D01*
X147741855Y9703261D01*
X148569995Y10531400D01*
X148929205Y10531400D01*
X149757345Y9703261D01*
X150003464Y9777395D01*
X150196565Y10314623D01*
X150169378Y10884854D01*
X150003464Y11285405D01*
X149757345Y11359539D01*
X148929205Y10531400D01*
X148569995Y10531400D01*
X147741855Y11359539D01*
X147495736Y11285405D01*
X147302635Y10748177D01*
X137172403Y10748177D01*
X137611273Y11186281D01*
X137757794Y11539145D01*
X147921461Y11539145D01*
X148749600Y10711005D01*
X149577739Y11539145D01*
X149503605Y11785264D01*
X148966377Y11978365D01*
X148396146Y11951178D01*
X147995595Y11785264D01*
X147921461Y11539145D01*
X137757794Y11539145D01*
X137944620Y11989070D01*
X137944623Y11992883D01*
X153574621Y11992883D01*
X153906567Y11189514D01*
X154520681Y10574327D01*
X155323470Y10240980D01*
X156192717Y10240221D01*
X156996086Y10572167D01*
X157172403Y10748177D01*
X167302635Y10748177D01*
X167329822Y10177946D01*
X167495736Y9777395D01*
X167741855Y9703261D01*
X168569995Y10531400D01*
X168929205Y10531400D01*
X169757345Y9703261D01*
X170003464Y9777395D01*
X170196565Y10314623D01*
X170169378Y10884854D01*
X170003464Y11285405D01*
X169757345Y11359539D01*
X168929205Y10531400D01*
X168569995Y10531400D01*
X167741855Y11359539D01*
X167495736Y11285405D01*
X167302635Y10748177D01*
X157172403Y10748177D01*
X157611273Y11186281D01*
X157757794Y11539145D01*
X167921461Y11539145D01*
X168749600Y10711005D01*
X169577739Y11539145D01*
X169503605Y11785264D01*
X168966377Y11978365D01*
X168396146Y11951178D01*
X167995595Y11785264D01*
X167921461Y11539145D01*
X157757794Y11539145D01*
X157944620Y11989070D01*
X157944623Y11992883D01*
X173574621Y11992883D01*
X173906567Y11189514D01*
X174520681Y10574327D01*
X175323470Y10240980D01*
X176192717Y10240221D01*
X176996086Y10572167D01*
X177611273Y11186281D01*
X177944620Y11989070D01*
X177945379Y12858317D01*
X177613433Y13661686D01*
X176999319Y14276873D01*
X176196530Y14610220D01*
X175327283Y14610979D01*
X174523914Y14279033D01*
X173908727Y13664919D01*
X173575380Y12862130D01*
X173574621Y11992883D01*
X157944623Y11992883D01*
X157945379Y12858317D01*
X157613433Y13661686D01*
X156999319Y14276873D01*
X156196530Y14610220D01*
X155327283Y14610979D01*
X154523914Y14279033D01*
X153908727Y13664919D01*
X153575380Y12862130D01*
X153574621Y11992883D01*
X137944623Y11992883D01*
X137945379Y12858317D01*
X137613433Y13661686D01*
X136999319Y14276873D01*
X136196530Y14610220D01*
X135327283Y14610979D01*
X134523914Y14279033D01*
X133908727Y13664919D01*
X133575380Y12862130D01*
X133574621Y11992883D01*
X117944623Y11992883D01*
X117945379Y12858317D01*
X117613433Y13661686D01*
X116999319Y14276873D01*
X116196530Y14610220D01*
X115327283Y14610979D01*
X114523914Y14279033D01*
X113908727Y13664919D01*
X113575380Y12862130D01*
X113574621Y11992883D01*
X97944623Y11992883D01*
X97945379Y12858317D01*
X97613433Y13661686D01*
X96999319Y14276873D01*
X96196530Y14610220D01*
X95327283Y14610979D01*
X94523914Y14279033D01*
X93908727Y13664919D01*
X93575380Y12862130D01*
X93574621Y11992883D01*
X77944623Y11992883D01*
X77945379Y12858317D01*
X77613433Y13661686D01*
X76999319Y14276873D01*
X76196530Y14610220D01*
X75327283Y14610979D01*
X74523914Y14279033D01*
X73908727Y13664919D01*
X73575380Y12862130D01*
X73574621Y11992883D01*
X57944623Y11992883D01*
X57945379Y12858317D01*
X57613433Y13661686D01*
X56999319Y14276873D01*
X56196530Y14610220D01*
X55327283Y14610979D01*
X54523914Y14279033D01*
X53908727Y13664919D01*
X53575380Y12862130D01*
X53574621Y11992883D01*
X37944623Y11992883D01*
X37945379Y12858317D01*
X37613433Y13661686D01*
X36999319Y14276873D01*
X36196530Y14610220D01*
X35327283Y14610979D01*
X34523914Y14279033D01*
X33908727Y13664919D01*
X33575380Y12862130D01*
X33574621Y11992883D01*
X24243685Y11992883D01*
X24523680Y12272878D01*
X24569167Y12272838D01*
X24912943Y12414883D01*
X25176192Y12677673D01*
X25318838Y13021201D01*
X25319162Y13393167D01*
X25177117Y13736943D01*
X24914327Y14000192D01*
X24570799Y14142838D01*
X24198833Y14143162D01*
X23855057Y14001117D01*
X23591808Y13738327D01*
X23449162Y13394799D01*
X23449121Y13347923D01*
X22765479Y12664281D01*
X22637117Y12974943D01*
X22374327Y13238192D01*
X22030799Y13380838D01*
X21658833Y13381162D01*
X21315057Y13239117D01*
X21312335Y13236400D01*
X19561563Y13236400D01*
X19361890Y13372831D01*
X19110000Y13423840D01*
X17610000Y13423840D01*
X17462914Y13396164D01*
X17546941Y13430883D01*
X17810190Y13693673D01*
X17952836Y14037201D01*
X17953160Y14409167D01*
X17811115Y14752943D01*
X17703040Y14861207D01*
X17734176Y14936191D01*
X17734500Y15308157D01*
X17592455Y15651933D01*
X17329665Y15915182D01*
X16986137Y16057828D01*
X16939261Y16057869D01*
X16694966Y16302164D01*
X16694966Y17475008D01*
X17782596Y16387378D01*
X18029158Y16222631D01*
X18319997Y16164779D01*
X89822779Y16164779D01*
X90113618Y16222631D01*
X90360180Y16387378D01*
X93574914Y19602112D01*
X93574621Y19267083D01*
X93906567Y18463714D01*
X94520681Y17848527D01*
X95323470Y17515180D01*
X96192717Y17514421D01*
X96996086Y17846367D01*
X97611273Y18460481D01*
X97944620Y19263270D01*
X97944623Y19267083D01*
X113574621Y19267083D01*
X113906567Y18463714D01*
X114520681Y17848527D01*
X115323470Y17515180D01*
X116192717Y17514421D01*
X116996086Y17846367D01*
X117611273Y18460481D01*
X117944620Y19263270D01*
X117944623Y19267083D01*
X133574621Y19267083D01*
X133906567Y18463714D01*
X134520681Y17848527D01*
X135323470Y17515180D01*
X136192717Y17514421D01*
X136996086Y17846367D01*
X137611273Y18460481D01*
X137944620Y19263270D01*
X137944623Y19267083D01*
X153574621Y19267083D01*
X153906567Y18463714D01*
X154520681Y17848527D01*
X155323470Y17515180D01*
X156192717Y17514421D01*
X156996086Y17846367D01*
X157611273Y18460481D01*
X157944620Y19263270D01*
X157944623Y19267083D01*
X173574621Y19267083D01*
X173906567Y18463714D01*
X174520681Y17848527D01*
X175323470Y17515180D01*
X176192717Y17514421D01*
X176996086Y17846367D01*
X177611273Y18460481D01*
X177944620Y19263270D01*
X177945379Y20132517D01*
X177613433Y20935886D01*
X176999319Y21551073D01*
X176196530Y21884420D01*
X175327283Y21885179D01*
X174523914Y21553233D01*
X173908727Y20939119D01*
X173575380Y20136330D01*
X173574621Y19267083D01*
X157944623Y19267083D01*
X157945379Y20132517D01*
X157613433Y20935886D01*
X156999319Y21551073D01*
X156196530Y21884420D01*
X155327283Y21885179D01*
X154523914Y21553233D01*
X153908727Y20939119D01*
X153575380Y20136330D01*
X153574621Y19267083D01*
X137944623Y19267083D01*
X137945379Y20132517D01*
X137613433Y20935886D01*
X136999319Y21551073D01*
X136196530Y21884420D01*
X135327283Y21885179D01*
X134523914Y21553233D01*
X133908727Y20939119D01*
X133575380Y20136330D01*
X133574621Y19267083D01*
X117944623Y19267083D01*
X117945379Y20132517D01*
X117613433Y20935886D01*
X116999319Y21551073D01*
X116196530Y21884420D01*
X115327283Y21885179D01*
X114523914Y21553233D01*
X113908727Y20939119D01*
X113575380Y20136330D01*
X113574621Y19267083D01*
X97944623Y19267083D01*
X97945379Y20132517D01*
X97613433Y20935886D01*
X96999319Y21551073D01*
X96196530Y21884420D01*
X95857518Y21884716D01*
X95931803Y21959001D01*
X107347367Y21959001D01*
X107314850Y21880691D01*
X107314352Y21309813D01*
X107532357Y20782200D01*
X107935677Y20378176D01*
X108462909Y20159250D01*
X109033787Y20158752D01*
X109561400Y20376757D01*
X109965424Y20780077D01*
X110184350Y21307309D01*
X110184848Y21878187D01*
X110151456Y21959001D01*
X127347367Y21959001D01*
X127314850Y21880691D01*
X127314352Y21309813D01*
X127532357Y20782200D01*
X127935677Y20378176D01*
X128462909Y20159250D01*
X129033787Y20158752D01*
X129561400Y20376757D01*
X129965424Y20780077D01*
X130184350Y21307309D01*
X130184848Y21878187D01*
X129966843Y22405800D01*
X129563523Y22809824D01*
X129481669Y22843813D01*
X129561400Y22876757D01*
X129965424Y23280077D01*
X130184350Y23807309D01*
X130184848Y24378187D01*
X130151456Y24459001D01*
X147309797Y24459001D01*
X147336344Y24432454D01*
X147314850Y24380691D01*
X147314352Y23809813D01*
X147532357Y23282200D01*
X147935677Y22878176D01*
X148017531Y22844187D01*
X147937800Y22811243D01*
X147533776Y22407923D01*
X147314850Y21880691D01*
X147314352Y21309813D01*
X147532357Y20782200D01*
X147935677Y20378176D01*
X148462909Y20159250D01*
X149033787Y20158752D01*
X149561400Y20376757D01*
X149965424Y20780077D01*
X150184350Y21307309D01*
X150184848Y21878187D01*
X149966843Y22405800D01*
X149563523Y22809824D01*
X149481669Y22843813D01*
X149561400Y22876757D01*
X149965424Y23280077D01*
X150184350Y23807309D01*
X150184352Y23809813D01*
X167314352Y23809813D01*
X167532357Y23282200D01*
X167935677Y22878176D01*
X168017531Y22844187D01*
X167937800Y22811243D01*
X167533776Y22407923D01*
X167314850Y21880691D01*
X167314352Y21309813D01*
X167532357Y20782200D01*
X167935677Y20378176D01*
X168462909Y20159250D01*
X169033787Y20158752D01*
X169561400Y20376757D01*
X169965424Y20780077D01*
X170184350Y21307309D01*
X170184848Y21878187D01*
X169966843Y22405800D01*
X169563523Y22809824D01*
X169481669Y22843813D01*
X169561400Y22876757D01*
X169965424Y23280077D01*
X170184350Y23807309D01*
X170184848Y24378187D01*
X169966843Y24905800D01*
X169563523Y25309824D01*
X169497056Y25337423D01*
X169503605Y25340136D01*
X169577739Y25586255D01*
X168749600Y26414395D01*
X167921461Y25586255D01*
X167995595Y25340136D01*
X168002083Y25337804D01*
X167937800Y25311243D01*
X167533776Y24907923D01*
X167314850Y24380691D01*
X167314352Y23809813D01*
X150184352Y23809813D01*
X150184848Y24378187D01*
X149966843Y24905800D01*
X149563523Y25309824D01*
X149497056Y25337423D01*
X149503605Y25340136D01*
X149577739Y25586255D01*
X148749600Y26414395D01*
X148735458Y26400252D01*
X148555853Y26579858D01*
X148569995Y26594000D01*
X148929205Y26594000D01*
X149757345Y25765861D01*
X150003464Y25839995D01*
X150196565Y26377223D01*
X150169378Y26947454D01*
X150003464Y27348005D01*
X149757345Y27422139D01*
X148929205Y26594000D01*
X148569995Y26594000D01*
X147741855Y27422139D01*
X147495736Y27348005D01*
X147302635Y26810777D01*
X147329822Y26240546D01*
X147438158Y25979001D01*
X130053428Y25979001D01*
X130196565Y26377223D01*
X130169378Y26947454D01*
X130003464Y27348005D01*
X129757345Y27422139D01*
X128929205Y26594000D01*
X128943348Y26579858D01*
X128763742Y26400252D01*
X128749600Y26414395D01*
X128735458Y26400252D01*
X128555852Y26579858D01*
X128569995Y26594000D01*
X127741855Y27422139D01*
X127495736Y27348005D01*
X127302635Y26810777D01*
X127329822Y26240546D01*
X127438158Y25979001D01*
X110053428Y25979001D01*
X110196565Y26377223D01*
X110169378Y26947454D01*
X110003464Y27348005D01*
X109757345Y27422139D01*
X108929205Y26594000D01*
X108943348Y26579858D01*
X108763742Y26400252D01*
X108749600Y26414395D01*
X108735458Y26400252D01*
X108555852Y26579858D01*
X108569995Y26594000D01*
X107741855Y27422139D01*
X107495736Y27348005D01*
X107302635Y26810777D01*
X107329822Y26240546D01*
X107438158Y25979001D01*
X90053428Y25979001D01*
X90196565Y26377223D01*
X90169378Y26947454D01*
X90003464Y27348005D01*
X89757345Y27422139D01*
X88929205Y26594000D01*
X88943348Y26579858D01*
X88763742Y26400252D01*
X88749600Y26414395D01*
X88735458Y26400252D01*
X88555852Y26579858D01*
X88569995Y26594000D01*
X87741855Y27422139D01*
X87495736Y27348005D01*
X87302635Y26810777D01*
X87329822Y26240546D01*
X87438158Y25979001D01*
X70053428Y25979001D01*
X70196565Y26377223D01*
X70169378Y26947454D01*
X70003464Y27348005D01*
X69757345Y27422139D01*
X68929205Y26594000D01*
X68943348Y26579858D01*
X68763742Y26400252D01*
X68749600Y26414395D01*
X68735458Y26400252D01*
X68555852Y26579858D01*
X68569995Y26594000D01*
X67741855Y27422139D01*
X67495736Y27348005D01*
X67302635Y26810777D01*
X67329822Y26240546D01*
X67438158Y25979001D01*
X50053428Y25979001D01*
X50196565Y26377223D01*
X50169378Y26947454D01*
X50003464Y27348005D01*
X49757345Y27422139D01*
X48929205Y26594000D01*
X48943348Y26579858D01*
X48763742Y26400252D01*
X48749600Y26414395D01*
X48735458Y26400252D01*
X48555852Y26579858D01*
X48569995Y26594000D01*
X47741855Y27422139D01*
X47495736Y27348005D01*
X47302635Y26810777D01*
X47329822Y26240546D01*
X47438158Y25979001D01*
X32104403Y25979001D01*
X30027921Y28055483D01*
X33574621Y28055483D01*
X33906567Y27252114D01*
X34520681Y26636927D01*
X35323470Y26303580D01*
X36192717Y26302821D01*
X36996086Y26634767D01*
X37611273Y27248881D01*
X37757794Y27601745D01*
X47921461Y27601745D01*
X48749600Y26773605D01*
X49577739Y27601745D01*
X49503605Y27847864D01*
X48966377Y28040965D01*
X48396146Y28013778D01*
X47995595Y27847864D01*
X47921461Y27601745D01*
X37757794Y27601745D01*
X37944620Y28051670D01*
X37944623Y28055483D01*
X53574621Y28055483D01*
X53906567Y27252114D01*
X54520681Y26636927D01*
X55323470Y26303580D01*
X56192717Y26302821D01*
X56996086Y26634767D01*
X57611273Y27248881D01*
X57757794Y27601745D01*
X67921461Y27601745D01*
X68749600Y26773605D01*
X69577739Y27601745D01*
X69503605Y27847864D01*
X68966377Y28040965D01*
X68396146Y28013778D01*
X67995595Y27847864D01*
X67921461Y27601745D01*
X57757794Y27601745D01*
X57944620Y28051670D01*
X57944623Y28055483D01*
X73574621Y28055483D01*
X73906567Y27252114D01*
X74520681Y26636927D01*
X75323470Y26303580D01*
X76192717Y26302821D01*
X76996086Y26634767D01*
X77611273Y27248881D01*
X77757794Y27601745D01*
X87921461Y27601745D01*
X88749600Y26773605D01*
X89577739Y27601745D01*
X89503605Y27847864D01*
X88966377Y28040965D01*
X88396146Y28013778D01*
X87995595Y27847864D01*
X87921461Y27601745D01*
X77757794Y27601745D01*
X77944620Y28051670D01*
X77944623Y28055483D01*
X93574621Y28055483D01*
X93906567Y27252114D01*
X94520681Y26636927D01*
X95323470Y26303580D01*
X96192717Y26302821D01*
X96996086Y26634767D01*
X97611273Y27248881D01*
X97757794Y27601745D01*
X107921461Y27601745D01*
X108749600Y26773605D01*
X109577739Y27601745D01*
X109503605Y27847864D01*
X108966377Y28040965D01*
X108396146Y28013778D01*
X107995595Y27847864D01*
X107921461Y27601745D01*
X97757794Y27601745D01*
X97944620Y28051670D01*
X97944623Y28055483D01*
X113574621Y28055483D01*
X113906567Y27252114D01*
X114520681Y26636927D01*
X115323470Y26303580D01*
X116192717Y26302821D01*
X116996086Y26634767D01*
X117611273Y27248881D01*
X117757794Y27601745D01*
X127921461Y27601745D01*
X128749600Y26773605D01*
X129577739Y27601745D01*
X129503605Y27847864D01*
X128966377Y28040965D01*
X128396146Y28013778D01*
X127995595Y27847864D01*
X127921461Y27601745D01*
X117757794Y27601745D01*
X117944620Y28051670D01*
X117944623Y28055483D01*
X133574621Y28055483D01*
X133906567Y27252114D01*
X134520681Y26636927D01*
X135323470Y26303580D01*
X136192717Y26302821D01*
X136996086Y26634767D01*
X137611273Y27248881D01*
X137757794Y27601745D01*
X147921461Y27601745D01*
X148749600Y26773605D01*
X149577739Y27601745D01*
X149503605Y27847864D01*
X148966377Y28040965D01*
X148396146Y28013778D01*
X147995595Y27847864D01*
X147921461Y27601745D01*
X137757794Y27601745D01*
X137944620Y28051670D01*
X137944623Y28055483D01*
X153574621Y28055483D01*
X153906567Y27252114D01*
X154520681Y26636927D01*
X155323470Y26303580D01*
X156192717Y26302821D01*
X156996086Y26634767D01*
X157172403Y26810777D01*
X167302635Y26810777D01*
X167329822Y26240546D01*
X167495736Y25839995D01*
X167741855Y25765861D01*
X168569995Y26594000D01*
X168929205Y26594000D01*
X169757345Y25765861D01*
X170003464Y25839995D01*
X170196565Y26377223D01*
X170169378Y26947454D01*
X170003464Y27348005D01*
X169757345Y27422139D01*
X168929205Y26594000D01*
X168569995Y26594000D01*
X167741855Y27422139D01*
X167495736Y27348005D01*
X167302635Y26810777D01*
X157172403Y26810777D01*
X157611273Y27248881D01*
X157757794Y27601745D01*
X167921461Y27601745D01*
X168749600Y26773605D01*
X169577739Y27601745D01*
X169503605Y27847864D01*
X168966377Y28040965D01*
X168396146Y28013778D01*
X167995595Y27847864D01*
X167921461Y27601745D01*
X157757794Y27601745D01*
X157944620Y28051670D01*
X157944623Y28055483D01*
X173574621Y28055483D01*
X173906567Y27252114D01*
X174520681Y26636927D01*
X175323470Y26303580D01*
X176192717Y26302821D01*
X176996086Y26634767D01*
X177611273Y27248881D01*
X177944620Y28051670D01*
X177945379Y28920917D01*
X177613433Y29724286D01*
X176999319Y30339473D01*
X176196530Y30672820D01*
X175327283Y30673579D01*
X174523914Y30341633D01*
X173908727Y29727519D01*
X173575380Y28924730D01*
X173574621Y28055483D01*
X157944623Y28055483D01*
X157945379Y28920917D01*
X157613433Y29724286D01*
X156999319Y30339473D01*
X156196530Y30672820D01*
X155327283Y30673579D01*
X154523914Y30341633D01*
X153908727Y29727519D01*
X153575380Y28924730D01*
X153574621Y28055483D01*
X137944623Y28055483D01*
X137945379Y28920917D01*
X137613433Y29724286D01*
X136999319Y30339473D01*
X136196530Y30672820D01*
X135327283Y30673579D01*
X134523914Y30341633D01*
X133908727Y29727519D01*
X133575380Y28924730D01*
X133574621Y28055483D01*
X117944623Y28055483D01*
X117945379Y28920917D01*
X117613433Y29724286D01*
X116999319Y30339473D01*
X116196530Y30672820D01*
X115327283Y30673579D01*
X114523914Y30341633D01*
X113908727Y29727519D01*
X113575380Y28924730D01*
X113574621Y28055483D01*
X97944623Y28055483D01*
X97945379Y28920917D01*
X97613433Y29724286D01*
X96999319Y30339473D01*
X96196530Y30672820D01*
X95327283Y30673579D01*
X94523914Y30341633D01*
X93908727Y29727519D01*
X93575380Y28924730D01*
X93574621Y28055483D01*
X77944623Y28055483D01*
X77945379Y28920917D01*
X77613433Y29724286D01*
X76999319Y30339473D01*
X76196530Y30672820D01*
X75327283Y30673579D01*
X74523914Y30341633D01*
X73908727Y29727519D01*
X73575380Y28924730D01*
X73574621Y28055483D01*
X57944623Y28055483D01*
X57945379Y28920917D01*
X57613433Y29724286D01*
X56999319Y30339473D01*
X56196530Y30672820D01*
X55327283Y30673579D01*
X54523914Y30341633D01*
X53908727Y29727519D01*
X53575380Y28924730D01*
X53574621Y28055483D01*
X37944623Y28055483D01*
X37945379Y28920917D01*
X37613433Y29724286D01*
X36999319Y30339473D01*
X36196530Y30672820D01*
X35327283Y30673579D01*
X34523914Y30341633D01*
X33908727Y29727519D01*
X33575380Y28924730D01*
X33574621Y28055483D01*
X30027921Y28055483D01*
X29827002Y28256402D01*
X29580440Y28421149D01*
X29289601Y28479001D01*
X28209599Y28479001D01*
X27918760Y28421149D01*
X27672198Y28256402D01*
X25394797Y25979001D01*
X21659491Y25979001D01*
X21659644Y26154157D01*
X21517599Y26497933D01*
X21484482Y26531108D01*
X21484482Y26768118D01*
X21426630Y27058957D01*
X21426630Y27058958D01*
X21261883Y27305519D01*
X19757440Y28809962D01*
X19757440Y28982600D01*
X19713162Y29217917D01*
X19574090Y29434041D01*
X19361890Y29579031D01*
X19110000Y29630040D01*
X17610000Y29630040D01*
X17374683Y29585762D01*
X17158559Y29446690D01*
X17013569Y29234490D01*
X16962560Y28982600D01*
X16962560Y28382600D01*
X17006838Y28147283D01*
X17070678Y28048072D01*
X17013569Y27964490D01*
X16962560Y27712600D01*
X16962560Y27112600D01*
X17006838Y26877283D01*
X17070678Y26778072D01*
X17013569Y26694490D01*
X16962560Y26442600D01*
X16962560Y26269962D01*
X15914610Y25222012D01*
X15790754Y25036648D01*
X14557440Y26269962D01*
X14557440Y26442600D01*
X14513162Y26677917D01*
X14449322Y26777128D01*
X14506431Y26860710D01*
X14557440Y27112600D01*
X14557440Y27712600D01*
X14513162Y27947917D01*
X14454821Y28038581D01*
X14545000Y28256291D01*
X14545000Y28396850D01*
X14386250Y28555600D01*
X13287000Y28555600D01*
X13287000Y28535600D01*
X13033000Y28535600D01*
X13033000Y28555600D01*
X11933750Y28555600D01*
X11775000Y28396850D01*
X11775000Y28256291D01*
X11791109Y28217400D01*
X11340462Y28217400D01*
X11304192Y28305180D01*
X10882997Y28727110D01*
X10882069Y28727495D01*
X11264148Y29108909D01*
X11775000Y29108909D01*
X11775000Y28968350D01*
X11933750Y28809600D01*
X13033000Y28809600D01*
X13033000Y29458850D01*
X13287000Y29458850D01*
X13287000Y28809600D01*
X14386250Y28809600D01*
X14545000Y28968350D01*
X14545000Y29108909D01*
X14448327Y29342298D01*
X14269699Y29520927D01*
X14036310Y29617600D01*
X13445750Y29617600D01*
X13287000Y29458850D01*
X13033000Y29458850D01*
X12874250Y29617600D01*
X12283690Y29617600D01*
X12050301Y29520927D01*
X11871673Y29342298D01*
X11775000Y29108909D01*
X11264148Y29108909D01*
X11302710Y29147403D01*
X11531339Y29698002D01*
X11531859Y30294182D01*
X11321827Y30802500D01*
X22490980Y30802500D01*
X22194001Y30506039D01*
G36*
X12585000Y2159000D02*
X12605000Y2159000D01*
X12605000Y1905000D01*
X12585000Y1905000D01*
X12585000Y1885000D01*
X12331000Y1885000D01*
X12331000Y1905000D01*
X12311000Y1905000D01*
X12311000Y2159000D01*
X12331000Y2159000D01*
X12331000Y2179000D01*
X12585000Y2179000D01*
X12585000Y2159000D01*
X12585000Y2159000D01*
G37*
X12585000Y2159000D02*
X12605000Y2159000D01*
X12605000Y1905000D01*
X12585000Y1905000D01*
X12585000Y1885000D01*
X12331000Y1885000D01*
X12331000Y1905000D01*
X12311000Y1905000D01*
X12311000Y2159000D01*
X12331000Y2159000D01*
X12331000Y2179000D01*
X12585000Y2179000D01*
X12585000Y2159000D01*
G36*
X17158559Y13240490D02*
X17013569Y13028290D01*
X16962560Y12776400D01*
X16962560Y12176400D01*
X17006838Y11941083D01*
X17070678Y11841872D01*
X17013569Y11758290D01*
X16962560Y11506400D01*
X16962560Y10906400D01*
X17006838Y10671083D01*
X17070678Y10571872D01*
X17013569Y10488290D01*
X16962560Y10236400D01*
X16962560Y9636400D01*
X17006838Y9401083D01*
X17070678Y9301872D01*
X17013569Y9218290D01*
X16962560Y8966400D01*
X16962560Y8366400D01*
X17006838Y8131083D01*
X17070678Y8031872D01*
X17013569Y7948290D01*
X16962560Y7696400D01*
X16962560Y7096400D01*
X17006838Y6861083D01*
X17070678Y6761872D01*
X17013569Y6678290D01*
X16962560Y6426400D01*
X16962560Y5826400D01*
X17006838Y5591083D01*
X17070678Y5491872D01*
X17013569Y5408290D01*
X16962560Y5156400D01*
X16962560Y4556400D01*
X17006838Y4321083D01*
X17070678Y4221872D01*
X17013569Y4138290D01*
X16962560Y3886400D01*
X16962560Y3286400D01*
X16991337Y3133465D01*
X14731001Y5393801D01*
X14485952Y5557537D01*
X14545000Y5700091D01*
X14545000Y5840650D01*
X14386250Y5999400D01*
X13287000Y5999400D01*
X13287000Y5979400D01*
X13033000Y5979400D01*
X13033000Y5999400D01*
X11933750Y5999400D01*
X11775000Y5840650D01*
X11775000Y5700091D01*
X11864807Y5483279D01*
X11813569Y5408290D01*
X11762560Y5156400D01*
X11762560Y4556400D01*
X11806838Y4321083D01*
X11870678Y4221872D01*
X11813569Y4138290D01*
X11762560Y3886400D01*
X11762560Y3286400D01*
X11806838Y3051083D01*
X11837728Y3003079D01*
X11698302Y2945327D01*
X11519673Y2766699D01*
X11440444Y2575424D01*
X11304192Y2905180D01*
X10882997Y3327110D01*
X10882069Y3327495D01*
X11302710Y3747403D01*
X11531339Y4298002D01*
X11531859Y4894182D01*
X11304192Y5445180D01*
X10882997Y5867110D01*
X10882069Y5867495D01*
X11302710Y6287403D01*
X11531339Y6838002D01*
X11531859Y7434182D01*
X11304192Y7985180D01*
X10882997Y8407110D01*
X10882069Y8407495D01*
X11302710Y8827403D01*
X11531339Y9378002D01*
X11531859Y9974182D01*
X11410126Y10268799D01*
X11769121Y10268799D01*
X11762560Y10236400D01*
X11762560Y9636400D01*
X11806838Y9401083D01*
X11870678Y9301872D01*
X11813569Y9218290D01*
X11762560Y8966400D01*
X11762560Y8366400D01*
X11806838Y8131083D01*
X11870678Y8031872D01*
X11813569Y7948290D01*
X11762560Y7696400D01*
X11762560Y7096400D01*
X11806838Y6861083D01*
X11865179Y6770419D01*
X11775000Y6552709D01*
X11775000Y6412150D01*
X11933750Y6253400D01*
X13033000Y6253400D01*
X13033000Y6273400D01*
X13287000Y6273400D01*
X13287000Y6253400D01*
X14386250Y6253400D01*
X14545000Y6412150D01*
X14545000Y6552709D01*
X14455193Y6769521D01*
X14506431Y6844510D01*
X14557440Y7096400D01*
X14557440Y7269038D01*
X16402407Y9114005D01*
X16567154Y9360567D01*
X16625006Y9651406D01*
X16625006Y13101200D01*
X16818317Y13294511D01*
X16831199Y13289162D01*
X17203165Y13288838D01*
X17288469Y13324085D01*
X17158559Y13240490D01*
X17158559Y13240490D01*
G37*
X17158559Y13240490D02*
X17013569Y13028290D01*
X16962560Y12776400D01*
X16962560Y12176400D01*
X17006838Y11941083D01*
X17070678Y11841872D01*
X17013569Y11758290D01*
X16962560Y11506400D01*
X16962560Y10906400D01*
X17006838Y10671083D01*
X17070678Y10571872D01*
X17013569Y10488290D01*
X16962560Y10236400D01*
X16962560Y9636400D01*
X17006838Y9401083D01*
X17070678Y9301872D01*
X17013569Y9218290D01*
X16962560Y8966400D01*
X16962560Y8366400D01*
X17006838Y8131083D01*
X17070678Y8031872D01*
X17013569Y7948290D01*
X16962560Y7696400D01*
X16962560Y7096400D01*
X17006838Y6861083D01*
X17070678Y6761872D01*
X17013569Y6678290D01*
X16962560Y6426400D01*
X16962560Y5826400D01*
X17006838Y5591083D01*
X17070678Y5491872D01*
X17013569Y5408290D01*
X16962560Y5156400D01*
X16962560Y4556400D01*
X17006838Y4321083D01*
X17070678Y4221872D01*
X17013569Y4138290D01*
X16962560Y3886400D01*
X16962560Y3286400D01*
X16991337Y3133465D01*
X14731001Y5393801D01*
X14485952Y5557537D01*
X14545000Y5700091D01*
X14545000Y5840650D01*
X14386250Y5999400D01*
X13287000Y5999400D01*
X13287000Y5979400D01*
X13033000Y5979400D01*
X13033000Y5999400D01*
X11933750Y5999400D01*
X11775000Y5840650D01*
X11775000Y5700091D01*
X11864807Y5483279D01*
X11813569Y5408290D01*
X11762560Y5156400D01*
X11762560Y4556400D01*
X11806838Y4321083D01*
X11870678Y4221872D01*
X11813569Y4138290D01*
X11762560Y3886400D01*
X11762560Y3286400D01*
X11806838Y3051083D01*
X11837728Y3003079D01*
X11698302Y2945327D01*
X11519673Y2766699D01*
X11440444Y2575424D01*
X11304192Y2905180D01*
X10882997Y3327110D01*
X10882069Y3327495D01*
X11302710Y3747403D01*
X11531339Y4298002D01*
X11531859Y4894182D01*
X11304192Y5445180D01*
X10882997Y5867110D01*
X10882069Y5867495D01*
X11302710Y6287403D01*
X11531339Y6838002D01*
X11531859Y7434182D01*
X11304192Y7985180D01*
X10882997Y8407110D01*
X10882069Y8407495D01*
X11302710Y8827403D01*
X11531339Y9378002D01*
X11531859Y9974182D01*
X11410126Y10268799D01*
X11769121Y10268799D01*
X11762560Y10236400D01*
X11762560Y9636400D01*
X11806838Y9401083D01*
X11870678Y9301872D01*
X11813569Y9218290D01*
X11762560Y8966400D01*
X11762560Y8366400D01*
X11806838Y8131083D01*
X11870678Y8031872D01*
X11813569Y7948290D01*
X11762560Y7696400D01*
X11762560Y7096400D01*
X11806838Y6861083D01*
X11865179Y6770419D01*
X11775000Y6552709D01*
X11775000Y6412150D01*
X11933750Y6253400D01*
X13033000Y6253400D01*
X13033000Y6273400D01*
X13287000Y6273400D01*
X13287000Y6253400D01*
X14386250Y6253400D01*
X14545000Y6412150D01*
X14545000Y6552709D01*
X14455193Y6769521D01*
X14506431Y6844510D01*
X14557440Y7096400D01*
X14557440Y7269038D01*
X16402407Y9114005D01*
X16567154Y9360567D01*
X16625006Y9651406D01*
X16625006Y13101200D01*
X16818317Y13294511D01*
X16831199Y13289162D01*
X17203165Y13288838D01*
X17288469Y13324085D01*
X17158559Y13240490D01*
G36*
X12158110Y18896169D02*
X12410000Y18845160D01*
X13210000Y18845160D01*
X13210000Y18701486D01*
X12996309Y18790000D01*
X12755750Y18790000D01*
X12597000Y18631250D01*
X12597000Y17907000D01*
X12617000Y17907000D01*
X12617000Y17653000D01*
X12597000Y17653000D01*
X12597000Y16928750D01*
X12755750Y16770000D01*
X12996309Y16770000D01*
X13210000Y16858514D01*
X13210000Y16233060D01*
X12416599Y15439659D01*
X12251852Y15193097D01*
X12228301Y15074698D01*
X12161808Y15008321D01*
X12019162Y14664793D01*
X12018838Y14292827D01*
X12160883Y13949051D01*
X12423673Y13685802D01*
X12767201Y13543156D01*
X13139167Y13542832D01*
X13482943Y13684877D01*
X13746192Y13947667D01*
X13763999Y13990551D01*
X13763999Y13411400D01*
X13445750Y13411400D01*
X13287000Y13252650D01*
X13287000Y12603400D01*
X13307000Y12603400D01*
X13307000Y12349400D01*
X13287000Y12349400D01*
X13287000Y12329400D01*
X13033000Y12329400D01*
X13033000Y12349400D01*
X11933750Y12349400D01*
X11775000Y12190650D01*
X11775000Y12050091D01*
X11841331Y11889953D01*
X11689943Y11788799D01*
X11477689Y11788799D01*
X11531339Y11918002D01*
X11531859Y12514182D01*
X11371324Y12902709D01*
X11775000Y12902709D01*
X11775000Y12762150D01*
X11933750Y12603400D01*
X13033000Y12603400D01*
X13033000Y13252650D01*
X12874250Y13411400D01*
X12283690Y13411400D01*
X12050301Y13314727D01*
X11871673Y13136098D01*
X11775000Y12902709D01*
X11371324Y12902709D01*
X11304192Y13065180D01*
X10882997Y13487110D01*
X10842463Y13503941D01*
X10907200Y13703595D01*
X10033000Y14577795D01*
X9158800Y13703595D01*
X9223399Y13504367D01*
X9185220Y13488592D01*
X8763290Y13067397D01*
X8762905Y13066469D01*
X8342997Y13487110D01*
X8302463Y13503941D01*
X8367200Y13703595D01*
X7493000Y14577795D01*
X7478858Y14563653D01*
X7299253Y14743258D01*
X7313395Y14757400D01*
X7672605Y14757400D01*
X8546805Y13883200D01*
X8763000Y13953301D01*
X8979195Y13883200D01*
X9853395Y14757400D01*
X10212605Y14757400D01*
X11086805Y13883200D01*
X11339516Y13965141D01*
X11543248Y14525430D01*
X11517058Y15121035D01*
X11339516Y15549659D01*
X11086805Y15631600D01*
X10212605Y14757400D01*
X9853395Y14757400D01*
X8979195Y15631600D01*
X8763000Y15561499D01*
X8546805Y15631600D01*
X7672605Y14757400D01*
X7313395Y14757400D01*
X7299253Y14771543D01*
X7478858Y14951148D01*
X7493000Y14937005D01*
X8367200Y15811205D01*
X8302601Y16010433D01*
X8340780Y16026208D01*
X8762710Y16447403D01*
X8763095Y16448331D01*
X9183003Y16027690D01*
X9223537Y16010859D01*
X9158800Y15811205D01*
X10033000Y14937005D01*
X10907200Y15811205D01*
X10842601Y16010433D01*
X10880780Y16026208D01*
X11302710Y16447403D01*
X11531339Y16998002D01*
X11531381Y17046006D01*
X11531673Y17045301D01*
X11710302Y16866673D01*
X11943691Y16770000D01*
X12184250Y16770000D01*
X12343000Y16928750D01*
X12343000Y17653000D01*
X12323000Y17653000D01*
X12323000Y17907000D01*
X12343000Y17907000D01*
X12343000Y18631250D01*
X12184250Y18790000D01*
X12054988Y18790000D01*
X12054988Y18966629D01*
X12158110Y18896169D01*
X12158110Y18896169D01*
G37*
X12158110Y18896169D02*
X12410000Y18845160D01*
X13210000Y18845160D01*
X13210000Y18701486D01*
X12996309Y18790000D01*
X12755750Y18790000D01*
X12597000Y18631250D01*
X12597000Y17907000D01*
X12617000Y17907000D01*
X12617000Y17653000D01*
X12597000Y17653000D01*
X12597000Y16928750D01*
X12755750Y16770000D01*
X12996309Y16770000D01*
X13210000Y16858514D01*
X13210000Y16233060D01*
X12416599Y15439659D01*
X12251852Y15193097D01*
X12228301Y15074698D01*
X12161808Y15008321D01*
X12019162Y14664793D01*
X12018838Y14292827D01*
X12160883Y13949051D01*
X12423673Y13685802D01*
X12767201Y13543156D01*
X13139167Y13542832D01*
X13482943Y13684877D01*
X13746192Y13947667D01*
X13763999Y13990551D01*
X13763999Y13411400D01*
X13445750Y13411400D01*
X13287000Y13252650D01*
X13287000Y12603400D01*
X13307000Y12603400D01*
X13307000Y12349400D01*
X13287000Y12349400D01*
X13287000Y12329400D01*
X13033000Y12329400D01*
X13033000Y12349400D01*
X11933750Y12349400D01*
X11775000Y12190650D01*
X11775000Y12050091D01*
X11841331Y11889953D01*
X11689943Y11788799D01*
X11477689Y11788799D01*
X11531339Y11918002D01*
X11531859Y12514182D01*
X11371324Y12902709D01*
X11775000Y12902709D01*
X11775000Y12762150D01*
X11933750Y12603400D01*
X13033000Y12603400D01*
X13033000Y13252650D01*
X12874250Y13411400D01*
X12283690Y13411400D01*
X12050301Y13314727D01*
X11871673Y13136098D01*
X11775000Y12902709D01*
X11371324Y12902709D01*
X11304192Y13065180D01*
X10882997Y13487110D01*
X10842463Y13503941D01*
X10907200Y13703595D01*
X10033000Y14577795D01*
X9158800Y13703595D01*
X9223399Y13504367D01*
X9185220Y13488592D01*
X8763290Y13067397D01*
X8762905Y13066469D01*
X8342997Y13487110D01*
X8302463Y13503941D01*
X8367200Y13703595D01*
X7493000Y14577795D01*
X7478858Y14563653D01*
X7299253Y14743258D01*
X7313395Y14757400D01*
X7672605Y14757400D01*
X8546805Y13883200D01*
X8763000Y13953301D01*
X8979195Y13883200D01*
X9853395Y14757400D01*
X10212605Y14757400D01*
X11086805Y13883200D01*
X11339516Y13965141D01*
X11543248Y14525430D01*
X11517058Y15121035D01*
X11339516Y15549659D01*
X11086805Y15631600D01*
X10212605Y14757400D01*
X9853395Y14757400D01*
X8979195Y15631600D01*
X8763000Y15561499D01*
X8546805Y15631600D01*
X7672605Y14757400D01*
X7313395Y14757400D01*
X7299253Y14771543D01*
X7478858Y14951148D01*
X7493000Y14937005D01*
X8367200Y15811205D01*
X8302601Y16010433D01*
X8340780Y16026208D01*
X8762710Y16447403D01*
X8763095Y16448331D01*
X9183003Y16027690D01*
X9223537Y16010859D01*
X9158800Y15811205D01*
X10033000Y14937005D01*
X10907200Y15811205D01*
X10842601Y16010433D01*
X10880780Y16026208D01*
X11302710Y16447403D01*
X11531339Y16998002D01*
X11531381Y17046006D01*
X11531673Y17045301D01*
X11710302Y16866673D01*
X11943691Y16770000D01*
X12184250Y16770000D01*
X12343000Y16928750D01*
X12343000Y17653000D01*
X12323000Y17653000D01*
X12323000Y17907000D01*
X12343000Y17907000D01*
X12343000Y18631250D01*
X12184250Y18790000D01*
X12054988Y18790000D01*
X12054988Y18966629D01*
X12158110Y18896169D01*
G36*
X13287000Y22459600D02*
X13307000Y22459600D01*
X13307000Y22205600D01*
X13287000Y22205600D01*
X13287000Y22185600D01*
X13033000Y22185600D01*
X13033000Y22205600D01*
X13013000Y22205600D01*
X13013000Y22459600D01*
X13033000Y22459600D01*
X13033000Y22479600D01*
X13287000Y22479600D01*
X13287000Y22459600D01*
X13287000Y22459600D01*
G37*
X13287000Y22459600D02*
X13307000Y22459600D01*
X13307000Y22205600D01*
X13287000Y22205600D01*
X13287000Y22185600D01*
X13033000Y22185600D01*
X13033000Y22205600D01*
X13013000Y22205600D01*
X13013000Y22459600D01*
X13033000Y22459600D01*
X13033000Y22479600D01*
X13287000Y22479600D01*
X13287000Y22459600D01*
G36*
X28943348Y26608142D02*
X28929205Y26594000D01*
X28943348Y26579858D01*
X28763742Y26400252D01*
X28749600Y26414395D01*
X28735458Y26400252D01*
X28555852Y26579858D01*
X28569995Y26594000D01*
X28555852Y26608142D01*
X28735458Y26787748D01*
X28749600Y26773605D01*
X28763743Y26787748D01*
X28943348Y26608142D01*
X28943348Y26608142D01*
G37*
X28943348Y26608142D02*
X28929205Y26594000D01*
X28943348Y26579858D01*
X28763742Y26400252D01*
X28749600Y26414395D01*
X28735458Y26400252D01*
X28555852Y26579858D01*
X28569995Y26594000D01*
X28555852Y26608142D01*
X28735458Y26787748D01*
X28749600Y26773605D01*
X28763743Y26787748D01*
X28943348Y26608142D01*
M02*
