M48
METRIC,TZ
T1C0.400
T2C0.508
T3C1.016
%
G90
G05
T1
X181200Y1069
X187479Y12261
T2
X30646Y7036
X33401Y9832
X33440Y2136
X33448Y7515
X43300Y10153
X43346Y2136
X53252Y2136
X53300Y10153
X63300Y10153
X63412Y2136
X73300Y10153
X73318Y2136
X83224Y2136
X83300Y10153
X93300Y10153
X93384Y2136
X103290Y2136
X103300Y10153
X113300Y10153
X113450Y2136
X123300Y10153
X123356Y2136
X133262Y2136
X133300Y10153
X143168Y2136
X143300Y10153
X153300Y10153
X153335Y2081
X163234Y2136
X163300Y10153
X173300Y10153
X173394Y2136
X180230Y7620
X183300Y10153
X183300Y2136
T3
X8080Y12769
X8080Y10229
X8080Y7689
X8080Y5149
X8080Y2609
X10620Y12769
X10620Y10229
X10620Y7689
X10620Y5149
X10620Y2609
X13160Y7689
X13160Y2609
X24590Y14039
X24590Y11499
X24590Y8959
X24590Y6419
X24590Y3879
X24590Y1339
X27130Y14039
X27130Y11499
X27130Y8959
X27130Y6419
X27130Y3879
X27130Y1339
X188468Y8850
X188468Y6310
T0
M30
