<?xml version="1.0" encoding="utf-8"?>
<!-- Generator: Adobe Illustrator 15.0.0, SVG Export Plug-In . SVG Version: 6.00 Build 0)  -->
<!DOCTYPE svg PUBLIC "-//W3C//DTD SVG 1.1//EN" "http://www.w3.org/Graphics/SVG/1.1/DTD/svg11.dtd">
<svg version="1.1" id="Layer_1" xmlns="http://www.w3.org/2000/svg" xmlns:xlink="http://www.w3.org/1999/xlink" x="0px" y="0px"
	 width="1191px" height="842px" viewBox="0 0 1191 842" enable-background="new 0 0 1191 842" xml:space="preserve">
<path fill="none" stroke="#000000" stroke-width="1.44" stroke-linecap="round" stroke-linejoin="round" stroke-miterlimit="10" d="
	M330.38,184.83c0-2.568-2.082-4.65-4.65-4.65s-4.65,2.082-4.65,4.65s2.082,4.65,4.65,4.65S330.38,187.398,330.38,184.83"/>
<path fill="none" stroke="#000000" stroke-width="1.44" stroke-linecap="round" stroke-linejoin="round" stroke-miterlimit="10" d="
	M330.38,213.33c0-2.568-2.082-4.65-4.65-4.65s-4.65,2.082-4.65,4.65s2.082,4.65,4.65,4.65S330.38,215.898,330.38,213.33"/>
<path fill="none" stroke="#000000" stroke-width="1.44" stroke-linecap="round" stroke-linejoin="round" stroke-miterlimit="10" d="
	M330.38,230.37c0-2.568-2.082-4.65-4.65-4.65s-4.65,2.082-4.65,4.65c0,2.568,2.082,4.65,4.65,4.65S330.38,232.938,330.38,230.37"/>
<path fill="none" stroke="#000000" stroke-width="1.44" stroke-linecap="round" stroke-linejoin="round" stroke-miterlimit="10" d="
	M330.38,258.87c0-2.568-2.082-4.65-4.65-4.65s-4.65,2.082-4.65,4.65c0,2.568,2.082,4.65,4.65,4.65S330.38,261.438,330.38,258.87"/>
<path fill="none" stroke="#000000" stroke-width="1.44" stroke-linecap="round" stroke-linejoin="round" stroke-miterlimit="10" d="
	M330.38,349.95c0-2.568-2.082-4.65-4.65-4.65s-4.65,2.082-4.65,4.65c0,2.568,2.082,4.65,4.65,4.65S330.38,352.518,330.38,349.95"/>
<path fill="none" stroke="#000000" stroke-width="1.44" stroke-linecap="round" stroke-linejoin="round" stroke-miterlimit="10" d="
	M330.38,366.93c0-2.568-2.082-4.65-4.65-4.65s-4.65,2.082-4.65,4.65c0,2.568,2.082,4.65,4.65,4.65S330.38,369.498,330.38,366.93"/>
<path fill="none" stroke="#000000" stroke-width="1.44" stroke-linecap="round" stroke-linejoin="round" stroke-miterlimit="10" d="
	M330.38,532.05c0-2.568-2.082-4.649-4.65-4.649s-4.65,2.081-4.65,4.649s2.082,4.65,4.65,4.65S330.38,534.618,330.38,532.05"/>
<path fill="none" stroke="#000000" stroke-width="1.44" stroke-linecap="round" stroke-linejoin="round" stroke-miterlimit="10" d="
	M877.58,349.95c0-2.568-2.082-4.65-4.65-4.65s-4.649,2.082-4.649,4.65c0,2.568,2.081,4.65,4.649,4.65S877.58,352.518,877.58,349.95"
	/>
<path fill="none" stroke="#000000" stroke-width="1.44" stroke-linecap="round" stroke-linejoin="round" stroke-miterlimit="10" d="
	M877.58,230.37c0-2.568-2.082-4.65-4.65-4.65s-4.649,2.082-4.649,4.65c0,2.568,2.081,4.65,4.649,4.65S877.58,232.938,877.58,230.37"
	/>
<path fill="none" stroke="#000000" stroke-width="1.44" stroke-linecap="round" stroke-linejoin="round" stroke-miterlimit="10" d="
	M877.58,275.85c0-2.568-2.082-4.65-4.65-4.65s-4.649,2.082-4.649,4.65c0,2.568,2.081,4.65,4.649,4.65S877.58,278.418,877.58,275.85"
	/>
<path fill="none" stroke="#000000" stroke-width="1.44" stroke-linecap="round" stroke-linejoin="round" stroke-miterlimit="10" d="
	M877.58,366.93c0-2.568-2.082-4.65-4.65-4.65s-4.649,2.082-4.649,4.65c0,2.568,2.081,4.65,4.649,4.65S877.58,369.498,877.58,366.93"
	/>
<path fill="none" stroke="#000000" stroke-width="1.44" stroke-linecap="round" stroke-linejoin="round" stroke-miterlimit="10" d="
	M877.58,213.33c0-2.568-2.082-4.65-4.65-4.65s-4.649,2.082-4.649,4.65s2.081,4.65,4.649,4.65S877.58,215.898,877.58,213.33"/>
<path fill="none" stroke="#000000" stroke-width="1.44" stroke-linecap="round" stroke-linejoin="round" stroke-miterlimit="10" d="
	M877.58,258.87c0-2.568-2.082-4.65-4.65-4.65s-4.649,2.082-4.649,4.65c0,2.568,2.081,4.65,4.649,4.65S877.58,261.438,877.58,258.87"
	/>
<path fill="none" stroke="#000000" stroke-width="1.44" stroke-linecap="round" stroke-linejoin="round" stroke-miterlimit="10" d="
	M877.58,184.83c0-2.568-2.082-4.65-4.65-4.65s-4.649,2.082-4.649,4.65s2.081,4.65,4.649,4.65S877.58,187.398,877.58,184.83"/>
<path fill="none" stroke="#000000" stroke-width="1.44" stroke-linecap="round" stroke-linejoin="round" stroke-miterlimit="10" d="
	M877.58,532.05c0-2.568-2.082-4.649-4.65-4.649s-4.649,2.081-4.649,4.649s2.081,4.65,4.649,4.65S877.58,534.618,877.58,532.05"/>
<path fill="none" stroke="#000000" stroke-width="1.44" stroke-linecap="round" stroke-linejoin="round" stroke-miterlimit="10" d="
	M435.02,335.67c0-5.086-4.124-9.21-9.21-9.21s-9.21,4.124-9.21,9.21c0,5.087,4.124,9.21,9.21,9.21S435.02,340.757,435.02,335.67"/>
<path fill="none" stroke="#000000" stroke-width="1.44" stroke-linecap="round" stroke-linejoin="round" stroke-miterlimit="10" d="
	M831.86,290.13c0-5.086-4.124-9.21-9.21-9.21c-5.087,0-9.21,4.124-9.21,9.21c0,5.087,4.123,9.21,9.21,9.21
	C827.736,299.34,831.86,295.217,831.86,290.13"/>
<path fill="none" stroke="#000000" stroke-width="1.44" stroke-linecap="round" stroke-linejoin="round" stroke-miterlimit="10" d="
	M775.16,290.13c0-5.086-4.124-9.21-9.21-9.21c-5.087,0-9.21,4.124-9.21,9.21c0,5.087,4.123,9.21,9.21,9.21
	C771.036,299.34,775.16,295.217,775.16,290.13"/>
<path fill="none" stroke="#000000" stroke-width="1.44" stroke-linecap="round" stroke-linejoin="round" stroke-miterlimit="10" d="
	M718.46,290.13c0-5.086-4.123-9.21-9.21-9.21s-9.21,4.124-9.21,9.21c0,5.087,4.123,9.21,9.21,9.21S718.46,295.217,718.46,290.13"/>
<path fill="none" stroke="#000000" stroke-width="1.44" stroke-linecap="round" stroke-linejoin="round" stroke-miterlimit="10" d="
	M661.76,290.13c0-5.086-4.123-9.21-9.21-9.21s-9.21,4.124-9.21,9.21c0,5.087,4.123,9.21,9.21,9.21S661.76,295.217,661.76,290.13"/>
<path fill="none" stroke="#000000" stroke-width="1.44" stroke-linecap="round" stroke-linejoin="round" stroke-miterlimit="10" d="
	M605.06,290.13c0-5.086-4.123-9.21-9.21-9.21c-5.086,0-9.209,4.124-9.209,9.21c0,5.087,4.124,9.21,9.209,9.21
	C600.937,299.34,605.06,295.217,605.06,290.13"/>
<path fill="none" stroke="#000000" stroke-width="1.44" stroke-linecap="round" stroke-linejoin="round" stroke-miterlimit="10" d="
	M548.36,290.13c0-5.086-4.124-9.21-9.21-9.21s-9.21,4.124-9.21,9.21c0,5.087,4.124,9.21,9.21,9.21S548.36,295.217,548.36,290.13"/>
<path fill="none" stroke="#000000" stroke-width="1.44" stroke-linecap="round" stroke-linejoin="round" stroke-miterlimit="10" d="
	M491.66,290.13c0-5.086-4.124-9.21-9.21-9.21c-5.087,0-9.21,4.124-9.21,9.21c0,5.087,4.123,9.21,9.21,9.21
	C487.537,299.34,491.66,295.217,491.66,290.13"/>
<path fill="none" stroke="#000000" stroke-width="1.44" stroke-linecap="round" stroke-linejoin="round" stroke-miterlimit="10" d="
	M330.38,275.85c0-2.568-2.082-4.65-4.65-4.65s-4.65,2.082-4.65,4.65c0,2.568,2.082,4.65,4.65,4.65S330.38,278.418,330.38,275.85"/>
<path fill="none" stroke="#000000" stroke-width="1.44" stroke-linecap="round" stroke-linejoin="round" stroke-miterlimit="10" d="
	M435.02,290.13c0-5.086-4.124-9.21-9.21-9.21s-9.21,4.124-9.21,9.21c0,5.087,4.124,9.21,9.21,9.21S435.02,295.217,435.02,290.13"/>
<path fill="none" stroke="#000000" stroke-width="1.44" stroke-linecap="round" stroke-linejoin="round" stroke-miterlimit="10" d="
	M605.06,335.67c0-5.086-4.123-9.21-9.21-9.21c-5.086,0-9.209,4.124-9.209,9.21c0,5.087,4.124,9.21,9.209,9.21
	C600.937,344.88,605.06,340.757,605.06,335.67"/>
<path fill="none" stroke="#000000" stroke-width="1.44" stroke-linecap="round" stroke-linejoin="round" stroke-miterlimit="10" d="
	M661.76,335.67c0-5.086-4.123-9.21-9.21-9.21s-9.21,4.124-9.21,9.21c0,5.087,4.123,9.21,9.21,9.21S661.76,340.757,661.76,335.67"/>
<path fill="none" stroke="#000000" stroke-width="1.44" stroke-linecap="round" stroke-linejoin="round" stroke-miterlimit="10" d="
	M718.46,335.67c0-5.086-4.123-9.21-9.21-9.21s-9.21,4.124-9.21,9.21c0,5.087,4.123,9.21,9.21,9.21S718.46,340.757,718.46,335.67"/>
<path fill="none" stroke="#000000" stroke-width="1.44" stroke-linecap="round" stroke-linejoin="round" stroke-miterlimit="10" d="
	M775.16,335.67c0-5.086-4.124-9.21-9.21-9.21c-5.087,0-9.21,4.124-9.21,9.21c0,5.087,4.123,9.21,9.21,9.21
	C771.036,344.88,775.16,340.757,775.16,335.67"/>
<path fill="none" stroke="#000000" stroke-width="1.44" stroke-linecap="round" stroke-linejoin="round" stroke-miterlimit="10" d="
	M831.86,335.67c0-5.086-4.124-9.21-9.21-9.21c-5.087,0-9.21,4.124-9.21,9.21c0,5.087,4.123,9.21,9.21,9.21
	C827.736,344.88,831.86,340.757,831.86,335.67"/>
<path fill="none" stroke="#000000" stroke-width="1.44" stroke-linecap="round" stroke-linejoin="round" stroke-miterlimit="10" d="
	M384.02,290.13c0-5.086-4.124-9.21-9.21-9.21s-9.21,4.124-9.21,9.21c0,5.087,4.124,9.21,9.21,9.21S384.02,295.217,384.02,290.13"/>
<path fill="none" stroke="#000000" stroke-width="1.44" stroke-linecap="round" stroke-linejoin="round" stroke-miterlimit="10" d="
	M387.56,335.67c0-7.042-5.708-12.75-12.75-12.75s-12.75,5.708-12.75,12.75c0,7.042,5.708,12.75,12.75,12.75
	S387.56,342.712,387.56,335.67"/>
<polyline fill="none" stroke="#000000" stroke-width="1.44" stroke-linecap="round" stroke-linejoin="round" stroke-miterlimit="10" points="
	394.58,534.96 394.58,364.14 853.82,364.14 853.82,534.96 394.58,534.96 "/>
<polyline fill="none" stroke="#000000" stroke-width="1.44" stroke-linecap="round" stroke-linejoin="round" stroke-miterlimit="10" points="
	394.58,263.58 394.58,180.18 853.82,180.18 853.82,263.58 394.58,263.58 "/>
<path fill="none" stroke="#000000" stroke-width="1.44" stroke-linecap="round" stroke-linejoin="round" stroke-miterlimit="10" d="
	M491.66,335.67c0-5.086-4.124-9.21-9.21-9.21c-5.087,0-9.21,4.124-9.21,9.21c0,5.087,4.123,9.21,9.21,9.21
	C487.537,344.88,491.66,340.757,491.66,335.67"/>
<path fill="none" stroke="#000000" stroke-width="1.44" stroke-linecap="round" stroke-linejoin="round" stroke-miterlimit="10" d="
	M548.36,335.67c0-5.086-4.124-9.21-9.21-9.21s-9.21,4.124-9.21,9.21c0,5.087,4.124,9.21,9.21,9.21S548.36,340.757,548.36,335.67"/>
<polyline fill="none" stroke="#000000" stroke-width="1.44" stroke-linecap="round" stroke-linejoin="round" stroke-miterlimit="10" points="
	896.96,602.252 896.96,148.708 301.64,148.708 301.64,602.252 896.96,602.252 "/>
</svg>
