%FSLAX33Y33*%
%MOMM*%
%AMRect-W741421-H941421-RO1.000*
21,1,0.741421,0.941421,0.,0.,180*%
%AMRR-H1089615-W1469615-R544807-RO0.000*
21,1,0.380001,1.089615,0.,0.,360*
21,1,1.469615,0.000001,0.,0.,360*
1,1,1.089614,-0.1900005,0.0000005*
1,1,1.089614,0.1900005,0.0000005*
1,1,1.089614,0.1900005,-0.0000005*
1,1,1.089614,-0.1900005,-0.0000005*%
%AMRect-W2403400-H3200000-RO0.500*
21,1,2.4034,3.2,0.,0.,270*%
%AMRR-H192474-W893701-R96237-RO0.000*
21,1,0.701227,0.192474,0.,0.,360*
1,1,0.192474,-0.3506135,0.*
1,1,0.192474,0.3506135,0.*
1,1,0.192474,0.3506135,-0.*
1,1,0.192474,-0.3506135,0.*%
%AMRR-H893701-W192474-R96237-RO0.000*
21,1,0.192474,0.701227,0.,0.,360*
1,1,0.192474,0.,0.3506135*
1,1,0.192474,0.,0.3506135*
1,1,0.192474,0.,-0.3506135*
1,1,0.192474,-0.,-0.3506135*%
%AMRect-W670710-H870710-RO0.500*
21,1,0.67071,0.87071,0.,0.,270*%
%AMRect-W842120-H941421-RO0.500*
21,1,0.84212,0.941421,0.,0.,270*%
%AMRect-W741421-H941421-RO1.500*
21,1,0.741421,0.941421,0.,0.,90*%
%AMRect-W800000-H900000-RO0.500*
21,1,0.8,0.9,0.,0.,270*%
%AMRect-W741421-H941421-RO0.500*
21,1,0.741421,0.941421,0.,0.,270*%
%AMRect-W670710-H870710-RO1.000*
21,1,0.67071,0.87071,0.,0.,180*%
%AMRect-W842120-H941421-RO1.500*
21,1,0.84212,0.941421,0.,0.,90*%
%AMRect-W670710-H870710-RO1.500*
21,1,0.67071,0.87071,0.,0.,90*%
%AMRect-W893701-H192474-RO1.000*
21,1,0.893701,0.192474,0.,0.,180*%
%AMRR-H192474-W893701-R96237-RO1.000*
21,1,0.701227,0.192474,0.,0.,180*
1,1,0.192474,0.3506135,-0.*
1,1,0.192474,-0.3506135,-0.*
1,1,0.192474,-0.3506135,0.*
1,1,0.192474,0.3506135,0.*%
%AMRR-H893701-W192474-R96237-RO1.000*
21,1,0.192474,0.701227,0.,0.,180*
1,1,0.192474,0.,-0.3506135*
1,1,0.192474,-0.,-0.3506135*
1,1,0.192474,-0.,0.3506135*
1,1,0.192474,0.,0.3506135*%
%AMRect-W1650000-H1650000-RO0.500*
21,1,1.65,1.65,0.,0.,270*%
%AMRect-W842120-H941421-RO1.000*
21,1,0.84212,0.941421,0.,0.,180*%
%AMRect-W600000-H1500000-RO1.500*
21,1,0.6,1.5,0.,0.,90*%
%AMRect-W1600000-H1600000-RO0.500*
21,1,1.6,1.6,0.,0.,270*%
%AMRect-W1600000-H300000-RO1.000*
21,1,1.6,0.3,0.,0.,180*%
%AMRR-H300000-W1600000-R150000-RO1.000*
21,1,1.3,0.3,0.,0.,180*
1,1,0.3,0.65,-0.*
1,1,0.3,-0.65,-0.*
1,1,0.3,-0.65,0.*
1,1,0.3,0.65,0.*%
%AMRR-H300000-W1600000-R150000-RO0.000*
21,1,1.3,0.3,0.,0.,360*
1,1,0.3,-0.65,0.*
1,1,0.3,0.65,0.*
1,1,0.3,0.65,-0.*
1,1,0.3,-0.65,0.*%
%ADD10C,1.0668*%
%ADD11C,1.6*%
%ADD12Rect-W741421-H941421-RO1.000*%
%ADD13R,0.67071X0.87071*%
%ADD14R,1.469615X1.089615*%
%ADD15RR-H1089615-W1469615-R544807-RO0.000*%
%ADD16C,1.6*%
%ADD17Rect-W2403400-H3200000-RO0.500*%
%ADD18R,1.8X1.8*%
%ADD19C,1.8*%
%ADD20R,0.741421X0.941421*%
%ADD21C,1.6*%
%ADD22R,0.893701X0.192474*%
%ADD23RR-H192474-W893701-R96237-RO0.000*%
%ADD24RR-H893701-W192474-R96237-RO0.000*%
%ADD25Rect-W670710-H870710-RO0.500*%
%ADD26Rect-W842120-H941421-RO0.500*%
%ADD27C,1.6*%
%ADD28Rect-W741421-H941421-RO1.500*%
%ADD29Rect-W800000-H900000-RO0.500*%
%ADD30R,1.62X1.62*%
%ADD31C,1.62*%
%ADD32Rect-W741421-H941421-RO0.500*%
%ADD33Rect-W670710-H870710-RO1.000*%
%ADD34Rect-W842120-H941421-RO1.500*%
%ADD35Rect-W670710-H870710-RO1.500*%
%ADD36R,1.6X1.6*%
%ADD37Rect-W893701-H192474-RO1.000*%
%ADD38RR-H192474-W893701-R96237-RO1.000*%
%ADD39RR-H893701-W192474-R96237-RO1.000*%
%ADD40C,1.65*%
%ADD41Rect-W1650000-H1650000-RO0.500*%
%ADD42R,1.05X0.6*%
%ADD43Rect-W842120-H941421-RO1.000*%
%ADD44Rect-W600000-H1500000-RO1.500*%
%ADD45R,0.84212X0.941421*%
%ADD46Rect-W1600000-H1600000-RO0.500*%
%ADD47Rect-W1600000-H300000-RO1.000*%
%ADD48RR-H300000-W1600000-R150000-RO1.000*%
%ADD49RR-H300000-W1600000-R150000-RO0.000*%
D10*
%LNtop solder mask_traces*%
G01*
X206550Y86736D03*
X34925Y85500D03*
X5017Y106950D03*
X196309Y118554D03*
X55765Y107225D03*
X90825Y86425D03*
X66400Y106275D03*
X210725Y17275D03*
X200325Y89875D03*
X31275Y36450D03*
X18700Y74725D03*
X210375Y82900D03*
X59792Y126500D03*
X109125Y87400D03*
X12052Y40500D03*
X8718Y101803D03*
X156210Y78445D03*
X28376Y38225D03*
X207294Y103556D03*
X27750Y87308D03*
X52584Y75750D03*
X68707Y118554D03*
X63850Y88275D03*
X8300Y35775D03*
X213475Y25175D03*
X199848Y98990D03*
X116332Y98445D03*
X68700Y83175D03*
X36244Y82325D03*
X64235Y94125D03*
X215175Y96333D03*
X19650Y81800D03*
X67218Y108687D03*
X8750Y40675D03*
X75150Y83185D03*
X21325Y100725D03*
X215575Y41525D03*
X4656Y85825D03*
X186495Y98990D03*
X12400Y58425D03*
X127229Y78475D03*
X215300Y97975D03*
X107467Y98323D03*
X8875Y80445D03*
X162325Y17525D03*
X90175Y85100D03*
X203350Y87821D03*
X88775Y103925D03*
X201016Y75844D03*
X204225Y93400D03*
X156362Y118445D03*
X187096Y118450D03*
X211060Y103022D03*
X212500Y86736D03*
X206705Y73304D03*
X23800Y81645D03*
X63675Y106275D03*
X197450Y88925D03*
X36275Y28725D03*
X29016Y41450D03*
X42725Y95325D03*
X213267Y96150D03*
X208340Y95725D03*
X135865Y118445D03*
X75336Y94310D03*
X109400Y84950D03*
X209600Y95175D03*
X86919Y118575D03*
X7600Y86725D03*
X55640Y85670D03*
X29550Y29971D03*
X8750Y55850D03*
X10975Y74150D03*
X76417Y78562D03*
X71671Y88775D03*
X36150Y35540D03*
X116180Y78445D03*
X9100Y86875D03*
X30887Y79481D03*
X31525Y39990D03*
X50475Y74261D03*
X187975Y96660D03*
X23580Y79025D03*
X214650Y32075D03*
X26625Y114422D03*
X190475Y76212D03*
X13925Y95975D03*
X15981Y121900D03*
X127229Y118425D03*
X18650Y123475D03*
X39500Y79500D03*
X186950Y78450D03*
X19950Y80125D03*
X39484Y77750D03*
X146990Y78500D03*
X10975Y39750D03*
X6000Y60960D03*
X176200Y118445D03*
X147396Y118425D03*
X8592Y99035D03*
X29554Y21488D03*
X149125Y16450D03*
X215775Y110675D03*
X45466Y113716D03*
X210015Y110693D03*
X36700Y105855D03*
X15100Y75050D03*
X48600Y79900D03*
X46330Y89810D03*
X35843Y79431D03*
X204750Y92116D03*
X36150Y31164D03*
X8875Y82085D03*
X116154Y118445D03*
X54550Y109225D03*
X168199Y118450D03*
X33550Y72050D03*
X215500Y40175D03*
X6325Y86875D03*
X169800Y94125D03*
X107865Y86400D03*
X210490Y96590D03*
X16650Y104050D03*
X25450Y10025D03*
X32106Y94500D03*
X96317Y98445D03*
X72187Y82296D03*
X171150Y103625D03*
X75150Y86950D03*
X76860Y90068D03*
X96575Y17450D03*
X6400Y80550D03*
X35125Y73450D03*
X34925Y94700D03*
X184510Y92275D03*
X40525Y20650D03*
X180035Y98552D03*
X45985Y85055D03*
X208559Y72060D03*
X86766Y98349D03*
X17475Y86284D03*
X178003Y118445D03*
X36650Y27300D03*
X215350Y38725D03*
X204591Y116916D03*
X136246Y98349D03*
X59848Y116561D03*
X48231Y84494D03*
X91025Y103925D03*
X184800Y17450D03*
X11650Y61325D03*
X214224Y86450D03*
X12500Y38225D03*
X215300Y99471D03*
X105075Y16425D03*
X58304Y87454D03*
X45600Y10000D03*
X25265Y83142D03*
X193075Y16575D03*
X32489Y87525D03*
X128975Y84625D03*
X68704Y93675D03*
X147142Y98445D03*
X215775Y105175D03*
X34925Y83075D03*
X176301Y78450D03*
X212675Y90148D03*
X110500Y86175D03*
X17165Y84322D03*
X19700Y95750D03*
X62331Y108550D03*
X47015Y91829D03*
X32410Y41750D03*
X75336Y98480D03*
X29454Y39125D03*
X167157Y98445D03*
X167157Y78450D03*
X26311Y105000D03*
X204750Y87075D03*
X57981Y108550D03*
X27844Y26925D03*
X57950Y107225D03*
X209956Y76581D03*
X136169Y78445D03*
X126797Y98445D03*
X32000Y22000D03*
X55765Y108550D03*
X96291Y118445D03*
X21365Y73850D03*
X56856Y115189D03*
X46482Y86850D03*
X58297Y83400D03*
X91821Y82398D03*
X168250Y94125D03*
X201975Y88525D03*
X64850Y108225D03*
X89070Y84375D03*
X28050Y33331D03*
X87351Y78450D03*
X14605Y93029D03*
X42554Y85104D03*
X132900Y16375D03*
X59848Y78303D03*
X45250Y77535D03*
X211600Y85806D03*
X15750Y105100D03*
X16675Y114249D03*
X29075Y74125D03*
X213677Y97392D03*
X25601Y38225D03*
X25280Y85505D03*
X88350Y86725D03*
X67158Y78445D03*
X25225Y79675D03*
X55575Y99339D03*
X87200Y85700D03*
X27203Y80750D03*
X80775Y78990D03*
X183900Y90025D03*
X56225Y87250D03*
X32500Y73150D03*
X56200Y110875D03*
X32775Y102900D03*
X212421Y103705D03*
X184200Y95377D03*
X211060Y107163D03*
X64198Y114071D03*
X140800Y17375D03*
X48975Y126111D03*
X63825Y91450D03*
X36275Y33921D03*
X171350Y16100D03*
X65600Y97075D03*
X127475Y86050D03*
X56525Y73491D03*
X76302Y118445D03*
X42725Y97714D03*
X25500Y24380D03*
X63671Y84550D03*
X210875Y33125D03*
X209750Y92838D03*
X9850Y83790D03*
X216275Y103200D03*
X167000Y83875D03*
X208767Y74524D03*
X11287Y71200D03*
X22887Y26388D03*
X36906Y32207D03*
X56225Y88764D03*
X10350Y90750D03*
X22500Y72100D03*
X30485Y37490D03*
X59792Y119232D03*
X63825Y86500D03*
X213625Y115200D03*
X75150Y18200D03*
X199945Y78990D03*
X11218Y86300D03*
X59487Y79930D03*
X106934Y78445D03*
X56900Y84252D03*
X34050Y36144D03*
X94894Y78445D03*
X59848Y98990D03*
X34825Y23500D03*
X75006Y90068D03*
X11520Y24654D03*
X203875Y101645D03*
X11850Y42325D03*
X168294Y103175D03*
X29421Y80750D03*
X211825Y72975D03*
X4500Y105290D03*
X106883Y118475D03*
X211125Y56975D03*
X155677Y98323D03*
X83125Y16425D03*
X63825Y90000D03*
X45244Y106250D03*
%LNtop solder mask component 2cb417fd89b64ff1*%
D11*
X70675Y125755D03*
X65595Y125755D03*
D12*
X68985Y125755D03*
X67285Y125755D03*
%LNtop solder mask component cb32256eb6e29e30*%
D13*
X84075Y78445D03*
X85775Y78445D03*
%LNtop solder mask component 50e8ad344c7d4b8f*%
D14*
X177900Y101645D03*
D15*
X182100Y98445D03*
X177900Y98445D03*
X182100Y101645D03*
X182100Y100045D03*
X177900Y100045D03*
%LNtop solder mask component 2e96c5ec09cc2bff*%
D16*
X43970Y78805D03*
%LNtop solder mask component c7283ee94d66bc59*%
X92990Y92500D03*
X92990Y90000D03*
X92990Y87500D03*
D17*
X100000Y94394D03*
X100000Y85606D03*
%LNtop solder mask component 7be21fa8212241c2*%
D18*
X13400Y32700D03*
D19*
X13400Y30000D03*
X13400Y27300D03*
X17300Y23400D03*
X20000Y23400D03*
X22700Y23400D03*
X20000Y34600D03*
X24600Y30000D03*
%LNtop solder mask component 87d4757989b5faab*%
D20*
X48204Y104205D03*
X49904Y104205D03*
D21*
X46514Y104205D03*
X51594Y104205D03*
%LNtop solder mask component ac3db5670584ae1c*%
D22*
X210936Y100975D03*
D23*
X210936Y100575D03*
X210936Y100175D03*
X210936Y99775D03*
X210936Y99375D03*
X213714Y99375D03*
X213714Y99775D03*
X213714Y100175D03*
X213714Y100575D03*
X213714Y100975D03*
D24*
X211525Y98786D03*
X211925Y98786D03*
X212325Y98786D03*
X212725Y98786D03*
X213125Y98786D03*
X213125Y101564D03*
X212725Y101564D03*
X212325Y101564D03*
X211925Y101564D03*
X211525Y101564D03*
%LNtop solder mask component fae2ab7ca5d4c9bc*%
D21*
X67425Y42675D03*
%LNtop solder mask component b027ff144b44c17e*%
D25*
X211793Y96669D03*
X211793Y94969D03*
%LNtop solder mask component 208970e27ef767f2*%
D14*
X97900Y121645D03*
D15*
X102100Y118445D03*
X97900Y118445D03*
X102100Y121645D03*
X102100Y120045D03*
X97900Y120045D03*
%LNtop solder mask component e6c093e4fb0ef7fd*%
D14*
X137900Y101645D03*
D15*
X142100Y98445D03*
X137900Y98445D03*
X142100Y101645D03*
X142100Y100045D03*
X137900Y100045D03*
%LNtop solder mask component cb78a816f7b119bb*%
D26*
X8029Y25075D03*
X8029Y23475D03*
%LNtop solder mask component 0c936e703266551f*%
D21*
X50000Y10160D03*
%LNtop solder mask component 7f1e47caf152ae98*%
D13*
X65480Y118554D03*
X67180Y118554D03*
%LNtop solder mask component 58a1288a180aeb08*%
D27*
X207025Y78248D03*
X207025Y83328D03*
D28*
X207025Y79938D03*
X207025Y81638D03*
%LNtop solder mask component 101642b7feb7559f*%
D13*
X63950Y78450D03*
X65650Y78450D03*
%LNtop solder mask component 4aa0ec8f7d4abd44*%
X104300Y98445D03*
X106000Y98445D03*
%LNtop solder mask component 5dcb23a1593b6b07*%
D29*
X2200Y126200D03*
X2200Y124300D03*
X4200Y125250D03*
%LNtop solder mask component b89bd2635b4bd775*%
D13*
X165125Y118450D03*
X166825Y118450D03*
%LNtop solder mask component 4039f8620c22d145*%
D25*
X184200Y98445D03*
X184200Y96745D03*
%LNtop solder mask component 39d65e26780576d4*%
D13*
X164150Y78445D03*
X165850Y78445D03*
%LNtop solder mask component d38423d823e8d2e1*%
D14*
X17900Y81645D03*
D15*
X22100Y78445D03*
X17900Y78445D03*
X22100Y81645D03*
X22100Y80045D03*
X17900Y80045D03*
%LNtop solder mask component cfb32474af56c8fe*%
D30*
X13510Y88975D03*
D31*
X16050Y88975D03*
X18590Y88975D03*
X21130Y88975D03*
X23670Y88975D03*
X26210Y88975D03*
X28750Y88975D03*
X31290Y88975D03*
X13510Y91515D03*
X16050Y91515D03*
X18590Y91515D03*
X21130Y91515D03*
X23670Y91515D03*
X26210Y91515D03*
X28750Y91515D03*
X31290Y91515D03*
%LNtop solder mask component edd2f8c4690b01ba*%
D21*
X46050Y50343D03*
%LNtop solder mask component 6f74c3785349d0d5*%
D13*
X124175Y78445D03*
X125875Y78445D03*
%LNtop solder mask component 26c1b4b607a29686*%
D25*
X5375Y114925D03*
X5375Y113225D03*
%LNtop solder mask component 7d0a4e2d061378cf*%
D11*
X41438Y83885D03*
X36358Y83885D03*
D12*
X39748Y83885D03*
X38048Y83885D03*
%LNtop solder mask component 19b7ae7034783336*%
D16*
X214348Y83395D03*
X214348Y78315D03*
D32*
X214348Y81705D03*
X214348Y80005D03*
%LNtop solder mask component 3cf36ddb64d95e52*%
D27*
X212350Y78315D03*
X212350Y83395D03*
D28*
X212350Y80005D03*
X212350Y81705D03*
%LNtop solder mask component 8ce11e64e60d2ce9*%
D13*
X144000Y78554D03*
X145700Y78554D03*
%LNtop solder mask component ab15ae813f6f3aa1*%
X184275Y118450D03*
X185975Y118450D03*
%LNtop solder mask component 0e368f23a025e6cc*%
X63900Y98445D03*
X65600Y98445D03*
%LNtop solder mask component 01c29c7f8cfffb4b*%
X83950Y118575D03*
X85650Y118575D03*
%LNtop solder mask component 5ebd81450b63c694*%
D14*
X37900Y81645D03*
D15*
X42100Y78445D03*
X37900Y78445D03*
X42100Y81645D03*
X42100Y80045D03*
X37900Y80045D03*
%LNtop solder mask component 32cc1e32022eae04*%
D27*
X7050Y102935D03*
X7050Y108015D03*
D28*
X7050Y104625D03*
X7050Y106325D03*
%LNtop solder mask component adf83d82d2d88d45*%
D21*
X45949Y70725D03*
%LNtop solder mask component 840a2754f238af4d*%
D16*
X43970Y99125D03*
%LNtop solder mask component e85196ca949464c4*%
D33*
X39819Y106385D03*
X38119Y106385D03*
%LNtop solder mask component ab2fc442c780097c*%
D34*
X211800Y111951D03*
X211800Y113550D03*
%LNtop solder mask component e9789fece648f183*%
D16*
X92990Y112500D03*
X92990Y110000D03*
X92990Y107500D03*
D17*
X100000Y114394D03*
X100000Y105606D03*
%LNtop solder mask component 5154ed8cd176cc8c*%
D16*
X41430Y99125D03*
%LNtop solder mask component d62bc96d87e5019c*%
D21*
X50000Y2540D03*
%LNtop solder mask component 4f76a2a9eaa2a2fe*%
D14*
X97900Y101645D03*
D15*
X102100Y98445D03*
X97900Y98445D03*
X102100Y101645D03*
X102100Y100045D03*
X97900Y100045D03*
%LNtop solder mask component 2e9ef28c2831b1bc*%
D14*
X57972Y81645D03*
D15*
X62172Y78445D03*
X57972Y78445D03*
X62172Y81645D03*
X62172Y80045D03*
X57972Y80045D03*
%LNtop solder mask component 28689b4c8158a79f*%
D11*
X74390Y78445D03*
X69310Y78445D03*
D12*
X72700Y78445D03*
X71000Y78445D03*
%LNtop solder mask component ffc4da092a9a4fc5*%
D16*
X28730Y99125D03*
%LNtop solder mask component 7b562a51c2d66994*%
D13*
X104050Y118475D03*
X105750Y118475D03*
%LNtop solder mask component 44887bd3d44aa71f*%
D16*
X8745Y114365D03*
X8745Y109285D03*
D32*
X8745Y112675D03*
X8745Y110975D03*
%LNtop solder mask component 5baf418b44386f3e*%
D11*
X41509Y101841D03*
X36429Y101841D03*
D12*
X39819Y101841D03*
X38119Y101841D03*
%LNtop solder mask component 98269289897f6ba6*%
D25*
X210985Y94005D03*
X210985Y92305D03*
%LNtop solder mask component a86400f42089c71c*%
D13*
X144025Y98445D03*
X145725Y98445D03*
%LNtop solder mask component 89ac62f37abc9e14*%
D16*
X21110Y99125D03*
%LNtop solder mask component c392bcdfea8d8ea2*%
D21*
X47780Y115900D03*
%LNtop solder mask component e784ba3ac1935508*%
D27*
X31700Y106776D03*
X31700Y111856D03*
D28*
X31700Y108466D03*
X31700Y110166D03*
%LNtop solder mask component c74a98aa77dc13b3*%
D13*
X24930Y78445D03*
X26630Y78445D03*
%LNtop solder mask component 43a2ab67652ac8d7*%
D35*
X203875Y98550D03*
X203875Y100250D03*
%LNtop solder mask component 01c081f32b57dd17*%
D16*
X12990Y112500D03*
X12990Y110000D03*
X12990Y107500D03*
D17*
X20000Y114394D03*
X20000Y105606D03*
%LNtop solder mask component 4ad53e7247cb7795*%
D16*
X192990Y92500D03*
X192990Y90000D03*
X192990Y87500D03*
D17*
X200000Y94394D03*
X200000Y85606D03*
%LNtop solder mask component 3657576657a30115*%
D21*
X50000Y5080D03*
%LNtop solder mask component 3f41394d43e5d88f*%
X10225Y115525D03*
%LNtop solder mask component 37922efdc8d51755*%
D36*
X10975Y76265D03*
D21*
X13515Y76265D03*
X16055Y76265D03*
X18595Y76265D03*
X21135Y76265D03*
X23675Y76265D03*
X26215Y76265D03*
X28755Y76265D03*
X31295Y76265D03*
X33835Y76265D03*
X36375Y76265D03*
X38915Y76265D03*
X41455Y76265D03*
X43995Y76265D03*
X46535Y76265D03*
X49075Y76265D03*
X49075Y96585D03*
X46535Y96585D03*
X43995Y96585D03*
X41455Y96585D03*
X38915Y96585D03*
X36375Y96585D03*
X33835Y96585D03*
X31295Y96585D03*
X28755Y96585D03*
X26215Y96585D03*
X23675Y96585D03*
X21135Y96585D03*
%LNtop solder mask component aa580201ffaa89d6*%
X50000Y20320D03*
%LNtop solder mask component af7c4f35f2bc9333*%
D34*
X210717Y79955D03*
X210717Y81554D03*
%LNtop solder mask component af1981297f4010f7*%
D16*
X23650Y99125D03*
%LNtop solder mask component b8b07e4af1db7061*%
D11*
X57975Y125755D03*
X52895Y125755D03*
D12*
X56285Y125755D03*
X54585Y125755D03*
%LNtop solder mask component 4084996067ccbf65*%
D37*
X211539Y87325D03*
D38*
X211539Y87725D03*
X211539Y88125D03*
X211539Y88525D03*
X211539Y88925D03*
X208761Y88925D03*
X208761Y88525D03*
X208761Y88125D03*
X208761Y87725D03*
X208761Y87325D03*
D39*
X210950Y89514D03*
X210550Y89514D03*
X210150Y89514D03*
X209750Y89514D03*
X209350Y89514D03*
X209350Y86736D03*
X209750Y86736D03*
X210150Y86736D03*
X210550Y86736D03*
X210950Y86736D03*
%LNtop solder mask component 110faed1cc146b02*%
D27*
X33300Y110636D03*
X33300Y115716D03*
D28*
X33300Y112326D03*
X33300Y114026D03*
%LNtop solder mask component f7b75df1bdf2f181*%
D21*
X50000Y25400D03*
%LNtop solder mask component 03a6b9848fb8370e*%
X107747Y41650D03*
%LNtop solder mask component 22e543a28086d96e*%
D11*
X70675Y123215D03*
X65595Y123215D03*
D12*
X68985Y123215D03*
X67285Y123215D03*
%LNtop solder mask component dece1cff8e284f1a*%
D16*
X36358Y99125D03*
%LNtop solder mask component 0711ebfc8202c0ed*%
D13*
X144400Y118425D03*
X146100Y118425D03*
%LNtop solder mask component ffb1b8a22baaf954*%
D29*
X9085Y94150D03*
X9085Y92250D03*
X11085Y93200D03*
%LNtop solder mask component 7fd2e291fd359170*%
D21*
X50000Y27940D03*
%LNtop solder mask component 7a75119600317b29*%
D16*
X152990Y92500D03*
X152990Y90000D03*
X152990Y87500D03*
D17*
X160000Y94394D03*
X160000Y85606D03*
%LNtop solder mask component 7583a494c62a08c3*%
D21*
X50000Y15240D03*
%LNtop solder mask component 2ce9bceb47a0c645*%
D40*
X52860Y120650D03*
X50320Y120650D03*
X47780Y120650D03*
X45240Y120650D03*
X42700Y120650D03*
X40160Y120650D03*
X37620Y120650D03*
X35080Y120650D03*
X32540Y120650D03*
X30000Y120650D03*
X27460Y120650D03*
X24920Y120650D03*
X22380Y120650D03*
X19840Y120650D03*
X17300Y120650D03*
X14760Y120650D03*
X12220Y120650D03*
X9680Y120650D03*
X7140Y120650D03*
X55400Y118110D03*
X52860Y118110D03*
X50320Y118110D03*
X47780Y118110D03*
X45240Y118110D03*
X42700Y118110D03*
X40160Y118110D03*
X37620Y118110D03*
X35080Y118110D03*
X32540Y118110D03*
X30000Y118110D03*
X27460Y118110D03*
X24920Y118110D03*
X22380Y118110D03*
X19840Y118110D03*
X17300Y118110D03*
X14760Y118110D03*
X12220Y118110D03*
X9680Y118110D03*
X7140Y118110D03*
D41*
X55400Y120650D03*
%LNtop solder mask component d1b8988840d6d78f*%
D16*
X46510Y78805D03*
%LNtop solder mask component 51d1d5a90901b739*%
D42*
X46510Y83300D03*
X46510Y82350D03*
X46510Y81400D03*
X49210Y81400D03*
X49210Y83300D03*
%LNtop solder mask component 116d0418d04e5f4f*%
D13*
X103850Y78455D03*
X105550Y78455D03*
%LNtop solder mask component 422269f795c4b49e*%
D34*
X47200Y32250D03*
X47200Y33850D03*
%LNtop solder mask component 14933e70956be4d4*%
D43*
X11396Y35304D03*
X9797Y35304D03*
%LNtop solder mask component a9a86f59fad873e5*%
D25*
X28173Y24715D03*
X28173Y23015D03*
%LNtop solder mask component c2943c2eaca65d4c*%
D16*
X132990Y92500D03*
X132990Y90000D03*
X132990Y87500D03*
D17*
X140000Y94394D03*
X140000Y85606D03*
%LNtop solder mask component b8f167eb817f45c9*%
D16*
X13490Y83835D03*
X13490Y78755D03*
D32*
X13490Y82145D03*
X13490Y80445D03*
%LNtop solder mask component 8d538f7f95303938*%
D44*
X49575Y85030D03*
X49575Y86300D03*
X49575Y87570D03*
X49575Y88840D03*
X49575Y90110D03*
X49575Y91380D03*
X49575Y92650D03*
X49575Y93920D03*
X44175Y93920D03*
X44175Y92650D03*
X44175Y91380D03*
X44175Y90110D03*
X44175Y88840D03*
X44175Y87570D03*
X44175Y86300D03*
X44175Y85030D03*
%LNtop solder mask component 8d773e40d9ff8c97*%
D20*
X51867Y123047D03*
X53567Y123047D03*
D21*
X50177Y123047D03*
X55257Y123047D03*
%LNtop solder mask component 362fc440c7609de4*%
D14*
X77900Y121645D03*
D15*
X82100Y118445D03*
X77900Y118445D03*
X82100Y121645D03*
X82100Y120045D03*
X77900Y120045D03*
%LNtop solder mask component 22777a1fd5ef78f6*%
D14*
X157900Y81645D03*
D15*
X162100Y78445D03*
X157900Y78445D03*
X162100Y81645D03*
X162100Y80045D03*
X157900Y80045D03*
%LNtop solder mask component f5ef1cec2031dca3*%
D16*
X52990Y112500D03*
X52990Y110000D03*
X52990Y107500D03*
D17*
X60000Y114394D03*
X60000Y105606D03*
%LNtop solder mask component 8daf806579074e6c*%
D21*
X50000Y12700D03*
%LNtop solder mask component e2b7cb41e3b42ff7*%
D13*
X207340Y97827D03*
X209040Y97827D03*
%LNtop solder mask component 20eaf199acc821e9*%
D21*
X87675Y42300D03*
%LNtop solder mask component 835bc4b13f0791df*%
X7140Y115525D03*
%LNtop solder mask component 3f34ece6ffbf9a07*%
D13*
X50549Y83414D03*
X52249Y83414D03*
%LNtop solder mask component 1b8cbfd094050d32*%
D14*
X97900Y81645D03*
D15*
X102100Y78445D03*
X97900Y78445D03*
X102100Y81645D03*
X102100Y80045D03*
X97900Y80045D03*
%LNtop solder mask component 051bcd12e4b16a5d*%
D21*
X26441Y69475D03*
%LNtop solder mask component 2707fcd6ab92e018*%
D16*
X132990Y112500D03*
X132990Y110000D03*
X132990Y107500D03*
D17*
X140000Y114394D03*
X140000Y105606D03*
%LNtop solder mask component fa4b46b3c3d02d04*%
D21*
X48375Y78075D03*
%LNtop solder mask component 15295c3f1cff3500*%
X45240Y115825D03*
%LNtop solder mask component f89053a2e4f60840*%
D16*
X5560Y35565D03*
X5560Y30485D03*
D32*
X5560Y33875D03*
X5560Y32175D03*
%LNtop solder mask component 76f14d7369327f0d*%
D25*
X211090Y105990D03*
X211090Y104290D03*
%LNtop solder mask component 52a1b1ca2b1d3003*%
D21*
X146400Y72034D03*
%LNtop solder mask component 18194bf12f70f194*%
D16*
X72990Y112500D03*
X72990Y110000D03*
X72990Y107500D03*
D17*
X80000Y114394D03*
X80000Y105606D03*
%LNtop solder mask component 5a332b9c7c6b454e*%
D27*
X8500Y27620D03*
X8500Y32700D03*
D28*
X8500Y29310D03*
X8500Y31010D03*
%LNtop solder mask component 549c3aea35d079e6*%
D16*
X112990Y92500D03*
X112990Y90000D03*
X112990Y87500D03*
D17*
X120000Y94394D03*
X120000Y85606D03*
%LNtop solder mask component 3d096520bff5873b*%
D16*
X205725Y102435D03*
X205725Y97355D03*
D32*
X205725Y100745D03*
X205725Y99045D03*
%LNtop solder mask component 0b32193e593047df*%
D14*
X177950Y81650D03*
D15*
X182150Y78450D03*
X177950Y78450D03*
X182150Y81650D03*
X182150Y80050D03*
X177950Y80050D03*
%LNtop solder mask component 76bc64773c60f07c*%
D27*
X3000Y119380D03*
X3000Y121920D03*
%LNtop solder mask component 2b1495a865a6849a*%
D21*
X208450Y52325D03*
%LNtop solder mask component 0140c6c654e9dc5b*%
X50000Y33020D03*
%LNtop solder mask component 3b85729fa308793e*%
X105450Y71925D03*
%LNtop solder mask component 3244838e2437b951*%
D16*
X5850Y58400D03*
X5850Y53320D03*
D32*
X5850Y56710D03*
X5850Y55010D03*
%LNtop solder mask component 4d63013c9b8810b0*%
D26*
X28138Y36177D03*
X28138Y34577D03*
%LNtop solder mask component 9606dd0b3b4181df*%
D35*
X44175Y80590D03*
X44175Y82290D03*
%LNtop solder mask component 4705e07a40114c09*%
D20*
X37999Y86425D03*
X39699Y86425D03*
D21*
X36309Y86425D03*
X41389Y86425D03*
%LNtop solder mask component b486b3018109de37*%
D14*
X177900Y121645D03*
D15*
X182100Y118445D03*
X177900Y118445D03*
X182100Y121645D03*
X182100Y120045D03*
X177900Y120045D03*
%LNtop solder mask component 01015ca45b8bb0bc*%
D11*
X72465Y98455D03*
X67385Y98455D03*
D12*
X70775Y98455D03*
X69075Y98455D03*
%LNtop solder mask component 794c30c688ef4a1d*%
D21*
X55800Y81750D03*
%LNtop solder mask component ef78370791fd3d8b*%
D11*
X41389Y88965D03*
X36309Y88965D03*
D12*
X39699Y88965D03*
X37999Y88965D03*
%LNtop solder mask component e572c9809e58cf0f*%
D14*
X117900Y101645D03*
D15*
X122100Y98445D03*
X117900Y98445D03*
X122100Y101645D03*
X122100Y100045D03*
X117900Y100045D03*
%LNtop solder mask component 7affad552c8f2dee*%
D16*
X112990Y112500D03*
X112990Y110000D03*
X112990Y107500D03*
D17*
X120000Y114394D03*
X120000Y105606D03*
%LNtop solder mask component 2acf0be01d619105*%
D14*
X77900Y81645D03*
D15*
X82100Y78445D03*
X77900Y78445D03*
X82100Y81645D03*
X82100Y80045D03*
X77900Y80045D03*
%LNtop solder mask component f5aa278a4338d0a7*%
D16*
X52990Y92500D03*
X52990Y90000D03*
X52990Y87500D03*
D17*
X60000Y94394D03*
X60000Y85606D03*
%LNtop solder mask component 948a008d14176e07*%
D21*
X50000Y17780D03*
%LNtop solder mask component adc1909596e3bd48*%
X50000Y38100D03*
%LNtop solder mask component 6df6cc68a2bdf09c*%
D13*
X124125Y118425D03*
X125825Y118425D03*
%LNtop solder mask component ad1c61057d5f85b7*%
D14*
X197900Y81645D03*
D15*
X202100Y78445D03*
X197900Y78445D03*
X202100Y81645D03*
X202100Y80045D03*
X197900Y80045D03*
%LNtop solder mask component ab6498ba432a0b55*%
D20*
X12850Y101525D03*
X14550Y101525D03*
D21*
X11160Y101525D03*
X16240Y101525D03*
%LNtop solder mask component 0cff4b9a53bad90f*%
D14*
X157900Y121645D03*
D15*
X162100Y118445D03*
X157900Y118445D03*
X162100Y121645D03*
X162100Y120045D03*
X157900Y120045D03*
%LNtop solder mask component ca5038e2ccbbc460*%
D14*
X197900Y121645D03*
D15*
X202100Y118445D03*
X197900Y118445D03*
X202100Y121645D03*
X202100Y120045D03*
X197900Y120045D03*
%LNtop solder mask component 3c2ce17cf2a01d3a*%
D21*
X88250Y72475D03*
%LNtop solder mask component e20cf9e83588ac86*%
D45*
X212699Y76581D03*
X214299Y76581D03*
%LNtop solder mask component 020795961396f96f*%
D21*
X166450Y71120D03*
%LNtop solder mask component 00c8401b6cf4bd8f*%
D25*
X204125Y79567D03*
X204125Y77867D03*
%LNtop solder mask component 179472fd52466dca*%
D16*
X38890Y99125D03*
%LNtop solder mask component 9fbf70fbd30795f4*%
D33*
X53695Y81960D03*
X51995Y81960D03*
%LNtop solder mask component 91ad611b2d09aec1*%
D21*
X50000Y30480D03*
%LNtop solder mask component 1aa80e2305d3c3f5*%
D20*
X65396Y116850D03*
X67096Y116850D03*
D21*
X63706Y116850D03*
X68786Y116850D03*
%LNtop solder mask component 7402d1aeef7f3f20*%
X50000Y35560D03*
%LNtop solder mask component 478e18b4a5e21ed9*%
D27*
X3000Y114300D03*
X3000Y116840D03*
%LNtop solder mask component 4bb94fafb42cfb5f*%
D16*
X172990Y92500D03*
X172990Y90000D03*
X172990Y87500D03*
D17*
X180000Y94394D03*
X180000Y85606D03*
%LNtop solder mask component 7916e5d6367009bd*%
D22*
X28161Y30675D03*
D23*
X28161Y30275D03*
X28161Y29875D03*
X28161Y29475D03*
X28161Y29075D03*
X30939Y29075D03*
X30939Y29475D03*
X30939Y29875D03*
X30939Y30275D03*
X30939Y30675D03*
D24*
X28750Y28486D03*
X29150Y28486D03*
X29550Y28486D03*
X29950Y28486D03*
X30350Y28486D03*
X30350Y31264D03*
X29950Y31264D03*
X29550Y31264D03*
X29150Y31264D03*
X28750Y31264D03*
%LNtop solder mask component e8b37e7f08e4b4ce*%
D11*
X51594Y99125D03*
X46514Y99125D03*
D12*
X49904Y99125D03*
X48204Y99125D03*
%LNtop solder mask component 3da4608edc6e80ef*%
D33*
X214856Y85200D03*
X213156Y85200D03*
%LNtop solder mask component 1376364b9f4b7526*%
D44*
X49075Y105555D03*
X49075Y106825D03*
X49075Y108095D03*
X49075Y109365D03*
X49075Y110635D03*
X49075Y111905D03*
X49075Y113175D03*
X49075Y114445D03*
X43675Y114445D03*
X43675Y113175D03*
X43675Y111905D03*
X43675Y110635D03*
X43675Y109365D03*
X43675Y108095D03*
X43675Y106825D03*
X43675Y105555D03*
%LNtop solder mask component 511370af6c7919eb*%
D21*
X26111Y50495D03*
%LNtop solder mask component 7e7211f8812d17fd*%
D35*
X26775Y23015D03*
X26775Y24715D03*
%LNtop solder mask component 264957ead632d6c1*%
D11*
X32489Y85725D03*
X27409Y85725D03*
D12*
X30799Y85725D03*
X29099Y85725D03*
%LNtop solder mask component bfe6143774099665*%
D20*
X38048Y94045D03*
X39748Y94045D03*
D21*
X36358Y94045D03*
X41438Y94045D03*
%LNtop solder mask component c1f03332e9856203*%
D16*
X10860Y32700D03*
X10860Y27620D03*
D32*
X10860Y31010D03*
X10860Y29310D03*
%LNtop solder mask component 863ca0b2a523c33c*%
D21*
X186817Y71831D03*
%LNtop solder mask component db7c6cb3d87cf7fe*%
D14*
X137900Y81645D03*
D15*
X142100Y78445D03*
X137900Y78445D03*
X142100Y81645D03*
X142100Y80045D03*
X137900Y80045D03*
%LNtop solder mask component 01839eb3658de517*%
D16*
X152990Y112500D03*
X152990Y110000D03*
X152990Y107500D03*
D17*
X160000Y114394D03*
X160000Y105606D03*
%LNtop solder mask component 2d214055c5945252*%
D21*
X147900Y39675D03*
%LNtop solder mask component a3a28f654af52e6d*%
D34*
X207635Y99775D03*
X207635Y101374D03*
%LNtop solder mask component aff9f134acc6d168*%
D21*
X126746Y41025D03*
%LNtop solder mask component 90a5760c096e9d9b*%
X186233Y40869D03*
%LNtop solder mask component c928a8fc3e3d20d2*%
D14*
X77900Y101645D03*
D15*
X82100Y98445D03*
X77900Y98445D03*
X82100Y101645D03*
X82100Y100045D03*
X77900Y100045D03*
%LNtop solder mask component b3d7406c263ee182*%
D14*
X157900Y101645D03*
D15*
X162100Y98445D03*
X157900Y98445D03*
X162100Y101645D03*
X162100Y100045D03*
X157900Y100045D03*
%LNtop solder mask component 28b624cef8888489*%
D16*
X33810Y99125D03*
%LNtop solder mask component ab9d65e67c875311*%
X172990Y112500D03*
X172990Y110000D03*
X172990Y107500D03*
D17*
X180000Y114394D03*
X180000Y105606D03*
%LNtop solder mask component 652fff0cf240bfb2*%
D26*
X212296Y93825D03*
X212296Y92225D03*
%LNtop solder mask component 707e6c11d1cca362*%
D20*
X48204Y101665D03*
X49904Y101665D03*
D21*
X46514Y101665D03*
X51594Y101665D03*
%LNtop solder mask component 92ba980cb6ada6c2*%
D14*
X57900Y121645D03*
D15*
X62100Y118445D03*
X57900Y118445D03*
X62100Y121645D03*
X62100Y120045D03*
X57900Y120045D03*
%LNtop solder mask component 5b22a68f09ffcba4*%
D27*
X26613Y31271D03*
X26613Y36351D03*
D28*
X26613Y32961D03*
X26613Y34661D03*
%LNtop solder mask component 5f39a1bbc8e10a34*%
D25*
X29451Y36262D03*
X29451Y34562D03*
%LNtop solder mask component 595a8c12c1f1384b*%
D16*
X192990Y112500D03*
X192990Y110000D03*
X192990Y107500D03*
D17*
X200000Y114394D03*
X200000Y105606D03*
%LNtop solder mask component 109cba4edaa46692*%
D21*
X64575Y72050D03*
%LNtop solder mask component 17d3a0ee983cedc9*%
D20*
X37999Y91505D03*
X39699Y91505D03*
D21*
X36309Y91505D03*
X41389Y91505D03*
%LNtop solder mask component 7c5862ef05c6b57e*%
D16*
X30000Y108286D03*
X30000Y103206D03*
D32*
X30000Y106596D03*
X30000Y104896D03*
%LNtop solder mask component d66d5715dd5ea0f6*%
D13*
X183912Y78450D03*
X185612Y78450D03*
%LNtop solder mask component 3ee2067a7940f73c*%
D20*
X38040Y112992D03*
X39740Y112992D03*
D21*
X36350Y112992D03*
X41430Y112992D03*
%LNtop solder mask component c3bb4e8e86108661*%
D14*
X117900Y81645D03*
D15*
X122100Y78445D03*
X117900Y78445D03*
X122100Y81645D03*
X122100Y80045D03*
X117900Y80045D03*
%LNtop solder mask component a545dc4cd47ee866*%
D16*
X33810Y78805D03*
%LNtop solder mask component 1090ed080a1beb2c*%
D13*
X83800Y98445D03*
X85500Y98445D03*
%LNtop solder mask component d72e272e4740b0c6*%
D16*
X10800Y110000D03*
X10800Y104920D03*
D32*
X10800Y108310D03*
X10800Y106610D03*
%LNtop solder mask component e02c3f52298e31bf*%
D21*
X168478Y40150D03*
%LNtop solder mask component a57d4a4026e36de8*%
D16*
X72990Y92500D03*
X72990Y90000D03*
X72990Y87500D03*
D17*
X80000Y94394D03*
X80000Y85606D03*
%LNtop solder mask component 49beb2a2a790b48d*%
D27*
X213925Y88925D03*
X213925Y94005D03*
D28*
X213925Y90615D03*
X213925Y92315D03*
%LNtop solder mask component 66a2352ef12547e6*%
D11*
X16090Y98275D03*
X11010Y98275D03*
D12*
X14400Y98275D03*
X12700Y98275D03*
%LNtop solder mask component 80fbe409ce6ad601*%
D13*
X53695Y83436D03*
X55395Y83436D03*
%LNtop solder mask component 0286a69b302c7373*%
D21*
X55975Y79250D03*
%LNtop solder mask component f2b8dcf9fc5b61b9*%
D13*
X203900Y118500D03*
X205600Y118500D03*
%LNtop solder mask component f46c31dedb484b98*%
D21*
X50000Y22860D03*
%LNtop solder mask component ddb2af37f6a94b60*%
D14*
X57900Y101645D03*
D15*
X62100Y98445D03*
X57900Y98445D03*
X62100Y101645D03*
X62100Y100045D03*
X57900Y100045D03*
%LNtop solder mask component b52b50502c51dacb*%
D14*
X197900Y101645D03*
D15*
X202100Y98445D03*
X197900Y98445D03*
X202100Y101645D03*
X202100Y100045D03*
X197900Y100045D03*
%LNtop solder mask component afb2019f5953c4e2*%
D20*
X38119Y107997D03*
X39819Y107997D03*
D21*
X36429Y107997D03*
X41509Y107997D03*
%LNtop solder mask component 807992e83262e177*%
D14*
X117900Y121645D03*
D15*
X122100Y118445D03*
X117900Y118445D03*
X122100Y121645D03*
X122100Y120045D03*
X117900Y120045D03*
%LNtop solder mask component e7393894ce705798*%
D20*
X38119Y103825D03*
X39819Y103825D03*
D21*
X36429Y103825D03*
X41509Y103825D03*
%LNtop solder mask component e182ecc0a0b9ab00*%
D13*
X163850Y98445D03*
X165550Y98445D03*
%LNtop solder mask component 04f20976e88c6656*%
D21*
X204400Y72974D03*
%LNtop solder mask component 9838140f6d8fc3a3*%
D11*
X32440Y83425D03*
X27360Y83425D03*
D12*
X30750Y83425D03*
X29050Y83425D03*
%LNtop solder mask component 19f5bff069822602*%
D35*
X208590Y92210D03*
X208590Y93910D03*
%LNtop solder mask component 2855dc77c2e8dde1*%
D13*
X7265Y90315D03*
X8965Y90315D03*
%LNtop solder mask component 4de6dc9ddc697575*%
D16*
X213404Y111730D03*
X213404Y106650D03*
D32*
X213404Y110040D03*
X213404Y108340D03*
%LNtop solder mask component d1bccda1b464fd03*%
D16*
X3000Y106680D03*
X3000Y104140D03*
X3000Y101600D03*
X3000Y99060D03*
X3000Y96520D03*
X3000Y93980D03*
X3000Y91440D03*
X3000Y88900D03*
X3000Y86360D03*
X3000Y83820D03*
X3000Y81280D03*
X3000Y78740D03*
X3000Y76200D03*
X3000Y73660D03*
X3000Y71120D03*
X3000Y68580D03*
X3000Y66040D03*
X3000Y63500D03*
X3075Y60960D03*
X3000Y58420D03*
X3000Y55880D03*
X3000Y53340D03*
X3000Y50800D03*
X3000Y48260D03*
X3075Y45720D03*
X3000Y43180D03*
X3075Y40640D03*
X3000Y38100D03*
X3000Y35560D03*
X3000Y33020D03*
X3000Y30480D03*
X3000Y27940D03*
X3000Y25400D03*
X3000Y22860D03*
X3000Y20320D03*
X3000Y17780D03*
X3000Y15240D03*
X3000Y12700D03*
X3075Y10160D03*
D46*
X3000Y109220D03*
%LNtop solder mask component 8161a00624e99dd4*%
D21*
X129975Y74400D03*
%LNtop solder mask component be6dae4a381f52ea*%
D16*
X16030Y78755D03*
%LNtop solder mask component e90434b9302ec0b9*%
D20*
X38040Y115541D03*
X39740Y115541D03*
D21*
X36350Y115541D03*
X41430Y115541D03*
%LNtop solder mask component 76e5300c46c5832f*%
D34*
X215265Y91098D03*
X215265Y92697D03*
%LNtop solder mask component 42107fc99cd43302*%
D20*
X22525Y102781D03*
X24225Y102781D03*
D21*
X20835Y102781D03*
X25915Y102781D03*
%LNtop solder mask component fca1a590c33dcb53*%
D16*
X5450Y93980D03*
X5450Y88900D03*
D32*
X5450Y92290D03*
X5450Y90590D03*
%LNtop solder mask component 175f9e2f385f0166*%
D27*
X208875Y102435D03*
X208875Y107515D03*
D28*
X208875Y104125D03*
X208875Y105825D03*
%LNtop solder mask component 45386d5e65213c57*%
D27*
X5540Y38100D03*
X5540Y43180D03*
D28*
X5540Y39790D03*
X5540Y41490D03*
%LNtop solder mask component 8d9dea7f49d2440b*%
D47*
X50636Y80290D03*
D48*
X50636Y79640D03*
X50636Y78990D03*
X50636Y78340D03*
D49*
X54036Y78340D03*
X54036Y78990D03*
X54036Y79640D03*
X54036Y80290D03*
%LNtop solder mask component fb25c8ebd593f1df*%
D18*
X33400Y32700D03*
D19*
X33400Y30000D03*
X33400Y27300D03*
X37300Y23400D03*
X40000Y23400D03*
X42700Y23400D03*
X40000Y34600D03*
X44600Y30000D03*
%LNtop solder mask component 037ab21f56739a3d*%
D13*
X123900Y98445D03*
X125600Y98445D03*
%LNtop solder mask component 620a4f717f976fc9*%
D16*
X10950Y78755D03*
%LNtop solder mask component 4cda8897de2b8f63*%
D11*
X41430Y110537D03*
X36350Y110537D03*
D12*
X39740Y110537D03*
X38040Y110537D03*
%LNtop solder mask component cf01b5d8126ae9b4*%
D14*
X137900Y121645D03*
D15*
X142100Y118445D03*
X137900Y118445D03*
X142100Y121645D03*
X142100Y120045D03*
X137900Y120045D03*
%LNtop solder mask component fcb33d2da6a8351b*%
D27*
X208879Y78248D03*
X208879Y83328D03*
D28*
X208879Y79938D03*
X208879Y81638D03*
%LNtop solder mask component 58632b713c9df017*%
D13*
X42890Y83550D03*
X44590Y83550D03*
%LNtop solder mask component 1902cf21c92c7046*%
D16*
X31270Y99125D03*
M02*