%FSLAX33Y33*%
%MOMM*%
%AMRect-W2403400-H3200000-RO0.500*
21,1,2.4034,3.2,0.,0.,270*%
%AMRect-W1650000-H1650000-RO0.500*
21,1,1.65,1.65,0.,0.,270*%
%AMRect-W1600000-H1600000-RO0.500*
21,1,1.6,1.6,0.,0.,270*%
%ADD10C,1.0668*%
%ADD11C,1.6*%
%ADD12C,1.6*%
%ADD13Rect-W2403400-H3200000-RO0.500*%
%ADD14R,1.8X1.8*%
%ADD15C,1.8*%
%ADD16C,1.6*%
%ADD17C,1.6*%
%ADD18R,1.62X1.62*%
%ADD19C,1.62*%
%ADD20R,1.6X1.6*%
%ADD21C,1.65*%
%ADD22Rect-W1650000-H1650000-RO0.500*%
%ADD23Rect-W1600000-H1600000-RO0.500*%
D10*
%LNbottom solder mask_traces*%
G01*
X206550Y86736D03*
X34925Y85500D03*
X5017Y106950D03*
X196309Y118554D03*
X55765Y107225D03*
X90825Y86425D03*
X66400Y106275D03*
X210725Y17275D03*
X200325Y89875D03*
X31275Y36450D03*
X18700Y74725D03*
X210375Y82900D03*
X59792Y126500D03*
X109125Y87400D03*
X12052Y40500D03*
X8718Y101803D03*
X156210Y78445D03*
X28376Y38225D03*
X207294Y103556D03*
X27750Y87308D03*
X52584Y75750D03*
X68707Y118554D03*
X63850Y88275D03*
X8300Y35775D03*
X213475Y25175D03*
X199848Y98990D03*
X116332Y98445D03*
X68700Y83175D03*
X36244Y82325D03*
X64235Y94125D03*
X215175Y96333D03*
X19650Y81800D03*
X67218Y108687D03*
X8750Y40675D03*
X75150Y83185D03*
X21325Y100725D03*
X215575Y41525D03*
X4656Y85825D03*
X186495Y98990D03*
X12400Y58425D03*
X127229Y78475D03*
X215300Y97975D03*
X107467Y98323D03*
X8875Y80445D03*
X162325Y17525D03*
X90175Y85100D03*
X203350Y87821D03*
X88775Y103925D03*
X201016Y75844D03*
X204225Y93400D03*
X156362Y118445D03*
X187096Y118450D03*
X211060Y103022D03*
X212500Y86736D03*
X206705Y73304D03*
X23800Y81645D03*
X63675Y106275D03*
X197450Y88925D03*
X36275Y28725D03*
X29016Y41450D03*
X42725Y95325D03*
X213267Y96150D03*
X208340Y95725D03*
X135865Y118445D03*
X75336Y94310D03*
X109400Y84950D03*
X209600Y95175D03*
X86919Y118575D03*
X7600Y86725D03*
X55640Y85670D03*
X29550Y29971D03*
X8750Y55850D03*
X10975Y74150D03*
X76417Y78562D03*
X71671Y88775D03*
X36150Y35540D03*
X116180Y78445D03*
X9100Y86875D03*
X30887Y79481D03*
X31525Y39990D03*
X50475Y74261D03*
X187975Y96660D03*
X23580Y79025D03*
X214650Y32075D03*
X26625Y114422D03*
X190475Y76212D03*
X13925Y95975D03*
X15981Y121900D03*
X127229Y118425D03*
X18650Y123475D03*
X39500Y79500D03*
X186950Y78450D03*
X19950Y80125D03*
X39484Y77750D03*
X146990Y78500D03*
X10975Y39750D03*
X6000Y60960D03*
X176200Y118445D03*
X147396Y118425D03*
X8592Y99035D03*
X29554Y21488D03*
X149125Y16450D03*
X215775Y110675D03*
X45466Y113716D03*
X210015Y110693D03*
X36700Y105855D03*
X15100Y75050D03*
X48600Y79900D03*
X46330Y89810D03*
X35843Y79431D03*
X204750Y92116D03*
X36150Y31164D03*
X8875Y82085D03*
X116154Y118445D03*
X54550Y109225D03*
X168199Y118450D03*
X33550Y72050D03*
X215500Y40175D03*
X6325Y86875D03*
X169800Y94125D03*
X107865Y86400D03*
X210490Y96590D03*
X16650Y104050D03*
X25450Y10025D03*
X32106Y94500D03*
X96317Y98445D03*
X72187Y82296D03*
X171150Y103625D03*
X75150Y86950D03*
X76860Y90068D03*
X96575Y17450D03*
X6400Y80550D03*
X35125Y73450D03*
X34925Y94700D03*
X184510Y92275D03*
X40525Y20650D03*
X180035Y98552D03*
X45985Y85055D03*
X208559Y72060D03*
X86766Y98349D03*
X17475Y86284D03*
X178003Y118445D03*
X36650Y27300D03*
X215350Y38725D03*
X204591Y116916D03*
X136246Y98349D03*
X59848Y116561D03*
X48231Y84494D03*
X91025Y103925D03*
X184800Y17450D03*
X11650Y61325D03*
X214224Y86450D03*
X12500Y38225D03*
X215300Y99471D03*
X105075Y16425D03*
X58304Y87454D03*
X45600Y10000D03*
X25265Y83142D03*
X193075Y16575D03*
X32489Y87525D03*
X128975Y84625D03*
X68704Y93675D03*
X147142Y98445D03*
X215775Y105175D03*
X34925Y83075D03*
X176301Y78450D03*
X212675Y90148D03*
X110500Y86175D03*
X17165Y84322D03*
X19700Y95750D03*
X62331Y108550D03*
X47015Y91829D03*
X32410Y41750D03*
X75336Y98480D03*
X29454Y39125D03*
X167157Y98445D03*
X167157Y78450D03*
X26311Y105000D03*
X204750Y87075D03*
X57981Y108550D03*
X27844Y26925D03*
X57950Y107225D03*
X209956Y76581D03*
X136169Y78445D03*
X126797Y98445D03*
X32000Y22000D03*
X55765Y108550D03*
X96291Y118445D03*
X21365Y73850D03*
X56856Y115189D03*
X46482Y86850D03*
X58297Y83400D03*
X91821Y82398D03*
X168250Y94125D03*
X201975Y88525D03*
X64850Y108225D03*
X89070Y84375D03*
X28050Y33331D03*
X87351Y78450D03*
X14605Y93029D03*
X42554Y85104D03*
X132900Y16375D03*
X59848Y78303D03*
X45250Y77535D03*
X211600Y85806D03*
X15750Y105100D03*
X16675Y114249D03*
X29075Y74125D03*
X213677Y97392D03*
X25601Y38225D03*
X25280Y85505D03*
X88350Y86725D03*
X67158Y78445D03*
X25225Y79675D03*
X55575Y99339D03*
X87200Y85700D03*
X27203Y80750D03*
X80775Y78990D03*
X183900Y90025D03*
X56225Y87250D03*
X32500Y73150D03*
X56200Y110875D03*
X32775Y102900D03*
X212421Y103705D03*
X184200Y95377D03*
X211060Y107163D03*
X64198Y114071D03*
X140800Y17375D03*
X48975Y126111D03*
X63825Y91450D03*
X36275Y33921D03*
X171350Y16100D03*
X65600Y97075D03*
X127475Y86050D03*
X56525Y73491D03*
X76302Y118445D03*
X42725Y97714D03*
X25500Y24380D03*
X63671Y84550D03*
X210875Y33125D03*
X209750Y92838D03*
X9850Y83790D03*
X216275Y103200D03*
X167000Y83875D03*
X208767Y74524D03*
X11287Y71200D03*
X22887Y26388D03*
X36906Y32207D03*
X56225Y88764D03*
X10350Y90750D03*
X22500Y72100D03*
X30485Y37490D03*
X59792Y119232D03*
X63825Y86500D03*
X213625Y115200D03*
X75150Y18200D03*
X199945Y78990D03*
X11218Y86300D03*
X59487Y79930D03*
X106934Y78445D03*
X56900Y84252D03*
X34050Y36144D03*
X94894Y78445D03*
X59848Y98990D03*
X34825Y23500D03*
X75006Y90068D03*
X11520Y24654D03*
X203875Y101645D03*
X11850Y42325D03*
X168294Y103175D03*
X29421Y80750D03*
X211825Y72975D03*
X4500Y105290D03*
X106883Y118475D03*
X211125Y56975D03*
X155677Y98323D03*
X83125Y16425D03*
X63825Y90000D03*
X45244Y106250D03*
%LNbottom solder mask component 2cb417fd89b64ff1*%
D11*
X70675Y125755D03*
X65595Y125755D03*
%LNbottom solder mask component 2e96c5ec09cc2bff*%
D12*
X43970Y78805D03*
%LNbottom solder mask component c7283ee94d66bc59*%
X92990Y92500D03*
X92990Y90000D03*
X92990Y87500D03*
D13*
X100000Y94394D03*
X100000Y85606D03*
%LNbottom solder mask component 7be21fa8212241c2*%
D14*
X13400Y32700D03*
D15*
X13400Y30000D03*
X13400Y27300D03*
X17300Y23400D03*
X20000Y23400D03*
X22700Y23400D03*
X20000Y34600D03*
X24600Y30000D03*
%LNbottom solder mask component 87d4757989b5faab*%
D16*
X46514Y104205D03*
X51594Y104205D03*
%LNbottom solder mask component fae2ab7ca5d4c9bc*%
X67425Y42675D03*
%LNbottom solder mask component 0c936e703266551f*%
X50000Y10160D03*
%LNbottom solder mask component 58a1288a180aeb08*%
D17*
X207025Y78248D03*
X207025Y83328D03*
%LNbottom solder mask component cfb32474af56c8fe*%
D18*
X13510Y88975D03*
D19*
X16050Y88975D03*
X18590Y88975D03*
X21130Y88975D03*
X23670Y88975D03*
X26210Y88975D03*
X28750Y88975D03*
X31290Y88975D03*
X13510Y91515D03*
X16050Y91515D03*
X18590Y91515D03*
X21130Y91515D03*
X23670Y91515D03*
X26210Y91515D03*
X28750Y91515D03*
X31290Y91515D03*
%LNbottom solder mask component edd2f8c4690b01ba*%
D16*
X46050Y50343D03*
%LNbottom solder mask component 7d0a4e2d061378cf*%
D11*
X41438Y83885D03*
X36358Y83885D03*
%LNbottom solder mask component 19b7ae7034783336*%
D12*
X214348Y83395D03*
X214348Y78315D03*
%LNbottom solder mask component 3cf36ddb64d95e52*%
D17*
X212350Y78315D03*
X212350Y83395D03*
%LNbottom solder mask component 32cc1e32022eae04*%
X7050Y102935D03*
X7050Y108015D03*
%LNbottom solder mask component adf83d82d2d88d45*%
D16*
X45949Y70725D03*
%LNbottom solder mask component 840a2754f238af4d*%
D12*
X43970Y99125D03*
%LNbottom solder mask component e9789fece648f183*%
X92990Y112500D03*
X92990Y110000D03*
X92990Y107500D03*
D13*
X100000Y114394D03*
X100000Y105606D03*
%LNbottom solder mask component 5154ed8cd176cc8c*%
D12*
X41430Y99125D03*
%LNbottom solder mask component d62bc96d87e5019c*%
D16*
X50000Y2540D03*
%LNbottom solder mask component 28689b4c8158a79f*%
D11*
X74390Y78445D03*
X69310Y78445D03*
%LNbottom solder mask component ffc4da092a9a4fc5*%
D12*
X28730Y99125D03*
%LNbottom solder mask component 44887bd3d44aa71f*%
X8745Y114365D03*
X8745Y109285D03*
%LNbottom solder mask component 5baf418b44386f3e*%
D11*
X41509Y101841D03*
X36429Y101841D03*
%LNbottom solder mask component 89ac62f37abc9e14*%
D12*
X21110Y99125D03*
%LNbottom solder mask component c392bcdfea8d8ea2*%
D16*
X47780Y115900D03*
%LNbottom solder mask component e784ba3ac1935508*%
D17*
X31700Y106776D03*
X31700Y111856D03*
%LNbottom solder mask component 01c081f32b57dd17*%
D12*
X12990Y112500D03*
X12990Y110000D03*
X12990Y107500D03*
D13*
X20000Y114394D03*
X20000Y105606D03*
%LNbottom solder mask component 4ad53e7247cb7795*%
D12*
X192990Y92500D03*
X192990Y90000D03*
X192990Y87500D03*
D13*
X200000Y94394D03*
X200000Y85606D03*
%LNbottom solder mask component 3657576657a30115*%
D16*
X50000Y5080D03*
%LNbottom solder mask component 3f41394d43e5d88f*%
X10225Y115525D03*
%LNbottom solder mask component 37922efdc8d51755*%
D20*
X10975Y76265D03*
D16*
X13515Y76265D03*
X16055Y76265D03*
X18595Y76265D03*
X21135Y76265D03*
X23675Y76265D03*
X26215Y76265D03*
X28755Y76265D03*
X31295Y76265D03*
X33835Y76265D03*
X36375Y76265D03*
X38915Y76265D03*
X41455Y76265D03*
X43995Y76265D03*
X46535Y76265D03*
X49075Y76265D03*
X49075Y96585D03*
X46535Y96585D03*
X43995Y96585D03*
X41455Y96585D03*
X38915Y96585D03*
X36375Y96585D03*
X33835Y96585D03*
X31295Y96585D03*
X28755Y96585D03*
X26215Y96585D03*
X23675Y96585D03*
X21135Y96585D03*
%LNbottom solder mask component aa580201ffaa89d6*%
X50000Y20320D03*
%LNbottom solder mask component af1981297f4010f7*%
D12*
X23650Y99125D03*
%LNbottom solder mask component b8b07e4af1db7061*%
D11*
X57975Y125755D03*
X52895Y125755D03*
%LNbottom solder mask component 110faed1cc146b02*%
D17*
X33300Y110636D03*
X33300Y115716D03*
%LNbottom solder mask component f7b75df1bdf2f181*%
D16*
X50000Y25400D03*
%LNbottom solder mask component 03a6b9848fb8370e*%
X107747Y41650D03*
%LNbottom solder mask component 22e543a28086d96e*%
D11*
X70675Y123215D03*
X65595Y123215D03*
%LNbottom solder mask component dece1cff8e284f1a*%
D12*
X36358Y99125D03*
%LNbottom solder mask component 7fd2e291fd359170*%
D16*
X50000Y27940D03*
%LNbottom solder mask component 7a75119600317b29*%
D12*
X152990Y92500D03*
X152990Y90000D03*
X152990Y87500D03*
D13*
X160000Y94394D03*
X160000Y85606D03*
%LNbottom solder mask component 7583a494c62a08c3*%
D16*
X50000Y15240D03*
%LNbottom solder mask component 2ce9bceb47a0c645*%
D21*
X52860Y120650D03*
X50320Y120650D03*
X47780Y120650D03*
X45240Y120650D03*
X42700Y120650D03*
X40160Y120650D03*
X37620Y120650D03*
X35080Y120650D03*
X32540Y120650D03*
X30000Y120650D03*
X27460Y120650D03*
X24920Y120650D03*
X22380Y120650D03*
X19840Y120650D03*
X17300Y120650D03*
X14760Y120650D03*
X12220Y120650D03*
X9680Y120650D03*
X7140Y120650D03*
X55400Y118110D03*
X52860Y118110D03*
X50320Y118110D03*
X47780Y118110D03*
X45240Y118110D03*
X42700Y118110D03*
X40160Y118110D03*
X37620Y118110D03*
X35080Y118110D03*
X32540Y118110D03*
X30000Y118110D03*
X27460Y118110D03*
X24920Y118110D03*
X22380Y118110D03*
X19840Y118110D03*
X17300Y118110D03*
X14760Y118110D03*
X12220Y118110D03*
X9680Y118110D03*
X7140Y118110D03*
D22*
X55400Y120650D03*
%LNbottom solder mask component d1b8988840d6d78f*%
D12*
X46510Y78805D03*
%LNbottom solder mask component c2943c2eaca65d4c*%
X132990Y92500D03*
X132990Y90000D03*
X132990Y87500D03*
D13*
X140000Y94394D03*
X140000Y85606D03*
%LNbottom solder mask component b8f167eb817f45c9*%
D12*
X13490Y83835D03*
X13490Y78755D03*
%LNbottom solder mask component 8d773e40d9ff8c97*%
D16*
X50177Y123047D03*
X55257Y123047D03*
%LNbottom solder mask component f5ef1cec2031dca3*%
D12*
X52990Y112500D03*
X52990Y110000D03*
X52990Y107500D03*
D13*
X60000Y114394D03*
X60000Y105606D03*
%LNbottom solder mask component 8daf806579074e6c*%
D16*
X50000Y12700D03*
%LNbottom solder mask component 20eaf199acc821e9*%
X87675Y42300D03*
%LNbottom solder mask component 835bc4b13f0791df*%
X7140Y115525D03*
%LNbottom solder mask component 051bcd12e4b16a5d*%
X26441Y69475D03*
%LNbottom solder mask component 2707fcd6ab92e018*%
D12*
X132990Y112500D03*
X132990Y110000D03*
X132990Y107500D03*
D13*
X140000Y114394D03*
X140000Y105606D03*
%LNbottom solder mask component fa4b46b3c3d02d04*%
D16*
X48375Y78075D03*
%LNbottom solder mask component 15295c3f1cff3500*%
X45240Y115825D03*
%LNbottom solder mask component f89053a2e4f60840*%
D12*
X5560Y35565D03*
X5560Y30485D03*
%LNbottom solder mask component 52a1b1ca2b1d3003*%
D16*
X146400Y72034D03*
%LNbottom solder mask component 18194bf12f70f194*%
D12*
X72990Y112500D03*
X72990Y110000D03*
X72990Y107500D03*
D13*
X80000Y114394D03*
X80000Y105606D03*
%LNbottom solder mask component 5a332b9c7c6b454e*%
D17*
X8500Y27620D03*
X8500Y32700D03*
%LNbottom solder mask component 549c3aea35d079e6*%
D12*
X112990Y92500D03*
X112990Y90000D03*
X112990Y87500D03*
D13*
X120000Y94394D03*
X120000Y85606D03*
%LNbottom solder mask component 3d096520bff5873b*%
D12*
X205725Y102435D03*
X205725Y97355D03*
%LNbottom solder mask component 76bc64773c60f07c*%
D17*
X3000Y119380D03*
X3000Y121920D03*
%LNbottom solder mask component 2b1495a865a6849a*%
D16*
X208450Y52325D03*
%LNbottom solder mask component 0140c6c654e9dc5b*%
X50000Y33020D03*
%LNbottom solder mask component 3b85729fa308793e*%
X105450Y71925D03*
%LNbottom solder mask component 3244838e2437b951*%
D12*
X5850Y58400D03*
X5850Y53320D03*
%LNbottom solder mask component 4705e07a40114c09*%
D16*
X36309Y86425D03*
X41389Y86425D03*
%LNbottom solder mask component 01015ca45b8bb0bc*%
D11*
X72465Y98455D03*
X67385Y98455D03*
%LNbottom solder mask component 794c30c688ef4a1d*%
D16*
X55800Y81750D03*
%LNbottom solder mask component ef78370791fd3d8b*%
D11*
X41389Y88965D03*
X36309Y88965D03*
%LNbottom solder mask component 7affad552c8f2dee*%
D12*
X112990Y112500D03*
X112990Y110000D03*
X112990Y107500D03*
D13*
X120000Y114394D03*
X120000Y105606D03*
%LNbottom solder mask component f5aa278a4338d0a7*%
D12*
X52990Y92500D03*
X52990Y90000D03*
X52990Y87500D03*
D13*
X60000Y94394D03*
X60000Y85606D03*
%LNbottom solder mask component 948a008d14176e07*%
D16*
X50000Y17780D03*
%LNbottom solder mask component adc1909596e3bd48*%
X50000Y38100D03*
%LNbottom solder mask component ab6498ba432a0b55*%
X11160Y101525D03*
X16240Y101525D03*
%LNbottom solder mask component 3c2ce17cf2a01d3a*%
X88250Y72475D03*
%LNbottom solder mask component 020795961396f96f*%
X166450Y71120D03*
%LNbottom solder mask component 179472fd52466dca*%
D12*
X38890Y99125D03*
%LNbottom solder mask component 91ad611b2d09aec1*%
D16*
X50000Y30480D03*
%LNbottom solder mask component 1aa80e2305d3c3f5*%
X63706Y116850D03*
X68786Y116850D03*
%LNbottom solder mask component 7402d1aeef7f3f20*%
X50000Y35560D03*
%LNbottom solder mask component 478e18b4a5e21ed9*%
D17*
X3000Y114300D03*
X3000Y116840D03*
%LNbottom solder mask component 4bb94fafb42cfb5f*%
D12*
X172990Y92500D03*
X172990Y90000D03*
X172990Y87500D03*
D13*
X180000Y94394D03*
X180000Y85606D03*
%LNbottom solder mask component e8b37e7f08e4b4ce*%
D11*
X51594Y99125D03*
X46514Y99125D03*
%LNbottom solder mask component 511370af6c7919eb*%
D16*
X26111Y50495D03*
%LNbottom solder mask component 264957ead632d6c1*%
D11*
X32489Y85725D03*
X27409Y85725D03*
%LNbottom solder mask component bfe6143774099665*%
D16*
X36358Y94045D03*
X41438Y94045D03*
%LNbottom solder mask component c1f03332e9856203*%
D12*
X10860Y32700D03*
X10860Y27620D03*
%LNbottom solder mask component 863ca0b2a523c33c*%
D16*
X186817Y71831D03*
%LNbottom solder mask component 01839eb3658de517*%
D12*
X152990Y112500D03*
X152990Y110000D03*
X152990Y107500D03*
D13*
X160000Y114394D03*
X160000Y105606D03*
%LNbottom solder mask component 2d214055c5945252*%
D16*
X147900Y39675D03*
%LNbottom solder mask component aff9f134acc6d168*%
X126746Y41025D03*
%LNbottom solder mask component 90a5760c096e9d9b*%
X186233Y40869D03*
%LNbottom solder mask component 28b624cef8888489*%
D12*
X33810Y99125D03*
%LNbottom solder mask component ab9d65e67c875311*%
X172990Y112500D03*
X172990Y110000D03*
X172990Y107500D03*
D13*
X180000Y114394D03*
X180000Y105606D03*
%LNbottom solder mask component 707e6c11d1cca362*%
D16*
X46514Y101665D03*
X51594Y101665D03*
%LNbottom solder mask component 5b22a68f09ffcba4*%
D17*
X26613Y31271D03*
X26613Y36351D03*
%LNbottom solder mask component 595a8c12c1f1384b*%
D12*
X192990Y112500D03*
X192990Y110000D03*
X192990Y107500D03*
D13*
X200000Y114394D03*
X200000Y105606D03*
%LNbottom solder mask component 109cba4edaa46692*%
D16*
X64575Y72050D03*
%LNbottom solder mask component 17d3a0ee983cedc9*%
X36309Y91505D03*
X41389Y91505D03*
%LNbottom solder mask component 7c5862ef05c6b57e*%
D12*
X30000Y108286D03*
X30000Y103206D03*
%LNbottom solder mask component 3ee2067a7940f73c*%
D16*
X36350Y112992D03*
X41430Y112992D03*
%LNbottom solder mask component a545dc4cd47ee866*%
D12*
X33810Y78805D03*
%LNbottom solder mask component d72e272e4740b0c6*%
X10800Y110000D03*
X10800Y104920D03*
%LNbottom solder mask component e02c3f52298e31bf*%
D16*
X168478Y40150D03*
%LNbottom solder mask component a57d4a4026e36de8*%
D12*
X72990Y92500D03*
X72990Y90000D03*
X72990Y87500D03*
D13*
X80000Y94394D03*
X80000Y85606D03*
%LNbottom solder mask component 49beb2a2a790b48d*%
D17*
X213925Y88925D03*
X213925Y94005D03*
%LNbottom solder mask component 66a2352ef12547e6*%
D11*
X16090Y98275D03*
X11010Y98275D03*
%LNbottom solder mask component 0286a69b302c7373*%
D16*
X55975Y79250D03*
%LNbottom solder mask component f46c31dedb484b98*%
X50000Y22860D03*
%LNbottom solder mask component afb2019f5953c4e2*%
X36429Y107997D03*
X41509Y107997D03*
%LNbottom solder mask component e7393894ce705798*%
X36429Y103825D03*
X41509Y103825D03*
%LNbottom solder mask component 04f20976e88c6656*%
X204400Y72974D03*
%LNbottom solder mask component 9838140f6d8fc3a3*%
D11*
X32440Y83425D03*
X27360Y83425D03*
%LNbottom solder mask component 4de6dc9ddc697575*%
D12*
X213404Y111730D03*
X213404Y106650D03*
%LNbottom solder mask component d1bccda1b464fd03*%
X3000Y106680D03*
X3000Y104140D03*
X3000Y101600D03*
X3000Y99060D03*
X3000Y96520D03*
X3000Y93980D03*
X3000Y91440D03*
X3000Y88900D03*
X3000Y86360D03*
X3000Y83820D03*
X3000Y81280D03*
X3000Y78740D03*
X3000Y76200D03*
X3000Y73660D03*
X3000Y71120D03*
X3000Y68580D03*
X3000Y66040D03*
X3000Y63500D03*
X3075Y60960D03*
X3000Y58420D03*
X3000Y55880D03*
X3000Y53340D03*
X3000Y50800D03*
X3000Y48260D03*
X3075Y45720D03*
X3000Y43180D03*
X3075Y40640D03*
X3000Y38100D03*
X3000Y35560D03*
X3000Y33020D03*
X3000Y30480D03*
X3000Y27940D03*
X3000Y25400D03*
X3000Y22860D03*
X3000Y20320D03*
X3000Y17780D03*
X3000Y15240D03*
X3000Y12700D03*
X3075Y10160D03*
D23*
X3000Y109220D03*
%LNbottom solder mask component 8161a00624e99dd4*%
D16*
X129975Y74400D03*
%LNbottom solder mask component be6dae4a381f52ea*%
D12*
X16030Y78755D03*
%LNbottom solder mask component e90434b9302ec0b9*%
D16*
X36350Y115541D03*
X41430Y115541D03*
%LNbottom solder mask component 42107fc99cd43302*%
X20835Y102781D03*
X25915Y102781D03*
%LNbottom solder mask component fca1a590c33dcb53*%
D12*
X5450Y93980D03*
X5450Y88900D03*
%LNbottom solder mask component 175f9e2f385f0166*%
D17*
X208875Y102435D03*
X208875Y107515D03*
%LNbottom solder mask component 45386d5e65213c57*%
X5540Y38100D03*
X5540Y43180D03*
%LNbottom solder mask component fb25c8ebd593f1df*%
D14*
X33400Y32700D03*
D15*
X33400Y30000D03*
X33400Y27300D03*
X37300Y23400D03*
X40000Y23400D03*
X42700Y23400D03*
X40000Y34600D03*
X44600Y30000D03*
%LNbottom solder mask component 620a4f717f976fc9*%
D12*
X10950Y78755D03*
%LNbottom solder mask component 4cda8897de2b8f63*%
D11*
X41430Y110537D03*
X36350Y110537D03*
%LNbottom solder mask component fcb33d2da6a8351b*%
D17*
X208879Y78248D03*
X208879Y83328D03*
%LNbottom solder mask component 1902cf21c92c7046*%
D12*
X31270Y99125D03*
M02*