G04 #@! TF.FileFunction,Legend,Bot*
%FSLAX46Y46*%
G04 Gerber Fmt 4.6, Leading zero omitted, Abs format (unit mm)*
G04 Created by KiCad (PCBNEW 4.0.4-stable) date 03/02/17 16:11:59*
%MOMM*%
%LPD*%
G01*
G04 APERTURE LIST*
%ADD10C,0.100000*%
%ADD11C,0.187500*%
%ADD12C,0.200000*%
%ADD13C,0.150000*%
%ADD14C,0.125000*%
%ADD15C,0.120000*%
G04 APERTURE END LIST*
D10*
D11*
X184713571Y63339464D02*
X184285000Y63339464D01*
X184499286Y62589464D02*
X184499286Y63339464D01*
X184035000Y62589464D02*
X184035000Y63339464D01*
X183749285Y63339464D01*
X183677857Y63303750D01*
X183642142Y63268036D01*
X183606428Y63196607D01*
X183606428Y63089464D01*
X183642142Y63018036D01*
X183677857Y62982321D01*
X183749285Y62946607D01*
X184035000Y62946607D01*
X182749285Y62625179D02*
X182677856Y62589464D01*
X182534999Y62589464D01*
X182463571Y62625179D01*
X182427856Y62696607D01*
X182427856Y62732321D01*
X182463571Y62803750D01*
X182534999Y62839464D01*
X182642142Y62839464D01*
X182713571Y62875179D01*
X182749285Y62946607D01*
X182749285Y62982321D01*
X182713571Y63053750D01*
X182642142Y63089464D01*
X182534999Y63089464D01*
X182463571Y63053750D01*
X182106428Y62589464D02*
X182106428Y63339464D01*
X181784999Y62589464D02*
X181784999Y62982321D01*
X181820713Y63053750D01*
X181892142Y63089464D01*
X181999285Y63089464D01*
X182070713Y63053750D01*
X182106428Y63018036D01*
X181320714Y62589464D02*
X181392142Y62625179D01*
X181427857Y62660893D01*
X181463571Y62732321D01*
X181463571Y62946607D01*
X181427857Y63018036D01*
X181392142Y63053750D01*
X181320714Y63089464D01*
X181213571Y63089464D01*
X181142142Y63053750D01*
X181106428Y63018036D01*
X181070714Y62946607D01*
X181070714Y62732321D01*
X181106428Y62660893D01*
X181142142Y62625179D01*
X181213571Y62589464D01*
X181320714Y62589464D01*
X180820714Y63089464D02*
X180677857Y62589464D01*
X180535000Y62946607D01*
X180392143Y62589464D01*
X180249286Y63089464D01*
X179463571Y63089464D02*
X179320714Y62589464D01*
X179177857Y62946607D01*
X179035000Y62589464D01*
X178892143Y63089464D01*
X178606429Y62589464D02*
X178606429Y63339464D01*
X178285000Y62589464D02*
X178285000Y62982321D01*
X178320714Y63053750D01*
X178392143Y63089464D01*
X178499286Y63089464D01*
X178570714Y63053750D01*
X178606429Y63018036D01*
X177927858Y62589464D02*
X177927858Y63089464D01*
X177927858Y63339464D02*
X177963572Y63303750D01*
X177927858Y63268036D01*
X177892143Y63303750D01*
X177927858Y63339464D01*
X177927858Y63268036D01*
X177249286Y62625179D02*
X177320715Y62589464D01*
X177463572Y62589464D01*
X177535000Y62625179D01*
X177570715Y62660893D01*
X177606429Y62732321D01*
X177606429Y62946607D01*
X177570715Y63018036D01*
X177535000Y63053750D01*
X177463572Y63089464D01*
X177320715Y63089464D01*
X177249286Y63053750D01*
X176927858Y62589464D02*
X176927858Y63339464D01*
X176606429Y62589464D02*
X176606429Y62982321D01*
X176642143Y63053750D01*
X176713572Y63089464D01*
X176820715Y63089464D01*
X176892143Y63053750D01*
X176927858Y63018036D01*
X175677858Y62589464D02*
X175677858Y63339464D01*
X175677858Y63053750D02*
X175606429Y63089464D01*
X175463572Y63089464D01*
X175392143Y63053750D01*
X175356429Y63018036D01*
X175320715Y62946607D01*
X175320715Y62732321D01*
X175356429Y62660893D01*
X175392143Y62625179D01*
X175463572Y62589464D01*
X175606429Y62589464D01*
X175677858Y62625179D01*
X174999287Y62589464D02*
X174999287Y63089464D01*
X174999287Y63339464D02*
X175035001Y63303750D01*
X174999287Y63268036D01*
X174963572Y63303750D01*
X174999287Y63339464D01*
X174999287Y63268036D01*
X174749286Y63089464D02*
X174463572Y63089464D01*
X174642144Y63339464D02*
X174642144Y62696607D01*
X174606429Y62625179D01*
X174535001Y62589464D01*
X174463572Y62589464D01*
X173356429Y62625179D02*
X173427858Y62589464D01*
X173570715Y62589464D01*
X173642144Y62625179D01*
X173677858Y62696607D01*
X173677858Y62982321D01*
X173642144Y63053750D01*
X173570715Y63089464D01*
X173427858Y63089464D01*
X173356429Y63053750D01*
X173320715Y62982321D01*
X173320715Y62910893D01*
X173677858Y62839464D01*
X172677858Y62589464D02*
X172677858Y62982321D01*
X172713572Y63053750D01*
X172785001Y63089464D01*
X172927858Y63089464D01*
X172999287Y63053750D01*
X172677858Y62625179D02*
X172749287Y62589464D01*
X172927858Y62589464D01*
X172999287Y62625179D01*
X173035001Y62696607D01*
X173035001Y62768036D01*
X172999287Y62839464D01*
X172927858Y62875179D01*
X172749287Y62875179D01*
X172677858Y62910893D01*
X171999287Y62625179D02*
X172070716Y62589464D01*
X172213573Y62589464D01*
X172285001Y62625179D01*
X172320716Y62660893D01*
X172356430Y62732321D01*
X172356430Y62946607D01*
X172320716Y63018036D01*
X172285001Y63053750D01*
X172213573Y63089464D01*
X172070716Y63089464D01*
X171999287Y63053750D01*
X171677859Y62589464D02*
X171677859Y63339464D01*
X171356430Y62589464D02*
X171356430Y62982321D01*
X171392144Y63053750D01*
X171463573Y63089464D01*
X171570716Y63089464D01*
X171642144Y63053750D01*
X171677859Y63018036D01*
X170427859Y63089464D02*
X170427859Y62339464D01*
X170427859Y63053750D02*
X170356430Y63089464D01*
X170213573Y63089464D01*
X170142144Y63053750D01*
X170106430Y63018036D01*
X170070716Y62946607D01*
X170070716Y62732321D01*
X170106430Y62660893D01*
X170142144Y62625179D01*
X170213573Y62589464D01*
X170356430Y62589464D01*
X170427859Y62625179D01*
X169427859Y62589464D02*
X169427859Y62982321D01*
X169463573Y63053750D01*
X169535002Y63089464D01*
X169677859Y63089464D01*
X169749288Y63053750D01*
X169427859Y62625179D02*
X169499288Y62589464D01*
X169677859Y62589464D01*
X169749288Y62625179D01*
X169785002Y62696607D01*
X169785002Y62768036D01*
X169749288Y62839464D01*
X169677859Y62875179D01*
X169499288Y62875179D01*
X169427859Y62910893D01*
X168749288Y62589464D02*
X168749288Y63339464D01*
X168749288Y62625179D02*
X168820717Y62589464D01*
X168963574Y62589464D01*
X169035002Y62625179D01*
X169070717Y62660893D01*
X169106431Y62732321D01*
X169106431Y62946607D01*
X169070717Y63018036D01*
X169035002Y63053750D01*
X168963574Y63089464D01*
X168820717Y63089464D01*
X168749288Y63053750D01*
X167820717Y62589464D02*
X167820717Y63089464D01*
X167820717Y63339464D02*
X167856431Y63303750D01*
X167820717Y63268036D01*
X167785002Y63303750D01*
X167820717Y63339464D01*
X167820717Y63268036D01*
X167499288Y62625179D02*
X167427859Y62589464D01*
X167285002Y62589464D01*
X167213574Y62625179D01*
X167177859Y62696607D01*
X167177859Y62732321D01*
X167213574Y62803750D01*
X167285002Y62839464D01*
X167392145Y62839464D01*
X167463574Y62875179D01*
X167499288Y62946607D01*
X167499288Y62982321D01*
X167463574Y63053750D01*
X167392145Y63089464D01*
X167285002Y63089464D01*
X167213574Y63053750D01*
X166856431Y62660893D02*
X166820716Y62625179D01*
X166856431Y62589464D01*
X166892145Y62625179D01*
X166856431Y62660893D01*
X166856431Y62589464D01*
X184606429Y61669821D02*
X184356429Y61669821D01*
X184249286Y61276964D02*
X184606429Y61276964D01*
X184606429Y62026964D01*
X184249286Y62026964D01*
X183999286Y61276964D02*
X183606429Y61776964D01*
X183999286Y61776964D02*
X183606429Y61276964D01*
X182999286Y61276964D02*
X182999286Y61669821D01*
X183035000Y61741250D01*
X183106429Y61776964D01*
X183249286Y61776964D01*
X183320715Y61741250D01*
X182999286Y61312679D02*
X183070715Y61276964D01*
X183249286Y61276964D01*
X183320715Y61312679D01*
X183356429Y61384107D01*
X183356429Y61455536D01*
X183320715Y61526964D01*
X183249286Y61562679D01*
X183070715Y61562679D01*
X182999286Y61598393D01*
X182642144Y61276964D02*
X182642144Y61776964D01*
X182642144Y61705536D02*
X182606429Y61741250D01*
X182535001Y61776964D01*
X182427858Y61776964D01*
X182356429Y61741250D01*
X182320715Y61669821D01*
X182320715Y61276964D01*
X182320715Y61669821D02*
X182285001Y61741250D01*
X182213572Y61776964D01*
X182106429Y61776964D01*
X182035001Y61741250D01*
X181999286Y61669821D01*
X181999286Y61276964D01*
X181642144Y61776964D02*
X181642144Y61026964D01*
X181642144Y61741250D02*
X181570715Y61776964D01*
X181427858Y61776964D01*
X181356429Y61741250D01*
X181320715Y61705536D01*
X181285001Y61634107D01*
X181285001Y61419821D01*
X181320715Y61348393D01*
X181356429Y61312679D01*
X181427858Y61276964D01*
X181570715Y61276964D01*
X181642144Y61312679D01*
X180856430Y61276964D02*
X180927858Y61312679D01*
X180963573Y61384107D01*
X180963573Y62026964D01*
X180285001Y61312679D02*
X180356430Y61276964D01*
X180499287Y61276964D01*
X180570716Y61312679D01*
X180606430Y61384107D01*
X180606430Y61669821D01*
X180570716Y61741250D01*
X180499287Y61776964D01*
X180356430Y61776964D01*
X180285001Y61741250D01*
X180249287Y61669821D01*
X180249287Y61598393D01*
X180606430Y61526964D01*
X179927859Y61348393D02*
X179892144Y61312679D01*
X179927859Y61276964D01*
X179963573Y61312679D01*
X179927859Y61348393D01*
X179927859Y61276964D01*
X179927859Y61741250D02*
X179892144Y61705536D01*
X179927859Y61669821D01*
X179963573Y61705536D01*
X179927859Y61741250D01*
X179927859Y61669821D01*
X184713571Y60714464D02*
X184285000Y60714464D01*
X184499286Y59964464D02*
X184499286Y60714464D01*
X184035000Y59964464D02*
X184035000Y60714464D01*
X183749285Y60714464D01*
X183677857Y60678750D01*
X183642142Y60643036D01*
X183606428Y60571607D01*
X183606428Y60464464D01*
X183642142Y60393036D01*
X183677857Y60357321D01*
X183749285Y60321607D01*
X184035000Y60321607D01*
X182963571Y60464464D02*
X182963571Y59964464D01*
X183142142Y60750179D02*
X183320714Y60214464D01*
X182856428Y60214464D01*
X181999285Y59964464D02*
X181999285Y60464464D01*
X181999285Y60714464D02*
X182034999Y60678750D01*
X181999285Y60643036D01*
X181963570Y60678750D01*
X181999285Y60714464D01*
X181999285Y60643036D01*
X181677856Y60000179D02*
X181606427Y59964464D01*
X181463570Y59964464D01*
X181392142Y60000179D01*
X181356427Y60071607D01*
X181356427Y60107321D01*
X181392142Y60178750D01*
X181463570Y60214464D01*
X181570713Y60214464D01*
X181642142Y60250179D01*
X181677856Y60321607D01*
X181677856Y60357321D01*
X181642142Y60428750D01*
X181570713Y60464464D01*
X181463570Y60464464D01*
X181392142Y60428750D01*
X180213570Y60357321D02*
X180106427Y60321607D01*
X180070712Y60285893D01*
X180034998Y60214464D01*
X180034998Y60107321D01*
X180070712Y60035893D01*
X180106427Y60000179D01*
X180177855Y59964464D01*
X180463570Y59964464D01*
X180463570Y60714464D01*
X180213570Y60714464D01*
X180142141Y60678750D01*
X180106427Y60643036D01*
X180070712Y60571607D01*
X180070712Y60500179D01*
X180106427Y60428750D01*
X180142141Y60393036D01*
X180213570Y60357321D01*
X180463570Y60357321D01*
X179713570Y59964464D02*
X179713570Y60464464D01*
X179713570Y60714464D02*
X179749284Y60678750D01*
X179713570Y60643036D01*
X179677855Y60678750D01*
X179713570Y60714464D01*
X179713570Y60643036D01*
X179463569Y60464464D02*
X179177855Y60464464D01*
X179356427Y60714464D02*
X179356427Y60071607D01*
X179320712Y60000179D01*
X179249284Y59964464D01*
X179177855Y59964464D01*
X178034998Y60464464D02*
X178034998Y59964464D01*
X178213569Y60750179D02*
X178392141Y60214464D01*
X177927855Y60214464D01*
X177642141Y60035893D02*
X177606426Y60000179D01*
X177642141Y59964464D01*
X177677855Y60000179D01*
X177642141Y60035893D01*
X177642141Y59964464D01*
X184713571Y59401964D02*
X184285000Y59401964D01*
X184499286Y58651964D02*
X184499286Y59401964D01*
X184035000Y58651964D02*
X184035000Y59401964D01*
X183749285Y59401964D01*
X183677857Y59366250D01*
X183642142Y59330536D01*
X183606428Y59259107D01*
X183606428Y59151964D01*
X183642142Y59080536D01*
X183677857Y59044821D01*
X183749285Y59009107D01*
X184035000Y59009107D01*
X183320714Y59330536D02*
X183285000Y59366250D01*
X183213571Y59401964D01*
X183035000Y59401964D01*
X182963571Y59366250D01*
X182927857Y59330536D01*
X182892142Y59259107D01*
X182892142Y59187679D01*
X182927857Y59080536D01*
X183356428Y58651964D01*
X182892142Y58651964D01*
X182177856Y58651964D02*
X182606428Y58651964D01*
X182392142Y58651964D02*
X182392142Y59401964D01*
X182463571Y59294821D01*
X182534999Y59223393D01*
X182606428Y59187679D01*
X181463570Y58651964D02*
X181892142Y58651964D01*
X181677856Y58651964D02*
X181677856Y59401964D01*
X181749285Y59294821D01*
X181820713Y59223393D01*
X181892142Y59187679D01*
X180570713Y58651964D02*
X180570713Y59151964D01*
X180570713Y59401964D02*
X180606427Y59366250D01*
X180570713Y59330536D01*
X180534998Y59366250D01*
X180570713Y59401964D01*
X180570713Y59330536D01*
X180249284Y58687679D02*
X180177855Y58651964D01*
X180034998Y58651964D01*
X179963570Y58687679D01*
X179927855Y58759107D01*
X179927855Y58794821D01*
X179963570Y58866250D01*
X180034998Y58901964D01*
X180142141Y58901964D01*
X180213570Y58937679D01*
X180249284Y59009107D01*
X180249284Y59044821D01*
X180213570Y59116250D01*
X180142141Y59151964D01*
X180034998Y59151964D01*
X179963570Y59116250D01*
X178713569Y58687679D02*
X178784998Y58651964D01*
X178927855Y58651964D01*
X178999283Y58687679D01*
X179034998Y58723393D01*
X179070712Y58794821D01*
X179070712Y59009107D01*
X179034998Y59080536D01*
X178999283Y59116250D01*
X178927855Y59151964D01*
X178784998Y59151964D01*
X178713569Y59116250D01*
X178392141Y58651964D02*
X178392141Y59401964D01*
X178070712Y58651964D02*
X178070712Y59044821D01*
X178106426Y59116250D01*
X178177855Y59151964D01*
X178284998Y59151964D01*
X178356426Y59116250D01*
X178392141Y59080536D01*
X177713570Y58651964D02*
X177713570Y59151964D01*
X177713570Y59401964D02*
X177749284Y59366250D01*
X177713570Y59330536D01*
X177677855Y59366250D01*
X177713570Y59401964D01*
X177713570Y59330536D01*
X177356427Y59151964D02*
X177356427Y58401964D01*
X177356427Y59116250D02*
X177284998Y59151964D01*
X177142141Y59151964D01*
X177070712Y59116250D01*
X177034998Y59080536D01*
X176999284Y59009107D01*
X176999284Y58794821D01*
X177034998Y58723393D01*
X177070712Y58687679D01*
X177142141Y58651964D01*
X177284998Y58651964D01*
X177356427Y58687679D01*
X176142141Y59330536D02*
X176106427Y59366250D01*
X176034998Y59401964D01*
X175856427Y59401964D01*
X175784998Y59366250D01*
X175749284Y59330536D01*
X175713569Y59259107D01*
X175713569Y59187679D01*
X175749284Y59080536D01*
X176177855Y58651964D01*
X175713569Y58651964D01*
X175249283Y59401964D02*
X175177855Y59401964D01*
X175106426Y59366250D01*
X175070712Y59330536D01*
X175034998Y59259107D01*
X174999283Y59116250D01*
X174999283Y58937679D01*
X175034998Y58794821D01*
X175070712Y58723393D01*
X175106426Y58687679D01*
X175177855Y58651964D01*
X175249283Y58651964D01*
X175320712Y58687679D01*
X175356426Y58723393D01*
X175392141Y58794821D01*
X175427855Y58937679D01*
X175427855Y59116250D01*
X175392141Y59259107D01*
X175356426Y59330536D01*
X175320712Y59366250D01*
X175249283Y59401964D01*
X174534997Y59401964D02*
X174463569Y59401964D01*
X174392140Y59366250D01*
X174356426Y59330536D01*
X174320712Y59259107D01*
X174284997Y59116250D01*
X174284997Y58937679D01*
X174320712Y58794821D01*
X174356426Y58723393D01*
X174392140Y58687679D01*
X174463569Y58651964D01*
X174534997Y58651964D01*
X174606426Y58687679D01*
X174642140Y58723393D01*
X174677855Y58794821D01*
X174713569Y58937679D01*
X174713569Y59116250D01*
X174677855Y59259107D01*
X174642140Y59330536D01*
X174606426Y59366250D01*
X174534997Y59401964D01*
X173927854Y58687679D02*
X173927854Y58651964D01*
X173963569Y58580536D01*
X173999283Y58544821D01*
X173034997Y58651964D02*
X173034997Y59401964D01*
X173034997Y59116250D02*
X172963568Y59151964D01*
X172820711Y59151964D01*
X172749282Y59116250D01*
X172713568Y59080536D01*
X172677854Y59009107D01*
X172677854Y58794821D01*
X172713568Y58723393D01*
X172749282Y58687679D01*
X172820711Y58651964D01*
X172963568Y58651964D01*
X173034997Y58687679D01*
X172356426Y58651964D02*
X172356426Y59151964D01*
X172356426Y59401964D02*
X172392140Y59366250D01*
X172356426Y59330536D01*
X172320711Y59366250D01*
X172356426Y59401964D01*
X172356426Y59330536D01*
X172106425Y59151964D02*
X171820711Y59151964D01*
X171999283Y59401964D02*
X171999283Y58759107D01*
X171963568Y58687679D01*
X171892140Y58651964D01*
X171820711Y58651964D01*
X170606425Y58651964D02*
X171034997Y58651964D01*
X170820711Y58651964D02*
X170820711Y59401964D01*
X170892140Y59294821D01*
X170963568Y59223393D01*
X171034997Y59187679D01*
X169892139Y58651964D02*
X170320711Y58651964D01*
X170106425Y58651964D02*
X170106425Y59401964D01*
X170177854Y59294821D01*
X170249282Y59223393D01*
X170320711Y59187679D01*
D12*
X10160000Y8255000D02*
X3175000Y8255000D01*
X10795000Y8890000D02*
X10160000Y8255000D01*
X10795000Y20320000D02*
X10795000Y8890000D01*
X9525000Y43180000D02*
X2540000Y43180000D01*
X13335000Y43180000D02*
X9525000Y43180000D01*
X18415000Y43180000D02*
X13335000Y43180000D01*
X19050000Y43815000D02*
X18415000Y43180000D01*
X25400000Y43815000D02*
X19050000Y43815000D01*
X13335000Y43180000D02*
X9525000Y43180000D01*
X13970000Y42545000D02*
X13335000Y43180000D01*
X13970000Y36830000D02*
X13970000Y42545000D01*
X13335000Y36195000D02*
X13970000Y36830000D01*
X13335000Y29845000D02*
X13335000Y36195000D01*
X12700000Y29210000D02*
X13335000Y29845000D01*
X10795000Y29210000D02*
X12700000Y29210000D01*
X10795000Y20320000D02*
X10795000Y29210000D01*
X12065000Y19050000D02*
X10795000Y20320000D01*
X18415000Y19050000D02*
X12065000Y19050000D01*
X19685000Y20320000D02*
X18415000Y19050000D01*
X25400000Y20320000D02*
X19685000Y20320000D01*
D11*
X13148286Y41824714D02*
X13576858Y41824714D01*
X13362572Y41824714D02*
X13362572Y42574714D01*
X13434001Y42467571D01*
X13505429Y42396143D01*
X13576858Y42360429D01*
X12684000Y42574714D02*
X12612572Y42574714D01*
X12541143Y42539000D01*
X12505429Y42503286D01*
X12469715Y42431857D01*
X12434000Y42289000D01*
X12434000Y42110429D01*
X12469715Y41967571D01*
X12505429Y41896143D01*
X12541143Y41860429D01*
X12612572Y41824714D01*
X12684000Y41824714D01*
X12755429Y41860429D01*
X12791143Y41896143D01*
X12826858Y41967571D01*
X12862572Y42110429D01*
X12862572Y42289000D01*
X12826858Y42431857D01*
X12791143Y42503286D01*
X12755429Y42539000D01*
X12684000Y42574714D01*
X12112572Y41824714D02*
X12112572Y42574714D01*
X11684000Y41824714D02*
X12005429Y42253286D01*
X11684000Y42574714D02*
X12112572Y42146143D01*
X10862571Y41824714D02*
X10469714Y42324714D01*
X10862571Y42324714D02*
X10469714Y41824714D01*
X10255428Y42574714D02*
X9791142Y42574714D01*
X10041142Y42289000D01*
X9934000Y42289000D01*
X9862571Y42253286D01*
X9826857Y42217571D01*
X9791142Y42146143D01*
X9791142Y41967571D01*
X9826857Y41896143D01*
X9862571Y41860429D01*
X9934000Y41824714D01*
X10148285Y41824714D01*
X10219714Y41860429D01*
X10255428Y41896143D01*
D13*
X23991430Y55411714D02*
X24020001Y55383143D01*
X24105715Y55354571D01*
X24162858Y55354571D01*
X24248573Y55383143D01*
X24305715Y55440286D01*
X24334287Y55497429D01*
X24362858Y55611714D01*
X24362858Y55697429D01*
X24334287Y55811714D01*
X24305715Y55868857D01*
X24248573Y55926000D01*
X24162858Y55954571D01*
X24105715Y55954571D01*
X24020001Y55926000D01*
X23991430Y55897429D01*
X23734287Y55354571D02*
X23734287Y55954571D01*
X23505715Y55954571D01*
X23448573Y55926000D01*
X23420001Y55897429D01*
X23391430Y55840286D01*
X23391430Y55754571D01*
X23420001Y55697429D01*
X23448573Y55668857D01*
X23505715Y55640286D01*
X23734287Y55640286D01*
X23220001Y55954571D02*
X22877144Y55954571D01*
X23048573Y55354571D02*
X23048573Y55954571D01*
X22362858Y55354571D02*
X22705715Y55354571D01*
X22534287Y55354571D02*
X22534287Y55954571D01*
X22591430Y55868857D01*
X22648572Y55811714D01*
X22705715Y55783143D01*
X21791429Y55354571D02*
X22134286Y55354571D01*
X21962858Y55354571D02*
X21962858Y55954571D01*
X22020001Y55868857D01*
X22077143Y55811714D01*
X22134286Y55783143D01*
X21562857Y55897429D02*
X21534286Y55926000D01*
X21477143Y55954571D01*
X21334286Y55954571D01*
X21277143Y55926000D01*
X21248572Y55897429D01*
X21220000Y55840286D01*
X21220000Y55783143D01*
X21248572Y55697429D01*
X21591429Y55354571D01*
X21220000Y55354571D01*
X20991428Y55383143D02*
X20905714Y55354571D01*
X20762857Y55354571D01*
X20705714Y55383143D01*
X20677143Y55411714D01*
X20648571Y55468857D01*
X20648571Y55526000D01*
X20677143Y55583143D01*
X20705714Y55611714D01*
X20762857Y55640286D01*
X20877143Y55668857D01*
X20934285Y55697429D01*
X20962857Y55726000D01*
X20991428Y55783143D01*
X20991428Y55840286D01*
X20962857Y55897429D01*
X20934285Y55926000D01*
X20877143Y55954571D01*
X20734285Y55954571D01*
X20648571Y55926000D01*
X20391428Y55583143D02*
X19934285Y55583143D01*
X19677142Y55526000D02*
X19391428Y55526000D01*
X19734285Y55354571D02*
X19534285Y55954571D01*
X19334285Y55354571D01*
X19019999Y55954571D02*
X18962856Y55954571D01*
X18905713Y55926000D01*
X18877142Y55897429D01*
X18848571Y55840286D01*
X18819999Y55726000D01*
X18819999Y55583143D01*
X18848571Y55468857D01*
X18877142Y55411714D01*
X18905713Y55383143D01*
X18962856Y55354571D01*
X19019999Y55354571D01*
X19077142Y55383143D01*
X19105713Y55411714D01*
X19134285Y55468857D01*
X19162856Y55583143D01*
X19162856Y55726000D01*
X19134285Y55840286D01*
X19105713Y55897429D01*
X19077142Y55926000D01*
X19019999Y55954571D01*
X18591427Y55897429D02*
X18562856Y55926000D01*
X18505713Y55954571D01*
X18362856Y55954571D01*
X18305713Y55926000D01*
X18277142Y55897429D01*
X18248570Y55840286D01*
X18248570Y55783143D01*
X18277142Y55697429D01*
X18619999Y55354571D01*
X18248570Y55354571D01*
X17991427Y55583143D02*
X17534284Y55583143D01*
X16934284Y55926000D02*
X16991427Y55954571D01*
X17077141Y55954571D01*
X17162856Y55926000D01*
X17219998Y55868857D01*
X17248570Y55811714D01*
X17277141Y55697429D01*
X17277141Y55611714D01*
X17248570Y55497429D01*
X17219998Y55440286D01*
X17162856Y55383143D01*
X17077141Y55354571D01*
X17019998Y55354571D01*
X16934284Y55383143D01*
X16905713Y55411714D01*
X16905713Y55611714D01*
X17019998Y55611714D01*
X16648570Y55954571D02*
X16648570Y55468857D01*
X16619998Y55411714D01*
X16591427Y55383143D01*
X16534284Y55354571D01*
X16419998Y55354571D01*
X16362856Y55383143D01*
X16334284Y55411714D01*
X16305713Y55468857D01*
X16305713Y55954571D01*
D11*
X11243886Y55815971D02*
X11743886Y55815971D01*
X10958171Y55994542D02*
X11493886Y56173114D01*
X11493886Y55708828D01*
X11672457Y55423114D02*
X11708171Y55387399D01*
X11743886Y55423114D01*
X11708171Y55458828D01*
X11672457Y55423114D01*
X11743886Y55423114D01*
X10993886Y55137399D02*
X10993886Y54637399D01*
X11743886Y54958828D01*
X11243886Y54030256D02*
X11743886Y54030256D01*
X11243886Y54351685D02*
X11636743Y54351685D01*
X11708171Y54315970D01*
X11743886Y54244542D01*
X11743886Y54137399D01*
X11708171Y54065970D01*
X11672457Y54030256D01*
X11351029Y53423114D02*
X11351029Y53673114D01*
X11743886Y53673114D02*
X10993886Y53673114D01*
X10993886Y53315971D01*
D14*
X4809999Y35524286D02*
X4429047Y35524286D01*
X4619523Y35333810D02*
X4619523Y35714762D01*
X4238570Y35833810D02*
X3929047Y35833810D01*
X4095713Y35643333D01*
X4024285Y35643333D01*
X3976666Y35619524D01*
X3952856Y35595714D01*
X3929047Y35548095D01*
X3929047Y35429048D01*
X3952856Y35381429D01*
X3976666Y35357619D01*
X4024285Y35333810D01*
X4167142Y35333810D01*
X4214761Y35357619D01*
X4238570Y35381429D01*
X3714761Y35381429D02*
X3690952Y35357619D01*
X3714761Y35333810D01*
X3738571Y35357619D01*
X3714761Y35381429D01*
X3714761Y35333810D01*
X3524285Y35833810D02*
X3214762Y35833810D01*
X3381428Y35643333D01*
X3310000Y35643333D01*
X3262381Y35619524D01*
X3238571Y35595714D01*
X3214762Y35548095D01*
X3214762Y35429048D01*
X3238571Y35381429D01*
X3262381Y35357619D01*
X3310000Y35333810D01*
X3452857Y35333810D01*
X3500476Y35357619D01*
X3524285Y35381429D01*
X3071905Y35833810D02*
X2905238Y35333810D01*
X2738572Y35833810D01*
D11*
X4577857Y32680714D02*
X4577857Y33430714D01*
X3792142Y32680714D02*
X4042142Y33037857D01*
X4220714Y32680714D02*
X4220714Y33430714D01*
X3934999Y33430714D01*
X3863571Y33395000D01*
X3827856Y33359286D01*
X3792142Y33287857D01*
X3792142Y33180714D01*
X3827856Y33109286D01*
X3863571Y33073571D01*
X3934999Y33037857D01*
X4220714Y33037857D01*
X2970714Y32609286D02*
X3042142Y32645000D01*
X3113571Y32716429D01*
X3220714Y32823571D01*
X3292142Y32859286D01*
X3363571Y32859286D01*
X3327856Y32680714D02*
X3399285Y32716429D01*
X3470714Y32787857D01*
X3506428Y32930714D01*
X3506428Y33180714D01*
X3470714Y33323571D01*
X3399285Y33395000D01*
X3327856Y33430714D01*
X3184999Y33430714D01*
X3113571Y33395000D01*
X3042142Y33323571D01*
X3006428Y33180714D01*
X3006428Y32930714D01*
X3042142Y32787857D01*
X3113571Y32716429D01*
X3184999Y32680714D01*
X3327856Y32680714D01*
X4720714Y30176429D02*
X4613571Y30140714D01*
X4435000Y30140714D01*
X4363571Y30176429D01*
X4327857Y30212143D01*
X4292142Y30283571D01*
X4292142Y30355000D01*
X4327857Y30426429D01*
X4363571Y30462143D01*
X4435000Y30497857D01*
X4577857Y30533571D01*
X4649285Y30569286D01*
X4685000Y30605000D01*
X4720714Y30676429D01*
X4720714Y30747857D01*
X4685000Y30819286D01*
X4649285Y30855000D01*
X4577857Y30890714D01*
X4399285Y30890714D01*
X4292142Y30855000D01*
X3970714Y30140714D02*
X3970714Y30890714D01*
X3792142Y30890714D01*
X3684999Y30855000D01*
X3613571Y30783571D01*
X3577856Y30712143D01*
X3542142Y30569286D01*
X3542142Y30462143D01*
X3577856Y30319286D01*
X3613571Y30247857D01*
X3684999Y30176429D01*
X3792142Y30140714D01*
X3970714Y30140714D01*
X3256428Y30355000D02*
X2899285Y30355000D01*
X3327856Y30140714D02*
X3077856Y30890714D01*
X2827856Y30140714D01*
X4702857Y27636429D02*
X4595714Y27600714D01*
X4417143Y27600714D01*
X4345714Y27636429D01*
X4310000Y27672143D01*
X4274285Y27743571D01*
X4274285Y27815000D01*
X4310000Y27886429D01*
X4345714Y27922143D01*
X4417143Y27957857D01*
X4560000Y27993571D01*
X4631428Y28029286D01*
X4667143Y28065000D01*
X4702857Y28136429D01*
X4702857Y28207857D01*
X4667143Y28279286D01*
X4631428Y28315000D01*
X4560000Y28350714D01*
X4381428Y28350714D01*
X4274285Y28315000D01*
X3524285Y27672143D02*
X3559999Y27636429D01*
X3667142Y27600714D01*
X3738571Y27600714D01*
X3845714Y27636429D01*
X3917142Y27707857D01*
X3952857Y27779286D01*
X3988571Y27922143D01*
X3988571Y28029286D01*
X3952857Y28172143D01*
X3917142Y28243571D01*
X3845714Y28315000D01*
X3738571Y28350714D01*
X3667142Y28350714D01*
X3559999Y28315000D01*
X3524285Y28279286D01*
X2845714Y27600714D02*
X3202857Y27600714D01*
X3202857Y28350714D01*
X4381428Y25775000D02*
X4452857Y25810714D01*
X4560000Y25810714D01*
X4667143Y25775000D01*
X4738571Y25703571D01*
X4774286Y25632143D01*
X4810000Y25489286D01*
X4810000Y25382143D01*
X4774286Y25239286D01*
X4738571Y25167857D01*
X4667143Y25096429D01*
X4560000Y25060714D01*
X4488571Y25060714D01*
X4381428Y25096429D01*
X4345714Y25132143D01*
X4345714Y25382143D01*
X4488571Y25382143D01*
X4024286Y25060714D02*
X4024286Y25810714D01*
X3595714Y25060714D01*
X3595714Y25810714D01*
X3238572Y25060714D02*
X3238572Y25810714D01*
X3060000Y25810714D01*
X2952857Y25775000D01*
X2881429Y25703571D01*
X2845714Y25632143D01*
X2810000Y25489286D01*
X2810000Y25382143D01*
X2845714Y25239286D01*
X2881429Y25167857D01*
X2952857Y25096429D01*
X3060000Y25060714D01*
X3238572Y25060714D01*
X4345714Y22735000D02*
X3988571Y22735000D01*
X4417142Y22520714D02*
X4167142Y23270714D01*
X3917142Y22520714D01*
X3524285Y23270714D02*
X3452857Y23270714D01*
X3381428Y23235000D01*
X3345714Y23199286D01*
X3310000Y23127857D01*
X3274285Y22985000D01*
X3274285Y22806429D01*
X3310000Y22663571D01*
X3345714Y22592143D01*
X3381428Y22556429D01*
X3452857Y22520714D01*
X3524285Y22520714D01*
X3595714Y22556429D01*
X3631428Y22592143D01*
X3667143Y22663571D01*
X3702857Y22806429D01*
X3702857Y22985000D01*
X3667143Y23127857D01*
X3631428Y23199286D01*
X3595714Y23235000D01*
X3524285Y23270714D01*
X4345714Y20195000D02*
X3988571Y20195000D01*
X4417142Y19980714D02*
X4167142Y20730714D01*
X3917142Y19980714D01*
X3274285Y19980714D02*
X3702857Y19980714D01*
X3488571Y19980714D02*
X3488571Y20730714D01*
X3560000Y20623571D01*
X3631428Y20552143D01*
X3702857Y20516429D01*
X4345714Y17655000D02*
X3988571Y17655000D01*
X4417142Y17440714D02*
X4167142Y18190714D01*
X3917142Y17440714D01*
X3702857Y18119286D02*
X3667143Y18155000D01*
X3595714Y18190714D01*
X3417143Y18190714D01*
X3345714Y18155000D01*
X3310000Y18119286D01*
X3274285Y18047857D01*
X3274285Y17976429D01*
X3310000Y17869286D01*
X3738571Y17440714D01*
X3274285Y17440714D01*
X4345714Y15115000D02*
X3988571Y15115000D01*
X4417142Y14900714D02*
X4167142Y15650714D01*
X3917142Y14900714D01*
X3738571Y15650714D02*
X3274285Y15650714D01*
X3524285Y15365000D01*
X3417143Y15365000D01*
X3345714Y15329286D01*
X3310000Y15293571D01*
X3274285Y15222143D01*
X3274285Y15043571D01*
X3310000Y14972143D01*
X3345714Y14936429D01*
X3417143Y14900714D01*
X3631428Y14900714D01*
X3702857Y14936429D01*
X3738571Y14972143D01*
X4345714Y12575000D02*
X3988571Y12575000D01*
X4417142Y12360714D02*
X4167142Y13110714D01*
X3917142Y12360714D01*
X3345714Y12860714D02*
X3345714Y12360714D01*
X3524285Y13146429D02*
X3702857Y12610714D01*
X3238571Y12610714D01*
X4345714Y10035000D02*
X3988571Y10035000D01*
X4417142Y9820714D02*
X4167142Y10570714D01*
X3917142Y9820714D01*
X3310000Y10570714D02*
X3667143Y10570714D01*
X3702857Y10213571D01*
X3667143Y10249286D01*
X3595714Y10285000D01*
X3417143Y10285000D01*
X3345714Y10249286D01*
X3310000Y10213571D01*
X3274285Y10142143D01*
X3274285Y9963571D01*
X3310000Y9892143D01*
X3345714Y9856429D01*
X3417143Y9820714D01*
X3595714Y9820714D01*
X3667143Y9856429D01*
X3702857Y9892143D01*
D12*
X25400000Y43815000D02*
X187960000Y43815000D01*
X25400000Y20320000D02*
X187960000Y20320000D01*
D11*
X12213086Y55943742D02*
X12213086Y55872314D01*
X12248800Y55800885D01*
X12284514Y55765171D01*
X12355943Y55729457D01*
X12498800Y55693742D01*
X12677371Y55693742D01*
X12820229Y55729457D01*
X12891657Y55765171D01*
X12927371Y55800885D01*
X12963086Y55872314D01*
X12963086Y55943742D01*
X12927371Y56015171D01*
X12891657Y56050885D01*
X12820229Y56086600D01*
X12677371Y56122314D01*
X12498800Y56122314D01*
X12355943Y56086600D01*
X12284514Y56050885D01*
X12248800Y56015171D01*
X12213086Y55943742D01*
X12891657Y55372314D02*
X12927371Y55336599D01*
X12963086Y55372314D01*
X12927371Y55408028D01*
X12891657Y55372314D01*
X12963086Y55372314D01*
X12963086Y54622313D02*
X12963086Y55050885D01*
X12963086Y54836599D02*
X12213086Y54836599D01*
X12320229Y54908028D01*
X12391657Y54979456D01*
X12427371Y55050885D01*
X12463086Y53979456D02*
X12963086Y53979456D01*
X12463086Y54300885D02*
X12855943Y54300885D01*
X12927371Y54265170D01*
X12963086Y54193742D01*
X12963086Y54086599D01*
X12927371Y54015170D01*
X12891657Y53979456D01*
X12570229Y53372314D02*
X12570229Y53622314D01*
X12963086Y53622314D02*
X12213086Y53622314D01*
X12213086Y53265171D01*
D13*
X16615210Y7366000D02*
G75*
G03X16615210Y7366000I-359210J0D01*
G01*
X17470000Y7287500D02*
X16470000Y8287500D01*
X24170000Y7287500D02*
X17470000Y7287500D01*
X16470000Y8287500D02*
X16470000Y15572500D01*
X16470000Y15572500D02*
X24170000Y15572500D01*
X24170000Y15572500D02*
X24170000Y7287500D01*
D15*
X12100000Y49880000D02*
X12100000Y49180000D01*
X13300000Y49180000D02*
X13300000Y49880000D01*
X10830000Y49880000D02*
X10830000Y49180000D01*
X12030000Y49180000D02*
X12030000Y49880000D01*
X13370000Y26766000D02*
X13370000Y26066000D01*
X14570000Y26066000D02*
X14570000Y26766000D01*
X12100000Y26766000D02*
X12100000Y26066000D01*
X13300000Y26066000D02*
X13300000Y26766000D01*
X13370000Y10510000D02*
X13370000Y9810000D01*
X14570000Y9810000D02*
X14570000Y10510000D01*
X12100000Y10510000D02*
X12100000Y9810000D01*
X13300000Y9810000D02*
X13300000Y10510000D01*
D13*
X11196000Y32345000D02*
X12196000Y32345000D01*
X12196000Y33695000D02*
X11196000Y33695000D01*
X11184000Y29805000D02*
X12184000Y29805000D01*
X12184000Y31155000D02*
X11184000Y31155000D01*
X11184000Y34885000D02*
X12184000Y34885000D01*
X12184000Y36235000D02*
X11184000Y36235000D01*
X16615210Y46736000D02*
G75*
G03X16615210Y46736000I-359210J0D01*
G01*
X17470000Y46657500D02*
X16470000Y47657500D01*
X24170000Y46657500D02*
X17470000Y46657500D01*
X16470000Y47657500D02*
X16470000Y54942500D01*
X16470000Y54942500D02*
X24170000Y54942500D01*
X24170000Y54942500D02*
X24170000Y46657500D01*
X16615210Y22606000D02*
G75*
G03X16615210Y22606000I-359210J0D01*
G01*
X17470000Y22527500D02*
X16470000Y23527500D01*
X24170000Y22527500D02*
X17470000Y22527500D01*
X16470000Y23527500D02*
X16470000Y30812500D01*
X16470000Y30812500D02*
X24170000Y30812500D01*
X24170000Y30812500D02*
X24170000Y22527500D01*
X22377143Y6744643D02*
X22377143Y5773214D01*
X22320000Y5658929D01*
X22262857Y5601786D01*
X22148571Y5544643D01*
X21920000Y5544643D01*
X21805714Y5601786D01*
X21748571Y5658929D01*
X21691428Y5773214D01*
X21691428Y6744643D01*
X21177143Y6630357D02*
X21120000Y6687500D01*
X21005714Y6744643D01*
X20720000Y6744643D01*
X20605714Y6687500D01*
X20548571Y6630357D01*
X20491428Y6516071D01*
X20491428Y6401786D01*
X20548571Y6230357D01*
X21234285Y5544643D01*
X20491428Y5544643D01*
X19748571Y6744643D02*
X19634286Y6744643D01*
X19520000Y6687500D01*
X19462857Y6630357D01*
X19405714Y6516071D01*
X19348571Y6287500D01*
X19348571Y6001786D01*
X19405714Y5773214D01*
X19462857Y5658929D01*
X19520000Y5601786D01*
X19634286Y5544643D01*
X19748571Y5544643D01*
X19862857Y5601786D01*
X19920000Y5658929D01*
X19977143Y5773214D01*
X20034286Y6001786D01*
X20034286Y6287500D01*
X19977143Y6516071D01*
X19920000Y6630357D01*
X19862857Y6687500D01*
X19748571Y6744643D01*
X18605714Y6744643D02*
X18491429Y6744643D01*
X18377143Y6687500D01*
X18320000Y6630357D01*
X18262857Y6516071D01*
X18205714Y6287500D01*
X18205714Y6001786D01*
X18262857Y5773214D01*
X18320000Y5658929D01*
X18377143Y5601786D01*
X18491429Y5544643D01*
X18605714Y5544643D01*
X18720000Y5601786D01*
X18777143Y5658929D01*
X18834286Y5773214D01*
X18891429Y6001786D01*
X18891429Y6287500D01*
X18834286Y6516071D01*
X18777143Y6630357D01*
X18720000Y6687500D01*
X18605714Y6744643D01*
X33261905Y58071619D02*
X32690476Y58071619D01*
X32976191Y57071619D02*
X32976191Y58071619D01*
X32357143Y57071619D02*
X32357143Y58071619D01*
X31976190Y58071619D01*
X31880952Y58024000D01*
X31833333Y57976381D01*
X31785714Y57881143D01*
X31785714Y57738286D01*
X31833333Y57643048D01*
X31880952Y57595429D01*
X31976190Y57547810D01*
X32357143Y57547810D01*
X31214286Y57643048D02*
X31309524Y57690667D01*
X31357143Y57738286D01*
X31404762Y57833524D01*
X31404762Y57881143D01*
X31357143Y57976381D01*
X31309524Y58024000D01*
X31214286Y58071619D01*
X31023809Y58071619D01*
X30928571Y58024000D01*
X30880952Y57976381D01*
X30833333Y57881143D01*
X30833333Y57833524D01*
X30880952Y57738286D01*
X30928571Y57690667D01*
X31023809Y57643048D01*
X31214286Y57643048D01*
X31309524Y57595429D01*
X31357143Y57547810D01*
X31404762Y57452571D01*
X31404762Y57262095D01*
X31357143Y57166857D01*
X31309524Y57119238D01*
X31214286Y57071619D01*
X31023809Y57071619D01*
X30928571Y57119238D01*
X30880952Y57166857D01*
X30833333Y57262095D01*
X30833333Y57452571D01*
X30880952Y57547810D01*
X30928571Y57595429D01*
X31023809Y57643048D01*
X53261905Y51071619D02*
X52690476Y51071619D01*
X52976191Y50071619D02*
X52976191Y51071619D01*
X52357143Y50071619D02*
X52357143Y51071619D01*
X51976190Y51071619D01*
X51880952Y51024000D01*
X51833333Y50976381D01*
X51785714Y50881143D01*
X51785714Y50738286D01*
X51833333Y50643048D01*
X51880952Y50595429D01*
X51976190Y50547810D01*
X52357143Y50547810D01*
X51452381Y51071619D02*
X50785714Y51071619D01*
X51214286Y50071619D01*
X80261905Y58071619D02*
X79690476Y58071619D01*
X79976191Y57071619D02*
X79976191Y58071619D01*
X79357143Y57071619D02*
X79357143Y58071619D01*
X78976190Y58071619D01*
X78880952Y58024000D01*
X78833333Y57976381D01*
X78785714Y57881143D01*
X78785714Y57738286D01*
X78833333Y57643048D01*
X78880952Y57595429D01*
X78976190Y57547810D01*
X79357143Y57547810D01*
X78309524Y57071619D02*
X78119048Y57071619D01*
X78023809Y57119238D01*
X77976190Y57166857D01*
X77880952Y57309714D01*
X77833333Y57500190D01*
X77833333Y57881143D01*
X77880952Y57976381D01*
X77928571Y58024000D01*
X78023809Y58071619D01*
X78214286Y58071619D01*
X78309524Y58024000D01*
X78357143Y57976381D01*
X78404762Y57881143D01*
X78404762Y57643048D01*
X78357143Y57547810D01*
X78309524Y57500190D01*
X78214286Y57452571D01*
X78023809Y57452571D01*
X77928571Y57500190D01*
X77880952Y57547810D01*
X77833333Y57643048D01*
X94261905Y58071619D02*
X93690476Y58071619D01*
X93976191Y57071619D02*
X93976191Y58071619D01*
X93357143Y57071619D02*
X93357143Y58071619D01*
X92976190Y58071619D01*
X92880952Y58024000D01*
X92833333Y57976381D01*
X92785714Y57881143D01*
X92785714Y57738286D01*
X92833333Y57643048D01*
X92880952Y57595429D01*
X92976190Y57547810D01*
X93357143Y57547810D01*
X91928571Y58071619D02*
X92119048Y58071619D01*
X92214286Y58024000D01*
X92261905Y57976381D01*
X92357143Y57833524D01*
X92404762Y57643048D01*
X92404762Y57262095D01*
X92357143Y57166857D01*
X92309524Y57119238D01*
X92214286Y57071619D01*
X92023809Y57071619D01*
X91928571Y57119238D01*
X91880952Y57166857D01*
X91833333Y57262095D01*
X91833333Y57500190D01*
X91880952Y57595429D01*
X91928571Y57643048D01*
X92023809Y57690667D01*
X92214286Y57690667D01*
X92309524Y57643048D01*
X92357143Y57595429D01*
X92404762Y57500190D01*
X113738095Y58071619D02*
X113166666Y58071619D01*
X113452381Y57071619D02*
X113452381Y58071619D01*
X112833333Y57071619D02*
X112833333Y58071619D01*
X112452380Y58071619D01*
X112357142Y58024000D01*
X112309523Y57976381D01*
X112261904Y57881143D01*
X112261904Y57738286D01*
X112309523Y57643048D01*
X112357142Y57595429D01*
X112452380Y57547810D01*
X112833333Y57547810D01*
X111309523Y57071619D02*
X111880952Y57071619D01*
X111595238Y57071619D02*
X111595238Y58071619D01*
X111690476Y57928762D01*
X111785714Y57833524D01*
X111880952Y57785905D01*
X110690476Y58071619D02*
X110595237Y58071619D01*
X110499999Y58024000D01*
X110452380Y57976381D01*
X110404761Y57881143D01*
X110357142Y57690667D01*
X110357142Y57452571D01*
X110404761Y57262095D01*
X110452380Y57166857D01*
X110499999Y57119238D01*
X110595237Y57071619D01*
X110690476Y57071619D01*
X110785714Y57119238D01*
X110833333Y57166857D01*
X110880952Y57262095D01*
X110928571Y57452571D01*
X110928571Y57690667D01*
X110880952Y57881143D01*
X110833333Y57976381D01*
X110785714Y58024000D01*
X110690476Y58071619D01*
X133261905Y58071619D02*
X132690476Y58071619D01*
X132976191Y57071619D02*
X132976191Y58071619D01*
X132357143Y57071619D02*
X132357143Y58071619D01*
X131976190Y58071619D01*
X131880952Y58024000D01*
X131833333Y57976381D01*
X131785714Y57881143D01*
X131785714Y57738286D01*
X131833333Y57643048D01*
X131880952Y57595429D01*
X131976190Y57547810D01*
X132357143Y57547810D01*
X130880952Y58071619D02*
X131357143Y58071619D01*
X131404762Y57595429D01*
X131357143Y57643048D01*
X131261905Y57690667D01*
X131023809Y57690667D01*
X130928571Y57643048D01*
X130880952Y57595429D01*
X130833333Y57500190D01*
X130833333Y57262095D01*
X130880952Y57166857D01*
X130928571Y57119238D01*
X131023809Y57071619D01*
X131261905Y57071619D01*
X131357143Y57119238D01*
X131404762Y57166857D01*
X153738095Y58071619D02*
X153166666Y58071619D01*
X153452381Y57071619D02*
X153452381Y58071619D01*
X152833333Y57071619D02*
X152833333Y58071619D01*
X152452380Y58071619D01*
X152357142Y58024000D01*
X152309523Y57976381D01*
X152261904Y57881143D01*
X152261904Y57738286D01*
X152309523Y57643048D01*
X152357142Y57595429D01*
X152452380Y57547810D01*
X152833333Y57547810D01*
X151309523Y57071619D02*
X151880952Y57071619D01*
X151595238Y57071619D02*
X151595238Y58071619D01*
X151690476Y57928762D01*
X151785714Y57833524D01*
X151880952Y57785905D01*
X150357142Y57071619D02*
X150928571Y57071619D01*
X150642857Y57071619D02*
X150642857Y58071619D01*
X150738095Y57928762D01*
X150833333Y57833524D01*
X150928571Y57785905D01*
X173261905Y58071619D02*
X172690476Y58071619D01*
X172976191Y57071619D02*
X172976191Y58071619D01*
X172357143Y57071619D02*
X172357143Y58071619D01*
X171976190Y58071619D01*
X171880952Y58024000D01*
X171833333Y57976381D01*
X171785714Y57881143D01*
X171785714Y57738286D01*
X171833333Y57643048D01*
X171880952Y57595429D01*
X171976190Y57547810D01*
X172357143Y57547810D01*
X170928571Y57738286D02*
X170928571Y57071619D01*
X171166667Y58119238D02*
X171404762Y57404952D01*
X170785714Y57404952D01*
X11019286Y58731428D02*
X11019286Y58302857D01*
X11769286Y58517143D02*
X11019286Y58517143D01*
X11769286Y58052857D02*
X11019286Y58052857D01*
X11019286Y57767142D01*
X11055000Y57695714D01*
X11090714Y57659999D01*
X11162143Y57624285D01*
X11269286Y57624285D01*
X11340714Y57659999D01*
X11376429Y57695714D01*
X11412143Y57767142D01*
X11412143Y58052857D01*
X11019286Y57159999D02*
X11019286Y57088571D01*
X11055000Y57017142D01*
X11090714Y56981428D01*
X11162143Y56945714D01*
X11305000Y56909999D01*
X11483571Y56909999D01*
X11626429Y56945714D01*
X11697857Y56981428D01*
X11733571Y57017142D01*
X11769286Y57088571D01*
X11769286Y57159999D01*
X11733571Y57231428D01*
X11697857Y57267142D01*
X11626429Y57302857D01*
X11483571Y57338571D01*
X11305000Y57338571D01*
X11162143Y57302857D01*
X11090714Y57267142D01*
X11055000Y57231428D01*
X11019286Y57159999D01*
X13559286Y58731428D02*
X13559286Y58302857D01*
X14309286Y58517143D02*
X13559286Y58517143D01*
X14309286Y58052857D02*
X13559286Y58052857D01*
X13559286Y57767142D01*
X13595000Y57695714D01*
X13630714Y57659999D01*
X13702143Y57624285D01*
X13809286Y57624285D01*
X13880714Y57659999D01*
X13916429Y57695714D01*
X13952143Y57767142D01*
X13952143Y58052857D01*
X14309286Y56909999D02*
X14309286Y57338571D01*
X14309286Y57124285D02*
X13559286Y57124285D01*
X13666429Y57195714D01*
X13737857Y57267142D01*
X13773571Y57338571D01*
X16099286Y58731428D02*
X16099286Y58302857D01*
X16849286Y58517143D02*
X16099286Y58517143D01*
X16849286Y58052857D02*
X16099286Y58052857D01*
X16099286Y57767142D01*
X16135000Y57695714D01*
X16170714Y57659999D01*
X16242143Y57624285D01*
X16349286Y57624285D01*
X16420714Y57659999D01*
X16456429Y57695714D01*
X16492143Y57767142D01*
X16492143Y58052857D01*
X16170714Y57338571D02*
X16135000Y57302857D01*
X16099286Y57231428D01*
X16099286Y57052857D01*
X16135000Y56981428D01*
X16170714Y56945714D01*
X16242143Y56909999D01*
X16313571Y56909999D01*
X16420714Y56945714D01*
X16849286Y57374285D01*
X16849286Y56909999D01*
X18639286Y58731428D02*
X18639286Y58302857D01*
X19389286Y58517143D02*
X18639286Y58517143D01*
X19389286Y58052857D02*
X18639286Y58052857D01*
X18639286Y57767142D01*
X18675000Y57695714D01*
X18710714Y57659999D01*
X18782143Y57624285D01*
X18889286Y57624285D01*
X18960714Y57659999D01*
X18996429Y57695714D01*
X19032143Y57767142D01*
X19032143Y58052857D01*
X18639286Y57374285D02*
X18639286Y56909999D01*
X18925000Y57159999D01*
X18925000Y57052857D01*
X18960714Y56981428D01*
X18996429Y56945714D01*
X19067857Y56909999D01*
X19246429Y56909999D01*
X19317857Y56945714D01*
X19353571Y56981428D01*
X19389286Y57052857D01*
X19389286Y57267142D01*
X19353571Y57338571D01*
X19317857Y57374285D01*
X35214286Y38071619D02*
X34642857Y38071619D01*
X34928572Y37071619D02*
X34928572Y38071619D01*
X34309524Y37071619D02*
X34309524Y38071619D01*
X33928571Y38071619D01*
X33833333Y38024000D01*
X33785714Y37976381D01*
X33738095Y37881143D01*
X33738095Y37738286D01*
X33785714Y37643048D01*
X33833333Y37595429D01*
X33928571Y37547810D01*
X34309524Y37547810D01*
X32785714Y37071619D02*
X33357143Y37071619D01*
X33071429Y37071619D02*
X33071429Y38071619D01*
X33166667Y37928762D01*
X33261905Y37833524D01*
X33357143Y37785905D01*
X32166667Y38071619D02*
X32071428Y38071619D01*
X31976190Y38024000D01*
X31928571Y37976381D01*
X31880952Y37881143D01*
X31833333Y37690667D01*
X31833333Y37452571D01*
X31880952Y37262095D01*
X31928571Y37166857D01*
X31976190Y37119238D01*
X32071428Y37071619D01*
X32166667Y37071619D01*
X32261905Y37119238D01*
X32309524Y37166857D01*
X32357143Y37262095D01*
X32404762Y37452571D01*
X32404762Y37690667D01*
X32357143Y37881143D01*
X32309524Y37976381D01*
X32261905Y38024000D01*
X32166667Y38071619D01*
X31261905Y37643048D02*
X31357143Y37690667D01*
X31404762Y37738286D01*
X31452381Y37833524D01*
X31452381Y37881143D01*
X31404762Y37976381D01*
X31357143Y38024000D01*
X31261905Y38071619D01*
X31071428Y38071619D01*
X30976190Y38024000D01*
X30928571Y37976381D01*
X30880952Y37881143D01*
X30880952Y37833524D01*
X30928571Y37738286D01*
X30976190Y37690667D01*
X31071428Y37643048D01*
X31261905Y37643048D01*
X31357143Y37595429D01*
X31404762Y37547810D01*
X31452381Y37452571D01*
X31452381Y37262095D01*
X31404762Y37166857D01*
X31357143Y37119238D01*
X31261905Y37071619D01*
X31071428Y37071619D01*
X30976190Y37119238D01*
X30928571Y37166857D01*
X30880952Y37262095D01*
X30880952Y37452571D01*
X30928571Y37547810D01*
X30976190Y37595429D01*
X31071428Y37643048D01*
X54214286Y31071619D02*
X53642857Y31071619D01*
X53928572Y30071619D02*
X53928572Y31071619D01*
X53309524Y30071619D02*
X53309524Y31071619D01*
X52928571Y31071619D01*
X52833333Y31024000D01*
X52785714Y30976381D01*
X52738095Y30881143D01*
X52738095Y30738286D01*
X52785714Y30643048D01*
X52833333Y30595429D01*
X52928571Y30547810D01*
X53309524Y30547810D01*
X51785714Y30071619D02*
X52357143Y30071619D01*
X52071429Y30071619D02*
X52071429Y31071619D01*
X52166667Y30928762D01*
X52261905Y30833524D01*
X52357143Y30785905D01*
X51166667Y31071619D02*
X51071428Y31071619D01*
X50976190Y31024000D01*
X50928571Y30976381D01*
X50880952Y30881143D01*
X50833333Y30690667D01*
X50833333Y30452571D01*
X50880952Y30262095D01*
X50928571Y30166857D01*
X50976190Y30119238D01*
X51071428Y30071619D01*
X51166667Y30071619D01*
X51261905Y30119238D01*
X51309524Y30166857D01*
X51357143Y30262095D01*
X51404762Y30452571D01*
X51404762Y30690667D01*
X51357143Y30881143D01*
X51309524Y30976381D01*
X51261905Y31024000D01*
X51166667Y31071619D01*
X50500000Y31071619D02*
X49833333Y31071619D01*
X50261905Y30071619D01*
X75214286Y38071619D02*
X74642857Y38071619D01*
X74928572Y37071619D02*
X74928572Y38071619D01*
X74309524Y37071619D02*
X74309524Y38071619D01*
X73928571Y38071619D01*
X73833333Y38024000D01*
X73785714Y37976381D01*
X73738095Y37881143D01*
X73738095Y37738286D01*
X73785714Y37643048D01*
X73833333Y37595429D01*
X73928571Y37547810D01*
X74309524Y37547810D01*
X72785714Y37071619D02*
X73357143Y37071619D01*
X73071429Y37071619D02*
X73071429Y38071619D01*
X73166667Y37928762D01*
X73261905Y37833524D01*
X73357143Y37785905D01*
X72166667Y38071619D02*
X72071428Y38071619D01*
X71976190Y38024000D01*
X71928571Y37976381D01*
X71880952Y37881143D01*
X71833333Y37690667D01*
X71833333Y37452571D01*
X71880952Y37262095D01*
X71928571Y37166857D01*
X71976190Y37119238D01*
X72071428Y37071619D01*
X72166667Y37071619D01*
X72261905Y37119238D01*
X72309524Y37166857D01*
X72357143Y37262095D01*
X72404762Y37452571D01*
X72404762Y37690667D01*
X72357143Y37881143D01*
X72309524Y37976381D01*
X72261905Y38024000D01*
X72166667Y38071619D01*
X71357143Y37071619D02*
X71166667Y37071619D01*
X71071428Y37119238D01*
X71023809Y37166857D01*
X70928571Y37309714D01*
X70880952Y37500190D01*
X70880952Y37881143D01*
X70928571Y37976381D01*
X70976190Y38024000D01*
X71071428Y38071619D01*
X71261905Y38071619D01*
X71357143Y38024000D01*
X71404762Y37976381D01*
X71452381Y37881143D01*
X71452381Y37643048D01*
X71404762Y37547810D01*
X71357143Y37500190D01*
X71261905Y37452571D01*
X71071428Y37452571D01*
X70976190Y37500190D01*
X70928571Y37547810D01*
X70880952Y37643048D01*
X95214286Y38071619D02*
X94642857Y38071619D01*
X94928572Y37071619D02*
X94928572Y38071619D01*
X94309524Y37071619D02*
X94309524Y38071619D01*
X93928571Y38071619D01*
X93833333Y38024000D01*
X93785714Y37976381D01*
X93738095Y37881143D01*
X93738095Y37738286D01*
X93785714Y37643048D01*
X93833333Y37595429D01*
X93928571Y37547810D01*
X94309524Y37547810D01*
X92785714Y37071619D02*
X93357143Y37071619D01*
X93071429Y37071619D02*
X93071429Y38071619D01*
X93166667Y37928762D01*
X93261905Y37833524D01*
X93357143Y37785905D01*
X92166667Y38071619D02*
X92071428Y38071619D01*
X91976190Y38024000D01*
X91928571Y37976381D01*
X91880952Y37881143D01*
X91833333Y37690667D01*
X91833333Y37452571D01*
X91880952Y37262095D01*
X91928571Y37166857D01*
X91976190Y37119238D01*
X92071428Y37071619D01*
X92166667Y37071619D01*
X92261905Y37119238D01*
X92309524Y37166857D01*
X92357143Y37262095D01*
X92404762Y37452571D01*
X92404762Y37690667D01*
X92357143Y37881143D01*
X92309524Y37976381D01*
X92261905Y38024000D01*
X92166667Y38071619D01*
X90976190Y38071619D02*
X91166667Y38071619D01*
X91261905Y38024000D01*
X91309524Y37976381D01*
X91404762Y37833524D01*
X91452381Y37643048D01*
X91452381Y37262095D01*
X91404762Y37166857D01*
X91357143Y37119238D01*
X91261905Y37071619D01*
X91071428Y37071619D01*
X90976190Y37119238D01*
X90928571Y37166857D01*
X90880952Y37262095D01*
X90880952Y37500190D01*
X90928571Y37595429D01*
X90976190Y37643048D01*
X91071428Y37690667D01*
X91261905Y37690667D01*
X91357143Y37643048D01*
X91404762Y37595429D01*
X91452381Y37500190D01*
X114214286Y31071619D02*
X113642857Y31071619D01*
X113928572Y30071619D02*
X113928572Y31071619D01*
X113309524Y30071619D02*
X113309524Y31071619D01*
X112928571Y31071619D01*
X112833333Y31024000D01*
X112785714Y30976381D01*
X112738095Y30881143D01*
X112738095Y30738286D01*
X112785714Y30643048D01*
X112833333Y30595429D01*
X112928571Y30547810D01*
X113309524Y30547810D01*
X111785714Y30071619D02*
X112357143Y30071619D01*
X112071429Y30071619D02*
X112071429Y31071619D01*
X112166667Y30928762D01*
X112261905Y30833524D01*
X112357143Y30785905D01*
X110833333Y30071619D02*
X111404762Y30071619D01*
X111119048Y30071619D02*
X111119048Y31071619D01*
X111214286Y30928762D01*
X111309524Y30833524D01*
X111404762Y30785905D01*
X110214286Y31071619D02*
X110119047Y31071619D01*
X110023809Y31024000D01*
X109976190Y30976381D01*
X109928571Y30881143D01*
X109880952Y30690667D01*
X109880952Y30452571D01*
X109928571Y30262095D01*
X109976190Y30166857D01*
X110023809Y30119238D01*
X110119047Y30071619D01*
X110214286Y30071619D01*
X110309524Y30119238D01*
X110357143Y30166857D01*
X110404762Y30262095D01*
X110452381Y30452571D01*
X110452381Y30690667D01*
X110404762Y30881143D01*
X110357143Y30976381D01*
X110309524Y31024000D01*
X110214286Y31071619D01*
X135214286Y38071619D02*
X134642857Y38071619D01*
X134928572Y37071619D02*
X134928572Y38071619D01*
X134309524Y37071619D02*
X134309524Y38071619D01*
X133928571Y38071619D01*
X133833333Y38024000D01*
X133785714Y37976381D01*
X133738095Y37881143D01*
X133738095Y37738286D01*
X133785714Y37643048D01*
X133833333Y37595429D01*
X133928571Y37547810D01*
X134309524Y37547810D01*
X132785714Y37071619D02*
X133357143Y37071619D01*
X133071429Y37071619D02*
X133071429Y38071619D01*
X133166667Y37928762D01*
X133261905Y37833524D01*
X133357143Y37785905D01*
X132166667Y38071619D02*
X132071428Y38071619D01*
X131976190Y38024000D01*
X131928571Y37976381D01*
X131880952Y37881143D01*
X131833333Y37690667D01*
X131833333Y37452571D01*
X131880952Y37262095D01*
X131928571Y37166857D01*
X131976190Y37119238D01*
X132071428Y37071619D01*
X132166667Y37071619D01*
X132261905Y37119238D01*
X132309524Y37166857D01*
X132357143Y37262095D01*
X132404762Y37452571D01*
X132404762Y37690667D01*
X132357143Y37881143D01*
X132309524Y37976381D01*
X132261905Y38024000D01*
X132166667Y38071619D01*
X130928571Y38071619D02*
X131404762Y38071619D01*
X131452381Y37595429D01*
X131404762Y37643048D01*
X131309524Y37690667D01*
X131071428Y37690667D01*
X130976190Y37643048D01*
X130928571Y37595429D01*
X130880952Y37500190D01*
X130880952Y37262095D01*
X130928571Y37166857D01*
X130976190Y37119238D01*
X131071428Y37071619D01*
X131309524Y37071619D01*
X131404762Y37119238D01*
X131452381Y37166857D01*
X161214286Y30071619D02*
X160642857Y30071619D01*
X160928572Y29071619D02*
X160928572Y30071619D01*
X160309524Y29071619D02*
X160309524Y30071619D01*
X159928571Y30071619D01*
X159833333Y30024000D01*
X159785714Y29976381D01*
X159738095Y29881143D01*
X159738095Y29738286D01*
X159785714Y29643048D01*
X159833333Y29595429D01*
X159928571Y29547810D01*
X160309524Y29547810D01*
X158785714Y29071619D02*
X159357143Y29071619D01*
X159071429Y29071619D02*
X159071429Y30071619D01*
X159166667Y29928762D01*
X159261905Y29833524D01*
X159357143Y29785905D01*
X157833333Y29071619D02*
X158404762Y29071619D01*
X158119048Y29071619D02*
X158119048Y30071619D01*
X158214286Y29928762D01*
X158309524Y29833524D01*
X158404762Y29785905D01*
X156880952Y29071619D02*
X157452381Y29071619D01*
X157166667Y29071619D02*
X157166667Y30071619D01*
X157261905Y29928762D01*
X157357143Y29833524D01*
X157452381Y29785905D01*
X174214286Y38071619D02*
X173642857Y38071619D01*
X173928572Y37071619D02*
X173928572Y38071619D01*
X173309524Y37071619D02*
X173309524Y38071619D01*
X172928571Y38071619D01*
X172833333Y38024000D01*
X172785714Y37976381D01*
X172738095Y37881143D01*
X172738095Y37738286D01*
X172785714Y37643048D01*
X172833333Y37595429D01*
X172928571Y37547810D01*
X173309524Y37547810D01*
X171785714Y37071619D02*
X172357143Y37071619D01*
X172071429Y37071619D02*
X172071429Y38071619D01*
X172166667Y37928762D01*
X172261905Y37833524D01*
X172357143Y37785905D01*
X171166667Y38071619D02*
X171071428Y38071619D01*
X170976190Y38024000D01*
X170928571Y37976381D01*
X170880952Y37881143D01*
X170833333Y37690667D01*
X170833333Y37452571D01*
X170880952Y37262095D01*
X170928571Y37166857D01*
X170976190Y37119238D01*
X171071428Y37071619D01*
X171166667Y37071619D01*
X171261905Y37119238D01*
X171309524Y37166857D01*
X171357143Y37262095D01*
X171404762Y37452571D01*
X171404762Y37690667D01*
X171357143Y37881143D01*
X171309524Y37976381D01*
X171261905Y38024000D01*
X171166667Y38071619D01*
X169976190Y37738286D02*
X169976190Y37071619D01*
X170214286Y38119238D02*
X170452381Y37404952D01*
X169833333Y37404952D01*
X14829286Y40014714D02*
X14829286Y39586143D01*
X15579286Y39800429D02*
X14829286Y39800429D01*
X15579286Y39336143D02*
X14829286Y39336143D01*
X14829286Y39050428D01*
X14865000Y38979000D01*
X14900714Y38943285D01*
X14972143Y38907571D01*
X15079286Y38907571D01*
X15150714Y38943285D01*
X15186429Y38979000D01*
X15222143Y39050428D01*
X15222143Y39336143D01*
X15579286Y38193285D02*
X15579286Y38621857D01*
X15579286Y38407571D02*
X14829286Y38407571D01*
X14936429Y38479000D01*
X15007857Y38550428D01*
X15043571Y38621857D01*
X14829286Y37728999D02*
X14829286Y37657571D01*
X14865000Y37586142D01*
X14900714Y37550428D01*
X14972143Y37514714D01*
X15115000Y37478999D01*
X15293571Y37478999D01*
X15436429Y37514714D01*
X15507857Y37550428D01*
X15543571Y37586142D01*
X15579286Y37657571D01*
X15579286Y37728999D01*
X15543571Y37800428D01*
X15507857Y37836142D01*
X15436429Y37871857D01*
X15293571Y37907571D01*
X15115000Y37907571D01*
X14972143Y37871857D01*
X14900714Y37836142D01*
X14865000Y37800428D01*
X14829286Y37728999D01*
X14829286Y37014713D02*
X14829286Y36943285D01*
X14865000Y36871856D01*
X14900714Y36836142D01*
X14972143Y36800428D01*
X15115000Y36764713D01*
X15293571Y36764713D01*
X15436429Y36800428D01*
X15507857Y36836142D01*
X15543571Y36871856D01*
X15579286Y36943285D01*
X15579286Y37014713D01*
X15543571Y37086142D01*
X15507857Y37121856D01*
X15436429Y37157571D01*
X15293571Y37193285D01*
X15115000Y37193285D01*
X14972143Y37157571D01*
X14900714Y37121856D01*
X14865000Y37086142D01*
X14829286Y37014713D01*
X17369286Y40014714D02*
X17369286Y39586143D01*
X18119286Y39800429D02*
X17369286Y39800429D01*
X18119286Y39336143D02*
X17369286Y39336143D01*
X17369286Y39050428D01*
X17405000Y38979000D01*
X17440714Y38943285D01*
X17512143Y38907571D01*
X17619286Y38907571D01*
X17690714Y38943285D01*
X17726429Y38979000D01*
X17762143Y39050428D01*
X17762143Y39336143D01*
X18119286Y38193285D02*
X18119286Y38621857D01*
X18119286Y38407571D02*
X17369286Y38407571D01*
X17476429Y38479000D01*
X17547857Y38550428D01*
X17583571Y38621857D01*
X17369286Y37728999D02*
X17369286Y37657571D01*
X17405000Y37586142D01*
X17440714Y37550428D01*
X17512143Y37514714D01*
X17655000Y37478999D01*
X17833571Y37478999D01*
X17976429Y37514714D01*
X18047857Y37550428D01*
X18083571Y37586142D01*
X18119286Y37657571D01*
X18119286Y37728999D01*
X18083571Y37800428D01*
X18047857Y37836142D01*
X17976429Y37871857D01*
X17833571Y37907571D01*
X17655000Y37907571D01*
X17512143Y37871857D01*
X17440714Y37836142D01*
X17405000Y37800428D01*
X17369286Y37728999D01*
X18119286Y36764713D02*
X18119286Y37193285D01*
X18119286Y36978999D02*
X17369286Y36978999D01*
X17476429Y37050428D01*
X17547857Y37121856D01*
X17583571Y37193285D01*
X19909286Y40014714D02*
X19909286Y39586143D01*
X20659286Y39800429D02*
X19909286Y39800429D01*
X20659286Y39336143D02*
X19909286Y39336143D01*
X19909286Y39050428D01*
X19945000Y38979000D01*
X19980714Y38943285D01*
X20052143Y38907571D01*
X20159286Y38907571D01*
X20230714Y38943285D01*
X20266429Y38979000D01*
X20302143Y39050428D01*
X20302143Y39336143D01*
X20659286Y38193285D02*
X20659286Y38621857D01*
X20659286Y38407571D02*
X19909286Y38407571D01*
X20016429Y38479000D01*
X20087857Y38550428D01*
X20123571Y38621857D01*
X19909286Y37728999D02*
X19909286Y37657571D01*
X19945000Y37586142D01*
X19980714Y37550428D01*
X20052143Y37514714D01*
X20195000Y37478999D01*
X20373571Y37478999D01*
X20516429Y37514714D01*
X20587857Y37550428D01*
X20623571Y37586142D01*
X20659286Y37657571D01*
X20659286Y37728999D01*
X20623571Y37800428D01*
X20587857Y37836142D01*
X20516429Y37871857D01*
X20373571Y37907571D01*
X20195000Y37907571D01*
X20052143Y37871857D01*
X19980714Y37836142D01*
X19945000Y37800428D01*
X19909286Y37728999D01*
X19980714Y37193285D02*
X19945000Y37157571D01*
X19909286Y37086142D01*
X19909286Y36907571D01*
X19945000Y36836142D01*
X19980714Y36800428D01*
X20052143Y36764713D01*
X20123571Y36764713D01*
X20230714Y36800428D01*
X20659286Y37228999D01*
X20659286Y36764713D01*
X22449286Y40014714D02*
X22449286Y39586143D01*
X23199286Y39800429D02*
X22449286Y39800429D01*
X23199286Y39336143D02*
X22449286Y39336143D01*
X22449286Y39050428D01*
X22485000Y38979000D01*
X22520714Y38943285D01*
X22592143Y38907571D01*
X22699286Y38907571D01*
X22770714Y38943285D01*
X22806429Y38979000D01*
X22842143Y39050428D01*
X22842143Y39336143D01*
X23199286Y38193285D02*
X23199286Y38621857D01*
X23199286Y38407571D02*
X22449286Y38407571D01*
X22556429Y38479000D01*
X22627857Y38550428D01*
X22663571Y38621857D01*
X22449286Y37728999D02*
X22449286Y37657571D01*
X22485000Y37586142D01*
X22520714Y37550428D01*
X22592143Y37514714D01*
X22735000Y37478999D01*
X22913571Y37478999D01*
X23056429Y37514714D01*
X23127857Y37550428D01*
X23163571Y37586142D01*
X23199286Y37657571D01*
X23199286Y37728999D01*
X23163571Y37800428D01*
X23127857Y37836142D01*
X23056429Y37871857D01*
X22913571Y37907571D01*
X22735000Y37907571D01*
X22592143Y37871857D01*
X22520714Y37836142D01*
X22485000Y37800428D01*
X22449286Y37728999D01*
X22449286Y37228999D02*
X22449286Y36764713D01*
X22735000Y37014713D01*
X22735000Y36907571D01*
X22770714Y36836142D01*
X22806429Y36800428D01*
X22877857Y36764713D01*
X23056429Y36764713D01*
X23127857Y36800428D01*
X23163571Y36836142D01*
X23199286Y36907571D01*
X23199286Y37121856D01*
X23163571Y37193285D01*
X23127857Y37228999D01*
X37402886Y9946619D02*
X36831457Y9946619D01*
X37117172Y8946619D02*
X37117172Y9946619D01*
X36498124Y8946619D02*
X36498124Y9946619D01*
X36117171Y9946619D01*
X36021933Y9899000D01*
X35974314Y9851381D01*
X35926695Y9756143D01*
X35926695Y9613286D01*
X35974314Y9518048D01*
X36021933Y9470429D01*
X36117171Y9422810D01*
X36498124Y9422810D01*
X35545743Y9851381D02*
X35498124Y9899000D01*
X35402886Y9946619D01*
X35164790Y9946619D01*
X35069552Y9899000D01*
X35021933Y9851381D01*
X34974314Y9756143D01*
X34974314Y9660905D01*
X35021933Y9518048D01*
X35593362Y8946619D01*
X34974314Y8946619D01*
X34355267Y9946619D02*
X34260028Y9946619D01*
X34164790Y9899000D01*
X34117171Y9851381D01*
X34069552Y9756143D01*
X34021933Y9565667D01*
X34021933Y9327571D01*
X34069552Y9137095D01*
X34117171Y9041857D01*
X34164790Y8994238D01*
X34260028Y8946619D01*
X34355267Y8946619D01*
X34450505Y8994238D01*
X34498124Y9041857D01*
X34545743Y9137095D01*
X34593362Y9327571D01*
X34593362Y9565667D01*
X34545743Y9756143D01*
X34498124Y9851381D01*
X34450505Y9899000D01*
X34355267Y9946619D01*
X33640981Y9851381D02*
X33593362Y9899000D01*
X33498124Y9946619D01*
X33260028Y9946619D01*
X33164790Y9899000D01*
X33117171Y9851381D01*
X33069552Y9756143D01*
X33069552Y9660905D01*
X33117171Y9518048D01*
X33688600Y8946619D01*
X33069552Y8946619D01*
X48831386Y18196619D02*
X48259957Y18196619D01*
X48545672Y17196619D02*
X48545672Y18196619D01*
X47926624Y17196619D02*
X47926624Y18196619D01*
X47545671Y18196619D01*
X47450433Y18149000D01*
X47402814Y18101381D01*
X47355195Y18006143D01*
X47355195Y17863286D01*
X47402814Y17768048D01*
X47450433Y17720429D01*
X47545671Y17672810D01*
X47926624Y17672810D01*
X46974243Y18101381D02*
X46926624Y18149000D01*
X46831386Y18196619D01*
X46593290Y18196619D01*
X46498052Y18149000D01*
X46450433Y18101381D01*
X46402814Y18006143D01*
X46402814Y17910905D01*
X46450433Y17768048D01*
X47021862Y17196619D01*
X46402814Y17196619D01*
X45783767Y18196619D02*
X45688528Y18196619D01*
X45593290Y18149000D01*
X45545671Y18101381D01*
X45498052Y18006143D01*
X45450433Y17815667D01*
X45450433Y17577571D01*
X45498052Y17387095D01*
X45545671Y17291857D01*
X45593290Y17244238D01*
X45688528Y17196619D01*
X45783767Y17196619D01*
X45879005Y17244238D01*
X45926624Y17291857D01*
X45974243Y17387095D01*
X46021862Y17577571D01*
X46021862Y17815667D01*
X45974243Y18006143D01*
X45926624Y18101381D01*
X45879005Y18149000D01*
X45783767Y18196619D01*
X45117100Y18196619D02*
X44450433Y18196619D01*
X44879005Y17196619D01*
X60260086Y9946619D02*
X59688657Y9946619D01*
X59974372Y8946619D02*
X59974372Y9946619D01*
X59355324Y8946619D02*
X59355324Y9946619D01*
X58974371Y9946619D01*
X58879133Y9899000D01*
X58831514Y9851381D01*
X58783895Y9756143D01*
X58783895Y9613286D01*
X58831514Y9518048D01*
X58879133Y9470429D01*
X58974371Y9422810D01*
X59355324Y9422810D01*
X58402943Y9851381D02*
X58355324Y9899000D01*
X58260086Y9946619D01*
X58021990Y9946619D01*
X57926752Y9899000D01*
X57879133Y9851381D01*
X57831514Y9756143D01*
X57831514Y9660905D01*
X57879133Y9518048D01*
X58450562Y8946619D01*
X57831514Y8946619D01*
X57212467Y9946619D02*
X57117228Y9946619D01*
X57021990Y9899000D01*
X56974371Y9851381D01*
X56926752Y9756143D01*
X56879133Y9565667D01*
X56879133Y9327571D01*
X56926752Y9137095D01*
X56974371Y9041857D01*
X57021990Y8994238D01*
X57117228Y8946619D01*
X57212467Y8946619D01*
X57307705Y8994238D01*
X57355324Y9041857D01*
X57402943Y9137095D01*
X57450562Y9327571D01*
X57450562Y9565667D01*
X57402943Y9756143D01*
X57355324Y9851381D01*
X57307705Y9899000D01*
X57212467Y9946619D01*
X55926752Y8946619D02*
X56498181Y8946619D01*
X56212467Y8946619D02*
X56212467Y9946619D01*
X56307705Y9803762D01*
X56402943Y9708524D01*
X56498181Y9660905D01*
X71688686Y18196619D02*
X71117257Y18196619D01*
X71402972Y17196619D02*
X71402972Y18196619D01*
X70783924Y17196619D02*
X70783924Y18196619D01*
X70402971Y18196619D01*
X70307733Y18149000D01*
X70260114Y18101381D01*
X70212495Y18006143D01*
X70212495Y17863286D01*
X70260114Y17768048D01*
X70307733Y17720429D01*
X70402971Y17672810D01*
X70783924Y17672810D01*
X69831543Y18101381D02*
X69783924Y18149000D01*
X69688686Y18196619D01*
X69450590Y18196619D01*
X69355352Y18149000D01*
X69307733Y18101381D01*
X69260114Y18006143D01*
X69260114Y17910905D01*
X69307733Y17768048D01*
X69879162Y17196619D01*
X69260114Y17196619D01*
X68641067Y18196619D02*
X68545828Y18196619D01*
X68450590Y18149000D01*
X68402971Y18101381D01*
X68355352Y18006143D01*
X68307733Y17815667D01*
X68307733Y17577571D01*
X68355352Y17387095D01*
X68402971Y17291857D01*
X68450590Y17244238D01*
X68545828Y17196619D01*
X68641067Y17196619D01*
X68736305Y17244238D01*
X68783924Y17291857D01*
X68831543Y17387095D01*
X68879162Y17577571D01*
X68879162Y17815667D01*
X68831543Y18006143D01*
X68783924Y18101381D01*
X68736305Y18149000D01*
X68641067Y18196619D01*
X67736305Y17768048D02*
X67831543Y17815667D01*
X67879162Y17863286D01*
X67926781Y17958524D01*
X67926781Y18006143D01*
X67879162Y18101381D01*
X67831543Y18149000D01*
X67736305Y18196619D01*
X67545828Y18196619D01*
X67450590Y18149000D01*
X67402971Y18101381D01*
X67355352Y18006143D01*
X67355352Y17958524D01*
X67402971Y17863286D01*
X67450590Y17815667D01*
X67545828Y17768048D01*
X67736305Y17768048D01*
X67831543Y17720429D01*
X67879162Y17672810D01*
X67926781Y17577571D01*
X67926781Y17387095D01*
X67879162Y17291857D01*
X67831543Y17244238D01*
X67736305Y17196619D01*
X67545828Y17196619D01*
X67450590Y17244238D01*
X67402971Y17291857D01*
X67355352Y17387095D01*
X67355352Y17577571D01*
X67402971Y17672810D01*
X67450590Y17720429D01*
X67545828Y17768048D01*
X83117286Y9946619D02*
X82545857Y9946619D01*
X82831572Y8946619D02*
X82831572Y9946619D01*
X82212524Y8946619D02*
X82212524Y9946619D01*
X81831571Y9946619D01*
X81736333Y9899000D01*
X81688714Y9851381D01*
X81641095Y9756143D01*
X81641095Y9613286D01*
X81688714Y9518048D01*
X81736333Y9470429D01*
X81831571Y9422810D01*
X82212524Y9422810D01*
X81260143Y9851381D02*
X81212524Y9899000D01*
X81117286Y9946619D01*
X80879190Y9946619D01*
X80783952Y9899000D01*
X80736333Y9851381D01*
X80688714Y9756143D01*
X80688714Y9660905D01*
X80736333Y9518048D01*
X81307762Y8946619D01*
X80688714Y8946619D01*
X80069667Y9946619D02*
X79974428Y9946619D01*
X79879190Y9899000D01*
X79831571Y9851381D01*
X79783952Y9756143D01*
X79736333Y9565667D01*
X79736333Y9327571D01*
X79783952Y9137095D01*
X79831571Y9041857D01*
X79879190Y8994238D01*
X79974428Y8946619D01*
X80069667Y8946619D01*
X80164905Y8994238D01*
X80212524Y9041857D01*
X80260143Y9137095D01*
X80307762Y9327571D01*
X80307762Y9565667D01*
X80260143Y9756143D01*
X80212524Y9851381D01*
X80164905Y9899000D01*
X80069667Y9946619D01*
X79403000Y9946619D02*
X78783952Y9946619D01*
X79117286Y9565667D01*
X78974428Y9565667D01*
X78879190Y9518048D01*
X78831571Y9470429D01*
X78783952Y9375190D01*
X78783952Y9137095D01*
X78831571Y9041857D01*
X78879190Y8994238D01*
X78974428Y8946619D01*
X79260143Y8946619D01*
X79355381Y8994238D01*
X79403000Y9041857D01*
X105974486Y9946619D02*
X105403057Y9946619D01*
X105688772Y8946619D02*
X105688772Y9946619D01*
X105069724Y8946619D02*
X105069724Y9946619D01*
X104688771Y9946619D01*
X104593533Y9899000D01*
X104545914Y9851381D01*
X104498295Y9756143D01*
X104498295Y9613286D01*
X104545914Y9518048D01*
X104593533Y9470429D01*
X104688771Y9422810D01*
X105069724Y9422810D01*
X104117343Y9851381D02*
X104069724Y9899000D01*
X103974486Y9946619D01*
X103736390Y9946619D01*
X103641152Y9899000D01*
X103593533Y9851381D01*
X103545914Y9756143D01*
X103545914Y9660905D01*
X103593533Y9518048D01*
X104164962Y8946619D01*
X103545914Y8946619D01*
X102926867Y9946619D02*
X102831628Y9946619D01*
X102736390Y9899000D01*
X102688771Y9851381D01*
X102641152Y9756143D01*
X102593533Y9565667D01*
X102593533Y9327571D01*
X102641152Y9137095D01*
X102688771Y9041857D01*
X102736390Y8994238D01*
X102831628Y8946619D01*
X102926867Y8946619D01*
X103022105Y8994238D01*
X103069724Y9041857D01*
X103117343Y9137095D01*
X103164962Y9327571D01*
X103164962Y9565667D01*
X103117343Y9756143D01*
X103069724Y9851381D01*
X103022105Y9899000D01*
X102926867Y9946619D01*
X101974486Y9946619D02*
X101879247Y9946619D01*
X101784009Y9899000D01*
X101736390Y9851381D01*
X101688771Y9756143D01*
X101641152Y9565667D01*
X101641152Y9327571D01*
X101688771Y9137095D01*
X101736390Y9041857D01*
X101784009Y8994238D01*
X101879247Y8946619D01*
X101974486Y8946619D01*
X102069724Y8994238D01*
X102117343Y9041857D01*
X102164962Y9137095D01*
X102212581Y9327571D01*
X102212581Y9565667D01*
X102164962Y9756143D01*
X102117343Y9851381D01*
X102069724Y9899000D01*
X101974486Y9946619D01*
X117403086Y18196619D02*
X116831657Y18196619D01*
X117117372Y17196619D02*
X117117372Y18196619D01*
X116498324Y17196619D02*
X116498324Y18196619D01*
X116117371Y18196619D01*
X116022133Y18149000D01*
X115974514Y18101381D01*
X115926895Y18006143D01*
X115926895Y17863286D01*
X115974514Y17768048D01*
X116022133Y17720429D01*
X116117371Y17672810D01*
X116498324Y17672810D01*
X115545943Y18101381D02*
X115498324Y18149000D01*
X115403086Y18196619D01*
X115164990Y18196619D01*
X115069752Y18149000D01*
X115022133Y18101381D01*
X114974514Y18006143D01*
X114974514Y17910905D01*
X115022133Y17768048D01*
X115593562Y17196619D01*
X114974514Y17196619D01*
X114355467Y18196619D02*
X114260228Y18196619D01*
X114164990Y18149000D01*
X114117371Y18101381D01*
X114069752Y18006143D01*
X114022133Y17815667D01*
X114022133Y17577571D01*
X114069752Y17387095D01*
X114117371Y17291857D01*
X114164990Y17244238D01*
X114260228Y17196619D01*
X114355467Y17196619D01*
X114450705Y17244238D01*
X114498324Y17291857D01*
X114545943Y17387095D01*
X114593562Y17577571D01*
X114593562Y17815667D01*
X114545943Y18006143D01*
X114498324Y18101381D01*
X114450705Y18149000D01*
X114355467Y18196619D01*
X113545943Y17196619D02*
X113355467Y17196619D01*
X113260228Y17244238D01*
X113212609Y17291857D01*
X113117371Y17434714D01*
X113069752Y17625190D01*
X113069752Y18006143D01*
X113117371Y18101381D01*
X113164990Y18149000D01*
X113260228Y18196619D01*
X113450705Y18196619D01*
X113545943Y18149000D01*
X113593562Y18101381D01*
X113641181Y18006143D01*
X113641181Y17768048D01*
X113593562Y17672810D01*
X113545943Y17625190D01*
X113450705Y17577571D01*
X113260228Y17577571D01*
X113164990Y17625190D01*
X113117371Y17672810D01*
X113069752Y17768048D01*
X128831686Y9946619D02*
X128260257Y9946619D01*
X128545972Y8946619D02*
X128545972Y9946619D01*
X127926924Y8946619D02*
X127926924Y9946619D01*
X127545971Y9946619D01*
X127450733Y9899000D01*
X127403114Y9851381D01*
X127355495Y9756143D01*
X127355495Y9613286D01*
X127403114Y9518048D01*
X127450733Y9470429D01*
X127545971Y9422810D01*
X127926924Y9422810D01*
X126974543Y9851381D02*
X126926924Y9899000D01*
X126831686Y9946619D01*
X126593590Y9946619D01*
X126498352Y9899000D01*
X126450733Y9851381D01*
X126403114Y9756143D01*
X126403114Y9660905D01*
X126450733Y9518048D01*
X127022162Y8946619D01*
X126403114Y8946619D01*
X125784067Y9946619D02*
X125688828Y9946619D01*
X125593590Y9899000D01*
X125545971Y9851381D01*
X125498352Y9756143D01*
X125450733Y9565667D01*
X125450733Y9327571D01*
X125498352Y9137095D01*
X125545971Y9041857D01*
X125593590Y8994238D01*
X125688828Y8946619D01*
X125784067Y8946619D01*
X125879305Y8994238D01*
X125926924Y9041857D01*
X125974543Y9137095D01*
X126022162Y9327571D01*
X126022162Y9565667D01*
X125974543Y9756143D01*
X125926924Y9851381D01*
X125879305Y9899000D01*
X125784067Y9946619D01*
X124593590Y9613286D02*
X124593590Y8946619D01*
X124831686Y9994238D02*
X125069781Y9279952D01*
X124450733Y9279952D01*
X140260286Y18196619D02*
X139688857Y18196619D01*
X139974572Y17196619D02*
X139974572Y18196619D01*
X139355524Y17196619D02*
X139355524Y18196619D01*
X138974571Y18196619D01*
X138879333Y18149000D01*
X138831714Y18101381D01*
X138784095Y18006143D01*
X138784095Y17863286D01*
X138831714Y17768048D01*
X138879333Y17720429D01*
X138974571Y17672810D01*
X139355524Y17672810D01*
X138403143Y18101381D02*
X138355524Y18149000D01*
X138260286Y18196619D01*
X138022190Y18196619D01*
X137926952Y18149000D01*
X137879333Y18101381D01*
X137831714Y18006143D01*
X137831714Y17910905D01*
X137879333Y17768048D01*
X138450762Y17196619D01*
X137831714Y17196619D01*
X136879333Y17196619D02*
X137450762Y17196619D01*
X137165048Y17196619D02*
X137165048Y18196619D01*
X137260286Y18053762D01*
X137355524Y17958524D01*
X137450762Y17910905D01*
X136260286Y18196619D02*
X136165047Y18196619D01*
X136069809Y18149000D01*
X136022190Y18101381D01*
X135974571Y18006143D01*
X135926952Y17815667D01*
X135926952Y17577571D01*
X135974571Y17387095D01*
X136022190Y17291857D01*
X136069809Y17244238D01*
X136165047Y17196619D01*
X136260286Y17196619D01*
X136355524Y17244238D01*
X136403143Y17291857D01*
X136450762Y17387095D01*
X136498381Y17577571D01*
X136498381Y17815667D01*
X136450762Y18006143D01*
X136403143Y18101381D01*
X136355524Y18149000D01*
X136260286Y18196619D01*
X151688886Y9946619D02*
X151117457Y9946619D01*
X151403172Y8946619D02*
X151403172Y9946619D01*
X150784124Y8946619D02*
X150784124Y9946619D01*
X150403171Y9946619D01*
X150307933Y9899000D01*
X150260314Y9851381D01*
X150212695Y9756143D01*
X150212695Y9613286D01*
X150260314Y9518048D01*
X150307933Y9470429D01*
X150403171Y9422810D01*
X150784124Y9422810D01*
X149831743Y9851381D02*
X149784124Y9899000D01*
X149688886Y9946619D01*
X149450790Y9946619D01*
X149355552Y9899000D01*
X149307933Y9851381D01*
X149260314Y9756143D01*
X149260314Y9660905D01*
X149307933Y9518048D01*
X149879362Y8946619D01*
X149260314Y8946619D01*
X148641267Y9946619D02*
X148546028Y9946619D01*
X148450790Y9899000D01*
X148403171Y9851381D01*
X148355552Y9756143D01*
X148307933Y9565667D01*
X148307933Y9327571D01*
X148355552Y9137095D01*
X148403171Y9041857D01*
X148450790Y8994238D01*
X148546028Y8946619D01*
X148641267Y8946619D01*
X148736505Y8994238D01*
X148784124Y9041857D01*
X148831743Y9137095D01*
X148879362Y9327571D01*
X148879362Y9565667D01*
X148831743Y9756143D01*
X148784124Y9851381D01*
X148736505Y9899000D01*
X148641267Y9946619D01*
X147403171Y9946619D02*
X147879362Y9946619D01*
X147926981Y9470429D01*
X147879362Y9518048D01*
X147784124Y9565667D01*
X147546028Y9565667D01*
X147450790Y9518048D01*
X147403171Y9470429D01*
X147355552Y9375190D01*
X147355552Y9137095D01*
X147403171Y9041857D01*
X147450790Y8994238D01*
X147546028Y8946619D01*
X147784124Y8946619D01*
X147879362Y8994238D01*
X147926981Y9041857D01*
X163117486Y18196619D02*
X162546057Y18196619D01*
X162831772Y17196619D02*
X162831772Y18196619D01*
X162212724Y17196619D02*
X162212724Y18196619D01*
X161831771Y18196619D01*
X161736533Y18149000D01*
X161688914Y18101381D01*
X161641295Y18006143D01*
X161641295Y17863286D01*
X161688914Y17768048D01*
X161736533Y17720429D01*
X161831771Y17672810D01*
X162212724Y17672810D01*
X161260343Y18101381D02*
X161212724Y18149000D01*
X161117486Y18196619D01*
X160879390Y18196619D01*
X160784152Y18149000D01*
X160736533Y18101381D01*
X160688914Y18006143D01*
X160688914Y17910905D01*
X160736533Y17768048D01*
X161307962Y17196619D01*
X160688914Y17196619D01*
X159736533Y17196619D02*
X160307962Y17196619D01*
X160022248Y17196619D02*
X160022248Y18196619D01*
X160117486Y18053762D01*
X160212724Y17958524D01*
X160307962Y17910905D01*
X158784152Y17196619D02*
X159355581Y17196619D01*
X159069867Y17196619D02*
X159069867Y18196619D01*
X159165105Y18053762D01*
X159260343Y17958524D01*
X159355581Y17910905D01*
X174546086Y9946619D02*
X173974657Y9946619D01*
X174260372Y8946619D02*
X174260372Y9946619D01*
X173641324Y8946619D02*
X173641324Y9946619D01*
X173260371Y9946619D01*
X173165133Y9899000D01*
X173117514Y9851381D01*
X173069895Y9756143D01*
X173069895Y9613286D01*
X173117514Y9518048D01*
X173165133Y9470429D01*
X173260371Y9422810D01*
X173641324Y9422810D01*
X172688943Y9851381D02*
X172641324Y9899000D01*
X172546086Y9946619D01*
X172307990Y9946619D01*
X172212752Y9899000D01*
X172165133Y9851381D01*
X172117514Y9756143D01*
X172117514Y9660905D01*
X172165133Y9518048D01*
X172736562Y8946619D01*
X172117514Y8946619D01*
X171498467Y9946619D02*
X171403228Y9946619D01*
X171307990Y9899000D01*
X171260371Y9851381D01*
X171212752Y9756143D01*
X171165133Y9565667D01*
X171165133Y9327571D01*
X171212752Y9137095D01*
X171260371Y9041857D01*
X171307990Y8994238D01*
X171403228Y8946619D01*
X171498467Y8946619D01*
X171593705Y8994238D01*
X171641324Y9041857D01*
X171688943Y9137095D01*
X171736562Y9327571D01*
X171736562Y9565667D01*
X171688943Y9756143D01*
X171641324Y9851381D01*
X171593705Y9899000D01*
X171498467Y9946619D01*
X170307990Y9946619D02*
X170498467Y9946619D01*
X170593705Y9899000D01*
X170641324Y9851381D01*
X170736562Y9708524D01*
X170784181Y9518048D01*
X170784181Y9137095D01*
X170736562Y9041857D01*
X170688943Y8994238D01*
X170593705Y8946619D01*
X170403228Y8946619D01*
X170307990Y8994238D01*
X170260371Y9041857D01*
X170212752Y9137095D01*
X170212752Y9375190D01*
X170260371Y9470429D01*
X170307990Y9518048D01*
X170403228Y9565667D01*
X170593705Y9565667D01*
X170688943Y9518048D01*
X170736562Y9470429D01*
X170784181Y9375190D01*
X13057143Y52236666D02*
X13104762Y52284285D01*
X13152381Y52427142D01*
X13152381Y52522380D01*
X13104762Y52665238D01*
X13009524Y52760476D01*
X12914286Y52808095D01*
X12723810Y52855714D01*
X12580952Y52855714D01*
X12390476Y52808095D01*
X12295238Y52760476D01*
X12200000Y52665238D01*
X12152381Y52522380D01*
X12152381Y52427142D01*
X12200000Y52284285D01*
X12247619Y52236666D01*
X13152381Y51284285D02*
X13152381Y51855714D01*
X13152381Y51570000D02*
X12152381Y51570000D01*
X12295238Y51665238D01*
X12390476Y51760476D01*
X12438095Y51855714D01*
X11787143Y52236666D02*
X11834762Y52284285D01*
X11882381Y52427142D01*
X11882381Y52522380D01*
X11834762Y52665238D01*
X11739524Y52760476D01*
X11644286Y52808095D01*
X11453810Y52855714D01*
X11310952Y52855714D01*
X11120476Y52808095D01*
X11025238Y52760476D01*
X10930000Y52665238D01*
X10882381Y52522380D01*
X10882381Y52427142D01*
X10930000Y52284285D01*
X10977619Y52236666D01*
X10977619Y51855714D02*
X10930000Y51808095D01*
X10882381Y51712857D01*
X10882381Y51474761D01*
X10930000Y51379523D01*
X10977619Y51331904D01*
X11072857Y51284285D01*
X11168095Y51284285D01*
X11310952Y51331904D01*
X11882381Y51903333D01*
X11882381Y51284285D01*
X14327143Y23979047D02*
X14374762Y24026666D01*
X14422381Y24169523D01*
X14422381Y24264761D01*
X14374762Y24407619D01*
X14279524Y24502857D01*
X14184286Y24550476D01*
X13993810Y24598095D01*
X13850952Y24598095D01*
X13660476Y24550476D01*
X13565238Y24502857D01*
X13470000Y24407619D01*
X13422381Y24264761D01*
X13422381Y24169523D01*
X13470000Y24026666D01*
X13517619Y23979047D01*
X14422381Y23026666D02*
X14422381Y23598095D01*
X14422381Y23312381D02*
X13422381Y23312381D01*
X13565238Y23407619D01*
X13660476Y23502857D01*
X13708095Y23598095D01*
X13422381Y22407619D02*
X13422381Y22312380D01*
X13470000Y22217142D01*
X13517619Y22169523D01*
X13612857Y22121904D01*
X13803333Y22074285D01*
X14041429Y22074285D01*
X14231905Y22121904D01*
X14327143Y22169523D01*
X14374762Y22217142D01*
X14422381Y22312380D01*
X14422381Y22407619D01*
X14374762Y22502857D01*
X14327143Y22550476D01*
X14231905Y22598095D01*
X14041429Y22645714D01*
X13803333Y22645714D01*
X13612857Y22598095D01*
X13517619Y22550476D01*
X13470000Y22502857D01*
X13422381Y22407619D01*
X14422381Y21121904D02*
X14422381Y21693333D01*
X14422381Y21407619D02*
X13422381Y21407619D01*
X13565238Y21502857D01*
X13660476Y21598095D01*
X13708095Y21693333D01*
X13057143Y23979047D02*
X13104762Y24026666D01*
X13152381Y24169523D01*
X13152381Y24264761D01*
X13104762Y24407619D01*
X13009524Y24502857D01*
X12914286Y24550476D01*
X12723810Y24598095D01*
X12580952Y24598095D01*
X12390476Y24550476D01*
X12295238Y24502857D01*
X12200000Y24407619D01*
X12152381Y24264761D01*
X12152381Y24169523D01*
X12200000Y24026666D01*
X12247619Y23979047D01*
X13152381Y23026666D02*
X13152381Y23598095D01*
X13152381Y23312381D02*
X12152381Y23312381D01*
X12295238Y23407619D01*
X12390476Y23502857D01*
X12438095Y23598095D01*
X12152381Y22407619D02*
X12152381Y22312380D01*
X12200000Y22217142D01*
X12247619Y22169523D01*
X12342857Y22121904D01*
X12533333Y22074285D01*
X12771429Y22074285D01*
X12961905Y22121904D01*
X13057143Y22169523D01*
X13104762Y22217142D01*
X13152381Y22312380D01*
X13152381Y22407619D01*
X13104762Y22502857D01*
X13057143Y22550476D01*
X12961905Y22598095D01*
X12771429Y22645714D01*
X12533333Y22645714D01*
X12342857Y22598095D01*
X12247619Y22550476D01*
X12200000Y22502857D01*
X12152381Y22407619D01*
X12247619Y21693333D02*
X12200000Y21645714D01*
X12152381Y21550476D01*
X12152381Y21312380D01*
X12200000Y21217142D01*
X12247619Y21169523D01*
X12342857Y21121904D01*
X12438095Y21121904D01*
X12580952Y21169523D01*
X13152381Y21740952D01*
X13152381Y21121904D01*
X14327143Y7469047D02*
X14374762Y7516666D01*
X14422381Y7659523D01*
X14422381Y7754761D01*
X14374762Y7897619D01*
X14279524Y7992857D01*
X14184286Y8040476D01*
X13993810Y8088095D01*
X13850952Y8088095D01*
X13660476Y8040476D01*
X13565238Y7992857D01*
X13470000Y7897619D01*
X13422381Y7754761D01*
X13422381Y7659523D01*
X13470000Y7516666D01*
X13517619Y7469047D01*
X13517619Y7088095D02*
X13470000Y7040476D01*
X13422381Y6945238D01*
X13422381Y6707142D01*
X13470000Y6611904D01*
X13517619Y6564285D01*
X13612857Y6516666D01*
X13708095Y6516666D01*
X13850952Y6564285D01*
X14422381Y7135714D01*
X14422381Y6516666D01*
X13422381Y5897619D02*
X13422381Y5802380D01*
X13470000Y5707142D01*
X13517619Y5659523D01*
X13612857Y5611904D01*
X13803333Y5564285D01*
X14041429Y5564285D01*
X14231905Y5611904D01*
X14327143Y5659523D01*
X14374762Y5707142D01*
X14422381Y5802380D01*
X14422381Y5897619D01*
X14374762Y5992857D01*
X14327143Y6040476D01*
X14231905Y6088095D01*
X14041429Y6135714D01*
X13803333Y6135714D01*
X13612857Y6088095D01*
X13517619Y6040476D01*
X13470000Y5992857D01*
X13422381Y5897619D01*
X14422381Y4611904D02*
X14422381Y5183333D01*
X14422381Y4897619D02*
X13422381Y4897619D01*
X13565238Y4992857D01*
X13660476Y5088095D01*
X13708095Y5183333D01*
X13057143Y7469047D02*
X13104762Y7516666D01*
X13152381Y7659523D01*
X13152381Y7754761D01*
X13104762Y7897619D01*
X13009524Y7992857D01*
X12914286Y8040476D01*
X12723810Y8088095D01*
X12580952Y8088095D01*
X12390476Y8040476D01*
X12295238Y7992857D01*
X12200000Y7897619D01*
X12152381Y7754761D01*
X12152381Y7659523D01*
X12200000Y7516666D01*
X12247619Y7469047D01*
X12247619Y7088095D02*
X12200000Y7040476D01*
X12152381Y6945238D01*
X12152381Y6707142D01*
X12200000Y6611904D01*
X12247619Y6564285D01*
X12342857Y6516666D01*
X12438095Y6516666D01*
X12580952Y6564285D01*
X13152381Y7135714D01*
X13152381Y6516666D01*
X12152381Y5897619D02*
X12152381Y5802380D01*
X12200000Y5707142D01*
X12247619Y5659523D01*
X12342857Y5611904D01*
X12533333Y5564285D01*
X12771429Y5564285D01*
X12961905Y5611904D01*
X13057143Y5659523D01*
X13104762Y5707142D01*
X13152381Y5802380D01*
X13152381Y5897619D01*
X13104762Y5992857D01*
X13057143Y6040476D01*
X12961905Y6088095D01*
X12771429Y6135714D01*
X12533333Y6135714D01*
X12342857Y6088095D01*
X12247619Y6040476D01*
X12200000Y5992857D01*
X12152381Y5897619D01*
X12247619Y5183333D02*
X12200000Y5135714D01*
X12152381Y5040476D01*
X12152381Y4802380D01*
X12200000Y4707142D01*
X12247619Y4659523D01*
X12342857Y4611904D01*
X12438095Y4611904D01*
X12580952Y4659523D01*
X13152381Y5230952D01*
X13152381Y4611904D01*
X12815047Y38917619D02*
X13148381Y39393810D01*
X13386476Y38917619D02*
X13386476Y39917619D01*
X13005523Y39917619D01*
X12910285Y39870000D01*
X12862666Y39822381D01*
X12815047Y39727143D01*
X12815047Y39584286D01*
X12862666Y39489048D01*
X12910285Y39441429D01*
X13005523Y39393810D01*
X13386476Y39393810D01*
X12481714Y39917619D02*
X11862666Y39917619D01*
X12196000Y39536667D01*
X12053142Y39536667D01*
X11957904Y39489048D01*
X11910285Y39441429D01*
X11862666Y39346190D01*
X11862666Y39108095D01*
X11910285Y39012857D01*
X11957904Y38965238D01*
X12053142Y38917619D01*
X12338857Y38917619D01*
X12434095Y38965238D01*
X12481714Y39012857D01*
X11243619Y39917619D02*
X11148380Y39917619D01*
X11053142Y39870000D01*
X11005523Y39822381D01*
X10957904Y39727143D01*
X10910285Y39536667D01*
X10910285Y39298571D01*
X10957904Y39108095D01*
X11005523Y39012857D01*
X11053142Y38965238D01*
X11148380Y38917619D01*
X11243619Y38917619D01*
X11338857Y38965238D01*
X11386476Y39012857D01*
X11434095Y39108095D01*
X11481714Y39298571D01*
X11481714Y39536667D01*
X11434095Y39727143D01*
X11386476Y39822381D01*
X11338857Y39870000D01*
X11243619Y39917619D01*
X9957904Y38917619D02*
X10529333Y38917619D01*
X10243619Y38917619D02*
X10243619Y39917619D01*
X10338857Y39774762D01*
X10434095Y39679524D01*
X10529333Y39631905D01*
X12803047Y37647619D02*
X13136381Y38123810D01*
X13374476Y37647619D02*
X13374476Y38647619D01*
X12993523Y38647619D01*
X12898285Y38600000D01*
X12850666Y38552381D01*
X12803047Y38457143D01*
X12803047Y38314286D01*
X12850666Y38219048D01*
X12898285Y38171429D01*
X12993523Y38123810D01*
X13374476Y38123810D01*
X12469714Y38647619D02*
X11850666Y38647619D01*
X12184000Y38266667D01*
X12041142Y38266667D01*
X11945904Y38219048D01*
X11898285Y38171429D01*
X11850666Y38076190D01*
X11850666Y37838095D01*
X11898285Y37742857D01*
X11945904Y37695238D01*
X12041142Y37647619D01*
X12326857Y37647619D01*
X12422095Y37695238D01*
X12469714Y37742857D01*
X11231619Y38647619D02*
X11136380Y38647619D01*
X11041142Y38600000D01*
X10993523Y38552381D01*
X10945904Y38457143D01*
X10898285Y38266667D01*
X10898285Y38028571D01*
X10945904Y37838095D01*
X10993523Y37742857D01*
X11041142Y37695238D01*
X11136380Y37647619D01*
X11231619Y37647619D01*
X11326857Y37695238D01*
X11374476Y37742857D01*
X11422095Y37838095D01*
X11469714Y38028571D01*
X11469714Y38266667D01*
X11422095Y38457143D01*
X11374476Y38552381D01*
X11326857Y38600000D01*
X11231619Y38647619D01*
X10517333Y38552381D02*
X10469714Y38600000D01*
X10374476Y38647619D01*
X10136380Y38647619D01*
X10041142Y38600000D01*
X9993523Y38552381D01*
X9945904Y38457143D01*
X9945904Y38361905D01*
X9993523Y38219048D01*
X10564952Y37647619D01*
X9945904Y37647619D01*
X12803047Y40187619D02*
X13136381Y40663810D01*
X13374476Y40187619D02*
X13374476Y41187619D01*
X12993523Y41187619D01*
X12898285Y41140000D01*
X12850666Y41092381D01*
X12803047Y40997143D01*
X12803047Y40854286D01*
X12850666Y40759048D01*
X12898285Y40711429D01*
X12993523Y40663810D01*
X13374476Y40663810D01*
X12469714Y41187619D02*
X11850666Y41187619D01*
X12184000Y40806667D01*
X12041142Y40806667D01*
X11945904Y40759048D01*
X11898285Y40711429D01*
X11850666Y40616190D01*
X11850666Y40378095D01*
X11898285Y40282857D01*
X11945904Y40235238D01*
X12041142Y40187619D01*
X12326857Y40187619D01*
X12422095Y40235238D01*
X12469714Y40282857D01*
X11231619Y41187619D02*
X11136380Y41187619D01*
X11041142Y41140000D01*
X10993523Y41092381D01*
X10945904Y40997143D01*
X10898285Y40806667D01*
X10898285Y40568571D01*
X10945904Y40378095D01*
X10993523Y40282857D01*
X11041142Y40235238D01*
X11136380Y40187619D01*
X11231619Y40187619D01*
X11326857Y40235238D01*
X11374476Y40282857D01*
X11422095Y40378095D01*
X11469714Y40568571D01*
X11469714Y40806667D01*
X11422095Y40997143D01*
X11374476Y41092381D01*
X11326857Y41140000D01*
X11231619Y41187619D01*
X10564952Y41187619D02*
X9945904Y41187619D01*
X10279238Y40806667D01*
X10136380Y40806667D01*
X10041142Y40759048D01*
X9993523Y40711429D01*
X9945904Y40616190D01*
X9945904Y40378095D01*
X9993523Y40282857D01*
X10041142Y40235238D01*
X10136380Y40187619D01*
X10422095Y40187619D01*
X10517333Y40235238D01*
X10564952Y40282857D01*
X21234286Y46114643D02*
X21234286Y45143214D01*
X21177143Y45028929D01*
X21120000Y44971786D01*
X21005714Y44914643D01*
X20777143Y44914643D01*
X20662857Y44971786D01*
X20605714Y45028929D01*
X20548571Y45143214D01*
X20548571Y46114643D01*
X19348571Y44914643D02*
X20034286Y44914643D01*
X19691428Y44914643D02*
X19691428Y46114643D01*
X19805714Y45943214D01*
X19920000Y45828929D01*
X20034286Y45771786D01*
X22377143Y21984643D02*
X22377143Y21013214D01*
X22320000Y20898929D01*
X22262857Y20841786D01*
X22148571Y20784643D01*
X21920000Y20784643D01*
X21805714Y20841786D01*
X21748571Y20898929D01*
X21691428Y21013214D01*
X21691428Y21984643D01*
X20491428Y20784643D02*
X21177143Y20784643D01*
X20834285Y20784643D02*
X20834285Y21984643D01*
X20948571Y21813214D01*
X21062857Y21698929D01*
X21177143Y21641786D01*
X19748571Y21984643D02*
X19634286Y21984643D01*
X19520000Y21927500D01*
X19462857Y21870357D01*
X19405714Y21756071D01*
X19348571Y21527500D01*
X19348571Y21241786D01*
X19405714Y21013214D01*
X19462857Y20898929D01*
X19520000Y20841786D01*
X19634286Y20784643D01*
X19748571Y20784643D01*
X19862857Y20841786D01*
X19920000Y20898929D01*
X19977143Y21013214D01*
X20034286Y21241786D01*
X20034286Y21527500D01*
X19977143Y21756071D01*
X19920000Y21870357D01*
X19862857Y21927500D01*
X19748571Y21984643D01*
X18605714Y21984643D02*
X18491429Y21984643D01*
X18377143Y21927500D01*
X18320000Y21870357D01*
X18262857Y21756071D01*
X18205714Y21527500D01*
X18205714Y21241786D01*
X18262857Y21013214D01*
X18320000Y20898929D01*
X18377143Y20841786D01*
X18491429Y20784643D01*
X18605714Y20784643D01*
X18720000Y20841786D01*
X18777143Y20898929D01*
X18834286Y21013214D01*
X18891429Y21241786D01*
X18891429Y21527500D01*
X18834286Y21756071D01*
X18777143Y21870357D01*
X18720000Y21927500D01*
X18605714Y21984643D01*
M02*
