M48
INCH,TZ
T1C0.016
T2C0.040
T3C0.120
%
G90
G05
T1
X4005Y19795
X4700Y21700
X5000Y18600
X5000Y11100
X5200Y9400
X5246Y14459
X5300Y12000
X5345Y21148
X5400Y22000
X5400Y3200
X5700Y11300
X5800Y4800
X5900Y21500
X5900Y20800
X5900Y10700
X6000Y11100
X6300Y11600
X8100Y6300
X8508Y12100
X8651Y8708
X9200Y22200
X11000Y8000
X12307Y22293
X12307Y14419
X14600Y2700
X18000Y21000
X18000Y13000
X19000Y2000
X19141Y6348
X20181Y18750
X20181Y10876
X23700Y2700
X26000Y13000
X26400Y21000
X28000Y2000
X28020Y14419
X28140Y6348
X31564Y22293
X32600Y2700
X33700Y21000
X33700Y13000
X33887Y5988
X35929Y22293
X35929Y14419
X37000Y2000
X41600Y21000
X41700Y2700
X42500Y13000
X43803Y22293
X43803Y10876
X46000Y2000
X46137Y6348
X50000Y13000
X50600Y2700
X50900Y7000
X51677Y22293
X51677Y14419
X55000Y3000
X55136Y6348
X58000Y13000
X59000Y8000
X59551Y22293
X59600Y2700
X63094Y10876
X64000Y3000
X64135Y6348
X65300Y13000
X67425Y22293
X67425Y14419
X68600Y2700
X72400Y23000
X73600Y13000
T2
X2500Y14000
X2500Y13000
X2500Y12000
X2500Y11000
X2500Y10000
X2500Y9000
X2500Y8000
X2500Y7000
X2500Y6000
X2500Y5000
X2500Y4000
X3500Y14000
X3500Y13000
X3500Y12000
X3500Y11000
X3500Y10000
X3500Y9000
X3500Y8000
X3500Y7000
X3500Y6000
X3500Y5000
X3500Y4000
X4500Y24500
X4500Y1500
X5000Y17500
X5000Y8000
X5500Y24500
X5500Y1500
X6000Y17500
X6000Y14000
X6000Y8000
X6500Y24500
X6500Y1500
X7000Y17500
X7000Y14000
X7000Y8000
X7500Y24500
X8000Y14000
X9000Y14000
T3
X2181Y24114
X2181Y1181
X8480Y1181
X9268Y24114
X74181Y24114
X74181Y1181
T0
M30
