M48
INCH,TZ
T1C0.016
T2C0.040
T3C0.120
%
G90
G05
T1
X5603Y18921
X6000Y20000
X11502Y2254
X13780Y17470
X14100Y10400
X19100Y4700
X21900Y9286
X22047Y16880
X23600Y500
X28100Y4677
X29789Y17075
X29800Y9600
X32600Y4000
X37402Y17323
X37700Y10000
X41584Y4133
X45276Y17323
X45900Y10500
X46100Y5100
X50600Y4000
X53346Y17717
X53500Y10500
X55000Y5100
X59500Y4600
X61220Y22835
X61400Y10300
X63900Y4900
X68500Y4000
X69100Y10300
X69291Y23425
T2
X2000Y22000
X2000Y21000
X2000Y20000
X2000Y19000
X2000Y16000
X2000Y15000
X2000Y14043
X2000Y13000
X2000Y7000
X2000Y6000
X2000Y5000
X2000Y4000
X2000Y3000
X3000Y22000
X3000Y21000
X3000Y20000
X3000Y19000
X3000Y16000
X3000Y15000
X3000Y14000
X3000Y13000
X3000Y7000
X3000Y6000
X3000Y5000
X3000Y4000
X3000Y3000
X4000Y24000
X4000Y23000
X4000Y22000
X4000Y21000
X4000Y20000
X4000Y19000
X4000Y16000
X4000Y15000
X4000Y14000
X4000Y13000
X4000Y12000
X4000Y11000
X4000Y8000
X4000Y7000
X4000Y6000
X4000Y5000
X4000Y4000
X4000Y3000
X6000Y24000
X6000Y18000
X6000Y16000
X6000Y10000
X6000Y8000
X6000Y2000
X7000Y24000
X7000Y18000
X7000Y16000
X7000Y10000
X7000Y8000
X7000Y2000
X8000Y24000
X8000Y18000
X8000Y16000
X8000Y10000
X8000Y8000
X8000Y2000
X9000Y24000
X9000Y22000
X9000Y21000
X9000Y20000
X9000Y19000
X9000Y18000
X9000Y16000
X9000Y14000
X9000Y13000
X9000Y12000
X9000Y11000
X9000Y10000
X9000Y8000
X9000Y6000
X9000Y5000
X9000Y4000
X9000Y3000
X9000Y2000
T3
X1181Y24114
X1181Y1181
X75181Y24114
X75181Y1181
T0
M30
