M48
METRIC,TZ
T1C0.675
T2C1.300
T3C2.000
%
G90
G05
T1
X8549Y48505
T2
X20320Y10381
X20320Y5681
T3
X38000Y47250
X38000Y14750
X55000Y47250
X55000Y14750
X72000Y47250
X72000Y14750
X89000Y47250
X89000Y14750
X106000Y47250
X106000Y14750
X123000Y47250
X123000Y14750
X140000Y47250
X140000Y14750
X157000Y47250
X157000Y14750
T1
X8549Y41443G85X8549Y41168
G05
T0
M30
