G04 #@! TF.FileFunction,Soldermask,Bot*
%FSLAX46Y46*%
G04 Gerber Fmt 4.6, Leading zero omitted, Abs format (unit mm)*
G04 Created by KiCad (PCBNEW 4.0.4-stable) date 07/11/17 15:37:42*
%MOMM*%
%LPD*%
G01*
G04 APERTURE LIST*
%ADD10C,0.100000*%
%ADD11C,1.727200*%
%ADD12C,4.064000*%
%ADD13C,3.100000*%
%ADD14C,1.600000*%
%ADD15R,1.800000X1.800000*%
%ADD16C,1.800000*%
%ADD17C,1.300000*%
%ADD18C,1.524000*%
%ADD19C,2.000000*%
%ADD20O,1.400000X0.800000*%
G04 APERTURE END LIST*
D10*
D11*
X10620000Y3725000D03*
X10620000Y6265000D03*
X10620000Y8805000D03*
D12*
X148500000Y18500000D03*
X97500000Y18500000D03*
X46500000Y18500000D03*
X148500000Y43500000D03*
X46500000Y43500000D03*
X97500000Y43500000D03*
D11*
X8080000Y3725000D03*
X8080000Y6265000D03*
X8080000Y8805000D03*
X8000000Y29125000D03*
D13*
X20320000Y19699800D03*
X20320000Y28488200D03*
D14*
X27330400Y21594000D03*
X27330400Y24094000D03*
X27330400Y26594000D03*
D11*
X8080000Y21505000D03*
X10620000Y21505000D03*
X8080000Y24045000D03*
X10620000Y24045000D03*
X8080000Y13885000D03*
X10620000Y13885000D03*
X8080000Y18965000D03*
X10620000Y18965000D03*
X8080000Y16425000D03*
X10620000Y16425000D03*
X8080000Y11345000D03*
X10620000Y11345000D03*
X8080000Y26585000D03*
X10620000Y26585000D03*
D12*
X166000000Y58000000D03*
X166000000Y4000000D03*
X3000000Y4000000D03*
X3000000Y58000000D03*
D15*
X26920000Y5331400D03*
D16*
X26920000Y8031400D03*
X26920000Y10706400D03*
X23020000Y14631400D03*
X20320000Y14631400D03*
X17620000Y14631400D03*
X15720000Y8031400D03*
X20320000Y3431400D03*
D17*
X20320000Y10381400D03*
X20320000Y5681400D03*
D11*
X10620000Y29125000D03*
D18*
X34250000Y3500000D03*
X39250000Y3500000D03*
X36750000Y3500000D03*
X41750000Y3500000D03*
X36750000Y58500000D03*
X41750000Y58500000D03*
D19*
X38000000Y14750000D03*
X38000000Y47250000D03*
D18*
X51250000Y3500000D03*
X56250000Y3500000D03*
X53750000Y3500000D03*
X58750000Y3500000D03*
X53750000Y58500000D03*
X58750000Y58500000D03*
D19*
X55000000Y14750000D03*
X55000000Y47250000D03*
D18*
X68250000Y3500000D03*
X73250000Y3500000D03*
X70750000Y3500000D03*
X75750000Y3500000D03*
X70750000Y58500000D03*
X75750000Y58500000D03*
D19*
X72000000Y14750000D03*
X72000000Y47250000D03*
D18*
X85250000Y3500000D03*
X90250000Y3500000D03*
X87750000Y3500000D03*
X92750000Y3500000D03*
X87750000Y58500000D03*
X92750000Y58500000D03*
D19*
X89000000Y14750000D03*
X89000000Y47250000D03*
D18*
X102250000Y3500000D03*
X107250000Y3500000D03*
X104750000Y3500000D03*
X109750000Y3500000D03*
X104750000Y58500000D03*
X109750000Y58500000D03*
D19*
X106000000Y14750000D03*
X106000000Y47250000D03*
D18*
X119250000Y3500000D03*
X124250000Y3500000D03*
X121750000Y3500000D03*
X126750000Y3500000D03*
X121750000Y58500000D03*
X126750000Y58500000D03*
D19*
X123000000Y14750000D03*
X123000000Y47250000D03*
D18*
X136250000Y3500000D03*
X141250000Y3500000D03*
X138750000Y3500000D03*
X143750000Y3500000D03*
X138750000Y58500000D03*
X143750000Y58500000D03*
D19*
X140000000Y14750000D03*
X140000000Y47250000D03*
D18*
X153250000Y3500000D03*
X158250000Y3500000D03*
X155750000Y3500000D03*
X160750000Y3500000D03*
X155750000Y58500000D03*
X160750000Y58500000D03*
D19*
X157000000Y14750000D03*
X157000000Y47250000D03*
D20*
X1349000Y49395000D03*
X1349000Y40415000D03*
X7299000Y49035000D03*
X7299000Y40775000D03*
D11*
X29670000Y50715000D03*
X29670000Y53255000D03*
X11890000Y50715000D03*
X11890000Y53255000D03*
X14430000Y50715000D03*
X14430000Y53255000D03*
X16970000Y50715000D03*
X16970000Y53255000D03*
X19510000Y50715000D03*
X19510000Y53255000D03*
X22050000Y50715000D03*
X22050000Y53255000D03*
X24590000Y50715000D03*
X24590000Y53255000D03*
X27130000Y50715000D03*
X27130000Y53255000D03*
M02*
