G04 #@! TF.FileFunction,Legend,Bot*
%FSLAX46Y46*%
G04 Gerber Fmt 4.6, Leading zero omitted, Abs format (unit mm)*
G04 Created by KiCad (PCBNEW 4.0.4-stable) date 07/11/17 15:37:42*
%MOMM*%
%LPD*%
G01*
G04 APERTURE LIST*
%ADD10C,0.100000*%
%ADD11C,0.150000*%
%ADD12C,0.200000*%
%ADD13C,0.125000*%
G04 APERTURE END LIST*
D10*
D11*
X167742857Y54503571D02*
X167628571Y54503571D01*
X167571429Y54475000D01*
X167514286Y54417857D01*
X167485714Y54303571D01*
X167485714Y54103571D01*
X167514286Y53989286D01*
X167571429Y53932143D01*
X167628571Y53903571D01*
X167742857Y53903571D01*
X167800000Y53932143D01*
X167857143Y53989286D01*
X167885714Y54103571D01*
X167885714Y54303571D01*
X167857143Y54417857D01*
X167800000Y54475000D01*
X167742857Y54503571D01*
X167228572Y54303571D02*
X167228572Y53703571D01*
X167228572Y54275000D02*
X167171429Y54303571D01*
X167057143Y54303571D01*
X167000000Y54275000D01*
X166971429Y54246429D01*
X166942858Y54189286D01*
X166942858Y54017857D01*
X166971429Y53960714D01*
X167000000Y53932143D01*
X167057143Y53903571D01*
X167171429Y53903571D01*
X167228572Y53932143D01*
X166457143Y53932143D02*
X166514286Y53903571D01*
X166628572Y53903571D01*
X166685715Y53932143D01*
X166714286Y53989286D01*
X166714286Y54217857D01*
X166685715Y54275000D01*
X166628572Y54303571D01*
X166514286Y54303571D01*
X166457143Y54275000D01*
X166428572Y54217857D01*
X166428572Y54160714D01*
X166714286Y54103571D01*
X166171429Y54303571D02*
X166171429Y53903571D01*
X166171429Y54246429D02*
X166142857Y54275000D01*
X166085715Y54303571D01*
X166000000Y54303571D01*
X165942857Y54275000D01*
X165914286Y54217857D01*
X165914286Y53903571D01*
X165200000Y53932143D02*
X165142857Y53903571D01*
X165028572Y53903571D01*
X164971429Y53932143D01*
X164942857Y53989286D01*
X164942857Y54017857D01*
X164971429Y54075000D01*
X165028572Y54103571D01*
X165114286Y54103571D01*
X165171429Y54132143D01*
X165200000Y54189286D01*
X165200000Y54217857D01*
X165171429Y54275000D01*
X165114286Y54303571D01*
X165028572Y54303571D01*
X164971429Y54275000D01*
X164600001Y53903571D02*
X164657143Y53932143D01*
X164685715Y53960714D01*
X164714286Y54017857D01*
X164714286Y54189286D01*
X164685715Y54246429D01*
X164657143Y54275000D01*
X164600001Y54303571D01*
X164514286Y54303571D01*
X164457143Y54275000D01*
X164428572Y54246429D01*
X164400001Y54189286D01*
X164400001Y54017857D01*
X164428572Y53960714D01*
X164457143Y53932143D01*
X164514286Y53903571D01*
X164600001Y53903571D01*
X163885715Y54303571D02*
X163885715Y53903571D01*
X164142858Y54303571D02*
X164142858Y53989286D01*
X164114286Y53932143D01*
X164057144Y53903571D01*
X163971429Y53903571D01*
X163914286Y53932143D01*
X163885715Y53960714D01*
X163600001Y53903571D02*
X163600001Y54303571D01*
X163600001Y54189286D02*
X163571429Y54246429D01*
X163542858Y54275000D01*
X163485715Y54303571D01*
X163428572Y54303571D01*
X162971429Y53932143D02*
X163028572Y53903571D01*
X163142858Y53903571D01*
X163200000Y53932143D01*
X163228572Y53960714D01*
X163257143Y54017857D01*
X163257143Y54189286D01*
X163228572Y54246429D01*
X163200000Y54275000D01*
X163142858Y54303571D01*
X163028572Y54303571D01*
X162971429Y54275000D01*
X162485714Y53932143D02*
X162542857Y53903571D01*
X162657143Y53903571D01*
X162714286Y53932143D01*
X162742857Y53989286D01*
X162742857Y54217857D01*
X162714286Y54275000D01*
X162657143Y54303571D01*
X162542857Y54303571D01*
X162485714Y54275000D01*
X162457143Y54217857D01*
X162457143Y54160714D01*
X162742857Y54103571D01*
X161742857Y53903571D02*
X161742857Y54503571D01*
X161542857Y54075000D01*
X161342857Y54503571D01*
X161342857Y53903571D01*
X161057143Y53903571D02*
X161057143Y54503571D01*
X160857143Y54503571D02*
X160514286Y54503571D01*
X160685715Y53903571D02*
X160685715Y54503571D01*
X159771429Y53903571D02*
X159828571Y53932143D01*
X159857143Y53989286D01*
X159857143Y54503571D01*
X159542857Y53903571D02*
X159542857Y54303571D01*
X159542857Y54503571D02*
X159571428Y54475000D01*
X159542857Y54446429D01*
X159514285Y54475000D01*
X159542857Y54503571D01*
X159542857Y54446429D01*
X159000000Y53932143D02*
X159057143Y53903571D01*
X159171429Y53903571D01*
X159228571Y53932143D01*
X159257143Y53960714D01*
X159285714Y54017857D01*
X159285714Y54189286D01*
X159257143Y54246429D01*
X159228571Y54275000D01*
X159171429Y54303571D01*
X159057143Y54303571D01*
X159000000Y54275000D01*
X158514285Y53932143D02*
X158571428Y53903571D01*
X158685714Y53903571D01*
X158742857Y53932143D01*
X158771428Y53989286D01*
X158771428Y54217857D01*
X158742857Y54275000D01*
X158685714Y54303571D01*
X158571428Y54303571D01*
X158514285Y54275000D01*
X158485714Y54217857D01*
X158485714Y54160714D01*
X158771428Y54103571D01*
X158228571Y54303571D02*
X158228571Y53903571D01*
X158228571Y54246429D02*
X158199999Y54275000D01*
X158142857Y54303571D01*
X158057142Y54303571D01*
X157999999Y54275000D01*
X157971428Y54217857D01*
X157971428Y53903571D01*
X157714285Y53932143D02*
X157657142Y53903571D01*
X157542857Y53903571D01*
X157485714Y53932143D01*
X157457142Y53989286D01*
X157457142Y54017857D01*
X157485714Y54075000D01*
X157542857Y54103571D01*
X157628571Y54103571D01*
X157685714Y54132143D01*
X157714285Y54189286D01*
X157714285Y54217857D01*
X157685714Y54275000D01*
X157628571Y54303571D01*
X157542857Y54303571D01*
X157485714Y54275000D01*
X156971428Y53932143D02*
X157028571Y53903571D01*
X157142857Y53903571D01*
X157200000Y53932143D01*
X157228571Y53989286D01*
X157228571Y54217857D01*
X157200000Y54275000D01*
X157142857Y54303571D01*
X157028571Y54303571D01*
X156971428Y54275000D01*
X156942857Y54217857D01*
X156942857Y54160714D01*
X157228571Y54103571D01*
X156314285Y54303571D02*
X156085714Y54303571D01*
X156228571Y53903571D02*
X156228571Y54417857D01*
X156199999Y54475000D01*
X156142857Y54503571D01*
X156085714Y54503571D01*
X155885714Y53903571D02*
X155885714Y54303571D01*
X155885714Y54503571D02*
X155914285Y54475000D01*
X155885714Y54446429D01*
X155857142Y54475000D01*
X155885714Y54503571D01*
X155885714Y54446429D01*
X155514286Y53903571D02*
X155571428Y53932143D01*
X155600000Y53989286D01*
X155600000Y54503571D01*
X155057142Y53932143D02*
X155114285Y53903571D01*
X155228571Y53903571D01*
X155285714Y53932143D01*
X155314285Y53989286D01*
X155314285Y54217857D01*
X155285714Y54275000D01*
X155228571Y54303571D01*
X155114285Y54303571D01*
X155057142Y54275000D01*
X155028571Y54217857D01*
X155028571Y54160714D01*
X155314285Y54103571D01*
X154799999Y53932143D02*
X154742856Y53903571D01*
X154628571Y53903571D01*
X154571428Y53932143D01*
X154542856Y53989286D01*
X154542856Y54017857D01*
X154571428Y54075000D01*
X154628571Y54103571D01*
X154714285Y54103571D01*
X154771428Y54132143D01*
X154799999Y54189286D01*
X154799999Y54217857D01*
X154771428Y54275000D01*
X154714285Y54303571D01*
X154628571Y54303571D01*
X154571428Y54275000D01*
X153571428Y53903571D02*
X153571428Y54217857D01*
X153599999Y54275000D01*
X153657142Y54303571D01*
X153771428Y54303571D01*
X153828571Y54275000D01*
X153571428Y53932143D02*
X153628571Y53903571D01*
X153771428Y53903571D01*
X153828571Y53932143D01*
X153857142Y53989286D01*
X153857142Y54046429D01*
X153828571Y54103571D01*
X153771428Y54132143D01*
X153628571Y54132143D01*
X153571428Y54160714D01*
X153371428Y54303571D02*
X153142857Y54303571D01*
X153285714Y54503571D02*
X153285714Y53989286D01*
X153257142Y53932143D01*
X153200000Y53903571D01*
X153142857Y53903571D01*
X152942857Y53960714D02*
X152914285Y53932143D01*
X152942857Y53903571D01*
X152971428Y53932143D01*
X152942857Y53960714D01*
X152942857Y53903571D01*
X152942857Y54275000D02*
X152914285Y54246429D01*
X152942857Y54217857D01*
X152971428Y54246429D01*
X152942857Y54275000D01*
X152942857Y54217857D01*
X151942857Y54303571D02*
X151942857Y53817857D01*
X151971428Y53760714D01*
X152000000Y53732143D01*
X152057143Y53703571D01*
X152142857Y53703571D01*
X152200000Y53732143D01*
X151942857Y53932143D02*
X152000000Y53903571D01*
X152114286Y53903571D01*
X152171428Y53932143D01*
X152200000Y53960714D01*
X152228571Y54017857D01*
X152228571Y54189286D01*
X152200000Y54246429D01*
X152171428Y54275000D01*
X152114286Y54303571D01*
X152000000Y54303571D01*
X151942857Y54275000D01*
X151657143Y53903571D02*
X151657143Y54303571D01*
X151657143Y54503571D02*
X151685714Y54475000D01*
X151657143Y54446429D01*
X151628571Y54475000D01*
X151657143Y54503571D01*
X151657143Y54446429D01*
X151457143Y54303571D02*
X151228572Y54303571D01*
X151371429Y54503571D02*
X151371429Y53989286D01*
X151342857Y53932143D01*
X151285715Y53903571D01*
X151228572Y53903571D01*
X151028572Y53903571D02*
X151028572Y54503571D01*
X150771429Y53903571D02*
X150771429Y54217857D01*
X150800000Y54275000D01*
X150857143Y54303571D01*
X150942858Y54303571D01*
X151000000Y54275000D01*
X151028572Y54246429D01*
X150228572Y54303571D02*
X150228572Y53903571D01*
X150485715Y54303571D02*
X150485715Y53989286D01*
X150457143Y53932143D01*
X150400001Y53903571D01*
X150314286Y53903571D01*
X150257143Y53932143D01*
X150228572Y53960714D01*
X149942858Y53903571D02*
X149942858Y54503571D01*
X149942858Y54275000D02*
X149885715Y54303571D01*
X149771429Y54303571D01*
X149714286Y54275000D01*
X149685715Y54246429D01*
X149657144Y54189286D01*
X149657144Y54017857D01*
X149685715Y53960714D01*
X149714286Y53932143D01*
X149771429Y53903571D01*
X149885715Y53903571D01*
X149942858Y53932143D01*
X149400001Y53960714D02*
X149371429Y53932143D01*
X149400001Y53903571D01*
X149428572Y53932143D01*
X149400001Y53960714D01*
X149400001Y53903571D01*
X148857144Y53932143D02*
X148914287Y53903571D01*
X149028573Y53903571D01*
X149085715Y53932143D01*
X149114287Y53960714D01*
X149142858Y54017857D01*
X149142858Y54189286D01*
X149114287Y54246429D01*
X149085715Y54275000D01*
X149028573Y54303571D01*
X148914287Y54303571D01*
X148857144Y54275000D01*
X148514287Y53903571D02*
X148571429Y53932143D01*
X148600001Y53960714D01*
X148628572Y54017857D01*
X148628572Y54189286D01*
X148600001Y54246429D01*
X148571429Y54275000D01*
X148514287Y54303571D01*
X148428572Y54303571D01*
X148371429Y54275000D01*
X148342858Y54246429D01*
X148314287Y54189286D01*
X148314287Y54017857D01*
X148342858Y53960714D01*
X148371429Y53932143D01*
X148428572Y53903571D01*
X148514287Y53903571D01*
X148057144Y53903571D02*
X148057144Y54303571D01*
X148057144Y54246429D02*
X148028572Y54275000D01*
X147971430Y54303571D01*
X147885715Y54303571D01*
X147828572Y54275000D01*
X147800001Y54217857D01*
X147800001Y53903571D01*
X147800001Y54217857D02*
X147771430Y54275000D01*
X147714287Y54303571D01*
X147628572Y54303571D01*
X147571430Y54275000D01*
X147542858Y54217857D01*
X147542858Y53903571D01*
X146828572Y54532143D02*
X147342858Y53760714D01*
X146428573Y54217857D02*
X146342859Y54189286D01*
X146314287Y54160714D01*
X146285716Y54103571D01*
X146285716Y54017857D01*
X146314287Y53960714D01*
X146342859Y53932143D01*
X146400001Y53903571D01*
X146628573Y53903571D01*
X146628573Y54503571D01*
X146428573Y54503571D01*
X146371430Y54475000D01*
X146342859Y54446429D01*
X146314287Y54389286D01*
X146314287Y54332143D01*
X146342859Y54275000D01*
X146371430Y54246429D01*
X146428573Y54217857D01*
X146628573Y54217857D01*
X145800001Y53932143D02*
X145857144Y53903571D01*
X145971430Y53903571D01*
X146028573Y53932143D01*
X146057144Y53989286D01*
X146057144Y54217857D01*
X146028573Y54275000D01*
X145971430Y54303571D01*
X145857144Y54303571D01*
X145800001Y54275000D01*
X145771430Y54217857D01*
X145771430Y54160714D01*
X146057144Y54103571D01*
X145428573Y53903571D02*
X145485715Y53932143D01*
X145514287Y53989286D01*
X145514287Y54503571D01*
X145200001Y53903571D02*
X145200001Y54303571D01*
X145200001Y54503571D02*
X145228572Y54475000D01*
X145200001Y54446429D01*
X145171429Y54475000D01*
X145200001Y54503571D01*
X145200001Y54446429D01*
X144685715Y53932143D02*
X144742858Y53903571D01*
X144857144Y53903571D01*
X144914287Y53932143D01*
X144942858Y53989286D01*
X144942858Y54217857D01*
X144914287Y54275000D01*
X144857144Y54303571D01*
X144742858Y54303571D01*
X144685715Y54275000D01*
X144657144Y54217857D01*
X144657144Y54160714D01*
X144942858Y54103571D01*
X144457144Y54303571D02*
X144314287Y53903571D01*
X144171429Y54303571D01*
X143857144Y53903571D02*
X143914286Y53932143D01*
X143942858Y53960714D01*
X143971429Y54017857D01*
X143971429Y54189286D01*
X143942858Y54246429D01*
X143914286Y54275000D01*
X143857144Y54303571D01*
X143771429Y54303571D01*
X143714286Y54275000D01*
X143685715Y54246429D01*
X143657144Y54189286D01*
X143657144Y54017857D01*
X143685715Y53960714D01*
X143714286Y53932143D01*
X143771429Y53903571D01*
X143857144Y53903571D01*
X143485715Y54303571D02*
X143257144Y54303571D01*
X143400001Y54503571D02*
X143400001Y53989286D01*
X143371429Y53932143D01*
X143314287Y53903571D01*
X143257144Y53903571D01*
X143057144Y53903571D02*
X143057144Y54303571D01*
X143057144Y54189286D02*
X143028572Y54246429D01*
X143000001Y54275000D01*
X142942858Y54303571D01*
X142885715Y54303571D01*
X142600001Y53903571D02*
X142657143Y53932143D01*
X142685715Y53960714D01*
X142714286Y54017857D01*
X142714286Y54189286D01*
X142685715Y54246429D01*
X142657143Y54275000D01*
X142600001Y54303571D01*
X142514286Y54303571D01*
X142457143Y54275000D01*
X142428572Y54246429D01*
X142400001Y54189286D01*
X142400001Y54017857D01*
X142428572Y53960714D01*
X142457143Y53932143D01*
X142514286Y53903571D01*
X142600001Y53903571D01*
X142142858Y54303571D02*
X142142858Y53903571D01*
X142142858Y54246429D02*
X142114286Y54275000D01*
X142057144Y54303571D01*
X141971429Y54303571D01*
X141914286Y54275000D01*
X141885715Y54217857D01*
X141885715Y53903571D01*
X141171429Y54532143D02*
X141685715Y53760714D01*
X140771430Y54217857D02*
X140685716Y54189286D01*
X140657144Y54160714D01*
X140628573Y54103571D01*
X140628573Y54017857D01*
X140657144Y53960714D01*
X140685716Y53932143D01*
X140742858Y53903571D01*
X140971430Y53903571D01*
X140971430Y54503571D01*
X140771430Y54503571D01*
X140714287Y54475000D01*
X140685716Y54446429D01*
X140657144Y54389286D01*
X140657144Y54332143D01*
X140685716Y54275000D01*
X140714287Y54246429D01*
X140771430Y54217857D01*
X140971430Y54217857D01*
X140142858Y53932143D02*
X140200001Y53903571D01*
X140314287Y53903571D01*
X140371430Y53932143D01*
X140400001Y53989286D01*
X140400001Y54217857D01*
X140371430Y54275000D01*
X140314287Y54303571D01*
X140200001Y54303571D01*
X140142858Y54275000D01*
X140114287Y54217857D01*
X140114287Y54160714D01*
X140400001Y54103571D01*
X139771430Y53903571D02*
X139828572Y53932143D01*
X139857144Y53989286D01*
X139857144Y54503571D01*
X139542858Y53903571D02*
X139542858Y54303571D01*
X139542858Y54503571D02*
X139571429Y54475000D01*
X139542858Y54446429D01*
X139514286Y54475000D01*
X139542858Y54503571D01*
X139542858Y54446429D01*
X139028572Y53932143D02*
X139085715Y53903571D01*
X139200001Y53903571D01*
X139257144Y53932143D01*
X139285715Y53989286D01*
X139285715Y54217857D01*
X139257144Y54275000D01*
X139200001Y54303571D01*
X139085715Y54303571D01*
X139028572Y54275000D01*
X139000001Y54217857D01*
X139000001Y54160714D01*
X139285715Y54103571D01*
X138800001Y54303571D02*
X138657144Y53903571D01*
X138514286Y54303571D01*
X138200001Y53903571D02*
X138257143Y53932143D01*
X138285715Y53960714D01*
X138314286Y54017857D01*
X138314286Y54189286D01*
X138285715Y54246429D01*
X138257143Y54275000D01*
X138200001Y54303571D01*
X138114286Y54303571D01*
X138057143Y54275000D01*
X138028572Y54246429D01*
X138000001Y54189286D01*
X138000001Y54017857D01*
X138028572Y53960714D01*
X138057143Y53932143D01*
X138114286Y53903571D01*
X138200001Y53903571D01*
X137828572Y54303571D02*
X137600001Y54303571D01*
X137742858Y54503571D02*
X137742858Y53989286D01*
X137714286Y53932143D01*
X137657144Y53903571D01*
X137600001Y53903571D01*
X137400001Y53903571D02*
X137400001Y54303571D01*
X137400001Y54189286D02*
X137371429Y54246429D01*
X137342858Y54275000D01*
X137285715Y54303571D01*
X137228572Y54303571D01*
X136942858Y53903571D02*
X137000000Y53932143D01*
X137028572Y53960714D01*
X137057143Y54017857D01*
X137057143Y54189286D01*
X137028572Y54246429D01*
X137000000Y54275000D01*
X136942858Y54303571D01*
X136857143Y54303571D01*
X136800000Y54275000D01*
X136771429Y54246429D01*
X136742858Y54189286D01*
X136742858Y54017857D01*
X136771429Y53960714D01*
X136800000Y53932143D01*
X136857143Y53903571D01*
X136942858Y53903571D01*
X136485715Y54303571D02*
X136485715Y53903571D01*
X136485715Y54246429D02*
X136457143Y54275000D01*
X136400001Y54303571D01*
X136314286Y54303571D01*
X136257143Y54275000D01*
X136228572Y54217857D01*
X136228572Y53903571D01*
X136000001Y54503571D02*
X135857144Y53903571D01*
X135742858Y54332143D01*
X135628572Y53903571D01*
X135485715Y54503571D01*
X135000001Y53903571D02*
X135000001Y54217857D01*
X135028572Y54275000D01*
X135085715Y54303571D01*
X135200001Y54303571D01*
X135257144Y54275000D01*
X135000001Y53932143D02*
X135057144Y53903571D01*
X135200001Y53903571D01*
X135257144Y53932143D01*
X135285715Y53989286D01*
X135285715Y54046429D01*
X135257144Y54103571D01*
X135200001Y54132143D01*
X135057144Y54132143D01*
X135000001Y54160714D01*
X134714287Y54303571D02*
X134714287Y53903571D01*
X134714287Y54246429D02*
X134685715Y54275000D01*
X134628573Y54303571D01*
X134542858Y54303571D01*
X134485715Y54275000D01*
X134457144Y54217857D01*
X134457144Y53903571D01*
X133914287Y53903571D02*
X133914287Y54503571D01*
X133914287Y53932143D02*
X133971430Y53903571D01*
X134085716Y53903571D01*
X134142858Y53932143D01*
X134171430Y53960714D01*
X134200001Y54017857D01*
X134200001Y54189286D01*
X134171430Y54246429D01*
X134142858Y54275000D01*
X134085716Y54303571D01*
X133971430Y54303571D01*
X133914287Y54275000D01*
X133400001Y53932143D02*
X133457144Y53903571D01*
X133571430Y53903571D01*
X133628573Y53932143D01*
X133657144Y53989286D01*
X133657144Y54217857D01*
X133628573Y54275000D01*
X133571430Y54303571D01*
X133457144Y54303571D01*
X133400001Y54275000D01*
X133371430Y54217857D01*
X133371430Y54160714D01*
X133657144Y54103571D01*
X133114287Y53903571D02*
X133114287Y54303571D01*
X133114287Y54189286D02*
X133085715Y54246429D01*
X133057144Y54275000D01*
X133000001Y54303571D01*
X132942858Y54303571D01*
X132657144Y53903571D02*
X132714286Y53932143D01*
X132742858Y53989286D01*
X132742858Y54503571D01*
X132171429Y54303571D02*
X132171429Y53903571D01*
X132428572Y54303571D02*
X132428572Y53989286D01*
X132400000Y53932143D01*
X132342858Y53903571D01*
X132257143Y53903571D01*
X132200000Y53932143D01*
X132171429Y53960714D01*
X131914286Y53932143D02*
X131857143Y53903571D01*
X131742858Y53903571D01*
X131685715Y53932143D01*
X131657143Y53989286D01*
X131657143Y54017857D01*
X131685715Y54075000D01*
X131742858Y54103571D01*
X131828572Y54103571D01*
X131885715Y54132143D01*
X131914286Y54189286D01*
X131914286Y54217857D01*
X131885715Y54275000D01*
X131828572Y54303571D01*
X131742858Y54303571D01*
X131685715Y54275000D01*
X131485715Y54303571D02*
X131257144Y54303571D01*
X131400001Y54503571D02*
X131400001Y53989286D01*
X131371429Y53932143D01*
X131314287Y53903571D01*
X131257144Y53903571D01*
X131057144Y53903571D02*
X131057144Y54503571D01*
X131057144Y54217857D02*
X130714287Y54217857D01*
X130714287Y53903571D02*
X130714287Y54503571D01*
X130171430Y53903571D02*
X130171430Y54217857D01*
X130200001Y54275000D01*
X130257144Y54303571D01*
X130371430Y54303571D01*
X130428573Y54275000D01*
X130171430Y53932143D02*
X130228573Y53903571D01*
X130371430Y53903571D01*
X130428573Y53932143D01*
X130457144Y53989286D01*
X130457144Y54046429D01*
X130428573Y54103571D01*
X130371430Y54132143D01*
X130228573Y54132143D01*
X130171430Y54160714D01*
X129885716Y53903571D02*
X129885716Y54303571D01*
X129885716Y54189286D02*
X129857144Y54246429D01*
X129828573Y54275000D01*
X129771430Y54303571D01*
X129714287Y54303571D01*
X129257144Y53903571D02*
X129257144Y54503571D01*
X129257144Y53932143D02*
X129314287Y53903571D01*
X129428573Y53903571D01*
X129485715Y53932143D01*
X129514287Y53960714D01*
X129542858Y54017857D01*
X129542858Y54189286D01*
X129514287Y54246429D01*
X129485715Y54275000D01*
X129428573Y54303571D01*
X129314287Y54303571D01*
X129257144Y54275000D01*
X129028573Y54303571D02*
X128914287Y53903571D01*
X128800001Y54189286D01*
X128685716Y53903571D01*
X128571430Y54303571D01*
X128085716Y53903571D02*
X128085716Y54217857D01*
X128114287Y54275000D01*
X128171430Y54303571D01*
X128285716Y54303571D01*
X128342859Y54275000D01*
X128085716Y53932143D02*
X128142859Y53903571D01*
X128285716Y53903571D01*
X128342859Y53932143D01*
X128371430Y53989286D01*
X128371430Y54046429D01*
X128342859Y54103571D01*
X128285716Y54132143D01*
X128142859Y54132143D01*
X128085716Y54160714D01*
X127800002Y53903571D02*
X127800002Y54303571D01*
X127800002Y54189286D02*
X127771430Y54246429D01*
X127742859Y54275000D01*
X127685716Y54303571D01*
X127628573Y54303571D01*
X127200001Y53932143D02*
X127257144Y53903571D01*
X127371430Y53903571D01*
X127428573Y53932143D01*
X127457144Y53989286D01*
X127457144Y54217857D01*
X127428573Y54275000D01*
X127371430Y54303571D01*
X127257144Y54303571D01*
X127200001Y54275000D01*
X127171430Y54217857D01*
X127171430Y54160714D01*
X127457144Y54103571D01*
X167514286Y52853571D02*
X167714286Y53139286D01*
X167857143Y52853571D02*
X167857143Y53453571D01*
X167628571Y53453571D01*
X167571429Y53425000D01*
X167542857Y53396429D01*
X167514286Y53339286D01*
X167514286Y53253571D01*
X167542857Y53196429D01*
X167571429Y53167857D01*
X167628571Y53139286D01*
X167857143Y53139286D01*
X167028571Y52882143D02*
X167085714Y52853571D01*
X167200000Y52853571D01*
X167257143Y52882143D01*
X167285714Y52939286D01*
X167285714Y53167857D01*
X167257143Y53225000D01*
X167200000Y53253571D01*
X167085714Y53253571D01*
X167028571Y53225000D01*
X167000000Y53167857D01*
X167000000Y53110714D01*
X167285714Y53053571D01*
X166742857Y53253571D02*
X166742857Y52653571D01*
X166742857Y53225000D02*
X166685714Y53253571D01*
X166571428Y53253571D01*
X166514285Y53225000D01*
X166485714Y53196429D01*
X166457143Y53139286D01*
X166457143Y52967857D01*
X166485714Y52910714D01*
X166514285Y52882143D01*
X166571428Y52853571D01*
X166685714Y52853571D01*
X166742857Y52882143D01*
X166114286Y52853571D02*
X166171428Y52882143D01*
X166200000Y52939286D01*
X166200000Y53453571D01*
X165628571Y52853571D02*
X165628571Y53167857D01*
X165657142Y53225000D01*
X165714285Y53253571D01*
X165828571Y53253571D01*
X165885714Y53225000D01*
X165628571Y52882143D02*
X165685714Y52853571D01*
X165828571Y52853571D01*
X165885714Y52882143D01*
X165914285Y52939286D01*
X165914285Y52996429D01*
X165885714Y53053571D01*
X165828571Y53082143D01*
X165685714Y53082143D01*
X165628571Y53110714D01*
X165085714Y52882143D02*
X165142857Y52853571D01*
X165257143Y52853571D01*
X165314285Y52882143D01*
X165342857Y52910714D01*
X165371428Y52967857D01*
X165371428Y53139286D01*
X165342857Y53196429D01*
X165314285Y53225000D01*
X165257143Y53253571D01*
X165142857Y53253571D01*
X165085714Y53225000D01*
X164599999Y52882143D02*
X164657142Y52853571D01*
X164771428Y52853571D01*
X164828571Y52882143D01*
X164857142Y52939286D01*
X164857142Y53167857D01*
X164828571Y53225000D01*
X164771428Y53253571D01*
X164657142Y53253571D01*
X164599999Y53225000D01*
X164571428Y53167857D01*
X164571428Y53110714D01*
X164857142Y53053571D01*
X164314285Y52853571D02*
X164314285Y53253571D01*
X164314285Y53196429D02*
X164285713Y53225000D01*
X164228571Y53253571D01*
X164142856Y53253571D01*
X164085713Y53225000D01*
X164057142Y53167857D01*
X164057142Y52853571D01*
X164057142Y53167857D02*
X164028571Y53225000D01*
X163971428Y53253571D01*
X163885713Y53253571D01*
X163828571Y53225000D01*
X163799999Y53167857D01*
X163799999Y52853571D01*
X163285713Y52882143D02*
X163342856Y52853571D01*
X163457142Y52853571D01*
X163514285Y52882143D01*
X163542856Y52939286D01*
X163542856Y53167857D01*
X163514285Y53225000D01*
X163457142Y53253571D01*
X163342856Y53253571D01*
X163285713Y53225000D01*
X163257142Y53167857D01*
X163257142Y53110714D01*
X163542856Y53053571D01*
X162999999Y53253571D02*
X162999999Y52853571D01*
X162999999Y53196429D02*
X162971427Y53225000D01*
X162914285Y53253571D01*
X162828570Y53253571D01*
X162771427Y53225000D01*
X162742856Y53167857D01*
X162742856Y52853571D01*
X162542856Y53253571D02*
X162314285Y53253571D01*
X162457142Y53453571D02*
X162457142Y52939286D01*
X162428570Y52882143D01*
X162371428Y52853571D01*
X162314285Y52853571D01*
X161657142Y53253571D02*
X161657142Y52653571D01*
X161657142Y53225000D02*
X161599999Y53253571D01*
X161485713Y53253571D01*
X161428570Y53225000D01*
X161399999Y53196429D01*
X161371428Y53139286D01*
X161371428Y52967857D01*
X161399999Y52910714D01*
X161428570Y52882143D01*
X161485713Y52853571D01*
X161599999Y52853571D01*
X161657142Y52882143D01*
X160857142Y52853571D02*
X160857142Y53167857D01*
X160885713Y53225000D01*
X160942856Y53253571D01*
X161057142Y53253571D01*
X161114285Y53225000D01*
X160857142Y52882143D02*
X160914285Y52853571D01*
X161057142Y52853571D01*
X161114285Y52882143D01*
X161142856Y52939286D01*
X161142856Y52996429D01*
X161114285Y53053571D01*
X161057142Y53082143D01*
X160914285Y53082143D01*
X160857142Y53110714D01*
X160571428Y52853571D02*
X160571428Y53253571D01*
X160571428Y53139286D02*
X160542856Y53196429D01*
X160514285Y53225000D01*
X160457142Y53253571D01*
X160399999Y53253571D01*
X160285713Y53253571D02*
X160057142Y53253571D01*
X160199999Y53453571D02*
X160199999Y52939286D01*
X160171427Y52882143D01*
X160114285Y52853571D01*
X160057142Y52853571D01*
X159885713Y52882143D02*
X159828570Y52853571D01*
X159714285Y52853571D01*
X159657142Y52882143D01*
X159628570Y52939286D01*
X159628570Y52967857D01*
X159657142Y53025000D01*
X159714285Y53053571D01*
X159799999Y53053571D01*
X159857142Y53082143D01*
X159885713Y53139286D01*
X159885713Y53167857D01*
X159857142Y53225000D01*
X159799999Y53253571D01*
X159714285Y53253571D01*
X159657142Y53225000D01*
X159342856Y52882143D02*
X159342856Y52853571D01*
X159371428Y52796429D01*
X159399999Y52767857D01*
X158371428Y53253571D02*
X158371428Y52853571D01*
X158628571Y53253571D02*
X158628571Y52939286D01*
X158599999Y52882143D01*
X158542857Y52853571D01*
X158457142Y52853571D01*
X158399999Y52882143D01*
X158371428Y52910714D01*
X158085714Y53253571D02*
X158085714Y52653571D01*
X158085714Y53225000D02*
X158028571Y53253571D01*
X157914285Y53253571D01*
X157857142Y53225000D01*
X157828571Y53196429D01*
X157800000Y53139286D01*
X157800000Y52967857D01*
X157828571Y52910714D01*
X157857142Y52882143D01*
X157914285Y52853571D01*
X158028571Y52853571D01*
X158085714Y52882143D01*
X157285714Y53253571D02*
X157285714Y52767857D01*
X157314285Y52710714D01*
X157342857Y52682143D01*
X157400000Y52653571D01*
X157485714Y52653571D01*
X157542857Y52682143D01*
X157285714Y52882143D02*
X157342857Y52853571D01*
X157457143Y52853571D01*
X157514285Y52882143D01*
X157542857Y52910714D01*
X157571428Y52967857D01*
X157571428Y53139286D01*
X157542857Y53196429D01*
X157514285Y53225000D01*
X157457143Y53253571D01*
X157342857Y53253571D01*
X157285714Y53225000D01*
X157000000Y52853571D02*
X157000000Y53253571D01*
X157000000Y53139286D02*
X156971428Y53196429D01*
X156942857Y53225000D01*
X156885714Y53253571D01*
X156828571Y53253571D01*
X156371428Y52853571D02*
X156371428Y53167857D01*
X156399999Y53225000D01*
X156457142Y53253571D01*
X156571428Y53253571D01*
X156628571Y53225000D01*
X156371428Y52882143D02*
X156428571Y52853571D01*
X156571428Y52853571D01*
X156628571Y52882143D01*
X156657142Y52939286D01*
X156657142Y52996429D01*
X156628571Y53053571D01*
X156571428Y53082143D01*
X156428571Y53082143D01*
X156371428Y53110714D01*
X155828571Y52853571D02*
X155828571Y53453571D01*
X155828571Y52882143D02*
X155885714Y52853571D01*
X156000000Y52853571D01*
X156057142Y52882143D01*
X156085714Y52910714D01*
X156114285Y52967857D01*
X156114285Y53139286D01*
X156085714Y53196429D01*
X156057142Y53225000D01*
X156000000Y53253571D01*
X155885714Y53253571D01*
X155828571Y53225000D01*
X155314285Y52882143D02*
X155371428Y52853571D01*
X155485714Y52853571D01*
X155542857Y52882143D01*
X155571428Y52939286D01*
X155571428Y53167857D01*
X155542857Y53225000D01*
X155485714Y53253571D01*
X155371428Y53253571D01*
X155314285Y53225000D01*
X155285714Y53167857D01*
X155285714Y53110714D01*
X155571428Y53053571D01*
X155057142Y52882143D02*
X154999999Y52853571D01*
X154885714Y52853571D01*
X154828571Y52882143D01*
X154799999Y52939286D01*
X154799999Y52967857D01*
X154828571Y53025000D01*
X154885714Y53053571D01*
X154971428Y53053571D01*
X155028571Y53082143D01*
X155057142Y53139286D01*
X155057142Y53167857D01*
X155028571Y53225000D01*
X154971428Y53253571D01*
X154885714Y53253571D01*
X154828571Y53225000D01*
X154514285Y52882143D02*
X154514285Y52853571D01*
X154542857Y52796429D01*
X154571428Y52767857D01*
X153542857Y53253571D02*
X153542857Y52853571D01*
X153800000Y53253571D02*
X153800000Y52939286D01*
X153771428Y52882143D01*
X153714286Y52853571D01*
X153628571Y52853571D01*
X153571428Y52882143D01*
X153542857Y52910714D01*
X153257143Y53253571D02*
X153257143Y52653571D01*
X153257143Y53225000D02*
X153200000Y53253571D01*
X153085714Y53253571D01*
X153028571Y53225000D01*
X153000000Y53196429D01*
X152971429Y53139286D01*
X152971429Y52967857D01*
X153000000Y52910714D01*
X153028571Y52882143D01*
X153085714Y52853571D01*
X153200000Y52853571D01*
X153257143Y52882143D01*
X152457143Y52853571D02*
X152457143Y53453571D01*
X152457143Y52882143D02*
X152514286Y52853571D01*
X152628572Y52853571D01*
X152685714Y52882143D01*
X152714286Y52910714D01*
X152742857Y52967857D01*
X152742857Y53139286D01*
X152714286Y53196429D01*
X152685714Y53225000D01*
X152628572Y53253571D01*
X152514286Y53253571D01*
X152457143Y53225000D01*
X151914286Y52853571D02*
X151914286Y53167857D01*
X151942857Y53225000D01*
X152000000Y53253571D01*
X152114286Y53253571D01*
X152171429Y53225000D01*
X151914286Y52882143D02*
X151971429Y52853571D01*
X152114286Y52853571D01*
X152171429Y52882143D01*
X152200000Y52939286D01*
X152200000Y52996429D01*
X152171429Y53053571D01*
X152114286Y53082143D01*
X151971429Y53082143D01*
X151914286Y53110714D01*
X151714286Y53253571D02*
X151485715Y53253571D01*
X151628572Y53453571D02*
X151628572Y52939286D01*
X151600000Y52882143D01*
X151542858Y52853571D01*
X151485715Y52853571D01*
X151057143Y52882143D02*
X151114286Y52853571D01*
X151228572Y52853571D01*
X151285715Y52882143D01*
X151314286Y52939286D01*
X151314286Y53167857D01*
X151285715Y53225000D01*
X151228572Y53253571D01*
X151114286Y53253571D01*
X151057143Y53225000D01*
X151028572Y53167857D01*
X151028572Y53110714D01*
X151314286Y53053571D01*
X150800000Y52882143D02*
X150742857Y52853571D01*
X150628572Y52853571D01*
X150571429Y52882143D01*
X150542857Y52939286D01*
X150542857Y52967857D01*
X150571429Y53025000D01*
X150628572Y53053571D01*
X150714286Y53053571D01*
X150771429Y53082143D01*
X150800000Y53139286D01*
X150800000Y53167857D01*
X150771429Y53225000D01*
X150714286Y53253571D01*
X150628572Y53253571D01*
X150571429Y53225000D01*
X150257143Y52882143D02*
X150257143Y52853571D01*
X150285715Y52796429D01*
X150314286Y52767857D01*
X149542858Y53253571D02*
X149542858Y52853571D01*
X149542858Y53196429D02*
X149514286Y53225000D01*
X149457144Y53253571D01*
X149371429Y53253571D01*
X149314286Y53225000D01*
X149285715Y53167857D01*
X149285715Y52853571D01*
X148771429Y52882143D02*
X148828572Y52853571D01*
X148942858Y52853571D01*
X149000001Y52882143D01*
X149028572Y52939286D01*
X149028572Y53167857D01*
X149000001Y53225000D01*
X148942858Y53253571D01*
X148828572Y53253571D01*
X148771429Y53225000D01*
X148742858Y53167857D01*
X148742858Y53110714D01*
X149028572Y53053571D01*
X148542858Y53253571D02*
X148428572Y52853571D01*
X148314286Y53139286D01*
X148200001Y52853571D01*
X148085715Y53253571D01*
X147142858Y53253571D02*
X147142858Y52767857D01*
X147171429Y52710714D01*
X147200001Y52682143D01*
X147257144Y52653571D01*
X147342858Y52653571D01*
X147400001Y52682143D01*
X147142858Y52882143D02*
X147200001Y52853571D01*
X147314287Y52853571D01*
X147371429Y52882143D01*
X147400001Y52910714D01*
X147428572Y52967857D01*
X147428572Y53139286D01*
X147400001Y53196429D01*
X147371429Y53225000D01*
X147314287Y53253571D01*
X147200001Y53253571D01*
X147142858Y53225000D01*
X146628572Y52882143D02*
X146685715Y52853571D01*
X146800001Y52853571D01*
X146857144Y52882143D01*
X146885715Y52939286D01*
X146885715Y53167857D01*
X146857144Y53225000D01*
X146800001Y53253571D01*
X146685715Y53253571D01*
X146628572Y53225000D01*
X146600001Y53167857D01*
X146600001Y53110714D01*
X146885715Y53053571D01*
X146085715Y52853571D02*
X146085715Y53167857D01*
X146114286Y53225000D01*
X146171429Y53253571D01*
X146285715Y53253571D01*
X146342858Y53225000D01*
X146085715Y52882143D02*
X146142858Y52853571D01*
X146285715Y52853571D01*
X146342858Y52882143D01*
X146371429Y52939286D01*
X146371429Y52996429D01*
X146342858Y53053571D01*
X146285715Y53082143D01*
X146142858Y53082143D01*
X146085715Y53110714D01*
X145800001Y52853571D02*
X145800001Y53253571D01*
X145800001Y53139286D02*
X145771429Y53196429D01*
X145742858Y53225000D01*
X145685715Y53253571D01*
X145628572Y53253571D01*
X145400000Y52882143D02*
X145400000Y52853571D01*
X145428572Y52796429D01*
X145457143Y52767857D01*
X144428572Y52853571D02*
X144428572Y53167857D01*
X144457143Y53225000D01*
X144514286Y53253571D01*
X144628572Y53253571D01*
X144685715Y53225000D01*
X144428572Y52882143D02*
X144485715Y52853571D01*
X144628572Y52853571D01*
X144685715Y52882143D01*
X144714286Y52939286D01*
X144714286Y52996429D01*
X144685715Y53053571D01*
X144628572Y53082143D01*
X144485715Y53082143D01*
X144428572Y53110714D01*
X144142858Y53253571D02*
X144142858Y52853571D01*
X144142858Y53196429D02*
X144114286Y53225000D01*
X144057144Y53253571D01*
X143971429Y53253571D01*
X143914286Y53225000D01*
X143885715Y53167857D01*
X143885715Y52853571D01*
X143342858Y52853571D02*
X143342858Y53453571D01*
X143342858Y52882143D02*
X143400001Y52853571D01*
X143514287Y52853571D01*
X143571429Y52882143D01*
X143600001Y52910714D01*
X143628572Y52967857D01*
X143628572Y53139286D01*
X143600001Y53196429D01*
X143571429Y53225000D01*
X143514287Y53253571D01*
X143400001Y53253571D01*
X143342858Y53225000D01*
X142600001Y52853571D02*
X142600001Y53253571D01*
X142600001Y53196429D02*
X142571429Y53225000D01*
X142514287Y53253571D01*
X142428572Y53253571D01*
X142371429Y53225000D01*
X142342858Y53167857D01*
X142342858Y52853571D01*
X142342858Y53167857D02*
X142314287Y53225000D01*
X142257144Y53253571D01*
X142171429Y53253571D01*
X142114287Y53225000D01*
X142085715Y53167857D01*
X142085715Y52853571D01*
X141542858Y52853571D02*
X141542858Y53167857D01*
X141571429Y53225000D01*
X141628572Y53253571D01*
X141742858Y53253571D01*
X141800001Y53225000D01*
X141542858Y52882143D02*
X141600001Y52853571D01*
X141742858Y52853571D01*
X141800001Y52882143D01*
X141828572Y52939286D01*
X141828572Y52996429D01*
X141800001Y53053571D01*
X141742858Y53082143D01*
X141600001Y53082143D01*
X141542858Y53110714D01*
X141257144Y52853571D02*
X141257144Y53253571D01*
X141257144Y53139286D02*
X141228572Y53196429D01*
X141200001Y53225000D01*
X141142858Y53253571D01*
X141085715Y53253571D01*
X140885715Y52853571D02*
X140885715Y53453571D01*
X140828572Y53082143D02*
X140657143Y52853571D01*
X140657143Y53253571D02*
X140885715Y53025000D01*
X140171429Y52882143D02*
X140228572Y52853571D01*
X140342858Y52853571D01*
X140400001Y52882143D01*
X140428572Y52939286D01*
X140428572Y53167857D01*
X140400001Y53225000D01*
X140342858Y53253571D01*
X140228572Y53253571D01*
X140171429Y53225000D01*
X140142858Y53167857D01*
X140142858Y53110714D01*
X140428572Y53053571D01*
X139971429Y53253571D02*
X139742858Y53253571D01*
X139885715Y53453571D02*
X139885715Y52939286D01*
X139857143Y52882143D01*
X139800001Y52853571D01*
X139742858Y52853571D01*
X139542858Y52853571D02*
X139542858Y53253571D01*
X139542858Y53453571D02*
X139571429Y53425000D01*
X139542858Y53396429D01*
X139514286Y53425000D01*
X139542858Y53453571D01*
X139542858Y53396429D01*
X139257144Y53253571D02*
X139257144Y52853571D01*
X139257144Y53196429D02*
X139228572Y53225000D01*
X139171430Y53253571D01*
X139085715Y53253571D01*
X139028572Y53225000D01*
X139000001Y53167857D01*
X139000001Y52853571D01*
X138457144Y53253571D02*
X138457144Y52767857D01*
X138485715Y52710714D01*
X138514287Y52682143D01*
X138571430Y52653571D01*
X138657144Y52653571D01*
X138714287Y52682143D01*
X138457144Y52882143D02*
X138514287Y52853571D01*
X138628573Y52853571D01*
X138685715Y52882143D01*
X138714287Y52910714D01*
X138742858Y52967857D01*
X138742858Y53139286D01*
X138714287Y53196429D01*
X138685715Y53225000D01*
X138628573Y53253571D01*
X138514287Y53253571D01*
X138457144Y53225000D01*
X137714287Y53253571D02*
X137714287Y52653571D01*
X137714287Y53225000D02*
X137657144Y53253571D01*
X137542858Y53253571D01*
X137485715Y53225000D01*
X137457144Y53196429D01*
X137428573Y53139286D01*
X137428573Y52967857D01*
X137457144Y52910714D01*
X137485715Y52882143D01*
X137542858Y52853571D01*
X137657144Y52853571D01*
X137714287Y52882143D01*
X136914287Y52853571D02*
X136914287Y53167857D01*
X136942858Y53225000D01*
X137000001Y53253571D01*
X137114287Y53253571D01*
X137171430Y53225000D01*
X136914287Y52882143D02*
X136971430Y52853571D01*
X137114287Y52853571D01*
X137171430Y52882143D01*
X137200001Y52939286D01*
X137200001Y52996429D01*
X137171430Y53053571D01*
X137114287Y53082143D01*
X136971430Y53082143D01*
X136914287Y53110714D01*
X136628573Y53253571D02*
X136628573Y52653571D01*
X136628573Y53225000D02*
X136571430Y53253571D01*
X136457144Y53253571D01*
X136400001Y53225000D01*
X136371430Y53196429D01*
X136342859Y53139286D01*
X136342859Y52967857D01*
X136371430Y52910714D01*
X136400001Y52882143D01*
X136457144Y52853571D01*
X136571430Y52853571D01*
X136628573Y52882143D01*
X136085716Y52910714D02*
X136057144Y52882143D01*
X136085716Y52853571D01*
X136114287Y52882143D01*
X136085716Y52910714D01*
X136085716Y52853571D01*
X136085716Y53225000D02*
X136057144Y53196429D01*
X136085716Y53167857D01*
X136114287Y53196429D01*
X136085716Y53225000D01*
X136085716Y53167857D01*
X135142859Y53167857D02*
X135057145Y53139286D01*
X135028573Y53110714D01*
X135000002Y53053571D01*
X135000002Y52967857D01*
X135028573Y52910714D01*
X135057145Y52882143D01*
X135114287Y52853571D01*
X135342859Y52853571D01*
X135342859Y53453571D01*
X135142859Y53453571D01*
X135085716Y53425000D01*
X135057145Y53396429D01*
X135028573Y53339286D01*
X135028573Y53282143D01*
X135057145Y53225000D01*
X135085716Y53196429D01*
X135142859Y53167857D01*
X135342859Y53167857D01*
X134514287Y52882143D02*
X134571430Y52853571D01*
X134685716Y52853571D01*
X134742859Y52882143D01*
X134771430Y52939286D01*
X134771430Y53167857D01*
X134742859Y53225000D01*
X134685716Y53253571D01*
X134571430Y53253571D01*
X134514287Y53225000D01*
X134485716Y53167857D01*
X134485716Y53110714D01*
X134771430Y53053571D01*
X134142859Y52853571D02*
X134200001Y52882143D01*
X134228573Y52939286D01*
X134228573Y53453571D01*
X133914287Y52853571D02*
X133914287Y53253571D01*
X133914287Y53453571D02*
X133942858Y53425000D01*
X133914287Y53396429D01*
X133885715Y53425000D01*
X133914287Y53453571D01*
X133914287Y53396429D01*
X133400001Y52882143D02*
X133457144Y52853571D01*
X133571430Y52853571D01*
X133628573Y52882143D01*
X133657144Y52939286D01*
X133657144Y53167857D01*
X133628573Y53225000D01*
X133571430Y53253571D01*
X133457144Y53253571D01*
X133400001Y53225000D01*
X133371430Y53167857D01*
X133371430Y53110714D01*
X133657144Y53053571D01*
X133171430Y53253571D02*
X133028573Y52853571D01*
X132885715Y53253571D01*
X132571430Y52853571D02*
X132628572Y52882143D01*
X132657144Y52910714D01*
X132685715Y52967857D01*
X132685715Y53139286D01*
X132657144Y53196429D01*
X132628572Y53225000D01*
X132571430Y53253571D01*
X132485715Y53253571D01*
X132428572Y53225000D01*
X132400001Y53196429D01*
X132371430Y53139286D01*
X132371430Y52967857D01*
X132400001Y52910714D01*
X132428572Y52882143D01*
X132485715Y52853571D01*
X132571430Y52853571D01*
X132200001Y53253571D02*
X131971430Y53253571D01*
X132114287Y53453571D02*
X132114287Y52939286D01*
X132085715Y52882143D01*
X132028573Y52853571D01*
X131971430Y52853571D01*
X131771430Y52853571D02*
X131771430Y53253571D01*
X131771430Y53139286D02*
X131742858Y53196429D01*
X131714287Y53225000D01*
X131657144Y53253571D01*
X131600001Y53253571D01*
X131314287Y52853571D02*
X131371429Y52882143D01*
X131400001Y52910714D01*
X131428572Y52967857D01*
X131428572Y53139286D01*
X131400001Y53196429D01*
X131371429Y53225000D01*
X131314287Y53253571D01*
X131228572Y53253571D01*
X131171429Y53225000D01*
X131142858Y53196429D01*
X131114287Y53139286D01*
X131114287Y52967857D01*
X131142858Y52910714D01*
X131171429Y52882143D01*
X131228572Y52853571D01*
X131314287Y52853571D01*
X130857144Y53253571D02*
X130857144Y52853571D01*
X130857144Y53196429D02*
X130828572Y53225000D01*
X130771430Y53253571D01*
X130685715Y53253571D01*
X130628572Y53225000D01*
X130600001Y53167857D01*
X130600001Y52853571D01*
X130314287Y52910714D02*
X130285715Y52882143D01*
X130314287Y52853571D01*
X130342858Y52882143D01*
X130314287Y52910714D01*
X130314287Y52853571D01*
X129771430Y52882143D02*
X129828573Y52853571D01*
X129942859Y52853571D01*
X130000001Y52882143D01*
X130028573Y52910714D01*
X130057144Y52967857D01*
X130057144Y53139286D01*
X130028573Y53196429D01*
X130000001Y53225000D01*
X129942859Y53253571D01*
X129828573Y53253571D01*
X129771430Y53225000D01*
X129428573Y52853571D02*
X129485715Y52882143D01*
X129514287Y52910714D01*
X129542858Y52967857D01*
X129542858Y53139286D01*
X129514287Y53196429D01*
X129485715Y53225000D01*
X129428573Y53253571D01*
X129342858Y53253571D01*
X129285715Y53225000D01*
X129257144Y53196429D01*
X129228573Y53139286D01*
X129228573Y52967857D01*
X129257144Y52910714D01*
X129285715Y52882143D01*
X129342858Y52853571D01*
X129428573Y52853571D01*
X128971430Y52853571D02*
X128971430Y53253571D01*
X128971430Y53196429D02*
X128942858Y53225000D01*
X128885716Y53253571D01*
X128800001Y53253571D01*
X128742858Y53225000D01*
X128714287Y53167857D01*
X128714287Y52853571D01*
X128714287Y53167857D02*
X128685716Y53225000D01*
X128628573Y53253571D01*
X128542858Y53253571D01*
X128485716Y53225000D01*
X128457144Y53167857D01*
X128457144Y52853571D01*
X167657143Y52117857D02*
X167857143Y52117857D01*
X167857143Y51803571D02*
X167857143Y52403571D01*
X167571429Y52403571D01*
X167257143Y51803571D02*
X167314285Y51832143D01*
X167342857Y51860714D01*
X167371428Y51917857D01*
X167371428Y52089286D01*
X167342857Y52146429D01*
X167314285Y52175000D01*
X167257143Y52203571D01*
X167171428Y52203571D01*
X167114285Y52175000D01*
X167085714Y52146429D01*
X167057143Y52089286D01*
X167057143Y51917857D01*
X167085714Y51860714D01*
X167114285Y51832143D01*
X167171428Y51803571D01*
X167257143Y51803571D01*
X166800000Y51803571D02*
X166800000Y52203571D01*
X166800000Y52089286D02*
X166771428Y52146429D01*
X166742857Y52175000D01*
X166685714Y52203571D01*
X166628571Y52203571D01*
X165971428Y51803571D02*
X165971428Y52403571D01*
X165714285Y51803571D02*
X165714285Y52117857D01*
X165742856Y52175000D01*
X165799999Y52203571D01*
X165885714Y52203571D01*
X165942856Y52175000D01*
X165971428Y52146429D01*
X165199999Y51832143D02*
X165257142Y51803571D01*
X165371428Y51803571D01*
X165428571Y51832143D01*
X165457142Y51889286D01*
X165457142Y52117857D01*
X165428571Y52175000D01*
X165371428Y52203571D01*
X165257142Y52203571D01*
X165199999Y52175000D01*
X165171428Y52117857D01*
X165171428Y52060714D01*
X165457142Y52003571D01*
X164828571Y51803571D02*
X164885713Y51832143D01*
X164914285Y51889286D01*
X164914285Y52403571D01*
X164599999Y52203571D02*
X164599999Y51603571D01*
X164599999Y52175000D02*
X164542856Y52203571D01*
X164428570Y52203571D01*
X164371427Y52175000D01*
X164342856Y52146429D01*
X164314285Y52089286D01*
X164314285Y51917857D01*
X164342856Y51860714D01*
X164371427Y51832143D01*
X164428570Y51803571D01*
X164542856Y51803571D01*
X164599999Y51832143D01*
X164028570Y51832143D02*
X164028570Y51803571D01*
X164057142Y51746429D01*
X164085713Y51717857D01*
X163314285Y51803571D02*
X163314285Y52403571D01*
X163314285Y52175000D02*
X163257142Y52203571D01*
X163142856Y52203571D01*
X163085713Y52175000D01*
X163057142Y52146429D01*
X163028571Y52089286D01*
X163028571Y51917857D01*
X163057142Y51860714D01*
X163085713Y51832143D01*
X163142856Y51803571D01*
X163257142Y51803571D01*
X163314285Y51832143D01*
X162514285Y52203571D02*
X162514285Y51803571D01*
X162771428Y52203571D02*
X162771428Y51889286D01*
X162742856Y51832143D01*
X162685714Y51803571D01*
X162599999Y51803571D01*
X162542856Y51832143D01*
X162514285Y51860714D01*
X161971428Y52203571D02*
X161971428Y51717857D01*
X161999999Y51660714D01*
X162028571Y51632143D01*
X162085714Y51603571D01*
X162171428Y51603571D01*
X162228571Y51632143D01*
X161971428Y51832143D02*
X162028571Y51803571D01*
X162142857Y51803571D01*
X162199999Y51832143D01*
X162228571Y51860714D01*
X162257142Y51917857D01*
X162257142Y52089286D01*
X162228571Y52146429D01*
X162199999Y52175000D01*
X162142857Y52203571D01*
X162028571Y52203571D01*
X161971428Y52175000D01*
X161228571Y51803571D02*
X161228571Y52203571D01*
X161228571Y52089286D02*
X161199999Y52146429D01*
X161171428Y52175000D01*
X161114285Y52203571D01*
X161057142Y52203571D01*
X160628570Y51832143D02*
X160685713Y51803571D01*
X160799999Y51803571D01*
X160857142Y51832143D01*
X160885713Y51889286D01*
X160885713Y52117857D01*
X160857142Y52175000D01*
X160799999Y52203571D01*
X160685713Y52203571D01*
X160628570Y52175000D01*
X160599999Y52117857D01*
X160599999Y52060714D01*
X160885713Y52003571D01*
X160342856Y52203571D02*
X160342856Y51603571D01*
X160342856Y52175000D02*
X160285713Y52203571D01*
X160171427Y52203571D01*
X160114284Y52175000D01*
X160085713Y52146429D01*
X160057142Y52089286D01*
X160057142Y51917857D01*
X160085713Y51860714D01*
X160114284Y51832143D01*
X160171427Y51803571D01*
X160285713Y51803571D01*
X160342856Y51832143D01*
X159714285Y51803571D02*
X159771427Y51832143D01*
X159799999Y51860714D01*
X159828570Y51917857D01*
X159828570Y52089286D01*
X159799999Y52146429D01*
X159771427Y52175000D01*
X159714285Y52203571D01*
X159628570Y52203571D01*
X159571427Y52175000D01*
X159542856Y52146429D01*
X159514285Y52089286D01*
X159514285Y51917857D01*
X159542856Y51860714D01*
X159571427Y51832143D01*
X159628570Y51803571D01*
X159714285Y51803571D01*
X159257142Y51803571D02*
X159257142Y52203571D01*
X159257142Y52089286D02*
X159228570Y52146429D01*
X159199999Y52175000D01*
X159142856Y52203571D01*
X159085713Y52203571D01*
X158971427Y52203571D02*
X158742856Y52203571D01*
X158885713Y52403571D02*
X158885713Y51889286D01*
X158857141Y51832143D01*
X158799999Y51803571D01*
X158742856Y51803571D01*
X158542856Y51803571D02*
X158542856Y52203571D01*
X158542856Y52403571D02*
X158571427Y52375000D01*
X158542856Y52346429D01*
X158514284Y52375000D01*
X158542856Y52403571D01*
X158542856Y52346429D01*
X158257142Y52203571D02*
X158257142Y51803571D01*
X158257142Y52146429D02*
X158228570Y52175000D01*
X158171428Y52203571D01*
X158085713Y52203571D01*
X158028570Y52175000D01*
X157999999Y52117857D01*
X157999999Y51803571D01*
X157457142Y52203571D02*
X157457142Y51717857D01*
X157485713Y51660714D01*
X157514285Y51632143D01*
X157571428Y51603571D01*
X157657142Y51603571D01*
X157714285Y51632143D01*
X157457142Y51832143D02*
X157514285Y51803571D01*
X157628571Y51803571D01*
X157685713Y51832143D01*
X157714285Y51860714D01*
X157742856Y51917857D01*
X157742856Y52089286D01*
X157714285Y52146429D01*
X157685713Y52175000D01*
X157628571Y52203571D01*
X157514285Y52203571D01*
X157457142Y52175000D01*
X157142856Y51832143D02*
X157142856Y51803571D01*
X157171428Y51746429D01*
X157199999Y51717857D01*
X156171428Y51803571D02*
X156171428Y52403571D01*
X156171428Y51832143D02*
X156228571Y51803571D01*
X156342857Y51803571D01*
X156399999Y51832143D01*
X156428571Y51860714D01*
X156457142Y51917857D01*
X156457142Y52089286D01*
X156428571Y52146429D01*
X156399999Y52175000D01*
X156342857Y52203571D01*
X156228571Y52203571D01*
X156171428Y52175000D01*
X155657142Y51832143D02*
X155714285Y51803571D01*
X155828571Y51803571D01*
X155885714Y51832143D01*
X155914285Y51889286D01*
X155914285Y52117857D01*
X155885714Y52175000D01*
X155828571Y52203571D01*
X155714285Y52203571D01*
X155657142Y52175000D01*
X155628571Y52117857D01*
X155628571Y52060714D01*
X155914285Y52003571D01*
X155428571Y52203571D02*
X155285714Y51803571D01*
X155142856Y52203571D01*
X154914285Y52032143D02*
X154457142Y52032143D01*
X154171428Y51803571D02*
X154171428Y52403571D01*
X154171428Y52175000D02*
X154114285Y52203571D01*
X153999999Y52203571D01*
X153942856Y52175000D01*
X153914285Y52146429D01*
X153885714Y52089286D01*
X153885714Y51917857D01*
X153914285Y51860714D01*
X153942856Y51832143D01*
X153999999Y51803571D01*
X154114285Y51803571D01*
X154171428Y51832143D01*
X153542857Y51803571D02*
X153599999Y51832143D01*
X153628571Y51889286D01*
X153628571Y52403571D01*
X153228571Y51803571D02*
X153285713Y51832143D01*
X153314285Y51860714D01*
X153342856Y51917857D01*
X153342856Y52089286D01*
X153314285Y52146429D01*
X153285713Y52175000D01*
X153228571Y52203571D01*
X153142856Y52203571D01*
X153085713Y52175000D01*
X153057142Y52146429D01*
X153028571Y52089286D01*
X153028571Y51917857D01*
X153057142Y51860714D01*
X153085713Y51832143D01*
X153142856Y51803571D01*
X153228571Y51803571D01*
X152514285Y52203571D02*
X152514285Y51717857D01*
X152542856Y51660714D01*
X152571428Y51632143D01*
X152628571Y51603571D01*
X152714285Y51603571D01*
X152771428Y51632143D01*
X152514285Y51832143D02*
X152571428Y51803571D01*
X152685714Y51803571D01*
X152742856Y51832143D01*
X152771428Y51860714D01*
X152799999Y51917857D01*
X152799999Y52089286D01*
X152771428Y52146429D01*
X152742856Y52175000D01*
X152685714Y52203571D01*
X152571428Y52203571D01*
X152514285Y52175000D01*
X152257142Y51832143D02*
X152199999Y51803571D01*
X152085714Y51803571D01*
X152028571Y51832143D01*
X151999999Y51889286D01*
X151999999Y51917857D01*
X152028571Y51975000D01*
X152085714Y52003571D01*
X152171428Y52003571D01*
X152228571Y52032143D01*
X152257142Y52089286D01*
X152257142Y52117857D01*
X152228571Y52175000D01*
X152171428Y52203571D01*
X152085714Y52203571D01*
X152028571Y52175000D01*
X151714285Y51832143D02*
X151714285Y51803571D01*
X151742857Y51746429D01*
X151771428Y51717857D01*
X150914286Y51803571D02*
X150971428Y51832143D01*
X151000000Y51860714D01*
X151028571Y51917857D01*
X151028571Y52089286D01*
X151000000Y52146429D01*
X150971428Y52175000D01*
X150914286Y52203571D01*
X150828571Y52203571D01*
X150771428Y52175000D01*
X150742857Y52146429D01*
X150714286Y52089286D01*
X150714286Y51917857D01*
X150742857Y51860714D01*
X150771428Y51832143D01*
X150828571Y51803571D01*
X150914286Y51803571D01*
X150457143Y51803571D02*
X150457143Y52203571D01*
X150457143Y52089286D02*
X150428571Y52146429D01*
X150400000Y52175000D01*
X150342857Y52203571D01*
X150285714Y52203571D01*
X149628571Y52203571D02*
X149628571Y51689286D01*
X149657142Y51632143D01*
X149714285Y51603571D01*
X149742857Y51603571D01*
X149628571Y52403571D02*
X149657142Y52375000D01*
X149628571Y52346429D01*
X149599999Y52375000D01*
X149628571Y52403571D01*
X149628571Y52346429D01*
X149257143Y51803571D02*
X149314285Y51832143D01*
X149342857Y51860714D01*
X149371428Y51917857D01*
X149371428Y52089286D01*
X149342857Y52146429D01*
X149314285Y52175000D01*
X149257143Y52203571D01*
X149171428Y52203571D01*
X149114285Y52175000D01*
X149085714Y52146429D01*
X149057143Y52089286D01*
X149057143Y51917857D01*
X149085714Y51860714D01*
X149114285Y51832143D01*
X149171428Y51803571D01*
X149257143Y51803571D01*
X148857143Y52203571D02*
X148714286Y51803571D01*
X148571428Y52203571D02*
X148714286Y51803571D01*
X148771428Y51660714D01*
X148800000Y51632143D01*
X148857143Y51603571D01*
X147628571Y51803571D02*
X147628571Y52117857D01*
X147657142Y52175000D01*
X147714285Y52203571D01*
X147828571Y52203571D01*
X147885714Y52175000D01*
X147628571Y51832143D02*
X147685714Y51803571D01*
X147828571Y51803571D01*
X147885714Y51832143D01*
X147914285Y51889286D01*
X147914285Y51946429D01*
X147885714Y52003571D01*
X147828571Y52032143D01*
X147685714Y52032143D01*
X147628571Y52060714D01*
X147428571Y52203571D02*
X147200000Y52203571D01*
X147342857Y52403571D02*
X147342857Y51889286D01*
X147314285Y51832143D01*
X147257143Y51803571D01*
X147200000Y51803571D01*
X146600000Y52203571D02*
X146457143Y51803571D01*
X146314285Y52203571D02*
X146457143Y51803571D01*
X146514285Y51660714D01*
X146542857Y51632143D01*
X146600000Y51603571D01*
X146000000Y51803571D02*
X146057142Y51832143D01*
X146085714Y51860714D01*
X146114285Y51917857D01*
X146114285Y52089286D01*
X146085714Y52146429D01*
X146057142Y52175000D01*
X146000000Y52203571D01*
X145914285Y52203571D01*
X145857142Y52175000D01*
X145828571Y52146429D01*
X145800000Y52089286D01*
X145800000Y51917857D01*
X145828571Y51860714D01*
X145857142Y51832143D01*
X145914285Y51803571D01*
X146000000Y51803571D01*
X145285714Y52203571D02*
X145285714Y51803571D01*
X145542857Y52203571D02*
X145542857Y51889286D01*
X145514285Y51832143D01*
X145457143Y51803571D01*
X145371428Y51803571D01*
X145314285Y51832143D01*
X145285714Y51860714D01*
X145000000Y51803571D02*
X145000000Y52203571D01*
X145000000Y52089286D02*
X144971428Y52146429D01*
X144942857Y52175000D01*
X144885714Y52203571D01*
X144828571Y52203571D01*
X144171428Y51803571D02*
X144171428Y52403571D01*
X144171428Y52175000D02*
X144114285Y52203571D01*
X143999999Y52203571D01*
X143942856Y52175000D01*
X143914285Y52146429D01*
X143885714Y52089286D01*
X143885714Y51917857D01*
X143914285Y51860714D01*
X143942856Y51832143D01*
X143999999Y51803571D01*
X144114285Y51803571D01*
X144171428Y51832143D01*
X143542857Y51803571D02*
X143599999Y51832143D01*
X143628571Y51860714D01*
X143657142Y51917857D01*
X143657142Y52089286D01*
X143628571Y52146429D01*
X143599999Y52175000D01*
X143542857Y52203571D01*
X143457142Y52203571D01*
X143399999Y52175000D01*
X143371428Y52146429D01*
X143342857Y52089286D01*
X143342857Y51917857D01*
X143371428Y51860714D01*
X143399999Y51832143D01*
X143457142Y51803571D01*
X143542857Y51803571D01*
X143085714Y52203571D02*
X143085714Y51803571D01*
X143085714Y52146429D02*
X143057142Y52175000D01*
X143000000Y52203571D01*
X142914285Y52203571D01*
X142857142Y52175000D01*
X142828571Y52117857D01*
X142828571Y51803571D01*
X142542857Y51803571D02*
X142542857Y52403571D01*
X142485714Y52032143D02*
X142314285Y51803571D01*
X142314285Y52203571D02*
X142542857Y51975000D01*
X141828571Y51832143D02*
X141885714Y51803571D01*
X142000000Y51803571D01*
X142057143Y51832143D01*
X142085714Y51889286D01*
X142085714Y52117857D01*
X142057143Y52175000D01*
X142000000Y52203571D01*
X141885714Y52203571D01*
X141828571Y52175000D01*
X141800000Y52117857D01*
X141800000Y52060714D01*
X142085714Y52003571D01*
X141542857Y51803571D02*
X141542857Y52203571D01*
X141542857Y52089286D02*
X141514285Y52146429D01*
X141485714Y52175000D01*
X141428571Y52203571D01*
X141371428Y52203571D01*
X141199999Y51832143D02*
X141142856Y51803571D01*
X141028571Y51803571D01*
X140971428Y51832143D01*
X140942856Y51889286D01*
X140942856Y51917857D01*
X140971428Y51975000D01*
X141028571Y52003571D01*
X141114285Y52003571D01*
X141171428Y52032143D01*
X141199999Y52089286D01*
X141199999Y52117857D01*
X141171428Y52175000D01*
X141114285Y52203571D01*
X141028571Y52203571D01*
X140971428Y52175000D01*
X140685714Y52032143D02*
X140228571Y52032143D01*
X139685714Y51832143D02*
X139742857Y51803571D01*
X139857143Y51803571D01*
X139914285Y51832143D01*
X139942857Y51860714D01*
X139971428Y51917857D01*
X139971428Y52089286D01*
X139942857Y52146429D01*
X139914285Y52175000D01*
X139857143Y52203571D01*
X139742857Y52203571D01*
X139685714Y52175000D01*
X139342857Y51803571D02*
X139399999Y51832143D01*
X139428571Y51860714D01*
X139457142Y51917857D01*
X139457142Y52089286D01*
X139428571Y52146429D01*
X139399999Y52175000D01*
X139342857Y52203571D01*
X139257142Y52203571D01*
X139199999Y52175000D01*
X139171428Y52146429D01*
X139142857Y52089286D01*
X139142857Y51917857D01*
X139171428Y51860714D01*
X139199999Y51832143D01*
X139257142Y51803571D01*
X139342857Y51803571D01*
X138800000Y51803571D02*
X138857142Y51832143D01*
X138885714Y51860714D01*
X138914285Y51917857D01*
X138914285Y52089286D01*
X138885714Y52146429D01*
X138857142Y52175000D01*
X138800000Y52203571D01*
X138714285Y52203571D01*
X138657142Y52175000D01*
X138628571Y52146429D01*
X138600000Y52089286D01*
X138600000Y51917857D01*
X138628571Y51860714D01*
X138657142Y51832143D01*
X138714285Y51803571D01*
X138800000Y51803571D01*
X138257143Y51803571D02*
X138314285Y51832143D01*
X138342857Y51889286D01*
X138342857Y52403571D01*
X137314285Y51832143D02*
X137371428Y51803571D01*
X137485714Y51803571D01*
X137542856Y51832143D01*
X137571428Y51860714D01*
X137599999Y51917857D01*
X137599999Y52089286D01*
X137571428Y52146429D01*
X137542856Y52175000D01*
X137485714Y52203571D01*
X137371428Y52203571D01*
X137314285Y52175000D01*
X137057142Y51803571D02*
X137057142Y52203571D01*
X137057142Y52089286D02*
X137028570Y52146429D01*
X136999999Y52175000D01*
X136942856Y52203571D01*
X136885713Y52203571D01*
X136457141Y51832143D02*
X136514284Y51803571D01*
X136628570Y51803571D01*
X136685713Y51832143D01*
X136714284Y51889286D01*
X136714284Y52117857D01*
X136685713Y52175000D01*
X136628570Y52203571D01*
X136514284Y52203571D01*
X136457141Y52175000D01*
X136428570Y52117857D01*
X136428570Y52060714D01*
X136714284Y52003571D01*
X135914284Y51803571D02*
X135914284Y52117857D01*
X135942855Y52175000D01*
X135999998Y52203571D01*
X136114284Y52203571D01*
X136171427Y52175000D01*
X135914284Y51832143D02*
X135971427Y51803571D01*
X136114284Y51803571D01*
X136171427Y51832143D01*
X136199998Y51889286D01*
X136199998Y51946429D01*
X136171427Y52003571D01*
X136114284Y52032143D01*
X135971427Y52032143D01*
X135914284Y52060714D01*
X135714284Y52203571D02*
X135485713Y52203571D01*
X135628570Y52403571D02*
X135628570Y51889286D01*
X135599998Y51832143D01*
X135542856Y51803571D01*
X135485713Y51803571D01*
X135285713Y51803571D02*
X135285713Y52203571D01*
X135285713Y52403571D02*
X135314284Y52375000D01*
X135285713Y52346429D01*
X135257141Y52375000D01*
X135285713Y52403571D01*
X135285713Y52346429D01*
X134914285Y51803571D02*
X134971427Y51832143D01*
X134999999Y51860714D01*
X135028570Y51917857D01*
X135028570Y52089286D01*
X134999999Y52146429D01*
X134971427Y52175000D01*
X134914285Y52203571D01*
X134828570Y52203571D01*
X134771427Y52175000D01*
X134742856Y52146429D01*
X134714285Y52089286D01*
X134714285Y51917857D01*
X134742856Y51860714D01*
X134771427Y51832143D01*
X134828570Y51803571D01*
X134914285Y51803571D01*
X134457142Y52203571D02*
X134457142Y51803571D01*
X134457142Y52146429D02*
X134428570Y52175000D01*
X134371428Y52203571D01*
X134285713Y52203571D01*
X134228570Y52175000D01*
X134199999Y52117857D01*
X134199999Y51803571D01*
X133885713Y51832143D02*
X133885713Y51803571D01*
X133914285Y51746429D01*
X133942856Y51717857D01*
X133257142Y52203571D02*
X133028571Y52203571D01*
X133171428Y52403571D02*
X133171428Y51889286D01*
X133142856Y51832143D01*
X133085714Y51803571D01*
X133028571Y51803571D01*
X132828571Y51803571D02*
X132828571Y52403571D01*
X132571428Y51803571D02*
X132571428Y52117857D01*
X132599999Y52175000D01*
X132657142Y52203571D01*
X132742857Y52203571D01*
X132799999Y52175000D01*
X132828571Y52146429D01*
X132057142Y51832143D02*
X132114285Y51803571D01*
X132228571Y51803571D01*
X132285714Y51832143D01*
X132314285Y51889286D01*
X132314285Y52117857D01*
X132285714Y52175000D01*
X132228571Y52203571D01*
X132114285Y52203571D01*
X132057142Y52175000D01*
X132028571Y52117857D01*
X132028571Y52060714D01*
X132314285Y52003571D01*
X131057142Y52203571D02*
X131057142Y51717857D01*
X131085713Y51660714D01*
X131114285Y51632143D01*
X131171428Y51603571D01*
X131257142Y51603571D01*
X131314285Y51632143D01*
X131057142Y51832143D02*
X131114285Y51803571D01*
X131228571Y51803571D01*
X131285713Y51832143D01*
X131314285Y51860714D01*
X131342856Y51917857D01*
X131342856Y52089286D01*
X131314285Y52146429D01*
X131285713Y52175000D01*
X131228571Y52203571D01*
X131114285Y52203571D01*
X131057142Y52175000D01*
X130685714Y51803571D02*
X130742856Y51832143D01*
X130771428Y51860714D01*
X130799999Y51917857D01*
X130799999Y52089286D01*
X130771428Y52146429D01*
X130742856Y52175000D01*
X130685714Y52203571D01*
X130599999Y52203571D01*
X130542856Y52175000D01*
X130514285Y52146429D01*
X130485714Y52089286D01*
X130485714Y51917857D01*
X130514285Y51860714D01*
X130542856Y51832143D01*
X130599999Y51803571D01*
X130685714Y51803571D01*
X130142857Y51803571D02*
X130199999Y51832143D01*
X130228571Y51860714D01*
X130257142Y51917857D01*
X130257142Y52089286D01*
X130228571Y52146429D01*
X130199999Y52175000D01*
X130142857Y52203571D01*
X130057142Y52203571D01*
X129999999Y52175000D01*
X129971428Y52146429D01*
X129942857Y52089286D01*
X129942857Y51917857D01*
X129971428Y51860714D01*
X129999999Y51832143D01*
X130057142Y51803571D01*
X130142857Y51803571D01*
X129428571Y51803571D02*
X129428571Y52403571D01*
X129428571Y51832143D02*
X129485714Y51803571D01*
X129600000Y51803571D01*
X129657142Y51832143D01*
X129685714Y51860714D01*
X129714285Y51917857D01*
X129714285Y52089286D01*
X129685714Y52146429D01*
X129657142Y52175000D01*
X129600000Y52203571D01*
X129485714Y52203571D01*
X129428571Y52175000D01*
X128714285Y51832143D02*
X128657142Y51803571D01*
X128542857Y51803571D01*
X128485714Y51832143D01*
X128457142Y51889286D01*
X128457142Y51917857D01*
X128485714Y51975000D01*
X128542857Y52003571D01*
X128628571Y52003571D01*
X128685714Y52032143D01*
X128714285Y52089286D01*
X128714285Y52117857D01*
X128685714Y52175000D01*
X128628571Y52203571D01*
X128542857Y52203571D01*
X128485714Y52175000D01*
X128285714Y52203571D02*
X128057143Y52203571D01*
X128200000Y52403571D02*
X128200000Y51889286D01*
X128171428Y51832143D01*
X128114286Y51803571D01*
X128057143Y51803571D01*
X127600000Y52203571D02*
X127600000Y51803571D01*
X127857143Y52203571D02*
X127857143Y51889286D01*
X127828571Y51832143D01*
X127771429Y51803571D01*
X127685714Y51803571D01*
X127628571Y51832143D01*
X127600000Y51860714D01*
X127400000Y52203571D02*
X127171429Y52203571D01*
X127314286Y51803571D02*
X127314286Y52317857D01*
X127285714Y52375000D01*
X127228572Y52403571D01*
X127171429Y52403571D01*
X127057143Y52203571D02*
X126828572Y52203571D01*
X126971429Y51803571D02*
X126971429Y52317857D01*
X126942857Y52375000D01*
X126885715Y52403571D01*
X126828572Y52403571D01*
X126171429Y51803571D02*
X126171429Y52203571D01*
X126171429Y52403571D02*
X126200000Y52375000D01*
X126171429Y52346429D01*
X126142857Y52375000D01*
X126171429Y52403571D01*
X126171429Y52346429D01*
X125914286Y51832143D02*
X125857143Y51803571D01*
X125742858Y51803571D01*
X125685715Y51832143D01*
X125657143Y51889286D01*
X125657143Y51917857D01*
X125685715Y51975000D01*
X125742858Y52003571D01*
X125828572Y52003571D01*
X125885715Y52032143D01*
X125914286Y52089286D01*
X125914286Y52117857D01*
X125885715Y52175000D01*
X125828572Y52203571D01*
X125742858Y52203571D01*
X125685715Y52175000D01*
X124942858Y51803571D02*
X124942858Y52403571D01*
X124685715Y51803571D02*
X124685715Y52117857D01*
X124714286Y52175000D01*
X124771429Y52203571D01*
X124857144Y52203571D01*
X124914286Y52175000D01*
X124942858Y52146429D01*
X124171429Y51832143D02*
X124228572Y51803571D01*
X124342858Y51803571D01*
X124400001Y51832143D01*
X124428572Y51889286D01*
X124428572Y52117857D01*
X124400001Y52175000D01*
X124342858Y52203571D01*
X124228572Y52203571D01*
X124171429Y52175000D01*
X124142858Y52117857D01*
X124142858Y52060714D01*
X124428572Y52003571D01*
X123885715Y51803571D02*
X123885715Y52203571D01*
X123885715Y52089286D02*
X123857143Y52146429D01*
X123828572Y52175000D01*
X123771429Y52203571D01*
X123714286Y52203571D01*
X123285714Y51832143D02*
X123342857Y51803571D01*
X123457143Y51803571D01*
X123514286Y51832143D01*
X123542857Y51889286D01*
X123542857Y52117857D01*
X123514286Y52175000D01*
X123457143Y52203571D01*
X123342857Y52203571D01*
X123285714Y52175000D01*
X123257143Y52117857D01*
X123257143Y52060714D01*
X123542857Y52003571D01*
X123000000Y51860714D02*
X122971428Y51832143D01*
X123000000Y51803571D01*
X123028571Y51832143D01*
X123000000Y51860714D01*
X123000000Y51803571D01*
X123000000Y52175000D02*
X122971428Y52146429D01*
X123000000Y52117857D01*
X123028571Y52146429D01*
X123000000Y52175000D01*
X123000000Y52117857D01*
X122000000Y51832143D02*
X122057143Y51803571D01*
X122171429Y51803571D01*
X122228571Y51832143D01*
X122257143Y51860714D01*
X122285714Y51917857D01*
X122285714Y52089286D01*
X122257143Y52146429D01*
X122228571Y52175000D01*
X122171429Y52203571D01*
X122057143Y52203571D01*
X122000000Y52175000D01*
X121657143Y51803571D02*
X121714285Y51832143D01*
X121742857Y51860714D01*
X121771428Y51917857D01*
X121771428Y52089286D01*
X121742857Y52146429D01*
X121714285Y52175000D01*
X121657143Y52203571D01*
X121571428Y52203571D01*
X121514285Y52175000D01*
X121485714Y52146429D01*
X121457143Y52089286D01*
X121457143Y51917857D01*
X121485714Y51860714D01*
X121514285Y51832143D01*
X121571428Y51803571D01*
X121657143Y51803571D01*
X121200000Y51803571D02*
X121200000Y52203571D01*
X121200000Y52146429D02*
X121171428Y52175000D01*
X121114286Y52203571D01*
X121028571Y52203571D01*
X120971428Y52175000D01*
X120942857Y52117857D01*
X120942857Y51803571D01*
X120942857Y52117857D02*
X120914286Y52175000D01*
X120857143Y52203571D01*
X120771428Y52203571D01*
X120714286Y52175000D01*
X120685714Y52117857D01*
X120685714Y51803571D01*
X120400000Y51803571D02*
X120400000Y52203571D01*
X120400000Y52146429D02*
X120371428Y52175000D01*
X120314286Y52203571D01*
X120228571Y52203571D01*
X120171428Y52175000D01*
X120142857Y52117857D01*
X120142857Y51803571D01*
X120142857Y52117857D02*
X120114286Y52175000D01*
X120057143Y52203571D01*
X119971428Y52203571D01*
X119914286Y52175000D01*
X119885714Y52117857D01*
X119885714Y51803571D01*
X119342857Y52203571D02*
X119342857Y51803571D01*
X119600000Y52203571D02*
X119600000Y51889286D01*
X119571428Y51832143D01*
X119514286Y51803571D01*
X119428571Y51803571D01*
X119371428Y51832143D01*
X119342857Y51860714D01*
X119057143Y52203571D02*
X119057143Y51803571D01*
X119057143Y52146429D02*
X119028571Y52175000D01*
X118971429Y52203571D01*
X118885714Y52203571D01*
X118828571Y52175000D01*
X118800000Y52117857D01*
X118800000Y51803571D01*
X118514286Y51803571D02*
X118514286Y52203571D01*
X118514286Y52403571D02*
X118542857Y52375000D01*
X118514286Y52346429D01*
X118485714Y52375000D01*
X118514286Y52403571D01*
X118514286Y52346429D01*
X118314286Y52203571D02*
X118085715Y52203571D01*
X118228572Y52403571D02*
X118228572Y51889286D01*
X118200000Y51832143D01*
X118142858Y51803571D01*
X118085715Y51803571D01*
X117942858Y52203571D02*
X117800001Y51803571D01*
X117657143Y52203571D02*
X117800001Y51803571D01*
X117857143Y51660714D01*
X117885715Y51632143D01*
X117942858Y51603571D01*
X117428572Y51860714D02*
X117400000Y51832143D01*
X117428572Y51803571D01*
X117457143Y51832143D01*
X117428572Y51860714D01*
X117428572Y51803571D01*
X117142858Y51803571D02*
X117142858Y52403571D01*
X117142858Y52175000D02*
X117085715Y52203571D01*
X116971429Y52203571D01*
X116914286Y52175000D01*
X116885715Y52146429D01*
X116857144Y52089286D01*
X116857144Y51917857D01*
X116885715Y51860714D01*
X116914286Y51832143D01*
X116971429Y51803571D01*
X117085715Y51803571D01*
X117142858Y51832143D01*
X116371429Y51832143D02*
X116428572Y51803571D01*
X116542858Y51803571D01*
X116600001Y51832143D01*
X116628572Y51889286D01*
X116628572Y52117857D01*
X116600001Y52175000D01*
X116542858Y52203571D01*
X116428572Y52203571D01*
X116371429Y52175000D01*
X116342858Y52117857D01*
X116342858Y52060714D01*
X116628572Y52003571D01*
X116000001Y51803571D02*
X116057143Y51832143D01*
X116085715Y51889286D01*
X116085715Y52403571D01*
X115771429Y51803571D02*
X115771429Y52203571D01*
X115771429Y52403571D02*
X115800000Y52375000D01*
X115771429Y52346429D01*
X115742857Y52375000D01*
X115771429Y52403571D01*
X115771429Y52346429D01*
X115257143Y51832143D02*
X115314286Y51803571D01*
X115428572Y51803571D01*
X115485715Y51832143D01*
X115514286Y51889286D01*
X115514286Y52117857D01*
X115485715Y52175000D01*
X115428572Y52203571D01*
X115314286Y52203571D01*
X115257143Y52175000D01*
X115228572Y52117857D01*
X115228572Y52060714D01*
X115514286Y52003571D01*
X115028572Y52203571D02*
X114885715Y51803571D01*
X114742857Y52203571D01*
X114428572Y51803571D02*
X114485714Y51832143D01*
X114514286Y51860714D01*
X114542857Y51917857D01*
X114542857Y52089286D01*
X114514286Y52146429D01*
X114485714Y52175000D01*
X114428572Y52203571D01*
X114342857Y52203571D01*
X114285714Y52175000D01*
X114257143Y52146429D01*
X114228572Y52089286D01*
X114228572Y51917857D01*
X114257143Y51860714D01*
X114285714Y51832143D01*
X114342857Y51803571D01*
X114428572Y51803571D01*
X114057143Y52203571D02*
X113828572Y52203571D01*
X113971429Y52403571D02*
X113971429Y51889286D01*
X113942857Y51832143D01*
X113885715Y51803571D01*
X113828572Y51803571D01*
X113628572Y51803571D02*
X113628572Y52203571D01*
X113628572Y52089286D02*
X113600000Y52146429D01*
X113571429Y52175000D01*
X113514286Y52203571D01*
X113457143Y52203571D01*
X113171429Y51803571D02*
X113228571Y51832143D01*
X113257143Y51860714D01*
X113285714Y51917857D01*
X113285714Y52089286D01*
X113257143Y52146429D01*
X113228571Y52175000D01*
X113171429Y52203571D01*
X113085714Y52203571D01*
X113028571Y52175000D01*
X113000000Y52146429D01*
X112971429Y52089286D01*
X112971429Y51917857D01*
X113000000Y51860714D01*
X113028571Y51832143D01*
X113085714Y51803571D01*
X113171429Y51803571D01*
X112714286Y52203571D02*
X112714286Y51803571D01*
X112714286Y52146429D02*
X112685714Y52175000D01*
X112628572Y52203571D01*
X112542857Y52203571D01*
X112485714Y52175000D01*
X112457143Y52117857D01*
X112457143Y51803571D01*
X112171429Y51860714D02*
X112142857Y51832143D01*
X112171429Y51803571D01*
X112200000Y51832143D01*
X112171429Y51860714D01*
X112171429Y51803571D01*
X111628572Y51832143D02*
X111685715Y51803571D01*
X111800001Y51803571D01*
X111857143Y51832143D01*
X111885715Y51860714D01*
X111914286Y51917857D01*
X111914286Y52089286D01*
X111885715Y52146429D01*
X111857143Y52175000D01*
X111800001Y52203571D01*
X111685715Y52203571D01*
X111628572Y52175000D01*
X111285715Y51803571D02*
X111342857Y51832143D01*
X111371429Y51860714D01*
X111400000Y51917857D01*
X111400000Y52089286D01*
X111371429Y52146429D01*
X111342857Y52175000D01*
X111285715Y52203571D01*
X111200000Y52203571D01*
X111142857Y52175000D01*
X111114286Y52146429D01*
X111085715Y52089286D01*
X111085715Y51917857D01*
X111114286Y51860714D01*
X111142857Y51832143D01*
X111200000Y51803571D01*
X111285715Y51803571D01*
X110828572Y51803571D02*
X110828572Y52203571D01*
X110828572Y52146429D02*
X110800000Y52175000D01*
X110742858Y52203571D01*
X110657143Y52203571D01*
X110600000Y52175000D01*
X110571429Y52117857D01*
X110571429Y51803571D01*
X110571429Y52117857D02*
X110542858Y52175000D01*
X110485715Y52203571D01*
X110400000Y52203571D01*
X110342858Y52175000D01*
X110314286Y52117857D01*
X110314286Y51803571D01*
D12*
X11890000Y4995000D02*
X6810000Y4995000D01*
X11890000Y7535000D02*
X6810000Y7535000D01*
X11890000Y10075000D02*
X6810000Y10075000D01*
X11890000Y12615000D02*
X6810000Y12615000D01*
X11890000Y15155000D02*
X6810000Y15155000D01*
X11890000Y17695000D02*
X6810000Y17695000D01*
X11890000Y20235000D02*
X6810000Y20235000D01*
X11890000Y22775000D02*
X6810000Y22775000D01*
X11890000Y25315000D02*
X6810000Y25315000D01*
X11890000Y27855000D02*
X6810000Y27855000D01*
D13*
X17612952Y2158310D02*
X17612952Y2658310D01*
X17327238Y2158310D01*
X17327238Y2658310D01*
X16993904Y2658310D02*
X16898666Y2658310D01*
X16851047Y2634500D01*
X16803428Y2586881D01*
X16779619Y2491643D01*
X16779619Y2324976D01*
X16803428Y2229738D01*
X16851047Y2182119D01*
X16898666Y2158310D01*
X16993904Y2158310D01*
X17041523Y2182119D01*
X17089142Y2229738D01*
X17112952Y2324976D01*
X17112952Y2491643D01*
X17089142Y2586881D01*
X17041523Y2634500D01*
X16993904Y2658310D01*
X16565332Y2205929D02*
X16541523Y2182119D01*
X16565332Y2158310D01*
X16589142Y2182119D01*
X16565332Y2205929D01*
X16565332Y2158310D01*
X16565332Y2467833D02*
X16541523Y2444024D01*
X16565332Y2420214D01*
X16589142Y2444024D01*
X16565332Y2467833D01*
X16565332Y2420214D01*
X15660571Y2158310D02*
X15827238Y2396405D01*
X15946285Y2158310D02*
X15946285Y2658310D01*
X15755809Y2658310D01*
X15708190Y2634500D01*
X15684381Y2610690D01*
X15660571Y2563071D01*
X15660571Y2491643D01*
X15684381Y2444024D01*
X15708190Y2420214D01*
X15755809Y2396405D01*
X15946285Y2396405D01*
X15255809Y2182119D02*
X15303428Y2158310D01*
X15398666Y2158310D01*
X15446285Y2182119D01*
X15470095Y2229738D01*
X15470095Y2420214D01*
X15446285Y2467833D01*
X15398666Y2491643D01*
X15303428Y2491643D01*
X15255809Y2467833D01*
X15232000Y2420214D01*
X15232000Y2372595D01*
X15470095Y2324976D01*
X14803429Y2491643D02*
X14803429Y1991643D01*
X14803429Y2182119D02*
X14851048Y2158310D01*
X14946286Y2158310D01*
X14993905Y2182119D01*
X15017714Y2205929D01*
X15041524Y2253548D01*
X15041524Y2396405D01*
X15017714Y2444024D01*
X14993905Y2467833D01*
X14946286Y2491643D01*
X14851048Y2491643D01*
X14803429Y2467833D01*
X13993905Y2182119D02*
X14041524Y2158310D01*
X14136762Y2158310D01*
X14184381Y2182119D01*
X14208191Y2229738D01*
X14208191Y2420214D01*
X14184381Y2467833D01*
X14136762Y2491643D01*
X14041524Y2491643D01*
X13993905Y2467833D01*
X13970096Y2420214D01*
X13970096Y2372595D01*
X14208191Y2324976D01*
X13803429Y2158310D02*
X13541525Y2491643D01*
X13803429Y2491643D02*
X13541525Y2158310D01*
X13422477Y2491643D02*
X13232001Y2491643D01*
X13351048Y2658310D02*
X13351048Y2229738D01*
X13327239Y2182119D01*
X13279620Y2158310D01*
X13232001Y2158310D01*
X12327240Y2682119D02*
X12755811Y2039262D01*
X11779620Y2158310D02*
X11779620Y2491643D01*
X11779620Y2444024D02*
X11755811Y2467833D01*
X11708192Y2491643D01*
X11636763Y2491643D01*
X11589144Y2467833D01*
X11565335Y2420214D01*
X11565335Y2158310D01*
X11565335Y2420214D02*
X11541525Y2467833D01*
X11493906Y2491643D01*
X11422478Y2491643D01*
X11374858Y2467833D01*
X11351049Y2420214D01*
X11351049Y2158310D01*
X11112953Y2158310D02*
X11112953Y2491643D01*
X11112953Y2658310D02*
X11136763Y2634500D01*
X11112953Y2610690D01*
X11089144Y2634500D01*
X11112953Y2658310D01*
X11112953Y2610690D01*
X10660573Y2182119D02*
X10708192Y2158310D01*
X10803430Y2158310D01*
X10851049Y2182119D01*
X10874858Y2205929D01*
X10898668Y2253548D01*
X10898668Y2396405D01*
X10874858Y2444024D01*
X10851049Y2467833D01*
X10803430Y2491643D01*
X10708192Y2491643D01*
X10660573Y2467833D01*
X10446287Y2158310D02*
X10446287Y2491643D01*
X10446287Y2396405D02*
X10422478Y2444024D01*
X10398668Y2467833D01*
X10351049Y2491643D01*
X10303430Y2491643D01*
X10065335Y2158310D02*
X10112954Y2182119D01*
X10136763Y2205929D01*
X10160573Y2253548D01*
X10160573Y2396405D01*
X10136763Y2444024D01*
X10112954Y2467833D01*
X10065335Y2491643D01*
X9993906Y2491643D01*
X9946287Y2467833D01*
X9922478Y2444024D01*
X9898668Y2396405D01*
X9898668Y2253548D01*
X9922478Y2205929D01*
X9946287Y2182119D01*
X9993906Y2158310D01*
X10065335Y2158310D01*
X9303430Y2491643D02*
X9303430Y1991643D01*
X9303430Y2467833D02*
X9255811Y2491643D01*
X9160573Y2491643D01*
X9112954Y2467833D01*
X9089145Y2444024D01*
X9065335Y2396405D01*
X9065335Y2253548D01*
X9089145Y2205929D01*
X9112954Y2182119D01*
X9160573Y2158310D01*
X9255811Y2158310D01*
X9303430Y2182119D01*
X8636764Y2491643D02*
X8636764Y2158310D01*
X8851049Y2491643D02*
X8851049Y2229738D01*
X8827240Y2182119D01*
X8779621Y2158310D01*
X8708192Y2158310D01*
X8660573Y2182119D01*
X8636764Y2205929D01*
X8327240Y2158310D02*
X8374859Y2182119D01*
X8398668Y2229738D01*
X8398668Y2658310D01*
X8065335Y2158310D02*
X8112954Y2182119D01*
X8136763Y2229738D01*
X8136763Y2658310D01*
X7660573Y2491643D02*
X7660573Y2158310D01*
X7874858Y2491643D02*
X7874858Y2229738D01*
X7851049Y2182119D01*
X7803430Y2158310D01*
X7732001Y2158310D01*
X7684382Y2182119D01*
X7660573Y2205929D01*
X7422477Y2491643D02*
X7422477Y1991643D01*
X7422477Y2467833D02*
X7374858Y2491643D01*
X7279620Y2491643D01*
X7232001Y2467833D01*
X7208192Y2444024D01*
X7184382Y2396405D01*
X7184382Y2253548D01*
X7208192Y2205929D01*
X7232001Y2182119D01*
X7279620Y2158310D01*
X7374858Y2158310D01*
X7422477Y2182119D01*
X17446286Y1545214D02*
X17374857Y1521405D01*
X17351048Y1497595D01*
X17327238Y1449976D01*
X17327238Y1378548D01*
X17351048Y1330929D01*
X17374857Y1307119D01*
X17422476Y1283310D01*
X17612952Y1283310D01*
X17612952Y1783310D01*
X17446286Y1783310D01*
X17398667Y1759500D01*
X17374857Y1735690D01*
X17351048Y1688071D01*
X17351048Y1640452D01*
X17374857Y1592833D01*
X17398667Y1569024D01*
X17446286Y1545214D01*
X17612952Y1545214D01*
X16898667Y1616643D02*
X16898667Y1283310D01*
X17112952Y1616643D02*
X17112952Y1354738D01*
X17089143Y1307119D01*
X17041524Y1283310D01*
X16970095Y1283310D01*
X16922476Y1307119D01*
X16898667Y1330929D01*
X16732000Y1616643D02*
X16541524Y1616643D01*
X16660571Y1783310D02*
X16660571Y1354738D01*
X16636762Y1307119D01*
X16589143Y1283310D01*
X16541524Y1283310D01*
X16446286Y1616643D02*
X16255810Y1616643D01*
X16374857Y1783310D02*
X16374857Y1354738D01*
X16351048Y1307119D01*
X16303429Y1283310D01*
X16255810Y1283310D01*
X16017715Y1283310D02*
X16065334Y1307119D01*
X16089143Y1330929D01*
X16112953Y1378548D01*
X16112953Y1521405D01*
X16089143Y1569024D01*
X16065334Y1592833D01*
X16017715Y1616643D01*
X15946286Y1616643D01*
X15898667Y1592833D01*
X15874858Y1569024D01*
X15851048Y1521405D01*
X15851048Y1378548D01*
X15874858Y1330929D01*
X15898667Y1307119D01*
X15946286Y1283310D01*
X16017715Y1283310D01*
X15636762Y1616643D02*
X15636762Y1283310D01*
X15636762Y1569024D02*
X15612953Y1592833D01*
X15565334Y1616643D01*
X15493905Y1616643D01*
X15446286Y1592833D01*
X15422477Y1545214D01*
X15422477Y1283310D01*
X14803429Y1616643D02*
X14803429Y1116643D01*
X14803429Y1592833D02*
X14755810Y1616643D01*
X14660572Y1616643D01*
X14612953Y1592833D01*
X14589144Y1569024D01*
X14565334Y1521405D01*
X14565334Y1378548D01*
X14589144Y1330929D01*
X14612953Y1307119D01*
X14660572Y1283310D01*
X14755810Y1283310D01*
X14803429Y1307119D01*
X14136763Y1616643D02*
X14136763Y1283310D01*
X14351048Y1616643D02*
X14351048Y1354738D01*
X14327239Y1307119D01*
X14279620Y1283310D01*
X14208191Y1283310D01*
X14160572Y1307119D01*
X14136763Y1330929D01*
X13922477Y1307119D02*
X13874858Y1283310D01*
X13779620Y1283310D01*
X13732001Y1307119D01*
X13708191Y1354738D01*
X13708191Y1378548D01*
X13732001Y1426167D01*
X13779620Y1449976D01*
X13851048Y1449976D01*
X13898667Y1473786D01*
X13922477Y1521405D01*
X13922477Y1545214D01*
X13898667Y1592833D01*
X13851048Y1616643D01*
X13779620Y1616643D01*
X13732001Y1592833D01*
X13493905Y1283310D02*
X13493905Y1783310D01*
X13279620Y1283310D02*
X13279620Y1545214D01*
X13303429Y1592833D01*
X13351048Y1616643D01*
X13422477Y1616643D01*
X13470096Y1592833D01*
X13493905Y1569024D01*
X12446287Y1307119D02*
X12493906Y1283310D01*
X12589144Y1283310D01*
X12636763Y1307119D01*
X12660572Y1330929D01*
X12684382Y1378548D01*
X12684382Y1521405D01*
X12660572Y1569024D01*
X12636763Y1592833D01*
X12589144Y1616643D01*
X12493906Y1616643D01*
X12446287Y1592833D01*
X12160573Y1283310D02*
X12208192Y1307119D01*
X12232001Y1330929D01*
X12255811Y1378548D01*
X12255811Y1521405D01*
X12232001Y1569024D01*
X12208192Y1592833D01*
X12160573Y1616643D01*
X12089144Y1616643D01*
X12041525Y1592833D01*
X12017716Y1569024D01*
X11993906Y1521405D01*
X11993906Y1378548D01*
X12017716Y1330929D01*
X12041525Y1307119D01*
X12089144Y1283310D01*
X12160573Y1283310D01*
X11779620Y1616643D02*
X11779620Y1283310D01*
X11779620Y1569024D02*
X11755811Y1592833D01*
X11708192Y1616643D01*
X11636763Y1616643D01*
X11589144Y1592833D01*
X11565335Y1545214D01*
X11565335Y1283310D01*
X11327239Y1616643D02*
X11327239Y1283310D01*
X11327239Y1569024D02*
X11303430Y1592833D01*
X11255811Y1616643D01*
X11184382Y1616643D01*
X11136763Y1592833D01*
X11112954Y1545214D01*
X11112954Y1283310D01*
X10684382Y1307119D02*
X10732001Y1283310D01*
X10827239Y1283310D01*
X10874858Y1307119D01*
X10898668Y1354738D01*
X10898668Y1545214D01*
X10874858Y1592833D01*
X10827239Y1616643D01*
X10732001Y1616643D01*
X10684382Y1592833D01*
X10660573Y1545214D01*
X10660573Y1497595D01*
X10898668Y1449976D01*
X10232002Y1307119D02*
X10279621Y1283310D01*
X10374859Y1283310D01*
X10422478Y1307119D01*
X10446287Y1330929D01*
X10470097Y1378548D01*
X10470097Y1521405D01*
X10446287Y1569024D01*
X10422478Y1592833D01*
X10374859Y1616643D01*
X10279621Y1616643D01*
X10232002Y1592833D01*
X10089145Y1616643D02*
X9898669Y1616643D01*
X10017716Y1783310D02*
X10017716Y1354738D01*
X9993907Y1307119D01*
X9946288Y1283310D01*
X9898669Y1283310D01*
X9755812Y1307119D02*
X9708193Y1283310D01*
X9612955Y1283310D01*
X9565336Y1307119D01*
X9541526Y1354738D01*
X9541526Y1378548D01*
X9565336Y1426167D01*
X9612955Y1449976D01*
X9684383Y1449976D01*
X9732002Y1473786D01*
X9755812Y1521405D01*
X9755812Y1545214D01*
X9732002Y1592833D01*
X9684383Y1616643D01*
X9612955Y1616643D01*
X9565336Y1592833D01*
X9017717Y1616643D02*
X8827241Y1616643D01*
X8946288Y1783310D02*
X8946288Y1354738D01*
X8922479Y1307119D01*
X8874860Y1283310D01*
X8827241Y1283310D01*
X8589146Y1283310D02*
X8636765Y1307119D01*
X8660574Y1330929D01*
X8684384Y1378548D01*
X8684384Y1521405D01*
X8660574Y1569024D01*
X8636765Y1592833D01*
X8589146Y1616643D01*
X8517717Y1616643D01*
X8470098Y1592833D01*
X8446289Y1569024D01*
X8422479Y1521405D01*
X8422479Y1378548D01*
X8446289Y1330929D01*
X8470098Y1307119D01*
X8517717Y1283310D01*
X8589146Y1283310D01*
X7565337Y1759500D02*
X7612956Y1783310D01*
X7684384Y1783310D01*
X7755813Y1759500D01*
X7803432Y1711881D01*
X7827241Y1664262D01*
X7851051Y1569024D01*
X7851051Y1497595D01*
X7827241Y1402357D01*
X7803432Y1354738D01*
X7755813Y1307119D01*
X7684384Y1283310D01*
X7636765Y1283310D01*
X7565337Y1307119D01*
X7541527Y1330929D01*
X7541527Y1497595D01*
X7636765Y1497595D01*
X7327241Y1283310D02*
X7327241Y1783310D01*
X7041527Y1283310D01*
X7041527Y1783310D01*
X6803431Y1283310D02*
X6803431Y1783310D01*
X6684384Y1783310D01*
X6612955Y1759500D01*
X6565336Y1711881D01*
X6541527Y1664262D01*
X6517717Y1569024D01*
X6517717Y1497595D01*
X6541527Y1402357D01*
X6565336Y1354738D01*
X6612955Y1307119D01*
X6684384Y1283310D01*
X6803431Y1283310D01*
X6303431Y1330929D02*
X6279622Y1307119D01*
X6303431Y1283310D01*
X6327241Y1307119D01*
X6303431Y1330929D01*
X6303431Y1283310D01*
X17664188Y3308333D02*
X17687998Y3332143D01*
X17735617Y3403571D01*
X17759426Y3451190D01*
X17783236Y3522619D01*
X17807045Y3641667D01*
X17807045Y3736905D01*
X17783236Y3855952D01*
X17759426Y3927381D01*
X17735617Y3975000D01*
X17687998Y4046429D01*
X17664188Y4070238D01*
X17330855Y3998810D02*
X17330855Y3641667D01*
X17354665Y3570238D01*
X17402284Y3522619D01*
X17473712Y3498810D01*
X17521331Y3498810D01*
X17021332Y3498810D02*
X17068951Y3522619D01*
X17092760Y3546429D01*
X17116570Y3594048D01*
X17116570Y3736905D01*
X17092760Y3784524D01*
X17068951Y3808333D01*
X17021332Y3832143D01*
X16949903Y3832143D01*
X16902284Y3808333D01*
X16878475Y3784524D01*
X16854665Y3736905D01*
X16854665Y3594048D01*
X16878475Y3546429D01*
X16902284Y3522619D01*
X16949903Y3498810D01*
X17021332Y3498810D01*
X16687998Y3832143D02*
X16568951Y3498810D01*
X16449903Y3832143D02*
X16568951Y3498810D01*
X16616570Y3379762D01*
X16640379Y3355952D01*
X16687998Y3332143D01*
X15711809Y3760714D02*
X15640380Y3736905D01*
X15616571Y3713095D01*
X15592761Y3665476D01*
X15592761Y3594048D01*
X15616571Y3546429D01*
X15640380Y3522619D01*
X15687999Y3498810D01*
X15878475Y3498810D01*
X15878475Y3998810D01*
X15711809Y3998810D01*
X15664190Y3975000D01*
X15640380Y3951190D01*
X15616571Y3903571D01*
X15616571Y3855952D01*
X15640380Y3808333D01*
X15664190Y3784524D01*
X15711809Y3760714D01*
X15878475Y3760714D01*
X15164190Y3832143D02*
X15164190Y3498810D01*
X15378475Y3832143D02*
X15378475Y3570238D01*
X15354666Y3522619D01*
X15307047Y3498810D01*
X15235618Y3498810D01*
X15187999Y3522619D01*
X15164190Y3546429D01*
X14997523Y3832143D02*
X14807047Y3832143D01*
X14926094Y3998810D02*
X14926094Y3570238D01*
X14902285Y3522619D01*
X14854666Y3498810D01*
X14807047Y3498810D01*
X14711809Y3832143D02*
X14521333Y3832143D01*
X14640380Y3998810D02*
X14640380Y3570238D01*
X14616571Y3522619D01*
X14568952Y3498810D01*
X14521333Y3498810D01*
X14283238Y3498810D02*
X14330857Y3522619D01*
X14354666Y3546429D01*
X14378476Y3594048D01*
X14378476Y3736905D01*
X14354666Y3784524D01*
X14330857Y3808333D01*
X14283238Y3832143D01*
X14211809Y3832143D01*
X14164190Y3808333D01*
X14140381Y3784524D01*
X14116571Y3736905D01*
X14116571Y3594048D01*
X14140381Y3546429D01*
X14164190Y3522619D01*
X14211809Y3498810D01*
X14283238Y3498810D01*
X13902285Y3832143D02*
X13902285Y3498810D01*
X13902285Y3784524D02*
X13878476Y3808333D01*
X13830857Y3832143D01*
X13759428Y3832143D01*
X13711809Y3808333D01*
X13688000Y3760714D01*
X13688000Y3498810D01*
X13497523Y3308333D02*
X13473714Y3332143D01*
X13426095Y3403571D01*
X13402285Y3451190D01*
X13378476Y3522619D01*
X13354666Y3641667D01*
X13354666Y3736905D01*
X13378476Y3855952D01*
X13402285Y3927381D01*
X13426095Y3975000D01*
X13473714Y4046429D01*
X13497523Y4070238D01*
X12759429Y3641667D02*
X12521334Y3641667D01*
X12807048Y3498810D02*
X12640381Y3998810D01*
X12473715Y3498810D01*
X12354667Y3998810D02*
X12045144Y3998810D01*
X12211810Y3808333D01*
X12140382Y3808333D01*
X12092763Y3784524D01*
X12068953Y3760714D01*
X12045144Y3713095D01*
X12045144Y3594048D01*
X12068953Y3546429D01*
X12092763Y3522619D01*
X12140382Y3498810D01*
X12283239Y3498810D01*
X12330858Y3522619D01*
X12354667Y3546429D01*
X15671998Y5848333D02*
X15695808Y5872143D01*
X15743427Y5943571D01*
X15767236Y5991190D01*
X15791046Y6062619D01*
X15814855Y6181667D01*
X15814855Y6276905D01*
X15791046Y6395952D01*
X15767236Y6467381D01*
X15743427Y6515000D01*
X15695808Y6586429D01*
X15671998Y6610238D01*
X15338665Y6538810D02*
X15338665Y6181667D01*
X15362475Y6110238D01*
X15410094Y6062619D01*
X15481522Y6038810D01*
X15529141Y6038810D01*
X15029142Y6038810D02*
X15076761Y6062619D01*
X15100570Y6086429D01*
X15124380Y6134048D01*
X15124380Y6276905D01*
X15100570Y6324524D01*
X15076761Y6348333D01*
X15029142Y6372143D01*
X14957713Y6372143D01*
X14910094Y6348333D01*
X14886285Y6324524D01*
X14862475Y6276905D01*
X14862475Y6134048D01*
X14886285Y6086429D01*
X14910094Y6062619D01*
X14957713Y6038810D01*
X15029142Y6038810D01*
X14695808Y6372143D02*
X14576761Y6038810D01*
X14457713Y6372143D02*
X14576761Y6038810D01*
X14624380Y5919762D01*
X14648189Y5895952D01*
X14695808Y5872143D01*
X13933904Y6538810D02*
X13600571Y6038810D01*
X13600571Y6538810D02*
X13933904Y6038810D01*
X13457714Y5848333D02*
X13433905Y5872143D01*
X13386286Y5943571D01*
X13362476Y5991190D01*
X13338667Y6062619D01*
X13314857Y6181667D01*
X13314857Y6276905D01*
X13338667Y6395952D01*
X13362476Y6467381D01*
X13386286Y6515000D01*
X13433905Y6586429D01*
X13457714Y6610238D01*
X12719620Y6181667D02*
X12481525Y6181667D01*
X12767239Y6038810D02*
X12600572Y6538810D01*
X12433906Y6038810D01*
X12291049Y6491190D02*
X12267239Y6515000D01*
X12219620Y6538810D01*
X12100573Y6538810D01*
X12052954Y6515000D01*
X12029144Y6491190D01*
X12005335Y6443571D01*
X12005335Y6395952D01*
X12029144Y6324524D01*
X12314858Y6038810D01*
X12005335Y6038810D01*
X6504188Y8388333D02*
X6527998Y8412143D01*
X6575617Y8483571D01*
X6599426Y8531190D01*
X6623236Y8602619D01*
X6647045Y8721667D01*
X6647045Y8816905D01*
X6623236Y8935952D01*
X6599426Y9007381D01*
X6575617Y9055000D01*
X6527998Y9126429D01*
X6504188Y9150238D01*
X6170855Y9078810D02*
X6170855Y8721667D01*
X6194665Y8650238D01*
X6242284Y8602619D01*
X6313712Y8578810D01*
X6361331Y8578810D01*
X5861332Y8578810D02*
X5908951Y8602619D01*
X5932760Y8626429D01*
X5956570Y8674048D01*
X5956570Y8816905D01*
X5932760Y8864524D01*
X5908951Y8888333D01*
X5861332Y8912143D01*
X5789903Y8912143D01*
X5742284Y8888333D01*
X5718475Y8864524D01*
X5694665Y8816905D01*
X5694665Y8674048D01*
X5718475Y8626429D01*
X5742284Y8602619D01*
X5789903Y8578810D01*
X5861332Y8578810D01*
X5527998Y8912143D02*
X5408951Y8578810D01*
X5289903Y8912143D02*
X5408951Y8578810D01*
X5456570Y8459762D01*
X5480379Y8435952D01*
X5527998Y8412143D01*
X4623237Y8816905D02*
X4623237Y8578810D01*
X4789904Y9078810D02*
X4623237Y8816905D01*
X4456571Y9078810D01*
X4337523Y8388333D02*
X4313714Y8412143D01*
X4266095Y8483571D01*
X4242285Y8531190D01*
X4218476Y8602619D01*
X4194666Y8721667D01*
X4194666Y8816905D01*
X4218476Y8935952D01*
X4242285Y9007381D01*
X4266095Y9055000D01*
X4313714Y9126429D01*
X4337523Y9150238D01*
X3599429Y8721667D02*
X3361334Y8721667D01*
X3647048Y8578810D02*
X3480381Y9078810D01*
X3313715Y8578810D01*
X2885144Y8578810D02*
X3170858Y8578810D01*
X3028001Y8578810D02*
X3028001Y9078810D01*
X3075620Y9007381D01*
X3123239Y8959762D01*
X3170858Y8935952D01*
X13794953Y11341000D02*
X13842572Y11364810D01*
X13914000Y11364810D01*
X13985429Y11341000D01*
X14033048Y11293381D01*
X14056857Y11245762D01*
X14080667Y11150524D01*
X14080667Y11079095D01*
X14056857Y10983857D01*
X14033048Y10936238D01*
X13985429Y10888619D01*
X13914000Y10864810D01*
X13866381Y10864810D01*
X13794953Y10888619D01*
X13771143Y10912429D01*
X13771143Y11079095D01*
X13866381Y11079095D01*
X13556857Y10864810D02*
X13556857Y11364810D01*
X13271143Y10864810D01*
X13271143Y11364810D01*
X13033047Y10864810D02*
X13033047Y11364810D01*
X12914000Y11364810D01*
X12842571Y11341000D01*
X12794952Y11293381D01*
X12771143Y11245762D01*
X12747333Y11150524D01*
X12747333Y11079095D01*
X12771143Y10983857D01*
X12794952Y10936238D01*
X12842571Y10888619D01*
X12914000Y10864810D01*
X13033047Y10864810D01*
X15136285Y13682619D02*
X15064856Y13658810D01*
X14945809Y13658810D01*
X14898190Y13682619D01*
X14874380Y13706429D01*
X14850571Y13754048D01*
X14850571Y13801667D01*
X14874380Y13849286D01*
X14898190Y13873095D01*
X14945809Y13896905D01*
X15041047Y13920714D01*
X15088666Y13944524D01*
X15112475Y13968333D01*
X15136285Y14015952D01*
X15136285Y14063571D01*
X15112475Y14111190D01*
X15088666Y14135000D01*
X15041047Y14158810D01*
X14921999Y14158810D01*
X14850571Y14135000D01*
X14636285Y13658810D02*
X14636285Y14158810D01*
X14445809Y14158810D01*
X14398190Y14135000D01*
X14374381Y14111190D01*
X14350571Y14063571D01*
X14350571Y13992143D01*
X14374381Y13944524D01*
X14398190Y13920714D01*
X14445809Y13896905D01*
X14636285Y13896905D01*
X14136285Y13658810D02*
X14136285Y14158810D01*
X13612476Y13706429D02*
X13636286Y13682619D01*
X13707714Y13658810D01*
X13755333Y13658810D01*
X13826762Y13682619D01*
X13874381Y13730238D01*
X13898190Y13777857D01*
X13922000Y13873095D01*
X13922000Y13944524D01*
X13898190Y14039762D01*
X13874381Y14087381D01*
X13826762Y14135000D01*
X13755333Y14158810D01*
X13707714Y14158810D01*
X13636286Y14135000D01*
X13612476Y14111190D01*
X13160095Y13658810D02*
X13398190Y13658810D01*
X13398190Y14158810D01*
X12993428Y13658810D02*
X12993428Y14158810D01*
X12707714Y13658810D02*
X12922000Y13944524D01*
X12707714Y14158810D02*
X12993428Y13873095D01*
X18533332Y16008333D02*
X18557142Y16032143D01*
X18604761Y16103571D01*
X18628570Y16151190D01*
X18652380Y16222619D01*
X18676189Y16341667D01*
X18676189Y16436905D01*
X18652380Y16555952D01*
X18628570Y16627381D01*
X18604761Y16675000D01*
X18557142Y16746429D01*
X18533332Y16770238D01*
X18342856Y16198810D02*
X18342856Y16698810D01*
X18223809Y16698810D01*
X18152380Y16675000D01*
X18104761Y16627381D01*
X18080952Y16579762D01*
X18057142Y16484524D01*
X18057142Y16413095D01*
X18080952Y16317857D01*
X18104761Y16270238D01*
X18152380Y16222619D01*
X18223809Y16198810D01*
X18342856Y16198810D01*
X17628571Y16198810D02*
X17628571Y16460714D01*
X17652380Y16508333D01*
X17699999Y16532143D01*
X17795237Y16532143D01*
X17842856Y16508333D01*
X17628571Y16222619D02*
X17676190Y16198810D01*
X17795237Y16198810D01*
X17842856Y16222619D01*
X17866666Y16270238D01*
X17866666Y16317857D01*
X17842856Y16365476D01*
X17795237Y16389286D01*
X17676190Y16389286D01*
X17628571Y16413095D01*
X17461904Y16532143D02*
X17271428Y16532143D01*
X17390475Y16698810D02*
X17390475Y16270238D01*
X17366666Y16222619D01*
X17319047Y16198810D01*
X17271428Y16198810D01*
X16890476Y16198810D02*
X16890476Y16460714D01*
X16914285Y16508333D01*
X16961904Y16532143D01*
X17057142Y16532143D01*
X17104761Y16508333D01*
X16890476Y16222619D02*
X16938095Y16198810D01*
X17057142Y16198810D01*
X17104761Y16222619D01*
X17128571Y16270238D01*
X17128571Y16317857D01*
X17104761Y16365476D01*
X17057142Y16389286D01*
X16938095Y16389286D01*
X16890476Y16413095D01*
X16176190Y16698810D02*
X16080952Y16698810D01*
X16033333Y16675000D01*
X15985714Y16627381D01*
X15961905Y16532143D01*
X15961905Y16365476D01*
X15985714Y16270238D01*
X16033333Y16222619D01*
X16080952Y16198810D01*
X16176190Y16198810D01*
X16223809Y16222619D01*
X16271428Y16270238D01*
X16295238Y16365476D01*
X16295238Y16532143D01*
X16271428Y16627381D01*
X16223809Y16675000D01*
X16176190Y16698810D01*
X15533333Y16532143D02*
X15533333Y16198810D01*
X15747618Y16532143D02*
X15747618Y16270238D01*
X15723809Y16222619D01*
X15676190Y16198810D01*
X15604761Y16198810D01*
X15557142Y16222619D01*
X15533333Y16246429D01*
X15366666Y16532143D02*
X15176190Y16532143D01*
X15295237Y16698810D02*
X15295237Y16270238D01*
X15271428Y16222619D01*
X15223809Y16198810D01*
X15176190Y16198810D01*
X15057142Y16008333D02*
X15033333Y16032143D01*
X14985714Y16103571D01*
X14961904Y16151190D01*
X14938095Y16222619D01*
X14914285Y16341667D01*
X14914285Y16436905D01*
X14938095Y16555952D01*
X14961904Y16627381D01*
X14985714Y16675000D01*
X15033333Y16746429D01*
X15057142Y16770238D01*
X14295238Y16198810D02*
X14295238Y16698810D01*
X14128572Y16341667D01*
X13961905Y16698810D01*
X13961905Y16198810D01*
X13723809Y16198810D02*
X13723809Y16698810D01*
X13509524Y16222619D02*
X13438095Y16198810D01*
X13319048Y16198810D01*
X13271429Y16222619D01*
X13247619Y16246429D01*
X13223810Y16294048D01*
X13223810Y16341667D01*
X13247619Y16389286D01*
X13271429Y16413095D01*
X13319048Y16436905D01*
X13414286Y16460714D01*
X13461905Y16484524D01*
X13485714Y16508333D01*
X13509524Y16555952D01*
X13509524Y16603571D01*
X13485714Y16651190D01*
X13461905Y16675000D01*
X13414286Y16698810D01*
X13295238Y16698810D01*
X13223810Y16675000D01*
X12914286Y16698810D02*
X12819048Y16698810D01*
X12771429Y16675000D01*
X12723810Y16627381D01*
X12700001Y16532143D01*
X12700001Y16365476D01*
X12723810Y16270238D01*
X12771429Y16222619D01*
X12819048Y16198810D01*
X12914286Y16198810D01*
X12961905Y16222619D01*
X13009524Y16270238D01*
X13033334Y16365476D01*
X13033334Y16532143D01*
X13009524Y16627381D01*
X12961905Y16675000D01*
X12914286Y16698810D01*
X17993618Y18548333D02*
X18017428Y18572143D01*
X18065047Y18643571D01*
X18088856Y18691190D01*
X18112666Y18762619D01*
X18136475Y18881667D01*
X18136475Y18976905D01*
X18112666Y19095952D01*
X18088856Y19167381D01*
X18065047Y19215000D01*
X18017428Y19286429D01*
X17993618Y19310238D01*
X17803142Y18738810D02*
X17803142Y19238810D01*
X17684095Y19238810D01*
X17612666Y19215000D01*
X17565047Y19167381D01*
X17541238Y19119762D01*
X17517428Y19024524D01*
X17517428Y18953095D01*
X17541238Y18857857D01*
X17565047Y18810238D01*
X17612666Y18762619D01*
X17684095Y18738810D01*
X17803142Y18738810D01*
X17088857Y18738810D02*
X17088857Y19000714D01*
X17112666Y19048333D01*
X17160285Y19072143D01*
X17255523Y19072143D01*
X17303142Y19048333D01*
X17088857Y18762619D02*
X17136476Y18738810D01*
X17255523Y18738810D01*
X17303142Y18762619D01*
X17326952Y18810238D01*
X17326952Y18857857D01*
X17303142Y18905476D01*
X17255523Y18929286D01*
X17136476Y18929286D01*
X17088857Y18953095D01*
X16922190Y19072143D02*
X16731714Y19072143D01*
X16850761Y19238810D02*
X16850761Y18810238D01*
X16826952Y18762619D01*
X16779333Y18738810D01*
X16731714Y18738810D01*
X16350762Y18738810D02*
X16350762Y19000714D01*
X16374571Y19048333D01*
X16422190Y19072143D01*
X16517428Y19072143D01*
X16565047Y19048333D01*
X16350762Y18762619D02*
X16398381Y18738810D01*
X16517428Y18738810D01*
X16565047Y18762619D01*
X16588857Y18810238D01*
X16588857Y18857857D01*
X16565047Y18905476D01*
X16517428Y18929286D01*
X16398381Y18929286D01*
X16350762Y18953095D01*
X15731714Y18738810D02*
X15731714Y19238810D01*
X15493619Y19072143D02*
X15493619Y18738810D01*
X15493619Y19024524D02*
X15469810Y19048333D01*
X15422191Y19072143D01*
X15350762Y19072143D01*
X15303143Y19048333D01*
X15279334Y19000714D01*
X15279334Y18738810D01*
X15088857Y18548333D02*
X15065048Y18572143D01*
X15017429Y18643571D01*
X14993619Y18691190D01*
X14969810Y18762619D01*
X14946000Y18881667D01*
X14946000Y18976905D01*
X14969810Y19095952D01*
X14993619Y19167381D01*
X15017429Y19215000D01*
X15065048Y19286429D01*
X15088857Y19310238D01*
X14326953Y18738810D02*
X14326953Y19238810D01*
X14160287Y18881667D01*
X13993620Y19238810D01*
X13993620Y18738810D01*
X13660286Y19238810D02*
X13565048Y19238810D01*
X13517429Y19215000D01*
X13469810Y19167381D01*
X13446001Y19072143D01*
X13446001Y18905476D01*
X13469810Y18810238D01*
X13517429Y18762619D01*
X13565048Y18738810D01*
X13660286Y18738810D01*
X13707905Y18762619D01*
X13755524Y18810238D01*
X13779334Y18905476D01*
X13779334Y19072143D01*
X13755524Y19167381D01*
X13707905Y19215000D01*
X13660286Y19238810D01*
X13255524Y18762619D02*
X13184095Y18738810D01*
X13065048Y18738810D01*
X13017429Y18762619D01*
X12993619Y18786429D01*
X12969810Y18834048D01*
X12969810Y18881667D01*
X12993619Y18929286D01*
X13017429Y18953095D01*
X13065048Y18976905D01*
X13160286Y19000714D01*
X13207905Y19024524D01*
X13231714Y19048333D01*
X13255524Y19095952D01*
X13255524Y19143571D01*
X13231714Y19191190D01*
X13207905Y19215000D01*
X13160286Y19238810D01*
X13041238Y19238810D01*
X12969810Y19215000D01*
X12755524Y18738810D02*
X12755524Y19238810D01*
X22561330Y21088333D02*
X22585140Y21112143D01*
X22632759Y21183571D01*
X22656568Y21231190D01*
X22680378Y21302619D01*
X22704187Y21421667D01*
X22704187Y21516905D01*
X22680378Y21635952D01*
X22656568Y21707381D01*
X22632759Y21755000D01*
X22585140Y21826429D01*
X22561330Y21850238D01*
X22204188Y21540714D02*
X22132759Y21516905D01*
X22108950Y21493095D01*
X22085140Y21445476D01*
X22085140Y21374048D01*
X22108950Y21326429D01*
X22132759Y21302619D01*
X22180378Y21278810D01*
X22370854Y21278810D01*
X22370854Y21778810D01*
X22204188Y21778810D01*
X22156569Y21755000D01*
X22132759Y21731190D01*
X22108950Y21683571D01*
X22108950Y21635952D01*
X22132759Y21588333D01*
X22156569Y21564524D01*
X22204188Y21540714D01*
X22370854Y21540714D01*
X21799426Y21278810D02*
X21847045Y21302619D01*
X21870854Y21326429D01*
X21894664Y21374048D01*
X21894664Y21516905D01*
X21870854Y21564524D01*
X21847045Y21588333D01*
X21799426Y21612143D01*
X21727997Y21612143D01*
X21680378Y21588333D01*
X21656569Y21564524D01*
X21632759Y21516905D01*
X21632759Y21374048D01*
X21656569Y21326429D01*
X21680378Y21302619D01*
X21727997Y21278810D01*
X21799426Y21278810D01*
X21489902Y21612143D02*
X21299426Y21612143D01*
X21418473Y21778810D02*
X21418473Y21350238D01*
X21394664Y21302619D01*
X21347045Y21278810D01*
X21299426Y21278810D01*
X21204188Y21612143D02*
X21013712Y21612143D01*
X21132759Y21778810D02*
X21132759Y21350238D01*
X21108950Y21302619D01*
X21061331Y21278810D01*
X21013712Y21278810D01*
X20775617Y21278810D02*
X20823236Y21302619D01*
X20847045Y21326429D01*
X20870855Y21374048D01*
X20870855Y21516905D01*
X20847045Y21564524D01*
X20823236Y21588333D01*
X20775617Y21612143D01*
X20704188Y21612143D01*
X20656569Y21588333D01*
X20632760Y21564524D01*
X20608950Y21516905D01*
X20608950Y21374048D01*
X20632760Y21326429D01*
X20656569Y21302619D01*
X20704188Y21278810D01*
X20775617Y21278810D01*
X20394664Y21278810D02*
X20394664Y21612143D01*
X20394664Y21564524D02*
X20370855Y21588333D01*
X20323236Y21612143D01*
X20251807Y21612143D01*
X20204188Y21588333D01*
X20180379Y21540714D01*
X20180379Y21278810D01*
X20180379Y21540714D02*
X20156569Y21588333D01*
X20108950Y21612143D01*
X20037522Y21612143D01*
X19989902Y21588333D01*
X19966093Y21540714D01*
X19966093Y21278810D01*
X19061331Y21278810D02*
X19227998Y21516905D01*
X19347045Y21278810D02*
X19347045Y21778810D01*
X19156569Y21778810D01*
X19108950Y21755000D01*
X19085141Y21731190D01*
X19061331Y21683571D01*
X19061331Y21612143D01*
X19085141Y21564524D01*
X19108950Y21540714D01*
X19156569Y21516905D01*
X19347045Y21516905D01*
X18775617Y21278810D02*
X18823236Y21302619D01*
X18847045Y21326429D01*
X18870855Y21374048D01*
X18870855Y21516905D01*
X18847045Y21564524D01*
X18823236Y21588333D01*
X18775617Y21612143D01*
X18704188Y21612143D01*
X18656569Y21588333D01*
X18632760Y21564524D01*
X18608950Y21516905D01*
X18608950Y21374048D01*
X18632760Y21326429D01*
X18656569Y21302619D01*
X18704188Y21278810D01*
X18775617Y21278810D01*
X18442283Y21612143D02*
X18347045Y21278810D01*
X18251807Y21516905D01*
X18156569Y21278810D01*
X18061331Y21612143D01*
X17918473Y21088333D02*
X17894664Y21112143D01*
X17847045Y21183571D01*
X17823235Y21231190D01*
X17799426Y21302619D01*
X17775616Y21421667D01*
X17775616Y21516905D01*
X17799426Y21635952D01*
X17823235Y21707381D01*
X17847045Y21755000D01*
X17894664Y21826429D01*
X17918473Y21850238D01*
X17180379Y21302619D02*
X17108950Y21278810D01*
X16989903Y21278810D01*
X16942284Y21302619D01*
X16918474Y21326429D01*
X16894665Y21374048D01*
X16894665Y21421667D01*
X16918474Y21469286D01*
X16942284Y21493095D01*
X16989903Y21516905D01*
X17085141Y21540714D01*
X17132760Y21564524D01*
X17156569Y21588333D01*
X17180379Y21635952D01*
X17180379Y21683571D01*
X17156569Y21731190D01*
X17132760Y21755000D01*
X17085141Y21778810D01*
X16966093Y21778810D01*
X16894665Y21755000D01*
X16680379Y21278810D02*
X16680379Y21778810D01*
X16489903Y21778810D01*
X16442284Y21755000D01*
X16418475Y21731190D01*
X16394665Y21683571D01*
X16394665Y21612143D01*
X16418475Y21564524D01*
X16442284Y21540714D01*
X16489903Y21516905D01*
X16680379Y21516905D01*
X16180379Y21278810D02*
X16180379Y21778810D01*
X16061332Y21231190D02*
X15680380Y21231190D01*
X15275618Y21326429D02*
X15299428Y21302619D01*
X15370856Y21278810D01*
X15418475Y21278810D01*
X15489904Y21302619D01*
X15537523Y21350238D01*
X15561332Y21397857D01*
X15585142Y21493095D01*
X15585142Y21564524D01*
X15561332Y21659762D01*
X15537523Y21707381D01*
X15489904Y21755000D01*
X15418475Y21778810D01*
X15370856Y21778810D01*
X15299428Y21755000D01*
X15275618Y21731190D01*
X15085142Y21302619D02*
X15013713Y21278810D01*
X14894666Y21278810D01*
X14847047Y21302619D01*
X14823237Y21326429D01*
X14799428Y21374048D01*
X14799428Y21421667D01*
X14823237Y21469286D01*
X14847047Y21493095D01*
X14894666Y21516905D01*
X14989904Y21540714D01*
X15037523Y21564524D01*
X15061332Y21588333D01*
X15085142Y21635952D01*
X15085142Y21683571D01*
X15061332Y21731190D01*
X15037523Y21755000D01*
X14989904Y21778810D01*
X14870856Y21778810D01*
X14799428Y21755000D01*
X14704190Y21231190D02*
X14323238Y21231190D01*
X14132762Y21564524D02*
X14180381Y21588333D01*
X14204190Y21612143D01*
X14228000Y21659762D01*
X14228000Y21683571D01*
X14204190Y21731190D01*
X14180381Y21755000D01*
X14132762Y21778810D01*
X14037524Y21778810D01*
X13989905Y21755000D01*
X13966095Y21731190D01*
X13942286Y21683571D01*
X13942286Y21659762D01*
X13966095Y21612143D01*
X13989905Y21588333D01*
X14037524Y21564524D01*
X14132762Y21564524D01*
X14180381Y21540714D01*
X14204190Y21516905D01*
X14228000Y21469286D01*
X14228000Y21374048D01*
X14204190Y21326429D01*
X14180381Y21302619D01*
X14132762Y21278810D01*
X14037524Y21278810D01*
X13989905Y21302619D01*
X13966095Y21326429D01*
X13942286Y21374048D01*
X13942286Y21469286D01*
X13966095Y21516905D01*
X13989905Y21540714D01*
X14037524Y21564524D01*
X13847048Y21231190D02*
X13466096Y21231190D01*
X13085144Y21278810D02*
X13370858Y21278810D01*
X13228001Y21278810D02*
X13228001Y21778810D01*
X13275620Y21707381D01*
X13323239Y21659762D01*
X13370858Y21635952D01*
X12632763Y21778810D02*
X12870858Y21778810D01*
X12894668Y21540714D01*
X12870858Y21564524D01*
X12823239Y21588333D01*
X12704192Y21588333D01*
X12656573Y21564524D01*
X12632763Y21540714D01*
X12608954Y21493095D01*
X12608954Y21374048D01*
X12632763Y21326429D01*
X12656573Y21302619D01*
X12704192Y21278810D01*
X12823239Y21278810D01*
X12870858Y21302619D01*
X12894668Y21326429D01*
X20628664Y23628333D02*
X20652474Y23652143D01*
X20700093Y23723571D01*
X20723902Y23771190D01*
X20747712Y23842619D01*
X20771521Y23961667D01*
X20771521Y24056905D01*
X20747712Y24175952D01*
X20723902Y24247381D01*
X20700093Y24295000D01*
X20652474Y24366429D01*
X20628664Y24390238D01*
X20509617Y24318810D02*
X20223903Y24318810D01*
X20366760Y23818810D02*
X20366760Y24318810D01*
X19985808Y23818810D02*
X20033427Y23842619D01*
X20057236Y23866429D01*
X20081046Y23914048D01*
X20081046Y24056905D01*
X20057236Y24104524D01*
X20033427Y24128333D01*
X19985808Y24152143D01*
X19914379Y24152143D01*
X19866760Y24128333D01*
X19842951Y24104524D01*
X19819141Y24056905D01*
X19819141Y23914048D01*
X19842951Y23866429D01*
X19866760Y23842619D01*
X19914379Y23818810D01*
X19985808Y23818810D01*
X19604855Y24152143D02*
X19604855Y23652143D01*
X19604855Y24128333D02*
X19557236Y24152143D01*
X19461998Y24152143D01*
X19414379Y24128333D01*
X19390570Y24104524D01*
X19366760Y24056905D01*
X19366760Y23914048D01*
X19390570Y23866429D01*
X19414379Y23842619D01*
X19461998Y23818810D01*
X19557236Y23818810D01*
X19604855Y23842619D01*
X18485808Y23818810D02*
X18652475Y24056905D01*
X18771522Y23818810D02*
X18771522Y24318810D01*
X18581046Y24318810D01*
X18533427Y24295000D01*
X18509618Y24271190D01*
X18485808Y24223571D01*
X18485808Y24152143D01*
X18509618Y24104524D01*
X18533427Y24080714D01*
X18581046Y24056905D01*
X18771522Y24056905D01*
X18200094Y23818810D02*
X18247713Y23842619D01*
X18271522Y23866429D01*
X18295332Y23914048D01*
X18295332Y24056905D01*
X18271522Y24104524D01*
X18247713Y24128333D01*
X18200094Y24152143D01*
X18128665Y24152143D01*
X18081046Y24128333D01*
X18057237Y24104524D01*
X18033427Y24056905D01*
X18033427Y23914048D01*
X18057237Y23866429D01*
X18081046Y23842619D01*
X18128665Y23818810D01*
X18200094Y23818810D01*
X17866760Y24152143D02*
X17771522Y23818810D01*
X17676284Y24056905D01*
X17581046Y23818810D01*
X17485808Y24152143D01*
X17342950Y23628333D02*
X17319141Y23652143D01*
X17271522Y23723571D01*
X17247712Y23771190D01*
X17223903Y23842619D01*
X17200093Y23961667D01*
X17200093Y24056905D01*
X17223903Y24175952D01*
X17247712Y24247381D01*
X17271522Y24295000D01*
X17319141Y24366429D01*
X17342950Y24390238D01*
X16604856Y23842619D02*
X16533427Y23818810D01*
X16414380Y23818810D01*
X16366761Y23842619D01*
X16342951Y23866429D01*
X16319142Y23914048D01*
X16319142Y23961667D01*
X16342951Y24009286D01*
X16366761Y24033095D01*
X16414380Y24056905D01*
X16509618Y24080714D01*
X16557237Y24104524D01*
X16581046Y24128333D01*
X16604856Y24175952D01*
X16604856Y24223571D01*
X16581046Y24271190D01*
X16557237Y24295000D01*
X16509618Y24318810D01*
X16390570Y24318810D01*
X16319142Y24295000D01*
X16104856Y23818810D02*
X16104856Y24318810D01*
X15914380Y24318810D01*
X15866761Y24295000D01*
X15842952Y24271190D01*
X15819142Y24223571D01*
X15819142Y24152143D01*
X15842952Y24104524D01*
X15866761Y24080714D01*
X15914380Y24056905D01*
X16104856Y24056905D01*
X15604856Y23818810D02*
X15604856Y24318810D01*
X15485809Y23771190D02*
X15104857Y23771190D01*
X14700095Y23866429D02*
X14723905Y23842619D01*
X14795333Y23818810D01*
X14842952Y23818810D01*
X14914381Y23842619D01*
X14962000Y23890238D01*
X14985809Y23937857D01*
X15009619Y24033095D01*
X15009619Y24104524D01*
X14985809Y24199762D01*
X14962000Y24247381D01*
X14914381Y24295000D01*
X14842952Y24318810D01*
X14795333Y24318810D01*
X14723905Y24295000D01*
X14700095Y24271190D01*
X14509619Y23842619D02*
X14438190Y23818810D01*
X14319143Y23818810D01*
X14271524Y23842619D01*
X14247714Y23866429D01*
X14223905Y23914048D01*
X14223905Y23961667D01*
X14247714Y24009286D01*
X14271524Y24033095D01*
X14319143Y24056905D01*
X14414381Y24080714D01*
X14462000Y24104524D01*
X14485809Y24128333D01*
X14509619Y24175952D01*
X14509619Y24223571D01*
X14485809Y24271190D01*
X14462000Y24295000D01*
X14414381Y24318810D01*
X14295333Y24318810D01*
X14223905Y24295000D01*
X14128667Y23771190D02*
X13747715Y23771190D01*
X13533429Y24318810D02*
X13485810Y24318810D01*
X13438191Y24295000D01*
X13414382Y24271190D01*
X13390572Y24223571D01*
X13366763Y24128333D01*
X13366763Y24009286D01*
X13390572Y23914048D01*
X13414382Y23866429D01*
X13438191Y23842619D01*
X13485810Y23818810D01*
X13533429Y23818810D01*
X13581048Y23842619D01*
X13604858Y23866429D01*
X13628667Y23914048D01*
X13652477Y24009286D01*
X13652477Y24128333D01*
X13628667Y24223571D01*
X13604858Y24271190D01*
X13581048Y24295000D01*
X13533429Y24318810D01*
X13271525Y23771190D02*
X12890573Y23771190D01*
X12819144Y24318810D02*
X12485811Y24318810D01*
X12700097Y23818810D01*
X14667999Y26549286D02*
X14287047Y26549286D01*
X14477523Y26358810D02*
X14477523Y26739762D01*
X14096570Y26858810D02*
X13787047Y26858810D01*
X13953713Y26668333D01*
X13882285Y26668333D01*
X13834666Y26644524D01*
X13810856Y26620714D01*
X13787047Y26573095D01*
X13787047Y26454048D01*
X13810856Y26406429D01*
X13834666Y26382619D01*
X13882285Y26358810D01*
X14025142Y26358810D01*
X14072761Y26382619D01*
X14096570Y26406429D01*
X13572761Y26406429D02*
X13548952Y26382619D01*
X13572761Y26358810D01*
X13596571Y26382619D01*
X13572761Y26406429D01*
X13572761Y26358810D01*
X13382285Y26858810D02*
X13072762Y26858810D01*
X13239428Y26668333D01*
X13168000Y26668333D01*
X13120381Y26644524D01*
X13096571Y26620714D01*
X13072762Y26573095D01*
X13072762Y26454048D01*
X13096571Y26406429D01*
X13120381Y26382619D01*
X13168000Y26358810D01*
X13310857Y26358810D01*
X13358476Y26382619D01*
X13382285Y26406429D01*
X12929905Y26858810D02*
X12763238Y26358810D01*
X12596572Y26858810D01*
X16743522Y28708333D02*
X16767332Y28732143D01*
X16814951Y28803571D01*
X16838760Y28851190D01*
X16862570Y28922619D01*
X16886379Y29041667D01*
X16886379Y29136905D01*
X16862570Y29255952D01*
X16838760Y29327381D01*
X16814951Y29375000D01*
X16767332Y29446429D01*
X16743522Y29470238D01*
X16624475Y29398810D02*
X16457808Y28898810D01*
X16291142Y29398810D01*
X16053047Y28898810D02*
X16100666Y28922619D01*
X16124475Y28946429D01*
X16148285Y28994048D01*
X16148285Y29136905D01*
X16124475Y29184524D01*
X16100666Y29208333D01*
X16053047Y29232143D01*
X15981618Y29232143D01*
X15933999Y29208333D01*
X15910190Y29184524D01*
X15886380Y29136905D01*
X15886380Y28994048D01*
X15910190Y28946429D01*
X15933999Y28922619D01*
X15981618Y28898810D01*
X16053047Y28898810D01*
X15600666Y28898810D02*
X15648285Y28922619D01*
X15672094Y28970238D01*
X15672094Y29398810D01*
X15195904Y29232143D02*
X15195904Y28898810D01*
X15410189Y29232143D02*
X15410189Y28970238D01*
X15386380Y28922619D01*
X15338761Y28898810D01*
X15267332Y28898810D01*
X15219713Y28922619D01*
X15195904Y28946429D01*
X14957808Y28898810D02*
X14957808Y29232143D01*
X14957808Y29184524D02*
X14933999Y29208333D01*
X14886380Y29232143D01*
X14814951Y29232143D01*
X14767332Y29208333D01*
X14743523Y29160714D01*
X14743523Y28898810D01*
X14743523Y29160714D02*
X14719713Y29208333D01*
X14672094Y29232143D01*
X14600666Y29232143D01*
X14553046Y29208333D01*
X14529237Y29160714D01*
X14529237Y28898810D01*
X14100665Y28922619D02*
X14148284Y28898810D01*
X14243522Y28898810D01*
X14291141Y28922619D01*
X14314951Y28970238D01*
X14314951Y29160714D01*
X14291141Y29208333D01*
X14243522Y29232143D01*
X14148284Y29232143D01*
X14100665Y29208333D01*
X14076856Y29160714D01*
X14076856Y29113095D01*
X14314951Y29065476D01*
X13910189Y28708333D02*
X13886380Y28732143D01*
X13838761Y28803571D01*
X13814951Y28851190D01*
X13791142Y28922619D01*
X13767332Y29041667D01*
X13767332Y29136905D01*
X13791142Y29255952D01*
X13814951Y29327381D01*
X13838761Y29375000D01*
X13886380Y29446429D01*
X13910189Y29470238D01*
X13172095Y29041667D02*
X12934000Y29041667D01*
X13219714Y28898810D02*
X13053047Y29398810D01*
X12886381Y28898810D01*
X12624476Y29398810D02*
X12576857Y29398810D01*
X12529238Y29375000D01*
X12505429Y29351190D01*
X12481619Y29303571D01*
X12457810Y29208333D01*
X12457810Y29089286D01*
X12481619Y28994048D01*
X12505429Y28946429D01*
X12529238Y28922619D01*
X12576857Y28898810D01*
X12624476Y28898810D01*
X12672095Y28922619D01*
X12695905Y28946429D01*
X12719714Y28994048D01*
X12743524Y29089286D01*
X12743524Y29208333D01*
X12719714Y29303571D01*
X12695905Y29351190D01*
X12672095Y29375000D01*
X12624476Y29398810D01*
M02*
