G04 #@! TF.FileFunction,Legend,Top*
%FSLAX46Y46*%
G04 Gerber Fmt 4.6, Leading zero omitted, Abs format (unit mm)*
G04 Created by KiCad (PCBNEW 4.0.4-stable) date 07/11/17 15:37:42*
%MOMM*%
%LPD*%
G01*
G04 APERTURE LIST*
%ADD10C,0.100000*%
%ADD11C,0.125000*%
%ADD12C,0.287500*%
%ADD13C,0.200000*%
%ADD14C,0.187500*%
%ADD15C,0.300000*%
%ADD16C,0.120000*%
%ADD17C,0.150000*%
G04 APERTURE END LIST*
D10*
D11*
X5619429Y3522619D02*
X5690858Y3498810D01*
X5809905Y3498810D01*
X5857524Y3522619D01*
X5881334Y3546429D01*
X5905143Y3594048D01*
X5905143Y3641667D01*
X5881334Y3689286D01*
X5857524Y3713095D01*
X5809905Y3736905D01*
X5714667Y3760714D01*
X5667048Y3784524D01*
X5643239Y3808333D01*
X5619429Y3855952D01*
X5619429Y3903571D01*
X5643239Y3951190D01*
X5667048Y3975000D01*
X5714667Y3998810D01*
X5833715Y3998810D01*
X5905143Y3975000D01*
X6071810Y3998810D02*
X6190857Y3498810D01*
X6286095Y3855952D01*
X6381333Y3498810D01*
X6500381Y3998810D01*
X4389144Y7046810D02*
X4389144Y6689667D01*
X4365334Y6618238D01*
X4317715Y6570619D01*
X4246287Y6546810D01*
X4198668Y6546810D01*
X4722477Y7046810D02*
X4817715Y7046810D01*
X4865334Y7023000D01*
X4912953Y6975381D01*
X4936762Y6880143D01*
X4936762Y6713476D01*
X4912953Y6618238D01*
X4865334Y6570619D01*
X4817715Y6546810D01*
X4722477Y6546810D01*
X4674858Y6570619D01*
X4627239Y6618238D01*
X4603429Y6713476D01*
X4603429Y6880143D01*
X4627239Y6975381D01*
X4674858Y7023000D01*
X4722477Y7046810D01*
X5246287Y6784905D02*
X5246287Y6546810D01*
X5079620Y7046810D02*
X5246287Y6784905D01*
X5412953Y7046810D01*
X5841524Y6546810D02*
X5555810Y6546810D01*
X5698667Y6546810D02*
X5698667Y7046810D01*
X5651048Y6975381D01*
X5603429Y6927762D01*
X5555810Y6903952D01*
X4389144Y9078810D02*
X4389144Y8721667D01*
X4365334Y8650238D01*
X4317715Y8602619D01*
X4246287Y8578810D01*
X4198668Y8578810D01*
X4722477Y9078810D02*
X4817715Y9078810D01*
X4865334Y9055000D01*
X4912953Y9007381D01*
X4936762Y8912143D01*
X4936762Y8745476D01*
X4912953Y8650238D01*
X4865334Y8602619D01*
X4817715Y8578810D01*
X4722477Y8578810D01*
X4674858Y8602619D01*
X4627239Y8650238D01*
X4603429Y8745476D01*
X4603429Y8912143D01*
X4627239Y9007381D01*
X4674858Y9055000D01*
X4722477Y9078810D01*
X5246287Y8816905D02*
X5246287Y8578810D01*
X5079620Y9078810D02*
X5246287Y8816905D01*
X5412953Y9078810D01*
X5674858Y9078810D02*
X5722477Y9078810D01*
X5770096Y9055000D01*
X5793905Y9031190D01*
X5817715Y8983571D01*
X5841524Y8888333D01*
X5841524Y8769286D01*
X5817715Y8674048D01*
X5793905Y8626429D01*
X5770096Y8602619D01*
X5722477Y8578810D01*
X5674858Y8578810D01*
X5627239Y8602619D01*
X5603429Y8626429D01*
X5579620Y8674048D01*
X5555810Y8769286D01*
X5555810Y8888333D01*
X5579620Y8983571D01*
X5603429Y9031190D01*
X5627239Y9055000D01*
X5674858Y9078810D01*
D12*
X163540238Y18578096D02*
X162390238Y18578096D01*
X162390238Y19016191D01*
X162445000Y19125715D01*
X162499762Y19180476D01*
X162609286Y19235238D01*
X162773571Y19235238D01*
X162883095Y19180476D01*
X162937857Y19125715D01*
X162992619Y19016191D01*
X162992619Y18578096D01*
X163485476Y19673334D02*
X163540238Y19837619D01*
X163540238Y20111429D01*
X163485476Y20220953D01*
X163430714Y20275715D01*
X163321190Y20330476D01*
X163211667Y20330476D01*
X163102143Y20275715D01*
X163047381Y20220953D01*
X162992619Y20111429D01*
X162937857Y19892381D01*
X162883095Y19782857D01*
X162828333Y19728096D01*
X162718810Y19673334D01*
X162609286Y19673334D01*
X162499762Y19728096D01*
X162445000Y19782857D01*
X162390238Y19892381D01*
X162390238Y20166191D01*
X162445000Y20330476D01*
X162773571Y21316191D02*
X163540238Y21316191D01*
X162335476Y21042381D02*
X163156905Y20768572D01*
X163156905Y21480476D01*
X162390238Y22466191D02*
X162390238Y21918572D01*
X162937857Y21863810D01*
X162883095Y21918572D01*
X162828333Y22028095D01*
X162828333Y22301905D01*
X162883095Y22411429D01*
X162937857Y22466191D01*
X163047381Y22520952D01*
X163321190Y22520952D01*
X163430714Y22466191D01*
X163485476Y22411429D01*
X163540238Y22301905D01*
X163540238Y22028095D01*
X163485476Y21918572D01*
X163430714Y21863810D01*
X163540238Y23013810D02*
X162390238Y23013810D01*
X163211667Y23397143D01*
X162390238Y23780476D01*
X163540238Y23780476D01*
X163102143Y24328096D02*
X163102143Y25204286D01*
X162390238Y25970953D02*
X162390238Y26080477D01*
X162445000Y26190001D01*
X162499762Y26244763D01*
X162609286Y26299525D01*
X162828333Y26354286D01*
X163102143Y26354286D01*
X163321190Y26299525D01*
X163430714Y26244763D01*
X163485476Y26190001D01*
X163540238Y26080477D01*
X163540238Y25970953D01*
X163485476Y25861429D01*
X163430714Y25806667D01*
X163321190Y25751906D01*
X163102143Y25697144D01*
X162828333Y25697144D01*
X162609286Y25751906D01*
X162499762Y25806667D01*
X162445000Y25861429D01*
X162390238Y25970953D01*
X163540238Y26847144D02*
X162390238Y26847144D01*
X163211667Y27230477D01*
X162390238Y27613810D01*
X163540238Y27613810D01*
X163430714Y28818572D02*
X163485476Y28763810D01*
X163540238Y28599525D01*
X163540238Y28490001D01*
X163485476Y28325715D01*
X163375952Y28216191D01*
X163266429Y28161430D01*
X163047381Y28106668D01*
X162883095Y28106668D01*
X162664048Y28161430D01*
X162554524Y28216191D01*
X162445000Y28325715D01*
X162390238Y28490001D01*
X162390238Y28599525D01*
X162445000Y28763810D01*
X162499762Y28818572D01*
X162499762Y29256668D02*
X162445000Y29311430D01*
X162390238Y29420953D01*
X162390238Y29694763D01*
X162445000Y29804287D01*
X162499762Y29859049D01*
X162609286Y29913810D01*
X162718810Y29913810D01*
X162883095Y29859049D01*
X163540238Y29201906D01*
X163540238Y29913810D01*
X162937857Y30790001D02*
X162992619Y30954287D01*
X163047381Y31009048D01*
X163156905Y31063810D01*
X163321190Y31063810D01*
X163430714Y31009048D01*
X163485476Y30954287D01*
X163540238Y30844763D01*
X163540238Y30406668D01*
X162390238Y30406668D01*
X162390238Y30790001D01*
X162445000Y30899525D01*
X162499762Y30954287D01*
X162609286Y31009048D01*
X162718810Y31009048D01*
X162828333Y30954287D01*
X162883095Y30899525D01*
X162937857Y30790001D01*
X162937857Y30406668D01*
X163540238Y32213810D02*
X162992619Y31830477D01*
X163540238Y31556668D02*
X162390238Y31556668D01*
X162390238Y31994763D01*
X162445000Y32104287D01*
X162499762Y32159048D01*
X162609286Y32213810D01*
X162773571Y32213810D01*
X162883095Y32159048D01*
X162937857Y32104287D01*
X162992619Y31994763D01*
X162992619Y31556668D01*
X163540238Y33309048D02*
X163540238Y32651906D01*
X163540238Y32980477D02*
X162390238Y32980477D01*
X162554524Y32870953D01*
X162664048Y32761429D01*
X162718810Y32651906D01*
X162390238Y34020953D02*
X162390238Y34130477D01*
X162445000Y34240001D01*
X162499762Y34294763D01*
X162609286Y34349525D01*
X162828333Y34404286D01*
X163102143Y34404286D01*
X163321190Y34349525D01*
X163430714Y34294763D01*
X163485476Y34240001D01*
X163540238Y34130477D01*
X163540238Y34020953D01*
X163485476Y33911429D01*
X163430714Y33856667D01*
X163321190Y33801906D01*
X163102143Y33747144D01*
X162828333Y33747144D01*
X162609286Y33801906D01*
X162499762Y33856667D01*
X162445000Y33911429D01*
X162390238Y34020953D01*
X163540238Y34897144D02*
X162390238Y34897144D01*
X163540238Y35554286D02*
X162883095Y35061429D01*
X162390238Y35554286D02*
X163047381Y34897144D01*
X163540238Y36813810D02*
X162773571Y37416191D01*
X162773571Y36813810D02*
X163540238Y37416191D01*
X162883095Y38018571D02*
X162828333Y37909047D01*
X162773571Y37854286D01*
X162664048Y37799524D01*
X162609286Y37799524D01*
X162499762Y37854286D01*
X162445000Y37909047D01*
X162390238Y38018571D01*
X162390238Y38237619D01*
X162445000Y38347143D01*
X162499762Y38401905D01*
X162609286Y38456666D01*
X162664048Y38456666D01*
X162773571Y38401905D01*
X162828333Y38347143D01*
X162883095Y38237619D01*
X162883095Y38018571D01*
X162937857Y37909047D01*
X162992619Y37854286D01*
X163102143Y37799524D01*
X163321190Y37799524D01*
X163430714Y37854286D01*
X163485476Y37909047D01*
X163540238Y38018571D01*
X163540238Y38237619D01*
X163485476Y38347143D01*
X163430714Y38401905D01*
X163321190Y38456666D01*
X163102143Y38456666D01*
X162992619Y38401905D01*
X162937857Y38347143D01*
X162883095Y38237619D01*
D13*
X11890000Y4995000D02*
X6810000Y4995000D01*
X11890000Y7535000D02*
X6810000Y7535000D01*
D14*
X16502570Y17272286D02*
X16538284Y17308000D01*
X16609713Y17343714D01*
X16788284Y17343714D01*
X16859713Y17308000D01*
X16895427Y17272286D01*
X16931142Y17200857D01*
X16931142Y17129429D01*
X16895427Y17022286D01*
X16466856Y16593714D01*
X16931142Y16593714D01*
X17609713Y17343714D02*
X17252570Y17343714D01*
X17216856Y16986571D01*
X17252570Y17022286D01*
X17323999Y17058000D01*
X17502570Y17058000D01*
X17573999Y17022286D01*
X17609713Y16986571D01*
X17645428Y16915143D01*
X17645428Y16736571D01*
X17609713Y16665143D01*
X17573999Y16629429D01*
X17502570Y16593714D01*
X17323999Y16593714D01*
X17252570Y16629429D01*
X17216856Y16665143D01*
X18288285Y17093714D02*
X18288285Y16593714D01*
X18109714Y17379429D02*
X17931142Y16843714D01*
X18395428Y16843714D01*
X18574000Y17343714D02*
X19002571Y17343714D01*
X18788285Y16593714D02*
X18788285Y17343714D01*
X19216857Y16808000D02*
X19574000Y16808000D01*
X19145429Y16593714D02*
X19395429Y17343714D01*
X19645429Y16593714D01*
X20288286Y16593714D02*
X19859714Y16593714D01*
X20074000Y16593714D02*
X20074000Y17343714D01*
X20002571Y17236571D01*
X19931143Y17165143D01*
X19859714Y17129429D01*
X20752572Y17343714D02*
X20824000Y17343714D01*
X20895429Y17308000D01*
X20931143Y17272286D01*
X20966857Y17200857D01*
X21002572Y17058000D01*
X21002572Y16879429D01*
X20966857Y16736571D01*
X20931143Y16665143D01*
X20895429Y16629429D01*
X20824000Y16593714D01*
X20752572Y16593714D01*
X20681143Y16629429D01*
X20645429Y16665143D01*
X20609714Y16736571D01*
X20574000Y16879429D01*
X20574000Y17058000D01*
X20609714Y17200857D01*
X20645429Y17272286D01*
X20681143Y17308000D01*
X20752572Y17343714D01*
X21252572Y17343714D02*
X21716858Y17343714D01*
X21466858Y17058000D01*
X21574000Y17058000D01*
X21645429Y17022286D01*
X21681143Y16986571D01*
X21716858Y16915143D01*
X21716858Y16736571D01*
X21681143Y16665143D01*
X21645429Y16629429D01*
X21574000Y16593714D01*
X21359715Y16593714D01*
X21288286Y16629429D01*
X21252572Y16665143D01*
X22288286Y16986571D02*
X22395429Y16950857D01*
X22431144Y16915143D01*
X22466858Y16843714D01*
X22466858Y16736571D01*
X22431144Y16665143D01*
X22395429Y16629429D01*
X22324001Y16593714D01*
X22038286Y16593714D01*
X22038286Y17343714D01*
X22288286Y17343714D01*
X22359715Y17308000D01*
X22395429Y17272286D01*
X22431144Y17200857D01*
X22431144Y17129429D01*
X22395429Y17058000D01*
X22359715Y17022286D01*
X22288286Y16986571D01*
X22038286Y16986571D01*
X23145429Y17343714D02*
X22788286Y17343714D01*
X22752572Y16986571D01*
X22788286Y17022286D01*
X22859715Y17058000D01*
X23038286Y17058000D01*
X23109715Y17022286D01*
X23145429Y16986571D01*
X23181144Y16915143D01*
X23181144Y16736571D01*
X23145429Y16665143D01*
X23109715Y16629429D01*
X23038286Y16593714D01*
X22859715Y16593714D01*
X22788286Y16629429D01*
X22752572Y16665143D01*
X23645430Y17343714D02*
X23716858Y17343714D01*
X23788287Y17308000D01*
X23824001Y17272286D01*
X23859715Y17200857D01*
X23895430Y17058000D01*
X23895430Y16879429D01*
X23859715Y16736571D01*
X23824001Y16665143D01*
X23788287Y16629429D01*
X23716858Y16593714D01*
X23645430Y16593714D01*
X23574001Y16629429D01*
X23538287Y16665143D01*
X23502572Y16736571D01*
X23466858Y16879429D01*
X23466858Y17058000D01*
X23502572Y17200857D01*
X23538287Y17272286D01*
X23574001Y17308000D01*
X23645430Y17343714D01*
X24466858Y16986571D02*
X24574001Y16950857D01*
X24609716Y16915143D01*
X24645430Y16843714D01*
X24645430Y16736571D01*
X24609716Y16665143D01*
X24574001Y16629429D01*
X24502573Y16593714D01*
X24216858Y16593714D01*
X24216858Y17343714D01*
X24466858Y17343714D01*
X24538287Y17308000D01*
X24574001Y17272286D01*
X24609716Y17200857D01*
X24609716Y17129429D01*
X24574001Y17058000D01*
X24538287Y17022286D01*
X24466858Y16986571D01*
X24216858Y16986571D01*
X14466857Y30140714D02*
X14216857Y30497857D01*
X14038285Y30140714D02*
X14038285Y30890714D01*
X14324000Y30890714D01*
X14395428Y30855000D01*
X14431143Y30819286D01*
X14466857Y30747857D01*
X14466857Y30640714D01*
X14431143Y30569286D01*
X14395428Y30533571D01*
X14324000Y30497857D01*
X14038285Y30497857D01*
X14681143Y30890714D02*
X14931143Y30140714D01*
X15181143Y30890714D01*
X15574000Y30890714D02*
X15645428Y30890714D01*
X15716857Y30855000D01*
X15752571Y30819286D01*
X15788285Y30747857D01*
X15824000Y30605000D01*
X15824000Y30426429D01*
X15788285Y30283571D01*
X15752571Y30212143D01*
X15716857Y30176429D01*
X15645428Y30140714D01*
X15574000Y30140714D01*
X15502571Y30176429D01*
X15466857Y30212143D01*
X15431142Y30283571D01*
X15395428Y30426429D01*
X15395428Y30605000D01*
X15431142Y30747857D01*
X15466857Y30819286D01*
X15502571Y30855000D01*
X15574000Y30890714D01*
X16181143Y30140714D02*
X16324000Y30140714D01*
X16395428Y30176429D01*
X16431143Y30212143D01*
X16502571Y30319286D01*
X16538286Y30462143D01*
X16538286Y30747857D01*
X16502571Y30819286D01*
X16466857Y30855000D01*
X16395428Y30890714D01*
X16252571Y30890714D01*
X16181143Y30855000D01*
X16145428Y30819286D01*
X16109714Y30747857D01*
X16109714Y30569286D01*
X16145428Y30497857D01*
X16181143Y30462143D01*
X16252571Y30426429D01*
X16395428Y30426429D01*
X16466857Y30462143D01*
X16502571Y30497857D01*
X16538286Y30569286D01*
X16824000Y30355000D02*
X17181143Y30355000D01*
X16752572Y30140714D02*
X17002572Y30890714D01*
X17252572Y30140714D01*
X17752571Y30533571D02*
X17502571Y30533571D01*
X17502571Y30140714D02*
X17502571Y30890714D01*
X17859714Y30890714D01*
X18145428Y30426429D02*
X18716857Y30426429D01*
X19395428Y30640714D02*
X19395428Y30140714D01*
X19216857Y30926429D02*
X19038285Y30390714D01*
X19502571Y30390714D01*
X19931143Y30890714D02*
X20002571Y30890714D01*
X20074000Y30855000D01*
X20109714Y30819286D01*
X20145428Y30747857D01*
X20181143Y30605000D01*
X20181143Y30426429D01*
X20145428Y30283571D01*
X20109714Y30212143D01*
X20074000Y30176429D01*
X20002571Y30140714D01*
X19931143Y30140714D01*
X19859714Y30176429D01*
X19824000Y30212143D01*
X19788285Y30283571D01*
X19752571Y30426429D01*
X19752571Y30605000D01*
X19788285Y30747857D01*
X19824000Y30819286D01*
X19859714Y30855000D01*
X19931143Y30890714D01*
X20502571Y30426429D02*
X21074000Y30426429D01*
X21395428Y30819286D02*
X21431142Y30855000D01*
X21502571Y30890714D01*
X21681142Y30890714D01*
X21752571Y30855000D01*
X21788285Y30819286D01*
X21824000Y30747857D01*
X21824000Y30676429D01*
X21788285Y30569286D01*
X21359714Y30140714D01*
X21824000Y30140714D01*
X22288286Y30890714D02*
X22359714Y30890714D01*
X22431143Y30855000D01*
X22466857Y30819286D01*
X22502571Y30747857D01*
X22538286Y30605000D01*
X22538286Y30426429D01*
X22502571Y30283571D01*
X22466857Y30212143D01*
X22431143Y30176429D01*
X22359714Y30140714D01*
X22288286Y30140714D01*
X22216857Y30176429D01*
X22181143Y30212143D01*
X22145428Y30283571D01*
X22109714Y30426429D01*
X22109714Y30605000D01*
X22145428Y30747857D01*
X22181143Y30819286D01*
X22216857Y30855000D01*
X22288286Y30890714D01*
X22859714Y30140714D02*
X22859714Y30890714D01*
X23288286Y30140714D02*
X22966857Y30569286D01*
X23288286Y30890714D02*
X22859714Y30462143D01*
X23609714Y30426429D02*
X24181143Y30426429D01*
X24788285Y30533571D02*
X24895428Y30497857D01*
X24931143Y30462143D01*
X24966857Y30390714D01*
X24966857Y30283571D01*
X24931143Y30212143D01*
X24895428Y30176429D01*
X24824000Y30140714D01*
X24538285Y30140714D01*
X24538285Y30890714D01*
X24788285Y30890714D01*
X24859714Y30855000D01*
X24895428Y30819286D01*
X24931143Y30747857D01*
X24931143Y30676429D01*
X24895428Y30605000D01*
X24859714Y30569286D01*
X24788285Y30533571D01*
X24538285Y30533571D01*
X25681143Y30140714D02*
X25252571Y30140714D01*
X25466857Y30140714D02*
X25466857Y30890714D01*
X25395428Y30783571D01*
X25324000Y30712143D01*
X25252571Y30676429D01*
X26145429Y30890714D02*
X26216857Y30890714D01*
X26288286Y30855000D01*
X26324000Y30819286D01*
X26359714Y30747857D01*
X26395429Y30605000D01*
X26395429Y30426429D01*
X26359714Y30283571D01*
X26324000Y30212143D01*
X26288286Y30176429D01*
X26216857Y30140714D01*
X26145429Y30140714D01*
X26074000Y30176429D01*
X26038286Y30212143D01*
X26002571Y30283571D01*
X25966857Y30426429D01*
X25966857Y30605000D01*
X26002571Y30747857D01*
X26038286Y30819286D01*
X26074000Y30855000D01*
X26145429Y30890714D01*
X26716857Y30140714D02*
X26716857Y30890714D01*
X27145429Y30140714D02*
X26824000Y30569286D01*
X27145429Y30890714D02*
X26716857Y30462143D01*
D13*
X18107238Y35367095D02*
X18107238Y36167095D01*
X18373905Y35595667D01*
X18640572Y36167095D01*
X18640572Y35367095D01*
X19478667Y35443286D02*
X19440572Y35405190D01*
X19326286Y35367095D01*
X19250096Y35367095D01*
X19135810Y35405190D01*
X19059619Y35481381D01*
X19021524Y35557571D01*
X18983429Y35709952D01*
X18983429Y35824238D01*
X19021524Y35976619D01*
X19059619Y36052810D01*
X19135810Y36129000D01*
X19250096Y36167095D01*
X19326286Y36167095D01*
X19440572Y36129000D01*
X19478667Y36090905D01*
X19821524Y35367095D02*
X19821524Y36167095D01*
X20126286Y36167095D01*
X20202477Y36129000D01*
X20240572Y36090905D01*
X20278667Y36014714D01*
X20278667Y35900429D01*
X20240572Y35824238D01*
X20202477Y35786143D01*
X20126286Y35748048D01*
X19821524Y35748048D01*
X20545334Y36167095D02*
X21040572Y36167095D01*
X20773905Y35862333D01*
X20888191Y35862333D01*
X20964381Y35824238D01*
X21002477Y35786143D01*
X21040572Y35709952D01*
X21040572Y35519476D01*
X21002477Y35443286D01*
X20964381Y35405190D01*
X20888191Y35367095D01*
X20659619Y35367095D01*
X20583429Y35405190D01*
X20545334Y35443286D01*
X21535810Y36167095D02*
X21612001Y36167095D01*
X21688191Y36129000D01*
X21726286Y36090905D01*
X21764382Y36014714D01*
X21802477Y35862333D01*
X21802477Y35671857D01*
X21764382Y35519476D01*
X21726286Y35443286D01*
X21688191Y35405190D01*
X21612001Y35367095D01*
X21535810Y35367095D01*
X21459620Y35405190D01*
X21421524Y35443286D01*
X21383429Y35519476D01*
X21345334Y35671857D01*
X21345334Y35862333D01*
X21383429Y36014714D01*
X21421524Y36090905D01*
X21459620Y36129000D01*
X21535810Y36167095D01*
X22297715Y36167095D02*
X22373906Y36167095D01*
X22450096Y36129000D01*
X22488191Y36090905D01*
X22526287Y36014714D01*
X22564382Y35862333D01*
X22564382Y35671857D01*
X22526287Y35519476D01*
X22488191Y35443286D01*
X22450096Y35405190D01*
X22373906Y35367095D01*
X22297715Y35367095D01*
X22221525Y35405190D01*
X22183429Y35443286D01*
X22145334Y35519476D01*
X22107239Y35671857D01*
X22107239Y35862333D01*
X22145334Y36014714D01*
X22183429Y36090905D01*
X22221525Y36129000D01*
X22297715Y36167095D01*
X23021525Y35824238D02*
X22945334Y35862333D01*
X22907239Y35900429D01*
X22869144Y35976619D01*
X22869144Y36014714D01*
X22907239Y36090905D01*
X22945334Y36129000D01*
X23021525Y36167095D01*
X23173906Y36167095D01*
X23250096Y36129000D01*
X23288192Y36090905D01*
X23326287Y36014714D01*
X23326287Y35976619D01*
X23288192Y35900429D01*
X23250096Y35862333D01*
X23173906Y35824238D01*
X23021525Y35824238D01*
X22945334Y35786143D01*
X22907239Y35748048D01*
X22869144Y35671857D01*
X22869144Y35519476D01*
X22907239Y35443286D01*
X22945334Y35405190D01*
X23021525Y35367095D01*
X23173906Y35367095D01*
X23250096Y35405190D01*
X23288192Y35443286D01*
X23326287Y35519476D01*
X23326287Y35671857D01*
X23288192Y35748048D01*
X23250096Y35786143D01*
X23173906Y35824238D01*
X23554858Y36167095D02*
X24012001Y36167095D01*
X23783430Y35367095D02*
X23783430Y36167095D01*
X24278668Y35671857D02*
X24888192Y35671857D01*
X25269144Y35367095D02*
X25269144Y36167095D01*
X26221525Y36205190D02*
X25535810Y35176619D01*
X26450096Y35405190D02*
X26564382Y35367095D01*
X26754858Y35367095D01*
X26831048Y35405190D01*
X26869144Y35443286D01*
X26907239Y35519476D01*
X26907239Y35595667D01*
X26869144Y35671857D01*
X26831048Y35709952D01*
X26754858Y35748048D01*
X26602477Y35786143D01*
X26526286Y35824238D01*
X26488191Y35862333D01*
X26450096Y35938524D01*
X26450096Y36014714D01*
X26488191Y36090905D01*
X26526286Y36129000D01*
X26602477Y36167095D01*
X26792953Y36167095D01*
X26907239Y36129000D01*
X27631049Y35367095D02*
X27250096Y35367095D01*
X27250096Y36167095D01*
D12*
X168520238Y27580954D02*
X167370238Y27580954D01*
X167808333Y27580954D02*
X167753571Y27690477D01*
X167753571Y27909525D01*
X167808333Y28019049D01*
X167863095Y28073811D01*
X167972619Y28128573D01*
X168301190Y28128573D01*
X168410714Y28073811D01*
X168465476Y28019049D01*
X168520238Y27909525D01*
X168520238Y27690477D01*
X168465476Y27580954D01*
X168465476Y29059525D02*
X168520238Y28950001D01*
X168520238Y28730953D01*
X168465476Y28621430D01*
X168355952Y28566668D01*
X167917857Y28566668D01*
X167808333Y28621430D01*
X167753571Y28730953D01*
X167753571Y28950001D01*
X167808333Y29059525D01*
X167917857Y29114287D01*
X168027381Y29114287D01*
X168136905Y28566668D01*
X168520238Y29771429D02*
X168465476Y29661905D01*
X168355952Y29607144D01*
X167370238Y29607144D01*
X168520238Y30209525D02*
X167753571Y30209525D01*
X167370238Y30209525D02*
X167425000Y30154763D01*
X167479762Y30209525D01*
X167425000Y30264286D01*
X167370238Y30209525D01*
X167479762Y30209525D01*
X168465476Y31195239D02*
X168520238Y31085715D01*
X168520238Y30866667D01*
X168465476Y30757144D01*
X168355952Y30702382D01*
X167917857Y30702382D01*
X167808333Y30757144D01*
X167753571Y30866667D01*
X167753571Y31085715D01*
X167808333Y31195239D01*
X167917857Y31250001D01*
X168027381Y31250001D01*
X168136905Y30702382D01*
X167753571Y31633334D02*
X168520238Y31907143D01*
X167753571Y32180953D01*
X168520238Y32783333D02*
X168465476Y32673809D01*
X168410714Y32619048D01*
X168301190Y32564286D01*
X167972619Y32564286D01*
X167863095Y32619048D01*
X167808333Y32673809D01*
X167753571Y32783333D01*
X167753571Y32947619D01*
X167808333Y33057143D01*
X167863095Y33111905D01*
X167972619Y33166667D01*
X168301190Y33166667D01*
X168410714Y33111905D01*
X168465476Y33057143D01*
X168520238Y32947619D01*
X168520238Y32783333D01*
X167753571Y33495238D02*
X167753571Y33933333D01*
X167370238Y33659524D02*
X168355952Y33659524D01*
X168465476Y33714285D01*
X168520238Y33823809D01*
X168520238Y33933333D01*
X168520238Y34316667D02*
X167753571Y34316667D01*
X167972619Y34316667D02*
X167863095Y34371428D01*
X167808333Y34426190D01*
X167753571Y34535714D01*
X167753571Y34645238D01*
X168520238Y35192857D02*
X168465476Y35083333D01*
X168410714Y35028572D01*
X168301190Y34973810D01*
X167972619Y34973810D01*
X167863095Y35028572D01*
X167808333Y35083333D01*
X167753571Y35192857D01*
X167753571Y35357143D01*
X167808333Y35466667D01*
X167863095Y35521429D01*
X167972619Y35576191D01*
X168301190Y35576191D01*
X168410714Y35521429D01*
X168465476Y35466667D01*
X168520238Y35357143D01*
X168520238Y35192857D01*
X167753571Y36069048D02*
X168520238Y36069048D01*
X167863095Y36069048D02*
X167808333Y36123809D01*
X167753571Y36233333D01*
X167753571Y36397619D01*
X167808333Y36507143D01*
X167917857Y36561905D01*
X168520238Y36561905D01*
X168410714Y37109524D02*
X168465476Y37164285D01*
X168520238Y37109524D01*
X168465476Y37054762D01*
X168410714Y37109524D01*
X168520238Y37109524D01*
X168465476Y38150000D02*
X168520238Y38040476D01*
X168520238Y37821428D01*
X168465476Y37711904D01*
X168410714Y37657143D01*
X168301190Y37602381D01*
X167972619Y37602381D01*
X167863095Y37657143D01*
X167808333Y37711904D01*
X167753571Y37821428D01*
X167753571Y38040476D01*
X167808333Y38150000D01*
X168520238Y38807142D02*
X168465476Y38697618D01*
X168410714Y38642857D01*
X168301190Y38588095D01*
X167972619Y38588095D01*
X167863095Y38642857D01*
X167808333Y38697618D01*
X167753571Y38807142D01*
X167753571Y38971428D01*
X167808333Y39080952D01*
X167863095Y39135714D01*
X167972619Y39190476D01*
X168301190Y39190476D01*
X168410714Y39135714D01*
X168465476Y39080952D01*
X168520238Y38971428D01*
X168520238Y38807142D01*
X168520238Y39683333D02*
X167753571Y39683333D01*
X167863095Y39683333D02*
X167808333Y39738094D01*
X167753571Y39847618D01*
X167753571Y40011904D01*
X167808333Y40121428D01*
X167917857Y40176190D01*
X168520238Y40176190D01*
X167917857Y40176190D02*
X167808333Y40230952D01*
X167753571Y40340475D01*
X167753571Y40504761D01*
X167808333Y40614285D01*
X167917857Y40669047D01*
X168520238Y40669047D01*
D15*
X64638571Y16851429D02*
X63138571Y16851429D01*
X64638571Y17708572D02*
X63781429Y17065715D01*
X63138571Y17708572D02*
X63995714Y16851429D01*
X64567143Y18922857D02*
X64638571Y18780000D01*
X64638571Y18494286D01*
X64567143Y18351429D01*
X64424286Y18280000D01*
X63852857Y18280000D01*
X63710000Y18351429D01*
X63638571Y18494286D01*
X63638571Y18780000D01*
X63710000Y18922857D01*
X63852857Y18994286D01*
X63995714Y18994286D01*
X64138571Y18280000D01*
X64567143Y20208571D02*
X64638571Y20065714D01*
X64638571Y19780000D01*
X64567143Y19637143D01*
X64424286Y19565714D01*
X63852857Y19565714D01*
X63710000Y19637143D01*
X63638571Y19780000D01*
X63638571Y20065714D01*
X63710000Y20208571D01*
X63852857Y20280000D01*
X63995714Y20280000D01*
X64138571Y19565714D01*
X63638571Y20922857D02*
X65138571Y20922857D01*
X63710000Y20922857D02*
X63638571Y21065714D01*
X63638571Y21351428D01*
X63710000Y21494285D01*
X63781429Y21565714D01*
X63924286Y21637143D01*
X64352857Y21637143D01*
X64495714Y21565714D01*
X64567143Y21494285D01*
X64638571Y21351428D01*
X64638571Y21065714D01*
X64567143Y20922857D01*
X63638571Y23280000D02*
X64638571Y23637143D01*
X63638571Y23994285D02*
X64638571Y23637143D01*
X64995714Y23494285D01*
X65067143Y23422857D01*
X65138571Y23280000D01*
X64638571Y24780000D02*
X64567143Y24637142D01*
X64495714Y24565714D01*
X64352857Y24494285D01*
X63924286Y24494285D01*
X63781429Y24565714D01*
X63710000Y24637142D01*
X63638571Y24780000D01*
X63638571Y24994285D01*
X63710000Y25137142D01*
X63781429Y25208571D01*
X63924286Y25280000D01*
X64352857Y25280000D01*
X64495714Y25208571D01*
X64567143Y25137142D01*
X64638571Y24994285D01*
X64638571Y24780000D01*
X63638571Y26565714D02*
X64638571Y26565714D01*
X63638571Y25922857D02*
X64424286Y25922857D01*
X64567143Y25994285D01*
X64638571Y26137143D01*
X64638571Y26351428D01*
X64567143Y26494285D01*
X64495714Y26565714D01*
X64638571Y27280000D02*
X63638571Y27280000D01*
X63924286Y27280000D02*
X63781429Y27351428D01*
X63710000Y27422857D01*
X63638571Y27565714D01*
X63638571Y27708571D01*
X63638571Y29137142D02*
X63638571Y29708571D01*
X64638571Y29351428D02*
X63352857Y29351428D01*
X63210000Y29422856D01*
X63138571Y29565714D01*
X63138571Y29708571D01*
X64638571Y30208571D02*
X63638571Y30208571D01*
X63138571Y30208571D02*
X63210000Y30137142D01*
X63281429Y30208571D01*
X63210000Y30279999D01*
X63138571Y30208571D01*
X63281429Y30208571D01*
X63638571Y30922857D02*
X64638571Y30922857D01*
X63781429Y30922857D02*
X63710000Y30994285D01*
X63638571Y31137143D01*
X63638571Y31351428D01*
X63710000Y31494285D01*
X63852857Y31565714D01*
X64638571Y31565714D01*
X63638571Y32922857D02*
X64852857Y32922857D01*
X64995714Y32851428D01*
X65067143Y32780000D01*
X65138571Y32637143D01*
X65138571Y32422857D01*
X65067143Y32280000D01*
X64567143Y32922857D02*
X64638571Y32780000D01*
X64638571Y32494286D01*
X64567143Y32351428D01*
X64495714Y32280000D01*
X64352857Y32208571D01*
X63924286Y32208571D01*
X63781429Y32280000D01*
X63710000Y32351428D01*
X63638571Y32494286D01*
X63638571Y32780000D01*
X63710000Y32922857D01*
X64567143Y34208571D02*
X64638571Y34065714D01*
X64638571Y33780000D01*
X64567143Y33637143D01*
X64424286Y33565714D01*
X63852857Y33565714D01*
X63710000Y33637143D01*
X63638571Y33780000D01*
X63638571Y34065714D01*
X63710000Y34208571D01*
X63852857Y34280000D01*
X63995714Y34280000D01*
X64138571Y33565714D01*
X64638571Y34922857D02*
X63638571Y34922857D01*
X63924286Y34922857D02*
X63781429Y34994285D01*
X63710000Y35065714D01*
X63638571Y35208571D01*
X63638571Y35351428D01*
X64567143Y35779999D02*
X64638571Y35922856D01*
X64638571Y36208571D01*
X64567143Y36351428D01*
X64424286Y36422856D01*
X64352857Y36422856D01*
X64210000Y36351428D01*
X64138571Y36208571D01*
X64138571Y35994285D01*
X64067143Y35851428D01*
X63924286Y35779999D01*
X63852857Y35779999D01*
X63710000Y35851428D01*
X63638571Y35994285D01*
X63638571Y36208571D01*
X63710000Y36351428D01*
X63638571Y37994285D02*
X63638571Y38565714D01*
X64638571Y38208571D02*
X63352857Y38208571D01*
X63210000Y38279999D01*
X63138571Y38422857D01*
X63138571Y38565714D01*
X64638571Y39065714D02*
X63638571Y39065714D01*
X63138571Y39065714D02*
X63210000Y38994285D01*
X63281429Y39065714D01*
X63210000Y39137142D01*
X63138571Y39065714D01*
X63281429Y39065714D01*
X63638571Y39780000D02*
X64638571Y39780000D01*
X63781429Y39780000D02*
X63710000Y39851428D01*
X63638571Y39994286D01*
X63638571Y40208571D01*
X63710000Y40351428D01*
X63852857Y40422857D01*
X64638571Y40422857D01*
X63638571Y41780000D02*
X64852857Y41780000D01*
X64995714Y41708571D01*
X65067143Y41637143D01*
X65138571Y41494286D01*
X65138571Y41280000D01*
X65067143Y41137143D01*
X64567143Y41780000D02*
X64638571Y41637143D01*
X64638571Y41351429D01*
X64567143Y41208571D01*
X64495714Y41137143D01*
X64352857Y41065714D01*
X63924286Y41065714D01*
X63781429Y41137143D01*
X63710000Y41208571D01*
X63638571Y41351429D01*
X63638571Y41637143D01*
X63710000Y41780000D01*
X64638571Y42494286D02*
X63638571Y42494286D01*
X63138571Y42494286D02*
X63210000Y42422857D01*
X63281429Y42494286D01*
X63210000Y42565714D01*
X63138571Y42494286D01*
X63281429Y42494286D01*
X63638571Y43208572D02*
X64638571Y43208572D01*
X63781429Y43208572D02*
X63710000Y43280000D01*
X63638571Y43422858D01*
X63638571Y43637143D01*
X63710000Y43780000D01*
X63852857Y43851429D01*
X64638571Y43851429D01*
X63638571Y45208572D02*
X64852857Y45208572D01*
X64995714Y45137143D01*
X65067143Y45065715D01*
X65138571Y44922858D01*
X65138571Y44708572D01*
X65067143Y44565715D01*
X64567143Y45208572D02*
X64638571Y45065715D01*
X64638571Y44780001D01*
X64567143Y44637143D01*
X64495714Y44565715D01*
X64352857Y44494286D01*
X63924286Y44494286D01*
X63781429Y44565715D01*
X63710000Y44637143D01*
X63638571Y44780001D01*
X63638571Y45065715D01*
X63710000Y45208572D01*
D14*
X6353571Y60620714D02*
X6353571Y61370714D01*
X6639286Y61370714D01*
X6710714Y61335000D01*
X6746429Y61299286D01*
X6782143Y61227857D01*
X6782143Y61120714D01*
X6746429Y61049286D01*
X6710714Y61013571D01*
X6639286Y60977857D01*
X6353571Y60977857D01*
X7532143Y60692143D02*
X7496429Y60656429D01*
X7389286Y60620714D01*
X7317857Y60620714D01*
X7210714Y60656429D01*
X7139286Y60727857D01*
X7103571Y60799286D01*
X7067857Y60942143D01*
X7067857Y61049286D01*
X7103571Y61192143D01*
X7139286Y61263571D01*
X7210714Y61335000D01*
X7317857Y61370714D01*
X7389286Y61370714D01*
X7496429Y61335000D01*
X7532143Y61299286D01*
X8103571Y61013571D02*
X8210714Y60977857D01*
X8246429Y60942143D01*
X8282143Y60870714D01*
X8282143Y60763571D01*
X8246429Y60692143D01*
X8210714Y60656429D01*
X8139286Y60620714D01*
X7853571Y60620714D01*
X7853571Y61370714D01*
X8103571Y61370714D01*
X8175000Y61335000D01*
X8210714Y61299286D01*
X8246429Y61227857D01*
X8246429Y61156429D01*
X8210714Y61085000D01*
X8175000Y61049286D01*
X8103571Y61013571D01*
X7853571Y61013571D01*
X8996429Y60620714D02*
X8567857Y60620714D01*
X8782143Y60620714D02*
X8782143Y61370714D01*
X8710714Y61263571D01*
X8639286Y61192143D01*
X8567857Y61156429D01*
X9460715Y61370714D02*
X9532143Y61370714D01*
X9603572Y61335000D01*
X9639286Y61299286D01*
X9675000Y61227857D01*
X9710715Y61085000D01*
X9710715Y60906429D01*
X9675000Y60763571D01*
X9639286Y60692143D01*
X9603572Y60656429D01*
X9532143Y60620714D01*
X9460715Y60620714D01*
X9389286Y60656429D01*
X9353572Y60692143D01*
X9317857Y60763571D01*
X9282143Y60906429D01*
X9282143Y61085000D01*
X9317857Y61227857D01*
X9353572Y61299286D01*
X9389286Y61335000D01*
X9460715Y61370714D01*
X10175001Y61370714D02*
X10246429Y61370714D01*
X10317858Y61335000D01*
X10353572Y61299286D01*
X10389286Y61227857D01*
X10425001Y61085000D01*
X10425001Y60906429D01*
X10389286Y60763571D01*
X10353572Y60692143D01*
X10317858Y60656429D01*
X10246429Y60620714D01*
X10175001Y60620714D01*
X10103572Y60656429D01*
X10067858Y60692143D01*
X10032143Y60763571D01*
X9996429Y60906429D01*
X9996429Y61085000D01*
X10032143Y61227857D01*
X10067858Y61299286D01*
X10103572Y61335000D01*
X10175001Y61370714D01*
X11067858Y61370714D02*
X10925001Y61370714D01*
X10853572Y61335000D01*
X10817858Y61299286D01*
X10746429Y61192143D01*
X10710715Y61049286D01*
X10710715Y60763571D01*
X10746429Y60692143D01*
X10782144Y60656429D01*
X10853572Y60620714D01*
X10996429Y60620714D01*
X11067858Y60656429D01*
X11103572Y60692143D01*
X11139287Y60763571D01*
X11139287Y60942143D01*
X11103572Y61013571D01*
X11067858Y61049286D01*
X10996429Y61085000D01*
X10853572Y61085000D01*
X10782144Y61049286D01*
X10746429Y61013571D01*
X10710715Y60942143D01*
X11282144Y60549286D02*
X11853573Y60549286D01*
X12282144Y61013571D02*
X12032144Y61013571D01*
X12032144Y60620714D02*
X12032144Y61370714D01*
X12389287Y61370714D01*
X12996430Y60620714D02*
X12996430Y61013571D01*
X12960716Y61085000D01*
X12889287Y61120714D01*
X12746430Y61120714D01*
X12675001Y61085000D01*
X12996430Y60656429D02*
X12925001Y60620714D01*
X12746430Y60620714D01*
X12675001Y60656429D01*
X12639287Y60727857D01*
X12639287Y60799286D01*
X12675001Y60870714D01*
X12746430Y60906429D01*
X12925001Y60906429D01*
X12996430Y60942143D01*
X13675001Y60620714D02*
X13675001Y61370714D01*
X13675001Y60656429D02*
X13603572Y60620714D01*
X13460715Y60620714D01*
X13389287Y60656429D01*
X13353572Y60692143D01*
X13317858Y60763571D01*
X13317858Y60977857D01*
X13353572Y61049286D01*
X13389287Y61085000D01*
X13460715Y61120714D01*
X13603572Y61120714D01*
X13675001Y61085000D01*
X14317858Y60656429D02*
X14246429Y60620714D01*
X14103572Y60620714D01*
X14032143Y60656429D01*
X13996429Y60727857D01*
X13996429Y61013571D01*
X14032143Y61085000D01*
X14103572Y61120714D01*
X14246429Y61120714D01*
X14317858Y61085000D01*
X14353572Y61013571D01*
X14353572Y60942143D01*
X13996429Y60870714D01*
X14675000Y60620714D02*
X14675000Y61120714D01*
X14675000Y60977857D02*
X14710715Y61049286D01*
X14746429Y61085000D01*
X14817858Y61120714D01*
X14889286Y61120714D01*
X15246429Y61049286D02*
X15175001Y61085000D01*
X15139286Y61120714D01*
X15103572Y61192143D01*
X15103572Y61227857D01*
X15139286Y61299286D01*
X15175001Y61335000D01*
X15246429Y61370714D01*
X15389286Y61370714D01*
X15460715Y61335000D01*
X15496429Y61299286D01*
X15532144Y61227857D01*
X15532144Y61192143D01*
X15496429Y61120714D01*
X15460715Y61085000D01*
X15389286Y61049286D01*
X15246429Y61049286D01*
X15175001Y61013571D01*
X15139286Y60977857D01*
X15103572Y60906429D01*
X15103572Y60763571D01*
X15139286Y60692143D01*
X15175001Y60656429D01*
X15246429Y60620714D01*
X15389286Y60620714D01*
X15460715Y60656429D01*
X15496429Y60692143D01*
X15532144Y60763571D01*
X15532144Y60906429D01*
X15496429Y60977857D01*
X15460715Y61013571D01*
X15389286Y61049286D01*
X15853572Y60906429D02*
X16425001Y60906429D01*
X16746429Y61299286D02*
X16782143Y61335000D01*
X16853572Y61370714D01*
X17032143Y61370714D01*
X17103572Y61335000D01*
X17139286Y61299286D01*
X17175001Y61227857D01*
X17175001Y61156429D01*
X17139286Y61049286D01*
X16710715Y60620714D01*
X17175001Y60620714D01*
X17639287Y61370714D02*
X17710715Y61370714D01*
X17782144Y61335000D01*
X17817858Y61299286D01*
X17853572Y61227857D01*
X17889287Y61085000D01*
X17889287Y60906429D01*
X17853572Y60763571D01*
X17817858Y60692143D01*
X17782144Y60656429D01*
X17710715Y60620714D01*
X17639287Y60620714D01*
X17567858Y60656429D01*
X17532144Y60692143D01*
X17496429Y60763571D01*
X17460715Y60906429D01*
X17460715Y61085000D01*
X17496429Y61227857D01*
X17532144Y61299286D01*
X17567858Y61335000D01*
X17639287Y61370714D01*
X18603573Y60620714D02*
X18175001Y60620714D01*
X18389287Y60620714D02*
X18389287Y61370714D01*
X18317858Y61263571D01*
X18246430Y61192143D01*
X18175001Y61156429D01*
X18853573Y61370714D02*
X19353573Y61370714D01*
X19032144Y60620714D01*
X19639287Y60906429D02*
X20210716Y60906429D01*
X20710716Y61370714D02*
X20782144Y61370714D01*
X20853573Y61335000D01*
X20889287Y61299286D01*
X20925001Y61227857D01*
X20960716Y61085000D01*
X20960716Y60906429D01*
X20925001Y60763571D01*
X20889287Y60692143D01*
X20853573Y60656429D01*
X20782144Y60620714D01*
X20710716Y60620714D01*
X20639287Y60656429D01*
X20603573Y60692143D01*
X20567858Y60763571D01*
X20532144Y60906429D01*
X20532144Y61085000D01*
X20567858Y61227857D01*
X20603573Y61299286D01*
X20639287Y61335000D01*
X20710716Y61370714D01*
X21210716Y61370714D02*
X21710716Y61370714D01*
X21389287Y60620714D01*
X21996430Y60906429D02*
X22567859Y60906429D01*
X23317859Y60620714D02*
X22889287Y60620714D01*
X23103573Y60620714D02*
X23103573Y61370714D01*
X23032144Y61263571D01*
X22960716Y61192143D01*
X22889287Y61156429D01*
X24032145Y60620714D02*
X23603573Y60620714D01*
X23817859Y60620714D02*
X23817859Y61370714D01*
X23746430Y61263571D01*
X23675002Y61192143D01*
X23603573Y61156429D01*
X6603571Y59701071D02*
X6710714Y59665357D01*
X6746429Y59629643D01*
X6782143Y59558214D01*
X6782143Y59451071D01*
X6746429Y59379643D01*
X6710714Y59343929D01*
X6639286Y59308214D01*
X6353571Y59308214D01*
X6353571Y60058214D01*
X6603571Y60058214D01*
X6675000Y60022500D01*
X6710714Y59986786D01*
X6746429Y59915357D01*
X6746429Y59843929D01*
X6710714Y59772500D01*
X6675000Y59736786D01*
X6603571Y59701071D01*
X6353571Y59701071D01*
X7389286Y59343929D02*
X7317857Y59308214D01*
X7175000Y59308214D01*
X7103571Y59343929D01*
X7067857Y59415357D01*
X7067857Y59701071D01*
X7103571Y59772500D01*
X7175000Y59808214D01*
X7317857Y59808214D01*
X7389286Y59772500D01*
X7425000Y59701071D01*
X7425000Y59629643D01*
X7067857Y59558214D01*
X7853571Y59308214D02*
X7782143Y59343929D01*
X7746428Y59415357D01*
X7746428Y60058214D01*
X8139285Y59308214D02*
X8139285Y59808214D01*
X8139285Y60058214D02*
X8103571Y60022500D01*
X8139285Y59986786D01*
X8175000Y60022500D01*
X8139285Y60058214D01*
X8139285Y59986786D01*
X8782143Y59343929D02*
X8710714Y59308214D01*
X8567857Y59308214D01*
X8496428Y59343929D01*
X8460714Y59415357D01*
X8460714Y59701071D01*
X8496428Y59772500D01*
X8567857Y59808214D01*
X8710714Y59808214D01*
X8782143Y59772500D01*
X8817857Y59701071D01*
X8817857Y59629643D01*
X8460714Y59558214D01*
X9067857Y59808214D02*
X9246428Y59308214D01*
X9425000Y59808214D01*
X9817857Y59308214D02*
X9746429Y59343929D01*
X9710714Y59379643D01*
X9675000Y59451071D01*
X9675000Y59665357D01*
X9710714Y59736786D01*
X9746429Y59772500D01*
X9817857Y59808214D01*
X9925000Y59808214D01*
X9996429Y59772500D01*
X10032143Y59736786D01*
X10067857Y59665357D01*
X10067857Y59451071D01*
X10032143Y59379643D01*
X9996429Y59343929D01*
X9925000Y59308214D01*
X9817857Y59308214D01*
X10282143Y59808214D02*
X10567857Y59808214D01*
X10389285Y60058214D02*
X10389285Y59415357D01*
X10425000Y59343929D01*
X10496428Y59308214D01*
X10567857Y59308214D01*
X10817856Y59308214D02*
X10817856Y59808214D01*
X10817856Y59665357D02*
X10853571Y59736786D01*
X10889285Y59772500D01*
X10960714Y59808214D01*
X11032142Y59808214D01*
X11389285Y59308214D02*
X11317857Y59343929D01*
X11282142Y59379643D01*
X11246428Y59451071D01*
X11246428Y59665357D01*
X11282142Y59736786D01*
X11317857Y59772500D01*
X11389285Y59808214D01*
X11496428Y59808214D01*
X11567857Y59772500D01*
X11603571Y59736786D01*
X11639285Y59665357D01*
X11639285Y59451071D01*
X11603571Y59379643D01*
X11567857Y59343929D01*
X11496428Y59308214D01*
X11389285Y59308214D01*
X11960713Y59808214D02*
X11960713Y59308214D01*
X11960713Y59736786D02*
X11996428Y59772500D01*
X12067856Y59808214D01*
X12174999Y59808214D01*
X12246428Y59772500D01*
X12282142Y59701071D01*
X12282142Y59308214D01*
X13317856Y59736786D02*
X13246428Y59772500D01*
X13210713Y59808214D01*
X13174999Y59879643D01*
X13174999Y59915357D01*
X13210713Y59986786D01*
X13246428Y60022500D01*
X13317856Y60058214D01*
X13460713Y60058214D01*
X13532142Y60022500D01*
X13567856Y59986786D01*
X13603571Y59915357D01*
X13603571Y59879643D01*
X13567856Y59808214D01*
X13532142Y59772500D01*
X13460713Y59736786D01*
X13317856Y59736786D01*
X13246428Y59701071D01*
X13210713Y59665357D01*
X13174999Y59593929D01*
X13174999Y59451071D01*
X13210713Y59379643D01*
X13246428Y59343929D01*
X13317856Y59308214D01*
X13460713Y59308214D01*
X13532142Y59343929D01*
X13567856Y59379643D01*
X13603571Y59451071D01*
X13603571Y59593929D01*
X13567856Y59665357D01*
X13532142Y59701071D01*
X13460713Y59736786D01*
X14353571Y59379643D02*
X14317857Y59343929D01*
X14210714Y59308214D01*
X14139285Y59308214D01*
X14032142Y59343929D01*
X13960714Y59415357D01*
X13924999Y59486786D01*
X13889285Y59629643D01*
X13889285Y59736786D01*
X13924999Y59879643D01*
X13960714Y59951071D01*
X14032142Y60022500D01*
X14139285Y60058214D01*
X14210714Y60058214D01*
X14317857Y60022500D01*
X14353571Y59986786D01*
X14674999Y59308214D02*
X14674999Y60058214D01*
X14674999Y59701071D02*
X15103571Y59701071D01*
X15103571Y59308214D02*
X15103571Y60058214D01*
X15996428Y59522500D02*
X16353571Y59522500D01*
X15925000Y59308214D02*
X16175000Y60058214D01*
X16425000Y59308214D01*
X16674999Y59808214D02*
X16674999Y59308214D01*
X16674999Y59736786D02*
X16710714Y59772500D01*
X16782142Y59808214D01*
X16889285Y59808214D01*
X16960714Y59772500D01*
X16996428Y59701071D01*
X16996428Y59308214D01*
X17674999Y59308214D02*
X17674999Y59701071D01*
X17639285Y59772500D01*
X17567856Y59808214D01*
X17424999Y59808214D01*
X17353570Y59772500D01*
X17674999Y59343929D02*
X17603570Y59308214D01*
X17424999Y59308214D01*
X17353570Y59343929D01*
X17317856Y59415357D01*
X17317856Y59486786D01*
X17353570Y59558214D01*
X17424999Y59593929D01*
X17603570Y59593929D01*
X17674999Y59629643D01*
X18139284Y59308214D02*
X18067856Y59343929D01*
X18032141Y59415357D01*
X18032141Y60058214D01*
X18532141Y59308214D02*
X18460713Y59343929D01*
X18424998Y59379643D01*
X18389284Y59451071D01*
X18389284Y59665357D01*
X18424998Y59736786D01*
X18460713Y59772500D01*
X18532141Y59808214D01*
X18639284Y59808214D01*
X18710713Y59772500D01*
X18746427Y59736786D01*
X18782141Y59665357D01*
X18782141Y59451071D01*
X18746427Y59379643D01*
X18710713Y59343929D01*
X18639284Y59308214D01*
X18532141Y59308214D01*
X19424998Y59808214D02*
X19424998Y59201071D01*
X19389284Y59129643D01*
X19353569Y59093929D01*
X19282141Y59058214D01*
X19174998Y59058214D01*
X19103569Y59093929D01*
X19424998Y59343929D02*
X19353569Y59308214D01*
X19210712Y59308214D01*
X19139284Y59343929D01*
X19103569Y59379643D01*
X19067855Y59451071D01*
X19067855Y59665357D01*
X19103569Y59736786D01*
X19139284Y59772500D01*
X19210712Y59808214D01*
X19353569Y59808214D01*
X19424998Y59772500D01*
X20317855Y59343929D02*
X20424998Y59308214D01*
X20603569Y59308214D01*
X20674998Y59343929D01*
X20710712Y59379643D01*
X20746427Y59451071D01*
X20746427Y59522500D01*
X20710712Y59593929D01*
X20674998Y59629643D01*
X20603569Y59665357D01*
X20460712Y59701071D01*
X20389284Y59736786D01*
X20353569Y59772500D01*
X20317855Y59843929D01*
X20317855Y59915357D01*
X20353569Y59986786D01*
X20389284Y60022500D01*
X20460712Y60058214D01*
X20639284Y60058214D01*
X20746427Y60022500D01*
X21174998Y59308214D02*
X21103570Y59343929D01*
X21067855Y59415357D01*
X21067855Y60058214D01*
X21460712Y59308214D02*
X21460712Y59808214D01*
X21460712Y60058214D02*
X21424998Y60022500D01*
X21460712Y59986786D01*
X21496427Y60022500D01*
X21460712Y60058214D01*
X21460712Y59986786D01*
X22139284Y59308214D02*
X22139284Y60058214D01*
X22139284Y59343929D02*
X22067855Y59308214D01*
X21924998Y59308214D01*
X21853570Y59343929D01*
X21817855Y59379643D01*
X21782141Y59451071D01*
X21782141Y59665357D01*
X21817855Y59736786D01*
X21853570Y59772500D01*
X21924998Y59808214D01*
X22067855Y59808214D01*
X22139284Y59772500D01*
X22782141Y59343929D02*
X22710712Y59308214D01*
X22567855Y59308214D01*
X22496426Y59343929D01*
X22460712Y59415357D01*
X22460712Y59701071D01*
X22496426Y59772500D01*
X22567855Y59808214D01*
X22710712Y59808214D01*
X22782141Y59772500D01*
X22817855Y59701071D01*
X22817855Y59629643D01*
X22460712Y59558214D01*
X23139283Y59308214D02*
X23139283Y59808214D01*
X23139283Y59665357D02*
X23174998Y59736786D01*
X23210712Y59772500D01*
X23282141Y59808214D01*
X23353569Y59808214D01*
X6353571Y57995714D02*
X6353571Y58745714D01*
X6639286Y58745714D01*
X6710714Y58710000D01*
X6746429Y58674286D01*
X6782143Y58602857D01*
X6782143Y58495714D01*
X6746429Y58424286D01*
X6710714Y58388571D01*
X6639286Y58352857D01*
X6353571Y58352857D01*
X7210714Y57995714D02*
X7139286Y58031429D01*
X7103571Y58067143D01*
X7067857Y58138571D01*
X7067857Y58352857D01*
X7103571Y58424286D01*
X7139286Y58460000D01*
X7210714Y58495714D01*
X7317857Y58495714D01*
X7389286Y58460000D01*
X7425000Y58424286D01*
X7460714Y58352857D01*
X7460714Y58138571D01*
X7425000Y58067143D01*
X7389286Y58031429D01*
X7317857Y57995714D01*
X7210714Y57995714D01*
X7675000Y58495714D02*
X7960714Y58495714D01*
X7782142Y58745714D02*
X7782142Y58102857D01*
X7817857Y58031429D01*
X7889285Y57995714D01*
X7960714Y57995714D01*
X8675000Y58495714D02*
X8960714Y58495714D01*
X8782142Y58745714D02*
X8782142Y58102857D01*
X8817857Y58031429D01*
X8889285Y57995714D01*
X8960714Y57995714D01*
X9317856Y57995714D02*
X9246428Y58031429D01*
X9210713Y58067143D01*
X9174999Y58138571D01*
X9174999Y58352857D01*
X9210713Y58424286D01*
X9246428Y58460000D01*
X9317856Y58495714D01*
X9424999Y58495714D01*
X9496428Y58460000D01*
X9532142Y58424286D01*
X9567856Y58352857D01*
X9567856Y58138571D01*
X9532142Y58067143D01*
X9496428Y58031429D01*
X9424999Y57995714D01*
X9317856Y57995714D01*
X10424999Y58031429D02*
X10532142Y57995714D01*
X10710713Y57995714D01*
X10782142Y58031429D01*
X10817856Y58067143D01*
X10853571Y58138571D01*
X10853571Y58210000D01*
X10817856Y58281429D01*
X10782142Y58317143D01*
X10710713Y58352857D01*
X10567856Y58388571D01*
X10496428Y58424286D01*
X10460713Y58460000D01*
X10424999Y58531429D01*
X10424999Y58602857D01*
X10460713Y58674286D01*
X10496428Y58710000D01*
X10567856Y58745714D01*
X10746428Y58745714D01*
X10853571Y58710000D01*
X11174999Y57995714D02*
X11174999Y58745714D01*
X11460714Y58745714D01*
X11532142Y58710000D01*
X11567857Y58674286D01*
X11603571Y58602857D01*
X11603571Y58495714D01*
X11567857Y58424286D01*
X11532142Y58388571D01*
X11460714Y58352857D01*
X11174999Y58352857D01*
X11924999Y57995714D02*
X11924999Y58745714D01*
X12282142Y58067143D02*
X12317857Y58031429D01*
X12282142Y57995714D01*
X12246428Y58031429D01*
X12282142Y58067143D01*
X12282142Y57995714D01*
X13460714Y58388571D02*
X13567857Y58352857D01*
X13603572Y58317143D01*
X13639286Y58245714D01*
X13639286Y58138571D01*
X13603572Y58067143D01*
X13567857Y58031429D01*
X13496429Y57995714D01*
X13210714Y57995714D01*
X13210714Y58745714D01*
X13460714Y58745714D01*
X13532143Y58710000D01*
X13567857Y58674286D01*
X13603572Y58602857D01*
X13603572Y58531429D01*
X13567857Y58460000D01*
X13532143Y58424286D01*
X13460714Y58388571D01*
X13210714Y58388571D01*
X14246429Y58031429D02*
X14175000Y57995714D01*
X14032143Y57995714D01*
X13960714Y58031429D01*
X13925000Y58102857D01*
X13925000Y58388571D01*
X13960714Y58460000D01*
X14032143Y58495714D01*
X14175000Y58495714D01*
X14246429Y58460000D01*
X14282143Y58388571D01*
X14282143Y58317143D01*
X13925000Y58245714D01*
X14496429Y58495714D02*
X14782143Y58495714D01*
X14603571Y58745714D02*
X14603571Y58102857D01*
X14639286Y58031429D01*
X14710714Y57995714D01*
X14782143Y57995714D01*
X15353571Y57995714D02*
X15353571Y58388571D01*
X15317857Y58460000D01*
X15246428Y58495714D01*
X15103571Y58495714D01*
X15032142Y58460000D01*
X15353571Y58031429D02*
X15282142Y57995714D01*
X15103571Y57995714D01*
X15032142Y58031429D01*
X14996428Y58102857D01*
X14996428Y58174286D01*
X15032142Y58245714D01*
X15103571Y58281429D01*
X15282142Y58281429D01*
X15353571Y58317143D01*
X15710713Y58281429D02*
X16282142Y58281429D01*
X17032142Y57995714D02*
X16603570Y57995714D01*
X16817856Y57995714D02*
X16817856Y58745714D01*
X16746427Y58638571D01*
X16674999Y58567143D01*
X16603570Y58531429D01*
X6353571Y56683214D02*
X6353571Y57433214D01*
X6675000Y56683214D02*
X6675000Y57076071D01*
X6639286Y57147500D01*
X6567857Y57183214D01*
X6460714Y57183214D01*
X6389286Y57147500D01*
X6353571Y57111786D01*
X6925000Y57183214D02*
X7210714Y57183214D01*
X7032142Y57433214D02*
X7032142Y56790357D01*
X7067857Y56718929D01*
X7139285Y56683214D01*
X7210714Y56683214D01*
X7353571Y57183214D02*
X7639285Y57183214D01*
X7460713Y57433214D02*
X7460713Y56790357D01*
X7496428Y56718929D01*
X7567856Y56683214D01*
X7639285Y56683214D01*
X7889284Y57183214D02*
X7889284Y56433214D01*
X7889284Y57147500D02*
X7960713Y57183214D01*
X8103570Y57183214D01*
X8174999Y57147500D01*
X8210713Y57111786D01*
X8246427Y57040357D01*
X8246427Y56826071D01*
X8210713Y56754643D01*
X8174999Y56718929D01*
X8103570Y56683214D01*
X7960713Y56683214D01*
X7889284Y56718929D01*
X8532141Y56718929D02*
X8603570Y56683214D01*
X8746427Y56683214D01*
X8817855Y56718929D01*
X8853570Y56790357D01*
X8853570Y56826071D01*
X8817855Y56897500D01*
X8746427Y56933214D01*
X8639284Y56933214D01*
X8567855Y56968929D01*
X8532141Y57040357D01*
X8532141Y57076071D01*
X8567855Y57147500D01*
X8639284Y57183214D01*
X8746427Y57183214D01*
X8817855Y57147500D01*
X9174998Y56754643D02*
X9210713Y56718929D01*
X9174998Y56683214D01*
X9139284Y56718929D01*
X9174998Y56754643D01*
X9174998Y56683214D01*
X9174998Y57147500D02*
X9210713Y57111786D01*
X9174998Y57076071D01*
X9139284Y57111786D01*
X9174998Y57147500D01*
X9174998Y57076071D01*
X10067856Y57468929D02*
X9424999Y56504643D01*
X10853570Y57468929D02*
X10210713Y56504643D01*
X11424998Y57183214D02*
X11424998Y56576071D01*
X11389284Y56504643D01*
X11353569Y56468929D01*
X11282141Y56433214D01*
X11174998Y56433214D01*
X11103569Y56468929D01*
X11424998Y56718929D02*
X11353569Y56683214D01*
X11210712Y56683214D01*
X11139284Y56718929D01*
X11103569Y56754643D01*
X11067855Y56826071D01*
X11067855Y57040357D01*
X11103569Y57111786D01*
X11139284Y57147500D01*
X11210712Y57183214D01*
X11353569Y57183214D01*
X11424998Y57147500D01*
X11782140Y56683214D02*
X11782140Y57183214D01*
X11782140Y57433214D02*
X11746426Y57397500D01*
X11782140Y57361786D01*
X11817855Y57397500D01*
X11782140Y57433214D01*
X11782140Y57361786D01*
X12032141Y57183214D02*
X12317855Y57183214D01*
X12139283Y57433214D02*
X12139283Y56790357D01*
X12174998Y56718929D01*
X12246426Y56683214D01*
X12317855Y56683214D01*
X12567854Y56683214D02*
X12567854Y57433214D01*
X12889283Y56683214D02*
X12889283Y57076071D01*
X12853569Y57147500D01*
X12782140Y57183214D01*
X12674997Y57183214D01*
X12603569Y57147500D01*
X12567854Y57111786D01*
X13567854Y57183214D02*
X13567854Y56683214D01*
X13246425Y57183214D02*
X13246425Y56790357D01*
X13282140Y56718929D01*
X13353568Y56683214D01*
X13460711Y56683214D01*
X13532140Y56718929D01*
X13567854Y56754643D01*
X13924996Y56683214D02*
X13924996Y57433214D01*
X13924996Y57147500D02*
X13996425Y57183214D01*
X14139282Y57183214D01*
X14210711Y57147500D01*
X14246425Y57111786D01*
X14282139Y57040357D01*
X14282139Y56826071D01*
X14246425Y56754643D01*
X14210711Y56718929D01*
X14139282Y56683214D01*
X13996425Y56683214D01*
X13924996Y56718929D01*
X14603567Y56754643D02*
X14639282Y56718929D01*
X14603567Y56683214D01*
X14567853Y56718929D01*
X14603567Y56754643D01*
X14603567Y56683214D01*
X15282139Y56718929D02*
X15210710Y56683214D01*
X15067853Y56683214D01*
X14996425Y56718929D01*
X14960710Y56754643D01*
X14924996Y56826071D01*
X14924996Y57040357D01*
X14960710Y57111786D01*
X14996425Y57147500D01*
X15067853Y57183214D01*
X15210710Y57183214D01*
X15282139Y57147500D01*
X15710710Y56683214D02*
X15639282Y56718929D01*
X15603567Y56754643D01*
X15567853Y56826071D01*
X15567853Y57040357D01*
X15603567Y57111786D01*
X15639282Y57147500D01*
X15710710Y57183214D01*
X15817853Y57183214D01*
X15889282Y57147500D01*
X15924996Y57111786D01*
X15960710Y57040357D01*
X15960710Y56826071D01*
X15924996Y56754643D01*
X15889282Y56718929D01*
X15817853Y56683214D01*
X15710710Y56683214D01*
X16282138Y56683214D02*
X16282138Y57183214D01*
X16282138Y57111786D02*
X16317853Y57147500D01*
X16389281Y57183214D01*
X16496424Y57183214D01*
X16567853Y57147500D01*
X16603567Y57076071D01*
X16603567Y56683214D01*
X16603567Y57076071D02*
X16639281Y57147500D01*
X16710710Y57183214D01*
X16817853Y57183214D01*
X16889281Y57147500D01*
X16924996Y57076071D01*
X16924996Y56683214D01*
X17817853Y57468929D02*
X17174996Y56504643D01*
X18317852Y57076071D02*
X18424995Y57040357D01*
X18460710Y57004643D01*
X18496424Y56933214D01*
X18496424Y56826071D01*
X18460710Y56754643D01*
X18424995Y56718929D01*
X18353567Y56683214D01*
X18067852Y56683214D01*
X18067852Y57433214D01*
X18317852Y57433214D01*
X18389281Y57397500D01*
X18424995Y57361786D01*
X18460710Y57290357D01*
X18460710Y57218929D01*
X18424995Y57147500D01*
X18389281Y57111786D01*
X18317852Y57076071D01*
X18067852Y57076071D01*
X19103567Y56718929D02*
X19032138Y56683214D01*
X18889281Y56683214D01*
X18817852Y56718929D01*
X18782138Y56790357D01*
X18782138Y57076071D01*
X18817852Y57147500D01*
X18889281Y57183214D01*
X19032138Y57183214D01*
X19103567Y57147500D01*
X19139281Y57076071D01*
X19139281Y57004643D01*
X18782138Y56933214D01*
X19567852Y56683214D02*
X19496424Y56718929D01*
X19460709Y56790357D01*
X19460709Y57433214D01*
X19853566Y56683214D02*
X19853566Y57183214D01*
X19853566Y57433214D02*
X19817852Y57397500D01*
X19853566Y57361786D01*
X19889281Y57397500D01*
X19853566Y57433214D01*
X19853566Y57361786D01*
X20496424Y56718929D02*
X20424995Y56683214D01*
X20282138Y56683214D01*
X20210709Y56718929D01*
X20174995Y56790357D01*
X20174995Y57076071D01*
X20210709Y57147500D01*
X20282138Y57183214D01*
X20424995Y57183214D01*
X20496424Y57147500D01*
X20532138Y57076071D01*
X20532138Y57004643D01*
X20174995Y56933214D01*
X20782138Y57183214D02*
X20960709Y56683214D01*
X21139281Y57183214D01*
X21532138Y56683214D02*
X21460710Y56718929D01*
X21424995Y56754643D01*
X21389281Y56826071D01*
X21389281Y57040357D01*
X21424995Y57111786D01*
X21460710Y57147500D01*
X21532138Y57183214D01*
X21639281Y57183214D01*
X21710710Y57147500D01*
X21746424Y57111786D01*
X21782138Y57040357D01*
X21782138Y56826071D01*
X21746424Y56754643D01*
X21710710Y56718929D01*
X21639281Y56683214D01*
X21532138Y56683214D01*
X21996424Y57183214D02*
X22282138Y57183214D01*
X22103566Y57433214D02*
X22103566Y56790357D01*
X22139281Y56718929D01*
X22210709Y56683214D01*
X22282138Y56683214D01*
X22532137Y56683214D02*
X22532137Y57183214D01*
X22532137Y57040357D02*
X22567852Y57111786D01*
X22603566Y57147500D01*
X22674995Y57183214D01*
X22746423Y57183214D01*
X23103566Y56683214D02*
X23032138Y56718929D01*
X22996423Y56754643D01*
X22960709Y56826071D01*
X22960709Y57040357D01*
X22996423Y57111786D01*
X23032138Y57147500D01*
X23103566Y57183214D01*
X23210709Y57183214D01*
X23282138Y57147500D01*
X23317852Y57111786D01*
X23353566Y57040357D01*
X23353566Y56826071D01*
X23317852Y56754643D01*
X23282138Y56718929D01*
X23210709Y56683214D01*
X23103566Y56683214D01*
X23674994Y57183214D02*
X23674994Y56683214D01*
X23674994Y57111786D02*
X23710709Y57147500D01*
X23782137Y57183214D01*
X23889280Y57183214D01*
X23960709Y57147500D01*
X23996423Y57076071D01*
X23996423Y56683214D01*
X24889280Y57468929D02*
X24246423Y56504643D01*
X6603571Y55763571D02*
X6710714Y55727857D01*
X6746429Y55692143D01*
X6782143Y55620714D01*
X6782143Y55513571D01*
X6746429Y55442143D01*
X6710714Y55406429D01*
X6639286Y55370714D01*
X6353571Y55370714D01*
X6353571Y56120714D01*
X6603571Y56120714D01*
X6675000Y56085000D01*
X6710714Y56049286D01*
X6746429Y55977857D01*
X6746429Y55906429D01*
X6710714Y55835000D01*
X6675000Y55799286D01*
X6603571Y55763571D01*
X6353571Y55763571D01*
X7389286Y55406429D02*
X7317857Y55370714D01*
X7175000Y55370714D01*
X7103571Y55406429D01*
X7067857Y55477857D01*
X7067857Y55763571D01*
X7103571Y55835000D01*
X7175000Y55870714D01*
X7317857Y55870714D01*
X7389286Y55835000D01*
X7425000Y55763571D01*
X7425000Y55692143D01*
X7067857Y55620714D01*
X7853571Y55370714D02*
X7782143Y55406429D01*
X7746428Y55477857D01*
X7746428Y56120714D01*
X8139285Y55370714D02*
X8139285Y55870714D01*
X8139285Y56120714D02*
X8103571Y56085000D01*
X8139285Y56049286D01*
X8175000Y56085000D01*
X8139285Y56120714D01*
X8139285Y56049286D01*
X8782143Y55406429D02*
X8710714Y55370714D01*
X8567857Y55370714D01*
X8496428Y55406429D01*
X8460714Y55477857D01*
X8460714Y55763571D01*
X8496428Y55835000D01*
X8567857Y55870714D01*
X8710714Y55870714D01*
X8782143Y55835000D01*
X8817857Y55763571D01*
X8817857Y55692143D01*
X8460714Y55620714D01*
X9067857Y55870714D02*
X9246428Y55370714D01*
X9425000Y55870714D01*
X9817857Y55370714D02*
X9746429Y55406429D01*
X9710714Y55442143D01*
X9675000Y55513571D01*
X9675000Y55727857D01*
X9710714Y55799286D01*
X9746429Y55835000D01*
X9817857Y55870714D01*
X9925000Y55870714D01*
X9996429Y55835000D01*
X10032143Y55799286D01*
X10067857Y55727857D01*
X10067857Y55513571D01*
X10032143Y55442143D01*
X9996429Y55406429D01*
X9925000Y55370714D01*
X9817857Y55370714D01*
X10282143Y55870714D02*
X10567857Y55870714D01*
X10389285Y56120714D02*
X10389285Y55477857D01*
X10425000Y55406429D01*
X10496428Y55370714D01*
X10567857Y55370714D01*
X10817856Y55370714D02*
X10817856Y55870714D01*
X10817856Y55727857D02*
X10853571Y55799286D01*
X10889285Y55835000D01*
X10960714Y55870714D01*
X11032142Y55870714D01*
X11389285Y55370714D02*
X11317857Y55406429D01*
X11282142Y55442143D01*
X11246428Y55513571D01*
X11246428Y55727857D01*
X11282142Y55799286D01*
X11317857Y55835000D01*
X11389285Y55870714D01*
X11496428Y55870714D01*
X11567857Y55835000D01*
X11603571Y55799286D01*
X11639285Y55727857D01*
X11639285Y55513571D01*
X11603571Y55442143D01*
X11567857Y55406429D01*
X11496428Y55370714D01*
X11389285Y55370714D01*
X11960713Y55870714D02*
X11960713Y55370714D01*
X11960713Y55799286D02*
X11996428Y55835000D01*
X12067856Y55870714D01*
X12174999Y55870714D01*
X12246428Y55835000D01*
X12282142Y55763571D01*
X12282142Y55370714D01*
X12567856Y56120714D02*
X12746427Y55370714D01*
X12889284Y55906429D01*
X13032142Y55370714D01*
X13210713Y56120714D01*
X13817856Y55370714D02*
X13817856Y55763571D01*
X13782142Y55835000D01*
X13710713Y55870714D01*
X13567856Y55870714D01*
X13496427Y55835000D01*
X13817856Y55406429D02*
X13746427Y55370714D01*
X13567856Y55370714D01*
X13496427Y55406429D01*
X13460713Y55477857D01*
X13460713Y55549286D01*
X13496427Y55620714D01*
X13567856Y55656429D01*
X13746427Y55656429D01*
X13817856Y55692143D01*
X14174998Y55870714D02*
X14174998Y55370714D01*
X14174998Y55799286D02*
X14210713Y55835000D01*
X14282141Y55870714D01*
X14389284Y55870714D01*
X14460713Y55835000D01*
X14496427Y55763571D01*
X14496427Y55370714D01*
X15174998Y55370714D02*
X15174998Y56120714D01*
X15174998Y55406429D02*
X15103569Y55370714D01*
X14960712Y55370714D01*
X14889284Y55406429D01*
X14853569Y55442143D01*
X14817855Y55513571D01*
X14817855Y55727857D01*
X14853569Y55799286D01*
X14889284Y55835000D01*
X14960712Y55870714D01*
X15103569Y55870714D01*
X15174998Y55835000D01*
X15817855Y55406429D02*
X15746426Y55370714D01*
X15603569Y55370714D01*
X15532140Y55406429D01*
X15496426Y55477857D01*
X15496426Y55763571D01*
X15532140Y55835000D01*
X15603569Y55870714D01*
X15746426Y55870714D01*
X15817855Y55835000D01*
X15853569Y55763571D01*
X15853569Y55692143D01*
X15496426Y55620714D01*
X16174997Y55370714D02*
X16174997Y55870714D01*
X16174997Y55727857D02*
X16210712Y55799286D01*
X16246426Y55835000D01*
X16317855Y55870714D01*
X16389283Y55870714D01*
X16746426Y55370714D02*
X16674998Y55406429D01*
X16639283Y55477857D01*
X16639283Y56120714D01*
X17353569Y55870714D02*
X17353569Y55370714D01*
X17032140Y55870714D02*
X17032140Y55477857D01*
X17067855Y55406429D01*
X17139283Y55370714D01*
X17246426Y55370714D01*
X17317855Y55406429D01*
X17353569Y55442143D01*
X17674997Y55406429D02*
X17746426Y55370714D01*
X17889283Y55370714D01*
X17960711Y55406429D01*
X17996426Y55477857D01*
X17996426Y55513571D01*
X17960711Y55585000D01*
X17889283Y55620714D01*
X17782140Y55620714D01*
X17710711Y55656429D01*
X17674997Y55727857D01*
X17674997Y55763571D01*
X17710711Y55835000D01*
X17782140Y55870714D01*
X17889283Y55870714D01*
X17960711Y55835000D01*
X18210712Y55870714D02*
X18496426Y55870714D01*
X18317854Y56120714D02*
X18317854Y55477857D01*
X18353569Y55406429D01*
X18424997Y55370714D01*
X18496426Y55370714D01*
X18746425Y55370714D02*
X18746425Y56120714D01*
X18746425Y55763571D02*
X19174997Y55763571D01*
X19174997Y55370714D02*
X19174997Y56120714D01*
X19853568Y55370714D02*
X19853568Y55763571D01*
X19817854Y55835000D01*
X19746425Y55870714D01*
X19603568Y55870714D01*
X19532139Y55835000D01*
X19853568Y55406429D02*
X19782139Y55370714D01*
X19603568Y55370714D01*
X19532139Y55406429D01*
X19496425Y55477857D01*
X19496425Y55549286D01*
X19532139Y55620714D01*
X19603568Y55656429D01*
X19782139Y55656429D01*
X19853568Y55692143D01*
X20210710Y55370714D02*
X20210710Y55870714D01*
X20210710Y55727857D02*
X20246425Y55799286D01*
X20282139Y55835000D01*
X20353568Y55870714D01*
X20424996Y55870714D01*
X20996425Y55370714D02*
X20996425Y56120714D01*
X20996425Y55406429D02*
X20924996Y55370714D01*
X20782139Y55370714D01*
X20710711Y55406429D01*
X20674996Y55442143D01*
X20639282Y55513571D01*
X20639282Y55727857D01*
X20674996Y55799286D01*
X20710711Y55835000D01*
X20782139Y55870714D01*
X20924996Y55870714D01*
X20996425Y55835000D01*
X21282139Y55870714D02*
X21424996Y55370714D01*
X21567853Y55727857D01*
X21710710Y55370714D01*
X21853567Y55870714D01*
X22460710Y55370714D02*
X22460710Y55763571D01*
X22424996Y55835000D01*
X22353567Y55870714D01*
X22210710Y55870714D01*
X22139281Y55835000D01*
X22460710Y55406429D02*
X22389281Y55370714D01*
X22210710Y55370714D01*
X22139281Y55406429D01*
X22103567Y55477857D01*
X22103567Y55549286D01*
X22139281Y55620714D01*
X22210710Y55656429D01*
X22389281Y55656429D01*
X22460710Y55692143D01*
X22817852Y55370714D02*
X22817852Y55870714D01*
X22817852Y55727857D02*
X22853567Y55799286D01*
X22889281Y55835000D01*
X22960710Y55870714D01*
X23032138Y55870714D01*
X23567853Y55406429D02*
X23496424Y55370714D01*
X23353567Y55370714D01*
X23282138Y55406429D01*
X23246424Y55477857D01*
X23246424Y55763571D01*
X23282138Y55835000D01*
X23353567Y55870714D01*
X23496424Y55870714D01*
X23567853Y55835000D01*
X23603567Y55763571D01*
X23603567Y55692143D01*
X23246424Y55620714D01*
D16*
X150786000Y18500000D02*
G75*
G03X150786000Y18500000I-2286000J0D01*
G01*
X99786000Y18500000D02*
G75*
G03X99786000Y18500000I-2286000J0D01*
G01*
X48786000Y18500000D02*
G75*
G03X48786000Y18500000I-2286000J0D01*
G01*
X150786000Y43500000D02*
G75*
G03X150786000Y43500000I-2286000J0D01*
G01*
X48786000Y43500000D02*
G75*
G03X48786000Y43500000I-2286000J0D01*
G01*
X99786000Y43500000D02*
G75*
G03X99786000Y43500000I-2286000J0D01*
G01*
D17*
X27825200Y19094000D02*
X25825200Y19094000D01*
X27825200Y29094000D02*
X25825200Y29094000D01*
X26325200Y19094000D02*
X13825200Y19094000D01*
X27825200Y29094000D02*
X27825200Y19094000D01*
X13825200Y29094000D02*
X26325200Y29094000D01*
X13825200Y19094000D02*
X13825200Y29094000D01*
X6810000Y20235000D02*
X11890000Y20235000D01*
X6810000Y22775000D02*
X11890000Y22775000D01*
X6810000Y22775000D02*
X11890000Y22775000D01*
X6810000Y25315000D02*
X11890000Y25315000D01*
X6810000Y12615000D02*
X11890000Y12615000D01*
X6810000Y15155000D02*
X11890000Y15155000D01*
X6810000Y17695000D02*
X11890000Y17695000D01*
X6810000Y20235000D02*
X11890000Y20235000D01*
X6810000Y15155000D02*
X11890000Y15155000D01*
X6810000Y17695000D02*
X11890000Y17695000D01*
X6810000Y10075000D02*
X11890000Y10075000D01*
X6810000Y12615000D02*
X11890000Y12615000D01*
X6810000Y25315000D02*
X11890000Y25315000D01*
X6810000Y27855000D02*
X11890000Y27855000D01*
D16*
X168286000Y58000000D02*
G75*
G03X168286000Y58000000I-2286000J0D01*
G01*
X20150000Y34725000D02*
X20850000Y34725000D01*
X20850000Y33525000D02*
X20150000Y33525000D01*
X168286000Y4000000D02*
G75*
G03X168286000Y4000000I-2286000J0D01*
G01*
X5286000Y4000000D02*
G75*
G03X5286000Y4000000I-2286000J0D01*
G01*
X5286000Y58000000D02*
G75*
G03X5286000Y58000000I-2286000J0D01*
G01*
D17*
X27616210Y37180000D02*
G75*
G03X27616210Y37180000I-359210J0D01*
G01*
X26495000Y46705000D02*
X18875000Y46705000D01*
X26495000Y37815000D02*
X26495000Y46705000D01*
X25225000Y36545000D02*
X26495000Y37815000D01*
X18875000Y36545000D02*
X25225000Y36545000D01*
X18875000Y46705000D02*
X18875000Y36545000D01*
X14320000Y16031400D02*
X28320000Y16031400D01*
X14320000Y2031400D02*
X14320000Y16031400D01*
X28320000Y2031400D02*
X14320000Y2031400D01*
X28320000Y16031400D02*
X28320000Y2031400D01*
X33250000Y61000000D02*
X42750000Y61000000D01*
X42750000Y1000000D02*
X33250000Y1000000D01*
X42750000Y1000000D02*
X42750000Y61000000D01*
X33250000Y1000000D02*
X33250000Y61000000D01*
X50250000Y61000000D02*
X59750000Y61000000D01*
X59750000Y1000000D02*
X50250000Y1000000D01*
X59750000Y1000000D02*
X59750000Y61000000D01*
X50250000Y1000000D02*
X50250000Y61000000D01*
X67250000Y61000000D02*
X76750000Y61000000D01*
X76750000Y1000000D02*
X67250000Y1000000D01*
X76750000Y1000000D02*
X76750000Y61000000D01*
X67250000Y1000000D02*
X67250000Y61000000D01*
X84250000Y61000000D02*
X93750000Y61000000D01*
X93750000Y1000000D02*
X84250000Y1000000D01*
X93750000Y1000000D02*
X93750000Y61000000D01*
X84250000Y1000000D02*
X84250000Y61000000D01*
X101250000Y61000000D02*
X110750000Y61000000D01*
X110750000Y1000000D02*
X101250000Y1000000D01*
X110750000Y1000000D02*
X110750000Y61000000D01*
X101250000Y1000000D02*
X101250000Y61000000D01*
X118250000Y61000000D02*
X127750000Y61000000D01*
X127750000Y1000000D02*
X118250000Y1000000D01*
X127750000Y1000000D02*
X127750000Y61000000D01*
X118250000Y1000000D02*
X118250000Y61000000D01*
X135250000Y61000000D02*
X144750000Y61000000D01*
X144750000Y1000000D02*
X135250000Y1000000D01*
X144750000Y1000000D02*
X144750000Y61000000D01*
X135250000Y1000000D02*
X135250000Y61000000D01*
X152250000Y61000000D02*
X161750000Y61000000D01*
X161750000Y1000000D02*
X152250000Y1000000D01*
X161750000Y1000000D02*
X161750000Y61000000D01*
X152250000Y1000000D02*
X152250000Y61000000D01*
X49000Y39405000D02*
X49000Y50405000D01*
X10049000Y39405000D02*
X49000Y39405000D01*
X10049000Y39905000D02*
X10049000Y39405000D01*
X10049000Y50405000D02*
X10049000Y39905000D01*
X49000Y50405000D02*
X10049000Y50405000D01*
X30940000Y49445000D02*
X30940000Y54525000D01*
X28400000Y49445000D02*
X28400000Y54525000D01*
X13160000Y49445000D02*
X13160000Y54525000D01*
X10620000Y49445000D02*
X10620000Y54525000D01*
X15700000Y49445000D02*
X15700000Y54525000D01*
X13160000Y49445000D02*
X13160000Y54525000D01*
X18240000Y49445000D02*
X18240000Y54525000D01*
X15700000Y49445000D02*
X15700000Y54525000D01*
X20780000Y49445000D02*
X20780000Y54525000D01*
X18240000Y49445000D02*
X18240000Y54525000D01*
X23320000Y49445000D02*
X23320000Y54525000D01*
X20780000Y49445000D02*
X20780000Y54525000D01*
X25860000Y49445000D02*
X25860000Y54525000D01*
X23320000Y49445000D02*
X23320000Y54525000D01*
X28400000Y49445000D02*
X28400000Y54525000D01*
X25860000Y49445000D02*
X25860000Y54525000D01*
X29662381Y22550572D02*
X29186190Y22217238D01*
X29662381Y21979143D02*
X28662381Y21979143D01*
X28662381Y22360096D01*
X28710000Y22455334D01*
X28757619Y22502953D01*
X28852857Y22550572D01*
X28995714Y22550572D01*
X29090952Y22502953D01*
X29138571Y22455334D01*
X29186190Y22360096D01*
X29186190Y21979143D01*
X28662381Y22836286D02*
X29662381Y23169619D01*
X28662381Y23502953D01*
X29662381Y23883905D02*
X29662381Y24074381D01*
X29614762Y24169620D01*
X29567143Y24217239D01*
X29424286Y24312477D01*
X29233810Y24360096D01*
X28852857Y24360096D01*
X28757619Y24312477D01*
X28710000Y24264858D01*
X28662381Y24169620D01*
X28662381Y23979143D01*
X28710000Y23883905D01*
X28757619Y23836286D01*
X28852857Y23788667D01*
X29090952Y23788667D01*
X29186190Y23836286D01*
X29233810Y23883905D01*
X29281429Y23979143D01*
X29281429Y24169620D01*
X29233810Y24264858D01*
X29186190Y24312477D01*
X29090952Y24360096D01*
X29662381Y24836286D02*
X29662381Y25026762D01*
X29614762Y25122001D01*
X29567143Y25169620D01*
X29424286Y25264858D01*
X29233810Y25312477D01*
X28852857Y25312477D01*
X28757619Y25264858D01*
X28710000Y25217239D01*
X28662381Y25122001D01*
X28662381Y24931524D01*
X28710000Y24836286D01*
X28757619Y24788667D01*
X28852857Y24741048D01*
X29090952Y24741048D01*
X29186190Y24788667D01*
X29233810Y24836286D01*
X29281429Y24931524D01*
X29281429Y25122001D01*
X29233810Y25217239D01*
X29186190Y25264858D01*
X29090952Y25312477D01*
D11*
X1730288Y21302619D02*
X1801717Y21278810D01*
X1920764Y21278810D01*
X1968383Y21302619D01*
X1992193Y21326429D01*
X2016002Y21374048D01*
X2016002Y21421667D01*
X1992193Y21469286D01*
X1968383Y21493095D01*
X1920764Y21516905D01*
X1825526Y21540714D01*
X1777907Y21564524D01*
X1754098Y21588333D01*
X1730288Y21635952D01*
X1730288Y21683571D01*
X1754098Y21731190D01*
X1777907Y21755000D01*
X1825526Y21778810D01*
X1944574Y21778810D01*
X2016002Y21755000D01*
X2230288Y21278810D02*
X2230288Y21778810D01*
X2420764Y21778810D01*
X2468383Y21755000D01*
X2492192Y21731190D01*
X2516002Y21683571D01*
X2516002Y21612143D01*
X2492192Y21564524D01*
X2468383Y21540714D01*
X2420764Y21516905D01*
X2230288Y21516905D01*
X2730288Y21278810D02*
X2730288Y21778810D01*
X2849335Y21231190D02*
X3230287Y21231190D01*
X3635049Y21326429D02*
X3611239Y21302619D01*
X3539811Y21278810D01*
X3492192Y21278810D01*
X3420763Y21302619D01*
X3373144Y21350238D01*
X3349335Y21397857D01*
X3325525Y21493095D01*
X3325525Y21564524D01*
X3349335Y21659762D01*
X3373144Y21707381D01*
X3420763Y21755000D01*
X3492192Y21778810D01*
X3539811Y21778810D01*
X3611239Y21755000D01*
X3635049Y21731190D01*
X3825525Y21302619D02*
X3896954Y21278810D01*
X4016001Y21278810D01*
X4063620Y21302619D01*
X4087430Y21326429D01*
X4111239Y21374048D01*
X4111239Y21421667D01*
X4087430Y21469286D01*
X4063620Y21493095D01*
X4016001Y21516905D01*
X3920763Y21540714D01*
X3873144Y21564524D01*
X3849335Y21588333D01*
X3825525Y21635952D01*
X3825525Y21683571D01*
X3849335Y21731190D01*
X3873144Y21755000D01*
X3920763Y21778810D01*
X4039811Y21778810D01*
X4111239Y21755000D01*
X4206477Y21231190D02*
X4587429Y21231190D01*
X4777905Y21564524D02*
X4730286Y21588333D01*
X4706477Y21612143D01*
X4682667Y21659762D01*
X4682667Y21683571D01*
X4706477Y21731190D01*
X4730286Y21755000D01*
X4777905Y21778810D01*
X4873143Y21778810D01*
X4920762Y21755000D01*
X4944572Y21731190D01*
X4968381Y21683571D01*
X4968381Y21659762D01*
X4944572Y21612143D01*
X4920762Y21588333D01*
X4873143Y21564524D01*
X4777905Y21564524D01*
X4730286Y21540714D01*
X4706477Y21516905D01*
X4682667Y21469286D01*
X4682667Y21374048D01*
X4706477Y21326429D01*
X4730286Y21302619D01*
X4777905Y21278810D01*
X4873143Y21278810D01*
X4920762Y21302619D01*
X4944572Y21326429D01*
X4968381Y21374048D01*
X4968381Y21469286D01*
X4944572Y21516905D01*
X4920762Y21540714D01*
X4873143Y21564524D01*
X5063619Y21231190D02*
X5444571Y21231190D01*
X5825523Y21278810D02*
X5539809Y21278810D01*
X5682666Y21278810D02*
X5682666Y21778810D01*
X5635047Y21707381D01*
X5587428Y21659762D01*
X5539809Y21635952D01*
X6277904Y21778810D02*
X6039809Y21778810D01*
X6015999Y21540714D01*
X6039809Y21564524D01*
X6087428Y21588333D01*
X6206475Y21588333D01*
X6254094Y21564524D01*
X6277904Y21540714D01*
X6301713Y21493095D01*
X6301713Y21374048D01*
X6277904Y21326429D01*
X6254094Y21302619D01*
X6206475Y21278810D01*
X6087428Y21278810D01*
X6039809Y21302619D01*
X6015999Y21326429D01*
X2476383Y23842619D02*
X2547812Y23818810D01*
X2666859Y23818810D01*
X2714478Y23842619D01*
X2738288Y23866429D01*
X2762097Y23914048D01*
X2762097Y23961667D01*
X2738288Y24009286D01*
X2714478Y24033095D01*
X2666859Y24056905D01*
X2571621Y24080714D01*
X2524002Y24104524D01*
X2500193Y24128333D01*
X2476383Y24175952D01*
X2476383Y24223571D01*
X2500193Y24271190D01*
X2524002Y24295000D01*
X2571621Y24318810D01*
X2690669Y24318810D01*
X2762097Y24295000D01*
X2976383Y23818810D02*
X2976383Y24318810D01*
X3166859Y24318810D01*
X3214478Y24295000D01*
X3238287Y24271190D01*
X3262097Y24223571D01*
X3262097Y24152143D01*
X3238287Y24104524D01*
X3214478Y24080714D01*
X3166859Y24056905D01*
X2976383Y24056905D01*
X3476383Y23818810D02*
X3476383Y24318810D01*
X3595430Y23771190D02*
X3976382Y23771190D01*
X4381144Y23866429D02*
X4357334Y23842619D01*
X4285906Y23818810D01*
X4238287Y23818810D01*
X4166858Y23842619D01*
X4119239Y23890238D01*
X4095430Y23937857D01*
X4071620Y24033095D01*
X4071620Y24104524D01*
X4095430Y24199762D01*
X4119239Y24247381D01*
X4166858Y24295000D01*
X4238287Y24318810D01*
X4285906Y24318810D01*
X4357334Y24295000D01*
X4381144Y24271190D01*
X4571620Y23842619D02*
X4643049Y23818810D01*
X4762096Y23818810D01*
X4809715Y23842619D01*
X4833525Y23866429D01*
X4857334Y23914048D01*
X4857334Y23961667D01*
X4833525Y24009286D01*
X4809715Y24033095D01*
X4762096Y24056905D01*
X4666858Y24080714D01*
X4619239Y24104524D01*
X4595430Y24128333D01*
X4571620Y24175952D01*
X4571620Y24223571D01*
X4595430Y24271190D01*
X4619239Y24295000D01*
X4666858Y24318810D01*
X4785906Y24318810D01*
X4857334Y24295000D01*
X4952572Y23771190D02*
X5333524Y23771190D01*
X5547810Y24318810D02*
X5595429Y24318810D01*
X5643048Y24295000D01*
X5666857Y24271190D01*
X5690667Y24223571D01*
X5714476Y24128333D01*
X5714476Y24009286D01*
X5690667Y23914048D01*
X5666857Y23866429D01*
X5643048Y23842619D01*
X5595429Y23818810D01*
X5547810Y23818810D01*
X5500191Y23842619D01*
X5476381Y23866429D01*
X5452572Y23914048D01*
X5428762Y24009286D01*
X5428762Y24128333D01*
X5452572Y24223571D01*
X5476381Y24271190D01*
X5500191Y24295000D01*
X5547810Y24318810D01*
X5809714Y23771190D02*
X6190666Y23771190D01*
X6262095Y24318810D02*
X6595428Y24318810D01*
X6381142Y23818810D01*
X4087620Y13682619D02*
X4159049Y13658810D01*
X4278096Y13658810D01*
X4325715Y13682619D01*
X4349525Y13706429D01*
X4373334Y13754048D01*
X4373334Y13801667D01*
X4349525Y13849286D01*
X4325715Y13873095D01*
X4278096Y13896905D01*
X4182858Y13920714D01*
X4135239Y13944524D01*
X4111430Y13968333D01*
X4087620Y14015952D01*
X4087620Y14063571D01*
X4111430Y14111190D01*
X4135239Y14135000D01*
X4182858Y14158810D01*
X4301906Y14158810D01*
X4373334Y14135000D01*
X4587620Y13658810D02*
X4587620Y14158810D01*
X4778096Y14158810D01*
X4825715Y14135000D01*
X4849524Y14111190D01*
X4873334Y14063571D01*
X4873334Y13992143D01*
X4849524Y13944524D01*
X4825715Y13920714D01*
X4778096Y13896905D01*
X4587620Y13896905D01*
X5087620Y13658810D02*
X5087620Y14158810D01*
X5611429Y13706429D02*
X5587619Y13682619D01*
X5516191Y13658810D01*
X5468572Y13658810D01*
X5397143Y13682619D01*
X5349524Y13730238D01*
X5325715Y13777857D01*
X5301905Y13873095D01*
X5301905Y13944524D01*
X5325715Y14039762D01*
X5349524Y14087381D01*
X5397143Y14135000D01*
X5468572Y14158810D01*
X5516191Y14158810D01*
X5587619Y14135000D01*
X5611429Y14111190D01*
X6063810Y13658810D02*
X5825715Y13658810D01*
X5825715Y14158810D01*
X6230477Y13658810D02*
X6230477Y14158810D01*
X6516191Y13658810D02*
X6301905Y13944524D01*
X6516191Y14158810D02*
X6230477Y13873095D01*
X6992381Y13658810D02*
X6706667Y13658810D01*
X6849524Y13658810D02*
X6849524Y14158810D01*
X6801905Y14087381D01*
X6754286Y14039762D01*
X6706667Y14015952D01*
X4516191Y18738810D02*
X4516191Y19238810D01*
X4682857Y18881667D01*
X4849524Y19238810D01*
X4849524Y18738810D01*
X5182858Y19238810D02*
X5278096Y19238810D01*
X5325715Y19215000D01*
X5373334Y19167381D01*
X5397143Y19072143D01*
X5397143Y18905476D01*
X5373334Y18810238D01*
X5325715Y18762619D01*
X5278096Y18738810D01*
X5182858Y18738810D01*
X5135239Y18762619D01*
X5087620Y18810238D01*
X5063810Y18905476D01*
X5063810Y19072143D01*
X5087620Y19167381D01*
X5135239Y19215000D01*
X5182858Y19238810D01*
X5587620Y18762619D02*
X5659049Y18738810D01*
X5778096Y18738810D01*
X5825715Y18762619D01*
X5849525Y18786429D01*
X5873334Y18834048D01*
X5873334Y18881667D01*
X5849525Y18929286D01*
X5825715Y18953095D01*
X5778096Y18976905D01*
X5682858Y19000714D01*
X5635239Y19024524D01*
X5611430Y19048333D01*
X5587620Y19095952D01*
X5587620Y19143571D01*
X5611430Y19191190D01*
X5635239Y19215000D01*
X5682858Y19238810D01*
X5801906Y19238810D01*
X5873334Y19215000D01*
X6087620Y18738810D02*
X6087620Y19238810D01*
X6587619Y18738810D02*
X6301905Y18738810D01*
X6444762Y18738810D02*
X6444762Y19238810D01*
X6397143Y19167381D01*
X6349524Y19119762D01*
X6301905Y19095952D01*
X4516191Y16198810D02*
X4516191Y16698810D01*
X4682857Y16341667D01*
X4849524Y16698810D01*
X4849524Y16198810D01*
X5087620Y16198810D02*
X5087620Y16698810D01*
X5301905Y16222619D02*
X5373334Y16198810D01*
X5492381Y16198810D01*
X5540000Y16222619D01*
X5563810Y16246429D01*
X5587619Y16294048D01*
X5587619Y16341667D01*
X5563810Y16389286D01*
X5540000Y16413095D01*
X5492381Y16436905D01*
X5397143Y16460714D01*
X5349524Y16484524D01*
X5325715Y16508333D01*
X5301905Y16555952D01*
X5301905Y16603571D01*
X5325715Y16651190D01*
X5349524Y16675000D01*
X5397143Y16698810D01*
X5516191Y16698810D01*
X5587619Y16675000D01*
X5897143Y16698810D02*
X5992381Y16698810D01*
X6040000Y16675000D01*
X6087619Y16627381D01*
X6111428Y16532143D01*
X6111428Y16365476D01*
X6087619Y16270238D01*
X6040000Y16222619D01*
X5992381Y16198810D01*
X5897143Y16198810D01*
X5849524Y16222619D01*
X5801905Y16270238D01*
X5778095Y16365476D01*
X5778095Y16532143D01*
X5801905Y16627381D01*
X5849524Y16675000D01*
X5897143Y16698810D01*
X6587619Y16198810D02*
X6301905Y16198810D01*
X6444762Y16198810D02*
X6444762Y16698810D01*
X6397143Y16627381D01*
X6349524Y16579762D01*
X6301905Y16555952D01*
X4206667Y11595000D02*
X4159048Y11618810D01*
X4087620Y11618810D01*
X4016191Y11595000D01*
X3968572Y11547381D01*
X3944763Y11499762D01*
X3920953Y11404524D01*
X3920953Y11333095D01*
X3944763Y11237857D01*
X3968572Y11190238D01*
X4016191Y11142619D01*
X4087620Y11118810D01*
X4135239Y11118810D01*
X4206667Y11142619D01*
X4230477Y11166429D01*
X4230477Y11333095D01*
X4135239Y11333095D01*
X4444763Y11118810D02*
X4444763Y11618810D01*
X4730477Y11118810D01*
X4730477Y11618810D01*
X4968573Y11118810D02*
X4968573Y11618810D01*
X5087620Y11618810D01*
X5159049Y11595000D01*
X5206668Y11547381D01*
X5230477Y11499762D01*
X5254287Y11404524D01*
X5254287Y11333095D01*
X5230477Y11237857D01*
X5206668Y11190238D01*
X5159049Y11142619D01*
X5087620Y11118810D01*
X4968573Y11118810D01*
X5730477Y11118810D02*
X5444763Y11118810D01*
X5587620Y11118810D02*
X5587620Y11618810D01*
X5540001Y11547381D01*
X5492382Y11499762D01*
X5444763Y11475952D01*
X6040001Y11618810D02*
X6087620Y11618810D01*
X6135239Y11595000D01*
X6159048Y11571190D01*
X6182858Y11523571D01*
X6206667Y11428333D01*
X6206667Y11309286D01*
X6182858Y11214048D01*
X6159048Y11166429D01*
X6135239Y11142619D01*
X6087620Y11118810D01*
X6040001Y11118810D01*
X5992382Y11142619D01*
X5968572Y11166429D01*
X5944763Y11214048D01*
X5920953Y11309286D01*
X5920953Y11428333D01*
X5944763Y11523571D01*
X5968572Y11571190D01*
X5992382Y11595000D01*
X6040001Y11618810D01*
X6516191Y11618810D02*
X6563810Y11618810D01*
X6611429Y11595000D01*
X6635238Y11571190D01*
X6659048Y11523571D01*
X6682857Y11428333D01*
X6682857Y11309286D01*
X6659048Y11214048D01*
X6635238Y11166429D01*
X6611429Y11142619D01*
X6563810Y11118810D01*
X6516191Y11118810D01*
X6468572Y11142619D01*
X6444762Y11166429D01*
X6420953Y11214048D01*
X6397143Y11309286D01*
X6397143Y11428333D01*
X6420953Y11523571D01*
X6444762Y11571190D01*
X6468572Y11595000D01*
X6516191Y11618810D01*
X6992381Y11618810D02*
X7040000Y11618810D01*
X7087619Y11595000D01*
X7111428Y11571190D01*
X7135238Y11523571D01*
X7159047Y11428333D01*
X7159047Y11309286D01*
X7135238Y11214048D01*
X7111428Y11166429D01*
X7087619Y11142619D01*
X7040000Y11118810D01*
X6992381Y11118810D01*
X6944762Y11142619D01*
X6920952Y11166429D01*
X6897143Y11214048D01*
X6873333Y11309286D01*
X6873333Y11428333D01*
X6897143Y11523571D01*
X6920952Y11571190D01*
X6944762Y11595000D01*
X6992381Y11618810D01*
X4301906Y26549286D02*
X4682858Y26549286D01*
X4492382Y26358810D02*
X4492382Y26739762D01*
X4873335Y26858810D02*
X5182858Y26858810D01*
X5016192Y26668333D01*
X5087620Y26668333D01*
X5135239Y26644524D01*
X5159049Y26620714D01*
X5182858Y26573095D01*
X5182858Y26454048D01*
X5159049Y26406429D01*
X5135239Y26382619D01*
X5087620Y26358810D01*
X4944763Y26358810D01*
X4897144Y26382619D01*
X4873335Y26406429D01*
X5397144Y26406429D02*
X5420953Y26382619D01*
X5397144Y26358810D01*
X5373334Y26382619D01*
X5397144Y26406429D01*
X5397144Y26358810D01*
X5587620Y26858810D02*
X5897143Y26858810D01*
X5730477Y26668333D01*
X5801905Y26668333D01*
X5849524Y26644524D01*
X5873334Y26620714D01*
X5897143Y26573095D01*
X5897143Y26454048D01*
X5873334Y26406429D01*
X5849524Y26382619D01*
X5801905Y26358810D01*
X5659048Y26358810D01*
X5611429Y26382619D01*
X5587620Y26406429D01*
X6040000Y26858810D02*
X6206667Y26358810D01*
X6373333Y26858810D01*
X6801904Y26358810D02*
X6516190Y26358810D01*
X6659047Y26358810D02*
X6659047Y26858810D01*
X6611428Y26787381D01*
X6563809Y26739762D01*
X6516190Y26715952D01*
D17*
X22359762Y33847857D02*
X22312143Y33800238D01*
X22169286Y33752619D01*
X22074048Y33752619D01*
X21931190Y33800238D01*
X21835952Y33895476D01*
X21788333Y33990714D01*
X21740714Y34181190D01*
X21740714Y34324048D01*
X21788333Y34514524D01*
X21835952Y34609762D01*
X21931190Y34705000D01*
X22074048Y34752619D01*
X22169286Y34752619D01*
X22312143Y34705000D01*
X22359762Y34657381D01*
X23312143Y33752619D02*
X22740714Y33752619D01*
X23026428Y33752619D02*
X23026428Y34752619D01*
X22931190Y34609762D01*
X22835952Y34514524D01*
X22740714Y34466905D01*
X23931190Y34752619D02*
X24026429Y34752619D01*
X24121667Y34705000D01*
X24169286Y34657381D01*
X24216905Y34562143D01*
X24264524Y34371667D01*
X24264524Y34133571D01*
X24216905Y33943095D01*
X24169286Y33847857D01*
X24121667Y33800238D01*
X24026429Y33752619D01*
X23931190Y33752619D01*
X23835952Y33800238D01*
X23788333Y33847857D01*
X23740714Y33943095D01*
X23693095Y34133571D01*
X23693095Y34371667D01*
X23740714Y34562143D01*
X23788333Y34657381D01*
X23835952Y34705000D01*
X23931190Y34752619D01*
X24883571Y34752619D02*
X24978810Y34752619D01*
X25074048Y34705000D01*
X25121667Y34657381D01*
X25169286Y34562143D01*
X25216905Y34371667D01*
X25216905Y34133571D01*
X25169286Y33943095D01*
X25121667Y33847857D01*
X25074048Y33800238D01*
X24978810Y33752619D01*
X24883571Y33752619D01*
X24788333Y33800238D01*
X24740714Y33847857D01*
X24693095Y33943095D01*
X24645476Y34133571D01*
X24645476Y34371667D01*
X24693095Y34562143D01*
X24740714Y34657381D01*
X24788333Y34705000D01*
X24883571Y34752619D01*
X25835952Y34752619D02*
X25931191Y34752619D01*
X26026429Y34705000D01*
X26074048Y34657381D01*
X26121667Y34562143D01*
X26169286Y34371667D01*
X26169286Y34133571D01*
X26121667Y33943095D01*
X26074048Y33847857D01*
X26026429Y33800238D01*
X25931191Y33752619D01*
X25835952Y33752619D01*
X25740714Y33800238D01*
X25693095Y33847857D01*
X25645476Y33943095D01*
X25597857Y34133571D01*
X25597857Y34371667D01*
X25645476Y34562143D01*
X25693095Y34657381D01*
X25740714Y34705000D01*
X25835952Y34752619D01*
X27234857Y39196429D02*
X28206286Y39196429D01*
X28320571Y39253572D01*
X28377714Y39310715D01*
X28434857Y39425001D01*
X28434857Y39653572D01*
X28377714Y39767858D01*
X28320571Y39825001D01*
X28206286Y39882144D01*
X27234857Y39882144D01*
X28434857Y41082144D02*
X28434857Y40396429D01*
X28434857Y40739287D02*
X27234857Y40739287D01*
X27406286Y40625001D01*
X27520571Y40510715D01*
X27577714Y40396429D01*
X27234857Y41825001D02*
X27234857Y41939286D01*
X27292000Y42053572D01*
X27349143Y42110715D01*
X27463429Y42167858D01*
X27692000Y42225001D01*
X27977714Y42225001D01*
X28206286Y42167858D01*
X28320571Y42110715D01*
X28377714Y42053572D01*
X28434857Y41939286D01*
X28434857Y41825001D01*
X28377714Y41710715D01*
X28320571Y41653572D01*
X28206286Y41596429D01*
X27977714Y41539286D01*
X27692000Y41539286D01*
X27463429Y41596429D01*
X27349143Y41653572D01*
X27292000Y41710715D01*
X27234857Y41825001D01*
X27234857Y42967858D02*
X27234857Y43082143D01*
X27292000Y43196429D01*
X27349143Y43253572D01*
X27463429Y43310715D01*
X27692000Y43367858D01*
X27977714Y43367858D01*
X28206286Y43310715D01*
X28320571Y43253572D01*
X28377714Y43196429D01*
X28434857Y43082143D01*
X28434857Y42967858D01*
X28377714Y42853572D01*
X28320571Y42796429D01*
X28206286Y42739286D01*
X27977714Y42682143D01*
X27692000Y42682143D01*
X27463429Y42739286D01*
X27349143Y42796429D01*
X27292000Y42853572D01*
X27234857Y42967858D01*
X27234857Y44110715D02*
X27234857Y44225000D01*
X27292000Y44339286D01*
X27349143Y44396429D01*
X27463429Y44453572D01*
X27692000Y44510715D01*
X27977714Y44510715D01*
X28206286Y44453572D01*
X28320571Y44396429D01*
X28377714Y44339286D01*
X28434857Y44225000D01*
X28434857Y44110715D01*
X28377714Y43996429D01*
X28320571Y43939286D01*
X28206286Y43882143D01*
X27977714Y43825000D01*
X27692000Y43825000D01*
X27463429Y43882143D01*
X27349143Y43939286D01*
X27292000Y43996429D01*
X27234857Y44110715D01*
X28940286Y2483019D02*
X28940286Y1768733D01*
X28892666Y1625876D01*
X28797428Y1530638D01*
X28654571Y1483019D01*
X28559333Y1483019D01*
X29606952Y2483019D02*
X29797429Y2483019D01*
X29892667Y2435400D01*
X29987905Y2340162D01*
X30035524Y2149686D01*
X30035524Y1816352D01*
X29987905Y1625876D01*
X29892667Y1530638D01*
X29797429Y1483019D01*
X29606952Y1483019D01*
X29511714Y1530638D01*
X29416476Y1625876D01*
X29368857Y1816352D01*
X29368857Y2149686D01*
X29416476Y2340162D01*
X29511714Y2435400D01*
X29606952Y2483019D01*
X30654571Y1959210D02*
X30654571Y1483019D01*
X30321238Y2483019D02*
X30654571Y1959210D01*
X30987905Y2483019D01*
X31511714Y2483019D02*
X31606953Y2483019D01*
X31702191Y2435400D01*
X31749810Y2387781D01*
X31797429Y2292543D01*
X31845048Y2102067D01*
X31845048Y1863971D01*
X31797429Y1673495D01*
X31749810Y1578257D01*
X31702191Y1530638D01*
X31606953Y1483019D01*
X31511714Y1483019D01*
X31416476Y1530638D01*
X31368857Y1578257D01*
X31321238Y1673495D01*
X31273619Y1863971D01*
X31273619Y2102067D01*
X31321238Y2292543D01*
X31368857Y2387781D01*
X31416476Y2435400D01*
X31511714Y2483019D01*
D11*
X5690858Y29041667D02*
X5928953Y29041667D01*
X5643239Y28898810D02*
X5809906Y29398810D01*
X5976572Y28898810D01*
X6238477Y29398810D02*
X6286096Y29398810D01*
X6333715Y29375000D01*
X6357524Y29351190D01*
X6381334Y29303571D01*
X6405143Y29208333D01*
X6405143Y29089286D01*
X6381334Y28994048D01*
X6357524Y28946429D01*
X6333715Y28922619D01*
X6286096Y28898810D01*
X6238477Y28898810D01*
X6190858Y28922619D01*
X6167048Y28946429D01*
X6143239Y28994048D01*
X6119429Y29089286D01*
X6119429Y29208333D01*
X6143239Y29303571D01*
X6167048Y29351190D01*
X6190858Y29375000D01*
X6238477Y29398810D01*
D17*
X44802381Y2464762D02*
X44326190Y2131428D01*
X44802381Y1893333D02*
X43802381Y1893333D01*
X43802381Y2274286D01*
X43850000Y2369524D01*
X43897619Y2417143D01*
X43992857Y2464762D01*
X44135714Y2464762D01*
X44230952Y2417143D01*
X44278571Y2369524D01*
X44326190Y2274286D01*
X44326190Y1893333D01*
X43802381Y2750476D02*
X44802381Y3083809D01*
X43802381Y3417143D01*
X43802381Y3940952D02*
X43802381Y4036191D01*
X43850000Y4131429D01*
X43897619Y4179048D01*
X43992857Y4226667D01*
X44183333Y4274286D01*
X44421429Y4274286D01*
X44611905Y4226667D01*
X44707143Y4179048D01*
X44754762Y4131429D01*
X44802381Y4036191D01*
X44802381Y3940952D01*
X44754762Y3845714D01*
X44707143Y3798095D01*
X44611905Y3750476D01*
X44421429Y3702857D01*
X44183333Y3702857D01*
X43992857Y3750476D01*
X43897619Y3798095D01*
X43850000Y3845714D01*
X43802381Y3940952D01*
X38722381Y5012857D02*
X39722381Y5250952D01*
X39008095Y5441429D01*
X39722381Y5631905D01*
X38722381Y5870000D01*
X39722381Y6250952D02*
X39055714Y6250952D01*
X38722381Y6250952D02*
X38770000Y6203333D01*
X38817619Y6250952D01*
X38770000Y6298571D01*
X38722381Y6250952D01*
X38817619Y6250952D01*
X39055714Y6727142D02*
X40055714Y6727142D01*
X39103333Y6727142D02*
X39055714Y6822380D01*
X39055714Y7012857D01*
X39103333Y7108095D01*
X39150952Y7155714D01*
X39246190Y7203333D01*
X39531905Y7203333D01*
X39627143Y7155714D01*
X39674762Y7108095D01*
X39722381Y7012857D01*
X39722381Y6822380D01*
X39674762Y6727142D01*
X39674762Y8012857D02*
X39722381Y7917619D01*
X39722381Y7727142D01*
X39674762Y7631904D01*
X39579524Y7584285D01*
X39198571Y7584285D01*
X39103333Y7631904D01*
X39055714Y7727142D01*
X39055714Y7917619D01*
X39103333Y8012857D01*
X39198571Y8060476D01*
X39293810Y8060476D01*
X39389048Y7584285D01*
X39722381Y8489047D02*
X39055714Y8489047D01*
X39246190Y8489047D02*
X39150952Y8536666D01*
X39103333Y8584285D01*
X39055714Y8679523D01*
X39055714Y8774762D01*
X33642381Y5012857D02*
X34642381Y5250952D01*
X33928095Y5441429D01*
X34642381Y5631905D01*
X33642381Y5870000D01*
X34642381Y6250952D02*
X33975714Y6250952D01*
X33642381Y6250952D02*
X33690000Y6203333D01*
X33737619Y6250952D01*
X33690000Y6298571D01*
X33642381Y6250952D01*
X33737619Y6250952D01*
X33975714Y6727142D02*
X34975714Y6727142D01*
X34023333Y6727142D02*
X33975714Y6822380D01*
X33975714Y7012857D01*
X34023333Y7108095D01*
X34070952Y7155714D01*
X34166190Y7203333D01*
X34451905Y7203333D01*
X34547143Y7155714D01*
X34594762Y7108095D01*
X34642381Y7012857D01*
X34642381Y6822380D01*
X34594762Y6727142D01*
X34594762Y8012857D02*
X34642381Y7917619D01*
X34642381Y7727142D01*
X34594762Y7631904D01*
X34499524Y7584285D01*
X34118571Y7584285D01*
X34023333Y7631904D01*
X33975714Y7727142D01*
X33975714Y7917619D01*
X34023333Y8012857D01*
X34118571Y8060476D01*
X34213810Y8060476D01*
X34309048Y7584285D01*
X34642381Y8489047D02*
X33975714Y8489047D01*
X34166190Y8489047D02*
X34070952Y8536666D01*
X34023333Y8584285D01*
X33975714Y8679523D01*
X33975714Y8774762D01*
X36182381Y59876667D02*
X36182381Y60495715D01*
X36563333Y60162381D01*
X36563333Y60305239D01*
X36610952Y60400477D01*
X36658571Y60448096D01*
X36753810Y60495715D01*
X36991905Y60495715D01*
X37087143Y60448096D01*
X37134762Y60400477D01*
X37182381Y60305239D01*
X37182381Y60019524D01*
X37134762Y59924286D01*
X37087143Y59876667D01*
X41262381Y59876667D02*
X41262381Y60495715D01*
X41643333Y60162381D01*
X41643333Y60305239D01*
X41690952Y60400477D01*
X41738571Y60448096D01*
X41833810Y60495715D01*
X42071905Y60495715D01*
X42167143Y60448096D01*
X42214762Y60400477D01*
X42262381Y60305239D01*
X42262381Y60019524D01*
X42214762Y59924286D01*
X42167143Y59876667D01*
X33737619Y1504286D02*
X33690000Y1551905D01*
X33642381Y1647143D01*
X33642381Y1885239D01*
X33690000Y1980477D01*
X33737619Y2028096D01*
X33832857Y2075715D01*
X33928095Y2075715D01*
X34070952Y2028096D01*
X34642381Y1456667D01*
X34642381Y2075715D01*
X37182381Y2075715D02*
X37182381Y1504286D01*
X37182381Y1790000D02*
X36182381Y1790000D01*
X36325238Y1694762D01*
X36420476Y1599524D01*
X36468095Y1504286D01*
X38817619Y1504286D02*
X38770000Y1551905D01*
X38722381Y1647143D01*
X38722381Y1885239D01*
X38770000Y1980477D01*
X38817619Y2028096D01*
X38912857Y2075715D01*
X39008095Y2075715D01*
X39150952Y2028096D01*
X39722381Y1456667D01*
X39722381Y2075715D01*
X42262381Y2075715D02*
X42262381Y1504286D01*
X42262381Y1790000D02*
X41262381Y1790000D01*
X41405238Y1694762D01*
X41500476Y1599524D01*
X41548095Y1504286D01*
X61802381Y2464762D02*
X61326190Y2131428D01*
X61802381Y1893333D02*
X60802381Y1893333D01*
X60802381Y2274286D01*
X60850000Y2369524D01*
X60897619Y2417143D01*
X60992857Y2464762D01*
X61135714Y2464762D01*
X61230952Y2417143D01*
X61278571Y2369524D01*
X61326190Y2274286D01*
X61326190Y1893333D01*
X60802381Y2750476D02*
X61802381Y3083809D01*
X60802381Y3417143D01*
X61802381Y4274286D02*
X61802381Y3702857D01*
X61802381Y3988571D02*
X60802381Y3988571D01*
X60945238Y3893333D01*
X61040476Y3798095D01*
X61088095Y3702857D01*
X55722381Y5012857D02*
X56722381Y5250952D01*
X56008095Y5441429D01*
X56722381Y5631905D01*
X55722381Y5870000D01*
X56722381Y6250952D02*
X56055714Y6250952D01*
X55722381Y6250952D02*
X55770000Y6203333D01*
X55817619Y6250952D01*
X55770000Y6298571D01*
X55722381Y6250952D01*
X55817619Y6250952D01*
X56055714Y6727142D02*
X57055714Y6727142D01*
X56103333Y6727142D02*
X56055714Y6822380D01*
X56055714Y7012857D01*
X56103333Y7108095D01*
X56150952Y7155714D01*
X56246190Y7203333D01*
X56531905Y7203333D01*
X56627143Y7155714D01*
X56674762Y7108095D01*
X56722381Y7012857D01*
X56722381Y6822380D01*
X56674762Y6727142D01*
X56674762Y8012857D02*
X56722381Y7917619D01*
X56722381Y7727142D01*
X56674762Y7631904D01*
X56579524Y7584285D01*
X56198571Y7584285D01*
X56103333Y7631904D01*
X56055714Y7727142D01*
X56055714Y7917619D01*
X56103333Y8012857D01*
X56198571Y8060476D01*
X56293810Y8060476D01*
X56389048Y7584285D01*
X56722381Y8489047D02*
X56055714Y8489047D01*
X56246190Y8489047D02*
X56150952Y8536666D01*
X56103333Y8584285D01*
X56055714Y8679523D01*
X56055714Y8774762D01*
X50642381Y5012857D02*
X51642381Y5250952D01*
X50928095Y5441429D01*
X51642381Y5631905D01*
X50642381Y5870000D01*
X51642381Y6250952D02*
X50975714Y6250952D01*
X50642381Y6250952D02*
X50690000Y6203333D01*
X50737619Y6250952D01*
X50690000Y6298571D01*
X50642381Y6250952D01*
X50737619Y6250952D01*
X50975714Y6727142D02*
X51975714Y6727142D01*
X51023333Y6727142D02*
X50975714Y6822380D01*
X50975714Y7012857D01*
X51023333Y7108095D01*
X51070952Y7155714D01*
X51166190Y7203333D01*
X51451905Y7203333D01*
X51547143Y7155714D01*
X51594762Y7108095D01*
X51642381Y7012857D01*
X51642381Y6822380D01*
X51594762Y6727142D01*
X51594762Y8012857D02*
X51642381Y7917619D01*
X51642381Y7727142D01*
X51594762Y7631904D01*
X51499524Y7584285D01*
X51118571Y7584285D01*
X51023333Y7631904D01*
X50975714Y7727142D01*
X50975714Y7917619D01*
X51023333Y8012857D01*
X51118571Y8060476D01*
X51213810Y8060476D01*
X51309048Y7584285D01*
X51642381Y8489047D02*
X50975714Y8489047D01*
X51166190Y8489047D02*
X51070952Y8536666D01*
X51023333Y8584285D01*
X50975714Y8679523D01*
X50975714Y8774762D01*
X53182381Y59876667D02*
X53182381Y60495715D01*
X53563333Y60162381D01*
X53563333Y60305239D01*
X53610952Y60400477D01*
X53658571Y60448096D01*
X53753810Y60495715D01*
X53991905Y60495715D01*
X54087143Y60448096D01*
X54134762Y60400477D01*
X54182381Y60305239D01*
X54182381Y60019524D01*
X54134762Y59924286D01*
X54087143Y59876667D01*
X58262381Y59876667D02*
X58262381Y60495715D01*
X58643333Y60162381D01*
X58643333Y60305239D01*
X58690952Y60400477D01*
X58738571Y60448096D01*
X58833810Y60495715D01*
X59071905Y60495715D01*
X59167143Y60448096D01*
X59214762Y60400477D01*
X59262381Y60305239D01*
X59262381Y60019524D01*
X59214762Y59924286D01*
X59167143Y59876667D01*
X50737619Y1504286D02*
X50690000Y1551905D01*
X50642381Y1647143D01*
X50642381Y1885239D01*
X50690000Y1980477D01*
X50737619Y2028096D01*
X50832857Y2075715D01*
X50928095Y2075715D01*
X51070952Y2028096D01*
X51642381Y1456667D01*
X51642381Y2075715D01*
X54182381Y2075715D02*
X54182381Y1504286D01*
X54182381Y1790000D02*
X53182381Y1790000D01*
X53325238Y1694762D01*
X53420476Y1599524D01*
X53468095Y1504286D01*
X55817619Y1504286D02*
X55770000Y1551905D01*
X55722381Y1647143D01*
X55722381Y1885239D01*
X55770000Y1980477D01*
X55817619Y2028096D01*
X55912857Y2075715D01*
X56008095Y2075715D01*
X56150952Y2028096D01*
X56722381Y1456667D01*
X56722381Y2075715D01*
X59262381Y2075715D02*
X59262381Y1504286D01*
X59262381Y1790000D02*
X58262381Y1790000D01*
X58405238Y1694762D01*
X58500476Y1599524D01*
X58548095Y1504286D01*
X78802381Y2464762D02*
X78326190Y2131428D01*
X78802381Y1893333D02*
X77802381Y1893333D01*
X77802381Y2274286D01*
X77850000Y2369524D01*
X77897619Y2417143D01*
X77992857Y2464762D01*
X78135714Y2464762D01*
X78230952Y2417143D01*
X78278571Y2369524D01*
X78326190Y2274286D01*
X78326190Y1893333D01*
X77802381Y2750476D02*
X78802381Y3083809D01*
X77802381Y3417143D01*
X77897619Y3702857D02*
X77850000Y3750476D01*
X77802381Y3845714D01*
X77802381Y4083810D01*
X77850000Y4179048D01*
X77897619Y4226667D01*
X77992857Y4274286D01*
X78088095Y4274286D01*
X78230952Y4226667D01*
X78802381Y3655238D01*
X78802381Y4274286D01*
X72722381Y5012857D02*
X73722381Y5250952D01*
X73008095Y5441429D01*
X73722381Y5631905D01*
X72722381Y5870000D01*
X73722381Y6250952D02*
X73055714Y6250952D01*
X72722381Y6250952D02*
X72770000Y6203333D01*
X72817619Y6250952D01*
X72770000Y6298571D01*
X72722381Y6250952D01*
X72817619Y6250952D01*
X73055714Y6727142D02*
X74055714Y6727142D01*
X73103333Y6727142D02*
X73055714Y6822380D01*
X73055714Y7012857D01*
X73103333Y7108095D01*
X73150952Y7155714D01*
X73246190Y7203333D01*
X73531905Y7203333D01*
X73627143Y7155714D01*
X73674762Y7108095D01*
X73722381Y7012857D01*
X73722381Y6822380D01*
X73674762Y6727142D01*
X73674762Y8012857D02*
X73722381Y7917619D01*
X73722381Y7727142D01*
X73674762Y7631904D01*
X73579524Y7584285D01*
X73198571Y7584285D01*
X73103333Y7631904D01*
X73055714Y7727142D01*
X73055714Y7917619D01*
X73103333Y8012857D01*
X73198571Y8060476D01*
X73293810Y8060476D01*
X73389048Y7584285D01*
X73722381Y8489047D02*
X73055714Y8489047D01*
X73246190Y8489047D02*
X73150952Y8536666D01*
X73103333Y8584285D01*
X73055714Y8679523D01*
X73055714Y8774762D01*
X67642381Y5012857D02*
X68642381Y5250952D01*
X67928095Y5441429D01*
X68642381Y5631905D01*
X67642381Y5870000D01*
X68642381Y6250952D02*
X67975714Y6250952D01*
X67642381Y6250952D02*
X67690000Y6203333D01*
X67737619Y6250952D01*
X67690000Y6298571D01*
X67642381Y6250952D01*
X67737619Y6250952D01*
X67975714Y6727142D02*
X68975714Y6727142D01*
X68023333Y6727142D02*
X67975714Y6822380D01*
X67975714Y7012857D01*
X68023333Y7108095D01*
X68070952Y7155714D01*
X68166190Y7203333D01*
X68451905Y7203333D01*
X68547143Y7155714D01*
X68594762Y7108095D01*
X68642381Y7012857D01*
X68642381Y6822380D01*
X68594762Y6727142D01*
X68594762Y8012857D02*
X68642381Y7917619D01*
X68642381Y7727142D01*
X68594762Y7631904D01*
X68499524Y7584285D01*
X68118571Y7584285D01*
X68023333Y7631904D01*
X67975714Y7727142D01*
X67975714Y7917619D01*
X68023333Y8012857D01*
X68118571Y8060476D01*
X68213810Y8060476D01*
X68309048Y7584285D01*
X68642381Y8489047D02*
X67975714Y8489047D01*
X68166190Y8489047D02*
X68070952Y8536666D01*
X68023333Y8584285D01*
X67975714Y8679523D01*
X67975714Y8774762D01*
X70182381Y59876667D02*
X70182381Y60495715D01*
X70563333Y60162381D01*
X70563333Y60305239D01*
X70610952Y60400477D01*
X70658571Y60448096D01*
X70753810Y60495715D01*
X70991905Y60495715D01*
X71087143Y60448096D01*
X71134762Y60400477D01*
X71182381Y60305239D01*
X71182381Y60019524D01*
X71134762Y59924286D01*
X71087143Y59876667D01*
X75262381Y59876667D02*
X75262381Y60495715D01*
X75643333Y60162381D01*
X75643333Y60305239D01*
X75690952Y60400477D01*
X75738571Y60448096D01*
X75833810Y60495715D01*
X76071905Y60495715D01*
X76167143Y60448096D01*
X76214762Y60400477D01*
X76262381Y60305239D01*
X76262381Y60019524D01*
X76214762Y59924286D01*
X76167143Y59876667D01*
X67737619Y1504286D02*
X67690000Y1551905D01*
X67642381Y1647143D01*
X67642381Y1885239D01*
X67690000Y1980477D01*
X67737619Y2028096D01*
X67832857Y2075715D01*
X67928095Y2075715D01*
X68070952Y2028096D01*
X68642381Y1456667D01*
X68642381Y2075715D01*
X71182381Y2075715D02*
X71182381Y1504286D01*
X71182381Y1790000D02*
X70182381Y1790000D01*
X70325238Y1694762D01*
X70420476Y1599524D01*
X70468095Y1504286D01*
X72817619Y1504286D02*
X72770000Y1551905D01*
X72722381Y1647143D01*
X72722381Y1885239D01*
X72770000Y1980477D01*
X72817619Y2028096D01*
X72912857Y2075715D01*
X73008095Y2075715D01*
X73150952Y2028096D01*
X73722381Y1456667D01*
X73722381Y2075715D01*
X76262381Y2075715D02*
X76262381Y1504286D01*
X76262381Y1790000D02*
X75262381Y1790000D01*
X75405238Y1694762D01*
X75500476Y1599524D01*
X75548095Y1504286D01*
X95802381Y2464762D02*
X95326190Y2131428D01*
X95802381Y1893333D02*
X94802381Y1893333D01*
X94802381Y2274286D01*
X94850000Y2369524D01*
X94897619Y2417143D01*
X94992857Y2464762D01*
X95135714Y2464762D01*
X95230952Y2417143D01*
X95278571Y2369524D01*
X95326190Y2274286D01*
X95326190Y1893333D01*
X94802381Y2750476D02*
X95802381Y3083809D01*
X94802381Y3417143D01*
X94802381Y3655238D02*
X94802381Y4274286D01*
X95183333Y3940952D01*
X95183333Y4083810D01*
X95230952Y4179048D01*
X95278571Y4226667D01*
X95373810Y4274286D01*
X95611905Y4274286D01*
X95707143Y4226667D01*
X95754762Y4179048D01*
X95802381Y4083810D01*
X95802381Y3798095D01*
X95754762Y3702857D01*
X95707143Y3655238D01*
X89722381Y5012857D02*
X90722381Y5250952D01*
X90008095Y5441429D01*
X90722381Y5631905D01*
X89722381Y5870000D01*
X90722381Y6250952D02*
X90055714Y6250952D01*
X89722381Y6250952D02*
X89770000Y6203333D01*
X89817619Y6250952D01*
X89770000Y6298571D01*
X89722381Y6250952D01*
X89817619Y6250952D01*
X90055714Y6727142D02*
X91055714Y6727142D01*
X90103333Y6727142D02*
X90055714Y6822380D01*
X90055714Y7012857D01*
X90103333Y7108095D01*
X90150952Y7155714D01*
X90246190Y7203333D01*
X90531905Y7203333D01*
X90627143Y7155714D01*
X90674762Y7108095D01*
X90722381Y7012857D01*
X90722381Y6822380D01*
X90674762Y6727142D01*
X90674762Y8012857D02*
X90722381Y7917619D01*
X90722381Y7727142D01*
X90674762Y7631904D01*
X90579524Y7584285D01*
X90198571Y7584285D01*
X90103333Y7631904D01*
X90055714Y7727142D01*
X90055714Y7917619D01*
X90103333Y8012857D01*
X90198571Y8060476D01*
X90293810Y8060476D01*
X90389048Y7584285D01*
X90722381Y8489047D02*
X90055714Y8489047D01*
X90246190Y8489047D02*
X90150952Y8536666D01*
X90103333Y8584285D01*
X90055714Y8679523D01*
X90055714Y8774762D01*
X84642381Y5012857D02*
X85642381Y5250952D01*
X84928095Y5441429D01*
X85642381Y5631905D01*
X84642381Y5870000D01*
X85642381Y6250952D02*
X84975714Y6250952D01*
X84642381Y6250952D02*
X84690000Y6203333D01*
X84737619Y6250952D01*
X84690000Y6298571D01*
X84642381Y6250952D01*
X84737619Y6250952D01*
X84975714Y6727142D02*
X85975714Y6727142D01*
X85023333Y6727142D02*
X84975714Y6822380D01*
X84975714Y7012857D01*
X85023333Y7108095D01*
X85070952Y7155714D01*
X85166190Y7203333D01*
X85451905Y7203333D01*
X85547143Y7155714D01*
X85594762Y7108095D01*
X85642381Y7012857D01*
X85642381Y6822380D01*
X85594762Y6727142D01*
X85594762Y8012857D02*
X85642381Y7917619D01*
X85642381Y7727142D01*
X85594762Y7631904D01*
X85499524Y7584285D01*
X85118571Y7584285D01*
X85023333Y7631904D01*
X84975714Y7727142D01*
X84975714Y7917619D01*
X85023333Y8012857D01*
X85118571Y8060476D01*
X85213810Y8060476D01*
X85309048Y7584285D01*
X85642381Y8489047D02*
X84975714Y8489047D01*
X85166190Y8489047D02*
X85070952Y8536666D01*
X85023333Y8584285D01*
X84975714Y8679523D01*
X84975714Y8774762D01*
X87182381Y59876667D02*
X87182381Y60495715D01*
X87563333Y60162381D01*
X87563333Y60305239D01*
X87610952Y60400477D01*
X87658571Y60448096D01*
X87753810Y60495715D01*
X87991905Y60495715D01*
X88087143Y60448096D01*
X88134762Y60400477D01*
X88182381Y60305239D01*
X88182381Y60019524D01*
X88134762Y59924286D01*
X88087143Y59876667D01*
X92262381Y59876667D02*
X92262381Y60495715D01*
X92643333Y60162381D01*
X92643333Y60305239D01*
X92690952Y60400477D01*
X92738571Y60448096D01*
X92833810Y60495715D01*
X93071905Y60495715D01*
X93167143Y60448096D01*
X93214762Y60400477D01*
X93262381Y60305239D01*
X93262381Y60019524D01*
X93214762Y59924286D01*
X93167143Y59876667D01*
X84737619Y1504286D02*
X84690000Y1551905D01*
X84642381Y1647143D01*
X84642381Y1885239D01*
X84690000Y1980477D01*
X84737619Y2028096D01*
X84832857Y2075715D01*
X84928095Y2075715D01*
X85070952Y2028096D01*
X85642381Y1456667D01*
X85642381Y2075715D01*
X88182381Y2075715D02*
X88182381Y1504286D01*
X88182381Y1790000D02*
X87182381Y1790000D01*
X87325238Y1694762D01*
X87420476Y1599524D01*
X87468095Y1504286D01*
X89817619Y1504286D02*
X89770000Y1551905D01*
X89722381Y1647143D01*
X89722381Y1885239D01*
X89770000Y1980477D01*
X89817619Y2028096D01*
X89912857Y2075715D01*
X90008095Y2075715D01*
X90150952Y2028096D01*
X90722381Y1456667D01*
X90722381Y2075715D01*
X93262381Y2075715D02*
X93262381Y1504286D01*
X93262381Y1790000D02*
X92262381Y1790000D01*
X92405238Y1694762D01*
X92500476Y1599524D01*
X92548095Y1504286D01*
X112802381Y2464762D02*
X112326190Y2131428D01*
X112802381Y1893333D02*
X111802381Y1893333D01*
X111802381Y2274286D01*
X111850000Y2369524D01*
X111897619Y2417143D01*
X111992857Y2464762D01*
X112135714Y2464762D01*
X112230952Y2417143D01*
X112278571Y2369524D01*
X112326190Y2274286D01*
X112326190Y1893333D01*
X111802381Y2750476D02*
X112802381Y3083809D01*
X111802381Y3417143D01*
X112135714Y4179048D02*
X112802381Y4179048D01*
X111754762Y3940952D02*
X112469048Y3702857D01*
X112469048Y4321905D01*
X106722381Y5012857D02*
X107722381Y5250952D01*
X107008095Y5441429D01*
X107722381Y5631905D01*
X106722381Y5870000D01*
X107722381Y6250952D02*
X107055714Y6250952D01*
X106722381Y6250952D02*
X106770000Y6203333D01*
X106817619Y6250952D01*
X106770000Y6298571D01*
X106722381Y6250952D01*
X106817619Y6250952D01*
X107055714Y6727142D02*
X108055714Y6727142D01*
X107103333Y6727142D02*
X107055714Y6822380D01*
X107055714Y7012857D01*
X107103333Y7108095D01*
X107150952Y7155714D01*
X107246190Y7203333D01*
X107531905Y7203333D01*
X107627143Y7155714D01*
X107674762Y7108095D01*
X107722381Y7012857D01*
X107722381Y6822380D01*
X107674762Y6727142D01*
X107674762Y8012857D02*
X107722381Y7917619D01*
X107722381Y7727142D01*
X107674762Y7631904D01*
X107579524Y7584285D01*
X107198571Y7584285D01*
X107103333Y7631904D01*
X107055714Y7727142D01*
X107055714Y7917619D01*
X107103333Y8012857D01*
X107198571Y8060476D01*
X107293810Y8060476D01*
X107389048Y7584285D01*
X107722381Y8489047D02*
X107055714Y8489047D01*
X107246190Y8489047D02*
X107150952Y8536666D01*
X107103333Y8584285D01*
X107055714Y8679523D01*
X107055714Y8774762D01*
X101642381Y5012857D02*
X102642381Y5250952D01*
X101928095Y5441429D01*
X102642381Y5631905D01*
X101642381Y5870000D01*
X102642381Y6250952D02*
X101975714Y6250952D01*
X101642381Y6250952D02*
X101690000Y6203333D01*
X101737619Y6250952D01*
X101690000Y6298571D01*
X101642381Y6250952D01*
X101737619Y6250952D01*
X101975714Y6727142D02*
X102975714Y6727142D01*
X102023333Y6727142D02*
X101975714Y6822380D01*
X101975714Y7012857D01*
X102023333Y7108095D01*
X102070952Y7155714D01*
X102166190Y7203333D01*
X102451905Y7203333D01*
X102547143Y7155714D01*
X102594762Y7108095D01*
X102642381Y7012857D01*
X102642381Y6822380D01*
X102594762Y6727142D01*
X102594762Y8012857D02*
X102642381Y7917619D01*
X102642381Y7727142D01*
X102594762Y7631904D01*
X102499524Y7584285D01*
X102118571Y7584285D01*
X102023333Y7631904D01*
X101975714Y7727142D01*
X101975714Y7917619D01*
X102023333Y8012857D01*
X102118571Y8060476D01*
X102213810Y8060476D01*
X102309048Y7584285D01*
X102642381Y8489047D02*
X101975714Y8489047D01*
X102166190Y8489047D02*
X102070952Y8536666D01*
X102023333Y8584285D01*
X101975714Y8679523D01*
X101975714Y8774762D01*
X104182381Y59876667D02*
X104182381Y60495715D01*
X104563333Y60162381D01*
X104563333Y60305239D01*
X104610952Y60400477D01*
X104658571Y60448096D01*
X104753810Y60495715D01*
X104991905Y60495715D01*
X105087143Y60448096D01*
X105134762Y60400477D01*
X105182381Y60305239D01*
X105182381Y60019524D01*
X105134762Y59924286D01*
X105087143Y59876667D01*
X109262381Y59876667D02*
X109262381Y60495715D01*
X109643333Y60162381D01*
X109643333Y60305239D01*
X109690952Y60400477D01*
X109738571Y60448096D01*
X109833810Y60495715D01*
X110071905Y60495715D01*
X110167143Y60448096D01*
X110214762Y60400477D01*
X110262381Y60305239D01*
X110262381Y60019524D01*
X110214762Y59924286D01*
X110167143Y59876667D01*
X101737619Y1504286D02*
X101690000Y1551905D01*
X101642381Y1647143D01*
X101642381Y1885239D01*
X101690000Y1980477D01*
X101737619Y2028096D01*
X101832857Y2075715D01*
X101928095Y2075715D01*
X102070952Y2028096D01*
X102642381Y1456667D01*
X102642381Y2075715D01*
X105182381Y2075715D02*
X105182381Y1504286D01*
X105182381Y1790000D02*
X104182381Y1790000D01*
X104325238Y1694762D01*
X104420476Y1599524D01*
X104468095Y1504286D01*
X106817619Y1504286D02*
X106770000Y1551905D01*
X106722381Y1647143D01*
X106722381Y1885239D01*
X106770000Y1980477D01*
X106817619Y2028096D01*
X106912857Y2075715D01*
X107008095Y2075715D01*
X107150952Y2028096D01*
X107722381Y1456667D01*
X107722381Y2075715D01*
X110262381Y2075715D02*
X110262381Y1504286D01*
X110262381Y1790000D02*
X109262381Y1790000D01*
X109405238Y1694762D01*
X109500476Y1599524D01*
X109548095Y1504286D01*
X129802381Y2464762D02*
X129326190Y2131428D01*
X129802381Y1893333D02*
X128802381Y1893333D01*
X128802381Y2274286D01*
X128850000Y2369524D01*
X128897619Y2417143D01*
X128992857Y2464762D01*
X129135714Y2464762D01*
X129230952Y2417143D01*
X129278571Y2369524D01*
X129326190Y2274286D01*
X129326190Y1893333D01*
X128802381Y2750476D02*
X129802381Y3083809D01*
X128802381Y3417143D01*
X128802381Y4226667D02*
X128802381Y3750476D01*
X129278571Y3702857D01*
X129230952Y3750476D01*
X129183333Y3845714D01*
X129183333Y4083810D01*
X129230952Y4179048D01*
X129278571Y4226667D01*
X129373810Y4274286D01*
X129611905Y4274286D01*
X129707143Y4226667D01*
X129754762Y4179048D01*
X129802381Y4083810D01*
X129802381Y3845714D01*
X129754762Y3750476D01*
X129707143Y3702857D01*
X123722381Y5012857D02*
X124722381Y5250952D01*
X124008095Y5441429D01*
X124722381Y5631905D01*
X123722381Y5870000D01*
X124722381Y6250952D02*
X124055714Y6250952D01*
X123722381Y6250952D02*
X123770000Y6203333D01*
X123817619Y6250952D01*
X123770000Y6298571D01*
X123722381Y6250952D01*
X123817619Y6250952D01*
X124055714Y6727142D02*
X125055714Y6727142D01*
X124103333Y6727142D02*
X124055714Y6822380D01*
X124055714Y7012857D01*
X124103333Y7108095D01*
X124150952Y7155714D01*
X124246190Y7203333D01*
X124531905Y7203333D01*
X124627143Y7155714D01*
X124674762Y7108095D01*
X124722381Y7012857D01*
X124722381Y6822380D01*
X124674762Y6727142D01*
X124674762Y8012857D02*
X124722381Y7917619D01*
X124722381Y7727142D01*
X124674762Y7631904D01*
X124579524Y7584285D01*
X124198571Y7584285D01*
X124103333Y7631904D01*
X124055714Y7727142D01*
X124055714Y7917619D01*
X124103333Y8012857D01*
X124198571Y8060476D01*
X124293810Y8060476D01*
X124389048Y7584285D01*
X124722381Y8489047D02*
X124055714Y8489047D01*
X124246190Y8489047D02*
X124150952Y8536666D01*
X124103333Y8584285D01*
X124055714Y8679523D01*
X124055714Y8774762D01*
X118642381Y5012857D02*
X119642381Y5250952D01*
X118928095Y5441429D01*
X119642381Y5631905D01*
X118642381Y5870000D01*
X119642381Y6250952D02*
X118975714Y6250952D01*
X118642381Y6250952D02*
X118690000Y6203333D01*
X118737619Y6250952D01*
X118690000Y6298571D01*
X118642381Y6250952D01*
X118737619Y6250952D01*
X118975714Y6727142D02*
X119975714Y6727142D01*
X119023333Y6727142D02*
X118975714Y6822380D01*
X118975714Y7012857D01*
X119023333Y7108095D01*
X119070952Y7155714D01*
X119166190Y7203333D01*
X119451905Y7203333D01*
X119547143Y7155714D01*
X119594762Y7108095D01*
X119642381Y7012857D01*
X119642381Y6822380D01*
X119594762Y6727142D01*
X119594762Y8012857D02*
X119642381Y7917619D01*
X119642381Y7727142D01*
X119594762Y7631904D01*
X119499524Y7584285D01*
X119118571Y7584285D01*
X119023333Y7631904D01*
X118975714Y7727142D01*
X118975714Y7917619D01*
X119023333Y8012857D01*
X119118571Y8060476D01*
X119213810Y8060476D01*
X119309048Y7584285D01*
X119642381Y8489047D02*
X118975714Y8489047D01*
X119166190Y8489047D02*
X119070952Y8536666D01*
X119023333Y8584285D01*
X118975714Y8679523D01*
X118975714Y8774762D01*
X121182381Y59876667D02*
X121182381Y60495715D01*
X121563333Y60162381D01*
X121563333Y60305239D01*
X121610952Y60400477D01*
X121658571Y60448096D01*
X121753810Y60495715D01*
X121991905Y60495715D01*
X122087143Y60448096D01*
X122134762Y60400477D01*
X122182381Y60305239D01*
X122182381Y60019524D01*
X122134762Y59924286D01*
X122087143Y59876667D01*
X126262381Y59876667D02*
X126262381Y60495715D01*
X126643333Y60162381D01*
X126643333Y60305239D01*
X126690952Y60400477D01*
X126738571Y60448096D01*
X126833810Y60495715D01*
X127071905Y60495715D01*
X127167143Y60448096D01*
X127214762Y60400477D01*
X127262381Y60305239D01*
X127262381Y60019524D01*
X127214762Y59924286D01*
X127167143Y59876667D01*
X118737619Y1504286D02*
X118690000Y1551905D01*
X118642381Y1647143D01*
X118642381Y1885239D01*
X118690000Y1980477D01*
X118737619Y2028096D01*
X118832857Y2075715D01*
X118928095Y2075715D01*
X119070952Y2028096D01*
X119642381Y1456667D01*
X119642381Y2075715D01*
X122182381Y2075715D02*
X122182381Y1504286D01*
X122182381Y1790000D02*
X121182381Y1790000D01*
X121325238Y1694762D01*
X121420476Y1599524D01*
X121468095Y1504286D01*
X123817619Y1504286D02*
X123770000Y1551905D01*
X123722381Y1647143D01*
X123722381Y1885239D01*
X123770000Y1980477D01*
X123817619Y2028096D01*
X123912857Y2075715D01*
X124008095Y2075715D01*
X124150952Y2028096D01*
X124722381Y1456667D01*
X124722381Y2075715D01*
X127262381Y2075715D02*
X127262381Y1504286D01*
X127262381Y1790000D02*
X126262381Y1790000D01*
X126405238Y1694762D01*
X126500476Y1599524D01*
X126548095Y1504286D01*
X146802381Y2464762D02*
X146326190Y2131428D01*
X146802381Y1893333D02*
X145802381Y1893333D01*
X145802381Y2274286D01*
X145850000Y2369524D01*
X145897619Y2417143D01*
X145992857Y2464762D01*
X146135714Y2464762D01*
X146230952Y2417143D01*
X146278571Y2369524D01*
X146326190Y2274286D01*
X146326190Y1893333D01*
X145802381Y2750476D02*
X146802381Y3083809D01*
X145802381Y3417143D01*
X145802381Y4179048D02*
X145802381Y3988571D01*
X145850000Y3893333D01*
X145897619Y3845714D01*
X146040476Y3750476D01*
X146230952Y3702857D01*
X146611905Y3702857D01*
X146707143Y3750476D01*
X146754762Y3798095D01*
X146802381Y3893333D01*
X146802381Y4083810D01*
X146754762Y4179048D01*
X146707143Y4226667D01*
X146611905Y4274286D01*
X146373810Y4274286D01*
X146278571Y4226667D01*
X146230952Y4179048D01*
X146183333Y4083810D01*
X146183333Y3893333D01*
X146230952Y3798095D01*
X146278571Y3750476D01*
X146373810Y3702857D01*
X140722381Y5012857D02*
X141722381Y5250952D01*
X141008095Y5441429D01*
X141722381Y5631905D01*
X140722381Y5870000D01*
X141722381Y6250952D02*
X141055714Y6250952D01*
X140722381Y6250952D02*
X140770000Y6203333D01*
X140817619Y6250952D01*
X140770000Y6298571D01*
X140722381Y6250952D01*
X140817619Y6250952D01*
X141055714Y6727142D02*
X142055714Y6727142D01*
X141103333Y6727142D02*
X141055714Y6822380D01*
X141055714Y7012857D01*
X141103333Y7108095D01*
X141150952Y7155714D01*
X141246190Y7203333D01*
X141531905Y7203333D01*
X141627143Y7155714D01*
X141674762Y7108095D01*
X141722381Y7012857D01*
X141722381Y6822380D01*
X141674762Y6727142D01*
X141674762Y8012857D02*
X141722381Y7917619D01*
X141722381Y7727142D01*
X141674762Y7631904D01*
X141579524Y7584285D01*
X141198571Y7584285D01*
X141103333Y7631904D01*
X141055714Y7727142D01*
X141055714Y7917619D01*
X141103333Y8012857D01*
X141198571Y8060476D01*
X141293810Y8060476D01*
X141389048Y7584285D01*
X141722381Y8489047D02*
X141055714Y8489047D01*
X141246190Y8489047D02*
X141150952Y8536666D01*
X141103333Y8584285D01*
X141055714Y8679523D01*
X141055714Y8774762D01*
X135642381Y5012857D02*
X136642381Y5250952D01*
X135928095Y5441429D01*
X136642381Y5631905D01*
X135642381Y5870000D01*
X136642381Y6250952D02*
X135975714Y6250952D01*
X135642381Y6250952D02*
X135690000Y6203333D01*
X135737619Y6250952D01*
X135690000Y6298571D01*
X135642381Y6250952D01*
X135737619Y6250952D01*
X135975714Y6727142D02*
X136975714Y6727142D01*
X136023333Y6727142D02*
X135975714Y6822380D01*
X135975714Y7012857D01*
X136023333Y7108095D01*
X136070952Y7155714D01*
X136166190Y7203333D01*
X136451905Y7203333D01*
X136547143Y7155714D01*
X136594762Y7108095D01*
X136642381Y7012857D01*
X136642381Y6822380D01*
X136594762Y6727142D01*
X136594762Y8012857D02*
X136642381Y7917619D01*
X136642381Y7727142D01*
X136594762Y7631904D01*
X136499524Y7584285D01*
X136118571Y7584285D01*
X136023333Y7631904D01*
X135975714Y7727142D01*
X135975714Y7917619D01*
X136023333Y8012857D01*
X136118571Y8060476D01*
X136213810Y8060476D01*
X136309048Y7584285D01*
X136642381Y8489047D02*
X135975714Y8489047D01*
X136166190Y8489047D02*
X136070952Y8536666D01*
X136023333Y8584285D01*
X135975714Y8679523D01*
X135975714Y8774762D01*
X138182381Y59876667D02*
X138182381Y60495715D01*
X138563333Y60162381D01*
X138563333Y60305239D01*
X138610952Y60400477D01*
X138658571Y60448096D01*
X138753810Y60495715D01*
X138991905Y60495715D01*
X139087143Y60448096D01*
X139134762Y60400477D01*
X139182381Y60305239D01*
X139182381Y60019524D01*
X139134762Y59924286D01*
X139087143Y59876667D01*
X143262381Y59876667D02*
X143262381Y60495715D01*
X143643333Y60162381D01*
X143643333Y60305239D01*
X143690952Y60400477D01*
X143738571Y60448096D01*
X143833810Y60495715D01*
X144071905Y60495715D01*
X144167143Y60448096D01*
X144214762Y60400477D01*
X144262381Y60305239D01*
X144262381Y60019524D01*
X144214762Y59924286D01*
X144167143Y59876667D01*
X135737619Y1504286D02*
X135690000Y1551905D01*
X135642381Y1647143D01*
X135642381Y1885239D01*
X135690000Y1980477D01*
X135737619Y2028096D01*
X135832857Y2075715D01*
X135928095Y2075715D01*
X136070952Y2028096D01*
X136642381Y1456667D01*
X136642381Y2075715D01*
X139182381Y2075715D02*
X139182381Y1504286D01*
X139182381Y1790000D02*
X138182381Y1790000D01*
X138325238Y1694762D01*
X138420476Y1599524D01*
X138468095Y1504286D01*
X140817619Y1504286D02*
X140770000Y1551905D01*
X140722381Y1647143D01*
X140722381Y1885239D01*
X140770000Y1980477D01*
X140817619Y2028096D01*
X140912857Y2075715D01*
X141008095Y2075715D01*
X141150952Y2028096D01*
X141722381Y1456667D01*
X141722381Y2075715D01*
X144262381Y2075715D02*
X144262381Y1504286D01*
X144262381Y1790000D02*
X143262381Y1790000D01*
X143405238Y1694762D01*
X143500476Y1599524D01*
X143548095Y1504286D01*
X163802381Y2464762D02*
X163326190Y2131428D01*
X163802381Y1893333D02*
X162802381Y1893333D01*
X162802381Y2274286D01*
X162850000Y2369524D01*
X162897619Y2417143D01*
X162992857Y2464762D01*
X163135714Y2464762D01*
X163230952Y2417143D01*
X163278571Y2369524D01*
X163326190Y2274286D01*
X163326190Y1893333D01*
X162802381Y2750476D02*
X163802381Y3083809D01*
X162802381Y3417143D01*
X162802381Y3655238D02*
X162802381Y4321905D01*
X163802381Y3893333D01*
X157722381Y5012857D02*
X158722381Y5250952D01*
X158008095Y5441429D01*
X158722381Y5631905D01*
X157722381Y5870000D01*
X158722381Y6250952D02*
X158055714Y6250952D01*
X157722381Y6250952D02*
X157770000Y6203333D01*
X157817619Y6250952D01*
X157770000Y6298571D01*
X157722381Y6250952D01*
X157817619Y6250952D01*
X158055714Y6727142D02*
X159055714Y6727142D01*
X158103333Y6727142D02*
X158055714Y6822380D01*
X158055714Y7012857D01*
X158103333Y7108095D01*
X158150952Y7155714D01*
X158246190Y7203333D01*
X158531905Y7203333D01*
X158627143Y7155714D01*
X158674762Y7108095D01*
X158722381Y7012857D01*
X158722381Y6822380D01*
X158674762Y6727142D01*
X158674762Y8012857D02*
X158722381Y7917619D01*
X158722381Y7727142D01*
X158674762Y7631904D01*
X158579524Y7584285D01*
X158198571Y7584285D01*
X158103333Y7631904D01*
X158055714Y7727142D01*
X158055714Y7917619D01*
X158103333Y8012857D01*
X158198571Y8060476D01*
X158293810Y8060476D01*
X158389048Y7584285D01*
X158722381Y8489047D02*
X158055714Y8489047D01*
X158246190Y8489047D02*
X158150952Y8536666D01*
X158103333Y8584285D01*
X158055714Y8679523D01*
X158055714Y8774762D01*
X152642381Y5012857D02*
X153642381Y5250952D01*
X152928095Y5441429D01*
X153642381Y5631905D01*
X152642381Y5870000D01*
X153642381Y6250952D02*
X152975714Y6250952D01*
X152642381Y6250952D02*
X152690000Y6203333D01*
X152737619Y6250952D01*
X152690000Y6298571D01*
X152642381Y6250952D01*
X152737619Y6250952D01*
X152975714Y6727142D02*
X153975714Y6727142D01*
X153023333Y6727142D02*
X152975714Y6822380D01*
X152975714Y7012857D01*
X153023333Y7108095D01*
X153070952Y7155714D01*
X153166190Y7203333D01*
X153451905Y7203333D01*
X153547143Y7155714D01*
X153594762Y7108095D01*
X153642381Y7012857D01*
X153642381Y6822380D01*
X153594762Y6727142D01*
X153594762Y8012857D02*
X153642381Y7917619D01*
X153642381Y7727142D01*
X153594762Y7631904D01*
X153499524Y7584285D01*
X153118571Y7584285D01*
X153023333Y7631904D01*
X152975714Y7727142D01*
X152975714Y7917619D01*
X153023333Y8012857D01*
X153118571Y8060476D01*
X153213810Y8060476D01*
X153309048Y7584285D01*
X153642381Y8489047D02*
X152975714Y8489047D01*
X153166190Y8489047D02*
X153070952Y8536666D01*
X153023333Y8584285D01*
X152975714Y8679523D01*
X152975714Y8774762D01*
X155182381Y59876667D02*
X155182381Y60495715D01*
X155563333Y60162381D01*
X155563333Y60305239D01*
X155610952Y60400477D01*
X155658571Y60448096D01*
X155753810Y60495715D01*
X155991905Y60495715D01*
X156087143Y60448096D01*
X156134762Y60400477D01*
X156182381Y60305239D01*
X156182381Y60019524D01*
X156134762Y59924286D01*
X156087143Y59876667D01*
X160262381Y59876667D02*
X160262381Y60495715D01*
X160643333Y60162381D01*
X160643333Y60305239D01*
X160690952Y60400477D01*
X160738571Y60448096D01*
X160833810Y60495715D01*
X161071905Y60495715D01*
X161167143Y60448096D01*
X161214762Y60400477D01*
X161262381Y60305239D01*
X161262381Y60019524D01*
X161214762Y59924286D01*
X161167143Y59876667D01*
X152737619Y1504286D02*
X152690000Y1551905D01*
X152642381Y1647143D01*
X152642381Y1885239D01*
X152690000Y1980477D01*
X152737619Y2028096D01*
X152832857Y2075715D01*
X152928095Y2075715D01*
X153070952Y2028096D01*
X153642381Y1456667D01*
X153642381Y2075715D01*
X156182381Y2075715D02*
X156182381Y1504286D01*
X156182381Y1790000D02*
X155182381Y1790000D01*
X155325238Y1694762D01*
X155420476Y1599524D01*
X155468095Y1504286D01*
X157817619Y1504286D02*
X157770000Y1551905D01*
X157722381Y1647143D01*
X157722381Y1885239D01*
X157770000Y1980477D01*
X157817619Y2028096D01*
X157912857Y2075715D01*
X158008095Y2075715D01*
X158150952Y2028096D01*
X158722381Y1456667D01*
X158722381Y2075715D01*
X161262381Y2075715D02*
X161262381Y1504286D01*
X161262381Y1790000D02*
X160262381Y1790000D01*
X160405238Y1694762D01*
X160500476Y1599524D01*
X160548095Y1504286D01*
X634667Y52024619D02*
X634667Y51310333D01*
X587047Y51167476D01*
X491809Y51072238D01*
X348952Y51024619D01*
X253714Y51024619D01*
X1634667Y51024619D02*
X1063238Y51024619D01*
X1348952Y51024619D02*
X1348952Y52024619D01*
X1253714Y51881762D01*
X1158476Y51786524D01*
X1063238Y51738905D01*
X11501381Y39539524D02*
X10501381Y39539524D01*
X11501381Y40110953D01*
X10501381Y40110953D01*
X10501381Y40777619D02*
X10501381Y40968096D01*
X10549000Y41063334D01*
X10644238Y41158572D01*
X10834714Y41206191D01*
X11168048Y41206191D01*
X11358524Y41158572D01*
X11453762Y41063334D01*
X11501381Y40968096D01*
X11501381Y40777619D01*
X11453762Y40682381D01*
X11358524Y40587143D01*
X11168048Y40539524D01*
X10834714Y40539524D01*
X10644238Y40587143D01*
X10549000Y40682381D01*
X10501381Y40777619D01*
X10501381Y41491905D02*
X10501381Y42063334D01*
X11501381Y41777619D02*
X10501381Y41777619D01*
X10501381Y43158572D02*
X11310905Y43158572D01*
X11406143Y43206191D01*
X11453762Y43253810D01*
X11501381Y43349048D01*
X11501381Y43539525D01*
X11453762Y43634763D01*
X11406143Y43682382D01*
X11310905Y43730001D01*
X10501381Y43730001D01*
X11453762Y44158572D02*
X11501381Y44301429D01*
X11501381Y44539525D01*
X11453762Y44634763D01*
X11406143Y44682382D01*
X11310905Y44730001D01*
X11215667Y44730001D01*
X11120429Y44682382D01*
X11072810Y44634763D01*
X11025190Y44539525D01*
X10977571Y44349048D01*
X10929952Y44253810D01*
X10882333Y44206191D01*
X10787095Y44158572D01*
X10691857Y44158572D01*
X10596619Y44206191D01*
X10549000Y44253810D01*
X10501381Y44349048D01*
X10501381Y44587144D01*
X10549000Y44730001D01*
X10977571Y45491906D02*
X11025190Y45634763D01*
X11072810Y45682382D01*
X11168048Y45730001D01*
X11310905Y45730001D01*
X11406143Y45682382D01*
X11453762Y45634763D01*
X11501381Y45539525D01*
X11501381Y45158572D01*
X10501381Y45158572D01*
X10501381Y45491906D01*
X10549000Y45587144D01*
X10596619Y45634763D01*
X10691857Y45682382D01*
X10787095Y45682382D01*
X10882333Y45634763D01*
X10929952Y45587144D01*
X10977571Y45491906D01*
X10977571Y45158572D01*
X11120429Y46158572D02*
X11120429Y46920477D01*
X11406143Y47968096D02*
X11453762Y47920477D01*
X11501381Y47777620D01*
X11501381Y47682382D01*
X11453762Y47539524D01*
X11358524Y47444286D01*
X11263286Y47396667D01*
X11072810Y47349048D01*
X10929952Y47349048D01*
X10739476Y47396667D01*
X10644238Y47444286D01*
X10549000Y47539524D01*
X10501381Y47682382D01*
X10501381Y47777620D01*
X10549000Y47920477D01*
X10596619Y47968096D01*
X310905Y38238333D02*
X787096Y38238333D01*
X215667Y37952619D02*
X549000Y38952619D01*
X882334Y37952619D01*
X1215667Y37952619D02*
X1215667Y38952619D01*
X1549001Y38238333D01*
X1882334Y38952619D01*
X1882334Y37952619D01*
X2358524Y37952619D02*
X2358524Y38952619D01*
X2739477Y38952619D01*
X2834715Y38905000D01*
X2882334Y38857381D01*
X2929953Y38762143D01*
X2929953Y38619286D01*
X2882334Y38524048D01*
X2834715Y38476429D01*
X2739477Y38428810D01*
X2358524Y38428810D01*
X3358524Y37952619D02*
X3358524Y38952619D01*
X3358524Y38476429D02*
X3929953Y38476429D01*
X3929953Y37952619D02*
X3929953Y38952619D01*
X4406143Y38476429D02*
X4739477Y38476429D01*
X4882334Y37952619D02*
X4406143Y37952619D01*
X4406143Y38952619D01*
X4882334Y38952619D01*
X5310905Y37952619D02*
X5310905Y38952619D01*
X5882334Y37952619D01*
X5882334Y38952619D01*
X6549000Y38952619D02*
X6739477Y38952619D01*
X6834715Y38905000D01*
X6929953Y38809762D01*
X6977572Y38619286D01*
X6977572Y38285952D01*
X6929953Y38095476D01*
X6834715Y38000238D01*
X6739477Y37952619D01*
X6549000Y37952619D01*
X6453762Y38000238D01*
X6358524Y38095476D01*
X6310905Y38285952D01*
X6310905Y38619286D01*
X6358524Y38809762D01*
X6453762Y38905000D01*
X6549000Y38952619D01*
X7882334Y37952619D02*
X7406143Y37952619D01*
X7406143Y38952619D01*
X668048Y36452619D02*
X96619Y36452619D01*
X382333Y36452619D02*
X382333Y37452619D01*
X287095Y37309762D01*
X191857Y37214524D01*
X96619Y37166905D01*
X1049000Y37357381D02*
X1096619Y37405000D01*
X1191857Y37452619D01*
X1429953Y37452619D01*
X1525191Y37405000D01*
X1572810Y37357381D01*
X1620429Y37262143D01*
X1620429Y37166905D01*
X1572810Y37024048D01*
X1001381Y36452619D01*
X1620429Y36452619D01*
X2477572Y37119286D02*
X2477572Y36452619D01*
X2239476Y37500238D02*
X2001381Y36785952D01*
X2620429Y36785952D01*
X3191857Y37452619D02*
X3287096Y37452619D01*
X3382334Y37405000D01*
X3429953Y37357381D01*
X3477572Y37262143D01*
X3525191Y37071667D01*
X3525191Y36833571D01*
X3477572Y36643095D01*
X3429953Y36547857D01*
X3382334Y36500238D01*
X3287096Y36452619D01*
X3191857Y36452619D01*
X3096619Y36500238D01*
X3049000Y36547857D01*
X3001381Y36643095D01*
X2953762Y36833571D01*
X2953762Y37071667D01*
X3001381Y37262143D01*
X3049000Y37357381D01*
X3096619Y37405000D01*
X3191857Y37452619D01*
X4477572Y36452619D02*
X3906143Y36452619D01*
X4191857Y36452619D02*
X4191857Y37452619D01*
X4096619Y37309762D01*
X4001381Y37214524D01*
X3906143Y37166905D01*
X5334715Y37452619D02*
X5144238Y37452619D01*
X5049000Y37405000D01*
X5001381Y37357381D01*
X4906143Y37214524D01*
X4858524Y37024048D01*
X4858524Y36643095D01*
X4906143Y36547857D01*
X4953762Y36500238D01*
X5049000Y36452619D01*
X5239477Y36452619D01*
X5334715Y36500238D01*
X5382334Y36547857D01*
X5429953Y36643095D01*
X5429953Y36881190D01*
X5382334Y36976429D01*
X5334715Y37024048D01*
X5239477Y37071667D01*
X5049000Y37071667D01*
X4953762Y37024048D01*
X4906143Y36976429D01*
X4858524Y36881190D01*
X6382334Y36452619D02*
X5810905Y36452619D01*
X6096619Y36452619D02*
X6096619Y37452619D01*
X6001381Y37309762D01*
X5906143Y37214524D01*
X5810905Y37166905D01*
X7001381Y37452619D02*
X7096620Y37452619D01*
X7191858Y37405000D01*
X7239477Y37357381D01*
X7287096Y37262143D01*
X7334715Y37071667D01*
X7334715Y36833571D01*
X7287096Y36643095D01*
X7239477Y36547857D01*
X7191858Y36500238D01*
X7096620Y36452619D01*
X7001381Y36452619D01*
X6906143Y36500238D01*
X6858524Y36547857D01*
X6810905Y36643095D01*
X6763286Y36833571D01*
X6763286Y37071667D01*
X6810905Y37262143D01*
X6858524Y37357381D01*
X6906143Y37405000D01*
X7001381Y37452619D01*
X7763286Y36976429D02*
X8096620Y36976429D01*
X8239477Y36452619D02*
X7763286Y36452619D01*
X7763286Y37452619D01*
X8239477Y37452619D01*
X9096620Y37119286D02*
X9096620Y36452619D01*
X8858524Y37500238D02*
X8620429Y36785952D01*
X9239477Y36785952D01*
X9572810Y37119286D02*
X10287096Y37119286D01*
X9858524Y37547857D02*
X9572810Y36262143D01*
X10191858Y36690714D02*
X9477572Y36690714D01*
X9906144Y36262143D02*
X10191858Y37547857D01*
X10572810Y37357381D02*
X10620429Y37405000D01*
X10715667Y37452619D01*
X10953763Y37452619D01*
X11049001Y37405000D01*
X11096620Y37357381D01*
X11144239Y37262143D01*
X11144239Y37166905D01*
X11096620Y37024048D01*
X10525191Y36452619D01*
X11144239Y36452619D01*
X11525191Y36738333D02*
X12001382Y36738333D01*
X11429953Y36452619D02*
X11763286Y37452619D01*
X12096620Y36452619D01*
X2668048Y51952619D02*
X2668048Y51143095D01*
X2715667Y51047857D01*
X2763286Y51000238D01*
X2858524Y50952619D01*
X3049001Y50952619D01*
X3144239Y51000238D01*
X3191858Y51047857D01*
X3239477Y51143095D01*
X3239477Y51952619D01*
X3668048Y51000238D02*
X3810905Y50952619D01*
X4049001Y50952619D01*
X4144239Y51000238D01*
X4191858Y51047857D01*
X4239477Y51143095D01*
X4239477Y51238333D01*
X4191858Y51333571D01*
X4144239Y51381190D01*
X4049001Y51428810D01*
X3858524Y51476429D01*
X3763286Y51524048D01*
X3715667Y51571667D01*
X3668048Y51666905D01*
X3668048Y51762143D01*
X3715667Y51857381D01*
X3763286Y51905000D01*
X3858524Y51952619D01*
X4096620Y51952619D01*
X4239477Y51905000D01*
X5001382Y51476429D02*
X5144239Y51428810D01*
X5191858Y51381190D01*
X5239477Y51285952D01*
X5239477Y51143095D01*
X5191858Y51047857D01*
X5144239Y51000238D01*
X5049001Y50952619D01*
X4668048Y50952619D01*
X4668048Y51952619D01*
X5001382Y51952619D01*
X5096620Y51905000D01*
X5144239Y51857381D01*
X5191858Y51762143D01*
X5191858Y51666905D01*
X5144239Y51571667D01*
X5096620Y51524048D01*
X5001382Y51476429D01*
X4668048Y51476429D01*
X5668048Y51333571D02*
X6429953Y51333571D01*
X6906143Y50952619D02*
X6906143Y51952619D01*
X7477572Y50952619D02*
X7049000Y51524048D01*
X7477572Y51952619D02*
X6906143Y51381190D01*
D11*
X29896190Y47151191D02*
X29396190Y47151191D01*
X29753333Y47317857D01*
X29396190Y47484524D01*
X29896190Y47484524D01*
X29896190Y47722620D02*
X29396190Y47722620D01*
X29872381Y47936905D02*
X29896190Y48008334D01*
X29896190Y48127381D01*
X29872381Y48175000D01*
X29848571Y48198810D01*
X29800952Y48222619D01*
X29753333Y48222619D01*
X29705714Y48198810D01*
X29681905Y48175000D01*
X29658095Y48127381D01*
X29634286Y48032143D01*
X29610476Y47984524D01*
X29586667Y47960715D01*
X29539048Y47936905D01*
X29491429Y47936905D01*
X29443810Y47960715D01*
X29420000Y47984524D01*
X29396190Y48032143D01*
X29396190Y48151191D01*
X29420000Y48222619D01*
X29396190Y48532143D02*
X29396190Y48627381D01*
X29420000Y48675000D01*
X29467619Y48722619D01*
X29562857Y48746428D01*
X29729524Y48746428D01*
X29824762Y48722619D01*
X29872381Y48675000D01*
X29896190Y48627381D01*
X29896190Y48532143D01*
X29872381Y48484524D01*
X29824762Y48436905D01*
X29729524Y48413095D01*
X29562857Y48413095D01*
X29467619Y48436905D01*
X29420000Y48484524D01*
X29396190Y48532143D01*
X29396190Y49055953D02*
X29396190Y49103572D01*
X29420000Y49151191D01*
X29443810Y49175000D01*
X29491429Y49198810D01*
X29586667Y49222619D01*
X29705714Y49222619D01*
X29800952Y49198810D01*
X29848571Y49175000D01*
X29872381Y49151191D01*
X29896190Y49103572D01*
X29896190Y49055953D01*
X29872381Y49008334D01*
X29848571Y48984524D01*
X29800952Y48960715D01*
X29705714Y48936905D01*
X29586667Y48936905D01*
X29491429Y48960715D01*
X29443810Y48984524D01*
X29420000Y49008334D01*
X29396190Y49055953D01*
X9838190Y50949287D02*
X9838190Y51235001D01*
X10338190Y51092144D02*
X9838190Y51092144D01*
X10076286Y51401668D02*
X10076286Y51568334D01*
X10338190Y51639763D02*
X10338190Y51401668D01*
X9838190Y51401668D01*
X9838190Y51639763D01*
X10314381Y51830239D02*
X10338190Y51901668D01*
X10338190Y52020715D01*
X10314381Y52068334D01*
X10290571Y52092144D01*
X10242952Y52115953D01*
X10195333Y52115953D01*
X10147714Y52092144D01*
X10123905Y52068334D01*
X10100095Y52020715D01*
X10076286Y51925477D01*
X10052476Y51877858D01*
X10028667Y51854049D01*
X9981048Y51830239D01*
X9933429Y51830239D01*
X9885810Y51854049D01*
X9862000Y51877858D01*
X9838190Y51925477D01*
X9838190Y52044525D01*
X9862000Y52115953D01*
X9838190Y52258810D02*
X9838190Y52544524D01*
X10338190Y52401667D02*
X9838190Y52401667D01*
X9838190Y52806429D02*
X9838190Y52854048D01*
X9862000Y52901667D01*
X9885810Y52925476D01*
X9933429Y52949286D01*
X10028667Y52973095D01*
X10147714Y52973095D01*
X10242952Y52949286D01*
X10290571Y52925476D01*
X10314381Y52901667D01*
X10338190Y52854048D01*
X10338190Y52806429D01*
X10314381Y52758810D01*
X10290571Y52735000D01*
X10242952Y52711191D01*
X10147714Y52687381D01*
X10028667Y52687381D01*
X9933429Y52711191D01*
X9885810Y52735000D01*
X9862000Y52758810D01*
X9838190Y52806429D01*
X14156190Y47139287D02*
X14156190Y47425001D01*
X14656190Y47282144D02*
X14156190Y47282144D01*
X14394286Y47591668D02*
X14394286Y47758334D01*
X14656190Y47829763D02*
X14656190Y47591668D01*
X14156190Y47591668D01*
X14156190Y47829763D01*
X14632381Y48020239D02*
X14656190Y48091668D01*
X14656190Y48210715D01*
X14632381Y48258334D01*
X14608571Y48282144D01*
X14560952Y48305953D01*
X14513333Y48305953D01*
X14465714Y48282144D01*
X14441905Y48258334D01*
X14418095Y48210715D01*
X14394286Y48115477D01*
X14370476Y48067858D01*
X14346667Y48044049D01*
X14299048Y48020239D01*
X14251429Y48020239D01*
X14203810Y48044049D01*
X14180000Y48067858D01*
X14156190Y48115477D01*
X14156190Y48234525D01*
X14180000Y48305953D01*
X14156190Y48448810D02*
X14156190Y48734524D01*
X14656190Y48591667D02*
X14156190Y48591667D01*
X14656190Y49163095D02*
X14656190Y48877381D01*
X14656190Y49020238D02*
X14156190Y49020238D01*
X14227619Y48972619D01*
X14275238Y48925000D01*
X14299048Y48877381D01*
X16696190Y47139287D02*
X16696190Y47425001D01*
X17196190Y47282144D02*
X16696190Y47282144D01*
X16934286Y47591668D02*
X16934286Y47758334D01*
X17196190Y47829763D02*
X17196190Y47591668D01*
X16696190Y47591668D01*
X16696190Y47829763D01*
X17172381Y48020239D02*
X17196190Y48091668D01*
X17196190Y48210715D01*
X17172381Y48258334D01*
X17148571Y48282144D01*
X17100952Y48305953D01*
X17053333Y48305953D01*
X17005714Y48282144D01*
X16981905Y48258334D01*
X16958095Y48210715D01*
X16934286Y48115477D01*
X16910476Y48067858D01*
X16886667Y48044049D01*
X16839048Y48020239D01*
X16791429Y48020239D01*
X16743810Y48044049D01*
X16720000Y48067858D01*
X16696190Y48115477D01*
X16696190Y48234525D01*
X16720000Y48305953D01*
X16696190Y48448810D02*
X16696190Y48734524D01*
X17196190Y48591667D02*
X16696190Y48591667D01*
X16743810Y48877381D02*
X16720000Y48901191D01*
X16696190Y48948810D01*
X16696190Y49067857D01*
X16720000Y49115476D01*
X16743810Y49139286D01*
X16791429Y49163095D01*
X16839048Y49163095D01*
X16910476Y49139286D01*
X17196190Y48853572D01*
X17196190Y49163095D01*
X19236190Y47139287D02*
X19236190Y47425001D01*
X19736190Y47282144D02*
X19236190Y47282144D01*
X19474286Y47591668D02*
X19474286Y47758334D01*
X19736190Y47829763D02*
X19736190Y47591668D01*
X19236190Y47591668D01*
X19236190Y47829763D01*
X19712381Y48020239D02*
X19736190Y48091668D01*
X19736190Y48210715D01*
X19712381Y48258334D01*
X19688571Y48282144D01*
X19640952Y48305953D01*
X19593333Y48305953D01*
X19545714Y48282144D01*
X19521905Y48258334D01*
X19498095Y48210715D01*
X19474286Y48115477D01*
X19450476Y48067858D01*
X19426667Y48044049D01*
X19379048Y48020239D01*
X19331429Y48020239D01*
X19283810Y48044049D01*
X19260000Y48067858D01*
X19236190Y48115477D01*
X19236190Y48234525D01*
X19260000Y48305953D01*
X19236190Y48448810D02*
X19236190Y48734524D01*
X19736190Y48591667D02*
X19236190Y48591667D01*
X19236190Y48853572D02*
X19236190Y49163095D01*
X19426667Y48996429D01*
X19426667Y49067857D01*
X19450476Y49115476D01*
X19474286Y49139286D01*
X19521905Y49163095D01*
X19640952Y49163095D01*
X19688571Y49139286D01*
X19712381Y49115476D01*
X19736190Y49067857D01*
X19736190Y48925000D01*
X19712381Y48877381D01*
X19688571Y48853572D01*
X21776190Y47139287D02*
X21776190Y47425001D01*
X22276190Y47282144D02*
X21776190Y47282144D01*
X22014286Y47591668D02*
X22014286Y47758334D01*
X22276190Y47829763D02*
X22276190Y47591668D01*
X21776190Y47591668D01*
X21776190Y47829763D01*
X22252381Y48020239D02*
X22276190Y48091668D01*
X22276190Y48210715D01*
X22252381Y48258334D01*
X22228571Y48282144D01*
X22180952Y48305953D01*
X22133333Y48305953D01*
X22085714Y48282144D01*
X22061905Y48258334D01*
X22038095Y48210715D01*
X22014286Y48115477D01*
X21990476Y48067858D01*
X21966667Y48044049D01*
X21919048Y48020239D01*
X21871429Y48020239D01*
X21823810Y48044049D01*
X21800000Y48067858D01*
X21776190Y48115477D01*
X21776190Y48234525D01*
X21800000Y48305953D01*
X21776190Y48448810D02*
X21776190Y48734524D01*
X22276190Y48591667D02*
X21776190Y48591667D01*
X21942857Y49115476D02*
X22276190Y49115476D01*
X21752381Y48996429D02*
X22109524Y48877381D01*
X22109524Y49186905D01*
X23554287Y49083810D02*
X23840001Y49083810D01*
X23697144Y48583810D02*
X23697144Y49083810D01*
X24006668Y48845714D02*
X24173334Y48845714D01*
X24244763Y48583810D02*
X24006668Y48583810D01*
X24006668Y49083810D01*
X24244763Y49083810D01*
X24435239Y48607619D02*
X24506668Y48583810D01*
X24625715Y48583810D01*
X24673334Y48607619D01*
X24697144Y48631429D01*
X24720953Y48679048D01*
X24720953Y48726667D01*
X24697144Y48774286D01*
X24673334Y48798095D01*
X24625715Y48821905D01*
X24530477Y48845714D01*
X24482858Y48869524D01*
X24459049Y48893333D01*
X24435239Y48940952D01*
X24435239Y48988571D01*
X24459049Y49036190D01*
X24482858Y49060000D01*
X24530477Y49083810D01*
X24649525Y49083810D01*
X24720953Y49060000D01*
X24863810Y49083810D02*
X25149524Y49083810D01*
X25006667Y48583810D02*
X25006667Y49083810D01*
X25554286Y49083810D02*
X25316191Y49083810D01*
X25292381Y48845714D01*
X25316191Y48869524D01*
X25363810Y48893333D01*
X25482857Y48893333D01*
X25530476Y48869524D01*
X25554286Y48845714D01*
X25578095Y48798095D01*
X25578095Y48679048D01*
X25554286Y48631429D01*
X25530476Y48607619D01*
X25482857Y48583810D01*
X25363810Y48583810D01*
X25316191Y48607619D01*
X25292381Y48631429D01*
X26348287Y55306810D02*
X26634001Y55306810D01*
X26491144Y54806810D02*
X26491144Y55306810D01*
X26800668Y55068714D02*
X26967334Y55068714D01*
X27038763Y54806810D02*
X26800668Y54806810D01*
X26800668Y55306810D01*
X27038763Y55306810D01*
X27229239Y54830619D02*
X27300668Y54806810D01*
X27419715Y54806810D01*
X27467334Y54830619D01*
X27491144Y54854429D01*
X27514953Y54902048D01*
X27514953Y54949667D01*
X27491144Y54997286D01*
X27467334Y55021095D01*
X27419715Y55044905D01*
X27324477Y55068714D01*
X27276858Y55092524D01*
X27253049Y55116333D01*
X27229239Y55163952D01*
X27229239Y55211571D01*
X27253049Y55259190D01*
X27276858Y55283000D01*
X27324477Y55306810D01*
X27443525Y55306810D01*
X27514953Y55283000D01*
X27657810Y55306810D02*
X27943524Y55306810D01*
X27800667Y54806810D02*
X27800667Y55306810D01*
X28324476Y55306810D02*
X28229238Y55306810D01*
X28181619Y55283000D01*
X28157810Y55259190D01*
X28110191Y55187762D01*
X28086381Y55092524D01*
X28086381Y54902048D01*
X28110191Y54854429D01*
X28134000Y54830619D01*
X28181619Y54806810D01*
X28276857Y54806810D01*
X28324476Y54830619D01*
X28348286Y54854429D01*
X28372095Y54902048D01*
X28372095Y55021095D01*
X28348286Y55068714D01*
X28324476Y55092524D01*
X28276857Y55116333D01*
X28181619Y55116333D01*
X28134000Y55092524D01*
X28110191Y55068714D01*
X28086381Y55021095D01*
M02*
