G04 #@! TF.FileFunction,Copper,L2,Bot,Signal*
%FSLAX46Y46*%
G04 Gerber Fmt 4.6, Leading zero omitted, Abs format (unit mm)*
G04 Created by KiCad (PCBNEW 4.0.4-stable) date 07/11/17 15:37:42*
%MOMM*%
%LPD*%
G01*
G04 APERTURE LIST*
%ADD10C,0.100000*%
%ADD11C,1.727200*%
%ADD12C,4.064000*%
%ADD13C,3.100000*%
%ADD14C,1.600000*%
%ADD15R,1.800000X1.800000*%
%ADD16C,1.800000*%
%ADD17C,1.524000*%
%ADD18O,1.400000X0.800000*%
%ADD19C,0.600000*%
%ADD20C,0.250000*%
G04 APERTURE END LIST*
D10*
D11*
X10620000Y3725000D03*
X10620000Y6265000D03*
X10620000Y8805000D03*
D12*
X148500000Y18500000D03*
X97500000Y18500000D03*
X46500000Y18500000D03*
X148500000Y43500000D03*
X46500000Y43500000D03*
X97500000Y43500000D03*
D11*
X8080000Y3725000D03*
X8080000Y6265000D03*
X8080000Y8805000D03*
X8000000Y29125000D03*
D13*
X20320000Y19699800D03*
X20320000Y28488200D03*
D14*
X27330400Y21594000D03*
X27330400Y24094000D03*
X27330400Y26594000D03*
D11*
X8080000Y21505000D03*
X10620000Y21505000D03*
X8080000Y24045000D03*
X10620000Y24045000D03*
X8080000Y13885000D03*
X10620000Y13885000D03*
X8080000Y18965000D03*
X10620000Y18965000D03*
X8080000Y16425000D03*
X10620000Y16425000D03*
X8080000Y11345000D03*
X10620000Y11345000D03*
X8080000Y26585000D03*
X10620000Y26585000D03*
D12*
X166000000Y58000000D03*
X166000000Y4000000D03*
X3000000Y4000000D03*
X3000000Y58000000D03*
D15*
X26920000Y5331400D03*
D16*
X26920000Y8031400D03*
X26920000Y10706400D03*
X23020000Y14631400D03*
X20320000Y14631400D03*
X17620000Y14631400D03*
X15720000Y8031400D03*
X20320000Y3431400D03*
D11*
X10620000Y29125000D03*
D17*
X34250000Y3500000D03*
X39250000Y3500000D03*
X36750000Y3500000D03*
X41750000Y3500000D03*
X36750000Y58500000D03*
X41750000Y58500000D03*
X51250000Y3500000D03*
X56250000Y3500000D03*
X53750000Y3500000D03*
X58750000Y3500000D03*
X53750000Y58500000D03*
X58750000Y58500000D03*
X68250000Y3500000D03*
X73250000Y3500000D03*
X70750000Y3500000D03*
X75750000Y3500000D03*
X70750000Y58500000D03*
X75750000Y58500000D03*
X85250000Y3500000D03*
X90250000Y3500000D03*
X87750000Y3500000D03*
X92750000Y3500000D03*
X87750000Y58500000D03*
X92750000Y58500000D03*
X102250000Y3500000D03*
X107250000Y3500000D03*
X104750000Y3500000D03*
X109750000Y3500000D03*
X104750000Y58500000D03*
X109750000Y58500000D03*
X119250000Y3500000D03*
X124250000Y3500000D03*
X121750000Y3500000D03*
X126750000Y3500000D03*
X121750000Y58500000D03*
X126750000Y58500000D03*
X136250000Y3500000D03*
X141250000Y3500000D03*
X138750000Y3500000D03*
X143750000Y3500000D03*
X138750000Y58500000D03*
X143750000Y58500000D03*
X153250000Y3500000D03*
X158250000Y3500000D03*
X155750000Y3500000D03*
X160750000Y3500000D03*
X155750000Y58500000D03*
X160750000Y58500000D03*
D18*
X1349000Y49395000D03*
X1349000Y40415000D03*
X7299000Y49035000D03*
X7299000Y40775000D03*
D11*
X29670000Y50715000D03*
X29670000Y53255000D03*
X11890000Y50715000D03*
X11890000Y53255000D03*
X14430000Y50715000D03*
X14430000Y53255000D03*
X16970000Y50715000D03*
X16970000Y53255000D03*
X19510000Y50715000D03*
X19510000Y53255000D03*
X22050000Y50715000D03*
X22050000Y53255000D03*
X24590000Y50715000D03*
X24590000Y53255000D03*
X27130000Y50715000D03*
X27130000Y53255000D03*
D19*
X11382000Y48683000D03*
X16970000Y46397000D03*
X13160000Y41571000D03*
X17986000Y39793000D03*
X20780000Y58589000D03*
X17605000Y34205000D03*
X12144000Y47667000D03*
X16348078Y44998235D03*
X7064000Y35728998D03*
X4524000Y35729000D03*
X7572000Y33951000D03*
X7826000Y51223000D03*
X1730000Y53255000D03*
X968000Y34078000D03*
X3635000Y8805000D03*
X6175000Y38015000D03*
X2492000Y52239000D03*
X3762000Y51731000D03*
X6302000Y52747000D03*
X6048000Y54271000D03*
X12398000Y46143000D03*
D20*
X11806264Y48683000D02*
X11382000Y48683000D01*
X16970000Y46397000D02*
X14684000Y48683000D01*
X14684000Y48683000D02*
X11806264Y48683000D01*
X17269999Y46097001D02*
X16970000Y46397000D01*
X17986000Y39793000D02*
X17986000Y45381000D01*
X17986000Y45381000D02*
X17269999Y46097001D01*
X17620000Y14631400D02*
X17970400Y14631400D01*
X17970400Y14631400D02*
X20018000Y16679000D01*
X20018000Y16679000D02*
X25352000Y16679000D01*
X25352000Y16679000D02*
X26920000Y15111000D01*
X26920000Y15111000D02*
X26920000Y10706400D01*
X13160000Y41571000D02*
X16208000Y41571000D01*
X16208000Y41571000D02*
X17986000Y39793000D01*
X87750000Y58500000D02*
X92750000Y58500000D01*
X87750000Y58500000D02*
X75750000Y58500000D01*
X104750000Y58500000D02*
X105827630Y58500000D01*
X105827630Y58500000D02*
X109750000Y58500000D01*
X104750000Y58500000D02*
X92750000Y58500000D01*
X58750000Y58500000D02*
X70750000Y58500000D01*
X58750000Y58500000D02*
X53750000Y58500000D01*
X41750000Y58500000D02*
X36750000Y58500000D01*
X75750000Y58500000D02*
X70750000Y58500000D01*
X155750000Y58500000D02*
X160750000Y58500000D01*
X143750000Y58500000D02*
X155750000Y58500000D01*
X138750000Y58500000D02*
X143750000Y58500000D01*
X126750000Y58500000D02*
X138750000Y58500000D01*
X121750000Y58500000D02*
X126750000Y58500000D01*
X121750000Y58500000D02*
X109750000Y58500000D01*
X126750000Y58500000D02*
X146750000Y58500000D01*
X146750000Y58500000D02*
X155750000Y58500000D01*
X17605000Y34205000D02*
X25606000Y34205000D01*
X25606000Y34205000D02*
X35004000Y43603000D01*
X35004000Y43603000D02*
X35004000Y56754000D01*
X35004000Y56754000D02*
X36750000Y58500000D01*
X20780000Y58589000D02*
X22126000Y58589000D01*
X22126000Y58589000D02*
X22215000Y58500000D01*
X17180736Y34205000D02*
X17605000Y34205000D01*
X6625011Y30210011D02*
X10620000Y34205000D01*
X6625011Y28039989D02*
X6625011Y30210011D01*
X8080000Y26585000D02*
X6625011Y28039989D01*
X10620000Y34205000D02*
X17180736Y34205000D01*
X41750000Y58500000D02*
X51750000Y58500000D01*
X51750000Y58500000D02*
X56750000Y58500000D01*
X56750000Y58500000D02*
X66750000Y58500000D01*
X66750000Y58500000D02*
X71750000Y58500000D01*
X71750000Y58500000D02*
X81750000Y58500000D01*
X81750000Y58500000D02*
X86750000Y58500000D01*
X86750000Y58500000D02*
X96750000Y58500000D01*
X96750000Y58500000D02*
X101750000Y58500000D01*
X101750000Y58500000D02*
X111750000Y58500000D01*
X111750000Y58500000D02*
X116750000Y58500000D01*
X116750000Y58500000D02*
X126750000Y58500000D01*
X22215000Y58500000D02*
X36750000Y58500000D01*
X8080000Y26585000D02*
X10620000Y26585000D01*
X8080000Y16425000D02*
X10620000Y16425000D01*
X8080000Y18965000D02*
X10620000Y18965000D01*
X10620000Y13885000D02*
X8080000Y13885000D01*
X16348078Y44998235D02*
X13679313Y47667000D01*
X13679313Y47667000D02*
X12568264Y47667000D01*
X12568264Y47667000D02*
X12144000Y47667000D01*
X10620000Y24045000D02*
X8080000Y24045000D01*
X7572000Y33951000D02*
X7064000Y34459000D01*
X7064000Y35304734D02*
X7064000Y35728998D01*
X7064000Y34459000D02*
X7064000Y35304734D01*
X7826000Y51223000D02*
X4778000Y48175000D01*
X4778000Y48175000D02*
X4778000Y35983000D01*
X4778000Y35983000D02*
X4524000Y35729000D01*
X10620000Y29125000D02*
X8000000Y29125000D01*
X17556000Y24094000D02*
X12525000Y29125000D01*
X12525000Y29125000D02*
X10620000Y29125000D01*
X27330400Y24094000D02*
X17556000Y24094000D01*
X1730000Y52830736D02*
X1730000Y53255000D01*
X2537999Y51267997D02*
X1730000Y52075996D01*
X2537999Y35647999D02*
X2537999Y51267997D01*
X968000Y34078000D02*
X2537999Y35647999D01*
X1730000Y52075996D02*
X1730000Y52830736D01*
X3635000Y8805000D02*
X8080000Y8805000D01*
X26920000Y8031400D02*
X19013600Y8031400D01*
X19013600Y8031400D02*
X17788599Y9256401D01*
X17788599Y9256401D02*
X12976401Y9256401D01*
X12976401Y9256401D02*
X12525000Y8805000D01*
X12525000Y8805000D02*
X11890000Y8805000D01*
X11890000Y8805000D02*
X10620000Y8805000D01*
X8080000Y8805000D02*
X10620000Y8805000D01*
X8080000Y6265000D02*
X10620000Y6265000D01*
X8080000Y3725000D02*
X7400000Y3725000D01*
X7400000Y3725000D02*
X3009999Y8115001D01*
X3009999Y8115001D02*
X3009999Y32273995D01*
X3009999Y32273995D02*
X6175000Y35438996D01*
X6175000Y35438996D02*
X6175000Y37590736D01*
X6175000Y37590736D02*
X6175000Y38015000D01*
X10620000Y3725000D02*
X20026400Y3725000D01*
X20026400Y3725000D02*
X20320000Y3431400D01*
X8080000Y3725000D02*
X10620000Y3725000D01*
X2492000Y53038415D02*
X2492000Y52663264D01*
X27130000Y53255000D02*
X24590000Y55795000D01*
X2492000Y52663264D02*
X2492000Y52239000D01*
X5248585Y55795000D02*
X2492000Y53038415D01*
X24590000Y55795000D02*
X5248585Y55795000D01*
X3762000Y52155264D02*
X3762000Y51731000D01*
X22615989Y55229011D02*
X5319007Y55229011D01*
X3762000Y53672004D02*
X3762000Y52155264D01*
X5319007Y55229011D02*
X3762000Y53672004D01*
X24590000Y53255000D02*
X22615989Y55229011D01*
X20733999Y51938999D02*
X7110001Y51938999D01*
X7110001Y51938999D02*
X6601999Y52447001D01*
X22050000Y53255000D02*
X20733999Y51938999D01*
X6601999Y52447001D02*
X6302000Y52747000D01*
X18194001Y54570999D02*
X6347999Y54570999D01*
X19510000Y53255000D02*
X18194001Y54570999D01*
X6347999Y54570999D02*
X6048000Y54271000D01*
X12398000Y45718736D02*
X12398000Y46143000D01*
X12398000Y37507000D02*
X12398000Y45718736D01*
X8080000Y21505000D02*
X4778000Y24807000D01*
X4778000Y29887000D02*
X12398000Y37507000D01*
X4778000Y24807000D02*
X4778000Y29887000D01*
X10620000Y21505000D02*
X8080000Y21505000D01*
M02*
