M48
METRIC,TZ
T1C0.400
T2C0.500
T3C1.000
T4C1.016
T5C1.100
T6C1.200
T7C2.500
T8C3.048
%
G90
G05
T1
X968Y34078
X1730Y53255
X2492Y52239
X3635Y8805
X3762Y51731
X4524Y35729
X6048Y54271
X6175Y38015
X6302Y52747
X7064Y35729
X7572Y33951
X7826Y51223
X11382Y48683
X12144Y47667
X12398Y46143
X13160Y41571
X16348Y44998
X16970Y46397
X17605Y34205
X17986Y39793
X20780Y58589
T3
X27330Y26594
X27330Y24094
X27330Y21594
T4
X8000Y29125
X8080Y26585
X8080Y24045
X8080Y21505
X8080Y18965
X8080Y16425
X8080Y13885
X8080Y11345
X8080Y8805
X8080Y6265
X8080Y3725
X10620Y29125
X10620Y26585
X10620Y24045
X10620Y21505
X10620Y18965
X10620Y16425
X10620Y13885
X10620Y11345
X10620Y8805
X10620Y6265
X10620Y3725
X11890Y53255
X11890Y50715
X14430Y53255
X14430Y50715
X16970Y53255
X16970Y50715
X19510Y53255
X19510Y50715
X22050Y53255
X22050Y50715
X24590Y53255
X24590Y50715
X27130Y53255
X27130Y50715
X29670Y53255
X29670Y50715
T5
X34250Y3500
X36750Y58500
X36750Y3500
X39250Y3500
X41750Y58500
X41750Y3500
X51250Y3500
X53750Y58500
X53750Y3500
X56250Y3500
X58750Y58500
X58750Y3500
X68250Y3500
X70750Y58500
X70750Y3500
X73250Y3500
X75750Y58500
X75750Y3500
X85250Y3500
X87750Y58500
X87750Y3500
X90250Y3500
X92750Y58500
X92750Y3500
X102250Y3500
X104750Y58500
X104750Y3500
X107250Y3500
X109750Y58500
X109750Y3500
X119250Y3500
X121750Y58500
X121750Y3500
X124250Y3500
X126750Y58500
X126750Y3500
X136250Y3500
X138750Y58500
X138750Y3500
X141250Y3500
X143750Y58500
X143750Y3500
X153250Y3500
X155750Y58500
X155750Y3500
X158250Y3500
X160750Y58500
X160750Y3500
T6
X15720Y8031
X17620Y14631
X20320Y14631
X20320Y3431
X23020Y14631
X26920Y10706
X26920Y8031
X26920Y5331
T7
X20320Y28488
X20320Y19700
T8
X3000Y58000
X3000Y4000
X46500Y43500
X46500Y18500
X97500Y43500
X97500Y18500
X148500Y43500
X148500Y18500
X166000Y58000
X166000Y4000
T2
X1649Y49395G85X1049Y49395
G05
X1649Y40415G85X1049Y40415
G05
X7599Y49035G85X6999Y49035
G05
X7599Y40775G85X6999Y40775
G05
T0
M30
