<?xml version="1.0" encoding="utf-8"?>
<!-- Generator: Adobe Illustrator 15.0.0, SVG Export Plug-In . SVG Version: 6.00 Build 0)  -->
<!DOCTYPE svg PUBLIC "-//W3C//DTD SVG 1.1//EN" "http://www.w3.org/Graphics/SVG/1.1/DTD/svg11.dtd">
<svg version="1.1" id="Layer_1" xmlns="http://www.w3.org/2000/svg" xmlns:xlink="http://www.w3.org/1999/xlink" x="0px" y="0px"
	 width="612px" height="792px" viewBox="90 -90 612 792" enable-background="new 90 -90 612 792" xml:space="preserve">
<g>
	
		<path fill="none" stroke="#000000" stroke-width="1.44" stroke-linecap="round" stroke-linejoin="round" stroke-miterlimit="10" d="
		M260.958,551.207c-2.553,0-4.62,2.067-4.62,4.619c0,2.553,2.067,4.62,4.62,4.62c2.551,0,4.618-2.067,4.618-4.62
		C265.576,553.274,263.508,551.207,260.958,551.207"/>
	
		<path fill="none" stroke="#000000" stroke-width="1.44" stroke-linecap="round" stroke-linejoin="round" stroke-miterlimit="10" d="
		M426.077,551.207c-2.552,0-4.619,2.067-4.619,4.619c0,2.553,2.067,4.62,4.619,4.62s4.62-2.067,4.62-4.62
		C430.697,553.274,428.629,551.207,426.077,551.207"/>
	
		<path fill="none" stroke="#000000" stroke-width="1.44" stroke-linecap="round" stroke-linejoin="round" stroke-miterlimit="10" d="
		M442.997,551.207c-2.553,0-4.619,2.067-4.619,4.619c0,2.553,2.066,4.62,4.619,4.62c2.552,0,4.62-2.067,4.62-4.62
		C447.617,553.274,445.549,551.207,442.997,551.207"/>
	
		<path fill="none" stroke="#000000" stroke-width="1.44" stroke-linecap="round" stroke-linejoin="round" stroke-miterlimit="10" d="
		M306.438,551.207c-2.553,0-4.621,2.067-4.621,4.619c0,2.553,2.068,4.62,4.621,4.62c2.551,0,4.619-2.067,4.619-4.62
		C311.057,553.274,308.988,551.207,306.438,551.207"/>
	
		<path fill="none" stroke="#000000" stroke-width="1.44" stroke-linecap="round" stroke-linejoin="round" stroke-miterlimit="10" d="
		M334.997,551.207c-2.552,0-4.619,2.067-4.619,4.619c0,2.553,2.067,4.62,4.619,4.62c2.553,0,4.62-2.067,4.62-4.62
		C339.617,553.274,337.549,551.207,334.997,551.207"/>
	
		<path fill="none" stroke="#000000" stroke-width="1.44" stroke-linecap="round" stroke-linejoin="round" stroke-miterlimit="10" d="
		M471.558,551.207c-2.552,0-4.62,2.067-4.62,4.619c0,2.553,2.068,4.62,4.62,4.62c2.551,0,4.62-2.067,4.62-4.62
		C476.178,553.274,474.108,551.207,471.558,551.207"/>
	
		<path fill="none" stroke="#000000" stroke-width="1.44" stroke-linecap="round" stroke-linejoin="round" stroke-miterlimit="10" d="
		M351.918,551.207c-2.553,0-4.62,2.067-4.62,4.619c0,2.553,2.067,4.62,4.62,4.62c2.552,0,4.62-2.067,4.62-4.62
		C356.538,553.274,354.469,551.207,351.918,551.207"/>
	
		<path fill="none" stroke="#000000" stroke-width="1.44" stroke-linecap="round" stroke-linejoin="round" stroke-miterlimit="10" d="
		M397.517,551.207c-2.552,0-4.62,2.067-4.62,4.619c0,2.553,2.068,4.62,4.62,4.62s4.62-2.067,4.62-4.62
		C402.137,553.274,400.068,551.207,397.517,551.207"/>
	
		<path fill="none" stroke="#000000" stroke-width="1.44" stroke-linecap="round" stroke-linejoin="round" stroke-miterlimit="10" d="
		M517.037,551.207c-2.553,0-4.62,2.067-4.62,4.619c0,2.553,2.067,4.62,4.62,4.62c2.552,0,4.62-2.067,4.62-4.62
		C521.657,553.274,519.589,551.207,517.037,551.207"/>
	
		<path fill="none" stroke="#000000" stroke-width="1.44" stroke-linecap="round" stroke-linejoin="round" stroke-miterlimit="10" d="
		M380.477,551.207c-2.551,0-4.619,2.067-4.619,4.619c0,2.553,2.068,4.62,4.619,4.62c2.552,0,4.62-2.067,4.62-4.62
		C385.097,553.274,383.028,551.207,380.477,551.207"/>
	
		<path fill="none" stroke="#000000" stroke-width="1.44" stroke-linecap="round" stroke-linejoin="round" stroke-miterlimit="10" d="
		M215.357,551.207c-2.553,0-4.621,2.067-4.621,4.619c0,2.553,2.068,4.62,4.621,4.62c2.551,0,4.619-2.067,4.619-4.62
		C219.977,553.274,217.908,551.207,215.357,551.207"/>
	
		<path fill="none" stroke="#000000" stroke-width="1.44" stroke-linecap="round" stroke-linejoin="round" stroke-miterlimit="10" d="
		M289.396,551.207c-2.551,0-4.619,2.067-4.619,4.619c0,2.553,2.068,4.62,4.619,4.62c2.552,0,4.621-2.067,4.621-4.62
		C294.018,553.274,291.948,551.207,289.396,551.207"/>
	
		<path fill="none" stroke="#000000" stroke-width="1.44" stroke-linecap="round" stroke-linejoin="round" stroke-miterlimit="10" d="
		M243.918,551.207c-2.553,0-4.62,2.067-4.62,4.619c0,2.553,2.067,4.62,4.62,4.62c2.552,0,4.62-2.067,4.62-4.62
		C248.538,553.274,246.469,551.207,243.918,551.207"/>
	
		<path fill="none" stroke="#000000" stroke-width="1.44" stroke-linecap="round" stroke-linejoin="round" stroke-miterlimit="10" d="
		M488.598,551.207c-2.552,0-4.62,2.067-4.62,4.619c0,2.553,2.068,4.62,4.62,4.62c2.551,0,4.62-2.067,4.62-4.62
		C493.218,553.274,491.148,551.207,488.598,551.207"/>
	
		<path fill="none" stroke="#000000" stroke-width="1.44" stroke-linecap="round" stroke-linejoin="round" stroke-miterlimit="10" d="
		M534.077,551.207c-2.553,0-4.62,2.067-4.62,4.619c0,2.553,2.067,4.62,4.62,4.62c2.552,0,4.62-2.067,4.62-4.62
		C538.697,553.274,536.629,551.207,534.077,551.207"/>
	
		<path fill="none" stroke="#000000" stroke-width="1.44" stroke-linecap="round" stroke-linejoin="round" stroke-miterlimit="10" d="
		M562.638,551.207c-2.552,0-4.62,2.067-4.62,4.619c0,2.553,2.068,4.62,4.62,4.62c2.551,0,4.619-2.067,4.619-4.62
		C567.257,553.274,565.188,551.207,562.638,551.207"/>
	
		<path fill="none" stroke="#000000" stroke-width="1.44" stroke-linecap="round" stroke-linejoin="round" stroke-miterlimit="10" d="
		M397.517,18.285c-2.552,0-4.62,2.068-4.62,4.62s2.068,4.62,4.62,4.62c2.552,0,4.62-2.068,4.62-4.62S400.068,18.285,397.517,18.285"
		/>
	
		<path fill="none" stroke="#000000" stroke-width="1.44" stroke-linecap="round" stroke-linejoin="round" stroke-miterlimit="10" d="
		M380.477,18.285c-2.551,0-4.619,2.068-4.619,4.62s2.068,4.62,4.619,4.62c2.552,0,4.62-2.068,4.62-4.62
		S383.028,18.285,380.477,18.285"/>
	
		<path fill="none" stroke="#000000" stroke-width="1.44" stroke-linecap="round" stroke-linejoin="round" stroke-miterlimit="10" d="
		M351.917,18.285c-2.552,0-4.62,2.068-4.62,4.62s2.068,4.62,4.62,4.62c2.552,0,4.62-2.068,4.62-4.62S354.468,18.285,351.917,18.285"
		/>
	
		<path fill="none" stroke="#000000" stroke-width="1.44" stroke-linecap="round" stroke-linejoin="round" stroke-miterlimit="10" d="
		M334.997,18.285c-2.551,0-4.619,2.068-4.619,4.62s2.068,4.62,4.619,4.62c2.553,0,4.621-2.068,4.621-4.62
		S337.548,18.285,334.997,18.285"/>
	
		<path fill="none" stroke="#000000" stroke-width="1.44" stroke-linecap="round" stroke-linejoin="round" stroke-miterlimit="10" d="
		M260.958,18.285c-2.552,0-4.62,2.068-4.62,4.62s2.068,4.62,4.62,4.62c2.551,0,4.619-2.068,4.619-4.62
		S263.507,18.285,260.958,18.285"/>
	
		<path fill="none" stroke="#000000" stroke-width="1.44" stroke-linecap="round" stroke-linejoin="round" stroke-miterlimit="10" d="
		M306.438,18.285c-2.553,0-4.621,2.068-4.621,4.62s2.068,4.62,4.621,4.62c2.551,0,4.619-2.068,4.619-4.62
		S308.988,18.285,306.438,18.285"/>
	
		<path fill="none" stroke="#000000" stroke-width="1.44" stroke-linecap="round" stroke-linejoin="round" stroke-miterlimit="10" d="
		M289.396,18.285c-2.551,0-4.619,2.068-4.619,4.62s2.068,4.62,4.619,4.62c2.552,0,4.621-2.068,4.621-4.62
		S291.948,18.285,289.396,18.285"/>
	
		<path fill="none" stroke="#000000" stroke-width="1.44" stroke-linecap="round" stroke-linejoin="round" stroke-miterlimit="10" d="
		M442.997,18.285c-2.553,0-4.619,2.068-4.619,4.62s2.066,4.62,4.619,4.62c2.552,0,4.62-2.068,4.62-4.62
		S445.549,18.285,442.997,18.285"/>
	
		<path fill="none" stroke="#000000" stroke-width="1.44" stroke-linecap="round" stroke-linejoin="round" stroke-miterlimit="10" d="
		M243.917,18.285c-2.552,0-4.62,2.068-4.62,4.62s2.068,4.62,4.62,4.62c2.552,0,4.62-2.068,4.62-4.62S246.468,18.285,243.917,18.285"
		/>
	
		<path fill="none" stroke="#000000" stroke-width="1.44" stroke-linecap="round" stroke-linejoin="round" stroke-miterlimit="10" d="
		M534.077,18.285c-2.553,0-4.62,2.068-4.62,4.62s2.067,4.62,4.62,4.62c2.552,0,4.62-2.068,4.62-4.62S536.629,18.285,534.077,18.285"
		/>
	
		<path fill="none" stroke="#000000" stroke-width="1.44" stroke-linecap="round" stroke-linejoin="round" stroke-miterlimit="10" d="
		M426.077,18.285c-2.552,0-4.619,2.068-4.619,4.62s2.067,4.62,4.619,4.62s4.62-2.068,4.62-4.62S428.629,18.285,426.077,18.285"/>
	
		<path fill="none" stroke="#000000" stroke-width="1.44" stroke-linecap="round" stroke-linejoin="round" stroke-miterlimit="10" d="
		M215.357,18.285c-2.553,0-4.621,2.068-4.621,4.62s2.068,4.62,4.621,4.62c2.551,0,4.619-2.068,4.619-4.62
		S217.908,18.285,215.357,18.285"/>
	
		<path fill="none" stroke="#000000" stroke-width="1.44" stroke-linecap="round" stroke-linejoin="round" stroke-miterlimit="10" d="
		M471.558,18.285c-2.552,0-4.62,2.068-4.62,4.62s2.068,4.62,4.62,4.62c2.551,0,4.62-2.068,4.62-4.62S474.108,18.285,471.558,18.285"
		/>
	
		<path fill="none" stroke="#000000" stroke-width="1.44" stroke-linecap="round" stroke-linejoin="round" stroke-miterlimit="10" d="
		M517.037,18.285c-2.553,0-4.62,2.068-4.62,4.62s2.067,4.62,4.62,4.62c2.552,0,4.62-2.068,4.62-4.62S519.589,18.285,517.037,18.285"
		/>
	
		<path fill="none" stroke="#000000" stroke-width="1.44" stroke-linecap="round" stroke-linejoin="round" stroke-miterlimit="10" d="
		M562.638,18.285c-2.552,0-4.62,2.068-4.62,4.62s2.068,4.62,4.62,4.62c2.551,0,4.619-2.068,4.619-4.62
		S565.188,18.285,562.638,18.285"/>
	
		<path fill="none" stroke="#000000" stroke-width="1.44" stroke-linecap="round" stroke-linejoin="round" stroke-miterlimit="10" d="
		M488.598,18.285c-2.552,0-4.62,2.068-4.62,4.62s2.068,4.62,4.62,4.62c2.551,0,4.62-2.068,4.62-4.62S491.148,18.285,488.598,18.285"
		/>
	
		<polyline display="none" fill="none" stroke="#000000" stroke-width="1.44" stroke-linecap="round" stroke-linejoin="round" stroke-miterlimit="10" points="
		206.896,37.125 571.218,37.125 571.218,14.445 206.896,14.445 206.896,37.125 	"/>
</g>
<rect x="210.736" y="37.125" fill="none" stroke="#000000" stroke-width="1.44" stroke-linecap="round" stroke-linejoin="round" stroke-miterlimit="10" width="356.521" height="504.602"/>
<rect x="193.729" y="541.727" fill="none" stroke="#000000" stroke-width="1.44" stroke-linecap="round" stroke-linejoin="round" stroke-miterlimit="10" width="17.008" height="104.314"/>
</svg>
