%FSLAX33Y33*%
%MOMM*%
%AMRect-W741421-H941421-RO1.000*
21,1,0.741421,0.941421,0.,0.,180*%
%AMRR-H1089615-W1469615-R544807-RO0.000*
21,1,0.380001,1.089615,0.,0.,360*
21,1,1.469615,0.000001,0.,0.,360*
1,1,1.089614,-0.1900005,0.0000005*
1,1,1.089614,0.1900005,0.0000005*
1,1,1.089614,0.1900005,-0.0000005*
1,1,1.089614,-0.1900005,-0.0000005*%
%AMRR-H192474-W893701-R96237-RO0.000*
21,1,0.701227,0.192474,0.,0.,360*
1,1,0.192474,-0.3506135,0.*
1,1,0.192474,0.3506135,0.*
1,1,0.192474,0.3506135,-0.*
1,1,0.192474,-0.3506135,0.*%
%AMRR-H893701-W192474-R96237-RO0.000*
21,1,0.192474,0.701227,0.,0.,360*
1,1,0.192474,0.,0.3506135*
1,1,0.192474,0.,0.3506135*
1,1,0.192474,0.,-0.3506135*
1,1,0.192474,-0.,-0.3506135*%
%AMRect-W670710-H870710-RO0.500*
21,1,0.67071,0.87071,0.,0.,270*%
%AMRect-W2403400-H2708200-RO0.500*
21,1,2.4034,2.7082,0.,0.,270*%
%AMRect-W741421-H941421-RO1.500*
21,1,0.741421,0.941421,0.,0.,90*%
%AMRect-W800000-H900000-RO0.500*
21,1,0.8,0.9,0.,0.,270*%
%AMRect-W400000-H900000-RO0.500*
21,1,0.4,0.9,0.,0.,270*%
%AMRect-W741421-H941421-RO0.500*
21,1,0.741421,0.941421,0.,0.,270*%
%AMRect-W670710-H870710-RO1.000*
21,1,0.67071,0.87071,0.,0.,180*%
%AMRect-W670710-H870710-RO1.500*
21,1,0.67071,0.87071,0.,0.,90*%
%AMRect-W842120-H941421-RO1.500*
21,1,0.84212,0.941421,0.,0.,90*%
%AMRect-W893701-H192474-RO1.000*
21,1,0.893701,0.192474,0.,0.,180*%
%AMRR-H192474-W893701-R96237-RO1.000*
21,1,0.701227,0.192474,0.,0.,180*
1,1,0.192474,0.3506135,-0.*
1,1,0.192474,-0.3506135,-0.*
1,1,0.192474,-0.3506135,0.*
1,1,0.192474,0.3506135,0.*%
%AMRR-H893701-W192474-R96237-RO1.000*
21,1,0.192474,0.701227,0.,0.,180*
1,1,0.192474,0.,-0.3506135*
1,1,0.192474,-0.,-0.3506135*
1,1,0.192474,-0.,0.3506135*
1,1,0.192474,0.,0.3506135*%
%AMRect-W1650000-H1650000-RO0.500*
21,1,1.65,1.65,0.,0.,270*%
%AMRect-W842120-H941421-RO1.000*
21,1,0.84212,0.941421,0.,0.,180*%
%AMRect-W600000-H1500000-RO1.500*
21,1,0.6,1.5,0.,0.,90*%
%AMRect-W842120-H941421-RO0.500*
21,1,0.84212,0.941421,0.,0.,270*%
%AMRect-W1600000-H1600000-RO0.500*
21,1,1.6,1.6,0.,0.,270*%
%ADD10C,0.2032*%
%ADD11C,0.6096*%
%ADD12C,0.381*%
%ADD13C,1.0668*%
%ADD14C,1.*%
%ADD15C,1.6*%
%ADD16Rect-W741421-H941421-RO1.000*%
%ADD17R,0.67071X0.87071*%
%ADD18R,1.469615X1.089615*%
%ADD19RR-H1089615-W1469615-R544807-RO0.000*%
%ADD20C,1.6*%
%ADD21R,1.8X1.8*%
%ADD22C,1.8*%
%ADD23R,10.X10.*%
%ADD24R,0.741421X0.941421*%
%ADD25C,1.6*%
%ADD26R,0.893701X0.192474*%
%ADD27RR-H192474-W893701-R96237-RO0.000*%
%ADD28RR-H893701-W192474-R96237-RO0.000*%
%ADD29R,1.6X1.6*%
%ADD30Rect-W670710-H870710-RO0.500*%
%ADD31Rect-W2403400-H2708200-RO0.500*%
%ADD32C,1.6*%
%ADD33Rect-W741421-H941421-RO1.500*%
%ADD34Rect-W800000-H900000-RO0.500*%
%ADD35R,1.62X1.62*%
%ADD36C,1.62*%
%ADD37Rect-W400000-H900000-RO0.500*%
%ADD38Rect-W741421-H941421-RO0.500*%
%ADD39Rect-W670710-H870710-RO1.000*%
%ADD40Rect-W670710-H870710-RO1.500*%
%ADD41Rect-W842120-H941421-RO1.500*%
%ADD42Rect-W893701-H192474-RO1.000*%
%ADD43RR-H192474-W893701-R96237-RO1.000*%
%ADD44RR-H893701-W192474-R96237-RO1.000*%
%ADD45C,1.65*%
%ADD46Rect-W1650000-H1650000-RO0.500*%
%ADD47Rect-W842120-H941421-RO1.000*%
%ADD48Rect-W600000-H1500000-RO1.500*%
%ADD49Rect-W842120-H941421-RO0.500*%
%ADD50R,0.84212X0.941421*%
%ADD51Rect-W1600000-H1600000-RO0.500*%
%ADD52R,12.X30.*%
%ADD53R,4.5X30.*%
%ADD54R,19.5X11.5*%
%ADD55R,12.5X16.*%
D10*
%LNtop copper_traces*%
G01*
X9680Y116070D02*
X10225Y115525D01*
X12052Y40318D02*
X12207Y40318D01*
X27425Y29500D02*
X28250Y29475D01*
X210717Y80005D02*
X209956Y80766D01*
X91750Y114325D02*
X94200Y114325D01*
X30314Y33105D02*
X30314Y34490D01*
D11*
X45925Y90411D02*
X46482Y89854D01*
D10*
X31804Y29875D02*
X32954Y28725D01*
X82100Y120045D02*
X97900Y120045D01*
X32954Y25925D02*
X34950Y25925D01*
D11*
X65480Y118445D02*
X66250Y117675D01*
D10*
X211525Y101564D02*
X211525Y102485D01*
X18450Y36725D02*
X11396Y36725D01*
D12*
X206705Y99500D02*
X206705Y98477D01*
D11*
X164075Y78425D02*
X165150Y77350D01*
D10*
X70675Y125755D02*
X209620Y125755D01*
X54275Y106825D02*
X54275Y107825D01*
X22476Y124000D02*
X23775Y125449D01*
X212325Y102409D02*
X213714Y103797D01*
X82571Y87402D02*
X88667Y81077D01*
X217006Y40456D02*
X215350Y38725D01*
X199848Y91700D02*
X203325Y91700D01*
X29016Y32877D02*
X29196Y33266D01*
X54865Y105775D02*
X55765Y107225D01*
X72550Y103075D02*
X89540Y103000D01*
X13775Y113900D02*
X11660Y113900D01*
D11*
X55685Y116230D02*
X51107Y116230D01*
D10*
X30350Y25994D02*
X34594Y21575D01*
X59075Y120325D02*
X57750Y120325D01*
X10000Y40150D02*
X10025Y35094D01*
X12990Y116200D02*
X11700Y116200D01*
D11*
X42907Y84553D02*
X42554Y84906D01*
D10*
X210050Y101410D02*
X210050Y100800D01*
D11*
X59848Y98990D02*
X59303Y98445D01*
D10*
X67425Y42675D02*
X62600Y42675D01*
X36375Y76265D02*
X35020Y77620D01*
X21525Y32496D02*
X21525Y35475D01*
D11*
X59004Y118445D02*
X57900Y118445D01*
D10*
X214876Y100372D02*
X215649Y100372D01*
X87745Y85700D02*
X89070Y84375D01*
D12*
X204617Y100250D02*
X204953Y99915D01*
D10*
X8875Y83329D02*
X9951Y82503D01*
D12*
X215094Y80874D02*
X215094Y80993D01*
D11*
X84150Y78425D02*
X84851Y77044D01*
D10*
X55381Y110000D02*
X54975Y110406D01*
X71350Y111200D02*
X93725Y111225D01*
X21365Y73850D02*
X23800Y73850D01*
X60457Y81390D02*
X60457Y78374D01*
X41910Y30272D02*
X43263Y31625D01*
X30023Y41181D02*
X30023Y77007D01*
X70675Y123215D02*
X72210Y124750D01*
X107975Y10075D02*
X105075Y12975D01*
X31953Y78010D02*
X31801Y77857D01*
X69569Y111844D02*
X71625Y113650D01*
X49075Y112050D02*
X50825Y112050D01*
X30939Y31252D02*
X31980Y32293D01*
X83090Y80655D02*
X82100Y81645D01*
X35125Y73671D02*
X35074Y73298D01*
X29454Y39354D02*
X29454Y38989D01*
D11*
X26075Y86300D02*
X26075Y88980D01*
D10*
X31629Y29475D02*
X31804Y29300D01*
X62100Y101645D02*
X77697Y101645D01*
X50600Y79700D02*
X50300Y79700D01*
D11*
X172990Y87500D02*
X193050Y87500D01*
D10*
X56856Y110875D02*
X57675Y109531D01*
X12225Y58425D02*
X7150Y63500D01*
X56847Y79146D02*
X57847Y80045D01*
D11*
X54836Y74261D02*
X50586Y74261D01*
D10*
X211539Y88525D02*
X211986Y88525D01*
D12*
X213507Y80874D02*
X215094Y80874D01*
D10*
X210875Y33125D02*
X211125Y33375D01*
X109725Y111200D02*
X112175Y113650D01*
X18575Y117950D02*
X18650Y118025D01*
X54975Y110406D02*
X53450Y110406D01*
X29150Y32429D02*
X29646Y32925D01*
D11*
X197846Y118554D02*
X196309Y118554D01*
D10*
X132150Y113850D02*
X133525Y113850D01*
X207870Y120700D02*
X207840Y120669D01*
X74825Y26400D02*
X75150Y18325D01*
X151112Y110637D02*
X151800Y111325D01*
X49575Y93920D02*
X50855Y97750D01*
X57450Y112150D02*
X57956Y111844D01*
X7081Y72563D02*
X12400Y72563D01*
X207275Y52325D02*
X208450Y52325D01*
D11*
X200725Y117125D02*
X202100Y118500D01*
D10*
X209060Y90250D02*
X209350Y89960D01*
D11*
X162100Y118450D02*
X165125Y118450D01*
D10*
X215265Y88545D02*
X214348Y87629D01*
X60807Y92275D02*
X63082Y90000D01*
D11*
X9850Y83790D02*
X9961Y83902D01*
D10*
X200750Y100497D02*
X200750Y102097D01*
X35831Y112992D02*
X33300Y110461D01*
D11*
X42231Y116658D02*
X41430Y117459D01*
D10*
X28775Y121360D02*
X30000Y122585D01*
X32684Y88535D02*
X32659Y93921D01*
X210015Y107515D02*
X210050Y102435D01*
X45300Y80479D02*
X45325Y84875D01*
X29550Y32236D02*
X29829Y32519D01*
X31980Y32293D02*
X32005Y33780D01*
X29950Y28486D02*
X29950Y25381D01*
X74100Y87250D02*
X74625Y87975D01*
D11*
X165125Y118450D02*
X166625Y116950D01*
D10*
X132900Y13075D02*
X132900Y16375D01*
X41438Y83885D02*
X40900Y83347D01*
X64253Y81164D02*
X73421Y81139D01*
X214225Y99375D02*
X215275Y97925D01*
X32529Y25200D02*
X33125Y25200D01*
D11*
X9535Y90750D02*
X10350Y90750D01*
D10*
X4650Y81764D02*
X4700Y74100D01*
D11*
X192135Y92500D02*
X187975Y96660D01*
X5595Y90315D02*
X7165Y90315D01*
X50320Y117018D02*
X50320Y118175D01*
D10*
X32410Y37650D02*
X35775Y37650D01*
X45240Y118110D02*
X45240Y115900D01*
X50000Y12700D02*
X55397Y18097D01*
X35072Y73364D02*
X35125Y73671D01*
X206850Y119175D02*
X206850Y116250D01*
X55575Y101716D02*
X55423Y101716D01*
X34925Y100131D02*
X34925Y98275D01*
X8875Y84181D02*
X8875Y83329D01*
D11*
X199210Y98352D02*
X199848Y98990D01*
D10*
X5525Y82450D02*
X5525Y82632D01*
X76150Y112300D02*
X89850Y112300D01*
D11*
X60695Y76760D02*
X72705Y76760D01*
D10*
X113737Y113650D02*
X118712Y108675D01*
D11*
X182150Y78450D02*
X183811Y78450D01*
D10*
X23150Y28250D02*
X22425Y29001D01*
X24466Y72051D02*
X28755Y76265D01*
X32100Y30950D02*
X32492Y31433D01*
X87200Y85700D02*
X87745Y85700D01*
X49075Y80375D02*
X48400Y79700D01*
X52105Y85670D02*
X51475Y86300D01*
X50650Y90131D02*
X49706Y90131D01*
X55550Y91705D02*
X60420Y91705D01*
X60515Y125760D02*
X65590Y125760D01*
D11*
X51447Y127559D02*
X57633Y127559D01*
D10*
X31574Y32513D02*
X31599Y33946D01*
D11*
X3000Y109220D02*
X1025Y109220D01*
X197075Y97270D02*
X200840Y97270D01*
D10*
X40000Y34600D02*
X39025Y35575D01*
D11*
X45466Y109065D02*
X45466Y113785D01*
D10*
X46535Y76290D02*
X46535Y78805D01*
X29554Y21408D02*
X29550Y26675D01*
X52410Y118110D02*
X55400Y118110D01*
X100000Y66475D02*
X100000Y65050D01*
X48125Y98100D02*
X48677Y98100D01*
D11*
X185975Y118450D02*
X187198Y118450D01*
D10*
X47219Y87016D02*
X45250Y86300D01*
X9712Y85000D02*
X8894Y84181D01*
X32540Y125755D02*
X32540Y125730D01*
X31804Y27075D02*
X31804Y29300D01*
X63082Y90000D02*
X63825Y90000D01*
X208761Y87325D02*
X207362Y87325D01*
D11*
X28372Y79995D02*
X28606Y79431D01*
D10*
X209620Y125755D02*
X210325Y125050D01*
X61004Y82300D02*
X61525Y83050D01*
X5125Y74719D02*
X5615Y74229D01*
X18390Y98275D02*
X16090Y98275D01*
X74625Y87975D02*
X83400Y88025D01*
X32950Y97800D02*
X32500Y97350D01*
X205034Y93400D02*
X204225Y93400D01*
X31701Y40900D02*
X31295Y41306D01*
X32659Y94045D02*
X32554Y94150D01*
X32500Y74450D02*
X30700Y72650D01*
X53890Y79548D02*
X53554Y79212D01*
X23601Y121644D02*
X23194Y122050D01*
D11*
X186495Y98990D02*
X197355Y98990D01*
D10*
X182100Y121645D02*
X197900Y121645D01*
X29950Y31912D02*
X30125Y32062D01*
X96323Y109415D02*
X109098Y109390D01*
X91575Y115325D02*
X94300Y115325D01*
X50620Y114445D02*
X51525Y115350D01*
X22425Y29001D02*
X17379Y29001D01*
X13950Y25496D02*
X12604Y25496D01*
X214679Y100175D02*
X213810Y100175D01*
X6165Y91440D02*
X7500Y93029D01*
X183900Y90025D02*
X193050Y90025D01*
X55640Y81145D02*
X57472Y81145D01*
X213575Y25375D02*
X213550Y74203D01*
X211548Y87725D02*
X213125Y87725D01*
X54275Y107825D02*
X54720Y108270D01*
D11*
X5908Y97892D02*
X4536Y96520D01*
D10*
X19900Y76850D02*
X19900Y74450D01*
X45550Y80104D02*
X45300Y80479D01*
X52155Y111175D02*
X54056Y111175D01*
X32500Y95500D02*
X33625Y94500D01*
X214650Y32075D02*
X214325Y32675D01*
D11*
X104774Y77171D02*
X121024Y77171D01*
D10*
X27167Y30275D02*
X26625Y30817D01*
D11*
X78859Y82936D02*
X76150Y82936D01*
D10*
X4250Y73775D02*
X6825Y71200D01*
X64636Y81926D02*
X69576Y81951D01*
X206957Y91477D02*
X205034Y93400D01*
X3875Y81280D02*
X4250Y80680D01*
X205631Y85806D02*
X205250Y85425D01*
X26650Y106650D02*
X28404Y104896D01*
X14075Y85000D02*
X9712Y85000D01*
X8425Y86050D02*
X9100Y86725D01*
X210625Y96150D02*
X210625Y96590D01*
X34055Y80940D02*
X34809Y81694D01*
X117525Y62350D02*
X120000Y65050D01*
X35096Y85088D02*
X38346Y85104D01*
X34925Y85500D02*
X34809Y85375D01*
D11*
X79110Y76760D02*
X79625Y77275D01*
D10*
X49711Y88764D02*
X49507Y88968D01*
X213156Y85200D02*
X211675Y85806D01*
X37850Y38150D02*
X36875Y38150D01*
X34450Y97800D02*
X32950Y97800D01*
D11*
X180805Y97150D02*
X182100Y98445D01*
D10*
X207990Y116565D02*
X207840Y120669D01*
X122100Y121645D02*
X137805Y121645D01*
D12*
X212350Y79716D02*
X213507Y80874D01*
D10*
X76149Y100045D02*
X77762Y100045D01*
X52300Y93600D02*
X53655Y93600D01*
D11*
X105750Y118475D02*
X105780Y118445D01*
D10*
X28161Y30771D02*
X28161Y33331D01*
X62172Y81645D02*
X63285Y81645D01*
X45190Y95740D02*
X45190Y97253D01*
D11*
X51107Y116230D02*
X50320Y117018D01*
D10*
X27460Y125640D02*
X28860Y124240D01*
D11*
X75336Y98480D02*
X77978Y98480D01*
D10*
X96900Y82550D02*
X103515Y82550D01*
X54975Y112150D02*
X57450Y112150D01*
D11*
X116154Y118445D02*
X117900Y118445D01*
D10*
X49075Y82620D02*
X49075Y80375D01*
X28750Y28486D02*
X27844Y27580D01*
X211525Y105085D02*
X211090Y104320D01*
X29950Y31264D02*
X29950Y31912D01*
X76770Y80615D02*
X77800Y81645D01*
X35800Y32825D02*
X36374Y32825D01*
X201202Y100045D02*
X202100Y100045D01*
D11*
X68405Y107500D02*
X67218Y108687D01*
D10*
X51088Y79212D02*
X50600Y79700D01*
X26225Y117150D02*
X26225Y124450D01*
D11*
X55590Y80045D02*
X55475Y79930D01*
D10*
X54306Y115350D02*
X56500Y113156D01*
X199925Y109375D02*
X198825Y108275D01*
D11*
X184510Y92275D02*
X192550Y92275D01*
X140595Y116920D02*
X142100Y118425D01*
D10*
X41430Y114770D02*
X43025Y113175D01*
D11*
X31050Y101816D02*
X28184Y101816D01*
D10*
X5525Y82632D02*
X4650Y83507D01*
X10650Y112890D02*
X10650Y111850D01*
X31290Y91515D02*
X31290Y89060D01*
D11*
X56298Y83650D02*
X56900Y84252D01*
X63900Y98455D02*
X64718Y99527D01*
D10*
X23775Y125449D02*
X23800Y126635D01*
X102250Y100045D02*
X117900Y100045D01*
X55484Y108270D02*
X55765Y108550D01*
X209590Y95144D02*
X211235Y94969D01*
D11*
X55475Y83650D02*
X56298Y83650D01*
D10*
X18700Y73850D02*
X18700Y74725D01*
X95352Y81509D02*
X96909Y83294D01*
X168925Y102544D02*
X172250Y102544D01*
X49065Y99750D02*
X49065Y99750D01*
X214567Y100804D02*
X215875Y100804D01*
X32514Y88236D02*
X32684Y88535D01*
X109450Y111625D02*
X112050Y114225D01*
X36175Y110461D02*
X37836Y110461D01*
X122100Y100045D02*
X137715Y100045D01*
X75675Y111725D02*
X90125Y111725D01*
D11*
X9625Y74600D02*
X9175Y75050D01*
X101126Y77044D02*
X102125Y78475D01*
D10*
X206005Y88125D02*
X205780Y88350D01*
D11*
X122100Y98445D02*
X123700Y98445D01*
D10*
X205631Y85806D02*
X208324Y85806D01*
X214325Y32675D02*
X214325Y41825D01*
D12*
X15770Y28650D02*
X16625Y29505D01*
D10*
X211800Y111951D02*
X211800Y109478D01*
X54325Y114275D02*
X55850Y112750D01*
X2865Y99060D02*
X1800Y100400D01*
X32171Y34698D02*
X34075Y34673D01*
X35738Y97925D02*
X36820Y97925D01*
D11*
X185640Y78450D02*
X198140Y78450D01*
D10*
X10900Y36200D02*
X10119Y35094D01*
D11*
X4650Y114300D02*
X5375Y115025D01*
D10*
X209750Y86736D02*
X209750Y85629D01*
X195075Y106875D02*
X191650Y103450D01*
X209750Y85629D02*
X209208Y85087D01*
D11*
X104020Y118475D02*
X105620Y116875D01*
D10*
X43995Y76265D02*
X43970Y76290D01*
X208761Y88925D02*
X208542Y88975D01*
X200000Y45050D02*
X207275Y52325D01*
X162100Y100150D02*
X177552Y100150D01*
D11*
X9961Y83902D02*
X13510Y83902D01*
X45925Y92950D02*
X45925Y90411D01*
D10*
X47219Y87016D02*
X47219Y91625D01*
D11*
X213404Y111730D02*
X213625Y111951D01*
X102100Y118445D02*
X104020Y118445D01*
D10*
X11660Y113900D02*
X10650Y112890D01*
D11*
X197993Y98352D02*
X199210Y98352D01*
X197355Y98990D02*
X197900Y98445D01*
D10*
X42517Y111905D02*
X41430Y112992D01*
X8750Y38600D02*
X8375Y38250D01*
X47150Y119375D02*
X51069Y119375D01*
X28750Y28933D02*
X29454Y29779D01*
D11*
X203875Y98550D02*
X202175Y98550D01*
X42534Y85700D02*
X42534Y85104D01*
D10*
X215475Y99775D02*
X213810Y99775D01*
D11*
X58350Y116561D02*
X60122Y116561D01*
D10*
X131806Y114425D02*
X134181Y114425D01*
D11*
X182200Y118450D02*
X184150Y118450D01*
D10*
X44610Y84595D02*
X44610Y83550D01*
X30735Y34273D02*
X31360Y35540D01*
X31953Y80284D02*
X31953Y78010D01*
X29150Y31264D02*
X29150Y32429D01*
X96975Y26175D02*
X96975Y17850D01*
X33325Y30093D02*
X33706Y30525D01*
X169943Y96302D02*
X170323Y96302D01*
X173975Y19175D02*
X171350Y16550D01*
X30939Y29875D02*
X31804Y29875D01*
X42876Y109365D02*
X41509Y107997D01*
D11*
X80505Y116850D02*
X82100Y118445D01*
D10*
X64137Y105638D02*
X66125Y103075D01*
D11*
X3075Y40640D02*
X1270Y38835D01*
D10*
X36853Y81645D02*
X36309Y82190D01*
X7081Y73660D02*
X5531Y75210D01*
X88740Y86535D02*
X90175Y85100D01*
X56730Y111713D02*
X57269Y111175D01*
X107850Y41650D02*
X104450Y45050D01*
X51525Y115350D02*
X54306Y115350D01*
X57025Y106100D02*
X57025Y106050D01*
X46525Y118685D02*
X46525Y110935D01*
X36600Y36825D02*
X35775Y37650D01*
X35800Y32825D02*
X34996Y34225D01*
X48415Y100400D02*
X49065Y99750D01*
X204400Y69325D02*
X204400Y72875D01*
X49075Y114445D02*
X50620Y114445D01*
X2400Y102935D02*
X4050Y102935D01*
X33625Y81955D02*
X31953Y80284D01*
X34050Y36144D02*
X33447Y35540D01*
X32492Y31433D02*
X36090Y31433D01*
X48145Y86229D02*
X48140Y93979D01*
D11*
X30000Y20000D02*
X32000Y22000D01*
D10*
X50600Y78400D02*
X50645Y78445D01*
D12*
X203875Y100250D02*
X204617Y100250D01*
D10*
X205784Y77329D02*
X213550Y74203D01*
X209750Y89514D02*
X209750Y90393D01*
D11*
X17300Y23400D02*
X17300Y22700D01*
D10*
X49625Y86300D02*
X51475Y86300D01*
X9728Y93029D02*
X12442Y90315D01*
X212950Y97392D02*
X213677Y97367D01*
X35139Y101816D02*
X36883Y101816D01*
X55397Y18097D02*
X55397Y19525D01*
X10950Y116950D02*
X10950Y124840D01*
X54750Y82445D02*
X53750Y83445D01*
D11*
X28606Y79431D02*
X30887Y79431D01*
X2200Y124100D02*
X1350Y123250D01*
D10*
X56200Y110875D02*
X56856Y110875D01*
X210015Y111856D02*
X211709Y113550D01*
X40900Y82550D02*
X40925Y82525D01*
X119000Y109225D02*
X129019Y109225D01*
X206550Y86736D02*
X207170Y87183D01*
X209846Y92210D02*
X209846Y92838D01*
X215649Y100372D02*
X216150Y99871D01*
X24504Y82659D02*
X26435Y80750D01*
D11*
X79625Y77275D02*
X79625Y82261D01*
D10*
X209846Y92210D02*
X210985Y91071D01*
X210325Y114834D02*
X205075Y109584D01*
X6075Y100925D02*
X6754Y100347D01*
D11*
X105620Y116875D02*
X120530Y116875D01*
D10*
X214286Y102725D02*
X215800Y102725D01*
D11*
X112990Y107500D02*
X192990Y107500D01*
X4536Y96520D02*
X3000Y96520D01*
D10*
X205683Y83917D02*
X205784Y77329D01*
X30760Y32925D02*
X30735Y34273D01*
X214348Y87629D02*
X213795Y87629D01*
X31295Y71950D02*
X31400Y72050D01*
X38430Y100400D02*
X44863Y100400D01*
X57750Y107225D02*
X65378Y107078D01*
X193075Y12875D02*
X193075Y16575D01*
X61230Y92681D02*
X61800Y92111D01*
X24325Y106496D02*
X24325Y115951D01*
D11*
X167005Y98349D02*
X177800Y98349D01*
X104300Y98445D02*
X105665Y97080D01*
D10*
X62250Y80045D02*
X77900Y80045D01*
D11*
X2200Y124300D02*
X2200Y124100D01*
X160425Y116775D02*
X162100Y118450D01*
D10*
X14425Y85406D02*
X16715Y83142D01*
D11*
X23185Y23015D02*
X22700Y23500D01*
D10*
X112050Y111250D02*
X114237Y111250D01*
D11*
X74390Y78445D02*
X75650Y76760D01*
D10*
X41438Y91505D02*
X43995Y91505D01*
X171550Y103450D02*
X191650Y103450D01*
X34823Y35468D02*
X34456Y35127D01*
D11*
X3000Y112850D02*
X5021Y111504D01*
X23670Y88975D02*
X19861Y85166D01*
D10*
X23038Y84322D02*
X26513Y84322D01*
X20000Y34600D02*
X20000Y35300D01*
X14075Y85000D02*
X16593Y82659D01*
X31295Y41306D02*
X31295Y71950D01*
X34031Y95136D02*
X35020Y96125D01*
X16715Y83142D02*
X21858Y83142D01*
X43240Y88840D02*
X44175Y88840D01*
X131325Y111531D02*
X131325Y113025D01*
X213350Y87234D02*
X213795Y87629D01*
X30939Y26790D02*
X32529Y25200D01*
X112050Y114225D02*
X114000Y114225D01*
X29150Y28400D02*
X29150Y26725D01*
X122100Y81550D02*
X137700Y81550D01*
X30492Y32062D02*
X31171Y32700D01*
X95507Y108333D02*
X111272Y108333D01*
X212425Y49900D02*
X212600Y51400D01*
X209375Y91477D02*
X206957Y91477D01*
X203961Y89514D02*
X203325Y90150D01*
X214339Y105085D02*
X215775Y106650D01*
X36244Y88975D02*
X34824Y90395D01*
X212289Y88829D02*
X212289Y89296D01*
X56780Y77300D02*
X60150Y77300D01*
X114237Y111250D02*
X117562Y108128D01*
X48400Y79050D02*
X47780Y79050D01*
X216275Y103200D02*
X215800Y102725D01*
X43675Y111905D02*
X42517Y111905D01*
X63262Y83624D02*
X64636Y81926D01*
X214794Y86056D02*
X214348Y86450D01*
X35800Y23025D02*
X36800Y22025D01*
D11*
X202870Y73736D02*
X203556Y74422D01*
D10*
X102100Y120045D02*
X117805Y120045D01*
X210950Y86736D02*
X210950Y86106D01*
X38875Y111500D02*
X38875Y121905D01*
X36875Y38150D02*
X36756Y38294D01*
X56337Y77794D02*
X56847Y78303D01*
X30939Y30771D02*
X30939Y31252D01*
D11*
X97993Y98445D02*
X96317Y98445D01*
D10*
X43675Y113175D02*
X43025Y113175D01*
D11*
X42536Y116646D02*
X42231Y116646D01*
D10*
X213125Y101564D02*
X214286Y102725D01*
X142100Y120045D02*
X157795Y120045D01*
X32500Y97350D02*
X32500Y95500D01*
D11*
X12990Y107500D02*
X12990Y104277D01*
D10*
X40000Y10000D02*
X45600Y10000D01*
X92075Y113675D02*
X93700Y113675D01*
D11*
X186495Y97270D02*
X187125Y97900D01*
D10*
X204750Y87075D02*
X205400Y87725D01*
X212352Y105085D02*
X211525Y105085D01*
X41910Y26086D02*
X40513Y24689D01*
D11*
X185475Y117125D02*
X200725Y117125D01*
D10*
X173990Y83600D02*
X199945Y83600D01*
X20000Y45050D02*
X25350Y50400D01*
D11*
X62555Y118445D02*
X65322Y118445D01*
X6879Y34246D02*
X5560Y35565D01*
D10*
X20985Y100725D02*
X20690Y100725D01*
X31171Y32700D02*
X31171Y34122D01*
X214775Y97000D02*
X215175Y96333D01*
X10800Y110000D02*
X12990Y110000D01*
D11*
X66250Y117675D02*
X66390Y117675D01*
D12*
X16625Y29505D02*
X19560Y29505D01*
D11*
X5450Y90170D02*
X5595Y90315D01*
D10*
X13775Y113900D02*
X15750Y111800D01*
X207635Y101410D02*
X207635Y103215D01*
D11*
X25273Y83142D02*
X26520Y81895D01*
X3000Y114300D02*
X3000Y112850D01*
D10*
X23800Y73850D02*
X26215Y76265D01*
X46225Y105950D02*
X45020Y104326D01*
X52105Y85670D02*
X55640Y85670D01*
X49625Y87500D02*
X50975Y87500D01*
X16650Y104050D02*
X16650Y112540D01*
X41389Y86425D02*
X41389Y86989D01*
X43675Y109365D02*
X42876Y109365D01*
X34825Y23500D02*
X33125Y25200D01*
X30760Y31710D02*
X30939Y31912D01*
X214775Y97000D02*
X214064Y98786D01*
X204775Y90250D02*
X209060Y90250D01*
X5531Y75210D02*
X5531Y82444D01*
X45830Y95100D02*
X48140Y93979D01*
X18700Y74300D02*
X18950Y74825D01*
X85750Y19175D02*
X83125Y16425D01*
X213350Y85445D02*
X213156Y85200D01*
X210175Y90677D02*
X209375Y91477D01*
X58350Y112300D02*
X69311Y112300D01*
X142100Y81750D02*
X157802Y81750D01*
D11*
X144025Y98445D02*
X145320Y97150D01*
D10*
X33447Y38775D02*
X36275Y38775D01*
X140000Y45050D02*
X146975Y39675D01*
X33900Y119246D02*
X33900Y117175D01*
D11*
X194129Y77350D02*
X200880Y77350D01*
D10*
X200800Y109375D02*
X199925Y109375D01*
X162100Y120045D02*
X177900Y120045D01*
X62100Y100045D02*
X63505Y100045D01*
D11*
X208946Y78315D02*
X212350Y78315D01*
D10*
X51025Y106825D02*
X51475Y105775D01*
X56000Y84575D02*
X57450Y86025D01*
D11*
X176301Y78450D02*
X177945Y78450D01*
D10*
X30873Y77857D02*
X30050Y77035D01*
X7500Y93029D02*
X9728Y93029D01*
D11*
X44496Y108095D02*
X45466Y109065D01*
D10*
X38400Y24689D02*
X37211Y23500D01*
X4495Y99955D02*
X4050Y100400D01*
D11*
X28372Y81122D02*
X27599Y81895D01*
D10*
X31360Y35540D02*
X33447Y35540D01*
X215392Y92697D02*
X214143Y93946D01*
X169800Y86675D02*
X167000Y83875D01*
D11*
X122100Y118445D02*
X124125Y118445D01*
D10*
X82100Y101645D02*
X97800Y101645D01*
X40000Y45050D02*
X45200Y50250D01*
X31900Y40900D02*
X31701Y40900D01*
D11*
X38598Y106825D02*
X37761Y106810D01*
D10*
X137481Y111125D02*
X148775Y111125D01*
X49075Y106825D02*
X51025Y106825D01*
X49300Y74825D02*
X50198Y75139D01*
X43264Y31627D02*
X46450Y31625D01*
D11*
X60477Y117748D02*
X64154Y114071D01*
D10*
X202100Y121500D02*
X202245Y121645D01*
X3000Y99060D02*
X2865Y99060D01*
X71625Y113650D02*
X73750Y113650D01*
X25500Y27575D02*
X27425Y29500D01*
X46510Y76265D02*
X46535Y76290D01*
D11*
X44600Y25400D02*
X44600Y30000D01*
D10*
X4050Y100400D02*
X2850Y101600D01*
X53440Y81145D02*
X52775Y80480D01*
X51025Y108700D02*
X54055Y108700D01*
X82100Y100045D02*
X97900Y100045D01*
X64050Y95550D02*
X62600Y96350D01*
X7300Y72975D02*
X7081Y73194D01*
X28236Y36045D02*
X28161Y36177D01*
X29950Y81100D02*
X29375Y80450D01*
X54725Y80590D02*
X54725Y82120D01*
X203961Y89514D02*
X208001Y89514D01*
X47200Y33850D02*
X46450Y34600D01*
X53554Y79212D02*
X51088Y79212D01*
X162975Y18175D02*
X162325Y17525D01*
X70325Y83100D02*
X70325Y89150D01*
X73421Y81139D02*
X74100Y82825D01*
X102200Y81645D02*
X117780Y81645D01*
X26775Y27600D02*
X28250Y29075D01*
X31625Y35127D02*
X34431Y35127D01*
X22100Y78445D02*
X22645Y78990D01*
X205328Y77047D02*
X205277Y82223D01*
D11*
X31551Y103801D02*
X31551Y102318D01*
D10*
X169800Y94125D02*
X169800Y86675D01*
X49711Y88764D02*
X56225Y88764D01*
D11*
X103775Y78475D02*
X104774Y77171D01*
D10*
X24715Y127550D02*
X46200Y127550D01*
X30314Y32513D02*
X30760Y32925D01*
D11*
X75108Y89975D02*
X75108Y94089D01*
X68700Y89290D02*
X68704Y89295D01*
X14760Y116165D02*
X14760Y118110D01*
D10*
X10950Y78755D02*
X10950Y76290D01*
X46225Y105950D02*
X46225Y110635D01*
X38875Y121905D02*
X40160Y123190D01*
X63875Y108931D02*
X64931Y107875D01*
X47150Y119340D02*
X46510Y118700D01*
D11*
X140950Y77300D02*
X142150Y78500D01*
D10*
X68456Y103850D02*
X78875Y103850D01*
X9680Y118110D02*
X9680Y116070D01*
X28250Y25825D02*
X28250Y24792D01*
X34925Y98275D02*
X34450Y97800D01*
X95687Y111663D02*
X96275Y111100D01*
X4650Y83507D02*
X4650Y85825D01*
X34381Y20900D02*
X40400Y20800D01*
X64137Y105606D02*
X64137Y105838D01*
X136738Y110637D02*
X151112Y110637D01*
X151975Y19175D02*
X149250Y16450D01*
D11*
X4500Y105292D02*
X5267Y105254D01*
D10*
X62100Y120045D02*
X77900Y120045D01*
X49650Y78125D02*
X50475Y77300D01*
X43995Y91505D02*
X44200Y91300D01*
D11*
X13835Y97125D02*
X13635Y97340D01*
X142100Y118425D02*
X144400Y118425D01*
D10*
X28161Y29875D02*
X27225Y29875D01*
D11*
X213625Y111951D02*
X213625Y115200D01*
D10*
X4050Y102935D02*
X4050Y102935D01*
X28138Y33331D02*
X28138Y34603D01*
D11*
X43650Y105580D02*
X41509Y105555D01*
D10*
X216556Y100175D02*
X216556Y41281D01*
X78052Y87402D02*
X82571Y87402D01*
X23009Y122050D02*
X23009Y122051D01*
X63275Y84550D02*
X63646Y84550D01*
X210150Y86736D02*
X210150Y84630D01*
X19869Y37131D02*
X21525Y35475D01*
D11*
X67096Y116850D02*
X80505Y116850D01*
D10*
X18650Y118025D02*
X18650Y127775D01*
X54725Y82120D02*
X55050Y82445D01*
D11*
X4650Y121850D02*
X5850Y120650D01*
D10*
X211925Y98525D02*
X211925Y96881D01*
D11*
X56900Y76350D02*
X54836Y74261D01*
D10*
X216150Y100575D02*
X215875Y100804D01*
X23194Y122050D02*
X23009Y122050D01*
X64575Y72050D02*
X60000Y67475D01*
X51774Y91205D02*
X50650Y90131D01*
X40925Y76795D02*
X41455Y76265D01*
D11*
X0950Y108270D02*
X0950Y95800D01*
D10*
X55257Y120793D02*
X55257Y123047D01*
X48975Y124875D02*
X48975Y122095D01*
X37608Y99578D02*
X38430Y100400D01*
X50770Y91475D02*
X51124Y91829D01*
X36820Y97925D02*
X37608Y98713D01*
D11*
X9610Y57350D02*
X6000Y60960D01*
X4650Y121850D02*
X4650Y123514D01*
X51497Y127559D02*
X50049Y126111D01*
D10*
X214348Y43023D02*
X214348Y78450D01*
D12*
X209590Y96011D02*
X209590Y95230D01*
D10*
X30125Y32925D02*
X30314Y33105D01*
X3000Y66040D02*
X6810Y65990D01*
X55855Y100400D02*
X56725Y99530D01*
X35020Y77620D02*
X35020Y79290D01*
X32410Y37650D02*
X31560Y38500D01*
X213875Y106608D02*
X212352Y105085D01*
X37850Y31164D02*
X37850Y36350D01*
X10575Y40800D02*
X10000Y40150D01*
X41910Y30272D02*
X41910Y26086D01*
D11*
X7050Y112670D02*
X8745Y114365D01*
X72990Y87500D02*
X72187Y86697D01*
D10*
X41430Y114770D02*
X41430Y115541D01*
X142250Y101645D02*
X157900Y101645D01*
X64350Y96200D02*
X169943Y96302D01*
D11*
X44737Y114445D02*
X43675Y114445D01*
D10*
X128825Y109706D02*
X130825Y111706D01*
D11*
X146050Y116775D02*
X160425Y116775D01*
D10*
X33300Y116575D02*
X33300Y115541D01*
D11*
X59792Y119232D02*
X60477Y118546D01*
D10*
X57025Y106050D02*
X56275Y105350D01*
X47091Y80104D02*
X47450Y79745D01*
X69311Y112300D02*
X71386Y114250D01*
X212942Y95230D02*
X214411Y95230D01*
X56667Y96977D02*
X56667Y97317D01*
D11*
X125325Y77300D02*
X140950Y77300D01*
X70700Y94800D02*
X64910Y94800D01*
D10*
X54750Y82445D02*
X55475Y82445D01*
X210375Y82047D02*
X210717Y81705D01*
X22100Y81645D02*
X23800Y81645D01*
X15394Y37131D02*
X19869Y37131D01*
X211125Y33375D02*
X211125Y56975D01*
X36150Y35493D02*
X34823Y35468D01*
X28900Y113200D02*
X27750Y115800D01*
X171350Y16550D02*
X171350Y16100D01*
X94200Y114325D02*
X96900Y111625D01*
X52300Y93600D02*
X51380Y92680D01*
X11700Y116200D02*
X10950Y116950D01*
X20777Y26177D02*
X22180Y27580D01*
X5125Y74719D02*
X5100Y81960D01*
X210950Y86106D02*
X211433Y85935D01*
X48677Y98100D02*
X49084Y98506D01*
X97645Y83294D02*
X129906Y83306D01*
D11*
X5375Y113225D02*
X6495Y113225D01*
D10*
X52000Y83885D02*
X53440Y82445D01*
X202350Y111750D02*
X199875Y111750D01*
X49650Y79050D02*
X49650Y78125D01*
D11*
X26775Y23015D02*
X23185Y23015D01*
D12*
X28408Y38225D02*
X28408Y36532D01*
D10*
X33835Y76265D02*
X33835Y78780D01*
X56725Y99530D02*
X56725Y97900D01*
D11*
X205600Y118500D02*
X205600Y117925D01*
X6879Y34246D02*
X8971Y34246D01*
D10*
X95537Y111838D02*
X95687Y111663D01*
X8375Y38250D02*
X8375Y35650D01*
D11*
X105780Y118445D02*
X106883Y118445D01*
D10*
X42850Y92650D02*
X44175Y92650D01*
X76851Y89849D02*
X76851Y94468D01*
X52061Y81816D02*
X53440Y81816D01*
X203325Y90150D02*
X200600Y90150D01*
X7081Y73194D02*
X7081Y73660D01*
D11*
X25273Y85498D02*
X26075Y86300D01*
D10*
X1800Y100400D02*
X1800Y102075D01*
D11*
X31551Y102318D02*
X31050Y101816D01*
X76534Y78445D02*
X77900Y78445D01*
X60695Y76760D02*
X60285Y76350D01*
D10*
X49534Y100400D02*
X55855Y100400D01*
D11*
X64910Y94800D02*
X64235Y94125D01*
X120530Y116875D02*
X122100Y118445D01*
D12*
X212350Y78315D02*
X212350Y79716D01*
D10*
X54616Y75088D02*
X56780Y77300D01*
X52225Y86250D02*
X54810Y86250D01*
X94300Y115325D02*
X97428Y112197D01*
X57472Y81145D02*
X57972Y81645D01*
X196150Y108025D02*
X195075Y106875D01*
D11*
X43675Y115507D02*
X42536Y116646D01*
D10*
X213125Y87725D02*
X213925Y88525D01*
X205277Y82223D02*
X205250Y84100D01*
D11*
X12990Y104277D02*
X12014Y103302D01*
D10*
X58179Y113156D02*
X58585Y112750D01*
D11*
X208879Y78248D02*
X208946Y78315D01*
X74390Y78445D02*
X72705Y76760D01*
D10*
X57981Y108550D02*
X62331Y108550D01*
X203879Y88350D02*
X203350Y87821D01*
X49075Y110635D02*
X51615Y110635D01*
X47780Y79050D02*
X47780Y79127D01*
X17570Y86175D02*
X17325Y86420D01*
D11*
X13635Y97340D02*
X12700Y98275D01*
X38645Y77750D02*
X39484Y77750D01*
D10*
X200600Y90150D02*
X200325Y89875D01*
X148775Y111125D02*
X151375Y113725D01*
X17325Y86420D02*
X17325Y92575D01*
D11*
X142125Y78500D02*
X143975Y78500D01*
D10*
X19840Y125755D02*
X19840Y123190D01*
X182100Y100045D02*
X198075Y100045D01*
X93700Y113675D02*
X95537Y111838D01*
X10219Y87162D02*
X10219Y85988D01*
X12647Y72565D02*
X17715Y72565D01*
X69576Y81951D02*
X70325Y83100D01*
D11*
X6852Y25513D02*
X7950Y25000D01*
D10*
X102200Y80045D02*
X117780Y80045D01*
X122100Y120045D02*
X137900Y120045D01*
X212425Y18450D02*
X212425Y49900D01*
X210050Y102435D02*
X210859Y101513D01*
D11*
X145700Y78554D02*
X146935Y78554D01*
D10*
X157705Y100045D02*
X157900Y99850D01*
D11*
X68700Y83175D02*
X68700Y93321D01*
D10*
X35639Y100681D02*
X34950Y100131D01*
X107865Y86400D02*
X107950Y86400D01*
X53869Y106269D02*
X54275Y106825D01*
X36094Y38238D02*
X36681Y37650D01*
X215775Y110675D02*
X215775Y106650D01*
X61800Y92111D02*
X63164Y92111D01*
D11*
X190475Y76212D02*
X192951Y73736D01*
D10*
X45830Y95100D02*
X45190Y95740D01*
X209750Y92838D02*
X208642Y93946D01*
D11*
X145225Y77325D02*
X161050Y77325D01*
X1270Y32210D02*
X1270Y38835D01*
D10*
X43264Y31625D02*
X43263Y31625D01*
X58297Y83675D02*
X63262Y83624D01*
X47780Y118110D02*
X47780Y115900D01*
X142100Y100045D02*
X157705Y100045D01*
D11*
X193050Y92500D02*
X192135Y92500D01*
D10*
X87850Y82731D02*
X88894Y81509D01*
X212396Y95775D02*
X211108Y95775D01*
X4050Y102935D02*
X6010Y100975D01*
X47150Y119375D02*
X47150Y119340D01*
X26215Y96585D02*
X24680Y95050D01*
X49065Y98525D02*
X49065Y99750D01*
X57675Y109531D02*
X62950Y109506D01*
D11*
X83800Y98445D02*
X85165Y97080D01*
D10*
X34055Y80256D02*
X34055Y80940D01*
D11*
X206832Y74524D02*
X208767Y74524D01*
D10*
X212752Y102152D02*
X215800Y105200D01*
X62600Y96350D02*
X57341Y96350D01*
X17199Y26177D02*
X20777Y26177D01*
X49534Y100400D02*
X49084Y100850D01*
X48400Y76965D02*
X48400Y78400D01*
X29550Y31264D02*
X29550Y32236D01*
X57256Y82645D02*
X59050Y82645D01*
D11*
X7440Y52400D02*
X10125Y55085D01*
D10*
X25600Y28250D02*
X27225Y29875D01*
X49084Y98506D02*
X49065Y98525D01*
X63505Y100045D02*
X64050Y100590D01*
X49065Y103799D02*
X48509Y104205D01*
X21135Y76265D02*
X21135Y75835D01*
X34360Y101037D02*
X35139Y101816D01*
D11*
X197900Y78445D02*
X199400Y78445D01*
D10*
X213094Y93020D02*
X213094Y90567D01*
D11*
X60285Y76350D02*
X56900Y76350D01*
X44175Y93979D02*
X42829Y95325D01*
X17900Y78359D02*
X17900Y77098D01*
D10*
X29404Y35027D02*
X28236Y36045D01*
X38346Y85104D02*
X38825Y84625D01*
X48415Y100400D02*
X45600Y100400D01*
X40160Y125755D02*
X40160Y125730D01*
X40400Y80475D02*
X40400Y76882D01*
D11*
X3000Y114300D02*
X4650Y114300D01*
D10*
X29325Y41550D02*
X29325Y74125D01*
D11*
X100530Y116875D02*
X102100Y118445D01*
D10*
X30939Y31912D02*
X31574Y32513D01*
X57972Y80045D02*
X57847Y80045D01*
D11*
X9160Y78640D02*
X7600Y80200D01*
D10*
X35020Y79290D02*
X34055Y80256D01*
X202375Y88925D02*
X201975Y88525D01*
X4150Y83400D02*
X4150Y84825D01*
X57785Y100045D02*
X57162Y100045D01*
X184800Y26175D02*
X184800Y17450D01*
X43577Y110537D02*
X41430Y110537D01*
X50450Y92719D02*
X50793Y93240D01*
X208724Y92116D02*
X208649Y92144D01*
X216535Y101300D02*
X214135Y101300D01*
X32500Y80256D02*
X34055Y81810D01*
D11*
X57900Y118445D02*
X55685Y116230D01*
D10*
X52425Y113650D02*
X54175Y113650D01*
X202725Y108725D02*
X208875Y114875D01*
D11*
X200925Y97270D02*
X202100Y98445D01*
X184150Y118450D02*
X185475Y117125D01*
D10*
X25750Y115650D02*
X25750Y116675D01*
X56244Y92681D02*
X61230Y92681D01*
D11*
X102125Y78475D02*
X103775Y78475D01*
X31551Y103801D02*
X34025Y106275D01*
X80730Y97075D02*
X82100Y98445D01*
D10*
X29725Y87308D02*
X29950Y86895D01*
X211825Y89835D02*
X211825Y91071D01*
D12*
X10860Y29310D02*
X11520Y28650D01*
D10*
X66021Y107644D02*
X66021Y109227D01*
D11*
X67385Y98240D02*
X68550Y97075D01*
X12014Y103302D02*
X9709Y103302D01*
X125050Y97150D02*
X140805Y97150D01*
D10*
X206500Y88525D02*
X206100Y88925D01*
X29550Y28400D02*
X29550Y26675D01*
X18575Y116400D02*
X18575Y117950D01*
D11*
X42860Y86006D02*
X42534Y85679D01*
D10*
X32500Y74450D02*
X32500Y80256D01*
X130965Y108128D02*
X132990Y110000D01*
X212289Y93825D02*
X213094Y93020D01*
X3000Y53340D02*
X1175Y55165D01*
D11*
X9100Y90315D02*
X9535Y90750D01*
D10*
X102250Y101645D02*
X117800Y101645D01*
X50983Y113175D02*
X52083Y114275D01*
X117562Y108128D02*
X130965Y108128D01*
X208879Y83359D02*
X210150Y84630D01*
X211539Y87325D02*
X211985Y87325D01*
X19029Y30000D02*
X13400Y30000D01*
X111650Y114775D02*
X114231Y114775D01*
X57450Y86025D02*
X57450Y89325D01*
X51590Y81345D02*
X52061Y81816D01*
X171150Y86440D02*
X173990Y83600D01*
X20690Y100725D02*
X18390Y98275D01*
X54055Y108700D02*
X54720Y109365D01*
X8750Y38600D02*
X8750Y40675D01*
X11262Y41488D02*
X10575Y40800D01*
X122100Y101645D02*
X137820Y101645D01*
X28404Y104896D02*
X30000Y104896D01*
X6758Y100351D02*
X17147Y100351D01*
X54645Y111713D02*
X56730Y111713D01*
X66021Y109227D02*
X66929Y110134D01*
X29404Y33980D02*
X29404Y35027D01*
X49075Y109365D02*
X50360Y109365D01*
D11*
X30485Y37490D02*
X29550Y36555D01*
D10*
X35200Y104930D02*
X32725Y102950D01*
X209750Y90393D02*
X209254Y90889D01*
X43373Y108095D02*
X43675Y108095D01*
X5100Y81960D02*
X5100Y82450D01*
X133525Y113850D02*
X136738Y110637D01*
X51124Y92350D02*
X51124Y91829D01*
X129700Y108675D02*
X132150Y111125D01*
X50300Y79700D02*
X49650Y79050D01*
X212325Y97392D02*
X212325Y98786D01*
X20000Y10000D02*
X25425Y10000D01*
X14550Y110940D02*
X14550Y101525D01*
D11*
X94339Y89027D02*
X111463Y89027D01*
D10*
X26513Y84322D02*
X27409Y83425D01*
D11*
X5735Y35560D02*
X7425Y37250D01*
D10*
X210550Y89514D02*
X210600Y90840D01*
X51615Y110635D02*
X52155Y111175D01*
D11*
X75650Y76760D02*
X79110Y76760D01*
X7400Y37275D02*
X7400Y52400D01*
X92812Y87500D02*
X94339Y89027D01*
D10*
X212725Y98786D02*
X212725Y97617D01*
X22600Y101016D02*
X34226Y101016D01*
D11*
X157900Y98445D02*
X155671Y98445D01*
D10*
X60515Y125755D02*
X57900Y123140D01*
X62950Y109506D02*
X63875Y108931D01*
X205325Y124750D02*
X208875Y121200D01*
D11*
X122125Y78475D02*
X124150Y78475D01*
D12*
X204953Y99915D02*
X206291Y99915D01*
D10*
X61525Y83039D02*
X62959Y83064D01*
D12*
X28408Y36532D02*
X28138Y36262D01*
D10*
X31700Y106776D02*
X35510Y110586D01*
X4265Y87760D02*
X5450Y87750D01*
X97820Y81645D02*
X96830Y80655D01*
X182100Y101645D02*
X197900Y101645D01*
X213677Y97367D02*
X213925Y97392D01*
X35020Y96125D02*
X35020Y97207D01*
D11*
X68550Y97075D02*
X80730Y97075D01*
X124225Y78400D02*
X125325Y77300D01*
D10*
X208340Y95725D02*
X207355Y95725D01*
X65456Y107078D02*
X66021Y107644D01*
X212379Y103750D02*
X211925Y103347D01*
D11*
X1270Y32210D02*
X3000Y30480D01*
D10*
X213267Y96450D02*
X212325Y97392D01*
X31599Y33946D02*
X32171Y34698D01*
D11*
X82100Y98445D02*
X83800Y98445D01*
D10*
X199848Y91700D02*
X197450Y89302D01*
D11*
X59303Y98445D02*
X57900Y98445D01*
X42907Y83662D02*
X42890Y83671D01*
D10*
X202245Y121645D02*
X206925Y121645D01*
X162100Y121645D02*
X177900Y121645D01*
X2235Y87760D02*
X4265Y87760D01*
X49075Y76290D02*
X48400Y76965D01*
D11*
X42860Y87016D02*
X43389Y87570D01*
D10*
X43079Y104326D02*
X45020Y104326D01*
X66929Y110134D02*
X72939Y110134D01*
X215265Y91098D02*
X215265Y88545D01*
X12990Y112500D02*
X14550Y110940D01*
X46639Y96614D02*
X48125Y98100D01*
D11*
X45155Y87570D02*
X46330Y88745D01*
D10*
X207355Y95725D02*
X205725Y97355D01*
D11*
X185375Y97270D02*
X186495Y97270D01*
X44175Y82290D02*
X44175Y82369D01*
D10*
X14497Y23475D02*
X17199Y26177D01*
X156700Y110975D02*
X171215Y110975D01*
D11*
X15075Y97125D02*
X13835Y97125D01*
X86919Y118575D02*
X85650Y118575D01*
D10*
X210985Y91696D02*
X210985Y91947D01*
X31171Y34122D02*
X31625Y35127D01*
X207990Y116565D02*
X200800Y109375D01*
X10800Y85406D02*
X14425Y85406D01*
X32896Y41103D02*
X32350Y41649D01*
X211825Y89835D02*
X212289Y89296D01*
X54725Y80590D02*
X54180Y80045D01*
X216556Y41281D02*
X215500Y40175D01*
X48717Y11557D02*
X50114Y10160D01*
D11*
X5021Y111504D02*
X5021Y106950D01*
X11218Y89882D02*
X10350Y90750D01*
X5540Y43180D02*
X5540Y53010D01*
D10*
X54056Y111175D02*
X54645Y111713D01*
D11*
X41430Y117459D02*
X40762Y117459D01*
D10*
X60420Y91705D02*
X63850Y88275D01*
X47087Y32100D02*
X47125Y32225D01*
D12*
X206291Y99915D02*
X206705Y99500D01*
D11*
X167157Y78450D02*
X165760Y78450D01*
D10*
X114000Y114225D02*
X119000Y109225D01*
X151375Y113725D02*
X153950Y113725D01*
X167075Y40175D02*
X168575Y40150D01*
D11*
X72990Y107500D02*
X68405Y107500D01*
D10*
X210275Y100575D02*
X210884Y100575D01*
X182150Y81650D02*
X197795Y81650D01*
X54810Y86250D02*
X55810Y87250D01*
X19381Y81757D02*
X17976Y81757D01*
X96909Y83294D02*
X97645Y83294D01*
X209190Y100575D02*
X209644Y100175D01*
X168250Y94125D02*
X168250Y87500D01*
X44175Y80590D02*
X41923Y78337D01*
X210050Y100800D02*
X210275Y100575D01*
X25500Y115400D02*
X25750Y115650D01*
D11*
X10075Y56925D02*
X9610Y57350D01*
D10*
X64925Y77475D02*
X68400Y77475D01*
X9870Y26250D02*
X8500Y27620D01*
D11*
X68704Y93325D02*
X68700Y93325D01*
X144400Y118425D02*
X146050Y116775D01*
D10*
X26613Y37725D02*
X26613Y35767D01*
X40400Y76882D02*
X38915Y76265D01*
X36650Y27300D02*
X35800Y26600D01*
X53890Y80045D02*
X53890Y79548D01*
X45190Y97253D02*
X44602Y97841D01*
D11*
X182100Y98445D02*
X184200Y98445D01*
D10*
X212396Y95775D02*
X212942Y95230D01*
X47450Y79457D02*
X47450Y79745D01*
X36779Y30093D02*
X37850Y31164D01*
D11*
X26311Y105000D02*
X27600Y103711D01*
D12*
X19560Y29505D02*
X22109Y32079D01*
D10*
X137700Y81550D02*
X137900Y81750D01*
X41988Y106710D02*
X43373Y108095D01*
X16593Y82659D02*
X24504Y82659D01*
X5100Y82450D02*
X4150Y83400D01*
X72210Y124750D02*
X205325Y124750D01*
D11*
X202521Y76129D02*
X204292Y77900D01*
D10*
X20835Y102781D02*
X20835Y101760D01*
X210936Y99375D02*
X209389Y97827D01*
X32005Y33780D02*
X32400Y34225D01*
X22476Y122585D02*
X22476Y124000D01*
X17300Y125755D02*
X17300Y123190D01*
X23580Y79025D02*
X24275Y79025D01*
X51475Y105775D02*
X54865Y105775D01*
X34100Y74825D02*
X49300Y74825D01*
X13206Y33250D02*
X11431Y35025D01*
X33300Y110461D02*
X33300Y112151D01*
X19650Y81800D02*
X19381Y81757D01*
X56000Y77794D02*
X56337Y77794D01*
X216535Y101300D02*
X217031Y100804D01*
D11*
X125650Y116920D02*
X140595Y116920D01*
D10*
X49625Y85055D02*
X52330Y85030D01*
X49084Y96614D02*
X51594Y99125D01*
D11*
X204292Y77900D02*
X204292Y77064D01*
D10*
X68650Y112750D02*
X70925Y115025D01*
X49075Y80375D02*
X49075Y80375D01*
X82100Y80045D02*
X97820Y80045D01*
X40160Y125730D02*
X42700Y123190D01*
X74225Y114250D02*
X76150Y112300D01*
X206281Y90889D02*
X209254Y90889D01*
X41455Y94045D02*
X42850Y92650D01*
X56261Y97758D02*
X56261Y98990D01*
X211525Y98685D02*
X209590Y97004D01*
X76851Y94468D02*
X75768Y95550D01*
X199875Y111750D02*
X196150Y108025D01*
X97700Y121645D02*
X82100Y121645D01*
D11*
X60477Y118546D02*
X60477Y117748D01*
D10*
X91025Y103800D02*
X95507Y108333D01*
X56847Y79146D02*
X56847Y78303D01*
X30700Y72650D02*
X30700Y40600D01*
X212876Y73958D02*
X205328Y77047D01*
X50793Y93723D02*
X50793Y93240D01*
X210556Y86736D02*
X210556Y86100D01*
X86675Y84450D02*
X83400Y88025D01*
X96275Y111100D02*
X109725Y111200D01*
D11*
X117900Y98445D02*
X116332Y98445D01*
D10*
X44602Y97841D02*
X42852Y97841D01*
X53140Y90150D02*
X56625Y90150D01*
D11*
X66363Y99527D02*
X67385Y98455D01*
D10*
X207635Y103215D02*
X207294Y103556D01*
X153950Y113725D02*
X156700Y110975D01*
D11*
X6495Y113225D02*
X7050Y112670D01*
D10*
X214143Y93946D02*
X213925Y93946D01*
X53955Y97016D02*
X55775Y92199D01*
X9620Y87760D02*
X10219Y87162D01*
X11396Y36725D02*
X10900Y36200D01*
X64050Y95550D02*
X75768Y95550D01*
X214064Y98786D02*
X213125Y98786D01*
X215300Y94340D02*
X215300Y92697D01*
X28750Y31264D02*
X28775Y32600D01*
X20400Y95050D02*
X19700Y95750D01*
X52895Y121360D02*
X52895Y120650D01*
D11*
X91821Y82550D02*
X92990Y83719D01*
D10*
X44125Y101841D02*
X41988Y101841D01*
X63285Y81645D02*
X63905Y80594D01*
X213714Y103797D02*
X214339Y104496D01*
X52330Y85055D02*
X52810Y84575D01*
X17147Y100351D02*
X17925Y101104D01*
X76850Y112800D02*
X89150Y112800D01*
D11*
X11088Y93200D02*
X14434Y93200D01*
D10*
X38938Y79986D02*
X37959Y79986D01*
X39025Y35575D02*
X39025Y36975D01*
X45250Y79500D02*
X45250Y79515D01*
X7300Y72975D02*
X13750Y72975D01*
X213925Y93946D02*
X213925Y93996D01*
X33550Y74125D02*
X33550Y72050D01*
X109072Y112197D02*
X111650Y114775D01*
D11*
X144000Y78550D02*
X145225Y77325D01*
X140805Y97150D02*
X142100Y98445D01*
D10*
X140800Y26325D02*
X140800Y17375D01*
X76665Y80615D02*
X76770Y80615D01*
X51590Y83885D02*
X52000Y83885D01*
X29325Y41550D02*
X29125Y41350D01*
X50175Y105325D02*
X49075Y105650D01*
X33900Y117175D02*
X33300Y116575D01*
D11*
X124125Y118445D02*
X125650Y116920D01*
D10*
X56500Y113156D02*
X58179Y113156D01*
X26650Y107826D02*
X26650Y106650D01*
X75604Y100590D02*
X76149Y100045D01*
X33062Y38238D02*
X32410Y38890D01*
D11*
X55475Y79930D02*
X55475Y78831D01*
D10*
X36275Y33921D02*
X35600Y34673D01*
D11*
X97820Y78445D02*
X94894Y78445D01*
D10*
X31804Y27075D02*
X32954Y25925D01*
X172656Y102950D02*
X193475Y102950D01*
X52860Y125720D02*
X52860Y120650D01*
X151800Y111325D02*
X154075Y111325D01*
X50645Y78400D02*
X50940Y78400D01*
D11*
X127229Y118425D02*
X125825Y118425D01*
X43675Y108095D02*
X44496Y108095D01*
D10*
X39500Y79500D02*
X38938Y79986D01*
X50825Y112050D02*
X52425Y113650D01*
D11*
X19011Y84322D02*
X19982Y85293D01*
D10*
X16650Y112540D02*
X12990Y116200D01*
X211800Y109478D02*
X213309Y107969D01*
X200000Y83655D02*
X199945Y83600D01*
X71175Y90000D02*
X72990Y90000D01*
X51380Y97016D02*
X53955Y97016D01*
X89150Y112800D02*
X91575Y115325D01*
X214225Y99375D02*
X213364Y99375D01*
X90800Y86425D02*
X90825Y86425D01*
X15750Y105100D02*
X15750Y111800D01*
X209600Y91840D02*
X210600Y90840D01*
X26613Y37771D02*
X30023Y41181D01*
X42608Y104930D02*
X43079Y104326D01*
D11*
X81490Y78445D02*
X80775Y78990D01*
D10*
X6825Y71200D02*
X18275Y71200D01*
X36853Y81645D02*
X37928Y81645D01*
X38400Y24689D02*
X40513Y24689D01*
D11*
X42907Y83662D02*
X42907Y84553D01*
D10*
X43970Y76290D02*
X43970Y78805D01*
D11*
X10860Y32700D02*
X10676Y32700D01*
X1025Y109220D02*
X0950Y108270D01*
X200880Y77350D02*
X201975Y78445D01*
D10*
X202350Y111750D02*
X206850Y116250D01*
X205075Y104720D02*
X202000Y101645D01*
X34827Y28673D02*
X36326Y28682D01*
D12*
X22109Y35164D02*
X25601Y38225D01*
D10*
X34809Y85375D02*
X35096Y85088D01*
X172656Y102950D02*
X172250Y102544D01*
X210550Y85806D02*
X210594Y84306D01*
X32251Y113200D02*
X33300Y112151D01*
X63975Y78425D02*
X64925Y77475D01*
D11*
X66390Y117675D02*
X67096Y116969D01*
D10*
X71386Y114250D02*
X74225Y114250D01*
D11*
X184200Y95679D02*
X184200Y96672D01*
D12*
X206705Y98477D02*
X207355Y97827D01*
D10*
X210556Y86100D02*
X210550Y85806D01*
X54180Y80045D02*
X53890Y80045D01*
D12*
X215655Y84626D02*
X214856Y85300D01*
D10*
X212725Y101564D02*
X212750Y102152D01*
X42534Y90110D02*
X44175Y90110D01*
X20400Y95050D02*
X24680Y95050D01*
X53140Y90150D02*
X52990Y90000D01*
X205780Y88350D02*
X203879Y88350D01*
X205400Y87725D02*
X208649Y87725D01*
X4656Y81764D02*
X3000Y83820D01*
X55360Y104205D02*
X57900Y101665D01*
X25500Y24390D02*
X24224Y25051D01*
X1175Y55165D02*
X1300Y86700D01*
X202010Y81645D02*
X200000Y83655D01*
X205075Y109584D02*
X205075Y104720D01*
X50450Y92719D02*
X49644Y92719D01*
X206500Y88525D02*
X208649Y88525D01*
D11*
X42231Y116646D02*
X42231Y116658D01*
D10*
X36681Y37650D02*
X37775Y37650D01*
D12*
X11520Y28650D02*
X15770Y28650D01*
D11*
X4064Y124100D02*
X4064Y125114D01*
D10*
X8425Y82565D02*
X8672Y82085D01*
X17379Y29001D02*
X13950Y25496D01*
X211406Y71950D02*
X208706Y71950D01*
X30125Y32062D02*
X30492Y32062D01*
D11*
X83950Y118575D02*
X85650Y116875D01*
D10*
X64050Y100590D02*
X75604Y100590D01*
X211985Y87325D02*
X212541Y86686D01*
X5450Y87760D02*
X9620Y87760D01*
X205250Y84100D02*
X205250Y85425D01*
D11*
X11088Y94031D02*
X11088Y93278D01*
X46330Y88745D02*
X46330Y89854D01*
D10*
X102100Y121645D02*
X117795Y121645D01*
X31801Y77857D02*
X30873Y77857D01*
D11*
X59390Y79930D02*
X59390Y79649D01*
D10*
X214819Y85300D02*
X214794Y86056D01*
X24275Y79025D02*
X24855Y78445D01*
X214567Y100804D02*
X214339Y100575D01*
X46510Y118700D02*
X46525Y118685D01*
X209846Y92838D02*
X210854Y93946D01*
X4700Y74100D02*
X6875Y72081D01*
D11*
X165550Y98445D02*
X167157Y98445D01*
D10*
X46450Y34600D02*
X40000Y34600D01*
X21135Y91515D02*
X21135Y88980D01*
D11*
X135865Y118445D02*
X137900Y118445D01*
D10*
X52810Y84575D02*
X56000Y84575D01*
X35020Y97207D02*
X35738Y97925D01*
D11*
X166625Y116950D02*
X180700Y116950D01*
D10*
X89540Y103000D02*
X92990Y110000D01*
X33400Y30093D02*
X36779Y30093D01*
X37850Y38150D02*
X39025Y36975D01*
D11*
X106025Y98351D02*
X107389Y98351D01*
D10*
X32540Y120550D02*
X32596Y120550D01*
D11*
X11218Y86300D02*
X11218Y89882D01*
D10*
X4495Y99955D02*
X4475Y99975D01*
X12500Y38225D02*
X10975Y39750D01*
X24224Y25051D02*
X22887Y26388D01*
X37836Y110461D02*
X38875Y111500D01*
D11*
X3000Y27940D02*
X4842Y25513D01*
D10*
X212725Y97617D02*
X212950Y97392D01*
X11850Y26250D02*
X9870Y26250D01*
X4475Y99975D02*
X4825Y99879D01*
X43675Y110635D02*
X43577Y110537D01*
X5615Y74229D02*
X5615Y74229D01*
X52083Y114275D02*
X54325Y114275D01*
X23009Y122051D02*
X22476Y122585D01*
X214876Y100372D02*
X214679Y100175D01*
X63700Y106275D02*
X64137Y105838D01*
X20864Y65075D02*
X26539Y69500D01*
D11*
X105665Y97080D02*
X120735Y97080D01*
D10*
X25350Y50400D02*
X25975Y50400D01*
X17325Y92575D02*
X13925Y95975D01*
D11*
X37900Y78495D02*
X38645Y77750D01*
D10*
X32954Y28725D02*
X34827Y28673D01*
X55775Y92199D02*
X60807Y92275D01*
X49900Y83885D02*
X49900Y83445D01*
D11*
X7050Y108015D02*
X7050Y112670D01*
D10*
X208001Y89514D02*
X208590Y88925D01*
X70925Y115025D02*
X74775Y115025D01*
X87600Y72475D02*
X88250Y72475D01*
X210950Y89514D02*
X210985Y91071D01*
X88450Y88775D02*
X90800Y86425D01*
X132150Y111125D02*
X134350Y111125D01*
X12400Y72563D02*
X12647Y72565D01*
X57050Y82851D02*
X57256Y82645D01*
X80000Y64875D02*
X87600Y72475D01*
X162100Y80045D02*
X177945Y80045D01*
X211060Y102865D02*
X211060Y104290D01*
X62959Y83064D02*
X64253Y81164D01*
D11*
X65600Y97075D02*
X65600Y98455D01*
D10*
X17925Y101104D02*
X17925Y115750D01*
X202100Y80045D02*
X199372Y82824D01*
X57050Y109400D02*
X57025Y106100D01*
X37775Y37650D02*
X38500Y36825D01*
X10219Y85988D02*
X10800Y85406D01*
X75150Y86950D02*
X77600Y86950D01*
X30939Y29075D02*
X30939Y26790D01*
X172840Y110150D02*
X172990Y110000D01*
X56046Y82851D02*
X57050Y82851D01*
D11*
X7425Y37250D02*
X7400Y37275D01*
X165150Y77350D02*
X181075Y77350D01*
D10*
X57900Y123140D02*
X57900Y121750D01*
X40000Y65200D02*
X45525Y70725D01*
D11*
X79625Y82261D02*
X78950Y82936D01*
X192951Y73736D02*
X202870Y73736D01*
D10*
X211986Y88525D02*
X212289Y88829D01*
X212500Y88125D02*
X212760Y88525D01*
X50770Y91475D02*
X49720Y91475D01*
X90125Y111725D02*
X92075Y113675D01*
X202100Y120045D02*
X205980Y120045D01*
X37608Y98713D02*
X37608Y99578D01*
X68400Y77475D02*
X69325Y78400D01*
D11*
X160805Y97150D02*
X162100Y98445D01*
D10*
X119300Y109706D02*
X128825Y109706D01*
X206925Y121645D02*
X207870Y120700D01*
X195975Y9975D02*
X193075Y12875D01*
X114231Y114775D02*
X119300Y109706D01*
X203325Y91700D02*
X204775Y90250D01*
D11*
X204292Y77064D02*
X206832Y74524D01*
X92990Y83719D02*
X92990Y87500D01*
D10*
X46535Y96614D02*
X46639Y96614D01*
X209956Y80766D02*
X207964Y80766D01*
X209389Y97827D02*
X208875Y97827D01*
D11*
X10575Y74600D02*
X9625Y74600D01*
X67158Y78445D02*
X65735Y78445D01*
D10*
X202725Y104072D02*
X202725Y108725D01*
D11*
X203875Y101645D02*
X203875Y100250D01*
D10*
X55381Y110000D02*
X56450Y110000D01*
D11*
X147142Y98445D02*
X145725Y98445D01*
X28173Y23000D02*
X26790Y23000D01*
D10*
X109240Y87425D02*
X110475Y86190D01*
D11*
X20000Y20000D02*
X30000Y20000D01*
D10*
X212699Y76581D02*
X209956Y76581D01*
X50940Y78400D02*
X51661Y75616D01*
D11*
X172990Y112500D02*
X192990Y112500D01*
D10*
X210884Y99775D02*
X207635Y99775D01*
X30314Y34490D02*
X31085Y35969D01*
X23601Y116675D02*
X23601Y121644D01*
X202100Y81645D02*
X202010Y81645D01*
D11*
X1390Y118450D02*
X1390Y123210D01*
D10*
X32410Y34250D02*
X34996Y34225D01*
D11*
X42860Y86989D02*
X42860Y86006D01*
D10*
X19900Y73400D02*
X18275Y71200D01*
X50175Y105325D02*
X56275Y105350D01*
X38825Y84625D02*
X38851Y82662D01*
D11*
X165145Y97150D02*
X180805Y97150D01*
D10*
X62959Y83075D02*
X62806Y83039D01*
D11*
X147396Y118425D02*
X146100Y118425D01*
D10*
X5615Y74229D02*
X7081Y72563D01*
X49075Y82620D02*
X49900Y83445D01*
X171615Y111375D02*
X191615Y111375D01*
D11*
X201016Y76129D02*
X202521Y76129D01*
D10*
X107950Y86400D02*
X109400Y84950D01*
X63425Y97125D02*
X57404Y97225D01*
X33550Y74125D02*
X34100Y74825D01*
X130825Y111706D02*
X130825Y113444D01*
X29550Y29706D02*
X29550Y29971D01*
X50198Y75139D02*
X54616Y75088D01*
X112175Y113650D02*
X113737Y113650D01*
D11*
X205647Y74422D02*
X206705Y73304D01*
D10*
X1815Y102075D02*
X2400Y102935D01*
X200750Y100497D02*
X201202Y100045D01*
D11*
X59390Y79649D02*
X58166Y78425D01*
D10*
X87850Y83356D02*
X86675Y84450D01*
D11*
X73090Y92400D02*
X70690Y94800D01*
D10*
X211108Y95775D02*
X210625Y96150D01*
X170323Y96302D02*
X171150Y95475D01*
D11*
X17300Y22700D02*
X20000Y20000D01*
D10*
X66838Y111225D02*
X67850Y111213D01*
X166450Y71300D02*
X160200Y65050D01*
X210884Y101027D02*
X210859Y101513D01*
X104450Y45050D02*
X100000Y45050D01*
X88894Y81509D02*
X95352Y81509D01*
X35200Y104930D02*
X42608Y104930D01*
X73750Y113650D02*
X75675Y111725D01*
X198825Y108275D02*
X193475Y102950D01*
X48717Y11557D02*
X48717Y18083D01*
X134350Y111125D02*
X135475Y110000D01*
X31560Y38500D02*
X31560Y39954D01*
D11*
X177900Y118445D02*
X176200Y118445D01*
D10*
X21135Y75835D02*
X19900Y73400D01*
X72171Y88775D02*
X88450Y88775D01*
D11*
X120735Y97080D02*
X122100Y98445D01*
D10*
X27750Y87308D02*
X29725Y87308D01*
X57956Y111844D02*
X69569Y111844D01*
X30350Y28486D02*
X30350Y25994D01*
D11*
X85780Y78450D02*
X94889Y78450D01*
D10*
X10950Y124840D02*
X10035Y125755D01*
X216150Y42275D02*
X216150Y99871D01*
X25750Y116675D02*
X26225Y117150D01*
X3875Y81280D02*
X3000Y81280D01*
X211825Y72975D02*
X211406Y71950D01*
X88350Y86725D02*
X88740Y86535D01*
X40925Y76795D02*
X40925Y82525D01*
X52281Y106269D02*
X53869Y106269D01*
D11*
X157900Y118445D02*
X156362Y118445D01*
D10*
X44175Y85030D02*
X44610Y84595D01*
D11*
X7227Y97892D02*
X11088Y94031D01*
D10*
X58304Y87454D02*
X61846Y87454D01*
X211539Y88125D02*
X212500Y88125D01*
X28900Y113200D02*
X32251Y113200D01*
D11*
X7400Y52400D02*
X7440Y52400D01*
D10*
X12604Y25496D02*
X11850Y26250D01*
X28860Y124240D02*
X29610Y124240D01*
X87850Y83356D02*
X87850Y82731D01*
X211394Y89514D02*
X211394Y91338D01*
X56667Y97317D02*
X56244Y97740D01*
X96975Y17850D02*
X96575Y17450D01*
X13750Y72975D02*
X15100Y75050D01*
X29950Y81100D02*
X29950Y86895D01*
X9951Y82503D02*
X9951Y81271D01*
D11*
X5267Y105254D02*
X7050Y106325D01*
X97900Y118445D02*
X96291Y118445D01*
X39448Y106385D02*
X38598Y106825D01*
D10*
X212325Y101564D02*
X212325Y102409D01*
X13490Y78755D02*
X13490Y76315D01*
X11338Y41813D02*
X11262Y41488D01*
X129019Y109225D02*
X131325Y111531D01*
X41389Y86989D02*
X43240Y88840D01*
X9951Y81271D02*
X8875Y80445D01*
X63164Y92111D02*
X63825Y91450D01*
X210375Y83025D02*
X210375Y82047D01*
D11*
X10389Y25000D02*
X10736Y24654D01*
D10*
X55850Y112750D02*
X57725Y112750D01*
X36374Y32825D02*
X36906Y32293D01*
X13400Y32700D02*
X13206Y33250D01*
X207170Y87183D02*
X207266Y87325D01*
D11*
X203750Y118500D02*
X202100Y118500D01*
D10*
X22180Y27580D02*
X25500Y27580D01*
X3000Y85975D02*
X3000Y86550D01*
X200750Y102097D02*
X202725Y104072D01*
X93725Y111225D02*
X96323Y109415D01*
D11*
X84851Y77044D02*
X101126Y77044D01*
D10*
X56729Y97900D02*
X57404Y97225D01*
X32540Y125730D02*
X35080Y123190D01*
X179213Y64339D02*
X186713Y71839D01*
D11*
X17900Y77098D02*
X18595Y76403D01*
D10*
X35510Y110586D02*
X36350Y110586D01*
D11*
X50049Y126111D02*
X48975Y126111D01*
D10*
X28161Y30275D02*
X27167Y30275D01*
X57725Y112750D02*
X58350Y112300D01*
X38851Y82662D02*
X40400Y80475D01*
D11*
X17325Y84322D02*
X19011Y84322D01*
X72187Y86697D02*
X72187Y82296D01*
D10*
X208879Y83359D02*
X208879Y83395D01*
X56261Y98990D02*
X55911Y99339D01*
D11*
X8029Y25000D02*
X10389Y25000D01*
X1350Y123250D02*
X1390Y123210D01*
X3000Y30485D02*
X3000Y27940D01*
D10*
X200000Y64925D02*
X204400Y69325D01*
X154075Y111325D02*
X155250Y110150D01*
X70325Y89150D02*
X71175Y90000D01*
D11*
X5560Y35560D02*
X5735Y35560D01*
D10*
X22645Y78990D02*
X23580Y78990D01*
X137655Y80045D02*
X137900Y79800D01*
X146400Y72200D02*
X140000Y65800D01*
X87675Y42300D02*
X82750Y42300D01*
X210985Y94005D02*
X211825Y94845D01*
X28750Y28486D02*
X28750Y28933D01*
X49075Y108095D02*
X50605Y108095D01*
X162100Y81645D02*
X177945Y81645D01*
X51594Y101665D02*
X55355Y101716D01*
X48975Y122095D02*
X50320Y120650D01*
X62100Y78425D02*
X63975Y78425D01*
X62600Y42675D02*
X60225Y45050D01*
X168925Y102544D02*
X168294Y103175D01*
X55400Y120650D02*
X55257Y120793D01*
X211106Y102865D02*
X211397Y102573D01*
X57341Y96350D02*
X56667Y96977D01*
X54182Y97740D02*
X56244Y92681D01*
X45500Y100466D02*
X44125Y101841D01*
X211394Y91338D02*
X210985Y91696D01*
X36800Y22025D02*
X39225Y22000D01*
X55640Y82445D02*
X56046Y82851D01*
X217031Y100804D02*
X217006Y40456D01*
X36908Y101950D02*
X35639Y100681D01*
X28775Y117025D02*
X28775Y121360D01*
X45300Y79465D02*
X45300Y77535D01*
X210325Y125050D02*
X210325Y114834D01*
X211539Y88925D02*
X211539Y89319D01*
X31400Y72050D02*
X32500Y73150D01*
X56450Y110000D02*
X57050Y109400D01*
D11*
X1390Y118450D02*
X4915Y114925D01*
D10*
X160050Y44950D02*
X167075Y40175D01*
X89850Y112300D02*
X91750Y114325D01*
X24325Y115951D02*
X23601Y116675D01*
X63905Y80594D02*
X76665Y80615D01*
X206920Y85087D02*
X205683Y83950D01*
X21858Y83142D02*
X23038Y84322D01*
X66125Y103075D02*
X72550Y103075D01*
D11*
X9709Y103302D02*
X8718Y102311D01*
D10*
X164275Y83525D02*
X130125Y83525D01*
X211525Y102485D02*
X211060Y102865D01*
D11*
X3030Y58400D02*
X5850Y58400D01*
D10*
X105075Y12975D02*
X105075Y16425D01*
X52410Y118110D02*
X51104Y119370D01*
X130125Y83525D02*
X129906Y83306D01*
X49084Y100850D02*
X49065Y103799D01*
X211619Y95175D02*
X211825Y94969D01*
X209590Y95144D02*
X209590Y97004D01*
X54720Y108270D02*
X55484Y108270D01*
X142100Y80150D02*
X157775Y80150D01*
X206100Y88925D02*
X202375Y88925D01*
X34824Y90395D02*
X34824Y94414D01*
X56244Y97740D02*
X56261Y97758D01*
X109098Y109390D02*
X112050Y111250D01*
X51380Y92680D02*
X51124Y92350D01*
X207964Y80766D02*
X207025Y81705D01*
X164275Y83525D02*
X168250Y87500D01*
X209600Y91840D02*
X208724Y92116D01*
X36350Y112992D02*
X35831Y112992D01*
X213350Y87234D02*
X213350Y85445D01*
X205980Y120045D02*
X206850Y119175D01*
X20500Y77450D02*
X22490Y77450D01*
X25500Y112550D02*
X25500Y115400D01*
X25915Y102781D02*
X24596Y104100D01*
X22100Y80045D02*
X24855Y80045D01*
X50605Y108095D02*
X52281Y106269D01*
X209254Y86736D02*
X208324Y85806D01*
D11*
X18590Y93610D02*
X15075Y97125D01*
D10*
X34594Y21575D02*
X45200Y21575D01*
X57269Y111175D02*
X66838Y111225D01*
X211235Y94969D02*
X211619Y95175D01*
X4250Y73775D02*
X4250Y80680D01*
X60000Y67475D02*
X60000Y65225D01*
X17925Y115750D02*
X18575Y116400D01*
X214135Y101300D02*
X213810Y100975D01*
D12*
X208353Y96726D02*
X208875Y96726D01*
D11*
X45466Y113716D02*
X44737Y114445D01*
X205600Y117925D02*
X204591Y116916D01*
D10*
X6875Y72081D02*
X17950Y72050D01*
X26435Y80750D02*
X27360Y80750D01*
X209208Y85087D02*
X206920Y85087D01*
D11*
X5850Y120650D02*
X7140Y120650D01*
D10*
X28775Y117025D02*
X30000Y115800D01*
D11*
X8971Y34246D02*
X10676Y32700D01*
D10*
X20835Y102781D02*
X22600Y101016D01*
X50855Y97750D02*
X54182Y97740D01*
D11*
X123900Y98300D02*
X125050Y97150D01*
D10*
X26225Y124450D02*
X24920Y125755D01*
X162975Y26175D02*
X162975Y18175D01*
X32871Y39351D02*
X32896Y41103D01*
X8830Y110030D02*
X10650Y111850D01*
X205725Y100575D02*
X209190Y100575D01*
X20500Y77450D02*
X19900Y76850D01*
X31085Y30275D02*
X31574Y30275D01*
D11*
X37401Y106275D02*
X34025Y106275D01*
X7227Y97892D02*
X5908Y97892D01*
X100885Y97080D02*
X102250Y98445D01*
X18590Y88975D02*
X18590Y93610D01*
D10*
X32106Y94583D02*
X32538Y94150D01*
X210594Y84306D02*
X211125Y83775D01*
D11*
X56856Y115189D02*
X58493Y116561D01*
D10*
X52895Y125755D02*
X52860Y125720D01*
D11*
X163850Y98445D02*
X165145Y97150D01*
X145320Y97150D02*
X160805Y97150D01*
X67180Y118554D02*
X69053Y118554D01*
X181075Y77350D02*
X182175Y78450D01*
D10*
X50793Y93723D02*
X51380Y97016D01*
X96830Y80655D02*
X83090Y80655D01*
X120000Y45050D02*
X124025Y41025D01*
D11*
X86766Y98349D02*
X85678Y98349D01*
D10*
X182175Y80406D02*
X197815Y80406D01*
D11*
X10736Y24654D02*
X11520Y24654D01*
D10*
X95656Y81077D02*
X96900Y82550D01*
X47091Y80104D02*
X45550Y80104D01*
X56625Y90150D02*
X57450Y89325D01*
X191615Y111375D02*
X192990Y110000D01*
X3000Y91440D02*
X6165Y91440D01*
X35800Y26600D02*
X34950Y25925D01*
X214339Y100575D02*
X213810Y100575D01*
D11*
X197900Y118500D02*
X197846Y118554D01*
X26630Y78445D02*
X28372Y80187D01*
X0950Y95800D02*
X1895Y93980D01*
X4842Y25513D02*
X6852Y25513D01*
X43389Y87570D02*
X45155Y87570D01*
X27599Y81895D02*
X26520Y81895D01*
X64718Y99527D02*
X66363Y99527D01*
D10*
X27668Y83142D02*
X27360Y83425D01*
X212600Y51400D02*
X212876Y73958D01*
D12*
X215655Y81554D02*
X215655Y84626D01*
D10*
X26650Y107826D02*
X26575Y114372D01*
X30459Y31264D02*
X30760Y31710D01*
D11*
X199400Y78445D02*
X199945Y78990D01*
D10*
X211125Y83775D02*
X211600Y83420D01*
D11*
X202100Y78445D02*
X202947Y78445D01*
D10*
X34809Y81694D02*
X34809Y82959D01*
D11*
X37795Y78337D02*
X35843Y79431D01*
D10*
X55575Y101708D02*
X57162Y100045D01*
D11*
X123700Y98445D02*
X123845Y98300D01*
X4064Y124100D02*
X4650Y123514D01*
D10*
X23675Y76265D02*
X22490Y77450D01*
D11*
X137900Y98445D02*
X136215Y98445D01*
D10*
X47015Y91829D02*
X47219Y91625D01*
X38500Y27500D02*
X35850Y25000D01*
D11*
X82100Y118445D02*
X83820Y118445D01*
X85650Y116875D02*
X100530Y116875D01*
X44175Y82369D02*
X42907Y83662D01*
D10*
X171150Y95475D02*
X171150Y86440D01*
X29950Y25381D02*
X34381Y20900D01*
X171215Y110975D02*
X171615Y111375D01*
D11*
X81490Y78445D02*
X84125Y78450D01*
D10*
X19029Y30000D02*
X21525Y32496D01*
X88667Y81077D02*
X95656Y81077D01*
X53655Y93600D02*
X55550Y91705D01*
X47700Y19100D02*
X48717Y18083D01*
X40900Y83347D02*
X40900Y82550D01*
D11*
X39463Y105855D02*
X40298Y106710D01*
D10*
X111272Y108333D02*
X112990Y110000D01*
X34125Y34673D02*
X35600Y34673D01*
X96900Y111625D02*
X109450Y111625D01*
X11850Y42325D02*
X11338Y41813D01*
X209025Y102435D02*
X210050Y101410D01*
X3000Y85975D02*
X4150Y84825D01*
X211825Y91071D02*
X212289Y91970D01*
X30700Y40600D02*
X29454Y39354D01*
D11*
X156210Y78445D02*
X157871Y78445D01*
D10*
X23800Y126635D02*
X24715Y127550D01*
D11*
X111463Y89027D02*
X112990Y87500D01*
D10*
X6010Y100975D02*
X6075Y100925D01*
X208875Y92116D02*
X208724Y92116D01*
X214339Y105085D02*
X214339Y104496D01*
X12500Y38225D02*
X12500Y38225D01*
D11*
X106934Y78445D02*
X105491Y78445D01*
X161050Y77325D02*
X162150Y78425D01*
X187125Y97900D02*
X196445Y97900D01*
X116180Y78445D02*
X117780Y78445D01*
D10*
X146975Y39675D02*
X147900Y39675D01*
X3030Y55850D02*
X8750Y55850D01*
X32410Y40390D02*
X31900Y40900D01*
X127600Y85925D02*
X128800Y84725D01*
X171550Y103450D02*
X171150Y103625D01*
X186131Y41047D02*
X180281Y45847D01*
D11*
X6275Y80705D02*
X6375Y86900D01*
D10*
X53886Y75616D02*
X56000Y77794D01*
X7950Y23475D02*
X14497Y23475D01*
X50975Y87500D02*
X52225Y86250D01*
X56725Y97900D02*
X56729Y97900D01*
X50360Y109365D02*
X51025Y108700D01*
X28376Y34758D02*
X28376Y34698D01*
X47700Y19100D02*
X45200Y21575D01*
X56780Y73364D02*
X35072Y73364D01*
X38500Y27500D02*
X38500Y36825D01*
X20835Y101760D02*
X18625Y99854D01*
X46525Y110935D02*
X46225Y110635D01*
X59214Y91236D02*
X63700Y86750D01*
X18450Y36725D02*
X20000Y35300D01*
X134181Y114425D02*
X137481Y111125D01*
D11*
X142100Y98445D02*
X144025Y98445D01*
D10*
X29646Y32925D02*
X30125Y32925D01*
X19950Y80125D02*
X17951Y80125D01*
X33447Y38775D02*
X32871Y39351D01*
X32410Y38890D02*
X32410Y40390D01*
X6810Y65990D02*
X11475Y61325D01*
X59050Y82645D02*
X60457Y81390D01*
X210015Y107515D02*
X210015Y111856D01*
D11*
X59792Y119232D02*
X59004Y118445D01*
D10*
X44175Y80590D02*
X44175Y80590D01*
X103515Y82550D02*
X103992Y82824D01*
X66400Y106406D02*
X68456Y103850D01*
D12*
X208875Y96726D02*
X209590Y96011D01*
D10*
X33625Y81955D02*
X33625Y94500D01*
X3000Y55880D02*
X3030Y55850D01*
X59075Y120325D02*
X61825Y123075D01*
X118712Y108675D02*
X129700Y108675D01*
X31574Y30275D02*
X32100Y30950D01*
X214411Y95230D02*
X215300Y94340D01*
D11*
X166825Y118450D02*
X168199Y118450D01*
D10*
X124025Y41025D02*
X126825Y41025D01*
X29829Y32519D02*
X30314Y32513D01*
D11*
X76150Y82936D02*
X75150Y83185D01*
D10*
X205055Y92116D02*
X206281Y90889D01*
X45600Y100400D02*
X45500Y100466D01*
D11*
X7600Y80200D02*
X7600Y86725D01*
X136169Y78445D02*
X137900Y78445D01*
D10*
X28775Y32600D02*
X29016Y32877D01*
X60150Y77300D02*
X61004Y77926D01*
X216156Y100575D02*
X216556Y100175D01*
D11*
X1975Y93980D02*
X5450Y93975D01*
D10*
X155250Y110150D02*
X172840Y110150D01*
D11*
X85165Y97080D02*
X100885Y97080D01*
X77900Y118445D02*
X76302Y118445D01*
D10*
X24855Y80045D02*
X25225Y79675D01*
X44863Y100400D02*
X46138Y99125D01*
X52175Y91205D02*
X59214Y91236D01*
X12207Y40318D02*
X15394Y37131D01*
D11*
X180700Y116950D02*
X182200Y118450D01*
D10*
X206005Y88125D02*
X208761Y88125D01*
X17715Y72565D02*
X18700Y73850D01*
X88400Y103800D02*
X88975Y103800D01*
X4825Y99879D02*
X18625Y99854D01*
X44175Y80590D02*
X45300Y79465D01*
D11*
X62100Y98445D02*
X63900Y98445D01*
X76417Y78562D02*
X76534Y78445D01*
D10*
X212760Y88525D02*
X212760Y90148D01*
X210725Y17275D02*
X212425Y18450D01*
X210150Y89514D02*
X210175Y90677D01*
X53886Y75616D02*
X51661Y75616D01*
D11*
X112990Y87500D02*
X152990Y87500D01*
D10*
X1238Y86762D02*
X2235Y87760D01*
X140000Y65800D02*
X140000Y65050D01*
X31085Y29475D02*
X31629Y29475D01*
D11*
X202947Y78445D02*
X204069Y79567D01*
D10*
X29196Y33266D02*
X29429Y33980D01*
X211600Y83420D02*
X212325Y83420D01*
X61846Y87454D02*
X63275Y84550D01*
D11*
X43675Y114445D02*
X43675Y115507D01*
X40762Y117459D02*
X40111Y118110D01*
D10*
X129975Y74400D02*
X117525Y62350D01*
X82750Y42300D02*
X80000Y45050D01*
X77697Y101645D02*
X77900Y101848D01*
X35850Y25000D02*
X35800Y23025D01*
X39225Y22000D02*
X40000Y23500D01*
D11*
X162175Y78450D02*
X164025Y78450D01*
X9100Y92250D02*
X10350Y91000D01*
X177900Y98445D02*
X179928Y98445D01*
X183912Y78450D02*
X185012Y77350D01*
D10*
X49075Y113175D02*
X50983Y113175D01*
X205055Y92116D02*
X204750Y92116D01*
X46138Y99125D02*
X46535Y99125D01*
X71163Y111213D02*
X71350Y111200D01*
X130825Y113444D02*
X131806Y114425D01*
X51594Y104205D02*
X55360Y104205D01*
X37375Y36825D02*
X36600Y36825D01*
X7150Y63500D02*
X3000Y63500D01*
X135475Y110000D02*
X152990Y110000D01*
D11*
X43675Y105580D02*
X43675Y106825D01*
D10*
X16030Y78755D02*
X16030Y76290D01*
X26775Y24792D02*
X26775Y27600D01*
X197450Y89302D02*
X197450Y88925D01*
X67850Y111213D02*
X71163Y111213D01*
D11*
X9175Y75050D02*
X9160Y78640D01*
D10*
X142100Y121645D02*
X157805Y121645D01*
X46450Y31625D02*
X47087Y32100D01*
X36094Y38238D02*
X33062Y38238D01*
X162100Y101750D02*
X177652Y101750D01*
D11*
X102250Y98445D02*
X104300Y98445D01*
D10*
X213094Y90567D02*
X212675Y90148D01*
D11*
X211060Y107345D02*
X211060Y105990D01*
D10*
X208875Y121200D02*
X208875Y114875D01*
D12*
X207340Y97739D02*
X208353Y96726D01*
D11*
X41509Y105555D02*
X40493Y106385D01*
D10*
X214325Y41825D02*
X214348Y43023D01*
D11*
X10125Y55085D02*
X10075Y56925D01*
D10*
X49084Y96585D02*
X49084Y96614D01*
X44175Y86300D02*
X44175Y85030D01*
X58635Y112750D02*
X68650Y112750D01*
D12*
X215094Y80993D02*
X215655Y81554D01*
D10*
X30000Y122585D02*
X30000Y123850D01*
X129750Y9925D02*
X132900Y13075D01*
D11*
X16675Y114249D02*
X14760Y116165D01*
D10*
X8425Y82558D02*
X8425Y86050D01*
X7140Y118110D02*
X7140Y115525D01*
X55911Y99339D02*
X55575Y99339D01*
X97428Y112197D02*
X109072Y112197D01*
X27844Y27580D02*
X27844Y26925D01*
D11*
X196445Y97900D02*
X197075Y97270D01*
X67385Y98455D02*
X67385Y98240D01*
X203556Y74422D02*
X205647Y74422D01*
D10*
X45325Y84875D02*
X48145Y86229D01*
X34055Y81810D02*
X34031Y95136D01*
X37850Y36350D02*
X37375Y36825D01*
X103992Y82824D02*
X199372Y82824D01*
X19900Y74450D02*
X17950Y72025D01*
X77600Y86950D02*
X78052Y87402D01*
X24596Y106225D02*
X24325Y106496D01*
D11*
X37761Y106810D02*
X37401Y106275D01*
X125600Y98445D02*
X126797Y98445D01*
X27600Y102400D02*
X27600Y103711D01*
D10*
X216150Y42275D02*
X215575Y41525D01*
X77900Y121645D02*
X62100Y121645D01*
X105450Y71925D02*
X100000Y66475D01*
D11*
X45047Y93828D02*
X45925Y92950D01*
D10*
X45250Y86300D02*
X44175Y86300D01*
D12*
X22109Y32079D02*
X22109Y35164D01*
D10*
X29150Y26725D02*
X28250Y25825D01*
X24596Y104100D02*
X24596Y106225D01*
D11*
X184200Y98445D02*
X185375Y97270D01*
D10*
X65595Y123075D02*
X61825Y123075D01*
D11*
X192550Y92275D02*
X193075Y92800D01*
X185012Y77350D02*
X194129Y77350D01*
X125875Y78475D02*
X127229Y78475D01*
X121024Y77171D02*
X122125Y78475D01*
D10*
X122100Y80045D02*
X137655Y80045D01*
X41389Y88965D02*
X42534Y90110D01*
X78875Y103850D02*
X88400Y103800D01*
X210934Y100175D02*
X209644Y100175D01*
X12442Y90315D02*
X17325Y90315D01*
X182100Y120045D02*
X197900Y120045D01*
X63425Y97125D02*
X64350Y96200D01*
D11*
X211106Y107391D02*
X211060Y107345D01*
X28372Y79995D02*
X28372Y81122D01*
D10*
X54175Y113650D02*
X54975Y112150D01*
X45200Y50250D02*
X45925Y50250D01*
D11*
X8592Y99035D02*
X7227Y97892D01*
D10*
X30000Y123850D02*
X29610Y124240D01*
X211925Y101564D02*
X211925Y103347D01*
X51774Y91205D02*
X52175Y91205D01*
D11*
X42700Y23500D02*
X44600Y25400D01*
D10*
X36756Y38294D02*
X36275Y38775D01*
X22750Y72051D02*
X24466Y72051D01*
X8830Y110030D02*
X8830Y109200D01*
X74775Y115025D02*
X76850Y112800D01*
X32596Y120550D02*
X33900Y119246D01*
D11*
X162100Y98445D02*
X163850Y98445D01*
D10*
X61004Y77926D02*
X61004Y82300D01*
X211539Y89319D02*
X211394Y89514D01*
X74100Y82825D02*
X74100Y87250D01*
X46200Y127550D02*
X48975Y124875D01*
D11*
X28184Y101816D02*
X27600Y102400D01*
D10*
X131325Y113025D02*
X132150Y113850D01*
D11*
X8718Y102311D02*
X8718Y101803D01*
D10*
X23150Y28250D02*
X25600Y28250D01*
X47780Y79127D02*
X47450Y79457D01*
X32489Y87525D02*
X32514Y88236D01*
D13*
X206550Y86736D03*
X34925Y85500D03*
X5017Y106950D03*
X196309Y118554D03*
X55765Y107225D03*
X90825Y86425D03*
X210725Y17275D03*
X200325Y89875D03*
X31275Y36450D03*
X18700Y74725D03*
X210375Y82900D03*
X6400Y80550D03*
X57633Y127559D03*
X109125Y87400D03*
X12052Y40500D03*
X21365Y73850D03*
X8718Y101803D03*
X156210Y78445D03*
X28376Y38225D03*
X207294Y103556D03*
X27750Y87308D03*
X68707Y118554D03*
X63850Y88275D03*
X8300Y35775D03*
X213475Y25175D03*
X199848Y98990D03*
X116332Y98445D03*
X68700Y83175D03*
X36244Y82325D03*
X64235Y94125D03*
X215175Y96333D03*
X19650Y81800D03*
X67218Y108687D03*
X8750Y40675D03*
X75150Y83185D03*
X21325Y100725D03*
X215575Y41525D03*
X4656Y85825D03*
X186495Y98990D03*
X12400Y58425D03*
X127229Y78475D03*
X215300Y97975D03*
X107467Y98323D03*
X8875Y80445D03*
X162325Y17525D03*
X90175Y85100D03*
X203350Y87821D03*
X88775Y103925D03*
X201016Y75844D03*
X204225Y93400D03*
X156362Y118445D03*
X187096Y118450D03*
X211060Y103022D03*
X212500Y86736D03*
X206705Y73304D03*
X23800Y81645D03*
X63675Y106275D03*
X197450Y88925D03*
X66400Y106275D03*
X36275Y28725D03*
X29016Y41450D03*
X42725Y95325D03*
X213267Y96150D03*
X208340Y95725D03*
X135865Y118445D03*
X75336Y94310D03*
X109400Y84950D03*
X209600Y95175D03*
X86919Y118575D03*
X7600Y86725D03*
X55640Y85670D03*
X29550Y29971D03*
X8750Y55850D03*
X10975Y74150D03*
X76417Y78562D03*
X71671Y88775D03*
X36150Y35540D03*
X116180Y78445D03*
X9100Y86875D03*
X30887Y79481D03*
X31525Y39990D03*
X187975Y96660D03*
X211060Y107163D03*
X23580Y79025D03*
X214650Y32075D03*
X26625Y114422D03*
X190475Y76212D03*
X13925Y95975D03*
X127229Y118425D03*
X18650Y127500D03*
X39500Y79500D03*
X186950Y78450D03*
X19950Y80125D03*
X39484Y77750D03*
X146990Y78500D03*
X10975Y39750D03*
X6000Y60960D03*
X4064Y124100D03*
X147396Y118425D03*
X8592Y99035D03*
X29554Y21488D03*
X149125Y16450D03*
X215775Y110675D03*
X45466Y113716D03*
X210015Y110693D03*
X39448Y105855D03*
X15100Y75050D03*
X46330Y89810D03*
X35843Y79431D03*
X204750Y92116D03*
X36150Y31164D03*
X8875Y82085D03*
X116154Y118445D03*
X54550Y109225D03*
X168199Y118450D03*
X33550Y72050D03*
X215500Y40175D03*
X6325Y86875D03*
X169800Y94125D03*
X107865Y86400D03*
X210490Y96590D03*
X16650Y104050D03*
X25450Y10025D03*
X32106Y94500D03*
X72187Y82296D03*
X171150Y103625D03*
X55475Y78831D03*
X75150Y86950D03*
X76860Y90068D03*
X96575Y17450D03*
X201975Y88525D03*
X35125Y73450D03*
X34925Y94700D03*
X184510Y92275D03*
X40525Y20650D03*
X180035Y98552D03*
X208559Y72060D03*
X86766Y98349D03*
X17475Y86284D03*
X178003Y118445D03*
X36650Y27300D03*
X50475Y74261D03*
X32775Y102900D03*
X215350Y38725D03*
X204591Y116916D03*
X136246Y98349D03*
X59848Y116561D03*
X88350Y86725D03*
X91025Y103925D03*
X184800Y17450D03*
X11650Y61325D03*
X214224Y86450D03*
X12500Y38225D03*
X215300Y99471D03*
X105075Y16425D03*
X58304Y87454D03*
X45600Y10000D03*
X25265Y83142D03*
X193075Y16575D03*
X32489Y87525D03*
X128975Y84625D03*
X68704Y93675D03*
X147142Y98445D03*
X215775Y105175D03*
X34925Y83075D03*
X176301Y78450D03*
X212675Y90148D03*
X110500Y86175D03*
X27750Y115800D03*
X17165Y84322D03*
X19700Y95750D03*
X62331Y108550D03*
X47015Y91829D03*
X32410Y41750D03*
X75336Y98480D03*
X29454Y39125D03*
X167157Y98445D03*
X167157Y78450D03*
X26311Y105000D03*
X204750Y87075D03*
X27844Y26925D03*
X57950Y107225D03*
X209956Y76581D03*
X136169Y78445D03*
X126797Y98445D03*
X32000Y22000D03*
X55765Y108550D03*
X96291Y118445D03*
X56856Y115189D03*
X58297Y83675D03*
X91821Y82398D03*
X168250Y94125D03*
X64850Y108225D03*
X89070Y84375D03*
X28050Y33331D03*
X87351Y78450D03*
X14605Y93029D03*
X42554Y85104D03*
X50320Y77300D03*
X132900Y16375D03*
X59848Y78303D03*
X45250Y77535D03*
X211600Y85806D03*
X15750Y105100D03*
X16675Y114249D03*
X29075Y74125D03*
X213677Y97392D03*
X25601Y38225D03*
X25280Y85505D03*
X67158Y78445D03*
X55575Y99339D03*
X87200Y85700D03*
X27203Y80750D03*
X25500Y112550D03*
X80775Y78990D03*
X183900Y90025D03*
X56225Y87250D03*
X32500Y73150D03*
X56200Y110875D03*
X212421Y103705D03*
X184200Y95377D03*
X57981Y108550D03*
X64198Y114071D03*
X140800Y17375D03*
X48975Y126111D03*
X63825Y91450D03*
X36275Y33921D03*
X171350Y16100D03*
X65600Y97075D03*
X127475Y86050D03*
X56847Y73491D03*
X52775Y80225D03*
X76302Y118445D03*
X42725Y97714D03*
X25500Y24380D03*
X63671Y84550D03*
X210875Y33125D03*
X4500Y105290D03*
X209750Y92838D03*
X9850Y83790D03*
X216275Y103200D03*
X167000Y83875D03*
X208767Y74524D03*
X11287Y71200D03*
X22887Y26388D03*
X25225Y79675D03*
X36906Y32207D03*
X56225Y88764D03*
X96317Y98445D03*
X10350Y90750D03*
X22500Y72100D03*
X30485Y37490D03*
X59792Y119232D03*
X63825Y86500D03*
X213625Y115200D03*
X75150Y18200D03*
X199945Y78990D03*
X11218Y86300D03*
X59487Y79930D03*
X106934Y78445D03*
X56900Y84252D03*
X34050Y36144D03*
X94894Y78445D03*
X59848Y98990D03*
X34825Y23500D03*
X75006Y90068D03*
X176200Y118445D03*
X11520Y24654D03*
X203875Y101645D03*
X11850Y42325D03*
X168294Y103175D03*
X29421Y80750D03*
X211825Y72975D03*
X106883Y118475D03*
X211125Y56975D03*
X155677Y98323D03*
X83125Y16425D03*
X63825Y90000D03*
%LNtop copper component 2cb417fd89b64ff1*%
D14*
X69405Y125755D02*
X70675Y125755D01*
X66865Y125755D02*
X65595Y125755D01*
D15*
X70675Y125755D03*
X65595Y125755D03*
D16*
X68985Y125755D03*
X67285Y125755D03*
%LNtop copper component cb32256eb6e29e30*%
D17*
X84075Y78445D03*
X85775Y78445D03*
%LNtop copper component 50e8ad344c7d4b8f*%
D18*
X177900Y101645D03*
D19*
X182100Y98445D03*
X177900Y98445D03*
X182100Y101645D03*
X182100Y100045D03*
X177900Y100045D03*
%LNtop copper component 2e96c5ec09cc2bff*%
D20*
X43970Y78805D03*
%LNtop copper component 7be21fa8212241c2*%
D21*
X13400Y32700D03*
D22*
X13400Y30000D03*
X13400Y27300D03*
X17300Y23400D03*
X20000Y23400D03*
X22700Y23400D03*
X20000Y34600D03*
X24600Y30000D03*
%LNtop copper component b945819e4e3fc707*%
D23*
X100000Y45050D03*
%LNtop copper component 87d4757989b5faab*%
D14*
X47784Y104205D02*
X46514Y104205D01*
X50324Y104205D02*
X51594Y104205D01*
D24*
X48204Y104205D03*
X49904Y104205D03*
D25*
X46514Y104205D03*
X51594Y104205D03*
%LNtop copper component ac3db5670584ae1c*%
D26*
X210936Y100975D03*
D27*
X210936Y100575D03*
X210936Y100175D03*
X210936Y99775D03*
X210936Y99375D03*
X213714Y99375D03*
X213714Y99775D03*
X213714Y100175D03*
X213714Y100575D03*
X213714Y100975D03*
D28*
X211525Y98786D03*
X211925Y98786D03*
X212325Y98786D03*
X212725Y98786D03*
X213125Y98786D03*
X213125Y101564D03*
X212725Y101564D03*
X212325Y101564D03*
X211925Y101564D03*
X211525Y101564D03*
%LNtop copper component 3686d70afa1c5e6e*%
D29*
X10975Y76265D03*
D25*
X13515Y76265D03*
X16055Y76265D03*
X18595Y76265D03*
X21135Y76265D03*
X23675Y76265D03*
X26215Y76265D03*
X28755Y76265D03*
X31295Y76265D03*
X33835Y76265D03*
X36375Y76265D03*
X38915Y76265D03*
X41455Y76265D03*
X43995Y76265D03*
X46535Y76265D03*
X49075Y76265D03*
X49075Y96585D03*
X46535Y96585D03*
X43995Y96585D03*
X41455Y96585D03*
X38915Y96585D03*
X36375Y96585D03*
X33835Y96585D03*
X31295Y96585D03*
X28755Y96585D03*
X26215Y96585D03*
X23675Y96585D03*
X21135Y96585D03*
%LNtop copper component fae2ab7ca5d4c9bc*%
X67425Y42675D03*
%LNtop copper component b027ff144b44c17e*%
D30*
X211793Y96669D03*
X211793Y94969D03*
%LNtop copper component 208970e27ef767f2*%
D18*
X97900Y121645D03*
D19*
X102100Y118445D03*
X97900Y118445D03*
X102100Y121645D03*
X102100Y120045D03*
X97900Y120045D03*
%LNtop copper component e6c093e4fb0ef7fd*%
D18*
X137900Y101645D03*
D19*
X142100Y98445D03*
X137900Y98445D03*
X142100Y101645D03*
X142100Y100045D03*
X137900Y100045D03*
%LNtop copper component 0c936e703266551f*%
D25*
X50000Y10160D03*
%LNtop copper component ae55e23aef3c2c17*%
D23*
X40000Y10000D03*
%LNtop copper component bd28c8b7820afb87*%
D20*
X152990Y92500D03*
X152990Y90000D03*
X152990Y87500D03*
D31*
X160000Y94394D03*
X160000Y85606D03*
%LNtop copper component 7f1e47caf152ae98*%
D17*
X65480Y118554D03*
X67180Y118554D03*
%LNtop copper component 58a1288a180aeb08*%
D14*
X207025Y79518D02*
X207025Y78248D01*
X207025Y82058D02*
X207025Y83328D01*
D32*
X207025Y78248D03*
X207025Y83328D03*
D33*
X207025Y79938D03*
X207025Y81638D03*
%LNtop copper component 007b2282c959908c*%
D23*
X60000Y45050D03*
%LNtop copper component 79f6ec5d6f894635*%
D20*
X192990Y92500D03*
X192990Y90000D03*
X192990Y87500D03*
D31*
X200000Y94394D03*
X200000Y85606D03*
%LNtop copper component 101642b7feb7559f*%
D17*
X63950Y78450D03*
X65650Y78450D03*
%LNtop copper component 4aa0ec8f7d4abd44*%
X104300Y98445D03*
X106000Y98445D03*
%LNtop copper component 5dcb23a1593b6b07*%
D34*
X2200Y126200D03*
X2200Y124300D03*
X4200Y125250D03*
%LNtop copper component b89bd2635b4bd775*%
D17*
X165125Y118450D03*
X166825Y118450D03*
%LNtop copper component 4039f8620c22d145*%
D30*
X184200Y98445D03*
X184200Y96745D03*
%LNtop copper component 39d65e26780576d4*%
D17*
X164150Y78445D03*
X165850Y78445D03*
%LNtop copper component f7b75df1bdf2f181*%
D25*
X50000Y25400D03*
%LNtop copper component d38423d823e8d2e1*%
D18*
X17900Y81645D03*
D19*
X22100Y78445D03*
X17900Y78445D03*
X22100Y81645D03*
X22100Y80045D03*
X17900Y80045D03*
%LNtop copper component cfb32474af56c8fe*%
D35*
X13510Y88975D03*
D36*
X16050Y88975D03*
X18590Y88975D03*
X21130Y88975D03*
X23670Y88975D03*
X26210Y88975D03*
X28750Y88975D03*
X31290Y88975D03*
X13510Y91515D03*
X16050Y91515D03*
X18590Y91515D03*
X21130Y91515D03*
X23670Y91515D03*
X26210Y91515D03*
X28750Y91515D03*
X31290Y91515D03*
%LNtop copper component edd2f8c4690b01ba*%
D25*
X46050Y50343D03*
%LNtop copper component 6f74c3785349d0d5*%
D17*
X124175Y78445D03*
X125875Y78445D03*
%LNtop copper component b0ec72778a083ab3*%
D23*
X180000Y45050D03*
%LNtop copper component eaa233e93840e19b*%
X200000Y45050D03*
%LNtop copper component 26c1b4b607a29686*%
D30*
X5375Y114925D03*
X5375Y113225D03*
%LNtop copper component 2828c7dc829828af*%
D37*
X53440Y82445D03*
X53440Y81795D03*
X53440Y81145D03*
X55640Y81145D03*
X55640Y82445D03*
%LNtop copper component 19b7ae7034783336*%
D14*
X214348Y82125D02*
X214348Y83395D01*
X214348Y79585D02*
X214348Y78315D01*
D20*
X214348Y83395D03*
X214348Y78315D03*
D38*
X214348Y81705D03*
X214348Y80005D03*
%LNtop copper component 3cf36ddb64d95e52*%
D14*
X212350Y79585D02*
X212350Y78315D01*
X212350Y82125D02*
X212350Y83395D01*
D32*
X212350Y78315D03*
X212350Y83395D03*
D33*
X212350Y80005D03*
X212350Y81705D03*
%LNtop copper component 8ce11e64e60d2ce9*%
D17*
X144000Y78554D03*
X145700Y78554D03*
%LNtop copper component ab15ae813f6f3aa1*%
X184275Y118450D03*
X185975Y118450D03*
%LNtop copper component 0e368f23a025e6cc*%
X63900Y98445D03*
X65600Y98445D03*
%LNtop copper component 01c29c7f8cfffb4b*%
X83950Y118575D03*
X85650Y118575D03*
%LNtop copper component 5ebd81450b63c694*%
D18*
X37900Y81645D03*
D19*
X42100Y78445D03*
X37900Y78445D03*
X42100Y81645D03*
X42100Y80045D03*
X37900Y80045D03*
%LNtop copper component adf83d82d2d88d45*%
D25*
X45949Y70725D03*
%LNtop copper component 840a2754f238af4d*%
D20*
X43970Y99125D03*
%LNtop copper component e85196ca949464c4*%
D39*
X42083Y106525D03*
X40383Y106525D03*
%LNtop copper component ab6498ba432a0b55*%
D14*
X12430Y101525D02*
X11160Y101525D01*
X14970Y101525D02*
X16240Y101525D01*
D24*
X12850Y101525D03*
X14550Y101525D03*
D25*
X11160Y101525D03*
X16240Y101525D03*
%LNtop copper component 5154ed8cd176cc8c*%
D20*
X41430Y99125D03*
%LNtop copper component d62bc96d87e5019c*%
D25*
X50000Y2540D03*
%LNtop copper component 97ae3e45ebcc2151*%
D23*
X160000Y65050D03*
%LNtop copper component c48d71a14338c7af*%
X140000Y65050D03*
%LNtop copper component 4f76a2a9eaa2a2fe*%
D18*
X97900Y101645D03*
D19*
X102100Y98445D03*
X97900Y98445D03*
X102100Y101645D03*
X102100Y100045D03*
X97900Y100045D03*
%LNtop copper component 2e9ef28c2831b1bc*%
D18*
X57972Y81645D03*
D19*
X62172Y78445D03*
X57972Y78445D03*
X62172Y81645D03*
X62172Y80045D03*
X57972Y80045D03*
%LNtop copper component 28689b4c8158a79f*%
D14*
X73120Y78445D02*
X74390Y78445D01*
X70580Y78445D02*
X69310Y78445D01*
D15*
X74390Y78445D03*
X69310Y78445D03*
D16*
X72700Y78445D03*
X71000Y78445D03*
%LNtop copper component ffc4da092a9a4fc5*%
D20*
X28730Y99125D03*
%LNtop copper component 7b562a51c2d66994*%
D17*
X104050Y118475D03*
X105750Y118475D03*
%LNtop copper component 5743672455e10ca4*%
D14*
X28325Y108046D02*
X28325Y106776D01*
X28325Y110586D02*
X28325Y111856D01*
D32*
X28325Y106776D03*
X28325Y111856D03*
D33*
X28325Y108466D03*
X28325Y110166D03*
%LNtop copper component 44887bd3d44aa71f*%
D14*
X8745Y113095D02*
X8745Y114365D01*
X8745Y110555D02*
X8745Y109285D01*
D20*
X8745Y114365D03*
X8745Y109285D03*
D38*
X8745Y112675D03*
X8745Y110975D03*
%LNtop copper component 5baf418b44386f3e*%
D14*
X40718Y101841D02*
X41988Y101841D01*
X38178Y101841D02*
X36908Y101841D01*
D15*
X41988Y101841D03*
X36908Y101841D03*
D16*
X40298Y101841D03*
X38598Y101841D03*
%LNtop copper component 140d6fd14c121b3f*%
D20*
X12990Y112500D03*
X12990Y110000D03*
X12990Y107500D03*
D31*
X20000Y114394D03*
X20000Y105606D03*
%LNtop copper component 58ee9cc3f79133a6*%
D14*
X31270Y123190D02*
X32540Y123190D01*
X28730Y123190D02*
X27460Y123190D01*
D15*
X32540Y123190D03*
X27460Y123190D03*
D16*
X30850Y123190D03*
X29150Y123190D03*
%LNtop copper component 98269289897f6ba6*%
D30*
X210985Y94005D03*
X210985Y92305D03*
%LNtop copper component a86400f42089c71c*%
D17*
X144025Y98445D03*
X145725Y98445D03*
%LNtop copper component adf231fd354b1cd0*%
D20*
X72990Y112500D03*
X72990Y110000D03*
X72990Y107500D03*
D31*
X80000Y114394D03*
X80000Y105606D03*
%LNtop copper component 89ac62f37abc9e14*%
D20*
X21110Y99125D03*
%LNtop copper component c392bcdfea8d8ea2*%
D25*
X47780Y115900D03*
%LNtop copper component 7583a494c62a08c3*%
X50000Y15240D03*
%LNtop copper component e784ba3ac1935508*%
D14*
X31700Y108046D02*
X31700Y106776D01*
X31700Y110586D02*
X31700Y111856D01*
D32*
X31700Y106776D03*
X31700Y111856D03*
D33*
X31700Y108466D03*
X31700Y110166D03*
%LNtop copper component c74a98aa77dc13b3*%
D17*
X24930Y78445D03*
X26630Y78445D03*
%LNtop copper component 236cb1eea3aa65ef*%
D14*
X47780Y83885D02*
X46510Y83885D01*
X50320Y83885D02*
X51590Y83885D01*
D24*
X48200Y83885D03*
X49900Y83885D03*
D25*
X46510Y83885D03*
X51590Y83885D03*
%LNtop copper component 43a2ab67652ac8d7*%
D40*
X203875Y98550D03*
X203875Y100250D03*
%LNtop copper component 3657576657a30115*%
D25*
X50000Y5080D03*
%LNtop copper component 3f41394d43e5d88f*%
X10225Y115525D03*
%LNtop copper component aa580201ffaa89d6*%
X50000Y20320D03*
%LNtop copper component af7c4f35f2bc9333*%
D41*
X210717Y79955D03*
X210717Y81554D03*
%LNtop copper component af1981297f4010f7*%
D20*
X23650Y99125D03*
%LNtop copper component b8b07e4af1db7061*%
D14*
X56705Y125755D02*
X57975Y125755D01*
X54165Y125755D02*
X52895Y125755D01*
D15*
X57975Y125755D03*
X52895Y125755D03*
D16*
X56285Y125755D03*
X54585Y125755D03*
%LNtop copper component 4084996067ccbf65*%
D42*
X211539Y87325D03*
D43*
X211539Y87725D03*
X211539Y88125D03*
X211539Y88525D03*
X211539Y88925D03*
X208761Y88925D03*
X208761Y88525D03*
X208761Y88125D03*
X208761Y87725D03*
X208761Y87325D03*
D44*
X210950Y89514D03*
X210550Y89514D03*
X210150Y89514D03*
X209750Y89514D03*
X209350Y89514D03*
X209350Y86736D03*
X209750Y86736D03*
X210150Y86736D03*
X210550Y86736D03*
X210950Y86736D03*
%LNtop copper component 110faed1cc146b02*%
D14*
X33300Y111906D02*
X33300Y110636D01*
X33300Y114446D02*
X33300Y115716D01*
D32*
X33300Y110636D03*
X33300Y115716D03*
D33*
X33300Y112326D03*
X33300Y114026D03*
%LNtop copper component 54d0f928f7385337*%
D37*
X48400Y79700D03*
X48400Y79050D03*
X48400Y78400D03*
X50600Y78400D03*
X50600Y79700D03*
%LNtop copper component 03a6b9848fb8370e*%
D25*
X107747Y41650D03*
%LNtop copper component e83cd94fc164864e*%
D29*
X17300Y125755D03*
D25*
X19840Y125755D03*
X22380Y125755D03*
X24920Y125755D03*
X27460Y125755D03*
X30000Y125755D03*
X32540Y125755D03*
X35080Y125755D03*
X37620Y125755D03*
X40160Y125755D03*
X42700Y125755D03*
%LNtop copper component 22e543a28086d96e*%
D14*
X69405Y123215D02*
X70675Y123215D01*
X66865Y123215D02*
X65595Y123215D01*
D15*
X70675Y123215D03*
X65595Y123215D03*
D16*
X68985Y123215D03*
X67285Y123215D03*
%LNtop copper component dece1cff8e284f1a*%
D20*
X36358Y99125D03*
%LNtop copper component 0711ebfc8202c0ed*%
D17*
X144400Y118425D03*
X146100Y118425D03*
%LNtop copper component ffb1b8a22baaf954*%
D34*
X9085Y94150D03*
X9085Y92250D03*
X11085Y93200D03*
%LNtop copper component 7fd2e291fd359170*%
D25*
X50000Y27940D03*
%LNtop copper component 916d1b4333807369*%
D23*
X40000Y45050D03*
%LNtop copper component 2ce9bceb47a0c645*%
D45*
X52860Y120650D03*
X50320Y120650D03*
X47780Y120650D03*
X45240Y120650D03*
X42700Y120650D03*
X40160Y120650D03*
X37620Y120650D03*
X35080Y120650D03*
X32540Y120650D03*
X30000Y120650D03*
X27460Y120650D03*
X24920Y120650D03*
X22380Y120650D03*
X19840Y120650D03*
X17300Y120650D03*
X14760Y120650D03*
X12220Y120650D03*
X9680Y120650D03*
X7140Y120650D03*
X55400Y118110D03*
X52860Y118110D03*
X50320Y118110D03*
X47780Y118110D03*
X45240Y118110D03*
X42700Y118110D03*
X40160Y118110D03*
X37620Y118110D03*
X35080Y118110D03*
X32540Y118110D03*
X30000Y118110D03*
X27460Y118110D03*
X24920Y118110D03*
X22380Y118110D03*
X19840Y118110D03*
X17300Y118110D03*
X14760Y118110D03*
X12220Y118110D03*
X9680Y118110D03*
X7140Y118110D03*
D46*
X55400Y120650D03*
%LNtop copper component d1b8988840d6d78f*%
D20*
X46510Y78805D03*
%LNtop copper component 116d0418d04e5f4f*%
D17*
X103850Y78455D03*
X105550Y78455D03*
%LNtop copper component 422269f795c4b49e*%
D41*
X47200Y32250D03*
X47200Y33850D03*
%LNtop copper component 4b04faf50c671f76*%
D20*
X152990Y112500D03*
X152990Y110000D03*
X152990Y107500D03*
D31*
X160000Y114394D03*
X160000Y105606D03*
%LNtop copper component 14933e70956be4d4*%
D47*
X11396Y35094D03*
X9797Y35094D03*
%LNtop copper component 9a6bd823684d3e0b*%
D20*
X112990Y92500D03*
X112990Y90000D03*
X112990Y87500D03*
D31*
X120000Y94394D03*
X120000Y85606D03*
%LNtop copper component a9a86f59fad873e5*%
D30*
X28173Y24715D03*
X28173Y23015D03*
%LNtop copper component b8f167eb817f45c9*%
D14*
X13490Y82565D02*
X13490Y83835D01*
X13490Y80025D02*
X13490Y78755D01*
D20*
X13490Y83835D03*
X13490Y78755D03*
D38*
X13490Y82145D03*
X13490Y80445D03*
%LNtop copper component 8d538f7f95303938*%
D48*
X49575Y85030D03*
X49575Y86300D03*
X49575Y87570D03*
X49575Y88840D03*
X49575Y90110D03*
X49575Y91380D03*
X49575Y92650D03*
X49575Y93920D03*
X44175Y93920D03*
X44175Y92650D03*
X44175Y91380D03*
X44175Y90110D03*
X44175Y88840D03*
X44175Y87570D03*
X44175Y86300D03*
X44175Y85030D03*
%LNtop copper component 8d773e40d9ff8c97*%
D14*
X51447Y123047D02*
X50177Y123047D01*
X53987Y123047D02*
X55257Y123047D01*
D24*
X51867Y123047D03*
X53567Y123047D03*
D25*
X50177Y123047D03*
X55257Y123047D03*
%LNtop copper component e06bd56cee5111b9*%
D23*
X140000Y45050D03*
%LNtop copper component b5b9afa7f6085e5a*%
X120000Y65050D03*
%LNtop copper component 3fcc6ea5dac21bce*%
D20*
X132990Y92500D03*
X132990Y90000D03*
X132990Y87500D03*
D31*
X140000Y94394D03*
X140000Y85606D03*
%LNtop copper component 362fc440c7609de4*%
D18*
X77900Y121645D03*
D19*
X82100Y118445D03*
X77900Y118445D03*
X82100Y121645D03*
X82100Y120045D03*
X77900Y120045D03*
%LNtop copper component 22777a1fd5ef78f6*%
D18*
X157900Y81645D03*
D19*
X162100Y78445D03*
X157900Y78445D03*
X162100Y81645D03*
X162100Y80045D03*
X157900Y80045D03*
%LNtop copper component 8daf806579074e6c*%
D25*
X50000Y12700D03*
%LNtop copper component e2b7cb41e3b42ff7*%
D17*
X207340Y97827D03*
X209040Y97827D03*
%LNtop copper component 20eaf199acc821e9*%
D25*
X87675Y42300D03*
%LNtop copper component 835bc4b13f0791df*%
X7140Y115525D03*
%LNtop copper component 1b8cbfd094050d32*%
D18*
X97900Y81645D03*
D19*
X102100Y78445D03*
X97900Y78445D03*
X102100Y81645D03*
X102100Y80045D03*
X97900Y80045D03*
%LNtop copper component 051bcd12e4b16a5d*%
D25*
X26441Y69475D03*
%LNtop copper component 15295c3f1cff3500*%
X45240Y115825D03*
%LNtop copper component f89053a2e4f60840*%
D14*
X5560Y34295D02*
X5560Y35565D01*
X5560Y31755D02*
X5560Y30485D01*
D20*
X5560Y35565D03*
X5560Y30485D03*
D38*
X5560Y33875D03*
X5560Y32175D03*
%LNtop copper component 76f14d7369327f0d*%
D30*
X211090Y105990D03*
X211090Y104290D03*
%LNtop copper component 52a1b1ca2b1d3003*%
D25*
X146400Y72034D03*
%LNtop copper component 5a332b9c7c6b454e*%
D14*
X8500Y28890D02*
X8500Y27620D01*
X8500Y31430D02*
X8500Y32700D01*
D32*
X8500Y27620D03*
X8500Y32700D03*
D33*
X8500Y29310D03*
X8500Y31010D03*
%LNtop copper component 3d096520bff5873b*%
D14*
X205725Y101165D02*
X205725Y102435D01*
X205725Y98625D02*
X205725Y97355D01*
D20*
X205725Y102435D03*
X205725Y97355D03*
D38*
X205725Y100745D03*
X205725Y99045D03*
%LNtop copper component 0b32193e593047df*%
D18*
X177950Y81650D03*
D19*
X182150Y78450D03*
X177950Y78450D03*
X182150Y81650D03*
X182150Y80050D03*
X177950Y80050D03*
%LNtop copper component 4260d80dac0f261d*%
D14*
X36350Y123190D02*
X35080Y123190D01*
X38890Y123190D02*
X40160Y123190D01*
D24*
X36770Y123190D03*
X38470Y123190D03*
D25*
X35080Y123190D03*
X40160Y123190D03*
%LNtop copper component 76bc64773c60f07c*%
D32*
X3000Y119380D03*
X3000Y121920D03*
%LNtop copper component 2b1495a865a6849a*%
D25*
X208450Y52325D03*
%LNtop copper component 0140c6c654e9dc5b*%
X50000Y33020D03*
%LNtop copper component cb78a816f7b119bb*%
D49*
X8029Y25075D03*
X8029Y23475D03*
%LNtop copper component c6cf835b047cfa5f*%
D23*
X200000Y65050D03*
%LNtop copper component 3b85729fa308793e*%
D25*
X105450Y71925D03*
%LNtop copper component 3244838e2437b951*%
D14*
X5850Y57130D02*
X5850Y58400D01*
X5850Y54590D02*
X5850Y53320D01*
D20*
X5850Y58400D03*
X5850Y53320D03*
D38*
X5850Y56710D03*
X5850Y55010D03*
%LNtop copper component 4d63013c9b8810b0*%
D49*
X28138Y36177D03*
X28138Y34577D03*
%LNtop copper component 9606dd0b3b4181df*%
D40*
X44175Y80590D03*
X44175Y82290D03*
%LNtop copper component 4705e07a40114c09*%
D14*
X37579Y86425D02*
X36309Y86425D01*
X40119Y86425D02*
X41389Y86425D01*
D24*
X37999Y86425D03*
X39699Y86425D03*
D25*
X36309Y86425D03*
X41389Y86425D03*
%LNtop copper component b486b3018109de37*%
D18*
X177900Y121645D03*
D19*
X182100Y118445D03*
X177900Y118445D03*
X182100Y121645D03*
X182100Y120045D03*
X177900Y120045D03*
%LNtop copper component 01015ca45b8bb0bc*%
D14*
X71195Y98455D02*
X72465Y98455D01*
X68655Y98455D02*
X67385Y98455D01*
D15*
X72465Y98455D03*
X67385Y98455D03*
D16*
X70775Y98455D03*
X69075Y98455D03*
%LNtop copper component ef78370791fd3d8b*%
D14*
X40119Y88965D02*
X41389Y88965D01*
X37579Y88965D02*
X36309Y88965D01*
D15*
X41389Y88965D03*
X36309Y88965D03*
D16*
X39699Y88965D03*
X37999Y88965D03*
%LNtop copper component e572c9809e58cf0f*%
D18*
X117900Y101645D03*
D19*
X122100Y98445D03*
X117900Y98445D03*
X122100Y101645D03*
X122100Y100045D03*
X117900Y100045D03*
%LNtop copper component 546f381269ff1ef7*%
D20*
X92990Y112500D03*
X92990Y110000D03*
X92990Y107500D03*
D31*
X100000Y114394D03*
X100000Y105606D03*
%LNtop copper component 2acf0be01d619105*%
D18*
X77900Y81645D03*
D19*
X82100Y78445D03*
X77900Y78445D03*
X82100Y81645D03*
X82100Y80045D03*
X77900Y80045D03*
%LNtop copper component 16bcb73ef14200fb*%
D23*
X80000Y45050D03*
%LNtop copper component 095b313a13a9a07c*%
D14*
X11305Y125755D02*
X10035Y125755D01*
X13845Y125755D02*
X15115Y125755D01*
D24*
X11725Y125755D03*
X13425Y125755D03*
D25*
X10035Y125755D03*
X15115Y125755D03*
%LNtop copper component 948a008d14176e07*%
X50000Y17780D03*
%LNtop copper component adc1909596e3bd48*%
X50000Y38100D03*
%LNtop copper component 6df6cc68a2bdf09c*%
D17*
X124125Y118425D03*
X125825Y118425D03*
%LNtop copper component ad1c61057d5f85b7*%
D18*
X197900Y81645D03*
D19*
X202100Y78445D03*
X197900Y78445D03*
X202100Y81645D03*
X202100Y80045D03*
X197900Y80045D03*
%LNtop copper component b2a365c957548fac*%
D20*
X52990Y112500D03*
X52990Y110000D03*
X52990Y107500D03*
D31*
X60000Y114394D03*
X60000Y105606D03*
%LNtop copper component 0cff4b9a53bad90f*%
D18*
X157900Y121645D03*
D19*
X162100Y118445D03*
X157900Y118445D03*
X162100Y121645D03*
X162100Y120045D03*
X157900Y120045D03*
%LNtop copper component ca5038e2ccbbc460*%
D18*
X197900Y121645D03*
D19*
X202100Y118445D03*
X197900Y118445D03*
X202100Y121645D03*
X202100Y120045D03*
X197900Y120045D03*
%LNtop copper component 3c2ce17cf2a01d3a*%
D25*
X88250Y72475D03*
%LNtop copper component e20cf9e83588ac86*%
D50*
X212699Y76581D03*
X214299Y76581D03*
%LNtop copper component 020795961396f96f*%
D25*
X166450Y71120D03*
%LNtop copper component cdeab23590330a90*%
D14*
X16030Y123190D02*
X17300Y123190D01*
X13490Y123190D02*
X12220Y123190D01*
D15*
X17300Y123190D03*
X12220Y123190D03*
D16*
X15610Y123190D03*
X13910Y123190D03*
%LNtop copper component 00c8401b6cf4bd8f*%
D30*
X204125Y79567D03*
X204125Y77867D03*
%LNtop copper component 2e51914d959c2cec*%
D14*
X21110Y123190D02*
X19840Y123190D01*
X23650Y123190D02*
X24920Y123190D01*
D24*
X21530Y123190D03*
X23230Y123190D03*
D25*
X19840Y123190D03*
X24920Y123190D03*
%LNtop copper component 179472fd52466dca*%
D20*
X38890Y99125D03*
%LNtop copper component 9fbf70fbd30795f4*%
D17*
X53890Y80045D03*
X55590Y80045D03*
%LNtop copper component 91ad611b2d09aec1*%
D25*
X50000Y30480D03*
%LNtop copper component 1aa80e2305d3c3f5*%
D14*
X64976Y116850D02*
X63706Y116850D01*
X67516Y116850D02*
X68786Y116850D01*
D24*
X65396Y116850D03*
X67096Y116850D03*
D25*
X63706Y116850D03*
X68786Y116850D03*
%LNtop copper component 4385ecd621abcfb4*%
D17*
X53775Y83625D03*
X55475Y83625D03*
%LNtop copper component 7402d1aeef7f3f20*%
D25*
X50000Y35560D03*
%LNtop copper component 478e18b4a5e21ed9*%
D32*
X3000Y114300D03*
X3000Y116840D03*
%LNtop copper component 7916e5d6367009bd*%
D26*
X28161Y30675D03*
D27*
X28161Y30275D03*
X28161Y29875D03*
X28161Y29475D03*
X28161Y29075D03*
X30939Y29075D03*
X30939Y29475D03*
X30939Y29875D03*
X30939Y30275D03*
X30939Y30675D03*
D28*
X28750Y28486D03*
X29150Y28486D03*
X29550Y28486D03*
X29950Y28486D03*
X30350Y28486D03*
X30350Y31264D03*
X29950Y31264D03*
X29550Y31264D03*
X29150Y31264D03*
X28750Y31264D03*
%LNtop copper component e8b37e7f08e4b4ce*%
D14*
X50324Y99125D02*
X51594Y99125D01*
X47784Y99125D02*
X46514Y99125D01*
D15*
X51594Y99125D03*
X46514Y99125D03*
D16*
X49904Y99125D03*
X48204Y99125D03*
%LNtop copper component 6c40fd1b04079f65*%
D20*
X192990Y112500D03*
X192990Y110000D03*
X192990Y107500D03*
D31*
X200000Y114394D03*
X200000Y105606D03*
%LNtop copper component 3da4608edc6e80ef*%
D39*
X214856Y85200D03*
X213156Y85200D03*
%LNtop copper component 1376364b9f4b7526*%
D48*
X49075Y105555D03*
X49075Y106825D03*
X49075Y108095D03*
X49075Y109365D03*
X49075Y110635D03*
X49075Y111905D03*
X49075Y113175D03*
X49075Y114445D03*
X43675Y114445D03*
X43675Y113175D03*
X43675Y111905D03*
X43675Y110635D03*
X43675Y109365D03*
X43675Y108095D03*
X43675Y106825D03*
X43675Y105555D03*
%LNtop copper component 511370af6c7919eb*%
D25*
X26111Y50495D03*
%LNtop copper component 7e7211f8812d17fd*%
D40*
X26775Y23015D03*
X26775Y24715D03*
%LNtop copper component 7d0a4e2d061378cf*%
D14*
X40168Y83885D02*
X41438Y83885D01*
X37628Y83885D02*
X36358Y83885D01*
D15*
X41438Y83885D03*
X36358Y83885D03*
D16*
X39748Y83885D03*
X38048Y83885D03*
%LNtop copper component 264957ead632d6c1*%
D14*
X31219Y85725D02*
X32489Y85725D01*
X28679Y85725D02*
X27409Y85725D01*
D15*
X32489Y85725D03*
X27409Y85725D03*
D16*
X30799Y85725D03*
X29099Y85725D03*
%LNtop copper component bfe6143774099665*%
D14*
X37628Y94045D02*
X36358Y94045D01*
X40168Y94045D02*
X41438Y94045D01*
D24*
X38048Y94045D03*
X39748Y94045D03*
D25*
X36358Y94045D03*
X41438Y94045D03*
%LNtop copper component c1f03332e9856203*%
D14*
X10860Y31430D02*
X10860Y32700D01*
X10860Y28890D02*
X10860Y27620D01*
D20*
X10860Y32700D03*
X10860Y27620D03*
D38*
X10860Y31010D03*
X10860Y29310D03*
%LNtop copper component 863ca0b2a523c33c*%
D25*
X186817Y71831D03*
%LNtop copper component 80b56979fdf6af87*%
D23*
X40000Y65050D03*
%LNtop copper component db7c6cb3d87cf7fe*%
D18*
X137900Y81645D03*
D19*
X142100Y78445D03*
X137900Y78445D03*
X142100Y81645D03*
X142100Y80045D03*
X137900Y80045D03*
%LNtop copper component 45386d5e65213c57*%
D14*
X5540Y39370D02*
X5540Y38100D01*
X5540Y41910D02*
X5540Y43180D01*
D32*
X5540Y38100D03*
X5540Y43180D03*
D33*
X5540Y39790D03*
X5540Y41490D03*
%LNtop copper component 2d214055c5945252*%
D25*
X147900Y39675D03*
%LNtop copper component ab2fc442c780097c*%
D41*
X211800Y111951D03*
X211800Y113550D03*
%LNtop copper component 86d3615bee55a968*%
D20*
X172990Y92500D03*
X172990Y90000D03*
X172990Y87500D03*
D31*
X180000Y94394D03*
X180000Y85606D03*
%LNtop copper component a3a28f654af52e6d*%
D41*
X207635Y99775D03*
X207635Y101374D03*
%LNtop copper component aff9f134acc6d168*%
D25*
X126746Y41025D03*
%LNtop copper component 90a5760c096e9d9b*%
X186233Y40869D03*
%LNtop copper component c928a8fc3e3d20d2*%
D18*
X77900Y101645D03*
D19*
X82100Y98445D03*
X77900Y98445D03*
X82100Y101645D03*
X82100Y100045D03*
X77900Y100045D03*
%LNtop copper component b3d7406c263ee182*%
D18*
X157900Y101645D03*
D19*
X162100Y98445D03*
X157900Y98445D03*
X162100Y101645D03*
X162100Y100045D03*
X157900Y100045D03*
%LNtop copper component 28b624cef8888489*%
D20*
X33810Y99125D03*
%LNtop copper component 652fff0cf240bfb2*%
D49*
X212296Y93825D03*
X212296Y92225D03*
%LNtop copper component 707e6c11d1cca362*%
D14*
X47784Y101665D02*
X46514Y101665D01*
X50324Y101665D02*
X51594Y101665D01*
D24*
X48204Y101665D03*
X49904Y101665D03*
D25*
X46514Y101665D03*
X51594Y101665D03*
%LNtop copper component 92ba980cb6ada6c2*%
D18*
X57900Y121645D03*
D19*
X62100Y118445D03*
X57900Y118445D03*
X62100Y121645D03*
X62100Y120045D03*
X57900Y120045D03*
%LNtop copper component 5b22a68f09ffcba4*%
D14*
X26613Y32541D02*
X26613Y31271D01*
X26613Y35081D02*
X26613Y36351D01*
D32*
X26613Y31271D03*
X26613Y36351D03*
D33*
X26613Y32961D03*
X26613Y34661D03*
%LNtop copper component 5f39a1bbc8e10a34*%
D30*
X29451Y36262D03*
X29451Y34562D03*
%LNtop copper component d3b47e90c0a44aba*%
D14*
X30000Y111931D02*
X30000Y110661D01*
X30000Y114471D02*
X30000Y115741D01*
D32*
X30000Y110661D03*
X30000Y115741D03*
D33*
X30000Y112351D03*
X30000Y114051D03*
%LNtop copper component 109cba4edaa46692*%
D25*
X64575Y72050D03*
%LNtop copper component 10c17d7dde9f20f2*%
D20*
X72990Y92500D03*
X72990Y90000D03*
X72990Y87500D03*
D31*
X80000Y94394D03*
X80000Y85606D03*
%LNtop copper component 17d3a0ee983cedc9*%
D14*
X37579Y91505D02*
X36309Y91505D01*
X40119Y91505D02*
X41389Y91505D01*
D24*
X37999Y91505D03*
X39699Y91505D03*
D25*
X36309Y91505D03*
X41389Y91505D03*
%LNtop copper component c8b5d540429af894*%
D20*
X92990Y92500D03*
X92990Y90000D03*
X92990Y87500D03*
D31*
X100000Y94394D03*
X100000Y85606D03*
%LNtop copper component 5e90e38e5f92e439*%
D23*
X100000Y65050D03*
%LNtop copper component 7c5862ef05c6b57e*%
D14*
X30000Y107016D02*
X30000Y108286D01*
X30000Y104476D02*
X30000Y103206D01*
D20*
X30000Y108286D03*
X30000Y103206D03*
D38*
X30000Y106596D03*
X30000Y104896D03*
%LNtop copper component 2e184ac7e641a9ec*%
D23*
X60000Y65050D03*
%LNtop copper component d66d5715dd5ea0f6*%
D17*
X183912Y78450D03*
X185612Y78450D03*
%LNtop copper component 5e6affc749fa9367*%
D23*
X120000Y45050D03*
%LNtop copper component 3ee2067a7940f73c*%
D14*
X37620Y112992D02*
X36350Y112992D01*
X40160Y112992D02*
X41430Y112992D01*
D24*
X38040Y112992D03*
X39740Y112992D03*
D25*
X36350Y112992D03*
X41430Y112992D03*
%LNtop copper component a4b5c663cafba649*%
D20*
X52990Y92500D03*
X52990Y90000D03*
X52990Y87500D03*
D31*
X60000Y94394D03*
X60000Y85606D03*
%LNtop copper component c3bb4e8e86108661*%
D18*
X117900Y81645D03*
D19*
X122100Y78445D03*
X117900Y78445D03*
X122100Y81645D03*
X122100Y80045D03*
X117900Y80045D03*
%LNtop copper component a545dc4cd47ee866*%
D20*
X33810Y78805D03*
%LNtop copper component 1090ed080a1beb2c*%
D17*
X83800Y98445D03*
X85500Y98445D03*
%LNtop copper component d72e272e4740b0c6*%
D14*
X10800Y108730D02*
X10800Y110000D01*
X10800Y106190D02*
X10800Y104920D01*
D20*
X10800Y110000D03*
X10800Y104920D03*
D38*
X10800Y108310D03*
X10800Y106610D03*
%LNtop copper component e02c3f52298e31bf*%
D25*
X168478Y40150D03*
%LNtop copper component 49beb2a2a790b48d*%
D14*
X213925Y90195D02*
X213925Y88925D01*
X213925Y92735D02*
X213925Y94005D01*
D32*
X213925Y88925D03*
X213925Y94005D03*
D33*
X213925Y90615D03*
X213925Y92315D03*
%LNtop copper component 66a2352ef12547e6*%
D14*
X14820Y98275D02*
X16090Y98275D01*
X12280Y98275D02*
X11010Y98275D01*
D15*
X16090Y98275D03*
X11010Y98275D03*
D16*
X14400Y98275D03*
X12700Y98275D03*
%LNtop copper component f8eb9171c27f36d0*%
D23*
X160050Y45050D03*
%LNtop copper component f2b8dcf9fc5b61b9*%
D17*
X203900Y118500D03*
X205600Y118500D03*
%LNtop copper component f46c31dedb484b98*%
D25*
X50000Y22860D03*
%LNtop copper component ddb2af37f6a94b60*%
D18*
X57900Y101645D03*
D19*
X62100Y98445D03*
X57900Y98445D03*
X62100Y101645D03*
X62100Y100045D03*
X57900Y100045D03*
%LNtop copper component b52b50502c51dacb*%
D18*
X197900Y101645D03*
D19*
X202100Y98445D03*
X197900Y98445D03*
X202100Y101645D03*
X202100Y100045D03*
X197900Y100045D03*
%LNtop copper component afb2019f5953c4e2*%
D14*
X37699Y107997D02*
X36429Y107997D01*
X40239Y107997D02*
X41509Y107997D01*
D24*
X38119Y107997D03*
X39819Y107997D03*
D25*
X36429Y107997D03*
X41509Y107997D03*
%LNtop copper component 807992e83262e177*%
D18*
X117900Y121645D03*
D19*
X122100Y118445D03*
X117900Y118445D03*
X122100Y121645D03*
X122100Y120045D03*
X117900Y120045D03*
%LNtop copper component e7393894ce705798*%
D14*
X38178Y103825D02*
X36908Y103825D01*
X40718Y103825D02*
X41988Y103825D01*
D24*
X38598Y103825D03*
X40298Y103825D03*
D25*
X36908Y103825D03*
X41988Y103825D03*
%LNtop copper component e182ecc0a0b9ab00*%
D17*
X163850Y98445D03*
X165550Y98445D03*
%LNtop copper component eb627d342a4f903e*%
D20*
X172990Y112500D03*
X172990Y110000D03*
X172990Y107500D03*
D31*
X180000Y114394D03*
X180000Y105606D03*
%LNtop copper component 04f20976e88c6656*%
D25*
X204400Y72974D03*
%LNtop copper component 9838140f6d8fc3a3*%
D14*
X31170Y83425D02*
X32440Y83425D01*
X28630Y83425D02*
X27360Y83425D01*
D15*
X32440Y83425D03*
X27360Y83425D03*
D16*
X30750Y83425D03*
X29050Y83425D03*
%LNtop copper component 19f5bff069822602*%
D40*
X208590Y92210D03*
X208590Y93910D03*
%LNtop copper component 2855dc77c2e8dde1*%
D17*
X7265Y90315D03*
X8965Y90315D03*
%LNtop copper component 4de6dc9ddc697575*%
D14*
X213404Y110460D02*
X213404Y111730D01*
X213404Y107920D02*
X213404Y106650D01*
D20*
X213404Y111730D03*
X213404Y106650D03*
D38*
X213404Y110040D03*
X213404Y108340D03*
%LNtop copper component d1bccda1b464fd03*%
D20*
X3000Y106680D03*
X3000Y104140D03*
X3000Y101600D03*
X3000Y99060D03*
X3000Y96520D03*
X3000Y93980D03*
X3000Y91440D03*
X3000Y88900D03*
X3000Y86360D03*
X3000Y83820D03*
X3000Y81280D03*
X3000Y78740D03*
X3000Y76200D03*
X3000Y73660D03*
X3000Y71120D03*
X3000Y68580D03*
X3000Y66040D03*
X3000Y63500D03*
X3075Y60960D03*
X3000Y58420D03*
X3000Y55880D03*
X3000Y53340D03*
X3000Y50800D03*
X3000Y48260D03*
X3075Y45720D03*
X3000Y43180D03*
X3075Y40640D03*
X3000Y38100D03*
X3000Y35560D03*
X3000Y33020D03*
X3000Y30480D03*
X3000Y27940D03*
X3000Y25400D03*
X3000Y22860D03*
X3000Y20320D03*
X3000Y17780D03*
X3000Y15240D03*
X3000Y12700D03*
X3075Y10160D03*
D51*
X3000Y109220D03*
%LNtop copper component 6f731d5231862424*%
D23*
X20000Y10000D03*
%LNtop copper component 8161a00624e99dd4*%
D25*
X129975Y74400D03*
%LNtop copper component df7ae76c082a1110*%
D23*
X20000Y45050D03*
%LNtop copper component be6dae4a381f52ea*%
D20*
X16030Y78755D03*
%LNtop copper component e90434b9302ec0b9*%
D14*
X37620Y115541D02*
X36350Y115541D01*
X40160Y115541D02*
X41430Y115541D01*
D24*
X38040Y115541D03*
X39740Y115541D03*
D25*
X36350Y115541D03*
X41430Y115541D03*
%LNtop copper component 76e5300c46c5832f*%
D41*
X215265Y91098D03*
X215265Y92697D03*
%LNtop copper component 3182fa8905ce6316*%
D23*
X20000Y65050D03*
%LNtop copper component dc8524c0dc9858c2*%
X80000Y65050D03*
%LNtop copper component 42107fc99cd43302*%
D14*
X22105Y102781D02*
X20835Y102781D01*
X24645Y102781D02*
X25915Y102781D01*
D24*
X22525Y102781D03*
X24225Y102781D03*
D25*
X20835Y102781D03*
X25915Y102781D03*
%LNtop copper component fca1a590c33dcb53*%
D14*
X5450Y92710D02*
X5450Y93980D01*
X5450Y90170D02*
X5450Y88900D01*
D20*
X5450Y93980D03*
X5450Y88900D03*
D38*
X5450Y92290D03*
X5450Y90590D03*
%LNtop copper component 175f9e2f385f0166*%
D14*
X208875Y103705D02*
X208875Y102435D01*
X208875Y106245D02*
X208875Y107515D01*
D32*
X208875Y102435D03*
X208875Y107515D03*
D33*
X208875Y104125D03*
X208875Y105825D03*
%LNtop copper component ed63482871275af4*%
D14*
X46510Y123190D02*
X47780Y123190D01*
X43970Y123190D02*
X42700Y123190D01*
D15*
X47780Y123190D03*
X42700Y123190D03*
D16*
X46090Y123190D03*
X44390Y123190D03*
%LNtop copper component 390ca8bdf514aefd*%
D20*
X112990Y112500D03*
X112990Y110000D03*
X112990Y107500D03*
D31*
X120000Y114394D03*
X120000Y105606D03*
%LNtop copper component fb25c8ebd593f1df*%
D21*
X33400Y32700D03*
D22*
X33400Y30000D03*
X33400Y27300D03*
X37300Y23400D03*
X40000Y23400D03*
X42700Y23400D03*
X40000Y34600D03*
X44600Y30000D03*
%LNtop copper component 037ab21f56739a3d*%
D17*
X123900Y98445D03*
X125600Y98445D03*
%LNtop copper component 620a4f717f976fc9*%
D20*
X10950Y78755D03*
%LNtop copper component 770da3fad1f49017*%
D23*
X180000Y65050D03*
%LNtop copper component 4cda8897de2b8f63*%
D14*
X40160Y110537D02*
X41430Y110537D01*
X37620Y110537D02*
X36350Y110537D01*
D15*
X41430Y110537D03*
X36350Y110537D03*
D16*
X39740Y110537D03*
X38040Y110537D03*
%LNtop copper component cf01b5d8126ae9b4*%
D18*
X137900Y121645D03*
D19*
X142100Y118445D03*
X137900Y118445D03*
X142100Y121645D03*
X142100Y120045D03*
X137900Y120045D03*
%LNtop copper component fcb33d2da6a8351b*%
D14*
X208879Y79518D02*
X208879Y78248D01*
X208879Y82058D02*
X208879Y83328D01*
D32*
X208879Y78248D03*
X208879Y83328D03*
D33*
X208879Y79938D03*
X208879Y81638D03*
%LNtop copper component 58632b713c9df017*%
D17*
X42890Y83550D03*
X44590Y83550D03*
%LNtop copper component 1902cf21c92c7046*%
D20*
X31270Y99125D03*
%LNtop copper component b2ca7374564098aa*%
X132990Y112500D03*
X132990Y110000D03*
X132990Y107500D03*
D31*
X140000Y114394D03*
X140000Y105606D03*
%LNtop copper component 7e1ecc0de24a47d5*%
D52*
X60225Y19475D03*
X111725Y19625D03*
X126225Y19175D03*
X199725Y19175D03*
D53*
X85975Y19175D03*
X151975Y19175D03*
X173975Y19175D03*
D54*
X63975Y9925D03*
X85975Y10075D03*
X107975Y10075D03*
X129975Y9925D03*
X151975Y9925D03*
X173975Y9925D03*
X195975Y10075D03*
D55*
X74825Y26400D03*
X96975Y26175D03*
X140975Y26325D03*
X162975Y26175D03*
X184975Y26175D03*
%LNtop copper component f8200634cbf82353*%
D14*
X47780Y81345D02*
X46510Y81345D01*
X50320Y81345D02*
X51590Y81345D01*
D24*
X48200Y81345D03*
X49900Y81345D03*
D25*
X46510Y81345D03*
X51590Y81345D03*
%LNtop copper component 32cc1e32022eae04*%
D14*
X7050Y104205D02*
X7050Y102935D01*
X7050Y106745D02*
X7050Y108015D01*
D32*
X7050Y102935D03*
X7050Y108015D03*
D33*
X7050Y104625D03*
X7050Y106325D03*
M02*