<?xml version="1.0" encoding="utf-8"?>
<!-- Generator: Adobe Illustrator 15.0.0, SVG Export Plug-In . SVG Version: 6.00 Build 0)  -->
<!DOCTYPE svg PUBLIC "-//W3C//DTD SVG 1.1//EN" "http://www.w3.org/Graphics/SVG/1.1/DTD/svg11.dtd">
<svg version="1.1" id="Layer_1" xmlns="http://www.w3.org/2000/svg" xmlns:xlink="http://www.w3.org/1999/xlink" x="0px" y="0px"
	 width="2239.371px" height="1088.504px" viewBox="0 0 2239.371 1088.504" enable-background="new 0 0 2239.371 1088.504"
	 xml:space="preserve">
<g id="eurorack_guides">
</g>
<g id="Layer_9" display="none">
</g>
<g id="Layer_8" display="none">
</g>
<g id="side_guides" display="none">
</g>
<g id="Layer_4" display="none">
</g>
<g id="new_vertical_guides" display="none">
</g>
<g id="Layer_6" display="none">
</g>
<g id="Eurorack_hole_insert_guides" display="none">
</g>
<g>
	<g>
		<circle fill="none" stroke="#0000FF" stroke-width="0.0283" stroke-miterlimit="10" cx="535.58" cy="221.652" r="4.677"/>
		<circle fill="none" stroke="#0000FF" stroke-width="0.0283" stroke-miterlimit="10" cx="549.98" cy="221.652" r="4.677"/>
		<circle fill="none" stroke="#0000FF" stroke-width="0.0283" stroke-miterlimit="10" cx="521.182" cy="221.652" r="4.678"/>
		<circle fill="none" stroke="#0000FF" stroke-width="0.0283" stroke-miterlimit="10" cx="506.779" cy="221.652" r="4.678"/>
		<circle fill="none" stroke="#0000FF" stroke-width="0.0283" stroke-miterlimit="10" cx="492.381" cy="221.652" r="4.677"/>
		<circle fill="none" stroke="#0000FF" stroke-width="0.0283" stroke-miterlimit="10" cx="477.98" cy="221.652" r="4.677"/>
		<circle fill="none" stroke="#0000FF" stroke-width="0.0283" stroke-miterlimit="10" cx="463.58" cy="221.652" r="4.677"/>
		<circle fill="none" stroke="#0000FF" stroke-width="0.0283" stroke-miterlimit="10" cx="449.182" cy="221.652" r="4.678"/>
		<circle fill="none" stroke="#0000FF" stroke-width="0.0283" stroke-miterlimit="10" cx="434.779" cy="221.652" r="4.678"/>
		<circle fill="none" stroke="#0000FF" stroke-width="0.0283" stroke-miterlimit="10" cx="420.381" cy="221.652" r="4.678"/>
		<circle fill="none" stroke="#0000FF" stroke-width="0.0283" stroke-miterlimit="10" cx="405.98" cy="221.652" r="4.677"/>
		<circle fill="none" stroke="#0000FF" stroke-width="0.0283" stroke-miterlimit="10" cx="391.58" cy="221.652" r="4.677"/>
		<circle fill="none" stroke="#0000FF" stroke-width="0.0283" stroke-miterlimit="10" cx="377.182" cy="221.652" r="4.677"/>
		<circle fill="none" stroke="#0000FF" stroke-width="0.0283" stroke-miterlimit="10" cx="362.779" cy="221.652" r="4.677"/>
		<circle fill="none" stroke="#0000FF" stroke-width="0.0283" stroke-miterlimit="10" cx="348.379" cy="221.652" r="4.678"/>
		<circle fill="none" stroke="#0000FF" stroke-width="0.0283" stroke-miterlimit="10" cx="333.979" cy="221.652" r="4.677"/>
		<circle fill="none" stroke="#0000FF" stroke-width="0.0283" stroke-miterlimit="10" cx="319.58" cy="221.652" r="4.677"/>
		<circle fill="none" stroke="#0000FF" stroke-width="0.0283" stroke-miterlimit="10" cx="305.181" cy="221.652" r="4.677"/>
		<circle fill="none" stroke="#0000FF" stroke-width="0.0283" stroke-miterlimit="10" cx="290.779" cy="221.652" r="4.678"/>
		<circle fill="none" stroke="#0000FF" stroke-width="0.0283" stroke-miterlimit="10" cx="276.379" cy="221.652" r="4.678"/>
		<circle fill="none" stroke="#0000FF" stroke-width="0.0283" stroke-miterlimit="10" cx="261.979" cy="221.652" r="4.677"/>
		<circle fill="none" stroke="#0000FF" stroke-width="0.0283" stroke-miterlimit="10" cx="247.58" cy="221.652" r="4.677"/>
		<circle fill="none" stroke="#0000FF" stroke-width="0.0283" stroke-miterlimit="10" cx="233.18" cy="221.652" r="4.677"/>
		<circle fill="none" stroke="#0000FF" stroke-width="0.0283" stroke-miterlimit="10" cx="218.779" cy="221.652" r="4.678"/>
		<circle fill="none" stroke="#0000FF" stroke-width="0.0283" stroke-miterlimit="10" cx="204.379" cy="221.652" r="4.678"/>
		<circle fill="none" stroke="#0000FF" stroke-width="0.0283" stroke-miterlimit="10" cx="189.979" cy="221.652" r="4.678"/>
		<circle fill="none" stroke="#0000FF" stroke-width="0.0283" stroke-miterlimit="10" cx="175.58" cy="221.652" r="4.677"/>
		<circle fill="none" stroke="#0000FF" stroke-width="0.0283" stroke-miterlimit="10" cx="161.18" cy="221.652" r="4.677"/>
		<circle fill="none" stroke="#0000FF" stroke-width="0.0283" stroke-miterlimit="10" cx="146.779" cy="221.652" r="4.678"/>
		<circle fill="none" stroke="#0000FF" stroke-width="0.0283" stroke-miterlimit="10" cx="132.379" cy="221.652" r="4.678"/>
		<circle fill="none" stroke="#0000FF" stroke-width="0.0283" stroke-miterlimit="10" cx="117.979" cy="221.652" r="4.678"/>
		<circle fill="none" stroke="#0000FF" stroke-width="0.0283" stroke-miterlimit="10" cx="103.58" cy="221.652" r="4.677"/>
		<circle fill="none" stroke="#0000FF" stroke-width="0.0283" stroke-miterlimit="10" cx="89.18" cy="221.652" r="4.677"/>
		<circle fill="none" stroke="#0000FF" stroke-width="0.0283" stroke-miterlimit="10" cx="74.779" cy="221.652" r="4.677"/>
		<circle fill="none" stroke="#0000FF" stroke-width="0.0283" stroke-miterlimit="10" cx="60.379" cy="221.652" r="4.677"/>
	</g>
	<g>
		<circle fill="none" stroke="#0000FF" stroke-width="0.0283" stroke-miterlimit="10" cx="74.781" cy="568.897" r="4.677"/>
		<circle fill="none" stroke="#0000FF" stroke-width="0.0283" stroke-miterlimit="10" cx="60.381" cy="568.897" r="4.677"/>
		<circle fill="none" stroke="#0000FF" stroke-width="0.0283" stroke-miterlimit="10" cx="89.182" cy="568.897" r="4.677"/>
		<circle fill="none" stroke="#0000FF" stroke-width="0.0283" stroke-miterlimit="10" cx="103.581" cy="568.896" r="4.678"/>
		<circle fill="none" stroke="#0000FF" stroke-width="0.0283" stroke-miterlimit="10" cx="117.982" cy="568.897" r="4.677"/>
		<circle fill="none" stroke="#0000FF" stroke-width="0.0283" stroke-miterlimit="10" cx="132.381" cy="568.897" r="4.677"/>
		<circle fill="none" stroke="#0000FF" stroke-width="0.0283" stroke-miterlimit="10" cx="146.781" cy="568.897" r="4.677"/>
		<circle fill="none" stroke="#0000FF" stroke-width="0.0283" stroke-miterlimit="10" cx="161.182" cy="568.897" r="4.677"/>
		<circle fill="none" stroke="#0000FF" stroke-width="0.0283" stroke-miterlimit="10" cx="175.581" cy="568.896" r="4.678"/>
		<circle fill="none" stroke="#0000FF" stroke-width="0.0283" stroke-miterlimit="10" cx="189.982" cy="568.896" r="4.678"/>
		<circle fill="none" stroke="#0000FF" stroke-width="0.0283" stroke-miterlimit="10" cx="204.381" cy="568.897" r="4.677"/>
		<circle fill="none" stroke="#0000FF" stroke-width="0.0283" stroke-miterlimit="10" cx="218.781" cy="568.897" r="4.677"/>
		<circle fill="none" stroke="#0000FF" stroke-width="0.0283" stroke-miterlimit="10" cx="233.182" cy="568.897" r="4.677"/>
		<circle fill="none" stroke="#0000FF" stroke-width="0.0283" stroke-miterlimit="10" cx="247.581" cy="568.897" r="4.677"/>
		<circle fill="none" stroke="#0000FF" stroke-width="0.0283" stroke-miterlimit="10" cx="261.982" cy="568.896" r="4.678"/>
		<circle fill="none" stroke="#0000FF" stroke-width="0.0283" stroke-miterlimit="10" cx="276.383" cy="568.897" r="4.677"/>
		<circle fill="none" stroke="#0000FF" stroke-width="0.0283" stroke-miterlimit="10" cx="290.781" cy="568.897" r="4.677"/>
		<circle fill="none" stroke="#0000FF" stroke-width="0.0283" stroke-miterlimit="10" cx="305.182" cy="568.897" r="4.677"/>
		<circle fill="none" stroke="#0000FF" stroke-width="0.0283" stroke-miterlimit="10" cx="319.581" cy="568.896" r="4.678"/>
		<circle fill="none" stroke="#0000FF" stroke-width="0.0283" stroke-miterlimit="10" cx="333.982" cy="568.896" r="4.678"/>
		<circle fill="none" stroke="#0000FF" stroke-width="0.0283" stroke-miterlimit="10" cx="348.38" cy="568.897" r="4.677"/>
		<circle fill="none" stroke="#0000FF" stroke-width="0.0283" stroke-miterlimit="10" cx="362.781" cy="568.897" r="4.677"/>
		<circle fill="none" stroke="#0000FF" stroke-width="0.0283" stroke-miterlimit="10" cx="377.182" cy="568.897" r="4.677"/>
		<circle fill="none" stroke="#0000FF" stroke-width="0.0283" stroke-miterlimit="10" cx="391.581" cy="568.896" r="4.678"/>
		<circle fill="none" stroke="#0000FF" stroke-width="0.0283" stroke-miterlimit="10" cx="405.982" cy="568.896" r="4.678"/>
		<circle fill="none" stroke="#0000FF" stroke-width="0.0283" stroke-miterlimit="10" cx="420.383" cy="568.896" r="4.678"/>
		<circle fill="none" stroke="#0000FF" stroke-width="0.0283" stroke-miterlimit="10" cx="434.783" cy="568.897" r="4.677"/>
		<circle fill="none" stroke="#0000FF" stroke-width="0.0283" stroke-miterlimit="10" cx="449.182" cy="568.897" r="4.677"/>
		<circle fill="none" stroke="#0000FF" stroke-width="0.0283" stroke-miterlimit="10" cx="463.582" cy="568.896" r="4.678"/>
		<circle fill="none" stroke="#0000FF" stroke-width="0.0283" stroke-miterlimit="10" cx="477.982" cy="568.896" r="4.678"/>
		<circle fill="none" stroke="#0000FF" stroke-width="0.0283" stroke-miterlimit="10" cx="492.383" cy="568.896" r="4.678"/>
		<circle fill="none" stroke="#0000FF" stroke-width="0.0283" stroke-miterlimit="10" cx="506.783" cy="568.897" r="4.677"/>
		<circle fill="none" stroke="#0000FF" stroke-width="0.0283" stroke-miterlimit="10" cx="521.182" cy="568.897" r="4.677"/>
		<circle fill="none" stroke="#0000FF" stroke-width="0.0283" stroke-miterlimit="10" cx="535.584" cy="568.897" r="4.677"/>
		<circle fill="none" stroke="#0000FF" stroke-width="0.0283" stroke-miterlimit="10" cx="549.984" cy="568.897" r="4.677"/>
	</g>
	<g>
		<g>
			<path fill="none" stroke="#0000FF" stroke-width="0.0283" stroke-miterlimit="10" d="M37.816,38.809
				c-4.693,0-8.504,3.806-8.504,8.504l0.003-0.001v535.747l-0.003-0.002c0,4.697,3.812,8.508,8.505,8.508v-0.002h534.731
				l-0.002,0.002c4.695,0,8.504-3.809,8.504-8.506V47.312v0.001c0-4.696-3.809-8.504-8.504-8.504h0.002H37.816L37.816,38.809z"/>
		</g>
		<g>
			<path fill="none" stroke="#0000FF" stroke-width="0.0283" stroke-miterlimit="10" d="M94.641,85.02
				c0-2.503-2.031-4.535-4.536-4.535c-2.503,0-4.535,2.031-4.535,4.535s2.032,4.535,4.534,4.535
				C92.61,89.555,94.641,87.525,94.641,85.02"/>
			<path fill="none" stroke="#0000FF" stroke-width="0.0283" stroke-miterlimit="10" d="M94.641,170.042
				c0-2.506-2.031-4.535-4.536-4.533c-2.503,0-4.535,2.029-4.535,4.533c0,2.506,2.032,4.532,4.534,4.532
				C92.61,174.574,94.641,172.55,94.641,170.042"/>
			<path fill="none" stroke="#0000FF" stroke-width="0.0283" stroke-miterlimit="10" d="M209.48,170.042
				c0-2.506-2.029-4.533-4.533-4.533c-2.503,0-4.535,2.029-4.535,4.533c0,2.506,2.031,4.532,4.535,4.532
				C207.451,174.574,209.48,172.55,209.48,170.042"/>
			<path fill="none" stroke="#0000FF" stroke-width="0.0283" stroke-miterlimit="10" d="M237.801,170.042
				c0-2.506-2.031-4.535-4.535-4.533c-2.504,0-4.535,2.029-4.535,4.533c0,2.506,2.031,4.532,4.535,4.532
				S237.801,172.55,237.801,170.042"/>
			<path fill="none" stroke="#0000FF" stroke-width="0.0283" stroke-miterlimit="10" d="M237.801,85.02
				c0-2.503-2.031-4.535-4.535-4.535s-4.535,2.031-4.535,4.535s2.031,4.535,4.535,4.535S237.801,87.525,237.801,85.02"/>
			<path fill="none" stroke="#0000FF" stroke-width="0.0283" stroke-miterlimit="10" d="M413.539,170.042
				c0-2.506-2.028-4.535-4.534-4.533c-2.507,0-4.534,2.029-4.534,4.533c0,2.506,2.027,4.532,4.534,4.532
				C411.513,174.579,413.539,172.55,413.539,170.042"/>
			<path fill="none" stroke="#0000FF" stroke-width="0.0283" stroke-miterlimit="10" d="M528.381,170.042
				c0-2.506-2.03-4.535-4.534-4.533c-2.507,0-4.535,2.029-4.535,4.533c0,2.506,2.028,4.532,4.535,4.532
				C526.353,174.574,528.381,172.55,528.381,170.042"/>
			<path fill="none" stroke="#0000FF" stroke-width="0.0283" stroke-miterlimit="10" d="M528.381,85.02
				c0-2.503-2.03-4.535-4.534-4.535c-2.507,0-4.534,2.031-4.534,4.535c-0.001,2.504,2.027,4.535,4.534,4.535
				C526.353,89.555,528.381,87.525,528.381,85.02"/>
		</g>
	</g>
</g>
<g>
	<g>
		<circle fill="none" stroke="#0000FF" stroke-width="0.0283" stroke-miterlimit="10" cx="1103.127" cy="221.652" r="4.677"/>
		<circle fill="none" stroke="#0000FF" stroke-width="0.0283" stroke-miterlimit="10" cx="1117.528" cy="221.652" r="4.677"/>
		<circle fill="none" stroke="#0000FF" stroke-width="0.0283" stroke-miterlimit="10" cx="1088.729" cy="221.652" r="4.678"/>
		<circle fill="none" stroke="#0000FF" stroke-width="0.0283" stroke-miterlimit="10" cx="1074.327" cy="221.652" r="4.678"/>
		<circle fill="none" stroke="#0000FF" stroke-width="0.0283" stroke-miterlimit="10" cx="1059.928" cy="221.652" r="4.677"/>
		<circle fill="none" stroke="#0000FF" stroke-width="0.0283" stroke-miterlimit="10" cx="1045.528" cy="221.652" r="4.677"/>
		<circle fill="none" stroke="#0000FF" stroke-width="0.0283" stroke-miterlimit="10" cx="1031.127" cy="221.652" r="4.677"/>
		<circle fill="none" stroke="#0000FF" stroke-width="0.0283" stroke-miterlimit="10" cx="1016.729" cy="221.652" r="4.678"/>
		<circle fill="none" stroke="#0000FF" stroke-width="0.0283" stroke-miterlimit="10" cx="1002.327" cy="221.652" r="4.678"/>
		<circle fill="none" stroke="#0000FF" stroke-width="0.0283" stroke-miterlimit="10" cx="987.928" cy="221.652" r="4.678"/>
		<circle fill="none" stroke="#0000FF" stroke-width="0.0283" stroke-miterlimit="10" cx="973.528" cy="221.652" r="4.677"/>
		<circle fill="none" stroke="#0000FF" stroke-width="0.0283" stroke-miterlimit="10" cx="959.127" cy="221.652" r="4.677"/>
		<circle fill="none" stroke="#0000FF" stroke-width="0.0283" stroke-miterlimit="10" cx="944.729" cy="221.652" r="4.677"/>
		<circle fill="none" stroke="#0000FF" stroke-width="0.0283" stroke-miterlimit="10" cx="930.327" cy="221.652" r="4.677"/>
		<circle fill="none" stroke="#0000FF" stroke-width="0.0283" stroke-miterlimit="10" cx="915.926" cy="221.652" r="4.678"/>
		<circle fill="none" stroke="#0000FF" stroke-width="0.0283" stroke-miterlimit="10" cx="901.527" cy="221.652" r="4.677"/>
		<circle fill="none" stroke="#0000FF" stroke-width="0.0283" stroke-miterlimit="10" cx="887.127" cy="221.652" r="4.677"/>
		<circle fill="none" stroke="#0000FF" stroke-width="0.0283" stroke-miterlimit="10" cx="872.728" cy="221.652" r="4.677"/>
		<circle fill="none" stroke="#0000FF" stroke-width="0.0283" stroke-miterlimit="10" cx="858.327" cy="221.652" r="4.678"/>
		<circle fill="none" stroke="#0000FF" stroke-width="0.0283" stroke-miterlimit="10" cx="843.926" cy="221.652" r="4.678"/>
		<circle fill="none" stroke="#0000FF" stroke-width="0.0283" stroke-miterlimit="10" cx="829.527" cy="221.652" r="4.677"/>
		<circle fill="none" stroke="#0000FF" stroke-width="0.0283" stroke-miterlimit="10" cx="815.127" cy="221.652" r="4.677"/>
		<circle fill="none" stroke="#0000FF" stroke-width="0.0283" stroke-miterlimit="10" cx="800.727" cy="221.652" r="4.677"/>
		<circle fill="none" stroke="#0000FF" stroke-width="0.0283" stroke-miterlimit="10" cx="786.327" cy="221.652" r="4.678"/>
		<circle fill="none" stroke="#0000FF" stroke-width="0.0283" stroke-miterlimit="10" cx="771.926" cy="221.652" r="4.678"/>
		<circle fill="none" stroke="#0000FF" stroke-width="0.0283" stroke-miterlimit="10" cx="757.527" cy="221.652" r="4.678"/>
		<circle fill="none" stroke="#0000FF" stroke-width="0.0283" stroke-miterlimit="10" cx="743.127" cy="221.652" r="4.677"/>
		<circle fill="none" stroke="#0000FF" stroke-width="0.0283" stroke-miterlimit="10" cx="728.727" cy="221.652" r="4.677"/>
		<circle fill="none" stroke="#0000FF" stroke-width="0.0283" stroke-miterlimit="10" cx="714.327" cy="221.652" r="4.678"/>
		<circle fill="none" stroke="#0000FF" stroke-width="0.0283" stroke-miterlimit="10" cx="699.926" cy="221.652" r="4.678"/>
		<circle fill="none" stroke="#0000FF" stroke-width="0.0283" stroke-miterlimit="10" cx="685.526" cy="221.652" r="4.678"/>
		<circle fill="none" stroke="#0000FF" stroke-width="0.0283" stroke-miterlimit="10" cx="671.127" cy="221.652" r="4.677"/>
		<circle fill="none" stroke="#0000FF" stroke-width="0.0283" stroke-miterlimit="10" cx="656.727" cy="221.652" r="4.677"/>
		<circle fill="none" stroke="#0000FF" stroke-width="0.0283" stroke-miterlimit="10" cx="642.327" cy="221.652" r="4.677"/>
		<circle fill="none" stroke="#0000FF" stroke-width="0.0283" stroke-miterlimit="10" cx="627.926" cy="221.652" r="4.677"/>
	</g>
	<g>
		<circle fill="none" stroke="#0000FF" stroke-width="0.0283" stroke-miterlimit="10" cx="642.329" cy="568.897" r="4.677"/>
		<circle fill="none" stroke="#0000FF" stroke-width="0.0283" stroke-miterlimit="10" cx="627.928" cy="568.897" r="4.677"/>
		<circle fill="none" stroke="#0000FF" stroke-width="0.0283" stroke-miterlimit="10" cx="656.729" cy="568.897" r="4.677"/>
		<circle fill="none" stroke="#0000FF" stroke-width="0.0283" stroke-miterlimit="10" cx="671.128" cy="568.896" r="4.678"/>
		<circle fill="none" stroke="#0000FF" stroke-width="0.0283" stroke-miterlimit="10" cx="685.53" cy="568.897" r="4.677"/>
		<circle fill="none" stroke="#0000FF" stroke-width="0.0283" stroke-miterlimit="10" cx="699.928" cy="568.897" r="4.677"/>
		<circle fill="none" stroke="#0000FF" stroke-width="0.0283" stroke-miterlimit="10" cx="714.329" cy="568.897" r="4.677"/>
		<circle fill="none" stroke="#0000FF" stroke-width="0.0283" stroke-miterlimit="10" cx="728.729" cy="568.897" r="4.677"/>
		<circle fill="none" stroke="#0000FF" stroke-width="0.0283" stroke-miterlimit="10" cx="743.128" cy="568.896" r="4.678"/>
		<circle fill="none" stroke="#0000FF" stroke-width="0.0283" stroke-miterlimit="10" cx="757.53" cy="568.896" r="4.678"/>
		<circle fill="none" stroke="#0000FF" stroke-width="0.0283" stroke-miterlimit="10" cx="771.928" cy="568.897" r="4.677"/>
		<circle fill="none" stroke="#0000FF" stroke-width="0.0283" stroke-miterlimit="10" cx="786.329" cy="568.897" r="4.677"/>
		<circle fill="none" stroke="#0000FF" stroke-width="0.0283" stroke-miterlimit="10" cx="800.729" cy="568.897" r="4.677"/>
		<circle fill="none" stroke="#0000FF" stroke-width="0.0283" stroke-miterlimit="10" cx="815.128" cy="568.897" r="4.677"/>
		<circle fill="none" stroke="#0000FF" stroke-width="0.0283" stroke-miterlimit="10" cx="829.53" cy="568.896" r="4.678"/>
		<circle fill="none" stroke="#0000FF" stroke-width="0.0283" stroke-miterlimit="10" cx="843.93" cy="568.897" r="4.677"/>
		<circle fill="none" stroke="#0000FF" stroke-width="0.0283" stroke-miterlimit="10" cx="858.329" cy="568.897" r="4.677"/>
		<circle fill="none" stroke="#0000FF" stroke-width="0.0283" stroke-miterlimit="10" cx="872.729" cy="568.897" r="4.677"/>
		<circle fill="none" stroke="#0000FF" stroke-width="0.0283" stroke-miterlimit="10" cx="887.128" cy="568.896" r="4.678"/>
		<circle fill="none" stroke="#0000FF" stroke-width="0.0283" stroke-miterlimit="10" cx="901.53" cy="568.896" r="4.678"/>
		<circle fill="none" stroke="#0000FF" stroke-width="0.0283" stroke-miterlimit="10" cx="915.927" cy="568.897" r="4.677"/>
		<circle fill="none" stroke="#0000FF" stroke-width="0.0283" stroke-miterlimit="10" cx="930.329" cy="568.897" r="4.677"/>
		<circle fill="none" stroke="#0000FF" stroke-width="0.0283" stroke-miterlimit="10" cx="944.729" cy="568.897" r="4.677"/>
		<circle fill="none" stroke="#0000FF" stroke-width="0.0283" stroke-miterlimit="10" cx="959.128" cy="568.896" r="4.678"/>
		<circle fill="none" stroke="#0000FF" stroke-width="0.0283" stroke-miterlimit="10" cx="973.53" cy="568.896" r="4.678"/>
		<circle fill="none" stroke="#0000FF" stroke-width="0.0283" stroke-miterlimit="10" cx="987.93" cy="568.896" r="4.678"/>
		<circle fill="none" stroke="#0000FF" stroke-width="0.0283" stroke-miterlimit="10" cx="1002.331" cy="568.897" r="4.677"/>
		<circle fill="none" stroke="#0000FF" stroke-width="0.0283" stroke-miterlimit="10" cx="1016.729" cy="568.897" r="4.677"/>
		<circle fill="none" stroke="#0000FF" stroke-width="0.0283" stroke-miterlimit="10" cx="1031.129" cy="568.896" r="4.678"/>
		<circle fill="none" stroke="#0000FF" stroke-width="0.0283" stroke-miterlimit="10" cx="1045.53" cy="568.896" r="4.678"/>
		<circle fill="none" stroke="#0000FF" stroke-width="0.0283" stroke-miterlimit="10" cx="1059.93" cy="568.896" r="4.678"/>
		<circle fill="none" stroke="#0000FF" stroke-width="0.0283" stroke-miterlimit="10" cx="1074.331" cy="568.897" r="4.677"/>
		<circle fill="none" stroke="#0000FF" stroke-width="0.0283" stroke-miterlimit="10" cx="1088.729" cy="568.897" r="4.677"/>
		<circle fill="none" stroke="#0000FF" stroke-width="0.0283" stroke-miterlimit="10" cx="1103.131" cy="568.897" r="4.677"/>
		<circle fill="none" stroke="#0000FF" stroke-width="0.0283" stroke-miterlimit="10" cx="1117.532" cy="568.897" r="4.677"/>
	</g>
	<g>
		<g>
			<path fill="none" stroke="#0000FF" stroke-width="0.0283" stroke-miterlimit="10" d="M605.364,38.809
				c-4.693,0-8.504,3.806-8.504,8.504l0.003-0.001v535.747l-0.003-0.002c0,4.697,3.812,8.508,8.505,8.508v-0.002h534.731
				l-0.002,0.002c4.695,0,8.504-3.809,8.504-8.506V47.312v0.001c0-4.696-3.809-8.504-8.504-8.504h0.002H605.364L605.364,38.809z"/>
		</g>
		<g>
			<path fill="none" stroke="#0000FF" stroke-width="0.0283" stroke-miterlimit="10" d="M662.188,85.02
				c0-2.503-2.031-4.535-4.536-4.535c-2.503,0-4.535,2.031-4.535,4.535s2.032,4.535,4.534,4.535
				C660.158,89.555,662.188,87.525,662.188,85.02"/>
			<path fill="none" stroke="#0000FF" stroke-width="0.0283" stroke-miterlimit="10" d="M662.188,170.042
				c0-2.506-2.031-4.535-4.536-4.533c-2.503,0-4.535,2.029-4.535,4.533c0,2.506,2.032,4.532,4.534,4.532
				C660.158,174.574,662.188,172.55,662.188,170.042"/>
			<path fill="none" stroke="#0000FF" stroke-width="0.0283" stroke-miterlimit="10" d="M777.027,170.042
				c0-2.506-2.028-4.533-4.533-4.533c-2.503,0-4.534,2.029-4.534,4.533c0,2.506,2.031,4.532,4.534,4.532
				C774.999,174.574,777.027,172.55,777.027,170.042"/>
			<path fill="none" stroke="#0000FF" stroke-width="0.0283" stroke-miterlimit="10" d="M805.348,170.042
				c0-2.506-2.03-4.535-4.534-4.533c-2.504,0-4.535,2.029-4.535,4.533c0,2.506,2.031,4.532,4.535,4.532
				S805.348,172.55,805.348,170.042"/>
			<path fill="none" stroke="#0000FF" stroke-width="0.0283" stroke-miterlimit="10" d="M805.348,85.02
				c0-2.503-2.03-4.535-4.534-4.535s-4.535,2.031-4.535,4.535s2.031,4.535,4.535,4.535S805.348,87.525,805.348,85.02"/>
			<path fill="none" stroke="#0000FF" stroke-width="0.0283" stroke-miterlimit="10" d="M981.086,170.042
				c0-2.506-2.028-4.535-4.534-4.533c-2.507,0-4.533,2.029-4.533,4.533c0,2.506,2.026,4.532,4.533,4.532
				C979.06,174.579,981.086,172.55,981.086,170.042"/>
			<path fill="none" stroke="#0000FF" stroke-width="0.0283" stroke-miterlimit="10" d="M1095.928,170.042
				c0-2.506-2.03-4.535-4.534-4.533c-2.507,0-4.535,2.029-4.535,4.533c0,2.506,2.028,4.532,4.535,4.532
				C1093.9,174.574,1095.928,172.55,1095.928,170.042"/>
			<path fill="none" stroke="#0000FF" stroke-width="0.0283" stroke-miterlimit="10" d="M1095.928,85.02
				c0-2.503-2.03-4.535-4.534-4.535c-2.507,0-4.533,2.031-4.533,4.535c-0.002,2.504,2.026,4.535,4.533,4.535
				C1093.9,89.555,1095.928,87.525,1095.928,85.02"/>
		</g>
	</g>
</g>
<g>
	<g>
		<circle fill="none" stroke="#0000FF" stroke-width="0.0283" stroke-miterlimit="10" cx="1667.783" cy="221.652" r="4.677"/>
		<circle fill="none" stroke="#0000FF" stroke-width="0.0283" stroke-miterlimit="10" cx="1682.184" cy="221.652" r="4.677"/>
		<circle fill="none" stroke="#0000FF" stroke-width="0.0283" stroke-miterlimit="10" cx="1653.385" cy="221.652" r="4.678"/>
		<circle fill="none" stroke="#0000FF" stroke-width="0.0283" stroke-miterlimit="10" cx="1638.982" cy="221.652" r="4.678"/>
		<circle fill="none" stroke="#0000FF" stroke-width="0.0283" stroke-miterlimit="10" cx="1624.584" cy="221.652" r="4.677"/>
		<circle fill="none" stroke="#0000FF" stroke-width="0.0283" stroke-miterlimit="10" cx="1610.184" cy="221.652" r="4.677"/>
		<circle fill="none" stroke="#0000FF" stroke-width="0.0283" stroke-miterlimit="10" cx="1595.783" cy="221.652" r="4.677"/>
		<circle fill="none" stroke="#0000FF" stroke-width="0.0283" stroke-miterlimit="10" cx="1581.385" cy="221.652" r="4.678"/>
		<circle fill="none" stroke="#0000FF" stroke-width="0.0283" stroke-miterlimit="10" cx="1566.982" cy="221.652" r="4.678"/>
		<circle fill="none" stroke="#0000FF" stroke-width="0.0283" stroke-miterlimit="10" cx="1552.584" cy="221.652" r="4.678"/>
		<circle fill="none" stroke="#0000FF" stroke-width="0.0283" stroke-miterlimit="10" cx="1538.184" cy="221.652" r="4.677"/>
		<circle fill="none" stroke="#0000FF" stroke-width="0.0283" stroke-miterlimit="10" cx="1523.783" cy="221.652" r="4.677"/>
		<circle fill="none" stroke="#0000FF" stroke-width="0.0283" stroke-miterlimit="10" cx="1509.385" cy="221.652" r="4.677"/>
		<circle fill="none" stroke="#0000FF" stroke-width="0.0283" stroke-miterlimit="10" cx="1494.982" cy="221.652" r="4.677"/>
		<circle fill="none" stroke="#0000FF" stroke-width="0.0283" stroke-miterlimit="10" cx="1480.582" cy="221.652" r="4.678"/>
		<circle fill="none" stroke="#0000FF" stroke-width="0.0283" stroke-miterlimit="10" cx="1466.182" cy="221.652" r="4.677"/>
		<circle fill="none" stroke="#0000FF" stroke-width="0.0283" stroke-miterlimit="10" cx="1451.783" cy="221.652" r="4.677"/>
		<circle fill="none" stroke="#0000FF" stroke-width="0.0283" stroke-miterlimit="10" cx="1437.383" cy="221.652" r="4.677"/>
		<circle fill="none" stroke="#0000FF" stroke-width="0.0283" stroke-miterlimit="10" cx="1422.982" cy="221.652" r="4.678"/>
		<circle fill="none" stroke="#0000FF" stroke-width="0.0283" stroke-miterlimit="10" cx="1408.582" cy="221.652" r="4.678"/>
		<circle fill="none" stroke="#0000FF" stroke-width="0.0283" stroke-miterlimit="10" cx="1394.182" cy="221.652" r="4.677"/>
		<circle fill="none" stroke="#0000FF" stroke-width="0.0283" stroke-miterlimit="10" cx="1379.783" cy="221.652" r="4.677"/>
		<circle fill="none" stroke="#0000FF" stroke-width="0.0283" stroke-miterlimit="10" cx="1365.383" cy="221.652" r="4.677"/>
		<circle fill="none" stroke="#0000FF" stroke-width="0.0283" stroke-miterlimit="10" cx="1350.982" cy="221.652" r="4.678"/>
		<circle fill="none" stroke="#0000FF" stroke-width="0.0283" stroke-miterlimit="10" cx="1336.582" cy="221.652" r="4.678"/>
		<circle fill="none" stroke="#0000FF" stroke-width="0.0283" stroke-miterlimit="10" cx="1322.182" cy="221.652" r="4.678"/>
		<circle fill="none" stroke="#0000FF" stroke-width="0.0283" stroke-miterlimit="10" cx="1307.783" cy="221.652" r="4.677"/>
		<circle fill="none" stroke="#0000FF" stroke-width="0.0283" stroke-miterlimit="10" cx="1293.383" cy="221.652" r="4.677"/>
		<circle fill="none" stroke="#0000FF" stroke-width="0.0283" stroke-miterlimit="10" cx="1278.982" cy="221.652" r="4.678"/>
		<circle fill="none" stroke="#0000FF" stroke-width="0.0283" stroke-miterlimit="10" cx="1264.582" cy="221.652" r="4.678"/>
		<circle fill="none" stroke="#0000FF" stroke-width="0.0283" stroke-miterlimit="10" cx="1250.182" cy="221.652" r="4.678"/>
		<circle fill="none" stroke="#0000FF" stroke-width="0.0283" stroke-miterlimit="10" cx="1235.783" cy="221.652" r="4.677"/>
		<circle fill="none" stroke="#0000FF" stroke-width="0.0283" stroke-miterlimit="10" cx="1221.383" cy="221.652" r="4.677"/>
		<circle fill="none" stroke="#0000FF" stroke-width="0.0283" stroke-miterlimit="10" cx="1206.982" cy="221.652" r="4.677"/>
		<circle fill="none" stroke="#0000FF" stroke-width="0.0283" stroke-miterlimit="10" cx="1192.582" cy="221.652" r="4.677"/>
	</g>
	<g>
		<circle fill="none" stroke="#0000FF" stroke-width="0.0283" stroke-miterlimit="10" cx="1206.984" cy="568.897" r="4.677"/>
		<circle fill="none" stroke="#0000FF" stroke-width="0.0283" stroke-miterlimit="10" cx="1192.584" cy="568.897" r="4.677"/>
		<circle fill="none" stroke="#0000FF" stroke-width="0.0283" stroke-miterlimit="10" cx="1221.385" cy="568.897" r="4.677"/>
		<circle fill="none" stroke="#0000FF" stroke-width="0.0283" stroke-miterlimit="10" cx="1235.783" cy="568.896" r="4.678"/>
		<circle fill="none" stroke="#0000FF" stroke-width="0.0283" stroke-miterlimit="10" cx="1250.186" cy="568.897" r="4.677"/>
		<circle fill="none" stroke="#0000FF" stroke-width="0.0283" stroke-miterlimit="10" cx="1264.584" cy="568.897" r="4.677"/>
		<circle fill="none" stroke="#0000FF" stroke-width="0.0283" stroke-miterlimit="10" cx="1278.984" cy="568.897" r="4.677"/>
		<circle fill="none" stroke="#0000FF" stroke-width="0.0283" stroke-miterlimit="10" cx="1293.385" cy="568.897" r="4.677"/>
		<circle fill="none" stroke="#0000FF" stroke-width="0.0283" stroke-miterlimit="10" cx="1307.783" cy="568.896" r="4.678"/>
		<circle fill="none" stroke="#0000FF" stroke-width="0.0283" stroke-miterlimit="10" cx="1322.186" cy="568.896" r="4.678"/>
		<circle fill="none" stroke="#0000FF" stroke-width="0.0283" stroke-miterlimit="10" cx="1336.584" cy="568.897" r="4.677"/>
		<circle fill="none" stroke="#0000FF" stroke-width="0.0283" stroke-miterlimit="10" cx="1350.984" cy="568.897" r="4.677"/>
		<circle fill="none" stroke="#0000FF" stroke-width="0.0283" stroke-miterlimit="10" cx="1365.385" cy="568.897" r="4.677"/>
		<circle fill="none" stroke="#0000FF" stroke-width="0.0283" stroke-miterlimit="10" cx="1379.783" cy="568.897" r="4.677"/>
		<circle fill="none" stroke="#0000FF" stroke-width="0.0283" stroke-miterlimit="10" cx="1394.186" cy="568.896" r="4.678"/>
		<circle fill="none" stroke="#0000FF" stroke-width="0.0283" stroke-miterlimit="10" cx="1408.586" cy="568.897" r="4.677"/>
		<circle fill="none" stroke="#0000FF" stroke-width="0.0283" stroke-miterlimit="10" cx="1422.984" cy="568.897" r="4.677"/>
		<circle fill="none" stroke="#0000FF" stroke-width="0.0283" stroke-miterlimit="10" cx="1437.385" cy="568.897" r="4.677"/>
		<circle fill="none" stroke="#0000FF" stroke-width="0.0283" stroke-miterlimit="10" cx="1451.783" cy="568.896" r="4.678"/>
		<circle fill="none" stroke="#0000FF" stroke-width="0.0283" stroke-miterlimit="10" cx="1466.186" cy="568.896" r="4.678"/>
		<circle fill="none" stroke="#0000FF" stroke-width="0.0283" stroke-miterlimit="10" cx="1480.582" cy="568.897" r="4.677"/>
		<circle fill="none" stroke="#0000FF" stroke-width="0.0283" stroke-miterlimit="10" cx="1494.984" cy="568.897" r="4.677"/>
		<circle fill="none" stroke="#0000FF" stroke-width="0.0283" stroke-miterlimit="10" cx="1509.385" cy="568.897" r="4.677"/>
		<circle fill="none" stroke="#0000FF" stroke-width="0.0283" stroke-miterlimit="10" cx="1523.783" cy="568.896" r="4.678"/>
		<circle fill="none" stroke="#0000FF" stroke-width="0.0283" stroke-miterlimit="10" cx="1538.186" cy="568.896" r="4.678"/>
		<circle fill="none" stroke="#0000FF" stroke-width="0.0283" stroke-miterlimit="10" cx="1552.586" cy="568.896" r="4.678"/>
		<circle fill="none" stroke="#0000FF" stroke-width="0.0283" stroke-miterlimit="10" cx="1566.986" cy="568.897" r="4.677"/>
		<circle fill="none" stroke="#0000FF" stroke-width="0.0283" stroke-miterlimit="10" cx="1581.385" cy="568.897" r="4.677"/>
		<circle fill="none" stroke="#0000FF" stroke-width="0.0283" stroke-miterlimit="10" cx="1595.785" cy="568.896" r="4.678"/>
		<circle fill="none" stroke="#0000FF" stroke-width="0.0283" stroke-miterlimit="10" cx="1610.186" cy="568.896" r="4.678"/>
		<circle fill="none" stroke="#0000FF" stroke-width="0.0283" stroke-miterlimit="10" cx="1624.586" cy="568.896" r="4.678"/>
		<circle fill="none" stroke="#0000FF" stroke-width="0.0283" stroke-miterlimit="10" cx="1638.986" cy="568.897" r="4.677"/>
		<circle fill="none" stroke="#0000FF" stroke-width="0.0283" stroke-miterlimit="10" cx="1653.385" cy="568.897" r="4.677"/>
		<circle fill="none" stroke="#0000FF" stroke-width="0.0283" stroke-miterlimit="10" cx="1667.787" cy="568.897" r="4.677"/>
		<circle fill="none" stroke="#0000FF" stroke-width="0.0283" stroke-miterlimit="10" cx="1682.188" cy="568.897" r="4.677"/>
	</g>
	<g>
		<g>
			<path fill="none" stroke="#0000FF" stroke-width="0.0283" stroke-miterlimit="10" d="M1170.02,38.809
				c-4.693,0-8.504,3.806-8.504,8.504l0.002-0.001v535.747l-0.002-0.002c0,4.697,3.811,8.508,8.504,8.508v-0.002h534.731
				l-0.002,0.002c4.695,0,8.504-3.809,8.504-8.506V47.312v0.001c0-4.696-3.809-8.504-8.504-8.504h0.002H1170.02L1170.02,38.809z"/>
		</g>
		<g>
			<path fill="none" stroke="#0000FF" stroke-width="0.0283" stroke-miterlimit="10" d="M1226.844,85.02
				c0-2.503-2.031-4.535-4.537-4.535c-2.502,0-4.535,2.031-4.535,4.535s2.033,4.535,4.535,4.535
				C1224.813,89.555,1226.844,87.525,1226.844,85.02"/>
			<path fill="none" stroke="#0000FF" stroke-width="0.0283" stroke-miterlimit="10" d="M1226.844,170.042
				c0-2.506-2.031-4.535-4.537-4.533c-2.502,0-4.535,2.029-4.535,4.533c0,2.506,2.033,4.532,4.535,4.532
				C1224.813,174.574,1226.844,172.55,1226.844,170.042"/>
			<path fill="none" stroke="#0000FF" stroke-width="0.0283" stroke-miterlimit="10" d="M1341.682,170.042
				c0-2.506-2.027-4.533-4.533-4.533c-2.502,0-4.533,2.029-4.533,4.533c0,2.506,2.031,4.532,4.533,4.532
				C1339.654,174.574,1341.682,172.55,1341.682,170.042"/>
			<path fill="none" stroke="#0000FF" stroke-width="0.0283" stroke-miterlimit="10" d="M1370.004,170.042
				c0-2.506-2.031-4.535-4.535-4.533c-2.504,0-4.535,2.029-4.535,4.533c0,2.506,2.031,4.532,4.535,4.532
				S1370.004,172.55,1370.004,170.042"/>
			<path fill="none" stroke="#0000FF" stroke-width="0.0283" stroke-miterlimit="10" d="M1370.004,85.02
				c0-2.503-2.031-4.535-4.535-4.535s-4.535,2.031-4.535,4.535s2.031,4.535,4.535,4.535S1370.004,87.525,1370.004,85.02"/>
			<path fill="none" stroke="#0000FF" stroke-width="0.0283" stroke-miterlimit="10" d="M1545.742,170.042
				c0-2.506-2.029-4.535-4.535-4.533c-2.506,0-4.533,2.029-4.533,4.533c0,2.506,2.027,4.532,4.533,4.532
				C1543.715,174.579,1545.742,172.55,1545.742,170.042"/>
			<path fill="none" stroke="#0000FF" stroke-width="0.0283" stroke-miterlimit="10" d="M1660.584,170.042
				c0-2.506-2.031-4.535-4.535-4.533c-2.506,0-4.535,2.029-4.535,4.533c0,2.506,2.029,4.532,4.535,4.532
				S1660.584,172.55,1660.584,170.042"/>
			<path fill="none" stroke="#0000FF" stroke-width="0.0283" stroke-miterlimit="10" d="M1660.584,85.02
				c0-2.503-2.031-4.535-4.535-4.535c-2.506,0-4.533,2.031-4.533,4.535c-0.002,2.504,2.027,4.535,4.533,4.535
				S1660.584,87.525,1660.584,85.02"/>
		</g>
	</g>
</g>
</svg>
