<?xml version="1.0" encoding="utf-8"?>
<!-- Generator: Adobe Illustrator 15.0.0, SVG Export Plug-In . SVG Version: 6.00 Build 0)  -->
<!DOCTYPE svg PUBLIC "-//W3C//DTD SVG 1.1//EN" "http://www.w3.org/Graphics/SVG/1.1/DTD/svg11.dtd">
<svg version="1.1" xmlns="http://www.w3.org/2000/svg" xmlns:xlink="http://www.w3.org/1999/xlink" x="0px" y="0px" width="792px"
	 height="612px" viewBox="0 0 792 612" enable-background="new 0 0 792 612" xml:space="preserve">
<g id="Layer_1">
	
		<path fill="none" stroke="#000000" stroke-width="1.44" stroke-linecap="round" stroke-linejoin="round" stroke-miterlimit="10" d="
		M127.276,161.326c0-2.552-2.068-4.62-4.62-4.62c-2.552,0-4.62,2.068-4.62,4.62c0,2.551,2.068,4.619,4.62,4.619
		C125.208,165.945,127.276,163.876,127.276,161.326"/>
	
		<path fill="none" stroke="#000000" stroke-width="1.44" stroke-linecap="round" stroke-linejoin="round" stroke-miterlimit="10" d="
		M127.276,326.445c0-2.553-2.068-4.619-4.62-4.619c-2.552,0-4.62,2.066-4.62,4.619c0,2.552,2.068,4.62,4.62,4.62
		C125.208,331.065,127.276,328.997,127.276,326.445"/>
	
		<path fill="none" stroke="#000000" stroke-width="1.44" stroke-linecap="round" stroke-linejoin="round" stroke-miterlimit="10" d="
		M127.276,343.365c0-2.554-2.068-4.619-4.62-4.619c-2.552,0-4.62,2.066-4.62,4.619c0,2.552,2.068,4.62,4.62,4.62
		C125.208,347.985,127.276,345.917,127.276,343.365"/>
	
		<path fill="none" stroke="#000000" stroke-width="1.44" stroke-linecap="round" stroke-linejoin="round" stroke-miterlimit="10" d="
		M127.276,206.806c0-2.553-2.068-4.621-4.62-4.621c-2.552,0-4.62,2.068-4.62,4.621c0,2.551,2.068,4.619,4.62,4.619
		C125.208,211.425,127.276,209.357,127.276,206.806"/>
	
		<path fill="none" stroke="#000000" stroke-width="1.44" stroke-linecap="round" stroke-linejoin="round" stroke-miterlimit="10" d="
		M127.276,235.365c0-2.551-2.068-4.619-4.62-4.619c-2.552,0-4.62,2.068-4.62,4.619c0,2.553,2.068,4.621,4.62,4.621
		C125.208,239.986,127.276,237.917,127.276,235.365"/>
	
		<path fill="none" stroke="#000000" stroke-width="1.44" stroke-linecap="round" stroke-linejoin="round" stroke-miterlimit="10" d="
		M127.276,371.926c0-2.552-2.068-4.62-4.62-4.62c-2.552,0-4.62,2.068-4.62,4.62c0,2.551,2.068,4.62,4.62,4.62
		C125.208,376.546,127.276,374.477,127.276,371.926"/>
	
		<path fill="none" stroke="#000000" stroke-width="1.44" stroke-linecap="round" stroke-linejoin="round" stroke-miterlimit="10" d="
		M127.276,252.286c0-2.552-2.068-4.62-4.62-4.62c-2.552,0-4.62,2.068-4.62,4.62c0,2.552,2.068,4.62,4.62,4.62
		C125.208,256.906,127.276,254.837,127.276,252.286"/>
	
		<path fill="none" stroke="#000000" stroke-width="1.44" stroke-linecap="round" stroke-linejoin="round" stroke-miterlimit="10" d="
		M127.276,297.885c0-2.552-2.068-4.62-4.62-4.62c-2.552,0-4.62,2.068-4.62,4.62c0,2.552,2.068,4.62,4.62,4.62
		C125.208,302.505,127.276,300.437,127.276,297.885"/>
	
		<path fill="none" stroke="#000000" stroke-width="1.44" stroke-linecap="round" stroke-linejoin="round" stroke-miterlimit="10" d="
		M127.276,417.405c0-2.554-2.068-4.62-4.62-4.62c-2.552,0-4.62,2.066-4.62,4.62c0,2.552,2.068,4.62,4.62,4.62
		C125.208,422.025,127.276,419.957,127.276,417.405"/>
	
		<path fill="none" stroke="#000000" stroke-width="1.44" stroke-linecap="round" stroke-linejoin="round" stroke-miterlimit="10" d="
		M127.276,280.845c0-2.551-2.068-4.619-4.62-4.619c-2.552,0-4.62,2.068-4.62,4.619c0,2.552,2.068,4.62,4.62,4.62
		C125.208,285.465,127.276,283.397,127.276,280.845"/>
	
		<path fill="none" stroke="#000000" stroke-width="1.44" stroke-linecap="round" stroke-linejoin="round" stroke-miterlimit="10" d="
		M127.276,115.726c0-2.553-2.068-4.621-4.62-4.621c-2.552,0-4.62,2.068-4.62,4.621c0,2.551,2.068,4.619,4.62,4.619
		C125.208,120.345,127.276,118.277,127.276,115.726"/>
	
		<path fill="none" stroke="#000000" stroke-width="1.44" stroke-linecap="round" stroke-linejoin="round" stroke-miterlimit="10" d="
		M127.276,189.765c0-2.551-2.068-4.619-4.62-4.619c-2.552,0-4.62,2.068-4.62,4.619c0,2.552,2.068,4.621,4.62,4.621
		C125.208,194.386,127.276,192.317,127.276,189.765"/>
	
		<path fill="none" stroke="#000000" stroke-width="1.44" stroke-linecap="round" stroke-linejoin="round" stroke-miterlimit="10" d="
		M127.276,144.286c0-2.552-2.068-4.62-4.62-4.62c-2.552,0-4.62,2.068-4.62,4.62c0,2.552,2.068,4.62,4.62,4.62
		C125.208,148.906,127.276,146.837,127.276,144.286"/>
	
		<path fill="none" stroke="#000000" stroke-width="1.44" stroke-linecap="round" stroke-linejoin="round" stroke-miterlimit="10" d="
		M127.276,388.966c0-2.552-2.068-4.62-4.62-4.62c-2.552,0-4.62,2.068-4.62,4.62c0,2.551,2.068,4.62,4.62,4.62
		C125.208,393.586,127.276,391.517,127.276,388.966"/>
	
		<path fill="none" stroke="#000000" stroke-width="1.44" stroke-linecap="round" stroke-linejoin="round" stroke-miterlimit="10" d="
		M127.276,434.445c0-2.554-2.068-4.62-4.62-4.62c-2.552,0-4.62,2.066-4.62,4.62c0,2.552,2.068,4.62,4.62,4.62
		C125.208,439.065,127.276,436.997,127.276,434.445"/>
	
		<path fill="none" stroke="#000000" stroke-width="1.44" stroke-linecap="round" stroke-linejoin="round" stroke-miterlimit="10" d="
		M127.276,463.006c0-2.552-2.068-4.62-4.62-4.62c-2.552,0-4.62,2.068-4.62,4.62c0,2.551,2.068,4.619,4.62,4.619
		C125.208,467.625,127.276,465.557,127.276,463.006"/>
	
		<path fill="none" stroke="#000000" stroke-width="1.44" stroke-linecap="round" stroke-linejoin="round" stroke-miterlimit="10" d="
		M660.197,297.885c0-2.552-2.068-4.62-4.62-4.62s-4.62,2.068-4.62,4.62c0,2.552,2.068,4.62,4.62,4.62
		S660.197,300.437,660.197,297.885"/>
	
		<path fill="none" stroke="#000000" stroke-width="1.44" stroke-linecap="round" stroke-linejoin="round" stroke-miterlimit="10" d="
		M660.197,280.845c0-2.551-2.068-4.619-4.62-4.619s-4.62,2.068-4.62,4.619c0,2.552,2.068,4.62,4.62,4.62
		S660.197,283.397,660.197,280.845"/>
	
		<path fill="none" stroke="#000000" stroke-width="1.44" stroke-linecap="round" stroke-linejoin="round" stroke-miterlimit="10" d="
		M660.197,252.286c0-2.552-2.068-4.62-4.62-4.62s-4.62,2.068-4.62,4.62c0,2.552,2.068,4.62,4.62,4.62
		S660.197,254.837,660.197,252.286"/>
	
		<path fill="none" stroke="#000000" stroke-width="1.44" stroke-linecap="round" stroke-linejoin="round" stroke-miterlimit="10" d="
		M660.197,235.365c0-2.551-2.068-4.619-4.62-4.619s-4.62,2.068-4.62,4.619c0,2.553,2.068,4.621,4.62,4.621
		S660.197,237.917,660.197,235.365"/>
	
		<path fill="none" stroke="#000000" stroke-width="1.44" stroke-linecap="round" stroke-linejoin="round" stroke-miterlimit="10" d="
		M660.197,161.326c0-2.552-2.068-4.62-4.62-4.62s-4.62,2.068-4.62,4.62c0,2.551,2.068,4.619,4.62,4.619
		S660.197,163.876,660.197,161.326"/>
	
		<path fill="none" stroke="#000000" stroke-width="1.44" stroke-linecap="round" stroke-linejoin="round" stroke-miterlimit="10" d="
		M660.197,206.806c0-2.553-2.068-4.621-4.62-4.621s-4.62,2.068-4.62,4.621c0,2.551,2.068,4.619,4.62,4.619
		S660.197,209.357,660.197,206.806"/>
	
		<path fill="none" stroke="#000000" stroke-width="1.44" stroke-linecap="round" stroke-linejoin="round" stroke-miterlimit="10" d="
		M660.197,189.765c0-2.551-2.068-4.619-4.62-4.619s-4.62,2.068-4.62,4.619c0,2.552,2.068,4.621,4.62,4.621
		S660.197,192.317,660.197,189.765"/>
	
		<path fill="none" stroke="#000000" stroke-width="1.44" stroke-linecap="round" stroke-linejoin="round" stroke-miterlimit="10" d="
		M660.197,343.365c0-2.554-2.068-4.619-4.62-4.619s-4.62,2.066-4.62,4.619c0,2.552,2.068,4.62,4.62,4.62
		S660.197,345.917,660.197,343.365"/>
	
		<path fill="none" stroke="#000000" stroke-width="1.44" stroke-linecap="round" stroke-linejoin="round" stroke-miterlimit="10" d="
		M660.197,144.286c0-2.552-2.068-4.62-4.62-4.62s-4.62,2.068-4.62,4.62c0,2.552,2.068,4.62,4.62,4.62
		S660.197,146.837,660.197,144.286"/>
	
		<path fill="none" stroke="#000000" stroke-width="1.44" stroke-linecap="round" stroke-linejoin="round" stroke-miterlimit="10" d="
		M660.197,434.445c0-2.554-2.068-4.62-4.62-4.62s-4.62,2.066-4.62,4.62c0,2.552,2.068,4.62,4.62,4.62
		S660.197,436.997,660.197,434.445"/>
	
		<path fill="none" stroke="#000000" stroke-width="1.44" stroke-linecap="round" stroke-linejoin="round" stroke-miterlimit="10" d="
		M660.197,326.445c0-2.553-2.068-4.619-4.62-4.619s-4.62,2.066-4.62,4.619c0,2.552,2.068,4.62,4.62,4.62
		S660.197,328.997,660.197,326.445"/>
	
		<path fill="none" stroke="#000000" stroke-width="1.44" stroke-linecap="round" stroke-linejoin="round" stroke-miterlimit="10" d="
		M660.197,115.726c0-2.553-2.068-4.621-4.62-4.621s-4.62,2.068-4.62,4.621c0,2.551,2.068,4.619,4.62,4.619
		S660.197,118.277,660.197,115.726"/>
	
		<path fill="none" stroke="#000000" stroke-width="1.44" stroke-linecap="round" stroke-linejoin="round" stroke-miterlimit="10" d="
		M660.197,371.926c0-2.552-2.068-4.62-4.62-4.62s-4.62,2.068-4.62,4.62c0,2.551,2.068,4.62,4.62,4.62
		S660.197,374.477,660.197,371.926"/>
	
		<path fill="none" stroke="#000000" stroke-width="1.44" stroke-linecap="round" stroke-linejoin="round" stroke-miterlimit="10" d="
		M660.197,417.405c0-2.554-2.068-4.62-4.62-4.62s-4.62,2.066-4.62,4.62c0,2.552,2.068,4.62,4.62,4.62
		S660.197,419.957,660.197,417.405"/>
	
		<path fill="none" stroke="#000000" stroke-width="1.44" stroke-linecap="round" stroke-linejoin="round" stroke-miterlimit="10" d="
		M660.197,463.006c0-2.552-2.068-4.62-4.62-4.62s-4.62,2.068-4.62,4.62c0,2.551,2.068,4.619,4.62,4.619
		S660.197,465.557,660.197,463.006"/>
	
		<path fill="none" stroke="#000000" stroke-width="1.44" stroke-linecap="round" stroke-linejoin="round" stroke-miterlimit="10" d="
		M660.197,388.966c0-2.552-2.068-4.62-4.62-4.62s-4.62,2.068-4.62,4.62c0,2.551,2.068,4.62,4.62,4.62
		S660.197,391.517,660.197,388.966"/>
	
		<rect x="136.756" y="115.725" fill="none" stroke="#000000" stroke-width="1.44" stroke-linecap="round" stroke-linejoin="round" stroke-miterlimit="10" width="504.602" height="347.281"/>
	
		<rect x="100.391" y="453.452" fill="none" stroke="#000000" stroke-width="1.44" stroke-linecap="round" stroke-linejoin="round" stroke-miterlimit="10" width="17.646" height="18.425"/>
</g>
<g id="Layer_3">
</g>
<g id="LED32_Hole_Pattern">
	<circle fill="#FFFFFF" stroke="#000000" stroke-miterlimit="10" cx="201.345" cy="164.067" r="7.087"/>
	<circle fill="#FFFFFF" stroke="#000000" stroke-miterlimit="10" cx="201.345" cy="187.144" r="7.087"/>
	<circle fill="#FFFFFF" stroke="#000000" stroke-miterlimit="10" cx="229.693" cy="164.067" r="7.087"/>
	<circle fill="#FFFFFF" stroke="#000000" stroke-miterlimit="10" cx="229.693" cy="187.144" r="7.087"/>
	<circle fill="#FFFFFF" stroke="#000000" stroke-miterlimit="10" cx="258.039" cy="164.067" r="7.087"/>
	<circle fill="#FFFFFF" stroke="#000000" stroke-miterlimit="10" cx="258.039" cy="187.144" r="7.087"/>
	<circle fill="#FFFFFF" stroke="#000000" stroke-miterlimit="10" cx="286.386" cy="164.067" r="7.087"/>
	<circle fill="#FFFFFF" stroke="#000000" stroke-miterlimit="10" cx="286.386" cy="187.144" r="7.087"/>
	<circle fill="#FFFFFF" stroke="#000000" stroke-miterlimit="10" cx="314.733" cy="164.067" r="7.087"/>
	<circle fill="#FFFFFF" stroke="#000000" stroke-miterlimit="10" cx="314.733" cy="187.144" r="7.087"/>
	<circle fill="#FFFFFF" stroke="#000000" stroke-miterlimit="10" cx="342.972" cy="164.067" r="7.087"/>
	<circle fill="#FFFFFF" stroke="#000000" stroke-miterlimit="10" cx="342.972" cy="187.144" r="7.087"/>
	<circle fill="#FFFFFF" stroke="#000000" stroke-miterlimit="10" cx="371.319" cy="164.067" r="7.087"/>
	<circle fill="#FFFFFF" stroke="#000000" stroke-miterlimit="10" cx="371.319" cy="187.144" r="7.087"/>
	<circle fill="#FFFFFF" stroke="#000000" stroke-miterlimit="10" cx="399.665" cy="164.067" r="7.087"/>
	<circle fill="#FFFFFF" stroke="#000000" stroke-miterlimit="10" cx="399.665" cy="187.144" r="7.087"/>
	<circle fill="#FFFFFF" stroke="#000000" stroke-miterlimit="10" cx="428.012" cy="164.067" r="7.086"/>
	<circle fill="#FFFFFF" stroke="#000000" stroke-miterlimit="10" cx="428.012" cy="187.144" r="7.086"/>
	<circle fill="#FFFFFF" stroke="#000000" stroke-miterlimit="10" cx="456.347" cy="164.067" r="7.086"/>
	<circle fill="#FFFFFF" stroke="#000000" stroke-miterlimit="10" cx="456.347" cy="187.144" r="7.086"/>
	<circle fill="#FFFFFF" stroke="#000000" stroke-miterlimit="10" cx="484.694" cy="164.067" r="7.087"/>
	<circle fill="#FFFFFF" stroke="#000000" stroke-miterlimit="10" cx="484.694" cy="187.144" r="7.087"/>
	<circle fill="#FFFFFF" stroke="#000000" stroke-miterlimit="10" cx="513.041" cy="164.067" r="7.086"/>
	<circle fill="#FFFFFF" stroke="#000000" stroke-miterlimit="10" cx="513.041" cy="187.144" r="7.086"/>
	<circle fill="#FFFFFF" stroke="#000000" stroke-miterlimit="10" cx="541.388" cy="164.067" r="7.087"/>
	<circle fill="#FFFFFF" stroke="#000000" stroke-miterlimit="10" cx="541.388" cy="187.144" r="7.087"/>
	<circle fill="#FFFFFF" stroke="#000000" stroke-miterlimit="10" cx="569.626" cy="164.067" r="7.086"/>
	<circle fill="#FFFFFF" stroke="#000000" stroke-miterlimit="10" cx="569.626" cy="187.144" r="7.086"/>
	<circle fill="#FFFFFF" stroke="#000000" stroke-miterlimit="10" cx="597.974" cy="164.067" r="7.087"/>
	<circle fill="#FFFFFF" stroke="#000000" stroke-miterlimit="10" cx="597.974" cy="187.144" r="7.087"/>
	<circle fill="#FFFFFF" stroke="#000000" stroke-miterlimit="10" cx="626.32" cy="164.067" r="7.086"/>
	<circle fill="#FFFFFF" stroke="#000000" stroke-miterlimit="10" cx="626.32" cy="187.144" r="7.086"/>
	<g display="none">
		
			<rect x="122.656" y="161.189" display="inline" fill="#FFFFFF" stroke="#000000" stroke-miterlimit="10" width="78.69" height="2.878"/>
		
			<rect x="201.346" y="164.068" display="inline" fill="#FFFFFF" stroke="#000000" stroke-miterlimit="10" width="28.347" height="23.076"/>
		
			<rect x="229.693" y="164.068" display="inline" fill="#FFFFFF" stroke="#000000" stroke-miterlimit="10" width="28.347" height="23.076"/>
		
			<rect x="258.04" y="164.068" display="inline" fill="#FFFFFF" stroke="#000000" stroke-miterlimit="10" width="28.347" height="23.076"/>
		
			<rect x="286.386" y="164.068" display="inline" fill="#FFFFFF" stroke="#000000" stroke-miterlimit="10" width="28.347" height="23.076"/>
		
			<rect x="314.625" y="164.068" display="inline" fill="#FFFFFF" stroke="#000000" stroke-miterlimit="10" width="28.347" height="23.076"/>
		
			<rect x="342.972" y="164.068" display="inline" fill="#FFFFFF" stroke="#000000" stroke-miterlimit="10" width="28.347" height="23.076"/>
		
			<rect x="371.319" y="164.068" display="inline" fill="#FFFFFF" stroke="#000000" stroke-miterlimit="10" width="28.345" height="23.076"/>
		
			<rect x="399.664" y="164.068" display="inline" fill="#FFFFFF" stroke="#000000" stroke-miterlimit="10" width="28.348" height="23.076"/>
		
			<rect x="428" y="164.068" display="inline" fill="#FFFFFF" stroke="#000000" stroke-miterlimit="10" width="28.348" height="23.076"/>
		
			<rect x="456.348" y="164.068" display="inline" fill="#FFFFFF" stroke="#000000" stroke-miterlimit="10" width="28.346" height="23.076"/>
		
			<rect x="484.693" y="164.068" display="inline" fill="#FFFFFF" stroke="#000000" stroke-miterlimit="10" width="28.348" height="23.076"/>
		
			<rect x="513.041" y="164.068" display="inline" fill="#FFFFFF" stroke="#000000" stroke-miterlimit="10" width="28.346" height="23.076"/>
		
			<rect x="541.279" y="164.068" display="inline" fill="#FFFFFF" stroke="#000000" stroke-miterlimit="10" width="28.348" height="23.076"/>
		
			<rect x="569.627" y="164.068" display="inline" fill="#FFFFFF" stroke="#000000" stroke-miterlimit="10" width="28.346" height="23.076"/>
		
			<rect x="597.973" y="164.068" display="inline" fill="#FFFFFF" stroke="#000000" stroke-miterlimit="10" width="28.346" height="23.076"/>
	</g>
</g>
<g id="Knob16_hole_pattern">
	
		<circle fill="none" stroke="#000000" stroke-width="1.44" stroke-linecap="round" stroke-linejoin="round" stroke-miterlimit="10" cx="215.519" cy="403.228" r="9.213"/>
	
		<circle fill="none" stroke="#000000" stroke-width="1.44" stroke-linecap="round" stroke-linejoin="round" stroke-miterlimit="10" cx="272.212" cy="403.228" r="9.213"/>
	
		<circle fill="none" stroke="#000000" stroke-width="1.44" stroke-linecap="round" stroke-linejoin="round" stroke-miterlimit="10" cx="215.519" cy="448.759" r="9.213"/>
	
		<circle fill="none" stroke="#000000" stroke-width="1.44" stroke-linecap="round" stroke-linejoin="round" stroke-miterlimit="10" cx="272.212" cy="448.759" r="9.213"/>
	
		<circle fill="none" stroke="#000000" stroke-width="1.44" stroke-linecap="round" stroke-linejoin="round" stroke-miterlimit="10" cx="328.904" cy="403.228" r="9.213"/>
	
		<circle fill="none" stroke="#000000" stroke-width="1.44" stroke-linecap="round" stroke-linejoin="round" stroke-miterlimit="10" cx="328.904" cy="448.759" r="9.213"/>
	
		<circle fill="none" stroke="#000000" stroke-width="1.44" stroke-linecap="round" stroke-linejoin="round" stroke-miterlimit="10" cx="385.596" cy="403.228" r="9.213"/>
	
		<circle fill="none" stroke="#000000" stroke-width="1.44" stroke-linecap="round" stroke-linejoin="round" stroke-miterlimit="10" cx="385.596" cy="448.759" r="9.213"/>
	
		<circle fill="none" stroke="#000000" stroke-width="1.44" stroke-linecap="round" stroke-linejoin="round" stroke-miterlimit="10" cx="442.289" cy="403.228" r="9.213"/>
	
		<circle fill="none" stroke="#000000" stroke-width="1.44" stroke-linecap="round" stroke-linejoin="round" stroke-miterlimit="10" cx="442.289" cy="448.759" r="9.213"/>
	
		<circle fill="none" stroke="#000000" stroke-width="1.44" stroke-linecap="round" stroke-linejoin="round" stroke-miterlimit="10" cx="498.981" cy="403.228" r="9.213"/>
	
		<circle fill="none" stroke="#000000" stroke-width="1.44" stroke-linecap="round" stroke-linejoin="round" stroke-miterlimit="10" cx="498.981" cy="448.759" r="9.213"/>
	
		<circle fill="none" stroke="#000000" stroke-width="1.44" stroke-linecap="round" stroke-linejoin="round" stroke-miterlimit="10" cx="555.674" cy="403.228" r="9.212"/>
	
		<circle fill="none" stroke="#000000" stroke-width="1.44" stroke-linecap="round" stroke-linejoin="round" stroke-miterlimit="10" cx="555.674" cy="448.759" r="9.212"/>
	
		<circle fill="none" stroke="#000000" stroke-width="1.44" stroke-linecap="round" stroke-linejoin="round" stroke-miterlimit="10" cx="612.366" cy="403.228" r="9.213"/>
	
		<circle fill="none" stroke="#000000" stroke-width="1.44" stroke-linecap="round" stroke-linejoin="round" stroke-miterlimit="10" cx="612.366" cy="448.759" r="9.213"/>
	<g>
		
			<rect x="215.519" y="403.227" fill="none" stroke="#000000" stroke-width="1.44" stroke-linecap="round" stroke-linejoin="round" stroke-miterlimit="10" width="56.693" height="45.532"/>
		
			<rect x="272.211" y="403.227" fill="none" stroke="#000000" stroke-width="1.44" stroke-linecap="round" stroke-linejoin="round" stroke-miterlimit="10" width="56.693" height="45.532"/>
		
			<rect x="328.904" y="403.227" fill="none" stroke="#000000" stroke-width="1.44" stroke-linecap="round" stroke-linejoin="round" stroke-miterlimit="10" width="56.692" height="45.532"/>
		
			<rect x="385.596" y="403.227" fill="none" stroke="#000000" stroke-width="1.44" stroke-linecap="round" stroke-linejoin="round" stroke-miterlimit="10" width="56.693" height="45.532"/>
		
			<rect x="442.289" y="403.227" fill="none" stroke="#000000" stroke-width="1.44" stroke-linecap="round" stroke-linejoin="round" stroke-miterlimit="10" width="56.692" height="45.532"/>
		
			<rect x="498.981" y="403.227" fill="none" stroke="#000000" stroke-width="1.44" stroke-linecap="round" stroke-linejoin="round" stroke-miterlimit="10" width="56.693" height="45.532"/>
		
			<rect x="555.674" y="403.227" fill="none" stroke="#000000" stroke-width="1.44" stroke-linecap="round" stroke-linejoin="round" stroke-miterlimit="10" width="56.692" height="45.532"/>
		
			<rect x="122.656" y="388.966" fill="none" stroke="#000000" stroke-width="1.44" stroke-linecap="round" stroke-linejoin="round" stroke-miterlimit="10" width="92.863" height="14.261"/>
	</g>
</g>
</svg>
