G04 #@! TF.FileFunction,Legend,Top*
%FSLAX46Y46*%
G04 Gerber Fmt 4.6, Leading zero omitted, Abs format (unit mm)*
G04 Created by KiCad (PCBNEW 4.0.4-stable) date 08/15/17 17:17:09*
%MOMM*%
%LPD*%
G01*
G04 APERTURE LIST*
%ADD10C,0.100000*%
%ADD11C,0.150000*%
%ADD12C,0.187500*%
%ADD13C,0.120000*%
%ADD14C,0.125000*%
G04 APERTURE END LIST*
D10*
D11*
X62699048Y28757619D02*
X62699048Y29757619D01*
X63032382Y29043333D01*
X63365715Y29757619D01*
X63365715Y28757619D01*
X64413334Y28852857D02*
X64365715Y28805238D01*
X64222858Y28757619D01*
X64127620Y28757619D01*
X63984762Y28805238D01*
X63889524Y28900476D01*
X63841905Y28995714D01*
X63794286Y29186190D01*
X63794286Y29329048D01*
X63841905Y29519524D01*
X63889524Y29614762D01*
X63984762Y29710000D01*
X64127620Y29757619D01*
X64222858Y29757619D01*
X64365715Y29710000D01*
X64413334Y29662381D01*
X64841905Y28757619D02*
X64841905Y29757619D01*
X65222858Y29757619D01*
X65318096Y29710000D01*
X65365715Y29662381D01*
X65413334Y29567143D01*
X65413334Y29424286D01*
X65365715Y29329048D01*
X65318096Y29281429D01*
X65222858Y29233810D01*
X64841905Y29233810D01*
X65746667Y29757619D02*
X66365715Y29757619D01*
X66032381Y29376667D01*
X66175239Y29376667D01*
X66270477Y29329048D01*
X66318096Y29281429D01*
X66365715Y29186190D01*
X66365715Y28948095D01*
X66318096Y28852857D01*
X66270477Y28805238D01*
X66175239Y28757619D01*
X65889524Y28757619D01*
X65794286Y28805238D01*
X65746667Y28852857D01*
X66984762Y29757619D02*
X67080001Y29757619D01*
X67175239Y29710000D01*
X67222858Y29662381D01*
X67270477Y29567143D01*
X67318096Y29376667D01*
X67318096Y29138571D01*
X67270477Y28948095D01*
X67222858Y28852857D01*
X67175239Y28805238D01*
X67080001Y28757619D01*
X66984762Y28757619D01*
X66889524Y28805238D01*
X66841905Y28852857D01*
X66794286Y28948095D01*
X66746667Y29138571D01*
X66746667Y29376667D01*
X66794286Y29567143D01*
X66841905Y29662381D01*
X66889524Y29710000D01*
X66984762Y29757619D01*
X67937143Y29757619D02*
X68032382Y29757619D01*
X68127620Y29710000D01*
X68175239Y29662381D01*
X68222858Y29567143D01*
X68270477Y29376667D01*
X68270477Y29138571D01*
X68222858Y28948095D01*
X68175239Y28852857D01*
X68127620Y28805238D01*
X68032382Y28757619D01*
X67937143Y28757619D01*
X67841905Y28805238D01*
X67794286Y28852857D01*
X67746667Y28948095D01*
X67699048Y29138571D01*
X67699048Y29376667D01*
X67746667Y29567143D01*
X67794286Y29662381D01*
X67841905Y29710000D01*
X67937143Y29757619D01*
X68841905Y29329048D02*
X68746667Y29376667D01*
X68699048Y29424286D01*
X68651429Y29519524D01*
X68651429Y29567143D01*
X68699048Y29662381D01*
X68746667Y29710000D01*
X68841905Y29757619D01*
X69032382Y29757619D01*
X69127620Y29710000D01*
X69175239Y29662381D01*
X69222858Y29567143D01*
X69222858Y29519524D01*
X69175239Y29424286D01*
X69127620Y29376667D01*
X69032382Y29329048D01*
X68841905Y29329048D01*
X68746667Y29281429D01*
X68699048Y29233810D01*
X68651429Y29138571D01*
X68651429Y28948095D01*
X68699048Y28852857D01*
X68746667Y28805238D01*
X68841905Y28757619D01*
X69032382Y28757619D01*
X69127620Y28805238D01*
X69175239Y28852857D01*
X69222858Y28948095D01*
X69222858Y29138571D01*
X69175239Y29233810D01*
X69127620Y29281429D01*
X69032382Y29329048D01*
X69508572Y29757619D02*
X70080001Y29757619D01*
X69794286Y28757619D02*
X69794286Y29757619D01*
X70413334Y29138571D02*
X71175239Y29138571D01*
X71651429Y28757619D02*
X71651429Y29757619D01*
X72841905Y29805238D02*
X71984762Y28519524D01*
X73127619Y28805238D02*
X73270476Y28757619D01*
X73508572Y28757619D01*
X73603810Y28805238D01*
X73651429Y28852857D01*
X73699048Y28948095D01*
X73699048Y29043333D01*
X73651429Y29138571D01*
X73603810Y29186190D01*
X73508572Y29233810D01*
X73318095Y29281429D01*
X73222857Y29329048D01*
X73175238Y29376667D01*
X73127619Y29471905D01*
X73127619Y29567143D01*
X73175238Y29662381D01*
X73222857Y29710000D01*
X73318095Y29757619D01*
X73556191Y29757619D01*
X73699048Y29710000D01*
X74603810Y28757619D02*
X74127619Y28757619D01*
X74127619Y29757619D01*
D12*
X151582381Y4588476D02*
X151106190Y4255142D01*
X151582381Y4017047D02*
X150582381Y4017047D01*
X150582381Y4398000D01*
X150630000Y4493238D01*
X150677619Y4540857D01*
X150772857Y4588476D01*
X150915714Y4588476D01*
X151010952Y4540857D01*
X151058571Y4493238D01*
X151106190Y4398000D01*
X151106190Y4017047D01*
X151582381Y5017047D02*
X150582381Y5017047D01*
X151582381Y5588476D02*
X151010952Y5159904D01*
X150582381Y5588476D02*
X151153810Y5017047D01*
X150582381Y6302762D02*
X151296667Y6302762D01*
X151439524Y6255142D01*
X151534762Y6159904D01*
X151582381Y6017047D01*
X151582381Y5921809D01*
X150582381Y6683714D02*
X151582381Y7350381D01*
X150582381Y7350381D02*
X151582381Y6683714D01*
X150582381Y7588476D02*
X151582381Y7921809D01*
X150582381Y8255143D01*
X151582381Y9112286D02*
X151582381Y8540857D01*
X151582381Y8826571D02*
X150582381Y8826571D01*
X150725238Y8731333D01*
X150820476Y8636095D01*
X150868095Y8540857D01*
X150677619Y9493238D02*
X150630000Y9540857D01*
X150582381Y9636095D01*
X150582381Y9874191D01*
X150630000Y9969429D01*
X150677619Y10017048D01*
X150772857Y10064667D01*
X150868095Y10064667D01*
X151010952Y10017048D01*
X151582381Y9445619D01*
X151582381Y10064667D01*
X150677619Y10445619D02*
X150630000Y10493238D01*
X150582381Y10588476D01*
X150582381Y10826572D01*
X150630000Y10921810D01*
X150677619Y10969429D01*
X150772857Y11017048D01*
X150868095Y11017048D01*
X151010952Y10969429D01*
X151582381Y10398000D01*
X151582381Y11017048D01*
X150915714Y11874191D02*
X151582381Y11874191D01*
X150534762Y11636095D02*
X151249048Y11398000D01*
X151249048Y12017048D01*
X150582381Y12588476D02*
X150582381Y12683715D01*
X150630000Y12778953D01*
X150677619Y12826572D01*
X150772857Y12874191D01*
X150963333Y12921810D01*
X151201429Y12921810D01*
X151391905Y12874191D01*
X151487143Y12826572D01*
X151534762Y12778953D01*
X151582381Y12683715D01*
X151582381Y12588476D01*
X151534762Y12493238D01*
X151487143Y12445619D01*
X151391905Y12398000D01*
X151201429Y12350381D01*
X150963333Y12350381D01*
X150772857Y12398000D01*
X150677619Y12445619D01*
X150630000Y12493238D01*
X150582381Y12588476D01*
X150582381Y13540857D02*
X150582381Y13636096D01*
X150630000Y13731334D01*
X150677619Y13778953D01*
X150772857Y13826572D01*
X150963333Y13874191D01*
X151201429Y13874191D01*
X151391905Y13826572D01*
X151487143Y13778953D01*
X151534762Y13731334D01*
X151582381Y13636096D01*
X151582381Y13540857D01*
X151534762Y13445619D01*
X151487143Y13398000D01*
X151391905Y13350381D01*
X151201429Y13302762D01*
X150963333Y13302762D01*
X150772857Y13350381D01*
X150677619Y13398000D01*
X150630000Y13445619D01*
X150582381Y13540857D01*
X150582381Y14778953D02*
X150582381Y14302762D01*
X151058571Y14255143D01*
X151010952Y14302762D01*
X150963333Y14398000D01*
X150963333Y14636096D01*
X151010952Y14731334D01*
X151058571Y14778953D01*
X151153810Y14826572D01*
X151391905Y14826572D01*
X151487143Y14778953D01*
X151534762Y14731334D01*
X151582381Y14636096D01*
X151582381Y14398000D01*
X151534762Y14302762D01*
X151487143Y14255143D01*
X112212381Y4588476D02*
X111736190Y4255142D01*
X112212381Y4017047D02*
X111212381Y4017047D01*
X111212381Y4398000D01*
X111260000Y4493238D01*
X111307619Y4540857D01*
X111402857Y4588476D01*
X111545714Y4588476D01*
X111640952Y4540857D01*
X111688571Y4493238D01*
X111736190Y4398000D01*
X111736190Y4017047D01*
X112212381Y5017047D02*
X111212381Y5017047D01*
X112212381Y5588476D02*
X111640952Y5159904D01*
X111212381Y5588476D02*
X111783810Y5017047D01*
X111212381Y6302762D02*
X111926667Y6302762D01*
X112069524Y6255142D01*
X112164762Y6159904D01*
X112212381Y6017047D01*
X112212381Y5921809D01*
X111212381Y6683714D02*
X112212381Y7350381D01*
X111212381Y7350381D02*
X112212381Y6683714D01*
X111212381Y7588476D02*
X112212381Y7921809D01*
X111212381Y8255143D01*
X112212381Y9112286D02*
X112212381Y8540857D01*
X112212381Y8826571D02*
X111212381Y8826571D01*
X111355238Y8731333D01*
X111450476Y8636095D01*
X111498095Y8540857D01*
X111307619Y9493238D02*
X111260000Y9540857D01*
X111212381Y9636095D01*
X111212381Y9874191D01*
X111260000Y9969429D01*
X111307619Y10017048D01*
X111402857Y10064667D01*
X111498095Y10064667D01*
X111640952Y10017048D01*
X112212381Y9445619D01*
X112212381Y10064667D01*
X111307619Y10445619D02*
X111260000Y10493238D01*
X111212381Y10588476D01*
X111212381Y10826572D01*
X111260000Y10921810D01*
X111307619Y10969429D01*
X111402857Y11017048D01*
X111498095Y11017048D01*
X111640952Y10969429D01*
X112212381Y10398000D01*
X112212381Y11017048D01*
X111545714Y11874191D02*
X112212381Y11874191D01*
X111164762Y11636095D02*
X111879048Y11398000D01*
X111879048Y12017048D01*
X111212381Y12588476D02*
X111212381Y12683715D01*
X111260000Y12778953D01*
X111307619Y12826572D01*
X111402857Y12874191D01*
X111593333Y12921810D01*
X111831429Y12921810D01*
X112021905Y12874191D01*
X112117143Y12826572D01*
X112164762Y12778953D01*
X112212381Y12683715D01*
X112212381Y12588476D01*
X112164762Y12493238D01*
X112117143Y12445619D01*
X112021905Y12398000D01*
X111831429Y12350381D01*
X111593333Y12350381D01*
X111402857Y12398000D01*
X111307619Y12445619D01*
X111260000Y12493238D01*
X111212381Y12588476D01*
X111212381Y13540857D02*
X111212381Y13636096D01*
X111260000Y13731334D01*
X111307619Y13778953D01*
X111402857Y13826572D01*
X111593333Y13874191D01*
X111831429Y13874191D01*
X112021905Y13826572D01*
X112117143Y13778953D01*
X112164762Y13731334D01*
X112212381Y13636096D01*
X112212381Y13540857D01*
X112164762Y13445619D01*
X112117143Y13398000D01*
X112021905Y13350381D01*
X111831429Y13302762D01*
X111593333Y13302762D01*
X111402857Y13350381D01*
X111307619Y13398000D01*
X111260000Y13445619D01*
X111212381Y13540857D01*
X111212381Y14778953D02*
X111212381Y14302762D01*
X111688571Y14255143D01*
X111640952Y14302762D01*
X111593333Y14398000D01*
X111593333Y14636096D01*
X111640952Y14731334D01*
X111688571Y14778953D01*
X111783810Y14826572D01*
X112021905Y14826572D01*
X112117143Y14778953D01*
X112164762Y14731334D01*
X112212381Y14636096D01*
X112212381Y14398000D01*
X112164762Y14302762D01*
X112117143Y14255143D01*
X72842381Y4588476D02*
X72366190Y4255142D01*
X72842381Y4017047D02*
X71842381Y4017047D01*
X71842381Y4398000D01*
X71890000Y4493238D01*
X71937619Y4540857D01*
X72032857Y4588476D01*
X72175714Y4588476D01*
X72270952Y4540857D01*
X72318571Y4493238D01*
X72366190Y4398000D01*
X72366190Y4017047D01*
X72842381Y5017047D02*
X71842381Y5017047D01*
X72842381Y5588476D02*
X72270952Y5159904D01*
X71842381Y5588476D02*
X72413810Y5017047D01*
X71842381Y6302762D02*
X72556667Y6302762D01*
X72699524Y6255142D01*
X72794762Y6159904D01*
X72842381Y6017047D01*
X72842381Y5921809D01*
X71842381Y6683714D02*
X72842381Y7350381D01*
X71842381Y7350381D02*
X72842381Y6683714D01*
X71842381Y7588476D02*
X72842381Y7921809D01*
X71842381Y8255143D01*
X72842381Y9112286D02*
X72842381Y8540857D01*
X72842381Y8826571D02*
X71842381Y8826571D01*
X71985238Y8731333D01*
X72080476Y8636095D01*
X72128095Y8540857D01*
X71937619Y9493238D02*
X71890000Y9540857D01*
X71842381Y9636095D01*
X71842381Y9874191D01*
X71890000Y9969429D01*
X71937619Y10017048D01*
X72032857Y10064667D01*
X72128095Y10064667D01*
X72270952Y10017048D01*
X72842381Y9445619D01*
X72842381Y10064667D01*
X71937619Y10445619D02*
X71890000Y10493238D01*
X71842381Y10588476D01*
X71842381Y10826572D01*
X71890000Y10921810D01*
X71937619Y10969429D01*
X72032857Y11017048D01*
X72128095Y11017048D01*
X72270952Y10969429D01*
X72842381Y10398000D01*
X72842381Y11017048D01*
X72175714Y11874191D02*
X72842381Y11874191D01*
X71794762Y11636095D02*
X72509048Y11398000D01*
X72509048Y12017048D01*
X71842381Y12588476D02*
X71842381Y12683715D01*
X71890000Y12778953D01*
X71937619Y12826572D01*
X72032857Y12874191D01*
X72223333Y12921810D01*
X72461429Y12921810D01*
X72651905Y12874191D01*
X72747143Y12826572D01*
X72794762Y12778953D01*
X72842381Y12683715D01*
X72842381Y12588476D01*
X72794762Y12493238D01*
X72747143Y12445619D01*
X72651905Y12398000D01*
X72461429Y12350381D01*
X72223333Y12350381D01*
X72032857Y12398000D01*
X71937619Y12445619D01*
X71890000Y12493238D01*
X71842381Y12588476D01*
X71842381Y13540857D02*
X71842381Y13636096D01*
X71890000Y13731334D01*
X71937619Y13778953D01*
X72032857Y13826572D01*
X72223333Y13874191D01*
X72461429Y13874191D01*
X72651905Y13826572D01*
X72747143Y13778953D01*
X72794762Y13731334D01*
X72842381Y13636096D01*
X72842381Y13540857D01*
X72794762Y13445619D01*
X72747143Y13398000D01*
X72651905Y13350381D01*
X72461429Y13302762D01*
X72223333Y13302762D01*
X72032857Y13350381D01*
X71937619Y13398000D01*
X71890000Y13445619D01*
X71842381Y13540857D01*
X71842381Y14778953D02*
X71842381Y14302762D01*
X72318571Y14255143D01*
X72270952Y14302762D01*
X72223333Y14398000D01*
X72223333Y14636096D01*
X72270952Y14731334D01*
X72318571Y14778953D01*
X72413810Y14826572D01*
X72651905Y14826572D01*
X72747143Y14778953D01*
X72794762Y14731334D01*
X72842381Y14636096D01*
X72842381Y14398000D01*
X72794762Y14302762D01*
X72747143Y14255143D01*
X33726381Y4588476D02*
X33250190Y4255142D01*
X33726381Y4017047D02*
X32726381Y4017047D01*
X32726381Y4398000D01*
X32774000Y4493238D01*
X32821619Y4540857D01*
X32916857Y4588476D01*
X33059714Y4588476D01*
X33154952Y4540857D01*
X33202571Y4493238D01*
X33250190Y4398000D01*
X33250190Y4017047D01*
X33726381Y5017047D02*
X32726381Y5017047D01*
X33726381Y5588476D02*
X33154952Y5159904D01*
X32726381Y5588476D02*
X33297810Y5017047D01*
X32726381Y6302762D02*
X33440667Y6302762D01*
X33583524Y6255142D01*
X33678762Y6159904D01*
X33726381Y6017047D01*
X33726381Y5921809D01*
X32726381Y6683714D02*
X33726381Y7350381D01*
X32726381Y7350381D02*
X33726381Y6683714D01*
X32726381Y7588476D02*
X33726381Y7921809D01*
X32726381Y8255143D01*
X33726381Y9112286D02*
X33726381Y8540857D01*
X33726381Y8826571D02*
X32726381Y8826571D01*
X32869238Y8731333D01*
X32964476Y8636095D01*
X33012095Y8540857D01*
X32821619Y9493238D02*
X32774000Y9540857D01*
X32726381Y9636095D01*
X32726381Y9874191D01*
X32774000Y9969429D01*
X32821619Y10017048D01*
X32916857Y10064667D01*
X33012095Y10064667D01*
X33154952Y10017048D01*
X33726381Y9445619D01*
X33726381Y10064667D01*
X32821619Y10445619D02*
X32774000Y10493238D01*
X32726381Y10588476D01*
X32726381Y10826572D01*
X32774000Y10921810D01*
X32821619Y10969429D01*
X32916857Y11017048D01*
X33012095Y11017048D01*
X33154952Y10969429D01*
X33726381Y10398000D01*
X33726381Y11017048D01*
X33059714Y11874191D02*
X33726381Y11874191D01*
X32678762Y11636095D02*
X33393048Y11398000D01*
X33393048Y12017048D01*
X32726381Y12588476D02*
X32726381Y12683715D01*
X32774000Y12778953D01*
X32821619Y12826572D01*
X32916857Y12874191D01*
X33107333Y12921810D01*
X33345429Y12921810D01*
X33535905Y12874191D01*
X33631143Y12826572D01*
X33678762Y12778953D01*
X33726381Y12683715D01*
X33726381Y12588476D01*
X33678762Y12493238D01*
X33631143Y12445619D01*
X33535905Y12398000D01*
X33345429Y12350381D01*
X33107333Y12350381D01*
X32916857Y12398000D01*
X32821619Y12445619D01*
X32774000Y12493238D01*
X32726381Y12588476D01*
X32726381Y13540857D02*
X32726381Y13636096D01*
X32774000Y13731334D01*
X32821619Y13778953D01*
X32916857Y13826572D01*
X33107333Y13874191D01*
X33345429Y13874191D01*
X33535905Y13826572D01*
X33631143Y13778953D01*
X33678762Y13731334D01*
X33726381Y13636096D01*
X33726381Y13540857D01*
X33678762Y13445619D01*
X33631143Y13398000D01*
X33535905Y13350381D01*
X33345429Y13302762D01*
X33107333Y13302762D01*
X32916857Y13350381D01*
X32821619Y13398000D01*
X32774000Y13445619D01*
X32726381Y13540857D01*
X32726381Y14778953D02*
X32726381Y14302762D01*
X33202571Y14255143D01*
X33154952Y14302762D01*
X33107333Y14398000D01*
X33107333Y14636096D01*
X33154952Y14731334D01*
X33202571Y14778953D01*
X33297810Y14826572D01*
X33535905Y14826572D01*
X33631143Y14778953D01*
X33678762Y14731334D01*
X33726381Y14636096D01*
X33726381Y14398000D01*
X33678762Y14302762D01*
X33631143Y14255143D01*
D11*
X3151667Y8826476D02*
X3151667Y9302667D01*
X3437381Y8731238D02*
X2437381Y9064571D01*
X3437381Y9397905D01*
X3437381Y9874095D02*
X3389762Y9778857D01*
X3294524Y9731238D01*
X2437381Y9731238D01*
X3437381Y10397905D02*
X3389762Y10302667D01*
X3294524Y10255048D01*
X2437381Y10255048D01*
X3437381Y12112192D02*
X2961190Y11778858D01*
X3437381Y11540763D02*
X2437381Y11540763D01*
X2437381Y11921716D01*
X2485000Y12016954D01*
X2532619Y12064573D01*
X2627857Y12112192D01*
X2770714Y12112192D01*
X2865952Y12064573D01*
X2913571Y12016954D01*
X2961190Y11921716D01*
X2961190Y11540763D01*
X2913571Y12540763D02*
X2913571Y13302668D01*
X3199286Y13302668D02*
X3199286Y12540763D01*
X3437381Y14302668D02*
X3437381Y13731239D01*
X3437381Y14016953D02*
X2437381Y14016953D01*
X2580238Y13921715D01*
X2675476Y13826477D01*
X2723095Y13731239D01*
X2437381Y14921715D02*
X2437381Y15016954D01*
X2485000Y15112192D01*
X2532619Y15159811D01*
X2627857Y15207430D01*
X2818333Y15255049D01*
X3056429Y15255049D01*
X3246905Y15207430D01*
X3342143Y15159811D01*
X3389762Y15112192D01*
X3437381Y15016954D01*
X3437381Y14921715D01*
X3389762Y14826477D01*
X3342143Y14778858D01*
X3246905Y14731239D01*
X3056429Y14683620D01*
X2818333Y14683620D01*
X2627857Y14731239D01*
X2532619Y14778858D01*
X2485000Y14826477D01*
X2437381Y14921715D01*
X3437381Y15683620D02*
X2437381Y15683620D01*
X3437381Y16255049D02*
X2865952Y15826477D01*
X2437381Y16255049D02*
X3008810Y15683620D01*
X3437381Y16636001D02*
X3437381Y16874096D01*
X3246905Y16874096D01*
X3199286Y16778858D01*
X3104048Y16683620D01*
X2961190Y16636001D01*
X2723095Y16636001D01*
X2580238Y16683620D01*
X2485000Y16778858D01*
X2437381Y16921715D01*
X2437381Y17112192D01*
X2485000Y17255049D01*
X2580238Y17350287D01*
X2723095Y17397906D01*
X2961190Y17397906D01*
X3104048Y17350287D01*
X3199286Y17255049D01*
X3246905Y17159811D01*
X3437381Y17159811D01*
X3437381Y17397906D01*
X4801667Y8826476D02*
X4801667Y9302667D01*
X5087381Y8731238D02*
X4087381Y9064571D01*
X5087381Y9397905D01*
X5087381Y9874095D02*
X5039762Y9778857D01*
X4944524Y9731238D01*
X4087381Y9731238D01*
X5087381Y10397905D02*
X5039762Y10302667D01*
X4944524Y10255048D01*
X4087381Y10255048D01*
X4992143Y12112192D02*
X5039762Y12064573D01*
X5087381Y11921716D01*
X5087381Y11826478D01*
X5039762Y11683620D01*
X4944524Y11588382D01*
X4849286Y11540763D01*
X4658810Y11493144D01*
X4515952Y11493144D01*
X4325476Y11540763D01*
X4230238Y11588382D01*
X4135000Y11683620D01*
X4087381Y11826478D01*
X4087381Y11921716D01*
X4135000Y12064573D01*
X4182619Y12112192D01*
X4563571Y12540763D02*
X4563571Y13302668D01*
X4849286Y13302668D02*
X4849286Y12540763D01*
X4087381Y13969334D02*
X4087381Y14064573D01*
X4135000Y14159811D01*
X4182619Y14207430D01*
X4277857Y14255049D01*
X4468333Y14302668D01*
X4706429Y14302668D01*
X4896905Y14255049D01*
X4992143Y14207430D01*
X5039762Y14159811D01*
X5087381Y14064573D01*
X5087381Y13969334D01*
X5039762Y13874096D01*
X4992143Y13826477D01*
X4896905Y13778858D01*
X4706429Y13731239D01*
X4468333Y13731239D01*
X4277857Y13778858D01*
X4182619Y13826477D01*
X4135000Y13874096D01*
X4087381Y13969334D01*
X4992143Y14731239D02*
X5039762Y14778858D01*
X5087381Y14731239D01*
X5039762Y14683620D01*
X4992143Y14731239D01*
X5087381Y14731239D01*
X5087381Y15731239D02*
X5087381Y15159810D01*
X5087381Y15445524D02*
X4087381Y15445524D01*
X4230238Y15350286D01*
X4325476Y15255048D01*
X4373095Y15159810D01*
X4420714Y16588382D02*
X5087381Y16588382D01*
X4420714Y16159810D02*
X4944524Y16159810D01*
X5039762Y16207429D01*
X5087381Y16302667D01*
X5087381Y16445525D01*
X5039762Y16540763D01*
X4992143Y16588382D01*
X4563571Y17397906D02*
X4563571Y17064572D01*
X5087381Y17064572D02*
X4087381Y17064572D01*
X4087381Y17540763D01*
X114007048Y23423619D02*
X114007048Y24423619D01*
X114340382Y23709333D01*
X114673715Y24423619D01*
X114673715Y23423619D01*
X115721334Y23518857D02*
X115673715Y23471238D01*
X115530858Y23423619D01*
X115435620Y23423619D01*
X115292762Y23471238D01*
X115197524Y23566476D01*
X115149905Y23661714D01*
X115102286Y23852190D01*
X115102286Y23995048D01*
X115149905Y24185524D01*
X115197524Y24280762D01*
X115292762Y24376000D01*
X115435620Y24423619D01*
X115530858Y24423619D01*
X115673715Y24376000D01*
X115721334Y24328381D01*
X116149905Y23423619D02*
X116149905Y24423619D01*
X116530858Y24423619D01*
X116626096Y24376000D01*
X116673715Y24328381D01*
X116721334Y24233143D01*
X116721334Y24090286D01*
X116673715Y23995048D01*
X116626096Y23947429D01*
X116530858Y23899810D01*
X116149905Y23899810D01*
X117054667Y24423619D02*
X117673715Y24423619D01*
X117340381Y24042667D01*
X117483239Y24042667D01*
X117578477Y23995048D01*
X117626096Y23947429D01*
X117673715Y23852190D01*
X117673715Y23614095D01*
X117626096Y23518857D01*
X117578477Y23471238D01*
X117483239Y23423619D01*
X117197524Y23423619D01*
X117102286Y23471238D01*
X117054667Y23518857D01*
X118292762Y24423619D02*
X118388001Y24423619D01*
X118483239Y24376000D01*
X118530858Y24328381D01*
X118578477Y24233143D01*
X118626096Y24042667D01*
X118626096Y23804571D01*
X118578477Y23614095D01*
X118530858Y23518857D01*
X118483239Y23471238D01*
X118388001Y23423619D01*
X118292762Y23423619D01*
X118197524Y23471238D01*
X118149905Y23518857D01*
X118102286Y23614095D01*
X118054667Y23804571D01*
X118054667Y24042667D01*
X118102286Y24233143D01*
X118149905Y24328381D01*
X118197524Y24376000D01*
X118292762Y24423619D01*
X119245143Y24423619D02*
X119340382Y24423619D01*
X119435620Y24376000D01*
X119483239Y24328381D01*
X119530858Y24233143D01*
X119578477Y24042667D01*
X119578477Y23804571D01*
X119530858Y23614095D01*
X119483239Y23518857D01*
X119435620Y23471238D01*
X119340382Y23423619D01*
X119245143Y23423619D01*
X119149905Y23471238D01*
X119102286Y23518857D01*
X119054667Y23614095D01*
X119007048Y23804571D01*
X119007048Y24042667D01*
X119054667Y24233143D01*
X119102286Y24328381D01*
X119149905Y24376000D01*
X119245143Y24423619D01*
X120149905Y23995048D02*
X120054667Y24042667D01*
X120007048Y24090286D01*
X119959429Y24185524D01*
X119959429Y24233143D01*
X120007048Y24328381D01*
X120054667Y24376000D01*
X120149905Y24423619D01*
X120340382Y24423619D01*
X120435620Y24376000D01*
X120483239Y24328381D01*
X120530858Y24233143D01*
X120530858Y24185524D01*
X120483239Y24090286D01*
X120435620Y24042667D01*
X120340382Y23995048D01*
X120149905Y23995048D01*
X120054667Y23947429D01*
X120007048Y23899810D01*
X119959429Y23804571D01*
X119959429Y23614095D01*
X120007048Y23518857D01*
X120054667Y23471238D01*
X120149905Y23423619D01*
X120340382Y23423619D01*
X120435620Y23471238D01*
X120483239Y23518857D01*
X120530858Y23614095D01*
X120530858Y23804571D01*
X120483239Y23899810D01*
X120435620Y23947429D01*
X120340382Y23995048D01*
X120816572Y24423619D02*
X121388001Y24423619D01*
X121102286Y23423619D02*
X121102286Y24423619D01*
X121721334Y23804571D02*
X122483239Y23804571D01*
X122959429Y23423619D02*
X122959429Y24423619D01*
X124149905Y24471238D02*
X123292762Y23185524D01*
X124435619Y23471238D02*
X124578476Y23423619D01*
X124816572Y23423619D01*
X124911810Y23471238D01*
X124959429Y23518857D01*
X125007048Y23614095D01*
X125007048Y23709333D01*
X124959429Y23804571D01*
X124911810Y23852190D01*
X124816572Y23899810D01*
X124626095Y23947429D01*
X124530857Y23995048D01*
X124483238Y24042667D01*
X124435619Y24137905D01*
X124435619Y24233143D01*
X124483238Y24328381D01*
X124530857Y24376000D01*
X124626095Y24423619D01*
X124864191Y24423619D01*
X125007048Y24376000D01*
X125911810Y23423619D02*
X125435619Y23423619D01*
X125435619Y24423619D01*
X159270238Y6155954D02*
X158120238Y6155954D01*
X158558333Y6155954D02*
X158503571Y6265477D01*
X158503571Y6484525D01*
X158558333Y6594049D01*
X158613095Y6648811D01*
X158722619Y6703573D01*
X159051190Y6703573D01*
X159160714Y6648811D01*
X159215476Y6594049D01*
X159270238Y6484525D01*
X159270238Y6265477D01*
X159215476Y6155954D01*
X159215476Y7634525D02*
X159270238Y7525001D01*
X159270238Y7305953D01*
X159215476Y7196430D01*
X159105952Y7141668D01*
X158667857Y7141668D01*
X158558333Y7196430D01*
X158503571Y7305953D01*
X158503571Y7525001D01*
X158558333Y7634525D01*
X158667857Y7689287D01*
X158777381Y7689287D01*
X158886905Y7141668D01*
X159270238Y8346429D02*
X159215476Y8236905D01*
X159105952Y8182144D01*
X158120238Y8182144D01*
X159270238Y8784525D02*
X158503571Y8784525D01*
X158120238Y8784525D02*
X158175000Y8729763D01*
X158229762Y8784525D01*
X158175000Y8839286D01*
X158120238Y8784525D01*
X158229762Y8784525D01*
X159215476Y9770239D02*
X159270238Y9660715D01*
X159270238Y9441667D01*
X159215476Y9332144D01*
X159105952Y9277382D01*
X158667857Y9277382D01*
X158558333Y9332144D01*
X158503571Y9441667D01*
X158503571Y9660715D01*
X158558333Y9770239D01*
X158667857Y9825001D01*
X158777381Y9825001D01*
X158886905Y9277382D01*
X158503571Y10208334D02*
X159270238Y10482143D01*
X158503571Y10755953D01*
X159270238Y11358333D02*
X159215476Y11248809D01*
X159160714Y11194048D01*
X159051190Y11139286D01*
X158722619Y11139286D01*
X158613095Y11194048D01*
X158558333Y11248809D01*
X158503571Y11358333D01*
X158503571Y11522619D01*
X158558333Y11632143D01*
X158613095Y11686905D01*
X158722619Y11741667D01*
X159051190Y11741667D01*
X159160714Y11686905D01*
X159215476Y11632143D01*
X159270238Y11522619D01*
X159270238Y11358333D01*
X158503571Y12070238D02*
X158503571Y12508333D01*
X158120238Y12234524D02*
X159105952Y12234524D01*
X159215476Y12289285D01*
X159270238Y12398809D01*
X159270238Y12508333D01*
X159270238Y12891667D02*
X158503571Y12891667D01*
X158722619Y12891667D02*
X158613095Y12946428D01*
X158558333Y13001190D01*
X158503571Y13110714D01*
X158503571Y13220238D01*
X159270238Y13767857D02*
X159215476Y13658333D01*
X159160714Y13603572D01*
X159051190Y13548810D01*
X158722619Y13548810D01*
X158613095Y13603572D01*
X158558333Y13658333D01*
X158503571Y13767857D01*
X158503571Y13932143D01*
X158558333Y14041667D01*
X158613095Y14096429D01*
X158722619Y14151191D01*
X159051190Y14151191D01*
X159160714Y14096429D01*
X159215476Y14041667D01*
X159270238Y13932143D01*
X159270238Y13767857D01*
X158503571Y14644048D02*
X159270238Y14644048D01*
X158613095Y14644048D02*
X158558333Y14698809D01*
X158503571Y14808333D01*
X158503571Y14972619D01*
X158558333Y15082143D01*
X158667857Y15136905D01*
X159270238Y15136905D01*
X159160714Y15684524D02*
X159215476Y15739285D01*
X159270238Y15684524D01*
X159215476Y15629762D01*
X159160714Y15684524D01*
X159270238Y15684524D01*
X159215476Y16725000D02*
X159270238Y16615476D01*
X159270238Y16396428D01*
X159215476Y16286904D01*
X159160714Y16232143D01*
X159051190Y16177381D01*
X158722619Y16177381D01*
X158613095Y16232143D01*
X158558333Y16286904D01*
X158503571Y16396428D01*
X158503571Y16615476D01*
X158558333Y16725000D01*
X159270238Y17382142D02*
X159215476Y17272618D01*
X159160714Y17217857D01*
X159051190Y17163095D01*
X158722619Y17163095D01*
X158613095Y17217857D01*
X158558333Y17272618D01*
X158503571Y17382142D01*
X158503571Y17546428D01*
X158558333Y17655952D01*
X158613095Y17710714D01*
X158722619Y17765476D01*
X159051190Y17765476D01*
X159160714Y17710714D01*
X159215476Y17655952D01*
X159270238Y17546428D01*
X159270238Y17382142D01*
X159270238Y18258333D02*
X158503571Y18258333D01*
X158613095Y18258333D02*
X158558333Y18313094D01*
X158503571Y18422618D01*
X158503571Y18586904D01*
X158558333Y18696428D01*
X158667857Y18751190D01*
X159270238Y18751190D01*
X158667857Y18751190D02*
X158558333Y18805952D01*
X158503571Y18915475D01*
X158503571Y19079761D01*
X158558333Y19189285D01*
X158667857Y19244047D01*
X159270238Y19244047D01*
X4508476Y-12640905D02*
X4508476Y-11840905D01*
X4813238Y-11840905D01*
X4889429Y-11879000D01*
X4927524Y-11917095D01*
X4965619Y-11993286D01*
X4965619Y-12107571D01*
X4927524Y-12183762D01*
X4889429Y-12221857D01*
X4813238Y-12259952D01*
X4508476Y-12259952D01*
X5765619Y-12564714D02*
X5727524Y-12602810D01*
X5613238Y-12640905D01*
X5537048Y-12640905D01*
X5422762Y-12602810D01*
X5346571Y-12526619D01*
X5308476Y-12450429D01*
X5270381Y-12298048D01*
X5270381Y-12183762D01*
X5308476Y-12031381D01*
X5346571Y-11955190D01*
X5422762Y-11879000D01*
X5537048Y-11840905D01*
X5613238Y-11840905D01*
X5727524Y-11879000D01*
X5765619Y-11917095D01*
X6375143Y-12221857D02*
X6489429Y-12259952D01*
X6527524Y-12298048D01*
X6565619Y-12374238D01*
X6565619Y-12488524D01*
X6527524Y-12564714D01*
X6489429Y-12602810D01*
X6413238Y-12640905D01*
X6108476Y-12640905D01*
X6108476Y-11840905D01*
X6375143Y-11840905D01*
X6451333Y-11879000D01*
X6489429Y-11917095D01*
X6527524Y-11993286D01*
X6527524Y-12069476D01*
X6489429Y-12145667D01*
X6451333Y-12183762D01*
X6375143Y-12221857D01*
X6108476Y-12221857D01*
X7327524Y-12640905D02*
X6870381Y-12640905D01*
X7098952Y-12640905D02*
X7098952Y-11840905D01*
X7022762Y-11955190D01*
X6946571Y-12031381D01*
X6870381Y-12069476D01*
X7822762Y-11840905D02*
X7898953Y-11840905D01*
X7975143Y-11879000D01*
X8013238Y-11917095D01*
X8051334Y-11993286D01*
X8089429Y-12145667D01*
X8089429Y-12336143D01*
X8051334Y-12488524D01*
X8013238Y-12564714D01*
X7975143Y-12602810D01*
X7898953Y-12640905D01*
X7822762Y-12640905D01*
X7746572Y-12602810D01*
X7708476Y-12564714D01*
X7670381Y-12488524D01*
X7632286Y-12336143D01*
X7632286Y-12145667D01*
X7670381Y-11993286D01*
X7708476Y-11917095D01*
X7746572Y-11879000D01*
X7822762Y-11840905D01*
X8584667Y-11840905D02*
X8660858Y-11840905D01*
X8737048Y-11879000D01*
X8775143Y-11917095D01*
X8813239Y-11993286D01*
X8851334Y-12145667D01*
X8851334Y-12336143D01*
X8813239Y-12488524D01*
X8775143Y-12564714D01*
X8737048Y-12602810D01*
X8660858Y-12640905D01*
X8584667Y-12640905D01*
X8508477Y-12602810D01*
X8470381Y-12564714D01*
X8432286Y-12488524D01*
X8394191Y-12336143D01*
X8394191Y-12145667D01*
X8432286Y-11993286D01*
X8470381Y-11917095D01*
X8508477Y-11879000D01*
X8584667Y-11840905D01*
X9575144Y-11840905D02*
X9194191Y-11840905D01*
X9156096Y-12221857D01*
X9194191Y-12183762D01*
X9270382Y-12145667D01*
X9460858Y-12145667D01*
X9537048Y-12183762D01*
X9575144Y-12221857D01*
X9613239Y-12298048D01*
X9613239Y-12488524D01*
X9575144Y-12564714D01*
X9537048Y-12602810D01*
X9460858Y-12640905D01*
X9270382Y-12640905D01*
X9194191Y-12602810D01*
X9156096Y-12564714D01*
X9765620Y-12717095D02*
X10375144Y-12717095D01*
X10565620Y-12640905D02*
X10565620Y-11840905D01*
X11022763Y-12640905D02*
X10679906Y-12183762D01*
X11022763Y-11840905D02*
X10565620Y-12298048D01*
X11365620Y-12107571D02*
X11365620Y-12640905D01*
X11365620Y-12183762D02*
X11403715Y-12145667D01*
X11479906Y-12107571D01*
X11594192Y-12107571D01*
X11670382Y-12145667D01*
X11708477Y-12221857D01*
X11708477Y-12640905D01*
X12203716Y-12640905D02*
X12127525Y-12602810D01*
X12089430Y-12564714D01*
X12051335Y-12488524D01*
X12051335Y-12259952D01*
X12089430Y-12183762D01*
X12127525Y-12145667D01*
X12203716Y-12107571D01*
X12318002Y-12107571D01*
X12394192Y-12145667D01*
X12432287Y-12183762D01*
X12470383Y-12259952D01*
X12470383Y-12488524D01*
X12432287Y-12564714D01*
X12394192Y-12602810D01*
X12318002Y-12640905D01*
X12203716Y-12640905D01*
X12813240Y-12640905D02*
X12813240Y-11840905D01*
X12813240Y-12145667D02*
X12889431Y-12107571D01*
X13041812Y-12107571D01*
X13118002Y-12145667D01*
X13156097Y-12183762D01*
X13194193Y-12259952D01*
X13194193Y-12488524D01*
X13156097Y-12564714D01*
X13118002Y-12602810D01*
X13041812Y-12640905D01*
X12889431Y-12640905D01*
X12813240Y-12602810D01*
X13994193Y-12564714D02*
X13956098Y-12602810D01*
X13841812Y-12640905D01*
X13765622Y-12640905D01*
X13651336Y-12602810D01*
X13575145Y-12526619D01*
X13537050Y-12450429D01*
X13498955Y-12298048D01*
X13498955Y-12183762D01*
X13537050Y-12031381D01*
X13575145Y-11955190D01*
X13651336Y-11879000D01*
X13765622Y-11840905D01*
X13841812Y-11840905D01*
X13956098Y-11879000D01*
X13994193Y-11917095D01*
X14451336Y-12640905D02*
X14375145Y-12602810D01*
X14337050Y-12564714D01*
X14298955Y-12488524D01*
X14298955Y-12259952D01*
X14337050Y-12183762D01*
X14375145Y-12145667D01*
X14451336Y-12107571D01*
X14565622Y-12107571D01*
X14641812Y-12145667D01*
X14679907Y-12183762D01*
X14718003Y-12259952D01*
X14718003Y-12488524D01*
X14679907Y-12564714D01*
X14641812Y-12602810D01*
X14565622Y-12640905D01*
X14451336Y-12640905D01*
X15060860Y-12640905D02*
X15060860Y-12107571D01*
X15060860Y-12259952D02*
X15098955Y-12183762D01*
X15137051Y-12145667D01*
X15213241Y-12107571D01*
X15289432Y-12107571D01*
X15860860Y-12602810D02*
X15784670Y-12640905D01*
X15632289Y-12640905D01*
X15556098Y-12602810D01*
X15518003Y-12526619D01*
X15518003Y-12221857D01*
X15556098Y-12145667D01*
X15632289Y-12107571D01*
X15784670Y-12107571D01*
X15860860Y-12145667D01*
X15898955Y-12221857D01*
X15898955Y-12298048D01*
X15518003Y-12374238D01*
X16051336Y-12717095D02*
X16660860Y-12717095D01*
X16813241Y-11917095D02*
X16851336Y-11879000D01*
X16927527Y-11840905D01*
X17118003Y-11840905D01*
X17194193Y-11879000D01*
X17232289Y-11917095D01*
X17270384Y-11993286D01*
X17270384Y-12069476D01*
X17232289Y-12183762D01*
X16775146Y-12640905D01*
X17270384Y-12640905D01*
X17765622Y-11840905D02*
X17841813Y-11840905D01*
X17918003Y-11879000D01*
X17956098Y-11917095D01*
X17994194Y-11993286D01*
X18032289Y-12145667D01*
X18032289Y-12336143D01*
X17994194Y-12488524D01*
X17956098Y-12564714D01*
X17918003Y-12602810D01*
X17841813Y-12640905D01*
X17765622Y-12640905D01*
X17689432Y-12602810D01*
X17651336Y-12564714D01*
X17613241Y-12488524D01*
X17575146Y-12336143D01*
X17575146Y-12145667D01*
X17613241Y-11993286D01*
X17651336Y-11917095D01*
X17689432Y-11879000D01*
X17765622Y-11840905D01*
X18794194Y-12640905D02*
X18337051Y-12640905D01*
X18565622Y-12640905D02*
X18565622Y-11840905D01*
X18489432Y-11955190D01*
X18413241Y-12031381D01*
X18337051Y-12069476D01*
X19060861Y-11840905D02*
X19594194Y-11840905D01*
X19251337Y-12640905D01*
X19898956Y-12336143D02*
X20508480Y-12336143D01*
X21041813Y-11840905D02*
X21118004Y-11840905D01*
X21194194Y-11879000D01*
X21232289Y-11917095D01*
X21270385Y-11993286D01*
X21308480Y-12145667D01*
X21308480Y-12336143D01*
X21270385Y-12488524D01*
X21232289Y-12564714D01*
X21194194Y-12602810D01*
X21118004Y-12640905D01*
X21041813Y-12640905D01*
X20965623Y-12602810D01*
X20927527Y-12564714D01*
X20889432Y-12488524D01*
X20851337Y-12336143D01*
X20851337Y-12145667D01*
X20889432Y-11993286D01*
X20927527Y-11917095D01*
X20965623Y-11879000D01*
X21041813Y-11840905D01*
X21765623Y-12183762D02*
X21689432Y-12145667D01*
X21651337Y-12107571D01*
X21613242Y-12031381D01*
X21613242Y-11993286D01*
X21651337Y-11917095D01*
X21689432Y-11879000D01*
X21765623Y-11840905D01*
X21918004Y-11840905D01*
X21994194Y-11879000D01*
X22032290Y-11917095D01*
X22070385Y-11993286D01*
X22070385Y-12031381D01*
X22032290Y-12107571D01*
X21994194Y-12145667D01*
X21918004Y-12183762D01*
X21765623Y-12183762D01*
X21689432Y-12221857D01*
X21651337Y-12259952D01*
X21613242Y-12336143D01*
X21613242Y-12488524D01*
X21651337Y-12564714D01*
X21689432Y-12602810D01*
X21765623Y-12640905D01*
X21918004Y-12640905D01*
X21994194Y-12602810D01*
X22032290Y-12564714D01*
X22070385Y-12488524D01*
X22070385Y-12336143D01*
X22032290Y-12259952D01*
X21994194Y-12221857D01*
X21918004Y-12183762D01*
X22413242Y-12336143D02*
X23022766Y-12336143D01*
X23822766Y-12640905D02*
X23365623Y-12640905D01*
X23594194Y-12640905D02*
X23594194Y-11840905D01*
X23518004Y-11955190D01*
X23441813Y-12031381D01*
X23365623Y-12069476D01*
X24546576Y-11840905D02*
X24165623Y-11840905D01*
X24127528Y-12221857D01*
X24165623Y-12183762D01*
X24241814Y-12145667D01*
X24432290Y-12145667D01*
X24508480Y-12183762D01*
X24546576Y-12221857D01*
X24584671Y-12298048D01*
X24584671Y-12488524D01*
X24546576Y-12564714D01*
X24508480Y-12602810D01*
X24432290Y-12640905D01*
X24241814Y-12640905D01*
X24165623Y-12602810D01*
X24127528Y-12564714D01*
X4851333Y-13457571D02*
X4851333Y-14105190D01*
X4813238Y-14181381D01*
X4775143Y-14219476D01*
X4698952Y-14257571D01*
X4584667Y-14257571D01*
X4508476Y-14219476D01*
X4851333Y-13952810D02*
X4775143Y-13990905D01*
X4622762Y-13990905D01*
X4546571Y-13952810D01*
X4508476Y-13914714D01*
X4470381Y-13838524D01*
X4470381Y-13609952D01*
X4508476Y-13533762D01*
X4546571Y-13495667D01*
X4622762Y-13457571D01*
X4775143Y-13457571D01*
X4851333Y-13495667D01*
X5232286Y-13990905D02*
X5232286Y-13457571D01*
X5232286Y-13190905D02*
X5194191Y-13229000D01*
X5232286Y-13267095D01*
X5270381Y-13229000D01*
X5232286Y-13190905D01*
X5232286Y-13267095D01*
X5498952Y-13457571D02*
X5803714Y-13457571D01*
X5613238Y-13190905D02*
X5613238Y-13876619D01*
X5651333Y-13952810D01*
X5727524Y-13990905D01*
X5803714Y-13990905D01*
X6070381Y-13990905D02*
X6070381Y-13190905D01*
X6413238Y-13990905D02*
X6413238Y-13571857D01*
X6375143Y-13495667D01*
X6298953Y-13457571D01*
X6184667Y-13457571D01*
X6108476Y-13495667D01*
X6070381Y-13533762D01*
X7137048Y-13457571D02*
X7137048Y-13990905D01*
X6794191Y-13457571D02*
X6794191Y-13876619D01*
X6832286Y-13952810D01*
X6908477Y-13990905D01*
X7022763Y-13990905D01*
X7098953Y-13952810D01*
X7137048Y-13914714D01*
X7518001Y-13990905D02*
X7518001Y-13190905D01*
X7518001Y-13495667D02*
X7594192Y-13457571D01*
X7746573Y-13457571D01*
X7822763Y-13495667D01*
X7860858Y-13533762D01*
X7898954Y-13609952D01*
X7898954Y-13838524D01*
X7860858Y-13914714D01*
X7822763Y-13952810D01*
X7746573Y-13990905D01*
X7594192Y-13990905D01*
X7518001Y-13952810D01*
X8241811Y-13914714D02*
X8279906Y-13952810D01*
X8241811Y-13990905D01*
X8203716Y-13952810D01*
X8241811Y-13914714D01*
X8241811Y-13990905D01*
X8965620Y-13952810D02*
X8889430Y-13990905D01*
X8737049Y-13990905D01*
X8660858Y-13952810D01*
X8622763Y-13914714D01*
X8584668Y-13838524D01*
X8584668Y-13609952D01*
X8622763Y-13533762D01*
X8660858Y-13495667D01*
X8737049Y-13457571D01*
X8889430Y-13457571D01*
X8965620Y-13495667D01*
X9422763Y-13990905D02*
X9346572Y-13952810D01*
X9308477Y-13914714D01*
X9270382Y-13838524D01*
X9270382Y-13609952D01*
X9308477Y-13533762D01*
X9346572Y-13495667D01*
X9422763Y-13457571D01*
X9537049Y-13457571D01*
X9613239Y-13495667D01*
X9651334Y-13533762D01*
X9689430Y-13609952D01*
X9689430Y-13838524D01*
X9651334Y-13914714D01*
X9613239Y-13952810D01*
X9537049Y-13990905D01*
X9422763Y-13990905D01*
X10032287Y-13990905D02*
X10032287Y-13457571D01*
X10032287Y-13533762D02*
X10070382Y-13495667D01*
X10146573Y-13457571D01*
X10260859Y-13457571D01*
X10337049Y-13495667D01*
X10375144Y-13571857D01*
X10375144Y-13990905D01*
X10375144Y-13571857D02*
X10413240Y-13495667D01*
X10489430Y-13457571D01*
X10603716Y-13457571D01*
X10679906Y-13495667D01*
X10718001Y-13571857D01*
X10718001Y-13990905D01*
X11670383Y-13152810D02*
X10984668Y-14181381D01*
X12203716Y-13571857D02*
X12318002Y-13609952D01*
X12356097Y-13648048D01*
X12394192Y-13724238D01*
X12394192Y-13838524D01*
X12356097Y-13914714D01*
X12318002Y-13952810D01*
X12241811Y-13990905D01*
X11937049Y-13990905D01*
X11937049Y-13190905D01*
X12203716Y-13190905D01*
X12279906Y-13229000D01*
X12318002Y-13267095D01*
X12356097Y-13343286D01*
X12356097Y-13419476D01*
X12318002Y-13495667D01*
X12279906Y-13533762D01*
X12203716Y-13571857D01*
X11937049Y-13571857D01*
X13041811Y-13952810D02*
X12965621Y-13990905D01*
X12813240Y-13990905D01*
X12737049Y-13952810D01*
X12698954Y-13876619D01*
X12698954Y-13571857D01*
X12737049Y-13495667D01*
X12813240Y-13457571D01*
X12965621Y-13457571D01*
X13041811Y-13495667D01*
X13079906Y-13571857D01*
X13079906Y-13648048D01*
X12698954Y-13724238D01*
X13537049Y-13990905D02*
X13460858Y-13952810D01*
X13422763Y-13876619D01*
X13422763Y-13190905D01*
X13841811Y-13990905D02*
X13841811Y-13457571D01*
X13841811Y-13190905D02*
X13803716Y-13229000D01*
X13841811Y-13267095D01*
X13879906Y-13229000D01*
X13841811Y-13190905D01*
X13841811Y-13267095D01*
X14527525Y-13952810D02*
X14451335Y-13990905D01*
X14298954Y-13990905D01*
X14222763Y-13952810D01*
X14184668Y-13876619D01*
X14184668Y-13571857D01*
X14222763Y-13495667D01*
X14298954Y-13457571D01*
X14451335Y-13457571D01*
X14527525Y-13495667D01*
X14565620Y-13571857D01*
X14565620Y-13648048D01*
X14184668Y-13724238D01*
X14832287Y-13457571D02*
X15022763Y-13990905D01*
X15213239Y-13457571D01*
X15632287Y-13990905D02*
X15556096Y-13952810D01*
X15518001Y-13914714D01*
X15479906Y-13838524D01*
X15479906Y-13609952D01*
X15518001Y-13533762D01*
X15556096Y-13495667D01*
X15632287Y-13457571D01*
X15746573Y-13457571D01*
X15822763Y-13495667D01*
X15860858Y-13533762D01*
X15898954Y-13609952D01*
X15898954Y-13838524D01*
X15860858Y-13914714D01*
X15822763Y-13952810D01*
X15746573Y-13990905D01*
X15632287Y-13990905D01*
X16127525Y-13457571D02*
X16432287Y-13457571D01*
X16241811Y-13190905D02*
X16241811Y-13876619D01*
X16279906Y-13952810D01*
X16356097Y-13990905D01*
X16432287Y-13990905D01*
X16698954Y-13990905D02*
X16698954Y-13457571D01*
X16698954Y-13609952D02*
X16737049Y-13533762D01*
X16775145Y-13495667D01*
X16851335Y-13457571D01*
X16927526Y-13457571D01*
X17308478Y-13990905D02*
X17232287Y-13952810D01*
X17194192Y-13914714D01*
X17156097Y-13838524D01*
X17156097Y-13609952D01*
X17194192Y-13533762D01*
X17232287Y-13495667D01*
X17308478Y-13457571D01*
X17422764Y-13457571D01*
X17498954Y-13495667D01*
X17537049Y-13533762D01*
X17575145Y-13609952D01*
X17575145Y-13838524D01*
X17537049Y-13914714D01*
X17498954Y-13952810D01*
X17422764Y-13990905D01*
X17308478Y-13990905D01*
X17918002Y-13457571D02*
X17918002Y-13990905D01*
X17918002Y-13533762D02*
X17956097Y-13495667D01*
X18032288Y-13457571D01*
X18146574Y-13457571D01*
X18222764Y-13495667D01*
X18260859Y-13571857D01*
X18260859Y-13990905D01*
X19213241Y-13152810D02*
X18527526Y-14181381D01*
X19746574Y-13571857D02*
X19860860Y-13609952D01*
X19898955Y-13648048D01*
X19937050Y-13724238D01*
X19937050Y-13838524D01*
X19898955Y-13914714D01*
X19860860Y-13952810D01*
X19784669Y-13990905D01*
X19479907Y-13990905D01*
X19479907Y-13190905D01*
X19746574Y-13190905D01*
X19822764Y-13229000D01*
X19860860Y-13267095D01*
X19898955Y-13343286D01*
X19898955Y-13419476D01*
X19860860Y-13495667D01*
X19822764Y-13533762D01*
X19746574Y-13571857D01*
X19479907Y-13571857D01*
X20584669Y-13952810D02*
X20508479Y-13990905D01*
X20356098Y-13990905D01*
X20279907Y-13952810D01*
X20241812Y-13876619D01*
X20241812Y-13571857D01*
X20279907Y-13495667D01*
X20356098Y-13457571D01*
X20508479Y-13457571D01*
X20584669Y-13495667D01*
X20622764Y-13571857D01*
X20622764Y-13648048D01*
X20241812Y-13724238D01*
X21079907Y-13990905D02*
X21003716Y-13952810D01*
X20965621Y-13876619D01*
X20965621Y-13190905D01*
X21384669Y-13990905D02*
X21384669Y-13457571D01*
X21384669Y-13190905D02*
X21346574Y-13229000D01*
X21384669Y-13267095D01*
X21422764Y-13229000D01*
X21384669Y-13190905D01*
X21384669Y-13267095D01*
X22070383Y-13952810D02*
X21994193Y-13990905D01*
X21841812Y-13990905D01*
X21765621Y-13952810D01*
X21727526Y-13876619D01*
X21727526Y-13571857D01*
X21765621Y-13495667D01*
X21841812Y-13457571D01*
X21994193Y-13457571D01*
X22070383Y-13495667D01*
X22108478Y-13571857D01*
X22108478Y-13648048D01*
X21727526Y-13724238D01*
X22375145Y-13457571D02*
X22565621Y-13990905D01*
X22756097Y-13457571D01*
X23175145Y-13990905D02*
X23098954Y-13952810D01*
X23060859Y-13914714D01*
X23022764Y-13838524D01*
X23022764Y-13609952D01*
X23060859Y-13533762D01*
X23098954Y-13495667D01*
X23175145Y-13457571D01*
X23289431Y-13457571D01*
X23365621Y-13495667D01*
X23403716Y-13533762D01*
X23441812Y-13609952D01*
X23441812Y-13838524D01*
X23403716Y-13914714D01*
X23365621Y-13952810D01*
X23289431Y-13990905D01*
X23175145Y-13990905D01*
X23670383Y-13457571D02*
X23975145Y-13457571D01*
X23784669Y-13190905D02*
X23784669Y-13876619D01*
X23822764Y-13952810D01*
X23898955Y-13990905D01*
X23975145Y-13990905D01*
X24241812Y-13990905D02*
X24241812Y-13457571D01*
X24241812Y-13609952D02*
X24279907Y-13533762D01*
X24318003Y-13495667D01*
X24394193Y-13457571D01*
X24470384Y-13457571D01*
X24851336Y-13990905D02*
X24775145Y-13952810D01*
X24737050Y-13914714D01*
X24698955Y-13838524D01*
X24698955Y-13609952D01*
X24737050Y-13533762D01*
X24775145Y-13495667D01*
X24851336Y-13457571D01*
X24965622Y-13457571D01*
X25041812Y-13495667D01*
X25079907Y-13533762D01*
X25118003Y-13609952D01*
X25118003Y-13838524D01*
X25079907Y-13914714D01*
X25041812Y-13952810D01*
X24965622Y-13990905D01*
X24851336Y-13990905D01*
X25460860Y-13457571D02*
X25460860Y-13990905D01*
X25460860Y-13533762D02*
X25498955Y-13495667D01*
X25575146Y-13457571D01*
X25689432Y-13457571D01*
X25765622Y-13495667D01*
X25803717Y-13571857D01*
X25803717Y-13990905D01*
X26108480Y-13190905D02*
X26298956Y-13990905D01*
X26451337Y-13419476D01*
X26603718Y-13990905D01*
X26794194Y-13190905D01*
X27441813Y-13990905D02*
X27441813Y-13571857D01*
X27403718Y-13495667D01*
X27327528Y-13457571D01*
X27175147Y-13457571D01*
X27098956Y-13495667D01*
X27441813Y-13952810D02*
X27365623Y-13990905D01*
X27175147Y-13990905D01*
X27098956Y-13952810D01*
X27060861Y-13876619D01*
X27060861Y-13800429D01*
X27098956Y-13724238D01*
X27175147Y-13686143D01*
X27365623Y-13686143D01*
X27441813Y-13648048D01*
X27822766Y-13457571D02*
X27822766Y-13990905D01*
X27822766Y-13533762D02*
X27860861Y-13495667D01*
X27937052Y-13457571D01*
X28051338Y-13457571D01*
X28127528Y-13495667D01*
X28165623Y-13571857D01*
X28165623Y-13990905D01*
X28889433Y-13990905D02*
X28889433Y-13190905D01*
X28889433Y-13952810D02*
X28813243Y-13990905D01*
X28660862Y-13990905D01*
X28584671Y-13952810D01*
X28546576Y-13914714D01*
X28508481Y-13838524D01*
X28508481Y-13609952D01*
X28546576Y-13533762D01*
X28584671Y-13495667D01*
X28660862Y-13457571D01*
X28813243Y-13457571D01*
X28889433Y-13495667D01*
X29575148Y-13952810D02*
X29498958Y-13990905D01*
X29346577Y-13990905D01*
X29270386Y-13952810D01*
X29232291Y-13876619D01*
X29232291Y-13571857D01*
X29270386Y-13495667D01*
X29346577Y-13457571D01*
X29498958Y-13457571D01*
X29575148Y-13495667D01*
X29613243Y-13571857D01*
X29613243Y-13648048D01*
X29232291Y-13724238D01*
X29956100Y-13990905D02*
X29956100Y-13457571D01*
X29956100Y-13609952D02*
X29994195Y-13533762D01*
X30032291Y-13495667D01*
X30108481Y-13457571D01*
X30184672Y-13457571D01*
X30565624Y-13990905D02*
X30489433Y-13952810D01*
X30451338Y-13876619D01*
X30451338Y-13190905D01*
X31213243Y-13457571D02*
X31213243Y-13990905D01*
X30870386Y-13457571D02*
X30870386Y-13876619D01*
X30908481Y-13952810D01*
X30984672Y-13990905D01*
X31098958Y-13990905D01*
X31175148Y-13952810D01*
X31213243Y-13914714D01*
X31556101Y-13952810D02*
X31632291Y-13990905D01*
X31784672Y-13990905D01*
X31860863Y-13952810D01*
X31898958Y-13876619D01*
X31898958Y-13838524D01*
X31860863Y-13762333D01*
X31784672Y-13724238D01*
X31670387Y-13724238D01*
X31594196Y-13686143D01*
X31556101Y-13609952D01*
X31556101Y-13571857D01*
X31594196Y-13495667D01*
X31670387Y-13457571D01*
X31784672Y-13457571D01*
X31860863Y-13495667D01*
X32127529Y-13457571D02*
X32432291Y-13457571D01*
X32241815Y-13190905D02*
X32241815Y-13876619D01*
X32279910Y-13952810D01*
X32356101Y-13990905D01*
X32432291Y-13990905D01*
X32698958Y-13990905D02*
X32698958Y-13190905D01*
X32698958Y-13571857D02*
X33156101Y-13571857D01*
X33156101Y-13990905D02*
X33156101Y-13190905D01*
X33879910Y-13990905D02*
X33879910Y-13571857D01*
X33841815Y-13495667D01*
X33765625Y-13457571D01*
X33613244Y-13457571D01*
X33537053Y-13495667D01*
X33879910Y-13952810D02*
X33803720Y-13990905D01*
X33613244Y-13990905D01*
X33537053Y-13952810D01*
X33498958Y-13876619D01*
X33498958Y-13800429D01*
X33537053Y-13724238D01*
X33613244Y-13686143D01*
X33803720Y-13686143D01*
X33879910Y-13648048D01*
X34260863Y-13990905D02*
X34260863Y-13457571D01*
X34260863Y-13609952D02*
X34298958Y-13533762D01*
X34337054Y-13495667D01*
X34413244Y-13457571D01*
X34489435Y-13457571D01*
X35098958Y-13990905D02*
X35098958Y-13190905D01*
X35098958Y-13952810D02*
X35022768Y-13990905D01*
X34870387Y-13990905D01*
X34794196Y-13952810D01*
X34756101Y-13914714D01*
X34718006Y-13838524D01*
X34718006Y-13609952D01*
X34756101Y-13533762D01*
X34794196Y-13495667D01*
X34870387Y-13457571D01*
X35022768Y-13457571D01*
X35098958Y-13495667D01*
X35403721Y-13457571D02*
X35556102Y-13990905D01*
X35708483Y-13609952D01*
X35860864Y-13990905D01*
X36013245Y-13457571D01*
X36660863Y-13990905D02*
X36660863Y-13571857D01*
X36622768Y-13495667D01*
X36546578Y-13457571D01*
X36394197Y-13457571D01*
X36318006Y-13495667D01*
X36660863Y-13952810D02*
X36584673Y-13990905D01*
X36394197Y-13990905D01*
X36318006Y-13952810D01*
X36279911Y-13876619D01*
X36279911Y-13800429D01*
X36318006Y-13724238D01*
X36394197Y-13686143D01*
X36584673Y-13686143D01*
X36660863Y-13648048D01*
X37041816Y-13990905D02*
X37041816Y-13457571D01*
X37041816Y-13609952D02*
X37079911Y-13533762D01*
X37118007Y-13495667D01*
X37194197Y-13457571D01*
X37270388Y-13457571D01*
X37841816Y-13952810D02*
X37765626Y-13990905D01*
X37613245Y-13990905D01*
X37537054Y-13952810D01*
X37498959Y-13876619D01*
X37498959Y-13571857D01*
X37537054Y-13495667D01*
X37613245Y-13457571D01*
X37765626Y-13457571D01*
X37841816Y-13495667D01*
X37879911Y-13571857D01*
X37879911Y-13648048D01*
X37498959Y-13724238D01*
D13*
X82286000Y45220000D02*
G75*
G03X82286000Y45220000I-2286000J0D01*
G01*
X5786000Y32220000D02*
G75*
G03X5786000Y32220000I-2286000J0D01*
G01*
X158786000Y32220000D02*
G75*
G03X158786000Y32220000I-2286000J0D01*
G01*
X158786000Y3000000D02*
G75*
G03X158786000Y3000000I-2286000J0D01*
G01*
X46286000Y3000000D02*
G75*
G03X46286000Y3000000I-2286000J0D01*
G01*
X5786000Y3000000D02*
G75*
G03X5786000Y3000000I-2286000J0D01*
G01*
X124552000Y12542000D02*
X124552000Y11842000D01*
X123352000Y11842000D02*
X123352000Y12542000D01*
D11*
X124184210Y22352000D02*
G75*
G03X124184210Y22352000I-359210J0D01*
G01*
X114300000Y21590000D02*
X114300000Y13970000D01*
X123190000Y21590000D02*
X114300000Y21590000D01*
X124460000Y20320000D02*
X123190000Y21590000D01*
X124460000Y13970000D02*
X124460000Y20320000D01*
X114300000Y13970000D02*
X124460000Y13970000D01*
D13*
X5786000Y22220000D02*
G75*
G03X5786000Y22220000I-2286000J0D01*
G01*
X158786000Y22220000D02*
G75*
G03X158786000Y22220000I-2286000J0D01*
G01*
X158786000Y52220000D02*
G75*
G03X158786000Y52220000I-2286000J0D01*
G01*
X56286000Y52220000D02*
G75*
G03X56286000Y52220000I-2286000J0D01*
G01*
X46286000Y22220000D02*
G75*
G03X46286000Y22220000I-2286000J0D01*
G01*
D11*
X108742500Y12700000D02*
G75*
G03X108742500Y12700000I-10000000J0D01*
G01*
X110742500Y3700000D02*
X110742500Y6700000D01*
X87742500Y3700000D02*
X110742500Y3700000D01*
X87742500Y23700000D02*
X87742500Y3700000D01*
X110742500Y23700000D02*
X87742500Y23700000D01*
X110742500Y6700000D02*
X110742500Y23700000D01*
X148112500Y12700000D02*
G75*
G03X148112500Y12700000I-10000000J0D01*
G01*
X150112500Y3700000D02*
X150112500Y6700000D01*
X127112500Y3700000D02*
X150112500Y3700000D01*
X127112500Y23700000D02*
X127112500Y3700000D01*
X150112500Y23700000D02*
X127112500Y23700000D01*
X150112500Y6700000D02*
X150112500Y23700000D01*
X30002500Y12700000D02*
G75*
G03X30002500Y12700000I-10000000J0D01*
G01*
X32002500Y3700000D02*
X32002500Y6700000D01*
X9002500Y3700000D02*
X32002500Y3700000D01*
X9002500Y23700000D02*
X9002500Y3700000D01*
X32002500Y23700000D02*
X9002500Y23700000D01*
X32002500Y6700000D02*
X32002500Y23700000D01*
X69372500Y12700000D02*
G75*
G03X69372500Y12700000I-10000000J0D01*
G01*
X71372500Y3700000D02*
X71372500Y6700000D01*
X48372500Y3700000D02*
X71372500Y3700000D01*
X48372500Y23700000D02*
X48372500Y3700000D01*
X71372500Y23700000D02*
X48372500Y23700000D01*
X71372500Y6700000D02*
X71372500Y23700000D01*
X117100000Y-14826000D02*
X117100000Y-1826000D01*
X115100000Y-14826000D02*
X117100000Y-14826000D01*
X89100000Y-14826000D02*
X91100000Y-14826000D01*
X89100000Y-1826000D02*
X89100000Y-14826000D01*
X92600000Y-2826000D02*
G75*
G03X92600000Y-2826000I-500000J0D01*
G01*
X93100000Y-4826000D02*
X91100000Y-4826000D01*
X115100000Y-4826000D02*
X113100000Y-4826000D01*
X115100000Y-14826000D02*
X115100000Y-4826000D01*
X91100000Y-14826000D02*
X115100000Y-14826000D01*
X91100000Y-4826000D02*
X91100000Y-14826000D01*
D13*
X85690000Y28405000D02*
X85690000Y27705000D01*
X84490000Y27705000D02*
X84490000Y28405000D01*
X61884000Y56546000D02*
X61884000Y57246000D01*
X63084000Y57246000D02*
X63084000Y56546000D01*
X59264000Y53348000D02*
X59264000Y54348000D01*
X60624000Y54348000D02*
X60624000Y53348000D01*
X5215000Y56560000D02*
X6215000Y56560000D01*
X6215000Y55200000D02*
X5215000Y55200000D01*
X44585000Y56560000D02*
X45585000Y56560000D01*
X45585000Y55200000D02*
X44585000Y55200000D01*
X83955000Y56560000D02*
X84955000Y56560000D01*
X84955000Y55200000D02*
X83955000Y55200000D01*
X123325000Y56560000D02*
X124325000Y56560000D01*
X124325000Y55200000D02*
X123325000Y55200000D01*
X60624000Y57396000D02*
X60624000Y56396000D01*
X59264000Y56396000D02*
X59264000Y57396000D01*
X5215000Y59100000D02*
X6215000Y59100000D01*
X6215000Y57740000D02*
X5215000Y57740000D01*
X44585000Y59100000D02*
X45585000Y59100000D01*
X45585000Y57740000D02*
X44585000Y57740000D01*
X83955000Y59100000D02*
X84955000Y59100000D01*
X84955000Y57740000D02*
X83955000Y57740000D01*
X123325000Y59100000D02*
X124325000Y59100000D01*
X124325000Y57740000D02*
X123325000Y57740000D01*
X61804000Y53348000D02*
X61804000Y54348000D01*
X63164000Y54348000D02*
X63164000Y53348000D01*
D11*
X83544210Y35052000D02*
G75*
G03X83544210Y35052000I-359210J0D01*
G01*
X73660000Y34290000D02*
X73660000Y26670000D01*
X82550000Y34290000D02*
X73660000Y34290000D01*
X83820000Y33020000D02*
X82550000Y34290000D01*
X83820000Y26670000D02*
X83820000Y33020000D01*
X73660000Y26670000D02*
X83820000Y26670000D01*
X65900000Y51660000D02*
X66900000Y50660000D01*
X65900000Y58560000D02*
X65900000Y51660000D01*
X66900000Y50660000D02*
X76340000Y50660000D01*
X76340000Y50660000D02*
X76340000Y58560000D01*
X76340000Y58560000D02*
X65900000Y58560000D01*
X34270000Y58420000D02*
X34270000Y50420000D01*
X8540000Y50420000D02*
X8540000Y54420000D01*
X39270000Y49530000D02*
X39270000Y59690000D01*
X1270000Y59690000D02*
X39270000Y59690000D01*
X1270000Y49530000D02*
X39270000Y49530000D01*
X1270000Y52070000D02*
X3810000Y52070000D01*
X1270000Y59690000D02*
X1270000Y52070000D01*
X3810000Y59690000D02*
X1270000Y59690000D01*
X3810000Y49530000D02*
X3810000Y59690000D01*
X1270000Y49530000D02*
X3810000Y49530000D01*
X1270000Y59690000D02*
X1270000Y49530000D01*
X73640000Y58420000D02*
X73640000Y50420000D01*
X47910000Y50420000D02*
X47910000Y54420000D01*
X78640000Y49530000D02*
X78640000Y59690000D01*
X40640000Y59690000D02*
X78640000Y59690000D01*
X40640000Y49530000D02*
X78640000Y49530000D01*
X40640000Y52070000D02*
X43180000Y52070000D01*
X40640000Y59690000D02*
X40640000Y52070000D01*
X43180000Y59690000D02*
X40640000Y59690000D01*
X43180000Y49530000D02*
X43180000Y59690000D01*
X40640000Y49530000D02*
X43180000Y49530000D01*
X40640000Y59690000D02*
X40640000Y49530000D01*
X113010000Y58420000D02*
X113010000Y50420000D01*
X87280000Y50420000D02*
X87280000Y54420000D01*
X118010000Y49530000D02*
X118010000Y59690000D01*
X80010000Y59690000D02*
X118010000Y59690000D01*
X80010000Y49530000D02*
X118010000Y49530000D01*
X80010000Y52070000D02*
X82550000Y52070000D01*
X80010000Y59690000D02*
X80010000Y52070000D01*
X82550000Y59690000D02*
X80010000Y59690000D01*
X82550000Y49530000D02*
X82550000Y59690000D01*
X80010000Y49530000D02*
X82550000Y49530000D01*
X80010000Y59690000D02*
X80010000Y49530000D01*
X152380000Y58420000D02*
X152380000Y50420000D01*
X126650000Y50420000D02*
X126650000Y54420000D01*
X157380000Y49530000D02*
X157380000Y59690000D01*
X119380000Y59690000D02*
X157380000Y59690000D01*
X119380000Y49530000D02*
X157380000Y49530000D01*
X119380000Y52070000D02*
X121920000Y52070000D01*
X119380000Y59690000D02*
X119380000Y52070000D01*
X121920000Y59690000D02*
X119380000Y59690000D01*
X121920000Y49530000D02*
X121920000Y59690000D01*
X119380000Y49530000D02*
X121920000Y49530000D01*
X119380000Y59690000D02*
X119380000Y49530000D01*
X152455000Y42700000D02*
G75*
G03X152455000Y42700000I-4500000J0D01*
G01*
X142955000Y35194800D02*
X142955000Y37194800D01*
X152955000Y35194800D02*
X152955000Y37194800D01*
X142955000Y36694800D02*
X142955000Y49194800D01*
X152955000Y35194800D02*
X142955000Y35194800D01*
X152955000Y49194800D02*
X152955000Y36694800D01*
X142955000Y49194800D02*
X152955000Y49194800D01*
X132770000Y42700000D02*
G75*
G03X132770000Y42700000I-4500000J0D01*
G01*
X123270000Y35194800D02*
X123270000Y37194800D01*
X133270000Y35194800D02*
X133270000Y37194800D01*
X123270000Y36694800D02*
X123270000Y49194800D01*
X133270000Y35194800D02*
X123270000Y35194800D01*
X133270000Y49194800D02*
X133270000Y36694800D01*
X123270000Y49194800D02*
X133270000Y49194800D01*
X113085000Y42700000D02*
G75*
G03X113085000Y42700000I-4500000J0D01*
G01*
X103585000Y35194800D02*
X103585000Y37194800D01*
X113585000Y35194800D02*
X113585000Y37194800D01*
X103585000Y36694800D02*
X103585000Y49194800D01*
X113585000Y35194800D02*
X103585000Y35194800D01*
X113585000Y49194800D02*
X113585000Y36694800D01*
X103585000Y49194800D02*
X113585000Y49194800D01*
X93400000Y42700000D02*
G75*
G03X93400000Y42700000I-4500000J0D01*
G01*
X83900000Y35194800D02*
X83900000Y37194800D01*
X93900000Y35194800D02*
X93900000Y37194800D01*
X83900000Y36694800D02*
X83900000Y49194800D01*
X93900000Y35194800D02*
X83900000Y35194800D01*
X93900000Y49194800D02*
X93900000Y36694800D01*
X83900000Y49194800D02*
X93900000Y49194800D01*
X73715000Y42700000D02*
G75*
G03X73715000Y42700000I-4500000J0D01*
G01*
X64215000Y35194800D02*
X64215000Y37194800D01*
X74215000Y35194800D02*
X74215000Y37194800D01*
X64215000Y36694800D02*
X64215000Y49194800D01*
X74215000Y35194800D02*
X64215000Y35194800D01*
X74215000Y49194800D02*
X74215000Y36694800D01*
X64215000Y49194800D02*
X74215000Y49194800D01*
X54030000Y42700000D02*
G75*
G03X54030000Y42700000I-4500000J0D01*
G01*
X44530000Y35194800D02*
X44530000Y37194800D01*
X54530000Y35194800D02*
X54530000Y37194800D01*
X44530000Y36694800D02*
X44530000Y49194800D01*
X54530000Y35194800D02*
X44530000Y35194800D01*
X54530000Y49194800D02*
X54530000Y36694800D01*
X44530000Y49194800D02*
X54530000Y49194800D01*
X34345000Y42700000D02*
G75*
G03X34345000Y42700000I-4500000J0D01*
G01*
X24845000Y35194800D02*
X24845000Y37194800D01*
X34845000Y35194800D02*
X34845000Y37194800D01*
X24845000Y36694800D02*
X24845000Y49194800D01*
X34845000Y35194800D02*
X24845000Y35194800D01*
X34845000Y49194800D02*
X34845000Y36694800D01*
X24845000Y49194800D02*
X34845000Y49194800D01*
X14660000Y42700000D02*
G75*
G03X14660000Y42700000I-4500000J0D01*
G01*
X5160000Y35194800D02*
X5160000Y37194800D01*
X15160000Y35194800D02*
X15160000Y37194800D01*
X5160000Y36694800D02*
X5160000Y49194800D01*
X15160000Y35194800D02*
X5160000Y35194800D01*
X15160000Y49194800D02*
X15160000Y36694800D01*
X5160000Y49194800D02*
X15160000Y49194800D01*
X152768334Y1708095D02*
X152768334Y1136667D01*
X152730238Y1022381D01*
X152654048Y946190D01*
X152539762Y908095D01*
X152463572Y908095D01*
X153568334Y908095D02*
X153111191Y908095D01*
X153339762Y908095D02*
X153339762Y1708095D01*
X153263572Y1593810D01*
X153187381Y1517619D01*
X153111191Y1479524D01*
X124309143Y9485334D02*
X124356762Y9437715D01*
X124404381Y9294858D01*
X124404381Y9199620D01*
X124356762Y9056762D01*
X124261524Y8961524D01*
X124166286Y8913905D01*
X123975810Y8866286D01*
X123832952Y8866286D01*
X123642476Y8913905D01*
X123547238Y8961524D01*
X123452000Y9056762D01*
X123404381Y9199620D01*
X123404381Y9294858D01*
X123452000Y9437715D01*
X123499619Y9485334D01*
X123499619Y9866286D02*
X123452000Y9913905D01*
X123404381Y10009143D01*
X123404381Y10247239D01*
X123452000Y10342477D01*
X123499619Y10390096D01*
X123594857Y10437715D01*
X123690095Y10437715D01*
X123832952Y10390096D01*
X124404381Y9818667D01*
X124404381Y10437715D01*
X125069714Y21993143D02*
X125069714Y21021714D01*
X125126857Y20907429D01*
X125184000Y20850286D01*
X125298286Y20793143D01*
X125526857Y20793143D01*
X125641143Y20850286D01*
X125698286Y20907429D01*
X125755429Y21021714D01*
X125755429Y21993143D01*
X126269714Y21878857D02*
X126326857Y21936000D01*
X126441143Y21993143D01*
X126726857Y21993143D01*
X126841143Y21936000D01*
X126898286Y21878857D01*
X126955429Y21764571D01*
X126955429Y21650286D01*
X126898286Y21478857D01*
X126212572Y20793143D01*
X126955429Y20793143D01*
X111194881Y20414286D02*
X111909167Y20414286D01*
X112052024Y20366666D01*
X112147262Y20271428D01*
X112194881Y20128571D01*
X112194881Y20033333D01*
X111194881Y21080952D02*
X111194881Y21271429D01*
X111242500Y21366667D01*
X111337738Y21461905D01*
X111528214Y21509524D01*
X111861548Y21509524D01*
X112052024Y21461905D01*
X112147262Y21366667D01*
X112194881Y21271429D01*
X112194881Y21080952D01*
X112147262Y20985714D01*
X112052024Y20890476D01*
X111861548Y20842857D01*
X111528214Y20842857D01*
X111337738Y20890476D01*
X111242500Y20985714D01*
X111194881Y21080952D01*
X111718690Y22128571D02*
X112194881Y22128571D01*
X111194881Y21795238D02*
X111718690Y22128571D01*
X111194881Y22461905D01*
X111290119Y22747619D02*
X111242500Y22795238D01*
X111194881Y22890476D01*
X111194881Y23128572D01*
X111242500Y23223810D01*
X111290119Y23271429D01*
X111385357Y23319048D01*
X111480595Y23319048D01*
X111623452Y23271429D01*
X112194881Y22700000D01*
X112194881Y23319048D01*
X150564881Y20414286D02*
X151279167Y20414286D01*
X151422024Y20366666D01*
X151517262Y20271428D01*
X151564881Y20128571D01*
X151564881Y20033333D01*
X150564881Y21080952D02*
X150564881Y21271429D01*
X150612500Y21366667D01*
X150707738Y21461905D01*
X150898214Y21509524D01*
X151231548Y21509524D01*
X151422024Y21461905D01*
X151517262Y21366667D01*
X151564881Y21271429D01*
X151564881Y21080952D01*
X151517262Y20985714D01*
X151422024Y20890476D01*
X151231548Y20842857D01*
X150898214Y20842857D01*
X150707738Y20890476D01*
X150612500Y20985714D01*
X150564881Y21080952D01*
X151088690Y22128571D02*
X151564881Y22128571D01*
X150564881Y21795238D02*
X151088690Y22128571D01*
X150564881Y22461905D01*
X150564881Y22700000D02*
X150564881Y23319048D01*
X150945833Y22985714D01*
X150945833Y23128572D01*
X150993452Y23223810D01*
X151041071Y23271429D01*
X151136310Y23319048D01*
X151374405Y23319048D01*
X151469643Y23271429D01*
X151517262Y23223810D01*
X151564881Y23128572D01*
X151564881Y22842857D01*
X151517262Y22747619D01*
X151469643Y22700000D01*
X32454881Y20414286D02*
X33169167Y20414286D01*
X33312024Y20366666D01*
X33407262Y20271428D01*
X33454881Y20128571D01*
X33454881Y20033333D01*
X32454881Y21080952D02*
X32454881Y21271429D01*
X32502500Y21366667D01*
X32597738Y21461905D01*
X32788214Y21509524D01*
X33121548Y21509524D01*
X33312024Y21461905D01*
X33407262Y21366667D01*
X33454881Y21271429D01*
X33454881Y21080952D01*
X33407262Y20985714D01*
X33312024Y20890476D01*
X33121548Y20842857D01*
X32788214Y20842857D01*
X32597738Y20890476D01*
X32502500Y20985714D01*
X32454881Y21080952D01*
X32978690Y22128571D02*
X33454881Y22128571D01*
X32454881Y21795238D02*
X32978690Y22128571D01*
X32454881Y22461905D01*
X32454881Y22985714D02*
X32454881Y23080953D01*
X32502500Y23176191D01*
X32550119Y23223810D01*
X32645357Y23271429D01*
X32835833Y23319048D01*
X33073929Y23319048D01*
X33264405Y23271429D01*
X33359643Y23223810D01*
X33407262Y23176191D01*
X33454881Y23080953D01*
X33454881Y22985714D01*
X33407262Y22890476D01*
X33359643Y22842857D01*
X33264405Y22795238D01*
X33073929Y22747619D01*
X32835833Y22747619D01*
X32645357Y22795238D01*
X32550119Y22842857D01*
X32502500Y22890476D01*
X32454881Y22985714D01*
X71824881Y20414286D02*
X72539167Y20414286D01*
X72682024Y20366666D01*
X72777262Y20271428D01*
X72824881Y20128571D01*
X72824881Y20033333D01*
X71824881Y21080952D02*
X71824881Y21271429D01*
X71872500Y21366667D01*
X71967738Y21461905D01*
X72158214Y21509524D01*
X72491548Y21509524D01*
X72682024Y21461905D01*
X72777262Y21366667D01*
X72824881Y21271429D01*
X72824881Y21080952D01*
X72777262Y20985714D01*
X72682024Y20890476D01*
X72491548Y20842857D01*
X72158214Y20842857D01*
X71967738Y20890476D01*
X71872500Y20985714D01*
X71824881Y21080952D01*
X72348690Y22128571D02*
X72824881Y22128571D01*
X71824881Y21795238D02*
X72348690Y22128571D01*
X71824881Y22461905D01*
X72824881Y23319048D02*
X72824881Y22747619D01*
X72824881Y23033333D02*
X71824881Y23033333D01*
X71967738Y22938095D01*
X72062976Y22842857D01*
X72110595Y22747619D01*
X115266667Y-3278381D02*
X115266667Y-3992667D01*
X115219047Y-4135524D01*
X115123809Y-4230762D01*
X114980952Y-4278381D01*
X114885714Y-4278381D01*
X115695238Y-3373619D02*
X115742857Y-3326000D01*
X115838095Y-3278381D01*
X116076191Y-3278381D01*
X116171429Y-3326000D01*
X116219048Y-3373619D01*
X116266667Y-3468857D01*
X116266667Y-3564095D01*
X116219048Y-3706952D01*
X115647619Y-4278381D01*
X116266667Y-4278381D01*
X117552381Y-14016476D02*
X117552381Y-14492667D01*
X118028571Y-14540286D01*
X117980952Y-14492667D01*
X117933333Y-14397429D01*
X117933333Y-14159333D01*
X117980952Y-14064095D01*
X118028571Y-14016476D01*
X118123810Y-13968857D01*
X118361905Y-13968857D01*
X118457143Y-14016476D01*
X118504762Y-14064095D01*
X118552381Y-14159333D01*
X118552381Y-14397429D01*
X118504762Y-14492667D01*
X118457143Y-14540286D01*
X117647619Y-13587905D02*
X117600000Y-13540286D01*
X117552381Y-13445048D01*
X117552381Y-13206952D01*
X117600000Y-13111714D01*
X117647619Y-13064095D01*
X117742857Y-13016476D01*
X117838095Y-13016476D01*
X117980952Y-13064095D01*
X118552381Y-13635524D01*
X118552381Y-13016476D01*
X117647619Y-12635524D02*
X117600000Y-12587905D01*
X117552381Y-12492667D01*
X117552381Y-12254571D01*
X117600000Y-12159333D01*
X117647619Y-12111714D01*
X117742857Y-12064095D01*
X117838095Y-12064095D01*
X117980952Y-12111714D01*
X118552381Y-12683143D01*
X118552381Y-12064095D01*
X117552381Y-11730762D02*
X117552381Y-11064095D01*
X118552381Y-11492667D01*
X118552381Y-10159333D02*
X118552381Y-10730762D01*
X118552381Y-10445048D02*
X117552381Y-10445048D01*
X117695238Y-10540286D01*
X117790476Y-10635524D01*
X117838095Y-10730762D01*
X118171429Y-9730762D02*
X118171429Y-8968857D01*
X118552381Y-7968857D02*
X118552381Y-8540286D01*
X118552381Y-8254572D02*
X117552381Y-8254572D01*
X117695238Y-8349810D01*
X117790476Y-8445048D01*
X117838095Y-8540286D01*
X117552381Y-7111714D02*
X117552381Y-7302191D01*
X117600000Y-7397429D01*
X117647619Y-7445048D01*
X117790476Y-7540286D01*
X117980952Y-7587905D01*
X118361905Y-7587905D01*
X118457143Y-7540286D01*
X118504762Y-7492667D01*
X118552381Y-7397429D01*
X118552381Y-7206952D01*
X118504762Y-7111714D01*
X118457143Y-7064095D01*
X118361905Y-7016476D01*
X118123810Y-7016476D01*
X118028571Y-7064095D01*
X117980952Y-7111714D01*
X117933333Y-7206952D01*
X117933333Y-7397429D01*
X117980952Y-7492667D01*
X118028571Y-7540286D01*
X118123810Y-7587905D01*
X117552381Y-6683143D02*
X117552381Y-6016476D01*
X118552381Y-6445048D01*
X118552381Y-5587905D02*
X118552381Y-5397429D01*
X118504762Y-5302190D01*
X118457143Y-5254571D01*
X118314286Y-5159333D01*
X118123810Y-5111714D01*
X117742857Y-5111714D01*
X117647619Y-5159333D01*
X117600000Y-5206952D01*
X117552381Y-5302190D01*
X117552381Y-5492667D01*
X117600000Y-5587905D01*
X117647619Y-5635524D01*
X117742857Y-5683143D01*
X117980952Y-5683143D01*
X118076190Y-5635524D01*
X118123810Y-5587905D01*
X118171429Y-5492667D01*
X118171429Y-5302190D01*
X118123810Y-5206952D01*
X118076190Y-5159333D01*
X117980952Y-5111714D01*
X86947143Y27888334D02*
X86994762Y27840715D01*
X87042381Y27697858D01*
X87042381Y27602620D01*
X86994762Y27459762D01*
X86899524Y27364524D01*
X86804286Y27316905D01*
X86613810Y27269286D01*
X86470952Y27269286D01*
X86280476Y27316905D01*
X86185238Y27364524D01*
X86090000Y27459762D01*
X86042381Y27602620D01*
X86042381Y27697858D01*
X86090000Y27840715D01*
X86137619Y27888334D01*
X87042381Y28840715D02*
X87042381Y28269286D01*
X87042381Y28555000D02*
X86042381Y28555000D01*
X86185238Y28459762D01*
X86280476Y28364524D01*
X86328095Y28269286D01*
X58777143Y56729334D02*
X58824762Y56681715D01*
X58872381Y56538858D01*
X58872381Y56443620D01*
X58824762Y56300762D01*
X58729524Y56205524D01*
X58634286Y56157905D01*
X58443810Y56110286D01*
X58300952Y56110286D01*
X58110476Y56157905D01*
X58015238Y56205524D01*
X57920000Y56300762D01*
X57872381Y56443620D01*
X57872381Y56538858D01*
X57920000Y56681715D01*
X57967619Y56729334D01*
X57872381Y57062667D02*
X57872381Y57681715D01*
X58253333Y57348381D01*
X58253333Y57491239D01*
X58300952Y57586477D01*
X58348571Y57634096D01*
X58443810Y57681715D01*
X58681905Y57681715D01*
X58777143Y57634096D01*
X58824762Y57586477D01*
X58872381Y57491239D01*
X58872381Y57205524D01*
X58824762Y57110286D01*
X58777143Y57062667D01*
X58872381Y53181334D02*
X58396190Y52848000D01*
X58872381Y52609905D02*
X57872381Y52609905D01*
X57872381Y52990858D01*
X57920000Y53086096D01*
X57967619Y53133715D01*
X58062857Y53181334D01*
X58205714Y53181334D01*
X58300952Y53133715D01*
X58348571Y53086096D01*
X58396190Y52990858D01*
X58396190Y52609905D01*
X58777143Y54181334D02*
X58824762Y54133715D01*
X58872381Y53990858D01*
X58872381Y53895620D01*
X58824762Y53752762D01*
X58729524Y53657524D01*
X58634286Y53609905D01*
X58443810Y53562286D01*
X58300952Y53562286D01*
X58110476Y53609905D01*
X58015238Y53657524D01*
X57920000Y53752762D01*
X57872381Y53895620D01*
X57872381Y53990858D01*
X57920000Y54133715D01*
X57967619Y54181334D01*
X57872381Y54800381D02*
X57872381Y54895620D01*
X57920000Y54990858D01*
X57967619Y55038477D01*
X58062857Y55086096D01*
X58253333Y55133715D01*
X58491429Y55133715D01*
X58681905Y55086096D01*
X58777143Y55038477D01*
X58824762Y54990858D01*
X58872381Y54895620D01*
X58872381Y54800381D01*
X58824762Y54705143D01*
X58777143Y54657524D01*
X58681905Y54609905D01*
X58491429Y54562286D01*
X58253333Y54562286D01*
X58062857Y54609905D01*
X57967619Y54657524D01*
X57920000Y54705143D01*
X57872381Y54800381D01*
X8382143Y55427619D02*
X8048809Y55903810D01*
X7810714Y55427619D02*
X7810714Y56427619D01*
X8191667Y56427619D01*
X8286905Y56380000D01*
X8334524Y56332381D01*
X8382143Y56237143D01*
X8382143Y56094286D01*
X8334524Y55999048D01*
X8286905Y55951429D01*
X8191667Y55903810D01*
X7810714Y55903810D01*
X9382143Y55522857D02*
X9334524Y55475238D01*
X9191667Y55427619D01*
X9096429Y55427619D01*
X8953571Y55475238D01*
X8858333Y55570476D01*
X8810714Y55665714D01*
X8763095Y55856190D01*
X8763095Y55999048D01*
X8810714Y56189524D01*
X8858333Y56284762D01*
X8953571Y56380000D01*
X9096429Y56427619D01*
X9191667Y56427619D01*
X9334524Y56380000D01*
X9382143Y56332381D01*
X10334524Y55427619D02*
X9763095Y55427619D01*
X10048809Y55427619D02*
X10048809Y56427619D01*
X9953571Y56284762D01*
X9858333Y56189524D01*
X9763095Y56141905D01*
X10953571Y56427619D02*
X11048810Y56427619D01*
X11144048Y56380000D01*
X11191667Y56332381D01*
X11239286Y56237143D01*
X11286905Y56046667D01*
X11286905Y55808571D01*
X11239286Y55618095D01*
X11191667Y55522857D01*
X11144048Y55475238D01*
X11048810Y55427619D01*
X10953571Y55427619D01*
X10858333Y55475238D01*
X10810714Y55522857D01*
X10763095Y55618095D01*
X10715476Y55808571D01*
X10715476Y56046667D01*
X10763095Y56237143D01*
X10810714Y56332381D01*
X10858333Y56380000D01*
X10953571Y56427619D01*
X47117143Y55427619D02*
X46783809Y55903810D01*
X46545714Y55427619D02*
X46545714Y56427619D01*
X46926667Y56427619D01*
X47021905Y56380000D01*
X47069524Y56332381D01*
X47117143Y56237143D01*
X47117143Y56094286D01*
X47069524Y55999048D01*
X47021905Y55951429D01*
X46926667Y55903810D01*
X46545714Y55903810D01*
X48117143Y55522857D02*
X48069524Y55475238D01*
X47926667Y55427619D01*
X47831429Y55427619D01*
X47688571Y55475238D01*
X47593333Y55570476D01*
X47545714Y55665714D01*
X47498095Y55856190D01*
X47498095Y55999048D01*
X47545714Y56189524D01*
X47593333Y56284762D01*
X47688571Y56380000D01*
X47831429Y56427619D01*
X47926667Y56427619D01*
X48069524Y56380000D01*
X48117143Y56332381D01*
X48498095Y56332381D02*
X48545714Y56380000D01*
X48640952Y56427619D01*
X48879048Y56427619D01*
X48974286Y56380000D01*
X49021905Y56332381D01*
X49069524Y56237143D01*
X49069524Y56141905D01*
X49021905Y55999048D01*
X48450476Y55427619D01*
X49069524Y55427619D01*
X49688571Y56427619D02*
X49783810Y56427619D01*
X49879048Y56380000D01*
X49926667Y56332381D01*
X49974286Y56237143D01*
X50021905Y56046667D01*
X50021905Y55808571D01*
X49974286Y55618095D01*
X49926667Y55522857D01*
X49879048Y55475238D01*
X49783810Y55427619D01*
X49688571Y55427619D01*
X49593333Y55475238D01*
X49545714Y55522857D01*
X49498095Y55618095D01*
X49450476Y55808571D01*
X49450476Y56046667D01*
X49498095Y56237143D01*
X49545714Y56332381D01*
X49593333Y56380000D01*
X49688571Y56427619D01*
X86372143Y55427619D02*
X86038809Y55903810D01*
X85800714Y55427619D02*
X85800714Y56427619D01*
X86181667Y56427619D01*
X86276905Y56380000D01*
X86324524Y56332381D01*
X86372143Y56237143D01*
X86372143Y56094286D01*
X86324524Y55999048D01*
X86276905Y55951429D01*
X86181667Y55903810D01*
X85800714Y55903810D01*
X87372143Y55522857D02*
X87324524Y55475238D01*
X87181667Y55427619D01*
X87086429Y55427619D01*
X86943571Y55475238D01*
X86848333Y55570476D01*
X86800714Y55665714D01*
X86753095Y55856190D01*
X86753095Y55999048D01*
X86800714Y56189524D01*
X86848333Y56284762D01*
X86943571Y56380000D01*
X87086429Y56427619D01*
X87181667Y56427619D01*
X87324524Y56380000D01*
X87372143Y56332381D01*
X87705476Y56427619D02*
X88324524Y56427619D01*
X87991190Y56046667D01*
X88134048Y56046667D01*
X88229286Y55999048D01*
X88276905Y55951429D01*
X88324524Y55856190D01*
X88324524Y55618095D01*
X88276905Y55522857D01*
X88229286Y55475238D01*
X88134048Y55427619D01*
X87848333Y55427619D01*
X87753095Y55475238D01*
X87705476Y55522857D01*
X88943571Y56427619D02*
X89038810Y56427619D01*
X89134048Y56380000D01*
X89181667Y56332381D01*
X89229286Y56237143D01*
X89276905Y56046667D01*
X89276905Y55808571D01*
X89229286Y55618095D01*
X89181667Y55522857D01*
X89134048Y55475238D01*
X89038810Y55427619D01*
X88943571Y55427619D01*
X88848333Y55475238D01*
X88800714Y55522857D01*
X88753095Y55618095D01*
X88705476Y55808571D01*
X88705476Y56046667D01*
X88753095Y56237143D01*
X88800714Y56332381D01*
X88848333Y56380000D01*
X88943571Y56427619D01*
X125972143Y55427619D02*
X125638809Y55903810D01*
X125400714Y55427619D02*
X125400714Y56427619D01*
X125781667Y56427619D01*
X125876905Y56380000D01*
X125924524Y56332381D01*
X125972143Y56237143D01*
X125972143Y56094286D01*
X125924524Y55999048D01*
X125876905Y55951429D01*
X125781667Y55903810D01*
X125400714Y55903810D01*
X126972143Y55522857D02*
X126924524Y55475238D01*
X126781667Y55427619D01*
X126686429Y55427619D01*
X126543571Y55475238D01*
X126448333Y55570476D01*
X126400714Y55665714D01*
X126353095Y55856190D01*
X126353095Y55999048D01*
X126400714Y56189524D01*
X126448333Y56284762D01*
X126543571Y56380000D01*
X126686429Y56427619D01*
X126781667Y56427619D01*
X126924524Y56380000D01*
X126972143Y56332381D01*
X127829286Y56094286D02*
X127829286Y55427619D01*
X127591190Y56475238D02*
X127353095Y55760952D01*
X127972143Y55760952D01*
X128543571Y56427619D02*
X128638810Y56427619D01*
X128734048Y56380000D01*
X128781667Y56332381D01*
X128829286Y56237143D01*
X128876905Y56046667D01*
X128876905Y55808571D01*
X128829286Y55618095D01*
X128781667Y55522857D01*
X128734048Y55475238D01*
X128638810Y55427619D01*
X128543571Y55427619D01*
X128448333Y55475238D01*
X128400714Y55522857D01*
X128353095Y55618095D01*
X128305476Y55808571D01*
X128305476Y56046667D01*
X128353095Y56237143D01*
X128400714Y56332381D01*
X128448333Y56380000D01*
X128543571Y56427619D01*
X64460381Y56229334D02*
X63984190Y55896000D01*
X64460381Y55657905D02*
X63460381Y55657905D01*
X63460381Y56038858D01*
X63508000Y56134096D01*
X63555619Y56181715D01*
X63650857Y56229334D01*
X63793714Y56229334D01*
X63888952Y56181715D01*
X63936571Y56134096D01*
X63984190Y56038858D01*
X63984190Y55657905D01*
X64460381Y56657905D02*
X63460381Y56657905D01*
X63460381Y56896000D01*
X63508000Y57038858D01*
X63603238Y57134096D01*
X63698476Y57181715D01*
X63888952Y57229334D01*
X64031810Y57229334D01*
X64222286Y57181715D01*
X64317524Y57134096D01*
X64412762Y57038858D01*
X64460381Y56896000D01*
X64460381Y56657905D01*
X63460381Y57848381D02*
X63460381Y57943620D01*
X63508000Y58038858D01*
X63555619Y58086477D01*
X63650857Y58134096D01*
X63841333Y58181715D01*
X64079429Y58181715D01*
X64269905Y58134096D01*
X64365143Y58086477D01*
X64412762Y58038858D01*
X64460381Y57943620D01*
X64460381Y57848381D01*
X64412762Y57753143D01*
X64365143Y57705524D01*
X64269905Y57657905D01*
X64079429Y57610286D01*
X63841333Y57610286D01*
X63650857Y57657905D01*
X63555619Y57705524D01*
X63508000Y57753143D01*
X63460381Y57848381D01*
X8382143Y57967619D02*
X8048809Y58443810D01*
X7810714Y57967619D02*
X7810714Y58967619D01*
X8191667Y58967619D01*
X8286905Y58920000D01*
X8334524Y58872381D01*
X8382143Y58777143D01*
X8382143Y58634286D01*
X8334524Y58539048D01*
X8286905Y58491429D01*
X8191667Y58443810D01*
X7810714Y58443810D01*
X8810714Y57967619D02*
X8810714Y58967619D01*
X9048809Y58967619D01*
X9191667Y58920000D01*
X9286905Y58824762D01*
X9334524Y58729524D01*
X9382143Y58539048D01*
X9382143Y58396190D01*
X9334524Y58205714D01*
X9286905Y58110476D01*
X9191667Y58015238D01*
X9048809Y57967619D01*
X8810714Y57967619D01*
X10334524Y57967619D02*
X9763095Y57967619D01*
X10048809Y57967619D02*
X10048809Y58967619D01*
X9953571Y58824762D01*
X9858333Y58729524D01*
X9763095Y58681905D01*
X10953571Y58967619D02*
X11048810Y58967619D01*
X11144048Y58920000D01*
X11191667Y58872381D01*
X11239286Y58777143D01*
X11286905Y58586667D01*
X11286905Y58348571D01*
X11239286Y58158095D01*
X11191667Y58062857D01*
X11144048Y58015238D01*
X11048810Y57967619D01*
X10953571Y57967619D01*
X10858333Y58015238D01*
X10810714Y58062857D01*
X10763095Y58158095D01*
X10715476Y58348571D01*
X10715476Y58586667D01*
X10763095Y58777143D01*
X10810714Y58872381D01*
X10858333Y58920000D01*
X10953571Y58967619D01*
X47232143Y57967619D02*
X46898809Y58443810D01*
X46660714Y57967619D02*
X46660714Y58967619D01*
X47041667Y58967619D01*
X47136905Y58920000D01*
X47184524Y58872381D01*
X47232143Y58777143D01*
X47232143Y58634286D01*
X47184524Y58539048D01*
X47136905Y58491429D01*
X47041667Y58443810D01*
X46660714Y58443810D01*
X47660714Y57967619D02*
X47660714Y58967619D01*
X47898809Y58967619D01*
X48041667Y58920000D01*
X48136905Y58824762D01*
X48184524Y58729524D01*
X48232143Y58539048D01*
X48232143Y58396190D01*
X48184524Y58205714D01*
X48136905Y58110476D01*
X48041667Y58015238D01*
X47898809Y57967619D01*
X47660714Y57967619D01*
X48613095Y58872381D02*
X48660714Y58920000D01*
X48755952Y58967619D01*
X48994048Y58967619D01*
X49089286Y58920000D01*
X49136905Y58872381D01*
X49184524Y58777143D01*
X49184524Y58681905D01*
X49136905Y58539048D01*
X48565476Y57967619D01*
X49184524Y57967619D01*
X49803571Y58967619D02*
X49898810Y58967619D01*
X49994048Y58920000D01*
X50041667Y58872381D01*
X50089286Y58777143D01*
X50136905Y58586667D01*
X50136905Y58348571D01*
X50089286Y58158095D01*
X50041667Y58062857D01*
X49994048Y58015238D01*
X49898810Y57967619D01*
X49803571Y57967619D01*
X49708333Y58015238D01*
X49660714Y58062857D01*
X49613095Y58158095D01*
X49565476Y58348571D01*
X49565476Y58586667D01*
X49613095Y58777143D01*
X49660714Y58872381D01*
X49708333Y58920000D01*
X49803571Y58967619D01*
X86372143Y57967619D02*
X86038809Y58443810D01*
X85800714Y57967619D02*
X85800714Y58967619D01*
X86181667Y58967619D01*
X86276905Y58920000D01*
X86324524Y58872381D01*
X86372143Y58777143D01*
X86372143Y58634286D01*
X86324524Y58539048D01*
X86276905Y58491429D01*
X86181667Y58443810D01*
X85800714Y58443810D01*
X86800714Y57967619D02*
X86800714Y58967619D01*
X87038809Y58967619D01*
X87181667Y58920000D01*
X87276905Y58824762D01*
X87324524Y58729524D01*
X87372143Y58539048D01*
X87372143Y58396190D01*
X87324524Y58205714D01*
X87276905Y58110476D01*
X87181667Y58015238D01*
X87038809Y57967619D01*
X86800714Y57967619D01*
X87705476Y58967619D02*
X88324524Y58967619D01*
X87991190Y58586667D01*
X88134048Y58586667D01*
X88229286Y58539048D01*
X88276905Y58491429D01*
X88324524Y58396190D01*
X88324524Y58158095D01*
X88276905Y58062857D01*
X88229286Y58015238D01*
X88134048Y57967619D01*
X87848333Y57967619D01*
X87753095Y58015238D01*
X87705476Y58062857D01*
X88943571Y58967619D02*
X89038810Y58967619D01*
X89134048Y58920000D01*
X89181667Y58872381D01*
X89229286Y58777143D01*
X89276905Y58586667D01*
X89276905Y58348571D01*
X89229286Y58158095D01*
X89181667Y58062857D01*
X89134048Y58015238D01*
X89038810Y57967619D01*
X88943571Y57967619D01*
X88848333Y58015238D01*
X88800714Y58062857D01*
X88753095Y58158095D01*
X88705476Y58348571D01*
X88705476Y58586667D01*
X88753095Y58777143D01*
X88800714Y58872381D01*
X88848333Y58920000D01*
X88943571Y58967619D01*
X125972143Y57967619D02*
X125638809Y58443810D01*
X125400714Y57967619D02*
X125400714Y58967619D01*
X125781667Y58967619D01*
X125876905Y58920000D01*
X125924524Y58872381D01*
X125972143Y58777143D01*
X125972143Y58634286D01*
X125924524Y58539048D01*
X125876905Y58491429D01*
X125781667Y58443810D01*
X125400714Y58443810D01*
X126400714Y57967619D02*
X126400714Y58967619D01*
X126638809Y58967619D01*
X126781667Y58920000D01*
X126876905Y58824762D01*
X126924524Y58729524D01*
X126972143Y58539048D01*
X126972143Y58396190D01*
X126924524Y58205714D01*
X126876905Y58110476D01*
X126781667Y58015238D01*
X126638809Y57967619D01*
X126400714Y57967619D01*
X127829286Y58634286D02*
X127829286Y57967619D01*
X127591190Y59015238D02*
X127353095Y58300952D01*
X127972143Y58300952D01*
X128543571Y58967619D02*
X128638810Y58967619D01*
X128734048Y58920000D01*
X128781667Y58872381D01*
X128829286Y58777143D01*
X128876905Y58586667D01*
X128876905Y58348571D01*
X128829286Y58158095D01*
X128781667Y58062857D01*
X128734048Y58015238D01*
X128638810Y57967619D01*
X128543571Y57967619D01*
X128448333Y58015238D01*
X128400714Y58062857D01*
X128353095Y58158095D01*
X128305476Y58348571D01*
X128305476Y58586667D01*
X128353095Y58777143D01*
X128400714Y58872381D01*
X128448333Y58920000D01*
X128543571Y58967619D01*
X64386381Y53181334D02*
X63910190Y52848000D01*
X64386381Y52609905D02*
X63386381Y52609905D01*
X63386381Y52990858D01*
X63434000Y53086096D01*
X63481619Y53133715D01*
X63576857Y53181334D01*
X63719714Y53181334D01*
X63814952Y53133715D01*
X63862571Y53086096D01*
X63910190Y52990858D01*
X63910190Y52609905D01*
X64386381Y54181334D02*
X63910190Y53848000D01*
X64386381Y53609905D02*
X63386381Y53609905D01*
X63386381Y53990858D01*
X63434000Y54086096D01*
X63481619Y54133715D01*
X63576857Y54181334D01*
X63719714Y54181334D01*
X63814952Y54133715D01*
X63862571Y54086096D01*
X63910190Y53990858D01*
X63910190Y53609905D01*
X63386381Y54800381D02*
X63386381Y54895620D01*
X63434000Y54990858D01*
X63481619Y55038477D01*
X63576857Y55086096D01*
X63767333Y55133715D01*
X64005429Y55133715D01*
X64195905Y55086096D01*
X64291143Y55038477D01*
X64338762Y54990858D01*
X64386381Y54895620D01*
X64386381Y54800381D01*
X64338762Y54705143D01*
X64291143Y54657524D01*
X64195905Y54609905D01*
X64005429Y54562286D01*
X63767333Y54562286D01*
X63576857Y54609905D01*
X63481619Y54657524D01*
X63434000Y54705143D01*
X63386381Y54800381D01*
X84527857Y31470714D02*
X85499286Y31470714D01*
X85613571Y31527857D01*
X85670714Y31585000D01*
X85727857Y31699286D01*
X85727857Y31927857D01*
X85670714Y32042143D01*
X85613571Y32099286D01*
X85499286Y32156429D01*
X84527857Y32156429D01*
X85727857Y33356429D02*
X85727857Y32670714D01*
X85727857Y33013572D02*
X84527857Y33013572D01*
X84699286Y32899286D01*
X84813571Y32785000D01*
X84870714Y32670714D01*
X64366857Y49885714D02*
X65338286Y49885714D01*
X65452571Y49942857D01*
X65509714Y50000000D01*
X65566857Y50114286D01*
X65566857Y50342857D01*
X65509714Y50457143D01*
X65452571Y50514286D01*
X65338286Y50571429D01*
X64366857Y50571429D01*
X64366857Y51028572D02*
X64366857Y51771429D01*
X64824000Y51371429D01*
X64824000Y51542857D01*
X64881143Y51657143D01*
X64938286Y51714286D01*
X65052571Y51771429D01*
X65338286Y51771429D01*
X65452571Y51714286D01*
X65509714Y51657143D01*
X65566857Y51542857D01*
X65566857Y51200000D01*
X65509714Y51085714D01*
X65452571Y51028572D01*
X35598286Y51457143D02*
X35598286Y50485714D01*
X35655429Y50371429D01*
X35712572Y50314286D01*
X35826858Y50257143D01*
X36055429Y50257143D01*
X36169715Y50314286D01*
X36226858Y50371429D01*
X36284001Y50485714D01*
X36284001Y51457143D01*
X37484001Y50257143D02*
X36798286Y50257143D01*
X37141144Y50257143D02*
X37141144Y51457143D01*
X37026858Y51285714D01*
X36912572Y51171429D01*
X36798286Y51114286D01*
X38226858Y51457143D02*
X38341143Y51457143D01*
X38455429Y51400000D01*
X38512572Y51342857D01*
X38569715Y51228571D01*
X38626858Y51000000D01*
X38626858Y50714286D01*
X38569715Y50485714D01*
X38512572Y50371429D01*
X38455429Y50314286D01*
X38341143Y50257143D01*
X38226858Y50257143D01*
X38112572Y50314286D01*
X38055429Y50371429D01*
X37998286Y50485714D01*
X37941143Y50714286D01*
X37941143Y51000000D01*
X37998286Y51228571D01*
X38055429Y51342857D01*
X38112572Y51400000D01*
X38226858Y51457143D01*
X12430476Y58015238D02*
X12573333Y57967619D01*
X12811429Y57967619D01*
X12906667Y58015238D01*
X12954286Y58062857D01*
X13001905Y58158095D01*
X13001905Y58253333D01*
X12954286Y58348571D01*
X12906667Y58396190D01*
X12811429Y58443810D01*
X12620952Y58491429D01*
X12525714Y58539048D01*
X12478095Y58586667D01*
X12430476Y58681905D01*
X12430476Y58777143D01*
X12478095Y58872381D01*
X12525714Y58920000D01*
X12620952Y58967619D01*
X12859048Y58967619D01*
X13001905Y58920000D01*
X13430476Y57967619D02*
X13430476Y58967619D01*
X13811429Y58967619D01*
X13906667Y58920000D01*
X13954286Y58872381D01*
X14001905Y58777143D01*
X14001905Y58634286D01*
X13954286Y58539048D01*
X13906667Y58491429D01*
X13811429Y58443810D01*
X13430476Y58443810D01*
X14430476Y57967619D02*
X14430476Y58967619D01*
X14668571Y57872381D02*
X15430476Y57872381D01*
X15620952Y58015238D02*
X15763809Y57967619D01*
X16001905Y57967619D01*
X16097143Y58015238D01*
X16144762Y58062857D01*
X16192381Y58158095D01*
X16192381Y58253333D01*
X16144762Y58348571D01*
X16097143Y58396190D01*
X16001905Y58443810D01*
X15811428Y58491429D01*
X15716190Y58539048D01*
X15668571Y58586667D01*
X15620952Y58681905D01*
X15620952Y58777143D01*
X15668571Y58872381D01*
X15716190Y58920000D01*
X15811428Y58967619D01*
X16049524Y58967619D01*
X16192381Y58920000D01*
X16620952Y57967619D02*
X16620952Y58967619D01*
X16859047Y58967619D01*
X17001905Y58920000D01*
X17097143Y58824762D01*
X17144762Y58729524D01*
X17192381Y58539048D01*
X17192381Y58396190D01*
X17144762Y58205714D01*
X17097143Y58110476D01*
X17001905Y58015238D01*
X16859047Y57967619D01*
X16620952Y57967619D01*
X17573333Y58253333D02*
X18049524Y58253333D01*
X17478095Y57967619D02*
X17811428Y58967619D01*
X18144762Y57967619D01*
X12454286Y55475238D02*
X12597143Y55427619D01*
X12835239Y55427619D01*
X12930477Y55475238D01*
X12978096Y55522857D01*
X13025715Y55618095D01*
X13025715Y55713333D01*
X12978096Y55808571D01*
X12930477Y55856190D01*
X12835239Y55903810D01*
X12644762Y55951429D01*
X12549524Y55999048D01*
X12501905Y56046667D01*
X12454286Y56141905D01*
X12454286Y56237143D01*
X12501905Y56332381D01*
X12549524Y56380000D01*
X12644762Y56427619D01*
X12882858Y56427619D01*
X13025715Y56380000D01*
X13454286Y55427619D02*
X13454286Y56427619D01*
X13835239Y56427619D01*
X13930477Y56380000D01*
X13978096Y56332381D01*
X14025715Y56237143D01*
X14025715Y56094286D01*
X13978096Y55999048D01*
X13930477Y55951429D01*
X13835239Y55903810D01*
X13454286Y55903810D01*
X14454286Y55427619D02*
X14454286Y56427619D01*
X14692381Y55332381D02*
X15454286Y55332381D01*
X15644762Y55475238D02*
X15787619Y55427619D01*
X16025715Y55427619D01*
X16120953Y55475238D01*
X16168572Y55522857D01*
X16216191Y55618095D01*
X16216191Y55713333D01*
X16168572Y55808571D01*
X16120953Y55856190D01*
X16025715Y55903810D01*
X15835238Y55951429D01*
X15740000Y55999048D01*
X15692381Y56046667D01*
X15644762Y56141905D01*
X15644762Y56237143D01*
X15692381Y56332381D01*
X15740000Y56380000D01*
X15835238Y56427619D01*
X16073334Y56427619D01*
X16216191Y56380000D01*
X17216191Y55522857D02*
X17168572Y55475238D01*
X17025715Y55427619D01*
X16930477Y55427619D01*
X16787619Y55475238D01*
X16692381Y55570476D01*
X16644762Y55665714D01*
X16597143Y55856190D01*
X16597143Y55999048D01*
X16644762Y56189524D01*
X16692381Y56284762D01*
X16787619Y56380000D01*
X16930477Y56427619D01*
X17025715Y56427619D01*
X17168572Y56380000D01*
X17216191Y56332381D01*
X18120953Y55427619D02*
X17644762Y55427619D01*
X17644762Y56427619D01*
X12636667Y53887619D02*
X12970000Y52887619D01*
X13303334Y53887619D01*
X14208096Y52982857D02*
X14160477Y52935238D01*
X14017620Y52887619D01*
X13922382Y52887619D01*
X13779524Y52935238D01*
X13684286Y53030476D01*
X13636667Y53125714D01*
X13589048Y53316190D01*
X13589048Y53459048D01*
X13636667Y53649524D01*
X13684286Y53744762D01*
X13779524Y53840000D01*
X13922382Y53887619D01*
X14017620Y53887619D01*
X14160477Y53840000D01*
X14208096Y53792381D01*
X15208096Y52982857D02*
X15160477Y52935238D01*
X15017620Y52887619D01*
X14922382Y52887619D01*
X14779524Y52935238D01*
X14684286Y53030476D01*
X14636667Y53125714D01*
X14589048Y53316190D01*
X14589048Y53459048D01*
X14636667Y53649524D01*
X14684286Y53744762D01*
X14779524Y53840000D01*
X14922382Y53887619D01*
X15017620Y53887619D01*
X15160477Y53840000D01*
X15208096Y53792381D01*
X13208096Y51300000D02*
X13112858Y51347619D01*
X12970001Y51347619D01*
X12827143Y51300000D01*
X12731905Y51204762D01*
X12684286Y51109524D01*
X12636667Y50919048D01*
X12636667Y50776190D01*
X12684286Y50585714D01*
X12731905Y50490476D01*
X12827143Y50395238D01*
X12970001Y50347619D01*
X13065239Y50347619D01*
X13208096Y50395238D01*
X13255715Y50442857D01*
X13255715Y50776190D01*
X13065239Y50776190D01*
X13684286Y50347619D02*
X13684286Y51347619D01*
X14255715Y50347619D01*
X14255715Y51347619D01*
X14731905Y50347619D02*
X14731905Y51347619D01*
X14970000Y51347619D01*
X15112858Y51300000D01*
X15208096Y51204762D01*
X15255715Y51109524D01*
X15303334Y50919048D01*
X15303334Y50776190D01*
X15255715Y50585714D01*
X15208096Y50490476D01*
X15112858Y50395238D01*
X14970000Y50347619D01*
X14731905Y50347619D01*
X57950286Y51457143D02*
X57950286Y50485714D01*
X58007429Y50371429D01*
X58064572Y50314286D01*
X58178858Y50257143D01*
X58407429Y50257143D01*
X58521715Y50314286D01*
X58578858Y50371429D01*
X58636001Y50485714D01*
X58636001Y51457143D01*
X59150286Y51342857D02*
X59207429Y51400000D01*
X59321715Y51457143D01*
X59607429Y51457143D01*
X59721715Y51400000D01*
X59778858Y51342857D01*
X59836001Y51228571D01*
X59836001Y51114286D01*
X59778858Y50942857D01*
X59093144Y50257143D01*
X59836001Y50257143D01*
X60578858Y51457143D02*
X60693143Y51457143D01*
X60807429Y51400000D01*
X60864572Y51342857D01*
X60921715Y51228571D01*
X60978858Y51000000D01*
X60978858Y50714286D01*
X60921715Y50485714D01*
X60864572Y50371429D01*
X60807429Y50314286D01*
X60693143Y50257143D01*
X60578858Y50257143D01*
X60464572Y50314286D01*
X60407429Y50371429D01*
X60350286Y50485714D01*
X60293143Y50714286D01*
X60293143Y51000000D01*
X60350286Y51228571D01*
X60407429Y51342857D01*
X60464572Y51400000D01*
X60578858Y51457143D01*
X51038476Y58015238D02*
X51181333Y57967619D01*
X51419429Y57967619D01*
X51514667Y58015238D01*
X51562286Y58062857D01*
X51609905Y58158095D01*
X51609905Y58253333D01*
X51562286Y58348571D01*
X51514667Y58396190D01*
X51419429Y58443810D01*
X51228952Y58491429D01*
X51133714Y58539048D01*
X51086095Y58586667D01*
X51038476Y58681905D01*
X51038476Y58777143D01*
X51086095Y58872381D01*
X51133714Y58920000D01*
X51228952Y58967619D01*
X51467048Y58967619D01*
X51609905Y58920000D01*
X52038476Y57967619D02*
X52038476Y58967619D01*
X52419429Y58967619D01*
X52514667Y58920000D01*
X52562286Y58872381D01*
X52609905Y58777143D01*
X52609905Y58634286D01*
X52562286Y58539048D01*
X52514667Y58491429D01*
X52419429Y58443810D01*
X52038476Y58443810D01*
X53038476Y57967619D02*
X53038476Y58967619D01*
X53276571Y57872381D02*
X54038476Y57872381D01*
X54228952Y58015238D02*
X54371809Y57967619D01*
X54609905Y57967619D01*
X54705143Y58015238D01*
X54752762Y58062857D01*
X54800381Y58158095D01*
X54800381Y58253333D01*
X54752762Y58348571D01*
X54705143Y58396190D01*
X54609905Y58443810D01*
X54419428Y58491429D01*
X54324190Y58539048D01*
X54276571Y58586667D01*
X54228952Y58681905D01*
X54228952Y58777143D01*
X54276571Y58872381D01*
X54324190Y58920000D01*
X54419428Y58967619D01*
X54657524Y58967619D01*
X54800381Y58920000D01*
X55228952Y57967619D02*
X55228952Y58967619D01*
X55467047Y58967619D01*
X55609905Y58920000D01*
X55705143Y58824762D01*
X55752762Y58729524D01*
X55800381Y58539048D01*
X55800381Y58396190D01*
X55752762Y58205714D01*
X55705143Y58110476D01*
X55609905Y58015238D01*
X55467047Y57967619D01*
X55228952Y57967619D01*
X56181333Y58253333D02*
X56657524Y58253333D01*
X56086095Y57967619D02*
X56419428Y58967619D01*
X56752762Y57967619D01*
X51062286Y55475238D02*
X51205143Y55427619D01*
X51443239Y55427619D01*
X51538477Y55475238D01*
X51586096Y55522857D01*
X51633715Y55618095D01*
X51633715Y55713333D01*
X51586096Y55808571D01*
X51538477Y55856190D01*
X51443239Y55903810D01*
X51252762Y55951429D01*
X51157524Y55999048D01*
X51109905Y56046667D01*
X51062286Y56141905D01*
X51062286Y56237143D01*
X51109905Y56332381D01*
X51157524Y56380000D01*
X51252762Y56427619D01*
X51490858Y56427619D01*
X51633715Y56380000D01*
X52062286Y55427619D02*
X52062286Y56427619D01*
X52443239Y56427619D01*
X52538477Y56380000D01*
X52586096Y56332381D01*
X52633715Y56237143D01*
X52633715Y56094286D01*
X52586096Y55999048D01*
X52538477Y55951429D01*
X52443239Y55903810D01*
X52062286Y55903810D01*
X53062286Y55427619D02*
X53062286Y56427619D01*
X53300381Y55332381D02*
X54062286Y55332381D01*
X54252762Y55475238D02*
X54395619Y55427619D01*
X54633715Y55427619D01*
X54728953Y55475238D01*
X54776572Y55522857D01*
X54824191Y55618095D01*
X54824191Y55713333D01*
X54776572Y55808571D01*
X54728953Y55856190D01*
X54633715Y55903810D01*
X54443238Y55951429D01*
X54348000Y55999048D01*
X54300381Y56046667D01*
X54252762Y56141905D01*
X54252762Y56237143D01*
X54300381Y56332381D01*
X54348000Y56380000D01*
X54443238Y56427619D01*
X54681334Y56427619D01*
X54824191Y56380000D01*
X55824191Y55522857D02*
X55776572Y55475238D01*
X55633715Y55427619D01*
X55538477Y55427619D01*
X55395619Y55475238D01*
X55300381Y55570476D01*
X55252762Y55665714D01*
X55205143Y55856190D01*
X55205143Y55999048D01*
X55252762Y56189524D01*
X55300381Y56284762D01*
X55395619Y56380000D01*
X55538477Y56427619D01*
X55633715Y56427619D01*
X55776572Y56380000D01*
X55824191Y56332381D01*
X56728953Y55427619D02*
X56252762Y55427619D01*
X56252762Y56427619D01*
X48196667Y53887619D02*
X48530000Y52887619D01*
X48863334Y53887619D01*
X49768096Y52982857D02*
X49720477Y52935238D01*
X49577620Y52887619D01*
X49482382Y52887619D01*
X49339524Y52935238D01*
X49244286Y53030476D01*
X49196667Y53125714D01*
X49149048Y53316190D01*
X49149048Y53459048D01*
X49196667Y53649524D01*
X49244286Y53744762D01*
X49339524Y53840000D01*
X49482382Y53887619D01*
X49577620Y53887619D01*
X49720477Y53840000D01*
X49768096Y53792381D01*
X50768096Y52982857D02*
X50720477Y52935238D01*
X50577620Y52887619D01*
X50482382Y52887619D01*
X50339524Y52935238D01*
X50244286Y53030476D01*
X50196667Y53125714D01*
X50149048Y53316190D01*
X50149048Y53459048D01*
X50196667Y53649524D01*
X50244286Y53744762D01*
X50339524Y53840000D01*
X50482382Y53887619D01*
X50577620Y53887619D01*
X50720477Y53840000D01*
X50768096Y53792381D01*
X48768096Y51300000D02*
X48672858Y51347619D01*
X48530001Y51347619D01*
X48387143Y51300000D01*
X48291905Y51204762D01*
X48244286Y51109524D01*
X48196667Y50919048D01*
X48196667Y50776190D01*
X48244286Y50585714D01*
X48291905Y50490476D01*
X48387143Y50395238D01*
X48530001Y50347619D01*
X48625239Y50347619D01*
X48768096Y50395238D01*
X48815715Y50442857D01*
X48815715Y50776190D01*
X48625239Y50776190D01*
X49244286Y50347619D02*
X49244286Y51347619D01*
X49815715Y50347619D01*
X49815715Y51347619D01*
X50291905Y50347619D02*
X50291905Y51347619D01*
X50530000Y51347619D01*
X50672858Y51300000D01*
X50768096Y51204762D01*
X50815715Y51109524D01*
X50863334Y50919048D01*
X50863334Y50776190D01*
X50815715Y50585714D01*
X50768096Y50490476D01*
X50672858Y50395238D01*
X50530000Y50347619D01*
X50291905Y50347619D01*
X114084286Y51457143D02*
X114084286Y50485714D01*
X114141429Y50371429D01*
X114198572Y50314286D01*
X114312858Y50257143D01*
X114541429Y50257143D01*
X114655715Y50314286D01*
X114712858Y50371429D01*
X114770001Y50485714D01*
X114770001Y51457143D01*
X115227144Y51457143D02*
X115970001Y51457143D01*
X115570001Y51000000D01*
X115741429Y51000000D01*
X115855715Y50942857D01*
X115912858Y50885714D01*
X115970001Y50771429D01*
X115970001Y50485714D01*
X115912858Y50371429D01*
X115855715Y50314286D01*
X115741429Y50257143D01*
X115398572Y50257143D01*
X115284286Y50314286D01*
X115227144Y50371429D01*
X116712858Y51457143D02*
X116827143Y51457143D01*
X116941429Y51400000D01*
X116998572Y51342857D01*
X117055715Y51228571D01*
X117112858Y51000000D01*
X117112858Y50714286D01*
X117055715Y50485714D01*
X116998572Y50371429D01*
X116941429Y50314286D01*
X116827143Y50257143D01*
X116712858Y50257143D01*
X116598572Y50314286D01*
X116541429Y50371429D01*
X116484286Y50485714D01*
X116427143Y50714286D01*
X116427143Y51000000D01*
X116484286Y51228571D01*
X116541429Y51342857D01*
X116598572Y51400000D01*
X116712858Y51457143D01*
X92440476Y58015238D02*
X92583333Y57967619D01*
X92821429Y57967619D01*
X92916667Y58015238D01*
X92964286Y58062857D01*
X93011905Y58158095D01*
X93011905Y58253333D01*
X92964286Y58348571D01*
X92916667Y58396190D01*
X92821429Y58443810D01*
X92630952Y58491429D01*
X92535714Y58539048D01*
X92488095Y58586667D01*
X92440476Y58681905D01*
X92440476Y58777143D01*
X92488095Y58872381D01*
X92535714Y58920000D01*
X92630952Y58967619D01*
X92869048Y58967619D01*
X93011905Y58920000D01*
X93440476Y57967619D02*
X93440476Y58967619D01*
X93821429Y58967619D01*
X93916667Y58920000D01*
X93964286Y58872381D01*
X94011905Y58777143D01*
X94011905Y58634286D01*
X93964286Y58539048D01*
X93916667Y58491429D01*
X93821429Y58443810D01*
X93440476Y58443810D01*
X94440476Y57967619D02*
X94440476Y58967619D01*
X94678571Y57872381D02*
X95440476Y57872381D01*
X95630952Y58015238D02*
X95773809Y57967619D01*
X96011905Y57967619D01*
X96107143Y58015238D01*
X96154762Y58062857D01*
X96202381Y58158095D01*
X96202381Y58253333D01*
X96154762Y58348571D01*
X96107143Y58396190D01*
X96011905Y58443810D01*
X95821428Y58491429D01*
X95726190Y58539048D01*
X95678571Y58586667D01*
X95630952Y58681905D01*
X95630952Y58777143D01*
X95678571Y58872381D01*
X95726190Y58920000D01*
X95821428Y58967619D01*
X96059524Y58967619D01*
X96202381Y58920000D01*
X96630952Y57967619D02*
X96630952Y58967619D01*
X96869047Y58967619D01*
X97011905Y58920000D01*
X97107143Y58824762D01*
X97154762Y58729524D01*
X97202381Y58539048D01*
X97202381Y58396190D01*
X97154762Y58205714D01*
X97107143Y58110476D01*
X97011905Y58015238D01*
X96869047Y57967619D01*
X96630952Y57967619D01*
X97583333Y58253333D02*
X98059524Y58253333D01*
X97488095Y57967619D02*
X97821428Y58967619D01*
X98154762Y57967619D01*
X92464286Y55475238D02*
X92607143Y55427619D01*
X92845239Y55427619D01*
X92940477Y55475238D01*
X92988096Y55522857D01*
X93035715Y55618095D01*
X93035715Y55713333D01*
X92988096Y55808571D01*
X92940477Y55856190D01*
X92845239Y55903810D01*
X92654762Y55951429D01*
X92559524Y55999048D01*
X92511905Y56046667D01*
X92464286Y56141905D01*
X92464286Y56237143D01*
X92511905Y56332381D01*
X92559524Y56380000D01*
X92654762Y56427619D01*
X92892858Y56427619D01*
X93035715Y56380000D01*
X93464286Y55427619D02*
X93464286Y56427619D01*
X93845239Y56427619D01*
X93940477Y56380000D01*
X93988096Y56332381D01*
X94035715Y56237143D01*
X94035715Y56094286D01*
X93988096Y55999048D01*
X93940477Y55951429D01*
X93845239Y55903810D01*
X93464286Y55903810D01*
X94464286Y55427619D02*
X94464286Y56427619D01*
X94702381Y55332381D02*
X95464286Y55332381D01*
X95654762Y55475238D02*
X95797619Y55427619D01*
X96035715Y55427619D01*
X96130953Y55475238D01*
X96178572Y55522857D01*
X96226191Y55618095D01*
X96226191Y55713333D01*
X96178572Y55808571D01*
X96130953Y55856190D01*
X96035715Y55903810D01*
X95845238Y55951429D01*
X95750000Y55999048D01*
X95702381Y56046667D01*
X95654762Y56141905D01*
X95654762Y56237143D01*
X95702381Y56332381D01*
X95750000Y56380000D01*
X95845238Y56427619D01*
X96083334Y56427619D01*
X96226191Y56380000D01*
X97226191Y55522857D02*
X97178572Y55475238D01*
X97035715Y55427619D01*
X96940477Y55427619D01*
X96797619Y55475238D01*
X96702381Y55570476D01*
X96654762Y55665714D01*
X96607143Y55856190D01*
X96607143Y55999048D01*
X96654762Y56189524D01*
X96702381Y56284762D01*
X96797619Y56380000D01*
X96940477Y56427619D01*
X97035715Y56427619D01*
X97178572Y56380000D01*
X97226191Y56332381D01*
X98130953Y55427619D02*
X97654762Y55427619D01*
X97654762Y56427619D01*
X92646667Y53887619D02*
X92980000Y52887619D01*
X93313334Y53887619D01*
X94218096Y52982857D02*
X94170477Y52935238D01*
X94027620Y52887619D01*
X93932382Y52887619D01*
X93789524Y52935238D01*
X93694286Y53030476D01*
X93646667Y53125714D01*
X93599048Y53316190D01*
X93599048Y53459048D01*
X93646667Y53649524D01*
X93694286Y53744762D01*
X93789524Y53840000D01*
X93932382Y53887619D01*
X94027620Y53887619D01*
X94170477Y53840000D01*
X94218096Y53792381D01*
X95218096Y52982857D02*
X95170477Y52935238D01*
X95027620Y52887619D01*
X94932382Y52887619D01*
X94789524Y52935238D01*
X94694286Y53030476D01*
X94646667Y53125714D01*
X94599048Y53316190D01*
X94599048Y53459048D01*
X94646667Y53649524D01*
X94694286Y53744762D01*
X94789524Y53840000D01*
X94932382Y53887619D01*
X95027620Y53887619D01*
X95170477Y53840000D01*
X95218096Y53792381D01*
X93218096Y51300000D02*
X93122858Y51347619D01*
X92980001Y51347619D01*
X92837143Y51300000D01*
X92741905Y51204762D01*
X92694286Y51109524D01*
X92646667Y50919048D01*
X92646667Y50776190D01*
X92694286Y50585714D01*
X92741905Y50490476D01*
X92837143Y50395238D01*
X92980001Y50347619D01*
X93075239Y50347619D01*
X93218096Y50395238D01*
X93265715Y50442857D01*
X93265715Y50776190D01*
X93075239Y50776190D01*
X93694286Y50347619D02*
X93694286Y51347619D01*
X94265715Y50347619D01*
X94265715Y51347619D01*
X94741905Y50347619D02*
X94741905Y51347619D01*
X94980000Y51347619D01*
X95122858Y51300000D01*
X95218096Y51204762D01*
X95265715Y51109524D01*
X95313334Y50919048D01*
X95313334Y50776190D01*
X95265715Y50585714D01*
X95218096Y50490476D01*
X95122858Y50395238D01*
X94980000Y50347619D01*
X94741905Y50347619D01*
X148374286Y51457143D02*
X148374286Y50485714D01*
X148431429Y50371429D01*
X148488572Y50314286D01*
X148602858Y50257143D01*
X148831429Y50257143D01*
X148945715Y50314286D01*
X149002858Y50371429D01*
X149060001Y50485714D01*
X149060001Y51457143D01*
X150145715Y51057143D02*
X150145715Y50257143D01*
X149860001Y51514286D02*
X149574286Y50657143D01*
X150317144Y50657143D01*
X151002858Y51457143D02*
X151117143Y51457143D01*
X151231429Y51400000D01*
X151288572Y51342857D01*
X151345715Y51228571D01*
X151402858Y51000000D01*
X151402858Y50714286D01*
X151345715Y50485714D01*
X151288572Y50371429D01*
X151231429Y50314286D01*
X151117143Y50257143D01*
X151002858Y50257143D01*
X150888572Y50314286D01*
X150831429Y50371429D01*
X150774286Y50485714D01*
X150717143Y50714286D01*
X150717143Y51000000D01*
X150774286Y51228571D01*
X150831429Y51342857D01*
X150888572Y51400000D01*
X151002858Y51457143D01*
X130540476Y58015238D02*
X130683333Y57967619D01*
X130921429Y57967619D01*
X131016667Y58015238D01*
X131064286Y58062857D01*
X131111905Y58158095D01*
X131111905Y58253333D01*
X131064286Y58348571D01*
X131016667Y58396190D01*
X130921429Y58443810D01*
X130730952Y58491429D01*
X130635714Y58539048D01*
X130588095Y58586667D01*
X130540476Y58681905D01*
X130540476Y58777143D01*
X130588095Y58872381D01*
X130635714Y58920000D01*
X130730952Y58967619D01*
X130969048Y58967619D01*
X131111905Y58920000D01*
X131540476Y57967619D02*
X131540476Y58967619D01*
X131921429Y58967619D01*
X132016667Y58920000D01*
X132064286Y58872381D01*
X132111905Y58777143D01*
X132111905Y58634286D01*
X132064286Y58539048D01*
X132016667Y58491429D01*
X131921429Y58443810D01*
X131540476Y58443810D01*
X132540476Y57967619D02*
X132540476Y58967619D01*
X132778571Y57872381D02*
X133540476Y57872381D01*
X133730952Y58015238D02*
X133873809Y57967619D01*
X134111905Y57967619D01*
X134207143Y58015238D01*
X134254762Y58062857D01*
X134302381Y58158095D01*
X134302381Y58253333D01*
X134254762Y58348571D01*
X134207143Y58396190D01*
X134111905Y58443810D01*
X133921428Y58491429D01*
X133826190Y58539048D01*
X133778571Y58586667D01*
X133730952Y58681905D01*
X133730952Y58777143D01*
X133778571Y58872381D01*
X133826190Y58920000D01*
X133921428Y58967619D01*
X134159524Y58967619D01*
X134302381Y58920000D01*
X134730952Y57967619D02*
X134730952Y58967619D01*
X134969047Y58967619D01*
X135111905Y58920000D01*
X135207143Y58824762D01*
X135254762Y58729524D01*
X135302381Y58539048D01*
X135302381Y58396190D01*
X135254762Y58205714D01*
X135207143Y58110476D01*
X135111905Y58015238D01*
X134969047Y57967619D01*
X134730952Y57967619D01*
X135683333Y58253333D02*
X136159524Y58253333D01*
X135588095Y57967619D02*
X135921428Y58967619D01*
X136254762Y57967619D01*
X130564286Y55475238D02*
X130707143Y55427619D01*
X130945239Y55427619D01*
X131040477Y55475238D01*
X131088096Y55522857D01*
X131135715Y55618095D01*
X131135715Y55713333D01*
X131088096Y55808571D01*
X131040477Y55856190D01*
X130945239Y55903810D01*
X130754762Y55951429D01*
X130659524Y55999048D01*
X130611905Y56046667D01*
X130564286Y56141905D01*
X130564286Y56237143D01*
X130611905Y56332381D01*
X130659524Y56380000D01*
X130754762Y56427619D01*
X130992858Y56427619D01*
X131135715Y56380000D01*
X131564286Y55427619D02*
X131564286Y56427619D01*
X131945239Y56427619D01*
X132040477Y56380000D01*
X132088096Y56332381D01*
X132135715Y56237143D01*
X132135715Y56094286D01*
X132088096Y55999048D01*
X132040477Y55951429D01*
X131945239Y55903810D01*
X131564286Y55903810D01*
X132564286Y55427619D02*
X132564286Y56427619D01*
X132802381Y55332381D02*
X133564286Y55332381D01*
X133754762Y55475238D02*
X133897619Y55427619D01*
X134135715Y55427619D01*
X134230953Y55475238D01*
X134278572Y55522857D01*
X134326191Y55618095D01*
X134326191Y55713333D01*
X134278572Y55808571D01*
X134230953Y55856190D01*
X134135715Y55903810D01*
X133945238Y55951429D01*
X133850000Y55999048D01*
X133802381Y56046667D01*
X133754762Y56141905D01*
X133754762Y56237143D01*
X133802381Y56332381D01*
X133850000Y56380000D01*
X133945238Y56427619D01*
X134183334Y56427619D01*
X134326191Y56380000D01*
X135326191Y55522857D02*
X135278572Y55475238D01*
X135135715Y55427619D01*
X135040477Y55427619D01*
X134897619Y55475238D01*
X134802381Y55570476D01*
X134754762Y55665714D01*
X134707143Y55856190D01*
X134707143Y55999048D01*
X134754762Y56189524D01*
X134802381Y56284762D01*
X134897619Y56380000D01*
X135040477Y56427619D01*
X135135715Y56427619D01*
X135278572Y56380000D01*
X135326191Y56332381D01*
X136230953Y55427619D02*
X135754762Y55427619D01*
X135754762Y56427619D01*
X130746667Y53887619D02*
X131080000Y52887619D01*
X131413334Y53887619D01*
X132318096Y52982857D02*
X132270477Y52935238D01*
X132127620Y52887619D01*
X132032382Y52887619D01*
X131889524Y52935238D01*
X131794286Y53030476D01*
X131746667Y53125714D01*
X131699048Y53316190D01*
X131699048Y53459048D01*
X131746667Y53649524D01*
X131794286Y53744762D01*
X131889524Y53840000D01*
X132032382Y53887619D01*
X132127620Y53887619D01*
X132270477Y53840000D01*
X132318096Y53792381D01*
X133318096Y52982857D02*
X133270477Y52935238D01*
X133127620Y52887619D01*
X133032382Y52887619D01*
X132889524Y52935238D01*
X132794286Y53030476D01*
X132746667Y53125714D01*
X132699048Y53316190D01*
X132699048Y53459048D01*
X132746667Y53649524D01*
X132794286Y53744762D01*
X132889524Y53840000D01*
X133032382Y53887619D01*
X133127620Y53887619D01*
X133270477Y53840000D01*
X133318096Y53792381D01*
X131318096Y51300000D02*
X131222858Y51347619D01*
X131080001Y51347619D01*
X130937143Y51300000D01*
X130841905Y51204762D01*
X130794286Y51109524D01*
X130746667Y50919048D01*
X130746667Y50776190D01*
X130794286Y50585714D01*
X130841905Y50490476D01*
X130937143Y50395238D01*
X131080001Y50347619D01*
X131175239Y50347619D01*
X131318096Y50395238D01*
X131365715Y50442857D01*
X131365715Y50776190D01*
X131175239Y50776190D01*
X131794286Y50347619D02*
X131794286Y51347619D01*
X132365715Y50347619D01*
X132365715Y51347619D01*
X132841905Y50347619D02*
X132841905Y51347619D01*
X133080000Y51347619D01*
X133222858Y51300000D01*
X133318096Y51204762D01*
X133365715Y51109524D01*
X133413334Y50919048D01*
X133413334Y50776190D01*
X133365715Y50585714D01*
X133318096Y50490476D01*
X133222858Y50395238D01*
X133080000Y50347619D01*
X132841905Y50347619D01*
X152233334Y33837619D02*
X151900000Y34313810D01*
X151661905Y33837619D02*
X151661905Y34837619D01*
X152042858Y34837619D01*
X152138096Y34790000D01*
X152185715Y34742381D01*
X152233334Y34647143D01*
X152233334Y34504286D01*
X152185715Y34409048D01*
X152138096Y34361429D01*
X152042858Y34313810D01*
X151661905Y34313810D01*
X152566667Y34837619D02*
X153233334Y34837619D01*
X152804762Y33837619D01*
X141676381Y37604762D02*
X141200190Y37271428D01*
X141676381Y37033333D02*
X140676381Y37033333D01*
X140676381Y37414286D01*
X140724000Y37509524D01*
X140771619Y37557143D01*
X140866857Y37604762D01*
X141009714Y37604762D01*
X141104952Y37557143D01*
X141152571Y37509524D01*
X141200190Y37414286D01*
X141200190Y37033333D01*
X141676381Y38033333D02*
X140676381Y38033333D01*
X141676381Y38604762D02*
X141104952Y38176190D01*
X140676381Y38604762D02*
X141247810Y38033333D01*
X140676381Y39223809D02*
X140676381Y39319048D01*
X140724000Y39414286D01*
X140771619Y39461905D01*
X140866857Y39509524D01*
X141057333Y39557143D01*
X141295429Y39557143D01*
X141485905Y39509524D01*
X141581143Y39461905D01*
X141628762Y39414286D01*
X141676381Y39319048D01*
X141676381Y39223809D01*
X141628762Y39128571D01*
X141581143Y39080952D01*
X141485905Y39033333D01*
X141295429Y38985714D01*
X141057333Y38985714D01*
X140866857Y39033333D01*
X140771619Y39080952D01*
X140724000Y39128571D01*
X140676381Y39223809D01*
X141676381Y40033333D02*
X141676381Y40223809D01*
X141628762Y40319048D01*
X141581143Y40366667D01*
X141438286Y40461905D01*
X141247810Y40509524D01*
X140866857Y40509524D01*
X140771619Y40461905D01*
X140724000Y40414286D01*
X140676381Y40319048D01*
X140676381Y40128571D01*
X140724000Y40033333D01*
X140771619Y39985714D01*
X140866857Y39938095D01*
X141104952Y39938095D01*
X141200190Y39985714D01*
X141247810Y40033333D01*
X141295429Y40128571D01*
X141295429Y40319048D01*
X141247810Y40414286D01*
X141200190Y40461905D01*
X141104952Y40509524D01*
X141676381Y40938095D02*
X140676381Y40938095D01*
X141676381Y41509524D02*
X141104952Y41080952D01*
X140676381Y41509524D02*
X141247810Y40938095D01*
X141676381Y42461905D02*
X141676381Y41890476D01*
X141676381Y42176190D02*
X140676381Y42176190D01*
X140819238Y42080952D01*
X140914476Y41985714D01*
X140962095Y41890476D01*
X141676381Y43414286D02*
X141676381Y42842857D01*
X141676381Y43128571D02*
X140676381Y43128571D01*
X140819238Y43033333D01*
X140914476Y42938095D01*
X140962095Y42842857D01*
X140676381Y43747619D02*
X140676381Y44366667D01*
X141057333Y44033333D01*
X141057333Y44176191D01*
X141104952Y44271429D01*
X141152571Y44319048D01*
X141247810Y44366667D01*
X141485905Y44366667D01*
X141581143Y44319048D01*
X141628762Y44271429D01*
X141676381Y44176191D01*
X141676381Y43890476D01*
X141628762Y43795238D01*
X141581143Y43747619D01*
X140676381Y44985714D02*
X140676381Y45080953D01*
X140724000Y45176191D01*
X140771619Y45223810D01*
X140866857Y45271429D01*
X141057333Y45319048D01*
X141295429Y45319048D01*
X141485905Y45271429D01*
X141581143Y45223810D01*
X141628762Y45176191D01*
X141676381Y45080953D01*
X141676381Y44985714D01*
X141628762Y44890476D01*
X141581143Y44842857D01*
X141485905Y44795238D01*
X141295429Y44747619D01*
X141057333Y44747619D01*
X140866857Y44795238D01*
X140771619Y44842857D01*
X140724000Y44890476D01*
X140676381Y44985714D01*
X141152571Y46080953D02*
X141200190Y46223810D01*
X141247810Y46271429D01*
X141343048Y46319048D01*
X141485905Y46319048D01*
X141581143Y46271429D01*
X141628762Y46223810D01*
X141676381Y46128572D01*
X141676381Y45747619D01*
X140676381Y45747619D01*
X140676381Y46080953D01*
X140724000Y46176191D01*
X140771619Y46223810D01*
X140866857Y46271429D01*
X140962095Y46271429D01*
X141057333Y46223810D01*
X141104952Y46176191D01*
X141152571Y46080953D01*
X141152571Y45747619D01*
X141676381Y46747619D02*
X140676381Y46747619D01*
X141390667Y47080953D01*
X140676381Y47414286D01*
X141676381Y47414286D01*
X141009714Y48319048D02*
X141676381Y48319048D01*
X140628762Y48080952D02*
X141343048Y47842857D01*
X141343048Y48461905D01*
X133183334Y33837619D02*
X132850000Y34313810D01*
X132611905Y33837619D02*
X132611905Y34837619D01*
X132992858Y34837619D01*
X133088096Y34790000D01*
X133135715Y34742381D01*
X133183334Y34647143D01*
X133183334Y34504286D01*
X133135715Y34409048D01*
X133088096Y34361429D01*
X132992858Y34313810D01*
X132611905Y34313810D01*
X134040477Y34837619D02*
X133850000Y34837619D01*
X133754762Y34790000D01*
X133707143Y34742381D01*
X133611905Y34599524D01*
X133564286Y34409048D01*
X133564286Y34028095D01*
X133611905Y33932857D01*
X133659524Y33885238D01*
X133754762Y33837619D01*
X133945239Y33837619D01*
X134040477Y33885238D01*
X134088096Y33932857D01*
X134135715Y34028095D01*
X134135715Y34266190D01*
X134088096Y34361429D01*
X134040477Y34409048D01*
X133945239Y34456667D01*
X133754762Y34456667D01*
X133659524Y34409048D01*
X133611905Y34361429D01*
X133564286Y34266190D01*
X121864381Y37576762D02*
X121388190Y37243428D01*
X121864381Y37005333D02*
X120864381Y37005333D01*
X120864381Y37386286D01*
X120912000Y37481524D01*
X120959619Y37529143D01*
X121054857Y37576762D01*
X121197714Y37576762D01*
X121292952Y37529143D01*
X121340571Y37481524D01*
X121388190Y37386286D01*
X121388190Y37005333D01*
X121864381Y38005333D02*
X120864381Y38005333D01*
X121864381Y38576762D02*
X121292952Y38148190D01*
X120864381Y38576762D02*
X121435810Y38005333D01*
X120864381Y39195809D02*
X120864381Y39291048D01*
X120912000Y39386286D01*
X120959619Y39433905D01*
X121054857Y39481524D01*
X121245333Y39529143D01*
X121483429Y39529143D01*
X121673905Y39481524D01*
X121769143Y39433905D01*
X121816762Y39386286D01*
X121864381Y39291048D01*
X121864381Y39195809D01*
X121816762Y39100571D01*
X121769143Y39052952D01*
X121673905Y39005333D01*
X121483429Y38957714D01*
X121245333Y38957714D01*
X121054857Y39005333D01*
X120959619Y39052952D01*
X120912000Y39100571D01*
X120864381Y39195809D01*
X121864381Y40005333D02*
X121864381Y40195809D01*
X121816762Y40291048D01*
X121769143Y40338667D01*
X121626286Y40433905D01*
X121435810Y40481524D01*
X121054857Y40481524D01*
X120959619Y40433905D01*
X120912000Y40386286D01*
X120864381Y40291048D01*
X120864381Y40100571D01*
X120912000Y40005333D01*
X120959619Y39957714D01*
X121054857Y39910095D01*
X121292952Y39910095D01*
X121388190Y39957714D01*
X121435810Y40005333D01*
X121483429Y40100571D01*
X121483429Y40291048D01*
X121435810Y40386286D01*
X121388190Y40433905D01*
X121292952Y40481524D01*
X121864381Y40910095D02*
X120864381Y40910095D01*
X121864381Y41481524D02*
X121292952Y41052952D01*
X120864381Y41481524D02*
X121435810Y40910095D01*
X121864381Y42433905D02*
X121864381Y41862476D01*
X121864381Y42148190D02*
X120864381Y42148190D01*
X121007238Y42052952D01*
X121102476Y41957714D01*
X121150095Y41862476D01*
X121864381Y43386286D02*
X121864381Y42814857D01*
X121864381Y43100571D02*
X120864381Y43100571D01*
X121007238Y43005333D01*
X121102476Y42910095D01*
X121150095Y42814857D01*
X120864381Y43719619D02*
X120864381Y44338667D01*
X121245333Y44005333D01*
X121245333Y44148191D01*
X121292952Y44243429D01*
X121340571Y44291048D01*
X121435810Y44338667D01*
X121673905Y44338667D01*
X121769143Y44291048D01*
X121816762Y44243429D01*
X121864381Y44148191D01*
X121864381Y43862476D01*
X121816762Y43767238D01*
X121769143Y43719619D01*
X120864381Y44957714D02*
X120864381Y45052953D01*
X120912000Y45148191D01*
X120959619Y45195810D01*
X121054857Y45243429D01*
X121245333Y45291048D01*
X121483429Y45291048D01*
X121673905Y45243429D01*
X121769143Y45195810D01*
X121816762Y45148191D01*
X121864381Y45052953D01*
X121864381Y44957714D01*
X121816762Y44862476D01*
X121769143Y44814857D01*
X121673905Y44767238D01*
X121483429Y44719619D01*
X121245333Y44719619D01*
X121054857Y44767238D01*
X120959619Y44814857D01*
X120912000Y44862476D01*
X120864381Y44957714D01*
X121340571Y46052953D02*
X121388190Y46195810D01*
X121435810Y46243429D01*
X121531048Y46291048D01*
X121673905Y46291048D01*
X121769143Y46243429D01*
X121816762Y46195810D01*
X121864381Y46100572D01*
X121864381Y45719619D01*
X120864381Y45719619D01*
X120864381Y46052953D01*
X120912000Y46148191D01*
X120959619Y46195810D01*
X121054857Y46243429D01*
X121150095Y46243429D01*
X121245333Y46195810D01*
X121292952Y46148191D01*
X121340571Y46052953D01*
X121340571Y45719619D01*
X121864381Y46719619D02*
X120864381Y46719619D01*
X121578667Y47052953D01*
X120864381Y47386286D01*
X121864381Y47386286D01*
X121197714Y48291048D02*
X121864381Y48291048D01*
X120816762Y48052952D02*
X121531048Y47814857D01*
X121531048Y48433905D01*
X112863334Y33837619D02*
X112530000Y34313810D01*
X112291905Y33837619D02*
X112291905Y34837619D01*
X112672858Y34837619D01*
X112768096Y34790000D01*
X112815715Y34742381D01*
X112863334Y34647143D01*
X112863334Y34504286D01*
X112815715Y34409048D01*
X112768096Y34361429D01*
X112672858Y34313810D01*
X112291905Y34313810D01*
X113768096Y34837619D02*
X113291905Y34837619D01*
X113244286Y34361429D01*
X113291905Y34409048D01*
X113387143Y34456667D01*
X113625239Y34456667D01*
X113720477Y34409048D01*
X113768096Y34361429D01*
X113815715Y34266190D01*
X113815715Y34028095D01*
X113768096Y33932857D01*
X113720477Y33885238D01*
X113625239Y33837619D01*
X113387143Y33837619D01*
X113291905Y33885238D01*
X113244286Y33932857D01*
X102052381Y37576762D02*
X101576190Y37243428D01*
X102052381Y37005333D02*
X101052381Y37005333D01*
X101052381Y37386286D01*
X101100000Y37481524D01*
X101147619Y37529143D01*
X101242857Y37576762D01*
X101385714Y37576762D01*
X101480952Y37529143D01*
X101528571Y37481524D01*
X101576190Y37386286D01*
X101576190Y37005333D01*
X102052381Y38005333D02*
X101052381Y38005333D01*
X102052381Y38576762D02*
X101480952Y38148190D01*
X101052381Y38576762D02*
X101623810Y38005333D01*
X101052381Y39195809D02*
X101052381Y39291048D01*
X101100000Y39386286D01*
X101147619Y39433905D01*
X101242857Y39481524D01*
X101433333Y39529143D01*
X101671429Y39529143D01*
X101861905Y39481524D01*
X101957143Y39433905D01*
X102004762Y39386286D01*
X102052381Y39291048D01*
X102052381Y39195809D01*
X102004762Y39100571D01*
X101957143Y39052952D01*
X101861905Y39005333D01*
X101671429Y38957714D01*
X101433333Y38957714D01*
X101242857Y39005333D01*
X101147619Y39052952D01*
X101100000Y39100571D01*
X101052381Y39195809D01*
X102052381Y40005333D02*
X102052381Y40195809D01*
X102004762Y40291048D01*
X101957143Y40338667D01*
X101814286Y40433905D01*
X101623810Y40481524D01*
X101242857Y40481524D01*
X101147619Y40433905D01*
X101100000Y40386286D01*
X101052381Y40291048D01*
X101052381Y40100571D01*
X101100000Y40005333D01*
X101147619Y39957714D01*
X101242857Y39910095D01*
X101480952Y39910095D01*
X101576190Y39957714D01*
X101623810Y40005333D01*
X101671429Y40100571D01*
X101671429Y40291048D01*
X101623810Y40386286D01*
X101576190Y40433905D01*
X101480952Y40481524D01*
X102052381Y40910095D02*
X101052381Y40910095D01*
X102052381Y41481524D02*
X101480952Y41052952D01*
X101052381Y41481524D02*
X101623810Y40910095D01*
X102052381Y42433905D02*
X102052381Y41862476D01*
X102052381Y42148190D02*
X101052381Y42148190D01*
X101195238Y42052952D01*
X101290476Y41957714D01*
X101338095Y41862476D01*
X102052381Y43386286D02*
X102052381Y42814857D01*
X102052381Y43100571D02*
X101052381Y43100571D01*
X101195238Y43005333D01*
X101290476Y42910095D01*
X101338095Y42814857D01*
X101052381Y43719619D02*
X101052381Y44338667D01*
X101433333Y44005333D01*
X101433333Y44148191D01*
X101480952Y44243429D01*
X101528571Y44291048D01*
X101623810Y44338667D01*
X101861905Y44338667D01*
X101957143Y44291048D01*
X102004762Y44243429D01*
X102052381Y44148191D01*
X102052381Y43862476D01*
X102004762Y43767238D01*
X101957143Y43719619D01*
X101052381Y44957714D02*
X101052381Y45052953D01*
X101100000Y45148191D01*
X101147619Y45195810D01*
X101242857Y45243429D01*
X101433333Y45291048D01*
X101671429Y45291048D01*
X101861905Y45243429D01*
X101957143Y45195810D01*
X102004762Y45148191D01*
X102052381Y45052953D01*
X102052381Y44957714D01*
X102004762Y44862476D01*
X101957143Y44814857D01*
X101861905Y44767238D01*
X101671429Y44719619D01*
X101433333Y44719619D01*
X101242857Y44767238D01*
X101147619Y44814857D01*
X101100000Y44862476D01*
X101052381Y44957714D01*
X101528571Y46052953D02*
X101576190Y46195810D01*
X101623810Y46243429D01*
X101719048Y46291048D01*
X101861905Y46291048D01*
X101957143Y46243429D01*
X102004762Y46195810D01*
X102052381Y46100572D01*
X102052381Y45719619D01*
X101052381Y45719619D01*
X101052381Y46052953D01*
X101100000Y46148191D01*
X101147619Y46195810D01*
X101242857Y46243429D01*
X101338095Y46243429D01*
X101433333Y46195810D01*
X101480952Y46148191D01*
X101528571Y46052953D01*
X101528571Y45719619D01*
X102052381Y46719619D02*
X101052381Y46719619D01*
X101766667Y47052953D01*
X101052381Y47386286D01*
X102052381Y47386286D01*
X101385714Y48291048D02*
X102052381Y48291048D01*
X101004762Y48052952D02*
X101719048Y47814857D01*
X101719048Y48433905D01*
X92543334Y33837619D02*
X92210000Y34313810D01*
X91971905Y33837619D02*
X91971905Y34837619D01*
X92352858Y34837619D01*
X92448096Y34790000D01*
X92495715Y34742381D01*
X92543334Y34647143D01*
X92543334Y34504286D01*
X92495715Y34409048D01*
X92448096Y34361429D01*
X92352858Y34313810D01*
X91971905Y34313810D01*
X93400477Y34504286D02*
X93400477Y33837619D01*
X93162381Y34885238D02*
X92924286Y34170952D01*
X93543334Y34170952D01*
X82494381Y37576762D02*
X82018190Y37243428D01*
X82494381Y37005333D02*
X81494381Y37005333D01*
X81494381Y37386286D01*
X81542000Y37481524D01*
X81589619Y37529143D01*
X81684857Y37576762D01*
X81827714Y37576762D01*
X81922952Y37529143D01*
X81970571Y37481524D01*
X82018190Y37386286D01*
X82018190Y37005333D01*
X82494381Y38005333D02*
X81494381Y38005333D01*
X82494381Y38576762D02*
X81922952Y38148190D01*
X81494381Y38576762D02*
X82065810Y38005333D01*
X81494381Y39195809D02*
X81494381Y39291048D01*
X81542000Y39386286D01*
X81589619Y39433905D01*
X81684857Y39481524D01*
X81875333Y39529143D01*
X82113429Y39529143D01*
X82303905Y39481524D01*
X82399143Y39433905D01*
X82446762Y39386286D01*
X82494381Y39291048D01*
X82494381Y39195809D01*
X82446762Y39100571D01*
X82399143Y39052952D01*
X82303905Y39005333D01*
X82113429Y38957714D01*
X81875333Y38957714D01*
X81684857Y39005333D01*
X81589619Y39052952D01*
X81542000Y39100571D01*
X81494381Y39195809D01*
X82494381Y40005333D02*
X82494381Y40195809D01*
X82446762Y40291048D01*
X82399143Y40338667D01*
X82256286Y40433905D01*
X82065810Y40481524D01*
X81684857Y40481524D01*
X81589619Y40433905D01*
X81542000Y40386286D01*
X81494381Y40291048D01*
X81494381Y40100571D01*
X81542000Y40005333D01*
X81589619Y39957714D01*
X81684857Y39910095D01*
X81922952Y39910095D01*
X82018190Y39957714D01*
X82065810Y40005333D01*
X82113429Y40100571D01*
X82113429Y40291048D01*
X82065810Y40386286D01*
X82018190Y40433905D01*
X81922952Y40481524D01*
X82494381Y40910095D02*
X81494381Y40910095D01*
X82494381Y41481524D02*
X81922952Y41052952D01*
X81494381Y41481524D02*
X82065810Y40910095D01*
X82494381Y42433905D02*
X82494381Y41862476D01*
X82494381Y42148190D02*
X81494381Y42148190D01*
X81637238Y42052952D01*
X81732476Y41957714D01*
X81780095Y41862476D01*
X82494381Y43386286D02*
X82494381Y42814857D01*
X82494381Y43100571D02*
X81494381Y43100571D01*
X81637238Y43005333D01*
X81732476Y42910095D01*
X81780095Y42814857D01*
X81494381Y43719619D02*
X81494381Y44338667D01*
X81875333Y44005333D01*
X81875333Y44148191D01*
X81922952Y44243429D01*
X81970571Y44291048D01*
X82065810Y44338667D01*
X82303905Y44338667D01*
X82399143Y44291048D01*
X82446762Y44243429D01*
X82494381Y44148191D01*
X82494381Y43862476D01*
X82446762Y43767238D01*
X82399143Y43719619D01*
X81494381Y44957714D02*
X81494381Y45052953D01*
X81542000Y45148191D01*
X81589619Y45195810D01*
X81684857Y45243429D01*
X81875333Y45291048D01*
X82113429Y45291048D01*
X82303905Y45243429D01*
X82399143Y45195810D01*
X82446762Y45148191D01*
X82494381Y45052953D01*
X82494381Y44957714D01*
X82446762Y44862476D01*
X82399143Y44814857D01*
X82303905Y44767238D01*
X82113429Y44719619D01*
X81875333Y44719619D01*
X81684857Y44767238D01*
X81589619Y44814857D01*
X81542000Y44862476D01*
X81494381Y44957714D01*
X81970571Y46052953D02*
X82018190Y46195810D01*
X82065810Y46243429D01*
X82161048Y46291048D01*
X82303905Y46291048D01*
X82399143Y46243429D01*
X82446762Y46195810D01*
X82494381Y46100572D01*
X82494381Y45719619D01*
X81494381Y45719619D01*
X81494381Y46052953D01*
X81542000Y46148191D01*
X81589619Y46195810D01*
X81684857Y46243429D01*
X81780095Y46243429D01*
X81875333Y46195810D01*
X81922952Y46148191D01*
X81970571Y46052953D01*
X81970571Y45719619D01*
X82494381Y46719619D02*
X81494381Y46719619D01*
X82208667Y47052953D01*
X81494381Y47386286D01*
X82494381Y47386286D01*
X81827714Y48291048D02*
X82494381Y48291048D01*
X81446762Y48052952D02*
X82161048Y47814857D01*
X82161048Y48433905D01*
X73493334Y33837619D02*
X73160000Y34313810D01*
X72921905Y33837619D02*
X72921905Y34837619D01*
X73302858Y34837619D01*
X73398096Y34790000D01*
X73445715Y34742381D01*
X73493334Y34647143D01*
X73493334Y34504286D01*
X73445715Y34409048D01*
X73398096Y34361429D01*
X73302858Y34313810D01*
X72921905Y34313810D01*
X73826667Y34837619D02*
X74445715Y34837619D01*
X74112381Y34456667D01*
X74255239Y34456667D01*
X74350477Y34409048D01*
X74398096Y34361429D01*
X74445715Y34266190D01*
X74445715Y34028095D01*
X74398096Y33932857D01*
X74350477Y33885238D01*
X74255239Y33837619D01*
X73969524Y33837619D01*
X73874286Y33885238D01*
X73826667Y33932857D01*
X62936381Y37604762D02*
X62460190Y37271428D01*
X62936381Y37033333D02*
X61936381Y37033333D01*
X61936381Y37414286D01*
X61984000Y37509524D01*
X62031619Y37557143D01*
X62126857Y37604762D01*
X62269714Y37604762D01*
X62364952Y37557143D01*
X62412571Y37509524D01*
X62460190Y37414286D01*
X62460190Y37033333D01*
X62936381Y38033333D02*
X61936381Y38033333D01*
X62936381Y38604762D02*
X62364952Y38176190D01*
X61936381Y38604762D02*
X62507810Y38033333D01*
X61936381Y39223809D02*
X61936381Y39319048D01*
X61984000Y39414286D01*
X62031619Y39461905D01*
X62126857Y39509524D01*
X62317333Y39557143D01*
X62555429Y39557143D01*
X62745905Y39509524D01*
X62841143Y39461905D01*
X62888762Y39414286D01*
X62936381Y39319048D01*
X62936381Y39223809D01*
X62888762Y39128571D01*
X62841143Y39080952D01*
X62745905Y39033333D01*
X62555429Y38985714D01*
X62317333Y38985714D01*
X62126857Y39033333D01*
X62031619Y39080952D01*
X61984000Y39128571D01*
X61936381Y39223809D01*
X62936381Y40033333D02*
X62936381Y40223809D01*
X62888762Y40319048D01*
X62841143Y40366667D01*
X62698286Y40461905D01*
X62507810Y40509524D01*
X62126857Y40509524D01*
X62031619Y40461905D01*
X61984000Y40414286D01*
X61936381Y40319048D01*
X61936381Y40128571D01*
X61984000Y40033333D01*
X62031619Y39985714D01*
X62126857Y39938095D01*
X62364952Y39938095D01*
X62460190Y39985714D01*
X62507810Y40033333D01*
X62555429Y40128571D01*
X62555429Y40319048D01*
X62507810Y40414286D01*
X62460190Y40461905D01*
X62364952Y40509524D01*
X62936381Y40938095D02*
X61936381Y40938095D01*
X62936381Y41509524D02*
X62364952Y41080952D01*
X61936381Y41509524D02*
X62507810Y40938095D01*
X62936381Y42461905D02*
X62936381Y41890476D01*
X62936381Y42176190D02*
X61936381Y42176190D01*
X62079238Y42080952D01*
X62174476Y41985714D01*
X62222095Y41890476D01*
X62936381Y43414286D02*
X62936381Y42842857D01*
X62936381Y43128571D02*
X61936381Y43128571D01*
X62079238Y43033333D01*
X62174476Y42938095D01*
X62222095Y42842857D01*
X61936381Y43747619D02*
X61936381Y44366667D01*
X62317333Y44033333D01*
X62317333Y44176191D01*
X62364952Y44271429D01*
X62412571Y44319048D01*
X62507810Y44366667D01*
X62745905Y44366667D01*
X62841143Y44319048D01*
X62888762Y44271429D01*
X62936381Y44176191D01*
X62936381Y43890476D01*
X62888762Y43795238D01*
X62841143Y43747619D01*
X61936381Y44985714D02*
X61936381Y45080953D01*
X61984000Y45176191D01*
X62031619Y45223810D01*
X62126857Y45271429D01*
X62317333Y45319048D01*
X62555429Y45319048D01*
X62745905Y45271429D01*
X62841143Y45223810D01*
X62888762Y45176191D01*
X62936381Y45080953D01*
X62936381Y44985714D01*
X62888762Y44890476D01*
X62841143Y44842857D01*
X62745905Y44795238D01*
X62555429Y44747619D01*
X62317333Y44747619D01*
X62126857Y44795238D01*
X62031619Y44842857D01*
X61984000Y44890476D01*
X61936381Y44985714D01*
X62412571Y46080953D02*
X62460190Y46223810D01*
X62507810Y46271429D01*
X62603048Y46319048D01*
X62745905Y46319048D01*
X62841143Y46271429D01*
X62888762Y46223810D01*
X62936381Y46128572D01*
X62936381Y45747619D01*
X61936381Y45747619D01*
X61936381Y46080953D01*
X61984000Y46176191D01*
X62031619Y46223810D01*
X62126857Y46271429D01*
X62222095Y46271429D01*
X62317333Y46223810D01*
X62364952Y46176191D01*
X62412571Y46080953D01*
X62412571Y45747619D01*
X62936381Y46747619D02*
X61936381Y46747619D01*
X62650667Y47080953D01*
X61936381Y47414286D01*
X62936381Y47414286D01*
X62269714Y48319048D02*
X62936381Y48319048D01*
X61888762Y48080952D02*
X62603048Y47842857D01*
X62603048Y48461905D01*
X53173334Y33837619D02*
X52840000Y34313810D01*
X52601905Y33837619D02*
X52601905Y34837619D01*
X52982858Y34837619D01*
X53078096Y34790000D01*
X53125715Y34742381D01*
X53173334Y34647143D01*
X53173334Y34504286D01*
X53125715Y34409048D01*
X53078096Y34361429D01*
X52982858Y34313810D01*
X52601905Y34313810D01*
X53554286Y34742381D02*
X53601905Y34790000D01*
X53697143Y34837619D01*
X53935239Y34837619D01*
X54030477Y34790000D01*
X54078096Y34742381D01*
X54125715Y34647143D01*
X54125715Y34551905D01*
X54078096Y34409048D01*
X53506667Y33837619D01*
X54125715Y33837619D01*
X43124381Y37576762D02*
X42648190Y37243428D01*
X43124381Y37005333D02*
X42124381Y37005333D01*
X42124381Y37386286D01*
X42172000Y37481524D01*
X42219619Y37529143D01*
X42314857Y37576762D01*
X42457714Y37576762D01*
X42552952Y37529143D01*
X42600571Y37481524D01*
X42648190Y37386286D01*
X42648190Y37005333D01*
X43124381Y38005333D02*
X42124381Y38005333D01*
X43124381Y38576762D02*
X42552952Y38148190D01*
X42124381Y38576762D02*
X42695810Y38005333D01*
X42124381Y39195809D02*
X42124381Y39291048D01*
X42172000Y39386286D01*
X42219619Y39433905D01*
X42314857Y39481524D01*
X42505333Y39529143D01*
X42743429Y39529143D01*
X42933905Y39481524D01*
X43029143Y39433905D01*
X43076762Y39386286D01*
X43124381Y39291048D01*
X43124381Y39195809D01*
X43076762Y39100571D01*
X43029143Y39052952D01*
X42933905Y39005333D01*
X42743429Y38957714D01*
X42505333Y38957714D01*
X42314857Y39005333D01*
X42219619Y39052952D01*
X42172000Y39100571D01*
X42124381Y39195809D01*
X43124381Y40005333D02*
X43124381Y40195809D01*
X43076762Y40291048D01*
X43029143Y40338667D01*
X42886286Y40433905D01*
X42695810Y40481524D01*
X42314857Y40481524D01*
X42219619Y40433905D01*
X42172000Y40386286D01*
X42124381Y40291048D01*
X42124381Y40100571D01*
X42172000Y40005333D01*
X42219619Y39957714D01*
X42314857Y39910095D01*
X42552952Y39910095D01*
X42648190Y39957714D01*
X42695810Y40005333D01*
X42743429Y40100571D01*
X42743429Y40291048D01*
X42695810Y40386286D01*
X42648190Y40433905D01*
X42552952Y40481524D01*
X43124381Y40910095D02*
X42124381Y40910095D01*
X43124381Y41481524D02*
X42552952Y41052952D01*
X42124381Y41481524D02*
X42695810Y40910095D01*
X43124381Y42433905D02*
X43124381Y41862476D01*
X43124381Y42148190D02*
X42124381Y42148190D01*
X42267238Y42052952D01*
X42362476Y41957714D01*
X42410095Y41862476D01*
X43124381Y43386286D02*
X43124381Y42814857D01*
X43124381Y43100571D02*
X42124381Y43100571D01*
X42267238Y43005333D01*
X42362476Y42910095D01*
X42410095Y42814857D01*
X42124381Y43719619D02*
X42124381Y44338667D01*
X42505333Y44005333D01*
X42505333Y44148191D01*
X42552952Y44243429D01*
X42600571Y44291048D01*
X42695810Y44338667D01*
X42933905Y44338667D01*
X43029143Y44291048D01*
X43076762Y44243429D01*
X43124381Y44148191D01*
X43124381Y43862476D01*
X43076762Y43767238D01*
X43029143Y43719619D01*
X42124381Y44957714D02*
X42124381Y45052953D01*
X42172000Y45148191D01*
X42219619Y45195810D01*
X42314857Y45243429D01*
X42505333Y45291048D01*
X42743429Y45291048D01*
X42933905Y45243429D01*
X43029143Y45195810D01*
X43076762Y45148191D01*
X43124381Y45052953D01*
X43124381Y44957714D01*
X43076762Y44862476D01*
X43029143Y44814857D01*
X42933905Y44767238D01*
X42743429Y44719619D01*
X42505333Y44719619D01*
X42314857Y44767238D01*
X42219619Y44814857D01*
X42172000Y44862476D01*
X42124381Y44957714D01*
X42600571Y46052953D02*
X42648190Y46195810D01*
X42695810Y46243429D01*
X42791048Y46291048D01*
X42933905Y46291048D01*
X43029143Y46243429D01*
X43076762Y46195810D01*
X43124381Y46100572D01*
X43124381Y45719619D01*
X42124381Y45719619D01*
X42124381Y46052953D01*
X42172000Y46148191D01*
X42219619Y46195810D01*
X42314857Y46243429D01*
X42410095Y46243429D01*
X42505333Y46195810D01*
X42552952Y46148191D01*
X42600571Y46052953D01*
X42600571Y45719619D01*
X43124381Y46719619D02*
X42124381Y46719619D01*
X42838667Y47052953D01*
X42124381Y47386286D01*
X43124381Y47386286D01*
X42457714Y48291048D02*
X43124381Y48291048D01*
X42076762Y48052952D02*
X42791048Y47814857D01*
X42791048Y48433905D01*
X34123334Y33837619D02*
X33790000Y34313810D01*
X33551905Y33837619D02*
X33551905Y34837619D01*
X33932858Y34837619D01*
X34028096Y34790000D01*
X34075715Y34742381D01*
X34123334Y34647143D01*
X34123334Y34504286D01*
X34075715Y34409048D01*
X34028096Y34361429D01*
X33932858Y34313810D01*
X33551905Y34313810D01*
X35075715Y33837619D02*
X34504286Y33837619D01*
X34790000Y33837619D02*
X34790000Y34837619D01*
X34694762Y34694762D01*
X34599524Y34599524D01*
X34504286Y34551905D01*
X23566381Y37576762D02*
X23090190Y37243428D01*
X23566381Y37005333D02*
X22566381Y37005333D01*
X22566381Y37386286D01*
X22614000Y37481524D01*
X22661619Y37529143D01*
X22756857Y37576762D01*
X22899714Y37576762D01*
X22994952Y37529143D01*
X23042571Y37481524D01*
X23090190Y37386286D01*
X23090190Y37005333D01*
X23566381Y38005333D02*
X22566381Y38005333D01*
X23566381Y38576762D02*
X22994952Y38148190D01*
X22566381Y38576762D02*
X23137810Y38005333D01*
X22566381Y39195809D02*
X22566381Y39291048D01*
X22614000Y39386286D01*
X22661619Y39433905D01*
X22756857Y39481524D01*
X22947333Y39529143D01*
X23185429Y39529143D01*
X23375905Y39481524D01*
X23471143Y39433905D01*
X23518762Y39386286D01*
X23566381Y39291048D01*
X23566381Y39195809D01*
X23518762Y39100571D01*
X23471143Y39052952D01*
X23375905Y39005333D01*
X23185429Y38957714D01*
X22947333Y38957714D01*
X22756857Y39005333D01*
X22661619Y39052952D01*
X22614000Y39100571D01*
X22566381Y39195809D01*
X23566381Y40005333D02*
X23566381Y40195809D01*
X23518762Y40291048D01*
X23471143Y40338667D01*
X23328286Y40433905D01*
X23137810Y40481524D01*
X22756857Y40481524D01*
X22661619Y40433905D01*
X22614000Y40386286D01*
X22566381Y40291048D01*
X22566381Y40100571D01*
X22614000Y40005333D01*
X22661619Y39957714D01*
X22756857Y39910095D01*
X22994952Y39910095D01*
X23090190Y39957714D01*
X23137810Y40005333D01*
X23185429Y40100571D01*
X23185429Y40291048D01*
X23137810Y40386286D01*
X23090190Y40433905D01*
X22994952Y40481524D01*
X23566381Y40910095D02*
X22566381Y40910095D01*
X23566381Y41481524D02*
X22994952Y41052952D01*
X22566381Y41481524D02*
X23137810Y40910095D01*
X23566381Y42433905D02*
X23566381Y41862476D01*
X23566381Y42148190D02*
X22566381Y42148190D01*
X22709238Y42052952D01*
X22804476Y41957714D01*
X22852095Y41862476D01*
X23566381Y43386286D02*
X23566381Y42814857D01*
X23566381Y43100571D02*
X22566381Y43100571D01*
X22709238Y43005333D01*
X22804476Y42910095D01*
X22852095Y42814857D01*
X22566381Y43719619D02*
X22566381Y44338667D01*
X22947333Y44005333D01*
X22947333Y44148191D01*
X22994952Y44243429D01*
X23042571Y44291048D01*
X23137810Y44338667D01*
X23375905Y44338667D01*
X23471143Y44291048D01*
X23518762Y44243429D01*
X23566381Y44148191D01*
X23566381Y43862476D01*
X23518762Y43767238D01*
X23471143Y43719619D01*
X22566381Y44957714D02*
X22566381Y45052953D01*
X22614000Y45148191D01*
X22661619Y45195810D01*
X22756857Y45243429D01*
X22947333Y45291048D01*
X23185429Y45291048D01*
X23375905Y45243429D01*
X23471143Y45195810D01*
X23518762Y45148191D01*
X23566381Y45052953D01*
X23566381Y44957714D01*
X23518762Y44862476D01*
X23471143Y44814857D01*
X23375905Y44767238D01*
X23185429Y44719619D01*
X22947333Y44719619D01*
X22756857Y44767238D01*
X22661619Y44814857D01*
X22614000Y44862476D01*
X22566381Y44957714D01*
X23042571Y46052953D02*
X23090190Y46195810D01*
X23137810Y46243429D01*
X23233048Y46291048D01*
X23375905Y46291048D01*
X23471143Y46243429D01*
X23518762Y46195810D01*
X23566381Y46100572D01*
X23566381Y45719619D01*
X22566381Y45719619D01*
X22566381Y46052953D01*
X22614000Y46148191D01*
X22661619Y46195810D01*
X22756857Y46243429D01*
X22852095Y46243429D01*
X22947333Y46195810D01*
X22994952Y46148191D01*
X23042571Y46052953D01*
X23042571Y45719619D01*
X23566381Y46719619D02*
X22566381Y46719619D01*
X23280667Y47052953D01*
X22566381Y47386286D01*
X23566381Y47386286D01*
X22899714Y48291048D02*
X23566381Y48291048D01*
X22518762Y48052952D02*
X23233048Y47814857D01*
X23233048Y48433905D01*
X15073334Y33837619D02*
X14740000Y34313810D01*
X14501905Y33837619D02*
X14501905Y34837619D01*
X14882858Y34837619D01*
X14978096Y34790000D01*
X15025715Y34742381D01*
X15073334Y34647143D01*
X15073334Y34504286D01*
X15025715Y34409048D01*
X14978096Y34361429D01*
X14882858Y34313810D01*
X14501905Y34313810D01*
X15692381Y34837619D02*
X15787620Y34837619D01*
X15882858Y34790000D01*
X15930477Y34742381D01*
X15978096Y34647143D01*
X16025715Y34456667D01*
X16025715Y34218571D01*
X15978096Y34028095D01*
X15930477Y33932857D01*
X15882858Y33885238D01*
X15787620Y33837619D01*
X15692381Y33837619D01*
X15597143Y33885238D01*
X15549524Y33932857D01*
X15501905Y34028095D01*
X15454286Y34218571D01*
X15454286Y34456667D01*
X15501905Y34647143D01*
X15549524Y34742381D01*
X15597143Y34790000D01*
X15692381Y34837619D01*
X4008381Y37576762D02*
X3532190Y37243428D01*
X4008381Y37005333D02*
X3008381Y37005333D01*
X3008381Y37386286D01*
X3056000Y37481524D01*
X3103619Y37529143D01*
X3198857Y37576762D01*
X3341714Y37576762D01*
X3436952Y37529143D01*
X3484571Y37481524D01*
X3532190Y37386286D01*
X3532190Y37005333D01*
X4008381Y38005333D02*
X3008381Y38005333D01*
X4008381Y38576762D02*
X3436952Y38148190D01*
X3008381Y38576762D02*
X3579810Y38005333D01*
X3008381Y39195809D02*
X3008381Y39291048D01*
X3056000Y39386286D01*
X3103619Y39433905D01*
X3198857Y39481524D01*
X3389333Y39529143D01*
X3627429Y39529143D01*
X3817905Y39481524D01*
X3913143Y39433905D01*
X3960762Y39386286D01*
X4008381Y39291048D01*
X4008381Y39195809D01*
X3960762Y39100571D01*
X3913143Y39052952D01*
X3817905Y39005333D01*
X3627429Y38957714D01*
X3389333Y38957714D01*
X3198857Y39005333D01*
X3103619Y39052952D01*
X3056000Y39100571D01*
X3008381Y39195809D01*
X4008381Y40005333D02*
X4008381Y40195809D01*
X3960762Y40291048D01*
X3913143Y40338667D01*
X3770286Y40433905D01*
X3579810Y40481524D01*
X3198857Y40481524D01*
X3103619Y40433905D01*
X3056000Y40386286D01*
X3008381Y40291048D01*
X3008381Y40100571D01*
X3056000Y40005333D01*
X3103619Y39957714D01*
X3198857Y39910095D01*
X3436952Y39910095D01*
X3532190Y39957714D01*
X3579810Y40005333D01*
X3627429Y40100571D01*
X3627429Y40291048D01*
X3579810Y40386286D01*
X3532190Y40433905D01*
X3436952Y40481524D01*
X4008381Y40910095D02*
X3008381Y40910095D01*
X4008381Y41481524D02*
X3436952Y41052952D01*
X3008381Y41481524D02*
X3579810Y40910095D01*
X4008381Y42433905D02*
X4008381Y41862476D01*
X4008381Y42148190D02*
X3008381Y42148190D01*
X3151238Y42052952D01*
X3246476Y41957714D01*
X3294095Y41862476D01*
X4008381Y43386286D02*
X4008381Y42814857D01*
X4008381Y43100571D02*
X3008381Y43100571D01*
X3151238Y43005333D01*
X3246476Y42910095D01*
X3294095Y42814857D01*
X3008381Y43719619D02*
X3008381Y44338667D01*
X3389333Y44005333D01*
X3389333Y44148191D01*
X3436952Y44243429D01*
X3484571Y44291048D01*
X3579810Y44338667D01*
X3817905Y44338667D01*
X3913143Y44291048D01*
X3960762Y44243429D01*
X4008381Y44148191D01*
X4008381Y43862476D01*
X3960762Y43767238D01*
X3913143Y43719619D01*
X3008381Y44957714D02*
X3008381Y45052953D01*
X3056000Y45148191D01*
X3103619Y45195810D01*
X3198857Y45243429D01*
X3389333Y45291048D01*
X3627429Y45291048D01*
X3817905Y45243429D01*
X3913143Y45195810D01*
X3960762Y45148191D01*
X4008381Y45052953D01*
X4008381Y44957714D01*
X3960762Y44862476D01*
X3913143Y44814857D01*
X3817905Y44767238D01*
X3627429Y44719619D01*
X3389333Y44719619D01*
X3198857Y44767238D01*
X3103619Y44814857D01*
X3056000Y44862476D01*
X3008381Y44957714D01*
X3484571Y46052953D02*
X3532190Y46195810D01*
X3579810Y46243429D01*
X3675048Y46291048D01*
X3817905Y46291048D01*
X3913143Y46243429D01*
X3960762Y46195810D01*
X4008381Y46100572D01*
X4008381Y45719619D01*
X3008381Y45719619D01*
X3008381Y46052953D01*
X3056000Y46148191D01*
X3103619Y46195810D01*
X3198857Y46243429D01*
X3294095Y46243429D01*
X3389333Y46195810D01*
X3436952Y46148191D01*
X3484571Y46052953D01*
X3484571Y45719619D01*
X4008381Y46719619D02*
X3008381Y46719619D01*
X3722667Y47052953D01*
X3008381Y47386286D01*
X4008381Y47386286D01*
X3341714Y48291048D02*
X4008381Y48291048D01*
X2960762Y48052952D02*
X3675048Y47814857D01*
X3675048Y48433905D01*
D14*
X95579525Y37921429D02*
X95555715Y37897619D01*
X95484287Y37873810D01*
X95436668Y37873810D01*
X95365239Y37897619D01*
X95317620Y37945238D01*
X95293811Y37992857D01*
X95270001Y38088095D01*
X95270001Y38159524D01*
X95293811Y38254762D01*
X95317620Y38302381D01*
X95365239Y38350000D01*
X95436668Y38373810D01*
X95484287Y38373810D01*
X95555715Y38350000D01*
X95579525Y38326190D01*
X95770001Y37897619D02*
X95841430Y37873810D01*
X95960477Y37873810D01*
X96008096Y37897619D01*
X96031906Y37921429D01*
X96055715Y37969048D01*
X96055715Y38016667D01*
X96031906Y38064286D01*
X96008096Y38088095D01*
X95960477Y38111905D01*
X95865239Y38135714D01*
X95817620Y38159524D01*
X95793811Y38183333D01*
X95770001Y38230952D01*
X95770001Y38278571D01*
X95793811Y38326190D01*
X95817620Y38350000D01*
X95865239Y38373810D01*
X95984287Y38373810D01*
X96055715Y38350000D01*
X96150953Y37826190D02*
X96531905Y37826190D01*
X96746191Y38373810D02*
X96793810Y38373810D01*
X96841429Y38350000D01*
X96865238Y38326190D01*
X96889048Y38278571D01*
X96912857Y38183333D01*
X96912857Y38064286D01*
X96889048Y37969048D01*
X96865238Y37921429D01*
X96841429Y37897619D01*
X96793810Y37873810D01*
X96746191Y37873810D01*
X96698572Y37897619D01*
X96674762Y37921429D01*
X96650953Y37969048D01*
X96627143Y38064286D01*
X96627143Y38183333D01*
X96650953Y38278571D01*
X96674762Y38326190D01*
X96698572Y38350000D01*
X96746191Y38373810D01*
X97008095Y37826190D02*
X97389047Y37826190D01*
X97460476Y38373810D02*
X97793809Y38373810D01*
X97579523Y37873810D01*
X95900952Y28190000D02*
X95853333Y28213810D01*
X95781905Y28213810D01*
X95710476Y28190000D01*
X95662857Y28142381D01*
X95639048Y28094762D01*
X95615238Y27999524D01*
X95615238Y27928095D01*
X95639048Y27832857D01*
X95662857Y27785238D01*
X95710476Y27737619D01*
X95781905Y27713810D01*
X95829524Y27713810D01*
X95900952Y27737619D01*
X95924762Y27761429D01*
X95924762Y27928095D01*
X95829524Y27928095D01*
X96139048Y27713810D02*
X96139048Y28213810D01*
X96424762Y27713810D01*
X96424762Y28213810D01*
X96662858Y27713810D02*
X96662858Y28213810D01*
X96781905Y28213810D01*
X96853334Y28190000D01*
X96900953Y28142381D01*
X96924762Y28094762D01*
X96948572Y27999524D01*
X96948572Y27928095D01*
X96924762Y27832857D01*
X96900953Y27785238D01*
X96853334Y27737619D01*
X96781905Y27713810D01*
X96662858Y27713810D01*
X97258096Y28213810D02*
X97305715Y28213810D01*
X97353334Y28190000D01*
X97377143Y28166190D01*
X97400953Y28118571D01*
X97424762Y28023333D01*
X97424762Y27904286D01*
X97400953Y27809048D01*
X97377143Y27761429D01*
X97353334Y27737619D01*
X97305715Y27713810D01*
X97258096Y27713810D01*
X97210477Y27737619D01*
X97186667Y27761429D01*
X97162858Y27809048D01*
X97139048Y27904286D01*
X97139048Y28023333D01*
X97162858Y28118571D01*
X97186667Y28166190D01*
X97210477Y28190000D01*
X97258096Y28213810D01*
X94051668Y30277619D02*
X94123097Y30253810D01*
X94242144Y30253810D01*
X94289763Y30277619D01*
X94313573Y30301429D01*
X94337382Y30349048D01*
X94337382Y30396667D01*
X94313573Y30444286D01*
X94289763Y30468095D01*
X94242144Y30491905D01*
X94146906Y30515714D01*
X94099287Y30539524D01*
X94075478Y30563333D01*
X94051668Y30610952D01*
X94051668Y30658571D01*
X94075478Y30706190D01*
X94099287Y30730000D01*
X94146906Y30753810D01*
X94265954Y30753810D01*
X94337382Y30730000D01*
X94551668Y30253810D02*
X94551668Y30753810D01*
X94742144Y30753810D01*
X94789763Y30730000D01*
X94813572Y30706190D01*
X94837382Y30658571D01*
X94837382Y30587143D01*
X94813572Y30539524D01*
X94789763Y30515714D01*
X94742144Y30491905D01*
X94551668Y30491905D01*
X95051668Y30253810D02*
X95051668Y30753810D01*
X95170715Y30206190D02*
X95551667Y30206190D01*
X95956429Y30301429D02*
X95932619Y30277619D01*
X95861191Y30253810D01*
X95813572Y30253810D01*
X95742143Y30277619D01*
X95694524Y30325238D01*
X95670715Y30372857D01*
X95646905Y30468095D01*
X95646905Y30539524D01*
X95670715Y30634762D01*
X95694524Y30682381D01*
X95742143Y30730000D01*
X95813572Y30753810D01*
X95861191Y30753810D01*
X95932619Y30730000D01*
X95956429Y30706190D01*
X96408810Y30253810D02*
X96170715Y30253810D01*
X96170715Y30753810D01*
X96575477Y30253810D02*
X96575477Y30753810D01*
X96861191Y30253810D02*
X96646905Y30539524D01*
X96861191Y30753810D02*
X96575477Y30468095D01*
X96956429Y30206190D02*
X97337381Y30206190D01*
X97551667Y30753810D02*
X97599286Y30753810D01*
X97646905Y30730000D01*
X97670714Y30706190D01*
X97694524Y30658571D01*
X97718333Y30563333D01*
X97718333Y30444286D01*
X97694524Y30349048D01*
X97670714Y30301429D01*
X97646905Y30277619D01*
X97599286Y30253810D01*
X97551667Y30253810D01*
X97504048Y30277619D01*
X97480238Y30301429D01*
X97456429Y30349048D01*
X97432619Y30444286D01*
X97432619Y30563333D01*
X97456429Y30658571D01*
X97480238Y30706190D01*
X97504048Y30730000D01*
X97551667Y30753810D01*
X93849287Y32817619D02*
X93920716Y32793810D01*
X94039763Y32793810D01*
X94087382Y32817619D01*
X94111192Y32841429D01*
X94135001Y32889048D01*
X94135001Y32936667D01*
X94111192Y32984286D01*
X94087382Y33008095D01*
X94039763Y33031905D01*
X93944525Y33055714D01*
X93896906Y33079524D01*
X93873097Y33103333D01*
X93849287Y33150952D01*
X93849287Y33198571D01*
X93873097Y33246190D01*
X93896906Y33270000D01*
X93944525Y33293810D01*
X94063573Y33293810D01*
X94135001Y33270000D01*
X94349287Y32793810D02*
X94349287Y33293810D01*
X94539763Y33293810D01*
X94587382Y33270000D01*
X94611191Y33246190D01*
X94635001Y33198571D01*
X94635001Y33127143D01*
X94611191Y33079524D01*
X94587382Y33055714D01*
X94539763Y33031905D01*
X94349287Y33031905D01*
X94849287Y32793810D02*
X94849287Y33293810D01*
X94968334Y32746190D02*
X95349286Y32746190D01*
X95468334Y32793810D02*
X95468334Y33293810D01*
X95635000Y32936667D01*
X95801667Y33293810D01*
X95801667Y32793810D01*
X96039763Y32793810D02*
X96039763Y33293810D01*
X96254048Y32817619D02*
X96325477Y32793810D01*
X96444524Y32793810D01*
X96492143Y32817619D01*
X96515953Y32841429D01*
X96539762Y32889048D01*
X96539762Y32936667D01*
X96515953Y32984286D01*
X96492143Y33008095D01*
X96444524Y33031905D01*
X96349286Y33055714D01*
X96301667Y33079524D01*
X96277858Y33103333D01*
X96254048Y33150952D01*
X96254048Y33198571D01*
X96277858Y33246190D01*
X96301667Y33270000D01*
X96349286Y33293810D01*
X96468334Y33293810D01*
X96539762Y33270000D01*
X96849286Y33293810D02*
X96944524Y33293810D01*
X96992143Y33270000D01*
X97039762Y33222381D01*
X97063571Y33127143D01*
X97063571Y32960476D01*
X97039762Y32865238D01*
X96992143Y32817619D01*
X96944524Y32793810D01*
X96849286Y32793810D01*
X96801667Y32817619D01*
X96754048Y32865238D01*
X96730238Y32960476D01*
X96730238Y33127143D01*
X96754048Y33222381D01*
X96801667Y33270000D01*
X96849286Y33293810D01*
X97158810Y32746190D02*
X97539762Y32746190D01*
X97754048Y33293810D02*
X97801667Y33293810D01*
X97849286Y33270000D01*
X97873095Y33246190D01*
X97896905Y33198571D01*
X97920714Y33103333D01*
X97920714Y32984286D01*
X97896905Y32889048D01*
X97873095Y32841429D01*
X97849286Y32817619D01*
X97801667Y32793810D01*
X97754048Y32793810D01*
X97706429Y32817619D01*
X97682619Y32841429D01*
X97658810Y32889048D01*
X97635000Y32984286D01*
X97635000Y33103333D01*
X97658810Y33198571D01*
X97682619Y33246190D01*
X97706429Y33270000D01*
X97754048Y33293810D01*
X93849287Y35357619D02*
X93920716Y35333810D01*
X94039763Y35333810D01*
X94087382Y35357619D01*
X94111192Y35381429D01*
X94135001Y35429048D01*
X94135001Y35476667D01*
X94111192Y35524286D01*
X94087382Y35548095D01*
X94039763Y35571905D01*
X93944525Y35595714D01*
X93896906Y35619524D01*
X93873097Y35643333D01*
X93849287Y35690952D01*
X93849287Y35738571D01*
X93873097Y35786190D01*
X93896906Y35810000D01*
X93944525Y35833810D01*
X94063573Y35833810D01*
X94135001Y35810000D01*
X94349287Y35333810D02*
X94349287Y35833810D01*
X94539763Y35833810D01*
X94587382Y35810000D01*
X94611191Y35786190D01*
X94635001Y35738571D01*
X94635001Y35667143D01*
X94611191Y35619524D01*
X94587382Y35595714D01*
X94539763Y35571905D01*
X94349287Y35571905D01*
X94849287Y35333810D02*
X94849287Y35833810D01*
X94968334Y35286190D02*
X95349286Y35286190D01*
X95468334Y35333810D02*
X95468334Y35833810D01*
X95635000Y35476667D01*
X95801667Y35833810D01*
X95801667Y35333810D01*
X96135001Y35833810D02*
X96230239Y35833810D01*
X96277858Y35810000D01*
X96325477Y35762381D01*
X96349286Y35667143D01*
X96349286Y35500476D01*
X96325477Y35405238D01*
X96277858Y35357619D01*
X96230239Y35333810D01*
X96135001Y35333810D01*
X96087382Y35357619D01*
X96039763Y35405238D01*
X96015953Y35500476D01*
X96015953Y35667143D01*
X96039763Y35762381D01*
X96087382Y35810000D01*
X96135001Y35833810D01*
X96539763Y35357619D02*
X96611192Y35333810D01*
X96730239Y35333810D01*
X96777858Y35357619D01*
X96801668Y35381429D01*
X96825477Y35429048D01*
X96825477Y35476667D01*
X96801668Y35524286D01*
X96777858Y35548095D01*
X96730239Y35571905D01*
X96635001Y35595714D01*
X96587382Y35619524D01*
X96563573Y35643333D01*
X96539763Y35690952D01*
X96539763Y35738571D01*
X96563573Y35786190D01*
X96587382Y35810000D01*
X96635001Y35833810D01*
X96754049Y35833810D01*
X96825477Y35810000D01*
X97039763Y35333810D02*
X97039763Y35833810D01*
X97158810Y35286190D02*
X97539762Y35286190D01*
X97754048Y35833810D02*
X97801667Y35833810D01*
X97849286Y35810000D01*
X97873095Y35786190D01*
X97896905Y35738571D01*
X97920714Y35643333D01*
X97920714Y35524286D01*
X97896905Y35429048D01*
X97873095Y35381429D01*
X97849286Y35357619D01*
X97801667Y35333810D01*
X97754048Y35333810D01*
X97706429Y35357619D01*
X97682619Y35381429D01*
X97658810Y35429048D01*
X97635000Y35524286D01*
X97635000Y35643333D01*
X97658810Y35738571D01*
X97682619Y35786190D01*
X97706429Y35810000D01*
X97754048Y35833810D01*
X95615239Y40913810D02*
X95781906Y40413810D01*
X95948572Y40913810D01*
X96400953Y40461429D02*
X96377143Y40437619D01*
X96305715Y40413810D01*
X96258096Y40413810D01*
X96186667Y40437619D01*
X96139048Y40485238D01*
X96115239Y40532857D01*
X96091429Y40628095D01*
X96091429Y40699524D01*
X96115239Y40794762D01*
X96139048Y40842381D01*
X96186667Y40890000D01*
X96258096Y40913810D01*
X96305715Y40913810D01*
X96377143Y40890000D01*
X96400953Y40866190D01*
X96900953Y40461429D02*
X96877143Y40437619D01*
X96805715Y40413810D01*
X96758096Y40413810D01*
X96686667Y40437619D01*
X96639048Y40485238D01*
X96615239Y40532857D01*
X96591429Y40628095D01*
X96591429Y40699524D01*
X96615239Y40794762D01*
X96639048Y40842381D01*
X96686667Y40890000D01*
X96758096Y40913810D01*
X96805715Y40913810D01*
X96877143Y40890000D01*
X96900953Y40866190D01*
X97210477Y40913810D02*
X97258096Y40913810D01*
X97305715Y40890000D01*
X97329524Y40866190D01*
X97353334Y40818571D01*
X97377143Y40723333D01*
X97377143Y40604286D01*
X97353334Y40509048D01*
X97329524Y40461429D01*
X97305715Y40437619D01*
X97258096Y40413810D01*
X97210477Y40413810D01*
X97162858Y40437619D01*
X97139048Y40461429D01*
X97115239Y40509048D01*
X97091429Y40604286D01*
X97091429Y40723333D01*
X97115239Y40818571D01*
X97139048Y40866190D01*
X97162858Y40890000D01*
X97210477Y40913810D01*
M02*
