M48
METRIC,TZ
T1C0.400
T2C1.000
T3C1.016
T4C1.200
T5C1.500
T6C1.600
T7C2.500
T8C3.048
%
G90
G05
T1
X48895Y55880
X50800Y26035
X51435Y27305
X54610Y32385
X54610Y31115
X56515Y40005
X57150Y46990
X57150Y45720
X58420Y53975
X58420Y49530
X61471Y46866
X61595Y45720
X61595Y44450
X62230Y50800
X62230Y40005
X62354Y48384
X63500Y27305
X63500Y30315
X64135Y51435
X65405Y49530
X65405Y29845
X65788Y25983
X69215Y31115
X69215Y24130
X70485Y33655
X71120Y32385
X71120Y21590
X71120Y-1270
X71755Y29210
X72390Y5715
X72390Y-3810
X76200Y-3810
X81915Y25400
X83820Y-2540
X85090Y23495
X85725Y14605
X87630Y57150
X87630Y50800
X88265Y6350
X94615Y-1905
X95885Y34925
X95885Y34925
X96520Y-1270
X97155Y34925
X98425Y42545
X98797Y43800
X101600Y3175
X101600Y-2540
X102235Y33655
X102924Y-2872
X104140Y32385
X104140Y-635
X104140Y-2540
X105227Y-892
X106046Y30815
X106680Y23495
X106680Y8255
X106840Y21430
X108585Y25400
X109220Y-1905
X110490Y26670
X111760Y17145
X111760Y7620
X113030Y15240
X113030Y12065
X113030Y-1905
X113665Y8255
X113665Y5715
X114300Y13335
X114300Y6985
X114935Y12190
X120650Y-7620
X120650Y-10795
X122555Y12700
X123190Y-6985
X123190Y-11430
X124460Y-13335
X125095Y-6350
X125730Y-13970
X126365Y-5715
T2
X7660Y35690
X10160Y35690
X12660Y35690
X27345Y35690
X29845Y35690
X32345Y35690
X47030Y35690
X49530Y35690
X52030Y35690
X66715Y35690
X69215Y35690
X71715Y35690
X86400Y35690
X88900Y35690
X91400Y35690
X106085Y35690
X108585Y35690
X111085Y35690
X125770Y35690
X128270Y35690
X130770Y35690
X145455Y35690
X147955Y35690
X150455Y35690
T3
X2540Y58420
X2540Y55880
X2540Y53340
X2540Y50800
X11273Y15200
X11273Y12700
X11273Y10200
X17502Y21430
X20002Y21430
X22503Y21430
X41910Y58420
X41910Y55880
X41910Y53340
X41910Y50800
X50643Y15200
X50643Y12700
X50643Y10200
X52070Y1270
X54610Y1270
X56872Y21430
X57150Y1270
X59372Y21430
X59690Y1270
X61872Y21430
X62230Y1270
X64770Y1270
X67310Y1270
X69850Y1270
X72390Y1270
X74930Y1270
X77470Y1270
X77470Y1270
X80010Y1270
X81280Y58420
X81280Y55880
X81280Y53340
X81280Y50800
X82550Y1270
X85090Y1270
X87630Y1270
X90013Y15200
X90013Y12700
X90013Y10200
X90170Y1270
X92710Y1270
X95250Y1270
X96243Y21430
X97790Y1270
X98743Y21430
X99060Y40640
X99060Y38100
X99060Y35560
X99060Y33020
X99060Y30480
X99060Y27940
X100330Y1270
X101243Y21430
X102870Y1270
X102870Y1270
X105410Y1270
X107950Y1270
X110490Y1270
X113030Y1270
X115570Y1270
X118110Y1270
X120650Y58420
X120650Y55880
X120650Y53340
X120650Y50800
X120650Y1270
X123190Y1270
X125730Y1270
X128270Y1270
X129382Y15200
X129382Y12700
X129382Y10200
X130810Y1270
X133350Y1270
X135612Y21430
X135890Y1270
X138112Y21430
X138430Y1270
X140612Y21430
X140970Y1270
X143510Y1270
X146050Y1270
X148590Y1270
X151130Y1270
T4
X25753Y15950
X25753Y9450
X30253Y15950
X30253Y9450
X65123Y15950
X65123Y9450
X69623Y15950
X69623Y9450
X104493Y15950
X104493Y9450
X108993Y15950
X108993Y9450
X143862Y15950
X143862Y9450
X148362Y15950
X148362Y9450
T5
X15003Y19025
X15003Y6375
X25003Y19025
X25003Y6375
X54372Y19025
X54372Y6375
X64373Y19025
X64373Y6375
X93743Y19025
X93743Y6375
X103743Y19025
X103743Y6375
X133112Y19025
X133112Y6375
X143112Y19025
X143112Y6375
T6
X20002Y17000
X20002Y8400
X59372Y17000
X59372Y8400
X98743Y17000
X98743Y8400
X138112Y17000
X138112Y8400
T7
X5766Y42700
X14554Y42700
X25451Y42700
X34239Y42700
X45136Y42700
X53924Y42700
X64821Y42700
X73609Y42700
X84506Y42700
X93294Y42700
X104191Y42700
X112979Y42700
X123876Y42700
X132664Y42700
X143561Y42700
X152349Y42700
T8
X3500Y32220
X3500Y22220
X3500Y3000
X44000Y22220
X44000Y3000
X54000Y52220
X80000Y45220
X156500Y52220
X156500Y32220
X156500Y22220
X156500Y3000
T0
M30
