G04 #@! TF.FileFunction,Paste,Top*
%FSLAX46Y46*%
G04 Gerber Fmt 4.6, Leading zero omitted, Abs format (unit mm)*
G04 Created by KiCad (PCBNEW 4.0.4-stable) date 08/15/17 17:17:09*
%MOMM*%
%LPD*%
G01*
G04 APERTURE LIST*
%ADD10C,0.100000*%
%ADD11R,0.750000X0.800000*%
%ADD12R,0.600000X1.500000*%
%ADD13R,0.600000X1.900000*%
%ADD14R,2.100000X2.800000*%
%ADD15R,0.900000X0.500000*%
%ADD16R,0.500000X0.900000*%
%ADD17R,0.550000X1.500000*%
G04 APERTURE END LIST*
D10*
D11*
X123952000Y12942000D03*
X123952000Y11442000D03*
D12*
X123825000Y15180000D03*
X123825000Y20380000D03*
X122555000Y15180000D03*
X122555000Y20380000D03*
X121285000Y15180000D03*
X121285000Y20380000D03*
X120015000Y15180000D03*
X120015000Y20380000D03*
X118745000Y15180000D03*
X118745000Y20380000D03*
X117475000Y15180000D03*
X117475000Y20380000D03*
X116205000Y15180000D03*
X116205000Y20380000D03*
X114935000Y15180000D03*
X114935000Y20380000D03*
D13*
X93600000Y-4826000D03*
X94600000Y-4826000D03*
X95600000Y-4826000D03*
X96600000Y-4826000D03*
X97600000Y-4826000D03*
X98600000Y-4826000D03*
X99600000Y-4826000D03*
X100600000Y-4826000D03*
X101600000Y-4826000D03*
X102600000Y-4826000D03*
X103600000Y-4826000D03*
X104600000Y-4826000D03*
X105600000Y-4826000D03*
X106600000Y-4826000D03*
X107600000Y-4826000D03*
X108600000Y-4826000D03*
D14*
X115750000Y-7176000D03*
X90450000Y-7176000D03*
D13*
X109600000Y-4826000D03*
X110600000Y-4826000D03*
X111600000Y-4826000D03*
X112600000Y-4826000D03*
D11*
X85090000Y28805000D03*
X85090000Y27305000D03*
X62484000Y56146000D03*
X62484000Y57646000D03*
D15*
X59944000Y54598000D03*
X59944000Y53098000D03*
D16*
X6465000Y55880000D03*
X4965000Y55880000D03*
X45835000Y55880000D03*
X44335000Y55880000D03*
X85205000Y55880000D03*
X83705000Y55880000D03*
X124575000Y55880000D03*
X123075000Y55880000D03*
D15*
X59944000Y56146000D03*
X59944000Y57646000D03*
D16*
X6465000Y58420000D03*
X4965000Y58420000D03*
X45835000Y58420000D03*
X44335000Y58420000D03*
X85205000Y58420000D03*
X83705000Y58420000D03*
X124575000Y58420000D03*
X123075000Y58420000D03*
D15*
X62484000Y54598000D03*
X62484000Y53098000D03*
D12*
X83185000Y27880000D03*
X83185000Y33080000D03*
X81915000Y27880000D03*
X81915000Y33080000D03*
X80645000Y27880000D03*
X80645000Y33080000D03*
X79375000Y27880000D03*
X79375000Y33080000D03*
X78105000Y27880000D03*
X78105000Y33080000D03*
X76835000Y27880000D03*
X76835000Y33080000D03*
X75565000Y27880000D03*
X75565000Y33080000D03*
X74295000Y27880000D03*
X74295000Y33080000D03*
D17*
X66675000Y57310000D03*
X66675000Y51910000D03*
X67945000Y57310000D03*
X67945000Y51910000D03*
X69215000Y57310000D03*
X69215000Y51910000D03*
X70485000Y57310000D03*
X70485000Y51910000D03*
X71755000Y57310000D03*
X71755000Y51910000D03*
X73025000Y57310000D03*
X73025000Y51910000D03*
X74295000Y57310000D03*
X74295000Y51910000D03*
X75565000Y57310000D03*
X75565000Y51910000D03*
M02*
