M48
METRIC,TZ
T1C2.200
T2C2.600
T3C3.500
T4C4.000
%
G90
G05
T2
X16502Y16200
X16502Y9200
X23503Y16200
X23503Y9200
X55872Y16200
X55872Y9200
X62872Y16200
X62872Y9200
X95243Y16200
X95243Y9200
X102243Y16200
X102243Y9200
X134612Y16200
X134612Y9200
X141612Y16200
X141612Y9200
T3
X28003Y12700
X67373Y12700
X106743Y12700
X146112Y12700
T4
X20002Y12700
X59372Y12700
X98743Y12700
X138112Y12700
T1
X21103Y12700G85X26903Y12700
G05
X60472Y12700G85X66272Y12700
G05
X99843Y12700G85X105643Y12700
G05
X139213Y12700G85X145013Y12700
G05
T0
M30
