G04 #@! TF.FileFunction,Soldermask,Bot*
%FSLAX46Y46*%
G04 Gerber Fmt 4.6, Leading zero omitted, Abs format (unit mm)*
G04 Created by KiCad (PCBNEW 4.0.4-stable) date 08/15/17 17:17:09*
%MOMM*%
%LPD*%
G01*
G04 APERTURE LIST*
%ADD10C,0.100000*%
%ADD11C,4.064000*%
%ADD12C,1.727200*%
%ADD13C,4.000000*%
%ADD14C,2.600000*%
%ADD15C,3.500000*%
%ADD16R,8.000000X2.200000*%
%ADD17C,2.200000*%
%ADD18C,1.900000*%
%ADD19C,2.300000*%
%ADD20C,1.800000*%
%ADD21C,3.100000*%
%ADD22C,1.600000*%
G04 APERTURE END LIST*
D10*
D11*
X80000000Y45220000D03*
X3500000Y32220000D03*
X156500000Y32220000D03*
X156500000Y3000000D03*
X44000000Y3000000D03*
X3500000Y3000000D03*
D12*
X77470000Y1270000D03*
X102870000Y1270000D03*
X59690000Y1270000D03*
X52070000Y1270000D03*
X54610000Y1270000D03*
X57150000Y1270000D03*
X62230000Y1270000D03*
X72390000Y1270000D03*
X64770000Y1270000D03*
X67310000Y1270000D03*
X69850000Y1270000D03*
X74930000Y1270000D03*
X85090000Y1270000D03*
X77470000Y1270000D03*
X80010000Y1270000D03*
X82550000Y1270000D03*
X87630000Y1270000D03*
X97790000Y1270000D03*
X90170000Y1270000D03*
X92710000Y1270000D03*
X95250000Y1270000D03*
X100330000Y1270000D03*
X110490000Y1270000D03*
X102870000Y1270000D03*
X105410000Y1270000D03*
X107950000Y1270000D03*
X113030000Y1270000D03*
X123190000Y1270000D03*
X115570000Y1270000D03*
X118110000Y1270000D03*
X120650000Y1270000D03*
X125730000Y1270000D03*
X135890000Y1270000D03*
X128270000Y1270000D03*
X130810000Y1270000D03*
X133350000Y1270000D03*
X138430000Y1270000D03*
X148590000Y1270000D03*
X140970000Y1270000D03*
X143510000Y1270000D03*
X146050000Y1270000D03*
X151130000Y1270000D03*
D11*
X3500000Y22220000D03*
X156500000Y22220000D03*
X156500000Y52220000D03*
X54000000Y52220000D03*
X44000000Y22220000D03*
D13*
X98742500Y12700000D03*
D14*
X95242500Y16200000D03*
X95242500Y9200000D03*
X102242500Y9200000D03*
X102242500Y16200000D03*
D15*
X106742500Y12700000D03*
D16*
X102742500Y12700000D03*
D17*
X93742500Y6375000D03*
X93742500Y19025000D03*
X103742500Y6375000D03*
X103742500Y19025000D03*
D12*
X90012500Y12700000D03*
X90012500Y15200000D03*
X90012500Y10200000D03*
D18*
X104492500Y9450000D03*
X108992500Y9450000D03*
X104492500Y15950000D03*
X108992500Y15950000D03*
D19*
X98742500Y8400000D03*
X98742500Y17000000D03*
D12*
X98742500Y21430000D03*
X101242500Y21430000D03*
X96242500Y21430000D03*
D13*
X138112500Y12700000D03*
D14*
X134612500Y16200000D03*
X134612500Y9200000D03*
X141612500Y9200000D03*
X141612500Y16200000D03*
D15*
X146112500Y12700000D03*
D16*
X142112500Y12700000D03*
D17*
X133112500Y6375000D03*
X133112500Y19025000D03*
X143112500Y6375000D03*
X143112500Y19025000D03*
D12*
X129382500Y12700000D03*
X129382500Y15200000D03*
X129382500Y10200000D03*
D18*
X143862500Y9450000D03*
X148362500Y9450000D03*
X143862500Y15950000D03*
X148362500Y15950000D03*
D19*
X138112500Y8400000D03*
X138112500Y17000000D03*
D12*
X138112500Y21430000D03*
X140612500Y21430000D03*
X135612500Y21430000D03*
D13*
X20002500Y12700000D03*
D14*
X16502500Y16200000D03*
X16502500Y9200000D03*
X23502500Y9200000D03*
X23502500Y16200000D03*
D15*
X28002500Y12700000D03*
D16*
X24002500Y12700000D03*
D17*
X15002500Y6375000D03*
X15002500Y19025000D03*
X25002500Y6375000D03*
X25002500Y19025000D03*
D12*
X11272500Y12700000D03*
X11272500Y15200000D03*
X11272500Y10200000D03*
D18*
X25752500Y9450000D03*
X30252500Y9450000D03*
X25752500Y15950000D03*
X30252500Y15950000D03*
D19*
X20002500Y8400000D03*
X20002500Y17000000D03*
D12*
X20002500Y21430000D03*
X22502500Y21430000D03*
X17502500Y21430000D03*
D13*
X59372500Y12700000D03*
D14*
X55872500Y16200000D03*
X55872500Y9200000D03*
X62872500Y9200000D03*
X62872500Y16200000D03*
D15*
X67372500Y12700000D03*
D16*
X63372500Y12700000D03*
D17*
X54372500Y6375000D03*
X54372500Y19025000D03*
X64372500Y6375000D03*
X64372500Y19025000D03*
D12*
X50642500Y12700000D03*
X50642500Y15200000D03*
X50642500Y10200000D03*
D18*
X65122500Y9450000D03*
X69622500Y9450000D03*
X65122500Y15950000D03*
X69622500Y15950000D03*
D19*
X59372500Y8400000D03*
X59372500Y17000000D03*
D12*
X59372500Y21430000D03*
X61872500Y21430000D03*
X56872500Y21430000D03*
D20*
X2540000Y50800000D03*
X2540000Y53340000D03*
X2540000Y55880000D03*
X2540000Y58420000D03*
X41910000Y50800000D03*
X41910000Y53340000D03*
X41910000Y55880000D03*
X41910000Y58420000D03*
X81280000Y50800000D03*
X81280000Y53340000D03*
X81280000Y55880000D03*
X81280000Y58420000D03*
X120650000Y50800000D03*
X120650000Y53340000D03*
X120650000Y55880000D03*
X120650000Y58420000D03*
D21*
X143560800Y42700000D03*
X152349200Y42700000D03*
D22*
X145455000Y35689600D03*
X147955000Y35689600D03*
X150455000Y35689600D03*
D21*
X123875800Y42700000D03*
X132664200Y42700000D03*
D22*
X125770000Y35689600D03*
X128270000Y35689600D03*
X130770000Y35689600D03*
D21*
X104190800Y42700000D03*
X112979200Y42700000D03*
D22*
X106085000Y35689600D03*
X108585000Y35689600D03*
X111085000Y35689600D03*
D21*
X84505800Y42700000D03*
X93294200Y42700000D03*
D22*
X86400000Y35689600D03*
X88900000Y35689600D03*
X91400000Y35689600D03*
D21*
X64820800Y42700000D03*
X73609200Y42700000D03*
D22*
X66715000Y35689600D03*
X69215000Y35689600D03*
X71715000Y35689600D03*
D21*
X45135800Y42700000D03*
X53924200Y42700000D03*
D22*
X47030000Y35689600D03*
X49530000Y35689600D03*
X52030000Y35689600D03*
D21*
X25450800Y42700000D03*
X34239200Y42700000D03*
D22*
X27345000Y35689600D03*
X29845000Y35689600D03*
X32345000Y35689600D03*
D21*
X5765800Y42700000D03*
X14554200Y42700000D03*
D22*
X7660000Y35689600D03*
X10160000Y35689600D03*
X12660000Y35689600D03*
D12*
X99060000Y38100000D03*
X99060000Y27940000D03*
X99060000Y30480000D03*
X99060000Y33020000D03*
X99060000Y35560000D03*
X99060000Y40640000D03*
M02*
