G04 #@! TF.FileFunction,Copper,L2,Bot,Signal*
%FSLAX46Y46*%
G04 Gerber Fmt 4.6, Leading zero omitted, Abs format (unit mm)*
G04 Created by KiCad (PCBNEW 4.0.4-stable) date 08/15/17 17:17:09*
%MOMM*%
%LPD*%
G01*
G04 APERTURE LIST*
%ADD10C,0.100000*%
%ADD11C,4.064000*%
%ADD12C,1.727200*%
%ADD13R,8.000000X2.200000*%
%ADD14C,2.200000*%
%ADD15C,1.900000*%
%ADD16C,2.300000*%
%ADD17C,1.800000*%
%ADD18C,3.100000*%
%ADD19C,1.600000*%
%ADD20C,0.600000*%
%ADD21C,0.250000*%
%ADD22C,0.254000*%
G04 APERTURE END LIST*
D10*
D11*
X80000000Y45220000D03*
X3500000Y32220000D03*
X156500000Y32220000D03*
X156500000Y3000000D03*
X44000000Y3000000D03*
X3500000Y3000000D03*
D12*
X77470000Y1270000D03*
X102870000Y1270000D03*
X59690000Y1270000D03*
X52070000Y1270000D03*
X54610000Y1270000D03*
X57150000Y1270000D03*
X62230000Y1270000D03*
X72390000Y1270000D03*
X64770000Y1270000D03*
X67310000Y1270000D03*
X69850000Y1270000D03*
X74930000Y1270000D03*
X85090000Y1270000D03*
X77470000Y1270000D03*
X80010000Y1270000D03*
X82550000Y1270000D03*
X87630000Y1270000D03*
X97790000Y1270000D03*
X90170000Y1270000D03*
X92710000Y1270000D03*
X95250000Y1270000D03*
X100330000Y1270000D03*
X110490000Y1270000D03*
X102870000Y1270000D03*
X105410000Y1270000D03*
X107950000Y1270000D03*
X113030000Y1270000D03*
X123190000Y1270000D03*
X115570000Y1270000D03*
X118110000Y1270000D03*
X120650000Y1270000D03*
X125730000Y1270000D03*
X135890000Y1270000D03*
X128270000Y1270000D03*
X130810000Y1270000D03*
X133350000Y1270000D03*
X138430000Y1270000D03*
X148590000Y1270000D03*
X140970000Y1270000D03*
X143510000Y1270000D03*
X146050000Y1270000D03*
X151130000Y1270000D03*
D11*
X3500000Y22220000D03*
X156500000Y22220000D03*
X156500000Y52220000D03*
X54000000Y52220000D03*
X44000000Y22220000D03*
D13*
X102742500Y12700000D03*
D14*
X93742500Y6375000D03*
X93742500Y19025000D03*
X103742500Y6375000D03*
X103742500Y19025000D03*
D12*
X90012500Y12700000D03*
X90012500Y15200000D03*
X90012500Y10200000D03*
D15*
X104492500Y9450000D03*
X108992500Y9450000D03*
X104492500Y15950000D03*
X108992500Y15950000D03*
D16*
X98742500Y8400000D03*
X98742500Y17000000D03*
D12*
X98742500Y21430000D03*
X101242500Y21430000D03*
X96242500Y21430000D03*
D13*
X142112500Y12700000D03*
D14*
X133112500Y6375000D03*
X133112500Y19025000D03*
X143112500Y6375000D03*
X143112500Y19025000D03*
D12*
X129382500Y12700000D03*
X129382500Y15200000D03*
X129382500Y10200000D03*
D15*
X143862500Y9450000D03*
X148362500Y9450000D03*
X143862500Y15950000D03*
X148362500Y15950000D03*
D16*
X138112500Y8400000D03*
X138112500Y17000000D03*
D12*
X138112500Y21430000D03*
X140612500Y21430000D03*
X135612500Y21430000D03*
D13*
X24002500Y12700000D03*
D14*
X15002500Y6375000D03*
X15002500Y19025000D03*
X25002500Y6375000D03*
X25002500Y19025000D03*
D12*
X11272500Y12700000D03*
X11272500Y15200000D03*
X11272500Y10200000D03*
D15*
X25752500Y9450000D03*
X30252500Y9450000D03*
X25752500Y15950000D03*
X30252500Y15950000D03*
D16*
X20002500Y8400000D03*
X20002500Y17000000D03*
D12*
X20002500Y21430000D03*
X22502500Y21430000D03*
X17502500Y21430000D03*
D13*
X63372500Y12700000D03*
D14*
X54372500Y6375000D03*
X54372500Y19025000D03*
X64372500Y6375000D03*
X64372500Y19025000D03*
D12*
X50642500Y12700000D03*
X50642500Y15200000D03*
X50642500Y10200000D03*
D15*
X65122500Y9450000D03*
X69622500Y9450000D03*
X65122500Y15950000D03*
X69622500Y15950000D03*
D16*
X59372500Y8400000D03*
X59372500Y17000000D03*
D12*
X59372500Y21430000D03*
X61872500Y21430000D03*
X56872500Y21430000D03*
D17*
X2540000Y50800000D03*
X2540000Y53340000D03*
X2540000Y55880000D03*
X2540000Y58420000D03*
X41910000Y50800000D03*
X41910000Y53340000D03*
X41910000Y55880000D03*
X41910000Y58420000D03*
X81280000Y50800000D03*
X81280000Y53340000D03*
X81280000Y55880000D03*
X81280000Y58420000D03*
X120650000Y50800000D03*
X120650000Y53340000D03*
X120650000Y55880000D03*
X120650000Y58420000D03*
D18*
X143560800Y42700000D03*
X152349200Y42700000D03*
D19*
X145455000Y35689600D03*
X147955000Y35689600D03*
X150455000Y35689600D03*
D18*
X123875800Y42700000D03*
X132664200Y42700000D03*
D19*
X125770000Y35689600D03*
X128270000Y35689600D03*
X130770000Y35689600D03*
D18*
X104190800Y42700000D03*
X112979200Y42700000D03*
D19*
X106085000Y35689600D03*
X108585000Y35689600D03*
X111085000Y35689600D03*
D18*
X84505800Y42700000D03*
X93294200Y42700000D03*
D19*
X86400000Y35689600D03*
X88900000Y35689600D03*
X91400000Y35689600D03*
D18*
X64820800Y42700000D03*
X73609200Y42700000D03*
D19*
X66715000Y35689600D03*
X69215000Y35689600D03*
X71715000Y35689600D03*
D18*
X45135800Y42700000D03*
X53924200Y42700000D03*
D19*
X47030000Y35689600D03*
X49530000Y35689600D03*
X52030000Y35689600D03*
D18*
X25450800Y42700000D03*
X34239200Y42700000D03*
D19*
X27345000Y35689600D03*
X29845000Y35689600D03*
X32345000Y35689600D03*
D18*
X5765800Y42700000D03*
X14554200Y42700000D03*
D19*
X7660000Y35689600D03*
X10160000Y35689600D03*
X12660000Y35689600D03*
D12*
X99060000Y38100000D03*
X99060000Y27940000D03*
X99060000Y30480000D03*
X99060000Y33020000D03*
X99060000Y35560000D03*
X99060000Y40640000D03*
D20*
X71755000Y29210000D03*
X111760000Y17145000D03*
X106680000Y8255000D03*
X65405000Y49530000D03*
X58420000Y49530000D03*
X113030000Y15240000D03*
X106840000Y21430000D03*
X81915000Y25400000D03*
X88265000Y6350000D03*
X113030000Y12065000D03*
X122555000Y12700000D03*
X48895000Y55880000D03*
X58420000Y53975000D03*
X56515000Y40005000D03*
X62230000Y40005000D03*
X87630000Y57150000D03*
X87630000Y50800000D03*
X104140000Y-2540000D03*
X101600000Y3175000D03*
X94615000Y-1905000D03*
X96520000Y-1270000D03*
X71120000Y-1270000D03*
X106046411Y30815065D03*
X110490000Y26670000D03*
X108585000Y25400000D03*
X104140000Y32385000D03*
X104140000Y-635000D03*
X111760000Y7620000D03*
X106680000Y23495000D03*
X105227153Y-892484D03*
X102235000Y33655000D03*
X114935000Y12190000D03*
X114300000Y13335000D03*
X114300000Y6985000D03*
X113030000Y-1905000D03*
X109220000Y-1905000D03*
X83820000Y-2540000D03*
X62354449Y48384449D03*
X72390000Y5715000D03*
X71120000Y21590000D03*
X65405000Y29845000D03*
X62230000Y50800000D03*
X125730000Y-13970000D03*
X126365000Y-5715000D03*
X76200000Y-3810000D03*
X72390000Y-3810000D03*
X124460000Y-13335000D03*
X125095000Y-6350000D03*
X123190000Y-6985000D03*
X123190000Y-11430000D03*
X120650000Y-7620000D03*
X120650000Y-10795000D03*
X65787797Y25982961D03*
X50800000Y26035000D03*
X63499984Y27305000D03*
X51435000Y27305000D03*
X63500000Y30314987D03*
X69215000Y24130000D03*
X85725000Y14605000D03*
X85090000Y23495000D03*
X113665000Y5715000D03*
X113665000Y8255000D03*
X101600000Y-2540000D03*
X102924311Y-2871790D03*
X69215000Y31115000D03*
X54610000Y31115000D03*
X54610000Y32385000D03*
X71120000Y32385000D03*
X70485000Y33655000D03*
X98796501Y43800399D03*
X95885000Y34925000D03*
X95885000Y34925000D03*
X98425000Y42545000D03*
X97155000Y34925000D03*
X61595000Y45720000D03*
X57150000Y45720000D03*
X61595000Y44450000D03*
X61470551Y46865551D03*
X57150000Y46990000D03*
X64135000Y51435000D03*
D21*
X56675000Y18831502D02*
X55056501Y20450001D01*
X51506099Y11063599D02*
X50642500Y10200000D01*
X51831101Y18592603D02*
X51831101Y11388601D01*
X56872500Y21430000D02*
X58061101Y22618601D01*
X58061101Y22618601D02*
X62887901Y22618601D01*
X65056501Y20450001D02*
X63688499Y20450001D01*
X62887901Y22618601D02*
X65056501Y20450001D01*
X63688499Y20450001D02*
X62070000Y18831502D01*
X62070000Y18831502D02*
X56675000Y18831502D01*
X55056501Y20450001D02*
X53688499Y20450001D01*
X53688499Y20450001D02*
X51831101Y18592603D01*
X51831101Y11388601D02*
X51506099Y11063599D01*
X111760000Y17145000D02*
X111760000Y16720736D01*
X111760000Y16720736D02*
X108817501Y13778237D01*
X108817501Y13778237D02*
X108817501Y13696001D01*
X106680000Y8255000D02*
X106680000Y9024502D01*
X105836002Y15950000D02*
X104492500Y15950000D01*
X106680000Y9024502D02*
X108817501Y11162003D01*
X108817501Y11162003D02*
X108817501Y13696001D01*
X108817501Y13696001D02*
X106563502Y15950000D01*
X106563502Y15950000D02*
X105836002Y15950000D01*
X63500000Y47625000D02*
X65405000Y49530000D01*
X61595000Y47625000D02*
X63500000Y47625000D01*
X59690000Y49530000D02*
X61595000Y47625000D01*
X58420000Y49530000D02*
X59690000Y49530000D01*
X50642500Y18040413D02*
X50642500Y16421314D01*
X53502099Y20900012D02*
X50642500Y18040413D01*
X50642500Y16421314D02*
X50642500Y15200000D01*
X55242901Y20900012D02*
X53502099Y20900012D01*
X55901513Y20241399D02*
X55242901Y20900012D01*
X60683899Y20241399D02*
X55901513Y20241399D01*
X61872500Y21430000D02*
X60683899Y20241399D01*
X113030000Y13970000D02*
X113665000Y14605000D01*
X113665000Y14605000D02*
X115570000Y14605000D01*
X115570000Y14605000D02*
X117475000Y12700000D01*
X117475000Y12700000D02*
X122555000Y12700000D01*
X113030000Y13970000D02*
X113030000Y15240000D01*
X106840000Y21430000D02*
X101242500Y21430000D01*
X11272500Y15200000D02*
X11272500Y34302100D01*
X11272500Y34302100D02*
X12660000Y35689600D01*
X22502500Y21430000D02*
X21313899Y20241399D01*
X21313899Y20241399D02*
X15895103Y20241399D01*
X14318499Y20450001D02*
X11272500Y17404002D01*
X15895103Y20241399D02*
X15686501Y20450001D01*
X11272500Y17404002D02*
X11272500Y16421314D01*
X15686501Y20450001D02*
X14318499Y20450001D01*
X11272500Y16421314D02*
X11272500Y15200000D01*
X50642500Y15200000D02*
X47531638Y15200000D01*
X47531638Y15200000D02*
X41301638Y21430000D01*
X41301638Y21430000D02*
X23723814Y21430000D01*
X23723814Y21430000D02*
X22502500Y21430000D01*
X67310000Y1270000D02*
X66121399Y2458601D01*
X66121399Y2458601D02*
X53258601Y2458601D01*
X53258601Y2458601D02*
X52933599Y2133599D01*
X52933599Y2133599D02*
X52070000Y1270000D01*
X50642500Y15200000D02*
X49453899Y14011399D01*
X49453899Y14011399D02*
X49453899Y3886101D01*
X49453899Y3886101D02*
X51206401Y2133599D01*
X51206401Y2133599D02*
X52070000Y1270000D01*
X71715000Y35689600D02*
X67399600Y40005000D01*
X67399600Y40005000D02*
X62230000Y40005000D01*
X130770000Y35689600D02*
X126195400Y31115000D01*
X126195400Y31115000D02*
X115659600Y31115000D01*
X115659600Y31115000D02*
X111884999Y34889601D01*
X111884999Y34889601D02*
X111085000Y35689600D01*
X111085000Y35689600D02*
X106134600Y40640000D01*
X106134600Y40640000D02*
X99060000Y40640000D01*
X99060000Y40640000D02*
X99695000Y40640000D01*
X99695000Y40640000D02*
X100330000Y41275000D01*
X100330000Y41275000D02*
X100330000Y43180000D01*
X100330000Y43180000D02*
X99060000Y44450000D01*
X99060000Y44450000D02*
X97819202Y44450000D01*
X97819202Y44450000D02*
X91400000Y38030798D01*
X91400000Y38030798D02*
X91400000Y36820970D01*
X91400000Y36820970D02*
X91400000Y35689600D01*
X81915000Y25400000D02*
X81915000Y12700000D01*
X81915000Y12700000D02*
X88265000Y6350000D01*
X88265000Y6350000D02*
X87630000Y5715000D01*
X87630000Y5715000D02*
X87630000Y1270000D01*
X101242500Y21430000D02*
X100053899Y20241399D01*
X100053899Y20241399D02*
X99800897Y20241399D01*
X99800897Y20241399D02*
X96867501Y17308003D01*
X95783903Y14336401D02*
X90876099Y14336401D01*
X96867501Y17308003D02*
X96867501Y15419999D01*
X90876099Y14336401D02*
X90012500Y15200000D01*
X96867501Y15419999D02*
X95783903Y14336401D01*
X113030000Y12065000D02*
X113030000Y13970000D01*
X125661186Y12700000D02*
X122555000Y12700000D01*
X129382500Y15200000D02*
X128161186Y15200000D01*
X128161186Y15200000D02*
X125661186Y12700000D01*
X56515000Y55880000D02*
X48895000Y55880000D01*
X58420000Y53975000D02*
X56515000Y55880000D01*
X32345000Y35689600D02*
X32345000Y43775000D01*
X32345000Y43775000D02*
X41910000Y53340000D01*
X62230000Y40005000D02*
X56515000Y40005000D01*
X83820000Y53340000D02*
X87630000Y57150000D01*
X81280000Y53340000D02*
X83820000Y53340000D01*
X87630000Y50800000D02*
X83820000Y50800000D01*
X83820000Y50800000D02*
X81280000Y53340000D01*
X101600000Y0D02*
X104140000Y-2540000D01*
X101600000Y3175000D02*
X101600000Y0D01*
X61643686Y-1905000D02*
X94615000Y-1905000D01*
X59690000Y1270000D02*
X59690000Y48686D01*
X59690000Y48686D02*
X61643686Y-1905000D01*
X95885000Y-1270000D02*
X96520000Y-1270000D01*
X71120000Y-1270000D02*
X95885000Y-1270000D01*
X110490000Y26670000D02*
X106344935Y30815065D01*
X106344935Y30815065D02*
X106046411Y30815065D01*
X104140000Y29845000D02*
X108285001Y25699999D01*
X108285001Y25699999D02*
X108585000Y25400000D01*
X104140000Y32385000D02*
X104140000Y29845000D01*
X104439999Y-335001D02*
X104140000Y-635000D01*
X108952518Y-267482D02*
X104507518Y-267482D01*
X104507518Y-267482D02*
X104439999Y-335001D01*
X110490000Y1270000D02*
X108952518Y-267482D01*
X111760000Y7620000D02*
X110490000Y6350000D01*
X110490000Y6350000D02*
X110490000Y1270000D01*
X106380001Y23794999D02*
X106680000Y23495000D01*
X103840001Y26334999D02*
X106380001Y23794999D01*
X103840001Y26969999D02*
X103840001Y26334999D01*
X102235000Y28575000D02*
X103840001Y26969999D01*
X102870000Y27940000D02*
X103840001Y26969999D01*
X102235000Y33655000D02*
X102235000Y28575000D01*
X105651417Y-892484D02*
X105227153Y-892484D01*
X113030000Y1270000D02*
X110867516Y-892484D01*
X110867516Y-892484D02*
X105651417Y-892484D01*
X114935000Y12190000D02*
X114935000Y3175000D01*
X114935000Y3175000D02*
X113030000Y1270000D01*
X114300000Y6985000D02*
X114300000Y13335000D01*
X109220000Y-1905000D02*
X113030000Y-1905000D01*
X83820000Y-2540000D02*
X60960000Y-2540000D01*
X60960000Y-2540000D02*
X57150000Y1270000D01*
X62230000Y50800000D02*
X62230000Y48508898D01*
X62230000Y48508898D02*
X62354449Y48384449D01*
X72390000Y5715000D02*
X69850000Y3175000D01*
X69850000Y3175000D02*
X69850000Y1270000D01*
X71755000Y23495000D02*
X71755000Y22225000D01*
X71755000Y22225000D02*
X71120000Y21590000D01*
X65405000Y29845000D02*
X71755000Y23495000D01*
X126365000Y-13335000D02*
X125730000Y-13970000D01*
X126365000Y-5715000D02*
X126365000Y-13335000D01*
X72390000Y-3810000D02*
X76200000Y-3810000D01*
X125095000Y-12700000D02*
X124460000Y-13335000D01*
X125095000Y-6350000D02*
X125095000Y-12700000D01*
X123190000Y-11430000D02*
X123190000Y-6985000D01*
X69622500Y9450000D02*
X74930000Y4142500D01*
X74930000Y4142500D02*
X74930000Y1270000D01*
X120650000Y-10795000D02*
X120650000Y-7620000D01*
X50800000Y26035000D02*
X65735758Y26035000D01*
X65735758Y26035000D02*
X65787797Y25982961D01*
X51435000Y27305000D02*
X63499984Y27305000D01*
X69215000Y24599987D02*
X63500000Y30314987D01*
X69215000Y24130000D02*
X69215000Y24599987D01*
X85090000Y19050000D02*
X85725000Y18415000D01*
X85725000Y18415000D02*
X85725000Y14605000D01*
X85090000Y23495000D02*
X85090000Y19050000D01*
X113665000Y8255000D02*
X113665000Y5715000D01*
X98653599Y406401D02*
X101600000Y-2540000D01*
X97790000Y1270000D02*
X98653599Y406401D01*
X102624312Y-3171789D02*
X102924311Y-2871790D01*
X99691789Y-3171789D02*
X102624312Y-3171789D01*
X95250000Y1270000D02*
X99691789Y-3171789D01*
X54610000Y31115000D02*
X69215000Y31115000D01*
X55245000Y32385000D02*
X54610000Y32385000D01*
X71120000Y32385000D02*
X55245000Y32385000D01*
X50433230Y33655000D02*
X70485000Y33655000D01*
X49530000Y35689600D02*
X49530000Y34558230D01*
X49530000Y34558230D02*
X50433230Y33655000D01*
X95885000Y40888898D02*
X98496502Y43500400D01*
X95885000Y34925000D02*
X95885000Y40888898D01*
X98496502Y43500400D02*
X98796501Y43800399D01*
X97155000Y41275000D02*
X98425000Y42545000D01*
X97155000Y34925000D02*
X97155000Y41275000D01*
X60960000Y45720000D02*
X61595000Y45720000D01*
X57150000Y45720000D02*
X60960000Y45720000D01*
X61170736Y44450000D02*
X61595000Y44450000D01*
X41910000Y55880000D02*
X43182792Y55880000D01*
X54612792Y44450000D02*
X61170736Y44450000D01*
X61894999Y44749999D02*
X61595000Y44450000D01*
X43182792Y55880000D02*
X54612792Y44450000D01*
X61346102Y46990000D02*
X61470551Y46865551D01*
X57150000Y46990000D02*
X61346102Y46990000D01*
X56250001Y59319999D02*
X64135000Y51435000D01*
X41910000Y58420000D02*
X42809999Y59319999D01*
X42809999Y59319999D02*
X56250001Y59319999D01*
D22*
G36*
X1239449Y59290643D02*
X1005267Y58726670D01*
X1004735Y58116009D01*
X1237932Y57551629D01*
X1639182Y57149677D01*
X1239449Y56750643D01*
X1005267Y56186670D01*
X1004735Y55576009D01*
X1237932Y55011629D01*
X1639182Y54609677D01*
X1239449Y54210643D01*
X1005267Y53646670D01*
X1004735Y53036009D01*
X1237932Y52471629D01*
X1669357Y52039449D01*
X1690194Y52030797D01*
X1639446Y51880159D01*
X2540000Y50979605D01*
X3440554Y51880159D01*
X3389965Y52030327D01*
X3408371Y52037932D01*
X3840551Y52469357D01*
X4074733Y53033330D01*
X4075265Y53643991D01*
X3842068Y54208371D01*
X3440818Y54610323D01*
X3840551Y55009357D01*
X4074733Y55573330D01*
X4075265Y56183991D01*
X3842068Y56748371D01*
X3440818Y57150323D01*
X3840551Y57549357D01*
X4074733Y58113330D01*
X4075265Y58723991D01*
X3842068Y59288371D01*
X3595870Y59535000D01*
X40854234Y59535000D01*
X40609449Y59290643D01*
X40375267Y58726670D01*
X40374735Y58116009D01*
X40607932Y57551629D01*
X41009182Y57149677D01*
X40609449Y56750643D01*
X40375267Y56186670D01*
X40374735Y55576009D01*
X40607932Y55011629D01*
X41009182Y54609677D01*
X40609449Y54210643D01*
X40375267Y53646670D01*
X40374735Y53036009D01*
X40420485Y52925287D01*
X31807599Y44312401D01*
X31642852Y44065839D01*
X31585000Y43775000D01*
X31585000Y36928246D01*
X31533200Y36906843D01*
X31129176Y36503523D01*
X31095187Y36421669D01*
X31062243Y36501400D01*
X30658923Y36905424D01*
X30131691Y37124350D01*
X29560813Y37124848D01*
X29033200Y36906843D01*
X28629176Y36503523D01*
X28601577Y36437056D01*
X28598864Y36443605D01*
X28352745Y36517739D01*
X27524605Y35689600D01*
X28352745Y34861461D01*
X28598864Y34935595D01*
X28601196Y34942083D01*
X28627757Y34877800D01*
X29031077Y34473776D01*
X29558309Y34254850D01*
X30129187Y34254352D01*
X30656800Y34472357D01*
X31060824Y34875677D01*
X31094813Y34957531D01*
X31127757Y34877800D01*
X31531077Y34473776D01*
X32058309Y34254850D01*
X32629187Y34254352D01*
X33156800Y34472357D01*
X33366663Y34681855D01*
X46201861Y34681855D01*
X46275995Y34435736D01*
X46813223Y34242635D01*
X47383454Y34269822D01*
X47784005Y34435736D01*
X47858139Y34681855D01*
X47030000Y35509995D01*
X46201861Y34681855D01*
X33366663Y34681855D01*
X33560824Y34875677D01*
X33779750Y35402909D01*
X33780189Y35906377D01*
X45583035Y35906377D01*
X45610222Y35336146D01*
X45776136Y34935595D01*
X46022255Y34861461D01*
X46850395Y35689600D01*
X47209605Y35689600D01*
X48037745Y34861461D01*
X48283864Y34935595D01*
X48286196Y34942083D01*
X48312757Y34877800D01*
X48716077Y34473776D01*
X48793166Y34441766D01*
X48827852Y34267391D01*
X48992599Y34020829D01*
X49895829Y33117599D01*
X50142391Y32952852D01*
X50433230Y32895000D01*
X53809367Y32895000D01*
X53675162Y32571799D01*
X53674838Y32199833D01*
X53816883Y31856057D01*
X53922710Y31750046D01*
X53817808Y31645327D01*
X53675162Y31301799D01*
X53674838Y30929833D01*
X53816883Y30586057D01*
X54079673Y30322808D01*
X54423201Y30180162D01*
X54795167Y30179838D01*
X55138943Y30321883D01*
X55172118Y30355000D01*
X62565034Y30355000D01*
X62564838Y30129820D01*
X62706883Y29786044D01*
X62969673Y29522795D01*
X63313201Y29380149D01*
X63360077Y29380108D01*
X65822253Y26917932D01*
X65602630Y26918123D01*
X65304649Y26795000D01*
X64300617Y26795000D01*
X64434822Y27118201D01*
X64435146Y27490167D01*
X64293101Y27833943D01*
X64030311Y28097192D01*
X63686783Y28239838D01*
X63314817Y28240162D01*
X62971041Y28098117D01*
X62937866Y28065000D01*
X51997463Y28065000D01*
X51965327Y28097192D01*
X51621799Y28239838D01*
X51249833Y28240162D01*
X50906057Y28098117D01*
X50642808Y27835327D01*
X50500162Y27491799D01*
X50499838Y27119833D01*
X50569432Y26951403D01*
X50271057Y26828117D01*
X50007808Y26565327D01*
X49865162Y26221799D01*
X49864838Y25849833D01*
X50006883Y25506057D01*
X50269673Y25242808D01*
X50613201Y25100162D01*
X50985167Y25099838D01*
X51328943Y25241883D01*
X51362118Y25275000D01*
X65173386Y25275000D01*
X65257470Y25190769D01*
X65600998Y25048123D01*
X65972964Y25047799D01*
X66316740Y25189844D01*
X66579989Y25452634D01*
X66722635Y25796162D01*
X66722828Y26017357D01*
X68322184Y24418000D01*
X68280162Y24316799D01*
X68279838Y23944833D01*
X68421883Y23601057D01*
X68684673Y23337808D01*
X69028201Y23195162D01*
X69400167Y23194838D01*
X69743943Y23336883D01*
X70007192Y23599673D01*
X70149838Y23943201D01*
X70149910Y24025288D01*
X70995000Y23180198D01*
X70995000Y22539802D01*
X70980320Y22525122D01*
X70934833Y22525162D01*
X70591057Y22383117D01*
X70327808Y22120327D01*
X70185162Y21776799D01*
X70184838Y21404833D01*
X70326883Y21061057D01*
X70589673Y20797808D01*
X70933201Y20655162D01*
X71305167Y20654838D01*
X71648943Y20796883D01*
X71912192Y21059673D01*
X72054838Y21403201D01*
X72054879Y21450077D01*
X72292401Y21687599D01*
X72457148Y21934161D01*
X72515000Y22225000D01*
X72515000Y23495000D01*
X72457148Y23785839D01*
X72292401Y24032401D01*
X69438607Y26886195D01*
X98185800Y26886195D01*
X98267741Y26633484D01*
X98828030Y26429752D01*
X99423635Y26455942D01*
X99852259Y26633484D01*
X99934200Y26886195D01*
X99060000Y27760395D01*
X98185800Y26886195D01*
X69438607Y26886195D01*
X68152832Y28171970D01*
X97549752Y28171970D01*
X97575942Y27576365D01*
X97753484Y27147741D01*
X98006195Y27065800D01*
X98880395Y27940000D01*
X99239605Y27940000D01*
X100113805Y27065800D01*
X100366516Y27147741D01*
X100570248Y27708030D01*
X100544058Y28303635D01*
X100366516Y28732259D01*
X100113805Y28814200D01*
X99239605Y27940000D01*
X98880395Y27940000D01*
X98006195Y28814200D01*
X97753484Y28732259D01*
X97549752Y28171970D01*
X68152832Y28171970D01*
X66340122Y29984680D01*
X66340162Y30030167D01*
X66205944Y30355000D01*
X68652537Y30355000D01*
X68684673Y30322808D01*
X69028201Y30180162D01*
X69400167Y30179838D01*
X69743943Y30321883D01*
X70007192Y30584673D01*
X70149838Y30928201D01*
X70150162Y31300167D01*
X70015944Y31625000D01*
X70557537Y31625000D01*
X70589673Y31592808D01*
X70933201Y31450162D01*
X71305167Y31449838D01*
X71648943Y31591883D01*
X71912192Y31854673D01*
X72054838Y32198201D01*
X72055162Y32570167D01*
X71913117Y32913943D01*
X71650327Y33177192D01*
X71350668Y33301622D01*
X71419838Y33468201D01*
X71420162Y33840167D01*
X71278117Y34183943D01*
X71050888Y34411569D01*
X71428309Y34254850D01*
X71999187Y34254352D01*
X72526800Y34472357D01*
X72736663Y34681855D01*
X85571861Y34681855D01*
X85645995Y34435736D01*
X86183223Y34242635D01*
X86753454Y34269822D01*
X87154005Y34435736D01*
X87228139Y34681855D01*
X86400000Y35509995D01*
X85571861Y34681855D01*
X72736663Y34681855D01*
X72930824Y34875677D01*
X73149750Y35402909D01*
X73150189Y35906377D01*
X84953035Y35906377D01*
X84980222Y35336146D01*
X85146136Y34935595D01*
X85392255Y34861461D01*
X86220395Y35689600D01*
X86579605Y35689600D01*
X87407745Y34861461D01*
X87653864Y34935595D01*
X87656196Y34942083D01*
X87682757Y34877800D01*
X88086077Y34473776D01*
X88613309Y34254850D01*
X89184187Y34254352D01*
X89711800Y34472357D01*
X90115824Y34875677D01*
X90149813Y34957531D01*
X90182757Y34877800D01*
X90586077Y34473776D01*
X91113309Y34254850D01*
X91684187Y34254352D01*
X92211800Y34472357D01*
X92615824Y34875677D01*
X92834750Y35402909D01*
X92835248Y35973787D01*
X92617243Y36501400D01*
X92213923Y36905424D01*
X92160000Y36927815D01*
X92160000Y37715996D01*
X95125000Y40680996D01*
X95125000Y35487463D01*
X95092808Y35455327D01*
X94950162Y35111799D01*
X94949838Y34739833D01*
X95091883Y34396057D01*
X95354673Y34132808D01*
X95698201Y33990162D01*
X96070167Y33989838D01*
X96413943Y34131883D01*
X96519954Y34237710D01*
X96624673Y34132808D01*
X96968201Y33990162D01*
X97340167Y33989838D01*
X97683943Y34131883D01*
X97947192Y34394673D01*
X97993786Y34506884D01*
X98210003Y34290290D01*
X98210931Y34289905D01*
X97790290Y33869997D01*
X97561661Y33319398D01*
X97561141Y32723218D01*
X97788808Y32172220D01*
X98210003Y31750290D01*
X98210931Y31749905D01*
X97790290Y31329997D01*
X97561661Y30779398D01*
X97561141Y30183218D01*
X97788808Y29632220D01*
X98210003Y29210290D01*
X98250537Y29193459D01*
X98185800Y28993805D01*
X99060000Y28119605D01*
X99934200Y28993805D01*
X99869601Y29193033D01*
X99907780Y29208808D01*
X100329710Y29630003D01*
X100558339Y30180602D01*
X100558859Y30776782D01*
X100331192Y31327780D01*
X99909997Y31749710D01*
X99909069Y31750095D01*
X100329710Y32170003D01*
X100558339Y32720602D01*
X100558859Y33316782D01*
X100495620Y33469833D01*
X101299838Y33469833D01*
X101441883Y33126057D01*
X101475000Y33092882D01*
X101475000Y28575000D01*
X101532852Y28284161D01*
X101697599Y28037599D01*
X103080001Y26655197D01*
X103080001Y26334999D01*
X103137853Y26044160D01*
X103302600Y25797598D01*
X105744878Y23355320D01*
X105744838Y23309833D01*
X105886883Y22966057D01*
X106149673Y22702808D01*
X106493201Y22560162D01*
X106865167Y22559838D01*
X107208943Y22701883D01*
X107472192Y22964673D01*
X107614838Y23308201D01*
X107615162Y23680167D01*
X107473117Y24023943D01*
X107210327Y24287192D01*
X106866799Y24429838D01*
X106819923Y24429879D01*
X104600001Y26649801D01*
X104600001Y26969999D01*
X104554461Y27198943D01*
X104542149Y27260839D01*
X104377402Y27507400D01*
X102995000Y28889802D01*
X102995000Y32199833D01*
X103204838Y32199833D01*
X103346883Y31856057D01*
X103380000Y31822882D01*
X103380000Y29845000D01*
X103437852Y29554161D01*
X103602599Y29307599D01*
X107649878Y25260320D01*
X107649838Y25214833D01*
X107791883Y24871057D01*
X108054673Y24607808D01*
X108398201Y24465162D01*
X108770167Y24464838D01*
X109113943Y24606883D01*
X109377192Y24869673D01*
X109519838Y25213201D01*
X109520162Y25585167D01*
X109378117Y25928943D01*
X109115327Y26192192D01*
X108771799Y26334838D01*
X108724923Y26334879D01*
X104900000Y30159802D01*
X104900000Y30629898D01*
X105111249Y30629898D01*
X105253294Y30286122D01*
X105516084Y30022873D01*
X105859612Y29880227D01*
X106205272Y29879926D01*
X109554878Y26530320D01*
X109554838Y26484833D01*
X109696883Y26141057D01*
X109959673Y25877808D01*
X110303201Y25735162D01*
X110675167Y25734838D01*
X111018943Y25876883D01*
X111282192Y26139673D01*
X111424838Y26483201D01*
X111425162Y26855167D01*
X111283117Y27198943D01*
X111020327Y27462192D01*
X110676799Y27604838D01*
X110629923Y27604879D01*
X106882336Y31352466D01*
X106728423Y31455307D01*
X106576738Y31607257D01*
X106233210Y31749903D01*
X105861244Y31750227D01*
X105517468Y31608182D01*
X105254219Y31345392D01*
X105111573Y31001864D01*
X105111249Y30629898D01*
X104900000Y30629898D01*
X104900000Y31822537D01*
X104932192Y31854673D01*
X105074838Y32198201D01*
X105075162Y32570167D01*
X104933117Y32913943D01*
X104670327Y33177192D01*
X104326799Y33319838D01*
X103954833Y33320162D01*
X103611057Y33178117D01*
X103347808Y32915327D01*
X103205162Y32571799D01*
X103204838Y32199833D01*
X102995000Y32199833D01*
X102995000Y33092537D01*
X103027192Y33124673D01*
X103169838Y33468201D01*
X103170162Y33840167D01*
X103028117Y34183943D01*
X102765327Y34447192D01*
X102421799Y34589838D01*
X102049833Y34590162D01*
X101706057Y34448117D01*
X101442808Y34185327D01*
X101300162Y33841799D01*
X101299838Y33469833D01*
X100495620Y33469833D01*
X100331192Y33867780D01*
X99909997Y34289710D01*
X99909069Y34290095D01*
X100301512Y34681855D01*
X105256861Y34681855D01*
X105330995Y34435736D01*
X105868223Y34242635D01*
X106438454Y34269822D01*
X106839005Y34435736D01*
X106913139Y34681855D01*
X106085000Y35509995D01*
X105256861Y34681855D01*
X100301512Y34681855D01*
X100329710Y34710003D01*
X100558339Y35260602D01*
X100558859Y35856782D01*
X100538367Y35906377D01*
X104638035Y35906377D01*
X104665222Y35336146D01*
X104831136Y34935595D01*
X105077255Y34861461D01*
X105905395Y35689600D01*
X105077255Y36517739D01*
X104831136Y36443605D01*
X104638035Y35906377D01*
X100538367Y35906377D01*
X100331192Y36407780D01*
X100042132Y36697345D01*
X105256861Y36697345D01*
X106085000Y35869205D01*
X106913139Y36697345D01*
X106839005Y36943464D01*
X106301777Y37136565D01*
X105731546Y37109378D01*
X105330995Y36943464D01*
X105256861Y36697345D01*
X100042132Y36697345D01*
X99909997Y36829710D01*
X99909069Y36830095D01*
X100329710Y37250003D01*
X100558339Y37800602D01*
X100558859Y38396782D01*
X100331192Y38947780D01*
X99909997Y39369710D01*
X99909069Y39370095D01*
X100329710Y39790003D01*
X100367080Y39880000D01*
X105819798Y39880000D01*
X108575189Y37124609D01*
X108300813Y37124848D01*
X107773200Y36906843D01*
X107369176Y36503523D01*
X107341577Y36437056D01*
X107338864Y36443605D01*
X107092745Y36517739D01*
X106264605Y35689600D01*
X107092745Y34861461D01*
X107338864Y34935595D01*
X107341196Y34942083D01*
X107367757Y34877800D01*
X107771077Y34473776D01*
X108298309Y34254850D01*
X108869187Y34254352D01*
X109396800Y34472357D01*
X109800824Y34875677D01*
X109834813Y34957531D01*
X109867757Y34877800D01*
X110271077Y34473776D01*
X110798309Y34254850D01*
X111369187Y34254352D01*
X111423149Y34276649D01*
X115122199Y30577599D01*
X115368761Y30412852D01*
X115659600Y30355000D01*
X126195400Y30355000D01*
X126486239Y30412852D01*
X126732801Y30577599D01*
X127847030Y31691828D01*
X153832538Y31691828D01*
X154237709Y30711239D01*
X154987293Y29960345D01*
X155967173Y29553464D01*
X157028172Y29552538D01*
X158008761Y29957709D01*
X158759655Y30707293D01*
X159166536Y31687173D01*
X159167462Y32748172D01*
X158762291Y33728761D01*
X158012707Y34479655D01*
X157032827Y34886536D01*
X155971828Y34887462D01*
X154991239Y34482291D01*
X154240345Y33732707D01*
X153833464Y32752827D01*
X153832538Y31691828D01*
X127847030Y31691828D01*
X130431546Y34276344D01*
X130483309Y34254850D01*
X131054187Y34254352D01*
X131581800Y34472357D01*
X131791663Y34681855D01*
X144626861Y34681855D01*
X144700995Y34435736D01*
X145238223Y34242635D01*
X145808454Y34269822D01*
X146209005Y34435736D01*
X146283139Y34681855D01*
X145455000Y35509995D01*
X144626861Y34681855D01*
X131791663Y34681855D01*
X131985824Y34875677D01*
X132204750Y35402909D01*
X132205189Y35906377D01*
X144008035Y35906377D01*
X144035222Y35336146D01*
X144201136Y34935595D01*
X144447255Y34861461D01*
X145275395Y35689600D01*
X145634605Y35689600D01*
X146462745Y34861461D01*
X146708864Y34935595D01*
X146711196Y34942083D01*
X146737757Y34877800D01*
X147141077Y34473776D01*
X147668309Y34254850D01*
X148239187Y34254352D01*
X148766800Y34472357D01*
X149170824Y34875677D01*
X149204813Y34957531D01*
X149237757Y34877800D01*
X149641077Y34473776D01*
X150168309Y34254850D01*
X150739187Y34254352D01*
X151266800Y34472357D01*
X151670824Y34875677D01*
X151889750Y35402909D01*
X151890248Y35973787D01*
X151672243Y36501400D01*
X151268923Y36905424D01*
X150741691Y37124350D01*
X150170813Y37124848D01*
X149643200Y36906843D01*
X149239176Y36503523D01*
X149205187Y36421669D01*
X149172243Y36501400D01*
X148768923Y36905424D01*
X148241691Y37124350D01*
X147670813Y37124848D01*
X147143200Y36906843D01*
X146739176Y36503523D01*
X146711577Y36437056D01*
X146708864Y36443605D01*
X146462745Y36517739D01*
X145634605Y35689600D01*
X145275395Y35689600D01*
X144447255Y36517739D01*
X144201136Y36443605D01*
X144008035Y35906377D01*
X132205189Y35906377D01*
X132205248Y35973787D01*
X131987243Y36501400D01*
X131791640Y36697345D01*
X144626861Y36697345D01*
X145455000Y35869205D01*
X146283139Y36697345D01*
X146209005Y36943464D01*
X145671777Y37136565D01*
X145101546Y37109378D01*
X144700995Y36943464D01*
X144626861Y36697345D01*
X131791640Y36697345D01*
X131583923Y36905424D01*
X131056691Y37124350D01*
X130485813Y37124848D01*
X129958200Y36906843D01*
X129554176Y36503523D01*
X129520187Y36421669D01*
X129487243Y36501400D01*
X129083923Y36905424D01*
X128556691Y37124350D01*
X127985813Y37124848D01*
X127458200Y36906843D01*
X127054176Y36503523D01*
X127026577Y36437056D01*
X127023864Y36443605D01*
X126777745Y36517739D01*
X125949605Y35689600D01*
X126777745Y34861461D01*
X127023864Y34935595D01*
X127026196Y34942083D01*
X127052757Y34877800D01*
X127456077Y34473776D01*
X127983309Y34254850D01*
X128260206Y34254608D01*
X125880598Y31875000D01*
X115974402Y31875000D01*
X113167547Y34681855D01*
X124941861Y34681855D01*
X125015995Y34435736D01*
X125553223Y34242635D01*
X126123454Y34269822D01*
X126524005Y34435736D01*
X126598139Y34681855D01*
X125770000Y35509995D01*
X124941861Y34681855D01*
X113167547Y34681855D01*
X112498256Y35351146D01*
X112519750Y35402909D01*
X112520189Y35906377D01*
X124323035Y35906377D01*
X124350222Y35336146D01*
X124516136Y34935595D01*
X124762255Y34861461D01*
X125590395Y35689600D01*
X124762255Y36517739D01*
X124516136Y36443605D01*
X124323035Y35906377D01*
X112520189Y35906377D01*
X112520248Y35973787D01*
X112302243Y36501400D01*
X112106640Y36697345D01*
X124941861Y36697345D01*
X125770000Y35869205D01*
X126598139Y36697345D01*
X126524005Y36943464D01*
X125986777Y37136565D01*
X125416546Y37109378D01*
X125015995Y36943464D01*
X124941861Y36697345D01*
X112106640Y36697345D01*
X111898923Y36905424D01*
X111371691Y37124350D01*
X110800813Y37124848D01*
X110746851Y37102551D01*
X106672001Y41177401D01*
X106425439Y41342148D01*
X106134600Y41400000D01*
X105981286Y41400000D01*
X106042073Y41460681D01*
X106375420Y42263470D01*
X106375423Y42267283D01*
X110793821Y42267283D01*
X111125767Y41463914D01*
X111739881Y40848727D01*
X112542670Y40515380D01*
X113411917Y40514621D01*
X114215286Y40846567D01*
X114830473Y41460681D01*
X115163820Y42263470D01*
X115163823Y42267283D01*
X121690421Y42267283D01*
X122022367Y41463914D01*
X122636481Y40848727D01*
X123439270Y40515380D01*
X124308517Y40514621D01*
X125111886Y40846567D01*
X125727073Y41460681D01*
X126060420Y42263470D01*
X126060423Y42267283D01*
X130478821Y42267283D01*
X130810767Y41463914D01*
X131424881Y40848727D01*
X132227670Y40515380D01*
X133096917Y40514621D01*
X133900286Y40846567D01*
X134515473Y41460681D01*
X134848820Y42263470D01*
X134848823Y42267283D01*
X141375421Y42267283D01*
X141707367Y41463914D01*
X142321481Y40848727D01*
X143124270Y40515380D01*
X143993517Y40514621D01*
X144796886Y40846567D01*
X145412073Y41460681D01*
X145745420Y42263470D01*
X145745423Y42267283D01*
X150163821Y42267283D01*
X150495767Y41463914D01*
X151109881Y40848727D01*
X151912670Y40515380D01*
X152781917Y40514621D01*
X153585286Y40846567D01*
X154200473Y41460681D01*
X154533820Y42263470D01*
X154534579Y43132717D01*
X154202633Y43936086D01*
X153588519Y44551273D01*
X152785730Y44884620D01*
X151916483Y44885379D01*
X151113114Y44553433D01*
X150497927Y43939319D01*
X150164580Y43136530D01*
X150163821Y42267283D01*
X145745423Y42267283D01*
X145746179Y43132717D01*
X145414233Y43936086D01*
X144800119Y44551273D01*
X143997330Y44884620D01*
X143128083Y44885379D01*
X142324714Y44553433D01*
X141709527Y43939319D01*
X141376180Y43136530D01*
X141375421Y42267283D01*
X134848823Y42267283D01*
X134849579Y43132717D01*
X134517633Y43936086D01*
X133903519Y44551273D01*
X133100730Y44884620D01*
X132231483Y44885379D01*
X131428114Y44553433D01*
X130812927Y43939319D01*
X130479580Y43136530D01*
X130478821Y42267283D01*
X126060423Y42267283D01*
X126061179Y43132717D01*
X125729233Y43936086D01*
X125115119Y44551273D01*
X124312330Y44884620D01*
X123443083Y44885379D01*
X122639714Y44553433D01*
X122024527Y43939319D01*
X121691180Y43136530D01*
X121690421Y42267283D01*
X115163823Y42267283D01*
X115164579Y43132717D01*
X114832633Y43936086D01*
X114218519Y44551273D01*
X113415730Y44884620D01*
X112546483Y44885379D01*
X111743114Y44553433D01*
X111127927Y43939319D01*
X110794580Y43136530D01*
X110793821Y42267283D01*
X106375423Y42267283D01*
X106376179Y43132717D01*
X106044233Y43936086D01*
X105430119Y44551273D01*
X104627330Y44884620D01*
X103758083Y44885379D01*
X102954714Y44553433D01*
X102339527Y43939319D01*
X102006180Y43136530D01*
X102005421Y42267283D01*
X102337367Y41463914D01*
X102401170Y41400000D01*
X101090000Y41400000D01*
X101090000Y43180000D01*
X101032148Y43470839D01*
X101032148Y43470840D01*
X100867401Y43717401D01*
X99597401Y44987401D01*
X99350839Y45152148D01*
X99060000Y45210000D01*
X97819202Y45210000D01*
X97528363Y45152148D01*
X97281801Y44987401D01*
X95464240Y43169840D01*
X95147633Y43936086D01*
X94533519Y44551273D01*
X93730730Y44884620D01*
X92861483Y44885379D01*
X92058114Y44553433D01*
X91442927Y43939319D01*
X91109580Y43136530D01*
X91108821Y42267283D01*
X91440767Y41463914D01*
X92054881Y40848727D01*
X92823831Y40529431D01*
X90862599Y38568199D01*
X90697852Y38321637D01*
X90640000Y38030798D01*
X90640000Y36928246D01*
X90588200Y36906843D01*
X90184176Y36503523D01*
X90150187Y36421669D01*
X90117243Y36501400D01*
X89713923Y36905424D01*
X89186691Y37124350D01*
X88615813Y37124848D01*
X88088200Y36906843D01*
X87684176Y36503523D01*
X87656577Y36437056D01*
X87653864Y36443605D01*
X87407745Y36517739D01*
X86579605Y35689600D01*
X86220395Y35689600D01*
X85392255Y36517739D01*
X85146136Y36443605D01*
X84953035Y35906377D01*
X73150189Y35906377D01*
X73150248Y35973787D01*
X72932243Y36501400D01*
X72736640Y36697345D01*
X85571861Y36697345D01*
X86400000Y35869205D01*
X87228139Y36697345D01*
X87154005Y36943464D01*
X86616777Y37136565D01*
X86046546Y37109378D01*
X85645995Y36943464D01*
X85571861Y36697345D01*
X72736640Y36697345D01*
X72528923Y36905424D01*
X72001691Y37124350D01*
X71430813Y37124848D01*
X71376851Y37102551D01*
X67937001Y40542401D01*
X67690439Y40707148D01*
X67399600Y40765000D01*
X65859479Y40765000D01*
X66056886Y40846567D01*
X66672073Y41460681D01*
X67005420Y42263470D01*
X67005423Y42267283D01*
X71423821Y42267283D01*
X71755767Y41463914D01*
X72369881Y40848727D01*
X73172670Y40515380D01*
X74041917Y40514621D01*
X74845286Y40846567D01*
X75460473Y41460681D01*
X75793820Y42263470D01*
X75793823Y42267283D01*
X82320421Y42267283D01*
X82652367Y41463914D01*
X83266481Y40848727D01*
X84069270Y40515380D01*
X84938517Y40514621D01*
X85741886Y40846567D01*
X86357073Y41460681D01*
X86690420Y42263470D01*
X86691179Y43132717D01*
X86359233Y43936086D01*
X85745119Y44551273D01*
X84942330Y44884620D01*
X84073083Y44885379D01*
X83269714Y44553433D01*
X82654527Y43939319D01*
X82321180Y43136530D01*
X82320421Y42267283D01*
X75793823Y42267283D01*
X75794579Y43132717D01*
X75462633Y43936086D01*
X74848519Y44551273D01*
X74510025Y44691828D01*
X77332538Y44691828D01*
X77737709Y43711239D01*
X78487293Y42960345D01*
X79467173Y42553464D01*
X80528172Y42552538D01*
X81508761Y42957709D01*
X82259655Y43707293D01*
X82666536Y44687173D01*
X82667462Y45748172D01*
X82262291Y46728761D01*
X81512707Y47479655D01*
X80532827Y47886536D01*
X79471828Y47887462D01*
X78491239Y47482291D01*
X77740345Y46732707D01*
X77333464Y45752827D01*
X77332538Y44691828D01*
X74510025Y44691828D01*
X74045730Y44884620D01*
X73176483Y44885379D01*
X72373114Y44553433D01*
X71757927Y43939319D01*
X71424580Y43136530D01*
X71423821Y42267283D01*
X67005423Y42267283D01*
X67006179Y43132717D01*
X66674233Y43936086D01*
X66060119Y44551273D01*
X65257330Y44884620D01*
X64388083Y44885379D01*
X63584714Y44553433D01*
X62969527Y43939319D01*
X62636180Y43136530D01*
X62635421Y42267283D01*
X62967367Y41463914D01*
X63581481Y40848727D01*
X63783118Y40765000D01*
X62792463Y40765000D01*
X62760327Y40797192D01*
X62416799Y40939838D01*
X62044833Y40940162D01*
X61701057Y40798117D01*
X61667882Y40765000D01*
X57077463Y40765000D01*
X57045327Y40797192D01*
X56701799Y40939838D01*
X56329833Y40940162D01*
X55986057Y40798117D01*
X55722808Y40535327D01*
X55580162Y40191799D01*
X55579838Y39819833D01*
X55721883Y39476057D01*
X55984673Y39212808D01*
X56328201Y39070162D01*
X56700167Y39069838D01*
X57043943Y39211883D01*
X57077118Y39245000D01*
X61667537Y39245000D01*
X61699673Y39212808D01*
X62043201Y39070162D01*
X62415167Y39069838D01*
X62758943Y39211883D01*
X62792118Y39245000D01*
X67084798Y39245000D01*
X69205189Y37124609D01*
X68930813Y37124848D01*
X68403200Y36906843D01*
X67999176Y36503523D01*
X67971577Y36437056D01*
X67968864Y36443605D01*
X67722745Y36517739D01*
X66894605Y35689600D01*
X67722745Y34861461D01*
X67968864Y34935595D01*
X67971196Y34942083D01*
X67997757Y34877800D01*
X68401077Y34473776D01*
X68542625Y34415000D01*
X67418944Y34415000D01*
X67469005Y34435736D01*
X67543139Y34681855D01*
X66715000Y35509995D01*
X65886861Y34681855D01*
X65960995Y34435736D01*
X66018685Y34415000D01*
X52702985Y34415000D01*
X52841800Y34472357D01*
X53245824Y34875677D01*
X53464750Y35402909D01*
X53465189Y35906377D01*
X65268035Y35906377D01*
X65295222Y35336146D01*
X65461136Y34935595D01*
X65707255Y34861461D01*
X66535395Y35689600D01*
X65707255Y36517739D01*
X65461136Y36443605D01*
X65268035Y35906377D01*
X53465189Y35906377D01*
X53465248Y35973787D01*
X53247243Y36501400D01*
X53051640Y36697345D01*
X65886861Y36697345D01*
X66715000Y35869205D01*
X67543139Y36697345D01*
X67469005Y36943464D01*
X66931777Y37136565D01*
X66361546Y37109378D01*
X65960995Y36943464D01*
X65886861Y36697345D01*
X53051640Y36697345D01*
X52843923Y36905424D01*
X52316691Y37124350D01*
X51745813Y37124848D01*
X51218200Y36906843D01*
X50814176Y36503523D01*
X50780187Y36421669D01*
X50747243Y36501400D01*
X50343923Y36905424D01*
X49816691Y37124350D01*
X49245813Y37124848D01*
X48718200Y36906843D01*
X48314176Y36503523D01*
X48286577Y36437056D01*
X48283864Y36443605D01*
X48037745Y36517739D01*
X47209605Y35689600D01*
X46850395Y35689600D01*
X46022255Y36517739D01*
X45776136Y36443605D01*
X45583035Y35906377D01*
X33780189Y35906377D01*
X33780248Y35973787D01*
X33562243Y36501400D01*
X33366640Y36697345D01*
X46201861Y36697345D01*
X47030000Y35869205D01*
X47858139Y36697345D01*
X47784005Y36943464D01*
X47246777Y37136565D01*
X46676546Y37109378D01*
X46275995Y36943464D01*
X46201861Y36697345D01*
X33366640Y36697345D01*
X33158923Y36905424D01*
X33105000Y36927815D01*
X33105000Y40805078D01*
X33802670Y40515380D01*
X34671917Y40514621D01*
X35475286Y40846567D01*
X36090473Y41460681D01*
X36423820Y42263470D01*
X36423823Y42267283D01*
X42950421Y42267283D01*
X43282367Y41463914D01*
X43896481Y40848727D01*
X44699270Y40515380D01*
X45568517Y40514621D01*
X46371886Y40846567D01*
X46987073Y41460681D01*
X47320420Y42263470D01*
X47321179Y43132717D01*
X46989233Y43936086D01*
X46375119Y44551273D01*
X45572330Y44884620D01*
X44703083Y44885379D01*
X43899714Y44553433D01*
X43284527Y43939319D01*
X42951180Y43136530D01*
X42950421Y42267283D01*
X36423823Y42267283D01*
X36424579Y43132717D01*
X36092633Y43936086D01*
X35478519Y44551273D01*
X34675730Y44884620D01*
X34529550Y44884748D01*
X39364643Y49719841D01*
X41009446Y49719841D01*
X41095852Y49463357D01*
X41669336Y49253542D01*
X42279460Y49279161D01*
X42724148Y49463357D01*
X42810554Y49719841D01*
X41910000Y50620395D01*
X41009446Y49719841D01*
X39364643Y49719841D01*
X40376515Y50731713D01*
X40389161Y50430540D01*
X40573357Y49985852D01*
X40829841Y49899446D01*
X41730395Y50800000D01*
X42089605Y50800000D01*
X42990159Y49899446D01*
X43246643Y49985852D01*
X43456458Y50559336D01*
X43430839Y51169460D01*
X43246643Y51614148D01*
X42990159Y51700554D01*
X42089605Y50800000D01*
X41730395Y50800000D01*
X41716253Y50814143D01*
X41895858Y50993748D01*
X41910000Y50979605D01*
X42810554Y51880159D01*
X42759965Y52030327D01*
X42778371Y52037932D01*
X43210551Y52469357D01*
X43444733Y53033330D01*
X43445265Y53643991D01*
X43212068Y54208371D01*
X42810818Y54610323D01*
X43094491Y54893499D01*
X53216310Y44771680D01*
X52688114Y44553433D01*
X52072927Y43939319D01*
X51739580Y43136530D01*
X51738821Y42267283D01*
X52070767Y41463914D01*
X52684881Y40848727D01*
X53487670Y40515380D01*
X54356917Y40514621D01*
X55160286Y40846567D01*
X55775473Y41460681D01*
X56108820Y42263470D01*
X56109579Y43132717D01*
X55879314Y43690000D01*
X61032537Y43690000D01*
X61064673Y43657808D01*
X61408201Y43515162D01*
X61780167Y43514838D01*
X62123943Y43656883D01*
X62387192Y43919673D01*
X62529838Y44263201D01*
X62529921Y44358549D01*
X62597147Y44459160D01*
X62654999Y44749999D01*
X62597147Y45040839D01*
X62432400Y45287400D01*
X62428777Y45289821D01*
X62529838Y45533201D01*
X62530162Y45905167D01*
X62388117Y46248943D01*
X62274271Y46362987D01*
X62405389Y46678752D01*
X62405713Y47050718D01*
X62263668Y47394494D01*
X62208683Y47449575D01*
X62539616Y47449287D01*
X62883392Y47591332D01*
X63146641Y47854122D01*
X63289287Y48197650D01*
X63289611Y48569616D01*
X63147566Y48913392D01*
X62990000Y49071233D01*
X62990000Y49719841D01*
X80379446Y49719841D01*
X80465852Y49463357D01*
X81039336Y49253542D01*
X81649460Y49279161D01*
X82094148Y49463357D01*
X82180554Y49719841D01*
X119749446Y49719841D01*
X119835852Y49463357D01*
X120409336Y49253542D01*
X121019460Y49279161D01*
X121464148Y49463357D01*
X121550554Y49719841D01*
X120650000Y50620395D01*
X119749446Y49719841D01*
X82180554Y49719841D01*
X81280000Y50620395D01*
X80379446Y49719841D01*
X62990000Y49719841D01*
X62990000Y50237537D01*
X63022192Y50269673D01*
X63164838Y50613201D01*
X63165162Y50985167D01*
X63023117Y51328943D01*
X62760327Y51592192D01*
X62416799Y51734838D01*
X62044833Y51735162D01*
X61701057Y51593117D01*
X61437808Y51330327D01*
X61295162Y50986799D01*
X61294838Y50614833D01*
X61436883Y50271057D01*
X61470000Y50237882D01*
X61470000Y48692598D01*
X61419611Y48571248D01*
X61419287Y48199282D01*
X61561332Y47855506D01*
X61616317Y47800425D01*
X61285384Y47800713D01*
X61162649Y47750000D01*
X57712463Y47750000D01*
X57680327Y47782192D01*
X57336799Y47924838D01*
X56964833Y47925162D01*
X56621057Y47783117D01*
X56357808Y47520327D01*
X56215162Y47176799D01*
X56214838Y46804833D01*
X56356883Y46461057D01*
X56462710Y46355046D01*
X56357808Y46250327D01*
X56215162Y45906799D01*
X56214838Y45534833D01*
X56349056Y45210000D01*
X54927594Y45210000D01*
X48445766Y51691828D01*
X51332538Y51691828D01*
X51737709Y50711239D01*
X52487293Y49960345D01*
X53467173Y49553464D01*
X54528172Y49552538D01*
X55508761Y49957709D01*
X56259655Y50707293D01*
X56666536Y51687173D01*
X56667462Y52748172D01*
X56262291Y53728761D01*
X55512707Y54479655D01*
X54532827Y54886536D01*
X53471828Y54887462D01*
X52491239Y54482291D01*
X51740345Y53732707D01*
X51333464Y52752827D01*
X51332538Y51691828D01*
X48445766Y51691828D01*
X44442761Y55694833D01*
X47959838Y55694833D01*
X48101883Y55351057D01*
X48364673Y55087808D01*
X48708201Y54945162D01*
X49080167Y54944838D01*
X49423943Y55086883D01*
X49457118Y55120000D01*
X56200198Y55120000D01*
X57484878Y53835320D01*
X57484838Y53789833D01*
X57626883Y53446057D01*
X57889673Y53182808D01*
X58233201Y53040162D01*
X58605167Y53039838D01*
X58948943Y53181883D01*
X59212192Y53444673D01*
X59354838Y53788201D01*
X59355162Y54160167D01*
X59213117Y54503943D01*
X58950327Y54767192D01*
X58606799Y54909838D01*
X58559923Y54909879D01*
X57052401Y56417401D01*
X56805839Y56582148D01*
X56515000Y56640000D01*
X49457463Y56640000D01*
X49425327Y56672192D01*
X49081799Y56814838D01*
X48709833Y56815162D01*
X48366057Y56673117D01*
X48102808Y56410327D01*
X47960162Y56066799D01*
X47959838Y55694833D01*
X44442761Y55694833D01*
X43720193Y56417401D01*
X43473631Y56582148D01*
X43263477Y56623951D01*
X43212068Y56748371D01*
X42810818Y57150323D01*
X43210551Y57549357D01*
X43444733Y58113330D01*
X43445122Y58559999D01*
X55935199Y58559999D01*
X63199878Y51295320D01*
X63199838Y51249833D01*
X63341883Y50906057D01*
X63604673Y50642808D01*
X63948201Y50500162D01*
X64320167Y50499838D01*
X64663943Y50641883D01*
X64927192Y50904673D01*
X64983660Y51040664D01*
X79733542Y51040664D01*
X79759161Y50430540D01*
X79943357Y49985852D01*
X80199841Y49899446D01*
X81100395Y50800000D01*
X80199841Y51700554D01*
X79943357Y51614148D01*
X79733542Y51040664D01*
X64983660Y51040664D01*
X65069838Y51248201D01*
X65070162Y51620167D01*
X64928117Y51963943D01*
X64665327Y52227192D01*
X64321799Y52369838D01*
X64274923Y52369879D01*
X57109802Y59535000D01*
X80224234Y59535000D01*
X79979449Y59290643D01*
X79745267Y58726670D01*
X79744735Y58116009D01*
X79977932Y57551629D01*
X80379182Y57149677D01*
X79979449Y56750643D01*
X79745267Y56186670D01*
X79744735Y55576009D01*
X79977932Y55011629D01*
X80379182Y54609677D01*
X79979449Y54210643D01*
X79745267Y53646670D01*
X79744735Y53036009D01*
X79977932Y52471629D01*
X80409357Y52039449D01*
X80430194Y52030797D01*
X80379446Y51880159D01*
X81280000Y50979605D01*
X81294143Y50993748D01*
X81473748Y50814143D01*
X81459605Y50800000D01*
X82360159Y49899446D01*
X82616643Y49985852D01*
X82826458Y50559336D01*
X82819471Y50725727D01*
X83282599Y50262599D01*
X83529160Y50097852D01*
X83577414Y50088254D01*
X83820000Y50040000D01*
X87067537Y50040000D01*
X87099673Y50007808D01*
X87443201Y49865162D01*
X87815167Y49864838D01*
X88158943Y50006883D01*
X88422192Y50269673D01*
X88564838Y50613201D01*
X88565162Y50985167D01*
X88542232Y51040664D01*
X119103542Y51040664D01*
X119129161Y50430540D01*
X119313357Y49985852D01*
X119569841Y49899446D01*
X120470395Y50800000D01*
X120829605Y50800000D01*
X121730159Y49899446D01*
X121986643Y49985852D01*
X122196458Y50559336D01*
X122170839Y51169460D01*
X121986643Y51614148D01*
X121756061Y51691828D01*
X153832538Y51691828D01*
X154237709Y50711239D01*
X154987293Y49960345D01*
X155967173Y49553464D01*
X157028172Y49552538D01*
X158008761Y49957709D01*
X158759655Y50707293D01*
X159166536Y51687173D01*
X159167462Y52748172D01*
X158762291Y53728761D01*
X158012707Y54479655D01*
X157032827Y54886536D01*
X155971828Y54887462D01*
X154991239Y54482291D01*
X154240345Y53732707D01*
X153833464Y52752827D01*
X153832538Y51691828D01*
X121756061Y51691828D01*
X121730159Y51700554D01*
X120829605Y50800000D01*
X120470395Y50800000D01*
X119569841Y51700554D01*
X119313357Y51614148D01*
X119103542Y51040664D01*
X88542232Y51040664D01*
X88423117Y51328943D01*
X88160327Y51592192D01*
X87816799Y51734838D01*
X87444833Y51735162D01*
X87101057Y51593117D01*
X87067882Y51560000D01*
X84134802Y51560000D01*
X83114802Y52580000D01*
X83820000Y52580000D01*
X84110839Y52637852D01*
X84357401Y52802599D01*
X87769680Y56214878D01*
X87815167Y56214838D01*
X88158943Y56356883D01*
X88422192Y56619673D01*
X88564838Y56963201D01*
X88565162Y57335167D01*
X88423117Y57678943D01*
X88160327Y57942192D01*
X87816799Y58084838D01*
X87444833Y58085162D01*
X87101057Y57943117D01*
X86837808Y57680327D01*
X86695162Y57336799D01*
X86695121Y57289923D01*
X83505198Y54100000D01*
X82626846Y54100000D01*
X82582068Y54208371D01*
X82180818Y54610323D01*
X82580551Y55009357D01*
X82814733Y55573330D01*
X82815265Y56183991D01*
X82582068Y56748371D01*
X82180818Y57150323D01*
X82580551Y57549357D01*
X82814733Y58113330D01*
X82815265Y58723991D01*
X82582068Y59288371D01*
X82335870Y59535000D01*
X119594234Y59535000D01*
X119349449Y59290643D01*
X119115267Y58726670D01*
X119114735Y58116009D01*
X119347932Y57551629D01*
X119749182Y57149677D01*
X119349449Y56750643D01*
X119115267Y56186670D01*
X119114735Y55576009D01*
X119347932Y55011629D01*
X119749182Y54609677D01*
X119349449Y54210643D01*
X119115267Y53646670D01*
X119114735Y53036009D01*
X119347932Y52471629D01*
X119779357Y52039449D01*
X119800194Y52030797D01*
X119749446Y51880159D01*
X120650000Y50979605D01*
X121550554Y51880159D01*
X121499965Y52030327D01*
X121518371Y52037932D01*
X121950551Y52469357D01*
X122184733Y53033330D01*
X122185265Y53643991D01*
X121952068Y54208371D01*
X121550818Y54610323D01*
X121950551Y55009357D01*
X122184733Y55573330D01*
X122185265Y56183991D01*
X121952068Y56748371D01*
X121550818Y57150323D01*
X121950551Y57549357D01*
X122184733Y58113330D01*
X122185265Y58723991D01*
X121952068Y59288371D01*
X121705870Y59535000D01*
X159315000Y59535000D01*
X159315000Y-14555000D01*
X126467424Y-14555000D01*
X126522192Y-14500327D01*
X126664838Y-14156799D01*
X126664879Y-14109923D01*
X126902401Y-13872401D01*
X127067148Y-13625839D01*
X127125000Y-13335000D01*
X127125000Y-6277463D01*
X127157192Y-6245327D01*
X127299838Y-5901799D01*
X127300162Y-5529833D01*
X127158117Y-5186057D01*
X126895327Y-4922808D01*
X126551799Y-4780162D01*
X126179833Y-4779838D01*
X125836057Y-4921883D01*
X125572808Y-5184673D01*
X125448378Y-5484332D01*
X125281799Y-5415162D01*
X124909833Y-5414838D01*
X124566057Y-5556883D01*
X124302808Y-5819673D01*
X124160162Y-6163201D01*
X124159838Y-6535167D01*
X124301883Y-6878943D01*
X124335000Y-6912118D01*
X124335000Y-12385198D01*
X124320320Y-12399878D01*
X124274833Y-12399838D01*
X123931057Y-12541883D01*
X123667808Y-12804673D01*
X123525162Y-13148201D01*
X123524838Y-13520167D01*
X123666883Y-13863943D01*
X123929673Y-14127192D01*
X124273201Y-14269838D01*
X124645167Y-14270162D01*
X124813597Y-14200568D01*
X124936883Y-14498943D01*
X124992842Y-14555000D01*
X685000Y-14555000D01*
X685000Y-7805167D01*
X119714838Y-7805167D01*
X119856883Y-8148943D01*
X119890000Y-8182118D01*
X119890000Y-10232537D01*
X119857808Y-10264673D01*
X119715162Y-10608201D01*
X119714838Y-10980167D01*
X119856883Y-11323943D01*
X120119673Y-11587192D01*
X120463201Y-11729838D01*
X120835167Y-11730162D01*
X121178943Y-11588117D01*
X121442192Y-11325327D01*
X121584838Y-10981799D01*
X121585162Y-10609833D01*
X121443117Y-10266057D01*
X121410000Y-10232882D01*
X121410000Y-8182463D01*
X121442192Y-8150327D01*
X121584838Y-7806799D01*
X121585162Y-7434833D01*
X121475805Y-7170167D01*
X122254838Y-7170167D01*
X122396883Y-7513943D01*
X122430000Y-7547118D01*
X122430000Y-10867537D01*
X122397808Y-10899673D01*
X122255162Y-11243201D01*
X122254838Y-11615167D01*
X122396883Y-11958943D01*
X122659673Y-12222192D01*
X123003201Y-12364838D01*
X123375167Y-12365162D01*
X123718943Y-12223117D01*
X123982192Y-11960327D01*
X124124838Y-11616799D01*
X124125162Y-11244833D01*
X123983117Y-10901057D01*
X123950000Y-10867882D01*
X123950000Y-7547463D01*
X123982192Y-7515327D01*
X124124838Y-7171799D01*
X124125162Y-6799833D01*
X123983117Y-6456057D01*
X123720327Y-6192808D01*
X123376799Y-6050162D01*
X123004833Y-6049838D01*
X122661057Y-6191883D01*
X122397808Y-6454673D01*
X122255162Y-6798201D01*
X122254838Y-7170167D01*
X121475805Y-7170167D01*
X121443117Y-7091057D01*
X121180327Y-6827808D01*
X120836799Y-6685162D01*
X120464833Y-6684838D01*
X120121057Y-6826883D01*
X119857808Y-7089673D01*
X119715162Y-7433201D01*
X119714838Y-7805167D01*
X685000Y-7805167D01*
X685000Y2471828D01*
X832538Y2471828D01*
X1237709Y1491239D01*
X1987293Y740345D01*
X2967173Y333464D01*
X4028172Y332538D01*
X5008761Y737709D01*
X5759655Y1487293D01*
X6166536Y2467173D01*
X6166540Y2471828D01*
X41332538Y2471828D01*
X41737709Y1491239D01*
X42487293Y740345D01*
X43467173Y333464D01*
X44528172Y332538D01*
X45508761Y737709D01*
X46259655Y1487293D01*
X46666536Y2467173D01*
X46667462Y3528172D01*
X46262291Y4508761D01*
X45512707Y5259655D01*
X44532827Y5666536D01*
X43471828Y5667462D01*
X42491239Y5262291D01*
X41740345Y4512707D01*
X41333464Y3532827D01*
X41332538Y2471828D01*
X6166540Y2471828D01*
X6167462Y3528172D01*
X5762291Y4508761D01*
X5012707Y5259655D01*
X4032827Y5666536D01*
X2971828Y5667462D01*
X1991239Y5262291D01*
X1240345Y4512707D01*
X833464Y3532827D01*
X832538Y2471828D01*
X685000Y2471828D01*
X685000Y9146195D01*
X10398300Y9146195D01*
X10480241Y8893484D01*
X11040530Y8689752D01*
X11636135Y8715942D01*
X12064759Y8893484D01*
X12146700Y9146195D01*
X11272500Y10020395D01*
X10398300Y9146195D01*
X685000Y9146195D01*
X685000Y10431970D01*
X9762252Y10431970D01*
X9788442Y9836365D01*
X9965984Y9407741D01*
X10218695Y9325800D01*
X11092895Y10200000D01*
X11452105Y10200000D01*
X12326305Y9325800D01*
X12579016Y9407741D01*
X12782748Y9968030D01*
X12756558Y10563635D01*
X12579016Y10992259D01*
X12326305Y11074200D01*
X11452105Y10200000D01*
X11092895Y10200000D01*
X10218695Y11074200D01*
X9965984Y10992259D01*
X9762252Y10431970D01*
X685000Y10431970D01*
X685000Y21691828D01*
X832538Y21691828D01*
X1237709Y20711239D01*
X1987293Y19960345D01*
X2967173Y19553464D01*
X4028172Y19552538D01*
X5008761Y19957709D01*
X5759655Y20707293D01*
X6166536Y21687173D01*
X6167462Y22748172D01*
X5762291Y23728761D01*
X5012707Y24479655D01*
X4032827Y24886536D01*
X2971828Y24887462D01*
X1991239Y24482291D01*
X1240345Y23732707D01*
X833464Y22752827D01*
X832538Y21691828D01*
X685000Y21691828D01*
X685000Y31691828D01*
X832538Y31691828D01*
X1237709Y30711239D01*
X1987293Y29960345D01*
X2967173Y29553464D01*
X4028172Y29552538D01*
X5008761Y29957709D01*
X5759655Y30707293D01*
X6166536Y31687173D01*
X6167462Y32748172D01*
X5762291Y33728761D01*
X5012707Y34479655D01*
X4525755Y34681855D01*
X6831861Y34681855D01*
X6905995Y34435736D01*
X7443223Y34242635D01*
X8013454Y34269822D01*
X8414005Y34435736D01*
X8488139Y34681855D01*
X7660000Y35509995D01*
X6831861Y34681855D01*
X4525755Y34681855D01*
X4032827Y34886536D01*
X2971828Y34887462D01*
X1991239Y34482291D01*
X1240345Y33732707D01*
X833464Y32752827D01*
X832538Y31691828D01*
X685000Y31691828D01*
X685000Y35906377D01*
X6213035Y35906377D01*
X6240222Y35336146D01*
X6406136Y34935595D01*
X6652255Y34861461D01*
X7480395Y35689600D01*
X7839605Y35689600D01*
X8667745Y34861461D01*
X8913864Y34935595D01*
X8916196Y34942083D01*
X8942757Y34877800D01*
X9346077Y34473776D01*
X9873309Y34254850D01*
X10444187Y34254352D01*
X10512500Y34282578D01*
X10512500Y16507462D01*
X10424720Y16471192D01*
X10002790Y16049997D01*
X9774161Y15499398D01*
X9773641Y14903218D01*
X10001308Y14352220D01*
X10403159Y13949668D01*
X10002790Y13549997D01*
X9774161Y12999398D01*
X9773641Y12403218D01*
X10001308Y11852220D01*
X10422503Y11430290D01*
X10451606Y11418205D01*
X10398300Y11253805D01*
X11272500Y10379605D01*
X12146700Y11253805D01*
X12093538Y11417759D01*
X12120280Y11428808D01*
X12542210Y11850003D01*
X12770839Y12400602D01*
X12771359Y12996782D01*
X12543692Y13547780D01*
X12141841Y13950332D01*
X12542210Y14350003D01*
X12770839Y14900602D01*
X12771359Y15496782D01*
X12543692Y16047780D01*
X12122497Y16469710D01*
X12032500Y16507080D01*
X12032500Y17089200D01*
X13371726Y18428426D01*
X13530781Y18043485D01*
X14018418Y17554996D01*
X14655873Y17290301D01*
X14859971Y17290123D01*
X14567837Y16586584D01*
X14567165Y15816793D01*
X14861130Y15105342D01*
X15404979Y14560543D01*
X16115916Y14265337D01*
X16885707Y14264665D01*
X17597158Y14558630D01*
X18141957Y15102479D01*
X18437163Y15813416D01*
X18437425Y16113492D01*
X18488368Y15990200D01*
X18990059Y15487633D01*
X19418450Y15309750D01*
X18511842Y14935147D01*
X17769958Y14194557D01*
X17367958Y13226433D01*
X17367043Y12178166D01*
X17767353Y11209342D01*
X18507943Y10467458D01*
X19417647Y10089716D01*
X18992700Y9914132D01*
X18490133Y9412441D01*
X18437575Y9285868D01*
X18437835Y9583207D01*
X18143870Y10294658D01*
X17600021Y10839457D01*
X16889084Y11134663D01*
X16119293Y11135335D01*
X15407842Y10841370D01*
X14863043Y10297521D01*
X14567837Y9586584D01*
X14567165Y8816793D01*
X14859153Y8110126D01*
X14658901Y8110301D01*
X14020985Y7846719D01*
X13532496Y7359082D01*
X13267801Y6721627D01*
X13267199Y6031401D01*
X13530781Y5393485D01*
X14018418Y4904996D01*
X14655873Y4640301D01*
X15346099Y4639699D01*
X15984015Y4903281D01*
X16472504Y5390918D01*
X16737199Y6028373D01*
X16737801Y6718599D01*
X16512036Y7264991D01*
X16885707Y7264665D01*
X17597158Y7558630D01*
X18141957Y8102479D01*
X18217399Y8284163D01*
X18217191Y8046499D01*
X18488368Y7390200D01*
X18990059Y6887633D01*
X19645884Y6615311D01*
X20356001Y6614691D01*
X21012300Y6885868D01*
X21514867Y7387559D01*
X21787189Y8043384D01*
X21787399Y8283785D01*
X21861130Y8105342D01*
X22404979Y7560543D01*
X23115916Y7265337D01*
X23493433Y7265007D01*
X23267801Y6721627D01*
X23267199Y6031401D01*
X23530781Y5393485D01*
X24018418Y4904996D01*
X24655873Y4640301D01*
X25346099Y4639699D01*
X25984015Y4903281D01*
X26472504Y5390918D01*
X26737199Y6028373D01*
X26737801Y6718599D01*
X26474219Y7356515D01*
X25986582Y7845004D01*
X25925014Y7870569D01*
X26129961Y7878648D01*
X26596708Y8071981D01*
X26689245Y8333650D01*
X25752500Y9270395D01*
X25738358Y9256253D01*
X25558753Y9435858D01*
X25572895Y9450000D01*
X25558753Y9464143D01*
X25738358Y9643748D01*
X25752500Y9629605D01*
X25766643Y9643748D01*
X25946248Y9464143D01*
X25932105Y9450000D01*
X26868850Y8513255D01*
X27130519Y8605792D01*
X27348688Y9197398D01*
X27323852Y9827461D01*
X27130519Y10294208D01*
X26868852Y10386744D01*
X26983266Y10501158D01*
X26915504Y10568920D01*
X27526013Y10315415D01*
X28474825Y10314587D01*
X29157804Y10596788D01*
X28909586Y10349003D01*
X28667776Y9766659D01*
X28667225Y9136107D01*
X28908019Y8553343D01*
X29353497Y8107086D01*
X29935841Y7865276D01*
X30566393Y7864725D01*
X31149157Y8105519D01*
X31595414Y8550997D01*
X31837224Y9133341D01*
X31837775Y9763893D01*
X31596981Y10346657D01*
X31151503Y10792914D01*
X30569159Y11034724D01*
X29938607Y11035275D01*
X29549768Y10874609D01*
X30023226Y11347242D01*
X30387085Y12223513D01*
X30387913Y13172325D01*
X30025584Y14049229D01*
X29550261Y14525383D01*
X29935841Y14365276D01*
X30566393Y14364725D01*
X31149157Y14605519D01*
X31595414Y15050997D01*
X31837224Y15633341D01*
X31837775Y16263893D01*
X31596981Y16846657D01*
X31151503Y17292914D01*
X30569159Y17534724D01*
X29938607Y17535275D01*
X29355843Y17294481D01*
X28909586Y16849003D01*
X28667776Y16266659D01*
X28667225Y15636107D01*
X28908019Y15053343D01*
X29158495Y14802429D01*
X28478987Y15084585D01*
X27530175Y15085413D01*
X26916111Y14831687D01*
X26983266Y14898842D01*
X26868852Y15013256D01*
X27130519Y15105792D01*
X27348688Y15697398D01*
X27323852Y16327461D01*
X27130519Y16794208D01*
X26868850Y16886745D01*
X25932105Y15950000D01*
X25946248Y15935858D01*
X25766643Y15756253D01*
X25752500Y15770395D01*
X25738358Y15756253D01*
X25558753Y15935858D01*
X25572895Y15950000D01*
X25558753Y15964143D01*
X25738358Y16143748D01*
X25752500Y16129605D01*
X26689245Y17066350D01*
X26596708Y17328019D01*
X26005102Y17546188D01*
X25962814Y17544521D01*
X25984015Y17553281D01*
X26472504Y18040918D01*
X26737199Y18678373D01*
X26737801Y19368599D01*
X26474219Y20006515D01*
X25986582Y20495004D01*
X25565146Y20670000D01*
X40986836Y20670000D01*
X46994236Y14662599D01*
X47077318Y14607086D01*
X47240799Y14497852D01*
X47531638Y14440000D01*
X48843800Y14440000D01*
X48751751Y14302238D01*
X48693899Y14011399D01*
X48693899Y3886101D01*
X48751751Y3595262D01*
X48916498Y3348700D01*
X50608084Y1657114D01*
X50571661Y1569398D01*
X50571141Y973218D01*
X50798808Y422220D01*
X51220003Y290D01*
X51770602Y-228339D01*
X52366782Y-228859D01*
X52917780Y-1192D01*
X53339710Y420003D01*
X53340095Y420931D01*
X53760003Y290D01*
X54310602Y-228339D01*
X54906782Y-228859D01*
X55457780Y-1192D01*
X55879710Y420003D01*
X55880095Y420931D01*
X56300003Y290D01*
X56850602Y-228339D01*
X57446782Y-228859D01*
X57536844Y-191646D01*
X60422599Y-3077401D01*
X60669161Y-3242148D01*
X60960000Y-3300000D01*
X71589367Y-3300000D01*
X71455162Y-3623201D01*
X71454838Y-3995167D01*
X71596883Y-4338943D01*
X71859673Y-4602192D01*
X72203201Y-4744838D01*
X72575167Y-4745162D01*
X72918943Y-4603117D01*
X72952118Y-4570000D01*
X75637537Y-4570000D01*
X75669673Y-4602192D01*
X76013201Y-4744838D01*
X76385167Y-4745162D01*
X76728943Y-4603117D01*
X76992192Y-4340327D01*
X77134838Y-3996799D01*
X77135162Y-3624833D01*
X77000944Y-3300000D01*
X83257537Y-3300000D01*
X83289673Y-3332192D01*
X83633201Y-3474838D01*
X84005167Y-3475162D01*
X84348943Y-3333117D01*
X84612192Y-3070327D01*
X84754838Y-2726799D01*
X84754892Y-2665000D01*
X94052537Y-2665000D01*
X94084673Y-2697192D01*
X94428201Y-2839838D01*
X94800167Y-2840162D01*
X95143943Y-2698117D01*
X95407192Y-2435327D01*
X95549838Y-2091799D01*
X95549892Y-2030000D01*
X95957537Y-2030000D01*
X95989673Y-2062192D01*
X96333201Y-2204838D01*
X96705167Y-2205162D01*
X97048943Y-2063117D01*
X97278829Y-1833631D01*
X99154388Y-3709190D01*
X99400949Y-3873937D01*
X99691789Y-3931789D01*
X102624312Y-3931789D01*
X102915151Y-3873937D01*
X103015524Y-3806870D01*
X103109478Y-3806952D01*
X103453254Y-3664907D01*
X103716503Y-3402117D01*
X103725557Y-3380312D01*
X103953201Y-3474838D01*
X104325167Y-3475162D01*
X104668943Y-3333117D01*
X104932192Y-3070327D01*
X105074838Y-2726799D01*
X105075162Y-2354833D01*
X104933117Y-2011057D01*
X104670327Y-1747808D01*
X104326799Y-1605162D01*
X104279923Y-1605121D01*
X104244894Y-1570092D01*
X104325167Y-1570162D01*
X104507362Y-1494881D01*
X104696826Y-1684676D01*
X105040354Y-1827322D01*
X105412320Y-1827646D01*
X105756096Y-1685601D01*
X105789271Y-1652484D01*
X108312450Y-1652484D01*
X108285162Y-1718201D01*
X108284838Y-2090167D01*
X108426883Y-2433943D01*
X108689673Y-2697192D01*
X109033201Y-2839838D01*
X109405167Y-2840162D01*
X109748943Y-2698117D01*
X109782118Y-2665000D01*
X112467537Y-2665000D01*
X112499673Y-2697192D01*
X112843201Y-2839838D01*
X113215167Y-2840162D01*
X113558943Y-2698117D01*
X113822192Y-2435327D01*
X113964838Y-2091799D01*
X113965162Y-1719833D01*
X113823117Y-1376057D01*
X113560327Y-1112808D01*
X113216799Y-970162D01*
X112844833Y-969838D01*
X112501057Y-1111883D01*
X112467882Y-1145000D01*
X111689802Y-1145000D01*
X112642886Y-191916D01*
X112730602Y-228339D01*
X113326782Y-228859D01*
X113877780Y-1192D01*
X114299710Y420003D01*
X114300095Y420931D01*
X114720003Y290D01*
X115270602Y-228339D01*
X115866782Y-228859D01*
X116417780Y-1192D01*
X116839710Y420003D01*
X116840095Y420931D01*
X117260003Y290D01*
X117810602Y-228339D01*
X118406782Y-228859D01*
X118957780Y-1192D01*
X119175546Y216195D01*
X119775800Y216195D01*
X119857741Y-36516D01*
X120418030Y-240248D01*
X121013635Y-214058D01*
X121442259Y-36516D01*
X121524200Y216195D01*
X120650000Y1090395D01*
X119775800Y216195D01*
X119175546Y216195D01*
X119379710Y420003D01*
X119396541Y460537D01*
X119596195Y395800D01*
X120470395Y1270000D01*
X120829605Y1270000D01*
X121703805Y395800D01*
X121903033Y460399D01*
X121918808Y422220D01*
X122340003Y290D01*
X122890602Y-228339D01*
X123486782Y-228859D01*
X124037780Y-1192D01*
X124459710Y420003D01*
X124460095Y420931D01*
X124880003Y290D01*
X125430602Y-228339D01*
X126026782Y-228859D01*
X126577780Y-1192D01*
X126999710Y420003D01*
X127000095Y420931D01*
X127420003Y290D01*
X127970602Y-228339D01*
X128566782Y-228859D01*
X129117780Y-1192D01*
X129335546Y216195D01*
X129935800Y216195D01*
X130017741Y-36516D01*
X130578030Y-240248D01*
X131173635Y-214058D01*
X131602259Y-36516D01*
X131684200Y216195D01*
X132475800Y216195D01*
X132557741Y-36516D01*
X133118030Y-240248D01*
X133713635Y-214058D01*
X134142259Y-36516D01*
X134224200Y216195D01*
X133350000Y1090395D01*
X132475800Y216195D01*
X131684200Y216195D01*
X130810000Y1090395D01*
X129935800Y216195D01*
X129335546Y216195D01*
X129539710Y420003D01*
X129556541Y460537D01*
X129756195Y395800D01*
X130630395Y1270000D01*
X130989605Y1270000D01*
X131863805Y395800D01*
X132080000Y465901D01*
X132296195Y395800D01*
X133170395Y1270000D01*
X133529605Y1270000D01*
X134403805Y395800D01*
X134603033Y460399D01*
X134618808Y422220D01*
X135040003Y290D01*
X135590602Y-228339D01*
X136186782Y-228859D01*
X136737780Y-1192D01*
X137159710Y420003D01*
X137160095Y420931D01*
X137580003Y290D01*
X138130602Y-228339D01*
X138726782Y-228859D01*
X139277780Y-1192D01*
X139699710Y420003D01*
X139700095Y420931D01*
X140120003Y290D01*
X140670602Y-228339D01*
X141266782Y-228859D01*
X141817780Y-1192D01*
X142239710Y420003D01*
X142240095Y420931D01*
X142660003Y290D01*
X143210602Y-228339D01*
X143806782Y-228859D01*
X144357780Y-1192D01*
X144779710Y420003D01*
X144780095Y420931D01*
X145200003Y290D01*
X145750602Y-228339D01*
X146346782Y-228859D01*
X146897780Y-1192D01*
X147319710Y420003D01*
X147320095Y420931D01*
X147740003Y290D01*
X148290602Y-228339D01*
X148886782Y-228859D01*
X149437780Y-1192D01*
X149859710Y420003D01*
X149860095Y420931D01*
X150280003Y290D01*
X150830602Y-228339D01*
X151426782Y-228859D01*
X151977780Y-1192D01*
X152399710Y420003D01*
X152628339Y970602D01*
X152628859Y1566782D01*
X152401192Y2117780D01*
X152047761Y2471828D01*
X153832538Y2471828D01*
X154237709Y1491239D01*
X154987293Y740345D01*
X155967173Y333464D01*
X157028172Y332538D01*
X158008761Y737709D01*
X158759655Y1487293D01*
X159166536Y2467173D01*
X159167462Y3528172D01*
X158762291Y4508761D01*
X158012707Y5259655D01*
X157032827Y5666536D01*
X155971828Y5667462D01*
X154991239Y5262291D01*
X154240345Y4512707D01*
X153833464Y3532827D01*
X153832538Y2471828D01*
X152047761Y2471828D01*
X151979997Y2539710D01*
X151429398Y2768339D01*
X150833218Y2768859D01*
X150282220Y2541192D01*
X149860290Y2119997D01*
X149859905Y2119069D01*
X149439997Y2539710D01*
X148889398Y2768339D01*
X148293218Y2768859D01*
X147742220Y2541192D01*
X147320290Y2119997D01*
X147319905Y2119069D01*
X146899997Y2539710D01*
X146349398Y2768339D01*
X145753218Y2768859D01*
X145202220Y2541192D01*
X144780290Y2119997D01*
X144779905Y2119069D01*
X144359997Y2539710D01*
X143809398Y2768339D01*
X143213218Y2768859D01*
X142662220Y2541192D01*
X142240290Y2119997D01*
X142239905Y2119069D01*
X141819997Y2539710D01*
X141269398Y2768339D01*
X140673218Y2768859D01*
X140122220Y2541192D01*
X139700290Y2119997D01*
X139699905Y2119069D01*
X139279997Y2539710D01*
X138729398Y2768339D01*
X138133218Y2768859D01*
X137582220Y2541192D01*
X137160290Y2119997D01*
X137159905Y2119069D01*
X136739997Y2539710D01*
X136189398Y2768339D01*
X135593218Y2768859D01*
X135042220Y2541192D01*
X134620290Y2119997D01*
X134603459Y2079463D01*
X134403805Y2144200D01*
X133529605Y1270000D01*
X133170395Y1270000D01*
X132296195Y2144200D01*
X132080000Y2074099D01*
X131863805Y2144200D01*
X130989605Y1270000D01*
X130630395Y1270000D01*
X129756195Y2144200D01*
X129556967Y2079601D01*
X129541192Y2117780D01*
X129335526Y2323805D01*
X129935800Y2323805D01*
X130810000Y1449605D01*
X131684200Y2323805D01*
X132475800Y2323805D01*
X133350000Y1449605D01*
X134224200Y2323805D01*
X134142259Y2576516D01*
X133581970Y2780248D01*
X132986365Y2754058D01*
X132557741Y2576516D01*
X132475800Y2323805D01*
X131684200Y2323805D01*
X131602259Y2576516D01*
X131041970Y2780248D01*
X130446365Y2754058D01*
X130017741Y2576516D01*
X129935800Y2323805D01*
X129335526Y2323805D01*
X129119997Y2539710D01*
X128569398Y2768339D01*
X127973218Y2768859D01*
X127422220Y2541192D01*
X127000290Y2119997D01*
X126999905Y2119069D01*
X126579997Y2539710D01*
X126029398Y2768339D01*
X125433218Y2768859D01*
X124882220Y2541192D01*
X124460290Y2119997D01*
X124459905Y2119069D01*
X124039997Y2539710D01*
X123489398Y2768339D01*
X122893218Y2768859D01*
X122342220Y2541192D01*
X121920290Y2119997D01*
X121903459Y2079463D01*
X121703805Y2144200D01*
X120829605Y1270000D01*
X120470395Y1270000D01*
X119596195Y2144200D01*
X119396967Y2079601D01*
X119381192Y2117780D01*
X119175526Y2323805D01*
X119775800Y2323805D01*
X120650000Y1449605D01*
X121524200Y2323805D01*
X121442259Y2576516D01*
X120881970Y2780248D01*
X120286365Y2754058D01*
X119857741Y2576516D01*
X119775800Y2323805D01*
X119175526Y2323805D01*
X118959997Y2539710D01*
X118409398Y2768339D01*
X117813218Y2768859D01*
X117262220Y2541192D01*
X116840290Y2119997D01*
X116839905Y2119069D01*
X116419997Y2539710D01*
X115869398Y2768339D01*
X115559939Y2768609D01*
X115637148Y2884161D01*
X115695000Y3175000D01*
X115695000Y9146195D01*
X128508300Y9146195D01*
X128590241Y8893484D01*
X129150530Y8689752D01*
X129746135Y8715942D01*
X130174759Y8893484D01*
X130256700Y9146195D01*
X129382500Y10020395D01*
X128508300Y9146195D01*
X115695000Y9146195D01*
X115695000Y10431970D01*
X127872252Y10431970D01*
X127898442Y9836365D01*
X128075984Y9407741D01*
X128328695Y9325800D01*
X129202895Y10200000D01*
X129562105Y10200000D01*
X130436305Y9325800D01*
X130689016Y9407741D01*
X130892748Y9968030D01*
X130866558Y10563635D01*
X130689016Y10992259D01*
X130436305Y11074200D01*
X129562105Y10200000D01*
X129202895Y10200000D01*
X128328695Y11074200D01*
X128075984Y10992259D01*
X127872252Y10431970D01*
X115695000Y10431970D01*
X115695000Y11627537D01*
X115727192Y11659673D01*
X115869838Y12003201D01*
X115870162Y12375167D01*
X115728117Y12718943D01*
X115465327Y12982192D01*
X115209939Y13088239D01*
X115234838Y13148201D01*
X115235162Y13520167D01*
X115100944Y13845000D01*
X115255198Y13845000D01*
X116937599Y12162599D01*
X117184161Y11997852D01*
X117475000Y11940000D01*
X121992537Y11940000D01*
X122024673Y11907808D01*
X122368201Y11765162D01*
X122740167Y11764838D01*
X123083943Y11906883D01*
X123117118Y11940000D01*
X125661186Y11940000D01*
X125952025Y11997852D01*
X126198587Y12162599D01*
X128249637Y14213649D01*
X128513159Y13949668D01*
X128112790Y13549997D01*
X127884161Y12999398D01*
X127883641Y12403218D01*
X128111308Y11852220D01*
X128532503Y11430290D01*
X128561606Y11418205D01*
X128508300Y11253805D01*
X129382500Y10379605D01*
X130256700Y11253805D01*
X130203538Y11417759D01*
X130230280Y11428808D01*
X130652210Y11850003D01*
X130880839Y12400602D01*
X130881359Y12996782D01*
X130653692Y13547780D01*
X130251841Y13950332D01*
X130652210Y14350003D01*
X130880839Y14900602D01*
X130881359Y15496782D01*
X130653692Y16047780D01*
X130232497Y16469710D01*
X129681898Y16698339D01*
X129085718Y16698859D01*
X128534720Y16471192D01*
X128112790Y16049997D01*
X128067698Y15941404D01*
X127870347Y15902148D01*
X127623785Y15737401D01*
X125346384Y13460000D01*
X123117463Y13460000D01*
X123085327Y13492192D01*
X122741799Y13634838D01*
X122369833Y13635162D01*
X122026057Y13493117D01*
X121992882Y13460000D01*
X117789802Y13460000D01*
X116107401Y15142401D01*
X115860839Y15307148D01*
X115570000Y15365000D01*
X113965110Y15365000D01*
X113965162Y15425167D01*
X113823117Y15768943D01*
X113560327Y16032192D01*
X113216799Y16174838D01*
X112844833Y16175162D01*
X112501057Y16033117D01*
X112237808Y15770327D01*
X112095162Y15426799D01*
X112094838Y15054833D01*
X112236883Y14711057D01*
X112270000Y14677882D01*
X112270000Y12627463D01*
X112237808Y12595327D01*
X112095162Y12251799D01*
X112094838Y11879833D01*
X112236883Y11536057D01*
X112499673Y11272808D01*
X112843201Y11130162D01*
X113215167Y11129838D01*
X113540000Y11264056D01*
X113540000Y9190110D01*
X113479833Y9190162D01*
X113136057Y9048117D01*
X112872808Y8785327D01*
X112730162Y8441799D01*
X112729838Y8069833D01*
X112871883Y7726057D01*
X112905000Y7692882D01*
X112905000Y6277463D01*
X112872808Y6245327D01*
X112730162Y5901799D01*
X112729838Y5529833D01*
X112871883Y5186057D01*
X113134673Y4922808D01*
X113478201Y4780162D01*
X113850167Y4779838D01*
X114175000Y4914056D01*
X114175000Y3489802D01*
X113417114Y2731916D01*
X113329398Y2768339D01*
X112733218Y2768859D01*
X112182220Y2541192D01*
X111760290Y2119997D01*
X111759905Y2119069D01*
X111339997Y2539710D01*
X111250000Y2577080D01*
X111250000Y6035198D01*
X111899680Y6684878D01*
X111945167Y6684838D01*
X112288943Y6826883D01*
X112552192Y7089673D01*
X112694838Y7433201D01*
X112695162Y7805167D01*
X112553117Y8148943D01*
X112290327Y8412192D01*
X111946799Y8554838D01*
X111574833Y8555162D01*
X111231057Y8413117D01*
X110967808Y8150327D01*
X110825162Y7806799D01*
X110825121Y7759923D01*
X109952599Y6887401D01*
X109787852Y6640839D01*
X109730000Y6350000D01*
X109730000Y2577462D01*
X109642220Y2541192D01*
X109220290Y2119997D01*
X109219905Y2119069D01*
X108799997Y2539710D01*
X108249398Y2768339D01*
X107653218Y2768859D01*
X107102220Y2541192D01*
X106680290Y2119997D01*
X106679905Y2119069D01*
X106259997Y2539710D01*
X105709398Y2768339D01*
X105113218Y2768859D01*
X104562220Y2541192D01*
X104140290Y2119997D01*
X104139905Y2119069D01*
X103719997Y2539710D01*
X103169398Y2768339D01*
X102573218Y2768859D01*
X102416947Y2704289D01*
X102534838Y2988201D01*
X102535162Y3360167D01*
X102393117Y3703943D01*
X102130327Y3967192D01*
X101786799Y4109838D01*
X101414833Y4110162D01*
X101071057Y3968117D01*
X100807808Y3705327D01*
X100665162Y3361799D01*
X100664838Y2989833D01*
X100784936Y2699173D01*
X100561970Y2780248D01*
X99966365Y2754058D01*
X99537741Y2576516D01*
X99455800Y2323805D01*
X100330000Y1449605D01*
X100344143Y1463748D01*
X100523748Y1284143D01*
X100509605Y1270000D01*
X100523748Y1255858D01*
X100344143Y1076253D01*
X100330000Y1090395D01*
X100315858Y1076253D01*
X100136253Y1255858D01*
X100150395Y1270000D01*
X99276195Y2144200D01*
X99076967Y2079601D01*
X99061192Y2117780D01*
X98639997Y2539710D01*
X98089398Y2768339D01*
X97493218Y2768859D01*
X96942220Y2541192D01*
X96520290Y2119997D01*
X96519905Y2119069D01*
X96099997Y2539710D01*
X95549398Y2768339D01*
X94953218Y2768859D01*
X94402220Y2541192D01*
X93980290Y2119997D01*
X93979905Y2119069D01*
X93559997Y2539710D01*
X93009398Y2768339D01*
X92413218Y2768859D01*
X91862220Y2541192D01*
X91440290Y2119997D01*
X91439905Y2119069D01*
X91019997Y2539710D01*
X90469398Y2768339D01*
X89873218Y2768859D01*
X89322220Y2541192D01*
X88900290Y2119997D01*
X88899905Y2119069D01*
X88479997Y2539710D01*
X88390000Y2577080D01*
X88390000Y5400198D01*
X88404680Y5414878D01*
X88450167Y5414838D01*
X88793943Y5556883D01*
X89057192Y5819673D01*
X89199838Y6163201D01*
X89200162Y6535167D01*
X89058117Y6878943D01*
X88795327Y7142192D01*
X88451799Y7284838D01*
X88404923Y7284879D01*
X86543607Y9146195D01*
X89138300Y9146195D01*
X89220241Y8893484D01*
X89780530Y8689752D01*
X90376135Y8715942D01*
X90804759Y8893484D01*
X90886700Y9146195D01*
X90012500Y10020395D01*
X89138300Y9146195D01*
X86543607Y9146195D01*
X85257832Y10431970D01*
X88502252Y10431970D01*
X88528442Y9836365D01*
X88705984Y9407741D01*
X88958695Y9325800D01*
X89832895Y10200000D01*
X90192105Y10200000D01*
X91066305Y9325800D01*
X91319016Y9407741D01*
X91522748Y9968030D01*
X91496558Y10563635D01*
X91319016Y10992259D01*
X91066305Y11074200D01*
X90192105Y10200000D01*
X89832895Y10200000D01*
X88958695Y11074200D01*
X88705984Y10992259D01*
X88502252Y10431970D01*
X85257832Y10431970D01*
X82675000Y13014802D01*
X82675000Y23309833D01*
X84154838Y23309833D01*
X84296883Y22966057D01*
X84330000Y22932882D01*
X84330000Y19050000D01*
X84387852Y18759161D01*
X84552599Y18512599D01*
X84965000Y18100198D01*
X84965000Y15167463D01*
X84932808Y15135327D01*
X84790162Y14791799D01*
X84789838Y14419833D01*
X84931883Y14076057D01*
X85194673Y13812808D01*
X85538201Y13670162D01*
X85910167Y13669838D01*
X86253943Y13811883D01*
X86517192Y14074673D01*
X86659838Y14418201D01*
X86660162Y14790167D01*
X86613451Y14903218D01*
X88513641Y14903218D01*
X88741308Y14352220D01*
X89143159Y13949668D01*
X88742790Y13549997D01*
X88514161Y12999398D01*
X88513641Y12403218D01*
X88741308Y11852220D01*
X89162503Y11430290D01*
X89191606Y11418205D01*
X89138300Y11253805D01*
X90012500Y10379605D01*
X90886700Y11253805D01*
X90833538Y11417759D01*
X90860280Y11428808D01*
X91282210Y11850003D01*
X91510839Y12400602D01*
X91511359Y12996782D01*
X91283692Y13547780D01*
X91255121Y13576401D01*
X95783903Y13576401D01*
X96074742Y13634253D01*
X96321304Y13799000D01*
X96363038Y13840734D01*
X96107958Y13226433D01*
X96107043Y12178166D01*
X96507353Y11209342D01*
X97247943Y10467458D01*
X98157647Y10089716D01*
X97732700Y9914132D01*
X97230133Y9412441D01*
X97177575Y9285868D01*
X97177835Y9583207D01*
X96883870Y10294658D01*
X96340021Y10839457D01*
X95629084Y11134663D01*
X94859293Y11135335D01*
X94147842Y10841370D01*
X93603043Y10297521D01*
X93307837Y9586584D01*
X93307165Y8816793D01*
X93599153Y8110126D01*
X93398901Y8110301D01*
X92760985Y7846719D01*
X92272496Y7359082D01*
X92007801Y6721627D01*
X92007199Y6031401D01*
X92270781Y5393485D01*
X92758418Y4904996D01*
X93395873Y4640301D01*
X94086099Y4639699D01*
X94724015Y4903281D01*
X95212504Y5390918D01*
X95477199Y6028373D01*
X95477801Y6718599D01*
X95252036Y7264991D01*
X95625707Y7264665D01*
X96337158Y7558630D01*
X96881957Y8102479D01*
X96957399Y8284163D01*
X96957191Y8046499D01*
X97228368Y7390200D01*
X97730059Y6887633D01*
X98385884Y6615311D01*
X99096001Y6614691D01*
X99752300Y6885868D01*
X100254867Y7387559D01*
X100527189Y8043384D01*
X100527399Y8283785D01*
X100601130Y8105342D01*
X101144979Y7560543D01*
X101855916Y7265337D01*
X102233433Y7265007D01*
X102007801Y6721627D01*
X102007199Y6031401D01*
X102270781Y5393485D01*
X102758418Y4904996D01*
X103395873Y4640301D01*
X104086099Y4639699D01*
X104724015Y4903281D01*
X105212504Y5390918D01*
X105477199Y6028373D01*
X105477801Y6718599D01*
X105214219Y7356515D01*
X104726582Y7845004D01*
X104665014Y7870569D01*
X104869961Y7878648D01*
X105336708Y8071981D01*
X105429245Y8333650D01*
X104492500Y9270395D01*
X104478358Y9256253D01*
X104298753Y9435858D01*
X104312895Y9450000D01*
X104298753Y9464143D01*
X104478358Y9643748D01*
X104492500Y9629605D01*
X104506643Y9643748D01*
X104686248Y9464143D01*
X104672105Y9450000D01*
X105608850Y8513255D01*
X105870519Y8605792D01*
X106088688Y9197398D01*
X106063852Y9827461D01*
X105870519Y10294208D01*
X105608852Y10386744D01*
X105723266Y10501158D01*
X105655504Y10568920D01*
X106266013Y10315415D01*
X107214825Y10314587D01*
X107897804Y10596788D01*
X107649586Y10349003D01*
X107407776Y9766659D01*
X107407225Y9136107D01*
X107648019Y8553343D01*
X108093497Y8107086D01*
X108675841Y7865276D01*
X109306393Y7864725D01*
X109889157Y8105519D01*
X110335414Y8550997D01*
X110577224Y9133341D01*
X110577775Y9763893D01*
X110336981Y10346657D01*
X109891503Y10792914D01*
X109309159Y11034724D01*
X108678607Y11035275D01*
X108289768Y10874609D01*
X108763226Y11347242D01*
X109127085Y12223513D01*
X109127913Y13172325D01*
X108765584Y14049229D01*
X108290261Y14525383D01*
X108675841Y14365276D01*
X109306393Y14364725D01*
X109889157Y14605519D01*
X110335414Y15050997D01*
X110577224Y15633341D01*
X110577775Y16263893D01*
X110336981Y16846657D01*
X109891503Y17292914D01*
X109309159Y17534724D01*
X108678607Y17535275D01*
X108095843Y17294481D01*
X107649586Y16849003D01*
X107407776Y16266659D01*
X107407225Y15636107D01*
X107648019Y15053343D01*
X107898495Y14802429D01*
X107218987Y15084585D01*
X106270175Y15085413D01*
X105656111Y14831687D01*
X105723266Y14898842D01*
X105608852Y15013256D01*
X105870519Y15105792D01*
X106088688Y15697398D01*
X106063852Y16327461D01*
X105870519Y16794208D01*
X105608850Y16886745D01*
X104672105Y15950000D01*
X104686248Y15935858D01*
X104506643Y15756253D01*
X104492500Y15770395D01*
X104478358Y15756253D01*
X104298753Y15935858D01*
X104312895Y15950000D01*
X104298753Y15964143D01*
X104478358Y16143748D01*
X104492500Y16129605D01*
X105429245Y17066350D01*
X105336708Y17328019D01*
X104745102Y17546188D01*
X104702814Y17544521D01*
X104724015Y17553281D01*
X105212504Y18040918D01*
X105477199Y18678373D01*
X105477201Y18681401D01*
X131377199Y18681401D01*
X131640781Y18043485D01*
X132128418Y17554996D01*
X132765873Y17290301D01*
X132969971Y17290123D01*
X132677837Y16586584D01*
X132677165Y15816793D01*
X132971130Y15105342D01*
X133514979Y14560543D01*
X134225916Y14265337D01*
X134995707Y14264665D01*
X135707158Y14558630D01*
X136251957Y15102479D01*
X136547163Y15813416D01*
X136547425Y16113492D01*
X136598368Y15990200D01*
X137100059Y15487633D01*
X137528450Y15309750D01*
X136621842Y14935147D01*
X135879958Y14194557D01*
X135477958Y13226433D01*
X135477043Y12178166D01*
X135877353Y11209342D01*
X136617943Y10467458D01*
X137527647Y10089716D01*
X137102700Y9914132D01*
X136600133Y9412441D01*
X136547575Y9285868D01*
X136547835Y9583207D01*
X136253870Y10294658D01*
X135710021Y10839457D01*
X134999084Y11134663D01*
X134229293Y11135335D01*
X133517842Y10841370D01*
X132973043Y10297521D01*
X132677837Y9586584D01*
X132677165Y8816793D01*
X132969153Y8110126D01*
X132768901Y8110301D01*
X132130985Y7846719D01*
X131642496Y7359082D01*
X131377801Y6721627D01*
X131377199Y6031401D01*
X131640781Y5393485D01*
X132128418Y4904996D01*
X132765873Y4640301D01*
X133456099Y4639699D01*
X134094015Y4903281D01*
X134582504Y5390918D01*
X134847199Y6028373D01*
X134847801Y6718599D01*
X134622036Y7264991D01*
X134995707Y7264665D01*
X135707158Y7558630D01*
X136251957Y8102479D01*
X136327399Y8284163D01*
X136327191Y8046499D01*
X136598368Y7390200D01*
X137100059Y6887633D01*
X137755884Y6615311D01*
X138466001Y6614691D01*
X139122300Y6885868D01*
X139624867Y7387559D01*
X139897189Y8043384D01*
X139897399Y8283785D01*
X139971130Y8105342D01*
X140514979Y7560543D01*
X141225916Y7265337D01*
X141603433Y7265007D01*
X141377801Y6721627D01*
X141377199Y6031401D01*
X141640781Y5393485D01*
X142128418Y4904996D01*
X142765873Y4640301D01*
X143456099Y4639699D01*
X144094015Y4903281D01*
X144582504Y5390918D01*
X144847199Y6028373D01*
X144847801Y6718599D01*
X144584219Y7356515D01*
X144096582Y7845004D01*
X144035014Y7870569D01*
X144239961Y7878648D01*
X144706708Y8071981D01*
X144799245Y8333650D01*
X143862500Y9270395D01*
X143848358Y9256253D01*
X143668753Y9435858D01*
X143682895Y9450000D01*
X143668753Y9464143D01*
X143848358Y9643748D01*
X143862500Y9629605D01*
X143876643Y9643748D01*
X144056248Y9464143D01*
X144042105Y9450000D01*
X144978850Y8513255D01*
X145240519Y8605792D01*
X145458688Y9197398D01*
X145433852Y9827461D01*
X145240519Y10294208D01*
X144978852Y10386744D01*
X145093266Y10501158D01*
X145025504Y10568920D01*
X145636013Y10315415D01*
X146584825Y10314587D01*
X147267804Y10596788D01*
X147019586Y10349003D01*
X146777776Y9766659D01*
X146777225Y9136107D01*
X147018019Y8553343D01*
X147463497Y8107086D01*
X148045841Y7865276D01*
X148676393Y7864725D01*
X149259157Y8105519D01*
X149705414Y8550997D01*
X149947224Y9133341D01*
X149947775Y9763893D01*
X149706981Y10346657D01*
X149261503Y10792914D01*
X148679159Y11034724D01*
X148048607Y11035275D01*
X147659768Y10874609D01*
X148133226Y11347242D01*
X148497085Y12223513D01*
X148497913Y13172325D01*
X148135584Y14049229D01*
X147660261Y14525383D01*
X148045841Y14365276D01*
X148676393Y14364725D01*
X149259157Y14605519D01*
X149705414Y15050997D01*
X149947224Y15633341D01*
X149947775Y16263893D01*
X149706981Y16846657D01*
X149261503Y17292914D01*
X148679159Y17534724D01*
X148048607Y17535275D01*
X147465843Y17294481D01*
X147019586Y16849003D01*
X146777776Y16266659D01*
X146777225Y15636107D01*
X147018019Y15053343D01*
X147268495Y14802429D01*
X146588987Y15084585D01*
X145640175Y15085413D01*
X145026111Y14831687D01*
X145093266Y14898842D01*
X144978852Y15013256D01*
X145240519Y15105792D01*
X145458688Y15697398D01*
X145433852Y16327461D01*
X145240519Y16794208D01*
X144978850Y16886745D01*
X144042105Y15950000D01*
X144056248Y15935858D01*
X143876643Y15756253D01*
X143862500Y15770395D01*
X143848358Y15756253D01*
X143668753Y15935858D01*
X143682895Y15950000D01*
X143668753Y15964143D01*
X143848358Y16143748D01*
X143862500Y16129605D01*
X144799245Y17066350D01*
X144706708Y17328019D01*
X144115102Y17546188D01*
X144072814Y17544521D01*
X144094015Y17553281D01*
X144582504Y18040918D01*
X144847199Y18678373D01*
X144847801Y19368599D01*
X144584219Y20006515D01*
X144096582Y20495004D01*
X143459127Y20759699D01*
X142768901Y20760301D01*
X142130985Y20496719D01*
X141642496Y20009082D01*
X141377801Y19371627D01*
X141377199Y18681401D01*
X141602964Y18135009D01*
X141229293Y18135335D01*
X140517842Y17841370D01*
X139973043Y17297521D01*
X139897601Y17115837D01*
X139897809Y17353501D01*
X139626632Y18009800D01*
X139124941Y18512367D01*
X138469116Y18784689D01*
X137758999Y18785309D01*
X137102700Y18514132D01*
X136600133Y18012441D01*
X136327811Y17356616D01*
X136327601Y17116215D01*
X136253870Y17294658D01*
X135710021Y17839457D01*
X134999084Y18134663D01*
X134621567Y18134993D01*
X134847199Y18678373D01*
X134847801Y19368599D01*
X134584219Y20006515D01*
X134215184Y20376195D01*
X134738300Y20376195D01*
X134820241Y20123484D01*
X135380530Y19919752D01*
X135976135Y19945942D01*
X136404759Y20123484D01*
X136486700Y20376195D01*
X135612500Y21250395D01*
X134738300Y20376195D01*
X134215184Y20376195D01*
X134096582Y20495004D01*
X133459127Y20759699D01*
X132768901Y20760301D01*
X132130985Y20496719D01*
X131642496Y20009082D01*
X131377801Y19371627D01*
X131377199Y18681401D01*
X105477201Y18681401D01*
X105477801Y19368599D01*
X105214219Y20006515D01*
X104726582Y20495004D01*
X104305146Y20670000D01*
X106277537Y20670000D01*
X106309673Y20637808D01*
X106653201Y20495162D01*
X107025167Y20494838D01*
X107368943Y20636883D01*
X107632192Y20899673D01*
X107774838Y21243201D01*
X107775162Y21615167D01*
X107755824Y21661970D01*
X134102252Y21661970D01*
X134128442Y21066365D01*
X134305984Y20637741D01*
X134558695Y20555800D01*
X135432895Y21430000D01*
X135792105Y21430000D01*
X136666305Y20555800D01*
X136830259Y20608962D01*
X136841308Y20582220D01*
X137262503Y20160290D01*
X137813102Y19931661D01*
X138409282Y19931141D01*
X138960280Y20158808D01*
X139362832Y20560659D01*
X139762503Y20160290D01*
X140313102Y19931661D01*
X140909282Y19931141D01*
X141460280Y20158808D01*
X141882210Y20580003D01*
X142110839Y21130602D01*
X142111328Y21691828D01*
X153832538Y21691828D01*
X154237709Y20711239D01*
X154987293Y19960345D01*
X155967173Y19553464D01*
X157028172Y19552538D01*
X158008761Y19957709D01*
X158759655Y20707293D01*
X159166536Y21687173D01*
X159167462Y22748172D01*
X158762291Y23728761D01*
X158012707Y24479655D01*
X157032827Y24886536D01*
X155971828Y24887462D01*
X154991239Y24482291D01*
X154240345Y23732707D01*
X153833464Y22752827D01*
X153832538Y21691828D01*
X142111328Y21691828D01*
X142111359Y21726782D01*
X141883692Y22277780D01*
X141462497Y22699710D01*
X140911898Y22928339D01*
X140315718Y22928859D01*
X139764720Y22701192D01*
X139362168Y22299341D01*
X138962497Y22699710D01*
X138411898Y22928339D01*
X137815718Y22928859D01*
X137264720Y22701192D01*
X136842790Y22279997D01*
X136830705Y22250894D01*
X136666305Y22304200D01*
X135792105Y21430000D01*
X135432895Y21430000D01*
X134558695Y22304200D01*
X134305984Y22222259D01*
X134102252Y21661970D01*
X107755824Y21661970D01*
X107633117Y21958943D01*
X107370327Y22222192D01*
X107026799Y22364838D01*
X106654833Y22365162D01*
X106311057Y22223117D01*
X106277882Y22190000D01*
X102549962Y22190000D01*
X102513692Y22277780D01*
X102308026Y22483805D01*
X134738300Y22483805D01*
X135612500Y21609605D01*
X136486700Y22483805D01*
X136404759Y22736516D01*
X135844470Y22940248D01*
X135248865Y22914058D01*
X134820241Y22736516D01*
X134738300Y22483805D01*
X102308026Y22483805D01*
X102092497Y22699710D01*
X101541898Y22928339D01*
X100945718Y22928859D01*
X100394720Y22701192D01*
X99992168Y22299341D01*
X99592497Y22699710D01*
X99041898Y22928339D01*
X98445718Y22928859D01*
X97894720Y22701192D01*
X97472790Y22279997D01*
X97460705Y22250894D01*
X97296305Y22304200D01*
X96422105Y21430000D01*
X97296305Y20555800D01*
X97460259Y20608962D01*
X97471308Y20582220D01*
X97892503Y20160290D01*
X98424204Y19939508D01*
X96330100Y17845404D01*
X96329144Y17843973D01*
X95629084Y18134663D01*
X95251567Y18134993D01*
X95477199Y18678373D01*
X95477801Y19368599D01*
X95214219Y20006515D01*
X94845184Y20376195D01*
X95368300Y20376195D01*
X95450241Y20123484D01*
X96010530Y19919752D01*
X96606135Y19945942D01*
X97034759Y20123484D01*
X97116700Y20376195D01*
X96242500Y21250395D01*
X95368300Y20376195D01*
X94845184Y20376195D01*
X94726582Y20495004D01*
X94089127Y20759699D01*
X93398901Y20760301D01*
X92760985Y20496719D01*
X92272496Y20009082D01*
X92007801Y19371627D01*
X92007199Y18681401D01*
X92270781Y18043485D01*
X92758418Y17554996D01*
X93395873Y17290301D01*
X93599971Y17290123D01*
X93307837Y16586584D01*
X93307165Y15816793D01*
X93601130Y15105342D01*
X93610055Y15096401D01*
X91511010Y15096401D01*
X91511359Y15496782D01*
X91283692Y16047780D01*
X90862497Y16469710D01*
X90311898Y16698339D01*
X89715718Y16698859D01*
X89164720Y16471192D01*
X88742790Y16049997D01*
X88514161Y15499398D01*
X88513641Y14903218D01*
X86613451Y14903218D01*
X86518117Y15133943D01*
X86485000Y15167118D01*
X86485000Y18415000D01*
X86427148Y18705839D01*
X86262401Y18952401D01*
X85850000Y19364802D01*
X85850000Y21661970D01*
X94732252Y21661970D01*
X94758442Y21066365D01*
X94935984Y20637741D01*
X95188695Y20555800D01*
X96062895Y21430000D01*
X95188695Y22304200D01*
X94935984Y22222259D01*
X94732252Y21661970D01*
X85850000Y21661970D01*
X85850000Y22483805D01*
X95368300Y22483805D01*
X96242500Y21609605D01*
X97116700Y22483805D01*
X97034759Y22736516D01*
X96474470Y22940248D01*
X95878865Y22914058D01*
X95450241Y22736516D01*
X95368300Y22483805D01*
X85850000Y22483805D01*
X85850000Y22932537D01*
X85882192Y22964673D01*
X86024838Y23308201D01*
X86025162Y23680167D01*
X85883117Y24023943D01*
X85620327Y24287192D01*
X85276799Y24429838D01*
X84904833Y24430162D01*
X84561057Y24288117D01*
X84297808Y24025327D01*
X84155162Y23681799D01*
X84154838Y23309833D01*
X82675000Y23309833D01*
X82675000Y24837537D01*
X82707192Y24869673D01*
X82849838Y25213201D01*
X82850162Y25585167D01*
X82708117Y25928943D01*
X82445327Y26192192D01*
X82101799Y26334838D01*
X81729833Y26335162D01*
X81386057Y26193117D01*
X81122808Y25930327D01*
X80980162Y25586799D01*
X80979838Y25214833D01*
X81121883Y24871057D01*
X81155000Y24837882D01*
X81155000Y12700000D01*
X81212852Y12409161D01*
X81377599Y12162599D01*
X87190198Y6350000D01*
X87092599Y6252401D01*
X86927852Y6005839D01*
X86870000Y5715000D01*
X86870000Y2577462D01*
X86782220Y2541192D01*
X86360290Y2119997D01*
X86343459Y2079463D01*
X86143805Y2144200D01*
X85269605Y1270000D01*
X86143805Y395800D01*
X86343033Y460399D01*
X86358808Y422220D01*
X86780003Y290D01*
X87330602Y-228339D01*
X87926782Y-228859D01*
X88477780Y-1192D01*
X88899710Y420003D01*
X88900095Y420931D01*
X89320003Y290D01*
X89870602Y-228339D01*
X90466782Y-228859D01*
X91017780Y-1192D01*
X91439710Y420003D01*
X91440095Y420931D01*
X91860003Y290D01*
X92410602Y-228339D01*
X93006782Y-228859D01*
X93557780Y-1192D01*
X93979710Y420003D01*
X93980095Y420931D01*
X94400003Y290D01*
X94950602Y-228339D01*
X95546782Y-228859D01*
X95636844Y-191646D01*
X95955198Y-510000D01*
X71682463Y-510000D01*
X71650327Y-477808D01*
X71306799Y-335162D01*
X70934833Y-334838D01*
X70591057Y-476883D01*
X70327808Y-739673D01*
X70185162Y-1083201D01*
X70185108Y-1145000D01*
X61958488Y-1145000D01*
X60676351Y137137D01*
X60959710Y420003D01*
X60960095Y420931D01*
X61380003Y290D01*
X61930602Y-228339D01*
X62526782Y-228859D01*
X63077780Y-1192D01*
X63295546Y216195D01*
X63895800Y216195D01*
X63977741Y-36516D01*
X64538030Y-240248D01*
X65133635Y-214058D01*
X65562259Y-36516D01*
X65644200Y216195D01*
X64770000Y1090395D01*
X63895800Y216195D01*
X63295546Y216195D01*
X63499710Y420003D01*
X63516541Y460537D01*
X63716195Y395800D01*
X64590395Y1270000D01*
X64576253Y1284143D01*
X64755858Y1463748D01*
X64770000Y1449605D01*
X64784143Y1463748D01*
X64963748Y1284143D01*
X64949605Y1270000D01*
X65823805Y395800D01*
X66023033Y460399D01*
X66038808Y422220D01*
X66460003Y290D01*
X67010602Y-228339D01*
X67606782Y-228859D01*
X68157780Y-1192D01*
X68579710Y420003D01*
X68580095Y420931D01*
X69000003Y290D01*
X69550602Y-228339D01*
X70146782Y-228859D01*
X70697780Y-1192D01*
X71119710Y420003D01*
X71120095Y420931D01*
X71540003Y290D01*
X72090602Y-228339D01*
X72686782Y-228859D01*
X73237780Y-1192D01*
X73659710Y420003D01*
X73660095Y420931D01*
X74080003Y290D01*
X74630602Y-228339D01*
X75226782Y-228859D01*
X75777780Y-1192D01*
X76199710Y420003D01*
X76200095Y420931D01*
X76620003Y290D01*
X77170602Y-228339D01*
X77766782Y-228859D01*
X78317780Y-1192D01*
X78739710Y420003D01*
X78740095Y420931D01*
X79160003Y290D01*
X79710602Y-228339D01*
X80306782Y-228859D01*
X80857780Y-1192D01*
X81279710Y420003D01*
X81280095Y420931D01*
X81700003Y290D01*
X82250602Y-228339D01*
X82846782Y-228859D01*
X83397780Y-1192D01*
X83615546Y216195D01*
X84215800Y216195D01*
X84297741Y-36516D01*
X84858030Y-240248D01*
X85453635Y-214058D01*
X85882259Y-36516D01*
X85964200Y216195D01*
X85090000Y1090395D01*
X84215800Y216195D01*
X83615546Y216195D01*
X83819710Y420003D01*
X83836541Y460537D01*
X84036195Y395800D01*
X84910395Y1270000D01*
X84036195Y2144200D01*
X83836967Y2079601D01*
X83821192Y2117780D01*
X83615526Y2323805D01*
X84215800Y2323805D01*
X85090000Y1449605D01*
X85964200Y2323805D01*
X85882259Y2576516D01*
X85321970Y2780248D01*
X84726365Y2754058D01*
X84297741Y2576516D01*
X84215800Y2323805D01*
X83615526Y2323805D01*
X83399997Y2539710D01*
X82849398Y2768339D01*
X82253218Y2768859D01*
X81702220Y2541192D01*
X81280290Y2119997D01*
X81279905Y2119069D01*
X80859997Y2539710D01*
X80309398Y2768339D01*
X79713218Y2768859D01*
X79162220Y2541192D01*
X78740290Y2119997D01*
X78739905Y2119069D01*
X78319997Y2539710D01*
X77769398Y2768339D01*
X77173218Y2768859D01*
X76622220Y2541192D01*
X76200290Y2119997D01*
X76199905Y2119069D01*
X75779997Y2539710D01*
X75690000Y2577080D01*
X75690000Y4142500D01*
X75632148Y4433339D01*
X75632148Y4433340D01*
X75467401Y4679901D01*
X71150520Y8996782D01*
X71207224Y9133341D01*
X71207775Y9763893D01*
X70966981Y10346657D01*
X70521503Y10792914D01*
X69939159Y11034724D01*
X69308607Y11035275D01*
X68919768Y10874609D01*
X69393226Y11347242D01*
X69757085Y12223513D01*
X69757913Y13172325D01*
X69395584Y14049229D01*
X68920261Y14525383D01*
X69305841Y14365276D01*
X69936393Y14364725D01*
X70519157Y14605519D01*
X70965414Y15050997D01*
X71207224Y15633341D01*
X71207775Y16263893D01*
X70966981Y16846657D01*
X70521503Y17292914D01*
X69939159Y17534724D01*
X69308607Y17535275D01*
X68725843Y17294481D01*
X68279586Y16849003D01*
X68037776Y16266659D01*
X68037225Y15636107D01*
X68278019Y15053343D01*
X68528495Y14802429D01*
X67848987Y15084585D01*
X66900175Y15085413D01*
X66286111Y14831687D01*
X66353266Y14898842D01*
X66238852Y15013256D01*
X66500519Y15105792D01*
X66718688Y15697398D01*
X66693852Y16327461D01*
X66500519Y16794208D01*
X66238850Y16886745D01*
X65302105Y15950000D01*
X65316248Y15935858D01*
X65136643Y15756253D01*
X65122500Y15770395D01*
X65108358Y15756253D01*
X64928753Y15935858D01*
X64942895Y15950000D01*
X64928753Y15964143D01*
X65108358Y16143748D01*
X65122500Y16129605D01*
X66059245Y17066350D01*
X65966708Y17328019D01*
X65375102Y17546188D01*
X65332814Y17544521D01*
X65354015Y17553281D01*
X65842504Y18040918D01*
X66107199Y18678373D01*
X66107801Y19368599D01*
X65844219Y20006515D01*
X65356582Y20495004D01*
X64719127Y20759699D01*
X64028901Y20760301D01*
X63390985Y20496719D01*
X62902496Y20009082D01*
X62637801Y19371627D01*
X62637199Y18681401D01*
X62862964Y18135009D01*
X62489293Y18135335D01*
X61777842Y17841370D01*
X61233043Y17297521D01*
X61157601Y17115837D01*
X61157809Y17353501D01*
X60886632Y18009800D01*
X60384941Y18512367D01*
X59729116Y18784689D01*
X59018999Y18785309D01*
X58362700Y18514132D01*
X57860133Y18012441D01*
X57587811Y17356616D01*
X57587601Y17116215D01*
X57513870Y17294658D01*
X56970021Y17839457D01*
X56259084Y18134663D01*
X55881567Y18134993D01*
X56107199Y18678373D01*
X56107801Y19368599D01*
X56061193Y19481399D01*
X60683899Y19481399D01*
X60974738Y19539251D01*
X61221300Y19703998D01*
X61485386Y19968084D01*
X61573102Y19931661D01*
X62169282Y19931141D01*
X62720280Y20158808D01*
X63142210Y20580003D01*
X63370839Y21130602D01*
X63371359Y21726782D01*
X63143692Y22277780D01*
X62722497Y22699710D01*
X62171898Y22928339D01*
X61575718Y22928859D01*
X61024720Y22701192D01*
X60622168Y22299341D01*
X60222497Y22699710D01*
X59671898Y22928339D01*
X59075718Y22928859D01*
X58524720Y22701192D01*
X58102790Y22279997D01*
X58090705Y22250894D01*
X57926305Y22304200D01*
X57052105Y21430000D01*
X57066248Y21415858D01*
X56886643Y21236253D01*
X56872500Y21250395D01*
X56858358Y21236253D01*
X56678753Y21415858D01*
X56692895Y21430000D01*
X55818695Y22304200D01*
X55565984Y22222259D01*
X55362252Y21661970D01*
X55363392Y21636045D01*
X55242902Y21660012D01*
X53502099Y21660012D01*
X53211260Y21602160D01*
X52964698Y21437413D01*
X50105099Y18577814D01*
X49940352Y18331252D01*
X49882500Y18040413D01*
X49882500Y16507462D01*
X49794720Y16471192D01*
X49372790Y16049997D01*
X49335420Y15960000D01*
X47846441Y15960000D01*
X44253663Y19552778D01*
X44528172Y19552538D01*
X45508761Y19957709D01*
X46259655Y20707293D01*
X46666536Y21687173D01*
X46667231Y22483805D01*
X55998300Y22483805D01*
X56872500Y21609605D01*
X57746700Y22483805D01*
X57664759Y22736516D01*
X57104470Y22940248D01*
X56508865Y22914058D01*
X56080241Y22736516D01*
X55998300Y22483805D01*
X46667231Y22483805D01*
X46667462Y22748172D01*
X46262291Y23728761D01*
X45512707Y24479655D01*
X44532827Y24886536D01*
X43471828Y24887462D01*
X42491239Y24482291D01*
X41740345Y23732707D01*
X41333464Y22752827D01*
X41332967Y22183768D01*
X41301638Y22190000D01*
X23809962Y22190000D01*
X23773692Y22277780D01*
X23352497Y22699710D01*
X22801898Y22928339D01*
X22205718Y22928859D01*
X21654720Y22701192D01*
X21252168Y22299341D01*
X20852497Y22699710D01*
X20301898Y22928339D01*
X19705718Y22928859D01*
X19154720Y22701192D01*
X18732790Y22279997D01*
X18720705Y22250894D01*
X18556305Y22304200D01*
X17682105Y21430000D01*
X17696248Y21415858D01*
X17516643Y21236253D01*
X17502500Y21250395D01*
X17488358Y21236253D01*
X17308753Y21415858D01*
X17322895Y21430000D01*
X16448695Y22304200D01*
X16195984Y22222259D01*
X15992252Y21661970D01*
X16015800Y21126451D01*
X15977340Y21152149D01*
X15686501Y21210001D01*
X14318499Y21210001D01*
X14027660Y21152149D01*
X13781098Y20987402D01*
X12032500Y19238804D01*
X12032500Y22483805D01*
X16628300Y22483805D01*
X17502500Y21609605D01*
X18376700Y22483805D01*
X18294759Y22736516D01*
X17734470Y22940248D01*
X17138865Y22914058D01*
X16710241Y22736516D01*
X16628300Y22483805D01*
X12032500Y22483805D01*
X12032500Y33987298D01*
X12321546Y34276344D01*
X12373309Y34254850D01*
X12944187Y34254352D01*
X13471800Y34472357D01*
X13681663Y34681855D01*
X26516861Y34681855D01*
X26590995Y34435736D01*
X27128223Y34242635D01*
X27698454Y34269822D01*
X28099005Y34435736D01*
X28173139Y34681855D01*
X27345000Y35509995D01*
X26516861Y34681855D01*
X13681663Y34681855D01*
X13875824Y34875677D01*
X14094750Y35402909D01*
X14095189Y35906377D01*
X25898035Y35906377D01*
X25925222Y35336146D01*
X26091136Y34935595D01*
X26337255Y34861461D01*
X27165395Y35689600D01*
X26337255Y36517739D01*
X26091136Y36443605D01*
X25898035Y35906377D01*
X14095189Y35906377D01*
X14095248Y35973787D01*
X13877243Y36501400D01*
X13681640Y36697345D01*
X26516861Y36697345D01*
X27345000Y35869205D01*
X28173139Y36697345D01*
X28099005Y36943464D01*
X27561777Y37136565D01*
X26991546Y37109378D01*
X26590995Y36943464D01*
X26516861Y36697345D01*
X13681640Y36697345D01*
X13473923Y36905424D01*
X12946691Y37124350D01*
X12375813Y37124848D01*
X11848200Y36906843D01*
X11444176Y36503523D01*
X11410187Y36421669D01*
X11377243Y36501400D01*
X10973923Y36905424D01*
X10446691Y37124350D01*
X9875813Y37124848D01*
X9348200Y36906843D01*
X8944176Y36503523D01*
X8916577Y36437056D01*
X8913864Y36443605D01*
X8667745Y36517739D01*
X7839605Y35689600D01*
X7480395Y35689600D01*
X6652255Y36517739D01*
X6406136Y36443605D01*
X6213035Y35906377D01*
X685000Y35906377D01*
X685000Y36697345D01*
X6831861Y36697345D01*
X7660000Y35869205D01*
X8488139Y36697345D01*
X8414005Y36943464D01*
X7876777Y37136565D01*
X7306546Y37109378D01*
X6905995Y36943464D01*
X6831861Y36697345D01*
X685000Y36697345D01*
X685000Y42267283D01*
X3580421Y42267283D01*
X3912367Y41463914D01*
X4526481Y40848727D01*
X5329270Y40515380D01*
X6198517Y40514621D01*
X7001886Y40846567D01*
X7617073Y41460681D01*
X7950420Y42263470D01*
X7950423Y42267283D01*
X12368821Y42267283D01*
X12700767Y41463914D01*
X13314881Y40848727D01*
X14117670Y40515380D01*
X14986917Y40514621D01*
X15790286Y40846567D01*
X16405473Y41460681D01*
X16738820Y42263470D01*
X16738823Y42267283D01*
X23265421Y42267283D01*
X23597367Y41463914D01*
X24211481Y40848727D01*
X25014270Y40515380D01*
X25883517Y40514621D01*
X26686886Y40846567D01*
X27302073Y41460681D01*
X27635420Y42263470D01*
X27636179Y43132717D01*
X27304233Y43936086D01*
X26690119Y44551273D01*
X25887330Y44884620D01*
X25018083Y44885379D01*
X24214714Y44553433D01*
X23599527Y43939319D01*
X23266180Y43136530D01*
X23265421Y42267283D01*
X16738823Y42267283D01*
X16739579Y43132717D01*
X16407633Y43936086D01*
X15793519Y44551273D01*
X14990730Y44884620D01*
X14121483Y44885379D01*
X13318114Y44553433D01*
X12702927Y43939319D01*
X12369580Y43136530D01*
X12368821Y42267283D01*
X7950423Y42267283D01*
X7951179Y43132717D01*
X7619233Y43936086D01*
X7005119Y44551273D01*
X6202330Y44884620D01*
X5333083Y44885379D01*
X4529714Y44553433D01*
X3914527Y43939319D01*
X3581180Y43136530D01*
X3580421Y42267283D01*
X685000Y42267283D01*
X685000Y49719841D01*
X1639446Y49719841D01*
X1725852Y49463357D01*
X2299336Y49253542D01*
X2909460Y49279161D01*
X3354148Y49463357D01*
X3440554Y49719841D01*
X2540000Y50620395D01*
X1639446Y49719841D01*
X685000Y49719841D01*
X685000Y51040664D01*
X993542Y51040664D01*
X1019161Y50430540D01*
X1203357Y49985852D01*
X1459841Y49899446D01*
X2360395Y50800000D01*
X2719605Y50800000D01*
X3620159Y49899446D01*
X3876643Y49985852D01*
X4086458Y50559336D01*
X4060839Y51169460D01*
X3876643Y51614148D01*
X3620159Y51700554D01*
X2719605Y50800000D01*
X2360395Y50800000D01*
X1459841Y51700554D01*
X1203357Y51614148D01*
X993542Y51040664D01*
X685000Y51040664D01*
X685000Y59535000D01*
X1484234Y59535000D01*
X1239449Y59290643D01*
X1239449Y59290643D01*
G37*
X1239449Y59290643D02*
X1005267Y58726670D01*
X1004735Y58116009D01*
X1237932Y57551629D01*
X1639182Y57149677D01*
X1239449Y56750643D01*
X1005267Y56186670D01*
X1004735Y55576009D01*
X1237932Y55011629D01*
X1639182Y54609677D01*
X1239449Y54210643D01*
X1005267Y53646670D01*
X1004735Y53036009D01*
X1237932Y52471629D01*
X1669357Y52039449D01*
X1690194Y52030797D01*
X1639446Y51880159D01*
X2540000Y50979605D01*
X3440554Y51880159D01*
X3389965Y52030327D01*
X3408371Y52037932D01*
X3840551Y52469357D01*
X4074733Y53033330D01*
X4075265Y53643991D01*
X3842068Y54208371D01*
X3440818Y54610323D01*
X3840551Y55009357D01*
X4074733Y55573330D01*
X4075265Y56183991D01*
X3842068Y56748371D01*
X3440818Y57150323D01*
X3840551Y57549357D01*
X4074733Y58113330D01*
X4075265Y58723991D01*
X3842068Y59288371D01*
X3595870Y59535000D01*
X40854234Y59535000D01*
X40609449Y59290643D01*
X40375267Y58726670D01*
X40374735Y58116009D01*
X40607932Y57551629D01*
X41009182Y57149677D01*
X40609449Y56750643D01*
X40375267Y56186670D01*
X40374735Y55576009D01*
X40607932Y55011629D01*
X41009182Y54609677D01*
X40609449Y54210643D01*
X40375267Y53646670D01*
X40374735Y53036009D01*
X40420485Y52925287D01*
X31807599Y44312401D01*
X31642852Y44065839D01*
X31585000Y43775000D01*
X31585000Y36928246D01*
X31533200Y36906843D01*
X31129176Y36503523D01*
X31095187Y36421669D01*
X31062243Y36501400D01*
X30658923Y36905424D01*
X30131691Y37124350D01*
X29560813Y37124848D01*
X29033200Y36906843D01*
X28629176Y36503523D01*
X28601577Y36437056D01*
X28598864Y36443605D01*
X28352745Y36517739D01*
X27524605Y35689600D01*
X28352745Y34861461D01*
X28598864Y34935595D01*
X28601196Y34942083D01*
X28627757Y34877800D01*
X29031077Y34473776D01*
X29558309Y34254850D01*
X30129187Y34254352D01*
X30656800Y34472357D01*
X31060824Y34875677D01*
X31094813Y34957531D01*
X31127757Y34877800D01*
X31531077Y34473776D01*
X32058309Y34254850D01*
X32629187Y34254352D01*
X33156800Y34472357D01*
X33366663Y34681855D01*
X46201861Y34681855D01*
X46275995Y34435736D01*
X46813223Y34242635D01*
X47383454Y34269822D01*
X47784005Y34435736D01*
X47858139Y34681855D01*
X47030000Y35509995D01*
X46201861Y34681855D01*
X33366663Y34681855D01*
X33560824Y34875677D01*
X33779750Y35402909D01*
X33780189Y35906377D01*
X45583035Y35906377D01*
X45610222Y35336146D01*
X45776136Y34935595D01*
X46022255Y34861461D01*
X46850395Y35689600D01*
X47209605Y35689600D01*
X48037745Y34861461D01*
X48283864Y34935595D01*
X48286196Y34942083D01*
X48312757Y34877800D01*
X48716077Y34473776D01*
X48793166Y34441766D01*
X48827852Y34267391D01*
X48992599Y34020829D01*
X49895829Y33117599D01*
X50142391Y32952852D01*
X50433230Y32895000D01*
X53809367Y32895000D01*
X53675162Y32571799D01*
X53674838Y32199833D01*
X53816883Y31856057D01*
X53922710Y31750046D01*
X53817808Y31645327D01*
X53675162Y31301799D01*
X53674838Y30929833D01*
X53816883Y30586057D01*
X54079673Y30322808D01*
X54423201Y30180162D01*
X54795167Y30179838D01*
X55138943Y30321883D01*
X55172118Y30355000D01*
X62565034Y30355000D01*
X62564838Y30129820D01*
X62706883Y29786044D01*
X62969673Y29522795D01*
X63313201Y29380149D01*
X63360077Y29380108D01*
X65822253Y26917932D01*
X65602630Y26918123D01*
X65304649Y26795000D01*
X64300617Y26795000D01*
X64434822Y27118201D01*
X64435146Y27490167D01*
X64293101Y27833943D01*
X64030311Y28097192D01*
X63686783Y28239838D01*
X63314817Y28240162D01*
X62971041Y28098117D01*
X62937866Y28065000D01*
X51997463Y28065000D01*
X51965327Y28097192D01*
X51621799Y28239838D01*
X51249833Y28240162D01*
X50906057Y28098117D01*
X50642808Y27835327D01*
X50500162Y27491799D01*
X50499838Y27119833D01*
X50569432Y26951403D01*
X50271057Y26828117D01*
X50007808Y26565327D01*
X49865162Y26221799D01*
X49864838Y25849833D01*
X50006883Y25506057D01*
X50269673Y25242808D01*
X50613201Y25100162D01*
X50985167Y25099838D01*
X51328943Y25241883D01*
X51362118Y25275000D01*
X65173386Y25275000D01*
X65257470Y25190769D01*
X65600998Y25048123D01*
X65972964Y25047799D01*
X66316740Y25189844D01*
X66579989Y25452634D01*
X66722635Y25796162D01*
X66722828Y26017357D01*
X68322184Y24418000D01*
X68280162Y24316799D01*
X68279838Y23944833D01*
X68421883Y23601057D01*
X68684673Y23337808D01*
X69028201Y23195162D01*
X69400167Y23194838D01*
X69743943Y23336883D01*
X70007192Y23599673D01*
X70149838Y23943201D01*
X70149910Y24025288D01*
X70995000Y23180198D01*
X70995000Y22539802D01*
X70980320Y22525122D01*
X70934833Y22525162D01*
X70591057Y22383117D01*
X70327808Y22120327D01*
X70185162Y21776799D01*
X70184838Y21404833D01*
X70326883Y21061057D01*
X70589673Y20797808D01*
X70933201Y20655162D01*
X71305167Y20654838D01*
X71648943Y20796883D01*
X71912192Y21059673D01*
X72054838Y21403201D01*
X72054879Y21450077D01*
X72292401Y21687599D01*
X72457148Y21934161D01*
X72515000Y22225000D01*
X72515000Y23495000D01*
X72457148Y23785839D01*
X72292401Y24032401D01*
X69438607Y26886195D01*
X98185800Y26886195D01*
X98267741Y26633484D01*
X98828030Y26429752D01*
X99423635Y26455942D01*
X99852259Y26633484D01*
X99934200Y26886195D01*
X99060000Y27760395D01*
X98185800Y26886195D01*
X69438607Y26886195D01*
X68152832Y28171970D01*
X97549752Y28171970D01*
X97575942Y27576365D01*
X97753484Y27147741D01*
X98006195Y27065800D01*
X98880395Y27940000D01*
X99239605Y27940000D01*
X100113805Y27065800D01*
X100366516Y27147741D01*
X100570248Y27708030D01*
X100544058Y28303635D01*
X100366516Y28732259D01*
X100113805Y28814200D01*
X99239605Y27940000D01*
X98880395Y27940000D01*
X98006195Y28814200D01*
X97753484Y28732259D01*
X97549752Y28171970D01*
X68152832Y28171970D01*
X66340122Y29984680D01*
X66340162Y30030167D01*
X66205944Y30355000D01*
X68652537Y30355000D01*
X68684673Y30322808D01*
X69028201Y30180162D01*
X69400167Y30179838D01*
X69743943Y30321883D01*
X70007192Y30584673D01*
X70149838Y30928201D01*
X70150162Y31300167D01*
X70015944Y31625000D01*
X70557537Y31625000D01*
X70589673Y31592808D01*
X70933201Y31450162D01*
X71305167Y31449838D01*
X71648943Y31591883D01*
X71912192Y31854673D01*
X72054838Y32198201D01*
X72055162Y32570167D01*
X71913117Y32913943D01*
X71650327Y33177192D01*
X71350668Y33301622D01*
X71419838Y33468201D01*
X71420162Y33840167D01*
X71278117Y34183943D01*
X71050888Y34411569D01*
X71428309Y34254850D01*
X71999187Y34254352D01*
X72526800Y34472357D01*
X72736663Y34681855D01*
X85571861Y34681855D01*
X85645995Y34435736D01*
X86183223Y34242635D01*
X86753454Y34269822D01*
X87154005Y34435736D01*
X87228139Y34681855D01*
X86400000Y35509995D01*
X85571861Y34681855D01*
X72736663Y34681855D01*
X72930824Y34875677D01*
X73149750Y35402909D01*
X73150189Y35906377D01*
X84953035Y35906377D01*
X84980222Y35336146D01*
X85146136Y34935595D01*
X85392255Y34861461D01*
X86220395Y35689600D01*
X86579605Y35689600D01*
X87407745Y34861461D01*
X87653864Y34935595D01*
X87656196Y34942083D01*
X87682757Y34877800D01*
X88086077Y34473776D01*
X88613309Y34254850D01*
X89184187Y34254352D01*
X89711800Y34472357D01*
X90115824Y34875677D01*
X90149813Y34957531D01*
X90182757Y34877800D01*
X90586077Y34473776D01*
X91113309Y34254850D01*
X91684187Y34254352D01*
X92211800Y34472357D01*
X92615824Y34875677D01*
X92834750Y35402909D01*
X92835248Y35973787D01*
X92617243Y36501400D01*
X92213923Y36905424D01*
X92160000Y36927815D01*
X92160000Y37715996D01*
X95125000Y40680996D01*
X95125000Y35487463D01*
X95092808Y35455327D01*
X94950162Y35111799D01*
X94949838Y34739833D01*
X95091883Y34396057D01*
X95354673Y34132808D01*
X95698201Y33990162D01*
X96070167Y33989838D01*
X96413943Y34131883D01*
X96519954Y34237710D01*
X96624673Y34132808D01*
X96968201Y33990162D01*
X97340167Y33989838D01*
X97683943Y34131883D01*
X97947192Y34394673D01*
X97993786Y34506884D01*
X98210003Y34290290D01*
X98210931Y34289905D01*
X97790290Y33869997D01*
X97561661Y33319398D01*
X97561141Y32723218D01*
X97788808Y32172220D01*
X98210003Y31750290D01*
X98210931Y31749905D01*
X97790290Y31329997D01*
X97561661Y30779398D01*
X97561141Y30183218D01*
X97788808Y29632220D01*
X98210003Y29210290D01*
X98250537Y29193459D01*
X98185800Y28993805D01*
X99060000Y28119605D01*
X99934200Y28993805D01*
X99869601Y29193033D01*
X99907780Y29208808D01*
X100329710Y29630003D01*
X100558339Y30180602D01*
X100558859Y30776782D01*
X100331192Y31327780D01*
X99909997Y31749710D01*
X99909069Y31750095D01*
X100329710Y32170003D01*
X100558339Y32720602D01*
X100558859Y33316782D01*
X100495620Y33469833D01*
X101299838Y33469833D01*
X101441883Y33126057D01*
X101475000Y33092882D01*
X101475000Y28575000D01*
X101532852Y28284161D01*
X101697599Y28037599D01*
X103080001Y26655197D01*
X103080001Y26334999D01*
X103137853Y26044160D01*
X103302600Y25797598D01*
X105744878Y23355320D01*
X105744838Y23309833D01*
X105886883Y22966057D01*
X106149673Y22702808D01*
X106493201Y22560162D01*
X106865167Y22559838D01*
X107208943Y22701883D01*
X107472192Y22964673D01*
X107614838Y23308201D01*
X107615162Y23680167D01*
X107473117Y24023943D01*
X107210327Y24287192D01*
X106866799Y24429838D01*
X106819923Y24429879D01*
X104600001Y26649801D01*
X104600001Y26969999D01*
X104554461Y27198943D01*
X104542149Y27260839D01*
X104377402Y27507400D01*
X102995000Y28889802D01*
X102995000Y32199833D01*
X103204838Y32199833D01*
X103346883Y31856057D01*
X103380000Y31822882D01*
X103380000Y29845000D01*
X103437852Y29554161D01*
X103602599Y29307599D01*
X107649878Y25260320D01*
X107649838Y25214833D01*
X107791883Y24871057D01*
X108054673Y24607808D01*
X108398201Y24465162D01*
X108770167Y24464838D01*
X109113943Y24606883D01*
X109377192Y24869673D01*
X109519838Y25213201D01*
X109520162Y25585167D01*
X109378117Y25928943D01*
X109115327Y26192192D01*
X108771799Y26334838D01*
X108724923Y26334879D01*
X104900000Y30159802D01*
X104900000Y30629898D01*
X105111249Y30629898D01*
X105253294Y30286122D01*
X105516084Y30022873D01*
X105859612Y29880227D01*
X106205272Y29879926D01*
X109554878Y26530320D01*
X109554838Y26484833D01*
X109696883Y26141057D01*
X109959673Y25877808D01*
X110303201Y25735162D01*
X110675167Y25734838D01*
X111018943Y25876883D01*
X111282192Y26139673D01*
X111424838Y26483201D01*
X111425162Y26855167D01*
X111283117Y27198943D01*
X111020327Y27462192D01*
X110676799Y27604838D01*
X110629923Y27604879D01*
X106882336Y31352466D01*
X106728423Y31455307D01*
X106576738Y31607257D01*
X106233210Y31749903D01*
X105861244Y31750227D01*
X105517468Y31608182D01*
X105254219Y31345392D01*
X105111573Y31001864D01*
X105111249Y30629898D01*
X104900000Y30629898D01*
X104900000Y31822537D01*
X104932192Y31854673D01*
X105074838Y32198201D01*
X105075162Y32570167D01*
X104933117Y32913943D01*
X104670327Y33177192D01*
X104326799Y33319838D01*
X103954833Y33320162D01*
X103611057Y33178117D01*
X103347808Y32915327D01*
X103205162Y32571799D01*
X103204838Y32199833D01*
X102995000Y32199833D01*
X102995000Y33092537D01*
X103027192Y33124673D01*
X103169838Y33468201D01*
X103170162Y33840167D01*
X103028117Y34183943D01*
X102765327Y34447192D01*
X102421799Y34589838D01*
X102049833Y34590162D01*
X101706057Y34448117D01*
X101442808Y34185327D01*
X101300162Y33841799D01*
X101299838Y33469833D01*
X100495620Y33469833D01*
X100331192Y33867780D01*
X99909997Y34289710D01*
X99909069Y34290095D01*
X100301512Y34681855D01*
X105256861Y34681855D01*
X105330995Y34435736D01*
X105868223Y34242635D01*
X106438454Y34269822D01*
X106839005Y34435736D01*
X106913139Y34681855D01*
X106085000Y35509995D01*
X105256861Y34681855D01*
X100301512Y34681855D01*
X100329710Y34710003D01*
X100558339Y35260602D01*
X100558859Y35856782D01*
X100538367Y35906377D01*
X104638035Y35906377D01*
X104665222Y35336146D01*
X104831136Y34935595D01*
X105077255Y34861461D01*
X105905395Y35689600D01*
X105077255Y36517739D01*
X104831136Y36443605D01*
X104638035Y35906377D01*
X100538367Y35906377D01*
X100331192Y36407780D01*
X100042132Y36697345D01*
X105256861Y36697345D01*
X106085000Y35869205D01*
X106913139Y36697345D01*
X106839005Y36943464D01*
X106301777Y37136565D01*
X105731546Y37109378D01*
X105330995Y36943464D01*
X105256861Y36697345D01*
X100042132Y36697345D01*
X99909997Y36829710D01*
X99909069Y36830095D01*
X100329710Y37250003D01*
X100558339Y37800602D01*
X100558859Y38396782D01*
X100331192Y38947780D01*
X99909997Y39369710D01*
X99909069Y39370095D01*
X100329710Y39790003D01*
X100367080Y39880000D01*
X105819798Y39880000D01*
X108575189Y37124609D01*
X108300813Y37124848D01*
X107773200Y36906843D01*
X107369176Y36503523D01*
X107341577Y36437056D01*
X107338864Y36443605D01*
X107092745Y36517739D01*
X106264605Y35689600D01*
X107092745Y34861461D01*
X107338864Y34935595D01*
X107341196Y34942083D01*
X107367757Y34877800D01*
X107771077Y34473776D01*
X108298309Y34254850D01*
X108869187Y34254352D01*
X109396800Y34472357D01*
X109800824Y34875677D01*
X109834813Y34957531D01*
X109867757Y34877800D01*
X110271077Y34473776D01*
X110798309Y34254850D01*
X111369187Y34254352D01*
X111423149Y34276649D01*
X115122199Y30577599D01*
X115368761Y30412852D01*
X115659600Y30355000D01*
X126195400Y30355000D01*
X126486239Y30412852D01*
X126732801Y30577599D01*
X127847030Y31691828D01*
X153832538Y31691828D01*
X154237709Y30711239D01*
X154987293Y29960345D01*
X155967173Y29553464D01*
X157028172Y29552538D01*
X158008761Y29957709D01*
X158759655Y30707293D01*
X159166536Y31687173D01*
X159167462Y32748172D01*
X158762291Y33728761D01*
X158012707Y34479655D01*
X157032827Y34886536D01*
X155971828Y34887462D01*
X154991239Y34482291D01*
X154240345Y33732707D01*
X153833464Y32752827D01*
X153832538Y31691828D01*
X127847030Y31691828D01*
X130431546Y34276344D01*
X130483309Y34254850D01*
X131054187Y34254352D01*
X131581800Y34472357D01*
X131791663Y34681855D01*
X144626861Y34681855D01*
X144700995Y34435736D01*
X145238223Y34242635D01*
X145808454Y34269822D01*
X146209005Y34435736D01*
X146283139Y34681855D01*
X145455000Y35509995D01*
X144626861Y34681855D01*
X131791663Y34681855D01*
X131985824Y34875677D01*
X132204750Y35402909D01*
X132205189Y35906377D01*
X144008035Y35906377D01*
X144035222Y35336146D01*
X144201136Y34935595D01*
X144447255Y34861461D01*
X145275395Y35689600D01*
X145634605Y35689600D01*
X146462745Y34861461D01*
X146708864Y34935595D01*
X146711196Y34942083D01*
X146737757Y34877800D01*
X147141077Y34473776D01*
X147668309Y34254850D01*
X148239187Y34254352D01*
X148766800Y34472357D01*
X149170824Y34875677D01*
X149204813Y34957531D01*
X149237757Y34877800D01*
X149641077Y34473776D01*
X150168309Y34254850D01*
X150739187Y34254352D01*
X151266800Y34472357D01*
X151670824Y34875677D01*
X151889750Y35402909D01*
X151890248Y35973787D01*
X151672243Y36501400D01*
X151268923Y36905424D01*
X150741691Y37124350D01*
X150170813Y37124848D01*
X149643200Y36906843D01*
X149239176Y36503523D01*
X149205187Y36421669D01*
X149172243Y36501400D01*
X148768923Y36905424D01*
X148241691Y37124350D01*
X147670813Y37124848D01*
X147143200Y36906843D01*
X146739176Y36503523D01*
X146711577Y36437056D01*
X146708864Y36443605D01*
X146462745Y36517739D01*
X145634605Y35689600D01*
X145275395Y35689600D01*
X144447255Y36517739D01*
X144201136Y36443605D01*
X144008035Y35906377D01*
X132205189Y35906377D01*
X132205248Y35973787D01*
X131987243Y36501400D01*
X131791640Y36697345D01*
X144626861Y36697345D01*
X145455000Y35869205D01*
X146283139Y36697345D01*
X146209005Y36943464D01*
X145671777Y37136565D01*
X145101546Y37109378D01*
X144700995Y36943464D01*
X144626861Y36697345D01*
X131791640Y36697345D01*
X131583923Y36905424D01*
X131056691Y37124350D01*
X130485813Y37124848D01*
X129958200Y36906843D01*
X129554176Y36503523D01*
X129520187Y36421669D01*
X129487243Y36501400D01*
X129083923Y36905424D01*
X128556691Y37124350D01*
X127985813Y37124848D01*
X127458200Y36906843D01*
X127054176Y36503523D01*
X127026577Y36437056D01*
X127023864Y36443605D01*
X126777745Y36517739D01*
X125949605Y35689600D01*
X126777745Y34861461D01*
X127023864Y34935595D01*
X127026196Y34942083D01*
X127052757Y34877800D01*
X127456077Y34473776D01*
X127983309Y34254850D01*
X128260206Y34254608D01*
X125880598Y31875000D01*
X115974402Y31875000D01*
X113167547Y34681855D01*
X124941861Y34681855D01*
X125015995Y34435736D01*
X125553223Y34242635D01*
X126123454Y34269822D01*
X126524005Y34435736D01*
X126598139Y34681855D01*
X125770000Y35509995D01*
X124941861Y34681855D01*
X113167547Y34681855D01*
X112498256Y35351146D01*
X112519750Y35402909D01*
X112520189Y35906377D01*
X124323035Y35906377D01*
X124350222Y35336146D01*
X124516136Y34935595D01*
X124762255Y34861461D01*
X125590395Y35689600D01*
X124762255Y36517739D01*
X124516136Y36443605D01*
X124323035Y35906377D01*
X112520189Y35906377D01*
X112520248Y35973787D01*
X112302243Y36501400D01*
X112106640Y36697345D01*
X124941861Y36697345D01*
X125770000Y35869205D01*
X126598139Y36697345D01*
X126524005Y36943464D01*
X125986777Y37136565D01*
X125416546Y37109378D01*
X125015995Y36943464D01*
X124941861Y36697345D01*
X112106640Y36697345D01*
X111898923Y36905424D01*
X111371691Y37124350D01*
X110800813Y37124848D01*
X110746851Y37102551D01*
X106672001Y41177401D01*
X106425439Y41342148D01*
X106134600Y41400000D01*
X105981286Y41400000D01*
X106042073Y41460681D01*
X106375420Y42263470D01*
X106375423Y42267283D01*
X110793821Y42267283D01*
X111125767Y41463914D01*
X111739881Y40848727D01*
X112542670Y40515380D01*
X113411917Y40514621D01*
X114215286Y40846567D01*
X114830473Y41460681D01*
X115163820Y42263470D01*
X115163823Y42267283D01*
X121690421Y42267283D01*
X122022367Y41463914D01*
X122636481Y40848727D01*
X123439270Y40515380D01*
X124308517Y40514621D01*
X125111886Y40846567D01*
X125727073Y41460681D01*
X126060420Y42263470D01*
X126060423Y42267283D01*
X130478821Y42267283D01*
X130810767Y41463914D01*
X131424881Y40848727D01*
X132227670Y40515380D01*
X133096917Y40514621D01*
X133900286Y40846567D01*
X134515473Y41460681D01*
X134848820Y42263470D01*
X134848823Y42267283D01*
X141375421Y42267283D01*
X141707367Y41463914D01*
X142321481Y40848727D01*
X143124270Y40515380D01*
X143993517Y40514621D01*
X144796886Y40846567D01*
X145412073Y41460681D01*
X145745420Y42263470D01*
X145745423Y42267283D01*
X150163821Y42267283D01*
X150495767Y41463914D01*
X151109881Y40848727D01*
X151912670Y40515380D01*
X152781917Y40514621D01*
X153585286Y40846567D01*
X154200473Y41460681D01*
X154533820Y42263470D01*
X154534579Y43132717D01*
X154202633Y43936086D01*
X153588519Y44551273D01*
X152785730Y44884620D01*
X151916483Y44885379D01*
X151113114Y44553433D01*
X150497927Y43939319D01*
X150164580Y43136530D01*
X150163821Y42267283D01*
X145745423Y42267283D01*
X145746179Y43132717D01*
X145414233Y43936086D01*
X144800119Y44551273D01*
X143997330Y44884620D01*
X143128083Y44885379D01*
X142324714Y44553433D01*
X141709527Y43939319D01*
X141376180Y43136530D01*
X141375421Y42267283D01*
X134848823Y42267283D01*
X134849579Y43132717D01*
X134517633Y43936086D01*
X133903519Y44551273D01*
X133100730Y44884620D01*
X132231483Y44885379D01*
X131428114Y44553433D01*
X130812927Y43939319D01*
X130479580Y43136530D01*
X130478821Y42267283D01*
X126060423Y42267283D01*
X126061179Y43132717D01*
X125729233Y43936086D01*
X125115119Y44551273D01*
X124312330Y44884620D01*
X123443083Y44885379D01*
X122639714Y44553433D01*
X122024527Y43939319D01*
X121691180Y43136530D01*
X121690421Y42267283D01*
X115163823Y42267283D01*
X115164579Y43132717D01*
X114832633Y43936086D01*
X114218519Y44551273D01*
X113415730Y44884620D01*
X112546483Y44885379D01*
X111743114Y44553433D01*
X111127927Y43939319D01*
X110794580Y43136530D01*
X110793821Y42267283D01*
X106375423Y42267283D01*
X106376179Y43132717D01*
X106044233Y43936086D01*
X105430119Y44551273D01*
X104627330Y44884620D01*
X103758083Y44885379D01*
X102954714Y44553433D01*
X102339527Y43939319D01*
X102006180Y43136530D01*
X102005421Y42267283D01*
X102337367Y41463914D01*
X102401170Y41400000D01*
X101090000Y41400000D01*
X101090000Y43180000D01*
X101032148Y43470839D01*
X101032148Y43470840D01*
X100867401Y43717401D01*
X99597401Y44987401D01*
X99350839Y45152148D01*
X99060000Y45210000D01*
X97819202Y45210000D01*
X97528363Y45152148D01*
X97281801Y44987401D01*
X95464240Y43169840D01*
X95147633Y43936086D01*
X94533519Y44551273D01*
X93730730Y44884620D01*
X92861483Y44885379D01*
X92058114Y44553433D01*
X91442927Y43939319D01*
X91109580Y43136530D01*
X91108821Y42267283D01*
X91440767Y41463914D01*
X92054881Y40848727D01*
X92823831Y40529431D01*
X90862599Y38568199D01*
X90697852Y38321637D01*
X90640000Y38030798D01*
X90640000Y36928246D01*
X90588200Y36906843D01*
X90184176Y36503523D01*
X90150187Y36421669D01*
X90117243Y36501400D01*
X89713923Y36905424D01*
X89186691Y37124350D01*
X88615813Y37124848D01*
X88088200Y36906843D01*
X87684176Y36503523D01*
X87656577Y36437056D01*
X87653864Y36443605D01*
X87407745Y36517739D01*
X86579605Y35689600D01*
X86220395Y35689600D01*
X85392255Y36517739D01*
X85146136Y36443605D01*
X84953035Y35906377D01*
X73150189Y35906377D01*
X73150248Y35973787D01*
X72932243Y36501400D01*
X72736640Y36697345D01*
X85571861Y36697345D01*
X86400000Y35869205D01*
X87228139Y36697345D01*
X87154005Y36943464D01*
X86616777Y37136565D01*
X86046546Y37109378D01*
X85645995Y36943464D01*
X85571861Y36697345D01*
X72736640Y36697345D01*
X72528923Y36905424D01*
X72001691Y37124350D01*
X71430813Y37124848D01*
X71376851Y37102551D01*
X67937001Y40542401D01*
X67690439Y40707148D01*
X67399600Y40765000D01*
X65859479Y40765000D01*
X66056886Y40846567D01*
X66672073Y41460681D01*
X67005420Y42263470D01*
X67005423Y42267283D01*
X71423821Y42267283D01*
X71755767Y41463914D01*
X72369881Y40848727D01*
X73172670Y40515380D01*
X74041917Y40514621D01*
X74845286Y40846567D01*
X75460473Y41460681D01*
X75793820Y42263470D01*
X75793823Y42267283D01*
X82320421Y42267283D01*
X82652367Y41463914D01*
X83266481Y40848727D01*
X84069270Y40515380D01*
X84938517Y40514621D01*
X85741886Y40846567D01*
X86357073Y41460681D01*
X86690420Y42263470D01*
X86691179Y43132717D01*
X86359233Y43936086D01*
X85745119Y44551273D01*
X84942330Y44884620D01*
X84073083Y44885379D01*
X83269714Y44553433D01*
X82654527Y43939319D01*
X82321180Y43136530D01*
X82320421Y42267283D01*
X75793823Y42267283D01*
X75794579Y43132717D01*
X75462633Y43936086D01*
X74848519Y44551273D01*
X74510025Y44691828D01*
X77332538Y44691828D01*
X77737709Y43711239D01*
X78487293Y42960345D01*
X79467173Y42553464D01*
X80528172Y42552538D01*
X81508761Y42957709D01*
X82259655Y43707293D01*
X82666536Y44687173D01*
X82667462Y45748172D01*
X82262291Y46728761D01*
X81512707Y47479655D01*
X80532827Y47886536D01*
X79471828Y47887462D01*
X78491239Y47482291D01*
X77740345Y46732707D01*
X77333464Y45752827D01*
X77332538Y44691828D01*
X74510025Y44691828D01*
X74045730Y44884620D01*
X73176483Y44885379D01*
X72373114Y44553433D01*
X71757927Y43939319D01*
X71424580Y43136530D01*
X71423821Y42267283D01*
X67005423Y42267283D01*
X67006179Y43132717D01*
X66674233Y43936086D01*
X66060119Y44551273D01*
X65257330Y44884620D01*
X64388083Y44885379D01*
X63584714Y44553433D01*
X62969527Y43939319D01*
X62636180Y43136530D01*
X62635421Y42267283D01*
X62967367Y41463914D01*
X63581481Y40848727D01*
X63783118Y40765000D01*
X62792463Y40765000D01*
X62760327Y40797192D01*
X62416799Y40939838D01*
X62044833Y40940162D01*
X61701057Y40798117D01*
X61667882Y40765000D01*
X57077463Y40765000D01*
X57045327Y40797192D01*
X56701799Y40939838D01*
X56329833Y40940162D01*
X55986057Y40798117D01*
X55722808Y40535327D01*
X55580162Y40191799D01*
X55579838Y39819833D01*
X55721883Y39476057D01*
X55984673Y39212808D01*
X56328201Y39070162D01*
X56700167Y39069838D01*
X57043943Y39211883D01*
X57077118Y39245000D01*
X61667537Y39245000D01*
X61699673Y39212808D01*
X62043201Y39070162D01*
X62415167Y39069838D01*
X62758943Y39211883D01*
X62792118Y39245000D01*
X67084798Y39245000D01*
X69205189Y37124609D01*
X68930813Y37124848D01*
X68403200Y36906843D01*
X67999176Y36503523D01*
X67971577Y36437056D01*
X67968864Y36443605D01*
X67722745Y36517739D01*
X66894605Y35689600D01*
X67722745Y34861461D01*
X67968864Y34935595D01*
X67971196Y34942083D01*
X67997757Y34877800D01*
X68401077Y34473776D01*
X68542625Y34415000D01*
X67418944Y34415000D01*
X67469005Y34435736D01*
X67543139Y34681855D01*
X66715000Y35509995D01*
X65886861Y34681855D01*
X65960995Y34435736D01*
X66018685Y34415000D01*
X52702985Y34415000D01*
X52841800Y34472357D01*
X53245824Y34875677D01*
X53464750Y35402909D01*
X53465189Y35906377D01*
X65268035Y35906377D01*
X65295222Y35336146D01*
X65461136Y34935595D01*
X65707255Y34861461D01*
X66535395Y35689600D01*
X65707255Y36517739D01*
X65461136Y36443605D01*
X65268035Y35906377D01*
X53465189Y35906377D01*
X53465248Y35973787D01*
X53247243Y36501400D01*
X53051640Y36697345D01*
X65886861Y36697345D01*
X66715000Y35869205D01*
X67543139Y36697345D01*
X67469005Y36943464D01*
X66931777Y37136565D01*
X66361546Y37109378D01*
X65960995Y36943464D01*
X65886861Y36697345D01*
X53051640Y36697345D01*
X52843923Y36905424D01*
X52316691Y37124350D01*
X51745813Y37124848D01*
X51218200Y36906843D01*
X50814176Y36503523D01*
X50780187Y36421669D01*
X50747243Y36501400D01*
X50343923Y36905424D01*
X49816691Y37124350D01*
X49245813Y37124848D01*
X48718200Y36906843D01*
X48314176Y36503523D01*
X48286577Y36437056D01*
X48283864Y36443605D01*
X48037745Y36517739D01*
X47209605Y35689600D01*
X46850395Y35689600D01*
X46022255Y36517739D01*
X45776136Y36443605D01*
X45583035Y35906377D01*
X33780189Y35906377D01*
X33780248Y35973787D01*
X33562243Y36501400D01*
X33366640Y36697345D01*
X46201861Y36697345D01*
X47030000Y35869205D01*
X47858139Y36697345D01*
X47784005Y36943464D01*
X47246777Y37136565D01*
X46676546Y37109378D01*
X46275995Y36943464D01*
X46201861Y36697345D01*
X33366640Y36697345D01*
X33158923Y36905424D01*
X33105000Y36927815D01*
X33105000Y40805078D01*
X33802670Y40515380D01*
X34671917Y40514621D01*
X35475286Y40846567D01*
X36090473Y41460681D01*
X36423820Y42263470D01*
X36423823Y42267283D01*
X42950421Y42267283D01*
X43282367Y41463914D01*
X43896481Y40848727D01*
X44699270Y40515380D01*
X45568517Y40514621D01*
X46371886Y40846567D01*
X46987073Y41460681D01*
X47320420Y42263470D01*
X47321179Y43132717D01*
X46989233Y43936086D01*
X46375119Y44551273D01*
X45572330Y44884620D01*
X44703083Y44885379D01*
X43899714Y44553433D01*
X43284527Y43939319D01*
X42951180Y43136530D01*
X42950421Y42267283D01*
X36423823Y42267283D01*
X36424579Y43132717D01*
X36092633Y43936086D01*
X35478519Y44551273D01*
X34675730Y44884620D01*
X34529550Y44884748D01*
X39364643Y49719841D01*
X41009446Y49719841D01*
X41095852Y49463357D01*
X41669336Y49253542D01*
X42279460Y49279161D01*
X42724148Y49463357D01*
X42810554Y49719841D01*
X41910000Y50620395D01*
X41009446Y49719841D01*
X39364643Y49719841D01*
X40376515Y50731713D01*
X40389161Y50430540D01*
X40573357Y49985852D01*
X40829841Y49899446D01*
X41730395Y50800000D01*
X42089605Y50800000D01*
X42990159Y49899446D01*
X43246643Y49985852D01*
X43456458Y50559336D01*
X43430839Y51169460D01*
X43246643Y51614148D01*
X42990159Y51700554D01*
X42089605Y50800000D01*
X41730395Y50800000D01*
X41716253Y50814143D01*
X41895858Y50993748D01*
X41910000Y50979605D01*
X42810554Y51880159D01*
X42759965Y52030327D01*
X42778371Y52037932D01*
X43210551Y52469357D01*
X43444733Y53033330D01*
X43445265Y53643991D01*
X43212068Y54208371D01*
X42810818Y54610323D01*
X43094491Y54893499D01*
X53216310Y44771680D01*
X52688114Y44553433D01*
X52072927Y43939319D01*
X51739580Y43136530D01*
X51738821Y42267283D01*
X52070767Y41463914D01*
X52684881Y40848727D01*
X53487670Y40515380D01*
X54356917Y40514621D01*
X55160286Y40846567D01*
X55775473Y41460681D01*
X56108820Y42263470D01*
X56109579Y43132717D01*
X55879314Y43690000D01*
X61032537Y43690000D01*
X61064673Y43657808D01*
X61408201Y43515162D01*
X61780167Y43514838D01*
X62123943Y43656883D01*
X62387192Y43919673D01*
X62529838Y44263201D01*
X62529921Y44358549D01*
X62597147Y44459160D01*
X62654999Y44749999D01*
X62597147Y45040839D01*
X62432400Y45287400D01*
X62428777Y45289821D01*
X62529838Y45533201D01*
X62530162Y45905167D01*
X62388117Y46248943D01*
X62274271Y46362987D01*
X62405389Y46678752D01*
X62405713Y47050718D01*
X62263668Y47394494D01*
X62208683Y47449575D01*
X62539616Y47449287D01*
X62883392Y47591332D01*
X63146641Y47854122D01*
X63289287Y48197650D01*
X63289611Y48569616D01*
X63147566Y48913392D01*
X62990000Y49071233D01*
X62990000Y49719841D01*
X80379446Y49719841D01*
X80465852Y49463357D01*
X81039336Y49253542D01*
X81649460Y49279161D01*
X82094148Y49463357D01*
X82180554Y49719841D01*
X119749446Y49719841D01*
X119835852Y49463357D01*
X120409336Y49253542D01*
X121019460Y49279161D01*
X121464148Y49463357D01*
X121550554Y49719841D01*
X120650000Y50620395D01*
X119749446Y49719841D01*
X82180554Y49719841D01*
X81280000Y50620395D01*
X80379446Y49719841D01*
X62990000Y49719841D01*
X62990000Y50237537D01*
X63022192Y50269673D01*
X63164838Y50613201D01*
X63165162Y50985167D01*
X63023117Y51328943D01*
X62760327Y51592192D01*
X62416799Y51734838D01*
X62044833Y51735162D01*
X61701057Y51593117D01*
X61437808Y51330327D01*
X61295162Y50986799D01*
X61294838Y50614833D01*
X61436883Y50271057D01*
X61470000Y50237882D01*
X61470000Y48692598D01*
X61419611Y48571248D01*
X61419287Y48199282D01*
X61561332Y47855506D01*
X61616317Y47800425D01*
X61285384Y47800713D01*
X61162649Y47750000D01*
X57712463Y47750000D01*
X57680327Y47782192D01*
X57336799Y47924838D01*
X56964833Y47925162D01*
X56621057Y47783117D01*
X56357808Y47520327D01*
X56215162Y47176799D01*
X56214838Y46804833D01*
X56356883Y46461057D01*
X56462710Y46355046D01*
X56357808Y46250327D01*
X56215162Y45906799D01*
X56214838Y45534833D01*
X56349056Y45210000D01*
X54927594Y45210000D01*
X48445766Y51691828D01*
X51332538Y51691828D01*
X51737709Y50711239D01*
X52487293Y49960345D01*
X53467173Y49553464D01*
X54528172Y49552538D01*
X55508761Y49957709D01*
X56259655Y50707293D01*
X56666536Y51687173D01*
X56667462Y52748172D01*
X56262291Y53728761D01*
X55512707Y54479655D01*
X54532827Y54886536D01*
X53471828Y54887462D01*
X52491239Y54482291D01*
X51740345Y53732707D01*
X51333464Y52752827D01*
X51332538Y51691828D01*
X48445766Y51691828D01*
X44442761Y55694833D01*
X47959838Y55694833D01*
X48101883Y55351057D01*
X48364673Y55087808D01*
X48708201Y54945162D01*
X49080167Y54944838D01*
X49423943Y55086883D01*
X49457118Y55120000D01*
X56200198Y55120000D01*
X57484878Y53835320D01*
X57484838Y53789833D01*
X57626883Y53446057D01*
X57889673Y53182808D01*
X58233201Y53040162D01*
X58605167Y53039838D01*
X58948943Y53181883D01*
X59212192Y53444673D01*
X59354838Y53788201D01*
X59355162Y54160167D01*
X59213117Y54503943D01*
X58950327Y54767192D01*
X58606799Y54909838D01*
X58559923Y54909879D01*
X57052401Y56417401D01*
X56805839Y56582148D01*
X56515000Y56640000D01*
X49457463Y56640000D01*
X49425327Y56672192D01*
X49081799Y56814838D01*
X48709833Y56815162D01*
X48366057Y56673117D01*
X48102808Y56410327D01*
X47960162Y56066799D01*
X47959838Y55694833D01*
X44442761Y55694833D01*
X43720193Y56417401D01*
X43473631Y56582148D01*
X43263477Y56623951D01*
X43212068Y56748371D01*
X42810818Y57150323D01*
X43210551Y57549357D01*
X43444733Y58113330D01*
X43445122Y58559999D01*
X55935199Y58559999D01*
X63199878Y51295320D01*
X63199838Y51249833D01*
X63341883Y50906057D01*
X63604673Y50642808D01*
X63948201Y50500162D01*
X64320167Y50499838D01*
X64663943Y50641883D01*
X64927192Y50904673D01*
X64983660Y51040664D01*
X79733542Y51040664D01*
X79759161Y50430540D01*
X79943357Y49985852D01*
X80199841Y49899446D01*
X81100395Y50800000D01*
X80199841Y51700554D01*
X79943357Y51614148D01*
X79733542Y51040664D01*
X64983660Y51040664D01*
X65069838Y51248201D01*
X65070162Y51620167D01*
X64928117Y51963943D01*
X64665327Y52227192D01*
X64321799Y52369838D01*
X64274923Y52369879D01*
X57109802Y59535000D01*
X80224234Y59535000D01*
X79979449Y59290643D01*
X79745267Y58726670D01*
X79744735Y58116009D01*
X79977932Y57551629D01*
X80379182Y57149677D01*
X79979449Y56750643D01*
X79745267Y56186670D01*
X79744735Y55576009D01*
X79977932Y55011629D01*
X80379182Y54609677D01*
X79979449Y54210643D01*
X79745267Y53646670D01*
X79744735Y53036009D01*
X79977932Y52471629D01*
X80409357Y52039449D01*
X80430194Y52030797D01*
X80379446Y51880159D01*
X81280000Y50979605D01*
X81294143Y50993748D01*
X81473748Y50814143D01*
X81459605Y50800000D01*
X82360159Y49899446D01*
X82616643Y49985852D01*
X82826458Y50559336D01*
X82819471Y50725727D01*
X83282599Y50262599D01*
X83529160Y50097852D01*
X83577414Y50088254D01*
X83820000Y50040000D01*
X87067537Y50040000D01*
X87099673Y50007808D01*
X87443201Y49865162D01*
X87815167Y49864838D01*
X88158943Y50006883D01*
X88422192Y50269673D01*
X88564838Y50613201D01*
X88565162Y50985167D01*
X88542232Y51040664D01*
X119103542Y51040664D01*
X119129161Y50430540D01*
X119313357Y49985852D01*
X119569841Y49899446D01*
X120470395Y50800000D01*
X120829605Y50800000D01*
X121730159Y49899446D01*
X121986643Y49985852D01*
X122196458Y50559336D01*
X122170839Y51169460D01*
X121986643Y51614148D01*
X121756061Y51691828D01*
X153832538Y51691828D01*
X154237709Y50711239D01*
X154987293Y49960345D01*
X155967173Y49553464D01*
X157028172Y49552538D01*
X158008761Y49957709D01*
X158759655Y50707293D01*
X159166536Y51687173D01*
X159167462Y52748172D01*
X158762291Y53728761D01*
X158012707Y54479655D01*
X157032827Y54886536D01*
X155971828Y54887462D01*
X154991239Y54482291D01*
X154240345Y53732707D01*
X153833464Y52752827D01*
X153832538Y51691828D01*
X121756061Y51691828D01*
X121730159Y51700554D01*
X120829605Y50800000D01*
X120470395Y50800000D01*
X119569841Y51700554D01*
X119313357Y51614148D01*
X119103542Y51040664D01*
X88542232Y51040664D01*
X88423117Y51328943D01*
X88160327Y51592192D01*
X87816799Y51734838D01*
X87444833Y51735162D01*
X87101057Y51593117D01*
X87067882Y51560000D01*
X84134802Y51560000D01*
X83114802Y52580000D01*
X83820000Y52580000D01*
X84110839Y52637852D01*
X84357401Y52802599D01*
X87769680Y56214878D01*
X87815167Y56214838D01*
X88158943Y56356883D01*
X88422192Y56619673D01*
X88564838Y56963201D01*
X88565162Y57335167D01*
X88423117Y57678943D01*
X88160327Y57942192D01*
X87816799Y58084838D01*
X87444833Y58085162D01*
X87101057Y57943117D01*
X86837808Y57680327D01*
X86695162Y57336799D01*
X86695121Y57289923D01*
X83505198Y54100000D01*
X82626846Y54100000D01*
X82582068Y54208371D01*
X82180818Y54610323D01*
X82580551Y55009357D01*
X82814733Y55573330D01*
X82815265Y56183991D01*
X82582068Y56748371D01*
X82180818Y57150323D01*
X82580551Y57549357D01*
X82814733Y58113330D01*
X82815265Y58723991D01*
X82582068Y59288371D01*
X82335870Y59535000D01*
X119594234Y59535000D01*
X119349449Y59290643D01*
X119115267Y58726670D01*
X119114735Y58116009D01*
X119347932Y57551629D01*
X119749182Y57149677D01*
X119349449Y56750643D01*
X119115267Y56186670D01*
X119114735Y55576009D01*
X119347932Y55011629D01*
X119749182Y54609677D01*
X119349449Y54210643D01*
X119115267Y53646670D01*
X119114735Y53036009D01*
X119347932Y52471629D01*
X119779357Y52039449D01*
X119800194Y52030797D01*
X119749446Y51880159D01*
X120650000Y50979605D01*
X121550554Y51880159D01*
X121499965Y52030327D01*
X121518371Y52037932D01*
X121950551Y52469357D01*
X122184733Y53033330D01*
X122185265Y53643991D01*
X121952068Y54208371D01*
X121550818Y54610323D01*
X121950551Y55009357D01*
X122184733Y55573330D01*
X122185265Y56183991D01*
X121952068Y56748371D01*
X121550818Y57150323D01*
X121950551Y57549357D01*
X122184733Y58113330D01*
X122185265Y58723991D01*
X121952068Y59288371D01*
X121705870Y59535000D01*
X159315000Y59535000D01*
X159315000Y-14555000D01*
X126467424Y-14555000D01*
X126522192Y-14500327D01*
X126664838Y-14156799D01*
X126664879Y-14109923D01*
X126902401Y-13872401D01*
X127067148Y-13625839D01*
X127125000Y-13335000D01*
X127125000Y-6277463D01*
X127157192Y-6245327D01*
X127299838Y-5901799D01*
X127300162Y-5529833D01*
X127158117Y-5186057D01*
X126895327Y-4922808D01*
X126551799Y-4780162D01*
X126179833Y-4779838D01*
X125836057Y-4921883D01*
X125572808Y-5184673D01*
X125448378Y-5484332D01*
X125281799Y-5415162D01*
X124909833Y-5414838D01*
X124566057Y-5556883D01*
X124302808Y-5819673D01*
X124160162Y-6163201D01*
X124159838Y-6535167D01*
X124301883Y-6878943D01*
X124335000Y-6912118D01*
X124335000Y-12385198D01*
X124320320Y-12399878D01*
X124274833Y-12399838D01*
X123931057Y-12541883D01*
X123667808Y-12804673D01*
X123525162Y-13148201D01*
X123524838Y-13520167D01*
X123666883Y-13863943D01*
X123929673Y-14127192D01*
X124273201Y-14269838D01*
X124645167Y-14270162D01*
X124813597Y-14200568D01*
X124936883Y-14498943D01*
X124992842Y-14555000D01*
X685000Y-14555000D01*
X685000Y-7805167D01*
X119714838Y-7805167D01*
X119856883Y-8148943D01*
X119890000Y-8182118D01*
X119890000Y-10232537D01*
X119857808Y-10264673D01*
X119715162Y-10608201D01*
X119714838Y-10980167D01*
X119856883Y-11323943D01*
X120119673Y-11587192D01*
X120463201Y-11729838D01*
X120835167Y-11730162D01*
X121178943Y-11588117D01*
X121442192Y-11325327D01*
X121584838Y-10981799D01*
X121585162Y-10609833D01*
X121443117Y-10266057D01*
X121410000Y-10232882D01*
X121410000Y-8182463D01*
X121442192Y-8150327D01*
X121584838Y-7806799D01*
X121585162Y-7434833D01*
X121475805Y-7170167D01*
X122254838Y-7170167D01*
X122396883Y-7513943D01*
X122430000Y-7547118D01*
X122430000Y-10867537D01*
X122397808Y-10899673D01*
X122255162Y-11243201D01*
X122254838Y-11615167D01*
X122396883Y-11958943D01*
X122659673Y-12222192D01*
X123003201Y-12364838D01*
X123375167Y-12365162D01*
X123718943Y-12223117D01*
X123982192Y-11960327D01*
X124124838Y-11616799D01*
X124125162Y-11244833D01*
X123983117Y-10901057D01*
X123950000Y-10867882D01*
X123950000Y-7547463D01*
X123982192Y-7515327D01*
X124124838Y-7171799D01*
X124125162Y-6799833D01*
X123983117Y-6456057D01*
X123720327Y-6192808D01*
X123376799Y-6050162D01*
X123004833Y-6049838D01*
X122661057Y-6191883D01*
X122397808Y-6454673D01*
X122255162Y-6798201D01*
X122254838Y-7170167D01*
X121475805Y-7170167D01*
X121443117Y-7091057D01*
X121180327Y-6827808D01*
X120836799Y-6685162D01*
X120464833Y-6684838D01*
X120121057Y-6826883D01*
X119857808Y-7089673D01*
X119715162Y-7433201D01*
X119714838Y-7805167D01*
X685000Y-7805167D01*
X685000Y2471828D01*
X832538Y2471828D01*
X1237709Y1491239D01*
X1987293Y740345D01*
X2967173Y333464D01*
X4028172Y332538D01*
X5008761Y737709D01*
X5759655Y1487293D01*
X6166536Y2467173D01*
X6166540Y2471828D01*
X41332538Y2471828D01*
X41737709Y1491239D01*
X42487293Y740345D01*
X43467173Y333464D01*
X44528172Y332538D01*
X45508761Y737709D01*
X46259655Y1487293D01*
X46666536Y2467173D01*
X46667462Y3528172D01*
X46262291Y4508761D01*
X45512707Y5259655D01*
X44532827Y5666536D01*
X43471828Y5667462D01*
X42491239Y5262291D01*
X41740345Y4512707D01*
X41333464Y3532827D01*
X41332538Y2471828D01*
X6166540Y2471828D01*
X6167462Y3528172D01*
X5762291Y4508761D01*
X5012707Y5259655D01*
X4032827Y5666536D01*
X2971828Y5667462D01*
X1991239Y5262291D01*
X1240345Y4512707D01*
X833464Y3532827D01*
X832538Y2471828D01*
X685000Y2471828D01*
X685000Y9146195D01*
X10398300Y9146195D01*
X10480241Y8893484D01*
X11040530Y8689752D01*
X11636135Y8715942D01*
X12064759Y8893484D01*
X12146700Y9146195D01*
X11272500Y10020395D01*
X10398300Y9146195D01*
X685000Y9146195D01*
X685000Y10431970D01*
X9762252Y10431970D01*
X9788442Y9836365D01*
X9965984Y9407741D01*
X10218695Y9325800D01*
X11092895Y10200000D01*
X11452105Y10200000D01*
X12326305Y9325800D01*
X12579016Y9407741D01*
X12782748Y9968030D01*
X12756558Y10563635D01*
X12579016Y10992259D01*
X12326305Y11074200D01*
X11452105Y10200000D01*
X11092895Y10200000D01*
X10218695Y11074200D01*
X9965984Y10992259D01*
X9762252Y10431970D01*
X685000Y10431970D01*
X685000Y21691828D01*
X832538Y21691828D01*
X1237709Y20711239D01*
X1987293Y19960345D01*
X2967173Y19553464D01*
X4028172Y19552538D01*
X5008761Y19957709D01*
X5759655Y20707293D01*
X6166536Y21687173D01*
X6167462Y22748172D01*
X5762291Y23728761D01*
X5012707Y24479655D01*
X4032827Y24886536D01*
X2971828Y24887462D01*
X1991239Y24482291D01*
X1240345Y23732707D01*
X833464Y22752827D01*
X832538Y21691828D01*
X685000Y21691828D01*
X685000Y31691828D01*
X832538Y31691828D01*
X1237709Y30711239D01*
X1987293Y29960345D01*
X2967173Y29553464D01*
X4028172Y29552538D01*
X5008761Y29957709D01*
X5759655Y30707293D01*
X6166536Y31687173D01*
X6167462Y32748172D01*
X5762291Y33728761D01*
X5012707Y34479655D01*
X4525755Y34681855D01*
X6831861Y34681855D01*
X6905995Y34435736D01*
X7443223Y34242635D01*
X8013454Y34269822D01*
X8414005Y34435736D01*
X8488139Y34681855D01*
X7660000Y35509995D01*
X6831861Y34681855D01*
X4525755Y34681855D01*
X4032827Y34886536D01*
X2971828Y34887462D01*
X1991239Y34482291D01*
X1240345Y33732707D01*
X833464Y32752827D01*
X832538Y31691828D01*
X685000Y31691828D01*
X685000Y35906377D01*
X6213035Y35906377D01*
X6240222Y35336146D01*
X6406136Y34935595D01*
X6652255Y34861461D01*
X7480395Y35689600D01*
X7839605Y35689600D01*
X8667745Y34861461D01*
X8913864Y34935595D01*
X8916196Y34942083D01*
X8942757Y34877800D01*
X9346077Y34473776D01*
X9873309Y34254850D01*
X10444187Y34254352D01*
X10512500Y34282578D01*
X10512500Y16507462D01*
X10424720Y16471192D01*
X10002790Y16049997D01*
X9774161Y15499398D01*
X9773641Y14903218D01*
X10001308Y14352220D01*
X10403159Y13949668D01*
X10002790Y13549997D01*
X9774161Y12999398D01*
X9773641Y12403218D01*
X10001308Y11852220D01*
X10422503Y11430290D01*
X10451606Y11418205D01*
X10398300Y11253805D01*
X11272500Y10379605D01*
X12146700Y11253805D01*
X12093538Y11417759D01*
X12120280Y11428808D01*
X12542210Y11850003D01*
X12770839Y12400602D01*
X12771359Y12996782D01*
X12543692Y13547780D01*
X12141841Y13950332D01*
X12542210Y14350003D01*
X12770839Y14900602D01*
X12771359Y15496782D01*
X12543692Y16047780D01*
X12122497Y16469710D01*
X12032500Y16507080D01*
X12032500Y17089200D01*
X13371726Y18428426D01*
X13530781Y18043485D01*
X14018418Y17554996D01*
X14655873Y17290301D01*
X14859971Y17290123D01*
X14567837Y16586584D01*
X14567165Y15816793D01*
X14861130Y15105342D01*
X15404979Y14560543D01*
X16115916Y14265337D01*
X16885707Y14264665D01*
X17597158Y14558630D01*
X18141957Y15102479D01*
X18437163Y15813416D01*
X18437425Y16113492D01*
X18488368Y15990200D01*
X18990059Y15487633D01*
X19418450Y15309750D01*
X18511842Y14935147D01*
X17769958Y14194557D01*
X17367958Y13226433D01*
X17367043Y12178166D01*
X17767353Y11209342D01*
X18507943Y10467458D01*
X19417647Y10089716D01*
X18992700Y9914132D01*
X18490133Y9412441D01*
X18437575Y9285868D01*
X18437835Y9583207D01*
X18143870Y10294658D01*
X17600021Y10839457D01*
X16889084Y11134663D01*
X16119293Y11135335D01*
X15407842Y10841370D01*
X14863043Y10297521D01*
X14567837Y9586584D01*
X14567165Y8816793D01*
X14859153Y8110126D01*
X14658901Y8110301D01*
X14020985Y7846719D01*
X13532496Y7359082D01*
X13267801Y6721627D01*
X13267199Y6031401D01*
X13530781Y5393485D01*
X14018418Y4904996D01*
X14655873Y4640301D01*
X15346099Y4639699D01*
X15984015Y4903281D01*
X16472504Y5390918D01*
X16737199Y6028373D01*
X16737801Y6718599D01*
X16512036Y7264991D01*
X16885707Y7264665D01*
X17597158Y7558630D01*
X18141957Y8102479D01*
X18217399Y8284163D01*
X18217191Y8046499D01*
X18488368Y7390200D01*
X18990059Y6887633D01*
X19645884Y6615311D01*
X20356001Y6614691D01*
X21012300Y6885868D01*
X21514867Y7387559D01*
X21787189Y8043384D01*
X21787399Y8283785D01*
X21861130Y8105342D01*
X22404979Y7560543D01*
X23115916Y7265337D01*
X23493433Y7265007D01*
X23267801Y6721627D01*
X23267199Y6031401D01*
X23530781Y5393485D01*
X24018418Y4904996D01*
X24655873Y4640301D01*
X25346099Y4639699D01*
X25984015Y4903281D01*
X26472504Y5390918D01*
X26737199Y6028373D01*
X26737801Y6718599D01*
X26474219Y7356515D01*
X25986582Y7845004D01*
X25925014Y7870569D01*
X26129961Y7878648D01*
X26596708Y8071981D01*
X26689245Y8333650D01*
X25752500Y9270395D01*
X25738358Y9256253D01*
X25558753Y9435858D01*
X25572895Y9450000D01*
X25558753Y9464143D01*
X25738358Y9643748D01*
X25752500Y9629605D01*
X25766643Y9643748D01*
X25946248Y9464143D01*
X25932105Y9450000D01*
X26868850Y8513255D01*
X27130519Y8605792D01*
X27348688Y9197398D01*
X27323852Y9827461D01*
X27130519Y10294208D01*
X26868852Y10386744D01*
X26983266Y10501158D01*
X26915504Y10568920D01*
X27526013Y10315415D01*
X28474825Y10314587D01*
X29157804Y10596788D01*
X28909586Y10349003D01*
X28667776Y9766659D01*
X28667225Y9136107D01*
X28908019Y8553343D01*
X29353497Y8107086D01*
X29935841Y7865276D01*
X30566393Y7864725D01*
X31149157Y8105519D01*
X31595414Y8550997D01*
X31837224Y9133341D01*
X31837775Y9763893D01*
X31596981Y10346657D01*
X31151503Y10792914D01*
X30569159Y11034724D01*
X29938607Y11035275D01*
X29549768Y10874609D01*
X30023226Y11347242D01*
X30387085Y12223513D01*
X30387913Y13172325D01*
X30025584Y14049229D01*
X29550261Y14525383D01*
X29935841Y14365276D01*
X30566393Y14364725D01*
X31149157Y14605519D01*
X31595414Y15050997D01*
X31837224Y15633341D01*
X31837775Y16263893D01*
X31596981Y16846657D01*
X31151503Y17292914D01*
X30569159Y17534724D01*
X29938607Y17535275D01*
X29355843Y17294481D01*
X28909586Y16849003D01*
X28667776Y16266659D01*
X28667225Y15636107D01*
X28908019Y15053343D01*
X29158495Y14802429D01*
X28478987Y15084585D01*
X27530175Y15085413D01*
X26916111Y14831687D01*
X26983266Y14898842D01*
X26868852Y15013256D01*
X27130519Y15105792D01*
X27348688Y15697398D01*
X27323852Y16327461D01*
X27130519Y16794208D01*
X26868850Y16886745D01*
X25932105Y15950000D01*
X25946248Y15935858D01*
X25766643Y15756253D01*
X25752500Y15770395D01*
X25738358Y15756253D01*
X25558753Y15935858D01*
X25572895Y15950000D01*
X25558753Y15964143D01*
X25738358Y16143748D01*
X25752500Y16129605D01*
X26689245Y17066350D01*
X26596708Y17328019D01*
X26005102Y17546188D01*
X25962814Y17544521D01*
X25984015Y17553281D01*
X26472504Y18040918D01*
X26737199Y18678373D01*
X26737801Y19368599D01*
X26474219Y20006515D01*
X25986582Y20495004D01*
X25565146Y20670000D01*
X40986836Y20670000D01*
X46994236Y14662599D01*
X47077318Y14607086D01*
X47240799Y14497852D01*
X47531638Y14440000D01*
X48843800Y14440000D01*
X48751751Y14302238D01*
X48693899Y14011399D01*
X48693899Y3886101D01*
X48751751Y3595262D01*
X48916498Y3348700D01*
X50608084Y1657114D01*
X50571661Y1569398D01*
X50571141Y973218D01*
X50798808Y422220D01*
X51220003Y290D01*
X51770602Y-228339D01*
X52366782Y-228859D01*
X52917780Y-1192D01*
X53339710Y420003D01*
X53340095Y420931D01*
X53760003Y290D01*
X54310602Y-228339D01*
X54906782Y-228859D01*
X55457780Y-1192D01*
X55879710Y420003D01*
X55880095Y420931D01*
X56300003Y290D01*
X56850602Y-228339D01*
X57446782Y-228859D01*
X57536844Y-191646D01*
X60422599Y-3077401D01*
X60669161Y-3242148D01*
X60960000Y-3300000D01*
X71589367Y-3300000D01*
X71455162Y-3623201D01*
X71454838Y-3995167D01*
X71596883Y-4338943D01*
X71859673Y-4602192D01*
X72203201Y-4744838D01*
X72575167Y-4745162D01*
X72918943Y-4603117D01*
X72952118Y-4570000D01*
X75637537Y-4570000D01*
X75669673Y-4602192D01*
X76013201Y-4744838D01*
X76385167Y-4745162D01*
X76728943Y-4603117D01*
X76992192Y-4340327D01*
X77134838Y-3996799D01*
X77135162Y-3624833D01*
X77000944Y-3300000D01*
X83257537Y-3300000D01*
X83289673Y-3332192D01*
X83633201Y-3474838D01*
X84005167Y-3475162D01*
X84348943Y-3333117D01*
X84612192Y-3070327D01*
X84754838Y-2726799D01*
X84754892Y-2665000D01*
X94052537Y-2665000D01*
X94084673Y-2697192D01*
X94428201Y-2839838D01*
X94800167Y-2840162D01*
X95143943Y-2698117D01*
X95407192Y-2435327D01*
X95549838Y-2091799D01*
X95549892Y-2030000D01*
X95957537Y-2030000D01*
X95989673Y-2062192D01*
X96333201Y-2204838D01*
X96705167Y-2205162D01*
X97048943Y-2063117D01*
X97278829Y-1833631D01*
X99154388Y-3709190D01*
X99400949Y-3873937D01*
X99691789Y-3931789D01*
X102624312Y-3931789D01*
X102915151Y-3873937D01*
X103015524Y-3806870D01*
X103109478Y-3806952D01*
X103453254Y-3664907D01*
X103716503Y-3402117D01*
X103725557Y-3380312D01*
X103953201Y-3474838D01*
X104325167Y-3475162D01*
X104668943Y-3333117D01*
X104932192Y-3070327D01*
X105074838Y-2726799D01*
X105075162Y-2354833D01*
X104933117Y-2011057D01*
X104670327Y-1747808D01*
X104326799Y-1605162D01*
X104279923Y-1605121D01*
X104244894Y-1570092D01*
X104325167Y-1570162D01*
X104507362Y-1494881D01*
X104696826Y-1684676D01*
X105040354Y-1827322D01*
X105412320Y-1827646D01*
X105756096Y-1685601D01*
X105789271Y-1652484D01*
X108312450Y-1652484D01*
X108285162Y-1718201D01*
X108284838Y-2090167D01*
X108426883Y-2433943D01*
X108689673Y-2697192D01*
X109033201Y-2839838D01*
X109405167Y-2840162D01*
X109748943Y-2698117D01*
X109782118Y-2665000D01*
X112467537Y-2665000D01*
X112499673Y-2697192D01*
X112843201Y-2839838D01*
X113215167Y-2840162D01*
X113558943Y-2698117D01*
X113822192Y-2435327D01*
X113964838Y-2091799D01*
X113965162Y-1719833D01*
X113823117Y-1376057D01*
X113560327Y-1112808D01*
X113216799Y-970162D01*
X112844833Y-969838D01*
X112501057Y-1111883D01*
X112467882Y-1145000D01*
X111689802Y-1145000D01*
X112642886Y-191916D01*
X112730602Y-228339D01*
X113326782Y-228859D01*
X113877780Y-1192D01*
X114299710Y420003D01*
X114300095Y420931D01*
X114720003Y290D01*
X115270602Y-228339D01*
X115866782Y-228859D01*
X116417780Y-1192D01*
X116839710Y420003D01*
X116840095Y420931D01*
X117260003Y290D01*
X117810602Y-228339D01*
X118406782Y-228859D01*
X118957780Y-1192D01*
X119175546Y216195D01*
X119775800Y216195D01*
X119857741Y-36516D01*
X120418030Y-240248D01*
X121013635Y-214058D01*
X121442259Y-36516D01*
X121524200Y216195D01*
X120650000Y1090395D01*
X119775800Y216195D01*
X119175546Y216195D01*
X119379710Y420003D01*
X119396541Y460537D01*
X119596195Y395800D01*
X120470395Y1270000D01*
X120829605Y1270000D01*
X121703805Y395800D01*
X121903033Y460399D01*
X121918808Y422220D01*
X122340003Y290D01*
X122890602Y-228339D01*
X123486782Y-228859D01*
X124037780Y-1192D01*
X124459710Y420003D01*
X124460095Y420931D01*
X124880003Y290D01*
X125430602Y-228339D01*
X126026782Y-228859D01*
X126577780Y-1192D01*
X126999710Y420003D01*
X127000095Y420931D01*
X127420003Y290D01*
X127970602Y-228339D01*
X128566782Y-228859D01*
X129117780Y-1192D01*
X129335546Y216195D01*
X129935800Y216195D01*
X130017741Y-36516D01*
X130578030Y-240248D01*
X131173635Y-214058D01*
X131602259Y-36516D01*
X131684200Y216195D01*
X132475800Y216195D01*
X132557741Y-36516D01*
X133118030Y-240248D01*
X133713635Y-214058D01*
X134142259Y-36516D01*
X134224200Y216195D01*
X133350000Y1090395D01*
X132475800Y216195D01*
X131684200Y216195D01*
X130810000Y1090395D01*
X129935800Y216195D01*
X129335546Y216195D01*
X129539710Y420003D01*
X129556541Y460537D01*
X129756195Y395800D01*
X130630395Y1270000D01*
X130989605Y1270000D01*
X131863805Y395800D01*
X132080000Y465901D01*
X132296195Y395800D01*
X133170395Y1270000D01*
X133529605Y1270000D01*
X134403805Y395800D01*
X134603033Y460399D01*
X134618808Y422220D01*
X135040003Y290D01*
X135590602Y-228339D01*
X136186782Y-228859D01*
X136737780Y-1192D01*
X137159710Y420003D01*
X137160095Y420931D01*
X137580003Y290D01*
X138130602Y-228339D01*
X138726782Y-228859D01*
X139277780Y-1192D01*
X139699710Y420003D01*
X139700095Y420931D01*
X140120003Y290D01*
X140670602Y-228339D01*
X141266782Y-228859D01*
X141817780Y-1192D01*
X142239710Y420003D01*
X142240095Y420931D01*
X142660003Y290D01*
X143210602Y-228339D01*
X143806782Y-228859D01*
X144357780Y-1192D01*
X144779710Y420003D01*
X144780095Y420931D01*
X145200003Y290D01*
X145750602Y-228339D01*
X146346782Y-228859D01*
X146897780Y-1192D01*
X147319710Y420003D01*
X147320095Y420931D01*
X147740003Y290D01*
X148290602Y-228339D01*
X148886782Y-228859D01*
X149437780Y-1192D01*
X149859710Y420003D01*
X149860095Y420931D01*
X150280003Y290D01*
X150830602Y-228339D01*
X151426782Y-228859D01*
X151977780Y-1192D01*
X152399710Y420003D01*
X152628339Y970602D01*
X152628859Y1566782D01*
X152401192Y2117780D01*
X152047761Y2471828D01*
X153832538Y2471828D01*
X154237709Y1491239D01*
X154987293Y740345D01*
X155967173Y333464D01*
X157028172Y332538D01*
X158008761Y737709D01*
X158759655Y1487293D01*
X159166536Y2467173D01*
X159167462Y3528172D01*
X158762291Y4508761D01*
X158012707Y5259655D01*
X157032827Y5666536D01*
X155971828Y5667462D01*
X154991239Y5262291D01*
X154240345Y4512707D01*
X153833464Y3532827D01*
X153832538Y2471828D01*
X152047761Y2471828D01*
X151979997Y2539710D01*
X151429398Y2768339D01*
X150833218Y2768859D01*
X150282220Y2541192D01*
X149860290Y2119997D01*
X149859905Y2119069D01*
X149439997Y2539710D01*
X148889398Y2768339D01*
X148293218Y2768859D01*
X147742220Y2541192D01*
X147320290Y2119997D01*
X147319905Y2119069D01*
X146899997Y2539710D01*
X146349398Y2768339D01*
X145753218Y2768859D01*
X145202220Y2541192D01*
X144780290Y2119997D01*
X144779905Y2119069D01*
X144359997Y2539710D01*
X143809398Y2768339D01*
X143213218Y2768859D01*
X142662220Y2541192D01*
X142240290Y2119997D01*
X142239905Y2119069D01*
X141819997Y2539710D01*
X141269398Y2768339D01*
X140673218Y2768859D01*
X140122220Y2541192D01*
X139700290Y2119997D01*
X139699905Y2119069D01*
X139279997Y2539710D01*
X138729398Y2768339D01*
X138133218Y2768859D01*
X137582220Y2541192D01*
X137160290Y2119997D01*
X137159905Y2119069D01*
X136739997Y2539710D01*
X136189398Y2768339D01*
X135593218Y2768859D01*
X135042220Y2541192D01*
X134620290Y2119997D01*
X134603459Y2079463D01*
X134403805Y2144200D01*
X133529605Y1270000D01*
X133170395Y1270000D01*
X132296195Y2144200D01*
X132080000Y2074099D01*
X131863805Y2144200D01*
X130989605Y1270000D01*
X130630395Y1270000D01*
X129756195Y2144200D01*
X129556967Y2079601D01*
X129541192Y2117780D01*
X129335526Y2323805D01*
X129935800Y2323805D01*
X130810000Y1449605D01*
X131684200Y2323805D01*
X132475800Y2323805D01*
X133350000Y1449605D01*
X134224200Y2323805D01*
X134142259Y2576516D01*
X133581970Y2780248D01*
X132986365Y2754058D01*
X132557741Y2576516D01*
X132475800Y2323805D01*
X131684200Y2323805D01*
X131602259Y2576516D01*
X131041970Y2780248D01*
X130446365Y2754058D01*
X130017741Y2576516D01*
X129935800Y2323805D01*
X129335526Y2323805D01*
X129119997Y2539710D01*
X128569398Y2768339D01*
X127973218Y2768859D01*
X127422220Y2541192D01*
X127000290Y2119997D01*
X126999905Y2119069D01*
X126579997Y2539710D01*
X126029398Y2768339D01*
X125433218Y2768859D01*
X124882220Y2541192D01*
X124460290Y2119997D01*
X124459905Y2119069D01*
X124039997Y2539710D01*
X123489398Y2768339D01*
X122893218Y2768859D01*
X122342220Y2541192D01*
X121920290Y2119997D01*
X121903459Y2079463D01*
X121703805Y2144200D01*
X120829605Y1270000D01*
X120470395Y1270000D01*
X119596195Y2144200D01*
X119396967Y2079601D01*
X119381192Y2117780D01*
X119175526Y2323805D01*
X119775800Y2323805D01*
X120650000Y1449605D01*
X121524200Y2323805D01*
X121442259Y2576516D01*
X120881970Y2780248D01*
X120286365Y2754058D01*
X119857741Y2576516D01*
X119775800Y2323805D01*
X119175526Y2323805D01*
X118959997Y2539710D01*
X118409398Y2768339D01*
X117813218Y2768859D01*
X117262220Y2541192D01*
X116840290Y2119997D01*
X116839905Y2119069D01*
X116419997Y2539710D01*
X115869398Y2768339D01*
X115559939Y2768609D01*
X115637148Y2884161D01*
X115695000Y3175000D01*
X115695000Y9146195D01*
X128508300Y9146195D01*
X128590241Y8893484D01*
X129150530Y8689752D01*
X129746135Y8715942D01*
X130174759Y8893484D01*
X130256700Y9146195D01*
X129382500Y10020395D01*
X128508300Y9146195D01*
X115695000Y9146195D01*
X115695000Y10431970D01*
X127872252Y10431970D01*
X127898442Y9836365D01*
X128075984Y9407741D01*
X128328695Y9325800D01*
X129202895Y10200000D01*
X129562105Y10200000D01*
X130436305Y9325800D01*
X130689016Y9407741D01*
X130892748Y9968030D01*
X130866558Y10563635D01*
X130689016Y10992259D01*
X130436305Y11074200D01*
X129562105Y10200000D01*
X129202895Y10200000D01*
X128328695Y11074200D01*
X128075984Y10992259D01*
X127872252Y10431970D01*
X115695000Y10431970D01*
X115695000Y11627537D01*
X115727192Y11659673D01*
X115869838Y12003201D01*
X115870162Y12375167D01*
X115728117Y12718943D01*
X115465327Y12982192D01*
X115209939Y13088239D01*
X115234838Y13148201D01*
X115235162Y13520167D01*
X115100944Y13845000D01*
X115255198Y13845000D01*
X116937599Y12162599D01*
X117184161Y11997852D01*
X117475000Y11940000D01*
X121992537Y11940000D01*
X122024673Y11907808D01*
X122368201Y11765162D01*
X122740167Y11764838D01*
X123083943Y11906883D01*
X123117118Y11940000D01*
X125661186Y11940000D01*
X125952025Y11997852D01*
X126198587Y12162599D01*
X128249637Y14213649D01*
X128513159Y13949668D01*
X128112790Y13549997D01*
X127884161Y12999398D01*
X127883641Y12403218D01*
X128111308Y11852220D01*
X128532503Y11430290D01*
X128561606Y11418205D01*
X128508300Y11253805D01*
X129382500Y10379605D01*
X130256700Y11253805D01*
X130203538Y11417759D01*
X130230280Y11428808D01*
X130652210Y11850003D01*
X130880839Y12400602D01*
X130881359Y12996782D01*
X130653692Y13547780D01*
X130251841Y13950332D01*
X130652210Y14350003D01*
X130880839Y14900602D01*
X130881359Y15496782D01*
X130653692Y16047780D01*
X130232497Y16469710D01*
X129681898Y16698339D01*
X129085718Y16698859D01*
X128534720Y16471192D01*
X128112790Y16049997D01*
X128067698Y15941404D01*
X127870347Y15902148D01*
X127623785Y15737401D01*
X125346384Y13460000D01*
X123117463Y13460000D01*
X123085327Y13492192D01*
X122741799Y13634838D01*
X122369833Y13635162D01*
X122026057Y13493117D01*
X121992882Y13460000D01*
X117789802Y13460000D01*
X116107401Y15142401D01*
X115860839Y15307148D01*
X115570000Y15365000D01*
X113965110Y15365000D01*
X113965162Y15425167D01*
X113823117Y15768943D01*
X113560327Y16032192D01*
X113216799Y16174838D01*
X112844833Y16175162D01*
X112501057Y16033117D01*
X112237808Y15770327D01*
X112095162Y15426799D01*
X112094838Y15054833D01*
X112236883Y14711057D01*
X112270000Y14677882D01*
X112270000Y12627463D01*
X112237808Y12595327D01*
X112095162Y12251799D01*
X112094838Y11879833D01*
X112236883Y11536057D01*
X112499673Y11272808D01*
X112843201Y11130162D01*
X113215167Y11129838D01*
X113540000Y11264056D01*
X113540000Y9190110D01*
X113479833Y9190162D01*
X113136057Y9048117D01*
X112872808Y8785327D01*
X112730162Y8441799D01*
X112729838Y8069833D01*
X112871883Y7726057D01*
X112905000Y7692882D01*
X112905000Y6277463D01*
X112872808Y6245327D01*
X112730162Y5901799D01*
X112729838Y5529833D01*
X112871883Y5186057D01*
X113134673Y4922808D01*
X113478201Y4780162D01*
X113850167Y4779838D01*
X114175000Y4914056D01*
X114175000Y3489802D01*
X113417114Y2731916D01*
X113329398Y2768339D01*
X112733218Y2768859D01*
X112182220Y2541192D01*
X111760290Y2119997D01*
X111759905Y2119069D01*
X111339997Y2539710D01*
X111250000Y2577080D01*
X111250000Y6035198D01*
X111899680Y6684878D01*
X111945167Y6684838D01*
X112288943Y6826883D01*
X112552192Y7089673D01*
X112694838Y7433201D01*
X112695162Y7805167D01*
X112553117Y8148943D01*
X112290327Y8412192D01*
X111946799Y8554838D01*
X111574833Y8555162D01*
X111231057Y8413117D01*
X110967808Y8150327D01*
X110825162Y7806799D01*
X110825121Y7759923D01*
X109952599Y6887401D01*
X109787852Y6640839D01*
X109730000Y6350000D01*
X109730000Y2577462D01*
X109642220Y2541192D01*
X109220290Y2119997D01*
X109219905Y2119069D01*
X108799997Y2539710D01*
X108249398Y2768339D01*
X107653218Y2768859D01*
X107102220Y2541192D01*
X106680290Y2119997D01*
X106679905Y2119069D01*
X106259997Y2539710D01*
X105709398Y2768339D01*
X105113218Y2768859D01*
X104562220Y2541192D01*
X104140290Y2119997D01*
X104139905Y2119069D01*
X103719997Y2539710D01*
X103169398Y2768339D01*
X102573218Y2768859D01*
X102416947Y2704289D01*
X102534838Y2988201D01*
X102535162Y3360167D01*
X102393117Y3703943D01*
X102130327Y3967192D01*
X101786799Y4109838D01*
X101414833Y4110162D01*
X101071057Y3968117D01*
X100807808Y3705327D01*
X100665162Y3361799D01*
X100664838Y2989833D01*
X100784936Y2699173D01*
X100561970Y2780248D01*
X99966365Y2754058D01*
X99537741Y2576516D01*
X99455800Y2323805D01*
X100330000Y1449605D01*
X100344143Y1463748D01*
X100523748Y1284143D01*
X100509605Y1270000D01*
X100523748Y1255858D01*
X100344143Y1076253D01*
X100330000Y1090395D01*
X100315858Y1076253D01*
X100136253Y1255858D01*
X100150395Y1270000D01*
X99276195Y2144200D01*
X99076967Y2079601D01*
X99061192Y2117780D01*
X98639997Y2539710D01*
X98089398Y2768339D01*
X97493218Y2768859D01*
X96942220Y2541192D01*
X96520290Y2119997D01*
X96519905Y2119069D01*
X96099997Y2539710D01*
X95549398Y2768339D01*
X94953218Y2768859D01*
X94402220Y2541192D01*
X93980290Y2119997D01*
X93979905Y2119069D01*
X93559997Y2539710D01*
X93009398Y2768339D01*
X92413218Y2768859D01*
X91862220Y2541192D01*
X91440290Y2119997D01*
X91439905Y2119069D01*
X91019997Y2539710D01*
X90469398Y2768339D01*
X89873218Y2768859D01*
X89322220Y2541192D01*
X88900290Y2119997D01*
X88899905Y2119069D01*
X88479997Y2539710D01*
X88390000Y2577080D01*
X88390000Y5400198D01*
X88404680Y5414878D01*
X88450167Y5414838D01*
X88793943Y5556883D01*
X89057192Y5819673D01*
X89199838Y6163201D01*
X89200162Y6535167D01*
X89058117Y6878943D01*
X88795327Y7142192D01*
X88451799Y7284838D01*
X88404923Y7284879D01*
X86543607Y9146195D01*
X89138300Y9146195D01*
X89220241Y8893484D01*
X89780530Y8689752D01*
X90376135Y8715942D01*
X90804759Y8893484D01*
X90886700Y9146195D01*
X90012500Y10020395D01*
X89138300Y9146195D01*
X86543607Y9146195D01*
X85257832Y10431970D01*
X88502252Y10431970D01*
X88528442Y9836365D01*
X88705984Y9407741D01*
X88958695Y9325800D01*
X89832895Y10200000D01*
X90192105Y10200000D01*
X91066305Y9325800D01*
X91319016Y9407741D01*
X91522748Y9968030D01*
X91496558Y10563635D01*
X91319016Y10992259D01*
X91066305Y11074200D01*
X90192105Y10200000D01*
X89832895Y10200000D01*
X88958695Y11074200D01*
X88705984Y10992259D01*
X88502252Y10431970D01*
X85257832Y10431970D01*
X82675000Y13014802D01*
X82675000Y23309833D01*
X84154838Y23309833D01*
X84296883Y22966057D01*
X84330000Y22932882D01*
X84330000Y19050000D01*
X84387852Y18759161D01*
X84552599Y18512599D01*
X84965000Y18100198D01*
X84965000Y15167463D01*
X84932808Y15135327D01*
X84790162Y14791799D01*
X84789838Y14419833D01*
X84931883Y14076057D01*
X85194673Y13812808D01*
X85538201Y13670162D01*
X85910167Y13669838D01*
X86253943Y13811883D01*
X86517192Y14074673D01*
X86659838Y14418201D01*
X86660162Y14790167D01*
X86613451Y14903218D01*
X88513641Y14903218D01*
X88741308Y14352220D01*
X89143159Y13949668D01*
X88742790Y13549997D01*
X88514161Y12999398D01*
X88513641Y12403218D01*
X88741308Y11852220D01*
X89162503Y11430290D01*
X89191606Y11418205D01*
X89138300Y11253805D01*
X90012500Y10379605D01*
X90886700Y11253805D01*
X90833538Y11417759D01*
X90860280Y11428808D01*
X91282210Y11850003D01*
X91510839Y12400602D01*
X91511359Y12996782D01*
X91283692Y13547780D01*
X91255121Y13576401D01*
X95783903Y13576401D01*
X96074742Y13634253D01*
X96321304Y13799000D01*
X96363038Y13840734D01*
X96107958Y13226433D01*
X96107043Y12178166D01*
X96507353Y11209342D01*
X97247943Y10467458D01*
X98157647Y10089716D01*
X97732700Y9914132D01*
X97230133Y9412441D01*
X97177575Y9285868D01*
X97177835Y9583207D01*
X96883870Y10294658D01*
X96340021Y10839457D01*
X95629084Y11134663D01*
X94859293Y11135335D01*
X94147842Y10841370D01*
X93603043Y10297521D01*
X93307837Y9586584D01*
X93307165Y8816793D01*
X93599153Y8110126D01*
X93398901Y8110301D01*
X92760985Y7846719D01*
X92272496Y7359082D01*
X92007801Y6721627D01*
X92007199Y6031401D01*
X92270781Y5393485D01*
X92758418Y4904996D01*
X93395873Y4640301D01*
X94086099Y4639699D01*
X94724015Y4903281D01*
X95212504Y5390918D01*
X95477199Y6028373D01*
X95477801Y6718599D01*
X95252036Y7264991D01*
X95625707Y7264665D01*
X96337158Y7558630D01*
X96881957Y8102479D01*
X96957399Y8284163D01*
X96957191Y8046499D01*
X97228368Y7390200D01*
X97730059Y6887633D01*
X98385884Y6615311D01*
X99096001Y6614691D01*
X99752300Y6885868D01*
X100254867Y7387559D01*
X100527189Y8043384D01*
X100527399Y8283785D01*
X100601130Y8105342D01*
X101144979Y7560543D01*
X101855916Y7265337D01*
X102233433Y7265007D01*
X102007801Y6721627D01*
X102007199Y6031401D01*
X102270781Y5393485D01*
X102758418Y4904996D01*
X103395873Y4640301D01*
X104086099Y4639699D01*
X104724015Y4903281D01*
X105212504Y5390918D01*
X105477199Y6028373D01*
X105477801Y6718599D01*
X105214219Y7356515D01*
X104726582Y7845004D01*
X104665014Y7870569D01*
X104869961Y7878648D01*
X105336708Y8071981D01*
X105429245Y8333650D01*
X104492500Y9270395D01*
X104478358Y9256253D01*
X104298753Y9435858D01*
X104312895Y9450000D01*
X104298753Y9464143D01*
X104478358Y9643748D01*
X104492500Y9629605D01*
X104506643Y9643748D01*
X104686248Y9464143D01*
X104672105Y9450000D01*
X105608850Y8513255D01*
X105870519Y8605792D01*
X106088688Y9197398D01*
X106063852Y9827461D01*
X105870519Y10294208D01*
X105608852Y10386744D01*
X105723266Y10501158D01*
X105655504Y10568920D01*
X106266013Y10315415D01*
X107214825Y10314587D01*
X107897804Y10596788D01*
X107649586Y10349003D01*
X107407776Y9766659D01*
X107407225Y9136107D01*
X107648019Y8553343D01*
X108093497Y8107086D01*
X108675841Y7865276D01*
X109306393Y7864725D01*
X109889157Y8105519D01*
X110335414Y8550997D01*
X110577224Y9133341D01*
X110577775Y9763893D01*
X110336981Y10346657D01*
X109891503Y10792914D01*
X109309159Y11034724D01*
X108678607Y11035275D01*
X108289768Y10874609D01*
X108763226Y11347242D01*
X109127085Y12223513D01*
X109127913Y13172325D01*
X108765584Y14049229D01*
X108290261Y14525383D01*
X108675841Y14365276D01*
X109306393Y14364725D01*
X109889157Y14605519D01*
X110335414Y15050997D01*
X110577224Y15633341D01*
X110577775Y16263893D01*
X110336981Y16846657D01*
X109891503Y17292914D01*
X109309159Y17534724D01*
X108678607Y17535275D01*
X108095843Y17294481D01*
X107649586Y16849003D01*
X107407776Y16266659D01*
X107407225Y15636107D01*
X107648019Y15053343D01*
X107898495Y14802429D01*
X107218987Y15084585D01*
X106270175Y15085413D01*
X105656111Y14831687D01*
X105723266Y14898842D01*
X105608852Y15013256D01*
X105870519Y15105792D01*
X106088688Y15697398D01*
X106063852Y16327461D01*
X105870519Y16794208D01*
X105608850Y16886745D01*
X104672105Y15950000D01*
X104686248Y15935858D01*
X104506643Y15756253D01*
X104492500Y15770395D01*
X104478358Y15756253D01*
X104298753Y15935858D01*
X104312895Y15950000D01*
X104298753Y15964143D01*
X104478358Y16143748D01*
X104492500Y16129605D01*
X105429245Y17066350D01*
X105336708Y17328019D01*
X104745102Y17546188D01*
X104702814Y17544521D01*
X104724015Y17553281D01*
X105212504Y18040918D01*
X105477199Y18678373D01*
X105477201Y18681401D01*
X131377199Y18681401D01*
X131640781Y18043485D01*
X132128418Y17554996D01*
X132765873Y17290301D01*
X132969971Y17290123D01*
X132677837Y16586584D01*
X132677165Y15816793D01*
X132971130Y15105342D01*
X133514979Y14560543D01*
X134225916Y14265337D01*
X134995707Y14264665D01*
X135707158Y14558630D01*
X136251957Y15102479D01*
X136547163Y15813416D01*
X136547425Y16113492D01*
X136598368Y15990200D01*
X137100059Y15487633D01*
X137528450Y15309750D01*
X136621842Y14935147D01*
X135879958Y14194557D01*
X135477958Y13226433D01*
X135477043Y12178166D01*
X135877353Y11209342D01*
X136617943Y10467458D01*
X137527647Y10089716D01*
X137102700Y9914132D01*
X136600133Y9412441D01*
X136547575Y9285868D01*
X136547835Y9583207D01*
X136253870Y10294658D01*
X135710021Y10839457D01*
X134999084Y11134663D01*
X134229293Y11135335D01*
X133517842Y10841370D01*
X132973043Y10297521D01*
X132677837Y9586584D01*
X132677165Y8816793D01*
X132969153Y8110126D01*
X132768901Y8110301D01*
X132130985Y7846719D01*
X131642496Y7359082D01*
X131377801Y6721627D01*
X131377199Y6031401D01*
X131640781Y5393485D01*
X132128418Y4904996D01*
X132765873Y4640301D01*
X133456099Y4639699D01*
X134094015Y4903281D01*
X134582504Y5390918D01*
X134847199Y6028373D01*
X134847801Y6718599D01*
X134622036Y7264991D01*
X134995707Y7264665D01*
X135707158Y7558630D01*
X136251957Y8102479D01*
X136327399Y8284163D01*
X136327191Y8046499D01*
X136598368Y7390200D01*
X137100059Y6887633D01*
X137755884Y6615311D01*
X138466001Y6614691D01*
X139122300Y6885868D01*
X139624867Y7387559D01*
X139897189Y8043384D01*
X139897399Y8283785D01*
X139971130Y8105342D01*
X140514979Y7560543D01*
X141225916Y7265337D01*
X141603433Y7265007D01*
X141377801Y6721627D01*
X141377199Y6031401D01*
X141640781Y5393485D01*
X142128418Y4904996D01*
X142765873Y4640301D01*
X143456099Y4639699D01*
X144094015Y4903281D01*
X144582504Y5390918D01*
X144847199Y6028373D01*
X144847801Y6718599D01*
X144584219Y7356515D01*
X144096582Y7845004D01*
X144035014Y7870569D01*
X144239961Y7878648D01*
X144706708Y8071981D01*
X144799245Y8333650D01*
X143862500Y9270395D01*
X143848358Y9256253D01*
X143668753Y9435858D01*
X143682895Y9450000D01*
X143668753Y9464143D01*
X143848358Y9643748D01*
X143862500Y9629605D01*
X143876643Y9643748D01*
X144056248Y9464143D01*
X144042105Y9450000D01*
X144978850Y8513255D01*
X145240519Y8605792D01*
X145458688Y9197398D01*
X145433852Y9827461D01*
X145240519Y10294208D01*
X144978852Y10386744D01*
X145093266Y10501158D01*
X145025504Y10568920D01*
X145636013Y10315415D01*
X146584825Y10314587D01*
X147267804Y10596788D01*
X147019586Y10349003D01*
X146777776Y9766659D01*
X146777225Y9136107D01*
X147018019Y8553343D01*
X147463497Y8107086D01*
X148045841Y7865276D01*
X148676393Y7864725D01*
X149259157Y8105519D01*
X149705414Y8550997D01*
X149947224Y9133341D01*
X149947775Y9763893D01*
X149706981Y10346657D01*
X149261503Y10792914D01*
X148679159Y11034724D01*
X148048607Y11035275D01*
X147659768Y10874609D01*
X148133226Y11347242D01*
X148497085Y12223513D01*
X148497913Y13172325D01*
X148135584Y14049229D01*
X147660261Y14525383D01*
X148045841Y14365276D01*
X148676393Y14364725D01*
X149259157Y14605519D01*
X149705414Y15050997D01*
X149947224Y15633341D01*
X149947775Y16263893D01*
X149706981Y16846657D01*
X149261503Y17292914D01*
X148679159Y17534724D01*
X148048607Y17535275D01*
X147465843Y17294481D01*
X147019586Y16849003D01*
X146777776Y16266659D01*
X146777225Y15636107D01*
X147018019Y15053343D01*
X147268495Y14802429D01*
X146588987Y15084585D01*
X145640175Y15085413D01*
X145026111Y14831687D01*
X145093266Y14898842D01*
X144978852Y15013256D01*
X145240519Y15105792D01*
X145458688Y15697398D01*
X145433852Y16327461D01*
X145240519Y16794208D01*
X144978850Y16886745D01*
X144042105Y15950000D01*
X144056248Y15935858D01*
X143876643Y15756253D01*
X143862500Y15770395D01*
X143848358Y15756253D01*
X143668753Y15935858D01*
X143682895Y15950000D01*
X143668753Y15964143D01*
X143848358Y16143748D01*
X143862500Y16129605D01*
X144799245Y17066350D01*
X144706708Y17328019D01*
X144115102Y17546188D01*
X144072814Y17544521D01*
X144094015Y17553281D01*
X144582504Y18040918D01*
X144847199Y18678373D01*
X144847801Y19368599D01*
X144584219Y20006515D01*
X144096582Y20495004D01*
X143459127Y20759699D01*
X142768901Y20760301D01*
X142130985Y20496719D01*
X141642496Y20009082D01*
X141377801Y19371627D01*
X141377199Y18681401D01*
X141602964Y18135009D01*
X141229293Y18135335D01*
X140517842Y17841370D01*
X139973043Y17297521D01*
X139897601Y17115837D01*
X139897809Y17353501D01*
X139626632Y18009800D01*
X139124941Y18512367D01*
X138469116Y18784689D01*
X137758999Y18785309D01*
X137102700Y18514132D01*
X136600133Y18012441D01*
X136327811Y17356616D01*
X136327601Y17116215D01*
X136253870Y17294658D01*
X135710021Y17839457D01*
X134999084Y18134663D01*
X134621567Y18134993D01*
X134847199Y18678373D01*
X134847801Y19368599D01*
X134584219Y20006515D01*
X134215184Y20376195D01*
X134738300Y20376195D01*
X134820241Y20123484D01*
X135380530Y19919752D01*
X135976135Y19945942D01*
X136404759Y20123484D01*
X136486700Y20376195D01*
X135612500Y21250395D01*
X134738300Y20376195D01*
X134215184Y20376195D01*
X134096582Y20495004D01*
X133459127Y20759699D01*
X132768901Y20760301D01*
X132130985Y20496719D01*
X131642496Y20009082D01*
X131377801Y19371627D01*
X131377199Y18681401D01*
X105477201Y18681401D01*
X105477801Y19368599D01*
X105214219Y20006515D01*
X104726582Y20495004D01*
X104305146Y20670000D01*
X106277537Y20670000D01*
X106309673Y20637808D01*
X106653201Y20495162D01*
X107025167Y20494838D01*
X107368943Y20636883D01*
X107632192Y20899673D01*
X107774838Y21243201D01*
X107775162Y21615167D01*
X107755824Y21661970D01*
X134102252Y21661970D01*
X134128442Y21066365D01*
X134305984Y20637741D01*
X134558695Y20555800D01*
X135432895Y21430000D01*
X135792105Y21430000D01*
X136666305Y20555800D01*
X136830259Y20608962D01*
X136841308Y20582220D01*
X137262503Y20160290D01*
X137813102Y19931661D01*
X138409282Y19931141D01*
X138960280Y20158808D01*
X139362832Y20560659D01*
X139762503Y20160290D01*
X140313102Y19931661D01*
X140909282Y19931141D01*
X141460280Y20158808D01*
X141882210Y20580003D01*
X142110839Y21130602D01*
X142111328Y21691828D01*
X153832538Y21691828D01*
X154237709Y20711239D01*
X154987293Y19960345D01*
X155967173Y19553464D01*
X157028172Y19552538D01*
X158008761Y19957709D01*
X158759655Y20707293D01*
X159166536Y21687173D01*
X159167462Y22748172D01*
X158762291Y23728761D01*
X158012707Y24479655D01*
X157032827Y24886536D01*
X155971828Y24887462D01*
X154991239Y24482291D01*
X154240345Y23732707D01*
X153833464Y22752827D01*
X153832538Y21691828D01*
X142111328Y21691828D01*
X142111359Y21726782D01*
X141883692Y22277780D01*
X141462497Y22699710D01*
X140911898Y22928339D01*
X140315718Y22928859D01*
X139764720Y22701192D01*
X139362168Y22299341D01*
X138962497Y22699710D01*
X138411898Y22928339D01*
X137815718Y22928859D01*
X137264720Y22701192D01*
X136842790Y22279997D01*
X136830705Y22250894D01*
X136666305Y22304200D01*
X135792105Y21430000D01*
X135432895Y21430000D01*
X134558695Y22304200D01*
X134305984Y22222259D01*
X134102252Y21661970D01*
X107755824Y21661970D01*
X107633117Y21958943D01*
X107370327Y22222192D01*
X107026799Y22364838D01*
X106654833Y22365162D01*
X106311057Y22223117D01*
X106277882Y22190000D01*
X102549962Y22190000D01*
X102513692Y22277780D01*
X102308026Y22483805D01*
X134738300Y22483805D01*
X135612500Y21609605D01*
X136486700Y22483805D01*
X136404759Y22736516D01*
X135844470Y22940248D01*
X135248865Y22914058D01*
X134820241Y22736516D01*
X134738300Y22483805D01*
X102308026Y22483805D01*
X102092497Y22699710D01*
X101541898Y22928339D01*
X100945718Y22928859D01*
X100394720Y22701192D01*
X99992168Y22299341D01*
X99592497Y22699710D01*
X99041898Y22928339D01*
X98445718Y22928859D01*
X97894720Y22701192D01*
X97472790Y22279997D01*
X97460705Y22250894D01*
X97296305Y22304200D01*
X96422105Y21430000D01*
X97296305Y20555800D01*
X97460259Y20608962D01*
X97471308Y20582220D01*
X97892503Y20160290D01*
X98424204Y19939508D01*
X96330100Y17845404D01*
X96329144Y17843973D01*
X95629084Y18134663D01*
X95251567Y18134993D01*
X95477199Y18678373D01*
X95477801Y19368599D01*
X95214219Y20006515D01*
X94845184Y20376195D01*
X95368300Y20376195D01*
X95450241Y20123484D01*
X96010530Y19919752D01*
X96606135Y19945942D01*
X97034759Y20123484D01*
X97116700Y20376195D01*
X96242500Y21250395D01*
X95368300Y20376195D01*
X94845184Y20376195D01*
X94726582Y20495004D01*
X94089127Y20759699D01*
X93398901Y20760301D01*
X92760985Y20496719D01*
X92272496Y20009082D01*
X92007801Y19371627D01*
X92007199Y18681401D01*
X92270781Y18043485D01*
X92758418Y17554996D01*
X93395873Y17290301D01*
X93599971Y17290123D01*
X93307837Y16586584D01*
X93307165Y15816793D01*
X93601130Y15105342D01*
X93610055Y15096401D01*
X91511010Y15096401D01*
X91511359Y15496782D01*
X91283692Y16047780D01*
X90862497Y16469710D01*
X90311898Y16698339D01*
X89715718Y16698859D01*
X89164720Y16471192D01*
X88742790Y16049997D01*
X88514161Y15499398D01*
X88513641Y14903218D01*
X86613451Y14903218D01*
X86518117Y15133943D01*
X86485000Y15167118D01*
X86485000Y18415000D01*
X86427148Y18705839D01*
X86262401Y18952401D01*
X85850000Y19364802D01*
X85850000Y21661970D01*
X94732252Y21661970D01*
X94758442Y21066365D01*
X94935984Y20637741D01*
X95188695Y20555800D01*
X96062895Y21430000D01*
X95188695Y22304200D01*
X94935984Y22222259D01*
X94732252Y21661970D01*
X85850000Y21661970D01*
X85850000Y22483805D01*
X95368300Y22483805D01*
X96242500Y21609605D01*
X97116700Y22483805D01*
X97034759Y22736516D01*
X96474470Y22940248D01*
X95878865Y22914058D01*
X95450241Y22736516D01*
X95368300Y22483805D01*
X85850000Y22483805D01*
X85850000Y22932537D01*
X85882192Y22964673D01*
X86024838Y23308201D01*
X86025162Y23680167D01*
X85883117Y24023943D01*
X85620327Y24287192D01*
X85276799Y24429838D01*
X84904833Y24430162D01*
X84561057Y24288117D01*
X84297808Y24025327D01*
X84155162Y23681799D01*
X84154838Y23309833D01*
X82675000Y23309833D01*
X82675000Y24837537D01*
X82707192Y24869673D01*
X82849838Y25213201D01*
X82850162Y25585167D01*
X82708117Y25928943D01*
X82445327Y26192192D01*
X82101799Y26334838D01*
X81729833Y26335162D01*
X81386057Y26193117D01*
X81122808Y25930327D01*
X80980162Y25586799D01*
X80979838Y25214833D01*
X81121883Y24871057D01*
X81155000Y24837882D01*
X81155000Y12700000D01*
X81212852Y12409161D01*
X81377599Y12162599D01*
X87190198Y6350000D01*
X87092599Y6252401D01*
X86927852Y6005839D01*
X86870000Y5715000D01*
X86870000Y2577462D01*
X86782220Y2541192D01*
X86360290Y2119997D01*
X86343459Y2079463D01*
X86143805Y2144200D01*
X85269605Y1270000D01*
X86143805Y395800D01*
X86343033Y460399D01*
X86358808Y422220D01*
X86780003Y290D01*
X87330602Y-228339D01*
X87926782Y-228859D01*
X88477780Y-1192D01*
X88899710Y420003D01*
X88900095Y420931D01*
X89320003Y290D01*
X89870602Y-228339D01*
X90466782Y-228859D01*
X91017780Y-1192D01*
X91439710Y420003D01*
X91440095Y420931D01*
X91860003Y290D01*
X92410602Y-228339D01*
X93006782Y-228859D01*
X93557780Y-1192D01*
X93979710Y420003D01*
X93980095Y420931D01*
X94400003Y290D01*
X94950602Y-228339D01*
X95546782Y-228859D01*
X95636844Y-191646D01*
X95955198Y-510000D01*
X71682463Y-510000D01*
X71650327Y-477808D01*
X71306799Y-335162D01*
X70934833Y-334838D01*
X70591057Y-476883D01*
X70327808Y-739673D01*
X70185162Y-1083201D01*
X70185108Y-1145000D01*
X61958488Y-1145000D01*
X60676351Y137137D01*
X60959710Y420003D01*
X60960095Y420931D01*
X61380003Y290D01*
X61930602Y-228339D01*
X62526782Y-228859D01*
X63077780Y-1192D01*
X63295546Y216195D01*
X63895800Y216195D01*
X63977741Y-36516D01*
X64538030Y-240248D01*
X65133635Y-214058D01*
X65562259Y-36516D01*
X65644200Y216195D01*
X64770000Y1090395D01*
X63895800Y216195D01*
X63295546Y216195D01*
X63499710Y420003D01*
X63516541Y460537D01*
X63716195Y395800D01*
X64590395Y1270000D01*
X64576253Y1284143D01*
X64755858Y1463748D01*
X64770000Y1449605D01*
X64784143Y1463748D01*
X64963748Y1284143D01*
X64949605Y1270000D01*
X65823805Y395800D01*
X66023033Y460399D01*
X66038808Y422220D01*
X66460003Y290D01*
X67010602Y-228339D01*
X67606782Y-228859D01*
X68157780Y-1192D01*
X68579710Y420003D01*
X68580095Y420931D01*
X69000003Y290D01*
X69550602Y-228339D01*
X70146782Y-228859D01*
X70697780Y-1192D01*
X71119710Y420003D01*
X71120095Y420931D01*
X71540003Y290D01*
X72090602Y-228339D01*
X72686782Y-228859D01*
X73237780Y-1192D01*
X73659710Y420003D01*
X73660095Y420931D01*
X74080003Y290D01*
X74630602Y-228339D01*
X75226782Y-228859D01*
X75777780Y-1192D01*
X76199710Y420003D01*
X76200095Y420931D01*
X76620003Y290D01*
X77170602Y-228339D01*
X77766782Y-228859D01*
X78317780Y-1192D01*
X78739710Y420003D01*
X78740095Y420931D01*
X79160003Y290D01*
X79710602Y-228339D01*
X80306782Y-228859D01*
X80857780Y-1192D01*
X81279710Y420003D01*
X81280095Y420931D01*
X81700003Y290D01*
X82250602Y-228339D01*
X82846782Y-228859D01*
X83397780Y-1192D01*
X83615546Y216195D01*
X84215800Y216195D01*
X84297741Y-36516D01*
X84858030Y-240248D01*
X85453635Y-214058D01*
X85882259Y-36516D01*
X85964200Y216195D01*
X85090000Y1090395D01*
X84215800Y216195D01*
X83615546Y216195D01*
X83819710Y420003D01*
X83836541Y460537D01*
X84036195Y395800D01*
X84910395Y1270000D01*
X84036195Y2144200D01*
X83836967Y2079601D01*
X83821192Y2117780D01*
X83615526Y2323805D01*
X84215800Y2323805D01*
X85090000Y1449605D01*
X85964200Y2323805D01*
X85882259Y2576516D01*
X85321970Y2780248D01*
X84726365Y2754058D01*
X84297741Y2576516D01*
X84215800Y2323805D01*
X83615526Y2323805D01*
X83399997Y2539710D01*
X82849398Y2768339D01*
X82253218Y2768859D01*
X81702220Y2541192D01*
X81280290Y2119997D01*
X81279905Y2119069D01*
X80859997Y2539710D01*
X80309398Y2768339D01*
X79713218Y2768859D01*
X79162220Y2541192D01*
X78740290Y2119997D01*
X78739905Y2119069D01*
X78319997Y2539710D01*
X77769398Y2768339D01*
X77173218Y2768859D01*
X76622220Y2541192D01*
X76200290Y2119997D01*
X76199905Y2119069D01*
X75779997Y2539710D01*
X75690000Y2577080D01*
X75690000Y4142500D01*
X75632148Y4433339D01*
X75632148Y4433340D01*
X75467401Y4679901D01*
X71150520Y8996782D01*
X71207224Y9133341D01*
X71207775Y9763893D01*
X70966981Y10346657D01*
X70521503Y10792914D01*
X69939159Y11034724D01*
X69308607Y11035275D01*
X68919768Y10874609D01*
X69393226Y11347242D01*
X69757085Y12223513D01*
X69757913Y13172325D01*
X69395584Y14049229D01*
X68920261Y14525383D01*
X69305841Y14365276D01*
X69936393Y14364725D01*
X70519157Y14605519D01*
X70965414Y15050997D01*
X71207224Y15633341D01*
X71207775Y16263893D01*
X70966981Y16846657D01*
X70521503Y17292914D01*
X69939159Y17534724D01*
X69308607Y17535275D01*
X68725843Y17294481D01*
X68279586Y16849003D01*
X68037776Y16266659D01*
X68037225Y15636107D01*
X68278019Y15053343D01*
X68528495Y14802429D01*
X67848987Y15084585D01*
X66900175Y15085413D01*
X66286111Y14831687D01*
X66353266Y14898842D01*
X66238852Y15013256D01*
X66500519Y15105792D01*
X66718688Y15697398D01*
X66693852Y16327461D01*
X66500519Y16794208D01*
X66238850Y16886745D01*
X65302105Y15950000D01*
X65316248Y15935858D01*
X65136643Y15756253D01*
X65122500Y15770395D01*
X65108358Y15756253D01*
X64928753Y15935858D01*
X64942895Y15950000D01*
X64928753Y15964143D01*
X65108358Y16143748D01*
X65122500Y16129605D01*
X66059245Y17066350D01*
X65966708Y17328019D01*
X65375102Y17546188D01*
X65332814Y17544521D01*
X65354015Y17553281D01*
X65842504Y18040918D01*
X66107199Y18678373D01*
X66107801Y19368599D01*
X65844219Y20006515D01*
X65356582Y20495004D01*
X64719127Y20759699D01*
X64028901Y20760301D01*
X63390985Y20496719D01*
X62902496Y20009082D01*
X62637801Y19371627D01*
X62637199Y18681401D01*
X62862964Y18135009D01*
X62489293Y18135335D01*
X61777842Y17841370D01*
X61233043Y17297521D01*
X61157601Y17115837D01*
X61157809Y17353501D01*
X60886632Y18009800D01*
X60384941Y18512367D01*
X59729116Y18784689D01*
X59018999Y18785309D01*
X58362700Y18514132D01*
X57860133Y18012441D01*
X57587811Y17356616D01*
X57587601Y17116215D01*
X57513870Y17294658D01*
X56970021Y17839457D01*
X56259084Y18134663D01*
X55881567Y18134993D01*
X56107199Y18678373D01*
X56107801Y19368599D01*
X56061193Y19481399D01*
X60683899Y19481399D01*
X60974738Y19539251D01*
X61221300Y19703998D01*
X61485386Y19968084D01*
X61573102Y19931661D01*
X62169282Y19931141D01*
X62720280Y20158808D01*
X63142210Y20580003D01*
X63370839Y21130602D01*
X63371359Y21726782D01*
X63143692Y22277780D01*
X62722497Y22699710D01*
X62171898Y22928339D01*
X61575718Y22928859D01*
X61024720Y22701192D01*
X60622168Y22299341D01*
X60222497Y22699710D01*
X59671898Y22928339D01*
X59075718Y22928859D01*
X58524720Y22701192D01*
X58102790Y22279997D01*
X58090705Y22250894D01*
X57926305Y22304200D01*
X57052105Y21430000D01*
X57066248Y21415858D01*
X56886643Y21236253D01*
X56872500Y21250395D01*
X56858358Y21236253D01*
X56678753Y21415858D01*
X56692895Y21430000D01*
X55818695Y22304200D01*
X55565984Y22222259D01*
X55362252Y21661970D01*
X55363392Y21636045D01*
X55242902Y21660012D01*
X53502099Y21660012D01*
X53211260Y21602160D01*
X52964698Y21437413D01*
X50105099Y18577814D01*
X49940352Y18331252D01*
X49882500Y18040413D01*
X49882500Y16507462D01*
X49794720Y16471192D01*
X49372790Y16049997D01*
X49335420Y15960000D01*
X47846441Y15960000D01*
X44253663Y19552778D01*
X44528172Y19552538D01*
X45508761Y19957709D01*
X46259655Y20707293D01*
X46666536Y21687173D01*
X46667231Y22483805D01*
X55998300Y22483805D01*
X56872500Y21609605D01*
X57746700Y22483805D01*
X57664759Y22736516D01*
X57104470Y22940248D01*
X56508865Y22914058D01*
X56080241Y22736516D01*
X55998300Y22483805D01*
X46667231Y22483805D01*
X46667462Y22748172D01*
X46262291Y23728761D01*
X45512707Y24479655D01*
X44532827Y24886536D01*
X43471828Y24887462D01*
X42491239Y24482291D01*
X41740345Y23732707D01*
X41333464Y22752827D01*
X41332967Y22183768D01*
X41301638Y22190000D01*
X23809962Y22190000D01*
X23773692Y22277780D01*
X23352497Y22699710D01*
X22801898Y22928339D01*
X22205718Y22928859D01*
X21654720Y22701192D01*
X21252168Y22299341D01*
X20852497Y22699710D01*
X20301898Y22928339D01*
X19705718Y22928859D01*
X19154720Y22701192D01*
X18732790Y22279997D01*
X18720705Y22250894D01*
X18556305Y22304200D01*
X17682105Y21430000D01*
X17696248Y21415858D01*
X17516643Y21236253D01*
X17502500Y21250395D01*
X17488358Y21236253D01*
X17308753Y21415858D01*
X17322895Y21430000D01*
X16448695Y22304200D01*
X16195984Y22222259D01*
X15992252Y21661970D01*
X16015800Y21126451D01*
X15977340Y21152149D01*
X15686501Y21210001D01*
X14318499Y21210001D01*
X14027660Y21152149D01*
X13781098Y20987402D01*
X12032500Y19238804D01*
X12032500Y22483805D01*
X16628300Y22483805D01*
X17502500Y21609605D01*
X18376700Y22483805D01*
X18294759Y22736516D01*
X17734470Y22940248D01*
X17138865Y22914058D01*
X16710241Y22736516D01*
X16628300Y22483805D01*
X12032500Y22483805D01*
X12032500Y33987298D01*
X12321546Y34276344D01*
X12373309Y34254850D01*
X12944187Y34254352D01*
X13471800Y34472357D01*
X13681663Y34681855D01*
X26516861Y34681855D01*
X26590995Y34435736D01*
X27128223Y34242635D01*
X27698454Y34269822D01*
X28099005Y34435736D01*
X28173139Y34681855D01*
X27345000Y35509995D01*
X26516861Y34681855D01*
X13681663Y34681855D01*
X13875824Y34875677D01*
X14094750Y35402909D01*
X14095189Y35906377D01*
X25898035Y35906377D01*
X25925222Y35336146D01*
X26091136Y34935595D01*
X26337255Y34861461D01*
X27165395Y35689600D01*
X26337255Y36517739D01*
X26091136Y36443605D01*
X25898035Y35906377D01*
X14095189Y35906377D01*
X14095248Y35973787D01*
X13877243Y36501400D01*
X13681640Y36697345D01*
X26516861Y36697345D01*
X27345000Y35869205D01*
X28173139Y36697345D01*
X28099005Y36943464D01*
X27561777Y37136565D01*
X26991546Y37109378D01*
X26590995Y36943464D01*
X26516861Y36697345D01*
X13681640Y36697345D01*
X13473923Y36905424D01*
X12946691Y37124350D01*
X12375813Y37124848D01*
X11848200Y36906843D01*
X11444176Y36503523D01*
X11410187Y36421669D01*
X11377243Y36501400D01*
X10973923Y36905424D01*
X10446691Y37124350D01*
X9875813Y37124848D01*
X9348200Y36906843D01*
X8944176Y36503523D01*
X8916577Y36437056D01*
X8913864Y36443605D01*
X8667745Y36517739D01*
X7839605Y35689600D01*
X7480395Y35689600D01*
X6652255Y36517739D01*
X6406136Y36443605D01*
X6213035Y35906377D01*
X685000Y35906377D01*
X685000Y36697345D01*
X6831861Y36697345D01*
X7660000Y35869205D01*
X8488139Y36697345D01*
X8414005Y36943464D01*
X7876777Y37136565D01*
X7306546Y37109378D01*
X6905995Y36943464D01*
X6831861Y36697345D01*
X685000Y36697345D01*
X685000Y42267283D01*
X3580421Y42267283D01*
X3912367Y41463914D01*
X4526481Y40848727D01*
X5329270Y40515380D01*
X6198517Y40514621D01*
X7001886Y40846567D01*
X7617073Y41460681D01*
X7950420Y42263470D01*
X7950423Y42267283D01*
X12368821Y42267283D01*
X12700767Y41463914D01*
X13314881Y40848727D01*
X14117670Y40515380D01*
X14986917Y40514621D01*
X15790286Y40846567D01*
X16405473Y41460681D01*
X16738820Y42263470D01*
X16738823Y42267283D01*
X23265421Y42267283D01*
X23597367Y41463914D01*
X24211481Y40848727D01*
X25014270Y40515380D01*
X25883517Y40514621D01*
X26686886Y40846567D01*
X27302073Y41460681D01*
X27635420Y42263470D01*
X27636179Y43132717D01*
X27304233Y43936086D01*
X26690119Y44551273D01*
X25887330Y44884620D01*
X25018083Y44885379D01*
X24214714Y44553433D01*
X23599527Y43939319D01*
X23266180Y43136530D01*
X23265421Y42267283D01*
X16738823Y42267283D01*
X16739579Y43132717D01*
X16407633Y43936086D01*
X15793519Y44551273D01*
X14990730Y44884620D01*
X14121483Y44885379D01*
X13318114Y44553433D01*
X12702927Y43939319D01*
X12369580Y43136530D01*
X12368821Y42267283D01*
X7950423Y42267283D01*
X7951179Y43132717D01*
X7619233Y43936086D01*
X7005119Y44551273D01*
X6202330Y44884620D01*
X5333083Y44885379D01*
X4529714Y44553433D01*
X3914527Y43939319D01*
X3581180Y43136530D01*
X3580421Y42267283D01*
X685000Y42267283D01*
X685000Y49719841D01*
X1639446Y49719841D01*
X1725852Y49463357D01*
X2299336Y49253542D01*
X2909460Y49279161D01*
X3354148Y49463357D01*
X3440554Y49719841D01*
X2540000Y50620395D01*
X1639446Y49719841D01*
X685000Y49719841D01*
X685000Y51040664D01*
X993542Y51040664D01*
X1019161Y50430540D01*
X1203357Y49985852D01*
X1459841Y49899446D01*
X2360395Y50800000D01*
X2719605Y50800000D01*
X3620159Y49899446D01*
X3876643Y49985852D01*
X4086458Y50559336D01*
X4060839Y51169460D01*
X3876643Y51614148D01*
X3620159Y51700554D01*
X2719605Y50800000D01*
X2360395Y50800000D01*
X1459841Y51700554D01*
X1203357Y51614148D01*
X993542Y51040664D01*
X685000Y51040664D01*
X685000Y59535000D01*
X1484234Y59535000D01*
X1239449Y59290643D01*
G36*
X52637199Y18681401D02*
X52900781Y18043485D01*
X53388418Y17554996D01*
X54025873Y17290301D01*
X54229971Y17290123D01*
X53937837Y16586584D01*
X53937165Y15816793D01*
X54231130Y15105342D01*
X54774979Y14560543D01*
X55485916Y14265337D01*
X56255707Y14264665D01*
X56967158Y14558630D01*
X57511957Y15102479D01*
X57807163Y15813416D01*
X57807425Y16113492D01*
X57858368Y15990200D01*
X58360059Y15487633D01*
X58788450Y15309750D01*
X57881842Y14935147D01*
X57139958Y14194557D01*
X56737958Y13226433D01*
X56737043Y12178166D01*
X57137353Y11209342D01*
X57877943Y10467458D01*
X58787647Y10089716D01*
X58362700Y9914132D01*
X57860133Y9412441D01*
X57807575Y9285868D01*
X57807835Y9583207D01*
X57513870Y10294658D01*
X56970021Y10839457D01*
X56259084Y11134663D01*
X55489293Y11135335D01*
X54777842Y10841370D01*
X54233043Y10297521D01*
X53937837Y9586584D01*
X53937165Y8816793D01*
X54229153Y8110126D01*
X54028901Y8110301D01*
X53390985Y7846719D01*
X52902496Y7359082D01*
X52637801Y6721627D01*
X52637199Y6031401D01*
X52900781Y5393485D01*
X53388418Y4904996D01*
X54025873Y4640301D01*
X54716099Y4639699D01*
X55354015Y4903281D01*
X55842504Y5390918D01*
X56107199Y6028373D01*
X56107801Y6718599D01*
X55882036Y7264991D01*
X56255707Y7264665D01*
X56967158Y7558630D01*
X57511957Y8102479D01*
X57587399Y8284163D01*
X57587191Y8046499D01*
X57858368Y7390200D01*
X58360059Y6887633D01*
X59015884Y6615311D01*
X59726001Y6614691D01*
X60382300Y6885868D01*
X60884867Y7387559D01*
X61157189Y8043384D01*
X61157399Y8283785D01*
X61231130Y8105342D01*
X61774979Y7560543D01*
X62485916Y7265337D01*
X62863433Y7265007D01*
X62637801Y6721627D01*
X62637199Y6031401D01*
X62900781Y5393485D01*
X63388418Y4904996D01*
X64025873Y4640301D01*
X64716099Y4639699D01*
X65354015Y4903281D01*
X65842504Y5390918D01*
X66107199Y6028373D01*
X66107801Y6718599D01*
X65844219Y7356515D01*
X65356582Y7845004D01*
X65295014Y7870569D01*
X65499961Y7878648D01*
X65966708Y8071981D01*
X66059245Y8333650D01*
X65122500Y9270395D01*
X65108358Y9256253D01*
X64928753Y9435858D01*
X64942895Y9450000D01*
X64928753Y9464143D01*
X65108358Y9643748D01*
X65122500Y9629605D01*
X65136643Y9643748D01*
X65316248Y9464143D01*
X65302105Y9450000D01*
X66238850Y8513255D01*
X66500519Y8605792D01*
X66718688Y9197398D01*
X66693852Y9827461D01*
X66500519Y10294208D01*
X66238852Y10386744D01*
X66353266Y10501158D01*
X66285504Y10568920D01*
X66896013Y10315415D01*
X67844825Y10314587D01*
X68527804Y10596788D01*
X68279586Y10349003D01*
X68037776Y9766659D01*
X68037225Y9136107D01*
X68278019Y8553343D01*
X68723497Y8107086D01*
X69305841Y7865276D01*
X69936393Y7864725D01*
X70075496Y7922202D01*
X71675157Y6322541D01*
X71597808Y6245327D01*
X71455162Y5901799D01*
X71455121Y5854923D01*
X69312599Y3712401D01*
X69147852Y3465839D01*
X69090000Y3175000D01*
X69090000Y2577462D01*
X69002220Y2541192D01*
X68580290Y2119997D01*
X68579905Y2119069D01*
X68159997Y2539710D01*
X67609398Y2768339D01*
X67013218Y2768859D01*
X66923156Y2731646D01*
X66658800Y2996002D01*
X66412238Y3160749D01*
X66121399Y3218601D01*
X53258601Y3218601D01*
X52967761Y3160749D01*
X52721200Y2996002D01*
X52457114Y2731916D01*
X52369398Y2768339D01*
X51773218Y2768859D01*
X51683156Y2731646D01*
X50213899Y4200903D01*
X50213899Y8761251D01*
X50410530Y8689752D01*
X51006135Y8715942D01*
X51434759Y8893484D01*
X51516700Y9146195D01*
X50642500Y10020395D01*
X50628358Y10006253D01*
X50448753Y10185858D01*
X50462895Y10200000D01*
X50822105Y10200000D01*
X51696305Y9325800D01*
X51949016Y9407741D01*
X52152748Y9968030D01*
X52126558Y10563635D01*
X51949016Y10992259D01*
X51696305Y11074200D01*
X50822105Y10200000D01*
X50462895Y10200000D01*
X50448753Y10214143D01*
X50628358Y10393748D01*
X50642500Y10379605D01*
X51516700Y11253805D01*
X51463538Y11417759D01*
X51490280Y11428808D01*
X51912210Y11850003D01*
X52140839Y12400602D01*
X52141359Y12996782D01*
X51913692Y13547780D01*
X51511841Y13950332D01*
X51912210Y14350003D01*
X52140839Y14900602D01*
X52141359Y15496782D01*
X51913692Y16047780D01*
X51492497Y16469710D01*
X51402500Y16507080D01*
X51402500Y17725611D01*
X52637442Y18960553D01*
X52637199Y18681401D01*
X52637199Y18681401D01*
G37*
X52637199Y18681401D02*
X52900781Y18043485D01*
X53388418Y17554996D01*
X54025873Y17290301D01*
X54229971Y17290123D01*
X53937837Y16586584D01*
X53937165Y15816793D01*
X54231130Y15105342D01*
X54774979Y14560543D01*
X55485916Y14265337D01*
X56255707Y14264665D01*
X56967158Y14558630D01*
X57511957Y15102479D01*
X57807163Y15813416D01*
X57807425Y16113492D01*
X57858368Y15990200D01*
X58360059Y15487633D01*
X58788450Y15309750D01*
X57881842Y14935147D01*
X57139958Y14194557D01*
X56737958Y13226433D01*
X56737043Y12178166D01*
X57137353Y11209342D01*
X57877943Y10467458D01*
X58787647Y10089716D01*
X58362700Y9914132D01*
X57860133Y9412441D01*
X57807575Y9285868D01*
X57807835Y9583207D01*
X57513870Y10294658D01*
X56970021Y10839457D01*
X56259084Y11134663D01*
X55489293Y11135335D01*
X54777842Y10841370D01*
X54233043Y10297521D01*
X53937837Y9586584D01*
X53937165Y8816793D01*
X54229153Y8110126D01*
X54028901Y8110301D01*
X53390985Y7846719D01*
X52902496Y7359082D01*
X52637801Y6721627D01*
X52637199Y6031401D01*
X52900781Y5393485D01*
X53388418Y4904996D01*
X54025873Y4640301D01*
X54716099Y4639699D01*
X55354015Y4903281D01*
X55842504Y5390918D01*
X56107199Y6028373D01*
X56107801Y6718599D01*
X55882036Y7264991D01*
X56255707Y7264665D01*
X56967158Y7558630D01*
X57511957Y8102479D01*
X57587399Y8284163D01*
X57587191Y8046499D01*
X57858368Y7390200D01*
X58360059Y6887633D01*
X59015884Y6615311D01*
X59726001Y6614691D01*
X60382300Y6885868D01*
X60884867Y7387559D01*
X61157189Y8043384D01*
X61157399Y8283785D01*
X61231130Y8105342D01*
X61774979Y7560543D01*
X62485916Y7265337D01*
X62863433Y7265007D01*
X62637801Y6721627D01*
X62637199Y6031401D01*
X62900781Y5393485D01*
X63388418Y4904996D01*
X64025873Y4640301D01*
X64716099Y4639699D01*
X65354015Y4903281D01*
X65842504Y5390918D01*
X66107199Y6028373D01*
X66107801Y6718599D01*
X65844219Y7356515D01*
X65356582Y7845004D01*
X65295014Y7870569D01*
X65499961Y7878648D01*
X65966708Y8071981D01*
X66059245Y8333650D01*
X65122500Y9270395D01*
X65108358Y9256253D01*
X64928753Y9435858D01*
X64942895Y9450000D01*
X64928753Y9464143D01*
X65108358Y9643748D01*
X65122500Y9629605D01*
X65136643Y9643748D01*
X65316248Y9464143D01*
X65302105Y9450000D01*
X66238850Y8513255D01*
X66500519Y8605792D01*
X66718688Y9197398D01*
X66693852Y9827461D01*
X66500519Y10294208D01*
X66238852Y10386744D01*
X66353266Y10501158D01*
X66285504Y10568920D01*
X66896013Y10315415D01*
X67844825Y10314587D01*
X68527804Y10596788D01*
X68279586Y10349003D01*
X68037776Y9766659D01*
X68037225Y9136107D01*
X68278019Y8553343D01*
X68723497Y8107086D01*
X69305841Y7865276D01*
X69936393Y7864725D01*
X70075496Y7922202D01*
X71675157Y6322541D01*
X71597808Y6245327D01*
X71455162Y5901799D01*
X71455121Y5854923D01*
X69312599Y3712401D01*
X69147852Y3465839D01*
X69090000Y3175000D01*
X69090000Y2577462D01*
X69002220Y2541192D01*
X68580290Y2119997D01*
X68579905Y2119069D01*
X68159997Y2539710D01*
X67609398Y2768339D01*
X67013218Y2768859D01*
X66923156Y2731646D01*
X66658800Y2996002D01*
X66412238Y3160749D01*
X66121399Y3218601D01*
X53258601Y3218601D01*
X52967761Y3160749D01*
X52721200Y2996002D01*
X52457114Y2731916D01*
X52369398Y2768339D01*
X51773218Y2768859D01*
X51683156Y2731646D01*
X50213899Y4200903D01*
X50213899Y8761251D01*
X50410530Y8689752D01*
X51006135Y8715942D01*
X51434759Y8893484D01*
X51516700Y9146195D01*
X50642500Y10020395D01*
X50628358Y10006253D01*
X50448753Y10185858D01*
X50462895Y10200000D01*
X50822105Y10200000D01*
X51696305Y9325800D01*
X51949016Y9407741D01*
X52152748Y9968030D01*
X52126558Y10563635D01*
X51949016Y10992259D01*
X51696305Y11074200D01*
X50822105Y10200000D01*
X50462895Y10200000D01*
X50448753Y10214143D01*
X50628358Y10393748D01*
X50642500Y10379605D01*
X51516700Y11253805D01*
X51463538Y11417759D01*
X51490280Y11428808D01*
X51912210Y11850003D01*
X52140839Y12400602D01*
X52141359Y12996782D01*
X51913692Y13547780D01*
X51511841Y13950332D01*
X51912210Y14350003D01*
X52140839Y14900602D01*
X52141359Y15496782D01*
X51913692Y16047780D01*
X51492497Y16469710D01*
X51402500Y16507080D01*
X51402500Y17725611D01*
X52637442Y18960553D01*
X52637199Y18681401D01*
M02*
