G04 #@! TF.FileFunction,Legend,Bot*
%FSLAX46Y46*%
G04 Gerber Fmt 4.6, Leading zero omitted, Abs format (unit mm)*
G04 Created by KiCad (PCBNEW 4.0.4-stable) date 08/15/17 17:17:09*
%MOMM*%
%LPD*%
G01*
G04 APERTURE LIST*
%ADD10C,0.100000*%
%ADD11C,0.150000*%
G04 APERTURE END LIST*
D10*
D11*
X158704000Y-9500667D02*
X158570667Y-9500667D01*
X158504000Y-9534000D01*
X158437333Y-9600667D01*
X158404000Y-9734000D01*
X158404000Y-9967333D01*
X158437333Y-10100667D01*
X158504000Y-10167333D01*
X158570667Y-10200667D01*
X158704000Y-10200667D01*
X158770667Y-10167333D01*
X158837333Y-10100667D01*
X158870667Y-9967333D01*
X158870667Y-9734000D01*
X158837333Y-9600667D01*
X158770667Y-9534000D01*
X158704000Y-9500667D01*
X158104000Y-9734000D02*
X158104000Y-10434000D01*
X158104000Y-9767333D02*
X158037334Y-9734000D01*
X157904000Y-9734000D01*
X157837334Y-9767333D01*
X157804000Y-9800667D01*
X157770667Y-9867333D01*
X157770667Y-10067333D01*
X157804000Y-10134000D01*
X157837334Y-10167333D01*
X157904000Y-10200667D01*
X158037334Y-10200667D01*
X158104000Y-10167333D01*
X157204001Y-10167333D02*
X157270667Y-10200667D01*
X157404001Y-10200667D01*
X157470667Y-10167333D01*
X157504001Y-10100667D01*
X157504001Y-9834000D01*
X157470667Y-9767333D01*
X157404001Y-9734000D01*
X157270667Y-9734000D01*
X157204001Y-9767333D01*
X157170667Y-9834000D01*
X157170667Y-9900667D01*
X157504001Y-9967333D01*
X156870667Y-9734000D02*
X156870667Y-10200667D01*
X156870667Y-9800667D02*
X156837334Y-9767333D01*
X156770667Y-9734000D01*
X156670667Y-9734000D01*
X156604001Y-9767333D01*
X156570667Y-9834000D01*
X156570667Y-10200667D01*
X155737335Y-10167333D02*
X155670668Y-10200667D01*
X155537335Y-10200667D01*
X155470668Y-10167333D01*
X155437335Y-10100667D01*
X155437335Y-10067333D01*
X155470668Y-10000667D01*
X155537335Y-9967333D01*
X155637335Y-9967333D01*
X155704001Y-9934000D01*
X155737335Y-9867333D01*
X155737335Y-9834000D01*
X155704001Y-9767333D01*
X155637335Y-9734000D01*
X155537335Y-9734000D01*
X155470668Y-9767333D01*
X155037334Y-10200667D02*
X155104001Y-10167333D01*
X155137334Y-10134000D01*
X155170668Y-10067333D01*
X155170668Y-9867333D01*
X155137334Y-9800667D01*
X155104001Y-9767333D01*
X155037334Y-9734000D01*
X154937334Y-9734000D01*
X154870668Y-9767333D01*
X154837334Y-9800667D01*
X154804001Y-9867333D01*
X154804001Y-10067333D01*
X154837334Y-10134000D01*
X154870668Y-10167333D01*
X154937334Y-10200667D01*
X155037334Y-10200667D01*
X154204001Y-9734000D02*
X154204001Y-10200667D01*
X154504001Y-9734000D02*
X154504001Y-10100667D01*
X154470668Y-10167333D01*
X154404001Y-10200667D01*
X154304001Y-10200667D01*
X154237335Y-10167333D01*
X154204001Y-10134000D01*
X153870668Y-10200667D02*
X153870668Y-9734000D01*
X153870668Y-9867333D02*
X153837335Y-9800667D01*
X153804002Y-9767333D01*
X153737335Y-9734000D01*
X153670668Y-9734000D01*
X153137335Y-10167333D02*
X153204002Y-10200667D01*
X153337335Y-10200667D01*
X153404002Y-10167333D01*
X153437335Y-10134000D01*
X153470669Y-10067333D01*
X153470669Y-9867333D01*
X153437335Y-9800667D01*
X153404002Y-9767333D01*
X153337335Y-9734000D01*
X153204002Y-9734000D01*
X153137335Y-9767333D01*
X152570669Y-10167333D02*
X152637335Y-10200667D01*
X152770669Y-10200667D01*
X152837335Y-10167333D01*
X152870669Y-10100667D01*
X152870669Y-9834000D01*
X152837335Y-9767333D01*
X152770669Y-9734000D01*
X152637335Y-9734000D01*
X152570669Y-9767333D01*
X152537335Y-9834000D01*
X152537335Y-9900667D01*
X152870669Y-9967333D01*
X151704002Y-10200667D02*
X151704002Y-9500667D01*
X151470669Y-10000667D01*
X151237336Y-9500667D01*
X151237336Y-10200667D01*
X150904002Y-10200667D02*
X150904002Y-9500667D01*
X150670669Y-9500667D02*
X150270669Y-9500667D01*
X150470669Y-10200667D02*
X150470669Y-9500667D01*
X149404003Y-10200667D02*
X149470670Y-10167333D01*
X149504003Y-10100667D01*
X149504003Y-9500667D01*
X149137336Y-10200667D02*
X149137336Y-9734000D01*
X149137336Y-9500667D02*
X149170670Y-9534000D01*
X149137336Y-9567333D01*
X149104003Y-9534000D01*
X149137336Y-9500667D01*
X149137336Y-9567333D01*
X148504003Y-10167333D02*
X148570670Y-10200667D01*
X148704003Y-10200667D01*
X148770670Y-10167333D01*
X148804003Y-10134000D01*
X148837337Y-10067333D01*
X148837337Y-9867333D01*
X148804003Y-9800667D01*
X148770670Y-9767333D01*
X148704003Y-9734000D01*
X148570670Y-9734000D01*
X148504003Y-9767333D01*
X147937337Y-10167333D02*
X148004003Y-10200667D01*
X148137337Y-10200667D01*
X148204003Y-10167333D01*
X148237337Y-10100667D01*
X148237337Y-9834000D01*
X148204003Y-9767333D01*
X148137337Y-9734000D01*
X148004003Y-9734000D01*
X147937337Y-9767333D01*
X147904003Y-9834000D01*
X147904003Y-9900667D01*
X148237337Y-9967333D01*
X147604003Y-9734000D02*
X147604003Y-10200667D01*
X147604003Y-9800667D02*
X147570670Y-9767333D01*
X147504003Y-9734000D01*
X147404003Y-9734000D01*
X147337337Y-9767333D01*
X147304003Y-9834000D01*
X147304003Y-10200667D01*
X147004004Y-10167333D02*
X146937337Y-10200667D01*
X146804004Y-10200667D01*
X146737337Y-10167333D01*
X146704004Y-10100667D01*
X146704004Y-10067333D01*
X146737337Y-10000667D01*
X146804004Y-9967333D01*
X146904004Y-9967333D01*
X146970670Y-9934000D01*
X147004004Y-9867333D01*
X147004004Y-9834000D01*
X146970670Y-9767333D01*
X146904004Y-9734000D01*
X146804004Y-9734000D01*
X146737337Y-9767333D01*
X146137337Y-10167333D02*
X146204003Y-10200667D01*
X146337337Y-10200667D01*
X146404003Y-10167333D01*
X146437337Y-10100667D01*
X146437337Y-9834000D01*
X146404003Y-9767333D01*
X146337337Y-9734000D01*
X146204003Y-9734000D01*
X146137337Y-9767333D01*
X146104003Y-9834000D01*
X146104003Y-9900667D01*
X146437337Y-9967333D01*
X145370670Y-9734000D02*
X145104004Y-9734000D01*
X145270670Y-10200667D02*
X145270670Y-9600667D01*
X145237337Y-9534000D01*
X145170670Y-9500667D01*
X145104004Y-9500667D01*
X144870670Y-10200667D02*
X144870670Y-9734000D01*
X144870670Y-9500667D02*
X144904004Y-9534000D01*
X144870670Y-9567333D01*
X144837337Y-9534000D01*
X144870670Y-9500667D01*
X144870670Y-9567333D01*
X144437337Y-10200667D02*
X144504004Y-10167333D01*
X144537337Y-10100667D01*
X144537337Y-9500667D01*
X143904004Y-10167333D02*
X143970670Y-10200667D01*
X144104004Y-10200667D01*
X144170670Y-10167333D01*
X144204004Y-10100667D01*
X144204004Y-9834000D01*
X144170670Y-9767333D01*
X144104004Y-9734000D01*
X143970670Y-9734000D01*
X143904004Y-9767333D01*
X143870670Y-9834000D01*
X143870670Y-9900667D01*
X144204004Y-9967333D01*
X143604004Y-10167333D02*
X143537337Y-10200667D01*
X143404004Y-10200667D01*
X143337337Y-10167333D01*
X143304004Y-10100667D01*
X143304004Y-10067333D01*
X143337337Y-10000667D01*
X143404004Y-9967333D01*
X143504004Y-9967333D01*
X143570670Y-9934000D01*
X143604004Y-9867333D01*
X143604004Y-9834000D01*
X143570670Y-9767333D01*
X143504004Y-9734000D01*
X143404004Y-9734000D01*
X143337337Y-9767333D01*
X142170670Y-10200667D02*
X142170670Y-9834000D01*
X142204004Y-9767333D01*
X142270670Y-9734000D01*
X142404004Y-9734000D01*
X142470670Y-9767333D01*
X142170670Y-10167333D02*
X142237337Y-10200667D01*
X142404004Y-10200667D01*
X142470670Y-10167333D01*
X142504004Y-10100667D01*
X142504004Y-10034000D01*
X142470670Y-9967333D01*
X142404004Y-9934000D01*
X142237337Y-9934000D01*
X142170670Y-9900667D01*
X141937337Y-9734000D02*
X141670671Y-9734000D01*
X141837337Y-9500667D02*
X141837337Y-10100667D01*
X141804004Y-10167333D01*
X141737337Y-10200667D01*
X141670671Y-10200667D01*
X141437337Y-10134000D02*
X141404004Y-10167333D01*
X141437337Y-10200667D01*
X141470671Y-10167333D01*
X141437337Y-10134000D01*
X141437337Y-10200667D01*
X141437337Y-9767333D02*
X141404004Y-9800667D01*
X141437337Y-9834000D01*
X141470671Y-9800667D01*
X141437337Y-9767333D01*
X141437337Y-9834000D01*
X140270671Y-9734000D02*
X140270671Y-10300667D01*
X140304005Y-10367333D01*
X140337338Y-10400667D01*
X140404005Y-10434000D01*
X140504005Y-10434000D01*
X140570671Y-10400667D01*
X140270671Y-10167333D02*
X140337338Y-10200667D01*
X140470671Y-10200667D01*
X140537338Y-10167333D01*
X140570671Y-10134000D01*
X140604005Y-10067333D01*
X140604005Y-9867333D01*
X140570671Y-9800667D01*
X140537338Y-9767333D01*
X140470671Y-9734000D01*
X140337338Y-9734000D01*
X140270671Y-9767333D01*
X139937338Y-10200667D02*
X139937338Y-9734000D01*
X139937338Y-9500667D02*
X139970672Y-9534000D01*
X139937338Y-9567333D01*
X139904005Y-9534000D01*
X139937338Y-9500667D01*
X139937338Y-9567333D01*
X139704005Y-9734000D02*
X139437339Y-9734000D01*
X139604005Y-9500667D02*
X139604005Y-10100667D01*
X139570672Y-10167333D01*
X139504005Y-10200667D01*
X139437339Y-10200667D01*
X139204005Y-10200667D02*
X139204005Y-9500667D01*
X138904005Y-10200667D02*
X138904005Y-9834000D01*
X138937339Y-9767333D01*
X139004005Y-9734000D01*
X139104005Y-9734000D01*
X139170672Y-9767333D01*
X139204005Y-9800667D01*
X138270672Y-9734000D02*
X138270672Y-10200667D01*
X138570672Y-9734000D02*
X138570672Y-10100667D01*
X138537339Y-10167333D01*
X138470672Y-10200667D01*
X138370672Y-10200667D01*
X138304006Y-10167333D01*
X138270672Y-10134000D01*
X137937339Y-10200667D02*
X137937339Y-9500667D01*
X137937339Y-9767333D02*
X137870673Y-9734000D01*
X137737339Y-9734000D01*
X137670673Y-9767333D01*
X137637339Y-9800667D01*
X137604006Y-9867333D01*
X137604006Y-10067333D01*
X137637339Y-10134000D01*
X137670673Y-10167333D01*
X137737339Y-10200667D01*
X137870673Y-10200667D01*
X137937339Y-10167333D01*
X137304006Y-10134000D02*
X137270673Y-10167333D01*
X137304006Y-10200667D01*
X137337340Y-10167333D01*
X137304006Y-10134000D01*
X137304006Y-10200667D01*
X136670673Y-10167333D02*
X136737340Y-10200667D01*
X136870673Y-10200667D01*
X136937340Y-10167333D01*
X136970673Y-10134000D01*
X137004007Y-10067333D01*
X137004007Y-9867333D01*
X136970673Y-9800667D01*
X136937340Y-9767333D01*
X136870673Y-9734000D01*
X136737340Y-9734000D01*
X136670673Y-9767333D01*
X136270673Y-10200667D02*
X136337340Y-10167333D01*
X136370673Y-10134000D01*
X136404007Y-10067333D01*
X136404007Y-9867333D01*
X136370673Y-9800667D01*
X136337340Y-9767333D01*
X136270673Y-9734000D01*
X136170673Y-9734000D01*
X136104007Y-9767333D01*
X136070673Y-9800667D01*
X136037340Y-9867333D01*
X136037340Y-10067333D01*
X136070673Y-10134000D01*
X136104007Y-10167333D01*
X136170673Y-10200667D01*
X136270673Y-10200667D01*
X135737340Y-10200667D02*
X135737340Y-9734000D01*
X135737340Y-9800667D02*
X135704007Y-9767333D01*
X135637340Y-9734000D01*
X135537340Y-9734000D01*
X135470674Y-9767333D01*
X135437340Y-9834000D01*
X135437340Y-10200667D01*
X135437340Y-9834000D02*
X135404007Y-9767333D01*
X135337340Y-9734000D01*
X135237340Y-9734000D01*
X135170674Y-9767333D01*
X135137340Y-9834000D01*
X135137340Y-10200667D01*
X134304007Y-9467333D02*
X134904007Y-10367333D01*
X133837341Y-9834000D02*
X133737341Y-9867333D01*
X133704008Y-9900667D01*
X133670674Y-9967333D01*
X133670674Y-10067333D01*
X133704008Y-10134000D01*
X133737341Y-10167333D01*
X133804008Y-10200667D01*
X134070674Y-10200667D01*
X134070674Y-9500667D01*
X133837341Y-9500667D01*
X133770674Y-9534000D01*
X133737341Y-9567333D01*
X133704008Y-9634000D01*
X133704008Y-9700667D01*
X133737341Y-9767333D01*
X133770674Y-9800667D01*
X133837341Y-9834000D01*
X134070674Y-9834000D01*
X133104008Y-10167333D02*
X133170674Y-10200667D01*
X133304008Y-10200667D01*
X133370674Y-10167333D01*
X133404008Y-10100667D01*
X133404008Y-9834000D01*
X133370674Y-9767333D01*
X133304008Y-9734000D01*
X133170674Y-9734000D01*
X133104008Y-9767333D01*
X133070674Y-9834000D01*
X133070674Y-9900667D01*
X133404008Y-9967333D01*
X132670674Y-10200667D02*
X132737341Y-10167333D01*
X132770674Y-10100667D01*
X132770674Y-9500667D01*
X132404007Y-10200667D02*
X132404007Y-9734000D01*
X132404007Y-9500667D02*
X132437341Y-9534000D01*
X132404007Y-9567333D01*
X132370674Y-9534000D01*
X132404007Y-9500667D01*
X132404007Y-9567333D01*
X131804008Y-10167333D02*
X131870674Y-10200667D01*
X132004008Y-10200667D01*
X132070674Y-10167333D01*
X132104008Y-10100667D01*
X132104008Y-9834000D01*
X132070674Y-9767333D01*
X132004008Y-9734000D01*
X131870674Y-9734000D01*
X131804008Y-9767333D01*
X131770674Y-9834000D01*
X131770674Y-9900667D01*
X132104008Y-9967333D01*
X131537341Y-9734000D02*
X131370674Y-10200667D01*
X131204008Y-9734000D01*
X130837341Y-10200667D02*
X130904008Y-10167333D01*
X130937341Y-10134000D01*
X130970675Y-10067333D01*
X130970675Y-9867333D01*
X130937341Y-9800667D01*
X130904008Y-9767333D01*
X130837341Y-9734000D01*
X130737341Y-9734000D01*
X130670675Y-9767333D01*
X130637341Y-9800667D01*
X130604008Y-9867333D01*
X130604008Y-10067333D01*
X130637341Y-10134000D01*
X130670675Y-10167333D01*
X130737341Y-10200667D01*
X130837341Y-10200667D01*
X130404008Y-9734000D02*
X130137342Y-9734000D01*
X130304008Y-9500667D02*
X130304008Y-10100667D01*
X130270675Y-10167333D01*
X130204008Y-10200667D01*
X130137342Y-10200667D01*
X129904008Y-10200667D02*
X129904008Y-9734000D01*
X129904008Y-9867333D02*
X129870675Y-9800667D01*
X129837342Y-9767333D01*
X129770675Y-9734000D01*
X129704008Y-9734000D01*
X129370675Y-10200667D02*
X129437342Y-10167333D01*
X129470675Y-10134000D01*
X129504009Y-10067333D01*
X129504009Y-9867333D01*
X129470675Y-9800667D01*
X129437342Y-9767333D01*
X129370675Y-9734000D01*
X129270675Y-9734000D01*
X129204009Y-9767333D01*
X129170675Y-9800667D01*
X129137342Y-9867333D01*
X129137342Y-10067333D01*
X129170675Y-10134000D01*
X129204009Y-10167333D01*
X129270675Y-10200667D01*
X129370675Y-10200667D01*
X128837342Y-9734000D02*
X128837342Y-10200667D01*
X128837342Y-9800667D02*
X128804009Y-9767333D01*
X128737342Y-9734000D01*
X128637342Y-9734000D01*
X128570676Y-9767333D01*
X128537342Y-9834000D01*
X128537342Y-10200667D01*
X127704009Y-9467333D02*
X128304009Y-10367333D01*
X127237343Y-9834000D02*
X127137343Y-9867333D01*
X127104010Y-9900667D01*
X127070676Y-9967333D01*
X127070676Y-10067333D01*
X127104010Y-10134000D01*
X127137343Y-10167333D01*
X127204010Y-10200667D01*
X127470676Y-10200667D01*
X127470676Y-9500667D01*
X127237343Y-9500667D01*
X127170676Y-9534000D01*
X127137343Y-9567333D01*
X127104010Y-9634000D01*
X127104010Y-9700667D01*
X127137343Y-9767333D01*
X127170676Y-9800667D01*
X127237343Y-9834000D01*
X127470676Y-9834000D01*
X126504010Y-10167333D02*
X126570676Y-10200667D01*
X126704010Y-10200667D01*
X126770676Y-10167333D01*
X126804010Y-10100667D01*
X126804010Y-9834000D01*
X126770676Y-9767333D01*
X126704010Y-9734000D01*
X126570676Y-9734000D01*
X126504010Y-9767333D01*
X126470676Y-9834000D01*
X126470676Y-9900667D01*
X126804010Y-9967333D01*
X126070676Y-10200667D02*
X126137343Y-10167333D01*
X126170676Y-10100667D01*
X126170676Y-9500667D01*
X125804009Y-10200667D02*
X125804009Y-9734000D01*
X125804009Y-9500667D02*
X125837343Y-9534000D01*
X125804009Y-9567333D01*
X125770676Y-9534000D01*
X125804009Y-9500667D01*
X125804009Y-9567333D01*
X125204010Y-10167333D02*
X125270676Y-10200667D01*
X125404010Y-10200667D01*
X125470676Y-10167333D01*
X125504010Y-10100667D01*
X125504010Y-9834000D01*
X125470676Y-9767333D01*
X125404010Y-9734000D01*
X125270676Y-9734000D01*
X125204010Y-9767333D01*
X125170676Y-9834000D01*
X125170676Y-9900667D01*
X125504010Y-9967333D01*
X124937343Y-9734000D02*
X124770676Y-10200667D01*
X124604010Y-9734000D01*
X124237343Y-10200667D02*
X124304010Y-10167333D01*
X124337343Y-10134000D01*
X124370677Y-10067333D01*
X124370677Y-9867333D01*
X124337343Y-9800667D01*
X124304010Y-9767333D01*
X124237343Y-9734000D01*
X124137343Y-9734000D01*
X124070677Y-9767333D01*
X124037343Y-9800667D01*
X124004010Y-9867333D01*
X124004010Y-10067333D01*
X124037343Y-10134000D01*
X124070677Y-10167333D01*
X124137343Y-10200667D01*
X124237343Y-10200667D01*
X123804010Y-9734000D02*
X123537344Y-9734000D01*
X123704010Y-9500667D02*
X123704010Y-10100667D01*
X123670677Y-10167333D01*
X123604010Y-10200667D01*
X123537344Y-10200667D01*
X123304010Y-10200667D02*
X123304010Y-9734000D01*
X123304010Y-9867333D02*
X123270677Y-9800667D01*
X123237344Y-9767333D01*
X123170677Y-9734000D01*
X123104010Y-9734000D01*
X122770677Y-10200667D02*
X122837344Y-10167333D01*
X122870677Y-10134000D01*
X122904011Y-10067333D01*
X122904011Y-9867333D01*
X122870677Y-9800667D01*
X122837344Y-9767333D01*
X122770677Y-9734000D01*
X122670677Y-9734000D01*
X122604011Y-9767333D01*
X122570677Y-9800667D01*
X122537344Y-9867333D01*
X122537344Y-10067333D01*
X122570677Y-10134000D01*
X122604011Y-10167333D01*
X122670677Y-10200667D01*
X122770677Y-10200667D01*
X122237344Y-9734000D02*
X122237344Y-10200667D01*
X122237344Y-9800667D02*
X122204011Y-9767333D01*
X122137344Y-9734000D01*
X122037344Y-9734000D01*
X121970678Y-9767333D01*
X121937344Y-9834000D01*
X121937344Y-10200667D01*
X121670678Y-9500667D02*
X121504011Y-10200667D01*
X121370678Y-9700667D01*
X121237345Y-10200667D01*
X121070678Y-9500667D01*
X120504011Y-10200667D02*
X120504011Y-9834000D01*
X120537345Y-9767333D01*
X120604011Y-9734000D01*
X120737345Y-9734000D01*
X120804011Y-9767333D01*
X120504011Y-10167333D02*
X120570678Y-10200667D01*
X120737345Y-10200667D01*
X120804011Y-10167333D01*
X120837345Y-10100667D01*
X120837345Y-10034000D01*
X120804011Y-9967333D01*
X120737345Y-9934000D01*
X120570678Y-9934000D01*
X120504011Y-9900667D01*
X120170678Y-9734000D02*
X120170678Y-10200667D01*
X120170678Y-9800667D02*
X120137345Y-9767333D01*
X120070678Y-9734000D01*
X119970678Y-9734000D01*
X119904012Y-9767333D01*
X119870678Y-9834000D01*
X119870678Y-10200667D01*
X119237345Y-10200667D02*
X119237345Y-9500667D01*
X119237345Y-10167333D02*
X119304012Y-10200667D01*
X119437345Y-10200667D01*
X119504012Y-10167333D01*
X119537345Y-10134000D01*
X119570679Y-10067333D01*
X119570679Y-9867333D01*
X119537345Y-9800667D01*
X119504012Y-9767333D01*
X119437345Y-9734000D01*
X119304012Y-9734000D01*
X119237345Y-9767333D01*
X118637346Y-10167333D02*
X118704012Y-10200667D01*
X118837346Y-10200667D01*
X118904012Y-10167333D01*
X118937346Y-10100667D01*
X118937346Y-9834000D01*
X118904012Y-9767333D01*
X118837346Y-9734000D01*
X118704012Y-9734000D01*
X118637346Y-9767333D01*
X118604012Y-9834000D01*
X118604012Y-9900667D01*
X118937346Y-9967333D01*
X118304012Y-10200667D02*
X118304012Y-9734000D01*
X118304012Y-9867333D02*
X118270679Y-9800667D01*
X118237346Y-9767333D01*
X118170679Y-9734000D01*
X118104012Y-9734000D01*
X117770679Y-10200667D02*
X117837346Y-10167333D01*
X117870679Y-10100667D01*
X117870679Y-9500667D01*
X117204012Y-9734000D02*
X117204012Y-10200667D01*
X117504012Y-9734000D02*
X117504012Y-10100667D01*
X117470679Y-10167333D01*
X117404012Y-10200667D01*
X117304012Y-10200667D01*
X117237346Y-10167333D01*
X117204012Y-10134000D01*
X116904013Y-10167333D02*
X116837346Y-10200667D01*
X116704013Y-10200667D01*
X116637346Y-10167333D01*
X116604013Y-10100667D01*
X116604013Y-10067333D01*
X116637346Y-10000667D01*
X116704013Y-9967333D01*
X116804013Y-9967333D01*
X116870679Y-9934000D01*
X116904013Y-9867333D01*
X116904013Y-9834000D01*
X116870679Y-9767333D01*
X116804013Y-9734000D01*
X116704013Y-9734000D01*
X116637346Y-9767333D01*
X116404012Y-9734000D02*
X116137346Y-9734000D01*
X116304012Y-9500667D02*
X116304012Y-10100667D01*
X116270679Y-10167333D01*
X116204012Y-10200667D01*
X116137346Y-10200667D01*
X115904012Y-10200667D02*
X115904012Y-9500667D01*
X115904012Y-9834000D02*
X115504012Y-9834000D01*
X115504012Y-10200667D02*
X115504012Y-9500667D01*
X114870679Y-10200667D02*
X114870679Y-9834000D01*
X114904013Y-9767333D01*
X114970679Y-9734000D01*
X115104013Y-9734000D01*
X115170679Y-9767333D01*
X114870679Y-10167333D02*
X114937346Y-10200667D01*
X115104013Y-10200667D01*
X115170679Y-10167333D01*
X115204013Y-10100667D01*
X115204013Y-10034000D01*
X115170679Y-9967333D01*
X115104013Y-9934000D01*
X114937346Y-9934000D01*
X114870679Y-9900667D01*
X114537346Y-10200667D02*
X114537346Y-9734000D01*
X114537346Y-9867333D02*
X114504013Y-9800667D01*
X114470680Y-9767333D01*
X114404013Y-9734000D01*
X114337346Y-9734000D01*
X113804013Y-10200667D02*
X113804013Y-9500667D01*
X113804013Y-10167333D02*
X113870680Y-10200667D01*
X114004013Y-10200667D01*
X114070680Y-10167333D01*
X114104013Y-10134000D01*
X114137347Y-10067333D01*
X114137347Y-9867333D01*
X114104013Y-9800667D01*
X114070680Y-9767333D01*
X114004013Y-9734000D01*
X113870680Y-9734000D01*
X113804013Y-9767333D01*
X113537347Y-9734000D02*
X113404014Y-10200667D01*
X113270680Y-9867333D01*
X113137347Y-10200667D01*
X113004014Y-9734000D01*
X112437347Y-10200667D02*
X112437347Y-9834000D01*
X112470681Y-9767333D01*
X112537347Y-9734000D01*
X112670681Y-9734000D01*
X112737347Y-9767333D01*
X112437347Y-10167333D02*
X112504014Y-10200667D01*
X112670681Y-10200667D01*
X112737347Y-10167333D01*
X112770681Y-10100667D01*
X112770681Y-10034000D01*
X112737347Y-9967333D01*
X112670681Y-9934000D01*
X112504014Y-9934000D01*
X112437347Y-9900667D01*
X112104014Y-10200667D02*
X112104014Y-9734000D01*
X112104014Y-9867333D02*
X112070681Y-9800667D01*
X112037348Y-9767333D01*
X111970681Y-9734000D01*
X111904014Y-9734000D01*
X111404015Y-10167333D02*
X111470681Y-10200667D01*
X111604015Y-10200667D01*
X111670681Y-10167333D01*
X111704015Y-10100667D01*
X111704015Y-9834000D01*
X111670681Y-9767333D01*
X111604015Y-9734000D01*
X111470681Y-9734000D01*
X111404015Y-9767333D01*
X111370681Y-9834000D01*
X111370681Y-9900667D01*
X111704015Y-9967333D01*
X158437333Y-11400667D02*
X158670667Y-11067333D01*
X158837333Y-11400667D02*
X158837333Y-10700667D01*
X158570667Y-10700667D01*
X158504000Y-10734000D01*
X158470667Y-10767333D01*
X158437333Y-10834000D01*
X158437333Y-10934000D01*
X158470667Y-11000667D01*
X158504000Y-11034000D01*
X158570667Y-11067333D01*
X158837333Y-11067333D01*
X157870667Y-11367333D02*
X157937333Y-11400667D01*
X158070667Y-11400667D01*
X158137333Y-11367333D01*
X158170667Y-11300667D01*
X158170667Y-11034000D01*
X158137333Y-10967333D01*
X158070667Y-10934000D01*
X157937333Y-10934000D01*
X157870667Y-10967333D01*
X157837333Y-11034000D01*
X157837333Y-11100667D01*
X158170667Y-11167333D01*
X157537333Y-10934000D02*
X157537333Y-11634000D01*
X157537333Y-10967333D02*
X157470667Y-10934000D01*
X157337333Y-10934000D01*
X157270667Y-10967333D01*
X157237333Y-11000667D01*
X157204000Y-11067333D01*
X157204000Y-11267333D01*
X157237333Y-11334000D01*
X157270667Y-11367333D01*
X157337333Y-11400667D01*
X157470667Y-11400667D01*
X157537333Y-11367333D01*
X156804000Y-11400667D02*
X156870667Y-11367333D01*
X156904000Y-11300667D01*
X156904000Y-10700667D01*
X156237333Y-11400667D02*
X156237333Y-11034000D01*
X156270667Y-10967333D01*
X156337333Y-10934000D01*
X156470667Y-10934000D01*
X156537333Y-10967333D01*
X156237333Y-11367333D02*
X156304000Y-11400667D01*
X156470667Y-11400667D01*
X156537333Y-11367333D01*
X156570667Y-11300667D01*
X156570667Y-11234000D01*
X156537333Y-11167333D01*
X156470667Y-11134000D01*
X156304000Y-11134000D01*
X156237333Y-11100667D01*
X155604000Y-11367333D02*
X155670667Y-11400667D01*
X155804000Y-11400667D01*
X155870667Y-11367333D01*
X155904000Y-11334000D01*
X155937334Y-11267333D01*
X155937334Y-11067333D01*
X155904000Y-11000667D01*
X155870667Y-10967333D01*
X155804000Y-10934000D01*
X155670667Y-10934000D01*
X155604000Y-10967333D01*
X155037334Y-11367333D02*
X155104000Y-11400667D01*
X155237334Y-11400667D01*
X155304000Y-11367333D01*
X155337334Y-11300667D01*
X155337334Y-11034000D01*
X155304000Y-10967333D01*
X155237334Y-10934000D01*
X155104000Y-10934000D01*
X155037334Y-10967333D01*
X155004000Y-11034000D01*
X155004000Y-11100667D01*
X155337334Y-11167333D01*
X154704000Y-11400667D02*
X154704000Y-10934000D01*
X154704000Y-11000667D02*
X154670667Y-10967333D01*
X154604000Y-10934000D01*
X154504000Y-10934000D01*
X154437334Y-10967333D01*
X154404000Y-11034000D01*
X154404000Y-11400667D01*
X154404000Y-11034000D02*
X154370667Y-10967333D01*
X154304000Y-10934000D01*
X154204000Y-10934000D01*
X154137334Y-10967333D01*
X154104000Y-11034000D01*
X154104000Y-11400667D01*
X153504001Y-11367333D02*
X153570667Y-11400667D01*
X153704001Y-11400667D01*
X153770667Y-11367333D01*
X153804001Y-11300667D01*
X153804001Y-11034000D01*
X153770667Y-10967333D01*
X153704001Y-10934000D01*
X153570667Y-10934000D01*
X153504001Y-10967333D01*
X153470667Y-11034000D01*
X153470667Y-11100667D01*
X153804001Y-11167333D01*
X153170667Y-10934000D02*
X153170667Y-11400667D01*
X153170667Y-11000667D02*
X153137334Y-10967333D01*
X153070667Y-10934000D01*
X152970667Y-10934000D01*
X152904001Y-10967333D01*
X152870667Y-11034000D01*
X152870667Y-11400667D01*
X152637334Y-10934000D02*
X152370668Y-10934000D01*
X152537334Y-10700667D02*
X152537334Y-11300667D01*
X152504001Y-11367333D01*
X152437334Y-11400667D01*
X152370668Y-11400667D01*
X151604001Y-10934000D02*
X151604001Y-11634000D01*
X151604001Y-10967333D02*
X151537335Y-10934000D01*
X151404001Y-10934000D01*
X151337335Y-10967333D01*
X151304001Y-11000667D01*
X151270668Y-11067333D01*
X151270668Y-11267333D01*
X151304001Y-11334000D01*
X151337335Y-11367333D01*
X151404001Y-11400667D01*
X151537335Y-11400667D01*
X151604001Y-11367333D01*
X150670668Y-11400667D02*
X150670668Y-11034000D01*
X150704002Y-10967333D01*
X150770668Y-10934000D01*
X150904002Y-10934000D01*
X150970668Y-10967333D01*
X150670668Y-11367333D02*
X150737335Y-11400667D01*
X150904002Y-11400667D01*
X150970668Y-11367333D01*
X151004002Y-11300667D01*
X151004002Y-11234000D01*
X150970668Y-11167333D01*
X150904002Y-11134000D01*
X150737335Y-11134000D01*
X150670668Y-11100667D01*
X150337335Y-11400667D02*
X150337335Y-10934000D01*
X150337335Y-11067333D02*
X150304002Y-11000667D01*
X150270669Y-10967333D01*
X150204002Y-10934000D01*
X150137335Y-10934000D01*
X150004002Y-10934000D02*
X149737336Y-10934000D01*
X149904002Y-10700667D02*
X149904002Y-11300667D01*
X149870669Y-11367333D01*
X149804002Y-11400667D01*
X149737336Y-11400667D01*
X149537336Y-11367333D02*
X149470669Y-11400667D01*
X149337336Y-11400667D01*
X149270669Y-11367333D01*
X149237336Y-11300667D01*
X149237336Y-11267333D01*
X149270669Y-11200667D01*
X149337336Y-11167333D01*
X149437336Y-11167333D01*
X149504002Y-11134000D01*
X149537336Y-11067333D01*
X149537336Y-11034000D01*
X149504002Y-10967333D01*
X149437336Y-10934000D01*
X149337336Y-10934000D01*
X149270669Y-10967333D01*
X148904002Y-11367333D02*
X148904002Y-11400667D01*
X148937335Y-11467333D01*
X148970669Y-11500667D01*
X147770669Y-10934000D02*
X147770669Y-11400667D01*
X148070669Y-10934000D02*
X148070669Y-11300667D01*
X148037336Y-11367333D01*
X147970669Y-11400667D01*
X147870669Y-11400667D01*
X147804003Y-11367333D01*
X147770669Y-11334000D01*
X147437336Y-10934000D02*
X147437336Y-11634000D01*
X147437336Y-10967333D02*
X147370670Y-10934000D01*
X147237336Y-10934000D01*
X147170670Y-10967333D01*
X147137336Y-11000667D01*
X147104003Y-11067333D01*
X147104003Y-11267333D01*
X147137336Y-11334000D01*
X147170670Y-11367333D01*
X147237336Y-11400667D01*
X147370670Y-11400667D01*
X147437336Y-11367333D01*
X146504003Y-10934000D02*
X146504003Y-11500667D01*
X146537337Y-11567333D01*
X146570670Y-11600667D01*
X146637337Y-11634000D01*
X146737337Y-11634000D01*
X146804003Y-11600667D01*
X146504003Y-11367333D02*
X146570670Y-11400667D01*
X146704003Y-11400667D01*
X146770670Y-11367333D01*
X146804003Y-11334000D01*
X146837337Y-11267333D01*
X146837337Y-11067333D01*
X146804003Y-11000667D01*
X146770670Y-10967333D01*
X146704003Y-10934000D01*
X146570670Y-10934000D01*
X146504003Y-10967333D01*
X146170670Y-11400667D02*
X146170670Y-10934000D01*
X146170670Y-11067333D02*
X146137337Y-11000667D01*
X146104004Y-10967333D01*
X146037337Y-10934000D01*
X145970670Y-10934000D01*
X145437337Y-11400667D02*
X145437337Y-11034000D01*
X145470671Y-10967333D01*
X145537337Y-10934000D01*
X145670671Y-10934000D01*
X145737337Y-10967333D01*
X145437337Y-11367333D02*
X145504004Y-11400667D01*
X145670671Y-11400667D01*
X145737337Y-11367333D01*
X145770671Y-11300667D01*
X145770671Y-11234000D01*
X145737337Y-11167333D01*
X145670671Y-11134000D01*
X145504004Y-11134000D01*
X145437337Y-11100667D01*
X144804004Y-11400667D02*
X144804004Y-10700667D01*
X144804004Y-11367333D02*
X144870671Y-11400667D01*
X145004004Y-11400667D01*
X145070671Y-11367333D01*
X145104004Y-11334000D01*
X145137338Y-11267333D01*
X145137338Y-11067333D01*
X145104004Y-11000667D01*
X145070671Y-10967333D01*
X145004004Y-10934000D01*
X144870671Y-10934000D01*
X144804004Y-10967333D01*
X144204005Y-11367333D02*
X144270671Y-11400667D01*
X144404005Y-11400667D01*
X144470671Y-11367333D01*
X144504005Y-11300667D01*
X144504005Y-11034000D01*
X144470671Y-10967333D01*
X144404005Y-10934000D01*
X144270671Y-10934000D01*
X144204005Y-10967333D01*
X144170671Y-11034000D01*
X144170671Y-11100667D01*
X144504005Y-11167333D01*
X143904005Y-11367333D02*
X143837338Y-11400667D01*
X143704005Y-11400667D01*
X143637338Y-11367333D01*
X143604005Y-11300667D01*
X143604005Y-11267333D01*
X143637338Y-11200667D01*
X143704005Y-11167333D01*
X143804005Y-11167333D01*
X143870671Y-11134000D01*
X143904005Y-11067333D01*
X143904005Y-11034000D01*
X143870671Y-10967333D01*
X143804005Y-10934000D01*
X143704005Y-10934000D01*
X143637338Y-10967333D01*
X143270671Y-11367333D02*
X143270671Y-11400667D01*
X143304004Y-11467333D01*
X143337338Y-11500667D01*
X142137338Y-10934000D02*
X142137338Y-11400667D01*
X142437338Y-10934000D02*
X142437338Y-11300667D01*
X142404005Y-11367333D01*
X142337338Y-11400667D01*
X142237338Y-11400667D01*
X142170672Y-11367333D01*
X142137338Y-11334000D01*
X141804005Y-10934000D02*
X141804005Y-11634000D01*
X141804005Y-10967333D02*
X141737339Y-10934000D01*
X141604005Y-10934000D01*
X141537339Y-10967333D01*
X141504005Y-11000667D01*
X141470672Y-11067333D01*
X141470672Y-11267333D01*
X141504005Y-11334000D01*
X141537339Y-11367333D01*
X141604005Y-11400667D01*
X141737339Y-11400667D01*
X141804005Y-11367333D01*
X140870672Y-11400667D02*
X140870672Y-10700667D01*
X140870672Y-11367333D02*
X140937339Y-11400667D01*
X141070672Y-11400667D01*
X141137339Y-11367333D01*
X141170672Y-11334000D01*
X141204006Y-11267333D01*
X141204006Y-11067333D01*
X141170672Y-11000667D01*
X141137339Y-10967333D01*
X141070672Y-10934000D01*
X140937339Y-10934000D01*
X140870672Y-10967333D01*
X140237339Y-11400667D02*
X140237339Y-11034000D01*
X140270673Y-10967333D01*
X140337339Y-10934000D01*
X140470673Y-10934000D01*
X140537339Y-10967333D01*
X140237339Y-11367333D02*
X140304006Y-11400667D01*
X140470673Y-11400667D01*
X140537339Y-11367333D01*
X140570673Y-11300667D01*
X140570673Y-11234000D01*
X140537339Y-11167333D01*
X140470673Y-11134000D01*
X140304006Y-11134000D01*
X140237339Y-11100667D01*
X140004006Y-10934000D02*
X139737340Y-10934000D01*
X139904006Y-10700667D02*
X139904006Y-11300667D01*
X139870673Y-11367333D01*
X139804006Y-11400667D01*
X139737340Y-11400667D01*
X139237340Y-11367333D02*
X139304006Y-11400667D01*
X139437340Y-11400667D01*
X139504006Y-11367333D01*
X139537340Y-11300667D01*
X139537340Y-11034000D01*
X139504006Y-10967333D01*
X139437340Y-10934000D01*
X139304006Y-10934000D01*
X139237340Y-10967333D01*
X139204006Y-11034000D01*
X139204006Y-11100667D01*
X139537340Y-11167333D01*
X138937340Y-11367333D02*
X138870673Y-11400667D01*
X138737340Y-11400667D01*
X138670673Y-11367333D01*
X138637340Y-11300667D01*
X138637340Y-11267333D01*
X138670673Y-11200667D01*
X138737340Y-11167333D01*
X138837340Y-11167333D01*
X138904006Y-11134000D01*
X138937340Y-11067333D01*
X138937340Y-11034000D01*
X138904006Y-10967333D01*
X138837340Y-10934000D01*
X138737340Y-10934000D01*
X138670673Y-10967333D01*
X138304006Y-11367333D02*
X138304006Y-11400667D01*
X138337339Y-11467333D01*
X138370673Y-11500667D01*
X137470673Y-10934000D02*
X137470673Y-11400667D01*
X137470673Y-11000667D02*
X137437340Y-10967333D01*
X137370673Y-10934000D01*
X137270673Y-10934000D01*
X137204007Y-10967333D01*
X137170673Y-11034000D01*
X137170673Y-11400667D01*
X136570674Y-11367333D02*
X136637340Y-11400667D01*
X136770674Y-11400667D01*
X136837340Y-11367333D01*
X136870674Y-11300667D01*
X136870674Y-11034000D01*
X136837340Y-10967333D01*
X136770674Y-10934000D01*
X136637340Y-10934000D01*
X136570674Y-10967333D01*
X136537340Y-11034000D01*
X136537340Y-11100667D01*
X136870674Y-11167333D01*
X136304007Y-10934000D02*
X136170674Y-11400667D01*
X136037340Y-11067333D01*
X135904007Y-11400667D01*
X135770674Y-10934000D01*
X134670674Y-10934000D02*
X134670674Y-11500667D01*
X134704008Y-11567333D01*
X134737341Y-11600667D01*
X134804008Y-11634000D01*
X134904008Y-11634000D01*
X134970674Y-11600667D01*
X134670674Y-11367333D02*
X134737341Y-11400667D01*
X134870674Y-11400667D01*
X134937341Y-11367333D01*
X134970674Y-11334000D01*
X135004008Y-11267333D01*
X135004008Y-11067333D01*
X134970674Y-11000667D01*
X134937341Y-10967333D01*
X134870674Y-10934000D01*
X134737341Y-10934000D01*
X134670674Y-10967333D01*
X134070675Y-11367333D02*
X134137341Y-11400667D01*
X134270675Y-11400667D01*
X134337341Y-11367333D01*
X134370675Y-11300667D01*
X134370675Y-11034000D01*
X134337341Y-10967333D01*
X134270675Y-10934000D01*
X134137341Y-10934000D01*
X134070675Y-10967333D01*
X134037341Y-11034000D01*
X134037341Y-11100667D01*
X134370675Y-11167333D01*
X133437341Y-11400667D02*
X133437341Y-11034000D01*
X133470675Y-10967333D01*
X133537341Y-10934000D01*
X133670675Y-10934000D01*
X133737341Y-10967333D01*
X133437341Y-11367333D02*
X133504008Y-11400667D01*
X133670675Y-11400667D01*
X133737341Y-11367333D01*
X133770675Y-11300667D01*
X133770675Y-11234000D01*
X133737341Y-11167333D01*
X133670675Y-11134000D01*
X133504008Y-11134000D01*
X133437341Y-11100667D01*
X133104008Y-11400667D02*
X133104008Y-10934000D01*
X133104008Y-11067333D02*
X133070675Y-11000667D01*
X133037342Y-10967333D01*
X132970675Y-10934000D01*
X132904008Y-10934000D01*
X132637342Y-11367333D02*
X132637342Y-11400667D01*
X132670675Y-11467333D01*
X132704009Y-11500667D01*
X131504009Y-11400667D02*
X131504009Y-11034000D01*
X131537343Y-10967333D01*
X131604009Y-10934000D01*
X131737343Y-10934000D01*
X131804009Y-10967333D01*
X131504009Y-11367333D02*
X131570676Y-11400667D01*
X131737343Y-11400667D01*
X131804009Y-11367333D01*
X131837343Y-11300667D01*
X131837343Y-11234000D01*
X131804009Y-11167333D01*
X131737343Y-11134000D01*
X131570676Y-11134000D01*
X131504009Y-11100667D01*
X131170676Y-10934000D02*
X131170676Y-11400667D01*
X131170676Y-11000667D02*
X131137343Y-10967333D01*
X131070676Y-10934000D01*
X130970676Y-10934000D01*
X130904010Y-10967333D01*
X130870676Y-11034000D01*
X130870676Y-11400667D01*
X130237343Y-11400667D02*
X130237343Y-10700667D01*
X130237343Y-11367333D02*
X130304010Y-11400667D01*
X130437343Y-11400667D01*
X130504010Y-11367333D01*
X130537343Y-11334000D01*
X130570677Y-11267333D01*
X130570677Y-11067333D01*
X130537343Y-11000667D01*
X130504010Y-10967333D01*
X130437343Y-10934000D01*
X130304010Y-10934000D01*
X130237343Y-10967333D01*
X129370677Y-11400667D02*
X129370677Y-10934000D01*
X129370677Y-11000667D02*
X129337344Y-10967333D01*
X129270677Y-10934000D01*
X129170677Y-10934000D01*
X129104011Y-10967333D01*
X129070677Y-11034000D01*
X129070677Y-11400667D01*
X129070677Y-11034000D02*
X129037344Y-10967333D01*
X128970677Y-10934000D01*
X128870677Y-10934000D01*
X128804011Y-10967333D01*
X128770677Y-11034000D01*
X128770677Y-11400667D01*
X128137344Y-11400667D02*
X128137344Y-11034000D01*
X128170678Y-10967333D01*
X128237344Y-10934000D01*
X128370678Y-10934000D01*
X128437344Y-10967333D01*
X128137344Y-11367333D02*
X128204011Y-11400667D01*
X128370678Y-11400667D01*
X128437344Y-11367333D01*
X128470678Y-11300667D01*
X128470678Y-11234000D01*
X128437344Y-11167333D01*
X128370678Y-11134000D01*
X128204011Y-11134000D01*
X128137344Y-11100667D01*
X127804011Y-11400667D02*
X127804011Y-10934000D01*
X127804011Y-11067333D02*
X127770678Y-11000667D01*
X127737345Y-10967333D01*
X127670678Y-10934000D01*
X127604011Y-10934000D01*
X127370678Y-11400667D02*
X127370678Y-10700667D01*
X127304012Y-11134000D02*
X127104012Y-11400667D01*
X127104012Y-10934000D02*
X127370678Y-11200667D01*
X126537345Y-11367333D02*
X126604011Y-11400667D01*
X126737345Y-11400667D01*
X126804011Y-11367333D01*
X126837345Y-11300667D01*
X126837345Y-11034000D01*
X126804011Y-10967333D01*
X126737345Y-10934000D01*
X126604011Y-10934000D01*
X126537345Y-10967333D01*
X126504011Y-11034000D01*
X126504011Y-11100667D01*
X126837345Y-11167333D01*
X126304011Y-10934000D02*
X126037345Y-10934000D01*
X126204011Y-10700667D02*
X126204011Y-11300667D01*
X126170678Y-11367333D01*
X126104011Y-11400667D01*
X126037345Y-11400667D01*
X125804011Y-11400667D02*
X125804011Y-10934000D01*
X125804011Y-10700667D02*
X125837345Y-10734000D01*
X125804011Y-10767333D01*
X125770678Y-10734000D01*
X125804011Y-10700667D01*
X125804011Y-10767333D01*
X125470678Y-10934000D02*
X125470678Y-11400667D01*
X125470678Y-11000667D02*
X125437345Y-10967333D01*
X125370678Y-10934000D01*
X125270678Y-10934000D01*
X125204012Y-10967333D01*
X125170678Y-11034000D01*
X125170678Y-11400667D01*
X124537345Y-10934000D02*
X124537345Y-11500667D01*
X124570679Y-11567333D01*
X124604012Y-11600667D01*
X124670679Y-11634000D01*
X124770679Y-11634000D01*
X124837345Y-11600667D01*
X124537345Y-11367333D02*
X124604012Y-11400667D01*
X124737345Y-11400667D01*
X124804012Y-11367333D01*
X124837345Y-11334000D01*
X124870679Y-11267333D01*
X124870679Y-11067333D01*
X124837345Y-11000667D01*
X124804012Y-10967333D01*
X124737345Y-10934000D01*
X124604012Y-10934000D01*
X124537345Y-10967333D01*
X123670679Y-10934000D02*
X123670679Y-11634000D01*
X123670679Y-10967333D02*
X123604013Y-10934000D01*
X123470679Y-10934000D01*
X123404013Y-10967333D01*
X123370679Y-11000667D01*
X123337346Y-11067333D01*
X123337346Y-11267333D01*
X123370679Y-11334000D01*
X123404013Y-11367333D01*
X123470679Y-11400667D01*
X123604013Y-11400667D01*
X123670679Y-11367333D01*
X122737346Y-11400667D02*
X122737346Y-11034000D01*
X122770680Y-10967333D01*
X122837346Y-10934000D01*
X122970680Y-10934000D01*
X123037346Y-10967333D01*
X122737346Y-11367333D02*
X122804013Y-11400667D01*
X122970680Y-11400667D01*
X123037346Y-11367333D01*
X123070680Y-11300667D01*
X123070680Y-11234000D01*
X123037346Y-11167333D01*
X122970680Y-11134000D01*
X122804013Y-11134000D01*
X122737346Y-11100667D01*
X122404013Y-10934000D02*
X122404013Y-11634000D01*
X122404013Y-10967333D02*
X122337347Y-10934000D01*
X122204013Y-10934000D01*
X122137347Y-10967333D01*
X122104013Y-11000667D01*
X122070680Y-11067333D01*
X122070680Y-11267333D01*
X122104013Y-11334000D01*
X122137347Y-11367333D01*
X122204013Y-11400667D01*
X122337347Y-11400667D01*
X122404013Y-11367333D01*
X121770680Y-11334000D02*
X121737347Y-11367333D01*
X121770680Y-11400667D01*
X121804014Y-11367333D01*
X121770680Y-11334000D01*
X121770680Y-11400667D01*
X121770680Y-10967333D02*
X121737347Y-11000667D01*
X121770680Y-11034000D01*
X121804014Y-11000667D01*
X121770680Y-10967333D01*
X121770680Y-11034000D01*
X120670681Y-11034000D02*
X120570681Y-11067333D01*
X120537348Y-11100667D01*
X120504014Y-11167333D01*
X120504014Y-11267333D01*
X120537348Y-11334000D01*
X120570681Y-11367333D01*
X120637348Y-11400667D01*
X120904014Y-11400667D01*
X120904014Y-10700667D01*
X120670681Y-10700667D01*
X120604014Y-10734000D01*
X120570681Y-10767333D01*
X120537348Y-10834000D01*
X120537348Y-10900667D01*
X120570681Y-10967333D01*
X120604014Y-11000667D01*
X120670681Y-11034000D01*
X120904014Y-11034000D01*
X119937348Y-11367333D02*
X120004014Y-11400667D01*
X120137348Y-11400667D01*
X120204014Y-11367333D01*
X120237348Y-11300667D01*
X120237348Y-11034000D01*
X120204014Y-10967333D01*
X120137348Y-10934000D01*
X120004014Y-10934000D01*
X119937348Y-10967333D01*
X119904014Y-11034000D01*
X119904014Y-11100667D01*
X120237348Y-11167333D01*
X119504014Y-11400667D02*
X119570681Y-11367333D01*
X119604014Y-11300667D01*
X119604014Y-10700667D01*
X119237347Y-11400667D02*
X119237347Y-10934000D01*
X119237347Y-10700667D02*
X119270681Y-10734000D01*
X119237347Y-10767333D01*
X119204014Y-10734000D01*
X119237347Y-10700667D01*
X119237347Y-10767333D01*
X118637348Y-11367333D02*
X118704014Y-11400667D01*
X118837348Y-11400667D01*
X118904014Y-11367333D01*
X118937348Y-11300667D01*
X118937348Y-11034000D01*
X118904014Y-10967333D01*
X118837348Y-10934000D01*
X118704014Y-10934000D01*
X118637348Y-10967333D01*
X118604014Y-11034000D01*
X118604014Y-11100667D01*
X118937348Y-11167333D01*
X118370681Y-10934000D02*
X118204014Y-11400667D01*
X118037348Y-10934000D01*
X117670681Y-11400667D02*
X117737348Y-11367333D01*
X117770681Y-11334000D01*
X117804015Y-11267333D01*
X117804015Y-11067333D01*
X117770681Y-11000667D01*
X117737348Y-10967333D01*
X117670681Y-10934000D01*
X117570681Y-10934000D01*
X117504015Y-10967333D01*
X117470681Y-11000667D01*
X117437348Y-11067333D01*
X117437348Y-11267333D01*
X117470681Y-11334000D01*
X117504015Y-11367333D01*
X117570681Y-11400667D01*
X117670681Y-11400667D01*
X117237348Y-10934000D02*
X116970682Y-10934000D01*
X117137348Y-10700667D02*
X117137348Y-11300667D01*
X117104015Y-11367333D01*
X117037348Y-11400667D01*
X116970682Y-11400667D01*
X116737348Y-11400667D02*
X116737348Y-10934000D01*
X116737348Y-11067333D02*
X116704015Y-11000667D01*
X116670682Y-10967333D01*
X116604015Y-10934000D01*
X116537348Y-10934000D01*
X116204015Y-11400667D02*
X116270682Y-11367333D01*
X116304015Y-11334000D01*
X116337349Y-11267333D01*
X116337349Y-11067333D01*
X116304015Y-11000667D01*
X116270682Y-10967333D01*
X116204015Y-10934000D01*
X116104015Y-10934000D01*
X116037349Y-10967333D01*
X116004015Y-11000667D01*
X115970682Y-11067333D01*
X115970682Y-11267333D01*
X116004015Y-11334000D01*
X116037349Y-11367333D01*
X116104015Y-11400667D01*
X116204015Y-11400667D01*
X115670682Y-10934000D02*
X115670682Y-11400667D01*
X115670682Y-11000667D02*
X115637349Y-10967333D01*
X115570682Y-10934000D01*
X115470682Y-10934000D01*
X115404016Y-10967333D01*
X115370682Y-11034000D01*
X115370682Y-11400667D01*
X115037349Y-11334000D02*
X115004016Y-11367333D01*
X115037349Y-11400667D01*
X115070683Y-11367333D01*
X115037349Y-11334000D01*
X115037349Y-11400667D01*
X114404016Y-11367333D02*
X114470683Y-11400667D01*
X114604016Y-11400667D01*
X114670683Y-11367333D01*
X114704016Y-11334000D01*
X114737350Y-11267333D01*
X114737350Y-11067333D01*
X114704016Y-11000667D01*
X114670683Y-10967333D01*
X114604016Y-10934000D01*
X114470683Y-10934000D01*
X114404016Y-10967333D01*
X114004016Y-11400667D02*
X114070683Y-11367333D01*
X114104016Y-11334000D01*
X114137350Y-11267333D01*
X114137350Y-11067333D01*
X114104016Y-11000667D01*
X114070683Y-10967333D01*
X114004016Y-10934000D01*
X113904016Y-10934000D01*
X113837350Y-10967333D01*
X113804016Y-11000667D01*
X113770683Y-11067333D01*
X113770683Y-11267333D01*
X113804016Y-11334000D01*
X113837350Y-11367333D01*
X113904016Y-11400667D01*
X114004016Y-11400667D01*
X113470683Y-11400667D02*
X113470683Y-10934000D01*
X113470683Y-11000667D02*
X113437350Y-10967333D01*
X113370683Y-10934000D01*
X113270683Y-10934000D01*
X113204017Y-10967333D01*
X113170683Y-11034000D01*
X113170683Y-11400667D01*
X113170683Y-11034000D02*
X113137350Y-10967333D01*
X113070683Y-10934000D01*
X112970683Y-10934000D01*
X112904017Y-10967333D01*
X112870683Y-11034000D01*
X112870683Y-11400667D01*
X158604000Y-12234000D02*
X158837333Y-12234000D01*
X158837333Y-12600667D02*
X158837333Y-11900667D01*
X158504000Y-11900667D01*
X158137333Y-12600667D02*
X158204000Y-12567333D01*
X158237333Y-12534000D01*
X158270667Y-12467333D01*
X158270667Y-12267333D01*
X158237333Y-12200667D01*
X158204000Y-12167333D01*
X158137333Y-12134000D01*
X158037333Y-12134000D01*
X157970667Y-12167333D01*
X157937333Y-12200667D01*
X157904000Y-12267333D01*
X157904000Y-12467333D01*
X157937333Y-12534000D01*
X157970667Y-12567333D01*
X158037333Y-12600667D01*
X158137333Y-12600667D01*
X157604000Y-12600667D02*
X157604000Y-12134000D01*
X157604000Y-12267333D02*
X157570667Y-12200667D01*
X157537334Y-12167333D01*
X157470667Y-12134000D01*
X157404000Y-12134000D01*
X156637334Y-12600667D02*
X156637334Y-11900667D01*
X156337334Y-12600667D02*
X156337334Y-12234000D01*
X156370668Y-12167333D01*
X156437334Y-12134000D01*
X156537334Y-12134000D01*
X156604001Y-12167333D01*
X156637334Y-12200667D01*
X155737335Y-12567333D02*
X155804001Y-12600667D01*
X155937335Y-12600667D01*
X156004001Y-12567333D01*
X156037335Y-12500667D01*
X156037335Y-12234000D01*
X156004001Y-12167333D01*
X155937335Y-12134000D01*
X155804001Y-12134000D01*
X155737335Y-12167333D01*
X155704001Y-12234000D01*
X155704001Y-12300667D01*
X156037335Y-12367333D01*
X155304001Y-12600667D02*
X155370668Y-12567333D01*
X155404001Y-12500667D01*
X155404001Y-11900667D01*
X155037334Y-12134000D02*
X155037334Y-12834000D01*
X155037334Y-12167333D02*
X154970668Y-12134000D01*
X154837334Y-12134000D01*
X154770668Y-12167333D01*
X154737334Y-12200667D01*
X154704001Y-12267333D01*
X154704001Y-12467333D01*
X154737334Y-12534000D01*
X154770668Y-12567333D01*
X154837334Y-12600667D01*
X154970668Y-12600667D01*
X155037334Y-12567333D01*
X154370668Y-12567333D02*
X154370668Y-12600667D01*
X154404001Y-12667333D01*
X154437335Y-12700667D01*
X153537335Y-12600667D02*
X153537335Y-11900667D01*
X153537335Y-12167333D02*
X153470669Y-12134000D01*
X153337335Y-12134000D01*
X153270669Y-12167333D01*
X153237335Y-12200667D01*
X153204002Y-12267333D01*
X153204002Y-12467333D01*
X153237335Y-12534000D01*
X153270669Y-12567333D01*
X153337335Y-12600667D01*
X153470669Y-12600667D01*
X153537335Y-12567333D01*
X152604002Y-12134000D02*
X152604002Y-12600667D01*
X152904002Y-12134000D02*
X152904002Y-12500667D01*
X152870669Y-12567333D01*
X152804002Y-12600667D01*
X152704002Y-12600667D01*
X152637336Y-12567333D01*
X152604002Y-12534000D01*
X151970669Y-12134000D02*
X151970669Y-12700667D01*
X152004003Y-12767333D01*
X152037336Y-12800667D01*
X152104003Y-12834000D01*
X152204003Y-12834000D01*
X152270669Y-12800667D01*
X151970669Y-12567333D02*
X152037336Y-12600667D01*
X152170669Y-12600667D01*
X152237336Y-12567333D01*
X152270669Y-12534000D01*
X152304003Y-12467333D01*
X152304003Y-12267333D01*
X152270669Y-12200667D01*
X152237336Y-12167333D01*
X152170669Y-12134000D01*
X152037336Y-12134000D01*
X151970669Y-12167333D01*
X151104003Y-12600667D02*
X151104003Y-12134000D01*
X151104003Y-12267333D02*
X151070670Y-12200667D01*
X151037337Y-12167333D01*
X150970670Y-12134000D01*
X150904003Y-12134000D01*
X150404004Y-12567333D02*
X150470670Y-12600667D01*
X150604004Y-12600667D01*
X150670670Y-12567333D01*
X150704004Y-12500667D01*
X150704004Y-12234000D01*
X150670670Y-12167333D01*
X150604004Y-12134000D01*
X150470670Y-12134000D01*
X150404004Y-12167333D01*
X150370670Y-12234000D01*
X150370670Y-12300667D01*
X150704004Y-12367333D01*
X150070670Y-12134000D02*
X150070670Y-12834000D01*
X150070670Y-12167333D02*
X150004004Y-12134000D01*
X149870670Y-12134000D01*
X149804004Y-12167333D01*
X149770670Y-12200667D01*
X149737337Y-12267333D01*
X149737337Y-12467333D01*
X149770670Y-12534000D01*
X149804004Y-12567333D01*
X149870670Y-12600667D01*
X150004004Y-12600667D01*
X150070670Y-12567333D01*
X149337337Y-12600667D02*
X149404004Y-12567333D01*
X149437337Y-12534000D01*
X149470671Y-12467333D01*
X149470671Y-12267333D01*
X149437337Y-12200667D01*
X149404004Y-12167333D01*
X149337337Y-12134000D01*
X149237337Y-12134000D01*
X149170671Y-12167333D01*
X149137337Y-12200667D01*
X149104004Y-12267333D01*
X149104004Y-12467333D01*
X149137337Y-12534000D01*
X149170671Y-12567333D01*
X149237337Y-12600667D01*
X149337337Y-12600667D01*
X148804004Y-12600667D02*
X148804004Y-12134000D01*
X148804004Y-12267333D02*
X148770671Y-12200667D01*
X148737338Y-12167333D01*
X148670671Y-12134000D01*
X148604004Y-12134000D01*
X148470671Y-12134000D02*
X148204005Y-12134000D01*
X148370671Y-11900667D02*
X148370671Y-12500667D01*
X148337338Y-12567333D01*
X148270671Y-12600667D01*
X148204005Y-12600667D01*
X147970671Y-12600667D02*
X147970671Y-12134000D01*
X147970671Y-11900667D02*
X148004005Y-11934000D01*
X147970671Y-11967333D01*
X147937338Y-11934000D01*
X147970671Y-11900667D01*
X147970671Y-11967333D01*
X147637338Y-12134000D02*
X147637338Y-12600667D01*
X147637338Y-12200667D02*
X147604005Y-12167333D01*
X147537338Y-12134000D01*
X147437338Y-12134000D01*
X147370672Y-12167333D01*
X147337338Y-12234000D01*
X147337338Y-12600667D01*
X146704005Y-12134000D02*
X146704005Y-12700667D01*
X146737339Y-12767333D01*
X146770672Y-12800667D01*
X146837339Y-12834000D01*
X146937339Y-12834000D01*
X147004005Y-12800667D01*
X146704005Y-12567333D02*
X146770672Y-12600667D01*
X146904005Y-12600667D01*
X146970672Y-12567333D01*
X147004005Y-12534000D01*
X147037339Y-12467333D01*
X147037339Y-12267333D01*
X147004005Y-12200667D01*
X146970672Y-12167333D01*
X146904005Y-12134000D01*
X146770672Y-12134000D01*
X146704005Y-12167333D01*
X146337339Y-12567333D02*
X146337339Y-12600667D01*
X146370672Y-12667333D01*
X146404006Y-12700667D01*
X145204006Y-12600667D02*
X145204006Y-11900667D01*
X145204006Y-12567333D02*
X145270673Y-12600667D01*
X145404006Y-12600667D01*
X145470673Y-12567333D01*
X145504006Y-12534000D01*
X145537340Y-12467333D01*
X145537340Y-12267333D01*
X145504006Y-12200667D01*
X145470673Y-12167333D01*
X145404006Y-12134000D01*
X145270673Y-12134000D01*
X145204006Y-12167333D01*
X144604007Y-12567333D02*
X144670673Y-12600667D01*
X144804007Y-12600667D01*
X144870673Y-12567333D01*
X144904007Y-12500667D01*
X144904007Y-12234000D01*
X144870673Y-12167333D01*
X144804007Y-12134000D01*
X144670673Y-12134000D01*
X144604007Y-12167333D01*
X144570673Y-12234000D01*
X144570673Y-12300667D01*
X144904007Y-12367333D01*
X144337340Y-12134000D02*
X144170673Y-12600667D01*
X144004007Y-12134000D01*
X143737340Y-12334000D02*
X143204007Y-12334000D01*
X142870673Y-12600667D02*
X142870673Y-11900667D01*
X142870673Y-12167333D02*
X142804007Y-12134000D01*
X142670673Y-12134000D01*
X142604007Y-12167333D01*
X142570673Y-12200667D01*
X142537340Y-12267333D01*
X142537340Y-12467333D01*
X142570673Y-12534000D01*
X142604007Y-12567333D01*
X142670673Y-12600667D01*
X142804007Y-12600667D01*
X142870673Y-12567333D01*
X142137340Y-12600667D02*
X142204007Y-12567333D01*
X142237340Y-12500667D01*
X142237340Y-11900667D01*
X141770673Y-12600667D02*
X141837340Y-12567333D01*
X141870673Y-12534000D01*
X141904007Y-12467333D01*
X141904007Y-12267333D01*
X141870673Y-12200667D01*
X141837340Y-12167333D01*
X141770673Y-12134000D01*
X141670673Y-12134000D01*
X141604007Y-12167333D01*
X141570673Y-12200667D01*
X141537340Y-12267333D01*
X141537340Y-12467333D01*
X141570673Y-12534000D01*
X141604007Y-12567333D01*
X141670673Y-12600667D01*
X141770673Y-12600667D01*
X140937340Y-12134000D02*
X140937340Y-12700667D01*
X140970674Y-12767333D01*
X141004007Y-12800667D01*
X141070674Y-12834000D01*
X141170674Y-12834000D01*
X141237340Y-12800667D01*
X140937340Y-12567333D02*
X141004007Y-12600667D01*
X141137340Y-12600667D01*
X141204007Y-12567333D01*
X141237340Y-12534000D01*
X141270674Y-12467333D01*
X141270674Y-12267333D01*
X141237340Y-12200667D01*
X141204007Y-12167333D01*
X141137340Y-12134000D01*
X141004007Y-12134000D01*
X140937340Y-12167333D01*
X140637341Y-12567333D02*
X140570674Y-12600667D01*
X140437341Y-12600667D01*
X140370674Y-12567333D01*
X140337341Y-12500667D01*
X140337341Y-12467333D01*
X140370674Y-12400667D01*
X140437341Y-12367333D01*
X140537341Y-12367333D01*
X140604007Y-12334000D01*
X140637341Y-12267333D01*
X140637341Y-12234000D01*
X140604007Y-12167333D01*
X140537341Y-12134000D01*
X140437341Y-12134000D01*
X140370674Y-12167333D01*
X140004007Y-12567333D02*
X140004007Y-12600667D01*
X140037340Y-12667333D01*
X140070674Y-12700667D01*
X139070674Y-12600667D02*
X139137341Y-12567333D01*
X139170674Y-12534000D01*
X139204008Y-12467333D01*
X139204008Y-12267333D01*
X139170674Y-12200667D01*
X139137341Y-12167333D01*
X139070674Y-12134000D01*
X138970674Y-12134000D01*
X138904008Y-12167333D01*
X138870674Y-12200667D01*
X138837341Y-12267333D01*
X138837341Y-12467333D01*
X138870674Y-12534000D01*
X138904008Y-12567333D01*
X138970674Y-12600667D01*
X139070674Y-12600667D01*
X138537341Y-12600667D02*
X138537341Y-12134000D01*
X138537341Y-12267333D02*
X138504008Y-12200667D01*
X138470675Y-12167333D01*
X138404008Y-12134000D01*
X138337341Y-12134000D01*
X137570675Y-12134000D02*
X137570675Y-12734000D01*
X137604009Y-12800667D01*
X137670675Y-12834000D01*
X137704009Y-12834000D01*
X137570675Y-11900667D02*
X137604009Y-11934000D01*
X137570675Y-11967333D01*
X137537342Y-11934000D01*
X137570675Y-11900667D01*
X137570675Y-11967333D01*
X137137342Y-12600667D02*
X137204009Y-12567333D01*
X137237342Y-12534000D01*
X137270676Y-12467333D01*
X137270676Y-12267333D01*
X137237342Y-12200667D01*
X137204009Y-12167333D01*
X137137342Y-12134000D01*
X137037342Y-12134000D01*
X136970676Y-12167333D01*
X136937342Y-12200667D01*
X136904009Y-12267333D01*
X136904009Y-12467333D01*
X136937342Y-12534000D01*
X136970676Y-12567333D01*
X137037342Y-12600667D01*
X137137342Y-12600667D01*
X136670676Y-12134000D02*
X136504009Y-12600667D01*
X136337343Y-12134000D02*
X136504009Y-12600667D01*
X136570676Y-12767333D01*
X136604009Y-12800667D01*
X136670676Y-12834000D01*
X135237343Y-12600667D02*
X135237343Y-12234000D01*
X135270677Y-12167333D01*
X135337343Y-12134000D01*
X135470677Y-12134000D01*
X135537343Y-12167333D01*
X135237343Y-12567333D02*
X135304010Y-12600667D01*
X135470677Y-12600667D01*
X135537343Y-12567333D01*
X135570677Y-12500667D01*
X135570677Y-12434000D01*
X135537343Y-12367333D01*
X135470677Y-12334000D01*
X135304010Y-12334000D01*
X135237343Y-12300667D01*
X135004010Y-12134000D02*
X134737344Y-12134000D01*
X134904010Y-11900667D02*
X134904010Y-12500667D01*
X134870677Y-12567333D01*
X134804010Y-12600667D01*
X134737344Y-12600667D01*
X134037344Y-12134000D02*
X133870677Y-12600667D01*
X133704011Y-12134000D02*
X133870677Y-12600667D01*
X133937344Y-12767333D01*
X133970677Y-12800667D01*
X134037344Y-12834000D01*
X133337344Y-12600667D02*
X133404011Y-12567333D01*
X133437344Y-12534000D01*
X133470678Y-12467333D01*
X133470678Y-12267333D01*
X133437344Y-12200667D01*
X133404011Y-12167333D01*
X133337344Y-12134000D01*
X133237344Y-12134000D01*
X133170678Y-12167333D01*
X133137344Y-12200667D01*
X133104011Y-12267333D01*
X133104011Y-12467333D01*
X133137344Y-12534000D01*
X133170678Y-12567333D01*
X133237344Y-12600667D01*
X133337344Y-12600667D01*
X132504011Y-12134000D02*
X132504011Y-12600667D01*
X132804011Y-12134000D02*
X132804011Y-12500667D01*
X132770678Y-12567333D01*
X132704011Y-12600667D01*
X132604011Y-12600667D01*
X132537345Y-12567333D01*
X132504011Y-12534000D01*
X132170678Y-12600667D02*
X132170678Y-12134000D01*
X132170678Y-12267333D02*
X132137345Y-12200667D01*
X132104012Y-12167333D01*
X132037345Y-12134000D01*
X131970678Y-12134000D01*
X131204012Y-12600667D02*
X131204012Y-11900667D01*
X131204012Y-12167333D02*
X131137346Y-12134000D01*
X131004012Y-12134000D01*
X130937346Y-12167333D01*
X130904012Y-12200667D01*
X130870679Y-12267333D01*
X130870679Y-12467333D01*
X130904012Y-12534000D01*
X130937346Y-12567333D01*
X131004012Y-12600667D01*
X131137346Y-12600667D01*
X131204012Y-12567333D01*
X130470679Y-12600667D02*
X130537346Y-12567333D01*
X130570679Y-12534000D01*
X130604013Y-12467333D01*
X130604013Y-12267333D01*
X130570679Y-12200667D01*
X130537346Y-12167333D01*
X130470679Y-12134000D01*
X130370679Y-12134000D01*
X130304013Y-12167333D01*
X130270679Y-12200667D01*
X130237346Y-12267333D01*
X130237346Y-12467333D01*
X130270679Y-12534000D01*
X130304013Y-12567333D01*
X130370679Y-12600667D01*
X130470679Y-12600667D01*
X129937346Y-12134000D02*
X129937346Y-12600667D01*
X129937346Y-12200667D02*
X129904013Y-12167333D01*
X129837346Y-12134000D01*
X129737346Y-12134000D01*
X129670680Y-12167333D01*
X129637346Y-12234000D01*
X129637346Y-12600667D01*
X129304013Y-12600667D02*
X129304013Y-11900667D01*
X129237347Y-12334000D02*
X129037347Y-12600667D01*
X129037347Y-12134000D02*
X129304013Y-12400667D01*
X128470680Y-12567333D02*
X128537346Y-12600667D01*
X128670680Y-12600667D01*
X128737346Y-12567333D01*
X128770680Y-12500667D01*
X128770680Y-12234000D01*
X128737346Y-12167333D01*
X128670680Y-12134000D01*
X128537346Y-12134000D01*
X128470680Y-12167333D01*
X128437346Y-12234000D01*
X128437346Y-12300667D01*
X128770680Y-12367333D01*
X128137346Y-12600667D02*
X128137346Y-12134000D01*
X128137346Y-12267333D02*
X128104013Y-12200667D01*
X128070680Y-12167333D01*
X128004013Y-12134000D01*
X127937346Y-12134000D01*
X127737347Y-12567333D02*
X127670680Y-12600667D01*
X127537347Y-12600667D01*
X127470680Y-12567333D01*
X127437347Y-12500667D01*
X127437347Y-12467333D01*
X127470680Y-12400667D01*
X127537347Y-12367333D01*
X127637347Y-12367333D01*
X127704013Y-12334000D01*
X127737347Y-12267333D01*
X127737347Y-12234000D01*
X127704013Y-12167333D01*
X127637347Y-12134000D01*
X127537347Y-12134000D01*
X127470680Y-12167333D01*
X127137346Y-12334000D02*
X126604013Y-12334000D01*
X125970679Y-12567333D02*
X126037346Y-12600667D01*
X126170679Y-12600667D01*
X126237346Y-12567333D01*
X126270679Y-12534000D01*
X126304013Y-12467333D01*
X126304013Y-12267333D01*
X126270679Y-12200667D01*
X126237346Y-12167333D01*
X126170679Y-12134000D01*
X126037346Y-12134000D01*
X125970679Y-12167333D01*
X125570679Y-12600667D02*
X125637346Y-12567333D01*
X125670679Y-12534000D01*
X125704013Y-12467333D01*
X125704013Y-12267333D01*
X125670679Y-12200667D01*
X125637346Y-12167333D01*
X125570679Y-12134000D01*
X125470679Y-12134000D01*
X125404013Y-12167333D01*
X125370679Y-12200667D01*
X125337346Y-12267333D01*
X125337346Y-12467333D01*
X125370679Y-12534000D01*
X125404013Y-12567333D01*
X125470679Y-12600667D01*
X125570679Y-12600667D01*
X124937346Y-12600667D02*
X125004013Y-12567333D01*
X125037346Y-12534000D01*
X125070680Y-12467333D01*
X125070680Y-12267333D01*
X125037346Y-12200667D01*
X125004013Y-12167333D01*
X124937346Y-12134000D01*
X124837346Y-12134000D01*
X124770680Y-12167333D01*
X124737346Y-12200667D01*
X124704013Y-12267333D01*
X124704013Y-12467333D01*
X124737346Y-12534000D01*
X124770680Y-12567333D01*
X124837346Y-12600667D01*
X124937346Y-12600667D01*
X124304013Y-12600667D02*
X124370680Y-12567333D01*
X124404013Y-12500667D01*
X124404013Y-11900667D01*
X123204013Y-12567333D02*
X123270680Y-12600667D01*
X123404013Y-12600667D01*
X123470680Y-12567333D01*
X123504013Y-12534000D01*
X123537347Y-12467333D01*
X123537347Y-12267333D01*
X123504013Y-12200667D01*
X123470680Y-12167333D01*
X123404013Y-12134000D01*
X123270680Y-12134000D01*
X123204013Y-12167333D01*
X122904013Y-12600667D02*
X122904013Y-12134000D01*
X122904013Y-12267333D02*
X122870680Y-12200667D01*
X122837347Y-12167333D01*
X122770680Y-12134000D01*
X122704013Y-12134000D01*
X122204014Y-12567333D02*
X122270680Y-12600667D01*
X122404014Y-12600667D01*
X122470680Y-12567333D01*
X122504014Y-12500667D01*
X122504014Y-12234000D01*
X122470680Y-12167333D01*
X122404014Y-12134000D01*
X122270680Y-12134000D01*
X122204014Y-12167333D01*
X122170680Y-12234000D01*
X122170680Y-12300667D01*
X122504014Y-12367333D01*
X121570680Y-12600667D02*
X121570680Y-12234000D01*
X121604014Y-12167333D01*
X121670680Y-12134000D01*
X121804014Y-12134000D01*
X121870680Y-12167333D01*
X121570680Y-12567333D02*
X121637347Y-12600667D01*
X121804014Y-12600667D01*
X121870680Y-12567333D01*
X121904014Y-12500667D01*
X121904014Y-12434000D01*
X121870680Y-12367333D01*
X121804014Y-12334000D01*
X121637347Y-12334000D01*
X121570680Y-12300667D01*
X121337347Y-12134000D02*
X121070681Y-12134000D01*
X121237347Y-11900667D02*
X121237347Y-12500667D01*
X121204014Y-12567333D01*
X121137347Y-12600667D01*
X121070681Y-12600667D01*
X120837347Y-12600667D02*
X120837347Y-12134000D01*
X120837347Y-11900667D02*
X120870681Y-11934000D01*
X120837347Y-11967333D01*
X120804014Y-11934000D01*
X120837347Y-11900667D01*
X120837347Y-11967333D01*
X120404014Y-12600667D02*
X120470681Y-12567333D01*
X120504014Y-12534000D01*
X120537348Y-12467333D01*
X120537348Y-12267333D01*
X120504014Y-12200667D01*
X120470681Y-12167333D01*
X120404014Y-12134000D01*
X120304014Y-12134000D01*
X120237348Y-12167333D01*
X120204014Y-12200667D01*
X120170681Y-12267333D01*
X120170681Y-12467333D01*
X120204014Y-12534000D01*
X120237348Y-12567333D01*
X120304014Y-12600667D01*
X120404014Y-12600667D01*
X119870681Y-12134000D02*
X119870681Y-12600667D01*
X119870681Y-12200667D02*
X119837348Y-12167333D01*
X119770681Y-12134000D01*
X119670681Y-12134000D01*
X119604015Y-12167333D01*
X119570681Y-12234000D01*
X119570681Y-12600667D01*
X119204015Y-12567333D02*
X119204015Y-12600667D01*
X119237348Y-12667333D01*
X119270682Y-12700667D01*
X158937333Y-13334000D02*
X158670667Y-13334000D01*
X158837333Y-13100667D02*
X158837333Y-13700667D01*
X158804000Y-13767333D01*
X158737333Y-13800667D01*
X158670667Y-13800667D01*
X158437333Y-13800667D02*
X158437333Y-13100667D01*
X158137333Y-13800667D02*
X158137333Y-13434000D01*
X158170667Y-13367333D01*
X158237333Y-13334000D01*
X158337333Y-13334000D01*
X158404000Y-13367333D01*
X158437333Y-13400667D01*
X157537334Y-13767333D02*
X157604000Y-13800667D01*
X157737334Y-13800667D01*
X157804000Y-13767333D01*
X157837334Y-13700667D01*
X157837334Y-13434000D01*
X157804000Y-13367333D01*
X157737334Y-13334000D01*
X157604000Y-13334000D01*
X157537334Y-13367333D01*
X157504000Y-13434000D01*
X157504000Y-13500667D01*
X157837334Y-13567333D01*
X156370667Y-13334000D02*
X156370667Y-13900667D01*
X156404001Y-13967333D01*
X156437334Y-14000667D01*
X156504001Y-14034000D01*
X156604001Y-14034000D01*
X156670667Y-14000667D01*
X156370667Y-13767333D02*
X156437334Y-13800667D01*
X156570667Y-13800667D01*
X156637334Y-13767333D01*
X156670667Y-13734000D01*
X156704001Y-13667333D01*
X156704001Y-13467333D01*
X156670667Y-13400667D01*
X156637334Y-13367333D01*
X156570667Y-13334000D01*
X156437334Y-13334000D01*
X156370667Y-13367333D01*
X155937334Y-13800667D02*
X156004001Y-13767333D01*
X156037334Y-13734000D01*
X156070668Y-13667333D01*
X156070668Y-13467333D01*
X156037334Y-13400667D01*
X156004001Y-13367333D01*
X155937334Y-13334000D01*
X155837334Y-13334000D01*
X155770668Y-13367333D01*
X155737334Y-13400667D01*
X155704001Y-13467333D01*
X155704001Y-13667333D01*
X155737334Y-13734000D01*
X155770668Y-13767333D01*
X155837334Y-13800667D01*
X155937334Y-13800667D01*
X155304001Y-13800667D02*
X155370668Y-13767333D01*
X155404001Y-13734000D01*
X155437335Y-13667333D01*
X155437335Y-13467333D01*
X155404001Y-13400667D01*
X155370668Y-13367333D01*
X155304001Y-13334000D01*
X155204001Y-13334000D01*
X155137335Y-13367333D01*
X155104001Y-13400667D01*
X155070668Y-13467333D01*
X155070668Y-13667333D01*
X155104001Y-13734000D01*
X155137335Y-13767333D01*
X155204001Y-13800667D01*
X155304001Y-13800667D01*
X154470668Y-13800667D02*
X154470668Y-13100667D01*
X154470668Y-13767333D02*
X154537335Y-13800667D01*
X154670668Y-13800667D01*
X154737335Y-13767333D01*
X154770668Y-13734000D01*
X154804002Y-13667333D01*
X154804002Y-13467333D01*
X154770668Y-13400667D01*
X154737335Y-13367333D01*
X154670668Y-13334000D01*
X154537335Y-13334000D01*
X154470668Y-13367333D01*
X153637336Y-13767333D02*
X153570669Y-13800667D01*
X153437336Y-13800667D01*
X153370669Y-13767333D01*
X153337336Y-13700667D01*
X153337336Y-13667333D01*
X153370669Y-13600667D01*
X153437336Y-13567333D01*
X153537336Y-13567333D01*
X153604002Y-13534000D01*
X153637336Y-13467333D01*
X153637336Y-13434000D01*
X153604002Y-13367333D01*
X153537336Y-13334000D01*
X153437336Y-13334000D01*
X153370669Y-13367333D01*
X153137335Y-13334000D02*
X152870669Y-13334000D01*
X153037335Y-13100667D02*
X153037335Y-13700667D01*
X153004002Y-13767333D01*
X152937335Y-13800667D01*
X152870669Y-13800667D01*
X152337335Y-13334000D02*
X152337335Y-13800667D01*
X152637335Y-13334000D02*
X152637335Y-13700667D01*
X152604002Y-13767333D01*
X152537335Y-13800667D01*
X152437335Y-13800667D01*
X152370669Y-13767333D01*
X152337335Y-13734000D01*
X152104002Y-13334000D02*
X151837336Y-13334000D01*
X152004002Y-13800667D02*
X152004002Y-13200667D01*
X151970669Y-13134000D01*
X151904002Y-13100667D01*
X151837336Y-13100667D01*
X151704002Y-13334000D02*
X151437336Y-13334000D01*
X151604002Y-13800667D02*
X151604002Y-13200667D01*
X151570669Y-13134000D01*
X151504002Y-13100667D01*
X151437336Y-13100667D01*
X150670669Y-13800667D02*
X150670669Y-13334000D01*
X150670669Y-13100667D02*
X150704003Y-13134000D01*
X150670669Y-13167333D01*
X150637336Y-13134000D01*
X150670669Y-13100667D01*
X150670669Y-13167333D01*
X150370670Y-13767333D02*
X150304003Y-13800667D01*
X150170670Y-13800667D01*
X150104003Y-13767333D01*
X150070670Y-13700667D01*
X150070670Y-13667333D01*
X150104003Y-13600667D01*
X150170670Y-13567333D01*
X150270670Y-13567333D01*
X150337336Y-13534000D01*
X150370670Y-13467333D01*
X150370670Y-13434000D01*
X150337336Y-13367333D01*
X150270670Y-13334000D01*
X150170670Y-13334000D01*
X150104003Y-13367333D01*
X149237336Y-13800667D02*
X149237336Y-13100667D01*
X148937336Y-13800667D02*
X148937336Y-13434000D01*
X148970670Y-13367333D01*
X149037336Y-13334000D01*
X149137336Y-13334000D01*
X149204003Y-13367333D01*
X149237336Y-13400667D01*
X148337337Y-13767333D02*
X148404003Y-13800667D01*
X148537337Y-13800667D01*
X148604003Y-13767333D01*
X148637337Y-13700667D01*
X148637337Y-13434000D01*
X148604003Y-13367333D01*
X148537337Y-13334000D01*
X148404003Y-13334000D01*
X148337337Y-13367333D01*
X148304003Y-13434000D01*
X148304003Y-13500667D01*
X148637337Y-13567333D01*
X148004003Y-13800667D02*
X148004003Y-13334000D01*
X148004003Y-13467333D02*
X147970670Y-13400667D01*
X147937337Y-13367333D01*
X147870670Y-13334000D01*
X147804003Y-13334000D01*
X147304004Y-13767333D02*
X147370670Y-13800667D01*
X147504004Y-13800667D01*
X147570670Y-13767333D01*
X147604004Y-13700667D01*
X147604004Y-13434000D01*
X147570670Y-13367333D01*
X147504004Y-13334000D01*
X147370670Y-13334000D01*
X147304004Y-13367333D01*
X147270670Y-13434000D01*
X147270670Y-13500667D01*
X147604004Y-13567333D01*
X146970670Y-13734000D02*
X146937337Y-13767333D01*
X146970670Y-13800667D01*
X147004004Y-13767333D01*
X146970670Y-13734000D01*
X146970670Y-13800667D01*
X146970670Y-13367333D02*
X146937337Y-13400667D01*
X146970670Y-13434000D01*
X147004004Y-13400667D01*
X146970670Y-13367333D01*
X146970670Y-13434000D01*
X145804004Y-13767333D02*
X145870671Y-13800667D01*
X146004004Y-13800667D01*
X146070671Y-13767333D01*
X146104004Y-13734000D01*
X146137338Y-13667333D01*
X146137338Y-13467333D01*
X146104004Y-13400667D01*
X146070671Y-13367333D01*
X146004004Y-13334000D01*
X145870671Y-13334000D01*
X145804004Y-13367333D01*
X145404004Y-13800667D02*
X145470671Y-13767333D01*
X145504004Y-13734000D01*
X145537338Y-13667333D01*
X145537338Y-13467333D01*
X145504004Y-13400667D01*
X145470671Y-13367333D01*
X145404004Y-13334000D01*
X145304004Y-13334000D01*
X145237338Y-13367333D01*
X145204004Y-13400667D01*
X145170671Y-13467333D01*
X145170671Y-13667333D01*
X145204004Y-13734000D01*
X145237338Y-13767333D01*
X145304004Y-13800667D01*
X145404004Y-13800667D01*
X144870671Y-13800667D02*
X144870671Y-13334000D01*
X144870671Y-13400667D02*
X144837338Y-13367333D01*
X144770671Y-13334000D01*
X144670671Y-13334000D01*
X144604005Y-13367333D01*
X144570671Y-13434000D01*
X144570671Y-13800667D01*
X144570671Y-13434000D02*
X144537338Y-13367333D01*
X144470671Y-13334000D01*
X144370671Y-13334000D01*
X144304005Y-13367333D01*
X144270671Y-13434000D01*
X144270671Y-13800667D01*
X143937338Y-13800667D02*
X143937338Y-13334000D01*
X143937338Y-13400667D02*
X143904005Y-13367333D01*
X143837338Y-13334000D01*
X143737338Y-13334000D01*
X143670672Y-13367333D01*
X143637338Y-13434000D01*
X143637338Y-13800667D01*
X143637338Y-13434000D02*
X143604005Y-13367333D01*
X143537338Y-13334000D01*
X143437338Y-13334000D01*
X143370672Y-13367333D01*
X143337338Y-13434000D01*
X143337338Y-13800667D01*
X142704005Y-13334000D02*
X142704005Y-13800667D01*
X143004005Y-13334000D02*
X143004005Y-13700667D01*
X142970672Y-13767333D01*
X142904005Y-13800667D01*
X142804005Y-13800667D01*
X142737339Y-13767333D01*
X142704005Y-13734000D01*
X142370672Y-13334000D02*
X142370672Y-13800667D01*
X142370672Y-13400667D02*
X142337339Y-13367333D01*
X142270672Y-13334000D01*
X142170672Y-13334000D01*
X142104006Y-13367333D01*
X142070672Y-13434000D01*
X142070672Y-13800667D01*
X141737339Y-13800667D02*
X141737339Y-13334000D01*
X141737339Y-13100667D02*
X141770673Y-13134000D01*
X141737339Y-13167333D01*
X141704006Y-13134000D01*
X141737339Y-13100667D01*
X141737339Y-13167333D01*
X141504006Y-13334000D02*
X141237340Y-13334000D01*
X141404006Y-13100667D02*
X141404006Y-13700667D01*
X141370673Y-13767333D01*
X141304006Y-13800667D01*
X141237340Y-13800667D01*
X141070673Y-13334000D02*
X140904006Y-13800667D01*
X140737340Y-13334000D02*
X140904006Y-13800667D01*
X140970673Y-13967333D01*
X141004006Y-14000667D01*
X141070673Y-14034000D01*
X140470673Y-13734000D02*
X140437340Y-13767333D01*
X140470673Y-13800667D01*
X140504007Y-13767333D01*
X140470673Y-13734000D01*
X140470673Y-13800667D01*
X140137340Y-13800667D02*
X140137340Y-13100667D01*
X140137340Y-13367333D02*
X140070674Y-13334000D01*
X139937340Y-13334000D01*
X139870674Y-13367333D01*
X139837340Y-13400667D01*
X139804007Y-13467333D01*
X139804007Y-13667333D01*
X139837340Y-13734000D01*
X139870674Y-13767333D01*
X139937340Y-13800667D01*
X140070674Y-13800667D01*
X140137340Y-13767333D01*
X139237341Y-13767333D02*
X139304007Y-13800667D01*
X139437341Y-13800667D01*
X139504007Y-13767333D01*
X139537341Y-13700667D01*
X139537341Y-13434000D01*
X139504007Y-13367333D01*
X139437341Y-13334000D01*
X139304007Y-13334000D01*
X139237341Y-13367333D01*
X139204007Y-13434000D01*
X139204007Y-13500667D01*
X139537341Y-13567333D01*
X138804007Y-13800667D02*
X138870674Y-13767333D01*
X138904007Y-13700667D01*
X138904007Y-13100667D01*
X138537340Y-13800667D02*
X138537340Y-13334000D01*
X138537340Y-13100667D02*
X138570674Y-13134000D01*
X138537340Y-13167333D01*
X138504007Y-13134000D01*
X138537340Y-13100667D01*
X138537340Y-13167333D01*
X137937341Y-13767333D02*
X138004007Y-13800667D01*
X138137341Y-13800667D01*
X138204007Y-13767333D01*
X138237341Y-13700667D01*
X138237341Y-13434000D01*
X138204007Y-13367333D01*
X138137341Y-13334000D01*
X138004007Y-13334000D01*
X137937341Y-13367333D01*
X137904007Y-13434000D01*
X137904007Y-13500667D01*
X138237341Y-13567333D01*
X137670674Y-13334000D02*
X137504007Y-13800667D01*
X137337341Y-13334000D01*
X136970674Y-13800667D02*
X137037341Y-13767333D01*
X137070674Y-13734000D01*
X137104008Y-13667333D01*
X137104008Y-13467333D01*
X137070674Y-13400667D01*
X137037341Y-13367333D01*
X136970674Y-13334000D01*
X136870674Y-13334000D01*
X136804008Y-13367333D01*
X136770674Y-13400667D01*
X136737341Y-13467333D01*
X136737341Y-13667333D01*
X136770674Y-13734000D01*
X136804008Y-13767333D01*
X136870674Y-13800667D01*
X136970674Y-13800667D01*
X136537341Y-13334000D02*
X136270675Y-13334000D01*
X136437341Y-13100667D02*
X136437341Y-13700667D01*
X136404008Y-13767333D01*
X136337341Y-13800667D01*
X136270675Y-13800667D01*
X136037341Y-13800667D02*
X136037341Y-13334000D01*
X136037341Y-13467333D02*
X136004008Y-13400667D01*
X135970675Y-13367333D01*
X135904008Y-13334000D01*
X135837341Y-13334000D01*
X135504008Y-13800667D02*
X135570675Y-13767333D01*
X135604008Y-13734000D01*
X135637342Y-13667333D01*
X135637342Y-13467333D01*
X135604008Y-13400667D01*
X135570675Y-13367333D01*
X135504008Y-13334000D01*
X135404008Y-13334000D01*
X135337342Y-13367333D01*
X135304008Y-13400667D01*
X135270675Y-13467333D01*
X135270675Y-13667333D01*
X135304008Y-13734000D01*
X135337342Y-13767333D01*
X135404008Y-13800667D01*
X135504008Y-13800667D01*
X134970675Y-13334000D02*
X134970675Y-13800667D01*
X134970675Y-13400667D02*
X134937342Y-13367333D01*
X134870675Y-13334000D01*
X134770675Y-13334000D01*
X134704009Y-13367333D01*
X134670675Y-13434000D01*
X134670675Y-13800667D01*
X134337342Y-13734000D02*
X134304009Y-13767333D01*
X134337342Y-13800667D01*
X134370676Y-13767333D01*
X134337342Y-13734000D01*
X134337342Y-13800667D01*
X133704009Y-13767333D02*
X133770676Y-13800667D01*
X133904009Y-13800667D01*
X133970676Y-13767333D01*
X134004009Y-13734000D01*
X134037343Y-13667333D01*
X134037343Y-13467333D01*
X134004009Y-13400667D01*
X133970676Y-13367333D01*
X133904009Y-13334000D01*
X133770676Y-13334000D01*
X133704009Y-13367333D01*
X133304009Y-13800667D02*
X133370676Y-13767333D01*
X133404009Y-13734000D01*
X133437343Y-13667333D01*
X133437343Y-13467333D01*
X133404009Y-13400667D01*
X133370676Y-13367333D01*
X133304009Y-13334000D01*
X133204009Y-13334000D01*
X133137343Y-13367333D01*
X133104009Y-13400667D01*
X133070676Y-13467333D01*
X133070676Y-13667333D01*
X133104009Y-13734000D01*
X133137343Y-13767333D01*
X133204009Y-13800667D01*
X133304009Y-13800667D01*
X132770676Y-13800667D02*
X132770676Y-13334000D01*
X132770676Y-13400667D02*
X132737343Y-13367333D01*
X132670676Y-13334000D01*
X132570676Y-13334000D01*
X132504010Y-13367333D01*
X132470676Y-13434000D01*
X132470676Y-13800667D01*
X132470676Y-13434000D02*
X132437343Y-13367333D01*
X132370676Y-13334000D01*
X132270676Y-13334000D01*
X132204010Y-13367333D01*
X132170676Y-13434000D01*
X132170676Y-13800667D01*
X151582381Y6612095D02*
X150582381Y6612095D01*
X151582381Y6040666D01*
X150582381Y6040666D01*
X151487143Y4993047D02*
X151534762Y5040666D01*
X151582381Y5183523D01*
X151582381Y5278761D01*
X151534762Y5421619D01*
X151439524Y5516857D01*
X151344286Y5564476D01*
X151153810Y5612095D01*
X151010952Y5612095D01*
X150820476Y5564476D01*
X150725238Y5516857D01*
X150630000Y5421619D01*
X150582381Y5278761D01*
X150582381Y5183523D01*
X150630000Y5040666D01*
X150677619Y4993047D01*
X150915714Y4135904D02*
X151582381Y4135904D01*
X150534762Y4374000D02*
X151249048Y4612095D01*
X151249048Y3993047D01*
X150582381Y3421619D02*
X150582381Y3326380D01*
X150630000Y3231142D01*
X150677619Y3183523D01*
X150772857Y3135904D01*
X150963333Y3088285D01*
X151201429Y3088285D01*
X151391905Y3135904D01*
X151487143Y3183523D01*
X151534762Y3231142D01*
X151582381Y3326380D01*
X151582381Y3421619D01*
X151534762Y3516857D01*
X151487143Y3564476D01*
X151391905Y3612095D01*
X151201429Y3659714D01*
X150963333Y3659714D01*
X150772857Y3612095D01*
X150677619Y3564476D01*
X150630000Y3516857D01*
X150582381Y3421619D01*
X149042381Y6612095D02*
X148042381Y6612095D01*
X149042381Y6040666D01*
X148042381Y6040666D01*
X148947143Y4993047D02*
X148994762Y5040666D01*
X149042381Y5183523D01*
X149042381Y5278761D01*
X148994762Y5421619D01*
X148899524Y5516857D01*
X148804286Y5564476D01*
X148613810Y5612095D01*
X148470952Y5612095D01*
X148280476Y5564476D01*
X148185238Y5516857D01*
X148090000Y5421619D01*
X148042381Y5278761D01*
X148042381Y5183523D01*
X148090000Y5040666D01*
X148137619Y4993047D01*
X148042381Y4659714D02*
X148042381Y4040666D01*
X148423333Y4374000D01*
X148423333Y4231142D01*
X148470952Y4135904D01*
X148518571Y4088285D01*
X148613810Y4040666D01*
X148851905Y4040666D01*
X148947143Y4088285D01*
X148994762Y4135904D01*
X149042381Y4231142D01*
X149042381Y4516857D01*
X148994762Y4612095D01*
X148947143Y4659714D01*
X149042381Y3564476D02*
X149042381Y3374000D01*
X148994762Y3278761D01*
X148947143Y3231142D01*
X148804286Y3135904D01*
X148613810Y3088285D01*
X148232857Y3088285D01*
X148137619Y3135904D01*
X148090000Y3183523D01*
X148042381Y3278761D01*
X148042381Y3469238D01*
X148090000Y3564476D01*
X148137619Y3612095D01*
X148232857Y3659714D01*
X148470952Y3659714D01*
X148566190Y3612095D01*
X148613810Y3564476D01*
X148661429Y3469238D01*
X148661429Y3278761D01*
X148613810Y3183523D01*
X148566190Y3135904D01*
X148470952Y3088285D01*
X146502381Y6612095D02*
X145502381Y6612095D01*
X146502381Y6040666D01*
X145502381Y6040666D01*
X146407143Y4993047D02*
X146454762Y5040666D01*
X146502381Y5183523D01*
X146502381Y5278761D01*
X146454762Y5421619D01*
X146359524Y5516857D01*
X146264286Y5564476D01*
X146073810Y5612095D01*
X145930952Y5612095D01*
X145740476Y5564476D01*
X145645238Y5516857D01*
X145550000Y5421619D01*
X145502381Y5278761D01*
X145502381Y5183523D01*
X145550000Y5040666D01*
X145597619Y4993047D01*
X145502381Y4659714D02*
X145502381Y4040666D01*
X145883333Y4374000D01*
X145883333Y4231142D01*
X145930952Y4135904D01*
X145978571Y4088285D01*
X146073810Y4040666D01*
X146311905Y4040666D01*
X146407143Y4088285D01*
X146454762Y4135904D01*
X146502381Y4231142D01*
X146502381Y4516857D01*
X146454762Y4612095D01*
X146407143Y4659714D01*
X145930952Y3469238D02*
X145883333Y3564476D01*
X145835714Y3612095D01*
X145740476Y3659714D01*
X145692857Y3659714D01*
X145597619Y3612095D01*
X145550000Y3564476D01*
X145502381Y3469238D01*
X145502381Y3278761D01*
X145550000Y3183523D01*
X145597619Y3135904D01*
X145692857Y3088285D01*
X145740476Y3088285D01*
X145835714Y3135904D01*
X145883333Y3183523D01*
X145930952Y3278761D01*
X145930952Y3469238D01*
X145978571Y3564476D01*
X146026190Y3612095D01*
X146121429Y3659714D01*
X146311905Y3659714D01*
X146407143Y3612095D01*
X146454762Y3564476D01*
X146502381Y3469238D01*
X146502381Y3278761D01*
X146454762Y3183523D01*
X146407143Y3135904D01*
X146311905Y3088285D01*
X146121429Y3088285D01*
X146026190Y3135904D01*
X145978571Y3183523D01*
X145930952Y3278761D01*
X143962381Y5945428D02*
X143486190Y6278762D01*
X143962381Y6516857D02*
X142962381Y6516857D01*
X142962381Y6135904D01*
X143010000Y6040666D01*
X143057619Y5993047D01*
X143152857Y5945428D01*
X143295714Y5945428D01*
X143390952Y5993047D01*
X143438571Y6040666D01*
X143486190Y6135904D01*
X143486190Y6516857D01*
X143962381Y5516857D02*
X142962381Y5516857D01*
X143962381Y5040667D02*
X142962381Y5040667D01*
X143962381Y4469238D01*
X142962381Y4469238D01*
X143581429Y3993048D02*
X143581429Y3231143D01*
X141422381Y5945428D02*
X140946190Y6278762D01*
X141422381Y6516857D02*
X140422381Y6516857D01*
X140422381Y6135904D01*
X140470000Y6040666D01*
X140517619Y5993047D01*
X140612857Y5945428D01*
X140755714Y5945428D01*
X140850952Y5993047D01*
X140898571Y6040666D01*
X140946190Y6135904D01*
X140946190Y6516857D01*
X141422381Y5516857D02*
X140422381Y5516857D01*
X141422381Y5040667D02*
X140422381Y5040667D01*
X141422381Y4469238D01*
X140422381Y4469238D01*
X141041429Y3993048D02*
X141041429Y3231143D01*
X141422381Y3612095D02*
X140660476Y3612095D01*
X138882381Y5691428D02*
X138882381Y6167619D01*
X137882381Y6167619D01*
X138882381Y5358095D02*
X137882381Y5358095D01*
X138882381Y4881905D02*
X137882381Y4881905D01*
X138882381Y4310476D01*
X137882381Y4310476D01*
X138501429Y3834286D02*
X138501429Y3072381D01*
X136342381Y5691428D02*
X136342381Y6167619D01*
X135342381Y6167619D01*
X136342381Y5358095D02*
X135342381Y5358095D01*
X136342381Y4881905D02*
X135342381Y4881905D01*
X136342381Y4310476D01*
X135342381Y4310476D01*
X135961429Y3834286D02*
X135961429Y3072381D01*
X136342381Y3453333D02*
X135580476Y3453333D01*
X132850000Y6842285D02*
X132802381Y6937523D01*
X132802381Y7080380D01*
X132850000Y7223238D01*
X132945238Y7318476D01*
X133040476Y7366095D01*
X133230952Y7413714D01*
X133373810Y7413714D01*
X133564286Y7366095D01*
X133659524Y7318476D01*
X133754762Y7223238D01*
X133802381Y7080380D01*
X133802381Y6985142D01*
X133754762Y6842285D01*
X133707143Y6794666D01*
X133373810Y6794666D01*
X133373810Y6985142D01*
X133802381Y6366095D02*
X132802381Y6366095D01*
X133802381Y5794666D01*
X132802381Y5794666D01*
X133802381Y5318476D02*
X132802381Y5318476D01*
X132802381Y5080381D01*
X132850000Y4937523D01*
X132945238Y4842285D01*
X133040476Y4794666D01*
X133230952Y4747047D01*
X133373810Y4747047D01*
X133564286Y4794666D01*
X133659524Y4842285D01*
X133754762Y4937523D01*
X133802381Y5080381D01*
X133802381Y5318476D01*
X132802381Y4413714D02*
X132802381Y3794666D01*
X133183333Y4128000D01*
X133183333Y3985142D01*
X133230952Y3889904D01*
X133278571Y3842285D01*
X133373810Y3794666D01*
X133611905Y3794666D01*
X133707143Y3842285D01*
X133754762Y3889904D01*
X133802381Y3985142D01*
X133802381Y4270857D01*
X133754762Y4366095D01*
X133707143Y4413714D01*
X132802381Y3461333D02*
X132802381Y2842285D01*
X133183333Y3175619D01*
X133183333Y3032761D01*
X133230952Y2937523D01*
X133278571Y2889904D01*
X133373810Y2842285D01*
X133611905Y2842285D01*
X133707143Y2889904D01*
X133754762Y2937523D01*
X133802381Y3032761D01*
X133802381Y3318476D01*
X133754762Y3413714D01*
X133707143Y3461333D01*
X130310000Y6842285D02*
X130262381Y6937523D01*
X130262381Y7080380D01*
X130310000Y7223238D01*
X130405238Y7318476D01*
X130500476Y7366095D01*
X130690952Y7413714D01*
X130833810Y7413714D01*
X131024286Y7366095D01*
X131119524Y7318476D01*
X131214762Y7223238D01*
X131262381Y7080380D01*
X131262381Y6985142D01*
X131214762Y6842285D01*
X131167143Y6794666D01*
X130833810Y6794666D01*
X130833810Y6985142D01*
X131262381Y6366095D02*
X130262381Y6366095D01*
X131262381Y5794666D01*
X130262381Y5794666D01*
X131262381Y5318476D02*
X130262381Y5318476D01*
X130262381Y5080381D01*
X130310000Y4937523D01*
X130405238Y4842285D01*
X130500476Y4794666D01*
X130690952Y4747047D01*
X130833810Y4747047D01*
X131024286Y4794666D01*
X131119524Y4842285D01*
X131214762Y4937523D01*
X131262381Y5080381D01*
X131262381Y5318476D01*
X130262381Y4413714D02*
X130262381Y3794666D01*
X130643333Y4128000D01*
X130643333Y3985142D01*
X130690952Y3889904D01*
X130738571Y3842285D01*
X130833810Y3794666D01*
X131071905Y3794666D01*
X131167143Y3842285D01*
X131214762Y3889904D01*
X131262381Y3985142D01*
X131262381Y4270857D01*
X131214762Y4366095D01*
X131167143Y4413714D01*
X130357619Y3413714D02*
X130310000Y3366095D01*
X130262381Y3270857D01*
X130262381Y3032761D01*
X130310000Y2937523D01*
X130357619Y2889904D01*
X130452857Y2842285D01*
X130548095Y2842285D01*
X130690952Y2889904D01*
X131262381Y3461333D01*
X131262381Y2842285D01*
X128627143Y4119904D02*
X128674762Y4167523D01*
X128722381Y4310380D01*
X128722381Y4405618D01*
X128674762Y4548476D01*
X128579524Y4643714D01*
X128484286Y4691333D01*
X128293810Y4738952D01*
X128150952Y4738952D01*
X127960476Y4691333D01*
X127865238Y4643714D01*
X127770000Y4548476D01*
X127722381Y4405618D01*
X127722381Y4310380D01*
X127770000Y4167523D01*
X127817619Y4119904D01*
X128722381Y3691333D02*
X127722381Y3691333D01*
X128436667Y3357999D01*
X127722381Y3024666D01*
X128722381Y3024666D01*
X125182381Y8421714D02*
X126182381Y8088381D01*
X125182381Y7755047D01*
X126182381Y7421714D02*
X125182381Y7421714D01*
X125182381Y7183619D01*
X125230000Y7040761D01*
X125325238Y6945523D01*
X125420476Y6897904D01*
X125610952Y6850285D01*
X125753810Y6850285D01*
X125944286Y6897904D01*
X126039524Y6945523D01*
X126134762Y7040761D01*
X126182381Y7183619D01*
X126182381Y7421714D01*
X126182381Y6421714D02*
X125182381Y6421714D01*
X125182381Y6183619D01*
X125230000Y6040761D01*
X125325238Y5945523D01*
X125420476Y5897904D01*
X125610952Y5850285D01*
X125753810Y5850285D01*
X125944286Y5897904D01*
X126039524Y5945523D01*
X126134762Y6040761D01*
X126182381Y6183619D01*
X126182381Y6421714D01*
X126087143Y4850285D02*
X126134762Y4897904D01*
X126182381Y5040761D01*
X126182381Y5135999D01*
X126134762Y5278857D01*
X126039524Y5374095D01*
X125944286Y5421714D01*
X125753810Y5469333D01*
X125610952Y5469333D01*
X125420476Y5421714D01*
X125325238Y5374095D01*
X125230000Y5278857D01*
X125182381Y5135999D01*
X125182381Y5040761D01*
X125230000Y4897904D01*
X125277619Y4850285D01*
X125182381Y4516952D02*
X125182381Y3897904D01*
X125563333Y4231238D01*
X125563333Y4088380D01*
X125610952Y3993142D01*
X125658571Y3945523D01*
X125753810Y3897904D01*
X125991905Y3897904D01*
X126087143Y3945523D01*
X126134762Y3993142D01*
X126182381Y4088380D01*
X126182381Y4374095D01*
X126134762Y4469333D01*
X126087143Y4516952D01*
X125182381Y3278857D02*
X125182381Y3183618D01*
X125230000Y3088380D01*
X125277619Y3040761D01*
X125372857Y2993142D01*
X125563333Y2945523D01*
X125801429Y2945523D01*
X125991905Y2993142D01*
X126087143Y3040761D01*
X126134762Y3088380D01*
X126182381Y3183618D01*
X126182381Y3278857D01*
X126134762Y3374095D01*
X126087143Y3421714D01*
X125991905Y3469333D01*
X125801429Y3516952D01*
X125563333Y3516952D01*
X125372857Y3469333D01*
X125277619Y3421714D01*
X125230000Y3374095D01*
X125182381Y3278857D01*
X122642381Y8421714D02*
X123642381Y8088381D01*
X122642381Y7755047D01*
X123642381Y7421714D02*
X122642381Y7421714D01*
X122642381Y7183619D01*
X122690000Y7040761D01*
X122785238Y6945523D01*
X122880476Y6897904D01*
X123070952Y6850285D01*
X123213810Y6850285D01*
X123404286Y6897904D01*
X123499524Y6945523D01*
X123594762Y7040761D01*
X123642381Y7183619D01*
X123642381Y7421714D01*
X123642381Y6421714D02*
X122642381Y6421714D01*
X122642381Y6183619D01*
X122690000Y6040761D01*
X122785238Y5945523D01*
X122880476Y5897904D01*
X123070952Y5850285D01*
X123213810Y5850285D01*
X123404286Y5897904D01*
X123499524Y5945523D01*
X123594762Y6040761D01*
X123642381Y6183619D01*
X123642381Y6421714D01*
X123547143Y4850285D02*
X123594762Y4897904D01*
X123642381Y5040761D01*
X123642381Y5135999D01*
X123594762Y5278857D01*
X123499524Y5374095D01*
X123404286Y5421714D01*
X123213810Y5469333D01*
X123070952Y5469333D01*
X122880476Y5421714D01*
X122785238Y5374095D01*
X122690000Y5278857D01*
X122642381Y5135999D01*
X122642381Y5040761D01*
X122690000Y4897904D01*
X122737619Y4850285D01*
X122737619Y4469333D02*
X122690000Y4421714D01*
X122642381Y4326476D01*
X122642381Y4088380D01*
X122690000Y3993142D01*
X122737619Y3945523D01*
X122832857Y3897904D01*
X122928095Y3897904D01*
X123070952Y3945523D01*
X123642381Y4516952D01*
X123642381Y3897904D01*
X123642381Y3421714D02*
X123642381Y3231238D01*
X123594762Y3135999D01*
X123547143Y3088380D01*
X123404286Y2993142D01*
X123213810Y2945523D01*
X122832857Y2945523D01*
X122737619Y2993142D01*
X122690000Y3040761D01*
X122642381Y3135999D01*
X122642381Y3326476D01*
X122690000Y3421714D01*
X122737619Y3469333D01*
X122832857Y3516952D01*
X123070952Y3516952D01*
X123166190Y3469333D01*
X123213810Y3421714D01*
X123261429Y3326476D01*
X123261429Y3135999D01*
X123213810Y3040761D01*
X123166190Y2993142D01*
X123070952Y2945523D01*
X120150000Y6842285D02*
X120102381Y6937523D01*
X120102381Y7080380D01*
X120150000Y7223238D01*
X120245238Y7318476D01*
X120340476Y7366095D01*
X120530952Y7413714D01*
X120673810Y7413714D01*
X120864286Y7366095D01*
X120959524Y7318476D01*
X121054762Y7223238D01*
X121102381Y7080380D01*
X121102381Y6985142D01*
X121054762Y6842285D01*
X121007143Y6794666D01*
X120673810Y6794666D01*
X120673810Y6985142D01*
X121102381Y6366095D02*
X120102381Y6366095D01*
X121102381Y5794666D01*
X120102381Y5794666D01*
X121102381Y5318476D02*
X120102381Y5318476D01*
X120102381Y5080381D01*
X120150000Y4937523D01*
X120245238Y4842285D01*
X120340476Y4794666D01*
X120530952Y4747047D01*
X120673810Y4747047D01*
X120864286Y4794666D01*
X120959524Y4842285D01*
X121054762Y4937523D01*
X121102381Y5080381D01*
X121102381Y5318476D01*
X120197619Y4366095D02*
X120150000Y4318476D01*
X120102381Y4223238D01*
X120102381Y3985142D01*
X120150000Y3889904D01*
X120197619Y3842285D01*
X120292857Y3794666D01*
X120388095Y3794666D01*
X120530952Y3842285D01*
X121102381Y4413714D01*
X121102381Y3794666D01*
X120530952Y3223238D02*
X120483333Y3318476D01*
X120435714Y3366095D01*
X120340476Y3413714D01*
X120292857Y3413714D01*
X120197619Y3366095D01*
X120150000Y3318476D01*
X120102381Y3223238D01*
X120102381Y3032761D01*
X120150000Y2937523D01*
X120197619Y2889904D01*
X120292857Y2842285D01*
X120340476Y2842285D01*
X120435714Y2889904D01*
X120483333Y2937523D01*
X120530952Y3032761D01*
X120530952Y3223238D01*
X120578571Y3318476D01*
X120626190Y3366095D01*
X120721429Y3413714D01*
X120911905Y3413714D01*
X121007143Y3366095D01*
X121054762Y3318476D01*
X121102381Y3223238D01*
X121102381Y3032761D01*
X121054762Y2937523D01*
X121007143Y2889904D01*
X120911905Y2842285D01*
X120721429Y2842285D01*
X120626190Y2889904D01*
X120578571Y2937523D01*
X120530952Y3032761D01*
X118562381Y5350095D02*
X117562381Y5350095D01*
X117562381Y4969142D01*
X117610000Y4873904D01*
X117657619Y4826285D01*
X117752857Y4778666D01*
X117895714Y4778666D01*
X117990952Y4826285D01*
X118038571Y4873904D01*
X118086190Y4969142D01*
X118086190Y5350095D01*
X118038571Y4016761D02*
X118086190Y3873904D01*
X118133810Y3826285D01*
X118229048Y3778666D01*
X118371905Y3778666D01*
X118467143Y3826285D01*
X118514762Y3873904D01*
X118562381Y3969142D01*
X118562381Y4350095D01*
X117562381Y4350095D01*
X117562381Y4016761D01*
X117610000Y3921523D01*
X117657619Y3873904D01*
X117752857Y3826285D01*
X117848095Y3826285D01*
X117943333Y3873904D01*
X117990952Y3921523D01*
X118038571Y4016761D01*
X118038571Y4350095D01*
X118562381Y2826285D02*
X118562381Y3397714D01*
X118562381Y3112000D02*
X117562381Y3112000D01*
X117705238Y3207238D01*
X117800476Y3302476D01*
X117848095Y3397714D01*
X116022381Y5350095D02*
X115022381Y5350095D01*
X115022381Y4969142D01*
X115070000Y4873904D01*
X115117619Y4826285D01*
X115212857Y4778666D01*
X115355714Y4778666D01*
X115450952Y4826285D01*
X115498571Y4873904D01*
X115546190Y4969142D01*
X115546190Y5350095D01*
X115498571Y4016761D02*
X115546190Y3873904D01*
X115593810Y3826285D01*
X115689048Y3778666D01*
X115831905Y3778666D01*
X115927143Y3826285D01*
X115974762Y3873904D01*
X116022381Y3969142D01*
X116022381Y4350095D01*
X115022381Y4350095D01*
X115022381Y4016761D01*
X115070000Y3921523D01*
X115117619Y3873904D01*
X115212857Y3826285D01*
X115308095Y3826285D01*
X115403333Y3873904D01*
X115450952Y3921523D01*
X115498571Y4016761D01*
X115498571Y4350095D01*
X115022381Y3159619D02*
X115022381Y3064380D01*
X115070000Y2969142D01*
X115117619Y2921523D01*
X115212857Y2873904D01*
X115403333Y2826285D01*
X115641429Y2826285D01*
X115831905Y2873904D01*
X115927143Y2921523D01*
X115974762Y2969142D01*
X116022381Y3064380D01*
X116022381Y3159619D01*
X115974762Y3254857D01*
X115927143Y3302476D01*
X115831905Y3350095D01*
X115641429Y3397714D01*
X115403333Y3397714D01*
X115212857Y3350095D01*
X115117619Y3302476D01*
X115070000Y3254857D01*
X115022381Y3159619D01*
X113482381Y5278667D02*
X112482381Y5278667D01*
X112482381Y4897714D01*
X112530000Y4802476D01*
X112577619Y4754857D01*
X112672857Y4707238D01*
X112815714Y4707238D01*
X112910952Y4754857D01*
X112958571Y4802476D01*
X113006190Y4897714D01*
X113006190Y5278667D01*
X113196667Y4326286D02*
X113196667Y3850095D01*
X113482381Y4421524D02*
X112482381Y4088191D01*
X113482381Y3754857D01*
X112482381Y3516762D02*
X112482381Y2850095D01*
X113482381Y3278667D01*
X110942381Y5278667D02*
X109942381Y5278667D01*
X109942381Y4897714D01*
X109990000Y4802476D01*
X110037619Y4754857D01*
X110132857Y4707238D01*
X110275714Y4707238D01*
X110370952Y4754857D01*
X110418571Y4802476D01*
X110466190Y4897714D01*
X110466190Y5278667D01*
X110656667Y4326286D02*
X110656667Y3850095D01*
X110942381Y4421524D02*
X109942381Y4088191D01*
X110942381Y3754857D01*
X109942381Y2992952D02*
X109942381Y3183429D01*
X109990000Y3278667D01*
X110037619Y3326286D01*
X110180476Y3421524D01*
X110370952Y3469143D01*
X110751905Y3469143D01*
X110847143Y3421524D01*
X110894762Y3373905D01*
X110942381Y3278667D01*
X110942381Y3088190D01*
X110894762Y2992952D01*
X110847143Y2945333D01*
X110751905Y2897714D01*
X110513810Y2897714D01*
X110418571Y2945333D01*
X110370952Y2992952D01*
X110323333Y3088190D01*
X110323333Y3278667D01*
X110370952Y3373905D01*
X110418571Y3421524D01*
X110513810Y3469143D01*
X108402381Y5278667D02*
X107402381Y5278667D01*
X107402381Y4897714D01*
X107450000Y4802476D01*
X107497619Y4754857D01*
X107592857Y4707238D01*
X107735714Y4707238D01*
X107830952Y4754857D01*
X107878571Y4802476D01*
X107926190Y4897714D01*
X107926190Y5278667D01*
X108116667Y4326286D02*
X108116667Y3850095D01*
X108402381Y4421524D02*
X107402381Y4088191D01*
X108402381Y3754857D01*
X107402381Y2945333D02*
X107402381Y3421524D01*
X107878571Y3469143D01*
X107830952Y3421524D01*
X107783333Y3326286D01*
X107783333Y3088190D01*
X107830952Y2992952D01*
X107878571Y2945333D01*
X107973810Y2897714D01*
X108211905Y2897714D01*
X108307143Y2945333D01*
X108354762Y2992952D01*
X108402381Y3088190D01*
X108402381Y3326286D01*
X108354762Y3421524D01*
X108307143Y3469143D01*
X105862381Y5278667D02*
X104862381Y5278667D01*
X104862381Y4897714D01*
X104910000Y4802476D01*
X104957619Y4754857D01*
X105052857Y4707238D01*
X105195714Y4707238D01*
X105290952Y4754857D01*
X105338571Y4802476D01*
X105386190Y4897714D01*
X105386190Y5278667D01*
X105576667Y4326286D02*
X105576667Y3850095D01*
X105862381Y4421524D02*
X104862381Y4088191D01*
X105862381Y3754857D01*
X105195714Y2992952D02*
X105862381Y2992952D01*
X104814762Y3231048D02*
X105529048Y3469143D01*
X105529048Y2850095D01*
X102322381Y8350286D02*
X103322381Y8016953D01*
X102322381Y7683619D01*
X103322381Y7350286D02*
X102322381Y7350286D01*
X102322381Y7112191D01*
X102370000Y6969333D01*
X102465238Y6874095D01*
X102560476Y6826476D01*
X102750952Y6778857D01*
X102893810Y6778857D01*
X103084286Y6826476D01*
X103179524Y6874095D01*
X103274762Y6969333D01*
X103322381Y7112191D01*
X103322381Y7350286D01*
X103322381Y6350286D02*
X102322381Y6350286D01*
X102322381Y6112191D01*
X102370000Y5969333D01*
X102465238Y5874095D01*
X102560476Y5826476D01*
X102750952Y5778857D01*
X102893810Y5778857D01*
X103084286Y5826476D01*
X103179524Y5874095D01*
X103274762Y5969333D01*
X103322381Y6112191D01*
X103322381Y6350286D01*
X103036667Y5397905D02*
X103036667Y4921714D01*
X103322381Y5493143D02*
X102322381Y5159810D01*
X103322381Y4826476D01*
X102417619Y4540762D02*
X102370000Y4493143D01*
X102322381Y4397905D01*
X102322381Y4159809D01*
X102370000Y4064571D01*
X102417619Y4016952D01*
X102512857Y3969333D01*
X102608095Y3969333D01*
X102750952Y4016952D01*
X103322381Y4588381D01*
X103322381Y3969333D01*
X103322381Y3016952D02*
X103322381Y3588381D01*
X103322381Y3302667D02*
X102322381Y3302667D01*
X102465238Y3397905D01*
X102560476Y3493143D01*
X102608095Y3588381D01*
X99830000Y6842285D02*
X99782381Y6937523D01*
X99782381Y7080380D01*
X99830000Y7223238D01*
X99925238Y7318476D01*
X100020476Y7366095D01*
X100210952Y7413714D01*
X100353810Y7413714D01*
X100544286Y7366095D01*
X100639524Y7318476D01*
X100734762Y7223238D01*
X100782381Y7080380D01*
X100782381Y6985142D01*
X100734762Y6842285D01*
X100687143Y6794666D01*
X100353810Y6794666D01*
X100353810Y6985142D01*
X100782381Y6366095D02*
X99782381Y6366095D01*
X100782381Y5794666D01*
X99782381Y5794666D01*
X100782381Y5318476D02*
X99782381Y5318476D01*
X99782381Y5080381D01*
X99830000Y4937523D01*
X99925238Y4842285D01*
X100020476Y4794666D01*
X100210952Y4747047D01*
X100353810Y4747047D01*
X100544286Y4794666D01*
X100639524Y4842285D01*
X100734762Y4937523D01*
X100782381Y5080381D01*
X100782381Y5318476D01*
X99877619Y4366095D02*
X99830000Y4318476D01*
X99782381Y4223238D01*
X99782381Y3985142D01*
X99830000Y3889904D01*
X99877619Y3842285D01*
X99972857Y3794666D01*
X100068095Y3794666D01*
X100210952Y3842285D01*
X100782381Y4413714D01*
X100782381Y3794666D01*
X99782381Y3175619D02*
X99782381Y3080380D01*
X99830000Y2985142D01*
X99877619Y2937523D01*
X99972857Y2889904D01*
X100163333Y2842285D01*
X100401429Y2842285D01*
X100591905Y2889904D01*
X100687143Y2937523D01*
X100734762Y2985142D01*
X100782381Y3080380D01*
X100782381Y3175619D01*
X100734762Y3270857D01*
X100687143Y3318476D01*
X100591905Y3366095D01*
X100401429Y3413714D01*
X100163333Y3413714D01*
X99972857Y3366095D01*
X99877619Y3318476D01*
X99830000Y3270857D01*
X99782381Y3175619D01*
X98242381Y5278667D02*
X97242381Y5278667D01*
X97242381Y4897714D01*
X97290000Y4802476D01*
X97337619Y4754857D01*
X97432857Y4707238D01*
X97575714Y4707238D01*
X97670952Y4754857D01*
X97718571Y4802476D01*
X97766190Y4897714D01*
X97766190Y5278667D01*
X97956667Y4326286D02*
X97956667Y3850095D01*
X98242381Y4421524D02*
X97242381Y4088191D01*
X98242381Y3754857D01*
X97242381Y3516762D02*
X97242381Y2897714D01*
X97623333Y3231048D01*
X97623333Y3088190D01*
X97670952Y2992952D01*
X97718571Y2945333D01*
X97813810Y2897714D01*
X98051905Y2897714D01*
X98147143Y2945333D01*
X98194762Y2992952D01*
X98242381Y3088190D01*
X98242381Y3373905D01*
X98194762Y3469143D01*
X98147143Y3516762D01*
X95702381Y5278667D02*
X94702381Y5278667D01*
X94702381Y4897714D01*
X94750000Y4802476D01*
X94797619Y4754857D01*
X94892857Y4707238D01*
X95035714Y4707238D01*
X95130952Y4754857D01*
X95178571Y4802476D01*
X95226190Y4897714D01*
X95226190Y5278667D01*
X95416667Y4326286D02*
X95416667Y3850095D01*
X95702381Y4421524D02*
X94702381Y4088191D01*
X95702381Y3754857D01*
X94797619Y3469143D02*
X94750000Y3421524D01*
X94702381Y3326286D01*
X94702381Y3088190D01*
X94750000Y2992952D01*
X94797619Y2945333D01*
X94892857Y2897714D01*
X94988095Y2897714D01*
X95130952Y2945333D01*
X95702381Y3516762D01*
X95702381Y2897714D01*
X93162381Y5278667D02*
X92162381Y5278667D01*
X92162381Y4897714D01*
X92210000Y4802476D01*
X92257619Y4754857D01*
X92352857Y4707238D01*
X92495714Y4707238D01*
X92590952Y4754857D01*
X92638571Y4802476D01*
X92686190Y4897714D01*
X92686190Y5278667D01*
X92876667Y4326286D02*
X92876667Y3850095D01*
X93162381Y4421524D02*
X92162381Y4088191D01*
X93162381Y3754857D01*
X93162381Y2897714D02*
X93162381Y3469143D01*
X93162381Y3183429D02*
X92162381Y3183429D01*
X92305238Y3278667D01*
X92400476Y3373905D01*
X92448095Y3469143D01*
X90622381Y5278667D02*
X89622381Y5278667D01*
X89622381Y4897714D01*
X89670000Y4802476D01*
X89717619Y4754857D01*
X89812857Y4707238D01*
X89955714Y4707238D01*
X90050952Y4754857D01*
X90098571Y4802476D01*
X90146190Y4897714D01*
X90146190Y5278667D01*
X90336667Y4326286D02*
X90336667Y3850095D01*
X90622381Y4421524D02*
X89622381Y4088191D01*
X90622381Y3754857D01*
X89622381Y3231048D02*
X89622381Y3135809D01*
X89670000Y3040571D01*
X89717619Y2992952D01*
X89812857Y2945333D01*
X90003333Y2897714D01*
X90241429Y2897714D01*
X90431905Y2945333D01*
X90527143Y2992952D01*
X90574762Y3040571D01*
X90622381Y3135809D01*
X90622381Y3231048D01*
X90574762Y3326286D01*
X90527143Y3373905D01*
X90431905Y3421524D01*
X90241429Y3469143D01*
X90003333Y3469143D01*
X89812857Y3421524D01*
X89717619Y3373905D01*
X89670000Y3326286D01*
X89622381Y3231048D01*
X87082381Y8350286D02*
X88082381Y8016953D01*
X87082381Y7683619D01*
X88082381Y7350286D02*
X87082381Y7350286D01*
X87082381Y7112191D01*
X87130000Y6969333D01*
X87225238Y6874095D01*
X87320476Y6826476D01*
X87510952Y6778857D01*
X87653810Y6778857D01*
X87844286Y6826476D01*
X87939524Y6874095D01*
X88034762Y6969333D01*
X88082381Y7112191D01*
X88082381Y7350286D01*
X88082381Y6350286D02*
X87082381Y6350286D01*
X87082381Y6112191D01*
X87130000Y5969333D01*
X87225238Y5874095D01*
X87320476Y5826476D01*
X87510952Y5778857D01*
X87653810Y5778857D01*
X87844286Y5826476D01*
X87939524Y5874095D01*
X88034762Y5969333D01*
X88082381Y6112191D01*
X88082381Y6350286D01*
X87796667Y5397905D02*
X87796667Y4921714D01*
X88082381Y5493143D02*
X87082381Y5159810D01*
X88082381Y4826476D01*
X88082381Y3969333D02*
X88082381Y4540762D01*
X88082381Y4255048D02*
X87082381Y4255048D01*
X87225238Y4350286D01*
X87320476Y4445524D01*
X87368095Y4540762D01*
X87082381Y3064571D02*
X87082381Y3540762D01*
X87558571Y3588381D01*
X87510952Y3540762D01*
X87463333Y3445524D01*
X87463333Y3207428D01*
X87510952Y3112190D01*
X87558571Y3064571D01*
X87653810Y3016952D01*
X87891905Y3016952D01*
X87987143Y3064571D01*
X88034762Y3112190D01*
X88082381Y3207428D01*
X88082381Y3445524D01*
X88034762Y3540762D01*
X87987143Y3588381D01*
X84590000Y6842285D02*
X84542381Y6937523D01*
X84542381Y7080380D01*
X84590000Y7223238D01*
X84685238Y7318476D01*
X84780476Y7366095D01*
X84970952Y7413714D01*
X85113810Y7413714D01*
X85304286Y7366095D01*
X85399524Y7318476D01*
X85494762Y7223238D01*
X85542381Y7080380D01*
X85542381Y6985142D01*
X85494762Y6842285D01*
X85447143Y6794666D01*
X85113810Y6794666D01*
X85113810Y6985142D01*
X85542381Y6366095D02*
X84542381Y6366095D01*
X85542381Y5794666D01*
X84542381Y5794666D01*
X85542381Y5318476D02*
X84542381Y5318476D01*
X84542381Y5080381D01*
X84590000Y4937523D01*
X84685238Y4842285D01*
X84780476Y4794666D01*
X84970952Y4747047D01*
X85113810Y4747047D01*
X85304286Y4794666D01*
X85399524Y4842285D01*
X85494762Y4937523D01*
X85542381Y5080381D01*
X85542381Y5318476D01*
X85542381Y3794666D02*
X85542381Y4366095D01*
X85542381Y4080381D02*
X84542381Y4080381D01*
X84685238Y4175619D01*
X84780476Y4270857D01*
X84828095Y4366095D01*
X84875714Y2937523D02*
X85542381Y2937523D01*
X84494762Y3175619D02*
X85209048Y3413714D01*
X85209048Y2794666D01*
X83002381Y5350095D02*
X82002381Y5350095D01*
X82002381Y4969142D01*
X82050000Y4873904D01*
X82097619Y4826285D01*
X82192857Y4778666D01*
X82335714Y4778666D01*
X82430952Y4826285D01*
X82478571Y4873904D01*
X82526190Y4969142D01*
X82526190Y5350095D01*
X82907143Y3778666D02*
X82954762Y3826285D01*
X83002381Y3969142D01*
X83002381Y4064380D01*
X82954762Y4207238D01*
X82859524Y4302476D01*
X82764286Y4350095D01*
X82573810Y4397714D01*
X82430952Y4397714D01*
X82240476Y4350095D01*
X82145238Y4302476D01*
X82050000Y4207238D01*
X82002381Y4064380D01*
X82002381Y3969142D01*
X82050000Y3826285D01*
X82097619Y3778666D01*
X82002381Y2873904D02*
X82002381Y3350095D01*
X82478571Y3397714D01*
X82430952Y3350095D01*
X82383333Y3254857D01*
X82383333Y3016761D01*
X82430952Y2921523D01*
X82478571Y2873904D01*
X82573810Y2826285D01*
X82811905Y2826285D01*
X82907143Y2873904D01*
X82954762Y2921523D01*
X83002381Y3016761D01*
X83002381Y3254857D01*
X82954762Y3350095D01*
X82907143Y3397714D01*
X80462381Y5350095D02*
X79462381Y5350095D01*
X79462381Y4969142D01*
X79510000Y4873904D01*
X79557619Y4826285D01*
X79652857Y4778666D01*
X79795714Y4778666D01*
X79890952Y4826285D01*
X79938571Y4873904D01*
X79986190Y4969142D01*
X79986190Y5350095D01*
X80367143Y3778666D02*
X80414762Y3826285D01*
X80462381Y3969142D01*
X80462381Y4064380D01*
X80414762Y4207238D01*
X80319524Y4302476D01*
X80224286Y4350095D01*
X80033810Y4397714D01*
X79890952Y4397714D01*
X79700476Y4350095D01*
X79605238Y4302476D01*
X79510000Y4207238D01*
X79462381Y4064380D01*
X79462381Y3969142D01*
X79510000Y3826285D01*
X79557619Y3778666D01*
X79795714Y2921523D02*
X80462381Y2921523D01*
X79414762Y3159619D02*
X80129048Y3397714D01*
X80129048Y2778666D01*
X77922381Y5350095D02*
X76922381Y5350095D01*
X76922381Y4969142D01*
X76970000Y4873904D01*
X77017619Y4826285D01*
X77112857Y4778666D01*
X77255714Y4778666D01*
X77350952Y4826285D01*
X77398571Y4873904D01*
X77446190Y4969142D01*
X77446190Y5350095D01*
X77827143Y3778666D02*
X77874762Y3826285D01*
X77922381Y3969142D01*
X77922381Y4064380D01*
X77874762Y4207238D01*
X77779524Y4302476D01*
X77684286Y4350095D01*
X77493810Y4397714D01*
X77350952Y4397714D01*
X77160476Y4350095D01*
X77065238Y4302476D01*
X76970000Y4207238D01*
X76922381Y4064380D01*
X76922381Y3969142D01*
X76970000Y3826285D01*
X77017619Y3778666D01*
X76922381Y3445333D02*
X76922381Y2826285D01*
X77303333Y3159619D01*
X77303333Y3016761D01*
X77350952Y2921523D01*
X77398571Y2873904D01*
X77493810Y2826285D01*
X77731905Y2826285D01*
X77827143Y2873904D01*
X77874762Y2921523D01*
X77922381Y3016761D01*
X77922381Y3302476D01*
X77874762Y3397714D01*
X77827143Y3445333D01*
X75382381Y5350095D02*
X74382381Y5350095D01*
X74382381Y4969142D01*
X74430000Y4873904D01*
X74477619Y4826285D01*
X74572857Y4778666D01*
X74715714Y4778666D01*
X74810952Y4826285D01*
X74858571Y4873904D01*
X74906190Y4969142D01*
X74906190Y5350095D01*
X75287143Y3778666D02*
X75334762Y3826285D01*
X75382381Y3969142D01*
X75382381Y4064380D01*
X75334762Y4207238D01*
X75239524Y4302476D01*
X75144286Y4350095D01*
X74953810Y4397714D01*
X74810952Y4397714D01*
X74620476Y4350095D01*
X74525238Y4302476D01*
X74430000Y4207238D01*
X74382381Y4064380D01*
X74382381Y3969142D01*
X74430000Y3826285D01*
X74477619Y3778666D01*
X74477619Y3397714D02*
X74430000Y3350095D01*
X74382381Y3254857D01*
X74382381Y3016761D01*
X74430000Y2921523D01*
X74477619Y2873904D01*
X74572857Y2826285D01*
X74668095Y2826285D01*
X74810952Y2873904D01*
X75382381Y3445333D01*
X75382381Y2826285D01*
X72842381Y5350095D02*
X71842381Y5350095D01*
X71842381Y4969142D01*
X71890000Y4873904D01*
X71937619Y4826285D01*
X72032857Y4778666D01*
X72175714Y4778666D01*
X72270952Y4826285D01*
X72318571Y4873904D01*
X72366190Y4969142D01*
X72366190Y5350095D01*
X72747143Y3778666D02*
X72794762Y3826285D01*
X72842381Y3969142D01*
X72842381Y4064380D01*
X72794762Y4207238D01*
X72699524Y4302476D01*
X72604286Y4350095D01*
X72413810Y4397714D01*
X72270952Y4397714D01*
X72080476Y4350095D01*
X71985238Y4302476D01*
X71890000Y4207238D01*
X71842381Y4064380D01*
X71842381Y3969142D01*
X71890000Y3826285D01*
X71937619Y3778666D01*
X72842381Y2826285D02*
X72842381Y3397714D01*
X72842381Y3112000D02*
X71842381Y3112000D01*
X71985238Y3207238D01*
X72080476Y3302476D01*
X72128095Y3397714D01*
X70302381Y5350095D02*
X69302381Y5350095D01*
X69302381Y4969142D01*
X69350000Y4873904D01*
X69397619Y4826285D01*
X69492857Y4778666D01*
X69635714Y4778666D01*
X69730952Y4826285D01*
X69778571Y4873904D01*
X69826190Y4969142D01*
X69826190Y5350095D01*
X70207143Y3778666D02*
X70254762Y3826285D01*
X70302381Y3969142D01*
X70302381Y4064380D01*
X70254762Y4207238D01*
X70159524Y4302476D01*
X70064286Y4350095D01*
X69873810Y4397714D01*
X69730952Y4397714D01*
X69540476Y4350095D01*
X69445238Y4302476D01*
X69350000Y4207238D01*
X69302381Y4064380D01*
X69302381Y3969142D01*
X69350000Y3826285D01*
X69397619Y3778666D01*
X69302381Y3159619D02*
X69302381Y3064380D01*
X69350000Y2969142D01*
X69397619Y2921523D01*
X69492857Y2873904D01*
X69683333Y2826285D01*
X69921429Y2826285D01*
X70111905Y2873904D01*
X70207143Y2921523D01*
X70254762Y2969142D01*
X70302381Y3064380D01*
X70302381Y3159619D01*
X70254762Y3254857D01*
X70207143Y3302476D01*
X70111905Y3350095D01*
X69921429Y3397714D01*
X69683333Y3397714D01*
X69492857Y3350095D01*
X69397619Y3302476D01*
X69350000Y3254857D01*
X69302381Y3159619D01*
X66762381Y7413714D02*
X67762381Y7080381D01*
X66762381Y6747047D01*
X67762381Y6413714D02*
X66762381Y6413714D01*
X66762381Y6175619D01*
X66810000Y6032761D01*
X66905238Y5937523D01*
X67000476Y5889904D01*
X67190952Y5842285D01*
X67333810Y5842285D01*
X67524286Y5889904D01*
X67619524Y5937523D01*
X67714762Y6032761D01*
X67762381Y6175619D01*
X67762381Y6413714D01*
X67762381Y5413714D02*
X66762381Y5413714D01*
X66762381Y5175619D01*
X66810000Y5032761D01*
X66905238Y4937523D01*
X67000476Y4889904D01*
X67190952Y4842285D01*
X67333810Y4842285D01*
X67524286Y4889904D01*
X67619524Y4937523D01*
X67714762Y5032761D01*
X67762381Y5175619D01*
X67762381Y5413714D01*
X67762381Y3889904D02*
X67762381Y4461333D01*
X67762381Y4175619D02*
X66762381Y4175619D01*
X66905238Y4270857D01*
X67000476Y4366095D01*
X67048095Y4461333D01*
X67762381Y2937523D02*
X67762381Y3508952D01*
X67762381Y3223238D02*
X66762381Y3223238D01*
X66905238Y3318476D01*
X67000476Y3413714D01*
X67048095Y3508952D01*
X64270000Y6842285D02*
X64222381Y6937523D01*
X64222381Y7080380D01*
X64270000Y7223238D01*
X64365238Y7318476D01*
X64460476Y7366095D01*
X64650952Y7413714D01*
X64793810Y7413714D01*
X64984286Y7366095D01*
X65079524Y7318476D01*
X65174762Y7223238D01*
X65222381Y7080380D01*
X65222381Y6985142D01*
X65174762Y6842285D01*
X65127143Y6794666D01*
X64793810Y6794666D01*
X64793810Y6985142D01*
X65222381Y6366095D02*
X64222381Y6366095D01*
X65222381Y5794666D01*
X64222381Y5794666D01*
X65222381Y5318476D02*
X64222381Y5318476D01*
X64222381Y5080381D01*
X64270000Y4937523D01*
X64365238Y4842285D01*
X64460476Y4794666D01*
X64650952Y4747047D01*
X64793810Y4747047D01*
X64984286Y4794666D01*
X65079524Y4842285D01*
X65174762Y4937523D01*
X65222381Y5080381D01*
X65222381Y5318476D01*
X65222381Y3794666D02*
X65222381Y4366095D01*
X65222381Y4080381D02*
X64222381Y4080381D01*
X64365238Y4175619D01*
X64460476Y4270857D01*
X64508095Y4366095D01*
X64222381Y3175619D02*
X64222381Y3080380D01*
X64270000Y2985142D01*
X64317619Y2937523D01*
X64412857Y2889904D01*
X64603333Y2842285D01*
X64841429Y2842285D01*
X65031905Y2889904D01*
X65127143Y2937523D01*
X65174762Y2985142D01*
X65222381Y3080380D01*
X65222381Y3175619D01*
X65174762Y3270857D01*
X65127143Y3318476D01*
X65031905Y3366095D01*
X64841429Y3413714D01*
X64603333Y3413714D01*
X64412857Y3366095D01*
X64317619Y3318476D01*
X64270000Y3270857D01*
X64222381Y3175619D01*
X62682381Y5350095D02*
X61682381Y5350095D01*
X61682381Y4969142D01*
X61730000Y4873904D01*
X61777619Y4826285D01*
X61872857Y4778666D01*
X62015714Y4778666D01*
X62110952Y4826285D01*
X62158571Y4873904D01*
X62206190Y4969142D01*
X62206190Y5350095D01*
X62158571Y4016761D02*
X62206190Y3873904D01*
X62253810Y3826285D01*
X62349048Y3778666D01*
X62491905Y3778666D01*
X62587143Y3826285D01*
X62634762Y3873904D01*
X62682381Y3969142D01*
X62682381Y4350095D01*
X61682381Y4350095D01*
X61682381Y4016761D01*
X61730000Y3921523D01*
X61777619Y3873904D01*
X61872857Y3826285D01*
X61968095Y3826285D01*
X62063333Y3873904D01*
X62110952Y3921523D01*
X62158571Y4016761D01*
X62158571Y4350095D01*
X62682381Y3302476D02*
X62682381Y3112000D01*
X62634762Y3016761D01*
X62587143Y2969142D01*
X62444286Y2873904D01*
X62253810Y2826285D01*
X61872857Y2826285D01*
X61777619Y2873904D01*
X61730000Y2921523D01*
X61682381Y3016761D01*
X61682381Y3207238D01*
X61730000Y3302476D01*
X61777619Y3350095D01*
X61872857Y3397714D01*
X62110952Y3397714D01*
X62206190Y3350095D01*
X62253810Y3302476D01*
X62301429Y3207238D01*
X62301429Y3016761D01*
X62253810Y2921523D01*
X62206190Y2873904D01*
X62110952Y2826285D01*
X60142381Y5350095D02*
X59142381Y5350095D01*
X59142381Y4969142D01*
X59190000Y4873904D01*
X59237619Y4826285D01*
X59332857Y4778666D01*
X59475714Y4778666D01*
X59570952Y4826285D01*
X59618571Y4873904D01*
X59666190Y4969142D01*
X59666190Y5350095D01*
X59618571Y4016761D02*
X59666190Y3873904D01*
X59713810Y3826285D01*
X59809048Y3778666D01*
X59951905Y3778666D01*
X60047143Y3826285D01*
X60094762Y3873904D01*
X60142381Y3969142D01*
X60142381Y4350095D01*
X59142381Y4350095D01*
X59142381Y4016761D01*
X59190000Y3921523D01*
X59237619Y3873904D01*
X59332857Y3826285D01*
X59428095Y3826285D01*
X59523333Y3873904D01*
X59570952Y3921523D01*
X59618571Y4016761D01*
X59618571Y4350095D01*
X59570952Y3207238D02*
X59523333Y3302476D01*
X59475714Y3350095D01*
X59380476Y3397714D01*
X59332857Y3397714D01*
X59237619Y3350095D01*
X59190000Y3302476D01*
X59142381Y3207238D01*
X59142381Y3016761D01*
X59190000Y2921523D01*
X59237619Y2873904D01*
X59332857Y2826285D01*
X59380476Y2826285D01*
X59475714Y2873904D01*
X59523333Y2921523D01*
X59570952Y3016761D01*
X59570952Y3207238D01*
X59618571Y3302476D01*
X59666190Y3350095D01*
X59761429Y3397714D01*
X59951905Y3397714D01*
X60047143Y3350095D01*
X60094762Y3302476D01*
X60142381Y3207238D01*
X60142381Y3016761D01*
X60094762Y2921523D01*
X60047143Y2873904D01*
X59951905Y2826285D01*
X59761429Y2826285D01*
X59666190Y2873904D01*
X59618571Y2921523D01*
X59570952Y3016761D01*
X57602381Y5350095D02*
X56602381Y5350095D01*
X56602381Y4969142D01*
X56650000Y4873904D01*
X56697619Y4826285D01*
X56792857Y4778666D01*
X56935714Y4778666D01*
X57030952Y4826285D01*
X57078571Y4873904D01*
X57126190Y4969142D01*
X57126190Y5350095D01*
X57078571Y4016761D02*
X57126190Y3873904D01*
X57173810Y3826285D01*
X57269048Y3778666D01*
X57411905Y3778666D01*
X57507143Y3826285D01*
X57554762Y3873904D01*
X57602381Y3969142D01*
X57602381Y4350095D01*
X56602381Y4350095D01*
X56602381Y4016761D01*
X56650000Y3921523D01*
X56697619Y3873904D01*
X56792857Y3826285D01*
X56888095Y3826285D01*
X56983333Y3873904D01*
X57030952Y3921523D01*
X57078571Y4016761D01*
X57078571Y4350095D01*
X56602381Y3445333D02*
X56602381Y2778666D01*
X57602381Y3207238D01*
X55062381Y5350095D02*
X54062381Y5350095D01*
X54062381Y4969142D01*
X54110000Y4873904D01*
X54157619Y4826285D01*
X54252857Y4778666D01*
X54395714Y4778666D01*
X54490952Y4826285D01*
X54538571Y4873904D01*
X54586190Y4969142D01*
X54586190Y5350095D01*
X54538571Y4016761D02*
X54586190Y3873904D01*
X54633810Y3826285D01*
X54729048Y3778666D01*
X54871905Y3778666D01*
X54967143Y3826285D01*
X55014762Y3873904D01*
X55062381Y3969142D01*
X55062381Y4350095D01*
X54062381Y4350095D01*
X54062381Y4016761D01*
X54110000Y3921523D01*
X54157619Y3873904D01*
X54252857Y3826285D01*
X54348095Y3826285D01*
X54443333Y3873904D01*
X54490952Y3921523D01*
X54538571Y4016761D01*
X54538571Y4350095D01*
X54062381Y2921523D02*
X54062381Y3112000D01*
X54110000Y3207238D01*
X54157619Y3254857D01*
X54300476Y3350095D01*
X54490952Y3397714D01*
X54871905Y3397714D01*
X54967143Y3350095D01*
X55014762Y3302476D01*
X55062381Y3207238D01*
X55062381Y3016761D01*
X55014762Y2921523D01*
X54967143Y2873904D01*
X54871905Y2826285D01*
X54633810Y2826285D01*
X54538571Y2873904D01*
X54490952Y2921523D01*
X54443333Y3016761D01*
X54443333Y3207238D01*
X54490952Y3302476D01*
X54538571Y3350095D01*
X54633810Y3397714D01*
X51522381Y6079524D02*
X52522381Y5746191D01*
X51522381Y5412857D01*
X52522381Y5079524D02*
X51522381Y5079524D01*
X51522381Y4841429D01*
X51570000Y4698571D01*
X51665238Y4603333D01*
X51760476Y4555714D01*
X51950952Y4508095D01*
X52093810Y4508095D01*
X52284286Y4555714D01*
X52379524Y4603333D01*
X52474762Y4698571D01*
X52522381Y4841429D01*
X52522381Y5079524D01*
X52522381Y4079524D02*
X51522381Y4079524D01*
X51522381Y3841429D01*
X51570000Y3698571D01*
X51665238Y3603333D01*
X51760476Y3555714D01*
X51950952Y3508095D01*
X52093810Y3508095D01*
X52284286Y3555714D01*
X52379524Y3603333D01*
X52474762Y3698571D01*
X52522381Y3841429D01*
X52522381Y4079524D01*
X52522381Y2555714D02*
X52522381Y3127143D01*
X52522381Y2841429D02*
X51522381Y2841429D01*
X51665238Y2936667D01*
X51760476Y3031905D01*
X51808095Y3127143D01*
M02*
