G04 #@! TF.FileFunction,Legend,Top*
%FSLAX46Y46*%
G04 Gerber Fmt 4.6, Leading zero omitted, Abs format (unit mm)*
G04 Created by KiCad (PCBNEW 4.0.4-stable) date 03/31/17 15:09:42*
%MOMM*%
%LPD*%
G01*
G04 APERTURE LIST*
%ADD10C,0.100000*%
%ADD11C,0.200000*%
%ADD12C,0.137500*%
%ADD13C,0.150000*%
%ADD14C,0.125000*%
%ADD15C,0.112500*%
G04 APERTURE END LIST*
D10*
D11*
X29543000Y5275700D02*
X29035000Y8958700D01*
X30305000Y5275700D02*
X29543000Y5275700D01*
X29162000Y3624700D02*
X30305000Y3624700D01*
X28781000Y6418700D02*
X29162000Y3624700D01*
X28400000Y6418700D02*
X28781000Y6418700D01*
X28400000Y8958700D02*
X29035000Y8958700D01*
X29670000Y11498700D02*
X30305000Y11498700D01*
X28400000Y11498700D02*
X29670000Y11498700D01*
X29670000Y14038700D02*
X30305000Y13403700D01*
X28400000Y14038700D02*
X29670000Y14038700D01*
X23320000Y12768700D02*
X28400000Y12768700D01*
X23320000Y10228700D02*
X28400000Y10228700D01*
X23320000Y7688700D02*
X28400000Y7688700D01*
X23320000Y5148700D02*
X28400000Y5148700D01*
X23320000Y2608700D02*
X28400000Y2608700D01*
X6810000Y3878700D02*
X14430000Y3878700D01*
X6810000Y6418700D02*
X14430000Y6418700D01*
X6810000Y8958700D02*
X14430000Y8958700D01*
X6810000Y11498700D02*
X14430000Y11498700D01*
D10*
X21695572Y13512429D02*
X21695572Y13962429D01*
X21802715Y13962429D01*
X21867000Y13941000D01*
X21909858Y13898143D01*
X21931286Y13855286D01*
X21952715Y13769571D01*
X21952715Y13705286D01*
X21931286Y13619571D01*
X21909858Y13576714D01*
X21867000Y13533857D01*
X21802715Y13512429D01*
X21695572Y13512429D01*
X22231286Y13962429D02*
X22274143Y13962429D01*
X22317000Y13941000D01*
X22338429Y13919571D01*
X22359858Y13876714D01*
X22381286Y13791000D01*
X22381286Y13683857D01*
X22359858Y13598143D01*
X22338429Y13555286D01*
X22317000Y13533857D01*
X22274143Y13512429D01*
X22231286Y13512429D01*
X22188429Y13533857D01*
X22167000Y13555286D01*
X22145572Y13598143D01*
X22124143Y13683857D01*
X22124143Y13791000D01*
X22145572Y13876714D01*
X22167000Y13919571D01*
X22188429Y13941000D01*
X22231286Y13962429D01*
X22659857Y13962429D02*
X22702714Y13962429D01*
X22745571Y13941000D01*
X22767000Y13919571D01*
X22788429Y13876714D01*
X22809857Y13791000D01*
X22809857Y13683857D01*
X22788429Y13598143D01*
X22767000Y13555286D01*
X22745571Y13533857D01*
X22702714Y13512429D01*
X22659857Y13512429D01*
X22617000Y13533857D01*
X22595571Y13555286D01*
X22574143Y13598143D01*
X22552714Y13683857D01*
X22552714Y13791000D01*
X22574143Y13876714D01*
X22595571Y13919571D01*
X22617000Y13941000D01*
X22659857Y13962429D01*
X21952715Y11015286D02*
X21931286Y10993857D01*
X21867000Y10972429D01*
X21824143Y10972429D01*
X21759858Y10993857D01*
X21717000Y11036714D01*
X21695572Y11079571D01*
X21674143Y11165286D01*
X21674143Y11229571D01*
X21695572Y11315286D01*
X21717000Y11358143D01*
X21759858Y11401000D01*
X21824143Y11422429D01*
X21867000Y11422429D01*
X21931286Y11401000D01*
X21952715Y11379571D01*
X22231286Y11422429D02*
X22274143Y11422429D01*
X22317000Y11401000D01*
X22338429Y11379571D01*
X22359858Y11336714D01*
X22381286Y11251000D01*
X22381286Y11143857D01*
X22359858Y11058143D01*
X22338429Y11015286D01*
X22317000Y10993857D01*
X22274143Y10972429D01*
X22231286Y10972429D01*
X22188429Y10993857D01*
X22167000Y11015286D01*
X22145572Y11058143D01*
X22124143Y11143857D01*
X22124143Y11251000D01*
X22145572Y11336714D01*
X22167000Y11379571D01*
X22188429Y11401000D01*
X22231286Y11422429D01*
X22659857Y11422429D02*
X22702714Y11422429D01*
X22745571Y11401000D01*
X22767000Y11379571D01*
X22788429Y11336714D01*
X22809857Y11251000D01*
X22809857Y11143857D01*
X22788429Y11058143D01*
X22767000Y11015286D01*
X22745571Y10993857D01*
X22702714Y10972429D01*
X22659857Y10972429D01*
X22617000Y10993857D01*
X22595571Y11015286D01*
X22574143Y11058143D01*
X22552714Y11143857D01*
X22552714Y11251000D01*
X22574143Y11336714D01*
X22595571Y11379571D01*
X22617000Y11401000D01*
X22659857Y11422429D01*
X21695572Y8432429D02*
X21695572Y8882429D01*
X21802715Y8882429D01*
X21867000Y8861000D01*
X21909858Y8818143D01*
X21931286Y8775286D01*
X21952715Y8689571D01*
X21952715Y8625286D01*
X21931286Y8539571D01*
X21909858Y8496714D01*
X21867000Y8453857D01*
X21802715Y8432429D01*
X21695572Y8432429D01*
X22381286Y8432429D02*
X22124143Y8432429D01*
X22252715Y8432429D02*
X22252715Y8882429D01*
X22209858Y8818143D01*
X22167000Y8775286D01*
X22124143Y8753857D01*
X22767000Y8882429D02*
X22681286Y8882429D01*
X22638429Y8861000D01*
X22617000Y8839571D01*
X22574143Y8775286D01*
X22552714Y8689571D01*
X22552714Y8518143D01*
X22574143Y8475286D01*
X22595571Y8453857D01*
X22638429Y8432429D01*
X22724143Y8432429D01*
X22767000Y8453857D01*
X22788429Y8475286D01*
X22809857Y8518143D01*
X22809857Y8625286D01*
X22788429Y8668143D01*
X22767000Y8689571D01*
X22724143Y8711000D01*
X22638429Y8711000D01*
X22595571Y8689571D01*
X22574143Y8668143D01*
X22552714Y8625286D01*
X21952715Y5808286D02*
X21931286Y5786857D01*
X21867000Y5765429D01*
X21824143Y5765429D01*
X21759858Y5786857D01*
X21717000Y5829714D01*
X21695572Y5872571D01*
X21674143Y5958286D01*
X21674143Y6022571D01*
X21695572Y6108286D01*
X21717000Y6151143D01*
X21759858Y6194000D01*
X21824143Y6215429D01*
X21867000Y6215429D01*
X21931286Y6194000D01*
X21952715Y6172571D01*
X22381286Y5765429D02*
X22124143Y5765429D01*
X22252715Y5765429D02*
X22252715Y6215429D01*
X22209858Y6151143D01*
X22167000Y6108286D01*
X22124143Y6086857D01*
X22767000Y6215429D02*
X22681286Y6215429D01*
X22638429Y6194000D01*
X22617000Y6172571D01*
X22574143Y6108286D01*
X22552714Y6022571D01*
X22552714Y5851143D01*
X22574143Y5808286D01*
X22595571Y5786857D01*
X22638429Y5765429D01*
X22724143Y5765429D01*
X22767000Y5786857D01*
X22788429Y5808286D01*
X22809857Y5851143D01*
X22809857Y5958286D01*
X22788429Y6001143D01*
X22767000Y6022571D01*
X22724143Y6044000D01*
X22638429Y6044000D01*
X22595571Y6022571D01*
X22574143Y6001143D01*
X22552714Y5958286D01*
D12*
X15829760Y14509381D02*
X15908331Y14483190D01*
X16039284Y14483190D01*
X16091665Y14509381D01*
X16117855Y14535571D01*
X16144046Y14587952D01*
X16144046Y14640333D01*
X16117855Y14692714D01*
X16091665Y14718905D01*
X16039284Y14745095D01*
X15934522Y14771286D01*
X15882141Y14797476D01*
X15855950Y14823667D01*
X15829760Y14876048D01*
X15829760Y14928429D01*
X15855950Y14980810D01*
X15882141Y15007000D01*
X15934522Y15033190D01*
X16065474Y15033190D01*
X16144046Y15007000D01*
X16379760Y14483190D02*
X16379760Y15033190D01*
X16694046Y14483190D01*
X16694046Y15033190D01*
X16903569Y15033190D02*
X17270236Y15033190D01*
X17034522Y14483190D01*
X17715475Y14849857D02*
X17715475Y14483190D01*
X17584522Y15059381D02*
X17453570Y14666524D01*
X17794046Y14666524D01*
X18265475Y14483190D02*
X18003570Y14483190D01*
X18003570Y15033190D01*
X18370237Y15033190D02*
X18553570Y14483190D01*
X18736904Y15033190D01*
X19208333Y14483190D02*
X18894047Y14483190D01*
X19051190Y14483190D02*
X19051190Y15033190D01*
X18998809Y14954619D01*
X18946428Y14902238D01*
X18894047Y14876048D01*
X19365476Y15033190D02*
X19679762Y15033190D01*
X19522619Y14483190D02*
X19522619Y15033190D01*
X20151191Y14483190D02*
X19836905Y14483190D01*
X19994048Y14483190D02*
X19994048Y15033190D01*
X19941667Y14954619D01*
X19889286Y14902238D01*
X19836905Y14876048D01*
X20360715Y14980810D02*
X20386905Y15007000D01*
X20439286Y15033190D01*
X20570239Y15033190D01*
X20622620Y15007000D01*
X20648810Y14980810D01*
X20675001Y14928429D01*
X20675001Y14876048D01*
X20648810Y14797476D01*
X20334524Y14483190D01*
X20675001Y14483190D01*
X21172620Y15033190D02*
X20910715Y15033190D01*
X20884525Y14771286D01*
X20910715Y14797476D01*
X20963096Y14823667D01*
X21094049Y14823667D01*
X21146430Y14797476D01*
X21172620Y14771286D01*
X21198811Y14718905D01*
X21198811Y14587952D01*
X21172620Y14535571D01*
X21146430Y14509381D01*
X21094049Y14483190D01*
X20963096Y14483190D01*
X20910715Y14509381D01*
X20884525Y14535571D01*
X21434525Y14483190D02*
X21434525Y15033190D01*
X21565478Y15033190D01*
X21644049Y15007000D01*
X21696430Y14954619D01*
X21722621Y14902238D01*
X21748811Y14797476D01*
X21748811Y14718905D01*
X21722621Y14614143D01*
X21696430Y14561762D01*
X21644049Y14509381D01*
X21565478Y14483190D01*
X21434525Y14483190D01*
X22167859Y14771286D02*
X22246430Y14745095D01*
X22272621Y14718905D01*
X22298811Y14666524D01*
X22298811Y14587952D01*
X22272621Y14535571D01*
X22246430Y14509381D01*
X22194049Y14483190D01*
X21984525Y14483190D01*
X21984525Y15033190D01*
X22167859Y15033190D01*
X22220240Y15007000D01*
X22246430Y14980810D01*
X22272621Y14928429D01*
X22272621Y14876048D01*
X22246430Y14823667D01*
X22220240Y14797476D01*
X22167859Y14771286D01*
X21984525Y14771286D01*
X22455954Y15033190D02*
X22639287Y14483190D01*
X22822621Y15033190D01*
X23320240Y14483190D02*
X23136907Y14745095D01*
X23005954Y14483190D02*
X23005954Y15033190D01*
X23215478Y15033190D01*
X23267859Y15007000D01*
X23294050Y14980810D01*
X23320240Y14928429D01*
X23320240Y14849857D01*
X23294050Y14797476D01*
X23267859Y14771286D01*
X23215478Y14745095D01*
X23005954Y14745095D01*
D10*
X21663429Y3396857D02*
X22006286Y3396857D01*
X21834857Y3225429D02*
X21834857Y3568286D01*
X22434858Y3675429D02*
X22220572Y3675429D01*
X22199143Y3461143D01*
X22220572Y3482571D01*
X22263429Y3504000D01*
X22370572Y3504000D01*
X22413429Y3482571D01*
X22434858Y3461143D01*
X22456286Y3418286D01*
X22456286Y3311143D01*
X22434858Y3268286D01*
X22413429Y3246857D01*
X22370572Y3225429D01*
X22263429Y3225429D01*
X22220572Y3246857D01*
X22199143Y3268286D01*
X22584857Y3675429D02*
X22734857Y3225429D01*
X22884857Y3675429D01*
X21899143Y1241000D02*
X21856286Y1262429D01*
X21792000Y1262429D01*
X21727715Y1241000D01*
X21684857Y1198143D01*
X21663429Y1155286D01*
X21642000Y1069571D01*
X21642000Y1005286D01*
X21663429Y919571D01*
X21684857Y876714D01*
X21727715Y833857D01*
X21792000Y812429D01*
X21834857Y812429D01*
X21899143Y833857D01*
X21920572Y855286D01*
X21920572Y1005286D01*
X21834857Y1005286D01*
X22113429Y812429D02*
X22113429Y1262429D01*
X22370572Y812429D01*
X22370572Y1262429D01*
X22584858Y812429D02*
X22584858Y1262429D01*
X22692001Y1262429D01*
X22756286Y1241000D01*
X22799144Y1198143D01*
X22820572Y1155286D01*
X22842001Y1069571D01*
X22842001Y1005286D01*
X22820572Y919571D01*
X22799144Y876714D01*
X22756286Y833857D01*
X22692001Y812429D01*
X22584858Y812429D01*
X15357143Y2833700D02*
X15314286Y2855129D01*
X15250000Y2855129D01*
X15185715Y2833700D01*
X15142857Y2790843D01*
X15121429Y2747986D01*
X15100000Y2662271D01*
X15100000Y2597986D01*
X15121429Y2512271D01*
X15142857Y2469414D01*
X15185715Y2426557D01*
X15250000Y2405129D01*
X15292857Y2405129D01*
X15357143Y2426557D01*
X15378572Y2447986D01*
X15378572Y2597986D01*
X15292857Y2597986D01*
X15571429Y2405129D02*
X15571429Y2855129D01*
X15828572Y2405129D01*
X15828572Y2855129D01*
X16042858Y2405129D02*
X16042858Y2855129D01*
X16150001Y2855129D01*
X16214286Y2833700D01*
X16257144Y2790843D01*
X16278572Y2747986D01*
X16300001Y2662271D01*
X16300001Y2597986D01*
X16278572Y2512271D01*
X16257144Y2469414D01*
X16214286Y2426557D01*
X16150001Y2405129D01*
X16042858Y2405129D01*
X12452857Y10025129D02*
X12452857Y10475129D01*
X12602857Y10153700D01*
X12752857Y10475129D01*
X12752857Y10025129D01*
X13052857Y10475129D02*
X13138571Y10475129D01*
X13181429Y10453700D01*
X13224286Y10410843D01*
X13245714Y10325129D01*
X13245714Y10175129D01*
X13224286Y10089414D01*
X13181429Y10046557D01*
X13138571Y10025129D01*
X13052857Y10025129D01*
X13010000Y10046557D01*
X12967143Y10089414D01*
X12945714Y10175129D01*
X12945714Y10325129D01*
X12967143Y10410843D01*
X13010000Y10453700D01*
X13052857Y10475129D01*
X13417143Y10046557D02*
X13481429Y10025129D01*
X13588572Y10025129D01*
X13631429Y10046557D01*
X13652858Y10067986D01*
X13674286Y10110843D01*
X13674286Y10153700D01*
X13652858Y10196557D01*
X13631429Y10217986D01*
X13588572Y10239414D01*
X13502858Y10260843D01*
X13460000Y10282271D01*
X13438572Y10303700D01*
X13417143Y10346557D01*
X13417143Y10389414D01*
X13438572Y10432271D01*
X13460000Y10453700D01*
X13502858Y10475129D01*
X13610000Y10475129D01*
X13674286Y10453700D01*
X13867143Y10025129D02*
X13867143Y10475129D01*
X12260001Y12736557D02*
X12602858Y12736557D01*
X12431429Y12565129D02*
X12431429Y12907986D01*
X12774287Y13015129D02*
X13052858Y13015129D01*
X12902858Y12843700D01*
X12967144Y12843700D01*
X13010001Y12822271D01*
X13031430Y12800843D01*
X13052858Y12757986D01*
X13052858Y12650843D01*
X13031430Y12607986D01*
X13010001Y12586557D01*
X12967144Y12565129D01*
X12838572Y12565129D01*
X12795715Y12586557D01*
X12774287Y12607986D01*
X13245715Y12607986D02*
X13267143Y12586557D01*
X13245715Y12565129D01*
X13224286Y12586557D01*
X13245715Y12607986D01*
X13245715Y12565129D01*
X13417144Y13015129D02*
X13695715Y13015129D01*
X13545715Y12843700D01*
X13610001Y12843700D01*
X13652858Y12822271D01*
X13674287Y12800843D01*
X13695715Y12757986D01*
X13695715Y12650843D01*
X13674287Y12607986D01*
X13652858Y12586557D01*
X13610001Y12565129D01*
X13481429Y12565129D01*
X13438572Y12586557D01*
X13417144Y12607986D01*
X13824286Y13015129D02*
X13974286Y12565129D01*
X14124286Y13015129D01*
D13*
X198535429Y4459714D02*
X197935429Y4459714D01*
X198164000Y4459714D02*
X198135429Y4516857D01*
X198135429Y4631143D01*
X198164000Y4688286D01*
X198192571Y4716857D01*
X198249714Y4745428D01*
X198421143Y4745428D01*
X198478286Y4716857D01*
X198506857Y4688286D01*
X198535429Y4631143D01*
X198535429Y4516857D01*
X198506857Y4459714D01*
X198506857Y5231143D02*
X198535429Y5174000D01*
X198535429Y5059714D01*
X198506857Y5002571D01*
X198449714Y4974000D01*
X198221143Y4974000D01*
X198164000Y5002571D01*
X198135429Y5059714D01*
X198135429Y5174000D01*
X198164000Y5231143D01*
X198221143Y5259714D01*
X198278286Y5259714D01*
X198335429Y4974000D01*
X198535429Y5602571D02*
X198506857Y5545429D01*
X198449714Y5516857D01*
X197935429Y5516857D01*
X198535429Y5831143D02*
X198135429Y5831143D01*
X197935429Y5831143D02*
X197964000Y5802572D01*
X197992571Y5831143D01*
X197964000Y5859715D01*
X197935429Y5831143D01*
X197992571Y5831143D01*
X198506857Y6345429D02*
X198535429Y6288286D01*
X198535429Y6174000D01*
X198506857Y6116857D01*
X198449714Y6088286D01*
X198221143Y6088286D01*
X198164000Y6116857D01*
X198135429Y6174000D01*
X198135429Y6288286D01*
X198164000Y6345429D01*
X198221143Y6374000D01*
X198278286Y6374000D01*
X198335429Y6088286D01*
X198135429Y6574000D02*
X198535429Y6716857D01*
X198135429Y6859715D01*
X198535429Y7174000D02*
X198506857Y7116858D01*
X198478286Y7088286D01*
X198421143Y7059715D01*
X198249714Y7059715D01*
X198192571Y7088286D01*
X198164000Y7116858D01*
X198135429Y7174000D01*
X198135429Y7259715D01*
X198164000Y7316858D01*
X198192571Y7345429D01*
X198249714Y7374000D01*
X198421143Y7374000D01*
X198478286Y7345429D01*
X198506857Y7316858D01*
X198535429Y7259715D01*
X198535429Y7174000D01*
X198135429Y7545429D02*
X198135429Y7774000D01*
X197935429Y7631143D02*
X198449714Y7631143D01*
X198506857Y7659715D01*
X198535429Y7716857D01*
X198535429Y7774000D01*
X198535429Y7974000D02*
X198135429Y7974000D01*
X198249714Y7974000D02*
X198192571Y8002572D01*
X198164000Y8031143D01*
X198135429Y8088286D01*
X198135429Y8145429D01*
X198535429Y8431143D02*
X198506857Y8374001D01*
X198478286Y8345429D01*
X198421143Y8316858D01*
X198249714Y8316858D01*
X198192571Y8345429D01*
X198164000Y8374001D01*
X198135429Y8431143D01*
X198135429Y8516858D01*
X198164000Y8574001D01*
X198192571Y8602572D01*
X198249714Y8631143D01*
X198421143Y8631143D01*
X198478286Y8602572D01*
X198506857Y8574001D01*
X198535429Y8516858D01*
X198535429Y8431143D01*
X198135429Y8888286D02*
X198535429Y8888286D01*
X198192571Y8888286D02*
X198164000Y8916858D01*
X198135429Y8974000D01*
X198135429Y9059715D01*
X198164000Y9116858D01*
X198221143Y9145429D01*
X198535429Y9145429D01*
X198478286Y9431143D02*
X198506857Y9459715D01*
X198535429Y9431143D01*
X198506857Y9402572D01*
X198478286Y9431143D01*
X198535429Y9431143D01*
X198506857Y9974000D02*
X198535429Y9916857D01*
X198535429Y9802571D01*
X198506857Y9745429D01*
X198478286Y9716857D01*
X198421143Y9688286D01*
X198249714Y9688286D01*
X198192571Y9716857D01*
X198164000Y9745429D01*
X198135429Y9802571D01*
X198135429Y9916857D01*
X198164000Y9974000D01*
X198535429Y10316857D02*
X198506857Y10259715D01*
X198478286Y10231143D01*
X198421143Y10202572D01*
X198249714Y10202572D01*
X198192571Y10231143D01*
X198164000Y10259715D01*
X198135429Y10316857D01*
X198135429Y10402572D01*
X198164000Y10459715D01*
X198192571Y10488286D01*
X198249714Y10516857D01*
X198421143Y10516857D01*
X198478286Y10488286D01*
X198506857Y10459715D01*
X198535429Y10402572D01*
X198535429Y10316857D01*
X198535429Y10774000D02*
X198135429Y10774000D01*
X198192571Y10774000D02*
X198164000Y10802572D01*
X198135429Y10859714D01*
X198135429Y10945429D01*
X198164000Y11002572D01*
X198221143Y11031143D01*
X198535429Y11031143D01*
X198221143Y11031143D02*
X198164000Y11059714D01*
X198135429Y11116857D01*
X198135429Y11202572D01*
X198164000Y11259714D01*
X198221143Y11288286D01*
X198535429Y11288286D01*
D14*
X29508762Y7833952D02*
X29508762Y8483952D01*
X29756381Y8483952D01*
X29818286Y8453000D01*
X29849238Y8422048D01*
X29880190Y8360143D01*
X29880190Y8267286D01*
X29849238Y8205381D01*
X29818286Y8174429D01*
X29756381Y8143476D01*
X29508762Y8143476D01*
X30530190Y7895857D02*
X30499238Y7864905D01*
X30406381Y7833952D01*
X30344476Y7833952D01*
X30251619Y7864905D01*
X30189714Y7926810D01*
X30158762Y7988714D01*
X30127810Y8112524D01*
X30127810Y8205381D01*
X30158762Y8329190D01*
X30189714Y8391095D01*
X30251619Y8453000D01*
X30344476Y8483952D01*
X30406381Y8483952D01*
X30499238Y8453000D01*
X30530190Y8422048D01*
X31025429Y8174429D02*
X31118286Y8143476D01*
X31149238Y8112524D01*
X31180190Y8050619D01*
X31180190Y7957762D01*
X31149238Y7895857D01*
X31118286Y7864905D01*
X31056381Y7833952D01*
X30808762Y7833952D01*
X30808762Y8483952D01*
X31025429Y8483952D01*
X31087333Y8453000D01*
X31118286Y8422048D01*
X31149238Y8360143D01*
X31149238Y8298238D01*
X31118286Y8236333D01*
X31087333Y8205381D01*
X31025429Y8174429D01*
X30808762Y8174429D01*
X31799238Y7833952D02*
X31427810Y7833952D01*
X31613524Y7833952D02*
X31613524Y8483952D01*
X31551619Y8391095D01*
X31489714Y8329190D01*
X31427810Y8298238D01*
X32201619Y8483952D02*
X32263524Y8483952D01*
X32325429Y8453000D01*
X32356381Y8422048D01*
X32387334Y8360143D01*
X32418286Y8236333D01*
X32418286Y8081571D01*
X32387334Y7957762D01*
X32356381Y7895857D01*
X32325429Y7864905D01*
X32263524Y7833952D01*
X32201619Y7833952D01*
X32139715Y7864905D01*
X32108762Y7895857D01*
X32077810Y7957762D01*
X32046858Y8081571D01*
X32046858Y8236333D01*
X32077810Y8360143D01*
X32108762Y8422048D01*
X32139715Y8453000D01*
X32201619Y8483952D01*
X32820667Y8483952D02*
X32882572Y8483952D01*
X32944477Y8453000D01*
X32975429Y8422048D01*
X33006382Y8360143D01*
X33037334Y8236333D01*
X33037334Y8081571D01*
X33006382Y7957762D01*
X32975429Y7895857D01*
X32944477Y7864905D01*
X32882572Y7833952D01*
X32820667Y7833952D01*
X32758763Y7864905D01*
X32727810Y7895857D01*
X32696858Y7957762D01*
X32665906Y8081571D01*
X32665906Y8236333D01*
X32696858Y8360143D01*
X32727810Y8422048D01*
X32758763Y8453000D01*
X32820667Y8483952D01*
X33656382Y7833952D02*
X33284954Y7833952D01*
X33470668Y7833952D02*
X33470668Y8483952D01*
X33408763Y8391095D01*
X33346858Y8329190D01*
X33284954Y8298238D01*
X33780192Y7772048D02*
X34275430Y7772048D01*
X34739716Y7833952D02*
X34430192Y7833952D01*
X34430192Y8483952D01*
X34956382Y8174429D02*
X35173049Y8174429D01*
X35265906Y7833952D02*
X34956382Y7833952D01*
X34956382Y8483952D01*
X35265906Y8483952D01*
X35544477Y7833952D02*
X35544477Y8483952D01*
X35699239Y8483952D01*
X35792096Y8453000D01*
X35854001Y8391095D01*
X35884953Y8329190D01*
X35915905Y8205381D01*
X35915905Y8112524D01*
X35884953Y7988714D01*
X35854001Y7926810D01*
X35792096Y7864905D01*
X35699239Y7833952D01*
X35544477Y7833952D01*
X36132572Y8483952D02*
X36534953Y8483952D01*
X36318286Y8236333D01*
X36411144Y8236333D01*
X36473048Y8205381D01*
X36504001Y8174429D01*
X36534953Y8112524D01*
X36534953Y7957762D01*
X36504001Y7895857D01*
X36473048Y7864905D01*
X36411144Y7833952D01*
X36225429Y7833952D01*
X36163525Y7864905D01*
X36132572Y7895857D01*
X36782573Y8422048D02*
X36813525Y8453000D01*
X36875430Y8483952D01*
X37030192Y8483952D01*
X37092096Y8453000D01*
X37123049Y8422048D01*
X37154001Y8360143D01*
X37154001Y8298238D01*
X37123049Y8205381D01*
X36751620Y7833952D01*
X37154001Y7833952D01*
X37432573Y8081571D02*
X37927811Y8081571D01*
X38206383Y8422048D02*
X38237335Y8453000D01*
X38299240Y8483952D01*
X38454002Y8483952D01*
X38515906Y8453000D01*
X38546859Y8422048D01*
X38577811Y8360143D01*
X38577811Y8298238D01*
X38546859Y8205381D01*
X38175430Y7833952D01*
X38577811Y7833952D01*
X38980192Y8483952D02*
X39042097Y8483952D01*
X39104002Y8453000D01*
X39134954Y8422048D01*
X39165907Y8360143D01*
X39196859Y8236333D01*
X39196859Y8081571D01*
X39165907Y7957762D01*
X39134954Y7895857D01*
X39104002Y7864905D01*
X39042097Y7833952D01*
X38980192Y7833952D01*
X38918288Y7864905D01*
X38887335Y7895857D01*
X38856383Y7957762D01*
X38825431Y8081571D01*
X38825431Y8236333D01*
X38856383Y8360143D01*
X38887335Y8422048D01*
X38918288Y8453000D01*
X38980192Y8483952D01*
X39815907Y7833952D02*
X39444479Y7833952D01*
X39630193Y7833952D02*
X39630193Y8483952D01*
X39568288Y8391095D01*
X39506383Y8329190D01*
X39444479Y8298238D01*
X40032574Y8483952D02*
X40465907Y8483952D01*
X40187336Y7833952D01*
X40713527Y8081571D02*
X41208765Y8081571D01*
X41642098Y8483952D02*
X41704003Y8483952D01*
X41765908Y8453000D01*
X41796860Y8422048D01*
X41827813Y8360143D01*
X41858765Y8236333D01*
X41858765Y8081571D01*
X41827813Y7957762D01*
X41796860Y7895857D01*
X41765908Y7864905D01*
X41704003Y7833952D01*
X41642098Y7833952D01*
X41580194Y7864905D01*
X41549241Y7895857D01*
X41518289Y7957762D01*
X41487337Y8081571D01*
X41487337Y8236333D01*
X41518289Y8360143D01*
X41549241Y8422048D01*
X41580194Y8453000D01*
X41642098Y8483952D01*
X42075432Y8483952D02*
X42477813Y8483952D01*
X42261146Y8236333D01*
X42354004Y8236333D01*
X42415908Y8205381D01*
X42446861Y8174429D01*
X42477813Y8112524D01*
X42477813Y7957762D01*
X42446861Y7895857D01*
X42415908Y7864905D01*
X42354004Y7833952D01*
X42168289Y7833952D01*
X42106385Y7864905D01*
X42075432Y7895857D01*
X42756385Y8081571D02*
X43251623Y8081571D01*
X43499242Y8483952D02*
X43901623Y8483952D01*
X43684956Y8236333D01*
X43777814Y8236333D01*
X43839718Y8205381D01*
X43870671Y8174429D01*
X43901623Y8112524D01*
X43901623Y7957762D01*
X43870671Y7895857D01*
X43839718Y7864905D01*
X43777814Y7833952D01*
X43592099Y7833952D01*
X43530195Y7864905D01*
X43499242Y7895857D01*
X44520671Y7833952D02*
X44149243Y7833952D01*
X44334957Y7833952D02*
X44334957Y8483952D01*
X44273052Y8391095D01*
X44211147Y8329190D01*
X44149243Y8298238D01*
X45511148Y8174429D02*
X45604005Y8143476D01*
X45634957Y8112524D01*
X45665909Y8050619D01*
X45665909Y7957762D01*
X45634957Y7895857D01*
X45604005Y7864905D01*
X45542100Y7833952D01*
X45294481Y7833952D01*
X45294481Y8483952D01*
X45511148Y8483952D01*
X45573052Y8453000D01*
X45604005Y8422048D01*
X45634957Y8360143D01*
X45634957Y8298238D01*
X45604005Y8236333D01*
X45573052Y8205381D01*
X45511148Y8174429D01*
X45294481Y8174429D01*
X46192100Y7864905D02*
X46130195Y7833952D01*
X46006386Y7833952D01*
X45944481Y7864905D01*
X45913529Y7926810D01*
X45913529Y8174429D01*
X45944481Y8236333D01*
X46006386Y8267286D01*
X46130195Y8267286D01*
X46192100Y8236333D01*
X46223052Y8174429D01*
X46223052Y8112524D01*
X45913529Y8050619D01*
X46408767Y8267286D02*
X46656386Y8267286D01*
X46501624Y8483952D02*
X46501624Y7926810D01*
X46532576Y7864905D01*
X46594481Y7833952D01*
X46656386Y7833952D01*
X47151624Y7833952D02*
X47151624Y8174429D01*
X47120672Y8236333D01*
X47058767Y8267286D01*
X46934958Y8267286D01*
X46873053Y8236333D01*
X47151624Y7864905D02*
X47089720Y7833952D01*
X46934958Y7833952D01*
X46873053Y7864905D01*
X46842101Y7926810D01*
X46842101Y7988714D01*
X46873053Y8050619D01*
X46934958Y8081571D01*
X47089720Y8081571D01*
X47151624Y8112524D01*
X47461148Y8081571D02*
X47956386Y8081571D01*
X48606386Y7833952D02*
X48234958Y7833952D01*
X48420672Y7833952D02*
X48420672Y8483952D01*
X48358767Y8391095D01*
X48296862Y8329190D01*
X48234958Y8298238D01*
X49596863Y8174429D02*
X49689720Y8143476D01*
X49720672Y8112524D01*
X49751624Y8050619D01*
X49751624Y7957762D01*
X49720672Y7895857D01*
X49689720Y7864905D01*
X49627815Y7833952D01*
X49380196Y7833952D01*
X49380196Y8483952D01*
X49596863Y8483952D01*
X49658767Y8453000D01*
X49689720Y8422048D01*
X49720672Y8360143D01*
X49720672Y8298238D01*
X49689720Y8236333D01*
X49658767Y8205381D01*
X49596863Y8174429D01*
X49380196Y8174429D01*
X50277815Y7864905D02*
X50215910Y7833952D01*
X50092101Y7833952D01*
X50030196Y7864905D01*
X49999244Y7926810D01*
X49999244Y8174429D01*
X50030196Y8236333D01*
X50092101Y8267286D01*
X50215910Y8267286D01*
X50277815Y8236333D01*
X50308767Y8174429D01*
X50308767Y8112524D01*
X49999244Y8050619D01*
X50680196Y7833952D02*
X50618291Y7864905D01*
X50587339Y7926810D01*
X50587339Y8483952D01*
X50927815Y7833952D02*
X50927815Y8267286D01*
X50927815Y8483952D02*
X50896863Y8453000D01*
X50927815Y8422048D01*
X50958767Y8453000D01*
X50927815Y8483952D01*
X50927815Y8422048D01*
X51484958Y7864905D02*
X51423053Y7833952D01*
X51299244Y7833952D01*
X51237339Y7864905D01*
X51206387Y7926810D01*
X51206387Y8174429D01*
X51237339Y8236333D01*
X51299244Y8267286D01*
X51423053Y8267286D01*
X51484958Y8236333D01*
X51515910Y8174429D01*
X51515910Y8112524D01*
X51206387Y8050619D01*
X51732577Y8267286D02*
X51887339Y7833952D01*
X52042101Y8267286D01*
X52382577Y7833952D02*
X52320672Y7864905D01*
X52289720Y7895857D01*
X52258768Y7957762D01*
X52258768Y8143476D01*
X52289720Y8205381D01*
X52320672Y8236333D01*
X52382577Y8267286D01*
X52475434Y8267286D01*
X52537339Y8236333D01*
X52568291Y8205381D01*
X52599244Y8143476D01*
X52599244Y7957762D01*
X52568291Y7895857D01*
X52537339Y7864905D01*
X52475434Y7833952D01*
X52382577Y7833952D01*
X52784958Y8267286D02*
X53032577Y8267286D01*
X52877815Y8483952D02*
X52877815Y7926810D01*
X52908767Y7864905D01*
X52970672Y7833952D01*
X53032577Y7833952D01*
X53249244Y7833952D02*
X53249244Y8267286D01*
X53249244Y8143476D02*
X53280196Y8205381D01*
X53311149Y8236333D01*
X53373053Y8267286D01*
X53434958Y8267286D01*
X53744482Y7833952D02*
X53682577Y7864905D01*
X53651625Y7895857D01*
X53620673Y7957762D01*
X53620673Y8143476D01*
X53651625Y8205381D01*
X53682577Y8236333D01*
X53744482Y8267286D01*
X53837339Y8267286D01*
X53899244Y8236333D01*
X53930196Y8205381D01*
X53961149Y8143476D01*
X53961149Y7957762D01*
X53930196Y7895857D01*
X53899244Y7864905D01*
X53837339Y7833952D01*
X53744482Y7833952D01*
X54239720Y8267286D02*
X54239720Y7833952D01*
X54239720Y8205381D02*
X54270672Y8236333D01*
X54332577Y8267286D01*
X54425434Y8267286D01*
X54487339Y8236333D01*
X54518291Y8174429D01*
X54518291Y7833952D01*
X55261148Y8483952D02*
X55415910Y7833952D01*
X55539720Y8298238D01*
X55663529Y7833952D01*
X55818291Y8483952D01*
X56344481Y7833952D02*
X56344481Y8174429D01*
X56313529Y8236333D01*
X56251624Y8267286D01*
X56127815Y8267286D01*
X56065910Y8236333D01*
X56344481Y7864905D02*
X56282577Y7833952D01*
X56127815Y7833952D01*
X56065910Y7864905D01*
X56034958Y7926810D01*
X56034958Y7988714D01*
X56065910Y8050619D01*
X56127815Y8081571D01*
X56282577Y8081571D01*
X56344481Y8112524D01*
X56654005Y8267286D02*
X56654005Y7833952D01*
X56654005Y8205381D02*
X56684957Y8236333D01*
X56746862Y8267286D01*
X56839719Y8267286D01*
X56901624Y8236333D01*
X56932576Y8174429D01*
X56932576Y7833952D01*
X57520671Y7833952D02*
X57520671Y8483952D01*
X57520671Y7864905D02*
X57458767Y7833952D01*
X57334957Y7833952D01*
X57273052Y7864905D01*
X57242100Y7895857D01*
X57211148Y7957762D01*
X57211148Y8143476D01*
X57242100Y8205381D01*
X57273052Y8236333D01*
X57334957Y8267286D01*
X57458767Y8267286D01*
X57520671Y8236333D01*
X58077814Y7864905D02*
X58015909Y7833952D01*
X57892100Y7833952D01*
X57830195Y7864905D01*
X57799243Y7926810D01*
X57799243Y8174429D01*
X57830195Y8236333D01*
X57892100Y8267286D01*
X58015909Y8267286D01*
X58077814Y8236333D01*
X58108766Y8174429D01*
X58108766Y8112524D01*
X57799243Y8050619D01*
X58387338Y7833952D02*
X58387338Y8267286D01*
X58387338Y8143476D02*
X58418290Y8205381D01*
X58449243Y8236333D01*
X58511147Y8267286D01*
X58573052Y8267286D01*
X58882576Y7833952D02*
X58820671Y7864905D01*
X58789719Y7926810D01*
X58789719Y8483952D01*
X59408766Y8267286D02*
X59408766Y7833952D01*
X59130195Y8267286D02*
X59130195Y7926810D01*
X59161147Y7864905D01*
X59223052Y7833952D01*
X59315909Y7833952D01*
X59377814Y7864905D01*
X59408766Y7895857D01*
X59687338Y7864905D02*
X59749242Y7833952D01*
X59873052Y7833952D01*
X59934957Y7864905D01*
X59965909Y7926810D01*
X59965909Y7957762D01*
X59934957Y8019667D01*
X59873052Y8050619D01*
X59780195Y8050619D01*
X59718290Y8081571D01*
X59687338Y8143476D01*
X59687338Y8174429D01*
X59718290Y8236333D01*
X59780195Y8267286D01*
X59873052Y8267286D01*
X59934957Y8236333D01*
X60151623Y8267286D02*
X60399242Y8267286D01*
X60244480Y8483952D02*
X60244480Y7926810D01*
X60275432Y7864905D01*
X60337337Y7833952D01*
X60399242Y7833952D01*
X61049242Y8483952D02*
X61451623Y8483952D01*
X61234956Y8236333D01*
X61327814Y8236333D01*
X61389718Y8205381D01*
X61420671Y8174429D01*
X61451623Y8112524D01*
X61451623Y7957762D01*
X61420671Y7895857D01*
X61389718Y7864905D01*
X61327814Y7833952D01*
X61142099Y7833952D01*
X61080195Y7864905D01*
X61049242Y7895857D01*
X61699243Y8422048D02*
X61730195Y8453000D01*
X61792100Y8483952D01*
X61946862Y8483952D01*
X62008766Y8453000D01*
X62039719Y8422048D01*
X62070671Y8360143D01*
X62070671Y8298238D01*
X62039719Y8205381D01*
X61668290Y7833952D01*
X62070671Y7833952D01*
X62720671Y7895857D02*
X62689719Y7864905D01*
X62596862Y7833952D01*
X62534957Y7833952D01*
X62442100Y7864905D01*
X62380195Y7926810D01*
X62349243Y7988714D01*
X62318291Y8112524D01*
X62318291Y8205381D01*
X62349243Y8329190D01*
X62380195Y8391095D01*
X62442100Y8453000D01*
X62534957Y8483952D01*
X62596862Y8483952D01*
X62689719Y8453000D01*
X62720671Y8422048D01*
X62999243Y7833952D02*
X62999243Y8483952D01*
X62999243Y8174429D02*
X63370671Y8174429D01*
X63370671Y7833952D02*
X63370671Y8483952D01*
X64144481Y7864905D02*
X64237338Y7833952D01*
X64392100Y7833952D01*
X64454004Y7864905D01*
X64484957Y7895857D01*
X64515909Y7957762D01*
X64515909Y8019667D01*
X64484957Y8081571D01*
X64454004Y8112524D01*
X64392100Y8143476D01*
X64268290Y8174429D01*
X64206385Y8205381D01*
X64175433Y8236333D01*
X64144481Y8298238D01*
X64144481Y8360143D01*
X64175433Y8422048D01*
X64206385Y8453000D01*
X64268290Y8483952D01*
X64423052Y8483952D01*
X64515909Y8453000D01*
X65042100Y7864905D02*
X64980195Y7833952D01*
X64856386Y7833952D01*
X64794481Y7864905D01*
X64763529Y7926810D01*
X64763529Y8174429D01*
X64794481Y8236333D01*
X64856386Y8267286D01*
X64980195Y8267286D01*
X65042100Y8236333D01*
X65073052Y8174429D01*
X65073052Y8112524D01*
X64763529Y8050619D01*
X65351624Y7833952D02*
X65351624Y8267286D01*
X65351624Y8143476D02*
X65382576Y8205381D01*
X65413529Y8236333D01*
X65475433Y8267286D01*
X65537338Y8267286D01*
X65754005Y7833952D02*
X65754005Y8267286D01*
X65754005Y8483952D02*
X65723053Y8453000D01*
X65754005Y8422048D01*
X65784957Y8453000D01*
X65754005Y8483952D01*
X65754005Y8422048D01*
X66342100Y7833952D02*
X66342100Y8174429D01*
X66311148Y8236333D01*
X66249243Y8267286D01*
X66125434Y8267286D01*
X66063529Y8236333D01*
X66342100Y7864905D02*
X66280196Y7833952D01*
X66125434Y7833952D01*
X66063529Y7864905D01*
X66032577Y7926810D01*
X66032577Y7988714D01*
X66063529Y8050619D01*
X66125434Y8081571D01*
X66280196Y8081571D01*
X66342100Y8112524D01*
X66744481Y7833952D02*
X66682576Y7864905D01*
X66651624Y7926810D01*
X66651624Y8483952D01*
X70334956Y7833952D02*
X70118290Y8143476D01*
X69963528Y7833952D02*
X69963528Y8483952D01*
X70211147Y8483952D01*
X70273052Y8453000D01*
X70304004Y8422048D01*
X70334956Y8360143D01*
X70334956Y8267286D01*
X70304004Y8205381D01*
X70273052Y8174429D01*
X70211147Y8143476D01*
X69963528Y8143476D01*
X70954004Y8453000D02*
X70892099Y8483952D01*
X70799242Y8483952D01*
X70706385Y8453000D01*
X70644480Y8391095D01*
X70613528Y8329190D01*
X70582576Y8205381D01*
X70582576Y8112524D01*
X70613528Y7988714D01*
X70644480Y7926810D01*
X70706385Y7864905D01*
X70799242Y7833952D01*
X70861147Y7833952D01*
X70954004Y7864905D01*
X70984956Y7895857D01*
X70984956Y8112524D01*
X70861147Y8112524D01*
X71480195Y8174429D02*
X71573052Y8143476D01*
X71604004Y8112524D01*
X71634956Y8050619D01*
X71634956Y7957762D01*
X71604004Y7895857D01*
X71573052Y7864905D01*
X71511147Y7833952D01*
X71263528Y7833952D01*
X71263528Y8483952D01*
X71480195Y8483952D01*
X71542099Y8453000D01*
X71573052Y8422048D01*
X71604004Y8360143D01*
X71604004Y8298238D01*
X71573052Y8236333D01*
X71542099Y8205381D01*
X71480195Y8174429D01*
X71263528Y8174429D01*
X72377814Y8019667D02*
X72687337Y8019667D01*
X72315909Y7833952D02*
X72532575Y8483952D01*
X72749242Y7833952D01*
X72965909Y7833952D02*
X72965909Y8483952D01*
X73213528Y8483952D01*
X73275433Y8453000D01*
X73306385Y8422048D01*
X73337337Y8360143D01*
X73337337Y8267286D01*
X73306385Y8205381D01*
X73275433Y8174429D01*
X73213528Y8143476D01*
X72965909Y8143476D01*
X73584957Y8019667D02*
X73894480Y8019667D01*
X73523052Y7833952D02*
X73739718Y8483952D01*
X73956385Y7833952D01*
X74513528Y7833952D02*
X74142100Y7833952D01*
X74327814Y7833952D02*
X74327814Y8483952D01*
X74265909Y8391095D01*
X74204004Y8329190D01*
X74142100Y8298238D01*
X74915909Y8483952D02*
X74977814Y8483952D01*
X75039719Y8453000D01*
X75070671Y8422048D01*
X75101624Y8360143D01*
X75132576Y8236333D01*
X75132576Y8081571D01*
X75101624Y7957762D01*
X75070671Y7895857D01*
X75039719Y7864905D01*
X74977814Y7833952D01*
X74915909Y7833952D01*
X74854005Y7864905D01*
X74823052Y7895857D01*
X74792100Y7957762D01*
X74761148Y8081571D01*
X74761148Y8236333D01*
X74792100Y8360143D01*
X74823052Y8422048D01*
X74854005Y8453000D01*
X74915909Y8483952D01*
X75380196Y8422048D02*
X75411148Y8453000D01*
X75473053Y8483952D01*
X75627815Y8483952D01*
X75689719Y8453000D01*
X75720672Y8422048D01*
X75751624Y8360143D01*
X75751624Y8298238D01*
X75720672Y8205381D01*
X75349243Y7833952D01*
X75751624Y7833952D01*
X76401624Y7895857D02*
X76370672Y7864905D01*
X76277815Y7833952D01*
X76215910Y7833952D01*
X76123053Y7864905D01*
X76061148Y7926810D01*
X76030196Y7988714D01*
X75999244Y8112524D01*
X75999244Y8205381D01*
X76030196Y8329190D01*
X76061148Y8391095D01*
X76123053Y8453000D01*
X76215910Y8483952D01*
X76277815Y8483952D01*
X76370672Y8453000D01*
X76401624Y8422048D01*
X77484958Y7833952D02*
X77175434Y7833952D01*
X77175434Y8483952D01*
X77701624Y8174429D02*
X77918291Y8174429D01*
X78011148Y7833952D02*
X77701624Y7833952D01*
X77701624Y8483952D01*
X78011148Y8483952D01*
X78289719Y7833952D02*
X78289719Y8483952D01*
X78444481Y8483952D01*
X78537338Y8453000D01*
X78599243Y8391095D01*
X78630195Y8329190D01*
X78661147Y8205381D01*
X78661147Y8112524D01*
X78630195Y7988714D01*
X78599243Y7926810D01*
X78537338Y7864905D01*
X78444481Y7833952D01*
X78289719Y7833952D01*
X79404005Y8019667D02*
X79713528Y8019667D01*
X79342100Y7833952D02*
X79558766Y8483952D01*
X79775433Y7833952D01*
X79992100Y7833952D02*
X79992100Y8267286D01*
X79992100Y8143476D02*
X80023052Y8205381D01*
X80054005Y8236333D01*
X80115909Y8267286D01*
X80177814Y8267286D01*
X80394481Y7833952D02*
X80394481Y8267286D01*
X80394481Y8143476D02*
X80425433Y8205381D01*
X80456386Y8236333D01*
X80518290Y8267286D01*
X80580195Y8267286D01*
X81075433Y7833952D02*
X81075433Y8174429D01*
X81044481Y8236333D01*
X80982576Y8267286D01*
X80858767Y8267286D01*
X80796862Y8236333D01*
X81075433Y7864905D02*
X81013529Y7833952D01*
X80858767Y7833952D01*
X80796862Y7864905D01*
X80765910Y7926810D01*
X80765910Y7988714D01*
X80796862Y8050619D01*
X80858767Y8081571D01*
X81013529Y8081571D01*
X81075433Y8112524D01*
X81323052Y8267286D02*
X81477814Y7833952D01*
X81632576Y8267286D02*
X81477814Y7833952D01*
X81415909Y7679190D01*
X81384957Y7648238D01*
X81323052Y7617286D01*
X82468290Y7833952D02*
X82406385Y7864905D01*
X82375433Y7895857D01*
X82344481Y7957762D01*
X82344481Y8143476D01*
X82375433Y8205381D01*
X82406385Y8236333D01*
X82468290Y8267286D01*
X82561147Y8267286D01*
X82623052Y8236333D01*
X82654004Y8205381D01*
X82684957Y8143476D01*
X82684957Y7957762D01*
X82654004Y7895857D01*
X82623052Y7864905D01*
X82561147Y7833952D01*
X82468290Y7833952D01*
X82870671Y8267286D02*
X83118290Y8267286D01*
X82963528Y7833952D02*
X82963528Y8391095D01*
X82994480Y8453000D01*
X83056385Y8483952D01*
X83118290Y8483952D01*
X84108766Y7833952D02*
X84108766Y8483952D01*
X84108766Y7864905D02*
X84046862Y7833952D01*
X83923052Y7833952D01*
X83861147Y7864905D01*
X83830195Y7895857D01*
X83799243Y7957762D01*
X83799243Y8143476D01*
X83830195Y8205381D01*
X83861147Y8236333D01*
X83923052Y8267286D01*
X84046862Y8267286D01*
X84108766Y8236333D01*
X84696861Y7833952D02*
X84696861Y8174429D01*
X84665909Y8236333D01*
X84604004Y8267286D01*
X84480195Y8267286D01*
X84418290Y8236333D01*
X84696861Y7864905D02*
X84634957Y7833952D01*
X84480195Y7833952D01*
X84418290Y7864905D01*
X84387338Y7926810D01*
X84387338Y7988714D01*
X84418290Y8050619D01*
X84480195Y8081571D01*
X84634957Y8081571D01*
X84696861Y8112524D01*
X84944480Y8267286D02*
X85284956Y8267286D01*
X84944480Y7833952D01*
X85284956Y7833952D01*
X85470670Y8267286D02*
X85811146Y8267286D01*
X85470670Y7833952D01*
X85811146Y7833952D01*
X86151622Y7833952D02*
X86089717Y7864905D01*
X86058765Y7926810D01*
X86058765Y8483952D01*
X86399241Y7833952D02*
X86399241Y8267286D01*
X86399241Y8483952D02*
X86368289Y8453000D01*
X86399241Y8422048D01*
X86430193Y8453000D01*
X86399241Y8483952D01*
X86399241Y8422048D01*
X86708765Y8267286D02*
X86708765Y7833952D01*
X86708765Y8205381D02*
X86739717Y8236333D01*
X86801622Y8267286D01*
X86894479Y8267286D01*
X86956384Y8236333D01*
X86987336Y8174429D01*
X86987336Y7833952D01*
X87575431Y8267286D02*
X87575431Y7741095D01*
X87544479Y7679190D01*
X87513527Y7648238D01*
X87451622Y7617286D01*
X87358765Y7617286D01*
X87296860Y7648238D01*
X87575431Y7864905D02*
X87513527Y7833952D01*
X87389717Y7833952D01*
X87327812Y7864905D01*
X87296860Y7895857D01*
X87265908Y7957762D01*
X87265908Y8143476D01*
X87296860Y8205381D01*
X87327812Y8236333D01*
X87389717Y8267286D01*
X87513527Y8267286D01*
X87575431Y8236333D01*
X88473050Y7833952D02*
X88411145Y7864905D01*
X88380193Y7926810D01*
X88380193Y8483952D01*
X88720669Y7833952D02*
X88720669Y8267286D01*
X88720669Y8483952D02*
X88689717Y8453000D01*
X88720669Y8422048D01*
X88751621Y8453000D01*
X88720669Y8483952D01*
X88720669Y8422048D01*
X89308764Y8267286D02*
X89308764Y7741095D01*
X89277812Y7679190D01*
X89246860Y7648238D01*
X89184955Y7617286D01*
X89092098Y7617286D01*
X89030193Y7648238D01*
X89308764Y7864905D02*
X89246860Y7833952D01*
X89123050Y7833952D01*
X89061145Y7864905D01*
X89030193Y7895857D01*
X88999241Y7957762D01*
X88999241Y8143476D01*
X89030193Y8205381D01*
X89061145Y8236333D01*
X89123050Y8267286D01*
X89246860Y8267286D01*
X89308764Y8236333D01*
X89618288Y7833952D02*
X89618288Y8483952D01*
X89896859Y7833952D02*
X89896859Y8174429D01*
X89865907Y8236333D01*
X89804002Y8267286D01*
X89711145Y8267286D01*
X89649240Y8236333D01*
X89618288Y8205381D01*
X90113526Y8267286D02*
X90361145Y8267286D01*
X90206383Y8483952D02*
X90206383Y7926810D01*
X90237335Y7864905D01*
X90299240Y7833952D01*
X90361145Y7833952D01*
D13*
X166856000Y1072400D02*
X159744000Y1072400D01*
X166856000Y6152400D02*
X166856000Y1072400D01*
X160252000Y6152400D02*
X166856000Y6152400D01*
X159744000Y5644400D02*
X160252000Y6152400D01*
X159744000Y1072400D02*
X159744000Y5644400D01*
X166856000Y9213100D02*
X159744000Y9213100D01*
X166856000Y14293100D02*
X166856000Y9213100D01*
X160252000Y14293100D02*
X166856000Y14293100D01*
X159744000Y13785100D02*
X160252000Y14293100D01*
X159744000Y9213100D02*
X159744000Y13785100D01*
X136856000Y9213100D02*
X129744000Y9213100D01*
X136856000Y14293100D02*
X136856000Y9213100D01*
X130252000Y14293100D02*
X136856000Y14293100D01*
X129744000Y13785100D02*
X130252000Y14293100D01*
X129744000Y9213100D02*
X129744000Y13785100D01*
X36856000Y9213100D02*
X29744000Y9213100D01*
X36856000Y14293100D02*
X36856000Y9213100D01*
X30252000Y14293100D02*
X36856000Y14293100D01*
X29744000Y13785100D02*
X30252000Y14293100D01*
X29744000Y9213100D02*
X29744000Y13785100D01*
X16440000Y11882200D02*
G75*
G03X16440000Y11882200I-250000J0D01*
G01*
X16440000Y12382200D02*
X21440000Y12382200D01*
X16440000Y9382200D02*
X16440000Y12382200D01*
X21440000Y9382200D02*
X16440000Y9382200D01*
X21440000Y12382200D02*
X21440000Y9382200D01*
X5286000Y12768700D02*
G75*
G03X5286000Y12768700I-2286000J0D01*
G01*
X5286000Y2706200D02*
G75*
G03X5286000Y2706200I-2286000J0D01*
G01*
X198326000Y12768700D02*
G75*
G03X198326000Y12768700I-2286000J0D01*
G01*
X106856000Y9213100D02*
X99744000Y9213100D01*
X106856000Y14293100D02*
X106856000Y9213100D01*
X100252000Y14293100D02*
X106856000Y14293100D01*
X99744000Y13785100D02*
X100252000Y14293100D01*
X99744000Y9213100D02*
X99744000Y13785100D01*
X46856000Y9213100D02*
X39744000Y9213100D01*
X46856000Y14293100D02*
X46856000Y9213100D01*
X40252000Y14293100D02*
X46856000Y14293100D01*
X39744000Y13785100D02*
X40252000Y14293100D01*
X39744000Y9213100D02*
X39744000Y13785100D01*
X37950000Y10353100D02*
X38650000Y10353100D01*
X38650000Y9153100D02*
X37950000Y9153100D01*
X47950000Y10353100D02*
X48650000Y10353100D01*
X48650000Y9153100D02*
X47950000Y9153100D01*
X57950000Y10353100D02*
X58650000Y10353100D01*
X58650000Y9153100D02*
X57950000Y9153100D01*
X67950000Y10353100D02*
X68650000Y10353100D01*
X68650000Y9153100D02*
X67950000Y9153100D01*
X77950000Y10353100D02*
X78650000Y10353100D01*
X78650000Y9153100D02*
X77950000Y9153100D01*
X87950000Y10353100D02*
X88650000Y10353100D01*
X88650000Y9153100D02*
X87950000Y9153100D01*
X97950000Y10353100D02*
X98650000Y10353100D01*
X98650000Y9153100D02*
X97950000Y9153100D01*
X107950000Y10353100D02*
X108650000Y10353100D01*
X108650000Y9153100D02*
X107950000Y9153100D01*
X56856000Y9213100D02*
X49744000Y9213100D01*
X56856000Y14293100D02*
X56856000Y9213100D01*
X50252000Y14293100D02*
X56856000Y14293100D01*
X49744000Y13785100D02*
X50252000Y14293100D01*
X49744000Y9213100D02*
X49744000Y13785100D01*
X66856000Y9213100D02*
X59744000Y9213100D01*
X66856000Y14293100D02*
X66856000Y9213100D01*
X60252000Y14293100D02*
X66856000Y14293100D01*
X59744000Y13785100D02*
X60252000Y14293100D01*
X59744000Y9213100D02*
X59744000Y13785100D01*
X76856000Y9213100D02*
X69744000Y9213100D01*
X76856000Y14293100D02*
X76856000Y9213100D01*
X70252000Y14293100D02*
X76856000Y14293100D01*
X69744000Y13785100D02*
X70252000Y14293100D01*
X69744000Y9213100D02*
X69744000Y13785100D01*
X86856000Y9213100D02*
X79744000Y9213100D01*
X86856000Y14293100D02*
X86856000Y9213100D01*
X80252000Y14293100D02*
X86856000Y14293100D01*
X79744000Y13785100D02*
X80252000Y14293100D01*
X79744000Y9213100D02*
X79744000Y13785100D01*
X96856000Y9213100D02*
X89744000Y9213100D01*
X96856000Y14293100D02*
X96856000Y9213100D01*
X90252000Y14293100D02*
X96856000Y14293100D01*
X89744000Y13785100D02*
X90252000Y14293100D01*
X89744000Y9213100D02*
X89744000Y13785100D01*
X117950000Y10353100D02*
X118650000Y10353100D01*
X118650000Y9153100D02*
X117950000Y9153100D01*
X127950000Y10353100D02*
X128650000Y10353100D01*
X128650000Y9153100D02*
X127950000Y9153100D01*
X137950000Y10353100D02*
X138650000Y10353100D01*
X138650000Y9153100D02*
X137950000Y9153100D01*
X147950000Y10353100D02*
X148650000Y10353100D01*
X148650000Y9153100D02*
X147950000Y9153100D01*
X157950000Y10353100D02*
X158650000Y10353100D01*
X158650000Y9153100D02*
X157950000Y9153100D01*
X167950000Y10353100D02*
X168650000Y10353100D01*
X168650000Y9153100D02*
X167950000Y9153100D01*
X177950000Y10353100D02*
X178650000Y10353100D01*
X178650000Y9153100D02*
X177950000Y9153100D01*
X183374000Y7020000D02*
X182674000Y7020000D01*
X182674000Y8220000D02*
X183374000Y8220000D01*
X116856000Y9213100D02*
X109744000Y9213100D01*
X116856000Y14293100D02*
X116856000Y9213100D01*
X110252000Y14293100D02*
X116856000Y14293100D01*
X109744000Y13785100D02*
X110252000Y14293100D01*
X109744000Y9213100D02*
X109744000Y13785100D01*
X126856000Y9213100D02*
X119744000Y9213100D01*
X126856000Y14293100D02*
X126856000Y9213100D01*
X120252000Y14293100D02*
X126856000Y14293100D01*
X119744000Y13785100D02*
X120252000Y14293100D01*
X119744000Y9213100D02*
X119744000Y13785100D01*
X146856000Y9213100D02*
X139744000Y9213100D01*
X146856000Y14293100D02*
X146856000Y9213100D01*
X140252000Y14293100D02*
X146856000Y14293100D01*
X139744000Y13785100D02*
X140252000Y14293100D01*
X139744000Y9213100D02*
X139744000Y13785100D01*
X156856000Y9213100D02*
X149744000Y9213100D01*
X156856000Y14293100D02*
X156856000Y9213100D01*
X150252000Y14293100D02*
X156856000Y14293100D01*
X149744000Y13785100D02*
X150252000Y14293100D01*
X149744000Y9213100D02*
X149744000Y13785100D01*
X176856000Y9213100D02*
X169744000Y9213100D01*
X176856000Y14293100D02*
X176856000Y9213100D01*
X170252000Y14293100D02*
X176856000Y14293100D01*
X169744000Y13785100D02*
X170252000Y14293100D01*
X169744000Y9213100D02*
X169744000Y13785100D01*
X186856000Y9213100D02*
X179744000Y9213100D01*
X186856000Y14293100D02*
X186856000Y9213100D01*
X180252000Y14293100D02*
X186856000Y14293100D01*
X179744000Y13785100D02*
X180252000Y14293100D01*
X179744000Y9213100D02*
X179744000Y13785100D01*
X198326000Y2706200D02*
G75*
G03X198326000Y2706200I-2286000J0D01*
G01*
X37950000Y2721800D02*
X38650000Y2721800D01*
X38650000Y1521800D02*
X37950000Y1521800D01*
X47950000Y2721800D02*
X48650000Y2721800D01*
X48650000Y1521800D02*
X47950000Y1521800D01*
X57950000Y2721800D02*
X58650000Y2721800D01*
X58650000Y1521800D02*
X57950000Y1521800D01*
X67950000Y2721800D02*
X68650000Y2721800D01*
X68650000Y1521800D02*
X67950000Y1521800D01*
X77950000Y2721800D02*
X78650000Y2721800D01*
X78650000Y1521800D02*
X77950000Y1521800D01*
X87950000Y2721800D02*
X88650000Y2721800D01*
X88650000Y1521800D02*
X87950000Y1521800D01*
X97950000Y2721800D02*
X98650000Y2721800D01*
X98650000Y1521800D02*
X97950000Y1521800D01*
X107950000Y2534300D02*
X108650000Y2534300D01*
X108650000Y1334300D02*
X107950000Y1334300D01*
X117950000Y2721800D02*
X118650000Y2721800D01*
X118650000Y1521800D02*
X117950000Y1521800D01*
X127950000Y2721800D02*
X128650000Y2721800D01*
X128650000Y1521800D02*
X127950000Y1521800D01*
X137950000Y2721800D02*
X138650000Y2721800D01*
X138650000Y1521800D02*
X137950000Y1521800D01*
X147950000Y2721800D02*
X148650000Y2721800D01*
X148650000Y1521800D02*
X147950000Y1521800D01*
X157950000Y2721800D02*
X158650000Y2721800D01*
X158650000Y1521800D02*
X157950000Y1521800D01*
X167950000Y2721800D02*
X168650000Y2721800D01*
X168650000Y1521800D02*
X167950000Y1521800D01*
X177950000Y2721800D02*
X178650000Y2721800D01*
X178650000Y1521800D02*
X177950000Y1521800D01*
X36856000Y1072400D02*
X29744000Y1072400D01*
X36856000Y6152400D02*
X36856000Y1072400D01*
X30252000Y6152400D02*
X36856000Y6152400D01*
X29744000Y5644400D02*
X30252000Y6152400D01*
X29744000Y1072400D02*
X29744000Y5644400D01*
X46856000Y1072400D02*
X39744000Y1072400D01*
X46856000Y6152400D02*
X46856000Y1072400D01*
X40252000Y6152400D02*
X46856000Y6152400D01*
X39744000Y5644400D02*
X40252000Y6152400D01*
X39744000Y1072400D02*
X39744000Y5644400D01*
X56856000Y1072400D02*
X49744000Y1072400D01*
X56856000Y6152400D02*
X56856000Y1072400D01*
X50252000Y6152400D02*
X56856000Y6152400D01*
X49744000Y5644400D02*
X50252000Y6152400D01*
X49744000Y1072400D02*
X49744000Y5644400D01*
X66856000Y1072400D02*
X59744000Y1072400D01*
X66856000Y6152400D02*
X66856000Y1072400D01*
X60252000Y6152400D02*
X66856000Y6152400D01*
X59744000Y5644400D02*
X60252000Y6152400D01*
X59744000Y1072400D02*
X59744000Y5644400D01*
X76856000Y1072400D02*
X69744000Y1072400D01*
X76856000Y6152400D02*
X76856000Y1072400D01*
X70252000Y6152400D02*
X76856000Y6152400D01*
X69744000Y5644400D02*
X70252000Y6152400D01*
X69744000Y1072400D02*
X69744000Y5644400D01*
X86856000Y1072400D02*
X79744000Y1072400D01*
X86856000Y6152400D02*
X86856000Y1072400D01*
X80252000Y6152400D02*
X86856000Y6152400D01*
X79744000Y5644400D02*
X80252000Y6152400D01*
X79744000Y1072400D02*
X79744000Y5644400D01*
X96856000Y1072400D02*
X89744000Y1072400D01*
X96856000Y6152400D02*
X96856000Y1072400D01*
X90252000Y6152400D02*
X96856000Y6152400D01*
X89744000Y5644400D02*
X90252000Y6152400D01*
X89744000Y1072400D02*
X89744000Y5644400D01*
X106856000Y1072400D02*
X99744000Y1072400D01*
X106856000Y6152400D02*
X106856000Y1072400D01*
X100252000Y6152400D02*
X106856000Y6152400D01*
X99744000Y5644400D02*
X100252000Y6152400D01*
X99744000Y1072400D02*
X99744000Y5644400D01*
X116856000Y1072400D02*
X109744000Y1072400D01*
X116856000Y6152400D02*
X116856000Y1072400D01*
X110252000Y6152400D02*
X116856000Y6152400D01*
X109744000Y5644400D02*
X110252000Y6152400D01*
X109744000Y1072400D02*
X109744000Y5644400D01*
X126856000Y1072400D02*
X119744000Y1072400D01*
X126856000Y6152400D02*
X126856000Y1072400D01*
X120252000Y6152400D02*
X126856000Y6152400D01*
X119744000Y5644400D02*
X120252000Y6152400D01*
X119744000Y1072400D02*
X119744000Y5644400D01*
X136856000Y1072400D02*
X129744000Y1072400D01*
X136856000Y6152400D02*
X136856000Y1072400D01*
X130252000Y6152400D02*
X136856000Y6152400D01*
X129744000Y5644400D02*
X130252000Y6152400D01*
X129744000Y1072400D02*
X129744000Y5644400D01*
X146856000Y1072400D02*
X139744000Y1072400D01*
X146856000Y6152400D02*
X146856000Y1072400D01*
X140252000Y6152400D02*
X146856000Y6152400D01*
X139744000Y5644400D02*
X140252000Y6152400D01*
X139744000Y1072400D02*
X139744000Y5644400D01*
X156856000Y1072400D02*
X149744000Y1072400D01*
X156856000Y6152400D02*
X156856000Y1072400D01*
X150252000Y6152400D02*
X156856000Y6152400D01*
X149744000Y5644400D02*
X150252000Y6152400D01*
X149744000Y1072400D02*
X149744000Y5644400D01*
X176856000Y1072400D02*
X169744000Y1072400D01*
X176856000Y6152400D02*
X176856000Y1072400D01*
X170252000Y6152400D02*
X176856000Y6152400D01*
X169744000Y5644400D02*
X170252000Y6152400D01*
X169744000Y1072400D02*
X169744000Y5644400D01*
X186856000Y1072400D02*
X179744000Y1072400D01*
X186856000Y6152400D02*
X186856000Y1072400D01*
X180252000Y6152400D02*
X186856000Y6152400D01*
X179744000Y5644400D02*
X180252000Y6152400D01*
X179744000Y1072400D02*
X179744000Y5644400D01*
X19290000Y6726200D02*
X18590000Y6726200D01*
X18590000Y7926200D02*
X19290000Y7926200D01*
X19290000Y12822200D02*
X18590000Y12822200D01*
X18590000Y14022200D02*
X19290000Y14022200D01*
X16440000Y5532200D02*
G75*
G03X16440000Y5532200I-250000J0D01*
G01*
X16440000Y6032200D02*
X21440000Y6032200D01*
X16440000Y3032200D02*
X16440000Y6032200D01*
X21440000Y3032200D02*
X16440000Y3032200D01*
X21440000Y6032200D02*
X21440000Y3032200D01*
D14*
X159680953Y6898710D02*
X159680953Y6493948D01*
X159704762Y6446329D01*
X159728572Y6422519D01*
X159776191Y6398710D01*
X159871429Y6398710D01*
X159919048Y6422519D01*
X159942857Y6446329D01*
X159966667Y6493948D01*
X159966667Y6898710D01*
X160180953Y6851090D02*
X160204763Y6874900D01*
X160252382Y6898710D01*
X160371429Y6898710D01*
X160419048Y6874900D01*
X160442858Y6851090D01*
X160466667Y6803471D01*
X160466667Y6755852D01*
X160442858Y6684424D01*
X160157144Y6398710D01*
X160466667Y6398710D01*
X160704762Y6398710D02*
X160800000Y6398710D01*
X160847619Y6422519D01*
X160871429Y6446329D01*
X160919048Y6517757D01*
X160942857Y6612995D01*
X160942857Y6803471D01*
X160919048Y6851090D01*
X160895238Y6874900D01*
X160847619Y6898710D01*
X160752381Y6898710D01*
X160704762Y6874900D01*
X160680953Y6851090D01*
X160657143Y6803471D01*
X160657143Y6684424D01*
X160680953Y6636805D01*
X160704762Y6612995D01*
X160752381Y6589186D01*
X160847619Y6589186D01*
X160895238Y6612995D01*
X160919048Y6636805D01*
X160942857Y6684424D01*
X159680953Y15226910D02*
X159680953Y14822148D01*
X159704762Y14774529D01*
X159728572Y14750719D01*
X159776191Y14726910D01*
X159871429Y14726910D01*
X159919048Y14750719D01*
X159942857Y14774529D01*
X159966667Y14822148D01*
X159966667Y15226910D01*
X160466667Y14726910D02*
X160180953Y14726910D01*
X160323810Y14726910D02*
X160323810Y15226910D01*
X160276191Y15155481D01*
X160228572Y15107862D01*
X160180953Y15084052D01*
X160633334Y15226910D02*
X160942857Y15226910D01*
X160776191Y15036433D01*
X160847619Y15036433D01*
X160895238Y15012624D01*
X160919048Y14988814D01*
X160942857Y14941195D01*
X160942857Y14822148D01*
X160919048Y14774529D01*
X160895238Y14750719D01*
X160847619Y14726910D01*
X160704762Y14726910D01*
X160657143Y14750719D01*
X160633334Y14774529D01*
X132680953Y15526910D02*
X132680953Y15122148D01*
X132704762Y15074529D01*
X132728572Y15050719D01*
X132776191Y15026910D01*
X132871429Y15026910D01*
X132919048Y15050719D01*
X132942857Y15074529D01*
X132966667Y15122148D01*
X132966667Y15526910D01*
X133466667Y15026910D02*
X133180953Y15026910D01*
X133323810Y15026910D02*
X133323810Y15526910D01*
X133276191Y15455481D01*
X133228572Y15407862D01*
X133180953Y15384052D01*
X133776191Y15526910D02*
X133823810Y15526910D01*
X133871429Y15503100D01*
X133895238Y15479290D01*
X133919048Y15431671D01*
X133942857Y15336433D01*
X133942857Y15217386D01*
X133919048Y15122148D01*
X133895238Y15074529D01*
X133871429Y15050719D01*
X133823810Y15026910D01*
X133776191Y15026910D01*
X133728572Y15050719D01*
X133704762Y15074529D01*
X133680953Y15122148D01*
X133657143Y15217386D01*
X133657143Y15336433D01*
X133680953Y15431671D01*
X133704762Y15479290D01*
X133728572Y15503100D01*
X133776191Y15526910D01*
X29919048Y15226910D02*
X29919048Y14822148D01*
X29942857Y14774529D01*
X29966667Y14750719D01*
X30014286Y14726910D01*
X30109524Y14726910D01*
X30157143Y14750719D01*
X30180952Y14774529D01*
X30204762Y14822148D01*
X30204762Y15226910D01*
X30538096Y15226910D02*
X30585715Y15226910D01*
X30633334Y15203100D01*
X30657143Y15179290D01*
X30680953Y15131671D01*
X30704762Y15036433D01*
X30704762Y14917386D01*
X30680953Y14822148D01*
X30657143Y14774529D01*
X30633334Y14750719D01*
X30585715Y14726910D01*
X30538096Y14726910D01*
X30490477Y14750719D01*
X30466667Y14774529D01*
X30442858Y14822148D01*
X30419048Y14917386D01*
X30419048Y15036433D01*
X30442858Y15131671D01*
X30466667Y15179290D01*
X30490477Y15203100D01*
X30538096Y15226910D01*
X17944001Y8909810D02*
X17944001Y8505048D01*
X17967810Y8457429D01*
X17991620Y8433619D01*
X18039239Y8409810D01*
X18134477Y8409810D01*
X18182096Y8433619D01*
X18205905Y8457429D01*
X18229715Y8505048D01*
X18229715Y8909810D01*
X18467811Y8409810D02*
X18467811Y8909810D01*
X18586858Y8909810D01*
X18658287Y8886000D01*
X18705906Y8838381D01*
X18729715Y8790762D01*
X18753525Y8695524D01*
X18753525Y8624095D01*
X18729715Y8528857D01*
X18705906Y8481238D01*
X18658287Y8433619D01*
X18586858Y8409810D01*
X18467811Y8409810D01*
X18944001Y8552667D02*
X19182096Y8552667D01*
X18896382Y8409810D02*
X19063049Y8909810D01*
X19229715Y8409810D01*
X19324953Y8909810D02*
X19610667Y8909810D01*
X19467810Y8409810D02*
X19467810Y8909810D01*
X19753524Y8552667D02*
X19991619Y8552667D01*
X19705905Y8409810D02*
X19872572Y8909810D01*
X20039238Y8409810D01*
X20301143Y8909810D02*
X20348762Y8909810D01*
X20396381Y8886000D01*
X20420190Y8862190D01*
X20444000Y8814571D01*
X20467809Y8719333D01*
X20467809Y8600286D01*
X20444000Y8505048D01*
X20420190Y8457429D01*
X20396381Y8433619D01*
X20348762Y8409810D01*
X20301143Y8409810D01*
X20253524Y8433619D01*
X20229714Y8457429D01*
X20205905Y8505048D01*
X20182095Y8600286D01*
X20182095Y8719333D01*
X20205905Y8814571D01*
X20229714Y8862190D01*
X20253524Y8886000D01*
X20301143Y8909810D01*
X189946572Y8440210D02*
X189946572Y8940210D01*
X190065619Y8940210D01*
X190137048Y8916400D01*
X190184667Y8868781D01*
X190208476Y8821162D01*
X190232286Y8725924D01*
X190232286Y8654495D01*
X190208476Y8559257D01*
X190184667Y8511638D01*
X190137048Y8464019D01*
X190065619Y8440210D01*
X189946572Y8440210D01*
X190541810Y8940210D02*
X190637048Y8940210D01*
X190684667Y8916400D01*
X190732286Y8868781D01*
X190756095Y8773543D01*
X190756095Y8606876D01*
X190732286Y8511638D01*
X190684667Y8464019D01*
X190637048Y8440210D01*
X190541810Y8440210D01*
X190494191Y8464019D01*
X190446572Y8511638D01*
X190422762Y8606876D01*
X190422762Y8773543D01*
X190446572Y8868781D01*
X190494191Y8916400D01*
X190541810Y8940210D01*
X190970382Y8940210D02*
X190970382Y8535448D01*
X190994191Y8487829D01*
X191018001Y8464019D01*
X191065620Y8440210D01*
X191160858Y8440210D01*
X191208477Y8464019D01*
X191232286Y8487829D01*
X191256096Y8535448D01*
X191256096Y8940210D01*
X191422763Y8940210D02*
X191708477Y8940210D01*
X191565620Y8440210D02*
X191565620Y8940210D01*
X191827525Y8940210D02*
X192137048Y8940210D01*
X191970382Y8749733D01*
X192041810Y8749733D01*
X192089429Y8725924D01*
X192113239Y8702114D01*
X192137048Y8654495D01*
X192137048Y8535448D01*
X192113239Y8487829D01*
X192089429Y8464019D01*
X192041810Y8440210D01*
X191898953Y8440210D01*
X191851334Y8464019D01*
X191827525Y8487829D01*
X192613238Y8440210D02*
X192327524Y8440210D01*
X192470381Y8440210D02*
X192470381Y8940210D01*
X192422762Y8868781D01*
X192375143Y8821162D01*
X192327524Y8797352D01*
X99919048Y15226910D02*
X99919048Y14822148D01*
X99942857Y14774529D01*
X99966667Y14750719D01*
X100014286Y14726910D01*
X100109524Y14726910D01*
X100157143Y14750719D01*
X100180952Y14774529D01*
X100204762Y14822148D01*
X100204762Y15226910D01*
X100395239Y15226910D02*
X100728572Y15226910D01*
X100514286Y14726910D01*
X39919048Y15226910D02*
X39919048Y14822148D01*
X39942857Y14774529D01*
X39966667Y14750719D01*
X40014286Y14726910D01*
X40109524Y14726910D01*
X40157143Y14750719D01*
X40180952Y14774529D01*
X40204762Y14822148D01*
X40204762Y15226910D01*
X40704762Y14726910D02*
X40419048Y14726910D01*
X40561905Y14726910D02*
X40561905Y15226910D01*
X40514286Y15155481D01*
X40466667Y15107862D01*
X40419048Y15084052D01*
X38216667Y10523829D02*
X38192857Y10500019D01*
X38121429Y10476210D01*
X38073810Y10476210D01*
X38002381Y10500019D01*
X37954762Y10547638D01*
X37930953Y10595257D01*
X37907143Y10690495D01*
X37907143Y10761924D01*
X37930953Y10857162D01*
X37954762Y10904781D01*
X38002381Y10952400D01*
X38073810Y10976210D01*
X38121429Y10976210D01*
X38192857Y10952400D01*
X38216667Y10928590D01*
X38526191Y10976210D02*
X38573810Y10976210D01*
X38621429Y10952400D01*
X38645238Y10928590D01*
X38669048Y10880971D01*
X38692857Y10785733D01*
X38692857Y10666686D01*
X38669048Y10571448D01*
X38645238Y10523829D01*
X38621429Y10500019D01*
X38573810Y10476210D01*
X38526191Y10476210D01*
X38478572Y10500019D01*
X38454762Y10523829D01*
X38430953Y10571448D01*
X38407143Y10666686D01*
X38407143Y10785733D01*
X38430953Y10880971D01*
X38454762Y10928590D01*
X38478572Y10952400D01*
X38526191Y10976210D01*
X48216667Y10523829D02*
X48192857Y10500019D01*
X48121429Y10476210D01*
X48073810Y10476210D01*
X48002381Y10500019D01*
X47954762Y10547638D01*
X47930953Y10595257D01*
X47907143Y10690495D01*
X47907143Y10761924D01*
X47930953Y10857162D01*
X47954762Y10904781D01*
X48002381Y10952400D01*
X48073810Y10976210D01*
X48121429Y10976210D01*
X48192857Y10952400D01*
X48216667Y10928590D01*
X48692857Y10476210D02*
X48407143Y10476210D01*
X48550000Y10476210D02*
X48550000Y10976210D01*
X48502381Y10904781D01*
X48454762Y10857162D01*
X48407143Y10833352D01*
X58216667Y10523829D02*
X58192857Y10500019D01*
X58121429Y10476210D01*
X58073810Y10476210D01*
X58002381Y10500019D01*
X57954762Y10547638D01*
X57930953Y10595257D01*
X57907143Y10690495D01*
X57907143Y10761924D01*
X57930953Y10857162D01*
X57954762Y10904781D01*
X58002381Y10952400D01*
X58073810Y10976210D01*
X58121429Y10976210D01*
X58192857Y10952400D01*
X58216667Y10928590D01*
X58407143Y10928590D02*
X58430953Y10952400D01*
X58478572Y10976210D01*
X58597619Y10976210D01*
X58645238Y10952400D01*
X58669048Y10928590D01*
X58692857Y10880971D01*
X58692857Y10833352D01*
X58669048Y10761924D01*
X58383334Y10476210D01*
X58692857Y10476210D01*
X68216667Y10523829D02*
X68192857Y10500019D01*
X68121429Y10476210D01*
X68073810Y10476210D01*
X68002381Y10500019D01*
X67954762Y10547638D01*
X67930953Y10595257D01*
X67907143Y10690495D01*
X67907143Y10761924D01*
X67930953Y10857162D01*
X67954762Y10904781D01*
X68002381Y10952400D01*
X68073810Y10976210D01*
X68121429Y10976210D01*
X68192857Y10952400D01*
X68216667Y10928590D01*
X68383334Y10976210D02*
X68692857Y10976210D01*
X68526191Y10785733D01*
X68597619Y10785733D01*
X68645238Y10761924D01*
X68669048Y10738114D01*
X68692857Y10690495D01*
X68692857Y10571448D01*
X68669048Y10523829D01*
X68645238Y10500019D01*
X68597619Y10476210D01*
X68454762Y10476210D01*
X68407143Y10500019D01*
X68383334Y10523829D01*
X78216667Y10523829D02*
X78192857Y10500019D01*
X78121429Y10476210D01*
X78073810Y10476210D01*
X78002381Y10500019D01*
X77954762Y10547638D01*
X77930953Y10595257D01*
X77907143Y10690495D01*
X77907143Y10761924D01*
X77930953Y10857162D01*
X77954762Y10904781D01*
X78002381Y10952400D01*
X78073810Y10976210D01*
X78121429Y10976210D01*
X78192857Y10952400D01*
X78216667Y10928590D01*
X78645238Y10809543D02*
X78645238Y10476210D01*
X78526191Y11000019D02*
X78407143Y10642876D01*
X78716667Y10642876D01*
X88216667Y10523829D02*
X88192857Y10500019D01*
X88121429Y10476210D01*
X88073810Y10476210D01*
X88002381Y10500019D01*
X87954762Y10547638D01*
X87930953Y10595257D01*
X87907143Y10690495D01*
X87907143Y10761924D01*
X87930953Y10857162D01*
X87954762Y10904781D01*
X88002381Y10952400D01*
X88073810Y10976210D01*
X88121429Y10976210D01*
X88192857Y10952400D01*
X88216667Y10928590D01*
X88669048Y10976210D02*
X88430953Y10976210D01*
X88407143Y10738114D01*
X88430953Y10761924D01*
X88478572Y10785733D01*
X88597619Y10785733D01*
X88645238Y10761924D01*
X88669048Y10738114D01*
X88692857Y10690495D01*
X88692857Y10571448D01*
X88669048Y10523829D01*
X88645238Y10500019D01*
X88597619Y10476210D01*
X88478572Y10476210D01*
X88430953Y10500019D01*
X88407143Y10523829D01*
X98300667Y10523829D02*
X98276857Y10500019D01*
X98205429Y10476210D01*
X98157810Y10476210D01*
X98086381Y10500019D01*
X98038762Y10547638D01*
X98014953Y10595257D01*
X97991143Y10690495D01*
X97991143Y10761924D01*
X98014953Y10857162D01*
X98038762Y10904781D01*
X98086381Y10952400D01*
X98157810Y10976210D01*
X98205429Y10976210D01*
X98276857Y10952400D01*
X98300667Y10928590D01*
X98729238Y10976210D02*
X98634000Y10976210D01*
X98586381Y10952400D01*
X98562572Y10928590D01*
X98514953Y10857162D01*
X98491143Y10761924D01*
X98491143Y10571448D01*
X98514953Y10523829D01*
X98538762Y10500019D01*
X98586381Y10476210D01*
X98681619Y10476210D01*
X98729238Y10500019D01*
X98753048Y10523829D01*
X98776857Y10571448D01*
X98776857Y10690495D01*
X98753048Y10738114D01*
X98729238Y10761924D01*
X98681619Y10785733D01*
X98586381Y10785733D01*
X98538762Y10761924D01*
X98514953Y10738114D01*
X98491143Y10690495D01*
X108216667Y10523829D02*
X108192857Y10500019D01*
X108121429Y10476210D01*
X108073810Y10476210D01*
X108002381Y10500019D01*
X107954762Y10547638D01*
X107930953Y10595257D01*
X107907143Y10690495D01*
X107907143Y10761924D01*
X107930953Y10857162D01*
X107954762Y10904781D01*
X108002381Y10952400D01*
X108073810Y10976210D01*
X108121429Y10976210D01*
X108192857Y10952400D01*
X108216667Y10928590D01*
X108383334Y10976210D02*
X108716667Y10976210D01*
X108502381Y10476210D01*
X24220953Y13812510D02*
X24220953Y14312510D01*
X24340000Y14312510D01*
X24411429Y14288700D01*
X24459048Y14241081D01*
X24482857Y14193462D01*
X24506667Y14098224D01*
X24506667Y14026795D01*
X24482857Y13931557D01*
X24459048Y13883938D01*
X24411429Y13836319D01*
X24340000Y13812510D01*
X24220953Y13812510D01*
X24816191Y14312510D02*
X24863810Y14312510D01*
X24911429Y14288700D01*
X24935238Y14264890D01*
X24959048Y14217271D01*
X24982857Y14122033D01*
X24982857Y14002986D01*
X24959048Y13907748D01*
X24935238Y13860129D01*
X24911429Y13836319D01*
X24863810Y13812510D01*
X24816191Y13812510D01*
X24768572Y13836319D01*
X24744762Y13860129D01*
X24720953Y13907748D01*
X24697143Y14002986D01*
X24697143Y14122033D01*
X24720953Y14217271D01*
X24744762Y14264890D01*
X24768572Y14288700D01*
X24816191Y14312510D01*
X49919048Y15226910D02*
X49919048Y14822148D01*
X49942857Y14774529D01*
X49966667Y14750719D01*
X50014286Y14726910D01*
X50109524Y14726910D01*
X50157143Y14750719D01*
X50180952Y14774529D01*
X50204762Y14822148D01*
X50204762Y15226910D01*
X50419048Y15179290D02*
X50442858Y15203100D01*
X50490477Y15226910D01*
X50609524Y15226910D01*
X50657143Y15203100D01*
X50680953Y15179290D01*
X50704762Y15131671D01*
X50704762Y15084052D01*
X50680953Y15012624D01*
X50395239Y14726910D01*
X50704762Y14726910D01*
X59919048Y15226910D02*
X59919048Y14822148D01*
X59942857Y14774529D01*
X59966667Y14750719D01*
X60014286Y14726910D01*
X60109524Y14726910D01*
X60157143Y14750719D01*
X60180952Y14774529D01*
X60204762Y14822148D01*
X60204762Y15226910D01*
X60395239Y15226910D02*
X60704762Y15226910D01*
X60538096Y15036433D01*
X60609524Y15036433D01*
X60657143Y15012624D01*
X60680953Y14988814D01*
X60704762Y14941195D01*
X60704762Y14822148D01*
X60680953Y14774529D01*
X60657143Y14750719D01*
X60609524Y14726910D01*
X60466667Y14726910D01*
X60419048Y14750719D01*
X60395239Y14774529D01*
X69919048Y15226910D02*
X69919048Y14822148D01*
X69942857Y14774529D01*
X69966667Y14750719D01*
X70014286Y14726910D01*
X70109524Y14726910D01*
X70157143Y14750719D01*
X70180952Y14774529D01*
X70204762Y14822148D01*
X70204762Y15226910D01*
X70657143Y15060243D02*
X70657143Y14726910D01*
X70538096Y15250719D02*
X70419048Y14893576D01*
X70728572Y14893576D01*
X79919048Y15226910D02*
X79919048Y14822148D01*
X79942857Y14774529D01*
X79966667Y14750719D01*
X80014286Y14726910D01*
X80109524Y14726910D01*
X80157143Y14750719D01*
X80180952Y14774529D01*
X80204762Y14822148D01*
X80204762Y15226910D01*
X80680953Y15226910D02*
X80442858Y15226910D01*
X80419048Y14988814D01*
X80442858Y15012624D01*
X80490477Y15036433D01*
X80609524Y15036433D01*
X80657143Y15012624D01*
X80680953Y14988814D01*
X80704762Y14941195D01*
X80704762Y14822148D01*
X80680953Y14774529D01*
X80657143Y14750719D01*
X80609524Y14726910D01*
X80490477Y14726910D01*
X80442858Y14750719D01*
X80419048Y14774529D01*
X89919048Y15226910D02*
X89919048Y14822148D01*
X89942857Y14774529D01*
X89966667Y14750719D01*
X90014286Y14726910D01*
X90109524Y14726910D01*
X90157143Y14750719D01*
X90180952Y14774529D01*
X90204762Y14822148D01*
X90204762Y15226910D01*
X90657143Y15226910D02*
X90561905Y15226910D01*
X90514286Y15203100D01*
X90490477Y15179290D01*
X90442858Y15107862D01*
X90419048Y15012624D01*
X90419048Y14822148D01*
X90442858Y14774529D01*
X90466667Y14750719D01*
X90514286Y14726910D01*
X90609524Y14726910D01*
X90657143Y14750719D01*
X90680953Y14774529D01*
X90704762Y14822148D01*
X90704762Y14941195D01*
X90680953Y14988814D01*
X90657143Y15012624D01*
X90609524Y15036433D01*
X90514286Y15036433D01*
X90466667Y15012624D01*
X90442858Y14988814D01*
X90419048Y14941195D01*
X118216667Y10523829D02*
X118192857Y10500019D01*
X118121429Y10476210D01*
X118073810Y10476210D01*
X118002381Y10500019D01*
X117954762Y10547638D01*
X117930953Y10595257D01*
X117907143Y10690495D01*
X117907143Y10761924D01*
X117930953Y10857162D01*
X117954762Y10904781D01*
X118002381Y10952400D01*
X118073810Y10976210D01*
X118121429Y10976210D01*
X118192857Y10952400D01*
X118216667Y10928590D01*
X118502381Y10761924D02*
X118454762Y10785733D01*
X118430953Y10809543D01*
X118407143Y10857162D01*
X118407143Y10880971D01*
X118430953Y10928590D01*
X118454762Y10952400D01*
X118502381Y10976210D01*
X118597619Y10976210D01*
X118645238Y10952400D01*
X118669048Y10928590D01*
X118692857Y10880971D01*
X118692857Y10857162D01*
X118669048Y10809543D01*
X118645238Y10785733D01*
X118597619Y10761924D01*
X118502381Y10761924D01*
X118454762Y10738114D01*
X118430953Y10714305D01*
X118407143Y10666686D01*
X118407143Y10571448D01*
X118430953Y10523829D01*
X118454762Y10500019D01*
X118502381Y10476210D01*
X118597619Y10476210D01*
X118645238Y10500019D01*
X118669048Y10523829D01*
X118692857Y10571448D01*
X118692857Y10666686D01*
X118669048Y10714305D01*
X118645238Y10738114D01*
X118597619Y10761924D01*
X128216667Y10523829D02*
X128192857Y10500019D01*
X128121429Y10476210D01*
X128073810Y10476210D01*
X128002381Y10500019D01*
X127954762Y10547638D01*
X127930953Y10595257D01*
X127907143Y10690495D01*
X127907143Y10761924D01*
X127930953Y10857162D01*
X127954762Y10904781D01*
X128002381Y10952400D01*
X128073810Y10976210D01*
X128121429Y10976210D01*
X128192857Y10952400D01*
X128216667Y10928590D01*
X128454762Y10476210D02*
X128550000Y10476210D01*
X128597619Y10500019D01*
X128621429Y10523829D01*
X128669048Y10595257D01*
X128692857Y10690495D01*
X128692857Y10880971D01*
X128669048Y10928590D01*
X128645238Y10952400D01*
X128597619Y10976210D01*
X128502381Y10976210D01*
X128454762Y10952400D01*
X128430953Y10928590D01*
X128407143Y10880971D01*
X128407143Y10761924D01*
X128430953Y10714305D01*
X128454762Y10690495D01*
X128502381Y10666686D01*
X128597619Y10666686D01*
X128645238Y10690495D01*
X128669048Y10714305D01*
X128692857Y10761924D01*
X137978572Y10523829D02*
X137954762Y10500019D01*
X137883334Y10476210D01*
X137835715Y10476210D01*
X137764286Y10500019D01*
X137716667Y10547638D01*
X137692858Y10595257D01*
X137669048Y10690495D01*
X137669048Y10761924D01*
X137692858Y10857162D01*
X137716667Y10904781D01*
X137764286Y10952400D01*
X137835715Y10976210D01*
X137883334Y10976210D01*
X137954762Y10952400D01*
X137978572Y10928590D01*
X138454762Y10476210D02*
X138169048Y10476210D01*
X138311905Y10476210D02*
X138311905Y10976210D01*
X138264286Y10904781D01*
X138216667Y10857162D01*
X138169048Y10833352D01*
X138764286Y10976210D02*
X138811905Y10976210D01*
X138859524Y10952400D01*
X138883333Y10928590D01*
X138907143Y10880971D01*
X138930952Y10785733D01*
X138930952Y10666686D01*
X138907143Y10571448D01*
X138883333Y10523829D01*
X138859524Y10500019D01*
X138811905Y10476210D01*
X138764286Y10476210D01*
X138716667Y10500019D01*
X138692857Y10523829D01*
X138669048Y10571448D01*
X138645238Y10666686D01*
X138645238Y10785733D01*
X138669048Y10880971D01*
X138692857Y10928590D01*
X138716667Y10952400D01*
X138764286Y10976210D01*
X147846572Y10523829D02*
X147822762Y10500019D01*
X147751334Y10476210D01*
X147703715Y10476210D01*
X147632286Y10500019D01*
X147584667Y10547638D01*
X147560858Y10595257D01*
X147537048Y10690495D01*
X147537048Y10761924D01*
X147560858Y10857162D01*
X147584667Y10904781D01*
X147632286Y10952400D01*
X147703715Y10976210D01*
X147751334Y10976210D01*
X147822762Y10952400D01*
X147846572Y10928590D01*
X148322762Y10476210D02*
X148037048Y10476210D01*
X148179905Y10476210D02*
X148179905Y10976210D01*
X148132286Y10904781D01*
X148084667Y10857162D01*
X148037048Y10833352D01*
X148798952Y10476210D02*
X148513238Y10476210D01*
X148656095Y10476210D02*
X148656095Y10976210D01*
X148608476Y10904781D01*
X148560857Y10857162D01*
X148513238Y10833352D01*
X157978572Y10523829D02*
X157954762Y10500019D01*
X157883334Y10476210D01*
X157835715Y10476210D01*
X157764286Y10500019D01*
X157716667Y10547638D01*
X157692858Y10595257D01*
X157669048Y10690495D01*
X157669048Y10761924D01*
X157692858Y10857162D01*
X157716667Y10904781D01*
X157764286Y10952400D01*
X157835715Y10976210D01*
X157883334Y10976210D01*
X157954762Y10952400D01*
X157978572Y10928590D01*
X158454762Y10476210D02*
X158169048Y10476210D01*
X158311905Y10476210D02*
X158311905Y10976210D01*
X158264286Y10904781D01*
X158216667Y10857162D01*
X158169048Y10833352D01*
X158645238Y10928590D02*
X158669048Y10952400D01*
X158716667Y10976210D01*
X158835714Y10976210D01*
X158883333Y10952400D01*
X158907143Y10928590D01*
X158930952Y10880971D01*
X158930952Y10833352D01*
X158907143Y10761924D01*
X158621429Y10476210D01*
X158930952Y10476210D01*
X167978572Y10523829D02*
X167954762Y10500019D01*
X167883334Y10476210D01*
X167835715Y10476210D01*
X167764286Y10500019D01*
X167716667Y10547638D01*
X167692858Y10595257D01*
X167669048Y10690495D01*
X167669048Y10761924D01*
X167692858Y10857162D01*
X167716667Y10904781D01*
X167764286Y10952400D01*
X167835715Y10976210D01*
X167883334Y10976210D01*
X167954762Y10952400D01*
X167978572Y10928590D01*
X168454762Y10476210D02*
X168169048Y10476210D01*
X168311905Y10476210D02*
X168311905Y10976210D01*
X168264286Y10904781D01*
X168216667Y10857162D01*
X168169048Y10833352D01*
X168621429Y10976210D02*
X168930952Y10976210D01*
X168764286Y10785733D01*
X168835714Y10785733D01*
X168883333Y10761924D01*
X168907143Y10738114D01*
X168930952Y10690495D01*
X168930952Y10571448D01*
X168907143Y10523829D01*
X168883333Y10500019D01*
X168835714Y10476210D01*
X168692857Y10476210D01*
X168645238Y10500019D01*
X168621429Y10523829D01*
X177978572Y10523829D02*
X177954762Y10500019D01*
X177883334Y10476210D01*
X177835715Y10476210D01*
X177764286Y10500019D01*
X177716667Y10547638D01*
X177692858Y10595257D01*
X177669048Y10690495D01*
X177669048Y10761924D01*
X177692858Y10857162D01*
X177716667Y10904781D01*
X177764286Y10952400D01*
X177835715Y10976210D01*
X177883334Y10976210D01*
X177954762Y10952400D01*
X177978572Y10928590D01*
X178454762Y10476210D02*
X178169048Y10476210D01*
X178311905Y10476210D02*
X178311905Y10976210D01*
X178264286Y10904781D01*
X178216667Y10857162D01*
X178169048Y10833352D01*
X178883333Y10809543D02*
X178883333Y10476210D01*
X178764286Y11000019D02*
X178645238Y10642876D01*
X178954762Y10642876D01*
X185177572Y7510129D02*
X185153762Y7486319D01*
X185082334Y7462510D01*
X185034715Y7462510D01*
X184963286Y7486319D01*
X184915667Y7533938D01*
X184891858Y7581557D01*
X184868048Y7676795D01*
X184868048Y7748224D01*
X184891858Y7843462D01*
X184915667Y7891081D01*
X184963286Y7938700D01*
X185034715Y7962510D01*
X185082334Y7962510D01*
X185153762Y7938700D01*
X185177572Y7914890D01*
X185653762Y7462510D02*
X185368048Y7462510D01*
X185510905Y7462510D02*
X185510905Y7962510D01*
X185463286Y7891081D01*
X185415667Y7843462D01*
X185368048Y7819652D01*
X186106143Y7962510D02*
X185868048Y7962510D01*
X185844238Y7724414D01*
X185868048Y7748224D01*
X185915667Y7772033D01*
X186034714Y7772033D01*
X186082333Y7748224D01*
X186106143Y7724414D01*
X186129952Y7676795D01*
X186129952Y7557748D01*
X186106143Y7510129D01*
X186082333Y7486319D01*
X186034714Y7462510D01*
X185915667Y7462510D01*
X185868048Y7486319D01*
X185844238Y7510129D01*
X109919048Y15226910D02*
X109919048Y14822148D01*
X109942857Y14774529D01*
X109966667Y14750719D01*
X110014286Y14726910D01*
X110109524Y14726910D01*
X110157143Y14750719D01*
X110180952Y14774529D01*
X110204762Y14822148D01*
X110204762Y15226910D01*
X110514286Y15012624D02*
X110466667Y15036433D01*
X110442858Y15060243D01*
X110419048Y15107862D01*
X110419048Y15131671D01*
X110442858Y15179290D01*
X110466667Y15203100D01*
X110514286Y15226910D01*
X110609524Y15226910D01*
X110657143Y15203100D01*
X110680953Y15179290D01*
X110704762Y15131671D01*
X110704762Y15107862D01*
X110680953Y15060243D01*
X110657143Y15036433D01*
X110609524Y15012624D01*
X110514286Y15012624D01*
X110466667Y14988814D01*
X110442858Y14965005D01*
X110419048Y14917386D01*
X110419048Y14822148D01*
X110442858Y14774529D01*
X110466667Y14750719D01*
X110514286Y14726910D01*
X110609524Y14726910D01*
X110657143Y14750719D01*
X110680953Y14774529D01*
X110704762Y14822148D01*
X110704762Y14917386D01*
X110680953Y14965005D01*
X110657143Y14988814D01*
X110609524Y15012624D01*
X120919048Y15226910D02*
X120919048Y14822148D01*
X120942857Y14774529D01*
X120966667Y14750719D01*
X121014286Y14726910D01*
X121109524Y14726910D01*
X121157143Y14750719D01*
X121180952Y14774529D01*
X121204762Y14822148D01*
X121204762Y15226910D01*
X121466667Y14726910D02*
X121561905Y14726910D01*
X121609524Y14750719D01*
X121633334Y14774529D01*
X121680953Y14845957D01*
X121704762Y14941195D01*
X121704762Y15131671D01*
X121680953Y15179290D01*
X121657143Y15203100D01*
X121609524Y15226910D01*
X121514286Y15226910D01*
X121466667Y15203100D01*
X121442858Y15179290D01*
X121419048Y15131671D01*
X121419048Y15012624D01*
X121442858Y14965005D01*
X121466667Y14941195D01*
X121514286Y14917386D01*
X121609524Y14917386D01*
X121657143Y14941195D01*
X121680953Y14965005D01*
X121704762Y15012624D01*
X139680953Y15226910D02*
X139680953Y14822148D01*
X139704762Y14774529D01*
X139728572Y14750719D01*
X139776191Y14726910D01*
X139871429Y14726910D01*
X139919048Y14750719D01*
X139942857Y14774529D01*
X139966667Y14822148D01*
X139966667Y15226910D01*
X140466667Y14726910D02*
X140180953Y14726910D01*
X140323810Y14726910D02*
X140323810Y15226910D01*
X140276191Y15155481D01*
X140228572Y15107862D01*
X140180953Y15084052D01*
X140942857Y14726910D02*
X140657143Y14726910D01*
X140800000Y14726910D02*
X140800000Y15226910D01*
X140752381Y15155481D01*
X140704762Y15107862D01*
X140657143Y15084052D01*
X149680953Y15226910D02*
X149680953Y14822148D01*
X149704762Y14774529D01*
X149728572Y14750719D01*
X149776191Y14726910D01*
X149871429Y14726910D01*
X149919048Y14750719D01*
X149942857Y14774529D01*
X149966667Y14822148D01*
X149966667Y15226910D01*
X150466667Y14726910D02*
X150180953Y14726910D01*
X150323810Y14726910D02*
X150323810Y15226910D01*
X150276191Y15155481D01*
X150228572Y15107862D01*
X150180953Y15084052D01*
X150657143Y15179290D02*
X150680953Y15203100D01*
X150728572Y15226910D01*
X150847619Y15226910D01*
X150895238Y15203100D01*
X150919048Y15179290D01*
X150942857Y15131671D01*
X150942857Y15084052D01*
X150919048Y15012624D01*
X150633334Y14726910D01*
X150942857Y14726910D01*
X169680953Y15226910D02*
X169680953Y14822148D01*
X169704762Y14774529D01*
X169728572Y14750719D01*
X169776191Y14726910D01*
X169871429Y14726910D01*
X169919048Y14750719D01*
X169942857Y14774529D01*
X169966667Y14822148D01*
X169966667Y15226910D01*
X170466667Y14726910D02*
X170180953Y14726910D01*
X170323810Y14726910D02*
X170323810Y15226910D01*
X170276191Y15155481D01*
X170228572Y15107862D01*
X170180953Y15084052D01*
X170895238Y15060243D02*
X170895238Y14726910D01*
X170776191Y15250719D02*
X170657143Y14893576D01*
X170966667Y14893576D01*
X179680953Y15226910D02*
X179680953Y14822148D01*
X179704762Y14774529D01*
X179728572Y14750719D01*
X179776191Y14726910D01*
X179871429Y14726910D01*
X179919048Y14750719D01*
X179942857Y14774529D01*
X179966667Y14822148D01*
X179966667Y15226910D01*
X180466667Y14726910D02*
X180180953Y14726910D01*
X180323810Y14726910D02*
X180323810Y15226910D01*
X180276191Y15155481D01*
X180228572Y15107862D01*
X180180953Y15084052D01*
X180919048Y15226910D02*
X180680953Y15226910D01*
X180657143Y14988814D01*
X180680953Y15012624D01*
X180728572Y15036433D01*
X180847619Y15036433D01*
X180895238Y15012624D01*
X180919048Y14988814D01*
X180942857Y14941195D01*
X180942857Y14822148D01*
X180919048Y14774529D01*
X180895238Y14750719D01*
X180847619Y14726910D01*
X180728572Y14726910D01*
X180680953Y14750719D01*
X180657143Y14774529D01*
X37764286Y12574529D02*
X37740476Y12550719D01*
X37669048Y12526910D01*
X37621429Y12526910D01*
X37550000Y12550719D01*
X37502381Y12598338D01*
X37478572Y12645957D01*
X37454762Y12741195D01*
X37454762Y12812624D01*
X37478572Y12907862D01*
X37502381Y12955481D01*
X37550000Y13003100D01*
X37621429Y13026910D01*
X37669048Y13026910D01*
X37740476Y13003100D01*
X37764286Y12979290D01*
X38216667Y12526910D02*
X37978572Y12526910D01*
X37978572Y13026910D01*
X38383334Y12526910D02*
X38383334Y13026910D01*
X38669048Y12526910D02*
X38454762Y12812624D01*
X38669048Y13026910D02*
X38383334Y12741195D01*
X39145238Y12526910D02*
X38859524Y12526910D01*
X39002381Y12526910D02*
X39002381Y13026910D01*
X38954762Y12955481D01*
X38907143Y12907862D01*
X38859524Y12884052D01*
X37930953Y14726910D02*
X37930953Y15226910D01*
X38050000Y15226910D01*
X38121429Y15203100D01*
X38169048Y15155481D01*
X38192857Y15107862D01*
X38216667Y15012624D01*
X38216667Y14941195D01*
X38192857Y14845957D01*
X38169048Y14798338D01*
X38121429Y14750719D01*
X38050000Y14726910D01*
X37930953Y14726910D01*
X38692857Y14726910D02*
X38407143Y14726910D01*
X38550000Y14726910D02*
X38550000Y15226910D01*
X38502381Y15155481D01*
X38454762Y15107862D01*
X38407143Y15084052D01*
X47764286Y12574529D02*
X47740476Y12550719D01*
X47669048Y12526910D01*
X47621429Y12526910D01*
X47550000Y12550719D01*
X47502381Y12598338D01*
X47478572Y12645957D01*
X47454762Y12741195D01*
X47454762Y12812624D01*
X47478572Y12907862D01*
X47502381Y12955481D01*
X47550000Y13003100D01*
X47621429Y13026910D01*
X47669048Y13026910D01*
X47740476Y13003100D01*
X47764286Y12979290D01*
X48216667Y12526910D02*
X47978572Y12526910D01*
X47978572Y13026910D01*
X48383334Y12526910D02*
X48383334Y13026910D01*
X48669048Y12526910D02*
X48454762Y12812624D01*
X48669048Y13026910D02*
X48383334Y12741195D01*
X48859524Y12979290D02*
X48883334Y13003100D01*
X48930953Y13026910D01*
X49050000Y13026910D01*
X49097619Y13003100D01*
X49121429Y12979290D01*
X49145238Y12931671D01*
X49145238Y12884052D01*
X49121429Y12812624D01*
X48835715Y12526910D01*
X49145238Y12526910D01*
X57764286Y12574529D02*
X57740476Y12550719D01*
X57669048Y12526910D01*
X57621429Y12526910D01*
X57550000Y12550719D01*
X57502381Y12598338D01*
X57478572Y12645957D01*
X57454762Y12741195D01*
X57454762Y12812624D01*
X57478572Y12907862D01*
X57502381Y12955481D01*
X57550000Y13003100D01*
X57621429Y13026910D01*
X57669048Y13026910D01*
X57740476Y13003100D01*
X57764286Y12979290D01*
X58216667Y12526910D02*
X57978572Y12526910D01*
X57978572Y13026910D01*
X58383334Y12526910D02*
X58383334Y13026910D01*
X58669048Y12526910D02*
X58454762Y12812624D01*
X58669048Y13026910D02*
X58383334Y12741195D01*
X58835715Y13026910D02*
X59145238Y13026910D01*
X58978572Y12836433D01*
X59050000Y12836433D01*
X59097619Y12812624D01*
X59121429Y12788814D01*
X59145238Y12741195D01*
X59145238Y12622148D01*
X59121429Y12574529D01*
X59097619Y12550719D01*
X59050000Y12526910D01*
X58907143Y12526910D01*
X58859524Y12550719D01*
X58835715Y12574529D01*
X67764286Y12574529D02*
X67740476Y12550719D01*
X67669048Y12526910D01*
X67621429Y12526910D01*
X67550000Y12550719D01*
X67502381Y12598338D01*
X67478572Y12645957D01*
X67454762Y12741195D01*
X67454762Y12812624D01*
X67478572Y12907862D01*
X67502381Y12955481D01*
X67550000Y13003100D01*
X67621429Y13026910D01*
X67669048Y13026910D01*
X67740476Y13003100D01*
X67764286Y12979290D01*
X68216667Y12526910D02*
X67978572Y12526910D01*
X67978572Y13026910D01*
X68383334Y12526910D02*
X68383334Y13026910D01*
X68669048Y12526910D02*
X68454762Y12812624D01*
X68669048Y13026910D02*
X68383334Y12741195D01*
X69097619Y12860243D02*
X69097619Y12526910D01*
X68978572Y13050719D02*
X68859524Y12693576D01*
X69169048Y12693576D01*
X77764286Y12574529D02*
X77740476Y12550719D01*
X77669048Y12526910D01*
X77621429Y12526910D01*
X77550000Y12550719D01*
X77502381Y12598338D01*
X77478572Y12645957D01*
X77454762Y12741195D01*
X77454762Y12812624D01*
X77478572Y12907862D01*
X77502381Y12955481D01*
X77550000Y13003100D01*
X77621429Y13026910D01*
X77669048Y13026910D01*
X77740476Y13003100D01*
X77764286Y12979290D01*
X78216667Y12526910D02*
X77978572Y12526910D01*
X77978572Y13026910D01*
X78383334Y12526910D02*
X78383334Y13026910D01*
X78669048Y12526910D02*
X78454762Y12812624D01*
X78669048Y13026910D02*
X78383334Y12741195D01*
X79121429Y13026910D02*
X78883334Y13026910D01*
X78859524Y12788814D01*
X78883334Y12812624D01*
X78930953Y12836433D01*
X79050000Y12836433D01*
X79097619Y12812624D01*
X79121429Y12788814D01*
X79145238Y12741195D01*
X79145238Y12622148D01*
X79121429Y12574529D01*
X79097619Y12550719D01*
X79050000Y12526910D01*
X78930953Y12526910D01*
X78883334Y12550719D01*
X78859524Y12574529D01*
X87764286Y12574529D02*
X87740476Y12550719D01*
X87669048Y12526910D01*
X87621429Y12526910D01*
X87550000Y12550719D01*
X87502381Y12598338D01*
X87478572Y12645957D01*
X87454762Y12741195D01*
X87454762Y12812624D01*
X87478572Y12907862D01*
X87502381Y12955481D01*
X87550000Y13003100D01*
X87621429Y13026910D01*
X87669048Y13026910D01*
X87740476Y13003100D01*
X87764286Y12979290D01*
X88216667Y12526910D02*
X87978572Y12526910D01*
X87978572Y13026910D01*
X88383334Y12526910D02*
X88383334Y13026910D01*
X88669048Y12526910D02*
X88454762Y12812624D01*
X88669048Y13026910D02*
X88383334Y12741195D01*
X89097619Y13026910D02*
X89002381Y13026910D01*
X88954762Y13003100D01*
X88930953Y12979290D01*
X88883334Y12907862D01*
X88859524Y12812624D01*
X88859524Y12622148D01*
X88883334Y12574529D01*
X88907143Y12550719D01*
X88954762Y12526910D01*
X89050000Y12526910D01*
X89097619Y12550719D01*
X89121429Y12574529D01*
X89145238Y12622148D01*
X89145238Y12741195D01*
X89121429Y12788814D01*
X89097619Y12812624D01*
X89050000Y12836433D01*
X88954762Y12836433D01*
X88907143Y12812624D01*
X88883334Y12788814D01*
X88859524Y12741195D01*
X97764286Y12574529D02*
X97740476Y12550719D01*
X97669048Y12526910D01*
X97621429Y12526910D01*
X97550000Y12550719D01*
X97502381Y12598338D01*
X97478572Y12645957D01*
X97454762Y12741195D01*
X97454762Y12812624D01*
X97478572Y12907862D01*
X97502381Y12955481D01*
X97550000Y13003100D01*
X97621429Y13026910D01*
X97669048Y13026910D01*
X97740476Y13003100D01*
X97764286Y12979290D01*
X98216667Y12526910D02*
X97978572Y12526910D01*
X97978572Y13026910D01*
X98383334Y12526910D02*
X98383334Y13026910D01*
X98669048Y12526910D02*
X98454762Y12812624D01*
X98669048Y13026910D02*
X98383334Y12741195D01*
X98835715Y13026910D02*
X99169048Y13026910D01*
X98954762Y12526910D01*
X107764286Y12574529D02*
X107740476Y12550719D01*
X107669048Y12526910D01*
X107621429Y12526910D01*
X107550000Y12550719D01*
X107502381Y12598338D01*
X107478572Y12645957D01*
X107454762Y12741195D01*
X107454762Y12812624D01*
X107478572Y12907862D01*
X107502381Y12955481D01*
X107550000Y13003100D01*
X107621429Y13026910D01*
X107669048Y13026910D01*
X107740476Y13003100D01*
X107764286Y12979290D01*
X108216667Y12526910D02*
X107978572Y12526910D01*
X107978572Y13026910D01*
X108383334Y12526910D02*
X108383334Y13026910D01*
X108669048Y12526910D02*
X108454762Y12812624D01*
X108669048Y13026910D02*
X108383334Y12741195D01*
X108954762Y12812624D02*
X108907143Y12836433D01*
X108883334Y12860243D01*
X108859524Y12907862D01*
X108859524Y12931671D01*
X108883334Y12979290D01*
X108907143Y13003100D01*
X108954762Y13026910D01*
X109050000Y13026910D01*
X109097619Y13003100D01*
X109121429Y12979290D01*
X109145238Y12931671D01*
X109145238Y12907862D01*
X109121429Y12860243D01*
X109097619Y12836433D01*
X109050000Y12812624D01*
X108954762Y12812624D01*
X108907143Y12788814D01*
X108883334Y12765005D01*
X108859524Y12717386D01*
X108859524Y12622148D01*
X108883334Y12574529D01*
X108907143Y12550719D01*
X108954762Y12526910D01*
X109050000Y12526910D01*
X109097619Y12550719D01*
X109121429Y12574529D01*
X109145238Y12622148D01*
X109145238Y12717386D01*
X109121429Y12765005D01*
X109097619Y12788814D01*
X109050000Y12812624D01*
X117764286Y12574529D02*
X117740476Y12550719D01*
X117669048Y12526910D01*
X117621429Y12526910D01*
X117550000Y12550719D01*
X117502381Y12598338D01*
X117478572Y12645957D01*
X117454762Y12741195D01*
X117454762Y12812624D01*
X117478572Y12907862D01*
X117502381Y12955481D01*
X117550000Y13003100D01*
X117621429Y13026910D01*
X117669048Y13026910D01*
X117740476Y13003100D01*
X117764286Y12979290D01*
X118216667Y12526910D02*
X117978572Y12526910D01*
X117978572Y13026910D01*
X118383334Y12526910D02*
X118383334Y13026910D01*
X118669048Y12526910D02*
X118454762Y12812624D01*
X118669048Y13026910D02*
X118383334Y12741195D01*
X118907143Y12526910D02*
X119002381Y12526910D01*
X119050000Y12550719D01*
X119073810Y12574529D01*
X119121429Y12645957D01*
X119145238Y12741195D01*
X119145238Y12931671D01*
X119121429Y12979290D01*
X119097619Y13003100D01*
X119050000Y13026910D01*
X118954762Y13026910D01*
X118907143Y13003100D01*
X118883334Y12979290D01*
X118859524Y12931671D01*
X118859524Y12812624D01*
X118883334Y12765005D01*
X118907143Y12741195D01*
X118954762Y12717386D01*
X119050000Y12717386D01*
X119097619Y12741195D01*
X119121429Y12765005D01*
X119145238Y12812624D01*
X127526191Y12574529D02*
X127502381Y12550719D01*
X127430953Y12526910D01*
X127383334Y12526910D01*
X127311905Y12550719D01*
X127264286Y12598338D01*
X127240477Y12645957D01*
X127216667Y12741195D01*
X127216667Y12812624D01*
X127240477Y12907862D01*
X127264286Y12955481D01*
X127311905Y13003100D01*
X127383334Y13026910D01*
X127430953Y13026910D01*
X127502381Y13003100D01*
X127526191Y12979290D01*
X127978572Y12526910D02*
X127740477Y12526910D01*
X127740477Y13026910D01*
X128145239Y12526910D02*
X128145239Y13026910D01*
X128430953Y12526910D02*
X128216667Y12812624D01*
X128430953Y13026910D02*
X128145239Y12741195D01*
X128907143Y12526910D02*
X128621429Y12526910D01*
X128764286Y12526910D02*
X128764286Y13026910D01*
X128716667Y12955481D01*
X128669048Y12907862D01*
X128621429Y12884052D01*
X129216667Y13026910D02*
X129264286Y13026910D01*
X129311905Y13003100D01*
X129335714Y12979290D01*
X129359524Y12931671D01*
X129383333Y12836433D01*
X129383333Y12717386D01*
X129359524Y12622148D01*
X129335714Y12574529D01*
X129311905Y12550719D01*
X129264286Y12526910D01*
X129216667Y12526910D01*
X129169048Y12550719D01*
X129145238Y12574529D01*
X129121429Y12622148D01*
X129097619Y12717386D01*
X129097619Y12836433D01*
X129121429Y12931671D01*
X129145238Y12979290D01*
X129169048Y13003100D01*
X129216667Y13026910D01*
X137526191Y12574529D02*
X137502381Y12550719D01*
X137430953Y12526910D01*
X137383334Y12526910D01*
X137311905Y12550719D01*
X137264286Y12598338D01*
X137240477Y12645957D01*
X137216667Y12741195D01*
X137216667Y12812624D01*
X137240477Y12907862D01*
X137264286Y12955481D01*
X137311905Y13003100D01*
X137383334Y13026910D01*
X137430953Y13026910D01*
X137502381Y13003100D01*
X137526191Y12979290D01*
X137978572Y12526910D02*
X137740477Y12526910D01*
X137740477Y13026910D01*
X138145239Y12526910D02*
X138145239Y13026910D01*
X138430953Y12526910D02*
X138216667Y12812624D01*
X138430953Y13026910D02*
X138145239Y12741195D01*
X138907143Y12526910D02*
X138621429Y12526910D01*
X138764286Y12526910D02*
X138764286Y13026910D01*
X138716667Y12955481D01*
X138669048Y12907862D01*
X138621429Y12884052D01*
X139383333Y12526910D02*
X139097619Y12526910D01*
X139240476Y12526910D02*
X139240476Y13026910D01*
X139192857Y12955481D01*
X139145238Y12907862D01*
X139097619Y12884052D01*
X147526191Y12574529D02*
X147502381Y12550719D01*
X147430953Y12526910D01*
X147383334Y12526910D01*
X147311905Y12550719D01*
X147264286Y12598338D01*
X147240477Y12645957D01*
X147216667Y12741195D01*
X147216667Y12812624D01*
X147240477Y12907862D01*
X147264286Y12955481D01*
X147311905Y13003100D01*
X147383334Y13026910D01*
X147430953Y13026910D01*
X147502381Y13003100D01*
X147526191Y12979290D01*
X147978572Y12526910D02*
X147740477Y12526910D01*
X147740477Y13026910D01*
X148145239Y12526910D02*
X148145239Y13026910D01*
X148430953Y12526910D02*
X148216667Y12812624D01*
X148430953Y13026910D02*
X148145239Y12741195D01*
X148907143Y12526910D02*
X148621429Y12526910D01*
X148764286Y12526910D02*
X148764286Y13026910D01*
X148716667Y12955481D01*
X148669048Y12907862D01*
X148621429Y12884052D01*
X149097619Y12979290D02*
X149121429Y13003100D01*
X149169048Y13026910D01*
X149288095Y13026910D01*
X149335714Y13003100D01*
X149359524Y12979290D01*
X149383333Y12931671D01*
X149383333Y12884052D01*
X149359524Y12812624D01*
X149073810Y12526910D01*
X149383333Y12526910D01*
X157526191Y12574529D02*
X157502381Y12550719D01*
X157430953Y12526910D01*
X157383334Y12526910D01*
X157311905Y12550719D01*
X157264286Y12598338D01*
X157240477Y12645957D01*
X157216667Y12741195D01*
X157216667Y12812624D01*
X157240477Y12907862D01*
X157264286Y12955481D01*
X157311905Y13003100D01*
X157383334Y13026910D01*
X157430953Y13026910D01*
X157502381Y13003100D01*
X157526191Y12979290D01*
X157978572Y12526910D02*
X157740477Y12526910D01*
X157740477Y13026910D01*
X158145239Y12526910D02*
X158145239Y13026910D01*
X158430953Y12526910D02*
X158216667Y12812624D01*
X158430953Y13026910D02*
X158145239Y12741195D01*
X158907143Y12526910D02*
X158621429Y12526910D01*
X158764286Y12526910D02*
X158764286Y13026910D01*
X158716667Y12955481D01*
X158669048Y12907862D01*
X158621429Y12884052D01*
X159073810Y13026910D02*
X159383333Y13026910D01*
X159216667Y12836433D01*
X159288095Y12836433D01*
X159335714Y12812624D01*
X159359524Y12788814D01*
X159383333Y12741195D01*
X159383333Y12622148D01*
X159359524Y12574529D01*
X159335714Y12550719D01*
X159288095Y12526910D01*
X159145238Y12526910D01*
X159097619Y12550719D01*
X159073810Y12574529D01*
X167526191Y12574529D02*
X167502381Y12550719D01*
X167430953Y12526910D01*
X167383334Y12526910D01*
X167311905Y12550719D01*
X167264286Y12598338D01*
X167240477Y12645957D01*
X167216667Y12741195D01*
X167216667Y12812624D01*
X167240477Y12907862D01*
X167264286Y12955481D01*
X167311905Y13003100D01*
X167383334Y13026910D01*
X167430953Y13026910D01*
X167502381Y13003100D01*
X167526191Y12979290D01*
X167978572Y12526910D02*
X167740477Y12526910D01*
X167740477Y13026910D01*
X168145239Y12526910D02*
X168145239Y13026910D01*
X168430953Y12526910D02*
X168216667Y12812624D01*
X168430953Y13026910D02*
X168145239Y12741195D01*
X168907143Y12526910D02*
X168621429Y12526910D01*
X168764286Y12526910D02*
X168764286Y13026910D01*
X168716667Y12955481D01*
X168669048Y12907862D01*
X168621429Y12884052D01*
X169335714Y12860243D02*
X169335714Y12526910D01*
X169216667Y13050719D02*
X169097619Y12693576D01*
X169407143Y12693576D01*
X177526191Y12574529D02*
X177502381Y12550719D01*
X177430953Y12526910D01*
X177383334Y12526910D01*
X177311905Y12550719D01*
X177264286Y12598338D01*
X177240477Y12645957D01*
X177216667Y12741195D01*
X177216667Y12812624D01*
X177240477Y12907862D01*
X177264286Y12955481D01*
X177311905Y13003100D01*
X177383334Y13026910D01*
X177430953Y13026910D01*
X177502381Y13003100D01*
X177526191Y12979290D01*
X177978572Y12526910D02*
X177740477Y12526910D01*
X177740477Y13026910D01*
X178145239Y12526910D02*
X178145239Y13026910D01*
X178430953Y12526910D02*
X178216667Y12812624D01*
X178430953Y13026910D02*
X178145239Y12741195D01*
X178907143Y12526910D02*
X178621429Y12526910D01*
X178764286Y12526910D02*
X178764286Y13026910D01*
X178716667Y12955481D01*
X178669048Y12907862D01*
X178621429Y12884052D01*
X179359524Y13026910D02*
X179121429Y13026910D01*
X179097619Y12788814D01*
X179121429Y12812624D01*
X179169048Y12836433D01*
X179288095Y12836433D01*
X179335714Y12812624D01*
X179359524Y12788814D01*
X179383333Y12741195D01*
X179383333Y12622148D01*
X179359524Y12574529D01*
X179335714Y12550719D01*
X179288095Y12526910D01*
X179169048Y12526910D01*
X179121429Y12550719D01*
X179097619Y12574529D01*
X47930953Y14526910D02*
X47930953Y15026910D01*
X48050000Y15026910D01*
X48121429Y15003100D01*
X48169048Y14955481D01*
X48192857Y14907862D01*
X48216667Y14812624D01*
X48216667Y14741195D01*
X48192857Y14645957D01*
X48169048Y14598338D01*
X48121429Y14550719D01*
X48050000Y14526910D01*
X47930953Y14526910D01*
X48407143Y14979290D02*
X48430953Y15003100D01*
X48478572Y15026910D01*
X48597619Y15026910D01*
X48645238Y15003100D01*
X48669048Y14979290D01*
X48692857Y14931671D01*
X48692857Y14884052D01*
X48669048Y14812624D01*
X48383334Y14526910D01*
X48692857Y14526910D01*
X57930953Y14526910D02*
X57930953Y15026910D01*
X58050000Y15026910D01*
X58121429Y15003100D01*
X58169048Y14955481D01*
X58192857Y14907862D01*
X58216667Y14812624D01*
X58216667Y14741195D01*
X58192857Y14645957D01*
X58169048Y14598338D01*
X58121429Y14550719D01*
X58050000Y14526910D01*
X57930953Y14526910D01*
X58383334Y15026910D02*
X58692857Y15026910D01*
X58526191Y14836433D01*
X58597619Y14836433D01*
X58645238Y14812624D01*
X58669048Y14788814D01*
X58692857Y14741195D01*
X58692857Y14622148D01*
X58669048Y14574529D01*
X58645238Y14550719D01*
X58597619Y14526910D01*
X58454762Y14526910D01*
X58407143Y14550719D01*
X58383334Y14574529D01*
X67930953Y14526910D02*
X67930953Y15026910D01*
X68050000Y15026910D01*
X68121429Y15003100D01*
X68169048Y14955481D01*
X68192857Y14907862D01*
X68216667Y14812624D01*
X68216667Y14741195D01*
X68192857Y14645957D01*
X68169048Y14598338D01*
X68121429Y14550719D01*
X68050000Y14526910D01*
X67930953Y14526910D01*
X68645238Y14860243D02*
X68645238Y14526910D01*
X68526191Y15050719D02*
X68407143Y14693576D01*
X68716667Y14693576D01*
X77930953Y14526910D02*
X77930953Y15026910D01*
X78050000Y15026910D01*
X78121429Y15003100D01*
X78169048Y14955481D01*
X78192857Y14907862D01*
X78216667Y14812624D01*
X78216667Y14741195D01*
X78192857Y14645957D01*
X78169048Y14598338D01*
X78121429Y14550719D01*
X78050000Y14526910D01*
X77930953Y14526910D01*
X78669048Y15026910D02*
X78430953Y15026910D01*
X78407143Y14788814D01*
X78430953Y14812624D01*
X78478572Y14836433D01*
X78597619Y14836433D01*
X78645238Y14812624D01*
X78669048Y14788814D01*
X78692857Y14741195D01*
X78692857Y14622148D01*
X78669048Y14574529D01*
X78645238Y14550719D01*
X78597619Y14526910D01*
X78478572Y14526910D01*
X78430953Y14550719D01*
X78407143Y14574529D01*
X87930953Y14526910D02*
X87930953Y15026910D01*
X88050000Y15026910D01*
X88121429Y15003100D01*
X88169048Y14955481D01*
X88192857Y14907862D01*
X88216667Y14812624D01*
X88216667Y14741195D01*
X88192857Y14645957D01*
X88169048Y14598338D01*
X88121429Y14550719D01*
X88050000Y14526910D01*
X87930953Y14526910D01*
X88645238Y15026910D02*
X88550000Y15026910D01*
X88502381Y15003100D01*
X88478572Y14979290D01*
X88430953Y14907862D01*
X88407143Y14812624D01*
X88407143Y14622148D01*
X88430953Y14574529D01*
X88454762Y14550719D01*
X88502381Y14526910D01*
X88597619Y14526910D01*
X88645238Y14550719D01*
X88669048Y14574529D01*
X88692857Y14622148D01*
X88692857Y14741195D01*
X88669048Y14788814D01*
X88645238Y14812624D01*
X88597619Y14836433D01*
X88502381Y14836433D01*
X88454762Y14812624D01*
X88430953Y14788814D01*
X88407143Y14741195D01*
X97930953Y14526910D02*
X97930953Y15026910D01*
X98050000Y15026910D01*
X98121429Y15003100D01*
X98169048Y14955481D01*
X98192857Y14907862D01*
X98216667Y14812624D01*
X98216667Y14741195D01*
X98192857Y14645957D01*
X98169048Y14598338D01*
X98121429Y14550719D01*
X98050000Y14526910D01*
X97930953Y14526910D01*
X98383334Y15026910D02*
X98716667Y15026910D01*
X98502381Y14526910D01*
X107930953Y14526910D02*
X107930953Y15026910D01*
X108050000Y15026910D01*
X108121429Y15003100D01*
X108169048Y14955481D01*
X108192857Y14907862D01*
X108216667Y14812624D01*
X108216667Y14741195D01*
X108192857Y14645957D01*
X108169048Y14598338D01*
X108121429Y14550719D01*
X108050000Y14526910D01*
X107930953Y14526910D01*
X108502381Y14812624D02*
X108454762Y14836433D01*
X108430953Y14860243D01*
X108407143Y14907862D01*
X108407143Y14931671D01*
X108430953Y14979290D01*
X108454762Y15003100D01*
X108502381Y15026910D01*
X108597619Y15026910D01*
X108645238Y15003100D01*
X108669048Y14979290D01*
X108692857Y14931671D01*
X108692857Y14907862D01*
X108669048Y14860243D01*
X108645238Y14836433D01*
X108597619Y14812624D01*
X108502381Y14812624D01*
X108454762Y14788814D01*
X108430953Y14765005D01*
X108407143Y14717386D01*
X108407143Y14622148D01*
X108430953Y14574529D01*
X108454762Y14550719D01*
X108502381Y14526910D01*
X108597619Y14526910D01*
X108645238Y14550719D01*
X108669048Y14574529D01*
X108692857Y14622148D01*
X108692857Y14717386D01*
X108669048Y14765005D01*
X108645238Y14788814D01*
X108597619Y14812624D01*
X117930953Y14526910D02*
X117930953Y15026910D01*
X118050000Y15026910D01*
X118121429Y15003100D01*
X118169048Y14955481D01*
X118192857Y14907862D01*
X118216667Y14812624D01*
X118216667Y14741195D01*
X118192857Y14645957D01*
X118169048Y14598338D01*
X118121429Y14550719D01*
X118050000Y14526910D01*
X117930953Y14526910D01*
X118454762Y14526910D02*
X118550000Y14526910D01*
X118597619Y14550719D01*
X118621429Y14574529D01*
X118669048Y14645957D01*
X118692857Y14741195D01*
X118692857Y14931671D01*
X118669048Y14979290D01*
X118645238Y15003100D01*
X118597619Y15026910D01*
X118502381Y15026910D01*
X118454762Y15003100D01*
X118430953Y14979290D01*
X118407143Y14931671D01*
X118407143Y14812624D01*
X118430953Y14765005D01*
X118454762Y14741195D01*
X118502381Y14717386D01*
X118597619Y14717386D01*
X118645238Y14741195D01*
X118669048Y14765005D01*
X118692857Y14812624D01*
X127692858Y14526910D02*
X127692858Y15026910D01*
X127811905Y15026910D01*
X127883334Y15003100D01*
X127930953Y14955481D01*
X127954762Y14907862D01*
X127978572Y14812624D01*
X127978572Y14741195D01*
X127954762Y14645957D01*
X127930953Y14598338D01*
X127883334Y14550719D01*
X127811905Y14526910D01*
X127692858Y14526910D01*
X128454762Y14526910D02*
X128169048Y14526910D01*
X128311905Y14526910D02*
X128311905Y15026910D01*
X128264286Y14955481D01*
X128216667Y14907862D01*
X128169048Y14884052D01*
X128764286Y15026910D02*
X128811905Y15026910D01*
X128859524Y15003100D01*
X128883333Y14979290D01*
X128907143Y14931671D01*
X128930952Y14836433D01*
X128930952Y14717386D01*
X128907143Y14622148D01*
X128883333Y14574529D01*
X128859524Y14550719D01*
X128811905Y14526910D01*
X128764286Y14526910D01*
X128716667Y14550719D01*
X128692857Y14574529D01*
X128669048Y14622148D01*
X128645238Y14717386D01*
X128645238Y14836433D01*
X128669048Y14931671D01*
X128692857Y14979290D01*
X128716667Y15003100D01*
X128764286Y15026910D01*
X137692858Y14526910D02*
X137692858Y15026910D01*
X137811905Y15026910D01*
X137883334Y15003100D01*
X137930953Y14955481D01*
X137954762Y14907862D01*
X137978572Y14812624D01*
X137978572Y14741195D01*
X137954762Y14645957D01*
X137930953Y14598338D01*
X137883334Y14550719D01*
X137811905Y14526910D01*
X137692858Y14526910D01*
X138454762Y14526910D02*
X138169048Y14526910D01*
X138311905Y14526910D02*
X138311905Y15026910D01*
X138264286Y14955481D01*
X138216667Y14907862D01*
X138169048Y14884052D01*
X138930952Y14526910D02*
X138645238Y14526910D01*
X138788095Y14526910D02*
X138788095Y15026910D01*
X138740476Y14955481D01*
X138692857Y14907862D01*
X138645238Y14884052D01*
X147692858Y14526910D02*
X147692858Y15026910D01*
X147811905Y15026910D01*
X147883334Y15003100D01*
X147930953Y14955481D01*
X147954762Y14907862D01*
X147978572Y14812624D01*
X147978572Y14741195D01*
X147954762Y14645957D01*
X147930953Y14598338D01*
X147883334Y14550719D01*
X147811905Y14526910D01*
X147692858Y14526910D01*
X148454762Y14526910D02*
X148169048Y14526910D01*
X148311905Y14526910D02*
X148311905Y15026910D01*
X148264286Y14955481D01*
X148216667Y14907862D01*
X148169048Y14884052D01*
X148645238Y14979290D02*
X148669048Y15003100D01*
X148716667Y15026910D01*
X148835714Y15026910D01*
X148883333Y15003100D01*
X148907143Y14979290D01*
X148930952Y14931671D01*
X148930952Y14884052D01*
X148907143Y14812624D01*
X148621429Y14526910D01*
X148930952Y14526910D01*
X157692858Y14526910D02*
X157692858Y15026910D01*
X157811905Y15026910D01*
X157883334Y15003100D01*
X157930953Y14955481D01*
X157954762Y14907862D01*
X157978572Y14812624D01*
X157978572Y14741195D01*
X157954762Y14645957D01*
X157930953Y14598338D01*
X157883334Y14550719D01*
X157811905Y14526910D01*
X157692858Y14526910D01*
X158454762Y14526910D02*
X158169048Y14526910D01*
X158311905Y14526910D02*
X158311905Y15026910D01*
X158264286Y14955481D01*
X158216667Y14907862D01*
X158169048Y14884052D01*
X158621429Y15026910D02*
X158930952Y15026910D01*
X158764286Y14836433D01*
X158835714Y14836433D01*
X158883333Y14812624D01*
X158907143Y14788814D01*
X158930952Y14741195D01*
X158930952Y14622148D01*
X158907143Y14574529D01*
X158883333Y14550719D01*
X158835714Y14526910D01*
X158692857Y14526910D01*
X158645238Y14550719D01*
X158621429Y14574529D01*
X167692858Y14526910D02*
X167692858Y15026910D01*
X167811905Y15026910D01*
X167883334Y15003100D01*
X167930953Y14955481D01*
X167954762Y14907862D01*
X167978572Y14812624D01*
X167978572Y14741195D01*
X167954762Y14645957D01*
X167930953Y14598338D01*
X167883334Y14550719D01*
X167811905Y14526910D01*
X167692858Y14526910D01*
X168454762Y14526910D02*
X168169048Y14526910D01*
X168311905Y14526910D02*
X168311905Y15026910D01*
X168264286Y14955481D01*
X168216667Y14907862D01*
X168169048Y14884052D01*
X168883333Y14860243D02*
X168883333Y14526910D01*
X168764286Y15050719D02*
X168645238Y14693576D01*
X168954762Y14693576D01*
X177692858Y14526910D02*
X177692858Y15026910D01*
X177811905Y15026910D01*
X177883334Y15003100D01*
X177930953Y14955481D01*
X177954762Y14907862D01*
X177978572Y14812624D01*
X177978572Y14741195D01*
X177954762Y14645957D01*
X177930953Y14598338D01*
X177883334Y14550719D01*
X177811905Y14526910D01*
X177692858Y14526910D01*
X178454762Y14526910D02*
X178169048Y14526910D01*
X178311905Y14526910D02*
X178311905Y15026910D01*
X178264286Y14955481D01*
X178216667Y14907862D01*
X178169048Y14884052D01*
X178907143Y15026910D02*
X178669048Y15026910D01*
X178645238Y14788814D01*
X178669048Y14812624D01*
X178716667Y14836433D01*
X178835714Y14836433D01*
X178883333Y14812624D01*
X178907143Y14788814D01*
X178930952Y14741195D01*
X178930952Y14622148D01*
X178907143Y14574529D01*
X178883333Y14550719D01*
X178835714Y14526910D01*
X178716667Y14526910D01*
X178669048Y14550719D01*
X178645238Y14574529D01*
X37978572Y955729D02*
X37954762Y931919D01*
X37883334Y908110D01*
X37835715Y908110D01*
X37764286Y931919D01*
X37716667Y979538D01*
X37692858Y1027157D01*
X37669048Y1122395D01*
X37669048Y1193824D01*
X37692858Y1289062D01*
X37716667Y1336681D01*
X37764286Y1384300D01*
X37835715Y1408110D01*
X37883334Y1408110D01*
X37954762Y1384300D01*
X37978572Y1360490D01*
X38454762Y908110D02*
X38169048Y908110D01*
X38311905Y908110D02*
X38311905Y1408110D01*
X38264286Y1336681D01*
X38216667Y1289062D01*
X38169048Y1265252D01*
X38883333Y1408110D02*
X38788095Y1408110D01*
X38740476Y1384300D01*
X38716667Y1360490D01*
X38669048Y1289062D01*
X38645238Y1193824D01*
X38645238Y1003348D01*
X38669048Y955729D01*
X38692857Y931919D01*
X38740476Y908110D01*
X38835714Y908110D01*
X38883333Y931919D01*
X38907143Y955729D01*
X38930952Y1003348D01*
X38930952Y1122395D01*
X38907143Y1170014D01*
X38883333Y1193824D01*
X38835714Y1217633D01*
X38740476Y1217633D01*
X38692857Y1193824D01*
X38669048Y1170014D01*
X38645238Y1122395D01*
X47978572Y955729D02*
X47954762Y931919D01*
X47883334Y908110D01*
X47835715Y908110D01*
X47764286Y931919D01*
X47716667Y979538D01*
X47692858Y1027157D01*
X47669048Y1122395D01*
X47669048Y1193824D01*
X47692858Y1289062D01*
X47716667Y1336681D01*
X47764286Y1384300D01*
X47835715Y1408110D01*
X47883334Y1408110D01*
X47954762Y1384300D01*
X47978572Y1360490D01*
X48454762Y908110D02*
X48169048Y908110D01*
X48311905Y908110D02*
X48311905Y1408110D01*
X48264286Y1336681D01*
X48216667Y1289062D01*
X48169048Y1265252D01*
X48621429Y1408110D02*
X48954762Y1408110D01*
X48740476Y908110D01*
X57978572Y955729D02*
X57954762Y931919D01*
X57883334Y908110D01*
X57835715Y908110D01*
X57764286Y931919D01*
X57716667Y979538D01*
X57692858Y1027157D01*
X57669048Y1122395D01*
X57669048Y1193824D01*
X57692858Y1289062D01*
X57716667Y1336681D01*
X57764286Y1384300D01*
X57835715Y1408110D01*
X57883334Y1408110D01*
X57954762Y1384300D01*
X57978572Y1360490D01*
X58454762Y908110D02*
X58169048Y908110D01*
X58311905Y908110D02*
X58311905Y1408110D01*
X58264286Y1336681D01*
X58216667Y1289062D01*
X58169048Y1265252D01*
X58740476Y1193824D02*
X58692857Y1217633D01*
X58669048Y1241443D01*
X58645238Y1289062D01*
X58645238Y1312871D01*
X58669048Y1360490D01*
X58692857Y1384300D01*
X58740476Y1408110D01*
X58835714Y1408110D01*
X58883333Y1384300D01*
X58907143Y1360490D01*
X58930952Y1312871D01*
X58930952Y1289062D01*
X58907143Y1241443D01*
X58883333Y1217633D01*
X58835714Y1193824D01*
X58740476Y1193824D01*
X58692857Y1170014D01*
X58669048Y1146205D01*
X58645238Y1098586D01*
X58645238Y1003348D01*
X58669048Y955729D01*
X58692857Y931919D01*
X58740476Y908110D01*
X58835714Y908110D01*
X58883333Y931919D01*
X58907143Y955729D01*
X58930952Y1003348D01*
X58930952Y1098586D01*
X58907143Y1146205D01*
X58883333Y1170014D01*
X58835714Y1193824D01*
X67978572Y955729D02*
X67954762Y931919D01*
X67883334Y908110D01*
X67835715Y908110D01*
X67764286Y931919D01*
X67716667Y979538D01*
X67692858Y1027157D01*
X67669048Y1122395D01*
X67669048Y1193824D01*
X67692858Y1289062D01*
X67716667Y1336681D01*
X67764286Y1384300D01*
X67835715Y1408110D01*
X67883334Y1408110D01*
X67954762Y1384300D01*
X67978572Y1360490D01*
X68454762Y908110D02*
X68169048Y908110D01*
X68311905Y908110D02*
X68311905Y1408110D01*
X68264286Y1336681D01*
X68216667Y1289062D01*
X68169048Y1265252D01*
X68692857Y908110D02*
X68788095Y908110D01*
X68835714Y931919D01*
X68859524Y955729D01*
X68907143Y1027157D01*
X68930952Y1122395D01*
X68930952Y1312871D01*
X68907143Y1360490D01*
X68883333Y1384300D01*
X68835714Y1408110D01*
X68740476Y1408110D01*
X68692857Y1384300D01*
X68669048Y1360490D01*
X68645238Y1312871D01*
X68645238Y1193824D01*
X68669048Y1146205D01*
X68692857Y1122395D01*
X68740476Y1098586D01*
X68835714Y1098586D01*
X68883333Y1122395D01*
X68907143Y1146205D01*
X68930952Y1193824D01*
X77978572Y955729D02*
X77954762Y931919D01*
X77883334Y908110D01*
X77835715Y908110D01*
X77764286Y931919D01*
X77716667Y979538D01*
X77692858Y1027157D01*
X77669048Y1122395D01*
X77669048Y1193824D01*
X77692858Y1289062D01*
X77716667Y1336681D01*
X77764286Y1384300D01*
X77835715Y1408110D01*
X77883334Y1408110D01*
X77954762Y1384300D01*
X77978572Y1360490D01*
X78169048Y1360490D02*
X78192858Y1384300D01*
X78240477Y1408110D01*
X78359524Y1408110D01*
X78407143Y1384300D01*
X78430953Y1360490D01*
X78454762Y1312871D01*
X78454762Y1265252D01*
X78430953Y1193824D01*
X78145239Y908110D01*
X78454762Y908110D01*
X78764286Y1408110D02*
X78811905Y1408110D01*
X78859524Y1384300D01*
X78883333Y1360490D01*
X78907143Y1312871D01*
X78930952Y1217633D01*
X78930952Y1098586D01*
X78907143Y1003348D01*
X78883333Y955729D01*
X78859524Y931919D01*
X78811905Y908110D01*
X78764286Y908110D01*
X78716667Y931919D01*
X78692857Y955729D01*
X78669048Y1003348D01*
X78645238Y1098586D01*
X78645238Y1217633D01*
X78669048Y1312871D01*
X78692857Y1360490D01*
X78716667Y1384300D01*
X78764286Y1408110D01*
X87978572Y955729D02*
X87954762Y931919D01*
X87883334Y908110D01*
X87835715Y908110D01*
X87764286Y931919D01*
X87716667Y979538D01*
X87692858Y1027157D01*
X87669048Y1122395D01*
X87669048Y1193824D01*
X87692858Y1289062D01*
X87716667Y1336681D01*
X87764286Y1384300D01*
X87835715Y1408110D01*
X87883334Y1408110D01*
X87954762Y1384300D01*
X87978572Y1360490D01*
X88169048Y1360490D02*
X88192858Y1384300D01*
X88240477Y1408110D01*
X88359524Y1408110D01*
X88407143Y1384300D01*
X88430953Y1360490D01*
X88454762Y1312871D01*
X88454762Y1265252D01*
X88430953Y1193824D01*
X88145239Y908110D01*
X88454762Y908110D01*
X88930952Y908110D02*
X88645238Y908110D01*
X88788095Y908110D02*
X88788095Y1408110D01*
X88740476Y1336681D01*
X88692857Y1289062D01*
X88645238Y1265252D01*
X97978572Y955729D02*
X97954762Y931919D01*
X97883334Y908110D01*
X97835715Y908110D01*
X97764286Y931919D01*
X97716667Y979538D01*
X97692858Y1027157D01*
X97669048Y1122395D01*
X97669048Y1193824D01*
X97692858Y1289062D01*
X97716667Y1336681D01*
X97764286Y1384300D01*
X97835715Y1408110D01*
X97883334Y1408110D01*
X97954762Y1384300D01*
X97978572Y1360490D01*
X98169048Y1360490D02*
X98192858Y1384300D01*
X98240477Y1408110D01*
X98359524Y1408110D01*
X98407143Y1384300D01*
X98430953Y1360490D01*
X98454762Y1312871D01*
X98454762Y1265252D01*
X98430953Y1193824D01*
X98145239Y908110D01*
X98454762Y908110D01*
X98645238Y1360490D02*
X98669048Y1384300D01*
X98716667Y1408110D01*
X98835714Y1408110D01*
X98883333Y1384300D01*
X98907143Y1360490D01*
X98930952Y1312871D01*
X98930952Y1265252D01*
X98907143Y1193824D01*
X98621429Y908110D01*
X98930952Y908110D01*
X107978572Y768229D02*
X107954762Y744419D01*
X107883334Y720610D01*
X107835715Y720610D01*
X107764286Y744419D01*
X107716667Y792038D01*
X107692858Y839657D01*
X107669048Y934895D01*
X107669048Y1006324D01*
X107692858Y1101562D01*
X107716667Y1149181D01*
X107764286Y1196800D01*
X107835715Y1220610D01*
X107883334Y1220610D01*
X107954762Y1196800D01*
X107978572Y1172990D01*
X108169048Y1172990D02*
X108192858Y1196800D01*
X108240477Y1220610D01*
X108359524Y1220610D01*
X108407143Y1196800D01*
X108430953Y1172990D01*
X108454762Y1125371D01*
X108454762Y1077752D01*
X108430953Y1006324D01*
X108145239Y720610D01*
X108454762Y720610D01*
X108621429Y1220610D02*
X108930952Y1220610D01*
X108764286Y1030133D01*
X108835714Y1030133D01*
X108883333Y1006324D01*
X108907143Y982514D01*
X108930952Y934895D01*
X108930952Y815848D01*
X108907143Y768229D01*
X108883333Y744419D01*
X108835714Y720610D01*
X108692857Y720610D01*
X108645238Y744419D01*
X108621429Y768229D01*
X117978572Y955729D02*
X117954762Y931919D01*
X117883334Y908110D01*
X117835715Y908110D01*
X117764286Y931919D01*
X117716667Y979538D01*
X117692858Y1027157D01*
X117669048Y1122395D01*
X117669048Y1193824D01*
X117692858Y1289062D01*
X117716667Y1336681D01*
X117764286Y1384300D01*
X117835715Y1408110D01*
X117883334Y1408110D01*
X117954762Y1384300D01*
X117978572Y1360490D01*
X118169048Y1360490D02*
X118192858Y1384300D01*
X118240477Y1408110D01*
X118359524Y1408110D01*
X118407143Y1384300D01*
X118430953Y1360490D01*
X118454762Y1312871D01*
X118454762Y1265252D01*
X118430953Y1193824D01*
X118145239Y908110D01*
X118454762Y908110D01*
X118883333Y1241443D02*
X118883333Y908110D01*
X118764286Y1431919D02*
X118645238Y1074776D01*
X118954762Y1074776D01*
X127978572Y955729D02*
X127954762Y931919D01*
X127883334Y908110D01*
X127835715Y908110D01*
X127764286Y931919D01*
X127716667Y979538D01*
X127692858Y1027157D01*
X127669048Y1122395D01*
X127669048Y1193824D01*
X127692858Y1289062D01*
X127716667Y1336681D01*
X127764286Y1384300D01*
X127835715Y1408110D01*
X127883334Y1408110D01*
X127954762Y1384300D01*
X127978572Y1360490D01*
X128169048Y1360490D02*
X128192858Y1384300D01*
X128240477Y1408110D01*
X128359524Y1408110D01*
X128407143Y1384300D01*
X128430953Y1360490D01*
X128454762Y1312871D01*
X128454762Y1265252D01*
X128430953Y1193824D01*
X128145239Y908110D01*
X128454762Y908110D01*
X128907143Y1408110D02*
X128669048Y1408110D01*
X128645238Y1170014D01*
X128669048Y1193824D01*
X128716667Y1217633D01*
X128835714Y1217633D01*
X128883333Y1193824D01*
X128907143Y1170014D01*
X128930952Y1122395D01*
X128930952Y1003348D01*
X128907143Y955729D01*
X128883333Y931919D01*
X128835714Y908110D01*
X128716667Y908110D01*
X128669048Y931919D01*
X128645238Y955729D01*
X137978572Y955729D02*
X137954762Y931919D01*
X137883334Y908110D01*
X137835715Y908110D01*
X137764286Y931919D01*
X137716667Y979538D01*
X137692858Y1027157D01*
X137669048Y1122395D01*
X137669048Y1193824D01*
X137692858Y1289062D01*
X137716667Y1336681D01*
X137764286Y1384300D01*
X137835715Y1408110D01*
X137883334Y1408110D01*
X137954762Y1384300D01*
X137978572Y1360490D01*
X138169048Y1360490D02*
X138192858Y1384300D01*
X138240477Y1408110D01*
X138359524Y1408110D01*
X138407143Y1384300D01*
X138430953Y1360490D01*
X138454762Y1312871D01*
X138454762Y1265252D01*
X138430953Y1193824D01*
X138145239Y908110D01*
X138454762Y908110D01*
X138883333Y1408110D02*
X138788095Y1408110D01*
X138740476Y1384300D01*
X138716667Y1360490D01*
X138669048Y1289062D01*
X138645238Y1193824D01*
X138645238Y1003348D01*
X138669048Y955729D01*
X138692857Y931919D01*
X138740476Y908110D01*
X138835714Y908110D01*
X138883333Y931919D01*
X138907143Y955729D01*
X138930952Y1003348D01*
X138930952Y1122395D01*
X138907143Y1170014D01*
X138883333Y1193824D01*
X138835714Y1217633D01*
X138740476Y1217633D01*
X138692857Y1193824D01*
X138669048Y1170014D01*
X138645238Y1122395D01*
X147978572Y955729D02*
X147954762Y931919D01*
X147883334Y908110D01*
X147835715Y908110D01*
X147764286Y931919D01*
X147716667Y979538D01*
X147692858Y1027157D01*
X147669048Y1122395D01*
X147669048Y1193824D01*
X147692858Y1289062D01*
X147716667Y1336681D01*
X147764286Y1384300D01*
X147835715Y1408110D01*
X147883334Y1408110D01*
X147954762Y1384300D01*
X147978572Y1360490D01*
X148169048Y1360490D02*
X148192858Y1384300D01*
X148240477Y1408110D01*
X148359524Y1408110D01*
X148407143Y1384300D01*
X148430953Y1360490D01*
X148454762Y1312871D01*
X148454762Y1265252D01*
X148430953Y1193824D01*
X148145239Y908110D01*
X148454762Y908110D01*
X148621429Y1408110D02*
X148954762Y1408110D01*
X148740476Y908110D01*
X157978572Y955729D02*
X157954762Y931919D01*
X157883334Y908110D01*
X157835715Y908110D01*
X157764286Y931919D01*
X157716667Y979538D01*
X157692858Y1027157D01*
X157669048Y1122395D01*
X157669048Y1193824D01*
X157692858Y1289062D01*
X157716667Y1336681D01*
X157764286Y1384300D01*
X157835715Y1408110D01*
X157883334Y1408110D01*
X157954762Y1384300D01*
X157978572Y1360490D01*
X158169048Y1360490D02*
X158192858Y1384300D01*
X158240477Y1408110D01*
X158359524Y1408110D01*
X158407143Y1384300D01*
X158430953Y1360490D01*
X158454762Y1312871D01*
X158454762Y1265252D01*
X158430953Y1193824D01*
X158145239Y908110D01*
X158454762Y908110D01*
X158740476Y1193824D02*
X158692857Y1217633D01*
X158669048Y1241443D01*
X158645238Y1289062D01*
X158645238Y1312871D01*
X158669048Y1360490D01*
X158692857Y1384300D01*
X158740476Y1408110D01*
X158835714Y1408110D01*
X158883333Y1384300D01*
X158907143Y1360490D01*
X158930952Y1312871D01*
X158930952Y1289062D01*
X158907143Y1241443D01*
X158883333Y1217633D01*
X158835714Y1193824D01*
X158740476Y1193824D01*
X158692857Y1170014D01*
X158669048Y1146205D01*
X158645238Y1098586D01*
X158645238Y1003348D01*
X158669048Y955729D01*
X158692857Y931919D01*
X158740476Y908110D01*
X158835714Y908110D01*
X158883333Y931919D01*
X158907143Y955729D01*
X158930952Y1003348D01*
X158930952Y1098586D01*
X158907143Y1146205D01*
X158883333Y1170014D01*
X158835714Y1193824D01*
X167978572Y955729D02*
X167954762Y931919D01*
X167883334Y908110D01*
X167835715Y908110D01*
X167764286Y931919D01*
X167716667Y979538D01*
X167692858Y1027157D01*
X167669048Y1122395D01*
X167669048Y1193824D01*
X167692858Y1289062D01*
X167716667Y1336681D01*
X167764286Y1384300D01*
X167835715Y1408110D01*
X167883334Y1408110D01*
X167954762Y1384300D01*
X167978572Y1360490D01*
X168169048Y1360490D02*
X168192858Y1384300D01*
X168240477Y1408110D01*
X168359524Y1408110D01*
X168407143Y1384300D01*
X168430953Y1360490D01*
X168454762Y1312871D01*
X168454762Y1265252D01*
X168430953Y1193824D01*
X168145239Y908110D01*
X168454762Y908110D01*
X168692857Y908110D02*
X168788095Y908110D01*
X168835714Y931919D01*
X168859524Y955729D01*
X168907143Y1027157D01*
X168930952Y1122395D01*
X168930952Y1312871D01*
X168907143Y1360490D01*
X168883333Y1384300D01*
X168835714Y1408110D01*
X168740476Y1408110D01*
X168692857Y1384300D01*
X168669048Y1360490D01*
X168645238Y1312871D01*
X168645238Y1193824D01*
X168669048Y1146205D01*
X168692857Y1122395D01*
X168740476Y1098586D01*
X168835714Y1098586D01*
X168883333Y1122395D01*
X168907143Y1146205D01*
X168930952Y1193824D01*
X177978572Y955729D02*
X177954762Y931919D01*
X177883334Y908110D01*
X177835715Y908110D01*
X177764286Y931919D01*
X177716667Y979538D01*
X177692858Y1027157D01*
X177669048Y1122395D01*
X177669048Y1193824D01*
X177692858Y1289062D01*
X177716667Y1336681D01*
X177764286Y1384300D01*
X177835715Y1408110D01*
X177883334Y1408110D01*
X177954762Y1384300D01*
X177978572Y1360490D01*
X178145239Y1408110D02*
X178454762Y1408110D01*
X178288096Y1217633D01*
X178359524Y1217633D01*
X178407143Y1193824D01*
X178430953Y1170014D01*
X178454762Y1122395D01*
X178454762Y1003348D01*
X178430953Y955729D01*
X178407143Y931919D01*
X178359524Y908110D01*
X178216667Y908110D01*
X178169048Y931919D01*
X178145239Y955729D01*
X178764286Y1408110D02*
X178811905Y1408110D01*
X178859524Y1384300D01*
X178883333Y1360490D01*
X178907143Y1312871D01*
X178930952Y1217633D01*
X178930952Y1098586D01*
X178907143Y1003348D01*
X178883333Y955729D01*
X178859524Y931919D01*
X178811905Y908110D01*
X178764286Y908110D01*
X178716667Y931919D01*
X178692857Y955729D01*
X178669048Y1003348D01*
X178645238Y1098586D01*
X178645238Y1217633D01*
X178669048Y1312871D01*
X178692857Y1360490D01*
X178716667Y1384300D01*
X178764286Y1408110D01*
X37526191Y4497729D02*
X37502381Y4473919D01*
X37430953Y4450110D01*
X37383334Y4450110D01*
X37311905Y4473919D01*
X37264286Y4521538D01*
X37240477Y4569157D01*
X37216667Y4664395D01*
X37216667Y4735824D01*
X37240477Y4831062D01*
X37264286Y4878681D01*
X37311905Y4926300D01*
X37383334Y4950110D01*
X37430953Y4950110D01*
X37502381Y4926300D01*
X37526191Y4902490D01*
X37978572Y4450110D02*
X37740477Y4450110D01*
X37740477Y4950110D01*
X38145239Y4450110D02*
X38145239Y4950110D01*
X38430953Y4450110D02*
X38216667Y4735824D01*
X38430953Y4950110D02*
X38145239Y4664395D01*
X38907143Y4450110D02*
X38621429Y4450110D01*
X38764286Y4450110D02*
X38764286Y4950110D01*
X38716667Y4878681D01*
X38669048Y4831062D01*
X38621429Y4807252D01*
X39073810Y4950110D02*
X39407143Y4950110D01*
X39192857Y4450110D01*
X47526191Y4497729D02*
X47502381Y4473919D01*
X47430953Y4450110D01*
X47383334Y4450110D01*
X47311905Y4473919D01*
X47264286Y4521538D01*
X47240477Y4569157D01*
X47216667Y4664395D01*
X47216667Y4735824D01*
X47240477Y4831062D01*
X47264286Y4878681D01*
X47311905Y4926300D01*
X47383334Y4950110D01*
X47430953Y4950110D01*
X47502381Y4926300D01*
X47526191Y4902490D01*
X47978572Y4450110D02*
X47740477Y4450110D01*
X47740477Y4950110D01*
X48145239Y4450110D02*
X48145239Y4950110D01*
X48430953Y4450110D02*
X48216667Y4735824D01*
X48430953Y4950110D02*
X48145239Y4664395D01*
X48907143Y4450110D02*
X48621429Y4450110D01*
X48764286Y4450110D02*
X48764286Y4950110D01*
X48716667Y4878681D01*
X48669048Y4831062D01*
X48621429Y4807252D01*
X49192857Y4735824D02*
X49145238Y4759633D01*
X49121429Y4783443D01*
X49097619Y4831062D01*
X49097619Y4854871D01*
X49121429Y4902490D01*
X49145238Y4926300D01*
X49192857Y4950110D01*
X49288095Y4950110D01*
X49335714Y4926300D01*
X49359524Y4902490D01*
X49383333Y4854871D01*
X49383333Y4831062D01*
X49359524Y4783443D01*
X49335714Y4759633D01*
X49288095Y4735824D01*
X49192857Y4735824D01*
X49145238Y4712014D01*
X49121429Y4688205D01*
X49097619Y4640586D01*
X49097619Y4545348D01*
X49121429Y4497729D01*
X49145238Y4473919D01*
X49192857Y4450110D01*
X49288095Y4450110D01*
X49335714Y4473919D01*
X49359524Y4497729D01*
X49383333Y4545348D01*
X49383333Y4640586D01*
X49359524Y4688205D01*
X49335714Y4712014D01*
X49288095Y4735824D01*
X57526191Y4497729D02*
X57502381Y4473919D01*
X57430953Y4450110D01*
X57383334Y4450110D01*
X57311905Y4473919D01*
X57264286Y4521538D01*
X57240477Y4569157D01*
X57216667Y4664395D01*
X57216667Y4735824D01*
X57240477Y4831062D01*
X57264286Y4878681D01*
X57311905Y4926300D01*
X57383334Y4950110D01*
X57430953Y4950110D01*
X57502381Y4926300D01*
X57526191Y4902490D01*
X57978572Y4450110D02*
X57740477Y4450110D01*
X57740477Y4950110D01*
X58145239Y4450110D02*
X58145239Y4950110D01*
X58430953Y4450110D02*
X58216667Y4735824D01*
X58430953Y4950110D02*
X58145239Y4664395D01*
X58907143Y4450110D02*
X58621429Y4450110D01*
X58764286Y4450110D02*
X58764286Y4950110D01*
X58716667Y4878681D01*
X58669048Y4831062D01*
X58621429Y4807252D01*
X59145238Y4450110D02*
X59240476Y4450110D01*
X59288095Y4473919D01*
X59311905Y4497729D01*
X59359524Y4569157D01*
X59383333Y4664395D01*
X59383333Y4854871D01*
X59359524Y4902490D01*
X59335714Y4926300D01*
X59288095Y4950110D01*
X59192857Y4950110D01*
X59145238Y4926300D01*
X59121429Y4902490D01*
X59097619Y4854871D01*
X59097619Y4735824D01*
X59121429Y4688205D01*
X59145238Y4664395D01*
X59192857Y4640586D01*
X59288095Y4640586D01*
X59335714Y4664395D01*
X59359524Y4688205D01*
X59383333Y4735824D01*
X67526191Y4497729D02*
X67502381Y4473919D01*
X67430953Y4450110D01*
X67383334Y4450110D01*
X67311905Y4473919D01*
X67264286Y4521538D01*
X67240477Y4569157D01*
X67216667Y4664395D01*
X67216667Y4735824D01*
X67240477Y4831062D01*
X67264286Y4878681D01*
X67311905Y4926300D01*
X67383334Y4950110D01*
X67430953Y4950110D01*
X67502381Y4926300D01*
X67526191Y4902490D01*
X67978572Y4450110D02*
X67740477Y4450110D01*
X67740477Y4950110D01*
X68145239Y4450110D02*
X68145239Y4950110D01*
X68430953Y4450110D02*
X68216667Y4735824D01*
X68430953Y4950110D02*
X68145239Y4664395D01*
X68621429Y4902490D02*
X68645239Y4926300D01*
X68692858Y4950110D01*
X68811905Y4950110D01*
X68859524Y4926300D01*
X68883334Y4902490D01*
X68907143Y4854871D01*
X68907143Y4807252D01*
X68883334Y4735824D01*
X68597620Y4450110D01*
X68907143Y4450110D01*
X69216667Y4950110D02*
X69264286Y4950110D01*
X69311905Y4926300D01*
X69335714Y4902490D01*
X69359524Y4854871D01*
X69383333Y4759633D01*
X69383333Y4640586D01*
X69359524Y4545348D01*
X69335714Y4497729D01*
X69311905Y4473919D01*
X69264286Y4450110D01*
X69216667Y4450110D01*
X69169048Y4473919D01*
X69145238Y4497729D01*
X69121429Y4545348D01*
X69097619Y4640586D01*
X69097619Y4759633D01*
X69121429Y4854871D01*
X69145238Y4902490D01*
X69169048Y4926300D01*
X69216667Y4950110D01*
X77526191Y4497729D02*
X77502381Y4473919D01*
X77430953Y4450110D01*
X77383334Y4450110D01*
X77311905Y4473919D01*
X77264286Y4521538D01*
X77240477Y4569157D01*
X77216667Y4664395D01*
X77216667Y4735824D01*
X77240477Y4831062D01*
X77264286Y4878681D01*
X77311905Y4926300D01*
X77383334Y4950110D01*
X77430953Y4950110D01*
X77502381Y4926300D01*
X77526191Y4902490D01*
X77978572Y4450110D02*
X77740477Y4450110D01*
X77740477Y4950110D01*
X78145239Y4450110D02*
X78145239Y4950110D01*
X78430953Y4450110D02*
X78216667Y4735824D01*
X78430953Y4950110D02*
X78145239Y4664395D01*
X78621429Y4902490D02*
X78645239Y4926300D01*
X78692858Y4950110D01*
X78811905Y4950110D01*
X78859524Y4926300D01*
X78883334Y4902490D01*
X78907143Y4854871D01*
X78907143Y4807252D01*
X78883334Y4735824D01*
X78597620Y4450110D01*
X78907143Y4450110D01*
X79383333Y4450110D02*
X79097619Y4450110D01*
X79240476Y4450110D02*
X79240476Y4950110D01*
X79192857Y4878681D01*
X79145238Y4831062D01*
X79097619Y4807252D01*
X87526191Y4497729D02*
X87502381Y4473919D01*
X87430953Y4450110D01*
X87383334Y4450110D01*
X87311905Y4473919D01*
X87264286Y4521538D01*
X87240477Y4569157D01*
X87216667Y4664395D01*
X87216667Y4735824D01*
X87240477Y4831062D01*
X87264286Y4878681D01*
X87311905Y4926300D01*
X87383334Y4950110D01*
X87430953Y4950110D01*
X87502381Y4926300D01*
X87526191Y4902490D01*
X87978572Y4450110D02*
X87740477Y4450110D01*
X87740477Y4950110D01*
X88145239Y4450110D02*
X88145239Y4950110D01*
X88430953Y4450110D02*
X88216667Y4735824D01*
X88430953Y4950110D02*
X88145239Y4664395D01*
X88621429Y4902490D02*
X88645239Y4926300D01*
X88692858Y4950110D01*
X88811905Y4950110D01*
X88859524Y4926300D01*
X88883334Y4902490D01*
X88907143Y4854871D01*
X88907143Y4807252D01*
X88883334Y4735824D01*
X88597620Y4450110D01*
X88907143Y4450110D01*
X89097619Y4902490D02*
X89121429Y4926300D01*
X89169048Y4950110D01*
X89288095Y4950110D01*
X89335714Y4926300D01*
X89359524Y4902490D01*
X89383333Y4854871D01*
X89383333Y4807252D01*
X89359524Y4735824D01*
X89073810Y4450110D01*
X89383333Y4450110D01*
X97526191Y4497729D02*
X97502381Y4473919D01*
X97430953Y4450110D01*
X97383334Y4450110D01*
X97311905Y4473919D01*
X97264286Y4521538D01*
X97240477Y4569157D01*
X97216667Y4664395D01*
X97216667Y4735824D01*
X97240477Y4831062D01*
X97264286Y4878681D01*
X97311905Y4926300D01*
X97383334Y4950110D01*
X97430953Y4950110D01*
X97502381Y4926300D01*
X97526191Y4902490D01*
X97978572Y4450110D02*
X97740477Y4450110D01*
X97740477Y4950110D01*
X98145239Y4450110D02*
X98145239Y4950110D01*
X98430953Y4450110D02*
X98216667Y4735824D01*
X98430953Y4950110D02*
X98145239Y4664395D01*
X98621429Y4902490D02*
X98645239Y4926300D01*
X98692858Y4950110D01*
X98811905Y4950110D01*
X98859524Y4926300D01*
X98883334Y4902490D01*
X98907143Y4854871D01*
X98907143Y4807252D01*
X98883334Y4735824D01*
X98597620Y4450110D01*
X98907143Y4450110D01*
X99073810Y4950110D02*
X99383333Y4950110D01*
X99216667Y4759633D01*
X99288095Y4759633D01*
X99335714Y4735824D01*
X99359524Y4712014D01*
X99383333Y4664395D01*
X99383333Y4545348D01*
X99359524Y4497729D01*
X99335714Y4473919D01*
X99288095Y4450110D01*
X99145238Y4450110D01*
X99097619Y4473919D01*
X99073810Y4497729D01*
X107526191Y4497729D02*
X107502381Y4473919D01*
X107430953Y4450110D01*
X107383334Y4450110D01*
X107311905Y4473919D01*
X107264286Y4521538D01*
X107240477Y4569157D01*
X107216667Y4664395D01*
X107216667Y4735824D01*
X107240477Y4831062D01*
X107264286Y4878681D01*
X107311905Y4926300D01*
X107383334Y4950110D01*
X107430953Y4950110D01*
X107502381Y4926300D01*
X107526191Y4902490D01*
X107978572Y4450110D02*
X107740477Y4450110D01*
X107740477Y4950110D01*
X108145239Y4450110D02*
X108145239Y4950110D01*
X108430953Y4450110D02*
X108216667Y4735824D01*
X108430953Y4950110D02*
X108145239Y4664395D01*
X108621429Y4902490D02*
X108645239Y4926300D01*
X108692858Y4950110D01*
X108811905Y4950110D01*
X108859524Y4926300D01*
X108883334Y4902490D01*
X108907143Y4854871D01*
X108907143Y4807252D01*
X108883334Y4735824D01*
X108597620Y4450110D01*
X108907143Y4450110D01*
X109335714Y4783443D02*
X109335714Y4450110D01*
X109216667Y4973919D02*
X109097619Y4616776D01*
X109407143Y4616776D01*
X117526191Y4497729D02*
X117502381Y4473919D01*
X117430953Y4450110D01*
X117383334Y4450110D01*
X117311905Y4473919D01*
X117264286Y4521538D01*
X117240477Y4569157D01*
X117216667Y4664395D01*
X117216667Y4735824D01*
X117240477Y4831062D01*
X117264286Y4878681D01*
X117311905Y4926300D01*
X117383334Y4950110D01*
X117430953Y4950110D01*
X117502381Y4926300D01*
X117526191Y4902490D01*
X117978572Y4450110D02*
X117740477Y4450110D01*
X117740477Y4950110D01*
X118145239Y4450110D02*
X118145239Y4950110D01*
X118430953Y4450110D02*
X118216667Y4735824D01*
X118430953Y4950110D02*
X118145239Y4664395D01*
X118621429Y4902490D02*
X118645239Y4926300D01*
X118692858Y4950110D01*
X118811905Y4950110D01*
X118859524Y4926300D01*
X118883334Y4902490D01*
X118907143Y4854871D01*
X118907143Y4807252D01*
X118883334Y4735824D01*
X118597620Y4450110D01*
X118907143Y4450110D01*
X119359524Y4950110D02*
X119121429Y4950110D01*
X119097619Y4712014D01*
X119121429Y4735824D01*
X119169048Y4759633D01*
X119288095Y4759633D01*
X119335714Y4735824D01*
X119359524Y4712014D01*
X119383333Y4664395D01*
X119383333Y4545348D01*
X119359524Y4497729D01*
X119335714Y4473919D01*
X119288095Y4450110D01*
X119169048Y4450110D01*
X119121429Y4473919D01*
X119097619Y4497729D01*
X127526191Y4497729D02*
X127502381Y4473919D01*
X127430953Y4450110D01*
X127383334Y4450110D01*
X127311905Y4473919D01*
X127264286Y4521538D01*
X127240477Y4569157D01*
X127216667Y4664395D01*
X127216667Y4735824D01*
X127240477Y4831062D01*
X127264286Y4878681D01*
X127311905Y4926300D01*
X127383334Y4950110D01*
X127430953Y4950110D01*
X127502381Y4926300D01*
X127526191Y4902490D01*
X127978572Y4450110D02*
X127740477Y4450110D01*
X127740477Y4950110D01*
X128145239Y4450110D02*
X128145239Y4950110D01*
X128430953Y4450110D02*
X128216667Y4735824D01*
X128430953Y4950110D02*
X128145239Y4664395D01*
X128621429Y4902490D02*
X128645239Y4926300D01*
X128692858Y4950110D01*
X128811905Y4950110D01*
X128859524Y4926300D01*
X128883334Y4902490D01*
X128907143Y4854871D01*
X128907143Y4807252D01*
X128883334Y4735824D01*
X128597620Y4450110D01*
X128907143Y4450110D01*
X129335714Y4950110D02*
X129240476Y4950110D01*
X129192857Y4926300D01*
X129169048Y4902490D01*
X129121429Y4831062D01*
X129097619Y4735824D01*
X129097619Y4545348D01*
X129121429Y4497729D01*
X129145238Y4473919D01*
X129192857Y4450110D01*
X129288095Y4450110D01*
X129335714Y4473919D01*
X129359524Y4497729D01*
X129383333Y4545348D01*
X129383333Y4664395D01*
X129359524Y4712014D01*
X129335714Y4735824D01*
X129288095Y4759633D01*
X129192857Y4759633D01*
X129145238Y4735824D01*
X129121429Y4712014D01*
X129097619Y4664395D01*
X137526191Y4497729D02*
X137502381Y4473919D01*
X137430953Y4450110D01*
X137383334Y4450110D01*
X137311905Y4473919D01*
X137264286Y4521538D01*
X137240477Y4569157D01*
X137216667Y4664395D01*
X137216667Y4735824D01*
X137240477Y4831062D01*
X137264286Y4878681D01*
X137311905Y4926300D01*
X137383334Y4950110D01*
X137430953Y4950110D01*
X137502381Y4926300D01*
X137526191Y4902490D01*
X137978572Y4450110D02*
X137740477Y4450110D01*
X137740477Y4950110D01*
X138145239Y4450110D02*
X138145239Y4950110D01*
X138430953Y4450110D02*
X138216667Y4735824D01*
X138430953Y4950110D02*
X138145239Y4664395D01*
X138621429Y4902490D02*
X138645239Y4926300D01*
X138692858Y4950110D01*
X138811905Y4950110D01*
X138859524Y4926300D01*
X138883334Y4902490D01*
X138907143Y4854871D01*
X138907143Y4807252D01*
X138883334Y4735824D01*
X138597620Y4450110D01*
X138907143Y4450110D01*
X139073810Y4950110D02*
X139407143Y4950110D01*
X139192857Y4450110D01*
X147526191Y4497729D02*
X147502381Y4473919D01*
X147430953Y4450110D01*
X147383334Y4450110D01*
X147311905Y4473919D01*
X147264286Y4521538D01*
X147240477Y4569157D01*
X147216667Y4664395D01*
X147216667Y4735824D01*
X147240477Y4831062D01*
X147264286Y4878681D01*
X147311905Y4926300D01*
X147383334Y4950110D01*
X147430953Y4950110D01*
X147502381Y4926300D01*
X147526191Y4902490D01*
X147978572Y4450110D02*
X147740477Y4450110D01*
X147740477Y4950110D01*
X148145239Y4450110D02*
X148145239Y4950110D01*
X148430953Y4450110D02*
X148216667Y4735824D01*
X148430953Y4950110D02*
X148145239Y4664395D01*
X148621429Y4902490D02*
X148645239Y4926300D01*
X148692858Y4950110D01*
X148811905Y4950110D01*
X148859524Y4926300D01*
X148883334Y4902490D01*
X148907143Y4854871D01*
X148907143Y4807252D01*
X148883334Y4735824D01*
X148597620Y4450110D01*
X148907143Y4450110D01*
X149192857Y4735824D02*
X149145238Y4759633D01*
X149121429Y4783443D01*
X149097619Y4831062D01*
X149097619Y4854871D01*
X149121429Y4902490D01*
X149145238Y4926300D01*
X149192857Y4950110D01*
X149288095Y4950110D01*
X149335714Y4926300D01*
X149359524Y4902490D01*
X149383333Y4854871D01*
X149383333Y4831062D01*
X149359524Y4783443D01*
X149335714Y4759633D01*
X149288095Y4735824D01*
X149192857Y4735824D01*
X149145238Y4712014D01*
X149121429Y4688205D01*
X149097619Y4640586D01*
X149097619Y4545348D01*
X149121429Y4497729D01*
X149145238Y4473919D01*
X149192857Y4450110D01*
X149288095Y4450110D01*
X149335714Y4473919D01*
X149359524Y4497729D01*
X149383333Y4545348D01*
X149383333Y4640586D01*
X149359524Y4688205D01*
X149335714Y4712014D01*
X149288095Y4735824D01*
X157526191Y4497729D02*
X157502381Y4473919D01*
X157430953Y4450110D01*
X157383334Y4450110D01*
X157311905Y4473919D01*
X157264286Y4521538D01*
X157240477Y4569157D01*
X157216667Y4664395D01*
X157216667Y4735824D01*
X157240477Y4831062D01*
X157264286Y4878681D01*
X157311905Y4926300D01*
X157383334Y4950110D01*
X157430953Y4950110D01*
X157502381Y4926300D01*
X157526191Y4902490D01*
X157978572Y4450110D02*
X157740477Y4450110D01*
X157740477Y4950110D01*
X158145239Y4450110D02*
X158145239Y4950110D01*
X158430953Y4450110D02*
X158216667Y4735824D01*
X158430953Y4950110D02*
X158145239Y4664395D01*
X158621429Y4902490D02*
X158645239Y4926300D01*
X158692858Y4950110D01*
X158811905Y4950110D01*
X158859524Y4926300D01*
X158883334Y4902490D01*
X158907143Y4854871D01*
X158907143Y4807252D01*
X158883334Y4735824D01*
X158597620Y4450110D01*
X158907143Y4450110D01*
X159145238Y4450110D02*
X159240476Y4450110D01*
X159288095Y4473919D01*
X159311905Y4497729D01*
X159359524Y4569157D01*
X159383333Y4664395D01*
X159383333Y4854871D01*
X159359524Y4902490D01*
X159335714Y4926300D01*
X159288095Y4950110D01*
X159192857Y4950110D01*
X159145238Y4926300D01*
X159121429Y4902490D01*
X159097619Y4854871D01*
X159097619Y4735824D01*
X159121429Y4688205D01*
X159145238Y4664395D01*
X159192857Y4640586D01*
X159288095Y4640586D01*
X159335714Y4664395D01*
X159359524Y4688205D01*
X159383333Y4735824D01*
X167526191Y4497729D02*
X167502381Y4473919D01*
X167430953Y4450110D01*
X167383334Y4450110D01*
X167311905Y4473919D01*
X167264286Y4521538D01*
X167240477Y4569157D01*
X167216667Y4664395D01*
X167216667Y4735824D01*
X167240477Y4831062D01*
X167264286Y4878681D01*
X167311905Y4926300D01*
X167383334Y4950110D01*
X167430953Y4950110D01*
X167502381Y4926300D01*
X167526191Y4902490D01*
X167978572Y4450110D02*
X167740477Y4450110D01*
X167740477Y4950110D01*
X168145239Y4450110D02*
X168145239Y4950110D01*
X168430953Y4450110D02*
X168216667Y4735824D01*
X168430953Y4950110D02*
X168145239Y4664395D01*
X168597620Y4950110D02*
X168907143Y4950110D01*
X168740477Y4759633D01*
X168811905Y4759633D01*
X168859524Y4735824D01*
X168883334Y4712014D01*
X168907143Y4664395D01*
X168907143Y4545348D01*
X168883334Y4497729D01*
X168859524Y4473919D01*
X168811905Y4450110D01*
X168669048Y4450110D01*
X168621429Y4473919D01*
X168597620Y4497729D01*
X169216667Y4950110D02*
X169264286Y4950110D01*
X169311905Y4926300D01*
X169335714Y4902490D01*
X169359524Y4854871D01*
X169383333Y4759633D01*
X169383333Y4640586D01*
X169359524Y4545348D01*
X169335714Y4497729D01*
X169311905Y4473919D01*
X169264286Y4450110D01*
X169216667Y4450110D01*
X169169048Y4473919D01*
X169145238Y4497729D01*
X169121429Y4545348D01*
X169097619Y4640586D01*
X169097619Y4759633D01*
X169121429Y4854871D01*
X169145238Y4902490D01*
X169169048Y4926300D01*
X169216667Y4950110D01*
X177526191Y4497729D02*
X177502381Y4473919D01*
X177430953Y4450110D01*
X177383334Y4450110D01*
X177311905Y4473919D01*
X177264286Y4521538D01*
X177240477Y4569157D01*
X177216667Y4664395D01*
X177216667Y4735824D01*
X177240477Y4831062D01*
X177264286Y4878681D01*
X177311905Y4926300D01*
X177383334Y4950110D01*
X177430953Y4950110D01*
X177502381Y4926300D01*
X177526191Y4902490D01*
X177978572Y4450110D02*
X177740477Y4450110D01*
X177740477Y4950110D01*
X178145239Y4450110D02*
X178145239Y4950110D01*
X178430953Y4450110D02*
X178216667Y4735824D01*
X178430953Y4950110D02*
X178145239Y4664395D01*
X178597620Y4950110D02*
X178907143Y4950110D01*
X178740477Y4759633D01*
X178811905Y4759633D01*
X178859524Y4735824D01*
X178883334Y4712014D01*
X178907143Y4664395D01*
X178907143Y4545348D01*
X178883334Y4497729D01*
X178859524Y4473919D01*
X178811905Y4450110D01*
X178669048Y4450110D01*
X178621429Y4473919D01*
X178597620Y4497729D01*
X179383333Y4450110D02*
X179097619Y4450110D01*
X179240476Y4450110D02*
X179240476Y4950110D01*
X179192857Y4878681D01*
X179145238Y4831062D01*
X179097619Y4807252D01*
X189779905Y6131629D02*
X189756095Y6107819D01*
X189684667Y6084010D01*
X189637048Y6084010D01*
X189565619Y6107819D01*
X189518000Y6155438D01*
X189494191Y6203057D01*
X189470381Y6298295D01*
X189470381Y6369724D01*
X189494191Y6464962D01*
X189518000Y6512581D01*
X189565619Y6560200D01*
X189637048Y6584010D01*
X189684667Y6584010D01*
X189756095Y6560200D01*
X189779905Y6536390D01*
X190232286Y6084010D02*
X189994191Y6084010D01*
X189994191Y6584010D01*
X190398953Y6084010D02*
X190398953Y6584010D01*
X190684667Y6084010D02*
X190470381Y6369724D01*
X190684667Y6584010D02*
X190398953Y6298295D01*
X190994191Y6584010D02*
X191089429Y6584010D01*
X191137048Y6560200D01*
X191184667Y6512581D01*
X191208476Y6417343D01*
X191208476Y6250676D01*
X191184667Y6155438D01*
X191137048Y6107819D01*
X191089429Y6084010D01*
X190994191Y6084010D01*
X190946572Y6107819D01*
X190898953Y6155438D01*
X190875143Y6250676D01*
X190875143Y6417343D01*
X190898953Y6512581D01*
X190946572Y6560200D01*
X190994191Y6584010D01*
X191422763Y6584010D02*
X191422763Y6179248D01*
X191446572Y6131629D01*
X191470382Y6107819D01*
X191518001Y6084010D01*
X191613239Y6084010D01*
X191660858Y6107819D01*
X191684667Y6131629D01*
X191708477Y6179248D01*
X191708477Y6584010D01*
X191875144Y6584010D02*
X192160858Y6584010D01*
X192018001Y6084010D02*
X192018001Y6584010D01*
X192279906Y6584010D02*
X192589429Y6584010D01*
X192422763Y6393533D01*
X192494191Y6393533D01*
X192541810Y6369724D01*
X192565620Y6345914D01*
X192589429Y6298295D01*
X192589429Y6179248D01*
X192565620Y6131629D01*
X192541810Y6107819D01*
X192494191Y6084010D01*
X192351334Y6084010D01*
X192303715Y6107819D01*
X192279906Y6131629D01*
X193065619Y6084010D02*
X192779905Y6084010D01*
X192922762Y6084010D02*
X192922762Y6584010D01*
X192875143Y6512581D01*
X192827524Y6464962D01*
X192779905Y6441152D01*
X23982858Y8732510D02*
X23982858Y9232510D01*
X24101905Y9232510D01*
X24173334Y9208700D01*
X24220953Y9161081D01*
X24244762Y9113462D01*
X24268572Y9018224D01*
X24268572Y8946795D01*
X24244762Y8851557D01*
X24220953Y8803938D01*
X24173334Y8756319D01*
X24101905Y8732510D01*
X23982858Y8732510D01*
X24744762Y8732510D02*
X24459048Y8732510D01*
X24601905Y8732510D02*
X24601905Y9232510D01*
X24554286Y9161081D01*
X24506667Y9113462D01*
X24459048Y9089652D01*
X25173333Y9232510D02*
X25078095Y9232510D01*
X25030476Y9208700D01*
X25006667Y9184890D01*
X24959048Y9113462D01*
X24935238Y9018224D01*
X24935238Y8827748D01*
X24959048Y8780129D01*
X24982857Y8756319D01*
X25030476Y8732510D01*
X25125714Y8732510D01*
X25173333Y8756319D01*
X25197143Y8780129D01*
X25220952Y8827748D01*
X25220952Y8946795D01*
X25197143Y8994414D01*
X25173333Y9018224D01*
X25125714Y9042033D01*
X25030476Y9042033D01*
X24982857Y9018224D01*
X24959048Y8994414D01*
X24935238Y8946795D01*
X37692858Y6908110D02*
X37692858Y7408110D01*
X37811905Y7408110D01*
X37883334Y7384300D01*
X37930953Y7336681D01*
X37954762Y7289062D01*
X37978572Y7193824D01*
X37978572Y7122395D01*
X37954762Y7027157D01*
X37930953Y6979538D01*
X37883334Y6931919D01*
X37811905Y6908110D01*
X37692858Y6908110D01*
X38454762Y6908110D02*
X38169048Y6908110D01*
X38311905Y6908110D02*
X38311905Y7408110D01*
X38264286Y7336681D01*
X38216667Y7289062D01*
X38169048Y7265252D01*
X38621429Y7408110D02*
X38954762Y7408110D01*
X38740476Y6908110D01*
X47692858Y6908110D02*
X47692858Y7408110D01*
X47811905Y7408110D01*
X47883334Y7384300D01*
X47930953Y7336681D01*
X47954762Y7289062D01*
X47978572Y7193824D01*
X47978572Y7122395D01*
X47954762Y7027157D01*
X47930953Y6979538D01*
X47883334Y6931919D01*
X47811905Y6908110D01*
X47692858Y6908110D01*
X48454762Y6908110D02*
X48169048Y6908110D01*
X48311905Y6908110D02*
X48311905Y7408110D01*
X48264286Y7336681D01*
X48216667Y7289062D01*
X48169048Y7265252D01*
X48740476Y7193824D02*
X48692857Y7217633D01*
X48669048Y7241443D01*
X48645238Y7289062D01*
X48645238Y7312871D01*
X48669048Y7360490D01*
X48692857Y7384300D01*
X48740476Y7408110D01*
X48835714Y7408110D01*
X48883333Y7384300D01*
X48907143Y7360490D01*
X48930952Y7312871D01*
X48930952Y7289062D01*
X48907143Y7241443D01*
X48883333Y7217633D01*
X48835714Y7193824D01*
X48740476Y7193824D01*
X48692857Y7170014D01*
X48669048Y7146205D01*
X48645238Y7098586D01*
X48645238Y7003348D01*
X48669048Y6955729D01*
X48692857Y6931919D01*
X48740476Y6908110D01*
X48835714Y6908110D01*
X48883333Y6931919D01*
X48907143Y6955729D01*
X48930952Y7003348D01*
X48930952Y7098586D01*
X48907143Y7146205D01*
X48883333Y7170014D01*
X48835714Y7193824D01*
X57692858Y6908110D02*
X57692858Y7408110D01*
X57811905Y7408110D01*
X57883334Y7384300D01*
X57930953Y7336681D01*
X57954762Y7289062D01*
X57978572Y7193824D01*
X57978572Y7122395D01*
X57954762Y7027157D01*
X57930953Y6979538D01*
X57883334Y6931919D01*
X57811905Y6908110D01*
X57692858Y6908110D01*
X58454762Y6908110D02*
X58169048Y6908110D01*
X58311905Y6908110D02*
X58311905Y7408110D01*
X58264286Y7336681D01*
X58216667Y7289062D01*
X58169048Y7265252D01*
X58692857Y6908110D02*
X58788095Y6908110D01*
X58835714Y6931919D01*
X58859524Y6955729D01*
X58907143Y7027157D01*
X58930952Y7122395D01*
X58930952Y7312871D01*
X58907143Y7360490D01*
X58883333Y7384300D01*
X58835714Y7408110D01*
X58740476Y7408110D01*
X58692857Y7384300D01*
X58669048Y7360490D01*
X58645238Y7312871D01*
X58645238Y7193824D01*
X58669048Y7146205D01*
X58692857Y7122395D01*
X58740476Y7098586D01*
X58835714Y7098586D01*
X58883333Y7122395D01*
X58907143Y7146205D01*
X58930952Y7193824D01*
X67692858Y6377810D02*
X67692858Y6877810D01*
X67811905Y6877810D01*
X67883334Y6854000D01*
X67930953Y6806381D01*
X67954762Y6758762D01*
X67978572Y6663524D01*
X67978572Y6592095D01*
X67954762Y6496857D01*
X67930953Y6449238D01*
X67883334Y6401619D01*
X67811905Y6377810D01*
X67692858Y6377810D01*
X68169048Y6830190D02*
X68192858Y6854000D01*
X68240477Y6877810D01*
X68359524Y6877810D01*
X68407143Y6854000D01*
X68430953Y6830190D01*
X68454762Y6782571D01*
X68454762Y6734952D01*
X68430953Y6663524D01*
X68145239Y6377810D01*
X68454762Y6377810D01*
X68764286Y6877810D02*
X68811905Y6877810D01*
X68859524Y6854000D01*
X68883333Y6830190D01*
X68907143Y6782571D01*
X68930952Y6687333D01*
X68930952Y6568286D01*
X68907143Y6473048D01*
X68883333Y6425429D01*
X68859524Y6401619D01*
X68811905Y6377810D01*
X68764286Y6377810D01*
X68716667Y6401619D01*
X68692857Y6425429D01*
X68669048Y6473048D01*
X68645238Y6568286D01*
X68645238Y6687333D01*
X68669048Y6782571D01*
X68692857Y6830190D01*
X68716667Y6854000D01*
X68764286Y6877810D01*
X77692858Y6908110D02*
X77692858Y7408110D01*
X77811905Y7408110D01*
X77883334Y7384300D01*
X77930953Y7336681D01*
X77954762Y7289062D01*
X77978572Y7193824D01*
X77978572Y7122395D01*
X77954762Y7027157D01*
X77930953Y6979538D01*
X77883334Y6931919D01*
X77811905Y6908110D01*
X77692858Y6908110D01*
X78169048Y7360490D02*
X78192858Y7384300D01*
X78240477Y7408110D01*
X78359524Y7408110D01*
X78407143Y7384300D01*
X78430953Y7360490D01*
X78454762Y7312871D01*
X78454762Y7265252D01*
X78430953Y7193824D01*
X78145239Y6908110D01*
X78454762Y6908110D01*
X78930952Y6908110D02*
X78645238Y6908110D01*
X78788095Y6908110D02*
X78788095Y7408110D01*
X78740476Y7336681D01*
X78692857Y7289062D01*
X78645238Y7265252D01*
X87692858Y6908110D02*
X87692858Y7408110D01*
X87811905Y7408110D01*
X87883334Y7384300D01*
X87930953Y7336681D01*
X87954762Y7289062D01*
X87978572Y7193824D01*
X87978572Y7122395D01*
X87954762Y7027157D01*
X87930953Y6979538D01*
X87883334Y6931919D01*
X87811905Y6908110D01*
X87692858Y6908110D01*
X88169048Y7360490D02*
X88192858Y7384300D01*
X88240477Y7408110D01*
X88359524Y7408110D01*
X88407143Y7384300D01*
X88430953Y7360490D01*
X88454762Y7312871D01*
X88454762Y7265252D01*
X88430953Y7193824D01*
X88145239Y6908110D01*
X88454762Y6908110D01*
X88645238Y7360490D02*
X88669048Y7384300D01*
X88716667Y7408110D01*
X88835714Y7408110D01*
X88883333Y7384300D01*
X88907143Y7360490D01*
X88930952Y7312871D01*
X88930952Y7265252D01*
X88907143Y7193824D01*
X88621429Y6908110D01*
X88930952Y6908110D01*
X97692858Y6908110D02*
X97692858Y7408110D01*
X97811905Y7408110D01*
X97883334Y7384300D01*
X97930953Y7336681D01*
X97954762Y7289062D01*
X97978572Y7193824D01*
X97978572Y7122395D01*
X97954762Y7027157D01*
X97930953Y6979538D01*
X97883334Y6931919D01*
X97811905Y6908110D01*
X97692858Y6908110D01*
X98169048Y7360490D02*
X98192858Y7384300D01*
X98240477Y7408110D01*
X98359524Y7408110D01*
X98407143Y7384300D01*
X98430953Y7360490D01*
X98454762Y7312871D01*
X98454762Y7265252D01*
X98430953Y7193824D01*
X98145239Y6908110D01*
X98454762Y6908110D01*
X98621429Y7408110D02*
X98930952Y7408110D01*
X98764286Y7217633D01*
X98835714Y7217633D01*
X98883333Y7193824D01*
X98907143Y7170014D01*
X98930952Y7122395D01*
X98930952Y7003348D01*
X98907143Y6955729D01*
X98883333Y6931919D01*
X98835714Y6908110D01*
X98692857Y6908110D01*
X98645238Y6931919D01*
X98621429Y6955729D01*
X107692858Y6377810D02*
X107692858Y6877810D01*
X107811905Y6877810D01*
X107883334Y6854000D01*
X107930953Y6806381D01*
X107954762Y6758762D01*
X107978572Y6663524D01*
X107978572Y6592095D01*
X107954762Y6496857D01*
X107930953Y6449238D01*
X107883334Y6401619D01*
X107811905Y6377810D01*
X107692858Y6377810D01*
X108169048Y6830190D02*
X108192858Y6854000D01*
X108240477Y6877810D01*
X108359524Y6877810D01*
X108407143Y6854000D01*
X108430953Y6830190D01*
X108454762Y6782571D01*
X108454762Y6734952D01*
X108430953Y6663524D01*
X108145239Y6377810D01*
X108454762Y6377810D01*
X108883333Y6711143D02*
X108883333Y6377810D01*
X108764286Y6901619D02*
X108645238Y6544476D01*
X108954762Y6544476D01*
X117692858Y6908110D02*
X117692858Y7408110D01*
X117811905Y7408110D01*
X117883334Y7384300D01*
X117930953Y7336681D01*
X117954762Y7289062D01*
X117978572Y7193824D01*
X117978572Y7122395D01*
X117954762Y7027157D01*
X117930953Y6979538D01*
X117883334Y6931919D01*
X117811905Y6908110D01*
X117692858Y6908110D01*
X118169048Y7360490D02*
X118192858Y7384300D01*
X118240477Y7408110D01*
X118359524Y7408110D01*
X118407143Y7384300D01*
X118430953Y7360490D01*
X118454762Y7312871D01*
X118454762Y7265252D01*
X118430953Y7193824D01*
X118145239Y6908110D01*
X118454762Y6908110D01*
X118907143Y7408110D02*
X118669048Y7408110D01*
X118645238Y7170014D01*
X118669048Y7193824D01*
X118716667Y7217633D01*
X118835714Y7217633D01*
X118883333Y7193824D01*
X118907143Y7170014D01*
X118930952Y7122395D01*
X118930952Y7003348D01*
X118907143Y6955729D01*
X118883333Y6931919D01*
X118835714Y6908110D01*
X118716667Y6908110D01*
X118669048Y6931919D01*
X118645238Y6955729D01*
X127692858Y6908110D02*
X127692858Y7408110D01*
X127811905Y7408110D01*
X127883334Y7384300D01*
X127930953Y7336681D01*
X127954762Y7289062D01*
X127978572Y7193824D01*
X127978572Y7122395D01*
X127954762Y7027157D01*
X127930953Y6979538D01*
X127883334Y6931919D01*
X127811905Y6908110D01*
X127692858Y6908110D01*
X128169048Y7360490D02*
X128192858Y7384300D01*
X128240477Y7408110D01*
X128359524Y7408110D01*
X128407143Y7384300D01*
X128430953Y7360490D01*
X128454762Y7312871D01*
X128454762Y7265252D01*
X128430953Y7193824D01*
X128145239Y6908110D01*
X128454762Y6908110D01*
X128883333Y7408110D02*
X128788095Y7408110D01*
X128740476Y7384300D01*
X128716667Y7360490D01*
X128669048Y7289062D01*
X128645238Y7193824D01*
X128645238Y7003348D01*
X128669048Y6955729D01*
X128692857Y6931919D01*
X128740476Y6908110D01*
X128835714Y6908110D01*
X128883333Y6931919D01*
X128907143Y6955729D01*
X128930952Y7003348D01*
X128930952Y7122395D01*
X128907143Y7170014D01*
X128883333Y7193824D01*
X128835714Y7217633D01*
X128740476Y7217633D01*
X128692857Y7193824D01*
X128669048Y7170014D01*
X128645238Y7122395D01*
X137692858Y6908110D02*
X137692858Y7408110D01*
X137811905Y7408110D01*
X137883334Y7384300D01*
X137930953Y7336681D01*
X137954762Y7289062D01*
X137978572Y7193824D01*
X137978572Y7122395D01*
X137954762Y7027157D01*
X137930953Y6979538D01*
X137883334Y6931919D01*
X137811905Y6908110D01*
X137692858Y6908110D01*
X138169048Y7360490D02*
X138192858Y7384300D01*
X138240477Y7408110D01*
X138359524Y7408110D01*
X138407143Y7384300D01*
X138430953Y7360490D01*
X138454762Y7312871D01*
X138454762Y7265252D01*
X138430953Y7193824D01*
X138145239Y6908110D01*
X138454762Y6908110D01*
X138621429Y7408110D02*
X138954762Y7408110D01*
X138740476Y6908110D01*
X147692858Y6377810D02*
X147692858Y6877810D01*
X147811905Y6877810D01*
X147883334Y6854000D01*
X147930953Y6806381D01*
X147954762Y6758762D01*
X147978572Y6663524D01*
X147978572Y6592095D01*
X147954762Y6496857D01*
X147930953Y6449238D01*
X147883334Y6401619D01*
X147811905Y6377810D01*
X147692858Y6377810D01*
X148169048Y6830190D02*
X148192858Y6854000D01*
X148240477Y6877810D01*
X148359524Y6877810D01*
X148407143Y6854000D01*
X148430953Y6830190D01*
X148454762Y6782571D01*
X148454762Y6734952D01*
X148430953Y6663524D01*
X148145239Y6377810D01*
X148454762Y6377810D01*
X148740476Y6663524D02*
X148692857Y6687333D01*
X148669048Y6711143D01*
X148645238Y6758762D01*
X148645238Y6782571D01*
X148669048Y6830190D01*
X148692857Y6854000D01*
X148740476Y6877810D01*
X148835714Y6877810D01*
X148883333Y6854000D01*
X148907143Y6830190D01*
X148930952Y6782571D01*
X148930952Y6758762D01*
X148907143Y6711143D01*
X148883333Y6687333D01*
X148835714Y6663524D01*
X148740476Y6663524D01*
X148692857Y6639714D01*
X148669048Y6615905D01*
X148645238Y6568286D01*
X148645238Y6473048D01*
X148669048Y6425429D01*
X148692857Y6401619D01*
X148740476Y6377810D01*
X148835714Y6377810D01*
X148883333Y6401619D01*
X148907143Y6425429D01*
X148930952Y6473048D01*
X148930952Y6568286D01*
X148907143Y6615905D01*
X148883333Y6639714D01*
X148835714Y6663524D01*
X157692858Y6908110D02*
X157692858Y7408110D01*
X157811905Y7408110D01*
X157883334Y7384300D01*
X157930953Y7336681D01*
X157954762Y7289062D01*
X157978572Y7193824D01*
X157978572Y7122395D01*
X157954762Y7027157D01*
X157930953Y6979538D01*
X157883334Y6931919D01*
X157811905Y6908110D01*
X157692858Y6908110D01*
X158169048Y7360490D02*
X158192858Y7384300D01*
X158240477Y7408110D01*
X158359524Y7408110D01*
X158407143Y7384300D01*
X158430953Y7360490D01*
X158454762Y7312871D01*
X158454762Y7265252D01*
X158430953Y7193824D01*
X158145239Y6908110D01*
X158454762Y6908110D01*
X158692857Y6908110D02*
X158788095Y6908110D01*
X158835714Y6931919D01*
X158859524Y6955729D01*
X158907143Y7027157D01*
X158930952Y7122395D01*
X158930952Y7312871D01*
X158907143Y7360490D01*
X158883333Y7384300D01*
X158835714Y7408110D01*
X158740476Y7408110D01*
X158692857Y7384300D01*
X158669048Y7360490D01*
X158645238Y7312871D01*
X158645238Y7193824D01*
X158669048Y7146205D01*
X158692857Y7122395D01*
X158740476Y7098586D01*
X158835714Y7098586D01*
X158883333Y7122395D01*
X158907143Y7146205D01*
X158930952Y7193824D01*
X167692858Y6908110D02*
X167692858Y7408110D01*
X167811905Y7408110D01*
X167883334Y7384300D01*
X167930953Y7336681D01*
X167954762Y7289062D01*
X167978572Y7193824D01*
X167978572Y7122395D01*
X167954762Y7027157D01*
X167930953Y6979538D01*
X167883334Y6931919D01*
X167811905Y6908110D01*
X167692858Y6908110D01*
X168145239Y7408110D02*
X168454762Y7408110D01*
X168288096Y7217633D01*
X168359524Y7217633D01*
X168407143Y7193824D01*
X168430953Y7170014D01*
X168454762Y7122395D01*
X168454762Y7003348D01*
X168430953Y6955729D01*
X168407143Y6931919D01*
X168359524Y6908110D01*
X168216667Y6908110D01*
X168169048Y6931919D01*
X168145239Y6955729D01*
X168764286Y7408110D02*
X168811905Y7408110D01*
X168859524Y7384300D01*
X168883333Y7360490D01*
X168907143Y7312871D01*
X168930952Y7217633D01*
X168930952Y7098586D01*
X168907143Y7003348D01*
X168883333Y6955729D01*
X168859524Y6931919D01*
X168811905Y6908110D01*
X168764286Y6908110D01*
X168716667Y6931919D01*
X168692857Y6955729D01*
X168669048Y7003348D01*
X168645238Y7098586D01*
X168645238Y7217633D01*
X168669048Y7312871D01*
X168692857Y7360490D01*
X168716667Y7384300D01*
X168764286Y7408110D01*
X177692858Y6908110D02*
X177692858Y7408110D01*
X177811905Y7408110D01*
X177883334Y7384300D01*
X177930953Y7336681D01*
X177954762Y7289062D01*
X177978572Y7193824D01*
X177978572Y7122395D01*
X177954762Y7027157D01*
X177930953Y6979538D01*
X177883334Y6931919D01*
X177811905Y6908110D01*
X177692858Y6908110D01*
X178145239Y7408110D02*
X178454762Y7408110D01*
X178288096Y7217633D01*
X178359524Y7217633D01*
X178407143Y7193824D01*
X178430953Y7170014D01*
X178454762Y7122395D01*
X178454762Y7003348D01*
X178430953Y6955729D01*
X178407143Y6931919D01*
X178359524Y6908110D01*
X178216667Y6908110D01*
X178169048Y6931919D01*
X178145239Y6955729D01*
X178930952Y6908110D02*
X178645238Y6908110D01*
X178788095Y6908110D02*
X178788095Y7408110D01*
X178740476Y7336681D01*
X178692857Y7289062D01*
X178645238Y7265252D01*
X29680953Y6898710D02*
X29680953Y6493948D01*
X29704762Y6446329D01*
X29728572Y6422519D01*
X29776191Y6398710D01*
X29871429Y6398710D01*
X29919048Y6422519D01*
X29942857Y6446329D01*
X29966667Y6493948D01*
X29966667Y6898710D01*
X30466667Y6398710D02*
X30180953Y6398710D01*
X30323810Y6398710D02*
X30323810Y6898710D01*
X30276191Y6827281D01*
X30228572Y6779662D01*
X30180953Y6755852D01*
X30895238Y6898710D02*
X30800000Y6898710D01*
X30752381Y6874900D01*
X30728572Y6851090D01*
X30680953Y6779662D01*
X30657143Y6684424D01*
X30657143Y6493948D01*
X30680953Y6446329D01*
X30704762Y6422519D01*
X30752381Y6398710D01*
X30847619Y6398710D01*
X30895238Y6422519D01*
X30919048Y6446329D01*
X30942857Y6493948D01*
X30942857Y6612995D01*
X30919048Y6660614D01*
X30895238Y6684424D01*
X30847619Y6708233D01*
X30752381Y6708233D01*
X30704762Y6684424D01*
X30680953Y6660614D01*
X30657143Y6612995D01*
X39680953Y6898710D02*
X39680953Y6493948D01*
X39704762Y6446329D01*
X39728572Y6422519D01*
X39776191Y6398710D01*
X39871429Y6398710D01*
X39919048Y6422519D01*
X39942857Y6446329D01*
X39966667Y6493948D01*
X39966667Y6898710D01*
X40466667Y6398710D02*
X40180953Y6398710D01*
X40323810Y6398710D02*
X40323810Y6898710D01*
X40276191Y6827281D01*
X40228572Y6779662D01*
X40180953Y6755852D01*
X40633334Y6898710D02*
X40966667Y6898710D01*
X40752381Y6398710D01*
X49680953Y6898710D02*
X49680953Y6493948D01*
X49704762Y6446329D01*
X49728572Y6422519D01*
X49776191Y6398710D01*
X49871429Y6398710D01*
X49919048Y6422519D01*
X49942857Y6446329D01*
X49966667Y6493948D01*
X49966667Y6898710D01*
X50466667Y6398710D02*
X50180953Y6398710D01*
X50323810Y6398710D02*
X50323810Y6898710D01*
X50276191Y6827281D01*
X50228572Y6779662D01*
X50180953Y6755852D01*
X50752381Y6684424D02*
X50704762Y6708233D01*
X50680953Y6732043D01*
X50657143Y6779662D01*
X50657143Y6803471D01*
X50680953Y6851090D01*
X50704762Y6874900D01*
X50752381Y6898710D01*
X50847619Y6898710D01*
X50895238Y6874900D01*
X50919048Y6851090D01*
X50942857Y6803471D01*
X50942857Y6779662D01*
X50919048Y6732043D01*
X50895238Y6708233D01*
X50847619Y6684424D01*
X50752381Y6684424D01*
X50704762Y6660614D01*
X50680953Y6636805D01*
X50657143Y6589186D01*
X50657143Y6493948D01*
X50680953Y6446329D01*
X50704762Y6422519D01*
X50752381Y6398710D01*
X50847619Y6398710D01*
X50895238Y6422519D01*
X50919048Y6446329D01*
X50942857Y6493948D01*
X50942857Y6589186D01*
X50919048Y6636805D01*
X50895238Y6660614D01*
X50847619Y6684424D01*
X59680953Y6898710D02*
X59680953Y6493948D01*
X59704762Y6446329D01*
X59728572Y6422519D01*
X59776191Y6398710D01*
X59871429Y6398710D01*
X59919048Y6422519D01*
X59942857Y6446329D01*
X59966667Y6493948D01*
X59966667Y6898710D01*
X60466667Y6398710D02*
X60180953Y6398710D01*
X60323810Y6398710D02*
X60323810Y6898710D01*
X60276191Y6827281D01*
X60228572Y6779662D01*
X60180953Y6755852D01*
X60704762Y6398710D02*
X60800000Y6398710D01*
X60847619Y6422519D01*
X60871429Y6446329D01*
X60919048Y6517757D01*
X60942857Y6612995D01*
X60942857Y6803471D01*
X60919048Y6851090D01*
X60895238Y6874900D01*
X60847619Y6898710D01*
X60752381Y6898710D01*
X60704762Y6874900D01*
X60680953Y6851090D01*
X60657143Y6803471D01*
X60657143Y6684424D01*
X60680953Y6636805D01*
X60704762Y6612995D01*
X60752381Y6589186D01*
X60847619Y6589186D01*
X60895238Y6612995D01*
X60919048Y6636805D01*
X60942857Y6684424D01*
X69680953Y6898710D02*
X69680953Y6493948D01*
X69704762Y6446329D01*
X69728572Y6422519D01*
X69776191Y6398710D01*
X69871429Y6398710D01*
X69919048Y6422519D01*
X69942857Y6446329D01*
X69966667Y6493948D01*
X69966667Y6898710D01*
X70180953Y6851090D02*
X70204763Y6874900D01*
X70252382Y6898710D01*
X70371429Y6898710D01*
X70419048Y6874900D01*
X70442858Y6851090D01*
X70466667Y6803471D01*
X70466667Y6755852D01*
X70442858Y6684424D01*
X70157144Y6398710D01*
X70466667Y6398710D01*
X70776191Y6898710D02*
X70823810Y6898710D01*
X70871429Y6874900D01*
X70895238Y6851090D01*
X70919048Y6803471D01*
X70942857Y6708233D01*
X70942857Y6589186D01*
X70919048Y6493948D01*
X70895238Y6446329D01*
X70871429Y6422519D01*
X70823810Y6398710D01*
X70776191Y6398710D01*
X70728572Y6422519D01*
X70704762Y6446329D01*
X70680953Y6493948D01*
X70657143Y6589186D01*
X70657143Y6708233D01*
X70680953Y6803471D01*
X70704762Y6851090D01*
X70728572Y6874900D01*
X70776191Y6898710D01*
X79680953Y6898710D02*
X79680953Y6493948D01*
X79704762Y6446329D01*
X79728572Y6422519D01*
X79776191Y6398710D01*
X79871429Y6398710D01*
X79919048Y6422519D01*
X79942857Y6446329D01*
X79966667Y6493948D01*
X79966667Y6898710D01*
X80180953Y6851090D02*
X80204763Y6874900D01*
X80252382Y6898710D01*
X80371429Y6898710D01*
X80419048Y6874900D01*
X80442858Y6851090D01*
X80466667Y6803471D01*
X80466667Y6755852D01*
X80442858Y6684424D01*
X80157144Y6398710D01*
X80466667Y6398710D01*
X80942857Y6398710D02*
X80657143Y6398710D01*
X80800000Y6398710D02*
X80800000Y6898710D01*
X80752381Y6827281D01*
X80704762Y6779662D01*
X80657143Y6755852D01*
X89680953Y6898710D02*
X89680953Y6493948D01*
X89704762Y6446329D01*
X89728572Y6422519D01*
X89776191Y6398710D01*
X89871429Y6398710D01*
X89919048Y6422519D01*
X89942857Y6446329D01*
X89966667Y6493948D01*
X89966667Y6898710D01*
X90180953Y6851090D02*
X90204763Y6874900D01*
X90252382Y6898710D01*
X90371429Y6898710D01*
X90419048Y6874900D01*
X90442858Y6851090D01*
X90466667Y6803471D01*
X90466667Y6755852D01*
X90442858Y6684424D01*
X90157144Y6398710D01*
X90466667Y6398710D01*
X90657143Y6851090D02*
X90680953Y6874900D01*
X90728572Y6898710D01*
X90847619Y6898710D01*
X90895238Y6874900D01*
X90919048Y6851090D01*
X90942857Y6803471D01*
X90942857Y6755852D01*
X90919048Y6684424D01*
X90633334Y6398710D01*
X90942857Y6398710D01*
X99680953Y6898710D02*
X99680953Y6493948D01*
X99704762Y6446329D01*
X99728572Y6422519D01*
X99776191Y6398710D01*
X99871429Y6398710D01*
X99919048Y6422519D01*
X99942857Y6446329D01*
X99966667Y6493948D01*
X99966667Y6898710D01*
X100180953Y6851090D02*
X100204763Y6874900D01*
X100252382Y6898710D01*
X100371429Y6898710D01*
X100419048Y6874900D01*
X100442858Y6851090D01*
X100466667Y6803471D01*
X100466667Y6755852D01*
X100442858Y6684424D01*
X100157144Y6398710D01*
X100466667Y6398710D01*
X100633334Y6898710D02*
X100942857Y6898710D01*
X100776191Y6708233D01*
X100847619Y6708233D01*
X100895238Y6684424D01*
X100919048Y6660614D01*
X100942857Y6612995D01*
X100942857Y6493948D01*
X100919048Y6446329D01*
X100895238Y6422519D01*
X100847619Y6398710D01*
X100704762Y6398710D01*
X100657143Y6422519D01*
X100633334Y6446329D01*
X109680953Y6898710D02*
X109680953Y6493948D01*
X109704762Y6446329D01*
X109728572Y6422519D01*
X109776191Y6398710D01*
X109871429Y6398710D01*
X109919048Y6422519D01*
X109942857Y6446329D01*
X109966667Y6493948D01*
X109966667Y6898710D01*
X110180953Y6851090D02*
X110204763Y6874900D01*
X110252382Y6898710D01*
X110371429Y6898710D01*
X110419048Y6874900D01*
X110442858Y6851090D01*
X110466667Y6803471D01*
X110466667Y6755852D01*
X110442858Y6684424D01*
X110157144Y6398710D01*
X110466667Y6398710D01*
X110895238Y6732043D02*
X110895238Y6398710D01*
X110776191Y6922519D02*
X110657143Y6565376D01*
X110966667Y6565376D01*
X119680953Y6898710D02*
X119680953Y6493948D01*
X119704762Y6446329D01*
X119728572Y6422519D01*
X119776191Y6398710D01*
X119871429Y6398710D01*
X119919048Y6422519D01*
X119942857Y6446329D01*
X119966667Y6493948D01*
X119966667Y6898710D01*
X120180953Y6851090D02*
X120204763Y6874900D01*
X120252382Y6898710D01*
X120371429Y6898710D01*
X120419048Y6874900D01*
X120442858Y6851090D01*
X120466667Y6803471D01*
X120466667Y6755852D01*
X120442858Y6684424D01*
X120157144Y6398710D01*
X120466667Y6398710D01*
X120919048Y6898710D02*
X120680953Y6898710D01*
X120657143Y6660614D01*
X120680953Y6684424D01*
X120728572Y6708233D01*
X120847619Y6708233D01*
X120895238Y6684424D01*
X120919048Y6660614D01*
X120942857Y6612995D01*
X120942857Y6493948D01*
X120919048Y6446329D01*
X120895238Y6422519D01*
X120847619Y6398710D01*
X120728572Y6398710D01*
X120680953Y6422519D01*
X120657143Y6446329D01*
X129680953Y6898710D02*
X129680953Y6493948D01*
X129704762Y6446329D01*
X129728572Y6422519D01*
X129776191Y6398710D01*
X129871429Y6398710D01*
X129919048Y6422519D01*
X129942857Y6446329D01*
X129966667Y6493948D01*
X129966667Y6898710D01*
X130180953Y6851090D02*
X130204763Y6874900D01*
X130252382Y6898710D01*
X130371429Y6898710D01*
X130419048Y6874900D01*
X130442858Y6851090D01*
X130466667Y6803471D01*
X130466667Y6755852D01*
X130442858Y6684424D01*
X130157144Y6398710D01*
X130466667Y6398710D01*
X130895238Y6898710D02*
X130800000Y6898710D01*
X130752381Y6874900D01*
X130728572Y6851090D01*
X130680953Y6779662D01*
X130657143Y6684424D01*
X130657143Y6493948D01*
X130680953Y6446329D01*
X130704762Y6422519D01*
X130752381Y6398710D01*
X130847619Y6398710D01*
X130895238Y6422519D01*
X130919048Y6446329D01*
X130942857Y6493948D01*
X130942857Y6612995D01*
X130919048Y6660614D01*
X130895238Y6684424D01*
X130847619Y6708233D01*
X130752381Y6708233D01*
X130704762Y6684424D01*
X130680953Y6660614D01*
X130657143Y6612995D01*
X139680953Y6898710D02*
X139680953Y6493948D01*
X139704762Y6446329D01*
X139728572Y6422519D01*
X139776191Y6398710D01*
X139871429Y6398710D01*
X139919048Y6422519D01*
X139942857Y6446329D01*
X139966667Y6493948D01*
X139966667Y6898710D01*
X140180953Y6851090D02*
X140204763Y6874900D01*
X140252382Y6898710D01*
X140371429Y6898710D01*
X140419048Y6874900D01*
X140442858Y6851090D01*
X140466667Y6803471D01*
X140466667Y6755852D01*
X140442858Y6684424D01*
X140157144Y6398710D01*
X140466667Y6398710D01*
X140633334Y6898710D02*
X140966667Y6898710D01*
X140752381Y6398710D01*
X149680953Y6898710D02*
X149680953Y6493948D01*
X149704762Y6446329D01*
X149728572Y6422519D01*
X149776191Y6398710D01*
X149871429Y6398710D01*
X149919048Y6422519D01*
X149942857Y6446329D01*
X149966667Y6493948D01*
X149966667Y6898710D01*
X150180953Y6851090D02*
X150204763Y6874900D01*
X150252382Y6898710D01*
X150371429Y6898710D01*
X150419048Y6874900D01*
X150442858Y6851090D01*
X150466667Y6803471D01*
X150466667Y6755852D01*
X150442858Y6684424D01*
X150157144Y6398710D01*
X150466667Y6398710D01*
X150752381Y6684424D02*
X150704762Y6708233D01*
X150680953Y6732043D01*
X150657143Y6779662D01*
X150657143Y6803471D01*
X150680953Y6851090D01*
X150704762Y6874900D01*
X150752381Y6898710D01*
X150847619Y6898710D01*
X150895238Y6874900D01*
X150919048Y6851090D01*
X150942857Y6803471D01*
X150942857Y6779662D01*
X150919048Y6732043D01*
X150895238Y6708233D01*
X150847619Y6684424D01*
X150752381Y6684424D01*
X150704762Y6660614D01*
X150680953Y6636805D01*
X150657143Y6589186D01*
X150657143Y6493948D01*
X150680953Y6446329D01*
X150704762Y6422519D01*
X150752381Y6398710D01*
X150847619Y6398710D01*
X150895238Y6422519D01*
X150919048Y6446329D01*
X150942857Y6493948D01*
X150942857Y6589186D01*
X150919048Y6636805D01*
X150895238Y6660614D01*
X150847619Y6684424D01*
X169680953Y6898710D02*
X169680953Y6493948D01*
X169704762Y6446329D01*
X169728572Y6422519D01*
X169776191Y6398710D01*
X169871429Y6398710D01*
X169919048Y6422519D01*
X169942857Y6446329D01*
X169966667Y6493948D01*
X169966667Y6898710D01*
X170157144Y6898710D02*
X170466667Y6898710D01*
X170300001Y6708233D01*
X170371429Y6708233D01*
X170419048Y6684424D01*
X170442858Y6660614D01*
X170466667Y6612995D01*
X170466667Y6493948D01*
X170442858Y6446329D01*
X170419048Y6422519D01*
X170371429Y6398710D01*
X170228572Y6398710D01*
X170180953Y6422519D01*
X170157144Y6446329D01*
X170776191Y6898710D02*
X170823810Y6898710D01*
X170871429Y6874900D01*
X170895238Y6851090D01*
X170919048Y6803471D01*
X170942857Y6708233D01*
X170942857Y6589186D01*
X170919048Y6493948D01*
X170895238Y6446329D01*
X170871429Y6422519D01*
X170823810Y6398710D01*
X170776191Y6398710D01*
X170728572Y6422519D01*
X170704762Y6446329D01*
X170680953Y6493948D01*
X170657143Y6589186D01*
X170657143Y6708233D01*
X170680953Y6803471D01*
X170704762Y6851090D01*
X170728572Y6874900D01*
X170776191Y6898710D01*
X179680953Y6898710D02*
X179680953Y6493948D01*
X179704762Y6446329D01*
X179728572Y6422519D01*
X179776191Y6398710D01*
X179871429Y6398710D01*
X179919048Y6422519D01*
X179942857Y6446329D01*
X179966667Y6493948D01*
X179966667Y6898710D01*
X180157144Y6898710D02*
X180466667Y6898710D01*
X180300001Y6708233D01*
X180371429Y6708233D01*
X180419048Y6684424D01*
X180442858Y6660614D01*
X180466667Y6612995D01*
X180466667Y6493948D01*
X180442858Y6446329D01*
X180419048Y6422519D01*
X180371429Y6398710D01*
X180228572Y6398710D01*
X180180953Y6422519D01*
X180157144Y6446329D01*
X180942857Y6398710D02*
X180657143Y6398710D01*
X180800000Y6398710D02*
X180800000Y6898710D01*
X180752381Y6827281D01*
X180704762Y6779662D01*
X180657143Y6755852D01*
X14509525Y7549929D02*
X14485715Y7526119D01*
X14414287Y7502310D01*
X14366668Y7502310D01*
X14295239Y7526119D01*
X14247620Y7573738D01*
X14223811Y7621357D01*
X14200001Y7716595D01*
X14200001Y7788024D01*
X14223811Y7883262D01*
X14247620Y7930881D01*
X14295239Y7978500D01*
X14366668Y8002310D01*
X14414287Y8002310D01*
X14485715Y7978500D01*
X14509525Y7954690D01*
X14700001Y7526119D02*
X14771430Y7502310D01*
X14890477Y7502310D01*
X14938096Y7526119D01*
X14961906Y7549929D01*
X14985715Y7597548D01*
X14985715Y7645167D01*
X14961906Y7692786D01*
X14938096Y7716595D01*
X14890477Y7740405D01*
X14795239Y7764214D01*
X14747620Y7788024D01*
X14723811Y7811833D01*
X14700001Y7859452D01*
X14700001Y7907071D01*
X14723811Y7954690D01*
X14747620Y7978500D01*
X14795239Y8002310D01*
X14914287Y8002310D01*
X14985715Y7978500D01*
X15080953Y7454690D02*
X15461905Y7454690D01*
X15819048Y7502310D02*
X15580953Y7502310D01*
X15580953Y8002310D01*
X15985715Y7764214D02*
X16152381Y7764214D01*
X16223810Y7502310D02*
X15985715Y7502310D01*
X15985715Y8002310D01*
X16223810Y8002310D01*
X16438096Y7502310D02*
X16438096Y8002310D01*
X16557143Y8002310D01*
X16628572Y7978500D01*
X16676191Y7930881D01*
X16700000Y7883262D01*
X16723810Y7788024D01*
X16723810Y7716595D01*
X16700000Y7621357D01*
X16676191Y7573738D01*
X16628572Y7526119D01*
X16557143Y7502310D01*
X16438096Y7502310D01*
X17200000Y7502310D02*
X16914286Y7502310D01*
X17057143Y7502310D02*
X17057143Y8002310D01*
X17009524Y7930881D01*
X16961905Y7883262D01*
X16914286Y7859452D01*
X11517144Y4946319D02*
X11588573Y4922510D01*
X11707620Y4922510D01*
X11755239Y4946319D01*
X11779049Y4970129D01*
X11802858Y5017748D01*
X11802858Y5065367D01*
X11779049Y5112986D01*
X11755239Y5136795D01*
X11707620Y5160605D01*
X11612382Y5184414D01*
X11564763Y5208224D01*
X11540954Y5232033D01*
X11517144Y5279652D01*
X11517144Y5327271D01*
X11540954Y5374890D01*
X11564763Y5398700D01*
X11612382Y5422510D01*
X11731430Y5422510D01*
X11802858Y5398700D01*
X12017144Y4922510D02*
X12017144Y5422510D01*
X12207620Y5422510D01*
X12255239Y5398700D01*
X12279048Y5374890D01*
X12302858Y5327271D01*
X12302858Y5255843D01*
X12279048Y5208224D01*
X12255239Y5184414D01*
X12207620Y5160605D01*
X12017144Y5160605D01*
X12517144Y4922510D02*
X12517144Y5422510D01*
X12636191Y4874890D02*
X13017143Y4874890D01*
X13421905Y4970129D02*
X13398095Y4946319D01*
X13326667Y4922510D01*
X13279048Y4922510D01*
X13207619Y4946319D01*
X13160000Y4993938D01*
X13136191Y5041557D01*
X13112381Y5136795D01*
X13112381Y5208224D01*
X13136191Y5303462D01*
X13160000Y5351081D01*
X13207619Y5398700D01*
X13279048Y5422510D01*
X13326667Y5422510D01*
X13398095Y5398700D01*
X13421905Y5374890D01*
X13874286Y4922510D02*
X13636191Y4922510D01*
X13636191Y5422510D01*
X14040953Y4922510D02*
X14040953Y5422510D01*
X14326667Y4922510D02*
X14112381Y5208224D01*
X14326667Y5422510D02*
X14040953Y5136795D01*
X14802857Y4922510D02*
X14517143Y4922510D01*
X14660000Y4922510D02*
X14660000Y5422510D01*
X14612381Y5351081D01*
X14564762Y5303462D01*
X14517143Y5279652D01*
D10*
X20832334Y7223143D02*
X20813286Y7204095D01*
X20756143Y7185048D01*
X20718048Y7185048D01*
X20660905Y7204095D01*
X20622810Y7242190D01*
X20603762Y7280286D01*
X20584714Y7356476D01*
X20584714Y7413619D01*
X20603762Y7489810D01*
X20622810Y7527905D01*
X20660905Y7566000D01*
X20718048Y7585048D01*
X20756143Y7585048D01*
X20813286Y7566000D01*
X20832334Y7546952D01*
X21232334Y7223143D02*
X21213286Y7204095D01*
X21156143Y7185048D01*
X21118048Y7185048D01*
X21060905Y7204095D01*
X21022810Y7242190D01*
X21003762Y7280286D01*
X20984714Y7356476D01*
X20984714Y7413619D01*
X21003762Y7489810D01*
X21022810Y7527905D01*
X21060905Y7566000D01*
X21118048Y7585048D01*
X21156143Y7585048D01*
X21213286Y7566000D01*
X21232334Y7546952D01*
X21479953Y7585048D02*
X21518048Y7585048D01*
X21556143Y7566000D01*
X21575191Y7546952D01*
X21594238Y7508857D01*
X21613286Y7432667D01*
X21613286Y7337429D01*
X21594238Y7261238D01*
X21575191Y7223143D01*
X21556143Y7204095D01*
X21518048Y7185048D01*
X21479953Y7185048D01*
X21441857Y7204095D01*
X21422810Y7223143D01*
X21403762Y7261238D01*
X21384714Y7337429D01*
X21384714Y7432667D01*
X21403762Y7508857D01*
X21422810Y7546952D01*
X21441857Y7566000D01*
X21479953Y7585048D01*
D15*
X16481001Y13301286D02*
X16459572Y13279857D01*
X16395286Y13258429D01*
X16352429Y13258429D01*
X16288144Y13279857D01*
X16245286Y13322714D01*
X16223858Y13365571D01*
X16202429Y13451286D01*
X16202429Y13515571D01*
X16223858Y13601286D01*
X16245286Y13644143D01*
X16288144Y13687000D01*
X16352429Y13708429D01*
X16395286Y13708429D01*
X16459572Y13687000D01*
X16481001Y13665571D01*
X16673858Y13258429D02*
X16673858Y13708429D01*
X16781001Y13708429D01*
X16845286Y13687000D01*
X16888144Y13644143D01*
X16909572Y13601286D01*
X16931001Y13515571D01*
X16931001Y13451286D01*
X16909572Y13365571D01*
X16888144Y13322714D01*
X16845286Y13279857D01*
X16781001Y13258429D01*
X16673858Y13258429D01*
X17209572Y13708429D02*
X17252429Y13708429D01*
X17295286Y13687000D01*
X17316715Y13665571D01*
X17338144Y13622714D01*
X17359572Y13537000D01*
X17359572Y13429857D01*
X17338144Y13344143D01*
X17316715Y13301286D01*
X17295286Y13279857D01*
X17252429Y13258429D01*
X17209572Y13258429D01*
X17166715Y13279857D01*
X17145286Y13301286D01*
X17123858Y13344143D01*
X17102429Y13429857D01*
X17102429Y13537000D01*
X17123858Y13622714D01*
X17145286Y13665571D01*
X17166715Y13687000D01*
X17209572Y13708429D01*
D13*
X17333667Y2597095D02*
X17333667Y1949476D01*
X17371762Y1873286D01*
X17409858Y1835190D01*
X17486048Y1797095D01*
X17638429Y1797095D01*
X17714620Y1835190D01*
X17752715Y1873286D01*
X17790810Y1949476D01*
X17790810Y2597095D01*
X18628905Y1873286D02*
X18590810Y1835190D01*
X18476524Y1797095D01*
X18400334Y1797095D01*
X18286048Y1835190D01*
X18209857Y1911381D01*
X18171762Y1987571D01*
X18133667Y2139952D01*
X18133667Y2254238D01*
X18171762Y2406619D01*
X18209857Y2482810D01*
X18286048Y2559000D01*
X18400334Y2597095D01*
X18476524Y2597095D01*
X18590810Y2559000D01*
X18628905Y2520905D01*
X19352715Y1797095D02*
X18971762Y1797095D01*
X18971762Y2597095D01*
X19619381Y1797095D02*
X19619381Y2597095D01*
X20076524Y1797095D02*
X19733667Y2254238D01*
X20076524Y2597095D02*
X19619381Y2139952D01*
X20571762Y2597095D02*
X20647953Y2597095D01*
X20724143Y2559000D01*
X20762238Y2520905D01*
X20800334Y2444714D01*
X20838429Y2292333D01*
X20838429Y2101857D01*
X20800334Y1949476D01*
X20762238Y1873286D01*
X20724143Y1835190D01*
X20647953Y1797095D01*
X20571762Y1797095D01*
X20495572Y1835190D01*
X20457476Y1873286D01*
X20419381Y1949476D01*
X20381286Y2101857D01*
X20381286Y2292333D01*
X20419381Y2444714D01*
X20457476Y2520905D01*
X20495572Y2559000D01*
X20571762Y2597095D01*
M02*
