G04 #@! TF.FileFunction,Soldermask,Top*
%FSLAX46Y46*%
G04 Gerber Fmt 4.6, Leading zero omitted, Abs format (unit mm)*
G04 Created by KiCad (PCBNEW 4.0.4-stable) date 03/31/17 15:09:42*
%MOMM*%
%LPD*%
G01*
G04 APERTURE LIST*
%ADD10C,0.100000*%
%ADD11C,2.540000*%
%ADD12C,1.727200*%
%ADD13R,1.469615X1.089615*%
%ADD14O,1.469615X1.089615*%
%ADD15C,1.200000*%
%ADD16R,1.050000X0.600000*%
%ADD17C,3.300000*%
%ADD18R,0.800000X0.750000*%
%ADD19C,1.000000*%
G04 APERTURE END LIST*
D10*
D11*
X196040000Y7737500D03*
D12*
X13160000Y2608700D03*
X13160000Y7688700D03*
D13*
X165400000Y5212400D03*
D14*
X161200000Y5212400D03*
D13*
X165400000Y3612400D03*
X161200000Y3612400D03*
X165400000Y2012400D03*
X161200000Y2012400D03*
X165400000Y13353100D03*
D14*
X161200000Y13353100D03*
D13*
X165400000Y11753100D03*
X161200000Y11753100D03*
X165400000Y10153100D03*
X161200000Y10153100D03*
X135400000Y13353100D03*
D14*
X131200000Y13353100D03*
D13*
X135400000Y11753100D03*
X131200000Y11753100D03*
X135400000Y10153100D03*
X131200000Y10153100D03*
X35400000Y13353100D03*
D14*
X31200000Y13353100D03*
D13*
X35400000Y11753100D03*
X31200000Y11753100D03*
X35400000Y10153100D03*
X31200000Y10153100D03*
D15*
X148300000Y7737400D03*
X68300000Y7737400D03*
X108300000Y7737400D03*
D16*
X20290000Y11832200D03*
X17590000Y11832200D03*
X17590000Y10882200D03*
X20290000Y9932200D03*
X17590000Y9932200D03*
D12*
X188468000Y8850200D03*
D17*
X3000000Y12768700D03*
X3000000Y2706200D03*
X196040000Y12768700D03*
D13*
X105400000Y13353100D03*
D14*
X101200000Y13353100D03*
D13*
X105400000Y11753100D03*
X101200000Y11753100D03*
X105400000Y10153100D03*
X101200000Y10153100D03*
X45400000Y13353100D03*
D14*
X41200000Y13353100D03*
D13*
X45400000Y11753100D03*
X41200000Y11753100D03*
X45400000Y10153100D03*
X41200000Y10153100D03*
D18*
X37550000Y9753100D03*
X39050000Y9753100D03*
X47550000Y9753100D03*
X49050000Y9753100D03*
X57550000Y9753100D03*
X59050000Y9753100D03*
X67550000Y9753100D03*
X69050000Y9753100D03*
X77550000Y9753100D03*
X79050000Y9753100D03*
X87550000Y9753100D03*
X89050000Y9753100D03*
X97550000Y9753100D03*
X99050000Y9753100D03*
X107550000Y9753100D03*
X109050000Y9753100D03*
D12*
X27130000Y14038700D03*
D13*
X55400000Y13353100D03*
D14*
X51200000Y13353100D03*
D13*
X55400000Y11753100D03*
X51200000Y11753100D03*
X55400000Y10153100D03*
X51200000Y10153100D03*
X65400000Y13353100D03*
D14*
X61200000Y13353100D03*
D13*
X65400000Y11753100D03*
X61200000Y11753100D03*
X65400000Y10153100D03*
X61200000Y10153100D03*
X75400000Y13353100D03*
D14*
X71200000Y13353100D03*
D13*
X75400000Y11753100D03*
X71200000Y11753100D03*
X75400000Y10153100D03*
X71200000Y10153100D03*
X85400000Y13353100D03*
D14*
X81200000Y13353100D03*
D13*
X85400000Y11753100D03*
X81200000Y11753100D03*
X85400000Y10153100D03*
X81200000Y10153100D03*
X95400000Y13353100D03*
D14*
X91200000Y13353100D03*
D13*
X95400000Y11753100D03*
X91200000Y11753100D03*
X95400000Y10153100D03*
X91200000Y10153100D03*
D18*
X117550000Y9753100D03*
X119050000Y9753100D03*
X127550000Y9753100D03*
X129050000Y9753100D03*
X137550000Y9753100D03*
X139050000Y9753100D03*
X147550000Y9753100D03*
X149050000Y9753100D03*
X157550000Y9753100D03*
X159050000Y9753100D03*
X167550000Y9753100D03*
X169050000Y9753100D03*
X177550000Y9753100D03*
X179050000Y9753100D03*
X183774000Y7620000D03*
X182274000Y7620000D03*
D13*
X115400000Y13353100D03*
D14*
X111200000Y13353100D03*
D13*
X115400000Y11753100D03*
X111200000Y11753100D03*
X115400000Y10153100D03*
X111200000Y10153100D03*
X125400000Y13353100D03*
D14*
X121200000Y13353100D03*
D13*
X125400000Y11753100D03*
X121200000Y11753100D03*
X125400000Y10153100D03*
X121200000Y10153100D03*
X145400000Y13353100D03*
D14*
X141200000Y13353100D03*
D13*
X145400000Y11753100D03*
X141200000Y11753100D03*
X145400000Y10153100D03*
X141200000Y10153100D03*
X155400000Y13353100D03*
D14*
X151200000Y13353100D03*
D13*
X155400000Y11753100D03*
X151200000Y11753100D03*
X155400000Y10153100D03*
X151200000Y10153100D03*
X175400000Y13353100D03*
D14*
X171200000Y13353100D03*
D13*
X175400000Y11753100D03*
X171200000Y11753100D03*
X175400000Y10153100D03*
X171200000Y10153100D03*
X185400000Y13353100D03*
D14*
X181200000Y13353100D03*
D13*
X185400000Y11753100D03*
X181200000Y11753100D03*
X185400000Y10153100D03*
X181200000Y10153100D03*
D19*
X38230000Y11753100D03*
X38300000Y13753100D03*
X48300000Y11753100D03*
X58300000Y11753100D03*
X68300000Y11753100D03*
X78300000Y11753100D03*
X88300000Y11753100D03*
X98300000Y11753100D03*
X108300000Y11753100D03*
X118300000Y11753100D03*
X128300000Y11753100D03*
X138300000Y11753100D03*
X148300000Y11753100D03*
X158300000Y11753100D03*
X168300000Y11753100D03*
X178300000Y11753100D03*
X48300000Y13753100D03*
X58300000Y13753100D03*
X68300000Y13753100D03*
X78300000Y13753100D03*
X88300000Y13753100D03*
X98300000Y13753100D03*
X108300000Y13753100D03*
X118300000Y13753100D03*
X128300000Y13753100D03*
X138300000Y13753100D03*
X148300000Y13753100D03*
X158300000Y13753100D03*
X168300000Y13753100D03*
X178300000Y13753100D03*
D17*
X196040000Y2706200D03*
D18*
X37550000Y2121800D03*
X39050000Y2121800D03*
X47550000Y2121800D03*
X49050000Y2121800D03*
X57550000Y2121800D03*
X59050000Y2121800D03*
X67550000Y2121800D03*
X69050000Y2121800D03*
X77550000Y2121800D03*
X79050000Y2121800D03*
X87550000Y2121800D03*
X89050000Y2121800D03*
X97550000Y2121800D03*
X99050000Y2121800D03*
X107550000Y1934300D03*
X109050000Y1934300D03*
X117550000Y2121800D03*
X119050000Y2121800D03*
X127550000Y2121800D03*
X129050000Y2121800D03*
X137550000Y2121800D03*
X139050000Y2121800D03*
X147550000Y2121800D03*
X149050000Y2121800D03*
X157550000Y2121800D03*
X159050000Y2121800D03*
X167550000Y2121800D03*
X169050000Y2121800D03*
X177550000Y2121800D03*
X179050000Y2121800D03*
D12*
X27130000Y6418700D03*
D19*
X38300000Y3721800D03*
X48300000Y3721800D03*
X58300000Y3721800D03*
X68300000Y3721800D03*
X78300000Y3721800D03*
X88300000Y3721800D03*
X98300000Y3721800D03*
X108300000Y3721800D03*
X118300000Y3721800D03*
X128300000Y3721800D03*
X138300000Y3721800D03*
X148300000Y3721800D03*
X158300000Y3721800D03*
X168300000Y3721800D03*
X178300000Y3721800D03*
D12*
X188468000Y6310200D03*
X27130000Y8958700D03*
D19*
X38300000Y5721800D03*
X48300000Y5721800D03*
X58300000Y5721800D03*
X68300000Y5721800D03*
X78300000Y5721800D03*
X88300000Y5721800D03*
X98300000Y5721800D03*
X108300000Y5721800D03*
X118300000Y5721800D03*
X128300000Y5721800D03*
X138300000Y5721800D03*
X148300000Y5721800D03*
X158300000Y5721800D03*
X168300000Y5721800D03*
X178300000Y5721800D03*
D13*
X35400000Y5212400D03*
D14*
X31200000Y5212400D03*
D13*
X35400000Y3612400D03*
X31200000Y3612400D03*
X35400000Y2012400D03*
X31200000Y2012400D03*
X45400000Y5212400D03*
D14*
X41200000Y5212400D03*
D13*
X45400000Y3612400D03*
X41200000Y3612400D03*
X45400000Y2012400D03*
X41200000Y2012400D03*
X55400000Y5212400D03*
D14*
X51200000Y5212400D03*
D13*
X55400000Y3612400D03*
X51200000Y3612400D03*
X55400000Y2012400D03*
X51200000Y2012400D03*
X65400000Y5212400D03*
D14*
X61200000Y5212400D03*
D13*
X65400000Y3612400D03*
X61200000Y3612400D03*
X65400000Y2012400D03*
X61200000Y2012400D03*
X75400000Y5212400D03*
D14*
X71200000Y5212400D03*
D13*
X75400000Y3612400D03*
X71200000Y3612400D03*
X75400000Y2012400D03*
X71200000Y2012400D03*
X85400000Y5212400D03*
D14*
X81200000Y5212400D03*
D13*
X85400000Y3612400D03*
X81200000Y3612400D03*
X85400000Y2012400D03*
X81200000Y2012400D03*
X95400000Y5212400D03*
D14*
X91200000Y5212400D03*
D13*
X95400000Y3612400D03*
X91200000Y3612400D03*
X95400000Y2012400D03*
X91200000Y2012400D03*
X105400000Y5212400D03*
D14*
X101200000Y5212400D03*
D13*
X105400000Y3612400D03*
X101200000Y3612400D03*
X105400000Y2012400D03*
X101200000Y2012400D03*
X115400000Y5212400D03*
D14*
X111200000Y5212400D03*
D13*
X115400000Y3612400D03*
X111200000Y3612400D03*
X115400000Y2012400D03*
X111200000Y2012400D03*
X125400000Y5212400D03*
D14*
X121200000Y5212400D03*
D13*
X125400000Y3612400D03*
X121200000Y3612400D03*
X125400000Y2012400D03*
X121200000Y2012400D03*
X135400000Y5212400D03*
D14*
X131200000Y5212400D03*
D13*
X135400000Y3612400D03*
X131200000Y3612400D03*
X135400000Y2012400D03*
X131200000Y2012400D03*
X145400000Y5212400D03*
D14*
X141200000Y5212400D03*
D13*
X145400000Y3612400D03*
X141200000Y3612400D03*
X145400000Y2012400D03*
X141200000Y2012400D03*
X155400000Y5212400D03*
D14*
X151200000Y5212400D03*
D13*
X155400000Y3612400D03*
X151200000Y3612400D03*
X155400000Y2012400D03*
X151200000Y2012400D03*
X175400000Y5212400D03*
D14*
X171200000Y5212400D03*
D13*
X175400000Y3612400D03*
X171200000Y3612400D03*
X175400000Y2012400D03*
X171200000Y2012400D03*
X185400000Y5212400D03*
D14*
X181200000Y5212400D03*
D13*
X185400000Y3612400D03*
X181200000Y3612400D03*
X185400000Y2012400D03*
X181200000Y2012400D03*
D12*
X8080000Y12768700D03*
X27130000Y3878700D03*
X8080000Y7688700D03*
X8080000Y2608700D03*
X8080000Y10228700D03*
X8080000Y5148700D03*
X27130000Y11498700D03*
X27130000Y1338700D03*
X10620000Y12768700D03*
X24590000Y3878700D03*
X24590000Y11498700D03*
X10620000Y7688700D03*
X24590000Y14038700D03*
X24590000Y1338700D03*
X10620000Y2608700D03*
X10620000Y10228700D03*
X10620000Y5148700D03*
X24590000Y6418700D03*
X24590000Y8958700D03*
D18*
X19690000Y7326200D03*
X18190000Y7326200D03*
X19690000Y13422200D03*
X18190000Y13422200D03*
D16*
X20290000Y5482200D03*
X17590000Y5482200D03*
X17590000Y4532200D03*
X20290000Y3582200D03*
X17590000Y3582200D03*
D11*
X3000000Y7737500D03*
M02*
