G04 #@! TF.FileFunction,Paste,Top*
%FSLAX46Y46*%
G04 Gerber Fmt 4.6, Leading zero omitted, Abs format (unit mm)*
G04 Created by KiCad (PCBNEW 4.0.4-stable) date 05/18/17 20:07:39*
%MOMM*%
%LPD*%
G01*
G04 APERTURE LIST*
%ADD10C,0.100000*%
%ADD11R,0.600000X1.500000*%
%ADD12R,0.800000X0.750000*%
%ADD13R,0.500000X0.900000*%
%ADD14R,1.500000X0.550000*%
%ADD15R,0.750000X0.800000*%
G04 APERTURE END LIST*
D10*
D11*
X104775000Y45780000D03*
X104775000Y40580000D03*
X106045000Y45780000D03*
X106045000Y40580000D03*
X107315000Y45780000D03*
X107315000Y40580000D03*
X108585000Y45780000D03*
X108585000Y40580000D03*
X109855000Y45780000D03*
X109855000Y40580000D03*
X111125000Y45780000D03*
X111125000Y40580000D03*
X112395000Y45780000D03*
X112395000Y40580000D03*
X113665000Y45780000D03*
X113665000Y40580000D03*
X64135000Y45780000D03*
X64135000Y40580000D03*
X65405000Y45780000D03*
X65405000Y40580000D03*
X66675000Y45780000D03*
X66675000Y40580000D03*
X67945000Y45780000D03*
X67945000Y40580000D03*
X69215000Y45780000D03*
X69215000Y40580000D03*
X70485000Y45780000D03*
X70485000Y40580000D03*
X71755000Y45780000D03*
X71755000Y40580000D03*
X73025000Y45780000D03*
X73025000Y40580000D03*
D12*
X148070000Y48895000D03*
X146570000Y48895000D03*
D13*
X134505000Y43180000D03*
X136005000Y43180000D03*
X134505000Y39370000D03*
X136005000Y39370000D03*
X148070000Y39370000D03*
X146570000Y39370000D03*
X148070000Y43180000D03*
X146570000Y43180000D03*
X134505000Y45085000D03*
X136005000Y45085000D03*
X134505000Y41275000D03*
X136005000Y41275000D03*
X148070000Y37465000D03*
X146570000Y37465000D03*
X148070000Y41275000D03*
X146570000Y41275000D03*
D14*
X143830000Y48260000D03*
X138430000Y48260000D03*
X143830000Y46990000D03*
X138430000Y46990000D03*
X143830000Y45720000D03*
X138430000Y45720000D03*
X143830000Y44450000D03*
X138430000Y44450000D03*
X143830000Y43180000D03*
X138430000Y43180000D03*
X143830000Y41910000D03*
X138430000Y41910000D03*
X143830000Y40640000D03*
X138430000Y40640000D03*
X143830000Y39370000D03*
X138430000Y39370000D03*
D13*
X148070000Y45085000D03*
X146570000Y45085000D03*
X148070000Y46990000D03*
X146570000Y46990000D03*
X134505000Y46990000D03*
X136005000Y46990000D03*
D15*
X102235000Y47105000D03*
X102235000Y45605000D03*
X60960000Y45835000D03*
X60960000Y44335000D03*
M02*
