M48
METRIC,TZ
T1C0.400
T2C1.000
T3C1.016
T4C1.200
T5C2.500
T6C3.048
%
G90
G05
T1
X59690Y44450
X60325Y10795
X60325Y9525
X67945Y48260
X69215Y48260
X74295Y18415
X74295Y15875
X74930Y43180
X74930Y41910
X74930Y15240
X76852Y13653
X77470Y47625
X77533Y12093
X78105Y48260
X78328Y12176
X79375Y47625
X80232Y10909
X80645Y6985
X81280Y5715
X81915Y8255
X84665Y7112
X85283Y37023
X85725Y36195
X86360Y7620
X87404Y12291
X87630Y7275
X99184Y46866
X100965Y45720
X108585Y48260
X109855Y48260
X111125Y48260
X115570Y46355
X126365Y38540
X127635Y38100
X130810Y47625
X131445Y43815
X132080Y45720
X133350Y48260
X133350Y45085
X133350Y43180
X133350Y39370
X135890Y48260
X139700Y36830
X144145Y36830
X145415Y46990
X147955Y33655
X149225Y41275
X149225Y37465
T2
X3150Y30440
X3150Y27940
X3150Y25440
X17170Y45680
X17170Y43180
X17170Y40680
X17170Y15200
X17170Y12700
X17170Y10200
X23470Y30440
X23470Y27940
X23470Y25440
X23470Y15200
X23470Y12700
X23470Y10200
X43790Y30440
X43790Y27940
X43790Y25440
X43790Y15200
X43790Y12700
X43790Y10200
X64110Y30440
X64110Y27940
X64110Y25440
X64110Y15200
X64110Y12700
X64110Y10200
X84430Y30440
X84430Y27940
X84430Y25440
X84430Y15200
X84430Y12700
X84430Y10200
X104750Y30440
X104750Y27940
X104750Y25440
X104750Y15200
X104750Y12700
X104750Y10200
X125070Y30440
X125070Y27940
X125070Y25440
X125070Y15200
X125070Y12700
X125070Y10200
X145390Y30440
X145390Y27940
X145390Y25440
X145390Y15200
X145390Y12700
X145390Y10200
T3
X46990Y46990
X46990Y44450
X46990Y41910
X46990Y39370
X52070Y3810
X52070Y3810
X52070Y3810
X52070Y1270
X52070Y1270
X52070Y1270
X54610Y3810
X54610Y3810
X54610Y3810
X54610Y1270
X54610Y1270
X54610Y1270
X57150Y3810
X57150Y3810
X57150Y3810
X57150Y1270
X57150Y1270
X57150Y1270
X59690Y3810
X59690Y3810
X59690Y3810
X59690Y1270
X59690Y1270
X59690Y1270
X62230Y3810
X62230Y3810
X62230Y3810
X62230Y1270
X62230Y1270
X62230Y1270
X64770Y3810
X64770Y3810
X64770Y3810
X64770Y1270
X64770Y1270
X64770Y1270
X67310Y3810
X67310Y3810
X67310Y3810
X67310Y1270
X67310Y1270
X67310Y1270
X69850Y3810
X69850Y3810
X69850Y3810
X69850Y1270
X69850Y1270
X69850Y1270
X72390Y3810
X72390Y3810
X72390Y3810
X72390Y1270
X72390Y1270
X72390Y1270
X74930Y3810
X74930Y3810
X74930Y3810
X74930Y1270
X74930Y1270
X74930Y1270
X77470Y3810
X77470Y3810
X77470Y3810
X77470Y1270
X77470Y1270
X77470Y1270
X80010Y3810
X80010Y3810
X80010Y3810
X80010Y1270
X80010Y1270
X80010Y1270
X82550Y3810
X82550Y3810
X82550Y3810
X82550Y1270
X82550Y1270
X82550Y1270
X85090Y3810
X85090Y3810
X85090Y3810
X85090Y1270
X85090Y1270
X85090Y1270
X87630Y46990
X87630Y44450
X87630Y41910
X87630Y39370
X87630Y3810
X87630Y3810
X87630Y3810
X87630Y1270
X87630Y1270
X87630Y1270
X90170Y3810
X90170Y3810
X90170Y3810
X90170Y1270
X90170Y1270
X90170Y1270
X92710Y3810
X92710Y3810
X92710Y3810
X92710Y1270
X92710Y1270
X92710Y1270
X95250Y3810
X95250Y3810
X95250Y3810
X95250Y1270
X95250Y1270
X95250Y1270
X97790Y3810
X97790Y3810
X97790Y3810
X97790Y1270
X97790Y1270
X97790Y1270
X100330Y3810
X100330Y3810
X100330Y3810
X100330Y1270
X100330Y1270
X100330Y1270
X102870Y3810
X102870Y3810
X102870Y3810
X102870Y1270
X102870Y1270
X102870Y1270
X105410Y3810
X105410Y3810
X105410Y3810
X105410Y1270
X105410Y1270
X105410Y1270
X107950Y3810
X107950Y3810
X107950Y3810
X107950Y1270
X107950Y1270
X107950Y1270
X110490Y3810
X110490Y3810
X110490Y3810
X110490Y1270
X110490Y1270
X110490Y1270
X113030Y3810
X113030Y3810
X113030Y3810
X113030Y1270
X113030Y1270
X113030Y1270
X115570Y3810
X115570Y3810
X115570Y3810
X115570Y1270
X115570Y1270
X115570Y1270
X118110Y3810
X118110Y3810
X118110Y3810
X118110Y1270
X118110Y1270
X118110Y1270
X120650Y3810
X120650Y3810
X120650Y3810
X120650Y1270
X120650Y1270
X120650Y1270
X123190Y3810
X123190Y3810
X123190Y3810
X123190Y1270
X123190Y1270
X123190Y1270
X124460Y46990
X124460Y44450
X124460Y41910
X124460Y39370
X125730Y3810
X125730Y3810
X125730Y3810
X125730Y1270
X125730Y1270
X125730Y1270
X128270Y3810
X128270Y3810
X128270Y3810
X128270Y1270
X128270Y1270
X128270Y1270
X130810Y3810
X130810Y3810
X130810Y3810
X130810Y1270
X130810Y1270
X130810Y1270
X133350Y3810
X133350Y3810
X133350Y3810
X133350Y1270
X133350Y1270
X133350Y1270
X135890Y3810
X135890Y3810
X135890Y3810
X135890Y1270
X135890Y1270
X135890Y1270
X138430Y3810
X138430Y3810
X138430Y3810
X138430Y1270
X138430Y1270
X138430Y1270
X140970Y3810
X140970Y3810
X140970Y3810
X140970Y1270
X140970Y1270
X140970Y1270
X143510Y3810
X143510Y3810
X143510Y3810
X143510Y1270
X143510Y1270
X143510Y1270
X146050Y3810
X146050Y3810
X146050Y3810
X146050Y1270
X146050Y1270
X146050Y1270
X148590Y3810
X148590Y3810
X148590Y3810
X148590Y1270
X148590Y1270
X148590Y1270
X151130Y3810
X151130Y3810
X151130Y3810
X151130Y1270
X151130Y1270
X151130Y1270
T4
X23880Y45880
X23880Y43180
X23880Y40505
X27780Y36580
X30480Y47780
X30480Y36580
X33180Y36580
X35080Y43180
T5
X10160Y47574
X10160Y38786
X10160Y32334
X10160Y23546
X10160Y17094
X10160Y8306
X30480Y32334
X30480Y23546
X30480Y17094
X30480Y8306
X50800Y32334
X50800Y23546
X50800Y17094
X50800Y8306
X71120Y32334
X71120Y23546
X71120Y17094
X71120Y8306
X91440Y32334
X91440Y23546
X91440Y17094
X91440Y8306
X111760Y32334
X111760Y23546
X111760Y17094
X111760Y8306
X132080Y32334
X132080Y23546
X132080Y17094
X132080Y8306
X152400Y32334
X152400Y23546
X152400Y17094
X152400Y8306
T6
X3500Y40000
X3500Y10000
X54000Y40000
X156500Y40000
X156500Y10000
T0
M30
