G04 #@! TF.FileFunction,Soldermask,Bot*
%FSLAX46Y46*%
G04 Gerber Fmt 4.6, Leading zero omitted, Abs format (unit mm)*
G04 Created by KiCad (PCBNEW 4.0.4-stable) date 05/18/17 20:07:39*
%MOMM*%
%LPD*%
G01*
G04 APERTURE LIST*
%ADD10C,0.100000*%
%ADD11C,4.064000*%
%ADD12C,3.100000*%
%ADD13C,1.600000*%
%ADD14R,1.800000X1.800000*%
%ADD15C,1.800000*%
%ADD16C,1.300000*%
%ADD17C,1.727200*%
G04 APERTURE END LIST*
D10*
D11*
X156500000Y40000000D03*
X156500000Y10000000D03*
D12*
X10160000Y38785800D03*
X10160000Y47574200D03*
D13*
X17170400Y40680000D03*
X17170400Y43180000D03*
X17170400Y45680000D03*
D11*
X3500000Y40000000D03*
D12*
X152400000Y17094200D03*
X152400000Y8305800D03*
D13*
X145389600Y15200000D03*
X145389600Y12700000D03*
X145389600Y10200000D03*
D12*
X132080000Y17094200D03*
X132080000Y8305800D03*
D13*
X125069600Y15200000D03*
X125069600Y12700000D03*
X125069600Y10200000D03*
D12*
X111760000Y17094200D03*
X111760000Y8305800D03*
D13*
X104749600Y15200000D03*
X104749600Y12700000D03*
X104749600Y10200000D03*
D12*
X91440000Y17094200D03*
X91440000Y8305800D03*
D13*
X84429600Y15200000D03*
X84429600Y12700000D03*
X84429600Y10200000D03*
D12*
X152400000Y32334200D03*
X152400000Y23545800D03*
D13*
X145389600Y30440000D03*
X145389600Y27940000D03*
X145389600Y25440000D03*
D12*
X132080000Y32334200D03*
X132080000Y23545800D03*
D13*
X125069600Y30440000D03*
X125069600Y27940000D03*
X125069600Y25440000D03*
D12*
X111760000Y32334200D03*
X111760000Y23545800D03*
D13*
X104749600Y30440000D03*
X104749600Y27940000D03*
X104749600Y25440000D03*
D12*
X91440000Y32334200D03*
X91440000Y23545800D03*
D13*
X84429600Y30440000D03*
X84429600Y27940000D03*
X84429600Y25440000D03*
D12*
X50800000Y17094200D03*
X50800000Y8305800D03*
D13*
X43789600Y15200000D03*
X43789600Y12700000D03*
X43789600Y10200000D03*
D12*
X30480000Y17094200D03*
X30480000Y8305800D03*
D13*
X23469600Y15200000D03*
X23469600Y12700000D03*
X23469600Y10200000D03*
D12*
X71120000Y32334200D03*
X71120000Y23545800D03*
D13*
X64109600Y30440000D03*
X64109600Y27940000D03*
X64109600Y25440000D03*
D12*
X50800000Y32334200D03*
X50800000Y23545800D03*
D13*
X43789600Y30440000D03*
X43789600Y27940000D03*
X43789600Y25440000D03*
D12*
X30480000Y32334200D03*
X30480000Y23545800D03*
D13*
X23469600Y30440000D03*
X23469600Y27940000D03*
X23469600Y25440000D03*
D12*
X10160000Y32334200D03*
X10160000Y23545800D03*
D13*
X3149600Y30440000D03*
X3149600Y27940000D03*
X3149600Y25440000D03*
D12*
X71120000Y17094200D03*
X71120000Y8305800D03*
D13*
X64109600Y15200000D03*
X64109600Y12700000D03*
X64109600Y10200000D03*
D12*
X10160000Y8305800D03*
X10160000Y17094200D03*
D13*
X17170400Y10200000D03*
X17170400Y12700000D03*
X17170400Y15200000D03*
D11*
X54000000Y40000000D03*
X3500000Y10000000D03*
D14*
X23880000Y45880000D03*
D15*
X23880000Y43180000D03*
X23880000Y40505000D03*
X27780000Y36580000D03*
X30480000Y36580000D03*
X33180000Y36580000D03*
X35080000Y43180000D03*
X30480000Y47780000D03*
D16*
X30480000Y40830000D03*
X30480000Y45530000D03*
D17*
X52070000Y1270000D03*
X54610000Y1270000D03*
X57150000Y1270000D03*
X59690000Y1270000D03*
X62230000Y1270000D03*
X64770000Y1270000D03*
X67310000Y1270000D03*
X69850000Y1270000D03*
X72390000Y1270000D03*
X74930000Y1270000D03*
X77470000Y1270000D03*
X80010000Y1270000D03*
X82550000Y1270000D03*
X85090000Y1270000D03*
X87630000Y1270000D03*
X90170000Y1270000D03*
X92710000Y1270000D03*
X95250000Y1270000D03*
X97790000Y1270000D03*
X100330000Y1270000D03*
X102870000Y1270000D03*
X105410000Y1270000D03*
X107950000Y1270000D03*
X110490000Y1270000D03*
X113030000Y1270000D03*
X115570000Y1270000D03*
X118110000Y1270000D03*
X120650000Y1270000D03*
X123190000Y1270000D03*
X125730000Y1270000D03*
X128270000Y1270000D03*
X130810000Y1270000D03*
X133350000Y1270000D03*
X135890000Y1270000D03*
X138430000Y1270000D03*
X140970000Y1270000D03*
X143510000Y1270000D03*
X146050000Y1270000D03*
X148590000Y1270000D03*
X151130000Y1270000D03*
X59690000Y1270000D03*
X52070000Y1270000D03*
X54610000Y1270000D03*
X57150000Y1270000D03*
X62230000Y1270000D03*
X72390000Y1270000D03*
X64770000Y1270000D03*
X67310000Y1270000D03*
X69850000Y1270000D03*
X74930000Y1270000D03*
X85090000Y1270000D03*
X77470000Y1270000D03*
X80010000Y1270000D03*
X82550000Y1270000D03*
X87630000Y1270000D03*
X97790000Y1270000D03*
X90170000Y1270000D03*
X92710000Y1270000D03*
X95250000Y1270000D03*
X100330000Y1270000D03*
X110490000Y1270000D03*
X102870000Y1270000D03*
X105410000Y1270000D03*
X107950000Y1270000D03*
X113030000Y1270000D03*
X123190000Y1270000D03*
X115570000Y1270000D03*
X118110000Y1270000D03*
X120650000Y1270000D03*
X125730000Y1270000D03*
X135890000Y1270000D03*
X128270000Y1270000D03*
X130810000Y1270000D03*
X133350000Y1270000D03*
X138430000Y1270000D03*
X148590000Y1270000D03*
X140970000Y1270000D03*
X143510000Y1270000D03*
X146050000Y1270000D03*
X151130000Y1270000D03*
X59690000Y1270000D03*
X52070000Y1270000D03*
X54610000Y1270000D03*
X57150000Y1270000D03*
X62230000Y1270000D03*
X72390000Y1270000D03*
X64770000Y1270000D03*
X67310000Y1270000D03*
X69850000Y1270000D03*
X74930000Y1270000D03*
X85090000Y1270000D03*
X77470000Y1270000D03*
X80010000Y1270000D03*
X82550000Y1270000D03*
X87630000Y1270000D03*
X97790000Y1270000D03*
X90170000Y1270000D03*
X92710000Y1270000D03*
X95250000Y1270000D03*
X100330000Y1270000D03*
X110490000Y1270000D03*
X102870000Y1270000D03*
X105410000Y1270000D03*
X107950000Y1270000D03*
X113030000Y1270000D03*
X123190000Y1270000D03*
X115570000Y1270000D03*
X118110000Y1270000D03*
X120650000Y1270000D03*
X125730000Y1270000D03*
X135890000Y1270000D03*
X128270000Y1270000D03*
X130810000Y1270000D03*
X133350000Y1270000D03*
X138430000Y1270000D03*
X148590000Y1270000D03*
X140970000Y1270000D03*
X143510000Y1270000D03*
X146050000Y1270000D03*
X151130000Y1270000D03*
X133350000Y3810000D03*
X133350000Y3810000D03*
X135890000Y3810000D03*
X135890000Y3810000D03*
X133350000Y3810000D03*
X146050000Y3810000D03*
X146050000Y3810000D03*
X148590000Y3810000D03*
X148590000Y3810000D03*
X146050000Y3810000D03*
X128270000Y3810000D03*
X128270000Y3810000D03*
X130810000Y3810000D03*
X128270000Y3810000D03*
X130810000Y3810000D03*
X130810000Y3810000D03*
X140970000Y3810000D03*
X140970000Y3810000D03*
X143510000Y3810000D03*
X140970000Y3810000D03*
X143510000Y3810000D03*
X143510000Y3810000D03*
X135890000Y3810000D03*
X138430000Y3810000D03*
X138430000Y3810000D03*
X138430000Y3810000D03*
X148590000Y3810000D03*
X151130000Y3810000D03*
X151130000Y3810000D03*
X151130000Y3810000D03*
X82550000Y3810000D03*
X82550000Y3810000D03*
X85090000Y3810000D03*
X85090000Y3810000D03*
X82550000Y3810000D03*
X95250000Y3810000D03*
X95250000Y3810000D03*
X97790000Y3810000D03*
X97790000Y3810000D03*
X95250000Y3810000D03*
X77470000Y3810000D03*
X77470000Y3810000D03*
X80010000Y3810000D03*
X77470000Y3810000D03*
X80010000Y3810000D03*
X80010000Y3810000D03*
X90170000Y3810000D03*
X90170000Y3810000D03*
X92710000Y3810000D03*
X90170000Y3810000D03*
X92710000Y3810000D03*
X92710000Y3810000D03*
X85090000Y3810000D03*
X87630000Y3810000D03*
X87630000Y3810000D03*
X87630000Y3810000D03*
X97790000Y3810000D03*
X100330000Y3810000D03*
X100330000Y3810000D03*
X100330000Y3810000D03*
X57150000Y3810000D03*
X57150000Y3810000D03*
X59690000Y3810000D03*
X59690000Y3810000D03*
X57150000Y3810000D03*
X69850000Y3810000D03*
X69850000Y3810000D03*
X72390000Y3810000D03*
X72390000Y3810000D03*
X69850000Y3810000D03*
X52070000Y3810000D03*
X52070000Y3810000D03*
X54610000Y3810000D03*
X52070000Y3810000D03*
X54610000Y3810000D03*
X54610000Y3810000D03*
X64770000Y3810000D03*
X64770000Y3810000D03*
X67310000Y3810000D03*
X64770000Y3810000D03*
X67310000Y3810000D03*
X67310000Y3810000D03*
X59690000Y3810000D03*
X62230000Y3810000D03*
X62230000Y3810000D03*
X62230000Y3810000D03*
X72390000Y3810000D03*
X74930000Y3810000D03*
X74930000Y3810000D03*
X74930000Y3810000D03*
X107950000Y3810000D03*
X107950000Y3810000D03*
X110490000Y3810000D03*
X110490000Y3810000D03*
X107950000Y3810000D03*
X120650000Y3810000D03*
X120650000Y3810000D03*
X123190000Y3810000D03*
X123190000Y3810000D03*
X120650000Y3810000D03*
X102870000Y3810000D03*
X102870000Y3810000D03*
X105410000Y3810000D03*
X102870000Y3810000D03*
X105410000Y3810000D03*
X105410000Y3810000D03*
X115570000Y3810000D03*
X115570000Y3810000D03*
X118110000Y3810000D03*
X115570000Y3810000D03*
X118110000Y3810000D03*
X118110000Y3810000D03*
X110490000Y3810000D03*
X113030000Y3810000D03*
X113030000Y3810000D03*
X113030000Y3810000D03*
X123190000Y3810000D03*
X125730000Y3810000D03*
X125730000Y3810000D03*
X125730000Y3810000D03*
D15*
X46990000Y46990000D03*
X46990000Y44450000D03*
X46990000Y41910000D03*
X46990000Y39370000D03*
X87630000Y46990000D03*
X87630000Y44450000D03*
X87630000Y41910000D03*
X87630000Y39370000D03*
X124460000Y46990000D03*
X124460000Y44450000D03*
X124460000Y41910000D03*
X124460000Y39370000D03*
M02*
