G04 #@! TF.FileFunction,Copper,L2,Bot,Signal*
%FSLAX46Y46*%
G04 Gerber Fmt 4.6, Leading zero omitted, Abs format (unit mm)*
G04 Created by KiCad (PCBNEW 4.0.4-stable) date 05/18/17 20:07:39*
%MOMM*%
%LPD*%
G01*
G04 APERTURE LIST*
%ADD10C,0.100000*%
%ADD11C,4.064000*%
%ADD12C,3.100000*%
%ADD13C,1.600000*%
%ADD14R,1.800000X1.800000*%
%ADD15C,1.800000*%
%ADD16C,1.727200*%
%ADD17C,0.600000*%
%ADD18C,0.250000*%
%ADD19C,0.254000*%
G04 APERTURE END LIST*
D10*
D11*
X156500000Y40000000D03*
X156500000Y10000000D03*
D12*
X10160000Y38785800D03*
X10160000Y47574200D03*
D13*
X17170400Y40680000D03*
X17170400Y43180000D03*
X17170400Y45680000D03*
D11*
X3500000Y40000000D03*
D12*
X152400000Y17094200D03*
X152400000Y8305800D03*
D13*
X145389600Y15200000D03*
X145389600Y12700000D03*
X145389600Y10200000D03*
D12*
X132080000Y17094200D03*
X132080000Y8305800D03*
D13*
X125069600Y15200000D03*
X125069600Y12700000D03*
X125069600Y10200000D03*
D12*
X111760000Y17094200D03*
X111760000Y8305800D03*
D13*
X104749600Y15200000D03*
X104749600Y12700000D03*
X104749600Y10200000D03*
D12*
X91440000Y17094200D03*
X91440000Y8305800D03*
D13*
X84429600Y15200000D03*
X84429600Y12700000D03*
X84429600Y10200000D03*
D12*
X152400000Y32334200D03*
X152400000Y23545800D03*
D13*
X145389600Y30440000D03*
X145389600Y27940000D03*
X145389600Y25440000D03*
D12*
X132080000Y32334200D03*
X132080000Y23545800D03*
D13*
X125069600Y30440000D03*
X125069600Y27940000D03*
X125069600Y25440000D03*
D12*
X111760000Y32334200D03*
X111760000Y23545800D03*
D13*
X104749600Y30440000D03*
X104749600Y27940000D03*
X104749600Y25440000D03*
D12*
X91440000Y32334200D03*
X91440000Y23545800D03*
D13*
X84429600Y30440000D03*
X84429600Y27940000D03*
X84429600Y25440000D03*
D12*
X50800000Y17094200D03*
X50800000Y8305800D03*
D13*
X43789600Y15200000D03*
X43789600Y12700000D03*
X43789600Y10200000D03*
D12*
X30480000Y17094200D03*
X30480000Y8305800D03*
D13*
X23469600Y15200000D03*
X23469600Y12700000D03*
X23469600Y10200000D03*
D12*
X71120000Y32334200D03*
X71120000Y23545800D03*
D13*
X64109600Y30440000D03*
X64109600Y27940000D03*
X64109600Y25440000D03*
D12*
X50800000Y32334200D03*
X50800000Y23545800D03*
D13*
X43789600Y30440000D03*
X43789600Y27940000D03*
X43789600Y25440000D03*
D12*
X30480000Y32334200D03*
X30480000Y23545800D03*
D13*
X23469600Y30440000D03*
X23469600Y27940000D03*
X23469600Y25440000D03*
D12*
X10160000Y32334200D03*
X10160000Y23545800D03*
D13*
X3149600Y30440000D03*
X3149600Y27940000D03*
X3149600Y25440000D03*
D12*
X71120000Y17094200D03*
X71120000Y8305800D03*
D13*
X64109600Y15200000D03*
X64109600Y12700000D03*
X64109600Y10200000D03*
D12*
X10160000Y8305800D03*
X10160000Y17094200D03*
D13*
X17170400Y10200000D03*
X17170400Y12700000D03*
X17170400Y15200000D03*
D11*
X54000000Y40000000D03*
X3500000Y10000000D03*
D14*
X23880000Y45880000D03*
D15*
X23880000Y43180000D03*
X23880000Y40505000D03*
X27780000Y36580000D03*
X30480000Y36580000D03*
X33180000Y36580000D03*
X35080000Y43180000D03*
X30480000Y47780000D03*
D16*
X52070000Y1270000D03*
X54610000Y1270000D03*
X57150000Y1270000D03*
X59690000Y1270000D03*
X62230000Y1270000D03*
X64770000Y1270000D03*
X67310000Y1270000D03*
X69850000Y1270000D03*
X72390000Y1270000D03*
X74930000Y1270000D03*
X77470000Y1270000D03*
X80010000Y1270000D03*
X82550000Y1270000D03*
X85090000Y1270000D03*
X87630000Y1270000D03*
X90170000Y1270000D03*
X92710000Y1270000D03*
X95250000Y1270000D03*
X97790000Y1270000D03*
X100330000Y1270000D03*
X102870000Y1270000D03*
X105410000Y1270000D03*
X107950000Y1270000D03*
X110490000Y1270000D03*
X113030000Y1270000D03*
X115570000Y1270000D03*
X118110000Y1270000D03*
X120650000Y1270000D03*
X123190000Y1270000D03*
X125730000Y1270000D03*
X128270000Y1270000D03*
X130810000Y1270000D03*
X133350000Y1270000D03*
X135890000Y1270000D03*
X138430000Y1270000D03*
X140970000Y1270000D03*
X143510000Y1270000D03*
X146050000Y1270000D03*
X148590000Y1270000D03*
X151130000Y1270000D03*
X59690000Y1270000D03*
X52070000Y1270000D03*
X54610000Y1270000D03*
X57150000Y1270000D03*
X62230000Y1270000D03*
X72390000Y1270000D03*
X64770000Y1270000D03*
X67310000Y1270000D03*
X69850000Y1270000D03*
X74930000Y1270000D03*
X85090000Y1270000D03*
X77470000Y1270000D03*
X80010000Y1270000D03*
X82550000Y1270000D03*
X87630000Y1270000D03*
X97790000Y1270000D03*
X90170000Y1270000D03*
X92710000Y1270000D03*
X95250000Y1270000D03*
X100330000Y1270000D03*
X110490000Y1270000D03*
X102870000Y1270000D03*
X105410000Y1270000D03*
X107950000Y1270000D03*
X113030000Y1270000D03*
X123190000Y1270000D03*
X115570000Y1270000D03*
X118110000Y1270000D03*
X120650000Y1270000D03*
X125730000Y1270000D03*
X135890000Y1270000D03*
X128270000Y1270000D03*
X130810000Y1270000D03*
X133350000Y1270000D03*
X138430000Y1270000D03*
X148590000Y1270000D03*
X140970000Y1270000D03*
X143510000Y1270000D03*
X146050000Y1270000D03*
X151130000Y1270000D03*
X59690000Y1270000D03*
X52070000Y1270000D03*
X54610000Y1270000D03*
X57150000Y1270000D03*
X62230000Y1270000D03*
X72390000Y1270000D03*
X64770000Y1270000D03*
X67310000Y1270000D03*
X69850000Y1270000D03*
X74930000Y1270000D03*
X85090000Y1270000D03*
X77470000Y1270000D03*
X80010000Y1270000D03*
X82550000Y1270000D03*
X87630000Y1270000D03*
X97790000Y1270000D03*
X90170000Y1270000D03*
X92710000Y1270000D03*
X95250000Y1270000D03*
X100330000Y1270000D03*
X110490000Y1270000D03*
X102870000Y1270000D03*
X105410000Y1270000D03*
X107950000Y1270000D03*
X113030000Y1270000D03*
X123190000Y1270000D03*
X115570000Y1270000D03*
X118110000Y1270000D03*
X120650000Y1270000D03*
X125730000Y1270000D03*
X135890000Y1270000D03*
X128270000Y1270000D03*
X130810000Y1270000D03*
X133350000Y1270000D03*
X138430000Y1270000D03*
X148590000Y1270000D03*
X140970000Y1270000D03*
X143510000Y1270000D03*
X146050000Y1270000D03*
X151130000Y1270000D03*
X133350000Y3810000D03*
X133350000Y3810000D03*
X135890000Y3810000D03*
X135890000Y3810000D03*
X133350000Y3810000D03*
X146050000Y3810000D03*
X146050000Y3810000D03*
X148590000Y3810000D03*
X148590000Y3810000D03*
X146050000Y3810000D03*
X128270000Y3810000D03*
X128270000Y3810000D03*
X130810000Y3810000D03*
X128270000Y3810000D03*
X130810000Y3810000D03*
X130810000Y3810000D03*
X140970000Y3810000D03*
X140970000Y3810000D03*
X143510000Y3810000D03*
X140970000Y3810000D03*
X143510000Y3810000D03*
X143510000Y3810000D03*
X135890000Y3810000D03*
X138430000Y3810000D03*
X138430000Y3810000D03*
X138430000Y3810000D03*
X148590000Y3810000D03*
X151130000Y3810000D03*
X151130000Y3810000D03*
X151130000Y3810000D03*
X82550000Y3810000D03*
X82550000Y3810000D03*
X85090000Y3810000D03*
X85090000Y3810000D03*
X82550000Y3810000D03*
X95250000Y3810000D03*
X95250000Y3810000D03*
X97790000Y3810000D03*
X97790000Y3810000D03*
X95250000Y3810000D03*
X77470000Y3810000D03*
X77470000Y3810000D03*
X80010000Y3810000D03*
X77470000Y3810000D03*
X80010000Y3810000D03*
X80010000Y3810000D03*
X90170000Y3810000D03*
X90170000Y3810000D03*
X92710000Y3810000D03*
X90170000Y3810000D03*
X92710000Y3810000D03*
X92710000Y3810000D03*
X85090000Y3810000D03*
X87630000Y3810000D03*
X87630000Y3810000D03*
X87630000Y3810000D03*
X97790000Y3810000D03*
X100330000Y3810000D03*
X100330000Y3810000D03*
X100330000Y3810000D03*
X57150000Y3810000D03*
X57150000Y3810000D03*
X59690000Y3810000D03*
X59690000Y3810000D03*
X57150000Y3810000D03*
X69850000Y3810000D03*
X69850000Y3810000D03*
X72390000Y3810000D03*
X72390000Y3810000D03*
X69850000Y3810000D03*
X52070000Y3810000D03*
X52070000Y3810000D03*
X54610000Y3810000D03*
X52070000Y3810000D03*
X54610000Y3810000D03*
X54610000Y3810000D03*
X64770000Y3810000D03*
X64770000Y3810000D03*
X67310000Y3810000D03*
X64770000Y3810000D03*
X67310000Y3810000D03*
X67310000Y3810000D03*
X59690000Y3810000D03*
X62230000Y3810000D03*
X62230000Y3810000D03*
X62230000Y3810000D03*
X72390000Y3810000D03*
X74930000Y3810000D03*
X74930000Y3810000D03*
X74930000Y3810000D03*
X107950000Y3810000D03*
X107950000Y3810000D03*
X110490000Y3810000D03*
X110490000Y3810000D03*
X107950000Y3810000D03*
X120650000Y3810000D03*
X120650000Y3810000D03*
X123190000Y3810000D03*
X123190000Y3810000D03*
X120650000Y3810000D03*
X102870000Y3810000D03*
X102870000Y3810000D03*
X105410000Y3810000D03*
X102870000Y3810000D03*
X105410000Y3810000D03*
X105410000Y3810000D03*
X115570000Y3810000D03*
X115570000Y3810000D03*
X118110000Y3810000D03*
X115570000Y3810000D03*
X118110000Y3810000D03*
X118110000Y3810000D03*
X110490000Y3810000D03*
X113030000Y3810000D03*
X113030000Y3810000D03*
X113030000Y3810000D03*
X123190000Y3810000D03*
X125730000Y3810000D03*
X125730000Y3810000D03*
X125730000Y3810000D03*
D15*
X46990000Y46990000D03*
X46990000Y44450000D03*
X46990000Y41910000D03*
X46990000Y39370000D03*
X87630000Y46990000D03*
X87630000Y44450000D03*
X87630000Y41910000D03*
X87630000Y39370000D03*
X124460000Y46990000D03*
X124460000Y44450000D03*
X124460000Y41910000D03*
X124460000Y39370000D03*
D17*
X59690000Y44450000D03*
X115570000Y46355000D03*
X100965000Y45720000D03*
X147955000Y33655000D03*
X144144992Y36830008D03*
X87404249Y12290751D03*
X86360000Y7620000D03*
X87630000Y7275004D03*
X99184449Y46865551D03*
X133350000Y39370000D03*
X133350000Y43180000D03*
X133350000Y45085000D03*
X133350000Y48260000D03*
X149225000Y41275000D03*
X149225000Y37465000D03*
X74295000Y18415000D03*
X145415000Y46990000D03*
X130810000Y47625000D03*
X76851588Y13653006D03*
X77470000Y47625000D03*
X108585000Y48260000D03*
X67945000Y48260000D03*
X81280000Y5715000D03*
X77532765Y12092605D03*
X78105000Y48260000D03*
X109855000Y48260000D03*
X69215000Y48260000D03*
X80645000Y6985000D03*
X78328398Y12176197D03*
X111125000Y48260000D03*
X79375000Y47625000D03*
X81915000Y8255000D03*
X74295000Y15875000D03*
X84665473Y7111942D03*
X80231898Y10909107D03*
X74930000Y15240000D03*
X60325000Y9525000D03*
X60325000Y10795000D03*
X139700020Y36830000D03*
X135890000Y48260000D03*
X85283051Y37023051D03*
X131445000Y43815000D03*
X126365000Y38540021D03*
X74930000Y43180000D03*
X132080000Y45720000D03*
X127635000Y38100000D03*
X85725000Y36195000D03*
X74930000Y41910000D03*
D18*
X57150000Y46990000D02*
X59690000Y44450000D01*
X46990000Y46990000D02*
X57150000Y46990000D01*
X115570000Y46355000D02*
X123825000Y46355000D01*
X123825000Y46355000D02*
X124460000Y46990000D01*
X114935000Y45720000D02*
X115570000Y46355000D01*
X100965000Y45720000D02*
X114935000Y45720000D01*
X100965000Y46355000D02*
X100965000Y45720000D01*
X99695000Y47625000D02*
X100965000Y46355000D01*
X99060000Y47625000D02*
X99695000Y47625000D01*
X98425000Y46990000D02*
X99060000Y47625000D01*
X87630000Y46990000D02*
X98425000Y46990000D01*
X84455000Y38735000D02*
X84455000Y43815000D01*
X84455000Y43815000D02*
X87630000Y46990000D01*
X86995000Y36195000D02*
X84455000Y38735000D01*
X86995000Y35560000D02*
X86995000Y36195000D01*
X84429600Y32994600D02*
X86995000Y35560000D01*
X84429600Y30440000D02*
X84429600Y32994600D01*
X146189599Y31889599D02*
X147955000Y33655000D01*
X145389600Y30440000D02*
X146189599Y31239999D01*
X146189599Y31239999D02*
X146189599Y31889599D01*
X145389600Y30440000D02*
X145389600Y35585400D01*
X144444991Y36530009D02*
X144144992Y36830008D01*
X145389600Y35585400D02*
X144444991Y36530009D01*
X84429600Y15200000D02*
X87338849Y12290751D01*
X87338849Y12290751D02*
X87404249Y12290751D01*
X145389600Y15200000D02*
X125069600Y15200000D01*
X130810000Y3810000D02*
X130810000Y5031314D01*
X130810000Y5031314D02*
X128270000Y7571314D01*
X128270000Y7571314D02*
X128270000Y11999600D01*
X125869599Y14400001D02*
X125069600Y15200000D01*
X128270000Y11999600D02*
X125869599Y14400001D01*
X133350000Y3810000D02*
X144740000Y15200000D01*
X144740000Y15200000D02*
X145389600Y15200000D01*
X120650000Y3810000D02*
X120650000Y10780400D01*
X120650000Y10780400D02*
X125069600Y15200000D01*
X100330000Y3810000D02*
X100330000Y10780400D01*
X100330000Y10780400D02*
X104749600Y15200000D01*
X85953599Y7213599D02*
X86360000Y7620000D01*
X85090000Y3810000D02*
X85953599Y4673599D01*
X85953599Y4673599D02*
X85953599Y7213599D01*
X64770000Y3810000D02*
X63581399Y4998601D01*
X63581399Y4998601D02*
X59771399Y4998601D01*
X59771399Y4998601D02*
X57785000Y6985000D01*
X57785000Y6985000D02*
X57785000Y12700000D01*
X57785000Y12700000D02*
X60285000Y15200000D01*
X60285000Y15200000D02*
X64109600Y15200000D01*
X82550000Y10111314D02*
X76151314Y16510000D01*
X84416312Y8245002D02*
X82550000Y10111314D01*
X82550000Y10111314D02*
X82638686Y10200000D01*
X82638686Y10200000D02*
X84429600Y10200000D01*
X96768898Y44450000D02*
X98884450Y46565552D01*
X87630000Y44450000D02*
X96768898Y44450000D01*
X98884450Y46565552D02*
X99184449Y46865551D01*
X149225000Y28575000D02*
X149225000Y30480000D01*
X146889999Y26239999D02*
X149225000Y28575000D01*
X145389600Y25440000D02*
X146189599Y26239999D01*
X146189599Y26239999D02*
X146889999Y26239999D01*
X149225000Y30480000D02*
X149225000Y37465000D01*
X43789600Y25440000D02*
X41910000Y27319600D01*
X41910000Y27319600D02*
X41910000Y39370000D01*
X41910000Y39370000D02*
X42545000Y40005000D01*
X42545000Y40005000D02*
X46990000Y44450000D01*
X124460000Y44450000D02*
X123560001Y43550001D01*
X123560001Y43550001D02*
X88529999Y43550001D01*
X88529999Y43550001D02*
X87630000Y44450000D01*
X133350000Y43180000D02*
X133350000Y39370000D01*
X133350000Y45085000D02*
X133350000Y43180000D01*
X133350000Y47625000D02*
X133350000Y45085000D01*
X133350000Y48260000D02*
X133350000Y47625000D01*
X141605000Y48895000D02*
X133985000Y48895000D01*
X133649999Y48559999D02*
X133350000Y48260000D01*
X133985000Y48895000D02*
X133649999Y48559999D01*
X149225000Y41275000D02*
X141605000Y48895000D01*
X133050001Y47960001D02*
X133350000Y48260000D01*
X129540000Y44450000D02*
X133050001Y47960001D01*
X124460000Y44450000D02*
X129540000Y44450000D01*
X149225000Y37465000D02*
X149225000Y41275000D01*
X145389600Y25440000D02*
X145389600Y22250400D01*
X145389600Y22250400D02*
X147955000Y19685000D01*
X147955000Y19685000D02*
X147955000Y12765400D01*
X147955000Y12765400D02*
X146189599Y10999999D01*
X146189599Y10999999D02*
X145389600Y10200000D01*
X64109600Y25440000D02*
X84429600Y25440000D01*
X23469600Y25440000D02*
X27780000Y29750400D01*
X27780000Y29750400D02*
X27780000Y36580000D01*
X23469600Y25440000D02*
X24269599Y26239999D01*
X24269599Y26239999D02*
X42989601Y26239999D01*
X42989601Y26239999D02*
X43789600Y25440000D01*
X65240970Y10200000D02*
X64109600Y10200000D01*
X67350000Y10200000D02*
X65240970Y10200000D01*
X76151314Y16510000D02*
X73660000Y16510000D01*
X73660000Y16510000D02*
X67350000Y10200000D01*
X86660002Y8245002D02*
X84416312Y8245002D01*
X87630000Y7275004D02*
X86660002Y8245002D01*
X87630000Y3810000D02*
X87630000Y7275004D01*
X67310000Y3810000D02*
X67310000Y5031314D01*
X67310000Y5031314D02*
X65991314Y6350000D01*
X65991314Y6350000D02*
X62230000Y6350000D01*
X59055000Y10795000D02*
X60325000Y12065000D01*
X62230000Y6350000D02*
X59055000Y9525000D01*
X62244600Y12065000D02*
X64109600Y10200000D01*
X59055000Y9525000D02*
X59055000Y10795000D01*
X60325000Y12065000D02*
X62244600Y12065000D01*
X125730000Y3810000D02*
X125730000Y9539600D01*
X125730000Y9539600D02*
X125069600Y10200000D01*
X123190000Y3810000D02*
X123190000Y8320400D01*
X123190000Y8320400D02*
X125069600Y10200000D01*
X102870000Y3810000D02*
X102870000Y8320400D01*
X102870000Y8320400D02*
X104749600Y10200000D01*
X46126401Y4673599D02*
X43789600Y7010400D01*
X43789600Y7010400D02*
X43789600Y10200000D01*
X52070000Y3810000D02*
X51206401Y4673599D01*
X51206401Y4673599D02*
X46126401Y4673599D01*
X92710000Y3810000D02*
X85194999Y11325001D01*
X74719264Y18415000D02*
X74295000Y18415000D01*
X81972724Y11325001D02*
X74882725Y18415000D01*
X74882725Y18415000D02*
X74719264Y18415000D01*
X85194999Y11325001D02*
X81972724Y11325001D01*
X92710000Y1270000D02*
X92710000Y3810000D01*
X145115001Y47289999D02*
X145415000Y46990000D01*
X143059991Y49345009D02*
X145115001Y47289999D01*
X132530009Y49345009D02*
X143059991Y49345009D01*
X130810000Y47625000D02*
X132530009Y49345009D01*
X76851588Y13228742D02*
X76851588Y13653006D01*
X80855736Y5715000D02*
X76851588Y9719148D01*
X81280000Y5715000D02*
X80855736Y5715000D01*
X76851588Y9719148D02*
X76851588Y13228742D01*
X68570002Y47634998D02*
X68244999Y47960001D01*
X68244999Y47960001D02*
X67945000Y48260000D01*
X70140004Y48260000D02*
X69515002Y47634998D01*
X77470000Y47625000D02*
X76835000Y48260000D01*
X69515002Y47634998D02*
X68570002Y47634998D01*
X76835000Y48260000D02*
X70140004Y48260000D01*
X107315000Y49530000D02*
X108585000Y48260000D01*
X68580000Y49530000D02*
X107315000Y49530000D01*
X67945000Y48895000D02*
X68580000Y49530000D01*
X67945000Y48260000D02*
X67945000Y48895000D01*
X77532765Y10097235D02*
X77532765Y11668341D01*
X80645000Y6985000D02*
X77532765Y10097235D01*
X77532765Y11668341D02*
X77532765Y12092605D01*
X78105000Y48260000D02*
X77470000Y48895000D01*
X109220000Y47625000D02*
X109855000Y48260000D01*
X107315000Y47625000D02*
X109220000Y47625000D01*
X106045000Y48895000D02*
X107315000Y47625000D01*
X77470000Y48895000D02*
X106045000Y48895000D01*
X69850000Y48895000D02*
X69215000Y48260000D01*
X77470000Y48895000D02*
X69850000Y48895000D01*
X78328398Y11841602D02*
X78328398Y12176197D01*
X81915000Y8255000D02*
X78328398Y11841602D01*
X109855000Y46990000D02*
X111125000Y48260000D01*
X104775000Y46990000D02*
X109855000Y46990000D01*
X103549999Y48215001D02*
X104775000Y46990000D01*
X80010000Y47625000D02*
X80600001Y48215001D01*
X80600001Y48215001D02*
X103549999Y48215001D01*
X79375000Y47625000D02*
X80010000Y47625000D01*
X74719264Y15875000D02*
X74295000Y15875000D01*
X84365474Y7659429D02*
X76149903Y15875000D01*
X84365474Y7411941D02*
X84365474Y7659429D01*
X84665473Y7111942D02*
X84365474Y7411941D01*
X76149903Y15875000D02*
X74719264Y15875000D01*
X74930000Y15240000D02*
X76148492Y15240000D01*
X79931899Y11456593D02*
X79931899Y11209106D01*
X79931899Y11209106D02*
X80231898Y10909107D01*
X76148492Y15240000D02*
X79931899Y11456593D01*
X60624999Y9225001D02*
X60325000Y9525000D01*
X63049989Y6800011D02*
X60624999Y9225001D01*
X69850000Y3810000D02*
X66859989Y6800011D01*
X66859989Y6800011D02*
X63049989Y6800011D01*
X69850000Y1270000D02*
X69850000Y3810000D01*
X63869978Y7250022D02*
X60624999Y10495001D01*
X60624999Y10495001D02*
X60325000Y10795000D01*
X72390000Y3810000D02*
X68949978Y7250022D01*
X68949978Y7250022D02*
X63869978Y7250022D01*
X72390000Y1270000D02*
X72390000Y3810000D01*
X139400021Y37129999D02*
X139700020Y36830000D01*
X135890000Y48260000D02*
X135890000Y40640020D01*
X135890000Y40640020D02*
X139400021Y37129999D01*
X84983052Y37323050D02*
X85283051Y37023051D01*
X74930000Y43180000D02*
X79126102Y43180000D01*
X79126102Y43180000D02*
X84983052Y37323050D01*
X131445000Y43620021D02*
X131445000Y43815000D01*
X126365000Y38540021D02*
X131445000Y43620021D01*
X127635000Y38100000D02*
X132080000Y42545000D01*
X132080000Y42545000D02*
X132080000Y45085000D01*
X132080000Y45085000D02*
X132080000Y45720000D01*
X80645000Y36195000D02*
X85725000Y36195000D01*
X74930000Y41910000D02*
X80645000Y36195000D01*
D19*
G36*
X8308727Y48813519D02*
X7975380Y48010730D01*
X7974621Y47141483D01*
X8306567Y46338114D01*
X8920681Y45722927D01*
X9723470Y45389580D01*
X10592717Y45388821D01*
X10609638Y45395813D01*
X15735152Y45395813D01*
X15953157Y44868200D01*
X16356477Y44464176D01*
X16438331Y44430187D01*
X16358600Y44397243D01*
X15954576Y43993923D01*
X15735650Y43466691D01*
X15735152Y42895813D01*
X15953157Y42368200D01*
X16356477Y41964176D01*
X16422944Y41936577D01*
X16416395Y41933864D01*
X16342261Y41687745D01*
X17170400Y40859605D01*
X17998539Y41687745D01*
X17924405Y41933864D01*
X17917917Y41936196D01*
X17982200Y41962757D01*
X18386224Y42366077D01*
X18605150Y42893309D01*
X18605648Y43464187D01*
X18387643Y43991800D01*
X17984323Y44395824D01*
X17902469Y44429813D01*
X17982200Y44462757D01*
X18386224Y44866077D01*
X18605150Y45393309D01*
X18605648Y45964187D01*
X18387643Y46491800D01*
X18099946Y46780000D01*
X22332560Y46780000D01*
X22332560Y44980000D01*
X22376838Y44744683D01*
X22515910Y44528559D01*
X22728110Y44383569D01*
X22881784Y44352449D01*
X22579449Y44050643D01*
X22345267Y43486670D01*
X22344735Y42876009D01*
X22577932Y42311629D01*
X23009357Y41879449D01*
X23083149Y41848808D01*
X23065852Y41841643D01*
X22979446Y41585159D01*
X23880000Y40684605D01*
X24780554Y41585159D01*
X24694148Y41841643D01*
X24676326Y41848163D01*
X24748371Y41877932D01*
X25180551Y42309357D01*
X25414733Y42873330D01*
X25415209Y43420664D01*
X33533542Y43420664D01*
X33559161Y42810540D01*
X33743357Y42365852D01*
X33999841Y42279446D01*
X34900395Y43180000D01*
X35259605Y43180000D01*
X36160159Y42279446D01*
X36416643Y42365852D01*
X36626458Y42939336D01*
X36600839Y43549460D01*
X36416643Y43994148D01*
X36160159Y44080554D01*
X35259605Y43180000D01*
X34900395Y43180000D01*
X33999841Y44080554D01*
X33743357Y43994148D01*
X33533542Y43420664D01*
X25415209Y43420664D01*
X25415265Y43483991D01*
X25182068Y44048371D01*
X24879657Y44351312D01*
X25015317Y44376838D01*
X25231441Y44515910D01*
X25376431Y44728110D01*
X25427440Y44980000D01*
X25427440Y46780000D01*
X25383162Y47015317D01*
X25244090Y47231441D01*
X25031890Y47376431D01*
X24780000Y47427440D01*
X22980000Y47427440D01*
X22744683Y47383162D01*
X22528559Y47244090D01*
X22383569Y47031890D01*
X22332560Y46780000D01*
X18099946Y46780000D01*
X17984323Y46895824D01*
X17457091Y47114750D01*
X16886213Y47115248D01*
X16358600Y46897243D01*
X15954576Y46493923D01*
X15735650Y45966691D01*
X15735152Y45395813D01*
X10609638Y45395813D01*
X11396086Y45720767D01*
X12011273Y46334881D01*
X12344620Y47137670D01*
X12345379Y48006917D01*
X12013433Y48810286D01*
X11509599Y49315000D01*
X30175368Y49315000D01*
X29611629Y49082068D01*
X29179449Y48650643D01*
X28945267Y48086670D01*
X28944735Y47476009D01*
X29177932Y46911629D01*
X29609357Y46479449D01*
X29611404Y46478599D01*
X29391265Y46258845D01*
X29195223Y45786724D01*
X29194777Y45275519D01*
X29389995Y44803057D01*
X29751155Y44441265D01*
X30223276Y44245223D01*
X30734481Y44244777D01*
X30771708Y44260159D01*
X34179446Y44260159D01*
X35080000Y43359605D01*
X35980554Y44260159D01*
X35894148Y44516643D01*
X35320664Y44726458D01*
X34710540Y44700839D01*
X34265852Y44516643D01*
X34179446Y44260159D01*
X30771708Y44260159D01*
X31206943Y44439995D01*
X31568735Y44801155D01*
X31764777Y45273276D01*
X31765223Y45784481D01*
X31570005Y46256943D01*
X31348887Y46478448D01*
X31780551Y46909357D01*
X31913969Y47230664D01*
X45443542Y47230664D01*
X45469161Y46620540D01*
X45653357Y46175852D01*
X45909841Y46089446D01*
X46810395Y46990000D01*
X47169605Y46990000D01*
X48070159Y46089446D01*
X48326643Y46175852D01*
X48536458Y46749336D01*
X48510839Y47359460D01*
X48326643Y47804148D01*
X48070159Y47890554D01*
X47169605Y46990000D01*
X46810395Y46990000D01*
X45909841Y47890554D01*
X45653357Y47804148D01*
X45443542Y47230664D01*
X31913969Y47230664D01*
X32014733Y47473330D01*
X32015252Y48070159D01*
X46089446Y48070159D01*
X46990000Y47169605D01*
X47890554Y48070159D01*
X47804148Y48326643D01*
X47230664Y48536458D01*
X46620540Y48510839D01*
X46175852Y48326643D01*
X46089446Y48070159D01*
X32015252Y48070159D01*
X32015265Y48083991D01*
X31782068Y48648371D01*
X31350643Y49080551D01*
X30786670Y49314733D01*
X30480192Y49315000D01*
X67329154Y49315000D01*
X67242852Y49185839D01*
X67185000Y48895000D01*
X67185000Y48822463D01*
X67152808Y48790327D01*
X67010162Y48446799D01*
X67009838Y48074833D01*
X67151883Y47731057D01*
X67414673Y47467808D01*
X67758201Y47325162D01*
X67805077Y47325121D01*
X68032601Y47097597D01*
X68279163Y46932850D01*
X68570002Y46874998D01*
X69515002Y46874998D01*
X69805841Y46932850D01*
X70052403Y47097597D01*
X70454806Y47500000D01*
X76520198Y47500000D01*
X76534878Y47485320D01*
X76534838Y47439833D01*
X76676883Y47096057D01*
X76939673Y46832808D01*
X77283201Y46690162D01*
X77655167Y46689838D01*
X77998943Y46831883D01*
X78262192Y47094673D01*
X78371765Y47358554D01*
X78458597Y47394432D01*
X78581883Y47096057D01*
X78844673Y46832808D01*
X79188201Y46690162D01*
X79560167Y46689838D01*
X79903943Y46831883D01*
X79937118Y46865000D01*
X80010000Y46865000D01*
X80300839Y46922852D01*
X80547401Y47087599D01*
X80914803Y47455001D01*
X86165618Y47455001D01*
X86083542Y47230664D01*
X86109161Y46620540D01*
X86293357Y46175852D01*
X86549841Y46089446D01*
X87450395Y46990000D01*
X87436253Y47004143D01*
X87615858Y47183748D01*
X87630000Y47169605D01*
X87644143Y47183748D01*
X87823748Y47004143D01*
X87809605Y46990000D01*
X88710159Y46089446D01*
X88966643Y46175852D01*
X89176458Y46749336D01*
X89150839Y47359460D01*
X89111265Y47455001D01*
X98451483Y47455001D01*
X98392257Y47395878D01*
X98249611Y47052350D01*
X98249570Y47005474D01*
X96454096Y45210000D01*
X88976846Y45210000D01*
X88932068Y45318371D01*
X88500643Y45750551D01*
X88479806Y45759203D01*
X88530554Y45909841D01*
X87630000Y46810395D01*
X86729446Y45909841D01*
X86780035Y45759673D01*
X86761629Y45752068D01*
X86329449Y45320643D01*
X86095267Y44756670D01*
X86094735Y44146009D01*
X86327932Y43581629D01*
X86729182Y43179677D01*
X86329449Y42780643D01*
X86095267Y42216670D01*
X86094735Y41606009D01*
X86327932Y41041629D01*
X86729182Y40639677D01*
X86329449Y40240643D01*
X86095267Y39676670D01*
X86094735Y39066009D01*
X86327932Y38501629D01*
X86759357Y38069449D01*
X87323330Y37835267D01*
X87933991Y37834735D01*
X88498371Y38067932D01*
X88930551Y38499357D01*
X89164733Y39063330D01*
X89165265Y39673991D01*
X88932068Y40238371D01*
X88530818Y40640323D01*
X88930551Y41039357D01*
X89164733Y41603330D01*
X89165265Y42213991D01*
X88932068Y42778371D01*
X88920458Y42790001D01*
X123168823Y42790001D01*
X123159449Y42780643D01*
X122925267Y42216670D01*
X122924735Y41606009D01*
X123157932Y41041629D01*
X123559182Y40639677D01*
X123159449Y40240643D01*
X122925267Y39676670D01*
X122924735Y39066009D01*
X123157932Y38501629D01*
X123589357Y38069449D01*
X124153330Y37835267D01*
X124763991Y37834735D01*
X125328371Y38067932D01*
X125484141Y38223430D01*
X125571883Y38011078D01*
X125834673Y37747829D01*
X126178201Y37605183D01*
X126550167Y37604859D01*
X126787412Y37702887D01*
X126841883Y37571057D01*
X127104673Y37307808D01*
X127448201Y37165162D01*
X127820167Y37164838D01*
X128163943Y37306883D01*
X128427192Y37569673D01*
X128569838Y37913201D01*
X128569879Y37960077D01*
X132590000Y41980198D01*
X132590000Y39932463D01*
X132557808Y39900327D01*
X132415162Y39556799D01*
X132414838Y39184833D01*
X132556883Y38841057D01*
X132819673Y38577808D01*
X133163201Y38435162D01*
X133535167Y38434838D01*
X133878943Y38576883D01*
X134142192Y38839673D01*
X134284838Y39183201D01*
X134285162Y39555167D01*
X134143117Y39898943D01*
X134110000Y39932118D01*
X134110000Y42617537D01*
X134142192Y42649673D01*
X134284838Y42993201D01*
X134285162Y43365167D01*
X134143117Y43708943D01*
X134110000Y43742118D01*
X134110000Y44522537D01*
X134142192Y44554673D01*
X134284838Y44898201D01*
X134285162Y45270167D01*
X134143117Y45613943D01*
X134110000Y45647118D01*
X134110000Y47697537D01*
X134142192Y47729673D01*
X134284838Y48073201D01*
X134284879Y48120077D01*
X134299802Y48135000D01*
X134954890Y48135000D01*
X134954838Y48074833D01*
X135096883Y47731057D01*
X135130000Y47697882D01*
X135130000Y40640020D01*
X135187852Y40349181D01*
X135352599Y40102619D01*
X138764898Y36690320D01*
X138764858Y36644833D01*
X138906903Y36301057D01*
X139169693Y36037808D01*
X139513221Y35895162D01*
X139885187Y35894838D01*
X140228963Y36036883D01*
X140492212Y36299673D01*
X140634858Y36643201D01*
X140635182Y37015167D01*
X140493137Y37358943D01*
X140230347Y37622192D01*
X139886819Y37764838D01*
X139839943Y37764879D01*
X136650000Y40954822D01*
X136650000Y47697537D01*
X136682192Y47729673D01*
X136824838Y48073201D01*
X136824892Y48135000D01*
X141290198Y48135000D01*
X148289878Y41135320D01*
X148289838Y41089833D01*
X148431883Y40746057D01*
X148465000Y40712882D01*
X148465000Y38027463D01*
X148432808Y37995327D01*
X148290162Y37651799D01*
X148289838Y37279833D01*
X148431883Y36936057D01*
X148465000Y36902882D01*
X148465000Y28889802D01*
X146575197Y26999999D01*
X146479126Y26999999D01*
X146605424Y27126077D01*
X146824350Y27653309D01*
X146824848Y28224187D01*
X146606843Y28751800D01*
X146203523Y29155824D01*
X146137056Y29183423D01*
X146143605Y29186136D01*
X146217739Y29432255D01*
X145389600Y30260395D01*
X144561461Y29432255D01*
X144635595Y29186136D01*
X144642083Y29183804D01*
X144577800Y29157243D01*
X144173776Y28753923D01*
X143954850Y28226691D01*
X143954352Y27655813D01*
X144172357Y27128200D01*
X144575677Y26724176D01*
X144657531Y26690187D01*
X144577800Y26657243D01*
X144173776Y26253923D01*
X143954850Y25726691D01*
X143954352Y25155813D01*
X144172357Y24628200D01*
X144575677Y24224176D01*
X144629600Y24201785D01*
X144629600Y22250400D01*
X144687452Y21959561D01*
X144852199Y21712999D01*
X147195000Y19370198D01*
X147195000Y13080202D01*
X146824609Y12709811D01*
X146824848Y12984187D01*
X146606843Y13511800D01*
X146203523Y13915824D01*
X146137056Y13943423D01*
X146143605Y13946136D01*
X146217739Y14192255D01*
X145389600Y15020395D01*
X144561461Y14192255D01*
X144635595Y13946136D01*
X144642083Y13943804D01*
X144577800Y13917243D01*
X144173776Y13513923D01*
X143954850Y12986691D01*
X143954352Y12415813D01*
X144172357Y11888200D01*
X144575677Y11484176D01*
X144657531Y11450187D01*
X144577800Y11417243D01*
X144173776Y11013923D01*
X143954850Y10486691D01*
X143954352Y9915813D01*
X144172357Y9388200D01*
X144575677Y8984176D01*
X145102909Y8765250D01*
X145673787Y8764752D01*
X146201400Y8982757D01*
X146605424Y9386077D01*
X146824350Y9913309D01*
X146824848Y10484187D01*
X146802551Y10538149D01*
X148492401Y12227999D01*
X148657148Y12474561D01*
X148715000Y12765400D01*
X148715000Y16661483D01*
X150214621Y16661483D01*
X150546567Y15858114D01*
X151160681Y15242927D01*
X151963470Y14909580D01*
X152832717Y14908821D01*
X153636086Y15240767D01*
X154251273Y15854881D01*
X154584620Y16657670D01*
X154585379Y17526917D01*
X154253433Y18330286D01*
X153639319Y18945473D01*
X152836530Y19278820D01*
X151967283Y19279579D01*
X151163914Y18947633D01*
X150548727Y18333519D01*
X150215380Y17530730D01*
X150214621Y16661483D01*
X148715000Y16661483D01*
X148715000Y19685000D01*
X148657148Y19975839D01*
X148657148Y19975840D01*
X148492401Y20222401D01*
X146149600Y22565202D01*
X146149600Y23113083D01*
X150214621Y23113083D01*
X150546567Y22309714D01*
X151160681Y21694527D01*
X151963470Y21361180D01*
X152832717Y21360421D01*
X153636086Y21692367D01*
X154251273Y22306481D01*
X154584620Y23109270D01*
X154585379Y23978517D01*
X154253433Y24781886D01*
X153639319Y25397073D01*
X152836530Y25730420D01*
X151967283Y25731179D01*
X151163914Y25399233D01*
X150548727Y24785119D01*
X150215380Y23982330D01*
X150214621Y23113083D01*
X146149600Y23113083D01*
X146149600Y24201354D01*
X146201400Y24222757D01*
X146605424Y24626077D01*
X146824350Y25153309D01*
X146824635Y25479999D01*
X146889999Y25479999D01*
X147180838Y25537851D01*
X147427400Y25702598D01*
X149762401Y28037599D01*
X149927148Y28284161D01*
X149985000Y28575000D01*
X149985000Y31901483D01*
X150214621Y31901483D01*
X150546567Y31098114D01*
X151160681Y30482927D01*
X151963470Y30149580D01*
X152832717Y30148821D01*
X153636086Y30480767D01*
X154251273Y31094881D01*
X154584620Y31897670D01*
X154585379Y32766917D01*
X154253433Y33570286D01*
X153639319Y34185473D01*
X152836530Y34518820D01*
X151967283Y34519579D01*
X151163914Y34187633D01*
X150548727Y33573519D01*
X150215380Y32770730D01*
X150214621Y31901483D01*
X149985000Y31901483D01*
X149985000Y36902537D01*
X150017192Y36934673D01*
X150159838Y37278201D01*
X150160162Y37650167D01*
X150018117Y37993943D01*
X149985000Y38027118D01*
X149985000Y39471828D01*
X153832538Y39471828D01*
X154237709Y38491239D01*
X154987293Y37740345D01*
X155967173Y37333464D01*
X157028172Y37332538D01*
X158008761Y37737709D01*
X158759655Y38487293D01*
X159166536Y39467173D01*
X159167462Y40528172D01*
X158762291Y41508761D01*
X158012707Y42259655D01*
X157032827Y42666536D01*
X155971828Y42667462D01*
X154991239Y42262291D01*
X154240345Y41512707D01*
X153833464Y40532827D01*
X153832538Y39471828D01*
X149985000Y39471828D01*
X149985000Y40712537D01*
X150017192Y40744673D01*
X150159838Y41088201D01*
X150160162Y41460167D01*
X150018117Y41803943D01*
X149755327Y42067192D01*
X149411799Y42209838D01*
X149364923Y42209879D01*
X145519894Y46054908D01*
X145600167Y46054838D01*
X145943943Y46196883D01*
X146207192Y46459673D01*
X146349838Y46803201D01*
X146350162Y47175167D01*
X146208117Y47518943D01*
X145945327Y47782192D01*
X145601799Y47924838D01*
X145554923Y47924879D01*
X144164802Y49315000D01*
X159315000Y49315000D01*
X159315000Y685000D01*
X152509747Y685000D01*
X152628339Y970602D01*
X152628859Y1566782D01*
X152401192Y2117780D01*
X151979997Y2539710D01*
X151979069Y2540095D01*
X152399710Y2960003D01*
X152628339Y3510602D01*
X152628859Y4106782D01*
X152401192Y4657780D01*
X151979997Y5079710D01*
X151429398Y5308339D01*
X150833218Y5308859D01*
X150282220Y5081192D01*
X149860290Y4659997D01*
X149859905Y4659069D01*
X149439997Y5079710D01*
X148889398Y5308339D01*
X148293218Y5308859D01*
X147742220Y5081192D01*
X147320290Y4659997D01*
X147319905Y4659069D01*
X146899997Y5079710D01*
X146349398Y5308339D01*
X145753218Y5308859D01*
X145202220Y5081192D01*
X144780290Y4659997D01*
X144779905Y4659069D01*
X144359997Y5079710D01*
X143809398Y5308339D01*
X143213218Y5308859D01*
X142662220Y5081192D01*
X142240290Y4659997D01*
X142239905Y4659069D01*
X141819997Y5079710D01*
X141269398Y5308339D01*
X140673218Y5308859D01*
X140122220Y5081192D01*
X139700290Y4659997D01*
X139699905Y4659069D01*
X139279997Y5079710D01*
X138729398Y5308339D01*
X138133218Y5308859D01*
X137582220Y5081192D01*
X137160290Y4659997D01*
X137159905Y4659069D01*
X136739997Y5079710D01*
X136189398Y5308339D01*
X135593218Y5308859D01*
X135042220Y5081192D01*
X134620290Y4659997D01*
X134603459Y4619463D01*
X134403805Y4684200D01*
X133529605Y3810000D01*
X134403805Y2935800D01*
X134603033Y3000399D01*
X134618808Y2962220D01*
X135040003Y2540290D01*
X135040931Y2539905D01*
X134620290Y2119997D01*
X134603459Y2079463D01*
X134403805Y2144200D01*
X133529605Y1270000D01*
X133543748Y1255858D01*
X133364143Y1076253D01*
X133350000Y1090395D01*
X133335858Y1076253D01*
X133156253Y1255858D01*
X133170395Y1270000D01*
X132296195Y2144200D01*
X132080000Y2074099D01*
X131863805Y2144200D01*
X130989605Y1270000D01*
X131003748Y1255858D01*
X130824143Y1076253D01*
X130810000Y1090395D01*
X130795858Y1076253D01*
X130616253Y1255858D01*
X130630395Y1270000D01*
X129756195Y2144200D01*
X129556967Y2079601D01*
X129541192Y2117780D01*
X129119997Y2539710D01*
X129119069Y2540095D01*
X129335546Y2756195D01*
X129935800Y2756195D01*
X130005901Y2540000D01*
X129935800Y2323805D01*
X130810000Y1449605D01*
X131684200Y2323805D01*
X131614099Y2540000D01*
X131684200Y2756195D01*
X132475800Y2756195D01*
X132545901Y2540000D01*
X132475800Y2323805D01*
X133350000Y1449605D01*
X134224200Y2323805D01*
X134154099Y2540000D01*
X134224200Y2756195D01*
X133350000Y3630395D01*
X132475800Y2756195D01*
X131684200Y2756195D01*
X130810000Y3630395D01*
X129935800Y2756195D01*
X129335546Y2756195D01*
X129539710Y2960003D01*
X129556541Y3000537D01*
X129756195Y2935800D01*
X130630395Y3810000D01*
X130989605Y3810000D01*
X131863805Y2935800D01*
X132080000Y3005901D01*
X132296195Y2935800D01*
X133170395Y3810000D01*
X132296195Y4684200D01*
X132080000Y4614099D01*
X131863805Y4684200D01*
X130989605Y3810000D01*
X130630395Y3810000D01*
X129756195Y4684200D01*
X129556967Y4619601D01*
X129541192Y4657780D01*
X129335526Y4863805D01*
X129935800Y4863805D01*
X130810000Y3989605D01*
X131684200Y4863805D01*
X132475800Y4863805D01*
X133350000Y3989605D01*
X134224200Y4863805D01*
X134142259Y5116516D01*
X133581970Y5320248D01*
X132986365Y5294058D01*
X132557741Y5116516D01*
X132475800Y4863805D01*
X131684200Y4863805D01*
X131602259Y5116516D01*
X131041970Y5320248D01*
X130446365Y5294058D01*
X130017741Y5116516D01*
X129935800Y4863805D01*
X129335526Y4863805D01*
X129119997Y5079710D01*
X128569398Y5308339D01*
X127973218Y5308859D01*
X127422220Y5081192D01*
X127000290Y4659997D01*
X126999905Y4659069D01*
X126579997Y5079710D01*
X126490000Y5117080D01*
X126490000Y7873083D01*
X129894621Y7873083D01*
X130226567Y7069714D01*
X130840681Y6454527D01*
X131643470Y6121180D01*
X132512717Y6120421D01*
X133316086Y6452367D01*
X133931273Y7066481D01*
X134264620Y7869270D01*
X134264623Y7873083D01*
X150214621Y7873083D01*
X150546567Y7069714D01*
X151160681Y6454527D01*
X151963470Y6121180D01*
X152832717Y6120421D01*
X153636086Y6452367D01*
X154251273Y7066481D01*
X154584620Y7869270D01*
X154584859Y8143482D01*
X154987293Y7740345D01*
X155967173Y7333464D01*
X157028172Y7332538D01*
X158008761Y7737709D01*
X158759655Y8487293D01*
X159166536Y9467173D01*
X159167462Y10528172D01*
X158762291Y11508761D01*
X158012707Y12259655D01*
X157032827Y12666536D01*
X155971828Y12667462D01*
X154991239Y12262291D01*
X154240345Y11512707D01*
X153833464Y10532827D01*
X153832967Y9963087D01*
X153639319Y10157073D01*
X152836530Y10490420D01*
X151967283Y10491179D01*
X151163914Y10159233D01*
X150548727Y9545119D01*
X150215380Y8742330D01*
X150214621Y7873083D01*
X134264623Y7873083D01*
X134265379Y8738517D01*
X133933433Y9541886D01*
X133319319Y10157073D01*
X132516530Y10490420D01*
X131647283Y10491179D01*
X130843914Y10159233D01*
X130228727Y9545119D01*
X129895380Y8742330D01*
X129894621Y7873083D01*
X126490000Y7873083D01*
X126490000Y9539600D01*
X126444388Y9768905D01*
X126504350Y9913309D01*
X126504848Y10484187D01*
X126286843Y11011800D01*
X125883523Y11415824D01*
X125801669Y11449813D01*
X125881400Y11482757D01*
X126285424Y11886077D01*
X126504350Y12413309D01*
X126504848Y12984187D01*
X126286843Y13511800D01*
X125883523Y13915824D01*
X125817056Y13943423D01*
X125823605Y13946136D01*
X125897739Y14192255D01*
X125069600Y15020395D01*
X124241461Y14192255D01*
X124315595Y13946136D01*
X124322083Y13943804D01*
X124257800Y13917243D01*
X123853776Y13513923D01*
X123634850Y12986691D01*
X123634352Y12415813D01*
X123852357Y11888200D01*
X124255677Y11484176D01*
X124337531Y11450187D01*
X124257800Y11417243D01*
X123853776Y11013923D01*
X123634850Y10486691D01*
X123634352Y9915813D01*
X123656649Y9861851D01*
X122652599Y8857801D01*
X122487852Y8611239D01*
X122430000Y8320400D01*
X122430000Y5117462D01*
X122342220Y5081192D01*
X121920290Y4659997D01*
X121903459Y4619463D01*
X121703805Y4684200D01*
X120829605Y3810000D01*
X121703805Y2935800D01*
X121903033Y3000399D01*
X121918808Y2962220D01*
X122340003Y2540290D01*
X122340931Y2539905D01*
X121920290Y2119997D01*
X121903459Y2079463D01*
X121703805Y2144200D01*
X120829605Y1270000D01*
X120843748Y1255858D01*
X120664143Y1076253D01*
X120650000Y1090395D01*
X120635858Y1076253D01*
X120456253Y1255858D01*
X120470395Y1270000D01*
X119596195Y2144200D01*
X119396967Y2079601D01*
X119381192Y2117780D01*
X118959997Y2539710D01*
X118959069Y2540095D01*
X119175546Y2756195D01*
X119775800Y2756195D01*
X119845901Y2540000D01*
X119775800Y2323805D01*
X120650000Y1449605D01*
X121524200Y2323805D01*
X121454099Y2540000D01*
X121524200Y2756195D01*
X120650000Y3630395D01*
X119775800Y2756195D01*
X119175546Y2756195D01*
X119379710Y2960003D01*
X119396541Y3000537D01*
X119596195Y2935800D01*
X120470395Y3810000D01*
X119596195Y4684200D01*
X119396967Y4619601D01*
X119381192Y4657780D01*
X119175526Y4863805D01*
X119775800Y4863805D01*
X120650000Y3989605D01*
X121524200Y4863805D01*
X121442259Y5116516D01*
X120881970Y5320248D01*
X120286365Y5294058D01*
X119857741Y5116516D01*
X119775800Y4863805D01*
X119175526Y4863805D01*
X118959997Y5079710D01*
X118409398Y5308339D01*
X117813218Y5308859D01*
X117262220Y5081192D01*
X116840290Y4659997D01*
X116839905Y4659069D01*
X116419997Y5079710D01*
X115869398Y5308339D01*
X115273218Y5308859D01*
X114722220Y5081192D01*
X114300290Y4659997D01*
X114299905Y4659069D01*
X113879997Y5079710D01*
X113329398Y5308339D01*
X112733218Y5308859D01*
X112182220Y5081192D01*
X111760290Y4659997D01*
X111759905Y4659069D01*
X111339997Y5079710D01*
X110789398Y5308339D01*
X110193218Y5308859D01*
X109642220Y5081192D01*
X109220290Y4659997D01*
X109219905Y4659069D01*
X108799997Y5079710D01*
X108249398Y5308339D01*
X107653218Y5308859D01*
X107102220Y5081192D01*
X106680290Y4659997D01*
X106679905Y4659069D01*
X106259997Y5079710D01*
X105709398Y5308339D01*
X105113218Y5308859D01*
X104562220Y5081192D01*
X104140290Y4659997D01*
X104139905Y4659069D01*
X103719997Y5079710D01*
X103630000Y5117080D01*
X103630000Y7873083D01*
X109574621Y7873083D01*
X109906567Y7069714D01*
X110520681Y6454527D01*
X111323470Y6121180D01*
X112192717Y6120421D01*
X112996086Y6452367D01*
X113611273Y7066481D01*
X113944620Y7869270D01*
X113945379Y8738517D01*
X113613433Y9541886D01*
X112999319Y10157073D01*
X112196530Y10490420D01*
X111327283Y10491179D01*
X110523914Y10159233D01*
X109908727Y9545119D01*
X109575380Y8742330D01*
X109574621Y7873083D01*
X103630000Y7873083D01*
X103630000Y8005598D01*
X104411146Y8786744D01*
X104462909Y8765250D01*
X105033787Y8764752D01*
X105561400Y8982757D01*
X105965424Y9386077D01*
X106184350Y9913309D01*
X106184848Y10484187D01*
X105966843Y11011800D01*
X105563523Y11415824D01*
X105481669Y11449813D01*
X105561400Y11482757D01*
X105965424Y11886077D01*
X106184350Y12413309D01*
X106184848Y12984187D01*
X105966843Y13511800D01*
X105563523Y13915824D01*
X105497056Y13943423D01*
X105503605Y13946136D01*
X105577739Y14192255D01*
X104749600Y15020395D01*
X103921461Y14192255D01*
X103995595Y13946136D01*
X104002083Y13943804D01*
X103937800Y13917243D01*
X103533776Y13513923D01*
X103314850Y12986691D01*
X103314352Y12415813D01*
X103532357Y11888200D01*
X103935677Y11484176D01*
X104017531Y11450187D01*
X103937800Y11417243D01*
X103533776Y11013923D01*
X103314850Y10486691D01*
X103314352Y9915813D01*
X103336649Y9861851D01*
X102332599Y8857801D01*
X102167852Y8611239D01*
X102110000Y8320400D01*
X102110000Y5117462D01*
X102022220Y5081192D01*
X101600290Y4659997D01*
X101583459Y4619463D01*
X101383805Y4684200D01*
X100509605Y3810000D01*
X101383805Y2935800D01*
X101583033Y3000399D01*
X101598808Y2962220D01*
X102020003Y2540290D01*
X102020931Y2539905D01*
X101600290Y2119997D01*
X101583459Y2079463D01*
X101383805Y2144200D01*
X100509605Y1270000D01*
X100523748Y1255858D01*
X100344143Y1076253D01*
X100330000Y1090395D01*
X100315858Y1076253D01*
X100136253Y1255858D01*
X100150395Y1270000D01*
X99276195Y2144200D01*
X99076967Y2079601D01*
X99061192Y2117780D01*
X98639997Y2539710D01*
X98639069Y2540095D01*
X98855546Y2756195D01*
X99455800Y2756195D01*
X99525901Y2540000D01*
X99455800Y2323805D01*
X100330000Y1449605D01*
X101204200Y2323805D01*
X101134099Y2540000D01*
X101204200Y2756195D01*
X100330000Y3630395D01*
X99455800Y2756195D01*
X98855546Y2756195D01*
X99059710Y2960003D01*
X99076541Y3000537D01*
X99276195Y2935800D01*
X100150395Y3810000D01*
X99276195Y4684200D01*
X99076967Y4619601D01*
X99061192Y4657780D01*
X98855526Y4863805D01*
X99455800Y4863805D01*
X100330000Y3989605D01*
X101204200Y4863805D01*
X101122259Y5116516D01*
X100561970Y5320248D01*
X99966365Y5294058D01*
X99537741Y5116516D01*
X99455800Y4863805D01*
X98855526Y4863805D01*
X98639997Y5079710D01*
X98089398Y5308339D01*
X97493218Y5308859D01*
X96942220Y5081192D01*
X96520290Y4659997D01*
X96519905Y4659069D01*
X96099997Y5079710D01*
X95549398Y5308339D01*
X94953218Y5308859D01*
X94402220Y5081192D01*
X93980290Y4659997D01*
X93979905Y4659069D01*
X93559997Y5079710D01*
X93009398Y5308339D01*
X92413218Y5308859D01*
X92323156Y5271646D01*
X91474033Y6120769D01*
X91872717Y6120421D01*
X92676086Y6452367D01*
X93291273Y7066481D01*
X93624620Y7869270D01*
X93625379Y8738517D01*
X93293433Y9541886D01*
X92679319Y10157073D01*
X91876530Y10490420D01*
X91007283Y10491179D01*
X90203914Y10159233D01*
X89588727Y9545119D01*
X89255380Y8742330D01*
X89255028Y8339774D01*
X85732400Y11862402D01*
X85656619Y11913037D01*
X85864350Y12413309D01*
X85864848Y12984187D01*
X85646843Y13511800D01*
X85243523Y13915824D01*
X85177056Y13943423D01*
X85183605Y13946136D01*
X85257739Y14192255D01*
X84429600Y15020395D01*
X83601461Y14192255D01*
X83675595Y13946136D01*
X83682083Y13943804D01*
X83617800Y13917243D01*
X83213776Y13513923D01*
X82994850Y12986691D01*
X82994352Y12415813D01*
X83131041Y12085001D01*
X82287526Y12085001D01*
X78955750Y15416777D01*
X82982635Y15416777D01*
X83009822Y14846546D01*
X83175736Y14445995D01*
X83421855Y14371861D01*
X84249995Y15200000D01*
X84609205Y15200000D01*
X85437345Y14371861D01*
X85683464Y14445995D01*
X85876565Y14983223D01*
X85849378Y15553454D01*
X85683464Y15954005D01*
X85437345Y16028139D01*
X84609205Y15200000D01*
X84249995Y15200000D01*
X83421855Y16028139D01*
X83175736Y15954005D01*
X82982635Y15416777D01*
X78955750Y15416777D01*
X78164782Y16207745D01*
X83601461Y16207745D01*
X84429600Y15379605D01*
X85257739Y16207745D01*
X85183605Y16453864D01*
X84646377Y16646965D01*
X84076146Y16619778D01*
X83675595Y16453864D01*
X83601461Y16207745D01*
X78164782Y16207745D01*
X77711044Y16661483D01*
X89254621Y16661483D01*
X89586567Y15858114D01*
X90200681Y15242927D01*
X91003470Y14909580D01*
X91872717Y14908821D01*
X92676086Y15240767D01*
X92852403Y15416777D01*
X103302635Y15416777D01*
X103329822Y14846546D01*
X103495736Y14445995D01*
X103741855Y14371861D01*
X104569995Y15200000D01*
X104929205Y15200000D01*
X105757345Y14371861D01*
X106003464Y14445995D01*
X106196565Y14983223D01*
X106169378Y15553454D01*
X106003464Y15954005D01*
X105757345Y16028139D01*
X104929205Y15200000D01*
X104569995Y15200000D01*
X103741855Y16028139D01*
X103495736Y15954005D01*
X103302635Y15416777D01*
X92852403Y15416777D01*
X93291273Y15854881D01*
X93437794Y16207745D01*
X103921461Y16207745D01*
X104749600Y15379605D01*
X105577739Y16207745D01*
X105503605Y16453864D01*
X104966377Y16646965D01*
X104396146Y16619778D01*
X103995595Y16453864D01*
X103921461Y16207745D01*
X93437794Y16207745D01*
X93624620Y16657670D01*
X93624623Y16661483D01*
X109574621Y16661483D01*
X109906567Y15858114D01*
X110520681Y15242927D01*
X111323470Y14909580D01*
X112192717Y14908821D01*
X112996086Y15240767D01*
X113172403Y15416777D01*
X123622635Y15416777D01*
X123649822Y14846546D01*
X123815736Y14445995D01*
X124061855Y14371861D01*
X124889995Y15200000D01*
X125249205Y15200000D01*
X126077345Y14371861D01*
X126323464Y14445995D01*
X126516565Y14983223D01*
X126489378Y15553454D01*
X126323464Y15954005D01*
X126077345Y16028139D01*
X125249205Y15200000D01*
X124889995Y15200000D01*
X124061855Y16028139D01*
X123815736Y15954005D01*
X123622635Y15416777D01*
X113172403Y15416777D01*
X113611273Y15854881D01*
X113757794Y16207745D01*
X124241461Y16207745D01*
X125069600Y15379605D01*
X125897739Y16207745D01*
X125823605Y16453864D01*
X125286377Y16646965D01*
X124716146Y16619778D01*
X124315595Y16453864D01*
X124241461Y16207745D01*
X113757794Y16207745D01*
X113944620Y16657670D01*
X113944623Y16661483D01*
X129894621Y16661483D01*
X130226567Y15858114D01*
X130840681Y15242927D01*
X131643470Y14909580D01*
X132512717Y14908821D01*
X133316086Y15240767D01*
X133492403Y15416777D01*
X143942635Y15416777D01*
X143969822Y14846546D01*
X144135736Y14445995D01*
X144381855Y14371861D01*
X145209995Y15200000D01*
X145569205Y15200000D01*
X146397345Y14371861D01*
X146643464Y14445995D01*
X146836565Y14983223D01*
X146809378Y15553454D01*
X146643464Y15954005D01*
X146397345Y16028139D01*
X145569205Y15200000D01*
X145209995Y15200000D01*
X144381855Y16028139D01*
X144135736Y15954005D01*
X143942635Y15416777D01*
X133492403Y15416777D01*
X133931273Y15854881D01*
X134077794Y16207745D01*
X144561461Y16207745D01*
X145389600Y15379605D01*
X146217739Y16207745D01*
X146143605Y16453864D01*
X145606377Y16646965D01*
X145036146Y16619778D01*
X144635595Y16453864D01*
X144561461Y16207745D01*
X134077794Y16207745D01*
X134264620Y16657670D01*
X134265379Y17526917D01*
X133933433Y18330286D01*
X133319319Y18945473D01*
X132516530Y19278820D01*
X131647283Y19279579D01*
X130843914Y18947633D01*
X130228727Y18333519D01*
X129895380Y17530730D01*
X129894621Y16661483D01*
X113944623Y16661483D01*
X113945379Y17526917D01*
X113613433Y18330286D01*
X112999319Y18945473D01*
X112196530Y19278820D01*
X111327283Y19279579D01*
X110523914Y18947633D01*
X109908727Y18333519D01*
X109575380Y17530730D01*
X109574621Y16661483D01*
X93624623Y16661483D01*
X93625379Y17526917D01*
X93293433Y18330286D01*
X92679319Y18945473D01*
X91876530Y19278820D01*
X91007283Y19279579D01*
X90203914Y18947633D01*
X89588727Y18333519D01*
X89255380Y17530730D01*
X89254621Y16661483D01*
X77711044Y16661483D01*
X75420126Y18952401D01*
X75173564Y19117148D01*
X74882725Y19175000D01*
X74857463Y19175000D01*
X74825327Y19207192D01*
X74481799Y19349838D01*
X74109833Y19350162D01*
X73766057Y19208117D01*
X73502808Y18945327D01*
X73360162Y18601799D01*
X73359838Y18229833D01*
X73501883Y17886057D01*
X73764673Y17622808D01*
X74108201Y17480162D01*
X74480167Y17479838D01*
X74666213Y17556710D01*
X74952923Y17270000D01*
X73660000Y17270000D01*
X73369161Y17212148D01*
X73305067Y17169322D01*
X73305379Y17526917D01*
X72973433Y18330286D01*
X72359319Y18945473D01*
X71556530Y19278820D01*
X70687283Y19279579D01*
X69883914Y18947633D01*
X69268727Y18333519D01*
X68935380Y17530730D01*
X68934621Y16661483D01*
X69266567Y15858114D01*
X69880681Y15242927D01*
X70683470Y14909580D01*
X70984515Y14909317D01*
X67035198Y10960000D01*
X65348246Y10960000D01*
X65326843Y11011800D01*
X64923523Y11415824D01*
X64841669Y11449813D01*
X64921400Y11482757D01*
X65325424Y11886077D01*
X65544350Y12413309D01*
X65544848Y12984187D01*
X65326843Y13511800D01*
X64923523Y13915824D01*
X64857056Y13943423D01*
X64863605Y13946136D01*
X64937739Y14192255D01*
X64109600Y15020395D01*
X63281461Y14192255D01*
X63355595Y13946136D01*
X63362083Y13943804D01*
X63297800Y13917243D01*
X62893776Y13513923D01*
X62674850Y12986691D01*
X62674577Y12674179D01*
X62535439Y12767148D01*
X62244600Y12825000D01*
X60325000Y12825000D01*
X60034160Y12767148D01*
X59787599Y12602401D01*
X58517599Y11332401D01*
X58352852Y11085839D01*
X58295000Y10795000D01*
X58295000Y9525000D01*
X58352852Y9234161D01*
X58517599Y8987599D01*
X61692599Y5812599D01*
X61939161Y5647852D01*
X62230000Y5590000D01*
X65676512Y5590000D01*
X66323649Y4942863D01*
X66040290Y4659997D01*
X66023459Y4619463D01*
X65823805Y4684200D01*
X64949605Y3810000D01*
X65823805Y2935800D01*
X66023033Y3000399D01*
X66038808Y2962220D01*
X66460003Y2540290D01*
X66460931Y2539905D01*
X66040290Y2119997D01*
X66023459Y2079463D01*
X65823805Y2144200D01*
X64949605Y1270000D01*
X64963748Y1255858D01*
X64784143Y1076253D01*
X64770000Y1090395D01*
X64755858Y1076253D01*
X64576253Y1255858D01*
X64590395Y1270000D01*
X63716195Y2144200D01*
X63516967Y2079601D01*
X63501192Y2117780D01*
X63079997Y2539710D01*
X63079069Y2540095D01*
X63295546Y2756195D01*
X63895800Y2756195D01*
X63965901Y2540000D01*
X63895800Y2323805D01*
X64770000Y1449605D01*
X65644200Y2323805D01*
X65574099Y2540000D01*
X65644200Y2756195D01*
X64770000Y3630395D01*
X63895800Y2756195D01*
X63295546Y2756195D01*
X63499710Y2960003D01*
X63516541Y3000537D01*
X63716195Y2935800D01*
X64590395Y3810000D01*
X63716195Y4684200D01*
X63516967Y4619601D01*
X63501192Y4657780D01*
X63295526Y4863805D01*
X63895800Y4863805D01*
X64770000Y3989605D01*
X65644200Y4863805D01*
X65562259Y5116516D01*
X65001970Y5320248D01*
X64406365Y5294058D01*
X63977741Y5116516D01*
X63895800Y4863805D01*
X63295526Y4863805D01*
X63079997Y5079710D01*
X62529398Y5308339D01*
X61933218Y5308859D01*
X61382220Y5081192D01*
X60960290Y4659997D01*
X60959905Y4659069D01*
X60539997Y5079710D01*
X59989398Y5308339D01*
X59393218Y5308859D01*
X58842220Y5081192D01*
X58420290Y4659997D01*
X58419905Y4659069D01*
X57999997Y5079710D01*
X57449398Y5308339D01*
X56853218Y5308859D01*
X56302220Y5081192D01*
X55880290Y4659997D01*
X55879905Y4659069D01*
X55459997Y5079710D01*
X54909398Y5308339D01*
X54313218Y5308859D01*
X53762220Y5081192D01*
X53340290Y4659997D01*
X53339905Y4659069D01*
X52919997Y5079710D01*
X52369398Y5308339D01*
X51773218Y5308859D01*
X51664546Y5263957D01*
X51497240Y5375747D01*
X51206401Y5433599D01*
X46441203Y5433599D01*
X44549600Y7325202D01*
X44549600Y7873083D01*
X48614621Y7873083D01*
X48946567Y7069714D01*
X49560681Y6454527D01*
X50363470Y6121180D01*
X51232717Y6120421D01*
X52036086Y6452367D01*
X52651273Y7066481D01*
X52984620Y7869270D01*
X52985379Y8738517D01*
X52653433Y9541886D01*
X52039319Y10157073D01*
X51236530Y10490420D01*
X50367283Y10491179D01*
X49563914Y10159233D01*
X48948727Y9545119D01*
X48615380Y8742330D01*
X48614621Y7873083D01*
X44549600Y7873083D01*
X44549600Y8961354D01*
X44601400Y8982757D01*
X45005424Y9386077D01*
X45224350Y9913309D01*
X45224848Y10484187D01*
X45006843Y11011800D01*
X44603523Y11415824D01*
X44521669Y11449813D01*
X44601400Y11482757D01*
X45005424Y11886077D01*
X45224350Y12413309D01*
X45224848Y12984187D01*
X45006843Y13511800D01*
X44603523Y13915824D01*
X44537056Y13943423D01*
X44543605Y13946136D01*
X44617739Y14192255D01*
X43789600Y15020395D01*
X42961461Y14192255D01*
X43035595Y13946136D01*
X43042083Y13943804D01*
X42977800Y13917243D01*
X42573776Y13513923D01*
X42354850Y12986691D01*
X42354352Y12415813D01*
X42572357Y11888200D01*
X42975677Y11484176D01*
X43057531Y11450187D01*
X42977800Y11417243D01*
X42573776Y11013923D01*
X42354850Y10486691D01*
X42354352Y9915813D01*
X42572357Y9388200D01*
X42975677Y8984176D01*
X43029600Y8961785D01*
X43029600Y7010400D01*
X43087452Y6719561D01*
X43252199Y6472999D01*
X45589000Y4136198D01*
X45835562Y3971451D01*
X46126401Y3913599D01*
X50571490Y3913599D01*
X50571141Y3513218D01*
X50798808Y2962220D01*
X51220003Y2540290D01*
X51220931Y2539905D01*
X50800290Y2119997D01*
X50571661Y1569398D01*
X50571141Y973218D01*
X50690230Y685000D01*
X685000Y685000D01*
X685000Y9471828D01*
X832538Y9471828D01*
X1237709Y8491239D01*
X1987293Y7740345D01*
X2967173Y7333464D01*
X4028172Y7332538D01*
X5008761Y7737709D01*
X5144371Y7873083D01*
X7974621Y7873083D01*
X8306567Y7069714D01*
X8920681Y6454527D01*
X9723470Y6121180D01*
X10592717Y6120421D01*
X11396086Y6452367D01*
X12011273Y7066481D01*
X12344620Y7869270D01*
X12344623Y7873083D01*
X28294621Y7873083D01*
X28626567Y7069714D01*
X29240681Y6454527D01*
X30043470Y6121180D01*
X30912717Y6120421D01*
X31716086Y6452367D01*
X32331273Y7066481D01*
X32664620Y7869270D01*
X32665379Y8738517D01*
X32333433Y9541886D01*
X31719319Y10157073D01*
X30916530Y10490420D01*
X30047283Y10491179D01*
X29243914Y10159233D01*
X28628727Y9545119D01*
X28295380Y8742330D01*
X28294621Y7873083D01*
X12344623Y7873083D01*
X12345379Y8738517D01*
X12157898Y9192255D01*
X16342261Y9192255D01*
X16416395Y8946136D01*
X16953623Y8753035D01*
X17523854Y8780222D01*
X17924405Y8946136D01*
X17998539Y9192255D01*
X17170400Y10020395D01*
X16342261Y9192255D01*
X12157898Y9192255D01*
X12013433Y9541886D01*
X11399319Y10157073D01*
X10773883Y10416777D01*
X15723435Y10416777D01*
X15750622Y9846546D01*
X15916536Y9445995D01*
X16162655Y9371861D01*
X16990795Y10200000D01*
X17350005Y10200000D01*
X18178145Y9371861D01*
X18424264Y9445995D01*
X18617365Y9983223D01*
X18590178Y10553454D01*
X18424264Y10954005D01*
X18178145Y11028139D01*
X17350005Y10200000D01*
X16990795Y10200000D01*
X16162655Y11028139D01*
X15916536Y10954005D01*
X15723435Y10416777D01*
X10773883Y10416777D01*
X10596530Y10490420D01*
X9727283Y10491179D01*
X8923914Y10159233D01*
X8308727Y9545119D01*
X7975380Y8742330D01*
X7974621Y7873083D01*
X5144371Y7873083D01*
X5759655Y8487293D01*
X6166536Y9467173D01*
X6167462Y10528172D01*
X5762291Y11508761D01*
X5012707Y12259655D01*
X4032827Y12666536D01*
X2971828Y12667462D01*
X1991239Y12262291D01*
X1240345Y11512707D01*
X833464Y10532827D01*
X832538Y9471828D01*
X685000Y9471828D01*
X685000Y16661483D01*
X7974621Y16661483D01*
X8306567Y15858114D01*
X8920681Y15242927D01*
X9723470Y14909580D01*
X10592717Y14908821D01*
X10609638Y14915813D01*
X15735152Y14915813D01*
X15953157Y14388200D01*
X16356477Y13984176D01*
X16438331Y13950187D01*
X16358600Y13917243D01*
X15954576Y13513923D01*
X15735650Y12986691D01*
X15735152Y12415813D01*
X15953157Y11888200D01*
X16356477Y11484176D01*
X16422944Y11456577D01*
X16416395Y11453864D01*
X16342261Y11207745D01*
X17170400Y10379605D01*
X17998539Y11207745D01*
X17924405Y11453864D01*
X17917917Y11456196D01*
X17982200Y11482757D01*
X18386224Y11886077D01*
X18605150Y12413309D01*
X18605152Y12415813D01*
X22034352Y12415813D01*
X22252357Y11888200D01*
X22655677Y11484176D01*
X22737531Y11450187D01*
X22657800Y11417243D01*
X22253776Y11013923D01*
X22034850Y10486691D01*
X22034352Y9915813D01*
X22252357Y9388200D01*
X22655677Y8984176D01*
X23182909Y8765250D01*
X23753787Y8764752D01*
X24281400Y8982757D01*
X24685424Y9386077D01*
X24904350Y9913309D01*
X24904848Y10484187D01*
X24686843Y11011800D01*
X24283523Y11415824D01*
X24201669Y11449813D01*
X24281400Y11482757D01*
X24685424Y11886077D01*
X24904350Y12413309D01*
X24904848Y12984187D01*
X24686843Y13511800D01*
X24283523Y13915824D01*
X24217056Y13943423D01*
X24223605Y13946136D01*
X24297739Y14192255D01*
X23469600Y15020395D01*
X22641461Y14192255D01*
X22715595Y13946136D01*
X22722083Y13943804D01*
X22657800Y13917243D01*
X22253776Y13513923D01*
X22034850Y12986691D01*
X22034352Y12415813D01*
X18605152Y12415813D01*
X18605648Y12984187D01*
X18387643Y13511800D01*
X17984323Y13915824D01*
X17902469Y13949813D01*
X17982200Y13982757D01*
X18386224Y14386077D01*
X18605150Y14913309D01*
X18605589Y15416777D01*
X22022635Y15416777D01*
X22049822Y14846546D01*
X22215736Y14445995D01*
X22461855Y14371861D01*
X23289995Y15200000D01*
X23649205Y15200000D01*
X24477345Y14371861D01*
X24723464Y14445995D01*
X24916565Y14983223D01*
X24889378Y15553454D01*
X24723464Y15954005D01*
X24477345Y16028139D01*
X23649205Y15200000D01*
X23289995Y15200000D01*
X22461855Y16028139D01*
X22215736Y15954005D01*
X22022635Y15416777D01*
X18605589Y15416777D01*
X18605648Y15484187D01*
X18387643Y16011800D01*
X18192040Y16207745D01*
X22641461Y16207745D01*
X23469600Y15379605D01*
X24297739Y16207745D01*
X24223605Y16453864D01*
X23686377Y16646965D01*
X23116146Y16619778D01*
X22715595Y16453864D01*
X22641461Y16207745D01*
X18192040Y16207745D01*
X17984323Y16415824D01*
X17457091Y16634750D01*
X16886213Y16635248D01*
X16358600Y16417243D01*
X15954576Y16013923D01*
X15735650Y15486691D01*
X15735152Y14915813D01*
X10609638Y14915813D01*
X11396086Y15240767D01*
X12011273Y15854881D01*
X12344620Y16657670D01*
X12344623Y16661483D01*
X28294621Y16661483D01*
X28626567Y15858114D01*
X29240681Y15242927D01*
X30043470Y14909580D01*
X30912717Y14908821D01*
X31716086Y15240767D01*
X31892403Y15416777D01*
X42342635Y15416777D01*
X42369822Y14846546D01*
X42535736Y14445995D01*
X42781855Y14371861D01*
X43609995Y15200000D01*
X43969205Y15200000D01*
X44797345Y14371861D01*
X45043464Y14445995D01*
X45236565Y14983223D01*
X45209378Y15553454D01*
X45043464Y15954005D01*
X44797345Y16028139D01*
X43969205Y15200000D01*
X43609995Y15200000D01*
X42781855Y16028139D01*
X42535736Y15954005D01*
X42342635Y15416777D01*
X31892403Y15416777D01*
X32331273Y15854881D01*
X32477794Y16207745D01*
X42961461Y16207745D01*
X43789600Y15379605D01*
X44617739Y16207745D01*
X44543605Y16453864D01*
X44006377Y16646965D01*
X43436146Y16619778D01*
X43035595Y16453864D01*
X42961461Y16207745D01*
X32477794Y16207745D01*
X32664620Y16657670D01*
X32664623Y16661483D01*
X48614621Y16661483D01*
X48946567Y15858114D01*
X49560681Y15242927D01*
X50363470Y14909580D01*
X51232717Y14908821D01*
X52036086Y15240767D01*
X52212403Y15416777D01*
X62662635Y15416777D01*
X62689822Y14846546D01*
X62855736Y14445995D01*
X63101855Y14371861D01*
X63929995Y15200000D01*
X64289205Y15200000D01*
X65117345Y14371861D01*
X65363464Y14445995D01*
X65556565Y14983223D01*
X65529378Y15553454D01*
X65363464Y15954005D01*
X65117345Y16028139D01*
X64289205Y15200000D01*
X63929995Y15200000D01*
X63101855Y16028139D01*
X62855736Y15954005D01*
X62662635Y15416777D01*
X52212403Y15416777D01*
X52651273Y15854881D01*
X52797794Y16207745D01*
X63281461Y16207745D01*
X64109600Y15379605D01*
X64937739Y16207745D01*
X64863605Y16453864D01*
X64326377Y16646965D01*
X63756146Y16619778D01*
X63355595Y16453864D01*
X63281461Y16207745D01*
X52797794Y16207745D01*
X52984620Y16657670D01*
X52985379Y17526917D01*
X52653433Y18330286D01*
X52039319Y18945473D01*
X51236530Y19278820D01*
X50367283Y19279579D01*
X49563914Y18947633D01*
X48948727Y18333519D01*
X48615380Y17530730D01*
X48614621Y16661483D01*
X32664623Y16661483D01*
X32665379Y17526917D01*
X32333433Y18330286D01*
X31719319Y18945473D01*
X30916530Y19278820D01*
X30047283Y19279579D01*
X29243914Y18947633D01*
X28628727Y18333519D01*
X28295380Y17530730D01*
X28294621Y16661483D01*
X12344623Y16661483D01*
X12345379Y17526917D01*
X12013433Y18330286D01*
X11399319Y18945473D01*
X10596530Y19278820D01*
X9727283Y19279579D01*
X8923914Y18947633D01*
X8308727Y18333519D01*
X7975380Y17530730D01*
X7974621Y16661483D01*
X685000Y16661483D01*
X685000Y23113083D01*
X7974621Y23113083D01*
X8306567Y22309714D01*
X8920681Y21694527D01*
X9723470Y21361180D01*
X10592717Y21360421D01*
X11396086Y21692367D01*
X12011273Y22306481D01*
X12344620Y23109270D01*
X12345379Y23978517D01*
X12013433Y24781886D01*
X11399319Y25397073D01*
X10596530Y25730420D01*
X9727283Y25731179D01*
X8923914Y25399233D01*
X8308727Y24785119D01*
X7975380Y23982330D01*
X7974621Y23113083D01*
X685000Y23113083D01*
X685000Y27655813D01*
X1714352Y27655813D01*
X1932357Y27128200D01*
X2335677Y26724176D01*
X2417531Y26690187D01*
X2337800Y26657243D01*
X1933776Y26253923D01*
X1714850Y25726691D01*
X1714352Y25155813D01*
X1932357Y24628200D01*
X2335677Y24224176D01*
X2862909Y24005250D01*
X3433787Y24004752D01*
X3961400Y24222757D01*
X4365424Y24626077D01*
X4584350Y25153309D01*
X4584848Y25724187D01*
X4366843Y26251800D01*
X3963523Y26655824D01*
X3881669Y26689813D01*
X3961400Y26722757D01*
X4365424Y27126077D01*
X4584350Y27653309D01*
X4584352Y27655813D01*
X22034352Y27655813D01*
X22252357Y27128200D01*
X22655677Y26724176D01*
X22737531Y26690187D01*
X22657800Y26657243D01*
X22253776Y26253923D01*
X22034850Y25726691D01*
X22034352Y25155813D01*
X22252357Y24628200D01*
X22655677Y24224176D01*
X23182909Y24005250D01*
X23753787Y24004752D01*
X24281400Y24222757D01*
X24685424Y24626077D01*
X24904350Y25153309D01*
X24904635Y25479999D01*
X29439382Y25479999D01*
X29243914Y25399233D01*
X28628727Y24785119D01*
X28295380Y23982330D01*
X28294621Y23113083D01*
X28626567Y22309714D01*
X29240681Y21694527D01*
X30043470Y21361180D01*
X30912717Y21360421D01*
X31716086Y21692367D01*
X32331273Y22306481D01*
X32664620Y23109270D01*
X32664623Y23113083D01*
X48614621Y23113083D01*
X48946567Y22309714D01*
X49560681Y21694527D01*
X50363470Y21361180D01*
X51232717Y21360421D01*
X52036086Y21692367D01*
X52651273Y22306481D01*
X52984620Y23109270D01*
X52985379Y23978517D01*
X52653433Y24781886D01*
X52039319Y25397073D01*
X51236530Y25730420D01*
X50367283Y25731179D01*
X49563914Y25399233D01*
X48948727Y24785119D01*
X48615380Y23982330D01*
X48614621Y23113083D01*
X32664623Y23113083D01*
X32665379Y23978517D01*
X32333433Y24781886D01*
X31719319Y25397073D01*
X31519611Y25479999D01*
X42354635Y25479999D01*
X42354352Y25155813D01*
X42572357Y24628200D01*
X42975677Y24224176D01*
X43502909Y24005250D01*
X44073787Y24004752D01*
X44601400Y24222757D01*
X45005424Y24626077D01*
X45224350Y25153309D01*
X45224848Y25724187D01*
X45006843Y26251800D01*
X44603523Y26655824D01*
X44521669Y26689813D01*
X44601400Y26722757D01*
X45005424Y27126077D01*
X45224350Y27653309D01*
X45224352Y27655813D01*
X62674352Y27655813D01*
X62892357Y27128200D01*
X63295677Y26724176D01*
X63377531Y26690187D01*
X63297800Y26657243D01*
X62893776Y26253923D01*
X62674850Y25726691D01*
X62674352Y25155813D01*
X62892357Y24628200D01*
X63295677Y24224176D01*
X63822909Y24005250D01*
X64393787Y24004752D01*
X64921400Y24222757D01*
X65325424Y24626077D01*
X65347815Y24680000D01*
X69225078Y24680000D01*
X68935380Y23982330D01*
X68934621Y23113083D01*
X69266567Y22309714D01*
X69880681Y21694527D01*
X70683470Y21361180D01*
X71552717Y21360421D01*
X72356086Y21692367D01*
X72971273Y22306481D01*
X73304620Y23109270D01*
X73304623Y23113083D01*
X89254621Y23113083D01*
X89586567Y22309714D01*
X90200681Y21694527D01*
X91003470Y21361180D01*
X91872717Y21360421D01*
X92676086Y21692367D01*
X93291273Y22306481D01*
X93624620Y23109270D01*
X93624623Y23113083D01*
X109574621Y23113083D01*
X109906567Y22309714D01*
X110520681Y21694527D01*
X111323470Y21361180D01*
X112192717Y21360421D01*
X112996086Y21692367D01*
X113611273Y22306481D01*
X113944620Y23109270D01*
X113944623Y23113083D01*
X129894621Y23113083D01*
X130226567Y22309714D01*
X130840681Y21694527D01*
X131643470Y21361180D01*
X132512717Y21360421D01*
X133316086Y21692367D01*
X133931273Y22306481D01*
X134264620Y23109270D01*
X134265379Y23978517D01*
X133933433Y24781886D01*
X133319319Y25397073D01*
X132516530Y25730420D01*
X131647283Y25731179D01*
X130843914Y25399233D01*
X130228727Y24785119D01*
X129895380Y23982330D01*
X129894621Y23113083D01*
X113944623Y23113083D01*
X113945379Y23978517D01*
X113613433Y24781886D01*
X112999319Y25397073D01*
X112196530Y25730420D01*
X111327283Y25731179D01*
X110523914Y25399233D01*
X109908727Y24785119D01*
X109575380Y23982330D01*
X109574621Y23113083D01*
X93624623Y23113083D01*
X93625379Y23978517D01*
X93293433Y24781886D01*
X92679319Y25397073D01*
X91876530Y25730420D01*
X91007283Y25731179D01*
X90203914Y25399233D01*
X89588727Y24785119D01*
X89255380Y23982330D01*
X89254621Y23113083D01*
X73304623Y23113083D01*
X73305379Y23978517D01*
X73015532Y24680000D01*
X83190954Y24680000D01*
X83212357Y24628200D01*
X83615677Y24224176D01*
X84142909Y24005250D01*
X84713787Y24004752D01*
X85241400Y24222757D01*
X85645424Y24626077D01*
X85864350Y25153309D01*
X85864848Y25724187D01*
X85646843Y26251800D01*
X85243523Y26655824D01*
X85161669Y26689813D01*
X85241400Y26722757D01*
X85645424Y27126077D01*
X85864350Y27653309D01*
X85864352Y27655813D01*
X103314352Y27655813D01*
X103532357Y27128200D01*
X103935677Y26724176D01*
X104017531Y26690187D01*
X103937800Y26657243D01*
X103533776Y26253923D01*
X103314850Y25726691D01*
X103314352Y25155813D01*
X103532357Y24628200D01*
X103935677Y24224176D01*
X104462909Y24005250D01*
X105033787Y24004752D01*
X105561400Y24222757D01*
X105965424Y24626077D01*
X106184350Y25153309D01*
X106184848Y25724187D01*
X105966843Y26251800D01*
X105563523Y26655824D01*
X105481669Y26689813D01*
X105561400Y26722757D01*
X105965424Y27126077D01*
X106184350Y27653309D01*
X106184352Y27655813D01*
X123634352Y27655813D01*
X123852357Y27128200D01*
X124255677Y26724176D01*
X124337531Y26690187D01*
X124257800Y26657243D01*
X123853776Y26253923D01*
X123634850Y25726691D01*
X123634352Y25155813D01*
X123852357Y24628200D01*
X124255677Y24224176D01*
X124782909Y24005250D01*
X125353787Y24004752D01*
X125881400Y24222757D01*
X126285424Y24626077D01*
X126504350Y25153309D01*
X126504848Y25724187D01*
X126286843Y26251800D01*
X125883523Y26655824D01*
X125801669Y26689813D01*
X125881400Y26722757D01*
X126285424Y27126077D01*
X126504350Y27653309D01*
X126504848Y28224187D01*
X126286843Y28751800D01*
X125883523Y29155824D01*
X125817056Y29183423D01*
X125823605Y29186136D01*
X125897739Y29432255D01*
X125069600Y30260395D01*
X124241461Y29432255D01*
X124315595Y29186136D01*
X124322083Y29183804D01*
X124257800Y29157243D01*
X123853776Y28753923D01*
X123634850Y28226691D01*
X123634352Y27655813D01*
X106184352Y27655813D01*
X106184848Y28224187D01*
X105966843Y28751800D01*
X105563523Y29155824D01*
X105497056Y29183423D01*
X105503605Y29186136D01*
X105577739Y29432255D01*
X104749600Y30260395D01*
X103921461Y29432255D01*
X103995595Y29186136D01*
X104002083Y29183804D01*
X103937800Y29157243D01*
X103533776Y28753923D01*
X103314850Y28226691D01*
X103314352Y27655813D01*
X85864352Y27655813D01*
X85864848Y28224187D01*
X85646843Y28751800D01*
X85243523Y29155824D01*
X85177056Y29183423D01*
X85183605Y29186136D01*
X85257739Y29432255D01*
X84429600Y30260395D01*
X83601461Y29432255D01*
X83675595Y29186136D01*
X83682083Y29183804D01*
X83617800Y29157243D01*
X83213776Y28753923D01*
X82994850Y28226691D01*
X82994352Y27655813D01*
X83212357Y27128200D01*
X83615677Y26724176D01*
X83697531Y26690187D01*
X83617800Y26657243D01*
X83213776Y26253923D01*
X83191385Y26200000D01*
X65348246Y26200000D01*
X65326843Y26251800D01*
X64923523Y26655824D01*
X64841669Y26689813D01*
X64921400Y26722757D01*
X65325424Y27126077D01*
X65544350Y27653309D01*
X65544848Y28224187D01*
X65326843Y28751800D01*
X64923523Y29155824D01*
X64857056Y29183423D01*
X64863605Y29186136D01*
X64937739Y29432255D01*
X64109600Y30260395D01*
X63281461Y29432255D01*
X63355595Y29186136D01*
X63362083Y29183804D01*
X63297800Y29157243D01*
X62893776Y28753923D01*
X62674850Y28226691D01*
X62674352Y27655813D01*
X45224352Y27655813D01*
X45224848Y28224187D01*
X45006843Y28751800D01*
X44603523Y29155824D01*
X44537056Y29183423D01*
X44543605Y29186136D01*
X44617739Y29432255D01*
X43789600Y30260395D01*
X42961461Y29432255D01*
X43035595Y29186136D01*
X43042083Y29183804D01*
X42977800Y29157243D01*
X42670000Y28849979D01*
X42670000Y29645553D01*
X42781855Y29611861D01*
X43609995Y30440000D01*
X43969205Y30440000D01*
X44797345Y29611861D01*
X45043464Y29685995D01*
X45236565Y30223223D01*
X45209378Y30793454D01*
X45043464Y31194005D01*
X44797345Y31268139D01*
X43969205Y30440000D01*
X43609995Y30440000D01*
X42781855Y31268139D01*
X42670000Y31234447D01*
X42670000Y31447745D01*
X42961461Y31447745D01*
X43789600Y30619605D01*
X44617739Y31447745D01*
X44543605Y31693864D01*
X44006377Y31886965D01*
X43436146Y31859778D01*
X43035595Y31693864D01*
X42961461Y31447745D01*
X42670000Y31447745D01*
X42670000Y31901483D01*
X48614621Y31901483D01*
X48946567Y31098114D01*
X49560681Y30482927D01*
X50363470Y30149580D01*
X51232717Y30148821D01*
X52036086Y30480767D01*
X52212403Y30656777D01*
X62662635Y30656777D01*
X62689822Y30086546D01*
X62855736Y29685995D01*
X63101855Y29611861D01*
X63929995Y30440000D01*
X64289205Y30440000D01*
X65117345Y29611861D01*
X65363464Y29685995D01*
X65556565Y30223223D01*
X65529378Y30793454D01*
X65363464Y31194005D01*
X65117345Y31268139D01*
X64289205Y30440000D01*
X63929995Y30440000D01*
X63101855Y31268139D01*
X62855736Y31194005D01*
X62662635Y30656777D01*
X52212403Y30656777D01*
X52651273Y31094881D01*
X52797794Y31447745D01*
X63281461Y31447745D01*
X64109600Y30619605D01*
X64937739Y31447745D01*
X64863605Y31693864D01*
X64326377Y31886965D01*
X63756146Y31859778D01*
X63355595Y31693864D01*
X63281461Y31447745D01*
X52797794Y31447745D01*
X52984620Y31897670D01*
X52984623Y31901483D01*
X68934621Y31901483D01*
X69266567Y31098114D01*
X69880681Y30482927D01*
X70683470Y30149580D01*
X71552717Y30148821D01*
X72356086Y30480767D01*
X72532403Y30656777D01*
X82982635Y30656777D01*
X83009822Y30086546D01*
X83175736Y29685995D01*
X83421855Y29611861D01*
X84249995Y30440000D01*
X84609205Y30440000D01*
X85437345Y29611861D01*
X85683464Y29685995D01*
X85876565Y30223223D01*
X85849378Y30793454D01*
X85683464Y31194005D01*
X85437345Y31268139D01*
X84609205Y30440000D01*
X84249995Y30440000D01*
X83421855Y31268139D01*
X83175736Y31194005D01*
X82982635Y30656777D01*
X72532403Y30656777D01*
X72971273Y31094881D01*
X73117794Y31447745D01*
X83601461Y31447745D01*
X84429600Y30619605D01*
X85257739Y31447745D01*
X85183605Y31693864D01*
X84646377Y31886965D01*
X84076146Y31859778D01*
X83675595Y31693864D01*
X83601461Y31447745D01*
X73117794Y31447745D01*
X73304620Y31897670D01*
X73304623Y31901483D01*
X89254621Y31901483D01*
X89586567Y31098114D01*
X90200681Y30482927D01*
X91003470Y30149580D01*
X91872717Y30148821D01*
X92676086Y30480767D01*
X92852403Y30656777D01*
X103302635Y30656777D01*
X103329822Y30086546D01*
X103495736Y29685995D01*
X103741855Y29611861D01*
X104569995Y30440000D01*
X104929205Y30440000D01*
X105757345Y29611861D01*
X106003464Y29685995D01*
X106196565Y30223223D01*
X106169378Y30793454D01*
X106003464Y31194005D01*
X105757345Y31268139D01*
X104929205Y30440000D01*
X104569995Y30440000D01*
X103741855Y31268139D01*
X103495736Y31194005D01*
X103302635Y30656777D01*
X92852403Y30656777D01*
X93291273Y31094881D01*
X93437794Y31447745D01*
X103921461Y31447745D01*
X104749600Y30619605D01*
X105577739Y31447745D01*
X105503605Y31693864D01*
X104966377Y31886965D01*
X104396146Y31859778D01*
X103995595Y31693864D01*
X103921461Y31447745D01*
X93437794Y31447745D01*
X93624620Y31897670D01*
X93624623Y31901483D01*
X109574621Y31901483D01*
X109906567Y31098114D01*
X110520681Y30482927D01*
X111323470Y30149580D01*
X112192717Y30148821D01*
X112996086Y30480767D01*
X113172403Y30656777D01*
X123622635Y30656777D01*
X123649822Y30086546D01*
X123815736Y29685995D01*
X124061855Y29611861D01*
X124889995Y30440000D01*
X125249205Y30440000D01*
X126077345Y29611861D01*
X126323464Y29685995D01*
X126516565Y30223223D01*
X126489378Y30793454D01*
X126323464Y31194005D01*
X126077345Y31268139D01*
X125249205Y30440000D01*
X124889995Y30440000D01*
X124061855Y31268139D01*
X123815736Y31194005D01*
X123622635Y30656777D01*
X113172403Y30656777D01*
X113611273Y31094881D01*
X113757794Y31447745D01*
X124241461Y31447745D01*
X125069600Y30619605D01*
X125897739Y31447745D01*
X125823605Y31693864D01*
X125286377Y31886965D01*
X124716146Y31859778D01*
X124315595Y31693864D01*
X124241461Y31447745D01*
X113757794Y31447745D01*
X113944620Y31897670D01*
X113944623Y31901483D01*
X129894621Y31901483D01*
X130226567Y31098114D01*
X130840681Y30482927D01*
X131643470Y30149580D01*
X132512717Y30148821D01*
X133316086Y30480767D01*
X133492403Y30656777D01*
X143942635Y30656777D01*
X143969822Y30086546D01*
X144135736Y29685995D01*
X144381855Y29611861D01*
X145209995Y30440000D01*
X145569205Y30440000D01*
X146397345Y29611861D01*
X146643464Y29685995D01*
X146836565Y30223223D01*
X146809378Y30793454D01*
X146643464Y31194005D01*
X146397345Y31268139D01*
X145569205Y30440000D01*
X145209995Y30440000D01*
X144381855Y31268139D01*
X144135736Y31194005D01*
X143942635Y30656777D01*
X133492403Y30656777D01*
X133931273Y31094881D01*
X134077794Y31447745D01*
X144561461Y31447745D01*
X145389600Y30619605D01*
X146217739Y31447745D01*
X146143605Y31693864D01*
X145606377Y31886965D01*
X145036146Y31859778D01*
X144635595Y31693864D01*
X144561461Y31447745D01*
X134077794Y31447745D01*
X134264620Y31897670D01*
X134265379Y32766917D01*
X133933433Y33570286D01*
X133319319Y34185473D01*
X132516530Y34518820D01*
X131647283Y34519579D01*
X130843914Y34187633D01*
X130228727Y33573519D01*
X129895380Y32770730D01*
X129894621Y31901483D01*
X113944623Y31901483D01*
X113945379Y32766917D01*
X113613433Y33570286D01*
X112999319Y34185473D01*
X112196530Y34518820D01*
X111327283Y34519579D01*
X110523914Y34187633D01*
X109908727Y33573519D01*
X109575380Y32770730D01*
X109574621Y31901483D01*
X93624623Y31901483D01*
X93625379Y32766917D01*
X93293433Y33570286D01*
X92679319Y34185473D01*
X91876530Y34518820D01*
X91007283Y34519579D01*
X90203914Y34187633D01*
X89588727Y33573519D01*
X89255380Y32770730D01*
X89254621Y31901483D01*
X73304623Y31901483D01*
X73305379Y32766917D01*
X72973433Y33570286D01*
X72359319Y34185473D01*
X71556530Y34518820D01*
X70687283Y34519579D01*
X69883914Y34187633D01*
X69268727Y33573519D01*
X68935380Y32770730D01*
X68934621Y31901483D01*
X52984623Y31901483D01*
X52985379Y32766917D01*
X52653433Y33570286D01*
X52039319Y34185473D01*
X51236530Y34518820D01*
X50367283Y34519579D01*
X49563914Y34187633D01*
X48948727Y33573519D01*
X48615380Y32770730D01*
X48614621Y31901483D01*
X42670000Y31901483D01*
X42670000Y39055198D01*
X45454939Y41840137D01*
X45454735Y41606009D01*
X45687932Y41041629D01*
X46089182Y40639677D01*
X45689449Y40240643D01*
X45455267Y39676670D01*
X45454735Y39066009D01*
X45687932Y38501629D01*
X46119357Y38069449D01*
X46683330Y37835267D01*
X47293991Y37834735D01*
X47858371Y38067932D01*
X48290551Y38499357D01*
X48524733Y39063330D01*
X48525088Y39471828D01*
X51332538Y39471828D01*
X51737709Y38491239D01*
X52487293Y37740345D01*
X53467173Y37333464D01*
X54528172Y37332538D01*
X55508761Y37737709D01*
X56259655Y38487293D01*
X56666536Y39467173D01*
X56667462Y40528172D01*
X56262291Y41508761D01*
X55512707Y42259655D01*
X54532827Y42666536D01*
X53471828Y42667462D01*
X52491239Y42262291D01*
X51740345Y41512707D01*
X51333464Y40532827D01*
X51332538Y39471828D01*
X48525088Y39471828D01*
X48525265Y39673991D01*
X48292068Y40238371D01*
X47890818Y40640323D01*
X48290551Y41039357D01*
X48524733Y41603330D01*
X48525265Y42213991D01*
X48292068Y42778371D01*
X48075985Y42994833D01*
X73994838Y42994833D01*
X74136883Y42651057D01*
X74242710Y42545046D01*
X74137808Y42440327D01*
X73995162Y42096799D01*
X73994838Y41724833D01*
X74136883Y41381057D01*
X74399673Y41117808D01*
X74743201Y40975162D01*
X74790077Y40975121D01*
X80107599Y35657598D01*
X80354161Y35492852D01*
X80645000Y35435000D01*
X85162537Y35435000D01*
X85194673Y35402808D01*
X85538201Y35260162D01*
X85910167Y35259838D01*
X86253943Y35401883D01*
X86517192Y35664673D01*
X86659838Y36008201D01*
X86660162Y36380167D01*
X86518117Y36723943D01*
X86255327Y36987192D01*
X86218034Y37002677D01*
X86218213Y37208218D01*
X86076168Y37551994D01*
X85813378Y37815243D01*
X85469850Y37957889D01*
X85422974Y37957930D01*
X79663503Y43717401D01*
X79416941Y43882148D01*
X79126102Y43940000D01*
X75492463Y43940000D01*
X75460327Y43972192D01*
X75116799Y44114838D01*
X74744833Y44115162D01*
X74401057Y43973117D01*
X74137808Y43710327D01*
X73995162Y43366799D01*
X73994838Y42994833D01*
X48075985Y42994833D01*
X47890818Y43180323D01*
X48290551Y43579357D01*
X48524733Y44143330D01*
X48525265Y44753991D01*
X48292068Y45318371D01*
X47860643Y45750551D01*
X47839806Y45759203D01*
X47890554Y45909841D01*
X46990000Y46810395D01*
X46089446Y45909841D01*
X46140035Y45759673D01*
X46121629Y45752068D01*
X45689449Y45320643D01*
X45455267Y44756670D01*
X45454735Y44146009D01*
X45500485Y44035287D01*
X41372599Y39907401D01*
X41207852Y39660839D01*
X41150000Y39370000D01*
X41150000Y27319600D01*
X41207852Y27028761D01*
X41227070Y26999999D01*
X26104401Y26999999D01*
X28317401Y29212999D01*
X28482148Y29459561D01*
X28540000Y29750400D01*
X28540000Y31307622D01*
X28626567Y31098114D01*
X29240681Y30482927D01*
X30043470Y30149580D01*
X30912717Y30148821D01*
X31716086Y30480767D01*
X32331273Y31094881D01*
X32664620Y31897670D01*
X32665379Y32766917D01*
X32333433Y33570286D01*
X31719319Y34185473D01*
X30916530Y34518820D01*
X30047283Y34519579D01*
X29243914Y34187633D01*
X28628727Y33573519D01*
X28540000Y33359841D01*
X28540000Y35233154D01*
X28648371Y35277932D01*
X29080551Y35709357D01*
X29129832Y35828039D01*
X29177932Y35711629D01*
X29609357Y35279449D01*
X30173330Y35045267D01*
X30783991Y35044735D01*
X31348371Y35277932D01*
X31570668Y35499841D01*
X32279446Y35499841D01*
X32365852Y35243357D01*
X32939336Y35033542D01*
X33549460Y35059161D01*
X33994148Y35243357D01*
X34080554Y35499841D01*
X33180000Y36400395D01*
X32279446Y35499841D01*
X31570668Y35499841D01*
X31780551Y35709357D01*
X31823708Y35813290D01*
X31843357Y35765852D01*
X32099841Y35679446D01*
X33000395Y36580000D01*
X33359605Y36580000D01*
X34260159Y35679446D01*
X34516643Y35765852D01*
X34726458Y36339336D01*
X34700839Y36949460D01*
X34516643Y37394148D01*
X34260159Y37480554D01*
X33359605Y36580000D01*
X33000395Y36580000D01*
X32099841Y37480554D01*
X31843357Y37394148D01*
X31825096Y37344235D01*
X31782068Y37448371D01*
X31570650Y37660159D01*
X32279446Y37660159D01*
X33180000Y36759605D01*
X34080554Y37660159D01*
X33994148Y37916643D01*
X33420664Y38126458D01*
X32810540Y38100839D01*
X32365852Y37916643D01*
X32279446Y37660159D01*
X31570650Y37660159D01*
X31350643Y37880551D01*
X30786670Y38114733D01*
X30176009Y38115265D01*
X29611629Y37882068D01*
X29179449Y37450643D01*
X29130168Y37331961D01*
X29082068Y37448371D01*
X28650643Y37880551D01*
X28086670Y38114733D01*
X27476009Y38115265D01*
X26911629Y37882068D01*
X26479449Y37450643D01*
X26245267Y36886670D01*
X26244735Y36276009D01*
X26477932Y35711629D01*
X26909357Y35279449D01*
X27020000Y35233506D01*
X27020000Y30065202D01*
X24904609Y27949811D01*
X24904848Y28224187D01*
X24686843Y28751800D01*
X24283523Y29155824D01*
X24217056Y29183423D01*
X24223605Y29186136D01*
X24297739Y29432255D01*
X23469600Y30260395D01*
X22641461Y29432255D01*
X22715595Y29186136D01*
X22722083Y29183804D01*
X22657800Y29157243D01*
X22253776Y28753923D01*
X22034850Y28226691D01*
X22034352Y27655813D01*
X4584352Y27655813D01*
X4584848Y28224187D01*
X4366843Y28751800D01*
X3963523Y29155824D01*
X3897056Y29183423D01*
X3903605Y29186136D01*
X3977739Y29432255D01*
X3149600Y30260395D01*
X2321461Y29432255D01*
X2395595Y29186136D01*
X2402083Y29183804D01*
X2337800Y29157243D01*
X1933776Y28753923D01*
X1714850Y28226691D01*
X1714352Y27655813D01*
X685000Y27655813D01*
X685000Y30656777D01*
X1702635Y30656777D01*
X1729822Y30086546D01*
X1895736Y29685995D01*
X2141855Y29611861D01*
X2969995Y30440000D01*
X3329205Y30440000D01*
X4157345Y29611861D01*
X4403464Y29685995D01*
X4596565Y30223223D01*
X4569378Y30793454D01*
X4403464Y31194005D01*
X4157345Y31268139D01*
X3329205Y30440000D01*
X2969995Y30440000D01*
X2141855Y31268139D01*
X1895736Y31194005D01*
X1702635Y30656777D01*
X685000Y30656777D01*
X685000Y31447745D01*
X2321461Y31447745D01*
X3149600Y30619605D01*
X3977739Y31447745D01*
X3903605Y31693864D01*
X3366377Y31886965D01*
X2796146Y31859778D01*
X2395595Y31693864D01*
X2321461Y31447745D01*
X685000Y31447745D01*
X685000Y31901483D01*
X7974621Y31901483D01*
X8306567Y31098114D01*
X8920681Y30482927D01*
X9723470Y30149580D01*
X10592717Y30148821D01*
X11396086Y30480767D01*
X11572403Y30656777D01*
X22022635Y30656777D01*
X22049822Y30086546D01*
X22215736Y29685995D01*
X22461855Y29611861D01*
X23289995Y30440000D01*
X23649205Y30440000D01*
X24477345Y29611861D01*
X24723464Y29685995D01*
X24916565Y30223223D01*
X24889378Y30793454D01*
X24723464Y31194005D01*
X24477345Y31268139D01*
X23649205Y30440000D01*
X23289995Y30440000D01*
X22461855Y31268139D01*
X22215736Y31194005D01*
X22022635Y30656777D01*
X11572403Y30656777D01*
X12011273Y31094881D01*
X12157794Y31447745D01*
X22641461Y31447745D01*
X23469600Y30619605D01*
X24297739Y31447745D01*
X24223605Y31693864D01*
X23686377Y31886965D01*
X23116146Y31859778D01*
X22715595Y31693864D01*
X22641461Y31447745D01*
X12157794Y31447745D01*
X12344620Y31897670D01*
X12345379Y32766917D01*
X12013433Y33570286D01*
X11399319Y34185473D01*
X10596530Y34518820D01*
X9727283Y34519579D01*
X8923914Y34187633D01*
X8308727Y33573519D01*
X7975380Y32770730D01*
X7974621Y31901483D01*
X685000Y31901483D01*
X685000Y39471828D01*
X832538Y39471828D01*
X1237709Y38491239D01*
X1987293Y37740345D01*
X2967173Y37333464D01*
X4028172Y37332538D01*
X5008761Y37737709D01*
X5625210Y38353083D01*
X7974621Y38353083D01*
X8306567Y37549714D01*
X8920681Y36934527D01*
X9723470Y36601180D01*
X10592717Y36600421D01*
X11396086Y36932367D01*
X12011273Y37546481D01*
X12344620Y38349270D01*
X12345379Y39218517D01*
X12157898Y39672255D01*
X16342261Y39672255D01*
X16416395Y39426136D01*
X16953623Y39233035D01*
X17523854Y39260222D01*
X17921278Y39424841D01*
X22979446Y39424841D01*
X23065852Y39168357D01*
X23639336Y38958542D01*
X24249460Y38984161D01*
X24694148Y39168357D01*
X24780554Y39424841D01*
X23880000Y40325395D01*
X22979446Y39424841D01*
X17921278Y39424841D01*
X17924405Y39426136D01*
X17998539Y39672255D01*
X17170400Y40500395D01*
X16342261Y39672255D01*
X12157898Y39672255D01*
X12013433Y40021886D01*
X11399319Y40637073D01*
X10773883Y40896777D01*
X15723435Y40896777D01*
X15750622Y40326546D01*
X15916536Y39925995D01*
X16162655Y39851861D01*
X16990795Y40680000D01*
X17350005Y40680000D01*
X18178145Y39851861D01*
X18424264Y39925995D01*
X18617365Y40463223D01*
X18603900Y40745664D01*
X22333542Y40745664D01*
X22359161Y40135540D01*
X22543357Y39690852D01*
X22799841Y39604446D01*
X23700395Y40505000D01*
X24059605Y40505000D01*
X24960159Y39604446D01*
X25216643Y39690852D01*
X25426458Y40264336D01*
X25413392Y40575519D01*
X29194777Y40575519D01*
X29389995Y40103057D01*
X29751155Y39741265D01*
X30223276Y39545223D01*
X30734481Y39544777D01*
X31206943Y39739995D01*
X31568735Y40101155D01*
X31764777Y40573276D01*
X31765223Y41084481D01*
X31570005Y41556943D01*
X31208845Y41918735D01*
X30772694Y42099841D01*
X34179446Y42099841D01*
X34265852Y41843357D01*
X34839336Y41633542D01*
X35449460Y41659161D01*
X35894148Y41843357D01*
X35980554Y42099841D01*
X35080000Y43000395D01*
X34179446Y42099841D01*
X30772694Y42099841D01*
X30736724Y42114777D01*
X30225519Y42115223D01*
X29753057Y41920005D01*
X29391265Y41558845D01*
X29195223Y41086724D01*
X29194777Y40575519D01*
X25413392Y40575519D01*
X25400839Y40874460D01*
X25216643Y41319148D01*
X24960159Y41405554D01*
X24059605Y40505000D01*
X23700395Y40505000D01*
X22799841Y41405554D01*
X22543357Y41319148D01*
X22333542Y40745664D01*
X18603900Y40745664D01*
X18590178Y41033454D01*
X18424264Y41434005D01*
X18178145Y41508139D01*
X17350005Y40680000D01*
X16990795Y40680000D01*
X16162655Y41508139D01*
X15916536Y41434005D01*
X15723435Y40896777D01*
X10773883Y40896777D01*
X10596530Y40970420D01*
X9727283Y40971179D01*
X8923914Y40639233D01*
X8308727Y40025119D01*
X7975380Y39222330D01*
X7974621Y38353083D01*
X5625210Y38353083D01*
X5759655Y38487293D01*
X6166536Y39467173D01*
X6167462Y40528172D01*
X5762291Y41508761D01*
X5012707Y42259655D01*
X4032827Y42666536D01*
X2971828Y42667462D01*
X1991239Y42262291D01*
X1240345Y41512707D01*
X833464Y40532827D01*
X832538Y39471828D01*
X685000Y39471828D01*
X685000Y49315000D01*
X8811084Y49315000D01*
X8308727Y48813519D01*
X8308727Y48813519D01*
G37*
X8308727Y48813519D02*
X7975380Y48010730D01*
X7974621Y47141483D01*
X8306567Y46338114D01*
X8920681Y45722927D01*
X9723470Y45389580D01*
X10592717Y45388821D01*
X10609638Y45395813D01*
X15735152Y45395813D01*
X15953157Y44868200D01*
X16356477Y44464176D01*
X16438331Y44430187D01*
X16358600Y44397243D01*
X15954576Y43993923D01*
X15735650Y43466691D01*
X15735152Y42895813D01*
X15953157Y42368200D01*
X16356477Y41964176D01*
X16422944Y41936577D01*
X16416395Y41933864D01*
X16342261Y41687745D01*
X17170400Y40859605D01*
X17998539Y41687745D01*
X17924405Y41933864D01*
X17917917Y41936196D01*
X17982200Y41962757D01*
X18386224Y42366077D01*
X18605150Y42893309D01*
X18605648Y43464187D01*
X18387643Y43991800D01*
X17984323Y44395824D01*
X17902469Y44429813D01*
X17982200Y44462757D01*
X18386224Y44866077D01*
X18605150Y45393309D01*
X18605648Y45964187D01*
X18387643Y46491800D01*
X18099946Y46780000D01*
X22332560Y46780000D01*
X22332560Y44980000D01*
X22376838Y44744683D01*
X22515910Y44528559D01*
X22728110Y44383569D01*
X22881784Y44352449D01*
X22579449Y44050643D01*
X22345267Y43486670D01*
X22344735Y42876009D01*
X22577932Y42311629D01*
X23009357Y41879449D01*
X23083149Y41848808D01*
X23065852Y41841643D01*
X22979446Y41585159D01*
X23880000Y40684605D01*
X24780554Y41585159D01*
X24694148Y41841643D01*
X24676326Y41848163D01*
X24748371Y41877932D01*
X25180551Y42309357D01*
X25414733Y42873330D01*
X25415209Y43420664D01*
X33533542Y43420664D01*
X33559161Y42810540D01*
X33743357Y42365852D01*
X33999841Y42279446D01*
X34900395Y43180000D01*
X35259605Y43180000D01*
X36160159Y42279446D01*
X36416643Y42365852D01*
X36626458Y42939336D01*
X36600839Y43549460D01*
X36416643Y43994148D01*
X36160159Y44080554D01*
X35259605Y43180000D01*
X34900395Y43180000D01*
X33999841Y44080554D01*
X33743357Y43994148D01*
X33533542Y43420664D01*
X25415209Y43420664D01*
X25415265Y43483991D01*
X25182068Y44048371D01*
X24879657Y44351312D01*
X25015317Y44376838D01*
X25231441Y44515910D01*
X25376431Y44728110D01*
X25427440Y44980000D01*
X25427440Y46780000D01*
X25383162Y47015317D01*
X25244090Y47231441D01*
X25031890Y47376431D01*
X24780000Y47427440D01*
X22980000Y47427440D01*
X22744683Y47383162D01*
X22528559Y47244090D01*
X22383569Y47031890D01*
X22332560Y46780000D01*
X18099946Y46780000D01*
X17984323Y46895824D01*
X17457091Y47114750D01*
X16886213Y47115248D01*
X16358600Y46897243D01*
X15954576Y46493923D01*
X15735650Y45966691D01*
X15735152Y45395813D01*
X10609638Y45395813D01*
X11396086Y45720767D01*
X12011273Y46334881D01*
X12344620Y47137670D01*
X12345379Y48006917D01*
X12013433Y48810286D01*
X11509599Y49315000D01*
X30175368Y49315000D01*
X29611629Y49082068D01*
X29179449Y48650643D01*
X28945267Y48086670D01*
X28944735Y47476009D01*
X29177932Y46911629D01*
X29609357Y46479449D01*
X29611404Y46478599D01*
X29391265Y46258845D01*
X29195223Y45786724D01*
X29194777Y45275519D01*
X29389995Y44803057D01*
X29751155Y44441265D01*
X30223276Y44245223D01*
X30734481Y44244777D01*
X30771708Y44260159D01*
X34179446Y44260159D01*
X35080000Y43359605D01*
X35980554Y44260159D01*
X35894148Y44516643D01*
X35320664Y44726458D01*
X34710540Y44700839D01*
X34265852Y44516643D01*
X34179446Y44260159D01*
X30771708Y44260159D01*
X31206943Y44439995D01*
X31568735Y44801155D01*
X31764777Y45273276D01*
X31765223Y45784481D01*
X31570005Y46256943D01*
X31348887Y46478448D01*
X31780551Y46909357D01*
X31913969Y47230664D01*
X45443542Y47230664D01*
X45469161Y46620540D01*
X45653357Y46175852D01*
X45909841Y46089446D01*
X46810395Y46990000D01*
X47169605Y46990000D01*
X48070159Y46089446D01*
X48326643Y46175852D01*
X48536458Y46749336D01*
X48510839Y47359460D01*
X48326643Y47804148D01*
X48070159Y47890554D01*
X47169605Y46990000D01*
X46810395Y46990000D01*
X45909841Y47890554D01*
X45653357Y47804148D01*
X45443542Y47230664D01*
X31913969Y47230664D01*
X32014733Y47473330D01*
X32015252Y48070159D01*
X46089446Y48070159D01*
X46990000Y47169605D01*
X47890554Y48070159D01*
X47804148Y48326643D01*
X47230664Y48536458D01*
X46620540Y48510839D01*
X46175852Y48326643D01*
X46089446Y48070159D01*
X32015252Y48070159D01*
X32015265Y48083991D01*
X31782068Y48648371D01*
X31350643Y49080551D01*
X30786670Y49314733D01*
X30480192Y49315000D01*
X67329154Y49315000D01*
X67242852Y49185839D01*
X67185000Y48895000D01*
X67185000Y48822463D01*
X67152808Y48790327D01*
X67010162Y48446799D01*
X67009838Y48074833D01*
X67151883Y47731057D01*
X67414673Y47467808D01*
X67758201Y47325162D01*
X67805077Y47325121D01*
X68032601Y47097597D01*
X68279163Y46932850D01*
X68570002Y46874998D01*
X69515002Y46874998D01*
X69805841Y46932850D01*
X70052403Y47097597D01*
X70454806Y47500000D01*
X76520198Y47500000D01*
X76534878Y47485320D01*
X76534838Y47439833D01*
X76676883Y47096057D01*
X76939673Y46832808D01*
X77283201Y46690162D01*
X77655167Y46689838D01*
X77998943Y46831883D01*
X78262192Y47094673D01*
X78371765Y47358554D01*
X78458597Y47394432D01*
X78581883Y47096057D01*
X78844673Y46832808D01*
X79188201Y46690162D01*
X79560167Y46689838D01*
X79903943Y46831883D01*
X79937118Y46865000D01*
X80010000Y46865000D01*
X80300839Y46922852D01*
X80547401Y47087599D01*
X80914803Y47455001D01*
X86165618Y47455001D01*
X86083542Y47230664D01*
X86109161Y46620540D01*
X86293357Y46175852D01*
X86549841Y46089446D01*
X87450395Y46990000D01*
X87436253Y47004143D01*
X87615858Y47183748D01*
X87630000Y47169605D01*
X87644143Y47183748D01*
X87823748Y47004143D01*
X87809605Y46990000D01*
X88710159Y46089446D01*
X88966643Y46175852D01*
X89176458Y46749336D01*
X89150839Y47359460D01*
X89111265Y47455001D01*
X98451483Y47455001D01*
X98392257Y47395878D01*
X98249611Y47052350D01*
X98249570Y47005474D01*
X96454096Y45210000D01*
X88976846Y45210000D01*
X88932068Y45318371D01*
X88500643Y45750551D01*
X88479806Y45759203D01*
X88530554Y45909841D01*
X87630000Y46810395D01*
X86729446Y45909841D01*
X86780035Y45759673D01*
X86761629Y45752068D01*
X86329449Y45320643D01*
X86095267Y44756670D01*
X86094735Y44146009D01*
X86327932Y43581629D01*
X86729182Y43179677D01*
X86329449Y42780643D01*
X86095267Y42216670D01*
X86094735Y41606009D01*
X86327932Y41041629D01*
X86729182Y40639677D01*
X86329449Y40240643D01*
X86095267Y39676670D01*
X86094735Y39066009D01*
X86327932Y38501629D01*
X86759357Y38069449D01*
X87323330Y37835267D01*
X87933991Y37834735D01*
X88498371Y38067932D01*
X88930551Y38499357D01*
X89164733Y39063330D01*
X89165265Y39673991D01*
X88932068Y40238371D01*
X88530818Y40640323D01*
X88930551Y41039357D01*
X89164733Y41603330D01*
X89165265Y42213991D01*
X88932068Y42778371D01*
X88920458Y42790001D01*
X123168823Y42790001D01*
X123159449Y42780643D01*
X122925267Y42216670D01*
X122924735Y41606009D01*
X123157932Y41041629D01*
X123559182Y40639677D01*
X123159449Y40240643D01*
X122925267Y39676670D01*
X122924735Y39066009D01*
X123157932Y38501629D01*
X123589357Y38069449D01*
X124153330Y37835267D01*
X124763991Y37834735D01*
X125328371Y38067932D01*
X125484141Y38223430D01*
X125571883Y38011078D01*
X125834673Y37747829D01*
X126178201Y37605183D01*
X126550167Y37604859D01*
X126787412Y37702887D01*
X126841883Y37571057D01*
X127104673Y37307808D01*
X127448201Y37165162D01*
X127820167Y37164838D01*
X128163943Y37306883D01*
X128427192Y37569673D01*
X128569838Y37913201D01*
X128569879Y37960077D01*
X132590000Y41980198D01*
X132590000Y39932463D01*
X132557808Y39900327D01*
X132415162Y39556799D01*
X132414838Y39184833D01*
X132556883Y38841057D01*
X132819673Y38577808D01*
X133163201Y38435162D01*
X133535167Y38434838D01*
X133878943Y38576883D01*
X134142192Y38839673D01*
X134284838Y39183201D01*
X134285162Y39555167D01*
X134143117Y39898943D01*
X134110000Y39932118D01*
X134110000Y42617537D01*
X134142192Y42649673D01*
X134284838Y42993201D01*
X134285162Y43365167D01*
X134143117Y43708943D01*
X134110000Y43742118D01*
X134110000Y44522537D01*
X134142192Y44554673D01*
X134284838Y44898201D01*
X134285162Y45270167D01*
X134143117Y45613943D01*
X134110000Y45647118D01*
X134110000Y47697537D01*
X134142192Y47729673D01*
X134284838Y48073201D01*
X134284879Y48120077D01*
X134299802Y48135000D01*
X134954890Y48135000D01*
X134954838Y48074833D01*
X135096883Y47731057D01*
X135130000Y47697882D01*
X135130000Y40640020D01*
X135187852Y40349181D01*
X135352599Y40102619D01*
X138764898Y36690320D01*
X138764858Y36644833D01*
X138906903Y36301057D01*
X139169693Y36037808D01*
X139513221Y35895162D01*
X139885187Y35894838D01*
X140228963Y36036883D01*
X140492212Y36299673D01*
X140634858Y36643201D01*
X140635182Y37015167D01*
X140493137Y37358943D01*
X140230347Y37622192D01*
X139886819Y37764838D01*
X139839943Y37764879D01*
X136650000Y40954822D01*
X136650000Y47697537D01*
X136682192Y47729673D01*
X136824838Y48073201D01*
X136824892Y48135000D01*
X141290198Y48135000D01*
X148289878Y41135320D01*
X148289838Y41089833D01*
X148431883Y40746057D01*
X148465000Y40712882D01*
X148465000Y38027463D01*
X148432808Y37995327D01*
X148290162Y37651799D01*
X148289838Y37279833D01*
X148431883Y36936057D01*
X148465000Y36902882D01*
X148465000Y28889802D01*
X146575197Y26999999D01*
X146479126Y26999999D01*
X146605424Y27126077D01*
X146824350Y27653309D01*
X146824848Y28224187D01*
X146606843Y28751800D01*
X146203523Y29155824D01*
X146137056Y29183423D01*
X146143605Y29186136D01*
X146217739Y29432255D01*
X145389600Y30260395D01*
X144561461Y29432255D01*
X144635595Y29186136D01*
X144642083Y29183804D01*
X144577800Y29157243D01*
X144173776Y28753923D01*
X143954850Y28226691D01*
X143954352Y27655813D01*
X144172357Y27128200D01*
X144575677Y26724176D01*
X144657531Y26690187D01*
X144577800Y26657243D01*
X144173776Y26253923D01*
X143954850Y25726691D01*
X143954352Y25155813D01*
X144172357Y24628200D01*
X144575677Y24224176D01*
X144629600Y24201785D01*
X144629600Y22250400D01*
X144687452Y21959561D01*
X144852199Y21712999D01*
X147195000Y19370198D01*
X147195000Y13080202D01*
X146824609Y12709811D01*
X146824848Y12984187D01*
X146606843Y13511800D01*
X146203523Y13915824D01*
X146137056Y13943423D01*
X146143605Y13946136D01*
X146217739Y14192255D01*
X145389600Y15020395D01*
X144561461Y14192255D01*
X144635595Y13946136D01*
X144642083Y13943804D01*
X144577800Y13917243D01*
X144173776Y13513923D01*
X143954850Y12986691D01*
X143954352Y12415813D01*
X144172357Y11888200D01*
X144575677Y11484176D01*
X144657531Y11450187D01*
X144577800Y11417243D01*
X144173776Y11013923D01*
X143954850Y10486691D01*
X143954352Y9915813D01*
X144172357Y9388200D01*
X144575677Y8984176D01*
X145102909Y8765250D01*
X145673787Y8764752D01*
X146201400Y8982757D01*
X146605424Y9386077D01*
X146824350Y9913309D01*
X146824848Y10484187D01*
X146802551Y10538149D01*
X148492401Y12227999D01*
X148657148Y12474561D01*
X148715000Y12765400D01*
X148715000Y16661483D01*
X150214621Y16661483D01*
X150546567Y15858114D01*
X151160681Y15242927D01*
X151963470Y14909580D01*
X152832717Y14908821D01*
X153636086Y15240767D01*
X154251273Y15854881D01*
X154584620Y16657670D01*
X154585379Y17526917D01*
X154253433Y18330286D01*
X153639319Y18945473D01*
X152836530Y19278820D01*
X151967283Y19279579D01*
X151163914Y18947633D01*
X150548727Y18333519D01*
X150215380Y17530730D01*
X150214621Y16661483D01*
X148715000Y16661483D01*
X148715000Y19685000D01*
X148657148Y19975839D01*
X148657148Y19975840D01*
X148492401Y20222401D01*
X146149600Y22565202D01*
X146149600Y23113083D01*
X150214621Y23113083D01*
X150546567Y22309714D01*
X151160681Y21694527D01*
X151963470Y21361180D01*
X152832717Y21360421D01*
X153636086Y21692367D01*
X154251273Y22306481D01*
X154584620Y23109270D01*
X154585379Y23978517D01*
X154253433Y24781886D01*
X153639319Y25397073D01*
X152836530Y25730420D01*
X151967283Y25731179D01*
X151163914Y25399233D01*
X150548727Y24785119D01*
X150215380Y23982330D01*
X150214621Y23113083D01*
X146149600Y23113083D01*
X146149600Y24201354D01*
X146201400Y24222757D01*
X146605424Y24626077D01*
X146824350Y25153309D01*
X146824635Y25479999D01*
X146889999Y25479999D01*
X147180838Y25537851D01*
X147427400Y25702598D01*
X149762401Y28037599D01*
X149927148Y28284161D01*
X149985000Y28575000D01*
X149985000Y31901483D01*
X150214621Y31901483D01*
X150546567Y31098114D01*
X151160681Y30482927D01*
X151963470Y30149580D01*
X152832717Y30148821D01*
X153636086Y30480767D01*
X154251273Y31094881D01*
X154584620Y31897670D01*
X154585379Y32766917D01*
X154253433Y33570286D01*
X153639319Y34185473D01*
X152836530Y34518820D01*
X151967283Y34519579D01*
X151163914Y34187633D01*
X150548727Y33573519D01*
X150215380Y32770730D01*
X150214621Y31901483D01*
X149985000Y31901483D01*
X149985000Y36902537D01*
X150017192Y36934673D01*
X150159838Y37278201D01*
X150160162Y37650167D01*
X150018117Y37993943D01*
X149985000Y38027118D01*
X149985000Y39471828D01*
X153832538Y39471828D01*
X154237709Y38491239D01*
X154987293Y37740345D01*
X155967173Y37333464D01*
X157028172Y37332538D01*
X158008761Y37737709D01*
X158759655Y38487293D01*
X159166536Y39467173D01*
X159167462Y40528172D01*
X158762291Y41508761D01*
X158012707Y42259655D01*
X157032827Y42666536D01*
X155971828Y42667462D01*
X154991239Y42262291D01*
X154240345Y41512707D01*
X153833464Y40532827D01*
X153832538Y39471828D01*
X149985000Y39471828D01*
X149985000Y40712537D01*
X150017192Y40744673D01*
X150159838Y41088201D01*
X150160162Y41460167D01*
X150018117Y41803943D01*
X149755327Y42067192D01*
X149411799Y42209838D01*
X149364923Y42209879D01*
X145519894Y46054908D01*
X145600167Y46054838D01*
X145943943Y46196883D01*
X146207192Y46459673D01*
X146349838Y46803201D01*
X146350162Y47175167D01*
X146208117Y47518943D01*
X145945327Y47782192D01*
X145601799Y47924838D01*
X145554923Y47924879D01*
X144164802Y49315000D01*
X159315000Y49315000D01*
X159315000Y685000D01*
X152509747Y685000D01*
X152628339Y970602D01*
X152628859Y1566782D01*
X152401192Y2117780D01*
X151979997Y2539710D01*
X151979069Y2540095D01*
X152399710Y2960003D01*
X152628339Y3510602D01*
X152628859Y4106782D01*
X152401192Y4657780D01*
X151979997Y5079710D01*
X151429398Y5308339D01*
X150833218Y5308859D01*
X150282220Y5081192D01*
X149860290Y4659997D01*
X149859905Y4659069D01*
X149439997Y5079710D01*
X148889398Y5308339D01*
X148293218Y5308859D01*
X147742220Y5081192D01*
X147320290Y4659997D01*
X147319905Y4659069D01*
X146899997Y5079710D01*
X146349398Y5308339D01*
X145753218Y5308859D01*
X145202220Y5081192D01*
X144780290Y4659997D01*
X144779905Y4659069D01*
X144359997Y5079710D01*
X143809398Y5308339D01*
X143213218Y5308859D01*
X142662220Y5081192D01*
X142240290Y4659997D01*
X142239905Y4659069D01*
X141819997Y5079710D01*
X141269398Y5308339D01*
X140673218Y5308859D01*
X140122220Y5081192D01*
X139700290Y4659997D01*
X139699905Y4659069D01*
X139279997Y5079710D01*
X138729398Y5308339D01*
X138133218Y5308859D01*
X137582220Y5081192D01*
X137160290Y4659997D01*
X137159905Y4659069D01*
X136739997Y5079710D01*
X136189398Y5308339D01*
X135593218Y5308859D01*
X135042220Y5081192D01*
X134620290Y4659997D01*
X134603459Y4619463D01*
X134403805Y4684200D01*
X133529605Y3810000D01*
X134403805Y2935800D01*
X134603033Y3000399D01*
X134618808Y2962220D01*
X135040003Y2540290D01*
X135040931Y2539905D01*
X134620290Y2119997D01*
X134603459Y2079463D01*
X134403805Y2144200D01*
X133529605Y1270000D01*
X133543748Y1255858D01*
X133364143Y1076253D01*
X133350000Y1090395D01*
X133335858Y1076253D01*
X133156253Y1255858D01*
X133170395Y1270000D01*
X132296195Y2144200D01*
X132080000Y2074099D01*
X131863805Y2144200D01*
X130989605Y1270000D01*
X131003748Y1255858D01*
X130824143Y1076253D01*
X130810000Y1090395D01*
X130795858Y1076253D01*
X130616253Y1255858D01*
X130630395Y1270000D01*
X129756195Y2144200D01*
X129556967Y2079601D01*
X129541192Y2117780D01*
X129119997Y2539710D01*
X129119069Y2540095D01*
X129335546Y2756195D01*
X129935800Y2756195D01*
X130005901Y2540000D01*
X129935800Y2323805D01*
X130810000Y1449605D01*
X131684200Y2323805D01*
X131614099Y2540000D01*
X131684200Y2756195D01*
X132475800Y2756195D01*
X132545901Y2540000D01*
X132475800Y2323805D01*
X133350000Y1449605D01*
X134224200Y2323805D01*
X134154099Y2540000D01*
X134224200Y2756195D01*
X133350000Y3630395D01*
X132475800Y2756195D01*
X131684200Y2756195D01*
X130810000Y3630395D01*
X129935800Y2756195D01*
X129335546Y2756195D01*
X129539710Y2960003D01*
X129556541Y3000537D01*
X129756195Y2935800D01*
X130630395Y3810000D01*
X130989605Y3810000D01*
X131863805Y2935800D01*
X132080000Y3005901D01*
X132296195Y2935800D01*
X133170395Y3810000D01*
X132296195Y4684200D01*
X132080000Y4614099D01*
X131863805Y4684200D01*
X130989605Y3810000D01*
X130630395Y3810000D01*
X129756195Y4684200D01*
X129556967Y4619601D01*
X129541192Y4657780D01*
X129335526Y4863805D01*
X129935800Y4863805D01*
X130810000Y3989605D01*
X131684200Y4863805D01*
X132475800Y4863805D01*
X133350000Y3989605D01*
X134224200Y4863805D01*
X134142259Y5116516D01*
X133581970Y5320248D01*
X132986365Y5294058D01*
X132557741Y5116516D01*
X132475800Y4863805D01*
X131684200Y4863805D01*
X131602259Y5116516D01*
X131041970Y5320248D01*
X130446365Y5294058D01*
X130017741Y5116516D01*
X129935800Y4863805D01*
X129335526Y4863805D01*
X129119997Y5079710D01*
X128569398Y5308339D01*
X127973218Y5308859D01*
X127422220Y5081192D01*
X127000290Y4659997D01*
X126999905Y4659069D01*
X126579997Y5079710D01*
X126490000Y5117080D01*
X126490000Y7873083D01*
X129894621Y7873083D01*
X130226567Y7069714D01*
X130840681Y6454527D01*
X131643470Y6121180D01*
X132512717Y6120421D01*
X133316086Y6452367D01*
X133931273Y7066481D01*
X134264620Y7869270D01*
X134264623Y7873083D01*
X150214621Y7873083D01*
X150546567Y7069714D01*
X151160681Y6454527D01*
X151963470Y6121180D01*
X152832717Y6120421D01*
X153636086Y6452367D01*
X154251273Y7066481D01*
X154584620Y7869270D01*
X154584859Y8143482D01*
X154987293Y7740345D01*
X155967173Y7333464D01*
X157028172Y7332538D01*
X158008761Y7737709D01*
X158759655Y8487293D01*
X159166536Y9467173D01*
X159167462Y10528172D01*
X158762291Y11508761D01*
X158012707Y12259655D01*
X157032827Y12666536D01*
X155971828Y12667462D01*
X154991239Y12262291D01*
X154240345Y11512707D01*
X153833464Y10532827D01*
X153832967Y9963087D01*
X153639319Y10157073D01*
X152836530Y10490420D01*
X151967283Y10491179D01*
X151163914Y10159233D01*
X150548727Y9545119D01*
X150215380Y8742330D01*
X150214621Y7873083D01*
X134264623Y7873083D01*
X134265379Y8738517D01*
X133933433Y9541886D01*
X133319319Y10157073D01*
X132516530Y10490420D01*
X131647283Y10491179D01*
X130843914Y10159233D01*
X130228727Y9545119D01*
X129895380Y8742330D01*
X129894621Y7873083D01*
X126490000Y7873083D01*
X126490000Y9539600D01*
X126444388Y9768905D01*
X126504350Y9913309D01*
X126504848Y10484187D01*
X126286843Y11011800D01*
X125883523Y11415824D01*
X125801669Y11449813D01*
X125881400Y11482757D01*
X126285424Y11886077D01*
X126504350Y12413309D01*
X126504848Y12984187D01*
X126286843Y13511800D01*
X125883523Y13915824D01*
X125817056Y13943423D01*
X125823605Y13946136D01*
X125897739Y14192255D01*
X125069600Y15020395D01*
X124241461Y14192255D01*
X124315595Y13946136D01*
X124322083Y13943804D01*
X124257800Y13917243D01*
X123853776Y13513923D01*
X123634850Y12986691D01*
X123634352Y12415813D01*
X123852357Y11888200D01*
X124255677Y11484176D01*
X124337531Y11450187D01*
X124257800Y11417243D01*
X123853776Y11013923D01*
X123634850Y10486691D01*
X123634352Y9915813D01*
X123656649Y9861851D01*
X122652599Y8857801D01*
X122487852Y8611239D01*
X122430000Y8320400D01*
X122430000Y5117462D01*
X122342220Y5081192D01*
X121920290Y4659997D01*
X121903459Y4619463D01*
X121703805Y4684200D01*
X120829605Y3810000D01*
X121703805Y2935800D01*
X121903033Y3000399D01*
X121918808Y2962220D01*
X122340003Y2540290D01*
X122340931Y2539905D01*
X121920290Y2119997D01*
X121903459Y2079463D01*
X121703805Y2144200D01*
X120829605Y1270000D01*
X120843748Y1255858D01*
X120664143Y1076253D01*
X120650000Y1090395D01*
X120635858Y1076253D01*
X120456253Y1255858D01*
X120470395Y1270000D01*
X119596195Y2144200D01*
X119396967Y2079601D01*
X119381192Y2117780D01*
X118959997Y2539710D01*
X118959069Y2540095D01*
X119175546Y2756195D01*
X119775800Y2756195D01*
X119845901Y2540000D01*
X119775800Y2323805D01*
X120650000Y1449605D01*
X121524200Y2323805D01*
X121454099Y2540000D01*
X121524200Y2756195D01*
X120650000Y3630395D01*
X119775800Y2756195D01*
X119175546Y2756195D01*
X119379710Y2960003D01*
X119396541Y3000537D01*
X119596195Y2935800D01*
X120470395Y3810000D01*
X119596195Y4684200D01*
X119396967Y4619601D01*
X119381192Y4657780D01*
X119175526Y4863805D01*
X119775800Y4863805D01*
X120650000Y3989605D01*
X121524200Y4863805D01*
X121442259Y5116516D01*
X120881970Y5320248D01*
X120286365Y5294058D01*
X119857741Y5116516D01*
X119775800Y4863805D01*
X119175526Y4863805D01*
X118959997Y5079710D01*
X118409398Y5308339D01*
X117813218Y5308859D01*
X117262220Y5081192D01*
X116840290Y4659997D01*
X116839905Y4659069D01*
X116419997Y5079710D01*
X115869398Y5308339D01*
X115273218Y5308859D01*
X114722220Y5081192D01*
X114300290Y4659997D01*
X114299905Y4659069D01*
X113879997Y5079710D01*
X113329398Y5308339D01*
X112733218Y5308859D01*
X112182220Y5081192D01*
X111760290Y4659997D01*
X111759905Y4659069D01*
X111339997Y5079710D01*
X110789398Y5308339D01*
X110193218Y5308859D01*
X109642220Y5081192D01*
X109220290Y4659997D01*
X109219905Y4659069D01*
X108799997Y5079710D01*
X108249398Y5308339D01*
X107653218Y5308859D01*
X107102220Y5081192D01*
X106680290Y4659997D01*
X106679905Y4659069D01*
X106259997Y5079710D01*
X105709398Y5308339D01*
X105113218Y5308859D01*
X104562220Y5081192D01*
X104140290Y4659997D01*
X104139905Y4659069D01*
X103719997Y5079710D01*
X103630000Y5117080D01*
X103630000Y7873083D01*
X109574621Y7873083D01*
X109906567Y7069714D01*
X110520681Y6454527D01*
X111323470Y6121180D01*
X112192717Y6120421D01*
X112996086Y6452367D01*
X113611273Y7066481D01*
X113944620Y7869270D01*
X113945379Y8738517D01*
X113613433Y9541886D01*
X112999319Y10157073D01*
X112196530Y10490420D01*
X111327283Y10491179D01*
X110523914Y10159233D01*
X109908727Y9545119D01*
X109575380Y8742330D01*
X109574621Y7873083D01*
X103630000Y7873083D01*
X103630000Y8005598D01*
X104411146Y8786744D01*
X104462909Y8765250D01*
X105033787Y8764752D01*
X105561400Y8982757D01*
X105965424Y9386077D01*
X106184350Y9913309D01*
X106184848Y10484187D01*
X105966843Y11011800D01*
X105563523Y11415824D01*
X105481669Y11449813D01*
X105561400Y11482757D01*
X105965424Y11886077D01*
X106184350Y12413309D01*
X106184848Y12984187D01*
X105966843Y13511800D01*
X105563523Y13915824D01*
X105497056Y13943423D01*
X105503605Y13946136D01*
X105577739Y14192255D01*
X104749600Y15020395D01*
X103921461Y14192255D01*
X103995595Y13946136D01*
X104002083Y13943804D01*
X103937800Y13917243D01*
X103533776Y13513923D01*
X103314850Y12986691D01*
X103314352Y12415813D01*
X103532357Y11888200D01*
X103935677Y11484176D01*
X104017531Y11450187D01*
X103937800Y11417243D01*
X103533776Y11013923D01*
X103314850Y10486691D01*
X103314352Y9915813D01*
X103336649Y9861851D01*
X102332599Y8857801D01*
X102167852Y8611239D01*
X102110000Y8320400D01*
X102110000Y5117462D01*
X102022220Y5081192D01*
X101600290Y4659997D01*
X101583459Y4619463D01*
X101383805Y4684200D01*
X100509605Y3810000D01*
X101383805Y2935800D01*
X101583033Y3000399D01*
X101598808Y2962220D01*
X102020003Y2540290D01*
X102020931Y2539905D01*
X101600290Y2119997D01*
X101583459Y2079463D01*
X101383805Y2144200D01*
X100509605Y1270000D01*
X100523748Y1255858D01*
X100344143Y1076253D01*
X100330000Y1090395D01*
X100315858Y1076253D01*
X100136253Y1255858D01*
X100150395Y1270000D01*
X99276195Y2144200D01*
X99076967Y2079601D01*
X99061192Y2117780D01*
X98639997Y2539710D01*
X98639069Y2540095D01*
X98855546Y2756195D01*
X99455800Y2756195D01*
X99525901Y2540000D01*
X99455800Y2323805D01*
X100330000Y1449605D01*
X101204200Y2323805D01*
X101134099Y2540000D01*
X101204200Y2756195D01*
X100330000Y3630395D01*
X99455800Y2756195D01*
X98855546Y2756195D01*
X99059710Y2960003D01*
X99076541Y3000537D01*
X99276195Y2935800D01*
X100150395Y3810000D01*
X99276195Y4684200D01*
X99076967Y4619601D01*
X99061192Y4657780D01*
X98855526Y4863805D01*
X99455800Y4863805D01*
X100330000Y3989605D01*
X101204200Y4863805D01*
X101122259Y5116516D01*
X100561970Y5320248D01*
X99966365Y5294058D01*
X99537741Y5116516D01*
X99455800Y4863805D01*
X98855526Y4863805D01*
X98639997Y5079710D01*
X98089398Y5308339D01*
X97493218Y5308859D01*
X96942220Y5081192D01*
X96520290Y4659997D01*
X96519905Y4659069D01*
X96099997Y5079710D01*
X95549398Y5308339D01*
X94953218Y5308859D01*
X94402220Y5081192D01*
X93980290Y4659997D01*
X93979905Y4659069D01*
X93559997Y5079710D01*
X93009398Y5308339D01*
X92413218Y5308859D01*
X92323156Y5271646D01*
X91474033Y6120769D01*
X91872717Y6120421D01*
X92676086Y6452367D01*
X93291273Y7066481D01*
X93624620Y7869270D01*
X93625379Y8738517D01*
X93293433Y9541886D01*
X92679319Y10157073D01*
X91876530Y10490420D01*
X91007283Y10491179D01*
X90203914Y10159233D01*
X89588727Y9545119D01*
X89255380Y8742330D01*
X89255028Y8339774D01*
X85732400Y11862402D01*
X85656619Y11913037D01*
X85864350Y12413309D01*
X85864848Y12984187D01*
X85646843Y13511800D01*
X85243523Y13915824D01*
X85177056Y13943423D01*
X85183605Y13946136D01*
X85257739Y14192255D01*
X84429600Y15020395D01*
X83601461Y14192255D01*
X83675595Y13946136D01*
X83682083Y13943804D01*
X83617800Y13917243D01*
X83213776Y13513923D01*
X82994850Y12986691D01*
X82994352Y12415813D01*
X83131041Y12085001D01*
X82287526Y12085001D01*
X78955750Y15416777D01*
X82982635Y15416777D01*
X83009822Y14846546D01*
X83175736Y14445995D01*
X83421855Y14371861D01*
X84249995Y15200000D01*
X84609205Y15200000D01*
X85437345Y14371861D01*
X85683464Y14445995D01*
X85876565Y14983223D01*
X85849378Y15553454D01*
X85683464Y15954005D01*
X85437345Y16028139D01*
X84609205Y15200000D01*
X84249995Y15200000D01*
X83421855Y16028139D01*
X83175736Y15954005D01*
X82982635Y15416777D01*
X78955750Y15416777D01*
X78164782Y16207745D01*
X83601461Y16207745D01*
X84429600Y15379605D01*
X85257739Y16207745D01*
X85183605Y16453864D01*
X84646377Y16646965D01*
X84076146Y16619778D01*
X83675595Y16453864D01*
X83601461Y16207745D01*
X78164782Y16207745D01*
X77711044Y16661483D01*
X89254621Y16661483D01*
X89586567Y15858114D01*
X90200681Y15242927D01*
X91003470Y14909580D01*
X91872717Y14908821D01*
X92676086Y15240767D01*
X92852403Y15416777D01*
X103302635Y15416777D01*
X103329822Y14846546D01*
X103495736Y14445995D01*
X103741855Y14371861D01*
X104569995Y15200000D01*
X104929205Y15200000D01*
X105757345Y14371861D01*
X106003464Y14445995D01*
X106196565Y14983223D01*
X106169378Y15553454D01*
X106003464Y15954005D01*
X105757345Y16028139D01*
X104929205Y15200000D01*
X104569995Y15200000D01*
X103741855Y16028139D01*
X103495736Y15954005D01*
X103302635Y15416777D01*
X92852403Y15416777D01*
X93291273Y15854881D01*
X93437794Y16207745D01*
X103921461Y16207745D01*
X104749600Y15379605D01*
X105577739Y16207745D01*
X105503605Y16453864D01*
X104966377Y16646965D01*
X104396146Y16619778D01*
X103995595Y16453864D01*
X103921461Y16207745D01*
X93437794Y16207745D01*
X93624620Y16657670D01*
X93624623Y16661483D01*
X109574621Y16661483D01*
X109906567Y15858114D01*
X110520681Y15242927D01*
X111323470Y14909580D01*
X112192717Y14908821D01*
X112996086Y15240767D01*
X113172403Y15416777D01*
X123622635Y15416777D01*
X123649822Y14846546D01*
X123815736Y14445995D01*
X124061855Y14371861D01*
X124889995Y15200000D01*
X125249205Y15200000D01*
X126077345Y14371861D01*
X126323464Y14445995D01*
X126516565Y14983223D01*
X126489378Y15553454D01*
X126323464Y15954005D01*
X126077345Y16028139D01*
X125249205Y15200000D01*
X124889995Y15200000D01*
X124061855Y16028139D01*
X123815736Y15954005D01*
X123622635Y15416777D01*
X113172403Y15416777D01*
X113611273Y15854881D01*
X113757794Y16207745D01*
X124241461Y16207745D01*
X125069600Y15379605D01*
X125897739Y16207745D01*
X125823605Y16453864D01*
X125286377Y16646965D01*
X124716146Y16619778D01*
X124315595Y16453864D01*
X124241461Y16207745D01*
X113757794Y16207745D01*
X113944620Y16657670D01*
X113944623Y16661483D01*
X129894621Y16661483D01*
X130226567Y15858114D01*
X130840681Y15242927D01*
X131643470Y14909580D01*
X132512717Y14908821D01*
X133316086Y15240767D01*
X133492403Y15416777D01*
X143942635Y15416777D01*
X143969822Y14846546D01*
X144135736Y14445995D01*
X144381855Y14371861D01*
X145209995Y15200000D01*
X145569205Y15200000D01*
X146397345Y14371861D01*
X146643464Y14445995D01*
X146836565Y14983223D01*
X146809378Y15553454D01*
X146643464Y15954005D01*
X146397345Y16028139D01*
X145569205Y15200000D01*
X145209995Y15200000D01*
X144381855Y16028139D01*
X144135736Y15954005D01*
X143942635Y15416777D01*
X133492403Y15416777D01*
X133931273Y15854881D01*
X134077794Y16207745D01*
X144561461Y16207745D01*
X145389600Y15379605D01*
X146217739Y16207745D01*
X146143605Y16453864D01*
X145606377Y16646965D01*
X145036146Y16619778D01*
X144635595Y16453864D01*
X144561461Y16207745D01*
X134077794Y16207745D01*
X134264620Y16657670D01*
X134265379Y17526917D01*
X133933433Y18330286D01*
X133319319Y18945473D01*
X132516530Y19278820D01*
X131647283Y19279579D01*
X130843914Y18947633D01*
X130228727Y18333519D01*
X129895380Y17530730D01*
X129894621Y16661483D01*
X113944623Y16661483D01*
X113945379Y17526917D01*
X113613433Y18330286D01*
X112999319Y18945473D01*
X112196530Y19278820D01*
X111327283Y19279579D01*
X110523914Y18947633D01*
X109908727Y18333519D01*
X109575380Y17530730D01*
X109574621Y16661483D01*
X93624623Y16661483D01*
X93625379Y17526917D01*
X93293433Y18330286D01*
X92679319Y18945473D01*
X91876530Y19278820D01*
X91007283Y19279579D01*
X90203914Y18947633D01*
X89588727Y18333519D01*
X89255380Y17530730D01*
X89254621Y16661483D01*
X77711044Y16661483D01*
X75420126Y18952401D01*
X75173564Y19117148D01*
X74882725Y19175000D01*
X74857463Y19175000D01*
X74825327Y19207192D01*
X74481799Y19349838D01*
X74109833Y19350162D01*
X73766057Y19208117D01*
X73502808Y18945327D01*
X73360162Y18601799D01*
X73359838Y18229833D01*
X73501883Y17886057D01*
X73764673Y17622808D01*
X74108201Y17480162D01*
X74480167Y17479838D01*
X74666213Y17556710D01*
X74952923Y17270000D01*
X73660000Y17270000D01*
X73369161Y17212148D01*
X73305067Y17169322D01*
X73305379Y17526917D01*
X72973433Y18330286D01*
X72359319Y18945473D01*
X71556530Y19278820D01*
X70687283Y19279579D01*
X69883914Y18947633D01*
X69268727Y18333519D01*
X68935380Y17530730D01*
X68934621Y16661483D01*
X69266567Y15858114D01*
X69880681Y15242927D01*
X70683470Y14909580D01*
X70984515Y14909317D01*
X67035198Y10960000D01*
X65348246Y10960000D01*
X65326843Y11011800D01*
X64923523Y11415824D01*
X64841669Y11449813D01*
X64921400Y11482757D01*
X65325424Y11886077D01*
X65544350Y12413309D01*
X65544848Y12984187D01*
X65326843Y13511800D01*
X64923523Y13915824D01*
X64857056Y13943423D01*
X64863605Y13946136D01*
X64937739Y14192255D01*
X64109600Y15020395D01*
X63281461Y14192255D01*
X63355595Y13946136D01*
X63362083Y13943804D01*
X63297800Y13917243D01*
X62893776Y13513923D01*
X62674850Y12986691D01*
X62674577Y12674179D01*
X62535439Y12767148D01*
X62244600Y12825000D01*
X60325000Y12825000D01*
X60034160Y12767148D01*
X59787599Y12602401D01*
X58517599Y11332401D01*
X58352852Y11085839D01*
X58295000Y10795000D01*
X58295000Y9525000D01*
X58352852Y9234161D01*
X58517599Y8987599D01*
X61692599Y5812599D01*
X61939161Y5647852D01*
X62230000Y5590000D01*
X65676512Y5590000D01*
X66323649Y4942863D01*
X66040290Y4659997D01*
X66023459Y4619463D01*
X65823805Y4684200D01*
X64949605Y3810000D01*
X65823805Y2935800D01*
X66023033Y3000399D01*
X66038808Y2962220D01*
X66460003Y2540290D01*
X66460931Y2539905D01*
X66040290Y2119997D01*
X66023459Y2079463D01*
X65823805Y2144200D01*
X64949605Y1270000D01*
X64963748Y1255858D01*
X64784143Y1076253D01*
X64770000Y1090395D01*
X64755858Y1076253D01*
X64576253Y1255858D01*
X64590395Y1270000D01*
X63716195Y2144200D01*
X63516967Y2079601D01*
X63501192Y2117780D01*
X63079997Y2539710D01*
X63079069Y2540095D01*
X63295546Y2756195D01*
X63895800Y2756195D01*
X63965901Y2540000D01*
X63895800Y2323805D01*
X64770000Y1449605D01*
X65644200Y2323805D01*
X65574099Y2540000D01*
X65644200Y2756195D01*
X64770000Y3630395D01*
X63895800Y2756195D01*
X63295546Y2756195D01*
X63499710Y2960003D01*
X63516541Y3000537D01*
X63716195Y2935800D01*
X64590395Y3810000D01*
X63716195Y4684200D01*
X63516967Y4619601D01*
X63501192Y4657780D01*
X63295526Y4863805D01*
X63895800Y4863805D01*
X64770000Y3989605D01*
X65644200Y4863805D01*
X65562259Y5116516D01*
X65001970Y5320248D01*
X64406365Y5294058D01*
X63977741Y5116516D01*
X63895800Y4863805D01*
X63295526Y4863805D01*
X63079997Y5079710D01*
X62529398Y5308339D01*
X61933218Y5308859D01*
X61382220Y5081192D01*
X60960290Y4659997D01*
X60959905Y4659069D01*
X60539997Y5079710D01*
X59989398Y5308339D01*
X59393218Y5308859D01*
X58842220Y5081192D01*
X58420290Y4659997D01*
X58419905Y4659069D01*
X57999997Y5079710D01*
X57449398Y5308339D01*
X56853218Y5308859D01*
X56302220Y5081192D01*
X55880290Y4659997D01*
X55879905Y4659069D01*
X55459997Y5079710D01*
X54909398Y5308339D01*
X54313218Y5308859D01*
X53762220Y5081192D01*
X53340290Y4659997D01*
X53339905Y4659069D01*
X52919997Y5079710D01*
X52369398Y5308339D01*
X51773218Y5308859D01*
X51664546Y5263957D01*
X51497240Y5375747D01*
X51206401Y5433599D01*
X46441203Y5433599D01*
X44549600Y7325202D01*
X44549600Y7873083D01*
X48614621Y7873083D01*
X48946567Y7069714D01*
X49560681Y6454527D01*
X50363470Y6121180D01*
X51232717Y6120421D01*
X52036086Y6452367D01*
X52651273Y7066481D01*
X52984620Y7869270D01*
X52985379Y8738517D01*
X52653433Y9541886D01*
X52039319Y10157073D01*
X51236530Y10490420D01*
X50367283Y10491179D01*
X49563914Y10159233D01*
X48948727Y9545119D01*
X48615380Y8742330D01*
X48614621Y7873083D01*
X44549600Y7873083D01*
X44549600Y8961354D01*
X44601400Y8982757D01*
X45005424Y9386077D01*
X45224350Y9913309D01*
X45224848Y10484187D01*
X45006843Y11011800D01*
X44603523Y11415824D01*
X44521669Y11449813D01*
X44601400Y11482757D01*
X45005424Y11886077D01*
X45224350Y12413309D01*
X45224848Y12984187D01*
X45006843Y13511800D01*
X44603523Y13915824D01*
X44537056Y13943423D01*
X44543605Y13946136D01*
X44617739Y14192255D01*
X43789600Y15020395D01*
X42961461Y14192255D01*
X43035595Y13946136D01*
X43042083Y13943804D01*
X42977800Y13917243D01*
X42573776Y13513923D01*
X42354850Y12986691D01*
X42354352Y12415813D01*
X42572357Y11888200D01*
X42975677Y11484176D01*
X43057531Y11450187D01*
X42977800Y11417243D01*
X42573776Y11013923D01*
X42354850Y10486691D01*
X42354352Y9915813D01*
X42572357Y9388200D01*
X42975677Y8984176D01*
X43029600Y8961785D01*
X43029600Y7010400D01*
X43087452Y6719561D01*
X43252199Y6472999D01*
X45589000Y4136198D01*
X45835562Y3971451D01*
X46126401Y3913599D01*
X50571490Y3913599D01*
X50571141Y3513218D01*
X50798808Y2962220D01*
X51220003Y2540290D01*
X51220931Y2539905D01*
X50800290Y2119997D01*
X50571661Y1569398D01*
X50571141Y973218D01*
X50690230Y685000D01*
X685000Y685000D01*
X685000Y9471828D01*
X832538Y9471828D01*
X1237709Y8491239D01*
X1987293Y7740345D01*
X2967173Y7333464D01*
X4028172Y7332538D01*
X5008761Y7737709D01*
X5144371Y7873083D01*
X7974621Y7873083D01*
X8306567Y7069714D01*
X8920681Y6454527D01*
X9723470Y6121180D01*
X10592717Y6120421D01*
X11396086Y6452367D01*
X12011273Y7066481D01*
X12344620Y7869270D01*
X12344623Y7873083D01*
X28294621Y7873083D01*
X28626567Y7069714D01*
X29240681Y6454527D01*
X30043470Y6121180D01*
X30912717Y6120421D01*
X31716086Y6452367D01*
X32331273Y7066481D01*
X32664620Y7869270D01*
X32665379Y8738517D01*
X32333433Y9541886D01*
X31719319Y10157073D01*
X30916530Y10490420D01*
X30047283Y10491179D01*
X29243914Y10159233D01*
X28628727Y9545119D01*
X28295380Y8742330D01*
X28294621Y7873083D01*
X12344623Y7873083D01*
X12345379Y8738517D01*
X12157898Y9192255D01*
X16342261Y9192255D01*
X16416395Y8946136D01*
X16953623Y8753035D01*
X17523854Y8780222D01*
X17924405Y8946136D01*
X17998539Y9192255D01*
X17170400Y10020395D01*
X16342261Y9192255D01*
X12157898Y9192255D01*
X12013433Y9541886D01*
X11399319Y10157073D01*
X10773883Y10416777D01*
X15723435Y10416777D01*
X15750622Y9846546D01*
X15916536Y9445995D01*
X16162655Y9371861D01*
X16990795Y10200000D01*
X17350005Y10200000D01*
X18178145Y9371861D01*
X18424264Y9445995D01*
X18617365Y9983223D01*
X18590178Y10553454D01*
X18424264Y10954005D01*
X18178145Y11028139D01*
X17350005Y10200000D01*
X16990795Y10200000D01*
X16162655Y11028139D01*
X15916536Y10954005D01*
X15723435Y10416777D01*
X10773883Y10416777D01*
X10596530Y10490420D01*
X9727283Y10491179D01*
X8923914Y10159233D01*
X8308727Y9545119D01*
X7975380Y8742330D01*
X7974621Y7873083D01*
X5144371Y7873083D01*
X5759655Y8487293D01*
X6166536Y9467173D01*
X6167462Y10528172D01*
X5762291Y11508761D01*
X5012707Y12259655D01*
X4032827Y12666536D01*
X2971828Y12667462D01*
X1991239Y12262291D01*
X1240345Y11512707D01*
X833464Y10532827D01*
X832538Y9471828D01*
X685000Y9471828D01*
X685000Y16661483D01*
X7974621Y16661483D01*
X8306567Y15858114D01*
X8920681Y15242927D01*
X9723470Y14909580D01*
X10592717Y14908821D01*
X10609638Y14915813D01*
X15735152Y14915813D01*
X15953157Y14388200D01*
X16356477Y13984176D01*
X16438331Y13950187D01*
X16358600Y13917243D01*
X15954576Y13513923D01*
X15735650Y12986691D01*
X15735152Y12415813D01*
X15953157Y11888200D01*
X16356477Y11484176D01*
X16422944Y11456577D01*
X16416395Y11453864D01*
X16342261Y11207745D01*
X17170400Y10379605D01*
X17998539Y11207745D01*
X17924405Y11453864D01*
X17917917Y11456196D01*
X17982200Y11482757D01*
X18386224Y11886077D01*
X18605150Y12413309D01*
X18605152Y12415813D01*
X22034352Y12415813D01*
X22252357Y11888200D01*
X22655677Y11484176D01*
X22737531Y11450187D01*
X22657800Y11417243D01*
X22253776Y11013923D01*
X22034850Y10486691D01*
X22034352Y9915813D01*
X22252357Y9388200D01*
X22655677Y8984176D01*
X23182909Y8765250D01*
X23753787Y8764752D01*
X24281400Y8982757D01*
X24685424Y9386077D01*
X24904350Y9913309D01*
X24904848Y10484187D01*
X24686843Y11011800D01*
X24283523Y11415824D01*
X24201669Y11449813D01*
X24281400Y11482757D01*
X24685424Y11886077D01*
X24904350Y12413309D01*
X24904848Y12984187D01*
X24686843Y13511800D01*
X24283523Y13915824D01*
X24217056Y13943423D01*
X24223605Y13946136D01*
X24297739Y14192255D01*
X23469600Y15020395D01*
X22641461Y14192255D01*
X22715595Y13946136D01*
X22722083Y13943804D01*
X22657800Y13917243D01*
X22253776Y13513923D01*
X22034850Y12986691D01*
X22034352Y12415813D01*
X18605152Y12415813D01*
X18605648Y12984187D01*
X18387643Y13511800D01*
X17984323Y13915824D01*
X17902469Y13949813D01*
X17982200Y13982757D01*
X18386224Y14386077D01*
X18605150Y14913309D01*
X18605589Y15416777D01*
X22022635Y15416777D01*
X22049822Y14846546D01*
X22215736Y14445995D01*
X22461855Y14371861D01*
X23289995Y15200000D01*
X23649205Y15200000D01*
X24477345Y14371861D01*
X24723464Y14445995D01*
X24916565Y14983223D01*
X24889378Y15553454D01*
X24723464Y15954005D01*
X24477345Y16028139D01*
X23649205Y15200000D01*
X23289995Y15200000D01*
X22461855Y16028139D01*
X22215736Y15954005D01*
X22022635Y15416777D01*
X18605589Y15416777D01*
X18605648Y15484187D01*
X18387643Y16011800D01*
X18192040Y16207745D01*
X22641461Y16207745D01*
X23469600Y15379605D01*
X24297739Y16207745D01*
X24223605Y16453864D01*
X23686377Y16646965D01*
X23116146Y16619778D01*
X22715595Y16453864D01*
X22641461Y16207745D01*
X18192040Y16207745D01*
X17984323Y16415824D01*
X17457091Y16634750D01*
X16886213Y16635248D01*
X16358600Y16417243D01*
X15954576Y16013923D01*
X15735650Y15486691D01*
X15735152Y14915813D01*
X10609638Y14915813D01*
X11396086Y15240767D01*
X12011273Y15854881D01*
X12344620Y16657670D01*
X12344623Y16661483D01*
X28294621Y16661483D01*
X28626567Y15858114D01*
X29240681Y15242927D01*
X30043470Y14909580D01*
X30912717Y14908821D01*
X31716086Y15240767D01*
X31892403Y15416777D01*
X42342635Y15416777D01*
X42369822Y14846546D01*
X42535736Y14445995D01*
X42781855Y14371861D01*
X43609995Y15200000D01*
X43969205Y15200000D01*
X44797345Y14371861D01*
X45043464Y14445995D01*
X45236565Y14983223D01*
X45209378Y15553454D01*
X45043464Y15954005D01*
X44797345Y16028139D01*
X43969205Y15200000D01*
X43609995Y15200000D01*
X42781855Y16028139D01*
X42535736Y15954005D01*
X42342635Y15416777D01*
X31892403Y15416777D01*
X32331273Y15854881D01*
X32477794Y16207745D01*
X42961461Y16207745D01*
X43789600Y15379605D01*
X44617739Y16207745D01*
X44543605Y16453864D01*
X44006377Y16646965D01*
X43436146Y16619778D01*
X43035595Y16453864D01*
X42961461Y16207745D01*
X32477794Y16207745D01*
X32664620Y16657670D01*
X32664623Y16661483D01*
X48614621Y16661483D01*
X48946567Y15858114D01*
X49560681Y15242927D01*
X50363470Y14909580D01*
X51232717Y14908821D01*
X52036086Y15240767D01*
X52212403Y15416777D01*
X62662635Y15416777D01*
X62689822Y14846546D01*
X62855736Y14445995D01*
X63101855Y14371861D01*
X63929995Y15200000D01*
X64289205Y15200000D01*
X65117345Y14371861D01*
X65363464Y14445995D01*
X65556565Y14983223D01*
X65529378Y15553454D01*
X65363464Y15954005D01*
X65117345Y16028139D01*
X64289205Y15200000D01*
X63929995Y15200000D01*
X63101855Y16028139D01*
X62855736Y15954005D01*
X62662635Y15416777D01*
X52212403Y15416777D01*
X52651273Y15854881D01*
X52797794Y16207745D01*
X63281461Y16207745D01*
X64109600Y15379605D01*
X64937739Y16207745D01*
X64863605Y16453864D01*
X64326377Y16646965D01*
X63756146Y16619778D01*
X63355595Y16453864D01*
X63281461Y16207745D01*
X52797794Y16207745D01*
X52984620Y16657670D01*
X52985379Y17526917D01*
X52653433Y18330286D01*
X52039319Y18945473D01*
X51236530Y19278820D01*
X50367283Y19279579D01*
X49563914Y18947633D01*
X48948727Y18333519D01*
X48615380Y17530730D01*
X48614621Y16661483D01*
X32664623Y16661483D01*
X32665379Y17526917D01*
X32333433Y18330286D01*
X31719319Y18945473D01*
X30916530Y19278820D01*
X30047283Y19279579D01*
X29243914Y18947633D01*
X28628727Y18333519D01*
X28295380Y17530730D01*
X28294621Y16661483D01*
X12344623Y16661483D01*
X12345379Y17526917D01*
X12013433Y18330286D01*
X11399319Y18945473D01*
X10596530Y19278820D01*
X9727283Y19279579D01*
X8923914Y18947633D01*
X8308727Y18333519D01*
X7975380Y17530730D01*
X7974621Y16661483D01*
X685000Y16661483D01*
X685000Y23113083D01*
X7974621Y23113083D01*
X8306567Y22309714D01*
X8920681Y21694527D01*
X9723470Y21361180D01*
X10592717Y21360421D01*
X11396086Y21692367D01*
X12011273Y22306481D01*
X12344620Y23109270D01*
X12345379Y23978517D01*
X12013433Y24781886D01*
X11399319Y25397073D01*
X10596530Y25730420D01*
X9727283Y25731179D01*
X8923914Y25399233D01*
X8308727Y24785119D01*
X7975380Y23982330D01*
X7974621Y23113083D01*
X685000Y23113083D01*
X685000Y27655813D01*
X1714352Y27655813D01*
X1932357Y27128200D01*
X2335677Y26724176D01*
X2417531Y26690187D01*
X2337800Y26657243D01*
X1933776Y26253923D01*
X1714850Y25726691D01*
X1714352Y25155813D01*
X1932357Y24628200D01*
X2335677Y24224176D01*
X2862909Y24005250D01*
X3433787Y24004752D01*
X3961400Y24222757D01*
X4365424Y24626077D01*
X4584350Y25153309D01*
X4584848Y25724187D01*
X4366843Y26251800D01*
X3963523Y26655824D01*
X3881669Y26689813D01*
X3961400Y26722757D01*
X4365424Y27126077D01*
X4584350Y27653309D01*
X4584352Y27655813D01*
X22034352Y27655813D01*
X22252357Y27128200D01*
X22655677Y26724176D01*
X22737531Y26690187D01*
X22657800Y26657243D01*
X22253776Y26253923D01*
X22034850Y25726691D01*
X22034352Y25155813D01*
X22252357Y24628200D01*
X22655677Y24224176D01*
X23182909Y24005250D01*
X23753787Y24004752D01*
X24281400Y24222757D01*
X24685424Y24626077D01*
X24904350Y25153309D01*
X24904635Y25479999D01*
X29439382Y25479999D01*
X29243914Y25399233D01*
X28628727Y24785119D01*
X28295380Y23982330D01*
X28294621Y23113083D01*
X28626567Y22309714D01*
X29240681Y21694527D01*
X30043470Y21361180D01*
X30912717Y21360421D01*
X31716086Y21692367D01*
X32331273Y22306481D01*
X32664620Y23109270D01*
X32664623Y23113083D01*
X48614621Y23113083D01*
X48946567Y22309714D01*
X49560681Y21694527D01*
X50363470Y21361180D01*
X51232717Y21360421D01*
X52036086Y21692367D01*
X52651273Y22306481D01*
X52984620Y23109270D01*
X52985379Y23978517D01*
X52653433Y24781886D01*
X52039319Y25397073D01*
X51236530Y25730420D01*
X50367283Y25731179D01*
X49563914Y25399233D01*
X48948727Y24785119D01*
X48615380Y23982330D01*
X48614621Y23113083D01*
X32664623Y23113083D01*
X32665379Y23978517D01*
X32333433Y24781886D01*
X31719319Y25397073D01*
X31519611Y25479999D01*
X42354635Y25479999D01*
X42354352Y25155813D01*
X42572357Y24628200D01*
X42975677Y24224176D01*
X43502909Y24005250D01*
X44073787Y24004752D01*
X44601400Y24222757D01*
X45005424Y24626077D01*
X45224350Y25153309D01*
X45224848Y25724187D01*
X45006843Y26251800D01*
X44603523Y26655824D01*
X44521669Y26689813D01*
X44601400Y26722757D01*
X45005424Y27126077D01*
X45224350Y27653309D01*
X45224352Y27655813D01*
X62674352Y27655813D01*
X62892357Y27128200D01*
X63295677Y26724176D01*
X63377531Y26690187D01*
X63297800Y26657243D01*
X62893776Y26253923D01*
X62674850Y25726691D01*
X62674352Y25155813D01*
X62892357Y24628200D01*
X63295677Y24224176D01*
X63822909Y24005250D01*
X64393787Y24004752D01*
X64921400Y24222757D01*
X65325424Y24626077D01*
X65347815Y24680000D01*
X69225078Y24680000D01*
X68935380Y23982330D01*
X68934621Y23113083D01*
X69266567Y22309714D01*
X69880681Y21694527D01*
X70683470Y21361180D01*
X71552717Y21360421D01*
X72356086Y21692367D01*
X72971273Y22306481D01*
X73304620Y23109270D01*
X73304623Y23113083D01*
X89254621Y23113083D01*
X89586567Y22309714D01*
X90200681Y21694527D01*
X91003470Y21361180D01*
X91872717Y21360421D01*
X92676086Y21692367D01*
X93291273Y22306481D01*
X93624620Y23109270D01*
X93624623Y23113083D01*
X109574621Y23113083D01*
X109906567Y22309714D01*
X110520681Y21694527D01*
X111323470Y21361180D01*
X112192717Y21360421D01*
X112996086Y21692367D01*
X113611273Y22306481D01*
X113944620Y23109270D01*
X113944623Y23113083D01*
X129894621Y23113083D01*
X130226567Y22309714D01*
X130840681Y21694527D01*
X131643470Y21361180D01*
X132512717Y21360421D01*
X133316086Y21692367D01*
X133931273Y22306481D01*
X134264620Y23109270D01*
X134265379Y23978517D01*
X133933433Y24781886D01*
X133319319Y25397073D01*
X132516530Y25730420D01*
X131647283Y25731179D01*
X130843914Y25399233D01*
X130228727Y24785119D01*
X129895380Y23982330D01*
X129894621Y23113083D01*
X113944623Y23113083D01*
X113945379Y23978517D01*
X113613433Y24781886D01*
X112999319Y25397073D01*
X112196530Y25730420D01*
X111327283Y25731179D01*
X110523914Y25399233D01*
X109908727Y24785119D01*
X109575380Y23982330D01*
X109574621Y23113083D01*
X93624623Y23113083D01*
X93625379Y23978517D01*
X93293433Y24781886D01*
X92679319Y25397073D01*
X91876530Y25730420D01*
X91007283Y25731179D01*
X90203914Y25399233D01*
X89588727Y24785119D01*
X89255380Y23982330D01*
X89254621Y23113083D01*
X73304623Y23113083D01*
X73305379Y23978517D01*
X73015532Y24680000D01*
X83190954Y24680000D01*
X83212357Y24628200D01*
X83615677Y24224176D01*
X84142909Y24005250D01*
X84713787Y24004752D01*
X85241400Y24222757D01*
X85645424Y24626077D01*
X85864350Y25153309D01*
X85864848Y25724187D01*
X85646843Y26251800D01*
X85243523Y26655824D01*
X85161669Y26689813D01*
X85241400Y26722757D01*
X85645424Y27126077D01*
X85864350Y27653309D01*
X85864352Y27655813D01*
X103314352Y27655813D01*
X103532357Y27128200D01*
X103935677Y26724176D01*
X104017531Y26690187D01*
X103937800Y26657243D01*
X103533776Y26253923D01*
X103314850Y25726691D01*
X103314352Y25155813D01*
X103532357Y24628200D01*
X103935677Y24224176D01*
X104462909Y24005250D01*
X105033787Y24004752D01*
X105561400Y24222757D01*
X105965424Y24626077D01*
X106184350Y25153309D01*
X106184848Y25724187D01*
X105966843Y26251800D01*
X105563523Y26655824D01*
X105481669Y26689813D01*
X105561400Y26722757D01*
X105965424Y27126077D01*
X106184350Y27653309D01*
X106184352Y27655813D01*
X123634352Y27655813D01*
X123852357Y27128200D01*
X124255677Y26724176D01*
X124337531Y26690187D01*
X124257800Y26657243D01*
X123853776Y26253923D01*
X123634850Y25726691D01*
X123634352Y25155813D01*
X123852357Y24628200D01*
X124255677Y24224176D01*
X124782909Y24005250D01*
X125353787Y24004752D01*
X125881400Y24222757D01*
X126285424Y24626077D01*
X126504350Y25153309D01*
X126504848Y25724187D01*
X126286843Y26251800D01*
X125883523Y26655824D01*
X125801669Y26689813D01*
X125881400Y26722757D01*
X126285424Y27126077D01*
X126504350Y27653309D01*
X126504848Y28224187D01*
X126286843Y28751800D01*
X125883523Y29155824D01*
X125817056Y29183423D01*
X125823605Y29186136D01*
X125897739Y29432255D01*
X125069600Y30260395D01*
X124241461Y29432255D01*
X124315595Y29186136D01*
X124322083Y29183804D01*
X124257800Y29157243D01*
X123853776Y28753923D01*
X123634850Y28226691D01*
X123634352Y27655813D01*
X106184352Y27655813D01*
X106184848Y28224187D01*
X105966843Y28751800D01*
X105563523Y29155824D01*
X105497056Y29183423D01*
X105503605Y29186136D01*
X105577739Y29432255D01*
X104749600Y30260395D01*
X103921461Y29432255D01*
X103995595Y29186136D01*
X104002083Y29183804D01*
X103937800Y29157243D01*
X103533776Y28753923D01*
X103314850Y28226691D01*
X103314352Y27655813D01*
X85864352Y27655813D01*
X85864848Y28224187D01*
X85646843Y28751800D01*
X85243523Y29155824D01*
X85177056Y29183423D01*
X85183605Y29186136D01*
X85257739Y29432255D01*
X84429600Y30260395D01*
X83601461Y29432255D01*
X83675595Y29186136D01*
X83682083Y29183804D01*
X83617800Y29157243D01*
X83213776Y28753923D01*
X82994850Y28226691D01*
X82994352Y27655813D01*
X83212357Y27128200D01*
X83615677Y26724176D01*
X83697531Y26690187D01*
X83617800Y26657243D01*
X83213776Y26253923D01*
X83191385Y26200000D01*
X65348246Y26200000D01*
X65326843Y26251800D01*
X64923523Y26655824D01*
X64841669Y26689813D01*
X64921400Y26722757D01*
X65325424Y27126077D01*
X65544350Y27653309D01*
X65544848Y28224187D01*
X65326843Y28751800D01*
X64923523Y29155824D01*
X64857056Y29183423D01*
X64863605Y29186136D01*
X64937739Y29432255D01*
X64109600Y30260395D01*
X63281461Y29432255D01*
X63355595Y29186136D01*
X63362083Y29183804D01*
X63297800Y29157243D01*
X62893776Y28753923D01*
X62674850Y28226691D01*
X62674352Y27655813D01*
X45224352Y27655813D01*
X45224848Y28224187D01*
X45006843Y28751800D01*
X44603523Y29155824D01*
X44537056Y29183423D01*
X44543605Y29186136D01*
X44617739Y29432255D01*
X43789600Y30260395D01*
X42961461Y29432255D01*
X43035595Y29186136D01*
X43042083Y29183804D01*
X42977800Y29157243D01*
X42670000Y28849979D01*
X42670000Y29645553D01*
X42781855Y29611861D01*
X43609995Y30440000D01*
X43969205Y30440000D01*
X44797345Y29611861D01*
X45043464Y29685995D01*
X45236565Y30223223D01*
X45209378Y30793454D01*
X45043464Y31194005D01*
X44797345Y31268139D01*
X43969205Y30440000D01*
X43609995Y30440000D01*
X42781855Y31268139D01*
X42670000Y31234447D01*
X42670000Y31447745D01*
X42961461Y31447745D01*
X43789600Y30619605D01*
X44617739Y31447745D01*
X44543605Y31693864D01*
X44006377Y31886965D01*
X43436146Y31859778D01*
X43035595Y31693864D01*
X42961461Y31447745D01*
X42670000Y31447745D01*
X42670000Y31901483D01*
X48614621Y31901483D01*
X48946567Y31098114D01*
X49560681Y30482927D01*
X50363470Y30149580D01*
X51232717Y30148821D01*
X52036086Y30480767D01*
X52212403Y30656777D01*
X62662635Y30656777D01*
X62689822Y30086546D01*
X62855736Y29685995D01*
X63101855Y29611861D01*
X63929995Y30440000D01*
X64289205Y30440000D01*
X65117345Y29611861D01*
X65363464Y29685995D01*
X65556565Y30223223D01*
X65529378Y30793454D01*
X65363464Y31194005D01*
X65117345Y31268139D01*
X64289205Y30440000D01*
X63929995Y30440000D01*
X63101855Y31268139D01*
X62855736Y31194005D01*
X62662635Y30656777D01*
X52212403Y30656777D01*
X52651273Y31094881D01*
X52797794Y31447745D01*
X63281461Y31447745D01*
X64109600Y30619605D01*
X64937739Y31447745D01*
X64863605Y31693864D01*
X64326377Y31886965D01*
X63756146Y31859778D01*
X63355595Y31693864D01*
X63281461Y31447745D01*
X52797794Y31447745D01*
X52984620Y31897670D01*
X52984623Y31901483D01*
X68934621Y31901483D01*
X69266567Y31098114D01*
X69880681Y30482927D01*
X70683470Y30149580D01*
X71552717Y30148821D01*
X72356086Y30480767D01*
X72532403Y30656777D01*
X82982635Y30656777D01*
X83009822Y30086546D01*
X83175736Y29685995D01*
X83421855Y29611861D01*
X84249995Y30440000D01*
X84609205Y30440000D01*
X85437345Y29611861D01*
X85683464Y29685995D01*
X85876565Y30223223D01*
X85849378Y30793454D01*
X85683464Y31194005D01*
X85437345Y31268139D01*
X84609205Y30440000D01*
X84249995Y30440000D01*
X83421855Y31268139D01*
X83175736Y31194005D01*
X82982635Y30656777D01*
X72532403Y30656777D01*
X72971273Y31094881D01*
X73117794Y31447745D01*
X83601461Y31447745D01*
X84429600Y30619605D01*
X85257739Y31447745D01*
X85183605Y31693864D01*
X84646377Y31886965D01*
X84076146Y31859778D01*
X83675595Y31693864D01*
X83601461Y31447745D01*
X73117794Y31447745D01*
X73304620Y31897670D01*
X73304623Y31901483D01*
X89254621Y31901483D01*
X89586567Y31098114D01*
X90200681Y30482927D01*
X91003470Y30149580D01*
X91872717Y30148821D01*
X92676086Y30480767D01*
X92852403Y30656777D01*
X103302635Y30656777D01*
X103329822Y30086546D01*
X103495736Y29685995D01*
X103741855Y29611861D01*
X104569995Y30440000D01*
X104929205Y30440000D01*
X105757345Y29611861D01*
X106003464Y29685995D01*
X106196565Y30223223D01*
X106169378Y30793454D01*
X106003464Y31194005D01*
X105757345Y31268139D01*
X104929205Y30440000D01*
X104569995Y30440000D01*
X103741855Y31268139D01*
X103495736Y31194005D01*
X103302635Y30656777D01*
X92852403Y30656777D01*
X93291273Y31094881D01*
X93437794Y31447745D01*
X103921461Y31447745D01*
X104749600Y30619605D01*
X105577739Y31447745D01*
X105503605Y31693864D01*
X104966377Y31886965D01*
X104396146Y31859778D01*
X103995595Y31693864D01*
X103921461Y31447745D01*
X93437794Y31447745D01*
X93624620Y31897670D01*
X93624623Y31901483D01*
X109574621Y31901483D01*
X109906567Y31098114D01*
X110520681Y30482927D01*
X111323470Y30149580D01*
X112192717Y30148821D01*
X112996086Y30480767D01*
X113172403Y30656777D01*
X123622635Y30656777D01*
X123649822Y30086546D01*
X123815736Y29685995D01*
X124061855Y29611861D01*
X124889995Y30440000D01*
X125249205Y30440000D01*
X126077345Y29611861D01*
X126323464Y29685995D01*
X126516565Y30223223D01*
X126489378Y30793454D01*
X126323464Y31194005D01*
X126077345Y31268139D01*
X125249205Y30440000D01*
X124889995Y30440000D01*
X124061855Y31268139D01*
X123815736Y31194005D01*
X123622635Y30656777D01*
X113172403Y30656777D01*
X113611273Y31094881D01*
X113757794Y31447745D01*
X124241461Y31447745D01*
X125069600Y30619605D01*
X125897739Y31447745D01*
X125823605Y31693864D01*
X125286377Y31886965D01*
X124716146Y31859778D01*
X124315595Y31693864D01*
X124241461Y31447745D01*
X113757794Y31447745D01*
X113944620Y31897670D01*
X113944623Y31901483D01*
X129894621Y31901483D01*
X130226567Y31098114D01*
X130840681Y30482927D01*
X131643470Y30149580D01*
X132512717Y30148821D01*
X133316086Y30480767D01*
X133492403Y30656777D01*
X143942635Y30656777D01*
X143969822Y30086546D01*
X144135736Y29685995D01*
X144381855Y29611861D01*
X145209995Y30440000D01*
X145569205Y30440000D01*
X146397345Y29611861D01*
X146643464Y29685995D01*
X146836565Y30223223D01*
X146809378Y30793454D01*
X146643464Y31194005D01*
X146397345Y31268139D01*
X145569205Y30440000D01*
X145209995Y30440000D01*
X144381855Y31268139D01*
X144135736Y31194005D01*
X143942635Y30656777D01*
X133492403Y30656777D01*
X133931273Y31094881D01*
X134077794Y31447745D01*
X144561461Y31447745D01*
X145389600Y30619605D01*
X146217739Y31447745D01*
X146143605Y31693864D01*
X145606377Y31886965D01*
X145036146Y31859778D01*
X144635595Y31693864D01*
X144561461Y31447745D01*
X134077794Y31447745D01*
X134264620Y31897670D01*
X134265379Y32766917D01*
X133933433Y33570286D01*
X133319319Y34185473D01*
X132516530Y34518820D01*
X131647283Y34519579D01*
X130843914Y34187633D01*
X130228727Y33573519D01*
X129895380Y32770730D01*
X129894621Y31901483D01*
X113944623Y31901483D01*
X113945379Y32766917D01*
X113613433Y33570286D01*
X112999319Y34185473D01*
X112196530Y34518820D01*
X111327283Y34519579D01*
X110523914Y34187633D01*
X109908727Y33573519D01*
X109575380Y32770730D01*
X109574621Y31901483D01*
X93624623Y31901483D01*
X93625379Y32766917D01*
X93293433Y33570286D01*
X92679319Y34185473D01*
X91876530Y34518820D01*
X91007283Y34519579D01*
X90203914Y34187633D01*
X89588727Y33573519D01*
X89255380Y32770730D01*
X89254621Y31901483D01*
X73304623Y31901483D01*
X73305379Y32766917D01*
X72973433Y33570286D01*
X72359319Y34185473D01*
X71556530Y34518820D01*
X70687283Y34519579D01*
X69883914Y34187633D01*
X69268727Y33573519D01*
X68935380Y32770730D01*
X68934621Y31901483D01*
X52984623Y31901483D01*
X52985379Y32766917D01*
X52653433Y33570286D01*
X52039319Y34185473D01*
X51236530Y34518820D01*
X50367283Y34519579D01*
X49563914Y34187633D01*
X48948727Y33573519D01*
X48615380Y32770730D01*
X48614621Y31901483D01*
X42670000Y31901483D01*
X42670000Y39055198D01*
X45454939Y41840137D01*
X45454735Y41606009D01*
X45687932Y41041629D01*
X46089182Y40639677D01*
X45689449Y40240643D01*
X45455267Y39676670D01*
X45454735Y39066009D01*
X45687932Y38501629D01*
X46119357Y38069449D01*
X46683330Y37835267D01*
X47293991Y37834735D01*
X47858371Y38067932D01*
X48290551Y38499357D01*
X48524733Y39063330D01*
X48525088Y39471828D01*
X51332538Y39471828D01*
X51737709Y38491239D01*
X52487293Y37740345D01*
X53467173Y37333464D01*
X54528172Y37332538D01*
X55508761Y37737709D01*
X56259655Y38487293D01*
X56666536Y39467173D01*
X56667462Y40528172D01*
X56262291Y41508761D01*
X55512707Y42259655D01*
X54532827Y42666536D01*
X53471828Y42667462D01*
X52491239Y42262291D01*
X51740345Y41512707D01*
X51333464Y40532827D01*
X51332538Y39471828D01*
X48525088Y39471828D01*
X48525265Y39673991D01*
X48292068Y40238371D01*
X47890818Y40640323D01*
X48290551Y41039357D01*
X48524733Y41603330D01*
X48525265Y42213991D01*
X48292068Y42778371D01*
X48075985Y42994833D01*
X73994838Y42994833D01*
X74136883Y42651057D01*
X74242710Y42545046D01*
X74137808Y42440327D01*
X73995162Y42096799D01*
X73994838Y41724833D01*
X74136883Y41381057D01*
X74399673Y41117808D01*
X74743201Y40975162D01*
X74790077Y40975121D01*
X80107599Y35657598D01*
X80354161Y35492852D01*
X80645000Y35435000D01*
X85162537Y35435000D01*
X85194673Y35402808D01*
X85538201Y35260162D01*
X85910167Y35259838D01*
X86253943Y35401883D01*
X86517192Y35664673D01*
X86659838Y36008201D01*
X86660162Y36380167D01*
X86518117Y36723943D01*
X86255327Y36987192D01*
X86218034Y37002677D01*
X86218213Y37208218D01*
X86076168Y37551994D01*
X85813378Y37815243D01*
X85469850Y37957889D01*
X85422974Y37957930D01*
X79663503Y43717401D01*
X79416941Y43882148D01*
X79126102Y43940000D01*
X75492463Y43940000D01*
X75460327Y43972192D01*
X75116799Y44114838D01*
X74744833Y44115162D01*
X74401057Y43973117D01*
X74137808Y43710327D01*
X73995162Y43366799D01*
X73994838Y42994833D01*
X48075985Y42994833D01*
X47890818Y43180323D01*
X48290551Y43579357D01*
X48524733Y44143330D01*
X48525265Y44753991D01*
X48292068Y45318371D01*
X47860643Y45750551D01*
X47839806Y45759203D01*
X47890554Y45909841D01*
X46990000Y46810395D01*
X46089446Y45909841D01*
X46140035Y45759673D01*
X46121629Y45752068D01*
X45689449Y45320643D01*
X45455267Y44756670D01*
X45454735Y44146009D01*
X45500485Y44035287D01*
X41372599Y39907401D01*
X41207852Y39660839D01*
X41150000Y39370000D01*
X41150000Y27319600D01*
X41207852Y27028761D01*
X41227070Y26999999D01*
X26104401Y26999999D01*
X28317401Y29212999D01*
X28482148Y29459561D01*
X28540000Y29750400D01*
X28540000Y31307622D01*
X28626567Y31098114D01*
X29240681Y30482927D01*
X30043470Y30149580D01*
X30912717Y30148821D01*
X31716086Y30480767D01*
X32331273Y31094881D01*
X32664620Y31897670D01*
X32665379Y32766917D01*
X32333433Y33570286D01*
X31719319Y34185473D01*
X30916530Y34518820D01*
X30047283Y34519579D01*
X29243914Y34187633D01*
X28628727Y33573519D01*
X28540000Y33359841D01*
X28540000Y35233154D01*
X28648371Y35277932D01*
X29080551Y35709357D01*
X29129832Y35828039D01*
X29177932Y35711629D01*
X29609357Y35279449D01*
X30173330Y35045267D01*
X30783991Y35044735D01*
X31348371Y35277932D01*
X31570668Y35499841D01*
X32279446Y35499841D01*
X32365852Y35243357D01*
X32939336Y35033542D01*
X33549460Y35059161D01*
X33994148Y35243357D01*
X34080554Y35499841D01*
X33180000Y36400395D01*
X32279446Y35499841D01*
X31570668Y35499841D01*
X31780551Y35709357D01*
X31823708Y35813290D01*
X31843357Y35765852D01*
X32099841Y35679446D01*
X33000395Y36580000D01*
X33359605Y36580000D01*
X34260159Y35679446D01*
X34516643Y35765852D01*
X34726458Y36339336D01*
X34700839Y36949460D01*
X34516643Y37394148D01*
X34260159Y37480554D01*
X33359605Y36580000D01*
X33000395Y36580000D01*
X32099841Y37480554D01*
X31843357Y37394148D01*
X31825096Y37344235D01*
X31782068Y37448371D01*
X31570650Y37660159D01*
X32279446Y37660159D01*
X33180000Y36759605D01*
X34080554Y37660159D01*
X33994148Y37916643D01*
X33420664Y38126458D01*
X32810540Y38100839D01*
X32365852Y37916643D01*
X32279446Y37660159D01*
X31570650Y37660159D01*
X31350643Y37880551D01*
X30786670Y38114733D01*
X30176009Y38115265D01*
X29611629Y37882068D01*
X29179449Y37450643D01*
X29130168Y37331961D01*
X29082068Y37448371D01*
X28650643Y37880551D01*
X28086670Y38114733D01*
X27476009Y38115265D01*
X26911629Y37882068D01*
X26479449Y37450643D01*
X26245267Y36886670D01*
X26244735Y36276009D01*
X26477932Y35711629D01*
X26909357Y35279449D01*
X27020000Y35233506D01*
X27020000Y30065202D01*
X24904609Y27949811D01*
X24904848Y28224187D01*
X24686843Y28751800D01*
X24283523Y29155824D01*
X24217056Y29183423D01*
X24223605Y29186136D01*
X24297739Y29432255D01*
X23469600Y30260395D01*
X22641461Y29432255D01*
X22715595Y29186136D01*
X22722083Y29183804D01*
X22657800Y29157243D01*
X22253776Y28753923D01*
X22034850Y28226691D01*
X22034352Y27655813D01*
X4584352Y27655813D01*
X4584848Y28224187D01*
X4366843Y28751800D01*
X3963523Y29155824D01*
X3897056Y29183423D01*
X3903605Y29186136D01*
X3977739Y29432255D01*
X3149600Y30260395D01*
X2321461Y29432255D01*
X2395595Y29186136D01*
X2402083Y29183804D01*
X2337800Y29157243D01*
X1933776Y28753923D01*
X1714850Y28226691D01*
X1714352Y27655813D01*
X685000Y27655813D01*
X685000Y30656777D01*
X1702635Y30656777D01*
X1729822Y30086546D01*
X1895736Y29685995D01*
X2141855Y29611861D01*
X2969995Y30440000D01*
X3329205Y30440000D01*
X4157345Y29611861D01*
X4403464Y29685995D01*
X4596565Y30223223D01*
X4569378Y30793454D01*
X4403464Y31194005D01*
X4157345Y31268139D01*
X3329205Y30440000D01*
X2969995Y30440000D01*
X2141855Y31268139D01*
X1895736Y31194005D01*
X1702635Y30656777D01*
X685000Y30656777D01*
X685000Y31447745D01*
X2321461Y31447745D01*
X3149600Y30619605D01*
X3977739Y31447745D01*
X3903605Y31693864D01*
X3366377Y31886965D01*
X2796146Y31859778D01*
X2395595Y31693864D01*
X2321461Y31447745D01*
X685000Y31447745D01*
X685000Y31901483D01*
X7974621Y31901483D01*
X8306567Y31098114D01*
X8920681Y30482927D01*
X9723470Y30149580D01*
X10592717Y30148821D01*
X11396086Y30480767D01*
X11572403Y30656777D01*
X22022635Y30656777D01*
X22049822Y30086546D01*
X22215736Y29685995D01*
X22461855Y29611861D01*
X23289995Y30440000D01*
X23649205Y30440000D01*
X24477345Y29611861D01*
X24723464Y29685995D01*
X24916565Y30223223D01*
X24889378Y30793454D01*
X24723464Y31194005D01*
X24477345Y31268139D01*
X23649205Y30440000D01*
X23289995Y30440000D01*
X22461855Y31268139D01*
X22215736Y31194005D01*
X22022635Y30656777D01*
X11572403Y30656777D01*
X12011273Y31094881D01*
X12157794Y31447745D01*
X22641461Y31447745D01*
X23469600Y30619605D01*
X24297739Y31447745D01*
X24223605Y31693864D01*
X23686377Y31886965D01*
X23116146Y31859778D01*
X22715595Y31693864D01*
X22641461Y31447745D01*
X12157794Y31447745D01*
X12344620Y31897670D01*
X12345379Y32766917D01*
X12013433Y33570286D01*
X11399319Y34185473D01*
X10596530Y34518820D01*
X9727283Y34519579D01*
X8923914Y34187633D01*
X8308727Y33573519D01*
X7975380Y32770730D01*
X7974621Y31901483D01*
X685000Y31901483D01*
X685000Y39471828D01*
X832538Y39471828D01*
X1237709Y38491239D01*
X1987293Y37740345D01*
X2967173Y37333464D01*
X4028172Y37332538D01*
X5008761Y37737709D01*
X5625210Y38353083D01*
X7974621Y38353083D01*
X8306567Y37549714D01*
X8920681Y36934527D01*
X9723470Y36601180D01*
X10592717Y36600421D01*
X11396086Y36932367D01*
X12011273Y37546481D01*
X12344620Y38349270D01*
X12345379Y39218517D01*
X12157898Y39672255D01*
X16342261Y39672255D01*
X16416395Y39426136D01*
X16953623Y39233035D01*
X17523854Y39260222D01*
X17921278Y39424841D01*
X22979446Y39424841D01*
X23065852Y39168357D01*
X23639336Y38958542D01*
X24249460Y38984161D01*
X24694148Y39168357D01*
X24780554Y39424841D01*
X23880000Y40325395D01*
X22979446Y39424841D01*
X17921278Y39424841D01*
X17924405Y39426136D01*
X17998539Y39672255D01*
X17170400Y40500395D01*
X16342261Y39672255D01*
X12157898Y39672255D01*
X12013433Y40021886D01*
X11399319Y40637073D01*
X10773883Y40896777D01*
X15723435Y40896777D01*
X15750622Y40326546D01*
X15916536Y39925995D01*
X16162655Y39851861D01*
X16990795Y40680000D01*
X17350005Y40680000D01*
X18178145Y39851861D01*
X18424264Y39925995D01*
X18617365Y40463223D01*
X18603900Y40745664D01*
X22333542Y40745664D01*
X22359161Y40135540D01*
X22543357Y39690852D01*
X22799841Y39604446D01*
X23700395Y40505000D01*
X24059605Y40505000D01*
X24960159Y39604446D01*
X25216643Y39690852D01*
X25426458Y40264336D01*
X25413392Y40575519D01*
X29194777Y40575519D01*
X29389995Y40103057D01*
X29751155Y39741265D01*
X30223276Y39545223D01*
X30734481Y39544777D01*
X31206943Y39739995D01*
X31568735Y40101155D01*
X31764777Y40573276D01*
X31765223Y41084481D01*
X31570005Y41556943D01*
X31208845Y41918735D01*
X30772694Y42099841D01*
X34179446Y42099841D01*
X34265852Y41843357D01*
X34839336Y41633542D01*
X35449460Y41659161D01*
X35894148Y41843357D01*
X35980554Y42099841D01*
X35080000Y43000395D01*
X34179446Y42099841D01*
X30772694Y42099841D01*
X30736724Y42114777D01*
X30225519Y42115223D01*
X29753057Y41920005D01*
X29391265Y41558845D01*
X29195223Y41086724D01*
X29194777Y40575519D01*
X25413392Y40575519D01*
X25400839Y40874460D01*
X25216643Y41319148D01*
X24960159Y41405554D01*
X24059605Y40505000D01*
X23700395Y40505000D01*
X22799841Y41405554D01*
X22543357Y41319148D01*
X22333542Y40745664D01*
X18603900Y40745664D01*
X18590178Y41033454D01*
X18424264Y41434005D01*
X18178145Y41508139D01*
X17350005Y40680000D01*
X16990795Y40680000D01*
X16162655Y41508139D01*
X15916536Y41434005D01*
X15723435Y40896777D01*
X10773883Y40896777D01*
X10596530Y40970420D01*
X9727283Y40971179D01*
X8923914Y40639233D01*
X8308727Y40025119D01*
X7975380Y39222330D01*
X7974621Y38353083D01*
X5625210Y38353083D01*
X5759655Y38487293D01*
X6166536Y39467173D01*
X6167462Y40528172D01*
X5762291Y41508761D01*
X5012707Y42259655D01*
X4032827Y42666536D01*
X2971828Y42667462D01*
X1991239Y42262291D01*
X1240345Y41512707D01*
X833464Y40532827D01*
X832538Y39471828D01*
X685000Y39471828D01*
X685000Y49315000D01*
X8811084Y49315000D01*
X8308727Y48813519D01*
G36*
X83622188Y7327913D02*
X83663326Y7121102D01*
X83730393Y7020729D01*
X83730311Y6926775D01*
X83872356Y6582999D01*
X84135146Y6319750D01*
X84478674Y6177104D01*
X84850640Y6176780D01*
X85194416Y6318825D01*
X85457665Y6581615D01*
X85600311Y6925143D01*
X85600635Y7297109D01*
X85522999Y7485002D01*
X86345200Y7485002D01*
X86870000Y6960202D01*
X86870000Y5117462D01*
X86782220Y5081192D01*
X86360290Y4659997D01*
X86343459Y4619463D01*
X86143805Y4684200D01*
X85269605Y3810000D01*
X86143805Y2935800D01*
X86343033Y3000399D01*
X86358808Y2962220D01*
X86780003Y2540290D01*
X86780931Y2539905D01*
X86360290Y2119997D01*
X86343459Y2079463D01*
X86143805Y2144200D01*
X85269605Y1270000D01*
X85283748Y1255858D01*
X85104143Y1076253D01*
X85090000Y1090395D01*
X85075858Y1076253D01*
X84896253Y1255858D01*
X84910395Y1270000D01*
X84036195Y2144200D01*
X83836967Y2079601D01*
X83821192Y2117780D01*
X83399997Y2539710D01*
X83399069Y2540095D01*
X83615546Y2756195D01*
X84215800Y2756195D01*
X84285901Y2540000D01*
X84215800Y2323805D01*
X85090000Y1449605D01*
X85964200Y2323805D01*
X85894099Y2540000D01*
X85964200Y2756195D01*
X85090000Y3630395D01*
X84215800Y2756195D01*
X83615546Y2756195D01*
X83819710Y2960003D01*
X83836541Y3000537D01*
X84036195Y2935800D01*
X84910395Y3810000D01*
X84036195Y4684200D01*
X83836967Y4619601D01*
X83821192Y4657780D01*
X83615526Y4863805D01*
X84215800Y4863805D01*
X85090000Y3989605D01*
X85964200Y4863805D01*
X85882259Y5116516D01*
X85321970Y5320248D01*
X84726365Y5294058D01*
X84297741Y5116516D01*
X84215800Y4863805D01*
X83615526Y4863805D01*
X83399997Y5079710D01*
X82849398Y5308339D01*
X82253218Y5308859D01*
X82096947Y5244289D01*
X82214838Y5528201D01*
X82215162Y5900167D01*
X82073117Y6243943D01*
X81810327Y6507192D01*
X81510668Y6631622D01*
X81579838Y6798201D01*
X81580162Y7170167D01*
X81474690Y7425430D01*
X81728201Y7320162D01*
X82100167Y7319838D01*
X82443943Y7461883D01*
X82707192Y7724673D01*
X82849838Y8068201D01*
X82849866Y8100235D01*
X83622188Y7327913D01*
X83622188Y7327913D01*
G37*
X83622188Y7327913D02*
X83663326Y7121102D01*
X83730393Y7020729D01*
X83730311Y6926775D01*
X83872356Y6582999D01*
X84135146Y6319750D01*
X84478674Y6177104D01*
X84850640Y6176780D01*
X85194416Y6318825D01*
X85457665Y6581615D01*
X85600311Y6925143D01*
X85600635Y7297109D01*
X85522999Y7485002D01*
X86345200Y7485002D01*
X86870000Y6960202D01*
X86870000Y5117462D01*
X86782220Y5081192D01*
X86360290Y4659997D01*
X86343459Y4619463D01*
X86143805Y4684200D01*
X85269605Y3810000D01*
X86143805Y2935800D01*
X86343033Y3000399D01*
X86358808Y2962220D01*
X86780003Y2540290D01*
X86780931Y2539905D01*
X86360290Y2119997D01*
X86343459Y2079463D01*
X86143805Y2144200D01*
X85269605Y1270000D01*
X85283748Y1255858D01*
X85104143Y1076253D01*
X85090000Y1090395D01*
X85075858Y1076253D01*
X84896253Y1255858D01*
X84910395Y1270000D01*
X84036195Y2144200D01*
X83836967Y2079601D01*
X83821192Y2117780D01*
X83399997Y2539710D01*
X83399069Y2540095D01*
X83615546Y2756195D01*
X84215800Y2756195D01*
X84285901Y2540000D01*
X84215800Y2323805D01*
X85090000Y1449605D01*
X85964200Y2323805D01*
X85894099Y2540000D01*
X85964200Y2756195D01*
X85090000Y3630395D01*
X84215800Y2756195D01*
X83615546Y2756195D01*
X83819710Y2960003D01*
X83836541Y3000537D01*
X84036195Y2935800D01*
X84910395Y3810000D01*
X84036195Y4684200D01*
X83836967Y4619601D01*
X83821192Y4657780D01*
X83615526Y4863805D01*
X84215800Y4863805D01*
X85090000Y3989605D01*
X85964200Y4863805D01*
X85882259Y5116516D01*
X85321970Y5320248D01*
X84726365Y5294058D01*
X84297741Y5116516D01*
X84215800Y4863805D01*
X83615526Y4863805D01*
X83399997Y5079710D01*
X82849398Y5308339D01*
X82253218Y5308859D01*
X82096947Y5244289D01*
X82214838Y5528201D01*
X82215162Y5900167D01*
X82073117Y6243943D01*
X81810327Y6507192D01*
X81510668Y6631622D01*
X81579838Y6798201D01*
X81580162Y7170167D01*
X81474690Y7425430D01*
X81728201Y7320162D01*
X82100167Y7319838D01*
X82443943Y7461883D01*
X82707192Y7724673D01*
X82849838Y8068201D01*
X82849866Y8100235D01*
X83622188Y7327913D01*
G36*
X130670320Y48560122D02*
X130624833Y48560162D01*
X130281057Y48418117D01*
X130017808Y48155327D01*
X129875162Y47811799D01*
X129874838Y47439833D01*
X130016883Y47096057D01*
X130279673Y46832808D01*
X130623201Y46690162D01*
X130705288Y46690090D01*
X129225198Y45210000D01*
X125806846Y45210000D01*
X125762068Y45318371D01*
X125330643Y45750551D01*
X125309806Y45759203D01*
X125360554Y45909841D01*
X124460000Y46810395D01*
X123559446Y45909841D01*
X123610035Y45759673D01*
X123591629Y45752068D01*
X123159449Y45320643D01*
X122925267Y44756670D01*
X122924878Y44310001D01*
X97703701Y44310001D01*
X99324129Y45930429D01*
X99369616Y45930389D01*
X99713392Y46072434D01*
X99976641Y46335224D01*
X100119287Y46678752D01*
X100119611Y47050718D01*
X99977566Y47394494D01*
X99917164Y47455001D01*
X103235197Y47455001D01*
X104237599Y46452599D01*
X104484161Y46287852D01*
X104775000Y46230000D01*
X109855000Y46230000D01*
X110145839Y46287852D01*
X110392401Y46452599D01*
X111170466Y47230664D01*
X122913542Y47230664D01*
X122939161Y46620540D01*
X123123357Y46175852D01*
X123379841Y46089446D01*
X124280395Y46990000D01*
X124639605Y46990000D01*
X125540159Y46089446D01*
X125796643Y46175852D01*
X126006458Y46749336D01*
X125980839Y47359460D01*
X125796643Y47804148D01*
X125540159Y47890554D01*
X124639605Y46990000D01*
X124280395Y46990000D01*
X123379841Y47890554D01*
X123123357Y47804148D01*
X122913542Y47230664D01*
X111170466Y47230664D01*
X111264680Y47324878D01*
X111310167Y47324838D01*
X111653943Y47466883D01*
X111917192Y47729673D01*
X112058574Y48070159D01*
X123559446Y48070159D01*
X124460000Y47169605D01*
X125360554Y48070159D01*
X125274148Y48326643D01*
X124700664Y48536458D01*
X124090540Y48510839D01*
X123645852Y48326643D01*
X123559446Y48070159D01*
X112058574Y48070159D01*
X112059838Y48073201D01*
X112060162Y48445167D01*
X111918117Y48788943D01*
X111655327Y49052192D01*
X111311799Y49194838D01*
X110939833Y49195162D01*
X110596057Y49053117D01*
X110490046Y48947290D01*
X110385327Y49052192D01*
X110041799Y49194838D01*
X109669833Y49195162D01*
X109326057Y49053117D01*
X109220046Y48947290D01*
X109115327Y49052192D01*
X108771799Y49194838D01*
X108724923Y49194879D01*
X108604802Y49315000D01*
X131425198Y49315000D01*
X130670320Y48560122D01*
X130670320Y48560122D01*
G37*
X130670320Y48560122D02*
X130624833Y48560162D01*
X130281057Y48418117D01*
X130017808Y48155327D01*
X129875162Y47811799D01*
X129874838Y47439833D01*
X130016883Y47096057D01*
X130279673Y46832808D01*
X130623201Y46690162D01*
X130705288Y46690090D01*
X129225198Y45210000D01*
X125806846Y45210000D01*
X125762068Y45318371D01*
X125330643Y45750551D01*
X125309806Y45759203D01*
X125360554Y45909841D01*
X124460000Y46810395D01*
X123559446Y45909841D01*
X123610035Y45759673D01*
X123591629Y45752068D01*
X123159449Y45320643D01*
X122925267Y44756670D01*
X122924878Y44310001D01*
X97703701Y44310001D01*
X99324129Y45930429D01*
X99369616Y45930389D01*
X99713392Y46072434D01*
X99976641Y46335224D01*
X100119287Y46678752D01*
X100119611Y47050718D01*
X99977566Y47394494D01*
X99917164Y47455001D01*
X103235197Y47455001D01*
X104237599Y46452599D01*
X104484161Y46287852D01*
X104775000Y46230000D01*
X109855000Y46230000D01*
X110145839Y46287852D01*
X110392401Y46452599D01*
X111170466Y47230664D01*
X122913542Y47230664D01*
X122939161Y46620540D01*
X123123357Y46175852D01*
X123379841Y46089446D01*
X124280395Y46990000D01*
X124639605Y46990000D01*
X125540159Y46089446D01*
X125796643Y46175852D01*
X126006458Y46749336D01*
X125980839Y47359460D01*
X125796643Y47804148D01*
X125540159Y47890554D01*
X124639605Y46990000D01*
X124280395Y46990000D01*
X123379841Y47890554D01*
X123123357Y47804148D01*
X122913542Y47230664D01*
X111170466Y47230664D01*
X111264680Y47324878D01*
X111310167Y47324838D01*
X111653943Y47466883D01*
X111917192Y47729673D01*
X112058574Y48070159D01*
X123559446Y48070159D01*
X124460000Y47169605D01*
X125360554Y48070159D01*
X125274148Y48326643D01*
X124700664Y48536458D01*
X124090540Y48510839D01*
X123645852Y48326643D01*
X123559446Y48070159D01*
X112058574Y48070159D01*
X112059838Y48073201D01*
X112060162Y48445167D01*
X111918117Y48788943D01*
X111655327Y49052192D01*
X111311799Y49194838D01*
X110939833Y49195162D01*
X110596057Y49053117D01*
X110490046Y48947290D01*
X110385327Y49052192D01*
X110041799Y49194838D01*
X109669833Y49195162D01*
X109326057Y49053117D01*
X109220046Y48947290D01*
X109115327Y49052192D01*
X108771799Y49194838D01*
X108724923Y49194879D01*
X108604802Y49315000D01*
X131425198Y49315000D01*
X130670320Y48560122D01*
M02*
