<?xml version="1.0" encoding="utf-8"?>
<!-- Generator: Adobe Illustrator 15.0.0, SVG Export Plug-In . SVG Version: 6.00 Build 0)  -->
<!DOCTYPE svg PUBLIC "-//W3C//DTD SVG 1.1//EN" "http://www.w3.org/Graphics/SVG/1.1/DTD/svg11.dtd">
<svg version="1.1" id="Layer_1" xmlns="http://www.w3.org/2000/svg" xmlns:xlink="http://www.w3.org/1999/xlink" x="0px" y="0px"
	 width="1191px" height="842px" viewBox="0 0 1191 842" enable-background="new 0 0 1191 842" xml:space="preserve">
<path fill="none" stroke="#000000" stroke-width="1.44" stroke-linecap="round" stroke-linejoin="round" stroke-miterlimit="10" d="
	M330.379,184.83c0-2.568-2.082-4.65-4.649-4.65s-4.649,2.082-4.649,4.65s2.082,4.65,4.649,4.65S330.379,187.398,330.379,184.83"/>
<path fill="none" stroke="#000000" stroke-width="1.44" stroke-linecap="round" stroke-linejoin="round" stroke-miterlimit="10" d="
	M330.379,213.33c0-2.568-2.082-4.65-4.649-4.65s-4.649,2.082-4.649,4.65s2.082,4.65,4.649,4.65S330.379,215.898,330.379,213.33"/>
<path fill="none" stroke="#000000" stroke-width="1.44" stroke-linecap="round" stroke-linejoin="round" stroke-miterlimit="10" d="
	M330.379,230.37c0-2.568-2.082-4.649-4.649-4.649s-4.649,2.081-4.649,4.649c0,2.567,2.082,4.649,4.649,4.649
	S330.379,232.938,330.379,230.37"/>
<path fill="none" stroke="#000000" stroke-width="1.44" stroke-linecap="round" stroke-linejoin="round" stroke-miterlimit="10" d="
	M330.38,258.87c-0.001-2.568-2.083-4.649-4.65-4.649s-4.649,2.081-4.649,4.649c0,2.567,2.082,4.649,4.649,4.649
	C328.298,263.52,330.38,261.438,330.38,258.87"/>
<path fill="none" stroke="#000000" stroke-width="1.44" stroke-linecap="round" stroke-linejoin="round" stroke-miterlimit="10" d="
	M330.38,349.95c0-2.568-2.082-4.65-4.65-4.65c-2.567,0-4.649,2.082-4.649,4.65c0,2.568,2.082,4.65,4.649,4.65
	C328.298,354.6,330.38,352.518,330.38,349.95"/>
<path fill="none" stroke="#000000" stroke-width="1.44" stroke-linecap="round" stroke-linejoin="round" stroke-miterlimit="10" d="
	M330.38,366.93c0-2.568-2.082-4.65-4.65-4.65c-2.567,0-4.649,2.082-4.649,4.65c0,2.568,2.082,4.65,4.649,4.65
	C328.298,371.58,330.38,369.498,330.38,366.93"/>
<path fill="none" stroke="#000000" stroke-width="1.44" stroke-linecap="round" stroke-linejoin="round" stroke-miterlimit="10" d="
	M330.38,532.05c0-2.568-2.082-4.649-4.65-4.649c-2.567,0-4.649,2.081-4.649,4.649s2.082,4.65,4.649,4.65
	C328.298,536.7,330.38,534.618,330.38,532.05"/>
<path fill="none" stroke="#000000" stroke-width="1.44" stroke-linecap="round" stroke-linejoin="round" stroke-miterlimit="10" d="
	M877.579,349.95c0-2.568-2.082-4.65-4.65-4.65s-4.649,2.082-4.649,4.65c0,2.568,2.081,4.65,4.649,4.65
	S877.579,352.518,877.579,349.95"/>
<path fill="none" stroke="#000000" stroke-width="1.44" stroke-linecap="round" stroke-linejoin="round" stroke-miterlimit="10" d="
	M877.579,230.37c0-2.568-2.082-4.649-4.65-4.649s-4.649,2.081-4.649,4.649c0,2.567,2.081,4.649,4.649,4.649
	S877.579,232.938,877.579,230.37"/>
<path fill="none" stroke="#000000" stroke-width="1.44" stroke-linecap="round" stroke-linejoin="round" stroke-miterlimit="10" d="
	M877.579,275.85c0-2.568-2.082-4.649-4.65-4.649s-4.649,2.081-4.649,4.649s2.081,4.65,4.649,4.65S877.579,278.418,877.579,275.85"/>
<path fill="none" stroke="#000000" stroke-width="1.44" stroke-linecap="round" stroke-linejoin="round" stroke-miterlimit="10" d="
	M877.579,366.93c0-2.568-2.082-4.65-4.65-4.65s-4.649,2.082-4.649,4.65c0,2.568,2.081,4.65,4.649,4.65
	S877.579,369.498,877.579,366.93"/>
<path fill="none" stroke="#000000" stroke-width="1.44" stroke-linecap="round" stroke-linejoin="round" stroke-miterlimit="10" d="
	M877.579,213.33c0-2.568-2.082-4.65-4.65-4.65s-4.649,2.082-4.649,4.65s2.081,4.65,4.649,4.65S877.579,215.898,877.579,213.33"/>
<path fill="none" stroke="#000000" stroke-width="1.44" stroke-linecap="round" stroke-linejoin="round" stroke-miterlimit="10" d="
	M877.579,258.87c0-2.568-2.082-4.649-4.65-4.649s-4.649,2.081-4.649,4.649c0,2.567,2.081,4.649,4.649,4.649
	S877.579,261.438,877.579,258.87"/>
<path fill="none" stroke="#000000" stroke-width="1.44" stroke-linecap="round" stroke-linejoin="round" stroke-miterlimit="10" d="
	M877.579,184.83c0-2.568-2.082-4.65-4.65-4.65s-4.649,2.082-4.649,4.65s2.081,4.65,4.649,4.65S877.579,187.398,877.579,184.83"/>
<path fill="none" stroke="#000000" stroke-width="1.44" stroke-linecap="round" stroke-linejoin="round" stroke-miterlimit="10" d="
	M877.579,532.05c0-2.568-2.082-4.649-4.65-4.649s-4.649,2.081-4.649,4.649s2.081,4.65,4.649,4.65S877.579,534.618,877.579,532.05"/>
<path fill="none" stroke="#000000" stroke-width="1.44" stroke-linecap="round" stroke-linejoin="round" stroke-miterlimit="10" d="
	M435.02,335.67c0-5.086-4.123-9.21-9.21-9.21c-5.086,0-9.21,4.124-9.21,9.21c0,5.087,4.124,9.21,9.21,9.21
	C430.896,344.88,435.02,340.757,435.02,335.67"/>
<path fill="none" stroke="#000000" stroke-width="1.44" stroke-linecap="round" stroke-linejoin="round" stroke-miterlimit="10" d="
	M831.859,290.13c0-5.087-4.124-9.21-9.21-9.21c-5.087,0-9.21,4.123-9.21,9.21s4.123,9.21,9.21,9.21
	C827.735,299.34,831.859,295.217,831.859,290.13"/>
<path fill="none" stroke="#000000" stroke-width="1.44" stroke-linecap="round" stroke-linejoin="round" stroke-miterlimit="10" d="
	M775.159,290.13c0-5.087-4.124-9.21-9.21-9.21c-5.087,0-9.21,4.123-9.21,9.21s4.123,9.21,9.21,9.21
	C771.035,299.34,775.159,295.217,775.159,290.13"/>
<path fill="none" stroke="#000000" stroke-width="1.44" stroke-linecap="round" stroke-linejoin="round" stroke-miterlimit="10" d="
	M718.459,290.13c0-5.087-4.123-9.21-9.21-9.21s-9.21,4.123-9.21,9.21s4.123,9.21,9.21,9.21S718.459,295.217,718.459,290.13"/>
<path fill="none" stroke="#000000" stroke-width="1.44" stroke-linecap="round" stroke-linejoin="round" stroke-miterlimit="10" d="
	M661.759,290.13c0-5.087-4.123-9.21-9.21-9.21s-9.21,4.123-9.21,9.21s4.123,9.21,9.21,9.21S661.759,295.217,661.759,290.13"/>
<path fill="none" stroke="#000000" stroke-width="1.44" stroke-linecap="round" stroke-linejoin="round" stroke-miterlimit="10" d="
	M605.059,290.13c0-5.087-4.122-9.21-9.209-9.21c-5.086,0-9.21,4.123-9.21,9.21s4.124,9.21,9.21,9.21
	C600.937,299.34,605.059,295.217,605.059,290.13"/>
<path fill="none" stroke="#000000" stroke-width="1.44" stroke-linecap="round" stroke-linejoin="round" stroke-miterlimit="10" d="
	M548.359,290.13c0-5.087-4.123-9.21-9.21-9.21c-5.086,0-9.21,4.123-9.21,9.21s4.124,9.21,9.21,9.21
	C544.236,299.34,548.359,295.217,548.359,290.13"/>
<path fill="none" stroke="#000000" stroke-width="1.44" stroke-linecap="round" stroke-linejoin="round" stroke-miterlimit="10" d="
	M491.66,290.13c0-5.087-4.124-9.21-9.21-9.21c-5.087,0-9.21,4.123-9.21,9.21s4.123,9.21,9.21,9.21
	C487.536,299.34,491.66,295.217,491.66,290.13"/>
<path fill="none" stroke="#000000" stroke-width="1.44" stroke-linecap="round" stroke-linejoin="round" stroke-miterlimit="10" d="
	M330.38,275.85c0-2.568-2.082-4.649-4.65-4.649c-2.567,0-4.649,2.081-4.649,4.649s2.082,4.65,4.649,4.65
	C328.298,280.5,330.38,278.418,330.38,275.85"/>
<path fill="none" stroke="#000000" stroke-width="1.44" stroke-linecap="round" stroke-linejoin="round" stroke-miterlimit="10" d="
	M435.02,290.13c0-5.087-4.123-9.21-9.21-9.21c-5.086,0-9.21,4.123-9.21,9.21s4.124,9.21,9.21,9.21
	C430.896,299.34,435.02,295.217,435.02,290.13"/>
<path fill="none" stroke="#000000" stroke-width="1.44" stroke-linecap="round" stroke-linejoin="round" stroke-miterlimit="10" d="
	M605.059,335.67c0-5.086-4.122-9.21-9.209-9.21c-5.086,0-9.21,4.124-9.21,9.21c0,5.087,4.124,9.21,9.21,9.21
	C600.937,344.88,605.059,340.757,605.059,335.67"/>
<path fill="none" stroke="#000000" stroke-width="1.44" stroke-linecap="round" stroke-linejoin="round" stroke-miterlimit="10" d="
	M661.759,335.67c0-5.086-4.123-9.21-9.21-9.21s-9.21,4.124-9.21,9.21c0,5.087,4.123,9.21,9.21,9.21S661.759,340.757,661.759,335.67"
	/>
<path fill="none" stroke="#000000" stroke-width="1.44" stroke-linecap="round" stroke-linejoin="round" stroke-miterlimit="10" d="
	M718.459,335.67c0-5.086-4.123-9.21-9.21-9.21s-9.21,4.124-9.21,9.21c0,5.087,4.123,9.21,9.21,9.21S718.459,340.757,718.459,335.67"
	/>
<path fill="none" stroke="#000000" stroke-width="1.44" stroke-linecap="round" stroke-linejoin="round" stroke-miterlimit="10" d="
	M775.159,335.67c0-5.086-4.124-9.21-9.21-9.21c-5.087,0-9.21,4.124-9.21,9.21c0,5.087,4.123,9.21,9.21,9.21
	C771.035,344.88,775.159,340.757,775.159,335.67"/>
<path fill="none" stroke="#000000" stroke-width="1.44" stroke-linecap="round" stroke-linejoin="round" stroke-miterlimit="10" d="
	M831.859,335.67c0-5.086-4.124-9.21-9.21-9.21c-5.087,0-9.21,4.124-9.21,9.21c0,5.087,4.123,9.21,9.21,9.21
	C827.735,344.88,831.859,340.757,831.859,335.67"/>
<path fill="none" stroke="#000000" stroke-width="1.44" stroke-linecap="round" stroke-linejoin="round" stroke-miterlimit="10" d="
	M384.02,290.13c0-5.087-4.123-9.21-9.21-9.21c-5.086,0-9.21,4.123-9.21,9.21s4.124,9.21,9.21,9.21
	C379.896,299.34,384.02,295.217,384.02,290.13"/>
<path fill="none" stroke="#000000" stroke-width="1.44" stroke-linecap="round" stroke-linejoin="round" stroke-miterlimit="10" d="
	M387.56,335.67c0-7.041-5.708-12.75-12.75-12.75c-7.041,0-12.75,5.709-12.75,12.75c0,7.042,5.709,12.75,12.75,12.75
	C381.852,348.42,387.56,342.712,387.56,335.67"/>
<polyline fill="none" stroke="#000000" stroke-width="1.44" stroke-linecap="round" stroke-linejoin="round" stroke-miterlimit="10" points="
	394.58,534.96 394.58,364.14 853.819,364.14 853.819,534.96 394.58,534.96 "/>
<polyline fill="none" stroke="#000000" stroke-width="1.44" stroke-linecap="round" stroke-linejoin="round" stroke-miterlimit="10" points="
	394.58,263.58 394.58,180.18 853.819,180.18 853.819,263.58 394.58,263.58 "/>
<path fill="none" stroke="#000000" stroke-width="1.44" stroke-linecap="round" stroke-linejoin="round" stroke-miterlimit="10" d="
	M491.66,335.67c0-5.086-4.124-9.21-9.21-9.21c-5.087,0-9.21,4.124-9.21,9.21c0,5.087,4.123,9.21,9.21,9.21
	C487.536,344.88,491.66,340.757,491.66,335.67"/>
<path fill="none" stroke="#000000" stroke-width="1.44" stroke-linecap="round" stroke-linejoin="round" stroke-miterlimit="10" d="
	M548.359,335.67c0-5.086-4.123-9.21-9.21-9.21c-5.086,0-9.21,4.124-9.21,9.21c0,5.087,4.124,9.21,9.21,9.21
	C544.236,344.88,548.359,340.757,548.359,335.67"/>
<polyline fill="none" stroke="#000000" stroke-width="1.44" stroke-linecap="round" stroke-linejoin="round" stroke-miterlimit="10" points="
	896.959,602.252 896.959,148.709 301.64,148.709 301.64,602.252 896.959,602.252 "/>
</svg>
