<?xml version="1.0" encoding="utf-8"?>
<!-- Generator: Adobe Illustrator 15.0.0, SVG Export Plug-In . SVG Version: 6.00 Build 0)  -->
<!DOCTYPE svg PUBLIC "-//W3C//DTD SVG 1.1//EN" "http://www.w3.org/Graphics/SVG/1.1/DTD/svg11.dtd">
<svg version="1.1" xmlns="http://www.w3.org/2000/svg" xmlns:xlink="http://www.w3.org/1999/xlink" x="0px" y="0px" width="1191px"
	 height="842px" viewBox="0 0 1191 842" enable-background="new 0 0 1191 842" xml:space="preserve">
<g id="bottom_cut">
	<g id="Axoloti_holes">
		<g>
			<g id="PCB_outline" display="none">
				
					<line display="inline" fill="none" stroke="#000000" stroke-width="1.44" stroke-linecap="round" stroke-linejoin="round" stroke-miterlimit="10" x1="514.1" y1="257.337" x2="514.1" y2="274.377"/>
				
					<path display="inline" fill="none" stroke="#000000" stroke-width="1.44" stroke-linecap="round" stroke-linejoin="round" stroke-miterlimit="10" d="
					M508.46,274.347c0,1.574,1.276,2.85,2.85,2.85c1.574,0,2.851-1.275,2.851-2.85"/>
				
					<line display="inline" fill="none" stroke="#000000" stroke-width="1.44" stroke-linecap="round" stroke-linejoin="round" stroke-miterlimit="10" x1="508.46" y1="274.377" x2="508.46" y2="257.337"/>
				
					<path display="inline" fill="none" stroke="#000000" stroke-width="1.44" stroke-linecap="round" stroke-linejoin="round" stroke-miterlimit="10" d="
					M514.161,257.311c0.001-1.019-0.542-1.962-1.424-2.472c-0.883-0.51-1.971-0.51-2.853,0c-0.883,0.511-1.426,1.453-1.424,2.473"/>
				
					<line display="inline" fill="none" stroke="#000000" stroke-width="1.44" stroke-linecap="round" stroke-linejoin="round" stroke-miterlimit="10" x1="508.46" y1="353.696" x2="508.46" y2="331.077"/>
				
					<path display="inline" fill="none" stroke="#000000" stroke-width="1.44" stroke-linecap="round" stroke-linejoin="round" stroke-miterlimit="10" d="
					M514.16,331.009c-0.021-1.573-1.313-2.832-2.887-2.812s-2.833,1.313-2.813,2.888"/>
				
					<line display="inline" fill="none" stroke="#000000" stroke-width="1.44" stroke-linecap="round" stroke-linejoin="round" stroke-miterlimit="10" x1="514.1" y1="353.696" x2="514.1" y2="331.017"/>
				
					<path display="inline" fill="none" stroke="#000000" stroke-width="1.44" stroke-linecap="round" stroke-linejoin="round" stroke-miterlimit="10" d="
					M514.16,353.704c0.001-0.012,0.001-0.025,0.001-0.037"/>
				
					<line display="inline" fill="none" stroke="#000000" stroke-width="1.44" stroke-linecap="round" stroke-linejoin="round" stroke-miterlimit="10" x1="817.4" y1="353.757" x2="514.1" y2="353.757"/>
				
					<path display="inline" fill="none" stroke="#000000" stroke-width="1.44" stroke-linecap="round" stroke-linejoin="round" stroke-miterlimit="10" d="
					M817.43,353.696c4.689,0,8.49-3.801,8.49-8.489"/>
				
					<line display="inline" fill="none" stroke="#000000" stroke-width="1.44" stroke-linecap="round" stroke-linejoin="round" stroke-miterlimit="10" x1="825.92" y1="220.497" x2="825.92" y2="345.237"/>
				
					<path display="inline" fill="none" stroke="#000000" stroke-width="1.44" stroke-linecap="round" stroke-linejoin="round" stroke-miterlimit="10" d="
					M825.92,220.466c0-4.688-3.801-8.488-8.49-8.488"/>
				
					<line display="inline" fill="none" stroke="#000000" stroke-width="1.44" stroke-linecap="round" stroke-linejoin="round" stroke-miterlimit="10" x1="625.52" y1="211.978" x2="817.4" y2="211.978"/>
				
					<path display="inline" fill="none" stroke="#000000" stroke-width="1.44" stroke-linecap="round" stroke-linejoin="round" stroke-miterlimit="10" d="
					M624.11,213.356c0.778,0,1.409-0.631,1.409-1.41"/>
				
					<line display="inline" fill="none" stroke="#000000" stroke-width="1.44" stroke-linecap="round" stroke-linejoin="round" stroke-miterlimit="10" x1="598.28" y1="213.417" x2="624.08" y2="213.417"/>
				
					<path display="inline" fill="none" stroke="#000000" stroke-width="1.44" stroke-linecap="round" stroke-linejoin="round" stroke-miterlimit="10" d="
					M596.9,211.946c0,0.779,0.631,1.41,1.41,1.41"/>
				
					<polyline display="inline" fill="none" stroke="#000000" stroke-width="1.44" stroke-linecap="round" stroke-linejoin="round" stroke-miterlimit="10" points="
					543.68,212.577 543.68,211.978 596.9,211.978 				"/>
				
					<path display="inline" fill="none" stroke="#000000" stroke-width="1.44" stroke-linecap="round" stroke-linejoin="round" stroke-miterlimit="10" d="
					M542.27,213.956c0.779,0,1.41-0.631,1.41-1.41"/>
				
					<line display="inline" fill="none" stroke="#000000" stroke-width="1.44" stroke-linecap="round" stroke-linejoin="round" stroke-miterlimit="10" x1="518.361" y1="214.017" x2="542.241" y2="214.017"/>
				
					<path display="inline" fill="none" stroke="#000000" stroke-width="1.44" stroke-linecap="round" stroke-linejoin="round" stroke-miterlimit="10" d="
					M516.98,212.546c0,0.779,0.632,1.41,1.41,1.41"/>
				
					<polyline display="inline" fill="none" stroke="#000000" stroke-width="1.44" stroke-linecap="round" stroke-linejoin="round" stroke-miterlimit="10" points="
					514.1,226.136 514.1,211.978 516.92,211.978 516.92,212.577 				"/>
				
					<path display="inline" fill="none" stroke="#000000" stroke-width="1.44" stroke-linecap="round" stroke-linejoin="round" stroke-miterlimit="10" d="
					M508.46,226.106c0,1.574,1.276,2.85,2.85,2.85c1.574,0,2.851-1.275,2.851-2.85"/>
				
					<polyline display="inline" fill="none" stroke="#000000" stroke-width="1.44" stroke-linecap="round" stroke-linejoin="round" stroke-miterlimit="10" points="
					380.901,211.978 508.46,211.978 508.46,226.136 				"/>
				
					<path display="inline" fill="none" stroke="#000000" stroke-width="1.44" stroke-linecap="round" stroke-linejoin="round" stroke-miterlimit="10" d="
					M380.93,211.978c-4.688,0-8.49,3.801-8.49,8.488"/>
				
					<line display="inline" fill="none" stroke="#000000" stroke-width="1.44" stroke-linecap="round" stroke-linejoin="round" stroke-miterlimit="10" x1="372.38" y1="345.237" x2="372.38" y2="220.497"/>
				
					<path display="inline" fill="none" stroke="#000000" stroke-width="1.44" stroke-linecap="round" stroke-linejoin="round" stroke-miterlimit="10" d="
					M372.44,345.207c0,4.688,3.802,8.489,8.49,8.489"/>
				
					<line display="inline" fill="none" stroke="#000000" stroke-width="1.44" stroke-linecap="round" stroke-linejoin="round" stroke-miterlimit="10" x1="508.46" y1="353.757" x2="380.901" y2="353.757"/>
				
					<path display="inline" fill="none" stroke="#000000" stroke-width="1.44" stroke-linecap="round" stroke-linejoin="round" stroke-miterlimit="10" d="
					M508.46,353.667c0,0.012,0,0.025,0,0.037"/>
			</g>
			<g>
				
					<path fill="none" stroke="#000000" stroke-width="1.44" stroke-linecap="round" stroke-linejoin="round" stroke-miterlimit="10" d="
					M386.541,240.327c0-2.336-1.894-4.23-4.23-4.23c-2.336,0-4.229,1.895-4.229,4.23s1.894,4.229,4.229,4.229
					C384.647,244.556,386.541,242.663,386.541,240.327"/>
				
					<path fill="none" stroke="#000000" stroke-width="1.44" stroke-linecap="round" stroke-linejoin="round" stroke-miterlimit="10" d="
					M386.541,325.347c0-2.336-1.894-4.23-4.23-4.23c-2.336,0-4.229,1.895-4.229,4.23s1.894,4.23,4.229,4.23
					C384.647,329.577,386.541,327.683,386.541,325.347"/>
				
					<path fill="none" stroke="#000000" stroke-width="1.44" stroke-linecap="round" stroke-linejoin="round" stroke-miterlimit="10" d="
					M501.38,325.347c0-2.336-1.894-4.23-4.229-4.23c-2.337,0-4.23,1.895-4.23,4.23s1.894,4.23,4.23,4.23
					C499.487,329.577,501.38,327.683,501.38,325.347"/>
				
					<path fill="none" stroke="#000000" stroke-width="1.44" stroke-linecap="round" stroke-linejoin="round" stroke-miterlimit="10" d="
					M529.701,325.347c0-2.336-1.895-4.23-4.23-4.23s-4.229,1.895-4.229,4.23s1.894,4.23,4.229,4.23S529.701,327.683,529.701,325.347
					"/>
				
					<path fill="none" stroke="#000000" stroke-width="1.44" stroke-linecap="round" stroke-linejoin="round" stroke-miterlimit="10" d="
					M529.701,240.327c0-2.336-1.895-4.23-4.23-4.23s-4.229,1.895-4.229,4.23s1.894,4.229,4.229,4.229
					S529.701,242.663,529.701,240.327"/>
				
					<path fill="none" stroke="#000000" stroke-width="1.44" stroke-linecap="round" stroke-linejoin="round" stroke-miterlimit="10" d="
					M705.439,325.347c0-2.336-1.893-4.23-4.229-4.23c-2.338,0-4.23,1.895-4.23,4.23s1.893,4.23,4.23,4.23
					C703.547,329.577,705.439,327.683,705.439,325.347"/>
				
					<path fill="none" stroke="#000000" stroke-width="1.44" stroke-linecap="round" stroke-linejoin="round" stroke-miterlimit="10" d="
					M820.279,325.347c0-2.336-1.893-4.23-4.229-4.23s-4.23,1.895-4.23,4.23s1.895,4.23,4.23,4.23S820.279,327.683,820.279,325.347"
					/>
				
					<path fill="none" stroke="#000000" stroke-width="1.44" stroke-linecap="round" stroke-linejoin="round" stroke-miterlimit="10" d="
					M820.279,240.327c0-2.336-1.893-4.23-4.229-4.23s-4.23,1.895-4.23,4.23s1.895,4.229,4.23,4.229S820.279,242.663,820.279,240.327
					"/>
			</g>
		</g>
		
			<rect id="_x35_.5mm_offset" x="301.055" y="249.255" display="none" fill="none" stroke="#000000" stroke-width="1.44" stroke-linecap="round" stroke-linejoin="round" stroke-miterlimit="10" width="595.733" height="15.591"/>
	</g>
	
		<polyline fill="none" stroke="#000000" stroke-width="1.44" stroke-linecap="round" stroke-linejoin="round" stroke-miterlimit="10" points="
		896.788,649.143 896.788,195.6 301.512,195.6 301.512,649.143 896.788,649.143 	"/>
</g>
<g id="Rear_cut">
	
		<rect id="outline" x="301.512" y="39.727" fill="none" stroke="#000000" stroke-width="1.44" stroke-linecap="round" stroke-linejoin="round" stroke-miterlimit="10" width="595.276" height="141.732"/>
	<g>
		<g id="LWPOLYLINE_2_">
			
				<rect x="577.185" y="159.327" fill="none" stroke="#231F20" stroke-linecap="round" stroke-linejoin="round" stroke-miterlimit="10" width="40.469" height="8.504"/>
		</g>
		<g id="LWPOLYLINE_6_">
			
				<rect x="554.169" y="123.469" fill="none" stroke="#231F20" stroke-linecap="round" stroke-linejoin="round" stroke-miterlimit="10" width="20.284" height="45.208"/>
		</g>
		<g id="CIRCLE_18_">
			<path fill="none" stroke="#231F20" stroke-linecap="round" stroke-linejoin="round" stroke-miterlimit="10" d="M435.677,139.516
				c0-14.091-11.421-25.513-25.512-25.513c-14.089,0-25.512,11.422-25.512,25.513c0.001,14.09,11.423,25.51,25.512,25.51
				C424.256,165.026,435.677,153.606,435.677,139.516L435.677,139.516z"/>
		</g>
		<g id="CIRCLE_17_">
			<path fill="none" stroke="#231F20" stroke-linecap="round" stroke-linejoin="round" stroke-miterlimit="10" d="M671.159,160.742
				c0-4.689-3.801-8.492-8.492-8.492s-8.494,3.803-8.494,8.492c0,4.691,3.803,8.494,8.494,8.494S671.159,165.434,671.159,160.742
				L671.159,160.742z"/>
		</g>
		<g id="LWPOLYLINE_4_">
			
				<rect x="500.287" y="164.004" fill="none" stroke="#231F20" stroke-linecap="round" stroke-linejoin="round" stroke-miterlimit="10" width="51.148" height="3.822"/>
		</g>
		<g id="CIRCLE_16_">
			<path fill="none" stroke="#231F20" stroke-linecap="round" stroke-linejoin="round" stroke-miterlimit="10" d="M493.205,139.59
				c0.04-14.09-11.349-25.546-25.438-25.587c-14.091-0.041-25.546,11.349-25.586,25.439s11.348,25.543,25.438,25.584
				C481.708,165.067,493.165,153.68,493.205,139.59L493.205,139.59z"/>
		</g>
		<g id="CIRCLE_15_">
			<path fill="none" stroke="#231F20" stroke-linecap="round" stroke-linejoin="round" stroke-miterlimit="10" d="M784.685,144.781
				c0-12.508-10.139-22.648-22.648-22.648c-12.508,0-22.648,10.141-22.648,22.648s10.141,22.648,22.648,22.648
				C774.546,167.43,784.685,157.289,784.685,144.781L784.685,144.781z"/>
		</g>
		<g id="CIRCLE_14_">
			<path fill="none" stroke="#231F20" stroke-linecap="round" stroke-linejoin="round" stroke-miterlimit="10" d="M729.479,144.781
				c0-12.508-10.141-22.648-22.648-22.648s-22.648,10.141-22.648,22.648s10.141,22.648,22.648,22.648
				S729.479,157.289,729.479,144.781L729.479,144.781z"/>
		</g>
		<rect x="739.388" y="145.608" fill="none" width="22.648" height="41.243"/>
		<circle fill="none" stroke="#231F20" stroke-miterlimit="10" cx="345.495" cy="140.625" r="27.071"/>
		<g id="LWPOLYLINE_8_">
			
				<rect x="619.618" y="156.728" fill="none" stroke="#DE1F26" stroke-linecap="round" stroke-linejoin="round" stroke-miterlimit="10" width="25.512" height="13.934"/>
		</g>
		<g id="LWPOLYLINE_9_">
			
				<rect x="619.618" y="156.728" fill="none" stroke="#231F20" stroke-linecap="round" stroke-linejoin="round" stroke-miterlimit="10" width="25.512" height="13.934"/>
		</g>
		
			<rect id="PCB_Guide" x="362.506" y="167.831" display="none" fill="none" stroke="#000000" stroke-linecap="round" stroke-linejoin="round" stroke-miterlimit="10" width="453.544" height="14.173"/>
	</g>
</g>
<g id="Front">
	
		<rect id="outline_1_" x="301.512" y="665.077" fill="none" stroke="#000000" stroke-width="1.44" stroke-linecap="round" stroke-linejoin="round" stroke-miterlimit="10" width="595.276" height="141.732"/>
</g>
<g id="Left_side">
	<g>
		
			<circle fill="none" stroke="#000000" stroke-width="1.44" stroke-linecap="round" stroke-linejoin="round" stroke-miterlimit="10" cx="224.308" cy="209.774" r="7.228"/>
		
			<rect x="210.134" y="195.6" display="none" fill="none" stroke="#000000" stroke-width="1.44" stroke-linecap="round" stroke-linejoin="round" stroke-miterlimit="10" width="28.347" height="28.347"/>
	</g>
	<g>
		
			<circle fill="none" stroke="#000000" stroke-width="1.44" stroke-linecap="round" stroke-linejoin="round" stroke-miterlimit="10" cx="224.308" cy="634.97" r="7.228"/>
		
			<rect x="210.134" y="620.796" display="none" fill="none" stroke="#000000" stroke-width="1.44" stroke-linecap="round" stroke-linejoin="round" stroke-miterlimit="10" width="28.347" height="28.347"/>
	</g>
	<g>
		
			<circle fill="none" stroke="#000000" stroke-width="1.44" stroke-linecap="round" stroke-linejoin="round" stroke-miterlimit="10" cx="110.922" cy="209.774" r="7.228"/>
		
			<rect x="96.749" y="195.6" display="none" fill="none" stroke="#000000" stroke-width="1.44" stroke-linecap="round" stroke-linejoin="round" stroke-miterlimit="10" width="28.347" height="28.347"/>
	</g>
	<g>
		
			<circle fill="none" stroke="#000000" stroke-width="1.44" stroke-linecap="round" stroke-linejoin="round" stroke-miterlimit="10" cx="110.922" cy="634.97" r="7.228"/>
		
			<rect x="96.749" y="620.796" display="none" fill="none" stroke="#000000" stroke-width="1.44" stroke-linecap="round" stroke-linejoin="round" stroke-miterlimit="10" width="28.347" height="28.347"/>
	</g>
	
		<rect id="Base_area_2_" x="96.749" y="195.6" display="none" fill="none" stroke="#000000" stroke-width="1.44" stroke-linecap="round" stroke-linejoin="round" stroke-miterlimit="10" width="141.732" height="453.542"/>
	
		<rect x="81.158" y="180.009" display="none" fill="none" stroke="#000000" stroke-width="1.44" stroke-linecap="round" stroke-linejoin="round" stroke-miterlimit="10" width="172.913" height="484.724"/>
	
		<rect x="66.985" y="165.836" display="none" fill="none" stroke="#000000" stroke-width="1.44" stroke-linecap="round" stroke-linejoin="round" stroke-miterlimit="10" width="201.26" height="513.071"/>
	
		<path fill="none" stroke="#000000" stroke-width="1.44" stroke-linecap="round" stroke-linejoin="round" stroke-miterlimit="10" d="
		M268.245,650.277c0,15.812-12.818,28.63-28.63,28.63h-144c-15.812,0-28.63-12.818-28.63-28.63V194.466
		c0-15.812,12.818-28.63,28.63-28.63h144c15.812,0,28.63,12.818,28.63,28.63V650.277z"/>
</g>
<g id="Right_side">
	<g>
		
			<circle fill="none" stroke="#000000" stroke-width="1.44" stroke-linecap="round" stroke-linejoin="round" stroke-miterlimit="10" cx="224.308" cy="209.774" r="7.228"/>
		
			<rect x="210.134" y="195.6" display="none" fill="none" stroke="#000000" stroke-width="1.44" stroke-linecap="round" stroke-linejoin="round" stroke-miterlimit="10" width="28.347" height="28.347"/>
	</g>
	<g>
		
			<circle fill="none" stroke="#000000" stroke-width="1.44" stroke-linecap="round" stroke-linejoin="round" stroke-miterlimit="10" cx="224.308" cy="634.97" r="7.228"/>
		
			<rect x="210.134" y="620.796" display="none" fill="none" stroke="#000000" stroke-width="1.44" stroke-linecap="round" stroke-linejoin="round" stroke-miterlimit="10" width="28.347" height="28.347"/>
	</g>
	<g>
		
			<circle fill="none" stroke="#000000" stroke-width="1.44" stroke-linecap="round" stroke-linejoin="round" stroke-miterlimit="10" cx="110.922" cy="209.774" r="7.228"/>
		
			<rect x="96.749" y="195.6" display="none" fill="none" stroke="#000000" stroke-width="1.44" stroke-linecap="round" stroke-linejoin="round" stroke-miterlimit="10" width="28.347" height="28.347"/>
	</g>
	<g>
		
			<circle fill="none" stroke="#000000" stroke-width="1.44" stroke-linecap="round" stroke-linejoin="round" stroke-miterlimit="10" cx="110.922" cy="634.97" r="7.228"/>
		
			<rect x="96.749" y="620.796" display="none" fill="none" stroke="#000000" stroke-width="1.44" stroke-linecap="round" stroke-linejoin="round" stroke-miterlimit="10" width="28.347" height="28.347"/>
	</g>
	
		<rect id="Base_area_1_" x="96.749" y="195.6" display="none" fill="none" stroke="#000000" stroke-width="1.44" stroke-linecap="round" stroke-linejoin="round" stroke-miterlimit="10" width="141.732" height="453.542"/>
	
		<rect x="81.158" y="180.009" display="none" fill="none" stroke="#000000" stroke-width="1.44" stroke-linecap="round" stroke-linejoin="round" stroke-miterlimit="10" width="172.913" height="484.724"/>
	
		<rect x="66.985" y="165.836" display="none" fill="none" stroke="#000000" stroke-width="1.44" stroke-linecap="round" stroke-linejoin="round" stroke-miterlimit="10" width="201.26" height="513.071"/>
	
		<path fill="none" stroke="#000000" stroke-width="1.44" stroke-linecap="round" stroke-linejoin="round" stroke-miterlimit="10" d="
		M268.245,650.277c0,15.812-12.818,28.63-28.63,28.63h-144c-15.812,0-28.63-12.818-28.63-28.63V194.466
		c0-15.812,12.818-28.63,28.63-28.63h144c15.812,0,28.63,12.818,28.63,28.63V650.277z"/>
	<g>
		
			<circle fill="none" stroke="#000000" stroke-width="1.44" stroke-linecap="round" stroke-linejoin="round" stroke-miterlimit="10" cx="1070.836" cy="209.774" r="7.229"/>
		
			<rect x="1056.662" y="195.6" display="none" fill="none" stroke="#000000" stroke-width="1.44" stroke-linecap="round" stroke-linejoin="round" stroke-miterlimit="10" width="28.348" height="28.347"/>
	</g>
	<g>
		
			<circle fill="none" stroke="#000000" stroke-width="1.44" stroke-linecap="round" stroke-linejoin="round" stroke-miterlimit="10" cx="1070.836" cy="634.97" r="7.229"/>
		
			<rect x="1056.662" y="620.796" display="none" fill="none" stroke="#000000" stroke-width="1.44" stroke-linecap="round" stroke-linejoin="round" stroke-miterlimit="10" width="28.348" height="28.347"/>
	</g>
	<g>
		
			<circle fill="none" stroke="#000000" stroke-width="1.44" stroke-linecap="round" stroke-linejoin="round" stroke-miterlimit="10" cx="957.451" cy="209.774" r="7.228"/>
		
			<rect x="943.277" y="195.6" display="none" fill="none" stroke="#000000" stroke-width="1.44" stroke-linecap="round" stroke-linejoin="round" stroke-miterlimit="10" width="28.346" height="28.347"/>
	</g>
	<g>
		
			<circle fill="none" stroke="#000000" stroke-width="1.44" stroke-linecap="round" stroke-linejoin="round" stroke-miterlimit="10" cx="957.451" cy="634.97" r="7.228"/>
		
			<rect x="943.277" y="620.796" display="none" fill="none" stroke="#000000" stroke-width="1.44" stroke-linecap="round" stroke-linejoin="round" stroke-miterlimit="10" width="28.346" height="28.347"/>
	</g>
	
		<rect id="Base_area_3_" x="943.277" y="195.6" display="none" fill="none" stroke="#000000" stroke-width="1.44" stroke-linecap="round" stroke-linejoin="round" stroke-miterlimit="10" width="141.732" height="453.542"/>
	
		<rect x="927.687" y="180.009" display="none" fill="none" stroke="#000000" stroke-width="1.44" stroke-linecap="round" stroke-linejoin="round" stroke-miterlimit="10" width="172.913" height="484.724"/>
	
		<rect x="913.514" y="165.836" display="none" fill="none" stroke="#000000" stroke-width="1.44" stroke-linecap="round" stroke-linejoin="round" stroke-miterlimit="10" width="201.26" height="513.071"/>
	
		<path fill="none" stroke="#000000" stroke-width="1.44" stroke-linecap="round" stroke-linejoin="round" stroke-miterlimit="10" d="
		M1114.773,650.277c0,15.812-12.818,28.63-28.631,28.63h-144c-15.812,0-28.629-12.818-28.629-28.63V194.466
		c0-15.812,12.817-28.63,28.629-28.63h144c15.813,0,28.631,12.818,28.631,28.63V650.277z"/>
</g>
</svg>
