<?xml version="1.0" encoding="utf-8"?>
<!-- Generator: Adobe Illustrator 15.0.0, SVG Export Plug-In . SVG Version: 6.00 Build 0)  -->
<!DOCTYPE svg PUBLIC "-//W3C//DTD SVG 1.1//EN" "http://www.w3.org/Graphics/SVG/1.1/DTD/svg11.dtd">
<svg version="1.1" id="Layer_1" xmlns="http://www.w3.org/2000/svg" xmlns:xlink="http://www.w3.org/1999/xlink" x="0px" y="0px"
	 width="841.895px" height="595.295px" viewBox="0 0 841.895 595.295" enable-background="new 0 0 841.895 595.295"
	 xml:space="preserve">
<title>SVG Picture created as PCB1005-KnobCore-F.SilkS.svg date 2017/12/06 13:12:27</title>
<desc>Picture generated by PCBNEW</desc>
<g transform="translate(0 0) scale(1 1)">
</g>
<circle fill-opacity="0" stroke="#000000" stroke-linecap="round" stroke-linejoin="round" cx="447.875" cy="196.565" r="6.48"/>
<circle fill-opacity="0" stroke="#000000" stroke-linecap="round" stroke-linejoin="round" cx="226.772" cy="233.416" r="6.48"/>
<circle fill-opacity="0" stroke="#000000" stroke-linecap="round" stroke-linejoin="round" cx="660.472" cy="233.416" r="6.48"/>
<circle fill-opacity="0" stroke="#000000" stroke-linecap="round" stroke-linejoin="round" cx="636.25" cy="203.708" r="11.338"/>
<circle fill-opacity="0" stroke="#000000" stroke-linecap="round" stroke-linejoin="round" cx="580.45" cy="203.708" r="11.338"/>
<circle fill-opacity="0" stroke="#000000" stroke-linecap="round" stroke-linejoin="round" cx="524.651" cy="203.708" r="11.338"/>
<circle fill-opacity="0" stroke="#000000" stroke-linecap="round" stroke-linejoin="round" cx="468.85" cy="203.708" r="11.338"/>
<circle fill-opacity="0" stroke="#000000" stroke-linecap="round" stroke-linejoin="round" cx="413.05" cy="203.708" r="11.338"/>
<circle fill-opacity="0" stroke="#000000" stroke-linecap="round" stroke-linejoin="round" cx="357.25" cy="203.708" r="11.338"/>
<circle fill-opacity="0" stroke="#000000" stroke-linecap="round" stroke-linejoin="round" cx="301.451" cy="203.708" r="11.338"/>
<circle fill-opacity="0" stroke="#000000" stroke-linecap="round" stroke-linejoin="round" cx="245.651" cy="203.708" r="11.338"/>
<polygon fill="none" stroke="#000000" stroke-linecap="round" stroke-linejoin="round" points="622.524,147.044 622.524,155.548 
	594.177,155.548 594.177,147.044 510.924,147.044 510.924,155.548 482.578,155.548 482.578,147.044 399.534,147.044 
	399.534,155.548 371.187,155.548 371.187,147.044 287.724,147.044 287.724,155.548 259.377,155.548 259.377,147.044 
	218.178,147.044 218.178,247.147 671.721,247.147 671.721,147.044 "/>
<rect x="259.377" y="184.348" fill="none" stroke="#000000" stroke-linecap="round" stroke-linejoin="round" width="28.347" height="8.504"/>
<rect x="371.187" y="184.348" fill="none" stroke="#000000" stroke-linecap="round" stroke-linejoin="round" width="28.347" height="8.504"/>
<rect x="482.578" y="184.348" fill="none" stroke="#000000" stroke-linecap="round" stroke-linejoin="round" width="28.347" height="8.504"/>
<rect x="594.177" y="184.348" fill="none" stroke="#000000" stroke-linecap="round" stroke-linejoin="round" width="28.347" height="8.504"/>
<g>
	
		<rect x="554.598" y="154.358" fill="none" stroke="#000000" stroke-linecap="round" stroke-linejoin="round" width="8.504" height="31.181"/>
	
		<rect x="442.999" y="154.358" fill="none" stroke="#000000" stroke-linecap="round" stroke-linejoin="round" width="8.504" height="31.181"/>
	
		<rect x="331.399" y="154.358" fill="none" stroke="#000000" stroke-linecap="round" stroke-linejoin="round" width="8.504" height="31.181"/>
	
		<rect x="219.799" y="154.358" fill="none" stroke="#000000" stroke-linecap="round" stroke-linejoin="round" width="8.504" height="31.181"/>
</g>
<polygon fill="none" stroke="#000000" stroke-linecap="round" stroke-linejoin="round" points="218.178,286.34 218.178,303.348 
	259.377,303.348 259.377,311.852 287.724,311.852 287.724,303.348 371.187,303.348 371.187,311.852 399.534,311.852 
	399.534,303.348 482.578,303.348 482.578,311.852 510.924,311.852 510.924,303.348 594.177,303.348 594.177,311.852 
	622.524,311.852 622.524,303.348 671.721,303.348 671.721,286.34 "/>
</svg>
