<?xml version="1.0" encoding="utf-8"?>
<!-- Generator: Adobe Illustrator 15.0.0, SVG Export Plug-In . SVG Version: 6.00 Build 0)  -->
<!DOCTYPE svg PUBLIC "-//W3C//DTD SVG 1.1//EN" "http://www.w3.org/Graphics/SVG/1.1/DTD/svg11.dtd">
<svg version="1.1" id="Layer_1" xmlns="http://www.w3.org/2000/svg" xmlns:xlink="http://www.w3.org/1999/xlink" x="0px" y="0px"
	 width="841.895px" height="595.295px" viewBox="0 0 841.895 595.295" enable-background="new 0 0 841.895 595.295"
	 xml:space="preserve">
<title>SVG Picture created as PCB1005-KnobCore-F.SilkS.svg date 2017/12/06 10:44:07</title>
<desc>Picture generated by PCBNEW</desc>
<g transform="translate(0 0) scale(1 1)">
</g>
<g>
	<path fill-opacity="0" stroke="#000000" stroke-width="0.25" stroke-linecap="round" stroke-linejoin="round" d="M595.274,34.013
		v-5.667"/>
</g>
<g>
	<path fill-opacity="0" stroke="#000000" stroke-width="0.25" stroke-linecap="round" stroke-linejoin="round" d="M737.006,34.013
		v-5.667"/>
</g>
<g>
	<path fill-opacity="0" stroke="#000000" stroke-width="0.25" stroke-linecap="round" stroke-linejoin="round" d="M526.86,30.391
		v2.455"/>
	<path fill-opacity="0" stroke="#000000" stroke-width="0.25" stroke-linecap="round" stroke-linejoin="round" d="M525.981,28.987
		l-0.871,2.628h2.275"/>
</g>
<g>
	<path fill-opacity="0" stroke="#000000" stroke-width="0.25" stroke-linecap="round" stroke-linejoin="round" d="M668.772,29.16
		h-1.758l-0.172,1.757l0.172-0.18l0.354-0.173h0.879l0.346,0.173l0.18,0.18l0.172,0.345v0.878l-0.172,0.353l-0.18,0.173l-0.346,0.18
		h-0.879l-0.354-0.18l-0.172-0.173"/>
</g>
<g>
	<path fill-opacity="0" stroke="#000000" stroke-width="0.25" stroke-linecap="round" stroke-linejoin="round" d="M810.323,29.16
		h-0.697l-0.354,0.173l-0.172,0.18l-0.354,0.526l-0.172,0.698v1.404l0.172,0.353l0.172,0.173l0.354,0.18h0.705l0.346-0.18
		l0.18-0.173l0.174-0.353v-0.878l-0.174-0.345l-0.18-0.18l-0.346-0.173h-0.705l-0.354,0.173l-0.172,0.18l-0.172,0.345"/>
</g>
<circle fill-opacity="0" stroke="#000000" stroke-width="0.25" stroke-linecap="round" stroke-linejoin="round" cx="462.122" cy="203.996" r="6.48"/>
<circle fill-opacity="0" stroke="#000000" stroke-width="0.25" stroke-linecap="round" stroke-linejoin="round" cx="143.224" cy="203.996" r="6.48"/>
<circle fill-opacity="0" stroke="#000000" stroke-width="0.25" stroke-linecap="round" stroke-linejoin="round" cx="28.421" cy="203.996" r="6.48"/>
<circle fill-opacity="0" stroke="#000000" stroke-width="0.25" stroke-linecap="round" stroke-linejoin="round" cx="28.421" cy="149.514" r="6.48"/>
<circle fill-opacity="0" stroke="#000000" stroke-width="0.25" stroke-linecap="round" stroke-linejoin="round" cx="462.122" cy="149.514" r="6.48"/>
<circle fill-opacity="0" stroke="#000000" stroke-width="0.25" stroke-linecap="round" stroke-linejoin="round" cx="143.224" cy="149.514" r="6.48"/>
<circle fill-opacity="0" stroke="#000000" stroke-width="0.25" stroke-linecap="round" stroke-linejoin="round" cx="298.4" cy="176.5" r="8.504"/>
<circle fill-opacity="0" stroke="#000000" stroke-width="0.25" stroke-linecap="round" stroke-linejoin="round" cx="410" cy="176.5" r="8.504"/>
<circle fill-opacity="0" stroke="#000000" stroke-width="0.25" stroke-linecap="round" stroke-linejoin="round" cx="75.2" cy="176.5" r="8.504"/>
<circle fill-opacity="0" stroke="#000000" stroke-width="0.25" stroke-linecap="round" stroke-linejoin="round" cx="186.8" cy="176.5" r="8.504"/>
<rect x="18.5" y="136.147" fill="none" stroke="#000000" stroke-width="0.25" stroke-linecap="round" stroke-linejoin="round" width="455.948" height="76.353"/>
</svg>
