<?xml version="1.0" encoding="utf-8"?>
<!-- Generator: Adobe Illustrator 15.0.0, SVG Export Plug-In . SVG Version: 6.00 Build 0)  -->
<!DOCTYPE svg PUBLIC "-//W3C//DTD SVG 1.1//EN" "http://www.w3.org/Graphics/SVG/1.1/DTD/svg11.dtd">
<svg version="1.1" id="Layer_1" xmlns="http://www.w3.org/2000/svg" xmlns:xlink="http://www.w3.org/1999/xlink" x="0px" y="0px"
	 width="1024px" height="768px" viewBox="0 0 1024 768" enable-background="new 0 0 1024 768" xml:space="preserve">
<g id="Layer_2">
	<g id="Layer_1_1_" opacity="0.11">
		<path fill-opacity="0" stroke="#000000" stroke-linecap="round" stroke-linejoin="round" d="M105.552,15.155h453.542"/>
		<path fill-opacity="0" stroke="#000000" stroke-linecap="round" stroke-linejoin="round" d="M272.16,25.048l0.137,0.137
			l0.137,0.403v0.273l-0.137,0.403l-0.273,0.267l-0.267,0.137l-0.54,0.137h-0.403l-0.54-0.137L270,26.531l-0.266-0.267l-0.137-0.403
			v-0.273l0.137-0.403l0.129-0.137"/>
		<path fill-opacity="0" stroke="#000000" stroke-linecap="round" stroke-linejoin="round" d="M269.597,24.104v-1.757l1.08,0.943
			v-0.403l0.137-0.266l0.129-0.137l0.273-0.137h0.677l0.266,0.137l0.137,0.137l0.137,0.266v0.814l-0.137,0.266l-0.137,0.137"/>
		<path fill-opacity="0" stroke="#000000" stroke-linecap="round" stroke-linejoin="round" d="M272.434,35.106l-1.354,0.943"/>
		<path fill-opacity="0" stroke="#000000" stroke-linecap="round" stroke-linejoin="round" d="M272.434,36.726h-2.836v-1.08
			l0.137-0.274l0.129-0.129l0.274-0.137h0.403l0.274,0.137l0.129,0.129l0.137,0.274v1.08"/>
		<path fill-opacity="0" stroke="#000000" stroke-linecap="round" stroke-linejoin="round" d="M272.16,32.27l0.137,0.137
			l0.137,0.403v0.273l-0.137,0.403l-0.273,0.267l-0.267,0.137l-0.54,0.137h-0.403l-0.54-0.137L270,33.753l-0.266-0.267l-0.137-0.403
			V32.81l0.137-0.403l0.129-0.137"/>
		<path fill-opacity="0" stroke="#000000" stroke-linecap="round" stroke-linejoin="round" d="M269.597,30.52v-0.274l0.137-0.266
			l0.129-0.137l0.274-0.137l0.54-0.137h0.677l0.54,0.137l0.266,0.137l0.137,0.137l0.137,0.266v0.274l-0.137,0.266l-0.137,0.137
			l-0.266,0.137l-0.54,0.129h-0.677l-0.54-0.129l-0.274-0.137l-0.129-0.137L269.597,30.52"/>
		<path fill-opacity="0" stroke="#000000" stroke-linecap="round" stroke-linejoin="round" d="M129.313,28.742l-0.951-1.354"/>
		<path fill-opacity="0" stroke="#000000" stroke-linecap="round" stroke-linejoin="round" d="M127.692,28.742v-2.837h1.08
			l0.266,0.137l0.137,0.129l0.137,0.274v0.403l-0.137,0.274l-0.137,0.129l-0.266,0.137h-1.08"/>
		<path fill-opacity="0" stroke="#000000" stroke-linecap="round" stroke-linejoin="round" d="M132.142,28.468l-0.13,0.137
			l-0.41,0.137h-0.267l-0.403-0.137l-0.273-0.273l-0.137-0.267l-0.129-0.54v-0.403l0.129-0.54l0.137-0.273l0.273-0.267l0.403-0.137
			h0.267l0.41,0.137l0.13,0.129"/>
		<path fill-opacity="0" stroke="#000000" stroke-linecap="round" stroke-linejoin="round" d="M134.842,28.742h-1.62"/>
		<path fill-opacity="0" stroke="#000000" stroke-linecap="round" stroke-linejoin="round" d="M134.036,28.742v-2.837l-0.274,0.403
			l-0.266,0.273l-0.273,0.129"/>
		<path fill-opacity="0" stroke="#000000" stroke-linecap="round" stroke-linejoin="round" d="M136.599,25.905h0.267l0.273,0.137
			l0.137,0.129l0.13,0.274l0.137,0.54v0.677l-0.137,0.54l-0.13,0.266l-0.137,0.137l-0.273,0.137h-0.267l-0.273-0.137l-0.13-0.137
			l-0.137-0.266l-0.137-0.54v-0.677l0.137-0.54l0.137-0.274l0.13-0.129L136.599,25.905"/>
		<path fill-opacity="0" stroke="#000000" stroke-linecap="round" stroke-linejoin="round" d="M239.112,28.742l-0.951-1.354"/>
		<path fill-opacity="0" stroke="#000000" stroke-linecap="round" stroke-linejoin="round" d="M237.492,28.742v-2.837h1.08
			l0.267,0.137l0.137,0.129l0.137,0.274v0.403l-0.137,0.274l-0.137,0.129l-0.267,0.137h-1.08"/>
		<path fill-opacity="0" stroke="#000000" stroke-linecap="round" stroke-linejoin="round" d="M241.942,28.468l-0.13,0.137
			l-0.41,0.137h-0.267l-0.403-0.137l-0.274-0.273l-0.137-0.267l-0.129-0.54v-0.403l0.129-0.54l0.137-0.273l0.274-0.267l0.403-0.137
			h0.267l0.41,0.137l0.13,0.129"/>
		<path fill-opacity="0" stroke="#000000" stroke-linecap="round" stroke-linejoin="round" d="M243.022,26.171l0.137-0.129
			l0.266-0.137h0.677l0.273,0.137l0.129,0.129l0.137,0.274v0.266l-0.137,0.411l-1.62,1.62h1.756"/>
		<path fill-opacity="0" stroke="#000000" stroke-linecap="round" stroke-linejoin="round" d="M246.398,25.905h0.267l0.273,0.137
			l0.137,0.129l0.129,0.274l0.137,0.54v0.677l-0.137,0.54l-0.129,0.266l-0.137,0.137l-0.273,0.137h-0.267l-0.273-0.137l-0.129-0.137
			l-0.137-0.266l-0.137-0.54v-0.677l0.137-0.54l0.137-0.274l0.129-0.129L246.398,25.905"/>
		<path fill-opacity="0" stroke="#000000" stroke-linecap="round" stroke-linejoin="round" d="M350.381,28.742l-0.943-1.354"/>
		<path fill-opacity="0" stroke="#000000" stroke-linecap="round" stroke-linejoin="round" d="M348.761,28.742v-2.837h1.08
			l0.274,0.137l0.137,0.129l0.129,0.274v0.403l-0.129,0.274l-0.137,0.129l-0.274,0.137h-1.08"/>
		<path fill-opacity="0" stroke="#000000" stroke-linecap="round" stroke-linejoin="round" d="M353.218,28.468l-0.137,0.137
			l-0.403,0.137h-0.273l-0.403-0.137l-0.267-0.273l-0.137-0.267l-0.137-0.54v-0.403l0.137-0.54l0.137-0.273l0.267-0.267l0.403-0.137
			h0.273l0.403,0.137l0.137,0.129"/>
		<path fill-opacity="0" stroke="#000000" stroke-linecap="round" stroke-linejoin="round" d="M354.161,25.905h1.756l-0.943,1.08
			h0.403l0.266,0.137l0.137,0.129l0.137,0.274v0.677l-0.137,0.266l-0.137,0.137l-0.266,0.137h-0.814l-0.266-0.137l-0.137-0.137"/>
		<path fill-opacity="0" stroke="#000000" stroke-linecap="round" stroke-linejoin="round" d="M357.674,25.905h0.267l0.273,0.137
			l0.13,0.129l0.137,0.274l0.137,0.54v0.677l-0.137,0.54l-0.137,0.266l-0.13,0.137l-0.273,0.137h-0.267l-0.273-0.137l-0.137-0.137
			l-0.13-0.266l-0.137-0.54v-0.677l0.137-0.54l0.13-0.274l0.137-0.129L357.674,25.905"/>
		<path fill-opacity="0" stroke="#000000" stroke-linecap="round" stroke-linejoin="round" d="M462.636,28.742l-0.94-1.354"/>
		<path fill-opacity="0" stroke="#000000" stroke-linecap="round" stroke-linejoin="round" d="M461.016,28.742v-2.837h1.08
			l0.269,0.137l0.137,0.129l0.137,0.274v0.403l-0.137,0.274l-0.137,0.129l-0.269,0.137h-1.08"/>
		<path fill-opacity="0" stroke="#000000" stroke-linecap="round" stroke-linejoin="round" d="M465.473,28.468l-0.137,0.137
			l-0.403,0.137h-0.271l-0.403-0.137l-0.271-0.273l-0.129-0.267l-0.14-0.54v-0.403l0.14-0.54l0.129-0.273l0.271-0.267l0.403-0.137
			h0.271l0.403,0.137l0.137,0.129"/>
		<path fill-opacity="0" stroke="#000000" stroke-linecap="round" stroke-linejoin="round" d="M467.899,26.848v1.894"/>
		<path fill-opacity="0" stroke="#000000" stroke-linecap="round" stroke-linejoin="round" d="M467.222,25.768l-0.669,2.023h1.75"/>
		<path fill-opacity="0" stroke="#000000" stroke-linecap="round" stroke-linejoin="round" d="M469.922,25.905h0.273l0.267,0.137
			l0.137,0.129l0.14,0.274l0.13,0.54v0.677l-0.13,0.54l-0.14,0.266l-0.137,0.137l-0.267,0.137h-0.273l-0.267-0.137l-0.14-0.137
			l-0.137-0.266l-0.137-0.54v-0.677l0.137-0.54l0.137-0.274l0.14-0.129L469.922,25.905"/>
		<path fill-opacity="0" stroke="#000000" stroke-linecap="round" stroke-linejoin="round" d="M288.274,26.466l-1.354,0.943"/>
		<path fill-opacity="0" stroke="#000000" stroke-linecap="round" stroke-linejoin="round" d="M288.274,28.086h-2.837v-1.08
			l0.137-0.274l0.13-0.129l0.273-0.137h0.403l0.273,0.137l0.129,0.129l0.137,0.274v1.08"/>
		<path fill-opacity="0" stroke="#000000" stroke-linecap="round" stroke-linejoin="round" d="M288.274,25.25h-2.837v-0.677
			l0.137-0.403l0.267-0.266l0.273-0.137l0.54-0.137h0.403l0.54,0.137l0.266,0.137l0.274,0.266l0.137,0.403V25.25"/>
		<path fill-opacity="0" stroke="#000000" stroke-linecap="round" stroke-linejoin="round" d="M285.437,21.88v-0.273l0.137-0.267
			l0.13-0.137l0.273-0.137l0.54-0.137h0.677l0.54,0.137L288,21.203l0.137,0.137l0.137,0.267v0.273l-0.137,0.267L288,22.283
			l-0.266,0.137l-0.54,0.129h-0.677l-0.54-0.129l-0.273-0.137l-0.13-0.137L285.437,21.88"/>
		<path fill-opacity="0" stroke="#000000" stroke-linecap="round" stroke-linejoin="round" d="M129.313,21.542l-0.951-1.354"/>
		<path fill-opacity="0" stroke="#000000" stroke-linecap="round" stroke-linejoin="round" d="M127.692,21.542v-2.837h1.08
			l0.266,0.137l0.137,0.13l0.137,0.273v0.403l-0.137,0.273l-0.137,0.13l-0.266,0.137h-1.08"/>
		<path fill-opacity="0" stroke="#000000" stroke-linecap="round" stroke-linejoin="round" d="M130.522,21.542v-2.837h0.677
			l0.403,0.137l0.273,0.267l0.137,0.273l0.13,0.54v0.403l-0.13,0.54l-0.137,0.266l-0.273,0.274l-0.403,0.137H130.522"/>
		<path fill-opacity="0" stroke="#000000" stroke-linecap="round" stroke-linejoin="round" d="M134.842,21.542h-1.62"/>
		<path fill-opacity="0" stroke="#000000" stroke-linecap="round" stroke-linejoin="round" d="M134.036,21.542v-2.837l-0.274,0.403
			l-0.266,0.273l-0.273,0.13"/>
		<path fill-opacity="0" stroke="#000000" stroke-linecap="round" stroke-linejoin="round" d="M136.599,18.705h0.267l0.273,0.137
			l0.137,0.13l0.13,0.273l0.137,0.54v0.677l-0.137,0.54l-0.13,0.267l-0.137,0.137l-0.273,0.137h-0.267l-0.273-0.137l-0.13-0.137
			l-0.137-0.267l-0.137-0.54v-0.677l0.137-0.54l0.137-0.273l0.13-0.13L136.599,18.705"/>
		<path fill-opacity="0" stroke="#000000" stroke-linecap="round" stroke-linejoin="round" d="M239.436,21.542l-0.943-1.354"/>
		<path fill-opacity="0" stroke="#000000" stroke-linecap="round" stroke-linejoin="round" d="M237.816,21.542v-2.837h1.08
			l0.267,0.137l0.137,0.13l0.137,0.273v0.403l-0.137,0.273l-0.137,0.13l-0.267,0.137h-1.08"/>
		<path fill-opacity="0" stroke="#000000" stroke-linecap="round" stroke-linejoin="round" d="M240.653,21.542v-2.837h0.67
			l0.41,0.137L242,19.108l0.137,0.273l0.137,0.54v0.403l-0.137,0.54L242,21.131l-0.267,0.274l-0.41,0.137H240.653"/>
		<path fill-opacity="0" stroke="#000000" stroke-linecap="round" stroke-linejoin="round" d="M243.353,18.971l0.129-0.13
			l0.274-0.137h0.669l0.273,0.137l0.137,0.13l0.129,0.273v0.267l-0.129,0.41l-1.62,1.62h1.75"/>
		<path fill-opacity="0" stroke="#000000" stroke-linecap="round" stroke-linejoin="round" d="M246.723,18.705h0.273l0.267,0.137
			l0.137,0.13l0.137,0.273l0.13,0.54v0.677l-0.13,0.54l-0.137,0.267l-0.137,0.137l-0.267,0.137h-0.273l-0.267-0.137l-0.137-0.137
			l-0.137-0.267l-0.137-0.54v-0.677l0.137-0.54l0.137-0.273l0.137-0.13L246.723,18.705"/>
		<path fill-opacity="0" stroke="#000000" stroke-linecap="round" stroke-linejoin="round" d="M350.381,21.542l-0.943-1.354"/>
		<path fill-opacity="0" stroke="#000000" stroke-linecap="round" stroke-linejoin="round" d="M348.761,21.542v-2.837h1.08
			l0.274,0.137l0.137,0.13l0.129,0.273v0.403l-0.129,0.273l-0.137,0.13l-0.274,0.137h-1.08"/>
		<path fill-opacity="0" stroke="#000000" stroke-linecap="round" stroke-linejoin="round" d="M351.598,21.542v-2.837h0.677
			l0.403,0.137l0.267,0.267l0.137,0.273l0.137,0.54v0.403l-0.137,0.54l-0.137,0.266l-0.267,0.274l-0.403,0.137H351.598"/>
		<path fill-opacity="0" stroke="#000000" stroke-linecap="round" stroke-linejoin="round" d="M354.161,18.705h1.756l-0.943,1.08
			h0.403l0.266,0.137l0.137,0.13l0.137,0.273v0.677l-0.137,0.267l-0.137,0.137l-0.266,0.137h-0.814l-0.266-0.137l-0.137-0.137"/>
		<path fill-opacity="0" stroke="#000000" stroke-linecap="round" stroke-linejoin="round" d="M357.674,18.705h0.267l0.273,0.137
			l0.13,0.13l0.137,0.273l0.137,0.54v0.677l-0.137,0.54l-0.137,0.267l-0.13,0.137l-0.273,0.137h-0.267l-0.273-0.137l-0.137-0.137
			l-0.13-0.267l-0.137-0.54v-0.677l0.137-0.54l0.13-0.273l0.137-0.13L357.674,18.705"/>
		<path fill-opacity="0" stroke="#000000" stroke-linecap="round" stroke-linejoin="round" d="M462.636,21.542l-0.94-1.354"/>
		<path fill-opacity="0" stroke="#000000" stroke-linecap="round" stroke-linejoin="round" d="M461.016,21.542v-2.837h1.08
			l0.269,0.137l0.137,0.13l0.137,0.273v0.403l-0.137,0.273l-0.137,0.13l-0.269,0.137h-1.08"/>
		<path fill-opacity="0" stroke="#000000" stroke-linecap="round" stroke-linejoin="round" d="M463.854,21.542v-2.837h0.668
			l0.41,0.137l0.27,0.267l0.137,0.273l0.137,0.54v0.403l-0.137,0.54l-0.137,0.266l-0.27,0.274l-0.41,0.137H463.854"/>
		<path fill-opacity="0" stroke="#000000" stroke-linecap="round" stroke-linejoin="round" d="M467.899,19.648v1.894"/>
		<path fill-opacity="0" stroke="#000000" stroke-linecap="round" stroke-linejoin="round" d="M467.222,18.568l-0.669,2.023h1.75"/>
		<path fill-opacity="0" stroke="#000000" stroke-linecap="round" stroke-linejoin="round" d="M469.922,18.705h0.273l0.267,0.137
			l0.137,0.13l0.14,0.273l0.13,0.54v0.677l-0.13,0.54l-0.14,0.267l-0.137,0.137l-0.267,0.137h-0.273l-0.267-0.137l-0.14-0.137
			l-0.137-0.267l-0.137-0.54v-0.677l0.137-0.54l0.137-0.273l0.14-0.13L469.922,18.705"/>
		<path fill-opacity="0" stroke="#000000" stroke-linecap="round" stroke-linejoin="round" d="M288.058,35.106l-1.346,0.943"/>
		<path fill-opacity="0" stroke="#000000" stroke-linecap="round" stroke-linejoin="round" d="M288.058,36.726h-2.83v-1.08
			l0.137-0.274l0.13-0.129l0.273-0.137h0.403l0.267,0.137l0.137,0.129l0.137,0.274v1.08"/>
		<path fill-opacity="0" stroke="#000000" stroke-linecap="round" stroke-linejoin="round" d="M288.058,32.27l-1.346,0.943"/>
		<path fill-opacity="0" stroke="#000000" stroke-linecap="round" stroke-linejoin="round" d="M288.058,33.89h-2.83v-1.08
			l0.137-0.267l0.13-0.137l0.273-0.137h0.403l0.267,0.137l0.137,0.137l0.137,0.267v1.08"/>
		<path fill-opacity="0" stroke="#000000" stroke-linecap="round" stroke-linejoin="round" d="M285.228,30.52v-0.274l0.137-0.266
			l0.13-0.137l0.273-0.137l0.54-0.137h0.67l0.54,0.137l0.274,0.137l0.137,0.137l0.129,0.266v0.274l-0.129,0.266l-0.137,0.137
			l-0.274,0.137l-0.54,0.129h-0.67l-0.54-0.129l-0.273-0.137l-0.13-0.137L285.228,30.52"/>
		<path fill-opacity="0" stroke="#000000" stroke-linecap="round" stroke-linejoin="round" d="M345.154,96.645h2.757l0.324-0.158
			l0.158-0.166l0.166-0.324v-0.648l-0.166-0.324l-0.158-0.158l-0.324-0.166h-2.757"/>
		<path fill-opacity="0" stroke="#000000" stroke-linecap="round" stroke-linejoin="round" d="M348.559,91.302v1.944"/>
		<path fill-opacity="0" stroke="#000000" stroke-linecap="round" stroke-linejoin="round" d="M348.559,92.274h-3.405l0.49,0.324
			l0.324,0.324l0.158,0.324"/>
		<path fill-opacity="0" stroke="#000000" stroke-linecap="round" stroke-linejoin="round" d="M288.007,44.445h2.75l0.324-0.159
			l0.166-0.166l0.158-0.324v-0.648l-0.158-0.324l-0.166-0.159l-0.324-0.166h-2.75"/>
		<path fill-opacity="0" stroke="#000000" stroke-linecap="round" stroke-linejoin="round" d="M288.007,41.212v-2.109l1.296,1.137
			v-0.49l0.159-0.324l0.166-0.158l0.324-0.166h0.807l0.324,0.166l0.166,0.158l0.158,0.324v0.972l-0.158,0.324l-0.166,0.166"/>
		<path fill-opacity="0" stroke="#000000" stroke-linecap="round" stroke-linejoin="round" d="M206.46,39.995v2.75l0.158,0.324
			l0.166,0.166l0.324,0.158h0.648l0.324-0.158l0.159-0.166l0.166-0.324v-2.75"/>
		<path fill-opacity="0" stroke="#000000" stroke-linecap="round" stroke-linejoin="round" d="M211.803,43.394h-1.944"/>
		<path fill-opacity="0" stroke="#000000" stroke-linecap="round" stroke-linejoin="round" d="M210.831,43.394v-3.398l-0.324,0.482
			l-0.324,0.324l-0.324,0.166"/>
		<path fill-opacity="0" stroke="#000000" stroke-linecap="round" stroke-linejoin="round" d="M213.905,39.995h0.324l0.324,0.158
			l0.166,0.166l0.158,0.324l0.166,0.648v0.807l-0.166,0.648l-0.158,0.324l-0.166,0.166l-0.324,0.158h-0.324l-0.324-0.158
			l-0.158-0.166l-0.166-0.324l-0.158-0.648v-0.807l0.158-0.648l0.166-0.324l0.158-0.166L213.905,39.995"/>
		<path fill-opacity="0" stroke="#000000" stroke-linecap="round" stroke-linejoin="round" d="M140.782,21.405l0.411,0.137h0.669
			l0.274-0.137l0.137-0.137l0.129-0.267v-0.273l-0.129-0.267l-0.137-0.137l-0.274-0.137l-0.54-0.137l-0.266-0.13l-0.137-0.137
			l-0.137-0.273v-0.267l0.137-0.273l0.137-0.13l0.266-0.137h0.677l0.403,0.137"/>
		<path fill-opacity="0" stroke="#000000" stroke-linecap="round" stroke-linejoin="round" d="M143.619,21.542v-2.837h1.08
			l0.273,0.137l0.13,0.13l0.137,0.273v0.403l-0.137,0.273l-0.13,0.13l-0.273,0.137h-1.08"/>
		<path fill-opacity="0" stroke="#000000" stroke-linecap="round" stroke-linejoin="round" d="M146.456,21.542v-2.837"/>
		<path fill-opacity="0" stroke="#000000" stroke-linecap="round" stroke-linejoin="round" d="M147.132,21.808h2.153"/>
		<path fill-opacity="0" stroke="#000000" stroke-linecap="round" stroke-linejoin="round" d="M149.825,21.405l0.41,0.137h0.67
			l0.273-0.137l0.137-0.137l0.13-0.267v-0.273l-0.13-0.267l-0.137-0.137l-0.273-0.137l-0.54-0.137l-0.267-0.13l-0.137-0.137
			l-0.137-0.273v-0.267l0.137-0.273l0.137-0.13l0.267-0.137h0.677l0.403,0.137"/>
		<path fill-opacity="0" stroke="#000000" stroke-linecap="round" stroke-linejoin="round" d="M152.662,21.542v-2.837h0.677
			l0.403,0.137l0.274,0.267l0.129,0.273l0.137,0.54v0.403l-0.137,0.54l-0.129,0.266l-0.274,0.274l-0.403,0.137H152.662"/>
		<path fill-opacity="0" stroke="#000000" stroke-linecap="round" stroke-linejoin="round" d="M155.362,20.728h1.354"/>
		<path fill-opacity="0" stroke="#000000" stroke-linecap="round" stroke-linejoin="round" d="M155.096,21.542l0.943-2.837
			l0.943,2.837"/>
		<path fill-opacity="0" stroke="#000000" stroke-linecap="round" stroke-linejoin="round" d="M140.854,28.604l0.403,0.137h0.677
			l0.266-0.137l0.137-0.137l0.137-0.266v-0.274l-0.137-0.266l-0.137-0.137l-0.266-0.137l-0.54-0.137l-0.274-0.129l-0.129-0.137
			l-0.137-0.274v-0.266l0.137-0.274l0.129-0.129l0.274-0.137h0.669l0.411,0.137"/>
		<path fill-opacity="0" stroke="#000000" stroke-linecap="round" stroke-linejoin="round" d="M143.684,28.742v-2.837h1.08
			l0.273,0.137l0.137,0.129l0.13,0.274v0.403l-0.13,0.274l-0.137,0.129l-0.273,0.137h-1.08"/>
		<path fill-opacity="0" stroke="#000000" stroke-linecap="round" stroke-linejoin="round" d="M146.521,28.742v-2.837"/>
		<path fill-opacity="0" stroke="#000000" stroke-linecap="round" stroke-linejoin="round" d="M147.197,29.008h2.16"/>
		<path fill-opacity="0" stroke="#000000" stroke-linecap="round" stroke-linejoin="round" d="M149.897,28.604l0.403,0.137h0.677
			l0.267-0.137l0.137-0.137l0.137-0.266v-0.274l-0.137-0.266l-0.137-0.137l-0.267-0.137l-0.54-0.137l-0.273-0.129l-0.13-0.137
			l-0.137-0.274v-0.266l0.137-0.274l0.13-0.129l0.273-0.137h0.677l0.403,0.137"/>
		<path fill-opacity="0" stroke="#000000" stroke-linecap="round" stroke-linejoin="round" d="M154.354,28.468l-0.137,0.137
			l-0.403,0.137h-0.273l-0.403-0.137l-0.273-0.273l-0.13-0.267l-0.137-0.54v-0.403l0.137-0.54l0.13-0.273l0.273-0.267l0.403-0.137
			h0.273l0.403,0.137l0.137,0.129"/>
		<path fill-opacity="0" stroke="#000000" stroke-linecap="round" stroke-linejoin="round" d="M156.917,28.742h-1.354v-2.837"/>
		<path fill-opacity="0" stroke="#000000" stroke-linecap="round" stroke-linejoin="round" d="M141.373,33.104l0.943,2.837
			l0.943-2.837"/>
		<path fill-opacity="0" stroke="#000000" stroke-linecap="round" stroke-linejoin="round" d="M145.822,35.668l-0.137,0.137
			l-0.403,0.137h-0.266l-0.403-0.137l-0.273-0.273l-0.137-0.267l-0.13-0.54v-0.403l0.13-0.54l0.137-0.273l0.273-0.266l0.403-0.137
			h0.266l0.403,0.137l0.137,0.129"/>
		<path fill-opacity="0" stroke="#000000" stroke-linecap="round" stroke-linejoin="round" d="M148.659,35.668l-0.137,0.137
			l-0.403,0.137h-0.273l-0.403-0.137l-0.267-0.273l-0.137-0.267l-0.137-0.54v-0.403l0.137-0.54l0.137-0.273l0.267-0.266l0.403-0.137
			h0.273l0.403,0.137l0.137,0.129"/>
		<path fill-opacity="0" stroke="#000000" stroke-linecap="round" stroke-linejoin="round" d="M142.992,40.441l-0.273-0.137h-0.403
			l-0.403,0.137l-0.273,0.267l-0.137,0.273l-0.129,0.54v0.403l0.129,0.54l0.137,0.266l0.273,0.274l0.403,0.137h0.267l0.41-0.137
			l0.13-0.137v-0.943h-0.54"/>
		<path fill-opacity="0" stroke="#000000" stroke-linecap="round" stroke-linejoin="round" d="M144.339,43.142v-2.837l1.62,2.837
			v-2.837"/>
		<path fill-opacity="0" stroke="#000000" stroke-linecap="round" stroke-linejoin="round" d="M147.305,43.142v-2.837h0.677
			l0.403,0.137l0.273,0.267l0.137,0.273l0.13,0.54v0.403l-0.13,0.54l-0.137,0.266l-0.273,0.274l-0.403,0.137H147.305"/>
		<path fill-opacity="0" stroke="#000000" stroke-linecap="round" stroke-linejoin="round" d="M269.82,39.995v2.75l0.158,0.324
			l0.166,0.166l0.324,0.158h0.648l0.324-0.158l0.158-0.166l0.166-0.324v-2.75"/>
		<path fill-opacity="0" stroke="#000000" stroke-linecap="round" stroke-linejoin="round" d="M273.219,40.319l0.166-0.166
			l0.324-0.158h0.807l0.324,0.158l0.159,0.166l0.166,0.324v0.324l-0.166,0.482l-1.937,1.944h2.103"/>
		<path fill-opacity="0" stroke="#000000" stroke-linecap="round" stroke-linejoin="round" d="M277.265,39.995h0.324l0.324,0.158
			l0.166,0.166l0.158,0.324l0.166,0.648v0.807l-0.166,0.648l-0.158,0.324l-0.166,0.166l-0.324,0.158h-0.324l-0.324-0.158
			l-0.158-0.166l-0.166-0.324l-0.159-0.648v-0.807l0.159-0.648l0.166-0.324l0.158-0.166L277.265,39.995"/>
		<path fill-opacity="0" stroke="#000000" stroke-linecap="round" stroke-linejoin="round" d="M250.222,21.405l0.411,0.137h0.669
			l0.273-0.137l0.137-0.137l0.129-0.267v-0.273l-0.129-0.267l-0.137-0.137l-0.273-0.137l-0.54-0.137l-0.266-0.13l-0.137-0.137
			l-0.137-0.273v-0.267l0.137-0.273l0.137-0.13l0.266-0.137h0.677l0.403,0.137"/>
		<path fill-opacity="0" stroke="#000000" stroke-linecap="round" stroke-linejoin="round" d="M253.059,21.542v-2.837h1.08
			l0.273,0.137l0.13,0.13l0.137,0.273v0.403l-0.137,0.273l-0.13,0.13l-0.273,0.137h-1.08"/>
		<path fill-opacity="0" stroke="#000000" stroke-linecap="round" stroke-linejoin="round" d="M255.896,21.542v-2.837"/>
		<path fill-opacity="0" stroke="#000000" stroke-linecap="round" stroke-linejoin="round" d="M256.572,21.808h2.153"/>
		<path fill-opacity="0" stroke="#000000" stroke-linecap="round" stroke-linejoin="round" d="M259.265,21.405l0.41,0.137h0.67
			l0.273-0.137l0.137-0.137l0.13-0.267v-0.273l-0.13-0.267l-0.137-0.137l-0.273-0.137l-0.54-0.137l-0.267-0.13l-0.137-0.137
			l-0.137-0.273v-0.267l0.137-0.273l0.137-0.13l0.267-0.137h0.677l0.403,0.137"/>
		<path fill-opacity="0" stroke="#000000" stroke-linecap="round" stroke-linejoin="round" d="M262.102,21.542v-2.837h0.677
			l0.403,0.137l0.274,0.267l0.129,0.273l0.137,0.54v0.403l-0.137,0.54l-0.129,0.266l-0.274,0.274l-0.403,0.137H262.102"/>
		<path fill-opacity="0" stroke="#000000" stroke-linecap="round" stroke-linejoin="round" d="M264.802,20.728h1.354"/>
		<path fill-opacity="0" stroke="#000000" stroke-linecap="round" stroke-linejoin="round" d="M264.536,21.542l0.943-2.837
			l0.943,2.837"/>
		<path fill-opacity="0" stroke="#000000" stroke-linecap="round" stroke-linejoin="round" d="M250.294,28.604l0.403,0.137h0.677
			l0.266-0.137l0.137-0.137l0.137-0.266v-0.274l-0.137-0.266l-0.137-0.137l-0.266-0.137l-0.54-0.137l-0.274-0.129l-0.129-0.137
			l-0.137-0.274v-0.266l0.137-0.274l0.129-0.129l0.274-0.137h0.669l0.41,0.137"/>
		<path fill-opacity="0" stroke="#000000" stroke-linecap="round" stroke-linejoin="round" d="M253.124,28.742v-2.837h1.08
			l0.273,0.137l0.137,0.129l0.13,0.274v0.403l-0.13,0.274l-0.137,0.129l-0.273,0.137h-1.08"/>
		<path fill-opacity="0" stroke="#000000" stroke-linecap="round" stroke-linejoin="round" d="M255.96,28.742v-2.837"/>
		<path fill-opacity="0" stroke="#000000" stroke-linecap="round" stroke-linejoin="round" d="M256.637,29.008h2.16"/>
		<path fill-opacity="0" stroke="#000000" stroke-linecap="round" stroke-linejoin="round" d="M259.337,28.604l0.403,0.137h0.677
			l0.267-0.137l0.137-0.137l0.137-0.266v-0.274l-0.137-0.266l-0.137-0.137l-0.267-0.137l-0.54-0.137l-0.273-0.129l-0.13-0.137
			l-0.137-0.274v-0.266l0.137-0.274l0.13-0.129l0.273-0.137h0.677l0.403,0.137"/>
		<path fill-opacity="0" stroke="#000000" stroke-linecap="round" stroke-linejoin="round" d="M263.794,28.468l-0.137,0.137
			l-0.403,0.137h-0.274l-0.403-0.137l-0.274-0.273l-0.129-0.267l-0.137-0.54v-0.403l0.137-0.54l0.129-0.273l0.274-0.267l0.403-0.137
			h0.274l0.403,0.137l0.137,0.129"/>
		<path fill-opacity="0" stroke="#000000" stroke-linecap="round" stroke-linejoin="round" d="M266.357,28.742h-1.354v-2.837"/>
		<path fill-opacity="0" stroke="#000000" stroke-linecap="round" stroke-linejoin="round" d="M242.172,33.104l0.943,2.837
			l0.943-2.837"/>
		<path fill-opacity="0" stroke="#000000" stroke-linecap="round" stroke-linejoin="round" d="M246.622,35.668l-0.137,0.137
			l-0.403,0.137h-0.267l-0.403-0.137l-0.273-0.273l-0.137-0.267l-0.13-0.54v-0.403l0.13-0.54l0.137-0.273l0.273-0.266l0.403-0.137
			h0.267l0.403,0.137l0.137,0.129"/>
		<path fill-opacity="0" stroke="#000000" stroke-linecap="round" stroke-linejoin="round" d="M249.458,35.668l-0.137,0.137
			l-0.403,0.137h-0.273l-0.403-0.137l-0.266-0.273l-0.137-0.267l-0.137-0.54v-0.403l0.137-0.54l0.137-0.273l0.266-0.266l0.403-0.137
			h0.273l0.403,0.137l0.137,0.129"/>
		<path fill-opacity="0" stroke="#000000" stroke-linecap="round" stroke-linejoin="round" d="M243.792,40.441l-0.274-0.137h-0.403
			l-0.403,0.137l-0.274,0.267l-0.137,0.273l-0.129,0.54v0.403l0.129,0.54l0.137,0.266l0.274,0.274l0.403,0.137h0.267l0.411-0.137
			l0.129-0.137v-0.943h-0.54"/>
		<path fill-opacity="0" stroke="#000000" stroke-linecap="round" stroke-linejoin="round" d="M245.139,43.142v-2.837l1.62,2.837
			v-2.837"/>
		<path fill-opacity="0" stroke="#000000" stroke-linecap="round" stroke-linejoin="round" d="M248.105,43.142v-2.837h0.677
			l0.403,0.137l0.273,0.267l0.137,0.273l0.13,0.54v0.403l-0.13,0.54l-0.137,0.266l-0.273,0.274l-0.403,0.137H248.105"/>
		<path fill-opacity="0" stroke="#000000" stroke-linecap="round" stroke-linejoin="round" d="M428.94,39.995v2.75l0.156,0.324
			l0.166,0.166l0.324,0.158h0.648l0.321-0.158l0.158-0.166l0.166-0.324v-2.75"/>
		<path fill-opacity="0" stroke="#000000" stroke-linecap="round" stroke-linejoin="round" d="M432.18,39.995h2.104l-1.13,1.296
			h0.479l0.324,0.158l0.158,0.166l0.166,0.324v0.807l-0.166,0.324l-0.158,0.166l-0.324,0.158h-0.972l-0.324-0.158l-0.158-0.166"/>
		<path fill-opacity="0" stroke="#000000" stroke-linecap="round" stroke-linejoin="round" d="M436.385,39.995h0.324l0.324,0.158
			l0.166,0.166l0.159,0.324l0.166,0.648v0.807l-0.166,0.648l-0.159,0.324l-0.166,0.166l-0.324,0.158h-0.324l-0.324-0.158
			l-0.156-0.166l-0.166-0.324l-0.158-0.648v-0.807l0.158-0.648l0.166-0.324l0.156-0.166L436.385,39.995"/>
		<path fill-opacity="0" stroke="#000000" stroke-linecap="round" stroke-linejoin="round" d="M367.582,21.405l0.411,0.137h0.669
			l0.273-0.137l0.137-0.137l0.129-0.267v-0.273l-0.129-0.267l-0.137-0.137l-0.273-0.137l-0.54-0.137l-0.266-0.13l-0.137-0.137
			l-0.137-0.273v-0.267l0.137-0.273l0.137-0.13l0.266-0.137h0.677l0.403,0.137"/>
		<path fill-opacity="0" stroke="#000000" stroke-linecap="round" stroke-linejoin="round" d="M370.418,21.542v-2.837h1.08
			l0.273,0.137l0.13,0.13l0.137,0.273v0.403l-0.137,0.273l-0.13,0.13l-0.273,0.137h-1.08"/>
		<path fill-opacity="0" stroke="#000000" stroke-linecap="round" stroke-linejoin="round" d="M373.255,21.542v-2.837"/>
		<path fill-opacity="0" stroke="#000000" stroke-linecap="round" stroke-linejoin="round" d="M373.932,21.808h2.153"/>
		<path fill-opacity="0" stroke="#000000" stroke-linecap="round" stroke-linejoin="round" d="M376.625,21.405l0.41,0.137h0.67
			l0.273-0.137l0.137-0.137l0.13-0.267v-0.273l-0.13-0.267l-0.137-0.137l-0.273-0.137l-0.54-0.137l-0.267-0.13l-0.137-0.137
			l-0.137-0.273v-0.267l0.137-0.273l0.137-0.13l0.267-0.137h0.677l0.403,0.137"/>
		<path fill-opacity="0" stroke="#000000" stroke-linecap="round" stroke-linejoin="round" d="M379.462,21.542v-2.837h0.677
			l0.403,0.137l0.274,0.267l0.129,0.273l0.137,0.54v0.403l-0.137,0.54l-0.129,0.266l-0.274,0.274l-0.403,0.137H379.462"/>
		<path fill-opacity="0" stroke="#000000" stroke-linecap="round" stroke-linejoin="round" d="M382.162,20.728h1.354"/>
		<path fill-opacity="0" stroke="#000000" stroke-linecap="round" stroke-linejoin="round" d="M381.896,21.542l0.943-2.837
			l0.943,2.837"/>
		<path fill-opacity="0" stroke="#000000" stroke-linecap="round" stroke-linejoin="round" d="M367.654,28.604l0.403,0.137h0.677
			L369,28.604l0.137-0.137l0.137-0.266v-0.274l-0.137-0.266L369,27.525l-0.266-0.137l-0.54-0.137l-0.274-0.129l-0.129-0.137
			l-0.137-0.274v-0.266l0.137-0.274l0.129-0.129l0.274-0.137h0.669l0.411,0.137"/>
		<path fill-opacity="0" stroke="#000000" stroke-linecap="round" stroke-linejoin="round" d="M370.483,28.742v-2.837h1.08
			l0.273,0.137l0.137,0.129l0.13,0.274v0.403l-0.13,0.274l-0.137,0.129l-0.273,0.137h-1.08"/>
		<path fill-opacity="0" stroke="#000000" stroke-linecap="round" stroke-linejoin="round" d="M373.32,28.742v-2.837"/>
		<path fill-opacity="0" stroke="#000000" stroke-linecap="round" stroke-linejoin="round" d="M373.997,29.008h2.16"/>
		<path fill-opacity="0" stroke="#000000" stroke-linecap="round" stroke-linejoin="round" d="M376.697,28.604l0.403,0.137h0.677
			l0.267-0.137l0.137-0.137l0.137-0.266v-0.274l-0.137-0.266l-0.137-0.137l-0.267-0.137l-0.54-0.137l-0.273-0.129l-0.13-0.137
			l-0.137-0.274v-0.266l0.137-0.274l0.13-0.129l0.273-0.137h0.677l0.403,0.137"/>
		<path fill-opacity="0" stroke="#000000" stroke-linecap="round" stroke-linejoin="round" d="M381.154,28.468l-0.137,0.137
			l-0.403,0.137h-0.273l-0.403-0.137l-0.274-0.273l-0.129-0.267l-0.137-0.54v-0.403l0.137-0.54l0.129-0.273l0.274-0.267l0.403-0.137
			h0.273l0.403,0.137l0.137,0.129"/>
		<path fill-opacity="0" stroke="#000000" stroke-linecap="round" stroke-linejoin="round" d="M383.717,28.742h-1.354v-2.837"/>
		<path fill-opacity="0" stroke="#000000" stroke-linecap="round" stroke-linejoin="round" d="M368.172,33.104l0.943,2.837
			l0.943-2.837"/>
		<path fill-opacity="0" stroke="#000000" stroke-linecap="round" stroke-linejoin="round" d="M372.622,35.668l-0.137,0.137
			l-0.403,0.137h-0.266l-0.403-0.137l-0.273-0.273l-0.137-0.267l-0.129-0.54v-0.403l0.129-0.54l0.137-0.273l0.273-0.266l0.403-0.137
			h0.266l0.403,0.137l0.137,0.129"/>
		<path fill-opacity="0" stroke="#000000" stroke-linecap="round" stroke-linejoin="round" d="M375.458,35.668l-0.137,0.137
			l-0.403,0.137h-0.273l-0.403-0.137l-0.267-0.273l-0.137-0.267l-0.137-0.54v-0.403l0.137-0.54l0.137-0.273l0.267-0.266l0.403-0.137
			h0.273l0.403,0.137l0.137,0.129"/>
		<path fill-opacity="0" stroke="#000000" stroke-linecap="round" stroke-linejoin="round" d="M369.792,40.441l-0.273-0.137h-0.403
			l-0.403,0.137l-0.273,0.267l-0.137,0.273l-0.129,0.54v0.403l0.129,0.54l0.137,0.266l0.273,0.274l0.403,0.137h0.267l0.41-0.137
			l0.13-0.137v-0.943h-0.54"/>
		<path fill-opacity="0" stroke="#000000" stroke-linecap="round" stroke-linejoin="round" d="M371.139,43.142v-2.837l1.62,2.837
			v-2.837"/>
		<path fill-opacity="0" stroke="#000000" stroke-linecap="round" stroke-linejoin="round" d="M374.105,43.142v-2.837h0.677
			l0.403,0.137l0.273,0.267l0.137,0.273l0.13,0.54v0.403l-0.13,0.54l-0.137,0.266l-0.273,0.274l-0.403,0.137H374.105"/>
		<path fill-opacity="0" stroke="#000000" stroke-linecap="round" stroke-linejoin="round" d="M526.141,39.995v2.75l0.158,0.324
			l0.166,0.166l0.322,0.158h0.648l0.321-0.158l0.158-0.166l0.166-0.324v-2.75"/>
		<path fill-opacity="0" stroke="#000000" stroke-linecap="round" stroke-linejoin="round" d="M531.158,41.125v2.268"/>
		<path fill-opacity="0" stroke="#000000" stroke-linecap="round" stroke-linejoin="round" d="M530.352,39.83l-0.813,2.434h2.102"/>
		<path fill-opacity="0" stroke="#000000" stroke-linecap="round" stroke-linejoin="round" d="M533.584,39.995h0.324l0.324,0.158
			l0.166,0.166l0.155,0.324l0.166,0.648v0.807l-0.166,0.648l-0.155,0.324l-0.166,0.166l-0.324,0.158h-0.324l-0.322-0.158
			l-0.16-0.166l-0.164-0.324l-0.155-0.648v-0.807l0.155-0.648l0.164-0.324l0.16-0.166L533.584,39.995"/>
		<path fill-opacity="0" stroke="#000000" stroke-linecap="round" stroke-linejoin="round" d="M475.582,21.405l0.411,0.137h0.669
			l0.273-0.137l0.137-0.137l0.13-0.267v-0.273l-0.13-0.267l-0.137-0.137l-0.273-0.137l-0.54-0.137l-0.267-0.13l-0.14-0.137
			l-0.137-0.273v-0.267l0.137-0.273l0.14-0.13l0.267-0.137h0.677l0.403,0.137"/>
		<path fill-opacity="0" stroke="#000000" stroke-linecap="round" stroke-linejoin="round" d="M478.418,21.542v-2.837h1.08
			l0.273,0.137l0.13,0.13l0.137,0.273v0.403l-0.137,0.273l-0.13,0.13l-0.273,0.137h-1.08"/>
		<path fill-opacity="0" stroke="#000000" stroke-linecap="round" stroke-linejoin="round" d="M481.255,21.542v-2.837"/>
		<path fill-opacity="0" stroke="#000000" stroke-linecap="round" stroke-linejoin="round" d="M481.932,21.808h2.153"/>
		<path fill-opacity="0" stroke="#000000" stroke-linecap="round" stroke-linejoin="round" d="M484.625,21.405l0.41,0.137h0.669
			l0.274-0.137l0.137-0.137l0.129-0.267v-0.273l-0.129-0.267l-0.137-0.137l-0.274-0.137l-0.54-0.137l-0.266-0.13l-0.14-0.137
			l-0.137-0.273v-0.267l0.137-0.273l0.14-0.13l0.266-0.137h0.677l0.403,0.137"/>
		<path fill-opacity="0" stroke="#000000" stroke-linecap="round" stroke-linejoin="round" d="M487.461,21.542v-2.837h0.677
			l0.403,0.137l0.273,0.267l0.13,0.273l0.137,0.54v0.403l-0.137,0.54l-0.13,0.266l-0.273,0.274l-0.403,0.137H487.461"/>
		<path fill-opacity="0" stroke="#000000" stroke-linecap="round" stroke-linejoin="round" d="M490.162,20.728h1.354"/>
		<path fill-opacity="0" stroke="#000000" stroke-linecap="round" stroke-linejoin="round" d="M489.895,21.542l0.943-2.837
			l0.943,2.837"/>
		<path fill-opacity="0" stroke="#000000" stroke-linecap="round" stroke-linejoin="round" d="M475.654,28.604l0.4,0.137h0.68
			L477,28.604l0.137-0.137l0.14-0.266v-0.274l-0.14-0.266L477,27.525l-0.267-0.137l-0.54-0.137l-0.274-0.129l-0.129-0.137
			l-0.137-0.274v-0.266l0.137-0.274l0.129-0.129l0.274-0.137h0.669l0.409,0.137"/>
		<path fill-opacity="0" stroke="#000000" stroke-linecap="round" stroke-linejoin="round" d="M478.483,28.742v-2.837h1.079
			l0.272,0.137l0.137,0.129l0.129,0.274v0.403l-0.129,0.274l-0.137,0.129l-0.272,0.137h-1.079"/>
		<path fill-opacity="0" stroke="#000000" stroke-linecap="round" stroke-linejoin="round" d="M481.32,28.742v-2.837"/>
		<path fill-opacity="0" stroke="#000000" stroke-linecap="round" stroke-linejoin="round" d="M481.997,29.008h2.16"/>
		<path fill-opacity="0" stroke="#000000" stroke-linecap="round" stroke-linejoin="round" d="M484.697,28.604l0.4,0.137h0.68
			l0.266-0.137l0.137-0.137l0.14-0.266v-0.274l-0.14-0.266l-0.137-0.137l-0.266-0.137l-0.54-0.137l-0.273-0.129l-0.13-0.137
			l-0.137-0.274v-0.266l0.137-0.274l0.13-0.129l0.273-0.137h0.677l0.403,0.137"/>
		<path fill-opacity="0" stroke="#000000" stroke-linecap="round" stroke-linejoin="round" d="M489.154,28.468l-0.14,0.137
			l-0.4,0.137h-0.274l-0.402-0.137l-0.272-0.273l-0.129-0.267l-0.14-0.54v-0.403l0.14-0.54l0.129-0.273l0.272-0.267l0.402-0.137
			h0.274l0.4,0.137l0.14,0.129"/>
		<path fill-opacity="0" stroke="#000000" stroke-linecap="round" stroke-linejoin="round" d="M491.717,28.742h-1.354v-2.837"/>
		<path fill-opacity="0" stroke="#000000" stroke-linecap="round" stroke-linejoin="round" d="M476.172,33.104l0.943,2.837
			l0.94-2.837"/>
		<path fill-opacity="0" stroke="#000000" stroke-linecap="round" stroke-linejoin="round" d="M480.622,35.668l-0.137,0.137
			l-0.403,0.137h-0.267l-0.403-0.137l-0.274-0.273l-0.137-0.267l-0.129-0.54v-0.403l0.129-0.54l0.137-0.273l0.274-0.266l0.403-0.137
			h0.267l0.403,0.137l0.137,0.129"/>
		<path fill-opacity="0" stroke="#000000" stroke-linecap="round" stroke-linejoin="round" d="M483.458,35.668l-0.137,0.137
			l-0.403,0.137h-0.273l-0.4-0.137l-0.27-0.273l-0.137-0.267l-0.137-0.54v-0.403l0.137-0.54l0.137-0.273l0.27-0.266l0.4-0.137h0.273
			l0.403,0.137l0.137,0.129"/>
		<path fill-opacity="0" stroke="#000000" stroke-linecap="round" stroke-linejoin="round" d="M477.792,40.441l-0.273-0.137h-0.4
			l-0.403,0.137l-0.271,0.267l-0.139,0.273l-0.13,0.54v0.403l0.13,0.54l0.139,0.266l0.271,0.274l0.403,0.137h0.266l0.411-0.137
			l0.129-0.137v-0.943h-0.54"/>
		<path fill-opacity="0" stroke="#000000" stroke-linecap="round" stroke-linejoin="round" d="M479.138,43.142v-2.837l1.62,2.837
			v-2.837"/>
		<path fill-opacity="0" stroke="#000000" stroke-linecap="round" stroke-linejoin="round" d="M482.105,43.142v-2.837h0.677
			l0.403,0.137l0.271,0.267l0.137,0.273l0.129,0.54v0.403l-0.129,0.54l-0.137,0.266l-0.271,0.274l-0.403,0.137H482.105"/>
		<path fill-opacity="0" stroke="#000000" stroke-linecap="round" stroke-linejoin="round" d="M537.076,89.941l-0.943-1.354"/>
		<path fill-opacity="0" stroke="#000000" stroke-linecap="round" stroke-linejoin="round" d="M535.457,89.941v-2.837h1.08
			l0.266,0.137l0.14,0.13l0.137,0.273v0.403l-0.137,0.273l-0.14,0.13l-0.266,0.137h-1.08"/>
		<path fill-opacity="0" stroke="#000000" stroke-linecap="round" stroke-linejoin="round" d="M538.02,87.104h1.896l-1.217,2.837"/>
		<path fill-opacity="0" stroke="#000000" stroke-linecap="round" stroke-linejoin="round" d="M507.154,79.257l-1.354,0.95"/>
		<path fill-opacity="0" stroke="#000000" stroke-linecap="round" stroke-linejoin="round" d="M507.154,80.876h-2.837v-1.08
			l0.137-0.267l0.13-0.137l0.273-0.137h0.4l0.273,0.137l0.13,0.137l0.137,0.267v1.08"/>
		<path fill-opacity="0" stroke="#000000" stroke-linecap="round" stroke-linejoin="round" d="M507.154,78.047h-2.837"/>
		<path fill-opacity="0" stroke="#000000" stroke-linecap="round" stroke-linejoin="round" d="M507.154,76.427l-1.62,1.217"/>
		<path fill-opacity="0" stroke="#000000" stroke-linecap="round" stroke-linejoin="round" d="M504.317,76.427l1.62,1.62"/>
		<path fill-opacity="0" stroke="#000000" stroke-linecap="round" stroke-linejoin="round" d="M504.317,74.67v-0.267l0.137-0.273
			l0.13-0.137l0.273-0.13l0.539-0.137h0.678l0.54,0.137l0.267,0.13l0.137,0.137l0.14,0.273v0.267l-0.14,0.273l-0.137,0.129
			l-0.267,0.137l-0.54,0.137h-0.678l-0.539-0.137l-0.273-0.137l-0.13-0.129L504.317,74.67"/>
		<path fill-opacity="0" stroke="#000000" stroke-linecap="round" stroke-linejoin="round" d="M507.154,72.374v-0.54l-0.14-0.267
			l-0.137-0.137l-0.403-0.266l-0.537-0.137h-1.08l-0.273,0.137l-0.13,0.129l-0.137,0.273v0.54l0.137,0.267l0.13,0.137l0.273,0.137
			h0.677l0.267-0.137l0.137-0.137l0.14-0.267v-0.54l-0.14-0.273l-0.137-0.129l-0.267-0.137"/>
		<path fill-opacity="0" stroke="#000000" stroke-linecap="round" stroke-linejoin="round" d="M507.154,69.81h-2.837"/>
		<path fill-opacity="0" stroke="#000000" stroke-linecap="round" stroke-linejoin="round" d="M507.154,68.19l-1.62,1.217"/>
		<path fill-opacity="0" stroke="#000000" stroke-linecap="round" stroke-linejoin="round" d="M504.317,68.19l1.62,1.62"/>
		<path fill-opacity="0" stroke="#000000" stroke-linecap="round" stroke-linejoin="round" d="M507.154,65.49v1.62"/>
		<path fill-opacity="0" stroke="#000000" stroke-linecap="round" stroke-linejoin="round" d="M507.154,66.304h-2.837l0.4,0.267
			l0.273,0.273l0.13,0.267"/>
		<path fill-opacity="0" stroke="#000000" stroke-linecap="round" stroke-linejoin="round" d="M507.154,62.79v1.62"/>
		<path fill-opacity="0" stroke="#000000" stroke-linecap="round" stroke-linejoin="round" d="M507.154,63.604h-2.837l0.4,0.266
			l0.273,0.274l0.13,0.266"/>
		<path fill-opacity="0" stroke="#000000" stroke-linecap="round" stroke-linejoin="round" d="M504.317,61.847V60.09l1.079,0.95
			v-0.41l0.138-0.267l0.13-0.137l0.273-0.137h0.677l0.267,0.137l0.137,0.137l0.14,0.267v0.813l-0.14,0.267l-0.137,0.137"/>
		<path fill-opacity="0" stroke="#000000" stroke-linecap="round" stroke-linejoin="round" d="M504.317,58.341v-0.274l0.137-0.266
			l0.13-0.137l0.273-0.137l0.539-0.137h0.678l0.54,0.137l0.267,0.137l0.137,0.137l0.14,0.266v0.274l-0.14,0.266l-0.137,0.137
			l-0.267,0.137l-0.54,0.129h-0.678l-0.539-0.129l-0.273-0.137l-0.13-0.137L504.317,58.341"/>
		<path fill-opacity="0" stroke="#000000" stroke-linecap="round" stroke-linejoin="round" d="M505.664,55.23l0.137-0.403
			l0.137-0.137l0.27-0.13h0.41l0.267,0.13l0.138,0.137l0.139,0.273v1.08h-2.837v-0.95l0.137-0.267l0.13-0.137l0.273-0.137h0.267
			l0.273,0.137l0.137,0.137L505.664,55.23v0.95"/>
		<path fill-opacity="0" stroke="#000000" stroke-linecap="round" stroke-linejoin="round" d="M507.154,53.344h-2.837l2.021-0.943
			l-2.021-0.951h2.837"/>
		<path fill-opacity="0" stroke="#000000" stroke-linecap="round" stroke-linejoin="round" d="M505.26,48.887h1.896"/>
		<path fill-opacity="0" stroke="#000000" stroke-linecap="round" stroke-linejoin="round" d="M504.18,49.564l2.023,0.677v-1.757"/>
		<path fill-opacity="0" stroke="#000000" stroke-linecap="round" stroke-linejoin="round" d="M483.077,89.941l-0.943-1.354"/>
		<path fill-opacity="0" stroke="#000000" stroke-linecap="round" stroke-linejoin="round" d="M481.457,89.941v-2.837h1.08
			l0.267,0.137l0.14,0.13l0.137,0.273v0.403l-0.137,0.273l-0.14,0.13l-0.267,0.137h-1.08"/>
		<path fill-opacity="0" stroke="#000000" stroke-linecap="round" stroke-linejoin="round" d="M485.503,87.104h-0.54l-0.267,0.137
			l-0.14,0.13l-0.267,0.41l-0.137,0.54v1.08l0.137,0.267l0.13,0.137l0.273,0.137h0.54l0.267-0.137l0.137-0.137l0.14-0.267v-0.677
			l-0.14-0.273l-0.137-0.13l-0.267-0.137h-0.54l-0.273,0.137l-0.13,0.13l-0.137,0.273"/>
		<path fill-opacity="0" stroke="#000000" stroke-linecap="round" stroke-linejoin="round" d="M450.994,79.336l-1.354,0.95"/>
		<path fill-opacity="0" stroke="#000000" stroke-linecap="round" stroke-linejoin="round" d="M450.994,80.956h-2.837v-1.08
			l0.137-0.267l0.13-0.137l0.273-0.137h0.4l0.273,0.137l0.13,0.137l0.137,0.267v1.08"/>
		<path fill-opacity="0" stroke="#000000" stroke-linecap="round" stroke-linejoin="round" d="M450.994,78.126h-2.837"/>
		<path fill-opacity="0" stroke="#000000" stroke-linecap="round" stroke-linejoin="round" d="M450.994,76.506l-1.62,1.217"/>
		<path fill-opacity="0" stroke="#000000" stroke-linecap="round" stroke-linejoin="round" d="M448.157,76.506l1.62,1.62"/>
		<path fill-opacity="0" stroke="#000000" stroke-linecap="round" stroke-linejoin="round" d="M448.157,74.75v-0.267l0.137-0.273
			l0.13-0.137l0.273-0.13l0.54-0.137h0.677l0.54,0.137l0.267,0.13l0.14,0.137l0.137,0.273v0.267l-0.137,0.273l-0.14,0.13
			l-0.267,0.137l-0.54,0.137h-0.677l-0.54-0.137l-0.273-0.137l-0.13-0.13L448.157,74.75"/>
		<path fill-opacity="0" stroke="#000000" stroke-linecap="round" stroke-linejoin="round" d="M450.994,72.453v-0.54l-0.137-0.266
			l-0.14-0.137l-0.4-0.266l-0.54-0.137h-1.08l-0.273,0.137l-0.13,0.129l-0.137,0.274v0.54l0.137,0.266l0.13,0.137l0.273,0.137h0.677
			l0.267-0.137l0.14-0.137l0.137-0.266v-0.54l-0.137-0.274l-0.14-0.129l-0.267-0.137"/>
		<path fill-opacity="0" stroke="#000000" stroke-linecap="round" stroke-linejoin="round" d="M450.994,69.89h-2.837"/>
		<path fill-opacity="0" stroke="#000000" stroke-linecap="round" stroke-linejoin="round" d="M450.994,68.27l-1.62,1.217"/>
		<path fill-opacity="0" stroke="#000000" stroke-linecap="round" stroke-linejoin="round" d="M448.157,68.27l1.62,1.62"/>
		<path fill-opacity="0" stroke="#000000" stroke-linecap="round" stroke-linejoin="round" d="M450.994,65.569v1.62"/>
		<path fill-opacity="0" stroke="#000000" stroke-linecap="round" stroke-linejoin="round" d="M450.994,66.383h-2.837l0.4,0.267
			l0.273,0.273l0.13,0.267"/>
		<path fill-opacity="0" stroke="#000000" stroke-linecap="round" stroke-linejoin="round" d="M450.994,62.87v1.62"/>
		<path fill-opacity="0" stroke="#000000" stroke-linecap="round" stroke-linejoin="round" d="M450.994,63.683h-2.837l0.4,0.266
			l0.273,0.274l0.13,0.266"/>
		<path fill-opacity="0" stroke="#000000" stroke-linecap="round" stroke-linejoin="round" d="M448.157,61.926v-1.757l1.08,0.951
			v-0.411l0.137-0.267l0.13-0.137l0.273-0.137h0.677l0.267,0.137l0.14,0.137l0.137,0.267v0.813l-0.137,0.267l-0.14,0.137"/>
		<path fill-opacity="0" stroke="#000000" stroke-linecap="round" stroke-linejoin="round" d="M448.157,58.42v-0.273l0.137-0.267
			l0.13-0.137l0.273-0.137l0.54-0.137h0.677l0.54,0.137l0.267,0.137l0.14,0.137l0.137,0.267v0.273l-0.137,0.267l-0.14,0.137
			l-0.267,0.137l-0.54,0.129h-0.677l-0.54-0.129l-0.273-0.137l-0.13-0.137L448.157,58.42"/>
		<path fill-opacity="0" stroke="#000000" stroke-linecap="round" stroke-linejoin="round" d="M449.503,55.31l0.137-0.403
			l0.14-0.137l0.267-0.13h0.41l0.267,0.13l0.14,0.137l0.137,0.273v1.08h-2.837v-0.95l0.137-0.267l0.13-0.137l0.273-0.137h0.267
			l0.273,0.137l0.137,0.137L449.503,55.31v0.95"/>
		<path fill-opacity="0" stroke="#000000" stroke-linecap="round" stroke-linejoin="round" d="M450.994,53.423h-2.837l2.021-0.943
			l-2.021-0.951h2.837"/>
		<path fill-opacity="0" stroke="#000000" stroke-linecap="round" stroke-linejoin="round" d="M449.1,48.966h1.896"/>
		<path fill-opacity="0" stroke="#000000" stroke-linecap="round" stroke-linejoin="round" d="M448.02,49.643l2.023,0.677v-1.757"/>
		<path fill-opacity="0" stroke="#000000" stroke-linecap="round" stroke-linejoin="round" d="M425.477,89.941l-0.94-1.354"/>
		<path fill-opacity="0" stroke="#000000" stroke-linecap="round" stroke-linejoin="round" d="M423.857,89.941v-2.837h1.08
			l0.266,0.137l0.137,0.13l0.137,0.273v0.403l-0.137,0.273l-0.137,0.13l-0.266,0.137h-1.08"/>
		<path fill-opacity="0" stroke="#000000" stroke-linecap="round" stroke-linejoin="round" d="M428.04,87.104h-1.346l-0.14,1.347
			l0.14-0.13l0.266-0.137h0.677l0.27,0.137l0.137,0.13l0.137,0.273v0.677l-0.137,0.267l-0.137,0.137l-0.27,0.137h-0.677
			l-0.266-0.137l-0.14-0.137"/>
		<path fill-opacity="0" stroke="#000000" stroke-linecap="round" stroke-linejoin="round" d="M394.833,79.336l-1.354,0.95"/>
		<path fill-opacity="0" stroke="#000000" stroke-linecap="round" stroke-linejoin="round" d="M394.833,80.956h-2.836v-1.08
			l0.137-0.267l0.129-0.137l0.274-0.137h0.403l0.274,0.137l0.129,0.137l0.137,0.267v1.08"/>
		<path fill-opacity="0" stroke="#000000" stroke-linecap="round" stroke-linejoin="round" d="M394.833,78.126h-2.836"/>
		<path fill-opacity="0" stroke="#000000" stroke-linecap="round" stroke-linejoin="round" d="M394.833,76.506l-1.62,1.217"/>
		<path fill-opacity="0" stroke="#000000" stroke-linecap="round" stroke-linejoin="round" d="M391.997,76.506l1.62,1.62"/>
		<path fill-opacity="0" stroke="#000000" stroke-linecap="round" stroke-linejoin="round" d="M391.997,74.75v-0.267l0.137-0.273
			l0.129-0.137l0.274-0.13l0.54-0.137h0.677l0.54,0.137l0.267,0.13l0.137,0.137l0.137,0.273v0.267l-0.137,0.273l-0.137,0.13
			l-0.267,0.137l-0.54,0.137h-0.677l-0.54-0.137l-0.274-0.137l-0.129-0.13L391.997,74.75"/>
		<path fill-opacity="0" stroke="#000000" stroke-linecap="round" stroke-linejoin="round" d="M394.833,72.453v-0.54l-0.137-0.266
			l-0.137-0.137l-0.403-0.266l-0.54-0.137h-1.08l-0.274,0.137l-0.129,0.129l-0.137,0.274v0.54l0.137,0.266l0.129,0.137l0.274,0.137
			h0.677l0.266-0.137l0.137-0.137l0.137-0.266v-0.54l-0.137-0.274l-0.137-0.129l-0.266-0.137"/>
		<path fill-opacity="0" stroke="#000000" stroke-linecap="round" stroke-linejoin="round" d="M394.833,69.89h-2.836"/>
		<path fill-opacity="0" stroke="#000000" stroke-linecap="round" stroke-linejoin="round" d="M394.833,68.27l-1.62,1.217"/>
		<path fill-opacity="0" stroke="#000000" stroke-linecap="round" stroke-linejoin="round" d="M391.997,68.27l1.62,1.62"/>
		<path fill-opacity="0" stroke="#000000" stroke-linecap="round" stroke-linejoin="round" d="M394.833,65.569v1.62"/>
		<path fill-opacity="0" stroke="#000000" stroke-linecap="round" stroke-linejoin="round" d="M394.833,66.383h-2.836l0.403,0.267
			l0.274,0.273l0.129,0.267"/>
		<path fill-opacity="0" stroke="#000000" stroke-linecap="round" stroke-linejoin="round" d="M394.833,62.87v1.62"/>
		<path fill-opacity="0" stroke="#000000" stroke-linecap="round" stroke-linejoin="round" d="M394.833,63.683h-2.836l0.403,0.266
			l0.274,0.274l0.129,0.266"/>
		<path fill-opacity="0" stroke="#000000" stroke-linecap="round" stroke-linejoin="round" d="M391.997,61.926v-1.757l1.08,0.951
			v-0.411l0.137-0.267l0.129-0.137l0.273-0.137h0.677l0.267,0.137l0.137,0.137l0.137,0.267v0.813l-0.137,0.267l-0.137,0.137"/>
		<path fill-opacity="0" stroke="#000000" stroke-linecap="round" stroke-linejoin="round" d="M391.997,58.42v-0.273l0.137-0.267
			l0.129-0.137l0.274-0.137l0.54-0.137h0.677l0.54,0.137l0.267,0.137l0.137,0.137l0.137,0.267v0.273l-0.137,0.267l-0.137,0.137
			l-0.267,0.137l-0.54,0.129h-0.677l-0.54-0.129l-0.274-0.137l-0.129-0.137L391.997,58.42"/>
		<path fill-opacity="0" stroke="#000000" stroke-linecap="round" stroke-linejoin="round" d="M393.343,55.31l0.137-0.403
			l0.137-0.137l0.267-0.13h0.41l0.267,0.13l0.137,0.137l0.137,0.273v1.08h-2.836v-0.95l0.137-0.267l0.129-0.137l0.274-0.137h0.266
			l0.273,0.137l0.137,0.137L393.343,55.31v0.95"/>
		<path fill-opacity="0" stroke="#000000" stroke-linecap="round" stroke-linejoin="round" d="M394.833,53.423h-2.836l2.023-0.943
			l-2.023-0.951h2.836"/>
		<path fill-opacity="0" stroke="#000000" stroke-linecap="round" stroke-linejoin="round" d="M392.94,48.966h1.894"/>
		<path fill-opacity="0" stroke="#000000" stroke-linecap="round" stroke-linejoin="round" d="M391.86,49.643l2.023,0.677v-1.757"/>
		<path fill-opacity="0" stroke="#000000" stroke-linecap="round" stroke-linejoin="round" d="M367.877,89.941l-0.943-1.354"/>
		<path fill-opacity="0" stroke="#000000" stroke-linecap="round" stroke-linejoin="round" d="M366.257,89.941v-2.837h1.08
			l0.267,0.137l0.137,0.13l0.137,0.273v0.403l-0.137,0.273l-0.137,0.13l-0.267,0.137h-1.08"/>
		<path fill-opacity="0" stroke="#000000" stroke-linecap="round" stroke-linejoin="round" d="M370.303,88.048v1.894"/>
		<path fill-opacity="0" stroke="#000000" stroke-linecap="round" stroke-linejoin="round" d="M369.634,86.968l-0.677,2.023h1.757"
			/>
		<path fill-opacity="0" stroke="#000000" stroke-linecap="round" stroke-linejoin="round" d="M339.394,79.336l-1.354,0.95"/>
		<path fill-opacity="0" stroke="#000000" stroke-linecap="round" stroke-linejoin="round" d="M339.394,80.956h-2.836v-1.08
			l0.137-0.267l0.129-0.137l0.274-0.137h0.403l0.274,0.137l0.129,0.137l0.137,0.267v1.08"/>
		<path fill-opacity="0" stroke="#000000" stroke-linecap="round" stroke-linejoin="round" d="M339.394,78.126h-2.836"/>
		<path fill-opacity="0" stroke="#000000" stroke-linecap="round" stroke-linejoin="round" d="M339.394,76.506l-1.62,1.217"/>
		<path fill-opacity="0" stroke="#000000" stroke-linecap="round" stroke-linejoin="round" d="M336.557,76.506l1.62,1.62"/>
		<path fill-opacity="0" stroke="#000000" stroke-linecap="round" stroke-linejoin="round" d="M336.557,74.75v-0.267l0.137-0.273
			l0.129-0.137l0.274-0.13l0.54-0.137h0.677l0.54,0.137l0.267,0.13l0.137,0.137l0.137,0.273v0.267l-0.137,0.273l-0.137,0.13
			l-0.267,0.137l-0.54,0.137h-0.677l-0.54-0.137l-0.274-0.137l-0.129-0.13L336.557,74.75"/>
		<path fill-opacity="0" stroke="#000000" stroke-linecap="round" stroke-linejoin="round" d="M339.394,72.453v-0.54l-0.137-0.266
			l-0.137-0.137l-0.403-0.266l-0.54-0.137h-1.08l-0.274,0.137l-0.129,0.129l-0.137,0.274v0.54l0.137,0.266l0.129,0.137l0.274,0.137
			h0.677l0.266-0.137l0.137-0.137l0.137-0.266v-0.54l-0.137-0.274l-0.137-0.129l-0.266-0.137"/>
		<path fill-opacity="0" stroke="#000000" stroke-linecap="round" stroke-linejoin="round" d="M339.394,69.89h-2.836"/>
		<path fill-opacity="0" stroke="#000000" stroke-linecap="round" stroke-linejoin="round" d="M339.394,68.27l-1.62,1.217"/>
		<path fill-opacity="0" stroke="#000000" stroke-linecap="round" stroke-linejoin="round" d="M336.557,68.27l1.62,1.62"/>
		<path fill-opacity="0" stroke="#000000" stroke-linecap="round" stroke-linejoin="round" d="M339.394,65.569v1.62"/>
		<path fill-opacity="0" stroke="#000000" stroke-linecap="round" stroke-linejoin="round" d="M339.394,66.383h-2.836l0.403,0.267
			l0.274,0.273l0.129,0.267"/>
		<path fill-opacity="0" stroke="#000000" stroke-linecap="round" stroke-linejoin="round" d="M339.394,62.87v1.62"/>
		<path fill-opacity="0" stroke="#000000" stroke-linecap="round" stroke-linejoin="round" d="M339.394,63.683h-2.836l0.403,0.266
			l0.274,0.274l0.129,0.266"/>
		<path fill-opacity="0" stroke="#000000" stroke-linecap="round" stroke-linejoin="round" d="M336.557,61.926v-1.757l1.08,0.951
			v-0.411l0.137-0.267l0.129-0.137l0.273-0.137h0.677l0.267,0.137l0.137,0.137l0.137,0.267v0.813l-0.137,0.267l-0.137,0.137"/>
		<path fill-opacity="0" stroke="#000000" stroke-linecap="round" stroke-linejoin="round" d="M336.557,58.42v-0.273l0.137-0.267
			l0.129-0.137l0.274-0.137l0.54-0.137h0.677l0.54,0.137l0.267,0.137l0.137,0.137l0.137,0.267v0.273l-0.137,0.267l-0.137,0.137
			l-0.267,0.137l-0.54,0.129h-0.677l-0.54-0.129l-0.274-0.137l-0.129-0.137L336.557,58.42"/>
		<path fill-opacity="0" stroke="#000000" stroke-linecap="round" stroke-linejoin="round" d="M337.903,55.31l0.137-0.403
			l0.137-0.137l0.267-0.13h0.41l0.267,0.13l0.137,0.137l0.137,0.273v1.08h-2.836v-0.95l0.137-0.267l0.129-0.137l0.274-0.137h0.266
			l0.273,0.137l0.137,0.137L337.903,55.31v0.95"/>
		<path fill-opacity="0" stroke="#000000" stroke-linecap="round" stroke-linejoin="round" d="M339.394,53.423h-2.836l2.023-0.943
			l-2.023-0.951h2.836"/>
		<path fill-opacity="0" stroke="#000000" stroke-linecap="round" stroke-linejoin="round" d="M337.5,48.966h1.894"/>
		<path fill-opacity="0" stroke="#000000" stroke-linecap="round" stroke-linejoin="round" d="M336.42,49.643l2.023,0.677v-1.757"/>
		<path fill-opacity="0" stroke="#000000" stroke-linecap="round" stroke-linejoin="round" d="M313.877,89.941l-0.943-1.354"/>
		<path fill-opacity="0" stroke="#000000" stroke-linecap="round" stroke-linejoin="round" d="M312.257,89.941v-2.837h1.08
			l0.267,0.137l0.137,0.13l0.137,0.273v0.403l-0.137,0.273l-0.137,0.13l-0.267,0.137h-1.08"/>
		<path fill-opacity="0" stroke="#000000" stroke-linecap="round" stroke-linejoin="round" d="M314.82,87.104h1.757l-0.943,1.08
			h0.403l0.266,0.137l0.137,0.13l0.137,0.273v0.677l-0.137,0.267l-0.137,0.137l-0.266,0.137h-0.814l-0.266-0.137l-0.137-0.137"/>
		<path fill-opacity="0" stroke="#000000" stroke-linecap="round" stroke-linejoin="round" d="M283.954,79.257l-1.354,0.95"/>
		<path fill-opacity="0" stroke="#000000" stroke-linecap="round" stroke-linejoin="round" d="M283.954,80.876h-2.836v-1.08
			l0.137-0.267l0.129-0.137l0.273-0.137h0.403l0.274,0.137l0.129,0.137l0.137,0.267v1.08"/>
		<path fill-opacity="0" stroke="#000000" stroke-linecap="round" stroke-linejoin="round" d="M283.954,78.047h-2.836"/>
		<path fill-opacity="0" stroke="#000000" stroke-linecap="round" stroke-linejoin="round" d="M283.954,76.427l-1.62,1.217"/>
		<path fill-opacity="0" stroke="#000000" stroke-linecap="round" stroke-linejoin="round" d="M281.117,76.427l1.62,1.62"/>
		<path fill-opacity="0" stroke="#000000" stroke-linecap="round" stroke-linejoin="round" d="M281.117,74.67v-0.267l0.137-0.273
			l0.129-0.137l0.273-0.13l0.54-0.137h0.677l0.54,0.137l0.267,0.13l0.137,0.137l0.137,0.273v0.267l-0.137,0.273l-0.137,0.129
			l-0.267,0.137l-0.54,0.137h-0.677l-0.54-0.137l-0.273-0.137l-0.129-0.129L281.117,74.67"/>
		<path fill-opacity="0" stroke="#000000" stroke-linecap="round" stroke-linejoin="round" d="M283.954,72.374v-0.54l-0.137-0.267
			l-0.137-0.137l-0.403-0.266l-0.54-0.137h-1.08l-0.273,0.137l-0.129,0.129l-0.137,0.273v0.54l0.137,0.267l0.129,0.137l0.273,0.137
			h0.677l0.266-0.137l0.137-0.137l0.137-0.267v-0.54l-0.137-0.273l-0.137-0.129l-0.266-0.137"/>
		<path fill-opacity="0" stroke="#000000" stroke-linecap="round" stroke-linejoin="round" d="M283.954,69.81h-2.836"/>
		<path fill-opacity="0" stroke="#000000" stroke-linecap="round" stroke-linejoin="round" d="M283.954,68.19l-1.62,1.217"/>
		<path fill-opacity="0" stroke="#000000" stroke-linecap="round" stroke-linejoin="round" d="M281.117,68.19l1.62,1.62"/>
		<path fill-opacity="0" stroke="#000000" stroke-linecap="round" stroke-linejoin="round" d="M283.954,65.49v1.62"/>
		<path fill-opacity="0" stroke="#000000" stroke-linecap="round" stroke-linejoin="round" d="M283.954,66.304h-2.836l0.403,0.267
			l0.274,0.273l0.129,0.267"/>
		<path fill-opacity="0" stroke="#000000" stroke-linecap="round" stroke-linejoin="round" d="M283.954,62.79v1.62"/>
		<path fill-opacity="0" stroke="#000000" stroke-linecap="round" stroke-linejoin="round" d="M283.954,63.604h-2.836l0.403,0.266
			l0.274,0.274l0.129,0.266"/>
		<path fill-opacity="0" stroke="#000000" stroke-linecap="round" stroke-linejoin="round" d="M281.117,61.847V60.09l1.08,0.95
			v-0.41l0.137-0.267l0.129-0.137l0.273-0.137h0.677l0.267,0.137l0.137,0.137l0.137,0.267v0.813l-0.137,0.267l-0.137,0.137"/>
		<path fill-opacity="0" stroke="#000000" stroke-linecap="round" stroke-linejoin="round" d="M281.117,58.341v-0.274l0.137-0.266
			l0.129-0.137l0.273-0.137l0.54-0.137h0.677l0.54,0.137l0.267,0.137l0.137,0.137l0.137,0.266v0.274l-0.137,0.266l-0.137,0.137
			l-0.267,0.137l-0.54,0.129h-0.677l-0.54-0.129l-0.273-0.137l-0.129-0.137L281.117,58.341"/>
		<path fill-opacity="0" stroke="#000000" stroke-linecap="round" stroke-linejoin="round" d="M282.463,55.23l0.137-0.403
			l0.137-0.137l0.267-0.13h0.41l0.267,0.13l0.137,0.137l0.137,0.273v1.08h-2.836v-0.95l0.137-0.267l0.129-0.137l0.273-0.137h0.267
			l0.273,0.137l0.137,0.137L282.463,55.23v0.95"/>
		<path fill-opacity="0" stroke="#000000" stroke-linecap="round" stroke-linejoin="round" d="M283.954,53.344h-2.836l2.023-0.943
			l-2.023-0.951h2.836"/>
		<path fill-opacity="0" stroke="#000000" stroke-linecap="round" stroke-linejoin="round" d="M282.06,48.887h1.894"/>
		<path fill-opacity="0" stroke="#000000" stroke-linecap="round" stroke-linejoin="round" d="M280.98,49.564l2.023,0.677v-1.757"/>
		<path fill-opacity="0" stroke="#000000" stroke-linecap="round" stroke-linejoin="round" d="M256.277,89.941l-0.943-1.354"/>
		<path fill-opacity="0" stroke="#000000" stroke-linecap="round" stroke-linejoin="round" d="M254.657,89.941v-2.837h1.08
			l0.267,0.137l0.137,0.13l0.137,0.273v0.403l-0.137,0.273l-0.137,0.13l-0.267,0.137h-1.08"/>
		<path fill-opacity="0" stroke="#000000" stroke-linecap="round" stroke-linejoin="round" d="M257.357,87.371l0.137-0.13
			l0.267-0.137h0.677l0.267,0.137l0.137,0.13l0.137,0.273v0.267l-0.137,0.41l-1.62,1.62h1.757"/>
		<path fill-opacity="0" stroke="#000000" stroke-linecap="round" stroke-linejoin="round" d="M227.794,79.336l-1.354,0.95"/>
		<path fill-opacity="0" stroke="#000000" stroke-linecap="round" stroke-linejoin="round" d="M227.794,80.956h-2.837v-1.08
			l0.137-0.267l0.13-0.137l0.273-0.137h0.403l0.273,0.137l0.129,0.137l0.137,0.267v1.08"/>
		<path fill-opacity="0" stroke="#000000" stroke-linecap="round" stroke-linejoin="round" d="M227.794,78.126h-2.837"/>
		<path fill-opacity="0" stroke="#000000" stroke-linecap="round" stroke-linejoin="round" d="M227.794,76.506l-1.62,1.217"/>
		<path fill-opacity="0" stroke="#000000" stroke-linecap="round" stroke-linejoin="round" d="M224.957,76.506l1.62,1.62"/>
		<path fill-opacity="0" stroke="#000000" stroke-linecap="round" stroke-linejoin="round" d="M224.957,74.75v-0.267l0.137-0.273
			l0.13-0.137l0.273-0.13l0.54-0.137h0.677l0.54,0.137l0.266,0.13l0.137,0.137l0.137,0.273v0.267l-0.137,0.273l-0.137,0.13
			l-0.266,0.137l-0.54,0.137h-0.677l-0.54-0.137l-0.273-0.137l-0.13-0.13L224.957,74.75"/>
		<path fill-opacity="0" stroke="#000000" stroke-linecap="round" stroke-linejoin="round" d="M227.794,72.453v-0.54l-0.137-0.266
			l-0.137-0.137l-0.403-0.266l-0.54-0.137h-1.08l-0.273,0.137l-0.13,0.129l-0.137,0.274v0.54l0.137,0.266l0.13,0.137l0.273,0.137
			h0.677l0.267-0.137l0.137-0.137l0.137-0.266v-0.54l-0.137-0.274l-0.137-0.129l-0.267-0.137"/>
		<path fill-opacity="0" stroke="#000000" stroke-linecap="round" stroke-linejoin="round" d="M227.794,69.89h-2.837"/>
		<path fill-opacity="0" stroke="#000000" stroke-linecap="round" stroke-linejoin="round" d="M227.794,68.27l-1.62,1.217"/>
		<path fill-opacity="0" stroke="#000000" stroke-linecap="round" stroke-linejoin="round" d="M224.957,68.27l1.62,1.62"/>
		<path fill-opacity="0" stroke="#000000" stroke-linecap="round" stroke-linejoin="round" d="M227.794,65.569v1.62"/>
		<path fill-opacity="0" stroke="#000000" stroke-linecap="round" stroke-linejoin="round" d="M227.794,66.383h-2.837l0.403,0.267
			l0.273,0.273l0.13,0.267"/>
		<path fill-opacity="0" stroke="#000000" stroke-linecap="round" stroke-linejoin="round" d="M227.794,62.87v1.62"/>
		<path fill-opacity="0" stroke="#000000" stroke-linecap="round" stroke-linejoin="round" d="M227.794,63.683h-2.837l0.403,0.266
			l0.273,0.274l0.13,0.266"/>
		<path fill-opacity="0" stroke="#000000" stroke-linecap="round" stroke-linejoin="round" d="M224.957,61.926v-1.757l1.08,0.951
			v-0.411l0.137-0.267l0.129-0.137l0.274-0.137h0.677l0.266,0.137l0.137,0.137l0.137,0.267v0.813l-0.137,0.267l-0.137,0.137"/>
		<path fill-opacity="0" stroke="#000000" stroke-linecap="round" stroke-linejoin="round" d="M224.957,58.42v-0.273l0.137-0.267
			l0.13-0.137l0.273-0.137l0.54-0.137h0.677l0.54,0.137l0.266,0.137l0.137,0.137l0.137,0.267v0.273l-0.137,0.267l-0.137,0.137
			l-0.266,0.137l-0.54,0.129h-0.677l-0.54-0.129l-0.273-0.137l-0.13-0.137L224.957,58.42"/>
		<path fill-opacity="0" stroke="#000000" stroke-linecap="round" stroke-linejoin="round" d="M226.303,55.31l0.137-0.403
			l0.137-0.137l0.266-0.13h0.411l0.266,0.13l0.137,0.137l0.137,0.273v1.08h-2.837v-0.95l0.137-0.267l0.13-0.137l0.273-0.137h0.267
			l0.273,0.137l0.137,0.137L226.303,55.31v0.95"/>
		<path fill-opacity="0" stroke="#000000" stroke-linecap="round" stroke-linejoin="round" d="M227.794,53.423h-2.837l2.023-0.943
			l-2.023-0.951h2.837"/>
		<path fill-opacity="0" stroke="#000000" stroke-linecap="round" stroke-linejoin="round" d="M225.9,48.966h1.894"/>
		<path fill-opacity="0" stroke="#000000" stroke-linecap="round" stroke-linejoin="round" d="M224.82,49.643l2.023,0.677v-1.757"/>
		<path fill-opacity="0" stroke="#000000" stroke-linecap="round" stroke-linejoin="round" d="M202.277,89.941l-0.943-1.354"/>
		<path fill-opacity="0" stroke="#000000" stroke-linecap="round" stroke-linejoin="round" d="M200.657,89.941v-2.837h1.08
			l0.266,0.137l0.137,0.13l0.137,0.273v0.403l-0.137,0.273l-0.137,0.13l-0.266,0.137h-1.08"/>
		<path fill-opacity="0" stroke="#000000" stroke-linecap="round" stroke-linejoin="round" d="M204.977,89.941h-1.62"/>
		<path fill-opacity="0" stroke="#000000" stroke-linecap="round" stroke-linejoin="round" d="M204.164,89.941v-2.837l-0.267,0.403
			l-0.273,0.273l-0.267,0.13"/>
		<path fill-opacity="0" stroke="#000000" stroke-linecap="round" stroke-linejoin="round" d="M172.354,79.336L171,80.286"/>
		<path fill-opacity="0" stroke="#000000" stroke-linecap="round" stroke-linejoin="round" d="M172.354,80.956h-2.837v-1.08
			l0.137-0.267l0.13-0.137l0.273-0.137h0.403l0.273,0.137l0.129,0.137L171,79.876v1.08"/>
		<path fill-opacity="0" stroke="#000000" stroke-linecap="round" stroke-linejoin="round" d="M172.354,78.126h-2.837"/>
		<path fill-opacity="0" stroke="#000000" stroke-linecap="round" stroke-linejoin="round" d="M172.354,76.506l-1.62,1.217"/>
		<path fill-opacity="0" stroke="#000000" stroke-linecap="round" stroke-linejoin="round" d="M169.517,76.506l1.62,1.62"/>
		<path fill-opacity="0" stroke="#000000" stroke-linecap="round" stroke-linejoin="round" d="M169.517,74.75v-0.267l0.137-0.273
			l0.13-0.137l0.273-0.13l0.54-0.137h0.677l0.54,0.137l0.266,0.13l0.137,0.137l0.137,0.273v0.267l-0.137,0.273l-0.137,0.13
			l-0.266,0.137l-0.54,0.137h-0.677l-0.54-0.137l-0.273-0.137l-0.13-0.13L169.517,74.75"/>
		<path fill-opacity="0" stroke="#000000" stroke-linecap="round" stroke-linejoin="round" d="M172.354,72.453v-0.54l-0.137-0.266
			l-0.137-0.137l-0.403-0.266l-0.54-0.137h-1.08l-0.273,0.137l-0.13,0.129l-0.137,0.274v0.54l0.137,0.266l0.13,0.137l0.273,0.137
			h0.677L171,72.589l0.137-0.137l0.137-0.266v-0.54l-0.137-0.274L171,71.243l-0.267-0.137"/>
		<path fill-opacity="0" stroke="#000000" stroke-linecap="round" stroke-linejoin="round" d="M172.354,69.89h-2.837"/>
		<path fill-opacity="0" stroke="#000000" stroke-linecap="round" stroke-linejoin="round" d="M172.354,68.27l-1.62,1.217"/>
		<path fill-opacity="0" stroke="#000000" stroke-linecap="round" stroke-linejoin="round" d="M169.517,68.27l1.62,1.62"/>
		<path fill-opacity="0" stroke="#000000" stroke-linecap="round" stroke-linejoin="round" d="M172.354,65.569v1.62"/>
		<path fill-opacity="0" stroke="#000000" stroke-linecap="round" stroke-linejoin="round" d="M172.354,66.383h-2.837l0.403,0.267
			l0.273,0.273l0.13,0.267"/>
		<path fill-opacity="0" stroke="#000000" stroke-linecap="round" stroke-linejoin="round" d="M172.354,62.87v1.62"/>
		<path fill-opacity="0" stroke="#000000" stroke-linecap="round" stroke-linejoin="round" d="M172.354,63.683h-2.837l0.403,0.266
			l0.273,0.274l0.13,0.266"/>
		<path fill-opacity="0" stroke="#000000" stroke-linecap="round" stroke-linejoin="round" d="M169.517,61.926v-1.757l1.08,0.951
			v-0.411l0.137-0.267l0.129-0.137l0.274-0.137h0.677l0.266,0.137l0.137,0.137l0.137,0.267v0.813l-0.137,0.267l-0.137,0.137"/>
		<path fill-opacity="0" stroke="#000000" stroke-linecap="round" stroke-linejoin="round" d="M169.517,58.42v-0.273l0.137-0.267
			l0.13-0.137l0.273-0.137l0.54-0.137h0.677l0.54,0.137l0.266,0.137l0.137,0.137l0.137,0.267v0.273l-0.137,0.267l-0.137,0.137
			l-0.266,0.137l-0.54,0.129h-0.677l-0.54-0.129l-0.273-0.137l-0.13-0.137L169.517,58.42"/>
		<path fill-opacity="0" stroke="#000000" stroke-linecap="round" stroke-linejoin="round" d="M170.863,55.31L171,54.906
			l0.137-0.137l0.266-0.13h0.411l0.266,0.13l0.137,0.137l0.137,0.273v1.08h-2.837v-0.95l0.137-0.267l0.13-0.137l0.273-0.137h0.267
			l0.273,0.137l0.137,0.137L170.863,55.31v0.95"/>
		<path fill-opacity="0" stroke="#000000" stroke-linecap="round" stroke-linejoin="round" d="M172.354,53.423h-2.837l2.023-0.943
			l-2.023-0.951h2.837"/>
		<path fill-opacity="0" stroke="#000000" stroke-linecap="round" stroke-linejoin="round" d="M170.46,48.966h1.894"/>
		<path fill-opacity="0" stroke="#000000" stroke-linecap="round" stroke-linejoin="round" d="M169.38,49.643l2.023,0.677v-1.757"/>
		<path fill-opacity="0" stroke="#000000" stroke-linecap="round" stroke-linejoin="round" d="M148.277,89.941l-0.943-1.354"/>
		<path fill-opacity="0" stroke="#000000" stroke-linecap="round" stroke-linejoin="round" d="M146.657,89.941v-2.837h1.08
			l0.266,0.137l0.137,0.13l0.137,0.273v0.403l-0.137,0.273l-0.137,0.13l-0.266,0.137h-1.08"/>
		<path fill-opacity="0" stroke="#000000" stroke-linecap="round" stroke-linejoin="round" d="M150.034,87.104h0.267l0.273,0.137
			l0.13,0.13l0.137,0.273l0.137,0.54v0.677l-0.137,0.54l-0.137,0.267l-0.13,0.137l-0.273,0.137h-0.267l-0.273-0.137l-0.137-0.137
			l-0.129-0.267l-0.137-0.54v-0.677l0.137-0.54l0.129-0.273l0.137-0.13L150.034,87.104"/>
		<path fill-opacity="0" stroke="#000000" stroke-linecap="round" stroke-linejoin="round" d="M116.914,79.336l-1.354,0.95"/>
		<path fill-opacity="0" stroke="#000000" stroke-linecap="round" stroke-linejoin="round" d="M116.914,80.956h-2.837v-1.08
			l0.137-0.267l0.13-0.137l0.273-0.137h0.403l0.273,0.137l0.129,0.137l0.137,0.267v1.08"/>
		<path fill-opacity="0" stroke="#000000" stroke-linecap="round" stroke-linejoin="round" d="M116.914,78.126h-2.837"/>
		<path fill-opacity="0" stroke="#000000" stroke-linecap="round" stroke-linejoin="round" d="M116.914,76.506l-1.62,1.217"/>
		<path fill-opacity="0" stroke="#000000" stroke-linecap="round" stroke-linejoin="round" d="M114.077,76.506l1.62,1.62"/>
		<path fill-opacity="0" stroke="#000000" stroke-linecap="round" stroke-linejoin="round" d="M114.077,74.75v-0.267l0.137-0.273
			l0.13-0.137l0.273-0.13l0.54-0.137h0.677l0.54,0.137l0.266,0.13l0.137,0.137l0.137,0.273v0.267l-0.137,0.273l-0.137,0.13
			l-0.266,0.137l-0.54,0.137h-0.677l-0.54-0.137l-0.273-0.137l-0.13-0.13L114.077,74.75"/>
		<path fill-opacity="0" stroke="#000000" stroke-linecap="round" stroke-linejoin="round" d="M116.914,72.453v-0.54l-0.137-0.266
			l-0.137-0.137l-0.403-0.266l-0.54-0.137h-1.08l-0.273,0.137l-0.13,0.129l-0.137,0.274v0.54l0.137,0.266l0.13,0.137l0.273,0.137
			h0.677l0.267-0.137l0.137-0.137l0.137-0.266v-0.54l-0.137-0.274l-0.137-0.129l-0.267-0.137"/>
		<path fill-opacity="0" stroke="#000000" stroke-linecap="round" stroke-linejoin="round" d="M116.914,69.89h-2.837"/>
		<path fill-opacity="0" stroke="#000000" stroke-linecap="round" stroke-linejoin="round" d="M116.914,68.27l-1.62,1.217"/>
		<path fill-opacity="0" stroke="#000000" stroke-linecap="round" stroke-linejoin="round" d="M114.077,68.27l1.62,1.62"/>
		<path fill-opacity="0" stroke="#000000" stroke-linecap="round" stroke-linejoin="round" d="M116.914,65.569v1.62"/>
		<path fill-opacity="0" stroke="#000000" stroke-linecap="round" stroke-linejoin="round" d="M116.914,66.383h-2.837l0.403,0.267
			l0.273,0.273l0.13,0.267"/>
		<path fill-opacity="0" stroke="#000000" stroke-linecap="round" stroke-linejoin="round" d="M116.914,62.87v1.62"/>
		<path fill-opacity="0" stroke="#000000" stroke-linecap="round" stroke-linejoin="round" d="M116.914,63.683h-2.837l0.403,0.266
			l0.273,0.274l0.13,0.266"/>
		<path fill-opacity="0" stroke="#000000" stroke-linecap="round" stroke-linejoin="round" d="M114.077,61.926v-1.757l1.08,0.951
			v-0.411l0.137-0.267l0.129-0.137l0.274-0.137h0.677l0.266,0.137l0.137,0.137l0.137,0.267v0.813l-0.137,0.267l-0.137,0.137"/>
		<path fill-opacity="0" stroke="#000000" stroke-linecap="round" stroke-linejoin="round" d="M114.077,58.42v-0.273l0.137-0.267
			l0.13-0.137l0.273-0.137l0.54-0.137h0.677l0.54,0.137l0.266,0.137l0.137,0.137l0.137,0.267v0.273l-0.137,0.267l-0.137,0.137
			l-0.266,0.137l-0.54,0.129h-0.677l-0.54-0.129l-0.273-0.137l-0.13-0.137L114.077,58.42"/>
		<path fill-opacity="0" stroke="#000000" stroke-linecap="round" stroke-linejoin="round" d="M115.423,55.31l0.137-0.403
			l0.137-0.137l0.266-0.13h0.411l0.266,0.13l0.137,0.137l0.137,0.273v1.08h-2.837v-0.95l0.137-0.267l0.13-0.137l0.273-0.137h0.267
			l0.273,0.137l0.137,0.137L115.423,55.31v0.95"/>
		<path fill-opacity="0" stroke="#000000" stroke-linecap="round" stroke-linejoin="round" d="M116.914,53.423h-2.837l2.023-0.943
			l-2.023-0.951h2.837"/>
		<path fill-opacity="0" stroke="#000000" stroke-linecap="round" stroke-linejoin="round" d="M115.021,48.966h1.894"/>
		<path fill-opacity="0" stroke="#000000" stroke-linecap="round" stroke-linejoin="round" d="M113.94,49.643l2.023,0.677v-1.757"/>
		<path fill-opacity="0" stroke="#000000" stroke-linecap="round" stroke-linejoin="round" d="M376.481,78.364l-0.065,0.065
			l-0.202,0.072h-0.137l-0.202-0.072l-0.137-0.137l-0.065-0.13l-0.072-0.273v-0.202l0.072-0.266l0.065-0.137l0.137-0.137
			l0.202-0.065h0.137l0.202,0.065l0.065,0.065"/>
		<path fill-opacity="0" stroke="#000000" stroke-linecap="round" stroke-linejoin="round" d="M377.021,78.429l0.202,0.072h0.338
			l0.137-0.072l0.065-0.065l0.072-0.137V78.09l-0.072-0.13l-0.065-0.072l-0.137-0.065l-0.267-0.072l-0.137-0.065l-0.065-0.065
			l-0.072-0.137v-0.137l0.072-0.137l0.065-0.065l0.137-0.065h0.338l0.202,0.065"/>
		<path fill-opacity="0" stroke="#000000" stroke-linecap="round" stroke-linejoin="round" d="M378.101,78.63h1.08"/>
		<path fill-opacity="0" stroke="#000000" stroke-linecap="round" stroke-linejoin="round" d="M379.793,77.082h0.129l0.137,0.065
			l0.065,0.065l0.072,0.137l0.064,0.273v0.338l-0.064,0.267l-0.072,0.137l-0.065,0.065l-0.137,0.072h-0.129l-0.137-0.072
			l-0.072-0.065l-0.065-0.137l-0.064-0.267v-0.338l0.064-0.273l0.065-0.137l0.072-0.065L379.793,77.082"/>
		<path fill-opacity="0" stroke="#000000" stroke-linecap="round" stroke-linejoin="round" d="M380.535,78.63h1.08"/>
		<path fill-opacity="0" stroke="#000000" stroke-linecap="round" stroke-linejoin="round" d="M381.816,77.082h0.943l-0.605,1.418"
			/>
		<path fill-opacity="0" stroke="#000000" stroke-linecap="round" stroke-linejoin="round" d="M372.154,100.029l0.202,0.072h0.338
			l0.129-0.072l0.072-0.065l0.064-0.137V99.69l-0.064-0.13l-0.072-0.072l-0.129-0.065l-0.274-0.072l-0.137-0.064l-0.065-0.065
			l-0.064-0.137v-0.137l0.064-0.137l0.065-0.065l0.137-0.065h0.338l0.202,0.065"/>
		<path fill-opacity="0" stroke="#000000" stroke-linecap="round" stroke-linejoin="round" d="M373.572,100.101v-1.418h0.54
			l0.129,0.065l0.072,0.065l0.065,0.137v0.202l-0.065,0.137l-0.072,0.064l-0.129,0.072h-0.54"/>
		<path fill-opacity="0" stroke="#000000" stroke-linecap="round" stroke-linejoin="round" d="M374.983,100.101v-1.418"/>
		<path fill-opacity="0" stroke="#000000" stroke-linecap="round" stroke-linejoin="round" d="M375.322,100.23h1.08"/>
		<path fill-opacity="0" stroke="#000000" stroke-linecap="round" stroke-linejoin="round" d="M377.554,99.964l-0.072,0.065
			l-0.202,0.072h-0.137l-0.201-0.072l-0.13-0.137l-0.072-0.129l-0.065-0.273v-0.202l0.065-0.267l0.072-0.137l0.13-0.137l0.201-0.065
			h0.137l0.202,0.065l0.072,0.065"/>
		<path fill-opacity="0" stroke="#000000" stroke-linecap="round" stroke-linejoin="round" d="M378.835,100.101h-0.677v-1.418"/>
		<path fill-opacity="0" stroke="#000000" stroke-linecap="round" stroke-linejoin="round" d="M379.303,100.101v-1.418"/>
		<path fill-opacity="0" stroke="#000000" stroke-linecap="round" stroke-linejoin="round" d="M380.117,100.101l-0.612-0.813"/>
		<path fill-opacity="0" stroke="#000000" stroke-linecap="round" stroke-linejoin="round" d="M380.117,98.682l-0.813,0.807"/>
		<path fill-opacity="0" stroke="#000000" stroke-linecap="round" stroke-linejoin="round" d="M380.383,100.23h1.08"/>
		<path fill-opacity="0" stroke="#000000" stroke-linecap="round" stroke-linejoin="round" d="M382.075,98.682h0.13l0.137,0.065
			l0.072,0.065l0.065,0.137l0.065,0.273v0.338l-0.065,0.267l-0.065,0.137l-0.072,0.065l-0.137,0.072h-0.13l-0.137-0.072
			l-0.065-0.065l-0.072-0.137l-0.065-0.267v-0.338l0.065-0.273l0.072-0.137l0.065-0.065L382.075,98.682"/>
		<path fill-opacity="0" stroke="#000000" stroke-linecap="round" stroke-linejoin="round" d="M371.578,92.829l0.202,0.072h0.338
			l0.137-0.072l0.065-0.065l0.072-0.137V92.49l-0.072-0.129l-0.065-0.072l-0.137-0.065l-0.267-0.072l-0.137-0.065l-0.072-0.064
			l-0.065-0.137v-0.137l0.065-0.137l0.072-0.065l0.137-0.064h0.332l0.208,0.064"/>
		<path fill-opacity="0" stroke="#000000" stroke-linecap="round" stroke-linejoin="round" d="M372.996,92.9v-1.418h0.54
			l0.137,0.064l0.065,0.065l0.064,0.137v0.202l-0.064,0.137l-0.065,0.065l-0.137,0.072h-0.54"/>
		<path fill-opacity="0" stroke="#000000" stroke-linecap="round" stroke-linejoin="round" d="M374.415,92.9v-1.418"/>
		<path fill-opacity="0" stroke="#000000" stroke-linecap="round" stroke-linejoin="round" d="M374.753,93.03h1.08"/>
		<path fill-opacity="0" stroke="#000000" stroke-linecap="round" stroke-linejoin="round" d="M376.164,92.9v-1.418l0.475,1.008
			l0.476-1.008V92.9"/>
		<path fill-opacity="0" stroke="#000000" stroke-linecap="round" stroke-linejoin="round" d="M377.784,92.9v-1.418"/>
		<path fill-opacity="0" stroke="#000000" stroke-linecap="round" stroke-linejoin="round" d="M378.396,92.829l0.202,0.072h0.338
			l0.137-0.072l0.065-0.065l0.065-0.137V92.49l-0.065-0.129l-0.065-0.072l-0.137-0.065l-0.273-0.072l-0.13-0.065l-0.072-0.064
			l-0.065-0.137v-0.137l0.065-0.137l0.072-0.065l0.13-0.064h0.338l0.202,0.064"/>
		<path fill-opacity="0" stroke="#000000" stroke-linecap="round" stroke-linejoin="round" d="M380.081,91.482h0.273l0.129,0.064
			l0.137,0.137l0.072,0.267v0.475l-0.072,0.267l-0.137,0.137l-0.129,0.072h-0.273l-0.137-0.072l-0.129-0.137l-0.072-0.267V91.95
			l0.072-0.267l0.129-0.137L380.081,91.482"/>
		<path fill-opacity="0" stroke="#000000" stroke-linecap="round" stroke-linejoin="round" d="M380.959,93.03h1.08"/>
		<path fill-opacity="0" stroke="#000000" stroke-linecap="round" stroke-linejoin="round" d="M382.644,91.482h0.137l0.137,0.064
			l0.065,0.065l0.072,0.137l0.064,0.274v0.338l-0.064,0.266l-0.072,0.137l-0.065,0.065l-0.137,0.072h-0.137l-0.129-0.072
			l-0.072-0.065l-0.065-0.137l-0.072-0.266v-0.338l0.072-0.274l0.065-0.137l0.072-0.065L382.644,91.482"/>
		<path fill-opacity="0" stroke="#000000" stroke-linecap="round" stroke-linejoin="round" d="M371.578,85.629l0.202,0.072h0.338
			l0.137-0.072l0.065-0.065l0.072-0.137V85.29l-0.072-0.129l-0.065-0.072l-0.137-0.065l-0.267-0.072l-0.137-0.064l-0.072-0.065
			l-0.065-0.137v-0.137l0.065-0.137l0.072-0.065l0.137-0.065h0.332l0.208,0.065"/>
		<path fill-opacity="0" stroke="#000000" stroke-linecap="round" stroke-linejoin="round" d="M372.996,85.701v-1.418h0.54
			l0.137,0.065l0.065,0.065l0.064,0.137v0.201l-0.064,0.137l-0.065,0.064l-0.137,0.072h-0.54"/>
		<path fill-opacity="0" stroke="#000000" stroke-linecap="round" stroke-linejoin="round" d="M374.415,85.701v-1.418"/>
		<path fill-opacity="0" stroke="#000000" stroke-linecap="round" stroke-linejoin="round" d="M374.753,85.83h1.08"/>
		<path fill-opacity="0" stroke="#000000" stroke-linecap="round" stroke-linejoin="round" d="M376.164,85.701v-1.418l0.475,1.008
			l0.476-1.008v1.418"/>
		<path fill-opacity="0" stroke="#000000" stroke-linecap="round" stroke-linejoin="round" d="M378.058,84.282h0.267l0.137,0.065
			l0.137,0.137l0.065,0.266v0.476l-0.065,0.266l-0.137,0.137l-0.137,0.072h-0.267l-0.137-0.072l-0.137-0.137l-0.065-0.266V84.75
			l0.065-0.266l0.137-0.137L378.058,84.282"/>
		<path fill-opacity="0" stroke="#000000" stroke-linecap="round" stroke-linejoin="round" d="M379.203,85.629l0.202,0.072h0.338
			l0.137-0.072l0.064-0.065l0.072-0.137V85.29l-0.072-0.129l-0.064-0.072l-0.137-0.065l-0.267-0.072l-0.137-0.064l-0.065-0.065
			l-0.072-0.137v-0.137l0.072-0.137l0.065-0.065l0.137-0.065h0.338l0.202,0.065"/>
		<path fill-opacity="0" stroke="#000000" stroke-linecap="round" stroke-linejoin="round" d="M380.621,85.701v-1.418"/>
		<path fill-opacity="0" stroke="#000000" stroke-linecap="round" stroke-linejoin="round" d="M380.959,85.83h1.08"/>
		<path fill-opacity="0" stroke="#000000" stroke-linecap="round" stroke-linejoin="round" d="M382.644,84.282h0.137l0.137,0.065
			l0.065,0.065l0.072,0.137l0.064,0.273v0.338l-0.064,0.267l-0.072,0.137l-0.065,0.065l-0.137,0.072h-0.137l-0.129-0.072
			l-0.072-0.065l-0.065-0.137l-0.072-0.267v-0.338l0.072-0.273l0.065-0.137l0.072-0.065L382.644,84.282"/>
		<path fill-opacity="0" stroke="#000000" stroke-linecap="round" stroke-linejoin="round" d="M376.582,69.882l0.476,1.418
			l0.475-1.418"/>
		<path fill-opacity="0" stroke="#000000" stroke-linecap="round" stroke-linejoin="round" d="M378.813,71.164l-0.072,0.064
			l-0.202,0.072h-0.137l-0.202-0.072l-0.129-0.137L378,70.962l-0.065-0.274v-0.201L378,70.221l0.072-0.137l0.129-0.137l0.202-0.065
			h0.137l0.202,0.065l0.072,0.063"/>
		<path fill-opacity="0" stroke="#000000" stroke-linecap="round" stroke-linejoin="round" d="M380.225,71.164l-0.065,0.064
			l-0.202,0.072h-0.137l-0.202-0.072l-0.137-0.137l-0.065-0.129l-0.065-0.274v-0.201l0.065-0.267l0.065-0.137l0.137-0.137
			l0.202-0.065h0.137l0.202,0.065l0.065,0.064"/>
		<path fill-opacity="0" stroke="#000000" stroke-linecap="round" stroke-linejoin="round" d="M381.104,69.882h0.137l0.137,0.065
			l0.065,0.063l0.072,0.137l0.065,0.274v0.338l-0.065,0.266l-0.072,0.137l-0.065,0.064l-0.137,0.072h-0.137l-0.13-0.072
			l-0.072-0.064l-0.065-0.137l-0.072-0.266v-0.338l0.072-0.274l0.065-0.137l0.072-0.063L381.104,69.882"/>
		<circle fill-opacity="0" stroke="#000000" stroke-linecap="round" stroke-linejoin="round" cx="332.324" cy="57.67" r="6.48"/>
		<circle fill-opacity="0" stroke="#000000" stroke-linecap="round" stroke-linejoin="round" cx="549.174" cy="37.827" r="6.48"/>
		<circle fill-opacity="0" stroke="#000000" stroke-linecap="round" stroke-linejoin="round" cx="258.623" cy="37.827" r="6.48"/>
		<path fill-opacity="0" stroke="#000000" stroke-linecap="round" stroke-linejoin="round" d="M280.966,25.566v-1.98"/>
		<path fill-opacity="0" stroke="#000000" stroke-linecap="round" stroke-linejoin="round" d="M284.372,23.586v1.98"/>
		<path fill-opacity="0" stroke="#000000" stroke-linecap="round" stroke-linejoin="round" d="M273.542,34.631v-2.829"/>
		<path fill-opacity="0" stroke="#000000" stroke-linecap="round" stroke-linejoin="round" d="M277.395,31.802v2.829"/>
		<path fill-opacity="0" stroke="#000000" stroke-linecap="round" stroke-linejoin="round" d="M120.334,25.53h2.83"/>
		<path fill-opacity="0" stroke="#000000" stroke-linecap="round" stroke-linejoin="round" d="M123.164,29.382h-2.83"/>
		<path fill-opacity="0" stroke="#000000" stroke-linecap="round" stroke-linejoin="round" d="M231.934,25.53h2.83"/>
		<path fill-opacity="0" stroke="#000000" stroke-linecap="round" stroke-linejoin="round" d="M234.764,29.382h-2.83"/>
		<path fill-opacity="0" stroke="#000000" stroke-linecap="round" stroke-linejoin="round" d="M343.534,25.53h2.83"/>
		<path fill-opacity="0" stroke="#000000" stroke-linecap="round" stroke-linejoin="round" d="M346.363,29.382h-2.83"/>
		<path fill-opacity="0" stroke="#000000" stroke-linecap="round" stroke-linejoin="round" d="M455.134,25.53h2.83"/>
		<path fill-opacity="0" stroke="#000000" stroke-linecap="round" stroke-linejoin="round" d="M457.963,29.382h-2.83"/>
		<path fill-opacity="0" stroke="#000000" stroke-linecap="round" stroke-linejoin="round" d="M277.395,23.162v2.83"/>
		<path fill-opacity="0" stroke="#000000" stroke-linecap="round" stroke-linejoin="round" d="M273.542,25.991v-2.83"/>
		<path fill-opacity="0" stroke="#000000" stroke-linecap="round" stroke-linejoin="round" d="M120.334,18.33h2.83"/>
		<path fill-opacity="0" stroke="#000000" stroke-linecap="round" stroke-linejoin="round" d="M123.164,22.182h-2.83"/>
		<path fill-opacity="0" stroke="#000000" stroke-linecap="round" stroke-linejoin="round" d="M231.934,18.33h2.83"/>
		<path fill-opacity="0" stroke="#000000" stroke-linecap="round" stroke-linejoin="round" d="M234.764,22.182h-2.83"/>
		<path fill-opacity="0" stroke="#000000" stroke-linecap="round" stroke-linejoin="round" d="M343.534,18.33h2.83"/>
		<path fill-opacity="0" stroke="#000000" stroke-linecap="round" stroke-linejoin="round" d="M346.363,22.182h-2.83"/>
		<path fill-opacity="0" stroke="#000000" stroke-linecap="round" stroke-linejoin="round" d="M455.134,18.33h2.83"/>
		<path fill-opacity="0" stroke="#000000" stroke-linecap="round" stroke-linejoin="round" d="M457.963,22.182h-2.83"/>
		<path fill-opacity="0" stroke="#000000" stroke-linecap="round" stroke-linejoin="round" d="M280.743,34.631v-2.829"/>
		<path fill-opacity="0" stroke="#000000" stroke-linecap="round" stroke-linejoin="round" d="M284.595,31.802v2.829"/>
		<circle fill-opacity="0" stroke="#000000" stroke-linecap="round" stroke-linejoin="round" cx="341.352" cy="86.493" r="1.018"/>
		<path fill-opacity="0" stroke="#000000" stroke-linecap="round" stroke-linejoin="round" d="M339.552,88.653h-25.2"/>
		<path fill-opacity="0" stroke="#000000" stroke-linecap="round" stroke-linejoin="round" d="M343.152,92.252l-3.6-3.6"/>
		<path fill-opacity="0" stroke="#000000" stroke-linecap="round" stroke-linejoin="round" d="M292.349,39.419l2.837,2.837"/>
		<path fill-opacity="0" stroke="#000000" stroke-linecap="round" stroke-linejoin="round" d="M292.349,19.856v19.563"/>
		<path fill-opacity="0" stroke="#000000" stroke-linecap="round" stroke-linejoin="round" d="M295.186,42.256h26.762"/>
		<path fill-opacity="0" stroke="#000000" stroke-linecap="round" stroke-linejoin="round" d="M321.948,42.256v-22.4"/>
		<path fill-opacity="0" stroke="#000000" stroke-linecap="round" stroke-linejoin="round" d="M321.948,19.856h-29.599"/>
		<path fill-opacity="0" stroke="#000000" stroke-linecap="round" stroke-linejoin="round" d="M202.695,20.253v22.68"/>
		<path fill-opacity="0" stroke="#000000" stroke-linecap="round" stroke-linejoin="round" d="M129.759,42.933v-11.34"/>
		<path fill-opacity="0" stroke="#000000" stroke-linecap="round" stroke-linejoin="round" d="M216.864,45.453v-28.8"/>
		<path fill-opacity="0" stroke="#000000" stroke-linecap="round" stroke-linejoin="round" d="M109.152,16.653h107.712"/>
		<path fill-opacity="0" stroke="#000000" stroke-linecap="round" stroke-linejoin="round" d="M109.152,45.453h107.712"/>
		<path fill-opacity="0" stroke="#000000" stroke-linecap="round" stroke-linejoin="round" d="M109.152,38.253h7.2"/>
		<path fill-opacity="0" stroke="#000000" stroke-linecap="round" stroke-linejoin="round" d="M109.152,16.653v21.6"/>
		<path fill-opacity="0" stroke="#000000" stroke-linecap="round" stroke-linejoin="round" d="M116.353,16.653h-7.2"/>
		<path fill-opacity="0" stroke="#000000" stroke-linecap="round" stroke-linejoin="round" d="M116.353,45.453v-28.8"/>
		<path fill-opacity="0" stroke="#000000" stroke-linecap="round" stroke-linejoin="round" d="M109.152,45.453h7.2"/>
		<path fill-opacity="0" stroke="#000000" stroke-linecap="round" stroke-linejoin="round" d="M109.152,16.653v28.8"/>
		<path fill-opacity="0" stroke="#000000" stroke-linecap="round" stroke-linejoin="round" d="M314.294,20.253v22.68"/>
		<path fill-opacity="0" stroke="#000000" stroke-linecap="round" stroke-linejoin="round" d="M241.358,42.933v-11.34"/>
		<path fill-opacity="0" stroke="#000000" stroke-linecap="round" stroke-linejoin="round" d="M328.464,45.453v-28.8"/>
		<path fill-opacity="0" stroke="#000000" stroke-linecap="round" stroke-linejoin="round" d="M220.752,16.653h107.712"/>
		<path fill-opacity="0" stroke="#000000" stroke-linecap="round" stroke-linejoin="round" d="M220.752,45.453h107.712"/>
		<path fill-opacity="0" stroke="#000000" stroke-linecap="round" stroke-linejoin="round" d="M220.752,38.253h7.2"/>
		<path fill-opacity="0" stroke="#000000" stroke-linecap="round" stroke-linejoin="round" d="M220.752,16.653v21.6"/>
		<path fill-opacity="0" stroke="#000000" stroke-linecap="round" stroke-linejoin="round" d="M227.952,16.653h-7.2"/>
		<path fill-opacity="0" stroke="#000000" stroke-linecap="round" stroke-linejoin="round" d="M227.952,45.453v-28.8"/>
		<path fill-opacity="0" stroke="#000000" stroke-linecap="round" stroke-linejoin="round" d="M220.752,45.453h7.2"/>
		<path fill-opacity="0" stroke="#000000" stroke-linecap="round" stroke-linejoin="round" d="M220.752,16.653v28.8"/>
		<path fill-opacity="0" stroke="#000000" stroke-linecap="round" stroke-linejoin="round" d="M425.895,20.253v22.68"/>
		<path fill-opacity="0" stroke="#000000" stroke-linecap="round" stroke-linejoin="round" d="M352.958,42.933v-11.34"/>
		<path fill-opacity="0" stroke="#000000" stroke-linecap="round" stroke-linejoin="round" d="M440.064,45.453v-28.8"/>
		<path fill-opacity="0" stroke="#000000" stroke-linecap="round" stroke-linejoin="round" d="M332.352,16.653h107.712"/>
		<path fill-opacity="0" stroke="#000000" stroke-linecap="round" stroke-linejoin="round" d="M332.352,45.453h107.712"/>
		<path fill-opacity="0" stroke="#000000" stroke-linecap="round" stroke-linejoin="round" d="M332.352,38.253h7.2"/>
		<path fill-opacity="0" stroke="#000000" stroke-linecap="round" stroke-linejoin="round" d="M332.352,16.653v21.6"/>
		<path fill-opacity="0" stroke="#000000" stroke-linecap="round" stroke-linejoin="round" d="M339.552,16.653h-7.2"/>
		<path fill-opacity="0" stroke="#000000" stroke-linecap="round" stroke-linejoin="round" d="M339.552,45.453v-28.8"/>
		<path fill-opacity="0" stroke="#000000" stroke-linecap="round" stroke-linejoin="round" d="M332.352,45.453h7.2"/>
		<path fill-opacity="0" stroke="#000000" stroke-linecap="round" stroke-linejoin="round" d="M332.352,16.653v28.8"/>
		<path fill-opacity="0" stroke="#000000" stroke-linecap="round" stroke-linejoin="round" d="M537.494,20.253v22.68"/>
		<path fill-opacity="0" stroke="#000000" stroke-linecap="round" stroke-linejoin="round" d="M464.559,42.933v-11.34"/>
		<path fill-opacity="0" stroke="#000000" stroke-linecap="round" stroke-linejoin="round" d="M551.664,45.453v-28.8"/>
		<path fill-opacity="0" stroke="#000000" stroke-linecap="round" stroke-linejoin="round" d="M443.952,16.653h107.712"/>
		<path fill-opacity="0" stroke="#000000" stroke-linecap="round" stroke-linejoin="round" d="M443.952,45.453h107.712"/>
		<path fill-opacity="0" stroke="#000000" stroke-linecap="round" stroke-linejoin="round" d="M443.952,38.253h7.2"/>
		<path fill-opacity="0" stroke="#000000" stroke-linecap="round" stroke-linejoin="round" d="M443.952,16.653v21.6"/>
		<path fill-opacity="0" stroke="#000000" stroke-linecap="round" stroke-linejoin="round" d="M451.152,16.653h-7.2"/>
		<path fill-opacity="0" stroke="#000000" stroke-linecap="round" stroke-linejoin="round" d="M451.152,45.453v-28.8"/>
		<path fill-opacity="0" stroke="#000000" stroke-linecap="round" stroke-linejoin="round" d="M443.952,45.453h7.2"/>
		<path fill-opacity="0" stroke="#000000" stroke-linecap="round" stroke-linejoin="round" d="M443.952,16.653v28.8"/>
		<circle fill-opacity="0" stroke="#000000" stroke-linecap="round" stroke-linejoin="round" cx="524.951" cy="64.813" r="12.756"/>
		<path fill-opacity="0" stroke="#000000" stroke-linecap="round" stroke-linejoin="round" d="M510.775,86.089v-5.667"/>
		<path fill-opacity="0" stroke="#000000" stroke-linecap="round" stroke-linejoin="round" d="M539.121,86.089v-5.667"/>
		<path fill-opacity="0" stroke="#000000" stroke-linecap="round" stroke-linejoin="round" d="M510.775,81.841V46.403"/>
		<path fill-opacity="0" stroke="#000000" stroke-linecap="round" stroke-linejoin="round" d="M539.121,86.089h-28.346"/>
		<path fill-opacity="0" stroke="#000000" stroke-linecap="round" stroke-linejoin="round" d="M539.121,46.403v35.438"/>
		<path fill-opacity="0" stroke="#000000" stroke-linecap="round" stroke-linejoin="round" d="M510.775,46.403h28.346"/>
		<circle fill-opacity="0" stroke="#000000" stroke-linecap="round" stroke-linejoin="round" cx="469.152" cy="64.813" r="12.756"/>
		<path fill-opacity="0" stroke="#000000" stroke-linecap="round" stroke-linejoin="round" d="M454.975,86.089v-5.667"/>
		<path fill-opacity="0" stroke="#000000" stroke-linecap="round" stroke-linejoin="round" d="M483.322,86.089v-5.667"/>
		<path fill-opacity="0" stroke="#000000" stroke-linecap="round" stroke-linejoin="round" d="M454.975,81.841V46.403"/>
		<path fill-opacity="0" stroke="#000000" stroke-linecap="round" stroke-linejoin="round" d="M483.322,86.089h-28.35"/>
		<path fill-opacity="0" stroke="#000000" stroke-linecap="round" stroke-linejoin="round" d="M483.322,46.403v35.438"/>
		<path fill-opacity="0" stroke="#000000" stroke-linecap="round" stroke-linejoin="round" d="M454.975,46.403h28.35"/>
		<circle fill-opacity="0" stroke="#000000" stroke-linecap="round" stroke-linejoin="round" cx="413.352" cy="64.813" r="12.756"/>
		<path fill-opacity="0" stroke="#000000" stroke-linecap="round" stroke-linejoin="round" d="M399.175,86.089v-5.667"/>
		<path fill-opacity="0" stroke="#000000" stroke-linecap="round" stroke-linejoin="round" d="M427.521,86.089v-5.667"/>
		<path fill-opacity="0" stroke="#000000" stroke-linecap="round" stroke-linejoin="round" d="M399.175,81.841V46.403"/>
		<path fill-opacity="0" stroke="#000000" stroke-linecap="round" stroke-linejoin="round" d="M427.521,86.089h-28.349"/>
		<path fill-opacity="0" stroke="#000000" stroke-linecap="round" stroke-linejoin="round" d="M427.521,46.403v35.438"/>
		<path fill-opacity="0" stroke="#000000" stroke-linecap="round" stroke-linejoin="round" d="M399.175,46.403h28.347"/>
		<circle fill-opacity="0" stroke="#000000" stroke-linecap="round" stroke-linejoin="round" cx="357.552" cy="64.813" r="12.756"/>
		<path fill-opacity="0" stroke="#000000" stroke-linecap="round" stroke-linejoin="round" d="M343.375,86.089v-5.667"/>
		<path fill-opacity="0" stroke="#000000" stroke-linecap="round" stroke-linejoin="round" d="M371.722,86.089v-5.667"/>
		<path fill-opacity="0" stroke="#000000" stroke-linecap="round" stroke-linejoin="round" d="M343.375,81.841V46.403"/>
		<path fill-opacity="0" stroke="#000000" stroke-linecap="round" stroke-linejoin="round" d="M371.722,86.089h-28.346"/>
		<path fill-opacity="0" stroke="#000000" stroke-linecap="round" stroke-linejoin="round" d="M371.722,46.403v35.438"/>
		<path fill-opacity="0" stroke="#000000" stroke-linecap="round" stroke-linejoin="round" d="M343.375,46.403h28.346"/>
		<circle fill-opacity="0" stroke="#000000" stroke-linecap="round" stroke-linejoin="round" cx="301.752" cy="64.813" r="12.756"/>
		<path fill-opacity="0" stroke="#000000" stroke-linecap="round" stroke-linejoin="round" d="M287.575,86.089v-5.667"/>
		<path fill-opacity="0" stroke="#000000" stroke-linecap="round" stroke-linejoin="round" d="M315.922,86.089v-5.667"/>
		<path fill-opacity="0" stroke="#000000" stroke-linecap="round" stroke-linejoin="round" d="M287.575,81.841V46.403"/>
		<path fill-opacity="0" stroke="#000000" stroke-linecap="round" stroke-linejoin="round" d="M315.922,86.089h-28.347"/>
		<path fill-opacity="0" stroke="#000000" stroke-linecap="round" stroke-linejoin="round" d="M315.922,46.403v35.438"/>
		<path fill-opacity="0" stroke="#000000" stroke-linecap="round" stroke-linejoin="round" d="M287.575,46.403h28.347"/>
		<circle fill-opacity="0" stroke="#000000" stroke-linecap="round" stroke-linejoin="round" cx="245.952" cy="64.813" r="12.756"/>
		<path fill-opacity="0" stroke="#000000" stroke-linecap="round" stroke-linejoin="round" d="M231.775,86.089v-5.667"/>
		<path fill-opacity="0" stroke="#000000" stroke-linecap="round" stroke-linejoin="round" d="M260.122,86.089v-5.667"/>
		<path fill-opacity="0" stroke="#000000" stroke-linecap="round" stroke-linejoin="round" d="M231.775,81.841V46.403"/>
		<path fill-opacity="0" stroke="#000000" stroke-linecap="round" stroke-linejoin="round" d="M260.122,86.089h-28.346"/>
		<path fill-opacity="0" stroke="#000000" stroke-linecap="round" stroke-linejoin="round" d="M260.122,46.403v35.438"/>
		<path fill-opacity="0" stroke="#000000" stroke-linecap="round" stroke-linejoin="round" d="M231.775,46.403h28.346"/>
		<circle fill-opacity="0" stroke="#000000" stroke-linecap="round" stroke-linejoin="round" cx="190.152" cy="64.813" r="12.756"/>
		<path fill-opacity="0" stroke="#000000" stroke-linecap="round" stroke-linejoin="round" d="M175.976,86.089v-5.667"/>
		<path fill-opacity="0" stroke="#000000" stroke-linecap="round" stroke-linejoin="round" d="M204.322,86.089v-5.667"/>
		<path fill-opacity="0" stroke="#000000" stroke-linecap="round" stroke-linejoin="round" d="M175.976,81.841V46.403"/>
		<path fill-opacity="0" stroke="#000000" stroke-linecap="round" stroke-linejoin="round" d="M204.322,86.089h-28.346"/>
		<path fill-opacity="0" stroke="#000000" stroke-linecap="round" stroke-linejoin="round" d="M204.322,46.403v35.438"/>
		<path fill-opacity="0" stroke="#000000" stroke-linecap="round" stroke-linejoin="round" d="M175.976,46.403h28.346"/>
		<circle fill-opacity="0" stroke="#000000" stroke-linecap="round" stroke-linejoin="round" cx="134.353" cy="64.813" r="12.756"/>
		<path fill-opacity="0" stroke="#000000" stroke-linecap="round" stroke-linejoin="round" d="M120.176,86.089v-5.667"/>
		<path fill-opacity="0" stroke="#000000" stroke-linecap="round" stroke-linejoin="round" d="M148.522,86.089v-5.667"/>
		<path fill-opacity="0" stroke="#000000" stroke-linecap="round" stroke-linejoin="round" d="M120.176,81.841V46.403"/>
		<path fill-opacity="0" stroke="#000000" stroke-linecap="round" stroke-linejoin="round" d="M148.522,86.089h-28.346"/>
		<path fill-opacity="0" stroke="#000000" stroke-linecap="round" stroke-linejoin="round" d="M148.522,46.403v35.438"/>
		<path fill-opacity="0" stroke="#000000" stroke-linecap="round" stroke-linejoin="round" d="M120.176,46.403h28.346"/>
	</g>
</g>
<rect x="231.5" y="46.5" fill="none" stroke="#231F20" stroke-linecap="round" stroke-linejoin="round" width="29" height="40"/>
<rect x="287.5" y="46.5" fill="none" stroke="#231F20" stroke-linecap="round" stroke-linejoin="round" width="29" height="40"/>
<rect x="229.5" y="9.269" fill="none" stroke="#231F20" stroke-linecap="round" stroke-linejoin="round" width="91" height="79.995"/>
<rect x="229.5" y="16.5" display="none" fill="none" stroke="#231F20" stroke-linecap="round" stroke-linejoin="round" width="91" height="27"/>
<rect x="229.5" y="16.5" display="none" fill="none" stroke="#231F20" stroke-linecap="round" stroke-linejoin="round" width="91" height="2.835"/>
<rect x="229.5" y="40.665" display="none" fill="none" stroke="#231F20" stroke-linecap="round" stroke-linejoin="round" width="91" height="2.835"/>
<rect x="229.5" y="16.5" display="none" fill="none" stroke="#231F20" stroke-linecap="round" stroke-linejoin="round" width="2.834" height="27"/>
<rect x="317.666" y="16.5" display="none" fill="none" stroke="#231F20" stroke-linecap="round" stroke-linejoin="round" width="2.834" height="27"/>
<rect x="232.487" y="12.104" fill="#FFFFFF" stroke="#000000" stroke-miterlimit="10" width="85.179" height="35.433"/>
</svg>
