<?xml version="1.0" encoding="utf-8"?>
<!-- Generator: Adobe Illustrator 15.0.0, SVG Export Plug-In . SVG Version: 6.00 Build 0)  -->
<!DOCTYPE svg PUBLIC "-//W3C//DTD SVG 1.1//EN" "http://www.w3.org/Graphics/SVG/1.1/DTD/svg11.dtd">
<svg version="1.1" id="Layer_1" xmlns="http://www.w3.org/2000/svg" xmlns:xlink="http://www.w3.org/1999/xlink" x="0px" y="0px"
	 width="612px" height="792px" viewBox="0 0 612 792" enable-background="new 0 0 612 792" xml:space="preserve">
<rect x="24.783" y="274.456" fill="none" stroke="#010101" stroke-miterlimit="10" width="895.749" height="100.63"/>
<g>
	<path d="M384.411,244.417h1.044v3.898h0.036c0.216-0.312,0.432-0.6,0.636-0.864l2.471-3.034h1.295l-2.927,3.43l3.154,4.653h-1.235
		l-2.65-3.97l-0.779,0.887v3.083h-1.044V244.417z"/>
	<path d="M390.915,244.536c0.456-0.108,1.188-0.18,1.907-0.18c1.044,0,1.715,0.18,2.207,0.588c0.42,0.312,0.684,0.792,0.684,1.427
		c0,0.792-0.527,1.475-1.367,1.775v0.036c0.768,0.18,1.667,0.815,1.667,2.015c0,0.696-0.276,1.235-0.695,1.619
		c-0.552,0.516-1.464,0.755-2.783,0.755c-0.72,0-1.271-0.048-1.619-0.096V244.536z M391.959,247.847h0.947
		c1.092,0,1.739-0.588,1.739-1.367c0-0.936-0.708-1.319-1.763-1.319c-0.48,0-0.756,0.036-0.924,0.072V247.847z M391.959,251.708
		c0.216,0.036,0.504,0.048,0.875,0.048c1.08,0,2.075-0.396,2.075-1.571c0-1.091-0.947-1.559-2.087-1.559h-0.863V251.708z"/>
	<path d="M399.951,244.417h4.354v0.875h-3.298v2.687h3.046v0.863h-3.046v3.658h-1.056V244.417z"/>
	<path d="M405.46,248.506c0-0.684-0.013-1.271-0.049-1.811h0.924l0.048,1.151h0.036c0.264-0.78,0.911-1.271,1.619-1.271
		c0.108,0,0.192,0.012,0.288,0.024v0.996c-0.108-0.024-0.216-0.024-0.36-0.024c-0.743,0-1.271,0.552-1.415,1.343
		c-0.023,0.144-0.036,0.324-0.036,0.492v3.094h-1.055V248.506z"/>
	<path d="M414.517,249.55c0,2.146-1.499,3.082-2.891,3.082c-1.56,0-2.782-1.151-2.782-2.986c0-1.931,1.283-3.07,2.878-3.07
		C413.389,246.575,414.517,247.787,414.517,249.55z M409.923,249.609c0,1.271,0.72,2.231,1.751,2.231
		c1.008,0,1.763-0.947,1.763-2.255c0-0.983-0.491-2.219-1.738-2.219C410.463,247.367,409.923,248.518,409.923,249.609z"/>
	<path d="M415.852,248.266c0-0.611-0.013-1.091-0.049-1.571h0.936l0.061,0.959h0.023c0.288-0.54,0.96-1.08,1.919-1.08
		c0.804,0,2.051,0.48,2.051,2.471v3.454h-1.055v-3.346c0-0.936-0.349-1.715-1.344-1.715c-0.684,0-1.224,0.492-1.415,1.079
		c-0.048,0.132-0.072,0.312-0.072,0.492v3.49h-1.055V248.266z"/>
	<path d="M423.734,245.304v1.392h1.512v0.803h-1.512v3.13c0,0.72,0.204,1.127,0.792,1.127c0.288,0,0.456-0.024,0.611-0.072
		l0.048,0.803c-0.203,0.072-0.527,0.144-0.936,0.144c-0.491,0-0.887-0.168-1.139-0.444c-0.288-0.324-0.408-0.839-0.408-1.523v-3.167
		h-0.899v-0.803h0.899v-1.08L423.734,245.304z"/>
	<path d="M428.644,252.5v-0.647l0.827-0.804c1.991-1.895,2.902-2.902,2.902-4.078c0-0.792-0.372-1.523-1.535-1.523
		c-0.707,0-1.295,0.36-1.655,0.66l-0.336-0.744c0.528-0.444,1.308-0.792,2.195-0.792c1.679,0,2.387,1.151,2.387,2.267
		c0,1.439-1.044,2.603-2.687,4.186l-0.611,0.576v0.024h3.489v0.875H428.644z"/>
	<path d="M439.992,248.518c0,2.651-0.995,4.114-2.71,4.114c-1.523,0-2.566-1.427-2.591-4.006c0-2.626,1.14-4.054,2.723-4.054
		C439.045,244.572,439.992,246.036,439.992,248.518z M435.759,248.638c0,2.027,0.624,3.178,1.583,3.178
		c1.067,0,1.583-1.259,1.583-3.25c0-1.919-0.479-3.179-1.583-3.179C436.431,245.388,435.759,246.515,435.759,248.638z"/>
	<path d="M443.245,245.688h-0.023l-1.355,0.732l-0.204-0.804l1.703-0.912h0.899v7.796h-1.02V245.688z"/>
	<path d="M448.55,248.398c-0.875-0.408-1.247-1.08-1.247-1.751c0-1.235,1.044-2.075,2.423-2.075c1.511,0,2.278,0.936,2.278,1.919
		c0,0.66-0.335,1.379-1.295,1.823v0.036c0.972,0.384,1.571,1.08,1.571,2.015c0,1.367-1.163,2.267-2.65,2.267
		c-1.632,0-2.615-0.959-2.615-2.099c0-0.983,0.588-1.691,1.548-2.099L448.55,248.398z M451.213,250.473
		c0-0.936-0.66-1.403-1.715-1.703c-0.912,0.264-1.403,0.875-1.403,1.619c-0.036,0.78,0.563,1.475,1.559,1.475
		C450.602,251.864,451.213,251.277,451.213,250.473z M448.311,246.575c-0.012,0.78,0.588,1.199,1.487,1.439
		c0.671-0.228,1.187-0.708,1.187-1.416c0-0.624-0.371-1.271-1.318-1.271C448.79,245.328,448.311,245.904,448.311,246.575z"/>
	<path d="M456.049,248.878v0.768h-2.963v-0.768H456.049z"/>
	<path d="M462.144,248.518c0,2.651-0.995,4.114-2.71,4.114c-1.523,0-2.566-1.427-2.591-4.006c0-2.626,1.14-4.054,2.723-4.054
		C461.196,244.572,462.144,246.036,462.144,248.518z M457.91,248.638c0,2.027,0.624,3.178,1.583,3.178
		c1.067,0,1.583-1.259,1.583-3.25c0-1.919-0.479-3.179-1.583-3.179C458.582,245.388,457.91,246.515,457.91,248.638z"/>
	<path d="M467.556,245.448c-0.216-0.012-0.492,0.012-0.792,0.06c-1.667,0.264-2.53,1.463-2.71,2.758h0.023
		c0.372-0.503,1.032-0.911,1.896-0.911c1.379,0,2.351,1.007,2.351,2.519c0,1.439-0.972,2.758-2.603,2.758
		c-1.655,0-2.746-1.295-2.746-3.322c0-1.535,0.539-2.746,1.318-3.514c0.648-0.636,1.512-1.032,2.495-1.151
		c0.312-0.048,0.575-0.06,0.768-0.06V245.448z M467.256,249.945c0-1.115-0.636-1.787-1.607-1.787c-0.636,0-1.235,0.384-1.522,0.959
		c-0.061,0.12-0.108,0.264-0.108,0.456c0.012,1.283,0.611,2.243,1.728,2.243C466.645,251.816,467.256,251.061,467.256,249.945z"/>
	<path d="M472.045,248.878v0.768h-2.963v-0.768H472.045z"/>
	<path d="M478.139,248.518c0,2.651-0.995,4.114-2.71,4.114c-1.523,0-2.566-1.427-2.591-4.006c0-2.626,1.14-4.054,2.723-4.054
		C477.191,244.572,478.139,246.036,478.139,248.518z M473.905,248.638c0,2.027,0.624,3.178,1.583,3.178
		c1.067,0,1.583-1.259,1.583-3.25c0-1.919-0.479-3.179-1.583-3.179C474.577,245.388,473.905,246.515,473.905,248.638z"/>
	<path d="M481.393,245.688h-0.023l-1.355,0.732l-0.204-0.804l1.703-0.912h0.899v7.796h-1.02V245.688z"/>
</g>
</svg>
