<?xml version="1.0" encoding="utf-8"?>
<!-- Generator: Adobe Illustrator 15.0.0, SVG Export Plug-In . SVG Version: 6.00 Build 0)  -->
<!DOCTYPE svg PUBLIC "-//W3C//DTD SVG 1.1//EN" "http://www.w3.org/Graphics/SVG/1.1/DTD/svg11.dtd">
<svg version="1.1" id="Layer_1" xmlns="http://www.w3.org/2000/svg" xmlns:xlink="http://www.w3.org/1999/xlink" x="0px" y="0px"
	 width="2239.371px" height="1088.504px" viewBox="0 0 2239.371 1088.504" enable-background="new 0 0 2239.371 1088.504"
	 xml:space="preserve">
<g>
	<circle fill="none" stroke="#0000FF" stroke-width="0.0283" stroke-miterlimit="10" cx="1268.371" cy="143.246" r="8.504"/>
	<polygon fill="none" stroke="#0000FF" stroke-width="0.0283" stroke-miterlimit="10" points="1246.968,121.988 1229.96,121.988 
		1229.96,164.508 1246.968,164.508 1289.488,164.508 1289.488,121.988 	"/>
</g>
<g>
	<circle fill="none" stroke="#0000FF" stroke-width="0.0283" stroke-miterlimit="10" cx="1319.207" cy="86.345" r="8.504"/>
	<polygon fill="none" stroke="#0000FF" stroke-width="0.0283" stroke-miterlimit="10" points="1340.609,107.604 1357.617,107.604 
		1357.617,65.085 1340.609,65.085 1298.089,65.085 1298.089,107.604 	"/>
</g>
<g>
	<circle fill="none" stroke="#0000FF" stroke-width="0.0283" stroke-miterlimit="10" cx="1319.349" cy="38.167" r="8.504"/>
	<polygon fill="none" stroke="#0000FF" stroke-width="0.0283" stroke-miterlimit="10" points="1340.751,59.427 1357.759,59.427 
		1357.759,16.907 1340.751,16.907 1298.232,16.907 1298.232,59.427 	"/>
</g>
<g>
	<circle fill="none" stroke="#0000FF" stroke-width="0.0283" stroke-miterlimit="10" cx="1268.229" cy="38.165" r="8.504"/>
	<polygon fill="none" stroke="#0000FF" stroke-width="0.0283" stroke-miterlimit="10" points="1246.828,16.907 1229.82,16.907 
		1229.82,59.427 1246.828,59.427 1289.347,59.427 1289.347,16.907 	"/>
</g>
<g>
	<circle fill="none" stroke="#0000FF" stroke-width="0.0283" stroke-miterlimit="10" cx="1179.016" cy="143.248" r="8.504"/>
	<polygon fill="none" stroke="#0000FF" stroke-width="0.0283" stroke-miterlimit="10" points="1200.418,164.508 1217.426,164.508 
		1217.426,121.988 1200.418,121.988 1157.899,121.988 1157.899,164.508 	"/>
</g>
<g>
	<circle fill="none" stroke="#0000FF" stroke-width="0.0283" stroke-miterlimit="10" cx="1268.371" cy="87.871" r="8.504"/>
	<polygon fill="none" stroke="#0000FF" stroke-width="0.0283" stroke-miterlimit="10" points="1246.968,66.613 1229.96,66.613 
		1229.96,109.132 1246.968,109.132 1289.488,109.132 1289.488,66.613 	"/>
</g>
<g>
	<circle fill="none" stroke="#0000FF" stroke-width="0.0283" stroke-miterlimit="10" cx="1179.016" cy="87.873" r="8.504"/>
	<polygon fill="none" stroke="#0000FF" stroke-width="0.0283" stroke-miterlimit="10" points="1200.418,109.132 1217.426,109.132 
		1217.426,66.613 1200.418,66.613 1157.899,66.613 1157.899,109.132 	"/>
</g>
<g>
	<circle fill="none" stroke="#0000FF" stroke-width="0.0283" stroke-miterlimit="10" cx="1179.159" cy="38.167" r="8.504"/>
	<polygon fill="none" stroke="#0000FF" stroke-width="0.0283" stroke-miterlimit="10" points="1200.561,59.427 1217.569,59.427 
		1217.569,16.907 1200.561,16.907 1158.042,16.907 1158.042,59.427 	"/>
</g>
<circle fill="none" stroke="#0000FF" stroke-width="0.0283" stroke-miterlimit="10" cx="1302.373" cy="1029.26" r="11.338"/>
<circle fill="none" stroke="#0000FF" stroke-width="0.0283" stroke-miterlimit="10" cx="1302.373" cy="221.317" r="11.339"/>
<polygon fill="none" stroke="#0000FF" stroke-width="0.0283" stroke-miterlimit="10" points="1340.751,1050.663 1244.375,1050.663 
	1244.375,199.916 1340.751,199.916 1340.751,182.908 1357.759,182.908 1357.759,199.916 1357.759,242.436 1340.751,242.436 
	1340.751,1008 1357.759,1008 1357.759,1050.52 1357.759,1067.527 1340.751,1067.527 "/>
<g>
	<circle fill="none" stroke="#0000FF" stroke-width="0.0283" stroke-miterlimit="10" cx="961.307" cy="576.337" r="11.338"/>
	<circle fill="none" stroke="#0000FF" stroke-width="0.0283" stroke-miterlimit="10" cx="153.364" cy="576.337" r="11.338"/>
	<polygon fill="none" stroke="#0000FF" stroke-width="0.0283" stroke-miterlimit="10" points="982.711,622.281 982.711,525.903 
		131.961,525.903 131.961,622.281 114.954,622.281 114.954,639.289 131.961,639.289 174.481,639.289 174.481,622.281 
		940.047,622.281 940.047,639.289 982.568,639.289 999.574,639.289 999.574,622.281 	"/>
	<g>
		<g id="CIRCLE_5_">
			<path fill="none" stroke="#0000FF" stroke-width="0.0283" stroke-miterlimit="10" d="M602.139,581.858
				c0-14.093,11.422-25.517,25.514-25.517c14.09,0,25.514,11.424,25.514,25.517c0,14.092-11.426,25.512-25.518,25.512
				C613.559,607.37,602.137,595.948,602.139,581.858L602.139,581.858z"/>
		</g>
		<g id="CIRCLE_4_">
			<path fill="none" stroke="#0000FF" stroke-width="0.0283" stroke-miterlimit="10" d="M365.228,603.083
				c0-5.479,4.439-9.92,9.92-9.92c5.479,0,9.924,4.44,9.924,9.92c0,5.479-4.441,9.922-9.924,9.922
				C369.668,613.005,365.228,608.563,365.228,603.083L365.228,603.083z"/>
		</g>
		<g id="CIRCLE_3_">
			<path fill="none" stroke="#0000FF" stroke-width="0.0283" stroke-miterlimit="10" d="M544.611,581.93
				c-0.039-14.09,11.35-25.547,25.438-25.588c14.092-0.041,25.547,11.353,25.586,25.438c0.041,14.093-11.348,25.546-25.438,25.587
				C556.109,607.408,544.65,596.02,544.611,581.93L544.611,581.93z"/>
		</g>
		<g id="CIRCLE_2_">
			<path fill="none" stroke="#0000FF" stroke-width="0.0283" stroke-miterlimit="10" d="M253.129,587.122
				c0-12.506,10.14-22.646,22.648-22.646c12.508,0,22.647,10.144,22.647,22.646c0,12.508-10.142,22.646-22.647,22.646
				C263.27,609.77,253.129,599.63,253.129,587.122L253.129,587.122z"/>
		</g>
		<g id="CIRCLE_1_">
			<path fill="none" stroke="#0000FF" stroke-width="0.0283" stroke-miterlimit="10" d="M308.337,587.122
				c0-12.506,10.141-22.646,22.646-22.646c12.506,0,22.648,10.144,22.648,22.646c0,12.508-10.143,22.646-22.648,22.646
				C318.479,609.768,308.337,599.63,308.337,587.122L308.337,587.122z"/>
		</g>
		<polygon fill="none" stroke="#0000FF" stroke-width="0.0283" stroke-miterlimit="10" points="537.527,610.167 486.969,610.167 
			486.969,612.508 460.039,612.508 460.039,610.172 422.482,610.172 422.482,619.378 388.466,619.378 388.466,592.448 
			422.482,592.448 422.482,601.669 460.039,601.669 460.039,564.319 486.969,564.319 486.969,606.344 537.527,606.344 		"/>
	</g>
</g>
<g>
	<g>
		<polyline fill="none" stroke="#0000FF" stroke-width="0.0283" stroke-miterlimit="10" points="2113.48,934.802 2205.605,934.802 
			2205.605,842.677 2113.48,842.677 		"/>
		<polyline fill="none" stroke="#0000FF" stroke-width="0.0283" stroke-miterlimit="10" points="2226.866,817.872 
			2226.866,1072.989 2113.48,1072.989 2034.581,1072.983 2019.944,1059.29 2003.038,550.338 2017.102,534.408 2226.866,534.408 
			2226.866,817.872 		"/>
		
			<line fill="none" stroke="#0000FF" stroke-width="0.0283" stroke-miterlimit="10" x1="2113.48" y1="842.677" x2="2113.48" y2="934.802"/>
	</g>
	<circle fill="none" stroke="#0000FF" stroke-width="0.0283" stroke-miterlimit="10" cx="2071.236" cy="643.541" r="28.347"/>
</g>
<g>
	<polyline fill="none" stroke="#0000FF" stroke-width="0.0283" stroke-miterlimit="10" points="1683,672.596 1775.125,672.596 
		1775.125,764.721 1683,764.721 	"/>
	<polyline fill="none" stroke="#0000FF" stroke-width="0.0283" stroke-miterlimit="10" points="1796.385,789.525 1796.385,534.408 
		1683,534.408 1604.1,534.414 1589.463,548.107 1572.557,1057.061 1586.622,1072.989 1796.385,1072.989 1796.385,789.525 	"/>
	<line fill="none" stroke="#0000FF" stroke-width="0.0283" stroke-miterlimit="10" x1="1683" y1="764.721" x2="1683" y2="672.596"/>
</g>
<g>
	
		<rect x="1382.49" y="612.359" fill="none" stroke="#0000FF" stroke-width="0.0283" stroke-miterlimit="10" width="17.008" height="42.52"/>
	
		<rect x="1382.657" y="952.518" fill="none" stroke="#0000FF" stroke-width="0.0283" stroke-miterlimit="10" width="17.008" height="42.521"/>
	
		<rect x="1409.447" y="565.588" fill="none" stroke="#0000FF" stroke-width="0.0283" stroke-miterlimit="10" width="42.52" height="17.008"/>
	
		<rect x="1409.447" y="1024.801" fill="none" stroke="#0000FF" stroke-width="0.0283" stroke-miterlimit="10" width="42.52" height="17.008"/>
	<polygon fill="none" stroke="#0000FF" stroke-width="0.0283" stroke-miterlimit="10" points="1558.292,1058.814 1478.921,1058.814 
		1478.921,934.802 1386.796,934.801 1386.796,842.676 1478.921,842.677 1478.921,548.58 1575.3,548.581 	"/>
	<polygon fill="none" stroke="#0000FF" stroke-width="0.0283" stroke-miterlimit="10" points="1365.538,565.588 1365.538,605.273 
		1365.538,661.967 1365.538,817.871 1365.538,945.43 1365.538,1002.123 1365.538,1041.809 1382.782,1041.809 1382.782,1058.814 
		1365.538,1058.816 1365.538,1072.988 1478.921,1072.988 1557.822,1072.983 1572.458,1059.29 1589.365,550.338 1575.3,534.408 
		1365.538,534.408 1365.538,548.58 1382.782,548.58 1382.782,565.588 	"/>
</g>
<rect x="1797.643" y="952.518" fill="none" stroke="#0000FF" stroke-width="0.0283" stroke-miterlimit="10" width="17.009" height="42.521"/>
<rect x="1797.811" y="612.359" fill="none" stroke="#0000FF" stroke-width="0.0283" stroke-miterlimit="10" width="17.008" height="42.52"/>
<rect x="1824.599" y="1024.801" fill="none" stroke="#0000FF" stroke-width="0.0283" stroke-miterlimit="10" width="42.521" height="17.008"/>
<rect x="1824.599" y="565.588" fill="none" stroke="#0000FF" stroke-width="0.0283" stroke-miterlimit="10" width="42.521" height="17.008"/>
<polygon fill="none" stroke="#0000FF" stroke-width="0.0283" stroke-miterlimit="10" points="1990.453,1058.816 1894.074,1058.816 
	1894.075,764.721 1801.949,764.721 1801.949,672.596 1894.075,672.596 1894.075,548.582 1973.446,548.582 "/>
<polygon fill="none" stroke="#0000FF" stroke-width="0.0283" stroke-miterlimit="10" points="1813.493,1041.809 1813.493,1058.816 
	1796.247,1058.816 1796.247,1072.989 2006.01,1072.989 2020.075,1057.061 2003.169,548.107 1988.533,534.414 1909.632,534.408 
	1796.247,534.408 1796.247,548.58 1813.493,548.582 1813.493,565.588 1796.247,565.588 1796.247,605.273 1796.247,661.967 
	1796.247,789.525 1796.247,945.431 1796.247,1002.123 1796.247,1041.809 "/>
<g>
	<circle fill="none" stroke="#0000FF" stroke-width="0.0283" stroke-miterlimit="10" cx="962.547" cy="25.64" r="11.338"/>
	<circle fill="none" stroke="#0000FF" stroke-width="0.0283" stroke-miterlimit="10" cx="154.604" cy="25.51" r="11.339"/>
	<circle fill="none" stroke="#0000FF" stroke-width="0.0283" stroke-miterlimit="10" cx="154.604" cy="365.673" r="11.339"/>
	<circle fill="none" stroke="#0000FF" stroke-width="0.0283" stroke-miterlimit="10" cx="962.547" cy="365.798" r="11.338"/>
	<polygon fill="none" stroke="#0000FF" stroke-width="0.0283" stroke-miterlimit="10" points="942.671,-59.4 174.48,-59.4 
		174.48,-42.393 131.961,-42.393 131.961,-2.706 131.961,53.984 131.961,337.452 131.961,394.143 131.961,433.829 174.48,433.829 
		174.48,450.837 942.67,450.837 942.67,433.829 985.189,433.829 985.189,394.143 985.189,337.45 985.189,53.986 985.189,-2.706 
		985.189,-42.393 942.67,-42.393 	"/>
	<path fill="none" stroke="#0000FF" stroke-width="0.0283" stroke-miterlimit="10" d="M665.743-13.466
		c0,2.506,2.03,4.534,4.534,4.534c2.505,0,4.535-2.03,4.535-4.534s-2.03-4.535-4.535-4.535
		C667.773-18.001,665.743-15.97,665.743-13.466"/>
	<path fill="none" stroke="#0000FF" stroke-width="0.0283" stroke-miterlimit="10" d="M665.743,71.553
		c0,2.506,2.03,4.535,4.534,4.535c2.505,0,4.535-2.031,4.535-4.535s-2.03-4.535-4.535-4.535
		C667.773,67.018,665.743,69.048,665.743,71.553"/>
	<path fill="none" stroke="#0000FF" stroke-width="0.0283" stroke-miterlimit="10" d="M550.902,71.553
		c0,2.506,2.031,4.535,4.535,4.535s4.535-2.031,4.535-4.535s-2.031-4.535-4.535-4.535S550.902,69.048,550.902,71.553"/>
	<path fill="none" stroke="#0000FF" stroke-width="0.0283" stroke-miterlimit="10" d="M522.583,71.553
		c0,2.506,2.031,4.535,4.535,4.535s4.535-2.031,4.535-4.535s-2.031-4.535-4.535-4.535S522.583,69.048,522.583,71.553"/>
	<path fill="none" stroke="#0000FF" stroke-width="0.0283" stroke-miterlimit="10" d="M522.583-13.466
		c0,2.506,2.031,4.534,4.535,4.534s4.535-2.03,4.535-4.534s-2.031-4.535-4.535-4.535S522.583-15.97,522.583-13.466"/>
	<path fill="none" stroke="#0000FF" stroke-width="0.0283" stroke-miterlimit="10" d="M346.844,71.553
		c0,2.506,2.029,4.537,4.535,4.535c2.506,0,4.535-2.031,4.535-4.535s-2.029-4.535-4.535-4.535S346.844,69.048,346.844,71.553"/>
	<path fill="none" stroke="#0000FF" stroke-width="0.0283" stroke-miterlimit="10" d="M232.004,71.553
		c0,2.506,2.029,4.535,4.535,4.535c2.504,0,4.534-2.031,4.534-4.535s-2.03-4.535-4.534-4.535
		C234.034,67.018,232.004,69.048,232.004,71.553"/>
	<path fill="none" stroke="#0000FF" stroke-width="0.0283" stroke-miterlimit="10" d="M232.004-13.466
		c0,2.506,2.029,4.534,4.535,4.534c2.504,0,4.534-2.03,4.532-4.534c0-2.504-2.028-4.535-4.532-4.535
		C234.034-18.001,232.004-15.97,232.004-13.466"/>
</g>
<rect x="236.539" y="71.553" fill="none" stroke="#010101" stroke-miterlimit="10" width="16.59" height="515.569"/>
</svg>
