<?xml version="1.0" encoding="utf-8"?>
<!-- Generator: Adobe Illustrator 15.0.0, SVG Export Plug-In . SVG Version: 6.00 Build 0)  -->
<!DOCTYPE svg PUBLIC "-//W3C//DTD SVG 1.1//EN" "http://www.w3.org/Graphics/SVG/1.1/DTD/svg11.dtd">
<svg version="1.1" id="Layer_1" xmlns="http://www.w3.org/2000/svg" xmlns:xlink="http://www.w3.org/1999/xlink" x="0px" y="0px"
	 width="612px" height="792px" viewBox="0 0 612 792" enable-background="new 0 0 612 792" xml:space="preserve">
<rect x="223.933" y="-401.689" fill="none" stroke="#010101" stroke-miterlimit="10" width="100.628" height="895.749"/>
<rect x="106.343" y="-401.689" fill="none" stroke="#010101" stroke-miterlimit="10" width="100.629" height="895.749"/>
<g>
	<g id="CIRCLE_10_">
		<path stroke="#010101" stroke-miterlimit="10" d="M273.64,6.126c14.094,0,25.519,11.424,25.519,25.516
			s-11.425,25.516-25.519,25.516c-14.092,0-25.512-11.426-25.512-25.52C248.13,17.546,259.552,6.125,273.64,6.126L273.64,6.126z"/>
	</g>
	<g id="CIRCLE_9_">
		<path stroke="#010101" stroke-miterlimit="10" d="M252.417-230.784c5.479,0,9.92,4.439,9.92,9.92c0,5.479-4.438,9.924-9.92,9.924
			c-5.479,0-9.922-4.441-9.922-9.924C242.495-226.344,246.937-230.784,252.417-230.784L252.417-230.784z"/>
	</g>
	<g id="CIRCLE_8_">
		<path stroke="#010101" stroke-miterlimit="10" d="M273.571-51.402c14.09-0.036,25.547,11.353,25.588,25.438
			C299.2-11.873,287.804-0.417,273.72-0.378c-14.093,0.041-25.545-11.348-25.586-25.438
			C248.093-39.904,259.48-51.363,273.571-51.402L273.571-51.402z"/>
	</g>
	<g id="CIRCLE_7_">
		<path stroke="#010101" stroke-miterlimit="10" d="M268.377-342.883c12.507,0,22.646,10.14,22.646,22.647
			c0,12.509-10.143,22.647-22.646,22.647c-12.508,0-22.646-10.142-22.646-22.647C245.73-332.743,255.87-342.883,268.377-342.883
			L268.377-342.883z"/>
	</g>
	<g id="CIRCLE_6_">
		<path stroke="#010101" stroke-miterlimit="10" d="M268.377-287.675c12.507,0,22.646,10.141,22.646,22.646
			c0,12.506-10.143,22.648-22.646,22.648c-12.508,0-22.646-10.142-22.646-22.648C245.732-277.534,255.87-287.675,268.377-287.675
			L268.377-287.675z"/>
	</g>
	<polygon stroke="#010101" stroke-miterlimit="10" points="240.493,-58.486 240.493,-109.042 240.493,-109.042 240.493,-135.973 
		240.493,-135.973 240.493,-173.53 236.122,-173.53 236.122,-207.546 263.052,-207.546 263.052,-173.53 258.493,-173.53 
		258.493,-135.973 291.179,-135.973 291.179,-109.042 258.493,-109.042 258.493,-58.486 	"/>
</g>
</svg>
