<?xml version="1.0" encoding="utf-8"?>
<!-- Generator: Adobe Illustrator 15.0.0, SVG Export Plug-In . SVG Version: 6.00 Build 0)  -->
<!DOCTYPE svg PUBLIC "-//W3C//DTD SVG 1.1//EN" "http://www.w3.org/Graphics/SVG/1.1/DTD/svg11.dtd">
<svg version="1.1" id="Layer_1" xmlns="http://www.w3.org/2000/svg" xmlns:xlink="http://www.w3.org/1999/xlink" x="0px" y="0px"
	 width="612px" height="792px" viewBox="0 0 612 792" enable-background="new 0 0 612 792" xml:space="preserve">
<rect x="36.689" y="-199.238" fill="none" stroke="#010101" stroke-miterlimit="10" width="871.936" height="482.258"/>
<path fill="#020202" d="M562.604-153.303c0,4.974,4.029,8.999,8.998,8.999c4.973,0,9.002-4.029,9.002-8.999
	c0-4.97-4.029-9.001-9.002-9.001C566.633-162.304,562.604-158.272,562.604-153.303"/>
<path fill="#020202" d="M562.604-68.285c0,4.973,4.029,9,8.998,9c4.973,0,9.002-4.031,9.002-9c0-4.969-4.029-9-9.002-9
	C566.633-77.285,562.604-73.255,562.604-68.285"/>
<path fill="#020202" d="M447.763-68.285c0,4.973,4.031,9,9,9c4.97,0,9-4.031,9-9c0-4.969-4.03-9-9-9
	C451.794-77.285,447.763-73.255,447.763-68.285"/>
<path fill="#020202" d="M419.443-68.285c0,4.973,4.03,9,9,9c4.969,0,9-4.031,9-9c0-4.969-4.031-9-9-9
	C423.474-77.285,419.443-73.255,419.443-68.285"/>
<path fill="#020202" d="M419.443-153.303c0,4.974,4.03,8.999,9,8.999c4.969,0,9-4.029,9-8.999c0-4.97-4.031-9.001-9-9.001
	C423.474-162.304,419.443-158.272,419.443-153.303"/>
<path fill="#020202" d="M243.705-68.285c0,4.973,4.029,9.004,9,9c4.971,0,9-4.031,9-9c0-4.969-4.029-9-9-9
	C247.734-77.285,243.705-73.255,243.705-68.285"/>
<path fill="#020202" d="M128.865-68.285c0,4.973,4.027,9,9.001,9c4.97,0,8.999-4.031,8.999-9c0-4.969-4.029-9-8.999-9
	C132.892-77.285,128.865-73.255,128.865-68.285"/>
<path fill="#020202" d="M128.864-153.303c0,4.974,4.028,8.999,9.003,8.999c4.971,0,9.001-4.029,8.997-8.999
	c0-4.97-4.026-9.001-8.997-9.001C132.892-162.304,128.864-158.272,128.864-153.303"/>
<g>
	<path d="M138.719-276.042l-0.839,2.542h-1.08l2.758-8.083h1.248l2.758,8.083h-1.115l-0.864-2.542H138.719z M141.381-276.858
		l-0.804-2.327c-0.18-0.527-0.3-1.007-0.419-1.475h-0.024c-0.12,0.468-0.24,0.972-0.408,1.463l-0.792,2.338H141.381z"/>
	<path d="M148.929-277.29h-3.13v2.915h3.502v0.875h-4.558v-8.083h4.378v0.875h-3.322v2.555h3.13V-277.29z"/>
</g>
</svg>
