<?xml version="1.0" encoding="utf-8"?>
<!-- Generator: Adobe Illustrator 15.0.0, SVG Export Plug-In . SVG Version: 6.00 Build 0)  -->
<!DOCTYPE svg PUBLIC "-//W3C//DTD SVG 1.1//EN" "http://www.w3.org/Graphics/SVG/1.1/DTD/svg11.dtd">
<svg version="1.1" id="Layer_1" xmlns="http://www.w3.org/2000/svg" xmlns:xlink="http://www.w3.org/1999/xlink" x="0px" y="0px"
	 width="792px" height="612px" viewBox="0 0 792 612" enable-background="new 0 0 792 612" xml:space="preserve">
<polygon fill="none" stroke="#000000" stroke-miterlimit="10" points="157.545,445.407 197.23,445.407 253.924,445.407 
	409.828,445.407 537.387,445.407 594.08,445.407 633.766,445.407 633.766,445.407 650.771,445.407 650.773,445.407 664.945,445.407 
	664.945,304.291 664.941,225.391 651.248,199.414 142.295,182.509 126.365,207.913 126.365,445.407 140.537,445.407 
	140.537,445.407 "/>
<path d="M651.023,304.291H153.78c0,0-17.243-4.05-17.243-8.504s0-13.537,0-13.537l4.944-62.378c0,0-0.086,1.118,0.02-0.253
	c0.912-11.827,3.42-19.931,12-19.645c8.58,0.286,0,0,0,0l477.175,16.047L651.023,304.291z"/>
<polygon fill="#231F20" points="529.167,304.291 529.165,400.666 432.789,400.67 432.792,304.291 "/>
<polygon points="153.071,304.291 153.071,421.646 638.928,421.646 638.928,304.291 615.827,304.291 615.827,399.251 
	176.172,399.251 176.174,304.291 "/>
<circle fill="#231F20" cx="237.168" cy="256.102" r="24.094"/>
<circle cx="573.481" cy="352.48" r="9"/>
<circle cx="303.481" cy="352.48" r="9"/>
<g>
	<path d="M360.412,166.417h1.043v3.898h0.036c0.216-0.312,0.432-0.6,0.636-0.864l2.471-3.034h1.295l-2.926,3.43l3.154,4.653h-1.235
		l-2.651-3.97l-0.779,0.887v3.083h-1.043V166.417z"/>
	<path d="M367.467,171.79c0.024,1.427,0.923,2.015,1.991,2.015c0.755,0,1.223-0.132,1.607-0.3l0.192,0.756
		c-0.372,0.168-1.019,0.372-1.943,0.372c-1.787,0-2.854-1.188-2.854-2.938s1.032-3.118,2.723-3.118c1.907,0,2.399,1.655,2.399,2.723
		c0,0.216-0.013,0.372-0.036,0.492H367.467z M370.562,171.034c0.012-0.66-0.276-1.703-1.463-1.703c-1.08,0-1.535,0.971-1.619,1.703
		H370.562z"/>
	<path d="M373.275,168.695l1.259,3.43c0.144,0.384,0.288,0.839,0.384,1.187h0.024c0.107-0.348,0.228-0.792,0.371-1.211l1.151-3.406
		h1.115l-1.583,4.138c-0.755,1.991-1.271,2.998-1.99,3.634c-0.528,0.444-1.032,0.624-1.296,0.672l-0.264-0.875
		c0.264-0.084,0.611-0.252,0.924-0.516c0.288-0.228,0.636-0.635,0.888-1.175c0.048-0.108,0.084-0.192,0.084-0.251
		c0-0.06-0.024-0.144-0.084-0.276l-2.135-5.349H373.275z"/>
	<path d="M379.814,167.304v1.392h1.512v0.803h-1.512v3.13c0,0.72,0.204,1.127,0.792,1.127c0.288,0,0.456-0.024,0.611-0.072
		l0.048,0.803c-0.203,0.072-0.527,0.144-0.936,0.144c-0.491,0-0.887-0.168-1.139-0.444c-0.288-0.324-0.408-0.839-0.408-1.523v-3.167
		h-0.899v-0.803h0.899v-1.08L379.814,167.304z"/>
	<path d="M386.593,173.109c0,0.503,0.024,0.995,0.084,1.391h-0.947l-0.084-0.731h-0.036c-0.324,0.456-0.947,0.863-1.775,0.863
		c-1.175,0-1.774-0.828-1.774-1.667c0-1.403,1.247-2.171,3.49-2.159v-0.12c0-0.468-0.132-1.343-1.319-1.331
		c-0.552,0-1.115,0.156-1.523,0.432l-0.24-0.708c0.48-0.3,1.188-0.504,1.919-0.504c1.775,0,2.207,1.211,2.207,2.363V173.109z
		 M385.573,171.538c-1.151-0.024-2.458,0.18-2.458,1.307c0,0.696,0.455,1.008,0.983,1.008c0.768,0,1.259-0.48,1.427-0.972
		c0.036-0.12,0.048-0.24,0.048-0.336V171.538z"/>
	<path d="M388.3,170.506c0-0.684-0.013-1.271-0.049-1.811h0.924l0.048,1.151h0.036c0.264-0.78,0.911-1.271,1.619-1.271
		c0.108,0,0.192,0.012,0.288,0.024v0.996c-0.108-0.024-0.216-0.024-0.36-0.024c-0.743,0-1.271,0.552-1.415,1.343
		c-0.023,0.144-0.036,0.324-0.036,0.492v3.094H388.3V170.506z"/>
	<path d="M394.671,173.229c0.468,0.3,1.14,0.528,1.859,0.528c1.067,0,1.691-0.563,1.691-1.379c0-0.743-0.433-1.187-1.523-1.595
		c-1.319-0.48-2.135-1.176-2.135-2.303c0-1.259,1.043-2.195,2.614-2.195c0.815,0,1.428,0.192,1.775,0.396l-0.288,0.852
		c-0.252-0.156-0.792-0.384-1.523-0.384c-1.104,0-1.522,0.66-1.522,1.211c0,0.755,0.491,1.127,1.606,1.559
		c1.367,0.528,2.051,1.188,2.051,2.375c0,1.248-0.911,2.339-2.818,2.339c-0.779,0-1.631-0.24-2.063-0.528L394.671,173.229z"/>
	<path d="M401.858,167.064c0,0.36-0.252,0.648-0.672,0.648c-0.384,0-0.636-0.288-0.636-0.648s0.265-0.66,0.66-0.66
		C401.595,166.404,401.858,166.692,401.858,167.064z M400.684,174.5v-5.805h1.055v5.805H400.684z"/>
	<path d="M408.492,165.985v7.016c0,0.516,0.023,1.103,0.048,1.499h-0.936l-0.048-1.007h-0.036c-0.312,0.647-1.008,1.139-1.955,1.139
		c-1.403,0-2.494-1.188-2.494-2.95c-0.013-1.931,1.199-3.106,2.603-3.106c0.899,0,1.487,0.42,1.751,0.875h0.023v-3.466H408.492z
		 M407.448,171.058c0-0.132-0.012-0.312-0.048-0.444c-0.155-0.66-0.731-1.211-1.523-1.211c-1.091,0-1.738,0.959-1.738,2.231
		c0,1.175,0.588,2.146,1.715,2.146c0.708,0,1.355-0.479,1.547-1.259c0.036-0.144,0.048-0.288,0.048-0.456V171.058z"/>
	<path d="M410.846,171.79c0.024,1.427,0.924,2.015,1.991,2.015c0.756,0,1.224-0.132,1.607-0.3l0.191,0.756
		c-0.372,0.168-1.02,0.372-1.942,0.372c-1.787,0-2.854-1.188-2.854-2.938s1.031-3.118,2.723-3.118c1.906,0,2.398,1.655,2.398,2.723
		c0,0.216-0.013,0.372-0.036,0.492H410.846z M413.94,171.034c0.012-0.66-0.276-1.703-1.463-1.703c-1.08,0-1.535,0.971-1.619,1.703
		H413.94z"/>
	<path d="M418.851,166.524c0.528-0.096,1.296-0.168,2.003-0.168c1.115,0,1.848,0.216,2.339,0.66c0.396,0.36,0.636,0.912,0.636,1.547
		c0,1.055-0.672,1.763-1.511,2.051v0.036c0.611,0.216,0.983,0.792,1.175,1.631c0.264,1.127,0.456,1.907,0.624,2.219h-1.079
		c-0.133-0.24-0.313-0.923-0.528-1.931c-0.239-1.115-0.684-1.535-1.631-1.571h-0.983v3.502h-1.044V166.524z M419.895,170.207h1.067
		c1.115,0,1.823-0.612,1.823-1.535c0-1.043-0.756-1.5-1.859-1.5c-0.504,0-0.852,0.036-1.031,0.084V170.207z"/>
	<path d="M426.565,167.064c0,0.36-0.252,0.648-0.672,0.648c-0.384,0-0.636-0.288-0.636-0.648s0.265-0.66,0.66-0.66
		C426.302,166.404,426.565,166.692,426.565,167.064z M425.391,174.5v-5.805h1.055v5.805H425.391z"/>
	<path d="M433.164,173.648c0,1.343-0.275,2.147-0.827,2.663c-0.576,0.516-1.392,0.696-2.123,0.696c-0.696,0-1.464-0.168-1.931-0.48
		l0.264-0.815c0.384,0.252,0.983,0.468,1.703,0.468c1.079,0,1.871-0.564,1.871-2.039v-0.636h-0.024
		c-0.312,0.54-0.947,0.972-1.847,0.972c-1.439,0-2.471-1.223-2.471-2.831c0-1.967,1.283-3.07,2.626-3.07
		c1.008,0,1.548,0.516,1.812,0.996h0.023l0.036-0.875h0.936c-0.036,0.408-0.048,0.887-0.048,1.583V173.648z M432.108,170.986
		c0-0.18-0.012-0.336-0.06-0.468c-0.192-0.624-0.695-1.127-1.476-1.127c-1.007,0-1.727,0.852-1.727,2.195
		c0,1.14,0.587,2.087,1.715,2.087c0.659,0,1.247-0.408,1.463-1.079c0.061-0.18,0.084-0.384,0.084-0.564V170.986z"/>
	<path d="M434.906,165.985h1.055v3.634h0.024c0.168-0.3,0.432-0.576,0.756-0.755c0.312-0.18,0.684-0.288,1.079-0.288
		c0.779,0,2.026,0.48,2.026,2.471v3.454h-1.055v-3.334c0-0.936-0.349-1.715-1.344-1.715c-0.684,0-1.211,0.48-1.415,1.043
		c-0.06,0.156-0.072,0.312-0.072,0.504v3.502h-1.055V165.985z"/>
	<path d="M442.789,167.304v1.392h1.512v0.803h-1.512v3.13c0,0.72,0.204,1.127,0.792,1.127c0.288,0,0.456-0.024,0.611-0.072
		l0.048,0.803c-0.203,0.072-0.527,0.144-0.936,0.144c-0.491,0-0.887-0.168-1.139-0.444c-0.288-0.324-0.408-0.839-0.408-1.523v-3.167
		h-0.899v-0.803h0.899v-1.08L442.789,167.304z"/>
	<path d="M447.698,174.5v-0.647l0.827-0.804c1.991-1.895,2.902-2.902,2.902-4.078c0-0.792-0.372-1.523-1.535-1.523
		c-0.707,0-1.295,0.36-1.655,0.66l-0.336-0.744c0.528-0.444,1.308-0.792,2.195-0.792c1.679,0,2.387,1.151,2.387,2.267
		c0,1.439-1.044,2.603-2.687,4.186l-0.611,0.576v0.024h3.489v0.875H447.698z"/>
	<path d="M459.047,170.518c0,2.651-0.995,4.114-2.71,4.114c-1.523,0-2.566-1.427-2.591-4.006c0-2.626,1.14-4.054,2.723-4.054
		C458.1,166.572,459.047,168.036,459.047,170.518z M454.813,170.638c0,2.027,0.624,3.178,1.583,3.178
		c1.067,0,1.583-1.259,1.583-3.25c0-1.919-0.479-3.179-1.583-3.179C455.485,167.388,454.813,168.515,454.813,170.638z"/>
	<path d="M462.3,167.688h-0.023l-1.355,0.732l-0.204-0.804l1.703-0.912h0.899v7.796h-1.02V167.688z"/>
	<path d="M467.604,170.398c-0.875-0.408-1.247-1.08-1.247-1.751c0-1.235,1.044-2.075,2.423-2.075c1.511,0,2.278,0.936,2.278,1.919
		c0,0.66-0.335,1.379-1.295,1.823v0.036c0.972,0.384,1.571,1.08,1.571,2.015c0,1.367-1.163,2.267-2.65,2.267
		c-1.632,0-2.615-0.959-2.615-2.099c0-0.983,0.588-1.691,1.548-2.099L467.604,170.398z M470.268,172.473
		c0-0.936-0.66-1.403-1.715-1.703c-0.912,0.264-1.403,0.875-1.403,1.619c-0.036,0.78,0.563,1.475,1.559,1.475
		C469.656,173.864,470.268,173.277,470.268,172.473z M467.365,168.575c-0.012,0.78,0.588,1.199,1.487,1.439
		c0.671-0.228,1.187-0.708,1.187-1.416c0-0.624-0.371-1.271-1.318-1.271C467.845,167.328,467.365,167.904,467.365,168.575z"/>
	<path d="M475.104,170.878v0.768h-2.963v-0.768H475.104z"/>
	<path d="M481.198,170.518c0,2.651-0.995,4.114-2.71,4.114c-1.523,0-2.566-1.427-2.591-4.006c0-2.626,1.14-4.054,2.723-4.054
		C480.251,166.572,481.198,168.036,481.198,170.518z M476.965,170.638c0,2.027,0.624,3.178,1.583,3.178
		c1.067,0,1.583-1.259,1.583-3.25c0-1.919-0.479-3.179-1.583-3.179C477.637,167.388,476.965,168.515,476.965,170.638z"/>
	<path d="M487.222,166.704v0.696l-3.394,7.1h-1.092l3.382-6.896v-0.024h-3.813v-0.875H487.222z"/>
	<path d="M491.1,170.878v0.768h-2.963v-0.768H491.1z"/>
	<path d="M494.291,167.688h-0.023l-1.355,0.732l-0.204-0.804l1.703-0.912h0.899v7.796h-1.02V167.688z"/>
	<path d="M503.218,166.704v0.696l-3.394,7.1h-1.092l3.382-6.896v-0.024h-3.813v-0.875H503.218z"/>
	<path d="M507.095,170.878v0.768h-2.963v-0.768H507.095z"/>
	<path d="M508.368,166.536c0.456-0.108,1.188-0.18,1.907-0.18c1.044,0,1.715,0.18,2.207,0.588c0.42,0.312,0.684,0.792,0.684,1.427
		c0,0.792-0.527,1.475-1.367,1.775v0.036c0.768,0.18,1.667,0.815,1.667,2.015c0,0.696-0.276,1.235-0.695,1.619
		c-0.552,0.516-1.464,0.755-2.783,0.755c-0.72,0-1.271-0.048-1.619-0.096V166.536z M509.412,169.847h0.947
		c1.092,0,1.739-0.588,1.739-1.367c0-0.936-0.708-1.319-1.763-1.319c-0.48,0-0.756,0.036-0.924,0.072V169.847z M509.412,173.708
		c0.216,0.036,0.504,0.048,0.875,0.048c1.08,0,2.075-0.396,2.075-1.571c0-1.091-0.947-1.559-2.087-1.559h-0.863V173.708z"/>
</g>
</svg>
