<?xml version="1.0" encoding="utf-8"?>
<!-- Generator: Adobe Illustrator 15.0.0, SVG Export Plug-In . SVG Version: 6.00 Build 0)  -->
<!DOCTYPE svg PUBLIC "-//W3C//DTD SVG 1.1//EN" "http://www.w3.org/Graphics/SVG/1.1/DTD/svg11.dtd">
<svg version="1.1" id="Layer_1" xmlns="http://www.w3.org/2000/svg" xmlns:xlink="http://www.w3.org/1999/xlink" x="0px" y="0px"
	 width="792px" height="612px" viewBox="0 0 792 612" enable-background="new 0 0 792 612" xml:space="preserve">
<g>
	<path d="M306.324,145.917h1.043v3.898h0.036c0.216-0.312,0.432-0.6,0.636-0.864l2.471-3.034h1.295l-2.926,3.43l3.154,4.653h-1.235
		l-2.651-3.97l-0.779,0.887V154h-1.043V145.917z"/>
	<path d="M312.828,146.036c0.456-0.108,1.187-0.18,1.907-0.18c1.043,0,1.715,0.18,2.207,0.588c0.419,0.312,0.684,0.792,0.684,1.427
		c0,0.792-0.528,1.475-1.367,1.775v0.036c0.768,0.18,1.667,0.815,1.667,2.015c0,0.696-0.276,1.235-0.696,1.619
		c-0.552,0.516-1.463,0.755-2.782,0.755c-0.72,0-1.271-0.048-1.619-0.096V146.036z M313.871,149.347h0.947
		c1.091,0,1.739-0.588,1.739-1.367c0-0.936-0.708-1.319-1.763-1.319c-0.48,0-0.755,0.036-0.923,0.072V149.347z M313.871,153.208
		c0.216,0.036,0.503,0.048,0.875,0.048c1.079,0,2.075-0.396,2.075-1.571c0-1.091-0.947-1.559-2.087-1.559h-0.863V153.208z"/>
	<path d="M321.863,145.917h1.056v7.208h3.454V154h-4.51V145.917z"/>
	<path d="M327.923,151.29c0.024,1.427,0.923,2.015,1.991,2.015c0.755,0,1.223-0.132,1.607-0.3l0.192,0.756
		c-0.372,0.168-1.019,0.372-1.943,0.372c-1.787,0-2.854-1.188-2.854-2.938s1.032-3.118,2.723-3.118c1.907,0,2.399,1.655,2.399,2.723
		c0,0.216-0.012,0.372-0.036,0.492H327.923z M331.018,150.534c0.012-0.66-0.276-1.703-1.463-1.703c-1.08,0-1.535,0.971-1.619,1.703
		H331.018z"/>
	<path d="M333.455,154v-5.001h-0.804v-0.803h0.804v-0.276c0-0.815,0.192-1.559,0.672-2.027c0.396-0.384,0.923-0.54,1.415-0.54
		c0.384,0,0.696,0.084,0.899,0.168l-0.144,0.816c-0.156-0.072-0.359-0.132-0.671-0.132c-0.899,0-1.127,0.78-1.127,1.679v0.312h1.403
		v0.803h-1.403V154H333.455z"/>
	<path d="M338.254,146.804v1.392h1.511v0.803h-1.511v3.13c0,0.72,0.204,1.127,0.792,1.127c0.288,0,0.456-0.024,0.611-0.072
		l0.048,0.803c-0.204,0.072-0.528,0.144-0.936,0.144c-0.492,0-0.888-0.168-1.14-0.444c-0.288-0.324-0.408-0.839-0.408-1.523v-3.167
		h-0.899v-0.803h0.899v-1.08L338.254,146.804z"/>
	<path d="M343.535,146.012c0.503-0.084,1.163-0.156,2.003-0.156c1.031,0,1.787,0.24,2.267,0.672
		c0.432,0.384,0.708,0.971,0.708,1.691c0,0.731-0.216,1.307-0.624,1.727c-0.564,0.587-1.451,0.888-2.471,0.888
		c-0.312,0-0.6-0.012-0.839-0.072V154h-1.043V146.012z M344.578,149.91c0.228,0.06,0.516,0.084,0.863,0.084
		c1.259,0,2.027-0.624,2.027-1.715c0-1.08-0.768-1.595-1.907-1.595c-0.456,0-0.804,0.036-0.983,0.084V149.91z"/>
	<path d="M353.648,152.609c0,0.503,0.024,0.995,0.084,1.391h-0.947l-0.084-0.731h-0.036c-0.324,0.456-0.947,0.863-1.775,0.863
		c-1.175,0-1.775-0.828-1.775-1.667c0-1.403,1.247-2.171,3.49-2.159v-0.12c0-0.468-0.132-1.343-1.319-1.331
		c-0.552,0-1.116,0.156-1.523,0.432l-0.24-0.708c0.479-0.3,1.187-0.504,1.919-0.504c1.775,0,2.207,1.211,2.207,2.363V152.609z
		 M352.629,151.038c-1.151-0.024-2.458,0.18-2.458,1.307c0,0.696,0.456,1.008,0.983,1.008c0.768,0,1.259-0.48,1.427-0.972
		c0.036-0.12,0.048-0.24,0.048-0.336V151.038z"/>
	<path d="M355.355,149.766c0-0.611-0.012-1.091-0.048-1.571h0.936l0.06,0.959h0.024c0.288-0.54,0.959-1.08,1.919-1.08
		c0.803,0,2.051,0.48,2.051,2.471V154h-1.056v-3.346c0-0.936-0.348-1.715-1.343-1.715c-0.684,0-1.223,0.492-1.415,1.079
		c-0.048,0.132-0.072,0.312-0.072,0.492V154h-1.056V149.766z"/>
	<path d="M362.603,151.29c0.024,1.427,0.923,2.015,1.991,2.015c0.755,0,1.223-0.132,1.607-0.3l0.192,0.756
		c-0.372,0.168-1.019,0.372-1.943,0.372c-1.787,0-2.854-1.188-2.854-2.938s1.032-3.118,2.723-3.118c1.907,0,2.399,1.655,2.399,2.723
		c0,0.216-0.012,0.372-0.036,0.492H362.603z M365.697,150.534c0.012-0.66-0.276-1.703-1.463-1.703c-1.079,0-1.535,0.971-1.619,1.703
		H365.697z"/>
	<path d="M368.026,145.485h1.056V154h-1.056V145.485z"/>
	<path d="M373.066,154v-0.647l0.828-0.804c1.991-1.895,2.902-2.902,2.902-4.078c0-0.792-0.372-1.523-1.535-1.523
		c-0.708,0-1.295,0.36-1.655,0.66l-0.336-0.744c0.528-0.444,1.307-0.792,2.195-0.792c1.679,0,2.386,1.151,2.386,2.267
		c0,1.439-1.043,2.603-2.686,4.186l-0.612,0.576v0.024h3.49V154H373.066z"/>
	<path d="M384.415,150.018c0,2.651-0.995,4.114-2.71,4.114c-1.523,0-2.566-1.427-2.591-4.006c0-2.626,1.14-4.054,2.723-4.054
		C383.468,146.072,384.415,147.536,384.415,150.018z M380.182,150.138c0,2.027,0.624,3.178,1.583,3.178
		c1.067,0,1.583-1.259,1.583-3.25c0-1.919-0.479-3.179-1.583-3.179C380.854,146.888,380.182,148.015,380.182,150.138z"/>
	<path d="M387.669,147.188h-0.023l-1.355,0.732l-0.204-0.804l1.703-0.912h0.899V154h-1.02V147.188z"/>
	<path d="M392.973,149.898c-0.875-0.408-1.247-1.08-1.247-1.751c0-1.235,1.044-2.075,2.423-2.075c1.511,0,2.278,0.936,2.278,1.919
		c0,0.66-0.335,1.379-1.295,1.823v0.036c0.972,0.384,1.571,1.08,1.571,2.015c0,1.367-1.163,2.267-2.65,2.267
		c-1.632,0-2.615-0.959-2.615-2.099c0-0.983,0.588-1.691,1.548-2.099L392.973,149.898z M395.636,151.973
		c0-0.936-0.66-1.403-1.715-1.703c-0.912,0.264-1.403,0.875-1.403,1.619c-0.036,0.78,0.563,1.475,1.559,1.475
		C395.023,153.364,395.636,152.777,395.636,151.973z M392.733,148.075c-0.013,0.78,0.588,1.199,1.487,1.439
		c0.671-0.228,1.188-0.708,1.188-1.416c0-0.624-0.372-1.271-1.319-1.271C393.213,146.828,392.733,147.404,392.733,148.075z"/>
	<path d="M400.473,150.378v0.768h-2.963v-0.768H400.473z"/>
	<path d="M406.566,150.018c0,2.651-0.995,4.114-2.71,4.114c-1.523,0-2.566-1.427-2.591-4.006c0-2.626,1.14-4.054,2.723-4.054
		C405.619,146.072,406.566,147.536,406.566,150.018z M402.333,150.138c0,2.027,0.624,3.178,1.583,3.178
		c1.067,0,1.583-1.259,1.583-3.25c0-1.919-0.479-3.179-1.583-3.179C403.005,146.888,402.333,148.015,402.333,150.138z"/>
	<path d="M408.969,149.898c-0.875-0.408-1.247-1.08-1.247-1.751c0-1.235,1.044-2.075,2.423-2.075c1.511,0,2.278,0.936,2.278,1.919
		c0,0.66-0.335,1.379-1.295,1.823v0.036c0.972,0.384,1.571,1.08,1.571,2.015c0,1.367-1.163,2.267-2.65,2.267
		c-1.632,0-2.615-0.959-2.615-2.099c0-0.983,0.588-1.691,1.548-2.099L408.969,149.898z M411.632,151.973
		c0-0.936-0.66-1.403-1.715-1.703c-0.912,0.264-1.403,0.875-1.403,1.619c-0.036,0.78,0.563,1.475,1.559,1.475
		C411.02,153.364,411.632,152.777,411.632,151.973z M408.729,148.075c-0.013,0.78,0.588,1.199,1.487,1.439
		c0.671-0.228,1.188-0.708,1.188-1.416c0-0.624-0.372-1.271-1.319-1.271C409.209,146.828,408.729,147.404,408.729,148.075z"/>
	<path d="M416.468,150.378v0.768h-2.963v-0.768H416.468z"/>
	<path d="M419.66,147.188h-0.023l-1.355,0.732l-0.204-0.804l1.703-0.912h0.899V154h-1.02V147.188z"/>
	<path d="M428.718,150.018c0,2.651-0.995,4.114-2.71,4.114c-1.523,0-2.566-1.427-2.591-4.006c0-2.626,1.14-4.054,2.723-4.054
		C427.771,146.072,428.718,147.536,428.718,150.018z M424.484,150.138c0,2.027,0.624,3.178,1.583,3.178
		c1.067,0,1.583-1.259,1.583-3.25c0-1.919-0.479-3.179-1.583-3.179C425.156,146.888,424.484,148.015,424.484,150.138z"/>
	<path d="M432.464,150.378v0.768h-2.963v-0.768H432.464z"/>
	<path d="M438.558,150.018c0,2.651-0.995,4.114-2.71,4.114c-1.523,0-2.566-1.427-2.591-4.006c0-2.626,1.14-4.054,2.723-4.054
		C437.61,146.072,438.558,147.536,438.558,150.018z M434.324,150.138c0,2.027,0.624,3.178,1.583,3.178
		c1.067,0,1.583-1.259,1.583-3.25c0-1.919-0.479-3.179-1.583-3.179C434.996,146.888,434.324,148.015,434.324,150.138z"/>
	<path d="M441.811,147.188h-0.023l-1.355,0.732l-0.204-0.804l1.703-0.912h0.899V154h-1.02V147.188z"/>
</g>
<path fill="none" stroke="#000000" stroke-miterlimit="10" d="M611.811,450.467h1.049c-32.034,0-23.12,0,0,0
	c15.213,0,23.086-12.807,23.086-23.057s0-187.35,0-214.437s-21.007-25.404-28.635-25.404S129.3,204.474,127.822,204.474
	c0,0-30.457-0.164-30.453,25.977c0.004,23.392-0.004,78.901-0.004,78.901V427.41c0,0,0,23.057,23.07,23.057s104.488,0,104.488,0
	h127.559h155.904h56.693h39.686H611.811z"/>
<path d="M111.285,309.352h12.097v117.355h485.856V309.352l0,0c0,0,16.534-4.05,16.534-8.504s0-13.537,0-13.537
	s-9.83-61.277-10.066-62.631c-2.08-11.953-3.986-11.428-12.566-11.142S131.635,226.75,131.635,226.75L111.285,309.352z
	 M146.483,309.352h439.653l0.002,94.959H146.483V309.352z"/>
<circle cx="188.83" cy="323.041" r="9.638"/>
<circle cx="458.829" cy="323.041" r="9.921"/>
<polygon points="326.263,309.352 326.261,404.309 235.555,404.313 235.557,309.352 "/>
</svg>
