<?xml version="1.0" encoding="utf-8"?>
<!-- Generator: Adobe Illustrator 15.0.0, SVG Export Plug-In . SVG Version: 6.00 Build 0)  -->
<!DOCTYPE svg PUBLIC "-//W3C//DTD SVG 1.1//EN" "http://www.w3.org/Graphics/SVG/1.1/DTD/svg11.dtd">
<svg version="1.1" id="Layer_1" xmlns="http://www.w3.org/2000/svg" xmlns:xlink="http://www.w3.org/1999/xlink" x="0px" y="0px"
	 width="792px" height="612px" viewBox="0 0 792 612" enable-background="new 0 0 792 612" xml:space="preserve">
<rect x="157.545" y="331.246" fill="none" stroke="#000000" stroke-miterlimit="10" width="17.008" height="42.52"/>
<polygon stroke="#000000" stroke-miterlimit="10" points="650.771,224.919 650.771,304.291 526.76,304.291 526.758,396.415 
	434.633,396.416 434.635,304.291 140.537,304.291 140.538,207.913 "/>
<polygon fill="none" stroke="#000000" stroke-miterlimit="10" points="157.545,445.407 197.23,445.407 253.924,445.407 
	409.828,445.407 537.387,445.407 594.08,445.407 633.766,445.407 633.766,445.407 650.771,445.407 650.773,445.407 664.945,445.407 
	664.945,304.291 664.941,225.391 651.248,210.753 142.295,193.848 126.365,207.913 126.365,445.407 140.537,445.407 
	140.537,445.407 157.545,445.407 "/>
<rect x="156.553" y="396.416" stroke="#000000" stroke-linecap="round" stroke-linejoin="round" stroke-miterlimit="10" width="478.205" height="18.991"/>
<rect x="615.766" y="304.291" stroke="#000000" stroke-linecap="round" stroke-linejoin="round" stroke-miterlimit="10" width="18.992" height="92.125"/>
<rect x="156.553" y="304.291" stroke="#000000" stroke-linecap="round" stroke-linejoin="round" stroke-miterlimit="10" width="18.992" height="92.125"/>
</svg>
