<?xml version="1.0" encoding="utf-8"?>
<!-- Generator: Adobe Illustrator 15.0.0, SVG Export Plug-In . SVG Version: 6.00 Build 0)  -->
<!DOCTYPE svg PUBLIC "-//W3C//DTD SVG 1.1//EN" "http://www.w3.org/Graphics/SVG/1.1/DTD/svg11.dtd">
<svg version="1.1" id="Layer_1" xmlns="http://www.w3.org/2000/svg" xmlns:xlink="http://www.w3.org/1999/xlink" x="0px" y="0px"
	 width="792px" height="612px" viewBox="0 0 792 612" enable-background="new 0 0 792 612" xml:space="preserve">
<polygon fill="none" stroke="#000000" stroke-miterlimit="10" points="650.773,445.407 650.773,445.407 664.945,445.407 
	664.945,207.913 649.016,182.509 140.063,199.414 126.369,225.391 126.365,304.291 126.365,445.407 140.537,445.407 
	140.539,445.407 157.545,445.407 157.545,445.407 197.23,445.407 253.924,445.407 381.482,445.407 537.387,445.407 594.08,445.407 
	633.766,445.407 "/>
<path d="M160.635,216.021l477.175-16.047c0,0-8.58,0.286,0,0c8.58-0.286,11.088,7.818,12,19.645c0.105,1.371,0.02,0.253,0.02,0.253
	l4.944,62.378c0,0,0,9.083,0,13.537s-17.243,8.504-17.243,8.504H140.287L160.635,216.021z"/>
<polygon fill="#231F20" points="358.519,304.291 358.521,400.67 262.146,400.666 262.144,304.291 "/>
<polygon points="615.137,304.291 615.139,399.251 175.483,399.251 175.483,304.291 152.383,304.291 152.383,421.646 
	638.239,421.646 638.239,304.291 "/>
<circle cx="217.829" cy="352.48" r="9"/>
<circle cx="487.829" cy="352.48" r="9"/>
<g>
	<path d="M245.28,169.229c0.467,0.3,1.139,0.528,1.859,0.528c1.067,0,1.691-0.563,1.691-1.379c0-0.743-0.432-1.187-1.523-1.595
		c-1.319-0.48-2.135-1.176-2.135-2.303c0-1.259,1.043-2.195,2.614-2.195c0.815,0,1.427,0.192,1.775,0.396l-0.288,0.852
		c-0.252-0.156-0.792-0.384-1.523-0.384c-1.103,0-1.523,0.66-1.523,1.211c0,0.755,0.492,1.127,1.607,1.559
		c1.367,0.528,2.051,1.188,2.051,2.375c0,1.248-0.912,2.339-2.819,2.339c-0.779,0-1.631-0.24-2.063-0.528L245.28,169.229z"/>
	<path d="M252.467,163.064c0,0.36-0.252,0.648-0.671,0.648c-0.384,0-0.636-0.288-0.636-0.648s0.264-0.66,0.66-0.66
		C252.203,162.404,252.467,162.692,252.467,163.064z M251.292,170.5v-5.805h1.056v5.805H251.292z"/>
	<path d="M259.101,161.985v7.016c0,0.516,0.024,1.103,0.048,1.499h-0.936l-0.048-1.007h-0.036c-0.312,0.647-1.007,1.139-1.955,1.139
		c-1.403,0-2.495-1.188-2.495-2.95c-0.012-1.931,1.2-3.106,2.603-3.106c0.9,0,1.487,0.42,1.751,0.875h0.024v-3.466H259.101z
		 M258.057,167.058c0-0.132-0.012-0.312-0.048-0.444c-0.156-0.66-0.731-1.211-1.523-1.211c-1.091,0-1.739,0.959-1.739,2.231
		c0,1.175,0.588,2.146,1.715,2.146c0.708,0,1.355-0.479,1.547-1.259c0.036-0.144,0.048-0.288,0.048-0.456V167.058z"/>
	<path d="M261.455,167.79c0.024,1.427,0.923,2.015,1.991,2.015c0.755,0,1.223-0.132,1.607-0.3l0.192,0.756
		c-0.372,0.168-1.019,0.372-1.943,0.372c-1.787,0-2.854-1.188-2.854-2.938s1.032-3.118,2.723-3.118c1.907,0,2.399,1.655,2.399,2.723
		c0,0.216-0.012,0.372-0.036,0.492H261.455z M264.549,167.034c0.012-0.66-0.276-1.703-1.463-1.703c-1.079,0-1.535,0.971-1.619,1.703
		H264.549z"/>
	<path d="M269.447,162.417h1.056v7.208h3.454v0.875h-4.51V162.417z"/>
	<path d="M275.507,167.79c0.024,1.427,0.923,2.015,1.991,2.015c0.755,0,1.223-0.132,1.607-0.3l0.192,0.756
		c-0.372,0.168-1.019,0.372-1.943,0.372c-1.787,0-2.854-1.188-2.854-2.938s1.032-3.118,2.723-3.118c1.907,0,2.399,1.655,2.399,2.723
		c0,0.216-0.012,0.372-0.036,0.492H275.507z M278.601,167.034c0.012-0.66-0.276-1.703-1.463-1.703c-1.079,0-1.535,0.971-1.619,1.703
		H278.601z"/>
	<path d="M281.039,170.5v-5.001h-0.804v-0.803h0.804v-0.276c0-0.815,0.192-1.559,0.672-2.027c0.396-0.384,0.923-0.54,1.415-0.54
		c0.384,0,0.696,0.084,0.899,0.168l-0.144,0.816c-0.156-0.072-0.359-0.132-0.671-0.132c-0.899,0-1.127,0.78-1.127,1.679v0.312h1.403
		v0.803h-1.403v5.001H281.039z"/>
	<path d="M285.838,163.304v1.392h1.511v0.803h-1.511v3.13c0,0.72,0.204,1.127,0.792,1.127c0.288,0,0.456-0.024,0.611-0.072
		l0.048,0.803c-0.204,0.072-0.528,0.144-0.936,0.144c-0.492,0-0.888-0.168-1.14-0.444c-0.288-0.324-0.408-0.839-0.408-1.523v-3.167
		h-0.899v-0.803h0.899v-1.08L285.838,163.304z"/>
	<path d="M293.529,166.878v0.768h-2.962v-0.768H293.529z"/>
	<path d="M296.974,170.5v-0.647l0.828-0.804c1.991-1.895,2.902-2.902,2.902-4.078c0-0.792-0.372-1.523-1.535-1.523
		c-0.708,0-1.295,0.36-1.655,0.66l-0.336-0.744c0.528-0.444,1.307-0.792,2.195-0.792c1.679,0,2.387,1.151,2.387,2.267
		c0,1.439-1.043,2.603-2.687,4.186l-0.612,0.576v0.024h3.49v0.875H296.974z"/>
	<path d="M308.324,166.518c0,2.651-0.996,4.114-2.71,4.114c-1.523,0-2.567-1.427-2.591-4.006c0-2.626,1.14-4.054,2.723-4.054
		C307.376,162.572,308.324,164.036,308.324,166.518z M304.09,166.638c0,2.027,0.624,3.178,1.583,3.178
		c1.067,0,1.583-1.259,1.583-3.25c0-1.919-0.48-3.179-1.583-3.179C304.762,163.388,304.09,164.515,304.09,166.638z"/>
	<path d="M311.577,163.688h-0.024l-1.355,0.732l-0.204-0.804l1.703-0.912h0.9v7.796h-1.02V163.688z"/>
	<path d="M316.881,166.398c-0.875-0.408-1.248-1.08-1.248-1.751c0-1.235,1.043-2.075,2.423-2.075c1.511,0,2.279,0.936,2.279,1.919
		c0,0.66-0.336,1.379-1.295,1.823v0.036c0.972,0.384,1.571,1.08,1.571,2.015c0,1.367-1.164,2.267-2.651,2.267
		c-1.631,0-2.614-0.959-2.614-2.099c0-0.983,0.587-1.691,1.547-2.099L316.881,166.398z M319.544,168.473
		c0-0.936-0.66-1.403-1.715-1.703c-0.912,0.264-1.403,0.875-1.403,1.619c-0.036,0.78,0.564,1.475,1.56,1.475
		C318.932,169.864,319.544,169.277,319.544,168.473z M316.642,164.575c-0.012,0.78,0.587,1.199,1.487,1.439
		c0.672-0.228,1.188-0.708,1.188-1.416c0-0.624-0.372-1.271-1.319-1.271C317.121,163.328,316.642,163.904,316.642,164.575z"/>
	<path d="M324.38,166.878v0.768h-2.962v-0.768H324.38z"/>
	<path d="M330.475,166.518c0,2.651-0.996,4.114-2.71,4.114c-1.523,0-2.567-1.427-2.591-4.006c0-2.626,1.14-4.054,2.723-4.054
		C329.527,162.572,330.475,164.036,330.475,166.518z M326.241,166.638c0,2.027,0.624,3.178,1.583,3.178
		c1.067,0,1.583-1.259,1.583-3.25c0-1.919-0.48-3.179-1.583-3.179C326.913,163.388,326.241,164.515,326.241,166.638z"/>
	<path d="M336.499,162.704v0.696l-3.395,7.1h-1.091l3.382-6.896v-0.024h-3.814v-0.875H336.499z"/>
	<path d="M340.376,166.878v0.768h-2.962v-0.768H340.376z"/>
	<path d="M343.568,163.688h-0.024l-1.355,0.732l-0.204-0.804l1.703-0.912h0.9v7.796h-1.02V163.688z"/>
	<path d="M352.495,162.704v0.696l-3.394,7.1h-1.092l3.382-6.896v-0.024h-3.814v-0.875H352.495z"/>
	<path d="M356.372,166.878v0.768h-2.962v-0.768H356.372z"/>
	<path d="M358.904,167.958l-0.839,2.542h-1.08l2.758-8.083h1.248l2.758,8.083h-1.115l-0.863-2.542H358.904z M361.566,167.142
		l-0.804-2.327c-0.18-0.527-0.3-1.007-0.419-1.475h-0.024c-0.12,0.468-0.24,0.972-0.408,1.463l-0.792,2.338H361.566z"/>
</g>
</svg>
