<?xml version="1.0" encoding="utf-8"?>
<!-- Generator: Adobe Illustrator 15.0.0, SVG Export Plug-In . SVG Version: 6.00 Build 0)  -->
<!DOCTYPE svg PUBLIC "-//W3C//DTD SVG 1.1//EN" "http://www.w3.org/Graphics/SVG/1.1/DTD/svg11.dtd">
<svg version="1.1" id="Layer_1" xmlns="http://www.w3.org/2000/svg" xmlns:xlink="http://www.w3.org/1999/xlink" x="0px" y="0px"
	 width="612px" height="792px" viewBox="0 0 612 792" enable-background="new 0 0 612 792" xml:space="preserve">
<rect x="30.452" y="274.456" fill="none" stroke="#010101" stroke-miterlimit="10" width="884.409" height="100.63"/>
<g>
	<path d="M160.412,224.5v-8.083h1.151l2.579,4.09c0.587,0.947,1.067,1.799,1.439,2.626l0.036-0.012
		c-0.096-1.079-0.12-2.063-0.12-3.322v-3.382h0.983v8.083h-1.055l-2.566-4.102c-0.564-0.9-1.104-1.823-1.5-2.699l-0.036,0.012
		c0.06,1.019,0.072,1.991,0.072,3.334v3.454H160.412z"/>
	<path d="M168.859,221.79c0.024,1.427,0.923,2.015,1.991,2.015c0.755,0,1.223-0.132,1.607-0.3l0.192,0.756
		c-0.372,0.168-1.019,0.372-1.943,0.372c-1.787,0-2.854-1.188-2.854-2.938s1.032-3.118,2.723-3.118c1.907,0,2.399,1.655,2.399,2.723
		c0,0.216-0.012,0.372-0.036,0.492H168.859z M171.954,221.034c0.012-0.66-0.276-1.703-1.463-1.703c-1.079,0-1.535,0.971-1.619,1.703
		H171.954z"/>
	<path d="M174.871,221.79c0.024,1.427,0.923,2.015,1.991,2.015c0.755,0,1.223-0.132,1.607-0.3l0.192,0.756
		c-0.372,0.168-1.019,0.372-1.943,0.372c-1.787,0-2.854-1.188-2.854-2.938s1.032-3.118,2.723-3.118c1.907,0,2.399,1.655,2.399,2.723
		c0,0.216-0.012,0.372-0.036,0.492H174.871z M177.965,221.034c0.012-0.66-0.276-1.703-1.463-1.703c-1.079,0-1.535,0.971-1.619,1.703
		H177.965z"/>
	<path d="M185.297,215.985v7.016c0,0.516,0.024,1.103,0.048,1.499h-0.936l-0.048-1.007h-0.036c-0.312,0.647-1.007,1.139-1.955,1.139
		c-1.403,0-2.495-1.188-2.495-2.95c-0.012-1.931,1.2-3.106,2.603-3.106c0.9,0,1.487,0.42,1.751,0.875h0.024v-3.466H185.297z
		 M184.253,221.058c0-0.132-0.012-0.312-0.048-0.444c-0.156-0.66-0.731-1.211-1.523-1.211c-1.091,0-1.739,0.959-1.739,2.231
		c0,1.175,0.588,2.146,1.715,2.146c0.708,0,1.355-0.479,1.547-1.259c0.036-0.144,0.048-0.288,0.048-0.456V221.058z"/>
	<path d="M190.878,217.304v1.392h1.511v0.803h-1.511v3.13c0,0.72,0.204,1.127,0.792,1.127c0.288,0,0.456-0.024,0.611-0.072
		l0.048,0.803c-0.204,0.072-0.528,0.144-0.936,0.144c-0.492,0-0.888-0.168-1.14-0.444c-0.288-0.324-0.408-0.839-0.408-1.523v-3.167
		h-0.899v-0.803h0.899v-1.08L190.878,217.304z"/>
	<path d="M198.76,221.55c0,2.146-1.499,3.082-2.89,3.082c-1.559,0-2.783-1.151-2.783-2.986c0-1.931,1.284-3.07,2.878-3.07
		C197.633,218.575,198.76,219.787,198.76,221.55z M194.167,221.609c0,1.271,0.72,2.231,1.751,2.231c1.007,0,1.763-0.947,1.763-2.255
		c0-0.983-0.492-2.219-1.739-2.219C194.706,219.367,194.167,220.518,194.167,221.609z"/>
	<path d="M203.059,218.695l0.779,2.95c0.156,0.647,0.312,1.248,0.42,1.847h0.036c0.132-0.588,0.324-1.211,0.516-1.835l0.947-2.962
		h0.888l0.899,2.902c0.216,0.695,0.384,1.307,0.516,1.895h0.036c0.096-0.588,0.252-1.2,0.444-1.883l0.828-2.914h1.043l-1.871,5.805
		h-0.959l-0.888-2.771c-0.204-0.647-0.372-1.223-0.516-1.907h-0.024c-0.144,0.695-0.324,1.295-0.528,1.919l-0.936,2.758h-0.959
		l-1.751-5.805H203.059z"/>
	<path d="M212.646,217.064c0,0.36-0.252,0.648-0.671,0.648c-0.384,0-0.636-0.288-0.636-0.648s0.264-0.66,0.66-0.66
		C212.382,216.404,212.646,216.692,212.646,217.064z M211.471,224.5v-5.805h1.056v5.805H211.471z"/>
	<path d="M219.28,215.985v7.016c0,0.516,0.024,1.103,0.048,1.499h-0.936l-0.048-1.007h-0.036c-0.312,0.647-1.007,1.139-1.955,1.139
		c-1.403,0-2.495-1.188-2.495-2.95c-0.012-1.931,1.2-3.106,2.603-3.106c0.9,0,1.487,0.42,1.751,0.875h0.024v-3.466H219.28z
		 M218.237,221.058c0-0.132-0.012-0.312-0.048-0.444c-0.156-0.66-0.731-1.211-1.523-1.211c-1.091,0-1.739,0.959-1.739,2.231
		c0,1.175,0.588,2.146,1.715,2.146c0.708,0,1.355-0.479,1.547-1.259c0.036-0.144,0.048-0.288,0.048-0.456V221.058z"/>
	<path d="M221.634,221.79c0.024,1.427,0.923,2.015,1.991,2.015c0.755,0,1.223-0.132,1.607-0.3l0.192,0.756
		c-0.372,0.168-1.019,0.372-1.943,0.372c-1.787,0-2.854-1.188-2.854-2.938s1.032-3.118,2.723-3.118c1.907,0,2.399,1.655,2.399,2.723
		c0,0.216-0.012,0.372-0.036,0.492H221.634z M224.729,221.034c0.012-0.66-0.276-1.703-1.463-1.703c-1.08,0-1.535,0.971-1.619,1.703
		H224.729z"/>
	<path d="M227.059,220.266c0-0.611-0.012-1.091-0.048-1.571h0.936l0.06,0.959h0.024c0.288-0.54,0.959-1.08,1.919-1.08
		c0.803,0,2.051,0.48,2.051,2.471v3.454h-1.056v-3.346c0-0.936-0.348-1.715-1.343-1.715c-0.684,0-1.223,0.492-1.415,1.079
		c-0.048,0.132-0.072,0.312-0.072,0.492v3.49h-1.056V220.266z"/>
	<path d="M236.37,224.5v-5.001h-0.804v-0.803h0.804v-0.276c0-0.815,0.192-1.559,0.672-2.027c0.396-0.384,0.923-0.54,1.415-0.54
		c0.384,0,0.696,0.084,0.899,0.168l-0.144,0.816c-0.156-0.072-0.359-0.132-0.671-0.132c-0.899,0-1.127,0.78-1.127,1.679v0.312h1.403
		v0.803h-1.403v5.001H236.37z"/>
	<path d="M244.863,221.55c0,2.146-1.499,3.082-2.89,3.082c-1.559,0-2.783-1.151-2.783-2.986c0-1.931,1.284-3.07,2.878-3.07
		C243.736,218.575,244.863,219.787,244.863,221.55z M240.27,221.609c0,1.271,0.72,2.231,1.751,2.231
		c1.007,0,1.763-0.947,1.763-2.255c0-0.983-0.492-2.219-1.739-2.219C240.81,219.367,240.27,220.518,240.27,221.609z"/>
	<path d="M246.198,220.506c0-0.684-0.012-1.271-0.048-1.811h0.923l0.048,1.151h0.036c0.264-0.78,0.912-1.271,1.619-1.271
		c0.108,0,0.192,0.012,0.288,0.024v0.996c-0.108-0.024-0.216-0.024-0.359-0.024c-0.744,0-1.271,0.552-1.416,1.343
		c-0.024,0.144-0.036,0.324-0.036,0.492v3.094h-1.056V220.506z"/>
	<path d="M252.666,220.266c0-0.611-0.012-1.091-0.048-1.571h0.936l0.06,0.959h0.024c0.288-0.54,0.959-1.08,1.919-1.08
		c0.803,0,2.051,0.48,2.051,2.471v3.454h-1.056v-3.346c0-0.936-0.348-1.715-1.343-1.715c-0.684,0-1.223,0.492-1.415,1.079
		c-0.048,0.132-0.072,0.312-0.072,0.492v3.49h-1.056V220.266z"/>
	<path d="M259.914,221.79c0.024,1.427,0.923,2.015,1.991,2.015c0.755,0,1.223-0.132,1.607-0.3l0.192,0.756
		c-0.372,0.168-1.019,0.372-1.943,0.372c-1.787,0-2.854-1.188-2.854-2.938s1.032-3.118,2.723-3.118c1.907,0,2.399,1.655,2.399,2.723
		c0,0.216-0.012,0.372-0.036,0.492H259.914z M263.008,221.034c0.012-0.66-0.276-1.703-1.463-1.703c-1.079,0-1.535,0.971-1.619,1.703
		H263.008z"/>
	<path d="M265.794,218.695l0.828,1.247c0.228,0.324,0.408,0.612,0.6,0.936h0.024c0.192-0.336,0.384-0.636,0.588-0.947l0.803-1.235
		h1.151l-1.979,2.806l2.027,2.999h-1.188l-0.863-1.307c-0.228-0.336-0.42-0.66-0.624-1.008h-0.024
		c-0.192,0.348-0.384,0.66-0.612,1.008l-0.839,1.307h-1.164l2.063-2.962l-1.967-2.842H265.794z"/>
	<path d="M272.285,217.304v1.392h1.511v0.803h-1.511v3.13c0,0.72,0.204,1.127,0.792,1.127c0.288,0,0.456-0.024,0.612-0.072
		l0.048,0.803c-0.204,0.072-0.528,0.144-0.936,0.144c-0.492,0-0.888-0.168-1.14-0.444c-0.288-0.324-0.408-0.839-0.408-1.523v-3.167
		h-0.899v-0.803h0.899v-1.08L272.285,217.304z"/>
	<path d="M277.53,220.506c0-0.684-0.012-1.271-0.048-1.811h0.923l0.048,1.151h0.036c0.264-0.78,0.912-1.271,1.619-1.271
		c0.108,0,0.192,0.012,0.288,0.024v0.996c-0.108-0.024-0.216-0.024-0.36-0.024c-0.744,0-1.271,0.552-1.416,1.343
		c-0.024,0.144-0.036,0.324-0.036,0.492v3.094h-1.056V220.506z"/>
	<path d="M281.921,221.79c0.024,1.427,0.923,2.015,1.991,2.015c0.755,0,1.223-0.132,1.607-0.3l0.192,0.756
		c-0.372,0.168-1.019,0.372-1.943,0.372c-1.787,0-2.854-1.188-2.854-2.938s1.032-3.118,2.723-3.118c1.907,0,2.399,1.655,2.399,2.723
		c0,0.216-0.012,0.372-0.036,0.492H281.921z M285.016,221.034c0.012-0.66-0.276-1.703-1.463-1.703c-1.08,0-1.535,0.971-1.619,1.703
		H285.016z"/>
	<path d="M287.753,218.695l1.14,3.25c0.192,0.54,0.348,1.02,0.468,1.499h0.036c0.132-0.479,0.3-0.959,0.492-1.499l1.127-3.25h1.104
		l-2.279,5.805h-1.007l-2.207-5.805H287.753z"/>
</g>
<g>
	<path d="M370.04,216.5v-0.647l0.827-0.804c1.991-1.895,2.902-2.902,2.902-4.078c0-0.792-0.372-1.523-1.535-1.523
		c-0.707,0-1.295,0.36-1.655,0.66l-0.336-0.744c0.528-0.444,1.308-0.792,2.195-0.792c1.679,0,2.387,1.151,2.387,2.267
		c0,1.439-1.044,2.603-2.687,4.186l-0.611,0.576v0.024h3.489v0.875H370.04z"/>
	<path d="M381.389,212.518c0,2.651-0.995,4.114-2.71,4.114c-1.523,0-2.566-1.427-2.591-4.006c0-2.626,1.14-4.054,2.723-4.054
		C380.441,208.572,381.389,210.036,381.389,212.518z M377.155,212.638c0,2.027,0.624,3.178,1.583,3.178
		c1.067,0,1.583-1.259,1.583-3.25c0-1.919-0.479-3.179-1.583-3.179C377.827,209.388,377.155,210.515,377.155,212.638z"/>
	<path d="M384.642,209.688h-0.023l-1.355,0.732l-0.204-0.804l1.703-0.912h0.899v7.796h-1.02V209.688z"/>
	<path d="M389.946,212.398c-0.875-0.408-1.247-1.08-1.247-1.751c0-1.235,1.044-2.075,2.423-2.075c1.511,0,2.278,0.936,2.278,1.919
		c0,0.66-0.335,1.379-1.295,1.823v0.036c0.972,0.384,1.571,1.08,1.571,2.015c0,1.367-1.163,2.267-2.65,2.267
		c-1.632,0-2.615-0.959-2.615-2.099c0-0.983,0.588-1.691,1.548-2.099L389.946,212.398z M392.609,214.473
		c0-0.936-0.66-1.403-1.715-1.703c-0.912,0.264-1.403,0.875-1.403,1.619c-0.036,0.78,0.563,1.475,1.559,1.475
		C391.998,215.864,392.609,215.277,392.609,214.473z M389.707,210.575c-0.012,0.78,0.588,1.199,1.487,1.439
		c0.671-0.228,1.187-0.708,1.187-1.416c0-0.624-0.371-1.271-1.318-1.271C390.187,209.328,389.707,209.904,389.707,210.575z"/>
	<path d="M397.445,212.878v0.768h-2.963v-0.768H397.445z"/>
	<path d="M403.54,212.518c0,2.651-0.995,4.114-2.71,4.114c-1.523,0-2.566-1.427-2.591-4.006c0-2.626,1.14-4.054,2.723-4.054
		C402.593,208.572,403.54,210.036,403.54,212.518z M399.307,212.638c0,2.027,0.624,3.178,1.583,3.178
		c1.067,0,1.583-1.259,1.583-3.25c0-1.919-0.479-3.179-1.583-3.179C399.979,209.388,399.307,210.515,399.307,212.638z"/>
	<path d="M405.941,212.398c-0.875-0.408-1.247-1.08-1.247-1.751c0-1.235,1.044-2.075,2.423-2.075c1.511,0,2.278,0.936,2.278,1.919
		c0,0.66-0.335,1.379-1.295,1.823v0.036c0.972,0.384,1.571,1.08,1.571,2.015c0,1.367-1.163,2.267-2.65,2.267
		c-1.632,0-2.615-0.959-2.615-2.099c0-0.983,0.588-1.691,1.548-2.099L405.941,212.398z M408.604,214.473
		c0-0.936-0.66-1.403-1.715-1.703c-0.912,0.264-1.403,0.875-1.403,1.619c-0.036,0.78,0.563,1.475,1.559,1.475
		C407.992,215.864,408.604,215.277,408.604,214.473z M405.702,210.575c-0.013,0.78,0.588,1.199,1.487,1.439
		c0.671-0.228,1.188-0.708,1.188-1.416c0-0.624-0.372-1.271-1.319-1.271C406.182,209.328,405.702,209.904,405.702,210.575z"/>
	<path d="M413.441,212.878v0.768h-2.963v-0.768H413.441z"/>
	<path d="M419.535,212.518c0,2.651-0.995,4.114-2.71,4.114c-1.523,0-2.566-1.427-2.591-4.006c0-2.626,1.14-4.054,2.723-4.054
		C418.588,208.572,419.535,210.036,419.535,212.518z M415.302,212.638c0,2.027,0.624,3.178,1.583,3.178
		c1.067,0,1.583-1.259,1.583-3.25c0-1.919-0.479-3.179-1.583-3.179C415.974,209.388,415.302,210.515,415.302,212.638z"/>
	<path d="M423.761,216.5v-2.135h-3.622v-0.684l3.479-4.978h1.139v4.846h1.092v0.815h-1.092v2.135H423.761z M423.761,213.55v-2.603
		c0-0.408,0.012-0.816,0.036-1.224h-0.036c-0.239,0.456-0.432,0.792-0.647,1.151l-1.907,2.65v0.024H423.761z"/>
	<path d="M429.437,212.878v0.768h-2.963v-0.768H429.437z"/>
	<path d="M435.53,212.518c0,2.651-0.995,4.114-2.71,4.114c-1.523,0-2.566-1.427-2.591-4.006c0-2.626,1.14-4.054,2.723-4.054
		C434.583,208.572,435.53,210.036,435.53,212.518z M431.297,212.638c0,2.027,0.624,3.178,1.583,3.178
		c1.067,0,1.583-1.259,1.583-3.25c0-1.919-0.479-3.179-1.583-3.179C431.969,209.388,431.297,210.515,431.297,212.638z"/>
	<path d="M438.784,209.688h-0.023l-1.355,0.732l-0.204-0.804l1.703-0.912h0.899v7.796h-1.02V209.688z"/>
</g>
</svg>
