<?xml version="1.0" encoding="utf-8"?>
<!-- Generator: Adobe Illustrator 15.0.0, SVG Export Plug-In . SVG Version: 6.00 Build 0)  -->
<!DOCTYPE svg PUBLIC "-//W3C//DTD SVG 1.1//EN" "http://www.w3.org/Graphics/SVG/1.1/DTD/svg11.dtd">
<svg version="1.1" id="Layer_1" xmlns="http://www.w3.org/2000/svg" xmlns:xlink="http://www.w3.org/1999/xlink" x="0px" y="0px"
	 width="612px" height="792px" viewBox="0 0 612 792" enable-background="new 0 0 612 792" xml:space="preserve">
<rect x="24.783" y="138.431" fill="none" stroke="#010101" stroke-miterlimit="10" width="895.748" height="100.629"/>
<g>
	<g id="CIRCLE_10_">
		<path fill="none" stroke="#010101" stroke-miterlimit="10" d="M503.465,189.352c0-14.094,11.422-25.518,25.514-25.518
			s25.516,11.424,25.516,25.518c0,14.092-11.426,25.512-25.52,25.512C514.885,214.863,503.463,203.441,503.465,189.352
			L503.465,189.352z"/>
	</g>
	<g id="CIRCLE_9_">
		<path fill="none" stroke="#010101" stroke-miterlimit="10" d="M266.554,210.576c0-5.48,4.439-9.92,9.92-9.92
			c5.479,0,9.924,4.438,9.924,9.92c0,5.479-4.441,9.922-9.924,9.922C270.994,220.498,266.554,216.055,266.554,210.576
			L266.554,210.576z"/>
	</g>
	<g id="CIRCLE_8_">
		<path fill="none" stroke="#010101" stroke-miterlimit="10" d="M445.938,189.422c-0.037-14.09,11.352-25.547,25.438-25.588
			c14.092-0.041,25.547,11.354,25.586,25.439c0.041,14.092-11.348,25.545-25.438,25.586
			C457.436,214.9,445.977,203.512,445.938,189.422L445.938,189.422z"/>
	</g>
	<g id="CIRCLE_7_">
		<path fill="none" stroke="#010101" stroke-miterlimit="10" d="M154.455,194.615c0-12.506,10.14-22.646,22.647-22.646
			c12.509,0,22.647,10.143,22.647,22.646c0,12.508-10.142,22.645-22.647,22.645C164.595,217.262,154.455,207.123,154.455,194.615
			L154.455,194.615z"/>
	</g>
	<g id="CIRCLE_6_">
		<path fill="none" stroke="#010101" stroke-miterlimit="10" d="M209.663,194.615c0-12.506,10.141-22.646,22.646-22.646
			c12.506,0,22.648,10.143,22.648,22.646c0,12.508-10.142,22.645-22.648,22.645C219.804,217.26,209.663,207.123,209.663,194.615
			L209.663,194.615z"/>
	</g>
	<polygon fill="none" stroke="#010101" stroke-miterlimit="10" points="438.854,222.5 388.295,222.5 388.295,222.5 361.365,222.5 
		361.365,222.5 323.809,222.5 323.809,226.871 289.792,226.871 289.792,199.941 323.809,199.941 323.809,204.5 361.365,204.5 
		361.365,171.813 388.295,171.813 388.295,204.5 438.854,204.5 	"/>
</g>
<g>
	<path d="M164.411,101.417h1.044v3.898h0.036c0.216-0.312,0.432-0.6,0.636-0.864l2.471-3.034h1.295l-2.927,3.43l3.154,4.653h-1.235
		l-2.65-3.97l-0.779,0.887v3.083h-1.044V101.417z"/>
	<path d="M170.915,101.536c0.456-0.108,1.188-0.18,1.907-0.18c1.044,0,1.715,0.18,2.207,0.588c0.42,0.312,0.684,0.792,0.684,1.427
		c0,0.792-0.527,1.475-1.367,1.775v0.036c0.768,0.18,1.667,0.815,1.667,2.015c0,0.696-0.276,1.235-0.695,1.619
		c-0.552,0.516-1.464,0.755-2.783,0.755c-0.72,0-1.271-0.048-1.619-0.096V101.536z M171.959,104.847h0.947
		c1.092,0,1.739-0.588,1.739-1.367c0-0.936-0.708-1.319-1.763-1.319c-0.48,0-0.756,0.036-0.924,0.072V104.847z M171.959,108.708
		c0.216,0.036,0.504,0.048,0.875,0.048c1.08,0,2.075-0.396,2.075-1.571c0-1.091-0.947-1.559-2.087-1.559h-0.863V108.708z"/>
	<path d="M179.963,101.524c0.528-0.096,1.296-0.168,2.003-0.168c1.116,0,1.848,0.216,2.339,0.66c0.396,0.36,0.636,0.912,0.636,1.547
		c0,1.055-0.672,1.763-1.511,2.051v0.036c0.611,0.216,0.983,0.792,1.175,1.631c0.264,1.127,0.456,1.907,0.624,2.219h-1.079
		c-0.133-0.24-0.313-0.923-0.528-1.931c-0.239-1.115-0.684-1.535-1.631-1.571h-0.983v3.502h-1.044V101.524z M181.007,105.207h1.067
		c1.115,0,1.823-0.612,1.823-1.535c0-1.043-0.756-1.5-1.859-1.5c-0.504,0-0.852,0.036-1.031,0.084V105.207z"/>
	<path d="M187.019,106.79c0.024,1.427,0.924,2.015,1.991,2.015c0.756,0,1.224-0.132,1.607-0.3l0.191,0.756
		c-0.372,0.168-1.02,0.372-1.942,0.372c-1.787,0-2.854-1.188-2.854-2.938s1.031-3.118,2.723-3.118c1.906,0,2.398,1.655,2.398,2.723
		c0,0.216-0.012,0.372-0.036,0.492H187.019z M190.113,106.034c0.012-0.66-0.276-1.703-1.463-1.703c-1.08,0-1.535,0.971-1.619,1.703
		H190.113z"/>
	<path d="M196.521,108.109c0,0.503,0.024,0.995,0.084,1.391h-0.947l-0.084-0.731h-0.036c-0.324,0.456-0.947,0.863-1.775,0.863
		c-1.175,0-1.774-0.828-1.774-1.667c0-1.403,1.247-2.171,3.49-2.159v-0.12c0-0.468-0.132-1.343-1.319-1.331
		c-0.552,0-1.115,0.156-1.523,0.432l-0.24-0.708c0.48-0.3,1.188-0.504,1.919-0.504c1.775,0,2.207,1.211,2.207,2.363V108.109z
		 M195.501,106.538c-1.151-0.024-2.458,0.18-2.458,1.307c0,0.696,0.455,1.008,0.983,1.008c0.768,0,1.259-0.48,1.427-0.972
		c0.036-0.12,0.048-0.24,0.048-0.336V106.538z"/>
	<path d="M198.228,105.506c0-0.684-0.013-1.271-0.049-1.811h0.924l0.048,1.151h0.036c0.264-0.78,0.911-1.271,1.619-1.271
		c0.108,0,0.192,0.012,0.288,0.024v0.996c-0.108-0.024-0.216-0.024-0.36-0.024c-0.743,0-1.271,0.552-1.415,1.343
		c-0.023,0.144-0.036,0.324-0.036,0.492v3.094h-1.055V105.506z"/>
	<path d="M204.359,109.5v-0.647l0.827-0.804c1.991-1.895,2.902-2.902,2.902-4.078c0-0.792-0.372-1.523-1.535-1.523
		c-0.707,0-1.295,0.36-1.655,0.66l-0.336-0.744c0.528-0.444,1.308-0.792,2.195-0.792c1.679,0,2.387,1.151,2.387,2.267
		c0,1.439-1.044,2.603-2.687,4.186l-0.611,0.576v0.024h3.489v0.875H204.359z"/>
	<path d="M215.707,105.518c0,2.651-0.995,4.114-2.71,4.114c-1.523,0-2.566-1.427-2.591-4.006c0-2.626,1.14-4.054,2.723-4.054
		C214.76,101.572,215.707,103.036,215.707,105.518z M211.474,105.638c0,2.027,0.624,3.178,1.583,3.178
		c1.067,0,1.583-1.259,1.583-3.25c0-1.919-0.479-3.179-1.583-3.179C212.146,102.388,211.474,103.515,211.474,105.638z"/>
	<path d="M218.961,102.688h-0.023l-1.355,0.732l-0.204-0.804l1.703-0.912h0.899v7.796h-1.02V102.688z"/>
	<path d="M224.266,105.398c-0.875-0.408-1.247-1.08-1.247-1.751c0-1.235,1.044-2.075,2.423-2.075c1.511,0,2.278,0.936,2.278,1.919
		c0,0.66-0.335,1.379-1.295,1.823v0.036c0.972,0.384,1.571,1.08,1.571,2.015c0,1.367-1.163,2.267-2.65,2.267
		c-1.632,0-2.615-0.959-2.615-2.099c0-0.983,0.588-1.691,1.548-2.099L224.266,105.398z M226.929,107.473
		c0-0.936-0.66-1.403-1.715-1.703c-0.912,0.264-1.403,0.875-1.403,1.619c-0.036,0.78,0.563,1.475,1.559,1.475
		C226.316,108.864,226.929,108.277,226.929,107.473z M224.026,103.575c-0.013,0.78,0.588,1.199,1.487,1.439
		c0.671-0.228,1.188-0.708,1.188-1.416c0-0.624-0.372-1.271-1.319-1.271C224.506,102.328,224.026,102.904,224.026,103.575z"/>
	<path d="M231.765,105.878v0.768h-2.963v-0.768H231.765z"/>
	<path d="M237.859,105.518c0,2.651-0.995,4.114-2.71,4.114c-1.523,0-2.566-1.427-2.591-4.006c0-2.626,1.14-4.054,2.723-4.054
		C236.912,101.572,237.859,103.036,237.859,105.518z M233.626,105.638c0,2.027,0.624,3.178,1.583,3.178
		c1.067,0,1.583-1.259,1.583-3.25c0-1.919-0.479-3.179-1.583-3.179C234.298,102.388,233.626,103.515,233.626,105.638z"/>
	<path d="M240.261,105.398c-0.875-0.408-1.247-1.08-1.247-1.751c0-1.235,1.044-2.075,2.423-2.075c1.511,0,2.278,0.936,2.278,1.919
		c0,0.66-0.335,1.379-1.295,1.823v0.036c0.972,0.384,1.571,1.08,1.571,2.015c0,1.367-1.163,2.267-2.65,2.267
		c-1.632,0-2.615-0.959-2.615-2.099c0-0.983,0.588-1.691,1.548-2.099L240.261,105.398z M242.924,107.473
		c0-0.936-0.66-1.403-1.715-1.703c-0.912,0.264-1.403,0.875-1.403,1.619c-0.036,0.78,0.563,1.475,1.559,1.475
		C242.313,108.864,242.924,108.277,242.924,107.473z M240.021,103.575c-0.012,0.78,0.588,1.199,1.487,1.439
		c0.671-0.228,1.187-0.708,1.187-1.416c0-0.624-0.371-1.271-1.318-1.271C240.501,102.328,240.021,102.904,240.021,103.575z"/>
	<path d="M247.761,105.878v0.768h-2.963v-0.768H247.761z"/>
	<path d="M253.854,105.518c0,2.651-0.995,4.114-2.71,4.114c-1.523,0-2.566-1.427-2.591-4.006c0-2.626,1.14-4.054,2.723-4.054
		C252.907,101.572,253.854,103.036,253.854,105.518z M249.621,105.638c0,2.027,0.624,3.178,1.583,3.178
		c1.067,0,1.583-1.259,1.583-3.25c0-1.919-0.479-3.179-1.583-3.179C250.293,102.388,249.621,103.515,249.621,105.638z"/>
	<path d="M259.267,102.448c-0.216-0.012-0.492,0.012-0.792,0.06c-1.667,0.264-2.53,1.463-2.71,2.758h0.023
		c0.372-0.503,1.032-0.911,1.896-0.911c1.379,0,2.351,1.007,2.351,2.519c0,1.439-0.972,2.758-2.603,2.758
		c-1.655,0-2.746-1.295-2.746-3.322c0-1.535,0.539-2.746,1.318-3.514c0.648-0.636,1.512-1.032,2.495-1.151
		c0.312-0.048,0.575-0.06,0.768-0.06V102.448z M258.967,106.945c0-1.115-0.636-1.787-1.607-1.787c-0.636,0-1.235,0.384-1.522,0.959
		c-0.061,0.12-0.108,0.264-0.108,0.456c0.012,1.283,0.611,2.243,1.728,2.243C258.355,108.816,258.967,108.061,258.967,106.945z"/>
	<path d="M263.756,105.878v0.768h-2.963v-0.768H263.756z"/>
	<path d="M269.85,105.518c0,2.651-0.995,4.114-2.71,4.114c-1.523,0-2.566-1.427-2.591-4.006c0-2.626,1.14-4.054,2.723-4.054
		C268.902,101.572,269.85,103.036,269.85,105.518z M265.616,105.638c0,2.027,0.624,3.178,1.583,3.178
		c1.067,0,1.583-1.259,1.583-3.25c0-1.919-0.479-3.179-1.583-3.179C266.288,102.388,265.616,103.515,265.616,105.638z"/>
	<path d="M273.104,102.688h-0.023l-1.355,0.732l-0.204-0.804l1.703-0.912h0.899v7.796h-1.02V102.688z"/>
</g>
<text transform="matrix(1 0 0 1 133.0991 271.0967)" fill="none" stroke="#DD1F26" stroke-miterlimit="10" font-family="'MyriadPro-Regular'" font-size="12">FEATURES HAVE BEEN MOVED. SEE BASEPLATE</text>
<text transform="matrix(1 0 0 1 554.4941 120.0967)" fill="none" stroke="#DD1F26" stroke-miterlimit="10" font-family="'MyriadPro-Regular'" font-size="12">Add cable bushing</text>
<circle fill="none" stroke="#DD1F26" stroke-miterlimit="10" cx="616.075" cy="193.833" r="29.999"/>
</svg>
