<?xml version="1.0" encoding="utf-8"?>
<!-- Generator: Adobe Illustrator 15.0.0, SVG Export Plug-In . SVG Version: 6.00 Build 0)  -->
<!DOCTYPE svg PUBLIC "-//W3C//DTD SVG 1.1//EN" "http://www.w3.org/Graphics/SVG/1.1/DTD/svg11.dtd">
<svg version="1.1" id="Layer_1" xmlns="http://www.w3.org/2000/svg" xmlns:xlink="http://www.w3.org/1999/xlink" x="0px" y="0px"
	 width="2239.371px" height="1088.504px" viewBox="0 0 2239.371 1088.504" enable-background="new 0 0 2239.371 1088.504"
	 xml:space="preserve">
<g>
	<circle fill="none" stroke="#0000FF" stroke-width="0.0283" stroke-miterlimit="10" cx="1268.371" cy="143.246" r="8.504"/>
	<polygon fill="none" stroke="#0000FF" stroke-width="0.0283" stroke-miterlimit="10" points="1246.968,121.988 1229.96,121.988 
		1229.96,164.508 1246.968,164.508 1289.488,164.508 1289.488,121.988 	"/>
</g>
<g>
	<circle fill="none" stroke="#0000FF" stroke-width="0.0283" stroke-miterlimit="10" cx="1319.207" cy="86.345" r="8.504"/>
	<polygon fill="none" stroke="#0000FF" stroke-width="0.0283" stroke-miterlimit="10" points="1340.609,107.604 1357.617,107.604 
		1357.617,65.085 1340.609,65.085 1298.089,65.085 1298.089,107.604 	"/>
</g>
<g>
	<circle fill="none" stroke="#0000FF" stroke-width="0.0283" stroke-miterlimit="10" cx="1319.349" cy="38.167" r="8.504"/>
	<polygon fill="none" stroke="#0000FF" stroke-width="0.0283" stroke-miterlimit="10" points="1340.751,59.427 1357.759,59.427 
		1357.759,16.907 1340.751,16.907 1298.232,16.907 1298.232,59.427 	"/>
</g>
<g>
	<circle fill="none" stroke="#0000FF" stroke-width="0.0283" stroke-miterlimit="10" cx="1268.228" cy="38.165" r="8.504"/>
	<polygon fill="none" stroke="#0000FF" stroke-width="0.0283" stroke-miterlimit="10" points="1246.828,16.907 1229.82,16.907 
		1229.82,59.427 1246.828,59.427 1289.347,59.427 1289.347,16.907 	"/>
</g>
<g>
	<circle fill="none" stroke="#0000FF" stroke-width="0.0283" stroke-miterlimit="10" cx="1179.016" cy="143.248" r="8.504"/>
	<polygon fill="none" stroke="#0000FF" stroke-width="0.0283" stroke-miterlimit="10" points="1200.418,164.508 1217.426,164.508 
		1217.426,121.988 1200.418,121.988 1157.899,121.988 1157.899,164.508 	"/>
</g>
<g>
	<circle fill="none" stroke="#0000FF" stroke-width="0.0283" stroke-miterlimit="10" cx="1268.371" cy="87.871" r="8.504"/>
	<polygon fill="none" stroke="#0000FF" stroke-width="0.0283" stroke-miterlimit="10" points="1246.968,66.613 1229.96,66.613 
		1229.96,109.132 1246.968,109.132 1289.488,109.132 1289.488,66.613 	"/>
</g>
<g>
	<circle fill="none" stroke="#0000FF" stroke-width="0.0283" stroke-miterlimit="10" cx="1179.016" cy="87.873" r="8.504"/>
	<polygon fill="none" stroke="#0000FF" stroke-width="0.0283" stroke-miterlimit="10" points="1200.418,109.132 1217.426,109.132 
		1217.426,66.613 1200.418,66.613 1157.899,66.613 1157.899,109.132 	"/>
</g>
<g>
	<circle fill="none" stroke="#0000FF" stroke-width="0.0283" stroke-miterlimit="10" cx="1179.159" cy="38.167" r="8.504"/>
	<polygon fill="none" stroke="#0000FF" stroke-width="0.0283" stroke-miterlimit="10" points="1200.561,59.427 1217.569,59.427 
		1217.569,16.907 1200.561,16.907 1158.042,16.907 1158.042,59.427 	"/>
</g>
<circle fill="none" stroke="#0000FF" stroke-width="0.0283" stroke-miterlimit="10" cx="1302.373" cy="1029.26" r="11.338"/>
<circle fill="none" stroke="#0000FF" stroke-width="0.0283" stroke-miterlimit="10" cx="1302.373" cy="221.317" r="11.339"/>
<polygon fill="none" stroke="#0000FF" stroke-width="0.0283" stroke-miterlimit="10" points="1340.751,1050.663 1244.375,1050.663 
	1244.375,199.916 1340.751,199.916 1340.751,182.908 1357.759,182.908 1357.759,199.916 1357.759,242.436 1340.751,242.436 
	1340.751,1008 1357.759,1008 1357.759,1050.52 1357.759,1067.527 1340.751,1067.527 "/>
<g>
	<circle fill="none" stroke="#0000FF" stroke-width="0.0283" stroke-miterlimit="10" cx="1193.752" cy="1029.261" r="11.338"/>
	<circle fill="none" stroke="#0000FF" stroke-width="0.0283" stroke-miterlimit="10" cx="1193.752" cy="221.317" r="11.338"/>
	<polygon fill="none" stroke="#0000FF" stroke-width="0.0283" stroke-miterlimit="10" points="1147.808,1050.664 1244.185,1050.664 
		1244.185,199.915 1147.808,199.915 1147.808,182.907 1130.8,182.907 1130.8,199.915 1130.8,242.435 1147.808,242.435 
		1147.808,1008.001 1130.8,1008.001 1130.8,1050.521 1130.8,1067.528 1147.808,1067.528 	"/>
	<g>
		<g id="CIRCLE_5_">
			<path fill="none" stroke="#0000FF" stroke-width="0.0283" stroke-miterlimit="10" d="M1188.231,670.092
				c14.092,0,25.516,11.423,25.516,25.513s-11.424,25.514-25.516,25.514s-25.512-11.426-25.512-25.516
				S1174.141,670.091,1188.231,670.092L1188.231,670.092z"/>
		</g>
		<g id="CIRCLE_4_">
			<path fill="none" stroke="#0000FF" stroke-width="0.0283" stroke-miterlimit="10" d="M1167.006,433.182
				c5.479,0,9.92,4.439,9.92,9.92c0,5.479-4.441,9.923-9.92,9.923s-9.922-4.441-9.922-9.923
				C1157.084,437.622,1161.526,433.182,1167.006,433.182L1167.006,433.182z"/>
		</g>
		<g id="CIRCLE_3_">
			<path fill="none" stroke="#0000FF" stroke-width="0.0283" stroke-miterlimit="10" d="M1188.159,612.564
				c14.09-0.039,25.547,11.351,25.588,25.438c0.041,14.093-11.352,25.548-25.439,25.587c-14.092,0.04-25.545-11.349-25.586-25.438
				S1174.069,612.604,1188.159,612.564L1188.159,612.564z"/>
		</g>
		<g id="CIRCLE_2_">
			<path fill="none" stroke="#0000FF" stroke-width="0.0283" stroke-miterlimit="10" d="M1182.967,321.083
				c12.506,0,22.646,10.14,22.646,22.648c0,12.508-10.143,22.647-22.646,22.647c-12.508,0-22.646-10.142-22.646-22.647
				C1160.319,331.223,1170.459,321.083,1182.967,321.083L1182.967,321.083z"/>
		</g>
		<g id="CIRCLE_1_">
			<path fill="none" stroke="#0000FF" stroke-width="0.0283" stroke-miterlimit="10" d="M1182.967,376.291
				c12.506,0,22.646,10.141,22.646,22.646s-10.143,22.648-22.646,22.648c-12.508,0-22.646-10.143-22.646-22.648
				S1170.459,376.291,1182.967,376.291L1182.967,376.291z"/>
		</g>
		<polygon fill="none" stroke="#0000FF" stroke-width="0.0283" stroke-miterlimit="10" points="1159.922,605.481 1159.922,554.923 
			1157.581,554.923 1157.581,527.992 1159.917,527.992 1159.917,490.436 1150.711,490.436 1150.711,456.42 1177.641,456.42 
			1177.641,490.436 1168.42,490.436 1168.42,527.992 1205.77,527.992 1205.77,554.923 1163.745,554.923 1163.745,605.481 		"/>
	</g>
</g>
<g>
	<g>
		<polyline fill="none" stroke="#0000FF" stroke-width="0.0283" stroke-miterlimit="10" points="2113.481,934.802 2205.606,934.802 
			2205.606,842.677 2113.481,842.677 		"/>
		<polyline fill="none" stroke="#0000FF" stroke-width="0.0283" stroke-miterlimit="10" points="2226.866,817.872 
			2226.866,1072.989 2113.481,1072.989 2034.581,1072.983 2019.944,1059.29 2003.038,550.338 2017.102,534.408 2226.866,534.408 
			2226.866,817.872 		"/>
		
			<line fill="none" stroke="#0000FF" stroke-width="0.0283" stroke-miterlimit="10" x1="2113.481" y1="842.677" x2="2113.481" y2="934.802"/>
	</g>
	<circle fill="none" stroke="#0000FF" stroke-width="0.0283" stroke-miterlimit="10" cx="2071.236" cy="643.541" r="28.347"/>
</g>
<g>
	<polyline fill="none" stroke="#0000FF" stroke-width="0.0283" stroke-miterlimit="10" points="1683,672.596 1775.125,672.596 
		1775.125,764.721 1683,764.721 	"/>
	<polyline fill="none" stroke="#0000FF" stroke-width="0.0283" stroke-miterlimit="10" points="1796.385,789.525 1796.385,534.408 
		1683,534.408 1604.1,534.414 1589.463,548.107 1572.557,1057.06 1586.622,1072.989 1796.385,1072.989 1796.385,789.525 	"/>
	<line fill="none" stroke="#0000FF" stroke-width="0.0283" stroke-miterlimit="10" x1="1683" y1="764.721" x2="1683" y2="672.596"/>
</g>
<circle fill="none" stroke="#0000FF" stroke-width="0.0283" stroke-miterlimit="10" cx="1393.672" cy="439.368" r="11.338"/>
<circle fill="none" stroke="#0000FF" stroke-width="0.0283" stroke-miterlimit="10" cx="2201.615" cy="439.498" r="11.339"/>
<circle fill="none" stroke="#0000FF" stroke-width="0.0283" stroke-miterlimit="10" cx="2201.615" cy="99.335" r="11.339"/>
<circle fill="none" stroke="#0000FF" stroke-width="0.0283" stroke-miterlimit="10" cx="1393.672" cy="99.21" r="11.338"/>
<polygon fill="none" stroke="#0000FF" stroke-width="0.0283" stroke-miterlimit="10" points="1413.548,524.408 2181.739,524.408 
	2181.739,507.4 2224.258,507.4 2224.258,467.714 2224.258,411.023 2224.258,127.556 2224.258,70.865 2224.258,31.179 
	2181.739,31.179 2181.739,14.171 1413.549,14.171 1413.549,31.179 1371.03,31.179 1371.03,70.865 1371.03,127.558 1371.03,411.021 
	1371.03,467.714 1371.03,507.4 1413.549,507.4 "/>
<g>
	
		<rect x="1382.49" y="612.359" fill="none" stroke="#0000FF" stroke-width="0.0283" stroke-miterlimit="10" width="17.008" height="42.52"/>
	
		<rect x="1382.657" y="952.518" fill="none" stroke="#0000FF" stroke-width="0.0283" stroke-miterlimit="10" width="17.008" height="42.52"/>
	
		<rect x="1409.447" y="565.588" fill="none" stroke="#0000FF" stroke-width="0.0283" stroke-miterlimit="10" width="42.52" height="17.008"/>
	
		<rect x="1409.447" y="1024.801" fill="none" stroke="#0000FF" stroke-width="0.0283" stroke-miterlimit="10" width="42.52" height="17.008"/>
	<polygon fill="none" stroke="#0000FF" stroke-width="0.0283" stroke-miterlimit="10" points="1558.292,1058.815 1478.921,1058.814 
		1478.921,934.802 1386.796,934.801 1386.796,842.676 1478.921,842.677 1478.921,548.58 1575.3,548.581 	"/>
	<polygon fill="none" stroke="#0000FF" stroke-width="0.0283" stroke-miterlimit="10" points="1365.538,565.588 1365.538,605.273 
		1365.538,661.967 1365.538,817.871 1365.538,945.43 1365.538,1002.123 1365.538,1041.809 1382.782,1041.809 1382.782,1058.814 
		1365.538,1058.816 1365.538,1072.988 1478.921,1072.988 1557.822,1072.983 1572.458,1059.29 1589.365,550.338 1575.3,534.408 
		1365.538,534.408 1365.538,548.58 1382.782,548.58 1382.782,565.588 	"/>
</g>
<rect x="1797.643" y="952.518" fill="none" stroke="#0000FF" stroke-width="0.0283" stroke-miterlimit="10" width="17.008" height="42.52"/>
<rect x="1797.81" y="612.359" fill="none" stroke="#0000FF" stroke-width="0.0283" stroke-miterlimit="10" width="17.008" height="42.52"/>
<rect x="1824.599" y="1024.801" fill="none" stroke="#0000FF" stroke-width="0.0283" stroke-miterlimit="10" width="42.52" height="17.008"/>
<rect x="1824.599" y="565.588" fill="none" stroke="#0000FF" stroke-width="0.0283" stroke-miterlimit="10" width="42.521" height="17.008"/>
<polygon fill="none" stroke="#0000FF" stroke-width="0.0283" stroke-miterlimit="10" points="1990.453,1058.816 1894.074,1058.816 
	1894.075,764.721 1801.949,764.721 1801.949,672.596 1894.075,672.596 1894.075,548.582 1973.446,548.582 "/>
<polygon fill="none" stroke="#0000FF" stroke-width="0.0283" stroke-miterlimit="10" points="1813.493,1041.809 1813.493,1058.816 
	1796.247,1058.816 1796.247,1072.989 2006.01,1072.989 2020.075,1057.06 2003.169,548.107 1988.533,534.414 1909.632,534.408 
	1796.247,534.408 1796.247,548.58 1813.493,548.582 1813.493,565.588 1796.247,565.588 1796.247,605.273 1796.247,661.967 
	1796.247,789.525 1796.247,945.431 1796.247,1002.123 1796.247,1041.809 "/>
<path fill="none" stroke="#0000FF" stroke-width="0.0283" stroke-miterlimit="10" d="M1690.477,478.474
	c0-2.506-2.031-4.535-4.535-4.535s-4.535,2.031-4.535,4.535s2.031,4.535,4.535,4.535S1690.477,480.978,1690.477,478.474"/>
<path fill="none" stroke="#0000FF" stroke-width="0.0283" stroke-miterlimit="10" d="M1690.477,393.455
	c0-2.506-2.031-4.535-4.535-4.535s-4.535,2.031-4.535,4.535s2.031,4.535,4.535,4.535S1690.477,395.96,1690.477,393.455"/>
<path fill="none" stroke="#0000FF" stroke-width="0.0283" stroke-miterlimit="10" d="M1805.317,393.455
	c0-2.506-2.031-4.535-4.535-4.535s-4.535,2.031-4.535,4.535s2.031,4.535,4.535,4.535S1805.317,395.96,1805.317,393.455"/>
<path fill="none" stroke="#0000FF" stroke-width="0.0283" stroke-miterlimit="10" d="M1833.637,393.455
	c0-2.506-2.031-4.535-4.535-4.535s-4.535,2.031-4.535,4.535s2.031,4.535,4.535,4.535S1833.637,395.96,1833.637,393.455"/>
<path fill="none" stroke="#0000FF" stroke-width="0.0283" stroke-miterlimit="10" d="M1833.637,478.474
	c0-2.506-2.031-4.535-4.535-4.535s-4.535,2.031-4.535,4.535s2.031,4.535,4.535,4.535S1833.637,480.978,1833.637,478.474"/>
<path fill="none" stroke="#0000FF" stroke-width="0.0283" stroke-miterlimit="10" d="M2009.375,393.455
	c0-2.506-2.029-4.537-4.535-4.535c-2.506,0-4.535,2.031-4.535,4.535s2.029,4.535,4.535,4.535S2009.375,395.96,2009.375,393.455"/>
<path fill="none" stroke="#0000FF" stroke-width="0.0283" stroke-miterlimit="10" d="M2124.215,393.455
	c0-2.506-2.029-4.535-4.535-4.535c-2.504,0-4.535,2.031-4.535,4.535s2.031,4.535,4.535,4.535
	C2122.186,397.99,2124.215,395.96,2124.215,393.455"/>
<path fill="none" stroke="#0000FF" stroke-width="0.0283" stroke-miterlimit="10" d="M2124.215,478.474
	c0-2.506-2.029-4.535-4.535-4.535c-2.504,0-4.535,2.031-4.533,4.535c0,2.504,2.029,4.535,4.533,4.535
	C2122.186,483.009,2124.215,480.978,2124.215,478.474"/>
</svg>
