<?xml version="1.0" encoding="utf-8"?>
<!-- Generator: Adobe Illustrator 15.0.0, SVG Export Plug-In . SVG Version: 6.00 Build 0)  -->
<!DOCTYPE svg PUBLIC "-//W3C//DTD SVG 1.1//EN" "http://www.w3.org/Graphics/SVG/1.1/DTD/svg11.dtd">
<svg version="1.1" xmlns="http://www.w3.org/2000/svg" xmlns:xlink="http://www.w3.org/1999/xlink" x="0px" y="0px"
	 width="2239.371px" height="1088.504px" viewBox="0 0 2239.371 1088.504" enable-background="new 0 0 2239.371 1088.504"
	 xml:space="preserve">
<g id="Layer_1">
	<rect x="-611.541" y="845.152" fill="none" width="378.599" height="268"/>
	<text transform="matrix(1 0 0 1 -611.541 896.2715)" display="none"><tspan x="0" y="0" display="inline" font-family="'MyriadPro-Regular'" font-size="72">BOTTOM is </tspan><tspan x="0" y="86.4" display="inline" font-family="'MyriadPro-Regular'" font-size="72">flipped!!!!</tspan></text>
	<g display="none">
		<circle display="inline" fill="none" stroke="#000000" stroke-miterlimit="10" cx="1604.595" cy="548.012" r="7.229"/>
		<polygon display="inline" fill="none" stroke="#000000" stroke-miterlimit="10" points="1618.768,539.508 1618.768,533.839 
			1590.421,533.839 1590.421,562.186 1618.768,562.186 1618.768,556.516 1635.776,556.516 1635.776,539.508 		"/>
	</g>
	<g>
		
			<path fill="none" stroke="#000000" stroke-width="1.4166" stroke-linecap="round" stroke-linejoin="round" stroke-miterlimit="10" d="
			M279.681,607.826"/>
		
			<polyline fill="none" stroke="#000000" stroke-width="1.4166" stroke-linecap="round" stroke-linejoin="round" stroke-miterlimit="10" points="
			166.296,724.756 258.421,724.756 258.421,632.631 166.296,632.631 		"/>
		
			<polyline fill="none" stroke="#000000" stroke-width="1.4166" stroke-linecap="round" stroke-linejoin="round" stroke-miterlimit="10" points="
			279.681,607.826 279.681,862.943 166.296,862.943 87.396,862.938 72.759,849.244 55.853,340.292 69.917,324.362 279.681,324.362 
			279.681,607.826 		"/>
		
			<line fill="none" stroke="#000000" stroke-width="1.4166" stroke-linecap="round" stroke-linejoin="round" stroke-miterlimit="10" x1="166.296" y1="632.631" x2="166.296" y2="724.756"/>
	</g>
	
		<circle fill="none" stroke="#000000" stroke-width="1.4166" stroke-linecap="round" stroke-linejoin="round" stroke-miterlimit="10" cx="124.051" cy="433.496" r="28.346"/>
	<g>
		
			<path fill="none" stroke="#000000" stroke-width="1.4166" stroke-linecap="round" stroke-linejoin="round" stroke-miterlimit="10" d="
			M1900.279,607.826"/>
		
			<polyline fill="none" stroke="#000000" stroke-width="1.4166" stroke-linecap="round" stroke-linejoin="round" stroke-miterlimit="10" points="
			2013.664,724.756 1921.539,724.756 1921.539,632.631 2013.664,632.631 		"/>
		
			<polyline fill="none" stroke="#000000" stroke-width="1.4166" stroke-linecap="round" stroke-linejoin="round" stroke-miterlimit="10" points="
			1900.279,607.826 1900.279,862.943 2013.664,862.943 2092.564,862.938 2107.201,849.244 2124.107,340.292 2110.042,324.362 
			1900.279,324.362 1900.279,607.826 		"/>
		
			<line fill="none" stroke="#000000" stroke-width="1.4166" stroke-linecap="round" stroke-linejoin="round" stroke-miterlimit="10" x1="2013.664" y1="632.631" x2="2013.664" y2="724.756"/>
	</g>
	
		<rect x="1674.08" y="402.314" fill="none" stroke="#000000" stroke-width="1.4166" stroke-linecap="round" stroke-linejoin="round" stroke-miterlimit="10" width="17.008" height="42.52"/>
	<g>
		<circle fill="none" stroke="#000000" stroke-miterlimit="10" cx="501.049" cy="981.287" r="8.504"/>
		<polygon fill="none" stroke="#000000" stroke-miterlimit="10" points="479.647,960.029 462.64,960.029 462.64,1002.549 
			479.647,1002.549 522.167,1002.549 522.167,960.029 		"/>
	</g>
	<g>
		<circle fill="none" stroke="#000000" stroke-miterlimit="10" cx="575.593" cy="981.289" r="8.504"/>
		<polygon fill="none" stroke="#000000" stroke-miterlimit="10" points="596.995,1002.549 614.003,1002.549 614.003,960.029 
			596.995,960.029 554.476,960.029 554.476,1002.549 		"/>
	</g>
	<g>
		<circle fill="none" stroke="#000000" stroke-miterlimit="10" cx="575.735" cy="933.111" r="8.504"/>
		<polygon fill="none" stroke="#000000" stroke-miterlimit="10" points="597.138,954.371 614.146,954.371 614.146,911.852 
			597.138,911.852 554.618,911.852 554.618,954.371 		"/>
	</g>
	<g>
		<circle fill="none" stroke="#000000" stroke-miterlimit="10" cx="500.907" cy="933.109" r="8.504"/>
		<polygon fill="none" stroke="#000000" stroke-miterlimit="10" points="479.506,911.852 462.498,911.852 462.498,954.371 
			479.506,954.371 522.025,954.371 522.025,911.852 		"/>
	</g>
	<g>
		<circle fill="none" stroke="#000000" stroke-miterlimit="10" cx="300.359" cy="981.287" r="8.504"/>
		<polygon fill="none" stroke="#000000" stroke-miterlimit="10" points="278.958,960.029 261.95,960.029 261.95,1002.549 
			278.958,1002.549 321.478,1002.549 321.478,960.029 		"/>
	</g>
	<g>
		<circle fill="none" stroke="#000000" stroke-miterlimit="10" cx="374.903" cy="981.289" r="8.504"/>
		<polygon fill="none" stroke="#000000" stroke-miterlimit="10" points="396.306,1002.549 413.313,1002.549 413.313,960.029 
			396.306,960.029 353.786,960.029 353.786,1002.549 		"/>
	</g>
	<g>
		<circle fill="none" stroke="#000000" stroke-miterlimit="10" cx="375.046" cy="933.111" r="8.504"/>
		<polygon fill="none" stroke="#000000" stroke-miterlimit="10" points="396.448,954.371 413.456,954.371 413.456,911.852 
			396.448,911.852 353.929,911.852 353.929,954.371 		"/>
	</g>
	<g>
		<circle fill="none" stroke="#000000" stroke-miterlimit="10" cx="300.218" cy="933.109" r="8.504"/>
		<polygon fill="none" stroke="#000000" stroke-miterlimit="10" points="278.816,911.852 261.809,911.852 261.809,954.371 
			278.816,954.371 321.336,954.371 321.336,911.852 		"/>
	</g>
	<rect x="1674.247" y="742.473" fill="none" stroke="#000000" stroke-miterlimit="10" width="17.008" height="42.52"/>
	<circle fill="none" stroke="#000000" stroke-miterlimit="10" cx="1527.58" cy="423.575" r="11.338"/>
	<circle fill="none" stroke="#000000" stroke-miterlimit="10" cx="1527.58" cy="228.44" r="11.338"/>
	<circle fill="none" stroke="#000000" stroke-miterlimit="10" cx="719.638" cy="423.444" r="11.338"/>
	<circle fill="none" stroke="#000000" stroke-miterlimit="10" cx="719.638" cy="228.439" r="11.338"/>
	<circle fill="none" stroke="#000000" stroke-miterlimit="10" cx="719.638" cy="763.606" r="11.338"/>
	<circle fill="none" stroke="#000000" stroke-miterlimit="10" cx="1527.58" cy="763.732" r="11.338"/>
	
		<rect x="1701.037" y="355.543" fill="none" stroke="#000000" stroke-width="1.4166" stroke-linecap="round" stroke-linejoin="round" stroke-miterlimit="10" width="42.52" height="17.008"/>
	
		<rect x="1701.037" y="814.756" fill="none" stroke="#000000" stroke-width="1.4166" stroke-linecap="round" stroke-linejoin="round" stroke-miterlimit="10" width="42.52" height="17.008"/>
	
		<polygon fill="none" stroke="#000000" stroke-width="1.4166" stroke-linecap="round" stroke-linejoin="round" stroke-miterlimit="10" points="
		1507.704,338.535 739.514,338.535 739.514,355.543 696.995,355.543 696.995,395.228 696.995,451.92 696.995,735.386 
		696.995,792.078 696.995,831.764 739.514,831.764 739.514,848.771 1507.704,848.771 1507.704,831.764 1550.223,831.764 
		1550.223,792.078 1550.223,735.385 1550.223,451.921 1550.223,395.228 1550.223,355.543 1507.704,355.543 	"/>
	
		<polygon fill="none" stroke="#000000" stroke-width="1.4166" stroke-linecap="round" stroke-linejoin="round" stroke-miterlimit="10" points="
		1849.882,848.77 1770.511,848.77 1770.511,724.756 1678.386,724.756 1678.386,632.631 1770.511,632.631 1770.511,338.535 
		1866.89,338.535 	"/>
	
		<path fill="none" stroke="#000000" stroke-width="1.4166" stroke-linecap="round" stroke-linejoin="round" stroke-miterlimit="10" d="
		M1657.126,338.535"/>
	
		<polygon fill="none" stroke="#000000" stroke-width="1.4166" stroke-linecap="round" stroke-linejoin="round" stroke-miterlimit="10" points="
		1657.126,355.542 1657.126,395.228 1657.126,451.921 1657.126,607.826 1657.126,735.385 1657.126,792.078 1657.126,831.764 
		1674.372,831.764 1674.372,848.77 1657.126,848.771 1657.126,862.943 1770.511,862.943 1849.412,862.938 1864.048,849.244 
		1880.955,340.292 1866.89,324.362 1657.126,324.362 1657.126,338.535 1674.372,338.535 1674.372,355.543 	"/>
	
		<rect x="527.912" y="402.314" fill="none" stroke="#000000" stroke-width="1.4166" stroke-linecap="round" stroke-linejoin="round" stroke-miterlimit="10" width="17.008" height="42.52"/>
	<rect x="527.745" y="742.473" fill="none" stroke="#000000" stroke-miterlimit="10" width="17.008" height="42.52"/>
	
		<rect x="475.444" y="355.543" fill="none" stroke="#000000" stroke-width="1.4166" stroke-linecap="round" stroke-linejoin="round" stroke-miterlimit="10" width="42.52" height="17.008"/>
	
		<rect x="475.444" y="814.756" fill="none" stroke="#000000" stroke-width="1.4166" stroke-linecap="round" stroke-linejoin="round" stroke-miterlimit="10" width="42.52" height="17.008"/>
	
		<polygon fill="none" stroke="#000000" stroke-width="1.4166" stroke-linecap="round" stroke-linejoin="round" stroke-miterlimit="10" points="
		352.11,338.535 448.489,338.535 448.489,632.631 540.614,632.631 540.614,724.756 448.489,724.756 448.489,848.77 369.118,848.77 	
		"/>
	
		<path fill="none" stroke="#000000" stroke-width="1.4166" stroke-linecap="round" stroke-linejoin="round" stroke-miterlimit="10" d="
		M561.874,338.535"/>
	
		<polygon fill="none" stroke="#000000" stroke-width="1.4166" stroke-linecap="round" stroke-linejoin="round" stroke-miterlimit="10" points="
		544.628,355.543 544.628,338.535 561.874,338.535 561.874,324.362 352.11,324.362 338.046,340.292 354.952,849.244 
		369.589,862.938 448.489,862.943 561.874,862.943 561.874,848.771 544.628,848.77 544.628,831.764 561.874,831.764 
		561.874,792.078 561.874,735.385 561.874,607.826 561.874,451.921 561.874,395.228 561.874,355.542 	"/>
	
		<polygon fill="none" stroke="#000000" stroke-width="1.4166" stroke-linecap="round" stroke-linejoin="round" stroke-miterlimit="10" points="
		1548.983,276.625 1548.983,180.248 698.235,180.248 698.235,276.625 681.228,276.625 681.228,293.633 698.235,293.633 
		740.755,293.633 740.755,276.625 1506.32,276.625 1506.32,293.633 1548.839,293.633 1565.847,293.633 1565.847,276.625 	"/>
	<circle fill="none" stroke="#000000" stroke-miterlimit="10" cx="1527.58" cy="950.114" r="11.338"/>
	<circle fill="none" stroke="#000000" stroke-miterlimit="10" cx="719.638" cy="950.115" r="11.338"/>
	
		<polygon fill="none" stroke="#000000" stroke-width="1.4166" stroke-linecap="round" stroke-linejoin="round" stroke-miterlimit="10" points="
		1548.983,901.93 1548.983,998.307 698.235,998.307 698.235,901.93 681.228,901.93 681.228,884.922 698.235,884.922 
		740.755,884.922 740.755,901.93 1506.32,901.93 1506.32,884.922 1548.839,884.922 1565.847,884.922 1565.847,901.93 	"/>
	<text transform="matrix(1 0 0 1 982.8994 149.8662)" font-family="'MyriadPro-Regular'" font-size="24">Outside</text>
	<g>
		<g id="CIRCLE_5_">
			<path fill="none" stroke="#0000FF" stroke-width="0.0283" stroke-miterlimit="10" d="M1168.412,233.96
				c0-14.092,11.422-25.516,25.512-25.516s25.514,11.424,25.514,25.516s-11.424,25.512-25.514,25.512
				S1168.412,248.05,1168.412,233.96L1168.412,233.96z"/>
		</g>
		<g id="CIRCLE_4_">
			<path fill="none" stroke="#0000FF" stroke-width="0.0283" stroke-miterlimit="10" d="M931.502,255.185
				c0-5.479,4.439-9.92,9.92-9.92c5.479,0,9.923,4.441,9.923,9.92s-4.441,9.922-9.923,9.922
				C935.942,265.106,931.502,260.665,931.502,255.185L931.502,255.185z"/>
		</g>
		<g id="CIRCLE_3_">
			<path fill="none" stroke="#0000FF" stroke-width="0.0283" stroke-miterlimit="10" d="M1110.884,234.032
				c-0.039-14.09,11.351-25.547,25.438-25.588c14.093-0.041,25.548,11.352,25.587,25.439c0.041,14.092-11.349,25.545-25.438,25.586
				C1122.382,259.511,1110.925,248.122,1110.884,234.032L1110.884,234.032z"/>
		</g>
		<g id="CIRCLE_2_">
			<path fill="none" stroke="#0000FF" stroke-width="0.0283" stroke-miterlimit="10" d="M819.404,239.224
				c0-12.506,10.14-22.646,22.648-22.646c12.508,0,22.647,10.143,22.647,22.646c0,12.508-10.142,22.646-22.647,22.646
				C829.543,261.872,819.404,251.731,819.404,239.224L819.404,239.224z"/>
		</g>
		<g id="CIRCLE_1_">
			<path fill="none" stroke="#0000FF" stroke-width="0.0283" stroke-miterlimit="10" d="M874.611,239.224
				c0-12.506,10.141-22.646,22.646-22.646s22.648,10.143,22.648,22.646c0,12.508-10.143,22.646-22.648,22.646
				C884.751,261.871,874.611,251.731,874.611,239.224L874.611,239.224z"/>
		</g>
		<polygon fill="none" stroke="#0000FF" stroke-width="0.0283" stroke-miterlimit="10" points="1103.802,262.269 1053.243,262.269 
			1053.243,264.61 1026.312,264.61 1026.312,262.274 988.756,262.274 988.756,271.479 954.741,271.479 954.741,244.55 
			988.756,244.55 988.756,253.771 1026.312,253.771 1026.312,216.422 1053.243,216.422 1053.243,258.446 1103.802,258.446 		"/>
	</g>
	<polygon display="none" fill="none" stroke="#0000FF" stroke-width="0.0283" stroke-miterlimit="10" points="783.185,275.831 
		803.028,275.831 803.028,284.335 831.375,284.335 831.375,275.831 1205.547,275.831 1205.547,284.335 1233.894,284.335 
		1233.894,275.831 1253.737,275.831 1253.737,231.449 1245.233,231.449 1245.233,203.104 1253.737,203.104 1253.737,158.37 
		1233.894,158.37 1233.894,149.866 1205.547,149.866 1205.547,158.37 831.375,158.37 831.375,149.866 803.028,149.866 
		803.028,158.37 783.185,158.37 783.185,203.104 791.689,203.104 791.689,231.449 783.185,231.449 	"/>
	<path fill="none" stroke="#0000FF" stroke-width="0.0283" stroke-miterlimit="10" d="M1230.775,384.468
		c0,2.506,2.031,4.535,4.536,4.535c2.503,0,4.535-2.031,4.535-4.535s-2.032-4.535-4.535-4.535
		C1232.806,379.933,1230.775,381.964,1230.775,384.468"/>
	<path fill="none" stroke="#0000FF" stroke-width="0.0283" stroke-miterlimit="10" d="M1230.775,469.487
		c0,2.506,2.031,4.535,4.536,4.535c2.503,0,4.535-2.031,4.535-4.535s-2.032-4.534-4.535-4.534
		C1232.806,464.953,1230.775,466.981,1230.775,469.487"/>
	<path fill="none" stroke="#0000FF" stroke-width="0.0283" stroke-miterlimit="10" d="M1115.935,469.487
		c0,2.506,2.031,4.535,4.535,4.535s4.536-2.031,4.536-4.535s-2.032-4.534-4.536-4.534S1115.935,466.981,1115.935,469.487"/>
	<path fill="none" stroke="#0000FF" stroke-width="0.0283" stroke-miterlimit="10" d="M1087.615,469.487
		c0,2.506,2.031,4.535,4.535,4.535s4.535-2.031,4.535-4.535s-2.031-4.534-4.535-4.534S1087.615,466.981,1087.615,469.487"/>
	<path fill="none" stroke="#0000FF" stroke-width="0.0283" stroke-miterlimit="10" d="M1087.615,384.468
		c0,2.506,2.031,4.535,4.535,4.535s4.535-2.031,4.535-4.535s-2.031-4.535-4.535-4.535S1087.615,381.964,1087.615,384.468"/>
	<path fill="none" stroke="#0000FF" stroke-width="0.0283" stroke-miterlimit="10" d="M911.876,469.487
		c0,2.506,2.029,4.537,4.535,4.535c2.506,0,4.535-2.031,4.535-4.535s-2.028-4.534-4.535-4.534
		C913.906,464.953,911.876,466.981,911.876,469.487"/>
	<path fill="none" stroke="#0000FF" stroke-width="0.0283" stroke-miterlimit="10" d="M797.037,469.487
		c0,2.506,2.029,4.535,4.535,4.535c2.505,0,4.535-2.031,4.535-4.535s-2.03-4.534-4.535-4.534
		C799.066,464.953,797.037,466.981,797.037,469.487"/>
	<path display="none" fill="none" stroke="#0000FF" stroke-width="0.0283" stroke-miterlimit="10" d="M1230.775,523.967
		c0,2.506,2.031,4.535,4.536,4.535c2.503,0,4.535-2.031,4.535-4.535s-2.032-4.535-4.535-4.535
		C1232.806,519.432,1230.775,521.461,1230.775,523.967"/>
	<path display="none" fill="none" stroke="#0000FF" stroke-width="0.0283" stroke-miterlimit="10" d="M1115.935,523.967
		c0,2.506,2.031,4.535,4.535,4.535s4.536-2.031,4.536-4.535s-2.032-4.535-4.536-4.535S1115.935,521.461,1115.935,523.967"/>
	<path display="none" fill="none" stroke="#0000FF" stroke-width="0.0283" stroke-miterlimit="10" d="M797.037,523.967
		c0,2.506,2.029,4.535,4.535,4.535c2.505,0,4.535-2.031,4.535-4.535s-2.03-4.535-4.535-4.535
		C799.066,519.432,797.037,521.461,797.037,523.967"/>
	<path fill="none" stroke="#0000FF" stroke-width="0.0283" stroke-miterlimit="10" d="M797.037,384.468
		c0,2.506,2.029,4.535,4.535,4.535c2.505,0,4.535-2.031,4.534-4.535c0-2.504-2.029-4.535-4.534-4.535
		C799.066,379.933,797.037,381.964,797.037,384.468"/>
	<path display="none" fill="none" stroke="#0000FF" stroke-width="0.0283" stroke-miterlimit="10" d="M1262.24,355.535v227.348
		c0,9.389-7.611,17-17,17H791.68c-9.389,0-17-7.611-17-17V355.535c0-9.389,7.611-17,17-17h453.56
		C1254.628,338.535,1262.24,346.146,1262.24,355.535L1262.24,355.535z"/>
	
		<rect x="782.759" y="455.03" display="none" fill="none" stroke="#0000FF" stroke-width="0.0283" stroke-miterlimit="10" width="9.354" height="28.914"/>
	
		<rect x="803.025" y="347.039" display="none" fill="none" stroke="#0000FF" stroke-width="0.0283" stroke-miterlimit="10" width="28.349" height="8.504"/>
	
		<rect x="1205.546" y="347.039" display="none" fill="none" stroke="#0000FF" stroke-width="0.0283" stroke-miterlimit="10" width="28.346" height="8.504"/>
	
		<rect x="1244.807" y="455.03" display="none" fill="none" stroke="#0000FF" stroke-width="0.0283" stroke-miterlimit="10" width="9.354" height="28.914"/>
	
		<rect x="1205.546" y="582.873" display="none" fill="none" stroke="#0000FF" stroke-width="0.0283" stroke-miterlimit="10" width="28.346" height="8.504"/>
	
		<rect x="803.025" y="582.873" display="none" fill="none" stroke="#0000FF" stroke-width="0.0283" stroke-miterlimit="10" width="28.349" height="8.504"/>
</g>
<g id="Layer_2" display="none">
</g>
</svg>
