<?xml version="1.0" encoding="utf-8"?>
<!-- Generator: Adobe Illustrator 15.0.0, SVG Export Plug-In . SVG Version: 6.00 Build 0)  -->
<!DOCTYPE svg PUBLIC "-//W3C//DTD SVG 1.1//EN" "http://www.w3.org/Graphics/SVG/1.1/DTD/svg11.dtd">
<svg version="1.1" id="Layer_1" xmlns="http://www.w3.org/2000/svg" xmlns:xlink="http://www.w3.org/1999/xlink" x="0px" y="0px"
	 width="792px" height="612px" viewBox="0 0 792 612" enable-background="new 0 0 792 612" xml:space="preserve">
<path fill="none" stroke="#000000" stroke-miterlimit="10" d="M640.811,447.407h1.049c-32.034,0-23.12,0,0,0
	c15.213,0,23.086-12.806,23.086-23.056s0-187.352,0-214.438s-21.007-25.404-28.635-25.404s-478.012,16.905-479.488,16.905
	c0,0-30.457-0.164-30.453,25.977c0.004,23.391-0.004,78.9-0.004,78.9v118.061c0,0,0,23.056,23.07,23.056s104.488,0,104.488,0
	h127.559h155.904h56.693h39.686H640.811z"/>
<polygon fill="#231F20" points="358.519,306.291 358.521,402.67 262.146,402.666 262.144,306.291 "/>
<path d="M140.287,306.291h12.096v117.355h485.856V306.291l0,0c0,0,16.534-4.05,16.534-8.504s0-13.537,0-13.537
	s-9.831-61.276-10.066-62.631c-2.08-11.952-3.987-11.428-12.567-11.142c-8.58,0.286-471.505,13.213-471.505,13.213L140.287,306.291z
	 M175.483,306.291h439.653l0.002,94.96H175.483V306.291z"/>
<circle cx="217.829" cy="354.48" r="9.638"/>
<circle cx="487.83" cy="354.48" r="9.921"/>
<g>
	<path d="M286.412,143.417h1.043v3.898h0.036c0.216-0.312,0.432-0.6,0.636-0.864l2.471-3.034h1.295l-2.926,3.43l3.154,4.653h-1.235
		l-2.651-3.97l-0.779,0.887v3.083h-1.043V143.417z"/>
	<path d="M292.916,143.536c0.456-0.108,1.187-0.18,1.907-0.18c1.043,0,1.715,0.18,2.207,0.588c0.419,0.312,0.684,0.792,0.684,1.427
		c0,0.792-0.528,1.475-1.367,1.775v0.036c0.768,0.18,1.667,0.815,1.667,2.015c0,0.696-0.276,1.235-0.696,1.619
		c-0.552,0.516-1.463,0.755-2.782,0.755c-0.72,0-1.271-0.048-1.619-0.096V143.536z M293.959,146.847h0.947
		c1.091,0,1.739-0.588,1.739-1.367c0-0.936-0.708-1.319-1.763-1.319c-0.48,0-0.755,0.036-0.923,0.072V146.847z M293.959,150.708
		c0.216,0.036,0.503,0.048,0.875,0.048c1.079,0,2.075-0.396,2.075-1.571c0-1.091-0.947-1.559-2.087-1.559h-0.863V150.708z"/>
	<path d="M301.89,147.878v0.768h-2.962v-0.768H301.89z"/>
	<path d="M303.031,150.229c0.468,0.3,1.139,0.528,1.859,0.528c1.067,0,1.691-0.563,1.691-1.379c0-0.743-0.432-1.187-1.523-1.595
		c-1.319-0.48-2.135-1.176-2.135-2.303c0-1.259,1.043-2.195,2.615-2.195c0.815,0,1.427,0.192,1.775,0.396l-0.288,0.852
		c-0.252-0.156-0.792-0.384-1.523-0.384c-1.103,0-1.523,0.66-1.523,1.211c0,0.755,0.492,1.127,1.607,1.559
		c1.368,0.528,2.051,1.188,2.051,2.375c0,1.248-0.912,2.339-2.819,2.339c-0.779,0-1.631-0.24-2.063-0.528L303.031,150.229z"/>
	<path d="M310.218,144.064c0,0.36-0.252,0.648-0.671,0.648c-0.384,0-0.636-0.288-0.636-0.648s0.264-0.66,0.66-0.66
		C309.955,143.404,310.218,143.692,310.218,144.064z M309.043,151.5v-5.805h1.056v5.805H309.043z"/>
	<path d="M316.853,142.985v7.016c0,0.516,0.024,1.103,0.048,1.499h-0.936l-0.048-1.007h-0.036c-0.312,0.647-1.007,1.139-1.955,1.139
		c-1.403,0-2.495-1.188-2.495-2.95c-0.012-1.931,1.2-3.106,2.603-3.106c0.9,0,1.487,0.42,1.751,0.875h0.024v-3.466H316.853z
		 M315.809,148.058c0-0.132-0.012-0.312-0.048-0.444c-0.156-0.66-0.731-1.211-1.523-1.211c-1.091,0-1.739,0.959-1.739,2.231
		c0,1.175,0.588,2.146,1.715,2.146c0.708,0,1.355-0.479,1.547-1.259c0.036-0.144,0.048-0.288,0.048-0.456V148.058z"/>
	<path d="M319.207,148.79c0.024,1.427,0.923,2.015,1.991,2.015c0.755,0,1.223-0.132,1.607-0.3l0.192,0.756
		c-0.372,0.168-1.019,0.372-1.943,0.372c-1.787,0-2.854-1.188-2.854-2.938s1.032-3.118,2.723-3.118c1.907,0,2.399,1.655,2.399,2.723
		c0,0.216-0.012,0.372-0.036,0.492H319.207z M322.301,148.034c0.012-0.66-0.276-1.703-1.463-1.703c-1.08,0-1.535,0.971-1.619,1.703
		H322.301z"/>
	<path d="M327.414,147.878v0.768h-2.962v-0.768H327.414z"/>
	<path d="M328.675,143.417h1.056v7.208h3.454v0.875h-4.51V143.417z"/>
	<path d="M334.734,148.79c0.024,1.427,0.923,2.015,1.991,2.015c0.755,0,1.223-0.132,1.607-0.3l0.192,0.756
		c-0.372,0.168-1.019,0.372-1.943,0.372c-1.787,0-2.854-1.188-2.854-2.938s1.032-3.118,2.723-3.118c1.907,0,2.399,1.655,2.399,2.723
		c0,0.216-0.012,0.372-0.036,0.492H334.734z M337.829,148.034c0.012-0.66-0.276-1.703-1.463-1.703c-1.079,0-1.535,0.971-1.619,1.703
		H337.829z"/>
	<path d="M340.267,151.5v-5.001h-0.804v-0.803h0.804v-0.276c0-0.815,0.192-1.559,0.672-2.027c0.396-0.384,0.923-0.54,1.415-0.54
		c0.384,0,0.696,0.084,0.899,0.168l-0.144,0.816c-0.156-0.072-0.359-0.132-0.671-0.132c-0.899,0-1.127,0.78-1.127,1.679v0.312h1.403
		v0.803h-1.403v5.001H340.267z"/>
	<path d="M345.066,144.304v1.392h1.511v0.803h-1.511v3.13c0,0.72,0.204,1.127,0.792,1.127c0.288,0,0.456-0.024,0.611-0.072
		l0.048,0.803c-0.204,0.072-0.528,0.144-0.936,0.144c-0.492,0-0.888-0.168-1.14-0.444c-0.288-0.324-0.408-0.839-0.408-1.523v-3.167
		h-0.899v-0.803h0.899v-1.08L345.066,144.304z"/>
	<path d="M350.153,147.878v0.768h-2.962v-0.768H350.153z"/>
	<path d="M351.054,151.5v-0.647l0.828-0.804c1.991-1.895,2.902-2.902,2.902-4.078c0-0.792-0.372-1.523-1.535-1.523
		c-0.708,0-1.295,0.36-1.655,0.66l-0.336-0.744c0.528-0.444,1.307-0.792,2.195-0.792c1.679,0,2.387,1.151,2.387,2.267
		c0,1.439-1.043,2.603-2.687,4.186l-0.612,0.576v0.024h3.49v0.875H351.054z"/>
	<path d="M362.403,147.518c0,2.651-0.996,4.114-2.71,4.114c-1.523,0-2.567-1.427-2.591-4.006c0-2.626,1.14-4.054,2.723-4.054
		C361.456,143.572,362.403,145.036,362.403,147.518z M358.169,147.638c0,2.027,0.624,3.178,1.583,3.178
		c1.067,0,1.583-1.259,1.583-3.25c0-1.919-0.48-3.179-1.583-3.179C358.841,144.388,358.169,145.515,358.169,147.638z"/>
	<path d="M365.657,144.688h-0.024l-1.355,0.732l-0.204-0.804l1.703-0.912h0.9v7.796h-1.02V144.688z"/>
	<path d="M370.961,147.398c-0.875-0.408-1.248-1.08-1.248-1.751c0-1.235,1.043-2.075,2.423-2.075c1.511,0,2.279,0.936,2.279,1.919
		c0,0.66-0.336,1.379-1.295,1.823v0.036c0.972,0.384,1.571,1.08,1.571,2.015c0,1.367-1.164,2.267-2.651,2.267
		c-1.631,0-2.614-0.959-2.614-2.099c0-0.983,0.587-1.691,1.547-2.099L370.961,147.398z M373.624,149.473
		c0-0.936-0.66-1.403-1.715-1.703c-0.912,0.264-1.403,0.875-1.403,1.619c-0.036,0.78,0.564,1.475,1.56,1.475
		C373.012,150.864,373.624,150.277,373.624,149.473z M370.722,145.575c-0.012,0.78,0.587,1.199,1.487,1.439
		c0.672-0.228,1.188-0.708,1.188-1.416c0-0.624-0.372-1.271-1.319-1.271C371.201,144.328,370.722,144.904,370.722,145.575z"/>
	<path d="M378.46,147.878v0.768h-2.962v-0.768H378.46z"/>
	<path d="M384.555,147.518c0,2.651-0.996,4.114-2.71,4.114c-1.523,0-2.567-1.427-2.591-4.006c0-2.626,1.14-4.054,2.723-4.054
		C383.607,143.572,384.555,145.036,384.555,147.518z M380.321,147.638c0,2.027,0.624,3.178,1.583,3.178
		c1.067,0,1.583-1.259,1.583-3.25c0-1.919-0.48-3.179-1.583-3.179C380.993,144.388,380.321,145.515,380.321,147.638z"/>
	<path d="M386.957,147.398c-0.875-0.408-1.248-1.08-1.248-1.751c0-1.235,1.043-2.075,2.423-2.075c1.511,0,2.279,0.936,2.279,1.919
		c0,0.66-0.336,1.379-1.295,1.823v0.036c0.972,0.384,1.571,1.08,1.571,2.015c0,1.367-1.164,2.267-2.651,2.267
		c-1.631,0-2.614-0.959-2.614-2.099c0-0.983,0.587-1.691,1.547-2.099L386.957,147.398z M389.619,149.473
		c0-0.936-0.66-1.403-1.715-1.703c-0.912,0.264-1.403,0.875-1.403,1.619c-0.036,0.78,0.564,1.475,1.56,1.475
		C389.007,150.864,389.619,150.277,389.619,149.473z M386.717,145.575c-0.012,0.78,0.587,1.199,1.487,1.439
		c0.672-0.228,1.188-0.708,1.188-1.416c0-0.624-0.372-1.271-1.319-1.271C387.196,144.328,386.717,144.904,386.717,145.575z"/>
	<path d="M394.456,147.878v0.768h-2.962v-0.768H394.456z"/>
	<path d="M400.55,147.518c0,2.651-0.995,4.114-2.71,4.114c-1.523,0-2.567-1.427-2.591-4.006c0-2.626,1.14-4.054,2.723-4.054
		C399.603,143.572,400.55,145.036,400.55,147.518z M396.316,147.638c0,2.027,0.624,3.178,1.583,3.178
		c1.067,0,1.583-1.259,1.583-3.25c0-1.919-0.479-3.179-1.583-3.179C396.988,144.388,396.316,145.515,396.316,147.638z"/>
	<path d="M404.775,151.5v-2.135h-3.622v-0.684l3.479-4.978h1.14v4.846h1.091v0.815h-1.091v2.135H404.775z M404.775,148.55v-2.603
		c0-0.408,0.012-0.816,0.036-1.224h-0.036c-0.239,0.456-0.432,0.792-0.647,1.151l-1.907,2.65v0.024H404.775z"/>
	<path d="M410.451,147.878v0.768h-2.963v-0.768H410.451z"/>
	<path d="M416.545,147.518c0,2.651-0.995,4.114-2.71,4.114c-1.523,0-2.566-1.427-2.591-4.006c0-2.626,1.14-4.054,2.723-4.054
		C415.598,143.572,416.545,145.036,416.545,147.518z M412.312,147.638c0,2.027,0.624,3.178,1.583,3.178
		c1.067,0,1.583-1.259,1.583-3.25c0-1.919-0.479-3.179-1.583-3.179C412.983,144.388,412.312,145.515,412.312,147.638z"/>
	<path d="M417.509,151.5v-0.647l0.827-0.804c1.991-1.895,2.902-2.902,2.902-4.078c0-0.792-0.372-1.523-1.535-1.523
		c-0.707,0-1.295,0.36-1.655,0.66l-0.336-0.744c0.528-0.444,1.308-0.792,2.195-0.792c1.679,0,2.387,1.151,2.387,2.267
		c0,1.439-1.044,2.603-2.687,4.186l-0.611,0.576v0.024h3.489v0.875H417.509z"/>
</g>
</svg>
