<?xml version="1.0" encoding="utf-8"?>
<!-- Generator: Adobe Illustrator 15.0.0, SVG Export Plug-In . SVG Version: 6.00 Build 0)  -->
<!DOCTYPE svg PUBLIC "-//W3C//DTD SVG 1.1//EN" "http://www.w3.org/Graphics/SVG/1.1/DTD/svg11.dtd">
<svg version="1.1" id="Layer_1" xmlns="http://www.w3.org/2000/svg" xmlns:xlink="http://www.w3.org/1999/xlink" x="0px" y="0px"
	 width="720px" height="720px" viewBox="1057.325 1057.325 720 720" enable-background="new 1057.325 1057.325 720 720"
	 xml:space="preserve">
<g>
	<path fill="none" stroke="#010101" stroke-miterlimit="10" d="M1123.004,1382.726h-1.052c32.034,0,23.12,0,0,0
		c-15.213,0-23.086,12.807-23.086,23.057s0,187.35,0,214.438c0,27.087,21.007,25.402,28.636,25.402s478.012-16.903,479.489-16.903
		c0,0,30.457,0.162,30.453-25.979c-0.004-23.392,0.004-78.9,0.004-78.9v-118.059c0,0,0-23.057-23.068-23.057
		c-23.07,0-104.488,0-104.488,0h-127.561h-155.901h-56.693h-39.687H1123.004L1123.004,1382.726z"/>
	<path fill="#010101" d="M1623.53,1523.841h-12.098v-117.355h-485.856v117.355l0,0c0,0-16.533,4.05-16.533,8.503
		c0,4.454,0,13.536,0,13.536s9.829,61.276,10.065,62.632c2.08,11.952,3.986,11.428,12.566,11.142
		c8.579-0.286,471.505-13.212,471.505-13.212L1623.53,1523.841z M1588.331,1523.841H1148.68l-0.002-94.959h439.655
		L1588.331,1523.841L1588.331,1523.841z"/>
	<circle fill="#010101" cx="1545.985" cy="1510.151" r="9.639"/>
	<circle fill="#010101" cx="1275.986" cy="1510.151" r="9.921"/>
	<polygon fill="#010101" points="1408.552,1523.841 1408.554,1428.884 1499.261,1428.88 1499.259,1523.841 	"/>
</g>
<path fill="none" stroke="#010101" stroke-miterlimit="10" d="M1130.045,1360.358h39.687h56.692h155.904h127.559
	c0,0,81.418,0,104.488,0s23.07-23.058,23.07-23.058v-118.06c0,0-0.01-55.511-0.006-78.9c0.006-26.141-30.451-25.979-30.451-25.979
	c-1.48,0-471.861-16.903-479.489-16.903s-28.635-1.685-28.635,25.402c0,27.089,0,204.188,0,214.438s7.873,23.057,23.086,23.057
	c23.12,0,32.034,0,0,0H1123L1130.045,1360.358L1130.045,1360.358z"/>
<path fill="#010101" d="M1603.177,1136.641c0,0-462.925-12.927-471.505-13.213s-10.487-0.812-12.567,11.142
	c-0.234,1.354-10.064,62.631-10.064,62.631s0,9.084,0,13.537c0,4.454,16.534,8.504,16.534,8.504l0,0v117.354h485.853v-117.354h12.1
	L1603.177,1136.641z M1588.327,1314.202h-439.655l0.002-94.96h439.653V1314.202L1588.327,1314.202z"/>
<circle fill="#231F20" cx="1209.668" cy="1171.053" r="24.094"/>
<circle fill="#010101" cx="1545.981" cy="1232.931" r="9.638"/>
<circle fill="#010101" cx="1275.981" cy="1232.93" r="9.921"/>
<polygon fill="#010101" points="1499.255,1219.241 1499.257,1314.203 1408.55,1314.198 1408.548,1219.241 "/>
<rect x="2358.108" y="1249.492" fill="none" stroke="#010101" stroke-miterlimit="10" width="895.749" height="482.258"/>
<path fill="#020202" d="M2825.063,1295.428c0,4.974,4.026,8.999,8.998,8.999c4.974,0,9.002-4.029,9.002-8.999
	c0-4.97-4.028-9.001-9.002-9.001C2829.092,1286.426,2825.063,1290.458,2825.063,1295.428"/>
<path fill="#020202" d="M2825.063,1380.445c0,4.973,4.026,9,8.998,9c4.974,0,9.002-4.031,9.002-9c0-4.969-4.028-9-9.002-9
	C2829.092,1371.445,2825.063,1375.476,2825.063,1380.445"/>
<path fill="#020202" d="M2710.222,1380.445c0,4.973,4.028,9,9,9c4.971,0,9-4.031,9-9c0-4.969-4.029-9-9-9
	C2714.253,1371.445,2710.222,1375.476,2710.222,1380.445"/>
<path fill="#020202" d="M2681.902,1380.445c0,4.973,4.028,9,9,9c4.969,0,9-4.031,9-9c0-4.969-4.031-9-9-9
	C2685.933,1371.445,2681.902,1375.476,2681.902,1380.445"/>
<path fill="#020202" d="M2681.902,1295.428c0,4.974,4.028,8.999,9,8.999c4.969,0,9-4.029,9-8.999c0-4.97-4.031-9.001-9-9.001
	C2685.933,1286.426,2681.902,1290.458,2681.902,1295.428"/>
<path fill="#020202" d="M2506.164,1380.445c0,4.973,4.029,9.004,9,9c4.972,0,9-4.031,9-9c0-4.969-4.028-9-9-9
	C2510.193,1371.445,2506.164,1375.476,2506.164,1380.445"/>
<path fill="#020202" d="M2391.324,1380.445c0,4.973,4.026,9,9.001,9c4.971,0,8.999-4.031,8.999-9c0-4.969-4.028-9-8.999-9
	C2395.351,1371.445,2391.324,1375.476,2391.324,1380.445"/>
<path fill="#020202" d="M2391.323,1295.428c0,4.974,4.027,8.999,9.003,8.999c4.972,0,9.001-4.029,8.997-8.999
	c0-4.97-4.025-9.001-8.997-9.001C2395.351,1286.426,2391.323,1290.458,2391.323,1295.428"/>
<rect x="2358.108" y="1128.602" fill="none" stroke="#010101" stroke-miterlimit="10" width="895.748" height="100.629"/>
<rect x="2358.108" y="1760.602" fill="none" stroke="#010101" stroke-miterlimit="10" width="895.748" height="100.629"/>
<g>
	<g id="CIRCLE_10_">
		<path stroke="#010101" stroke-miterlimit="10" d="M2765.924,1179.522c0-14.094,11.425-25.518,25.517-25.518
			s25.516,11.424,25.516,25.518c0,14.092-11.426,25.512-25.52,25.512C2777.344,1205.033,2765.922,1193.611,2765.924,1179.522
			L2765.924,1179.522z"/>
	</g>
	<g id="CIRCLE_9_">
		<path stroke="#010101" stroke-miterlimit="10" d="M2529.013,1200.747c0-5.48,4.439-9.92,9.92-9.92c5.479,0,9.925,4.438,9.925,9.92
			c0,5.479-4.441,9.922-9.925,9.922C2533.453,1210.668,2529.013,1206.226,2529.013,1200.747L2529.013,1200.747z"/>
	</g>
	<g id="CIRCLE_8_">
		<path stroke="#010101" stroke-miterlimit="10" d="M2708.396,1179.592c-0.036-14.09,11.353-25.547,25.438-25.588
			c14.092-0.041,25.547,11.354,25.586,25.439c0.041,14.092-11.348,25.545-25.438,25.586
			C2719.894,1205.07,2708.435,1193.683,2708.396,1179.592L2708.396,1179.592z"/>
	</g>
	<g id="CIRCLE_7_">
		<path stroke="#010101" stroke-miterlimit="10" d="M2416.914,1184.786c0-12.506,10.14-22.646,22.647-22.646
			c12.509,0,22.646,10.143,22.646,22.646c0,12.508-10.142,22.645-22.646,22.645
			C2427.054,1207.433,2416.914,1197.293,2416.914,1184.786L2416.914,1184.786z"/>
	</g>
	<g id="CIRCLE_6_">
		<path stroke="#010101" stroke-miterlimit="10" d="M2472.122,1184.786c0-12.506,10.141-22.646,22.646-22.646
			s22.647,10.143,22.647,22.646c0,12.508-10.142,22.645-22.647,22.645S2472.122,1197.293,2472.122,1184.786L2472.122,1184.786z"/>
	</g>
	<polygon stroke="#010101" stroke-miterlimit="10" points="2701.312,1212.67 2650.755,1212.67 2650.755,1212.67 2623.824,1212.67 
		2623.824,1212.67 2586.267,1212.67 2586.267,1217.042 2552.251,1217.042 2552.251,1190.111 2586.267,1190.111 2586.267,1194.67 
		2623.824,1194.67 2623.824,1161.983 2650.755,1161.983 2650.755,1194.67 2701.312,1194.67 	"/>
</g>
<rect x="2215.438" y="1068.23" fill="none" stroke="#000000" stroke-miterlimit="10" width="1152.001" height="864"/>
</svg>
