<?xml version="1.0" encoding="utf-8"?>
<!-- Generator: Adobe Illustrator 15.0.0, SVG Export Plug-In . SVG Version: 6.00 Build 0)  -->
<!DOCTYPE svg PUBLIC "-//W3C//DTD SVG 1.1//EN" "http://www.w3.org/Graphics/SVG/1.1/DTD/svg11.dtd">
<svg version="1.1" id="Layer_1" xmlns="http://www.w3.org/2000/svg" xmlns:xlink="http://www.w3.org/1999/xlink" x="0px" y="0px"
	 width="612px" height="792px" viewBox="0 0 612 792" enable-background="new 0 0 612 792" xml:space="preserve">
<rect x="27.618" y="138.431" fill="none" stroke="#010101" stroke-miterlimit="10" width="890.078" height="100.629"/>
<g>
	<g id="CIRCLE_10_">
		<path fill="none" stroke="#010101" stroke-miterlimit="10" d="M503.465,189.352c0-14.094,11.422-25.518,25.514-25.518
			c14.091,0,25.515,11.424,25.515,25.518c0,14.092-11.426,25.512-25.519,25.512C514.885,214.863,503.463,203.441,503.465,189.352
			L503.465,189.352z"/>
	</g>
	<g id="CIRCLE_9_">
		<path fill="none" stroke="#010101" stroke-miterlimit="10" d="M266.554,210.576c0-5.48,4.439-9.92,9.92-9.92
			c5.479,0,9.924,4.439,9.924,9.92c0,5.479-4.441,9.922-9.924,9.922C270.994,220.498,266.554,216.055,266.554,210.576
			L266.554,210.576z"/>
	</g>
	<g id="CIRCLE_8_">
		<path fill="none" stroke="#010101" stroke-miterlimit="10" d="M445.938,189.422c-0.038-14.09,11.351-25.547,25.438-25.588
			c14.092-0.041,25.547,11.354,25.586,25.439c0.041,14.092-11.348,25.545-25.438,25.586
			C457.436,214.9,445.977,203.512,445.938,189.422L445.938,189.422z"/>
	</g>
	<g id="CIRCLE_7_">
		<path fill="none" stroke="#010101" stroke-miterlimit="10" d="M154.455,194.615c0-12.506,10.14-22.646,22.647-22.646
			c12.509,0,22.647,10.143,22.647,22.646c0,12.508-10.142,22.645-22.647,22.645C164.595,217.262,154.455,207.123,154.455,194.615
			L154.455,194.615z"/>
	</g>
	<g id="CIRCLE_6_">
		<path fill="none" stroke="#010101" stroke-miterlimit="10" d="M209.663,194.615c0-12.506,10.141-22.646,22.646-22.646
			c12.506,0,22.648,10.143,22.648,22.646c0,12.508-10.142,22.645-22.648,22.645C219.804,217.26,209.663,207.123,209.663,194.615
			L209.663,194.615z"/>
	</g>
	<polygon fill="none" stroke="#010101" stroke-miterlimit="10" points="438.854,222.5 388.295,222.5 388.295,222.5 361.365,222.5 
		361.365,222.5 323.809,222.5 323.809,226.871 289.792,226.871 289.792,199.941 323.809,199.941 323.809,204.5 361.365,204.5 
		361.365,171.813 388.295,171.813 388.295,204.5 438.854,204.5 	"/>
</g>
<g>
	<path d="M183.412,85.417h1.043v3.898h0.036c0.216-0.312,0.432-0.6,0.636-0.864l2.471-3.034h1.295l-2.926,3.43l3.154,4.653h-1.235
		l-2.651-3.97l-0.779,0.887V93.5h-1.043V85.417z"/>
	<path d="M189.916,85.536c0.456-0.108,1.187-0.18,1.907-0.18c1.043,0,1.715,0.18,2.207,0.588c0.419,0.312,0.684,0.792,0.684,1.427
		c0,0.792-0.528,1.475-1.367,1.775v0.036c0.768,0.18,1.667,0.815,1.667,2.015c0,0.696-0.276,1.235-0.696,1.619
		c-0.552,0.516-1.463,0.755-2.782,0.755c-0.72,0-1.271-0.048-1.619-0.096V85.536z M190.959,88.847h0.947
		c1.091,0,1.739-0.588,1.739-1.367c0-0.936-0.708-1.319-1.763-1.319c-0.48,0-0.755,0.036-0.923,0.072V88.847z M190.959,92.708
		c0.216,0.036,0.503,0.048,0.875,0.048c1.079,0,2.075-0.396,2.075-1.571c0-1.091-0.947-1.559-2.087-1.559h-0.863V92.708z"/>
	<path d="M198.963,85.524c0.528-0.096,1.295-0.168,2.003-0.168c1.115,0,1.847,0.216,2.338,0.66c0.396,0.36,0.636,0.912,0.636,1.547
		c0,1.055-0.671,1.763-1.511,2.051v0.036c0.612,0.216,0.983,0.792,1.175,1.631c0.264,1.127,0.456,1.907,0.624,2.219h-1.08
		c-0.132-0.24-0.312-0.923-0.528-1.931c-0.24-1.115-0.684-1.535-1.631-1.571h-0.983V93.5h-1.043V85.524z M200.007,89.207h1.067
		c1.115,0,1.823-0.612,1.823-1.535c0-1.043-0.755-1.5-1.859-1.5c-0.504,0-0.852,0.036-1.031,0.084V89.207z"/>
	<path d="M206.019,90.79c0.024,1.427,0.923,2.015,1.991,2.015c0.755,0,1.223-0.132,1.607-0.3l0.192,0.756
		c-0.372,0.168-1.019,0.372-1.943,0.372c-1.787,0-2.854-1.188-2.854-2.938s1.032-3.118,2.723-3.118c1.907,0,2.399,1.655,2.399,2.723
		c0,0.216-0.012,0.372-0.036,0.492H206.019z M209.113,90.034c0.012-0.66-0.276-1.703-1.463-1.703c-1.08,0-1.535,0.971-1.619,1.703
		H209.113z"/>
	<path d="M215.521,92.109c0,0.503,0.024,0.995,0.084,1.391h-0.947l-0.084-0.731h-0.036c-0.324,0.456-0.947,0.863-1.775,0.863
		c-1.175,0-1.775-0.828-1.775-1.667c0-1.403,1.247-2.171,3.49-2.159v-0.12c0-0.468-0.132-1.343-1.319-1.331
		c-0.552,0-1.116,0.156-1.523,0.432l-0.24-0.708c0.479-0.3,1.187-0.504,1.919-0.504c1.775,0,2.207,1.211,2.207,2.363V92.109z
		 M214.501,90.538c-1.151-0.024-2.458,0.18-2.458,1.307c0,0.696,0.456,1.008,0.983,1.008c0.768,0,1.259-0.48,1.427-0.972
		c0.036-0.12,0.048-0.24,0.048-0.336V90.538z"/>
	<path d="M217.227,89.506c0-0.684-0.012-1.271-0.048-1.811h0.923l0.048,1.151h0.036c0.264-0.78,0.912-1.271,1.619-1.271
		c0.108,0,0.192,0.012,0.288,0.024v0.996c-0.108-0.024-0.216-0.024-0.36-0.024c-0.744,0-1.271,0.552-1.416,1.343
		c-0.024,0.144-0.036,0.324-0.036,0.492V93.5h-1.056V89.506z"/>
	<path d="M223.359,93.5v-0.647l0.828-0.804c1.991-1.895,2.902-2.902,2.902-4.078c0-0.792-0.372-1.523-1.535-1.523
		c-0.708,0-1.295,0.36-1.655,0.66l-0.336-0.744c0.528-0.444,1.307-0.792,2.195-0.792c1.679,0,2.387,1.151,2.387,2.267
		c0,1.439-1.043,2.603-2.687,4.186l-0.612,0.576v0.024h3.49V93.5H223.359z"/>
	<path d="M234.708,89.518c0,2.651-0.996,4.114-2.71,4.114c-1.523,0-2.567-1.427-2.591-4.006c0-2.626,1.14-4.054,2.723-4.054
		C233.76,85.572,234.708,87.036,234.708,89.518z M230.474,89.638c0,2.027,0.624,3.178,1.583,3.178c1.067,0,1.583-1.259,1.583-3.25
		c0-1.919-0.48-3.179-1.583-3.179C231.146,86.388,230.474,87.515,230.474,89.638z"/>
	<path d="M237.961,86.688h-0.024l-1.355,0.732l-0.204-0.804l1.703-0.912h0.9V93.5h-1.02V86.688z"/>
	<path d="M243.266,89.398c-0.875-0.408-1.248-1.08-1.248-1.751c0-1.235,1.043-2.075,2.423-2.075c1.511,0,2.279,0.936,2.279,1.919
		c0,0.66-0.336,1.379-1.295,1.823v0.036c0.972,0.384,1.571,1.08,1.571,2.015c0,1.367-1.164,2.267-2.651,2.267
		c-1.631,0-2.614-0.959-2.614-2.099c0-0.983,0.587-1.691,1.547-2.099L243.266,89.398z M245.928,91.473
		c0-0.936-0.66-1.403-1.715-1.703c-0.911,0.264-1.403,0.875-1.403,1.619c-0.036,0.78,0.564,1.475,1.56,1.475
		C245.316,92.864,245.928,92.277,245.928,91.473z M243.026,87.575c-0.012,0.78,0.587,1.199,1.487,1.439
		c0.672-0.228,1.188-0.708,1.188-1.416c0-0.624-0.372-1.271-1.319-1.271C243.505,86.328,243.026,86.904,243.026,87.575z"/>
	<path d="M250.765,89.878v0.768h-2.962v-0.768H250.765z"/>
	<path d="M256.859,89.518c0,2.651-0.996,4.114-2.71,4.114c-1.523,0-2.567-1.427-2.591-4.006c0-2.626,1.14-4.054,2.723-4.054
		C255.912,85.572,256.859,87.036,256.859,89.518z M252.625,89.638c0,2.027,0.624,3.178,1.583,3.178c1.067,0,1.583-1.259,1.583-3.25
		c0-1.919-0.48-3.179-1.583-3.179C253.297,86.388,252.625,87.515,252.625,89.638z"/>
	<path d="M259.261,89.398c-0.875-0.408-1.248-1.08-1.248-1.751c0-1.235,1.043-2.075,2.423-2.075c1.511,0,2.279,0.936,2.279,1.919
		c0,0.66-0.336,1.379-1.295,1.823v0.036c0.972,0.384,1.571,1.08,1.571,2.015c0,1.367-1.164,2.267-2.651,2.267
		c-1.631,0-2.614-0.959-2.614-2.099c0-0.983,0.587-1.691,1.547-2.099L259.261,89.398z M261.924,91.473
		c0-0.936-0.66-1.403-1.715-1.703c-0.912,0.264-1.403,0.875-1.403,1.619c-0.036,0.78,0.564,1.475,1.56,1.475
		C261.312,92.864,261.924,92.277,261.924,91.473z M259.021,87.575c-0.012,0.78,0.587,1.199,1.487,1.439
		c0.672-0.228,1.188-0.708,1.188-1.416c0-0.624-0.372-1.271-1.319-1.271C259.501,86.328,259.021,86.904,259.021,87.575z"/>
	<path d="M266.76,89.878v0.768h-2.962v-0.768H266.76z"/>
	<path d="M272.855,89.518c0,2.651-0.996,4.114-2.71,4.114c-1.523,0-2.567-1.427-2.591-4.006c0-2.626,1.14-4.054,2.723-4.054
		C271.907,85.572,272.855,87.036,272.855,89.518z M268.621,89.638c0,2.027,0.624,3.178,1.583,3.178c1.067,0,1.583-1.259,1.583-3.25
		c0-1.919-0.48-3.179-1.583-3.179C269.293,86.388,268.621,87.515,268.621,89.638z"/>
	<path d="M277.08,93.5v-2.135h-3.622v-0.684l3.479-4.978h1.139v4.846h1.091v0.815h-1.091V93.5H277.08z M277.08,90.55v-2.603
		c0-0.408,0.012-0.816,0.036-1.224h-0.036c-0.24,0.456-0.432,0.792-0.647,1.151l-1.907,2.65v0.024H277.08z"/>
	<path d="M282.756,89.878v0.768h-2.962v-0.768H282.756z"/>
	<path d="M288.851,89.518c0,2.651-0.996,4.114-2.71,4.114c-1.523,0-2.567-1.427-2.591-4.006c0-2.626,1.14-4.054,2.723-4.054
		C287.903,85.572,288.851,87.036,288.851,89.518z M284.617,89.638c0,2.027,0.624,3.178,1.583,3.178c1.067,0,1.583-1.259,1.583-3.25
		c0-1.919-0.48-3.179-1.583-3.179C285.289,86.388,284.617,87.515,284.617,89.638z"/>
	<path d="M289.813,93.5v-0.647l0.828-0.804c1.991-1.895,2.902-2.902,2.902-4.078c0-0.792-0.372-1.523-1.535-1.523
		c-0.708,0-1.295,0.36-1.655,0.66l-0.336-0.744c0.528-0.444,1.307-0.792,2.195-0.792c1.679,0,2.387,1.151,2.387,2.267
		c0,1.439-1.043,2.603-2.687,4.186l-0.612,0.576v0.024h3.49V93.5H289.813z"/>
</g>
</svg>
