<?xml version="1.0" encoding="utf-8"?>
<!-- Generator: Adobe Illustrator 15.0.0, SVG Export Plug-In . SVG Version: 6.00 Build 0)  -->
<!DOCTYPE svg PUBLIC "-//W3C//DTD SVG 1.1//EN" "http://www.w3.org/Graphics/SVG/1.1/DTD/svg11.dtd">
<svg version="1.1" id="Layer_1" xmlns="http://www.w3.org/2000/svg" xmlns:xlink="http://www.w3.org/1999/xlink" x="0px" y="0px"
	 width="2239.371px" height="1088.504px" viewBox="0 0 2239.371 1088.504" enable-background="new 0 0 2239.371 1088.504"
	 xml:space="preserve">
<g>
	<polyline fill="none" stroke="#0000FF" stroke-width="0.0283" stroke-miterlimit="10" points="125.522,152.358 33.397,152.358 
		33.397,244.483 125.522,244.483 	"/>
	<polyline fill="none" stroke="#0000FF" stroke-width="0.0283" stroke-miterlimit="10" points="12.137,269.288 12.137,14.171 
		125.522,14.171 204.422,14.177 219.059,27.87 235.965,536.822 221.901,552.752 12.137,552.752 12.137,269.288 	"/>
	
		<line fill="none" stroke="#0000FF" stroke-width="0.0283" stroke-miterlimit="10" x1="125.522" y1="244.483" x2="125.522" y2="152.358"/>
</g>
<circle fill="none" stroke="#0000FF" stroke-width="0.0283" stroke-miterlimit="10" cx="167.767" cy="443.619" r="28.346"/>
<g>
	<polyline fill="none" stroke="#0000FF" stroke-width="0.0283" stroke-miterlimit="10" points="588.994,414.564 496.869,414.564 
		496.869,322.439 588.994,322.439 	"/>
	<polyline fill="none" stroke="#0000FF" stroke-width="0.0283" stroke-miterlimit="10" points="475.609,297.635 475.609,552.752 
		588.994,552.752 667.895,552.746 682.531,539.053 699.438,30.101 685.373,14.171 475.609,14.171 475.609,297.635 	"/>
	
		<line fill="none" stroke="#0000FF" stroke-width="0.0283" stroke-miterlimit="10" x1="588.994" y1="322.439" x2="588.994" y2="414.564"/>
</g>
<rect x="889.305" y="432.28" fill="none" stroke="#0000FF" stroke-width="0.0283" stroke-miterlimit="10" width="17.008" height="42.52"/>
<g>
	<circle fill="none" stroke="#0000FF" stroke-width="0.0283" stroke-miterlimit="10" cx="1123.424" cy="101.928" r="8.504"/>
	<polygon fill="none" stroke="#0000FF" stroke-width="0.0283" stroke-miterlimit="10" points="1102.021,80.67 1085.014,80.67 
		1085.014,123.189 1102.021,123.189 1144.542,123.189 1144.542,80.67 	"/>
</g>
<g>
	<circle fill="none" stroke="#0000FF" stroke-width="0.0283" stroke-miterlimit="10" cx="1174.26" cy="101.93" r="8.504"/>
	<polygon fill="none" stroke="#0000FF" stroke-width="0.0283" stroke-miterlimit="10" points="1195.663,123.189 1212.67,123.189 
		1212.67,80.67 1195.663,80.67 1153.143,80.67 1153.143,123.189 	"/>
</g>
<g>
	<circle fill="none" stroke="#0000FF" stroke-width="0.0283" stroke-miterlimit="10" cx="1174.403" cy="53.752" r="8.504"/>
	<polygon fill="none" stroke="#0000FF" stroke-width="0.0283" stroke-miterlimit="10" points="1195.805,75.012 1212.813,75.012 
		1212.813,32.492 1195.805,32.492 1153.286,32.492 1153.286,75.012 	"/>
</g>
<g>
	<circle fill="none" stroke="#0000FF" stroke-width="0.0283" stroke-miterlimit="10" cx="1123.282" cy="53.75" r="8.504"/>
	<polygon fill="none" stroke="#0000FF" stroke-width="0.0283" stroke-miterlimit="10" points="1101.881,32.492 1084.874,32.492 
		1084.874,75.012 1101.881,75.012 1144.401,75.012 1144.401,32.492 	"/>
</g>
<g>
	<circle fill="none" stroke="#0000FF" stroke-width="0.0283" stroke-miterlimit="10" cx="980.994" cy="101.928" r="8.504"/>
	<polygon fill="none" stroke="#0000FF" stroke-width="0.0283" stroke-miterlimit="10" points="959.591,80.67 942.583,80.67 
		942.583,123.189 959.591,123.189 1002.111,123.189 1002.111,80.67 	"/>
</g>
<g>
	<circle fill="none" stroke="#0000FF" stroke-width="0.0283" stroke-miterlimit="10" cx="1034.07" cy="101.93" r="8.504"/>
	<polygon fill="none" stroke="#0000FF" stroke-width="0.0283" stroke-miterlimit="10" points="1055.472,123.189 1072.48,123.189 
		1072.48,80.67 1055.472,80.67 1012.953,80.67 1012.953,123.189 	"/>
</g>
<g>
	<circle fill="none" stroke="#0000FF" stroke-width="0.0283" stroke-miterlimit="10" cx="1034.212" cy="53.752" r="8.504"/>
	<polygon fill="none" stroke="#0000FF" stroke-width="0.0283" stroke-miterlimit="10" points="1055.615,75.012 1072.623,75.012 
		1072.623,32.492 1055.615,32.492 1013.095,32.492 1013.095,75.012 	"/>
</g>
<g>
	<circle fill="none" stroke="#0000FF" stroke-width="0.0283" stroke-miterlimit="10" cx="980.852" cy="53.75" r="8.504"/>
	<polygon fill="none" stroke="#0000FF" stroke-width="0.0283" stroke-miterlimit="10" points="959.451,32.492 942.442,32.492 
		942.442,75.012 959.451,75.012 1001.97,75.012 1001.97,32.492 	"/>
</g>
<rect x="889.138" y="92.122" fill="none" stroke="#0000FF" stroke-width="0.0283" stroke-miterlimit="10" width="17.009" height="42.52"/>
<circle fill="none" stroke="#0000FF" stroke-width="0.0283" stroke-miterlimit="10" cx="845.331" cy="647.792" r="11.338"/>
<circle fill="none" stroke="#0000FF" stroke-width="0.0283" stroke-miterlimit="10" cx="1003.275" cy="1020.681" r="11.338"/>
<circle fill="none" stroke="#0000FF" stroke-width="0.0283" stroke-miterlimit="10" cx="37.388" cy="647.662" r="11.338"/>
<circle fill="none" stroke="#0000FF" stroke-width="0.0283" stroke-miterlimit="10" cx="1003.276" cy="212.738" r="11.338"/>
<circle fill="none" stroke="#0000FF" stroke-width="0.0283" stroke-miterlimit="10" cx="37.388" cy="987.824" r="11.338"/>
<circle fill="none" stroke="#0000FF" stroke-width="0.0283" stroke-miterlimit="10" cx="845.331" cy="987.949" r="11.338"/>
<rect x="836.836" y="504.563" fill="none" stroke="#0000FF" stroke-width="0.0283" stroke-miterlimit="10" width="42.52" height="17.009"/>
<rect x="836.836" y="45.351" fill="none" stroke="#0000FF" stroke-width="0.0283" stroke-miterlimit="10" width="42.52" height="17.008"/>
<polygon fill="none" stroke="#0000FF" stroke-width="0.0283" stroke-miterlimit="10" points="825.454,562.752 57.265,562.752 
	57.265,579.76 14.745,579.76 14.745,619.445 14.745,676.137 14.745,959.604 14.745,1016.295 14.745,1055.98 57.265,1055.98 
	57.265,1072.988 825.454,1072.988 825.454,1055.98 867.974,1055.98 867.974,1016.295 867.974,959.602 867.974,676.139 
	867.974,619.445 867.974,579.76 825.454,579.76 "/>
<polygon fill="none" stroke="#0000FF" stroke-width="0.0283" stroke-miterlimit="10" points="730.51,28.345 809.881,28.345 
	809.881,152.358 902.006,152.358 902.006,244.483 809.881,244.483 809.881,538.579 713.502,538.579 "/>
<polygon fill="none" stroke="#0000FF" stroke-width="0.0283" stroke-miterlimit="10" points="923.266,521.572 923.266,481.886 
	923.266,425.193 923.266,269.288 923.266,141.729 923.266,85.036 923.266,45.351 906.021,45.351 906.021,28.345 923.266,28.343 
	923.266,14.171 809.881,14.171 730.98,14.177 716.344,27.87 699.438,536.822 713.502,552.752 923.266,552.752 923.266,538.579 
	906.021,538.579 906.021,521.571 "/>
<rect x="424.352" y="92.123" fill="none" stroke="#0000FF" stroke-width="0.0283" stroke-miterlimit="10" width="17.009" height="42.52"/>
<rect x="424.185" y="432.281" fill="none" stroke="#0000FF" stroke-width="0.0283" stroke-miterlimit="10" width="17.009" height="42.52"/>
<rect x="371.884" y="45.352" fill="none" stroke="#0000FF" stroke-width="0.0283" stroke-miterlimit="10" width="42.521" height="17.008"/>
<rect x="371.884" y="504.564" fill="none" stroke="#0000FF" stroke-width="0.0283" stroke-miterlimit="10" width="42.521" height="17.008"/>
<polygon fill="none" stroke="#0000FF" stroke-width="0.0283" stroke-miterlimit="10" points="248.55,28.344 344.929,28.344 
	344.929,322.439 437.054,322.439 437.054,414.564 344.929,414.564 344.929,538.578 265.558,538.578 "/>
<polygon fill="none" stroke="#0000FF" stroke-width="0.0283" stroke-miterlimit="10" points="441.067,45.352 441.067,28.344 
	458.313,28.344 458.313,14.171 248.55,14.171 234.485,30.101 251.392,539.053 266.028,552.746 344.929,552.752 458.313,552.752 
	458.313,538.58 441.067,538.578 441.067,521.572 458.313,521.572 458.313,481.887 458.313,425.193 458.313,297.635 458.313,141.729 
	458.313,85.037 458.313,45.351 "/>
<polygon fill="none" stroke="#0000FF" stroke-width="0.0283" stroke-miterlimit="10" points="955.091,1042.084 1051.468,1042.084 
	1051.468,191.336 955.091,191.336 955.091,174.328 938.083,174.328 938.083,191.336 938.083,233.855 955.091,233.855 
	955.091,999.421 938.083,999.421 938.083,1041.939 938.083,1058.948 955.091,1058.948 "/>
<circle fill="none" stroke="#0000FF" stroke-width="0.0283" stroke-miterlimit="10" cx="1142.821" cy="212.596" r="11.338"/>
<circle fill="none" stroke="#0000FF" stroke-width="0.0283" stroke-miterlimit="10" cx="1142.821" cy="1020.538" r="11.339"/>
<polygon fill="none" stroke="#0000FF" stroke-width="0.0283" stroke-miterlimit="10" points="1094.635,191.193 1191.012,191.193 
	1191.012,1041.939 1094.635,1041.939 1094.635,1058.947 1077.627,1058.947 1077.627,1041.939 1077.627,999.42 1094.635,999.42 
	1094.635,233.856 1077.627,233.856 1077.627,191.336 1077.627,174.329 1094.635,174.329 "/>
<g>
	<g id="CIRCLE_5_">
		<path fill="none" stroke="#0000FF" stroke-width="0.0283" stroke-miterlimit="10" d="M997.755,661.513
			c14.092,0,25.517,11.422,25.517,25.513c0,14.09-11.425,25.514-25.517,25.514s-25.512-11.425-25.512-25.515
			C972.243,672.934,983.665,661.512,997.755,661.513L997.755,661.513z"/>
	</g>
	<g id="CIRCLE_6_">
		<path fill="none" stroke="#0000FF" stroke-width="0.0283" stroke-miterlimit="10" d="M997.755,917.021
			c14.092,0,25.517,11.422,25.517,25.513c0,14.09-11.425,25.514-25.517,25.514s-25.512-11.425-25.512-25.515
			C972.243,928.441,983.665,917.02,997.755,917.021L997.755,917.021z"/>
	</g>
	<g id="CIRCLE_4_">
		<path fill="none" stroke="#0000FF" stroke-width="0.0283" stroke-miterlimit="10" d="M976.53,424.603
			c5.479,0,9.92,4.439,9.92,9.921c0,5.479-4.441,9.923-9.92,9.923c-5.479,0-9.922-4.441-9.922-9.923
			C966.607,429.042,971.05,424.603,976.53,424.603L976.53,424.603z"/>
	</g>
	<g id="CIRCLE_3_">
		<path fill="none" stroke="#0000FF" stroke-width="0.0283" stroke-miterlimit="10" d="M997.683,603.985
			c14.091-0.039,25.548,11.351,25.589,25.438c0.041,14.093-11.353,25.548-25.439,25.587c-14.092,0.04-25.545-11.349-25.586-25.438
			S983.593,604.025,997.683,603.985L997.683,603.985z"/>
	</g>
	<g id="CIRCLE_2_">
		<path fill="none" stroke="#0000FF" stroke-width="0.0283" stroke-miterlimit="10" d="M992.491,312.504
			c12.506,0,22.646,10.141,22.646,22.648s-10.143,22.646-22.646,22.646c-12.508,0-22.646-10.142-22.646-22.646
			C969.843,322.645,979.982,312.504,992.491,312.504L992.491,312.504z"/>
	</g>
	<g id="CIRCLE_1_">
		<path fill="none" stroke="#0000FF" stroke-width="0.0283" stroke-miterlimit="10" d="M992.491,367.711
			c12.506,0,22.646,10.141,22.646,22.646c0,12.505-10.143,22.647-22.646,22.647c-12.508,0-22.646-10.143-22.646-22.647
			C969.845,377.852,979.982,367.711,992.491,367.711L992.491,367.711z"/>
	</g>
	<polygon fill="none" stroke="#0000FF" stroke-width="0.0283" stroke-miterlimit="10" points="969.446,596.902 969.446,546.344 
		967.104,546.344 967.104,519.413 969.439,519.413 969.439,481.857 960.235,481.857 960.235,447.841 987.165,447.841 
		987.165,481.857 977.944,481.857 977.944,519.413 1015.294,519.413 1015.294,546.344 973.27,546.344 973.27,596.902 	"/>
</g>
<path fill="none" stroke="#0000FF" stroke-width="0.0283" stroke-miterlimit="10" d="M548.525,608.686
	c0,2.507,2.03,4.535,4.535,4.535c2.504,0,4.535-2.031,4.535-4.535s-2.031-4.534-4.535-4.534
	C550.557,604.15,548.525,606.182,548.525,608.686"/>
<path fill="none" stroke="#0000FF" stroke-width="0.0283" stroke-miterlimit="10" d="M548.525,693.705
	c0,2.506,2.03,4.535,4.535,4.535c2.504,0,4.535-2.031,4.535-4.535s-2.031-4.535-4.535-4.535S548.525,691.199,548.525,693.705"/>
<path fill="none" stroke="#0000FF" stroke-width="0.0283" stroke-miterlimit="10" d="M433.686,693.705
	c0,2.506,2.031,4.535,4.535,4.535s4.536-2.031,4.536-4.535s-2.032-4.535-4.536-4.535S433.686,691.199,433.686,693.705"/>
<path fill="none" stroke="#0000FF" stroke-width="0.0283" stroke-miterlimit="10" d="M405.365,693.705
	c0,2.506,2.031,4.535,4.535,4.535s4.534-2.031,4.534-4.535s-2.03-4.535-4.534-4.535S405.365,691.199,405.365,693.705"/>
<path fill="none" stroke="#0000FF" stroke-width="0.0283" stroke-miterlimit="10" d="M405.365,608.686
	c0,2.507,2.031,4.535,4.535,4.535s4.534-2.031,4.534-4.535s-2.03-4.534-4.534-4.534S405.365,606.182,405.365,608.686"/>
<path fill="none" stroke="#0000FF" stroke-width="0.0283" stroke-miterlimit="10" d="M229.627,693.705
	c0,2.506,2.029,4.537,4.535,4.535c2.506,0,4.535-2.031,4.535-4.535s-2.028-4.535-4.535-4.535
	C231.656,689.17,229.627,691.199,229.627,693.705"/>
<path fill="none" stroke="#0000FF" stroke-width="0.0283" stroke-miterlimit="10" d="M114.787,693.705
	c0,2.506,2.029,4.535,4.535,4.535c2.505,0,4.535-2.031,4.535-4.535s-2.03-4.535-4.535-4.535
	C116.816,689.17,114.787,691.199,114.787,693.705"/>
<path fill="none" stroke="#0000FF" stroke-width="0.0283" stroke-miterlimit="10" d="M114.787,608.686
	c0,2.507,2.029,4.535,4.535,4.535c2.505,0,4.535-2.031,4.534-4.535c0-2.504-2.029-4.534-4.534-4.534
	C116.816,604.15,114.787,606.182,114.787,608.686"/>
<g>
	<polyline fill="none" stroke="#0000FF" stroke-width="0.0283" stroke-miterlimit="10" points="2113.48,934.802 2205.605,934.802 
		2205.605,842.677 2113.48,842.677 	"/>
	<polyline fill="none" stroke="#0000FF" stroke-width="0.0283" stroke-miterlimit="10" points="2226.866,817.872 2226.866,1072.989 
		2113.48,1072.989 2034.581,1072.983 2019.943,1059.29 2003.038,550.338 2017.102,534.408 2226.866,534.408 2226.866,817.872 	"/>
	
		<line fill="none" stroke="#0000FF" stroke-width="0.0283" stroke-miterlimit="10" x1="2113.48" y1="842.677" x2="2113.48" y2="934.802"/>
</g>
<circle fill="none" stroke="#0000FF" stroke-width="0.0283" stroke-miterlimit="10" cx="2071.236" cy="643.541" r="28.347"/>
<g>
	<polyline fill="none" stroke="#0000FF" stroke-width="0.0283" stroke-miterlimit="10" points="1650.008,672.596 1742.133,672.596 
		1742.133,764.721 1650.008,764.721 	"/>
	<polyline fill="none" stroke="#0000FF" stroke-width="0.0283" stroke-miterlimit="10" points="1763.393,789.525 1763.393,534.408 
		1650.008,534.408 1571.107,534.414 1556.471,548.107 1539.564,1057.061 1553.629,1072.989 1763.393,1072.989 1763.393,789.525 	"/>
	
		<line fill="none" stroke="#0000FF" stroke-width="0.0283" stroke-miterlimit="10" x1="1650.008" y1="764.721" x2="1650.008" y2="672.596"/>
</g>
<rect x="1332.689" y="612.359" fill="none" stroke="#0000FF" stroke-width="0.0283" stroke-miterlimit="10" width="17.009" height="42.52"/>
<rect x="1332.857" y="952.518" fill="none" stroke="#0000FF" stroke-width="0.0283" stroke-miterlimit="10" width="17.008" height="42.521"/>
<circle fill="none" stroke="#0000FF" stroke-width="0.0283" stroke-miterlimit="10" cx="1393.672" cy="439.368" r="11.338"/>
<circle fill="none" stroke="#0000FF" stroke-width="0.0283" stroke-miterlimit="10" cx="2201.615" cy="439.498" r="11.339"/>
<circle fill="none" stroke="#0000FF" stroke-width="0.0283" stroke-miterlimit="10" cx="2201.615" cy="99.335" r="11.339"/>
<circle fill="none" stroke="#0000FF" stroke-width="0.0283" stroke-miterlimit="10" cx="1393.672" cy="99.21" r="11.338"/>
<rect x="1359.646" y="565.588" fill="none" stroke="#0000FF" stroke-width="0.0283" stroke-miterlimit="10" width="42.521" height="17.008"/>
<rect x="1359.646" y="1024.801" fill="none" stroke="#0000FF" stroke-width="0.0283" stroke-miterlimit="10" width="42.521" height="17.008"/>
<polygon fill="none" stroke="#0000FF" stroke-width="0.0283" stroke-miterlimit="10" points="1413.548,524.408 2181.739,524.408 
	2181.739,507.4 2224.258,507.4 2224.258,467.714 2224.258,411.023 2224.258,127.556 2224.258,70.865 2224.258,31.179 
	2181.739,31.179 2181.739,14.171 1413.549,14.171 1413.549,31.179 1371.03,31.179 1371.03,70.865 1371.03,127.558 1371.03,411.021 
	1371.03,467.714 1371.03,507.4 1413.549,507.4 "/>
<polygon fill="none" stroke="#0000FF" stroke-width="0.0283" stroke-miterlimit="10" points="1508.493,1058.814 1429.122,1058.814 
	1429.122,934.802 1336.997,934.801 1336.997,842.676 1429.122,842.677 1429.122,548.58 1525.5,548.581 "/>
<polygon fill="none" stroke="#0000FF" stroke-width="0.0283" stroke-miterlimit="10" points="1315.738,565.588 1315.738,605.273 
	1315.738,661.967 1315.738,817.871 1315.738,945.43 1315.738,1002.123 1315.738,1041.809 1332.982,1041.809 1332.982,1058.814 
	1315.738,1058.816 1315.738,1072.988 1429.122,1072.988 1508.021,1072.983 1522.659,1059.29 1539.564,550.338 1525.5,534.408 
	1315.738,534.408 1315.738,548.58 1332.982,548.58 1332.982,565.588 "/>
<rect x="1797.643" y="952.518" fill="none" stroke="#0000FF" stroke-width="0.0283" stroke-miterlimit="10" width="17.008" height="42.521"/>
<rect x="1797.811" y="612.359" fill="none" stroke="#0000FF" stroke-width="0.0283" stroke-miterlimit="10" width="17.008" height="42.52"/>
<rect x="1824.6" y="1024.801" fill="none" stroke="#0000FF" stroke-width="0.0283" stroke-miterlimit="10" width="42.52" height="17.008"/>
<rect x="1824.6" y="565.588" fill="none" stroke="#0000FF" stroke-width="0.0283" stroke-miterlimit="10" width="42.521" height="17.008"/>
<polygon fill="none" stroke="#0000FF" stroke-width="0.0283" stroke-miterlimit="10" points="1990.453,1058.816 1894.074,1058.816 
	1894.075,764.721 1801.949,764.721 1801.949,672.596 1894.075,672.596 1894.075,548.582 1973.446,548.582 "/>
<polygon fill="none" stroke="#0000FF" stroke-width="0.0283" stroke-miterlimit="10" points="1797.936,1041.809 1797.936,1058.816 
	1780.689,1058.816 1780.689,1072.989 1990.453,1072.989 2004.518,1057.061 1987.612,548.107 1972.975,534.414 1894.075,534.408 
	1780.689,534.408 1780.689,548.58 1797.936,548.582 1797.936,565.588 1780.689,565.588 1780.689,605.273 1780.689,661.967 
	1780.689,789.525 1780.689,945.431 1780.689,1002.123 1780.689,1041.809 "/>
<path fill="none" stroke="#0000FF" stroke-width="0.0283" stroke-miterlimit="10" d="M1690.477,478.474
	c0-2.506-2.03-4.534-4.535-4.534c-2.504,0-4.534,2.03-4.534,4.534s2.03,4.535,4.534,4.535
	C1688.446,483.009,1690.477,480.978,1690.477,478.474"/>
<path fill="none" stroke="#0000FF" stroke-width="0.0283" stroke-miterlimit="10" d="M1690.477,393.455
	c0-2.506-2.03-4.535-4.535-4.535c-2.504,0-4.534,2.031-4.534,4.535s2.03,4.535,4.534,4.535
	C1688.446,397.99,1690.477,395.96,1690.477,393.455"/>
<path fill="none" stroke="#0000FF" stroke-width="0.0283" stroke-miterlimit="10" d="M1805.316,393.455
	c0-2.506-2.03-4.535-4.534-4.535c-2.505,0-4.535,2.031-4.535,4.535s2.03,4.535,4.535,4.535
	C1803.286,397.99,1805.316,395.96,1805.316,393.455"/>
<path fill="none" stroke="#0000FF" stroke-width="0.0283" stroke-miterlimit="10" d="M1833.637,393.455
	c0-2.506-2.031-4.535-4.535-4.535s-4.535,2.031-4.535,4.535s2.031,4.535,4.535,4.535S1833.637,395.96,1833.637,393.455"/>
<path fill="none" stroke="#0000FF" stroke-width="0.0283" stroke-miterlimit="10" d="M1833.637,478.474
	c0-2.506-2.031-4.534-4.535-4.534s-4.535,2.03-4.535,4.534s2.031,4.535,4.535,4.535S1833.637,480.978,1833.637,478.474"/>
<path fill="none" stroke="#0000FF" stroke-width="0.0283" stroke-miterlimit="10" d="M2009.375,393.455
	c0-2.506-2.029-4.537-4.535-4.535c-2.506,0-4.535,2.031-4.535,4.535s2.029,4.535,4.535,4.535S2009.375,395.96,2009.375,393.455"/>
<path fill="none" stroke="#0000FF" stroke-width="0.0283" stroke-miterlimit="10" d="M2124.215,393.455
	c0-2.506-2.029-4.535-4.535-4.535c-2.504,0-4.534,2.031-4.534,4.535s2.03,4.535,4.534,4.535
	C2122.186,397.99,2124.215,395.96,2124.215,393.455"/>
<path fill="none" stroke="#0000FF" stroke-width="0.0283" stroke-miterlimit="10" d="M2124.215,478.474
	c0-2.506-2.029-4.534-4.535-4.534c-2.504,0-4.534,2.03-4.532,4.534c0,2.504,2.028,4.535,4.532,4.535
	C2122.186,483.009,2124.215,480.978,2124.215,478.474"/>
</svg>
