<?xml version="1.0" encoding="utf-8"?>
<!-- Generator: Adobe Illustrator 15.0.0, SVG Export Plug-In . SVG Version: 6.00 Build 0)  -->
<!DOCTYPE svg PUBLIC "-//W3C//DTD SVG 1.1//EN" "http://www.w3.org/Graphics/SVG/1.1/DTD/svg11.dtd">
<svg version="1.1" id="Layer_1" xmlns="http://www.w3.org/2000/svg" xmlns:xlink="http://www.w3.org/1999/xlink" x="0px" y="0px"
	 width="792px" height="612px" viewBox="0 0 792 612" enable-background="new 0 0 792 612" xml:space="preserve">
<path fill="none" stroke="#000000" stroke-miterlimit="10" d="M157.545,445.407h39.685h56.694h155.904h127.559
	c0,0,81.418,0,104.488,0s23.07-23.057,23.07-23.057v-118.06c0,0-0.008-55.509-0.004-78.9c0.004-26.141-30.453-25.977-30.453-25.977
	c-1.478,0-471.86-16.905-479.488-16.905s-28.635-1.683-28.635,25.404s0,204.188,0,214.438s7.873,23.057,23.086,23.057
	c23.12,0,32.034,0,0,0h1.049H157.545z"/>
<path d="M630.676,221.69c0,0-462.925-12.927-471.505-13.213s-10.487-0.811-12.567,11.142c-0.236,1.354-10.066,62.631-10.066,62.631
	s0,9.083,0,13.537s16.534,8.504,16.534,8.504l0,0v117.355h485.856V304.291h12.097L630.676,221.69z M615.827,399.251H176.172
	l0.002-94.96h439.653V399.251z"/>
<circle fill="#231F20" cx="237.168" cy="256.102" r="24.094"/>
<circle cx="573.481" cy="317.98" r="9.638"/>
<circle cx="303.481" cy="317.979" r="9.921"/>
<polygon points="526.754,304.291 526.756,399.252 436.05,399.248 436.048,304.291 "/>
<g>
	<path d="M291.412,142.417h1.043v3.898h0.036c0.216-0.312,0.432-0.6,0.636-0.864l2.471-3.034h1.295l-2.926,3.43l3.154,4.653h-1.235
		l-2.651-3.97l-0.779,0.887v3.083h-1.043V142.417z"/>
	<path d="M297.916,142.536c0.456-0.108,1.187-0.18,1.907-0.18c1.043,0,1.715,0.18,2.207,0.588c0.419,0.312,0.684,0.792,0.684,1.427
		c0,0.792-0.528,1.475-1.367,1.775v0.036c0.768,0.18,1.667,0.815,1.667,2.015c0,0.696-0.276,1.235-0.696,1.619
		c-0.552,0.516-1.463,0.755-2.782,0.755c-0.72,0-1.271-0.048-1.619-0.096V142.536z M298.959,145.847h0.947
		c1.091,0,1.739-0.588,1.739-1.367c0-0.936-0.708-1.319-1.763-1.319c-0.48,0-0.755,0.036-0.923,0.072V145.847z M298.959,149.708
		c0.216,0.036,0.503,0.048,0.875,0.048c1.079,0,2.075-0.396,2.075-1.571c0-1.091-0.947-1.559-2.087-1.559h-0.863V149.708z"/>
	<path d="M306.89,146.878v0.768h-2.962v-0.768H306.89z"/>
	<path d="M308.031,149.229c0.468,0.3,1.139,0.528,1.859,0.528c1.067,0,1.691-0.563,1.691-1.379c0-0.743-0.432-1.187-1.523-1.595
		c-1.319-0.48-2.135-1.176-2.135-2.303c0-1.259,1.043-2.195,2.615-2.195c0.815,0,1.427,0.192,1.775,0.396l-0.288,0.852
		c-0.252-0.156-0.792-0.384-1.523-0.384c-1.103,0-1.523,0.66-1.523,1.211c0,0.755,0.492,1.127,1.607,1.559
		c1.368,0.528,2.051,1.188,2.051,2.375c0,1.248-0.912,2.339-2.819,2.339c-0.779,0-1.631-0.24-2.063-0.528L308.031,149.229z"/>
	<path d="M315.218,143.064c0,0.36-0.252,0.648-0.671,0.648c-0.384,0-0.636-0.288-0.636-0.648s0.264-0.66,0.66-0.66
		C314.955,142.404,315.218,142.692,315.218,143.064z M314.043,150.5v-5.805h1.056v5.805H314.043z"/>
	<path d="M321.853,141.985v7.016c0,0.516,0.024,1.103,0.048,1.499h-0.936l-0.048-1.007h-0.036c-0.312,0.647-1.007,1.139-1.955,1.139
		c-1.403,0-2.495-1.188-2.495-2.95c-0.012-1.931,1.2-3.106,2.603-3.106c0.9,0,1.487,0.42,1.751,0.875h0.024v-3.466H321.853z
		 M320.809,147.058c0-0.132-0.012-0.312-0.048-0.444c-0.156-0.66-0.731-1.211-1.523-1.211c-1.091,0-1.739,0.959-1.739,2.231
		c0,1.175,0.588,2.146,1.715,2.146c0.708,0,1.355-0.479,1.547-1.259c0.036-0.144,0.048-0.288,0.048-0.456V147.058z"/>
	<path d="M324.207,147.79c0.024,1.427,0.923,2.015,1.991,2.015c0.755,0,1.223-0.132,1.607-0.3l0.192,0.756
		c-0.372,0.168-1.019,0.372-1.943,0.372c-1.787,0-2.854-1.188-2.854-2.938s1.032-3.118,2.723-3.118c1.907,0,2.399,1.655,2.399,2.723
		c0,0.216-0.012,0.372-0.036,0.492H324.207z M327.301,147.034c0.012-0.66-0.276-1.703-1.463-1.703c-1.08,0-1.535,0.971-1.619,1.703
		H327.301z"/>
	<path d="M332.414,146.878v0.768h-2.962v-0.768H332.414z"/>
	<path d="M333.687,142.524c0.528-0.096,1.295-0.168,2.003-0.168c1.115,0,1.847,0.216,2.338,0.66c0.396,0.36,0.636,0.912,0.636,1.547
		c0,1.055-0.671,1.763-1.511,2.051v0.036c0.612,0.216,0.983,0.792,1.175,1.631c0.264,1.127,0.456,1.907,0.624,2.219h-1.08
		c-0.132-0.24-0.312-0.923-0.528-1.931c-0.24-1.115-0.684-1.535-1.631-1.571h-0.983v3.502h-1.043V142.524z M334.73,146.207h1.067
		c1.115,0,1.823-0.612,1.823-1.535c0-1.043-0.755-1.5-1.859-1.5c-0.504,0-0.852,0.036-1.031,0.084V146.207z"/>
	<path d="M341.402,143.064c0,0.36-0.252,0.648-0.671,0.648c-0.384,0-0.636-0.288-0.636-0.648s0.264-0.66,0.66-0.66
		C341.138,142.404,341.402,142.692,341.402,143.064z M340.227,150.5v-5.805h1.056v5.805H340.227z"/>
	<path d="M348,149.648c0,1.343-0.276,2.147-0.828,2.663c-0.576,0.516-1.391,0.696-2.123,0.696c-0.696,0-1.463-0.168-1.931-0.48
		l0.264-0.815c0.384,0.252,0.984,0.468,1.703,0.468c1.08,0,1.871-0.564,1.871-2.039v-0.636h-0.024
		c-0.312,0.54-0.948,0.972-1.847,0.972c-1.439,0-2.471-1.223-2.471-2.831c0-1.967,1.284-3.07,2.627-3.07
		c1.007,0,1.547,0.516,1.811,0.996h0.024l0.036-0.875h0.936c-0.036,0.408-0.048,0.887-0.048,1.583V149.648z M346.944,146.986
		c0-0.18-0.012-0.336-0.06-0.468c-0.192-0.624-0.696-1.127-1.476-1.127c-1.007,0-1.727,0.852-1.727,2.195
		c0,1.14,0.588,2.087,1.715,2.087c0.66,0,1.247-0.408,1.463-1.079c0.06-0.18,0.084-0.384,0.084-0.564V146.986z"/>
	<path d="M349.742,141.985h1.056v3.634h0.024c0.168-0.3,0.432-0.576,0.755-0.755c0.312-0.18,0.684-0.288,1.08-0.288
		c0.779,0,2.027,0.48,2.027,2.471v3.454h-1.056v-3.334c0-0.936-0.348-1.715-1.343-1.715c-0.684,0-1.211,0.48-1.415,1.043
		c-0.06,0.156-0.072,0.312-0.072,0.504v3.502h-1.056V141.985z"/>
	<path d="M357.626,143.304v1.392h1.511v0.803h-1.511v3.13c0,0.72,0.204,1.127,0.792,1.127c0.288,0,0.456-0.024,0.612-0.072
		l0.048,0.803c-0.204,0.072-0.528,0.144-0.936,0.144c-0.492,0-0.888-0.168-1.14-0.444c-0.288-0.324-0.408-0.839-0.408-1.523v-3.167
		h-0.899v-0.803h0.899v-1.08L357.626,143.304z"/>
	<path d="M362.713,146.878v0.768h-2.962v-0.768H362.713z"/>
	<path d="M363.614,150.5v-0.647l0.828-0.804c1.991-1.895,2.902-2.902,2.902-4.078c0-0.792-0.372-1.523-1.535-1.523
		c-0.708,0-1.295,0.36-1.655,0.66l-0.336-0.744c0.528-0.444,1.307-0.792,2.195-0.792c1.679,0,2.387,1.151,2.387,2.267
		c0,1.439-1.043,2.603-2.687,4.186l-0.612,0.576v0.024h3.49v0.875H363.614z"/>
	<path d="M374.963,146.518c0,2.651-0.996,4.114-2.71,4.114c-1.523,0-2.567-1.427-2.591-4.006c0-2.626,1.14-4.054,2.723-4.054
		C374.016,142.572,374.963,144.036,374.963,146.518z M370.729,146.638c0,2.027,0.624,3.178,1.583,3.178
		c1.067,0,1.583-1.259,1.583-3.25c0-1.919-0.48-3.179-1.583-3.179C371.401,143.388,370.729,144.515,370.729,146.638z"/>
	<path d="M378.217,143.688h-0.024l-1.355,0.732l-0.204-0.804l1.703-0.912h0.9v7.796h-1.02V143.688z"/>
	<path d="M383.521,146.398c-0.875-0.408-1.248-1.08-1.248-1.751c0-1.235,1.043-2.075,2.423-2.075c1.511,0,2.279,0.936,2.279,1.919
		c0,0.66-0.336,1.379-1.295,1.823v0.036c0.972,0.384,1.571,1.08,1.571,2.015c0,1.367-1.164,2.267-2.651,2.267
		c-1.631,0-2.614-0.959-2.614-2.099c0-0.983,0.587-1.691,1.547-2.099L383.521,146.398z M386.184,148.473
		c0-0.936-0.66-1.403-1.715-1.703c-0.912,0.264-1.403,0.875-1.403,1.619c-0.036,0.78,0.564,1.475,1.56,1.475
		C385.572,149.864,386.184,149.277,386.184,148.473z M383.281,144.575c-0.012,0.78,0.587,1.199,1.487,1.439
		c0.672-0.228,1.188-0.708,1.188-1.416c0-0.624-0.372-1.271-1.319-1.271C383.761,143.328,383.281,143.904,383.281,144.575z"/>
	<path d="M391.021,146.878v0.768h-2.962v-0.768H391.021z"/>
	<path d="M397.114,146.518c0,2.651-0.995,4.114-2.71,4.114c-1.523,0-2.567-1.427-2.591-4.006c0-2.626,1.14-4.054,2.723-4.054
		C396.167,142.572,397.114,144.036,397.114,146.518z M392.881,146.638c0,2.027,0.624,3.178,1.583,3.178
		c1.067,0,1.583-1.259,1.583-3.25c0-1.919-0.48-3.179-1.583-3.179C393.553,143.388,392.881,144.515,392.881,146.638z"/>
	<path d="M399.517,146.398c-0.875-0.408-1.247-1.08-1.247-1.751c0-1.235,1.044-2.075,2.423-2.075c1.511,0,2.278,0.936,2.278,1.919
		c0,0.66-0.335,1.379-1.295,1.823v0.036c0.972,0.384,1.571,1.08,1.571,2.015c0,1.367-1.163,2.267-2.65,2.267
		c-1.632,0-2.615-0.959-2.615-2.099c0-0.983,0.588-1.691,1.548-2.099L399.517,146.398z M402.18,148.473
		c0-0.936-0.66-1.403-1.715-1.703c-0.912,0.264-1.403,0.875-1.403,1.619c-0.036,0.78,0.563,1.475,1.559,1.475
		C401.568,149.864,402.18,149.277,402.18,148.473z M399.277,144.575c-0.012,0.78,0.588,1.199,1.487,1.439
		c0.671-0.228,1.187-0.708,1.187-1.416c0-0.624-0.371-1.271-1.318-1.271C399.757,143.328,399.277,143.904,399.277,144.575z"/>
	<path d="M407.016,146.878v0.768h-2.963v-0.768H407.016z"/>
	<path d="M410.208,143.688h-0.023l-1.355,0.732l-0.204-0.804l1.703-0.912h0.899v7.796h-1.02V143.688z"/>
	<path d="M419.266,146.518c0,2.651-0.995,4.114-2.71,4.114c-1.523,0-2.566-1.427-2.591-4.006c0-2.626,1.14-4.054,2.723-4.054
		C418.318,142.572,419.266,144.036,419.266,146.518z M415.032,146.638c0,2.027,0.624,3.178,1.583,3.178
		c1.067,0,1.583-1.259,1.583-3.25c0-1.919-0.479-3.179-1.583-3.179C415.704,143.388,415.032,144.515,415.032,146.638z"/>
	<path d="M423.012,146.878v0.768h-2.963v-0.768H423.012z"/>
	<path d="M429.105,146.518c0,2.651-0.995,4.114-2.71,4.114c-1.523,0-2.566-1.427-2.591-4.006c0-2.626,1.14-4.054,2.723-4.054
		C428.158,142.572,429.105,144.036,429.105,146.518z M424.872,146.638c0,2.027,0.624,3.178,1.583,3.178
		c1.067,0,1.583-1.259,1.583-3.25c0-1.919-0.479-3.179-1.583-3.179C425.544,143.388,424.872,144.515,424.872,146.638z"/>
	<path d="M432.359,143.688h-0.023l-1.355,0.732l-0.204-0.804l1.703-0.912h0.899v7.796h-1.02V143.688z"/>
</g>
</svg>
