<?xml version="1.0" encoding="utf-8"?>
<!-- Generator: Adobe Illustrator 15.0.0, SVG Export Plug-In . SVG Version: 6.00 Build 0)  -->
<!DOCTYPE svg PUBLIC "-//W3C//DTD SVG 1.1//EN" "http://www.w3.org/Graphics/SVG/1.1/DTD/svg11.dtd">
<svg version="1.1" id="Layer_1" xmlns="http://www.w3.org/2000/svg" xmlns:xlink="http://www.w3.org/1999/xlink" x="0px" y="0px"
	 width="792px" height="612px" viewBox="0 0 792 612" enable-background="new 0 0 792 612" xml:space="preserve">
<polygon fill="none" stroke="#000000" stroke-miterlimit="10" points="157.545,445.407 197.23,445.407 253.924,445.407 
	409.828,445.407 537.387,445.407 594.08,445.407 633.766,445.407 633.766,445.407 650.771,445.407 650.773,445.407 664.945,445.407 
	664.945,304.291 664.941,225.391 651.248,210.753 142.295,193.848 126.365,207.913 126.365,445.407 140.537,445.407 
	140.537,445.407 "/>
<path d="M651.023,304.291H153.78c0,0-17.243-4.05-17.243-8.504s0-13.537,0-13.537l4.944-62.378c0,0-0.086,1.118,0.02-0.253
	c0.912-11.827,3.42-11.427,12-11.141s0,0,0,0l477.175,16.047L651.023,304.291z"/>
<polygon fill="#231F20" points="529.167,304.291 529.165,400.666 432.789,400.67 432.792,304.291 "/>
<polygon points="153.071,304.291 153.071,421.646 638.928,421.646 638.928,304.291 615.827,304.291 615.827,399.251 
	176.172,399.251 176.174,304.291 "/>
<circle fill="#231F20" cx="235.75" cy="258.937" r="24.094"/>
<text transform="matrix(1 0 0 1 212.5 151.8335)" font-family="'MyriadPro-Regular'" font-size="12">Raise top, possibly raise kb channel</text>
</svg>
