<?xml version="1.0" encoding="utf-8"?>
<!-- Generator: Adobe Illustrator 15.0.0, SVG Export Plug-In . SVG Version: 6.00 Build 0)  -->
<!DOCTYPE svg PUBLIC "-//W3C//DTD SVG 1.1//EN" "http://www.w3.org/Graphics/SVG/1.1/DTD/svg11.dtd">
<svg version="1.1" id="Layer_1" xmlns="http://www.w3.org/2000/svg" xmlns:xlink="http://www.w3.org/1999/xlink" x="0px" y="0px"
	 width="612px" height="792px" viewBox="0 0 612 792" enable-background="new 0 0 612 792" xml:space="preserve">
<rect x="231.528" y="-405.983" fill="none" stroke="#010101" stroke-miterlimit="10" width="482.259" height="895.749"/>
<path fill="#020202" d="M667.852,60.971c-4.974,0-8.999,4.027-8.999,8.998c0,4.974,4.029,9.002,8.999,9.002s9.001-4.028,9.001-9.002
	C676.853,65,672.82,60.971,667.852,60.971"/>
<path fill="#020202" d="M582.834,60.971c-4.974,0-9,4.027-9,8.998c0,4.974,4.03,9.002,9,9.002c4.969,0,9-4.028,9-9.002
	C591.834,65,587.804,60.971,582.834,60.971"/>
<path fill="#020202" d="M582.834-53.87c-4.974,0-9,4.029-9,9s4.03,9,9,9c4.969,0,9-4.029,9-9
	C591.834-49.839,587.804-53.87,582.834-53.87"/>
<path fill="#020202" d="M582.834-82.189c-4.974,0-9,4.028-9,9c0,4.969,4.03,9,9,9c4.969,0,9-4.031,9-9
	C591.834-78.159,587.804-82.189,582.834-82.189"/>
<path fill="#020202" d="M667.852-82.189c-4.974,0-8.999,4.028-8.999,9c0,4.969,4.029,9,8.999,9s9.001-4.031,9.001-9
	C676.853-78.159,672.82-82.189,667.852-82.189"/>
<path fill="#020202" d="M582.834-257.928c-4.974,0-9.004,4.029-9,9c0,4.971,4.03,9,9,9c4.969,0,9-4.029,9-9
	C591.834-253.898,587.804-257.928,582.834-257.928"/>
<path fill="#020202" d="M582.834-372.768c-4.974,0-9,4.026-9,9.001c0,4.97,4.03,8.999,9,8.999c4.969,0,9-4.029,9-8.999
	C591.834-368.741,587.804-372.768,582.834-372.768"/>
<path fill="#020202" d="M667.852-372.769c-4.974,0-8.999,4.027-8.999,9.003c0,4.971,4.029,9.001,8.999,8.997
	c4.97,0,9.001-4.026,9.001-8.997C676.853-368.741,672.82-372.769,667.852-372.769"/>
</svg>
