<?xml version="1.0" encoding="utf-8"?>
<!-- Generator: Adobe Illustrator 15.0.0, SVG Export Plug-In . SVG Version: 6.00 Build 0)  -->
<!DOCTYPE svg PUBLIC "-//W3C//DTD SVG 1.1//EN" "http://www.w3.org/Graphics/SVG/1.1/DTD/svg11.dtd">
<svg version="1.1" id="Layer_1" xmlns="http://www.w3.org/2000/svg" xmlns:xlink="http://www.w3.org/1999/xlink" x="0px" y="0px"
	 width="792px" height="612px" viewBox="0 0 792 612" enable-background="new 0 0 792 612" xml:space="preserve">
<path fill="none" stroke="#000000" stroke-miterlimit="10" d="M157.545,445.407h39.685h56.694h155.904h127.559
	c0,0,81.418,0,104.488,0s23.07-23.058,23.07-23.058V304.29c0,0-0.008-55.509-0.004-78.9c0.004-26.141-30.453-25.977-30.453-25.977
	c-1.479,0-471.86-16.905-479.488-16.905s-28.635-1.683-28.635,25.404s0,204.188,0,214.438s7.873,23.058,23.086,23.058
	c23.12,0,32.034,0,0,0h1.049H157.545L157.545,445.407z"/>
<path d="M630.676,221.69c0,0-462.925-12.927-471.505-13.213s-10.487-0.811-12.567,11.142c-0.236,1.354-10.066,62.631-10.066,62.631
	s0,9.083,0,13.537s16.534,8.504,16.534,8.504l0,0v117.355h485.855V304.291h12.098L630.676,221.69z M615.827,399.251H176.172
	l0.002-94.96h439.653V399.251z"/>
<circle fill="#231F20" cx="237.168" cy="256.102" r="24.094"/>
<circle cx="573.481" cy="317.98" r="9.638"/>
<circle cx="303.481" cy="317.979" r="9.921"/>
<polygon points="526.754,304.291 526.756,399.252 436.05,399.248 436.048,304.291 "/>
<rect x="416.205" y="323.425" width="19.843" height="56.692"/>
<rect x="526.755" y="322.819" width="19.843" height="56.692"/>
<g>
	<g>
		<path d="M281.977,157.771h1.043v3.898h0.036c0.216-0.312,0.432-0.6,0.636-0.864l2.471-3.034h1.295l-2.926,3.43l3.154,4.653h-1.235
			l-2.651-3.97l-0.779,0.887v3.083h-1.043V157.771z"/>
		<path d="M288.48,157.891c0.456-0.108,1.187-0.18,1.907-0.18c1.043,0,1.715,0.18,2.207,0.588c0.419,0.312,0.684,0.792,0.684,1.427
			c0,0.792-0.528,1.475-1.367,1.775v0.036c0.768,0.18,1.667,0.815,1.667,2.015c0,0.696-0.276,1.235-0.696,1.619
			c-0.552,0.516-1.463,0.755-2.782,0.755c-0.72,0-1.271-0.048-1.619-0.096V157.891z M289.524,161.201h0.947
			c1.091,0,1.739-0.588,1.739-1.367c0-0.936-0.708-1.319-1.763-1.319c-0.48,0-0.755,0.036-0.923,0.072V161.201z M289.524,165.063
			c0.216,0.036,0.503,0.048,0.875,0.048c1.079,0,2.075-0.396,2.075-1.571c0-1.091-0.947-1.559-2.087-1.559h-0.863V165.063z"/>
		<path d="M297.492,161.861c0-0.684-0.012-1.271-0.048-1.811h0.923l0.048,1.151h0.036c0.264-0.78,0.912-1.271,1.619-1.271
			c0.108,0,0.192,0.012,0.288,0.024v0.996c-0.108-0.024-0.216-0.024-0.36-0.024c-0.744,0-1.271,0.552-1.416,1.343
			c-0.024,0.144-0.036,0.324-0.036,0.492v3.094h-1.056V161.861z"/>
		<path d="M302.639,158.418c0,0.36-0.252,0.648-0.671,0.648c-0.384,0-0.636-0.288-0.636-0.648s0.264-0.66,0.66-0.66
			C302.375,157.759,302.639,158.047,302.639,158.418z M301.464,165.854v-5.805h1.056v5.805H301.464z"/>
		<path d="M309.237,165.003c0,1.343-0.276,2.147-0.828,2.663c-0.576,0.516-1.391,0.696-2.123,0.696c-0.696,0-1.463-0.168-1.931-0.48
			l0.264-0.815c0.384,0.252,0.983,0.468,1.703,0.468c1.08,0,1.871-0.564,1.871-2.039v-0.636h-0.024
			c-0.312,0.54-0.948,0.972-1.847,0.972c-1.439,0-2.471-1.223-2.471-2.831c0-1.967,1.284-3.07,2.627-3.07
			c1.007,0,1.547,0.516,1.811,0.996h0.024l0.036-0.875h0.936c-0.036,0.408-0.048,0.887-0.048,1.583V165.003z M308.182,162.34
			c0-0.18-0.012-0.336-0.06-0.468c-0.192-0.624-0.696-1.127-1.476-1.127c-1.007,0-1.727,0.852-1.727,2.195
			c0,1.14,0.588,2.087,1.715,2.087c0.66,0,1.247-0.408,1.463-1.079c0.06-0.18,0.083-0.384,0.083-0.564V162.34z"/>
		<path d="M310.98,157.339h1.056v3.634h0.024c0.168-0.3,0.432-0.576,0.755-0.755c0.312-0.18,0.684-0.288,1.08-0.288
			c0.779,0,2.027,0.48,2.027,2.471v3.454h-1.056v-3.334c0-0.936-0.348-1.715-1.343-1.715c-0.684,0-1.211,0.48-1.415,1.043
			c-0.06,0.156-0.072,0.312-0.072,0.504v3.502h-1.056V157.339z"/>
		<path d="M318.863,158.658v1.392h1.511v0.803h-1.511v3.13c0,0.72,0.204,1.127,0.792,1.127c0.288,0,0.456-0.024,0.611-0.072
			l0.048,0.803c-0.204,0.072-0.528,0.144-0.936,0.144c-0.492,0-0.888-0.168-1.14-0.444c-0.288-0.324-0.408-0.839-0.408-1.523v-3.167
			h-0.899v-0.803h0.899v-1.08L318.863,158.658z"/>
		<path d="M323.963,164.787c0.324,0.192,0.875,0.408,1.403,0.408c0.756,0,1.115-0.372,1.115-0.863c0-0.504-0.3-0.768-1.067-1.056
			c-1.055-0.384-1.547-0.947-1.547-1.643c0-0.936,0.768-1.703,2.003-1.703c0.587,0,1.104,0.156,1.415,0.36l-0.252,0.768
			c-0.228-0.144-0.647-0.348-1.187-0.348c-0.624,0-0.959,0.36-0.959,0.792c0,0.479,0.335,0.695,1.091,0.995
			c0.996,0.372,1.523,0.876,1.523,1.739c0,1.031-0.803,1.751-2.159,1.751c-0.636,0-1.223-0.168-1.631-0.408L323.963,164.787z"/>
		<path d="M330.035,158.418c0,0.36-0.252,0.648-0.671,0.648c-0.384,0-0.636-0.288-0.636-0.648s0.264-0.66,0.66-0.66
			C329.771,157.759,330.035,158.047,330.035,158.418z M328.859,165.854v-5.805h1.056v5.805H328.859z"/>
		<path d="M336.669,157.339v7.016c0,0.516,0.024,1.103,0.048,1.499h-0.936l-0.048-1.007h-0.036
			c-0.312,0.647-1.007,1.139-1.955,1.139c-1.403,0-2.495-1.188-2.495-2.95c-0.012-1.931,1.2-3.106,2.603-3.106
			c0.9,0,1.487,0.42,1.751,0.875h0.024v-3.466H336.669z M335.625,162.413c0-0.132-0.012-0.312-0.048-0.444
			c-0.156-0.66-0.731-1.211-1.523-1.211c-1.091,0-1.739,0.959-1.739,2.231c0,1.175,0.588,2.146,1.715,2.146
			c0.708,0,1.355-0.479,1.547-1.259c0.036-0.144,0.048-0.288,0.048-0.456V162.413z"/>
		<path d="M339.023,163.144c0.024,1.427,0.923,2.015,1.991,2.015c0.755,0,1.223-0.132,1.607-0.3l0.192,0.756
			c-0.372,0.168-1.019,0.372-1.943,0.372c-1.787,0-2.854-1.188-2.854-2.938s1.032-3.118,2.723-3.118
			c1.907,0,2.399,1.655,2.399,2.723c0,0.216-0.012,0.372-0.036,0.492H339.023z M342.118,162.388c0.012-0.66-0.276-1.703-1.463-1.703
			c-1.08,0-1.535,0.971-1.619,1.703H342.118z"/>
		<path d="M346.655,165.854v-0.647l0.828-0.804c1.991-1.895,2.902-2.902,2.902-4.078c0-0.792-0.372-1.523-1.535-1.523
			c-0.708,0-1.295,0.36-1.655,0.66l-0.336-0.744c0.528-0.444,1.307-0.792,2.195-0.792c1.679,0,2.387,1.151,2.387,2.267
			c0,1.439-1.043,2.603-2.687,4.186l-0.612,0.576v0.024h3.49v0.875H346.655z"/>
		<path d="M358.004,161.873c0,2.651-0.996,4.114-2.71,4.114c-1.523,0-2.567-1.427-2.591-4.006c0-2.626,1.14-4.054,2.723-4.054
			C357.057,157.927,358.004,159.39,358.004,161.873z M353.771,161.993c0,2.027,0.624,3.178,1.583,3.178
			c1.067,0,1.583-1.259,1.583-3.25c0-1.919-0.48-3.179-1.583-3.179C354.442,158.742,353.771,159.87,353.771,161.993z"/>
		<path d="M361.258,159.042h-0.024l-1.355,0.732l-0.204-0.804l1.703-0.912h0.9v7.796h-1.02V159.042z"/>
		<path d="M365.734,165.111c0.228,0.024,0.492,0,0.852-0.036c0.612-0.083,1.188-0.324,1.631-0.755
			c0.516-0.468,0.888-1.151,1.032-2.063h-0.036c-0.432,0.528-1.055,0.828-1.847,0.828c-1.392,0-2.291-1.055-2.291-2.387
			c0-1.475,1.067-2.771,2.663-2.771s2.579,1.283,2.579,3.298c0,1.703-0.576,2.902-1.343,3.646c-0.6,0.587-1.427,0.947-2.267,1.043
			c-0.384,0.06-0.72,0.072-0.972,0.06V165.111z M366.118,160.637c0,0.972,0.588,1.655,1.499,1.655c0.708,0,1.259-0.348,1.535-0.815
			c0.06-0.108,0.096-0.216,0.096-0.396c0-1.331-0.492-2.351-1.607-2.351C366.754,158.73,366.118,159.522,366.118,160.637z"/>
		<path d="M374.061,162.232V163h-2.962v-0.768H374.061z"/>
		<path d="M380.156,161.873c0,2.651-0.996,4.114-2.71,4.114c-1.523,0-2.567-1.427-2.591-4.006c0-2.626,1.14-4.054,2.723-4.054
			C379.208,157.927,380.156,159.39,380.156,161.873z M375.922,161.993c0,2.027,0.624,3.178,1.583,3.178
			c1.067,0,1.583-1.259,1.583-3.25c0-1.919-0.48-3.179-1.583-3.179C376.594,158.742,375.922,159.87,375.922,161.993z"/>
		<path d="M383.409,159.042h-0.024l-1.355,0.732l-0.204-0.804l1.703-0.912h0.9v7.796h-1.02V159.042z"/>
		<path d="M390.057,162.232V163h-2.962v-0.768H390.057z"/>
		<path d="M390.958,165.854v-0.647l0.828-0.804c1.991-1.895,2.902-2.902,2.902-4.078c0-0.792-0.372-1.523-1.535-1.523
			c-0.708,0-1.295,0.36-1.655,0.66l-0.336-0.744c0.528-0.444,1.307-0.792,2.195-0.792c1.679,0,2.387,1.151,2.387,2.267
			c0,1.439-1.043,2.603-2.687,4.186l-0.612,0.576v0.024h3.49v0.875H390.958z"/>
		<path d="M402.307,161.873c0,2.651-0.994,4.114-2.711,4.114c-1.521,0-2.566-1.427-2.59-4.006c0-2.626,1.139-4.054,2.723-4.054
			C401.359,157.927,402.307,159.39,402.307,161.873z M398.074,161.993c0,2.027,0.623,3.178,1.582,3.178
			c1.068,0,1.584-1.259,1.584-3.25c0-1.919-0.48-3.179-1.584-3.179C398.744,158.742,398.074,159.87,398.074,161.993z"/>
		<path d="M406.053,162.232V163h-2.963v-0.768H406.053z"/>
		<path d="M412.146,161.873c0,2.651-0.996,4.114-2.711,4.114c-1.523,0-2.566-1.427-2.59-4.006c0-2.626,1.139-4.054,2.723-4.054
			C411.199,157.927,412.146,159.39,412.146,161.873z M407.912,161.993c0,2.027,0.625,3.178,1.584,3.178
			c1.066,0,1.582-1.259,1.582-3.25c0-1.919-0.479-3.179-1.582-3.179C408.584,158.742,407.912,159.87,407.912,161.993z"/>
		<path d="M413.109,165.854v-0.647l0.828-0.804c1.99-1.895,2.902-2.902,2.902-4.078c0-0.792-0.373-1.523-1.535-1.523
			c-0.707,0-1.295,0.36-1.656,0.66l-0.336-0.744c0.529-0.444,1.309-0.792,2.195-0.792c1.68,0,2.387,1.151,2.387,2.267
			c0,1.439-1.043,2.603-2.686,4.186l-0.611,0.576v0.024h3.488v0.875H413.109z"/>
		<path d="M422.146,161.861c0-0.684-0.014-1.271-0.049-1.811h0.924l0.047,1.151h0.037c0.264-0.78,0.91-1.271,1.619-1.271
			c0.107,0,0.191,0.012,0.287,0.024v0.996c-0.107-0.024-0.215-0.024-0.359-0.024c-0.744,0-1.271,0.552-1.416,1.343
			c-0.023,0.144-0.035,0.324-0.035,0.492v3.094h-1.055V161.861z"/>
		<path d="M426.537,163.144c0.023,1.427,0.924,2.015,1.99,2.015c0.756,0,1.225-0.132,1.607-0.3l0.191,0.756
			c-0.371,0.168-1.02,0.372-1.941,0.372c-1.787,0-2.855-1.188-2.855-2.938s1.031-3.118,2.723-3.118c1.906,0,2.398,1.655,2.398,2.723
			c0,0.216-0.012,0.372-0.035,0.492H426.537z M429.631,162.388c0.012-0.66-0.275-1.703-1.463-1.703c-1.08,0-1.535,0.971-1.619,1.703
			H429.631z"/>
		<path d="M436.963,157.339v7.016c0,0.516,0.023,1.103,0.047,1.499h-0.936l-0.047-1.007h-0.037
			c-0.311,0.647-1.008,1.139-1.955,1.139c-1.402,0-2.494-1.188-2.494-2.95c-0.012-1.931,1.199-3.106,2.604-3.106
			c0.898,0,1.486,0.42,1.75,0.875h0.023v-3.466H436.963z M435.918,162.413c0-0.132-0.012-0.312-0.047-0.444
			c-0.156-0.66-0.732-1.211-1.523-1.211c-1.092,0-1.738,0.959-1.738,2.231c0,1.175,0.586,2.146,1.715,2.146
			c0.707,0,1.355-0.479,1.547-1.259c0.035-0.144,0.047-0.288,0.047-0.456V162.413z"/>
		<path d="M443.586,164.259c0,0.612,0.012,1.14,0.049,1.595h-0.936l-0.061-0.947h-0.023c-0.266,0.468-0.889,1.079-1.92,1.079
			c-0.912,0-2.002-0.516-2.002-2.542v-3.394h1.055v3.202c0,1.104,0.348,1.859,1.295,1.859c0.707,0,1.199-0.492,1.391-0.971
			c0.061-0.144,0.098-0.336,0.098-0.54v-3.55h1.055V164.259z"/>
		<path d="M449.479,165.65c-0.275,0.132-0.887,0.336-1.668,0.336c-1.75,0-2.889-1.188-2.889-2.962c0-1.787,1.223-3.094,3.117-3.094
			c0.623,0,1.176,0.156,1.463,0.312l-0.24,0.803c-0.25-0.132-0.646-0.275-1.223-0.275c-1.33,0-2.051,0.995-2.051,2.194
			c0,1.343,0.863,2.171,2.016,2.171c0.6,0,0.994-0.144,1.295-0.276L449.479,165.65z"/>
		<path d="M451.232,163.144c0.023,1.427,0.924,2.015,1.99,2.015c0.756,0,1.225-0.132,1.607-0.3l0.191,0.756
			c-0.371,0.168-1.02,0.372-1.941,0.372c-1.787,0-2.855-1.188-2.855-2.938s1.031-3.118,2.723-3.118c1.906,0,2.398,1.655,2.398,2.723
			c0,0.216-0.012,0.372-0.035,0.492H451.232z M454.326,162.388c0.012-0.66-0.275-1.703-1.463-1.703c-1.08,0-1.535,0.971-1.619,1.703
			H454.326z"/>
		<path d="M461.658,157.339v7.016c0,0.516,0.023,1.103,0.049,1.499h-0.936l-0.049-1.007h-0.035
			c-0.313,0.647-1.008,1.139-1.955,1.139c-1.404,0-2.494-1.188-2.494-2.95c-0.014-1.931,1.199-3.106,2.602-3.106
			c0.9,0,1.488,0.42,1.752,0.875h0.023v-3.466H461.658z M460.615,162.413c0-0.132-0.012-0.312-0.049-0.444
			c-0.154-0.66-0.73-1.211-1.523-1.211c-1.09,0-1.738,0.959-1.738,2.231c0,1.175,0.588,2.146,1.715,2.146
			c0.709,0,1.355-0.479,1.547-1.259c0.037-0.144,0.049-0.288,0.049-0.456V162.413z"/>
		<path d="M465.969,157.339h1.055v3.634h0.025c0.168-0.3,0.432-0.576,0.756-0.755c0.311-0.18,0.684-0.288,1.078-0.288
			c0.779,0,2.027,0.48,2.027,2.471v3.454h-1.055v-3.334c0-0.936-0.35-1.715-1.344-1.715c-0.684,0-1.211,0.48-1.416,1.043
			c-0.059,0.156-0.072,0.312-0.072,0.504v3.502h-1.055V157.339z"/>
		<path d="M473.217,163.144c0.023,1.427,0.924,2.015,1.99,2.015c0.756,0,1.225-0.132,1.607-0.3l0.191,0.756
			c-0.371,0.168-1.02,0.372-1.941,0.372c-1.787,0-2.855-1.188-2.855-2.938s1.031-3.118,2.723-3.118c1.906,0,2.398,1.655,2.398,2.723
			c0,0.216-0.012,0.372-0.035,0.492H473.217z M476.311,162.388c0.012-0.66-0.275-1.703-1.463-1.703c-1.08,0-1.535,0.971-1.619,1.703
			H476.311z"/>
		<path d="M479.816,158.418c0,0.36-0.252,0.648-0.672,0.648c-0.385,0-0.637-0.288-0.637-0.648s0.266-0.66,0.66-0.66
			C479.553,157.759,479.816,158.047,479.816,158.418z M478.641,165.854v-5.805h1.055v5.805H478.641z"/>
		<path d="M486.414,165.003c0,1.343-0.277,2.147-0.828,2.663c-0.576,0.516-1.391,0.696-2.123,0.696c-0.695,0-1.463-0.168-1.932-0.48
			l0.266-0.815c0.383,0.252,0.982,0.468,1.703,0.468c1.078,0,1.869-0.564,1.869-2.039v-0.636h-0.023
			c-0.311,0.54-0.947,0.972-1.846,0.972c-1.439,0-2.471-1.223-2.471-2.831c0-1.967,1.283-3.07,2.625-3.07
			c1.008,0,1.549,0.516,1.813,0.996h0.023l0.035-0.875h0.936c-0.035,0.408-0.047,0.887-0.047,1.583V165.003z M485.357,162.34
			c0-0.18-0.012-0.336-0.059-0.468c-0.193-0.624-0.697-1.127-1.477-1.127c-1.006,0-1.727,0.852-1.727,2.195
			c0,1.14,0.588,2.087,1.715,2.087c0.66,0,1.248-0.408,1.463-1.079c0.061-0.18,0.084-0.384,0.084-0.564V162.34z"/>
		<path d="M488.156,157.339h1.055v3.634h0.025c0.168-0.3,0.432-0.576,0.756-0.755c0.311-0.18,0.684-0.288,1.078-0.288
			c0.779,0,2.027,0.48,2.027,2.471v3.454h-1.055v-3.334c0-0.936-0.35-1.715-1.344-1.715c-0.684,0-1.211,0.48-1.416,1.043
			c-0.059,0.156-0.072,0.312-0.072,0.504v3.502h-1.055V157.339z"/>
		<path d="M496.039,158.658v1.392h1.512v0.803h-1.512v3.13c0,0.72,0.205,1.127,0.793,1.127c0.287,0,0.455-0.024,0.611-0.072
			l0.047,0.803c-0.203,0.072-0.527,0.144-0.936,0.144c-0.49,0-0.887-0.168-1.139-0.444c-0.287-0.324-0.408-0.839-0.408-1.523v-3.167
			h-0.898v-0.803h0.898v-1.08L496.039,158.658z"/>
		<path d="M506.537,162.904c0,2.146-1.498,3.082-2.891,3.082c-1.559,0-2.781-1.151-2.781-2.986c0-1.931,1.283-3.07,2.877-3.07
			C505.41,159.93,506.537,161.141,506.537,162.904z M501.943,162.964c0,1.271,0.721,2.231,1.752,2.231
			c1.008,0,1.762-0.947,1.762-2.255c0-0.983-0.49-2.219-1.738-2.219C502.484,160.721,501.943,161.873,501.943,162.964z"/>
		<path d="M507.98,165.854v-5.001h-0.805v-0.803h0.805v-0.276c0-0.815,0.191-1.559,0.672-2.027c0.395-0.384,0.922-0.54,1.414-0.54
			c0.385,0,0.695,0.084,0.9,0.168l-0.145,0.816c-0.156-0.072-0.359-0.132-0.672-0.132c-0.898,0-1.127,0.78-1.127,1.679v0.312h1.402
			v0.803h-1.402v5.001H507.98z"/>
		<path d="M513.92,161.861c0-0.684-0.012-1.271-0.049-1.811h0.924l0.049,1.151h0.035c0.264-0.78,0.912-1.271,1.619-1.271
			c0.109,0,0.191,0.012,0.289,0.024v0.996c-0.109-0.024-0.217-0.024-0.361-0.024c-0.742,0-1.271,0.552-1.414,1.343
			c-0.023,0.144-0.037,0.324-0.037,0.492v3.094h-1.055V161.861z"/>
		<path d="M518.311,163.144c0.025,1.427,0.924,2.015,1.992,2.015c0.756,0,1.223-0.132,1.607-0.3l0.191,0.756
			c-0.373,0.168-1.02,0.372-1.943,0.372c-1.787,0-2.854-1.188-2.854-2.938s1.031-3.118,2.723-3.118c1.906,0,2.398,1.655,2.398,2.723
			c0,0.216-0.014,0.372-0.037,0.492H518.311z M521.406,162.388c0.012-0.66-0.277-1.703-1.463-1.703c-1.08,0-1.535,0.971-1.619,1.703
			H521.406z"/>
		<path d="M525.006,158.658v1.392h1.512v0.803h-1.512v3.13c0,0.72,0.205,1.127,0.793,1.127c0.287,0,0.455-0.024,0.611-0.072
			l0.047,0.803c-0.203,0.072-0.527,0.144-0.936,0.144c-0.49,0-0.887-0.168-1.139-0.444c-0.287-0.324-0.408-0.839-0.408-1.523v-3.167
			h-0.898v-0.803h0.898v-1.08L525.006,158.658z"/>
		<path d="M528.223,163.144c0.025,1.427,0.924,2.015,1.992,2.015c0.756,0,1.223-0.132,1.607-0.3l0.191,0.756
			c-0.373,0.168-1.02,0.372-1.943,0.372c-1.787,0-2.854-1.188-2.854-2.938s1.031-3.118,2.723-3.118c1.906,0,2.398,1.655,2.398,2.723
			c0,0.216-0.014,0.372-0.037,0.492H528.223z M531.318,162.388c0.012-0.66-0.277-1.703-1.463-1.703c-1.08,0-1.535,0.971-1.619,1.703
			H531.318z"/>
		<path d="M533.648,161.621c0-0.611-0.014-1.091-0.049-1.571h0.936l0.061,0.959h0.023c0.287-0.54,0.959-1.08,1.918-1.08
			c0.805,0,2.051,0.48,2.051,2.471v3.454h-1.055v-3.346c0-0.936-0.348-1.715-1.344-1.715c-0.684,0-1.223,0.492-1.414,1.079
			c-0.049,0.132-0.072,0.312-0.072,0.492v3.49h-1.055V161.621z"/>
		<path d="M541.531,158.658v1.392h1.512v0.803h-1.512v3.13c0,0.72,0.203,1.127,0.791,1.127c0.289,0,0.457-0.024,0.611-0.072
			l0.049,0.803c-0.203,0.072-0.527,0.144-0.936,0.144c-0.492,0-0.887-0.168-1.139-0.444c-0.289-0.324-0.408-0.839-0.408-1.523
			v-3.167h-0.9v-0.803h0.9v-1.08L541.531,158.658z"/>
		<path d="M545.406,158.418c0,0.36-0.252,0.648-0.672,0.648c-0.383,0-0.635-0.288-0.635-0.648s0.264-0.66,0.66-0.66
			C545.143,157.759,545.406,158.047,545.406,158.418z M544.232,165.854v-5.805h1.055v5.805H544.232z"/>
		<path d="M552.293,162.904c0,2.146-1.5,3.082-2.891,3.082c-1.561,0-2.783-1.151-2.783-2.986c0-1.931,1.283-3.07,2.879-3.07
			C551.164,159.93,552.293,161.141,552.293,162.904z M547.699,162.964c0,1.271,0.719,2.231,1.75,2.231
			c1.008,0,1.764-0.947,1.764-2.255c0-0.983-0.492-2.219-1.738-2.219C548.238,160.721,547.699,161.873,547.699,162.964z"/>
		<path d="M553.627,161.621c0-0.611-0.012-1.091-0.049-1.571h0.936l0.061,0.959h0.023c0.289-0.54,0.961-1.08,1.92-1.08
			c0.803,0,2.051,0.48,2.051,2.471v3.454h-1.055v-3.346c0-0.936-0.35-1.715-1.344-1.715c-0.684,0-1.225,0.492-1.416,1.079
			c-0.047,0.132-0.072,0.312-0.072,0.492v3.49h-1.055V161.621z"/>
		<path d="M563.875,162.712h0.023c0.145-0.204,0.336-0.456,0.504-0.66l1.715-2.003h1.26l-2.23,2.387l2.555,3.418h-1.297l-1.99-2.782
			l-0.539,0.6v2.183h-1.043v-8.515h1.043V162.712z"/>
		<path d="M569.047,163.144c0.023,1.427,0.924,2.015,1.99,2.015c0.756,0,1.225-0.132,1.607-0.3l0.191,0.756
			c-0.371,0.168-1.02,0.372-1.941,0.372c-1.787,0-2.855-1.188-2.855-2.938s1.031-3.118,2.723-3.118c1.906,0,2.398,1.655,2.398,2.723
			c0,0.216-0.012,0.372-0.035,0.492H569.047z M572.141,162.388c0.012-0.66-0.275-1.703-1.463-1.703c-1.08,0-1.535,0.971-1.619,1.703
			H572.141z"/>
		<path d="M574.855,160.05l1.258,3.43c0.145,0.384,0.289,0.839,0.385,1.187h0.023c0.107-0.348,0.229-0.792,0.371-1.211l1.152-3.406
			h1.115l-1.584,4.138c-0.754,1.991-1.27,2.998-1.99,3.634c-0.527,0.444-1.031,0.624-1.295,0.672l-0.264-0.875
			c0.264-0.084,0.611-0.252,0.924-0.516c0.287-0.228,0.635-0.635,0.887-1.175c0.049-0.108,0.084-0.192,0.084-0.251
			c0-0.06-0.023-0.144-0.084-0.276l-2.135-5.349H574.855z"/>
		<path d="M579.906,164.787c0.324,0.192,0.877,0.408,1.404,0.408c0.756,0,1.115-0.372,1.115-0.863c0-0.504-0.301-0.768-1.068-1.056
			c-1.055-0.384-1.547-0.947-1.547-1.643c0-0.936,0.768-1.703,2.004-1.703c0.588,0,1.104,0.156,1.414,0.36l-0.252,0.768
			c-0.227-0.144-0.646-0.348-1.188-0.348c-0.623,0-0.959,0.36-0.959,0.792c0,0.479,0.336,0.695,1.092,0.995
			c0.996,0.372,1.523,0.876,1.523,1.739c0,1.031-0.805,1.751-2.16,1.751c-0.635,0-1.223-0.168-1.631-0.408L579.906,164.787z"/>
	</g>
</g>
</svg>
