<?xml version="1.0" encoding="utf-8"?>
<!-- Generator: Adobe Illustrator 15.0.0, SVG Export Plug-In . SVG Version: 6.00 Build 0)  -->
<!DOCTYPE svg PUBLIC "-//W3C//DTD SVG 1.1//EN" "http://www.w3.org/Graphics/SVG/1.1/DTD/svg11.dtd">
<svg version="1.1" id="Layer_1" xmlns="http://www.w3.org/2000/svg" xmlns:xlink="http://www.w3.org/1999/xlink" x="0px" y="0px"
	 width="2834.65px" height="2834.65px" viewBox="0 0 2834.65 2834.65" enable-background="new 0 0 2834.65 2834.65"
	 xml:space="preserve">
<g>
	<path fill="none" stroke="#010101" stroke-miterlimit="10" d="M1662.311,1549.967h1.051c-32.034,0-23.12,0,0,0
		c15.213,0,23.086-12.807,23.086-23.057s0-187.35,0-214.438c0-27.087-21.007-25.403-28.636-25.403
		c-7.628,0-478.012,16.904-479.489,16.904c0,0-30.457-0.163-30.453,25.978c0.004,23.392-0.004,78.9-0.004,78.9v118.059
		c0,0,0,23.057,23.07,23.057c23.069,0,104.487,0,104.487,0h127.561h155.902h56.693h39.687H1662.311z"/>
	<path fill="#010101" d="M1161.785,1408.852h12.097v117.355h485.856v-117.355l0,0c0,0,16.533-4.05,16.533-8.503
		c0-4.454,0-13.536,0-13.536s-9.829-61.277-10.065-62.632c-2.08-11.952-3.986-11.428-12.566-11.142
		c-8.579,0.286-471.505,13.212-471.505,13.212L1161.785,1408.852z M1196.983,1408.852h439.652l0.002,94.959h-439.655
		L1196.983,1408.852L1196.983,1408.852z"/>
	<circle fill="#010101" cx="1239.33" cy="1422.541" r="9.639"/>
	<circle fill="#010101" cx="1509.329" cy="1422.541" r="9.921"/>
	<polygon fill="#010101" points="1376.763,1408.852 1376.761,1503.809 1286.055,1503.813 1286.057,1408.852 	"/>
</g>
<path fill="none" stroke="#010101" stroke-miterlimit="10" d="M1179.045,1264.682h39.686h56.693h155.904h127.559
	c0,0,81.418,0,104.488,0s23.07-23.058,23.07-23.058v-118.06c0,0-0.01-55.51-0.005-78.9c0.005-26.141-30.452-25.978-30.452-25.978
	c-1.479,0-471.86-16.904-479.488-16.904s-28.635-1.684-28.635,25.403c0,27.088,0,204.188,0,214.438s7.873,23.057,23.086,23.057
	c23.12,0,32.034,0,0,0H1172L1179.045,1264.682L1179.045,1264.682z"/>
<path fill="#010101" d="M1652.176,1040.964c0,0-462.925-12.927-471.505-13.213s-10.487-0.812-12.567,11.142
	c-0.235,1.354-10.065,62.631-10.065,62.631s0,9.084,0,13.537c0,4.454,16.534,8.504,16.534,8.504l0,0v117.354h485.854v-117.354
	h12.098L1652.176,1040.964z M1637.327,1218.525h-439.655l0.002-94.96h439.653V1218.525L1637.327,1218.525z"/>
<circle fill="#231F20" cx="1258.668" cy="1075.376" r="24.094"/>
<circle fill="#010101" cx="1594.98" cy="1137.254" r="9.638"/>
<circle fill="#010101" cx="1324.98" cy="1137.253" r="9.921"/>
<polygon fill="#010101" points="1548.254,1123.564 1548.256,1218.526 1457.55,1218.521 1457.548,1123.564 "/>
<rect x="1056.128" y="926.451" fill="none" stroke="#000000" stroke-miterlimit="10" width="720" height="720"/>
</svg>
