  0
SECTION
  2
HEADER
  9
$ACADVER
  1
AC1018
  9
$ACADMAINTVER
 70
     0
  9
$DWGCODEPAGE
  3
ANSI_1252
  9
$INSBASE
 10
0.0
 20
0.0
 30
0.0
  9
$EXTMIN
 10
1.000000000000000E+20
 20
1.000000000000000E+20
 30
1.000000000000000E+20
  9
$EXTMAX
 10
-1.000000000000000E+20
 20
-1.000000000000000E+20
 30
-1.000000000000000E+20
  9
$LIMMIN
 10
0.0
 20
0.0
  9
$LIMMAX
 10
12.0
 20
9.0
  9
$ORTHOMODE
 70
     0
  9
$REGENMODE
 70
     1
  9
$FILLMODE
 70
     1
  9
$QTEXTMODE
 70
     0
  9
$MIRRTEXT
 70
     1
  9
$LTSCALE
 40
1.0
  9
$ATTMODE
 70
     1
  9
$TEXTSIZE
 40
0.2
  9
$TRACEWID
 40
0.05
  9
$TEXTSTYLE
  7
Standard
  9
$CLAYER
  8
0
  9
$CELTYPE
  6
ByLayer
  9
$CECOLOR
 62
   256
  9
$CELTSCALE
 40
1.0
  9
$DISPSILH
 70
     0
  9
$DIMSCALE
 40
1.0
  9
$DIMASZ
 40
0.18
  9
$DIMEXO
 40
0.0625
  9
$DIMDLI
 40
0.38
  9
$DIMRND
 40
0.0
  9
$DIMDLE
 40
0.0
  9
$DIMEXE
 40
0.18
  9
$DIMTP
 40
0.0
  9
$DIMTM
 40
0.0
  9
$DIMTXT
 40
0.18
  9
$DIMCEN
 40
0.09
  9
$DIMTSZ
 40
0.0
  9
$DIMTOL
 70
     0
  9
$DIMLIM
 70
     0
  9
$DIMTIH
 70
     1
  9
$DIMTOH
 70
     1
  9
$DIMSE1
 70
     0
  9
$DIMSE2
 70
     0
  9
$DIMTAD
 70
     0
  9
$DIMZIN
 70
     0
  9
$DIMBLK
  1

  9
$DIMASO
 70
     1
  9
$DIMSHO
 70
     1
  9
$DIMPOST
  1

  9
$DIMAPOST
  1

  9
$DIMALT
 70
     0
  9
$DIMALTD
 70
     2
  9
$DIMALTF
 40
25.4
  9
$DIMLFAC
 40
1.0
  9
$DIMTOFL
 70
     0
  9
$DIMTVP
 40
0.0
  9
$DIMTIX
 70
     0
  9
$DIMSOXD
 70
     0
  9
$DIMSAH
 70
     0
  9
$DIMBLK1
  1

  9
$DIMBLK2
  1

  9
$DIMSTYLE
  2
Standard
  9
$DIMCLRD
 70
     0
  9
$DIMCLRE
 70
     0
  9
$DIMCLRT
 70
     0
  9
$DIMTFAC
 40
1.0
  9
$DIMGAP
 40
0.09
  9
$DIMJUST
 70
     0
  9
$DIMSD1
 70
     0
  9
$DIMSD2
 70
     0
  9
$DIMTOLJ
 70
     1
  9
$DIMTZIN
 70
     0
  9
$DIMALTZ
 70
     0
  9
$DIMALTTZ
 70
     0
  9
$DIMUPT
 70
     0
  9
$DIMDEC
 70
     4
  9
$DIMTDEC
 70
     4
  9
$DIMALTU
 70
     2
  9
$DIMALTTD
 70
     2
  9
$DIMTXSTY
  7
Standard
  9
$DIMAUNIT
 70
     0
  9
$DIMADEC
 70
     0
  9
$DIMALTRND
 40
0.0
  9
$DIMAZIN
 70
     0
  9
$DIMDSEP
 70
    46
  9
$DIMATFIT
 70
     3
  9
$DIMFRAC
 70
     0
  9
$DIMLDRBLK
  1

  9
$DIMLUNIT
 70
     2
  9
$DIMLWD
 70
    -2
  9
$DIMLWE
 70
    -2
  9
$DIMTMOVE
 70
     0
  9
$LUNITS
 70
     2
  9
$LUPREC
 70
     4
  9
$SKETCHINC
 40
0.1
  9
$FILLETRAD
 40
0.5
  9
$AUNITS
 70
     0
  9
$AUPREC
 70
     0
  9
$MENU
  1
.
  9
$ELEVATION
 40
0.0
  9
$PELEVATION
 40
0.0
  9
$THICKNESS
 40
0.0
  9
$LIMCHECK
 70
     0
  9
$CHAMFERA
 40
0.5
  9
$CHAMFERB
 40
0.5
  9
$CHAMFERC
 40
1.0
  9
$CHAMFERD
 40
0.0
  9
$SKPOLY
 70
     0
  9
$TDCREATE
 40
2458164.817962789
  9
$TDUCREATE
 40
2458165.067962789
  9
$TDUPDATE
 40
2458164.817962801
  9
$TDUUPDATE
 40
2458165.067962801
  9
$TDINDWG
 40
0.0000000116
  9
$TDUSRTIMER
 40
0.0000000116
  9
$USRTIMER
 70
     1
  9
$ANGBASE
 50
0.0
  9
$ANGDIR
 70
     0
  9
$PDMODE
 70
     0
  9
$PDSIZE
 40
0.0
  9
$PLINEWID
 40
0.0
  9
$SPLFRAME
 70
     0
  9
$SPLINETYPE
 70
     6
  9
$SPLINESEGS
 70
     8
  9
$HANDSEED
  5
206
  9
$SURFTAB1
 70
     6
  9
$SURFTAB2
 70
     6
  9
$SURFTYPE
 70
     6
  9
$SURFU
 70
     6
  9
$SURFV
 70
     6
  9
$UCSBASE
  2

  9
$UCSNAME
  2

  9
$UCSORG
 10
0.0
 20
0.0
 30
0.0
  9
$UCSXDIR
 10
1.0
 20
0.0
 30
0.0
  9
$UCSYDIR
 10
0.0
 20
1.0
 30
0.0
  9
$UCSORTHOREF
  2

  9
$UCSORTHOVIEW
 70
     0
  9
$UCSORGTOP
 10
0.0
 20
0.0
 30
0.0
  9
$UCSORGBOTTOM
 10
0.0
 20
0.0
 30
0.0
  9
$UCSORGLEFT
 10
0.0
 20
0.0
 30
0.0
  9
$UCSORGRIGHT
 10
0.0
 20
0.0
 30
0.0
  9
$UCSORGFRONT
 10
0.0
 20
0.0
 30
0.0
  9
$UCSORGBACK
 10
0.0
 20
0.0
 30
0.0
  9
$PUCSBASE
  2

  9
$PUCSNAME
  2

  9
$PUCSORG
 10
0.0
 20
0.0
 30
0.0
  9
$PUCSXDIR
 10
1.0
 20
0.0
 30
0.0
  9
$PUCSYDIR
 10
0.0
 20
1.0
 30
0.0
  9
$PUCSORTHOREF
  2

  9
$PUCSORTHOVIEW
 70
     0
  9
$PUCSORGTOP
 10
0.0
 20
0.0
 30
0.0
  9
$PUCSORGBOTTOM
 10
0.0
 20
0.0
 30
0.0
  9
$PUCSORGLEFT
 10
0.0
 20
0.0
 30
0.0
  9
$PUCSORGRIGHT
 10
0.0
 20
0.0
 30
0.0
  9
$PUCSORGFRONT
 10
0.0
 20
0.0
 30
0.0
  9
$PUCSORGBACK
 10
0.0
 20
0.0
 30
0.0
  9
$USERI1
 70
     0
  9
$USERI2
 70
     0
  9
$USERI3
 70
     0
  9
$USERI4
 70
     0
  9
$USERI5
 70
     0
  9
$USERR1
 40
0.0
  9
$USERR2
 40
0.0
  9
$USERR3
 40
0.0
  9
$USERR4
 40
0.0
  9
$USERR5
 40
0.0
  9
$WORLDVIEW
 70
     1
  9
$SHADEDGE
 70
     3
  9
$SHADEDIF
 70
    70
  9
$TILEMODE
 70
     1
  9
$MAXACTVP
 70
    64
  9
$PINSBASE
 10
0.0
 20
0.0
 30
0.0
  9
$PLIMCHECK
 70
     0
  9
$PEXTMIN
 10
1.000000000000000E+20
 20
1.000000000000000E+20
 30
1.000000000000000E+20
  9
$PEXTMAX
 10
-1.000000000000000E+20
 20
-1.000000000000000E+20
 30
-1.000000000000000E+20
  9
$PLIMMIN
 10
0.0
 20
0.0
  9
$PLIMMAX
 10
12.0
 20
9.0
  9
$UNITMODE
 70
     0
  9
$VISRETAIN
 70
     1
  9
$PLINEGEN
 70
     0
  9
$PSLTSCALE
 70
     1
  9
$TREEDEPTH
 70
  3020
  9
$CMLSTYLE
  2
Standard
  9
$CMLJUST
 70
     0
  9
$CMLSCALE
 40
1.0
  9
$PROXYGRAPHICS
 70
     1
  9
$MEASUREMENT
 70
     0
  9
$CELWEIGHT
370
    -1
  9
$ENDCAPS
280
     0
  9
$JOINSTYLE
280
     0
  9
$LWDISPLAY
290
     1
  9
$INSUNITS
 70
     1
  9
$HYPERLINKBASE
  1

  9
$STYLESHEET
  1

  9
$XEDIT
290
     1
  9
$CEPSNTYPE
380
     0
  9
$PSTYLEMODE
290
     1
  9
$FINGERPRINTGUID
  2
{D2BA7CC9-9939-4A13-A401-C08ADEDB2E29}
  9
$VERSIONGUID
  2
{FAEB1C32-E019-11D5-929B-00C0DF256EC4}
  9
$EXTNAMES
290
     1
  9
$PSVPSCALE
 40
0.0
  9
$OLESTARTUP
290
     0
  9
$SORTENTS
280
   127
  9
$INDEXCTL
280
     0
  9
$HIDETEXT
280
     1
  9
$XCLIPFRAME
290
     0
  9
$HALOGAP
280
     0
  9
$OBSCOLOR
 70
   257
  9
$OBSLTYPE
280
     0
  9
$INTERSECTIONDISPLAY
280
     0
  9
$INTERSECTIONCOLOR
 70
   257
  9
$DIMASSOC
280
     2
  9
$PROJECTNAME
  1

  0
ENDSEC
  0
SECTION
  2
CLASSES
  0
CLASS
  1
ACDBDICTIONARYWDFLT
  2
AcDbDictionaryWithDefault
  3
ObjectDBX Classes
 90
        0
 91
        3
280
     0
281
     0
  0
CLASS
  1
VISUALSTYLE
  2
AcDbVisualStyle
  3
ObjectDBX Classes
 90
     4095
 91
        3
280
     0
281
     0
  0
ENDSEC
  0
SECTION
  2
TABLES
  0
TABLE
  2
VPORT
  5
8
330
0
100
AcDbSymbolTable
 70
     1
  0
VPORT
  5
29
330
8
100
AcDbSymbolTableRecord
100
AcDbViewportTableRecord
  2
*Active
 70
     0
 10
0.0
 20
0.0
 11
1.0
 21
1.0
 12
0.0
 22
0.0
 13
0.0
 23
0.0
 14
0.5
 24
0.5
 15
0.5
 25
0.5
 16
0.0
 26
0.0
 36
1.0
 17
180.4460384548581
 27
135.643145004674
 37
0.0
 40
384.0002423761321
 41
2.057292208701019
 42
50.0
 43
0.0
 44
0.0
 50
0.0
 51
0.0
 71
     0
 72
   100
 73
     1
 74
     3
 75
     0
 76
     0
 77
     0
 78
     0
281
     0
 65
     1
110
0.0
120
0.0
130
0.0
111
1.0
121
0.0
131
0.0
112
0.0
122
1.0
132
0.0
 79
     0
146
0.0
  0
ENDTAB
  0
TABLE
  2
LTYPE
  5
5
330
0
100
AcDbSymbolTable
 70
     1
  0
LTYPE
  5
14
330
5
100
AcDbSymbolTableRecord
100
AcDbLinetypeTableRecord
  2
ByBlock
 70
     0
  3

 72
    65
 73
     0
 40
0.0
  0
LTYPE
  5
15
330
5
100
AcDbSymbolTableRecord
100
AcDbLinetypeTableRecord
  2
ByLayer
 70
     0
  3

 72
    65
 73
     0
 40
0.0
  0
LTYPE
  5
16
330
5
100
AcDbSymbolTableRecord
100
AcDbLinetypeTableRecord
  2
Continuous
 70
     0
  3
Solid line
 72
    65
 73
     0
 40
0.0
  0
ENDTAB
  0
TABLE
  2
LAYER
  5
2
330
0
100
AcDbSymbolTable
 70
     3
  0
LAYER
  5
10
330
2
100
AcDbSymbolTableRecord
100
AcDbLayerTableRecord
  2
0
 70
     0
 62
     7
  6
Continuous
370
    -3
390
F
  0
LAYER
  5
3B
330
2
100
AcDbSymbolTableRecord
100
AcDbLayerTableRecord
  2
Layer 1
 70
     0
 62
     7
  6
Continuous
370
    -3
390
F
  0
LAYER
  5
200
330
2
100
AcDbSymbolTableRecord
100
AcDbLayerTableRecord
  2
Layer 2
 70
     5
 62
     7
  6
Continuous
370
    -3
390
F
  0
ENDTAB
  0
TABLE
  2
STYLE
  5
3
330
0
100
AcDbSymbolTable
 70
     1
  0
STYLE
  5
11
330
3
100
AcDbSymbolTableRecord
100
AcDbTextStyleTableRecord
  2
Standard
 70
     0
 40
0.0
 41
1.0
 50
0.0
 71
     0
 42
0.2
  3
txt
  4

  0
ENDTAB
  0
TABLE
  2
VIEW
  5
6
330
0
100
AcDbSymbolTable
 70
     0
  0
ENDTAB
  0
TABLE
  2
UCS
  5
7
330
0
100
AcDbSymbolTable
 70
     0
  0
ENDTAB
  0
TABLE
  2
APPID
  5
9
330
0
100
AcDbSymbolTable
 70
     1
  0
APPID
  5
12
330
9
100
AcDbSymbolTableRecord
100
AcDbRegAppTableRecord
  2
ACAD
 70
     0
  0
ENDTAB
  0
TABLE
  2
DIMSTYLE
  5
A
330
0
100
AcDbSymbolTable
 70
     1
100
AcDbDimStyleTable
  0
DIMSTYLE
105
27
330
A
100
AcDbSymbolTableRecord
100
AcDbDimStyleTableRecord
  2
Standard
 70
     0
340
11
  0
ENDTAB
  0
TABLE
  2
BLOCK_RECORD
  5
1
330
0
100
AcDbSymbolTable
 70
    18
  0
BLOCK_RECORD
  5
1F
330
1
100
AcDbSymbolTableRecord
100
AcDbBlockTableRecord
  2
*Model_Space
340
22
  0
BLOCK_RECORD
  5
1B
330
1
100
AcDbSymbolTableRecord
100
AcDbBlockTableRecord
  2
*Paper_Space
340
1E
  0
BLOCK_RECORD
  5
23
330
1
100
AcDbSymbolTableRecord
100
AcDbBlockTableRecord
  2
*Paper_Space0
340
26
  0
BLOCK_RECORD
  5
3C
330
1
100
AcDbSymbolTableRecord
100
AcDbBlockTableRecord
  2
block 2
340
0
102
{BLKREFS
331
3D
102
}
  0
BLOCK_RECORD
  5
40
330
1
100
AcDbSymbolTableRecord
100
AcDbBlockTableRecord
  2
block 3
340
0
102
{BLKREFS
331
41
102
}
  0
BLOCK_RECORD
  5
45
330
1
100
AcDbSymbolTableRecord
100
AcDbBlockTableRecord
  2
block 4
340
0
102
{BLKREFS
331
46
102
}
  0
BLOCK_RECORD
  5
4A
330
1
100
AcDbSymbolTableRecord
100
AcDbBlockTableRecord
  2
block 5
340
0
102
{BLKREFS
331
4B
102
}
  0
BLOCK_RECORD
  5
4F
330
1
100
AcDbSymbolTableRecord
100
AcDbBlockTableRecord
  2
block 6
340
0
102
{BLKREFS
331
50
102
}
  0
BLOCK_RECORD
  5
54
330
1
100
AcDbSymbolTableRecord
100
AcDbBlockTableRecord
  2
block 7
340
0
102
{BLKREFS
331
55
102
}
  0
BLOCK_RECORD
  5
76
330
1
100
AcDbSymbolTableRecord
100
AcDbBlockTableRecord
  2
block 8
340
0
102
{BLKREFS
331
77
102
}
  0
BLOCK_RECORD
  5
86
330
1
100
AcDbSymbolTableRecord
100
AcDbBlockTableRecord
  2
block 9
340
0
102
{BLKREFS
331
87
102
}
  0
BLOCK_RECORD
  5
A3
330
1
100
AcDbSymbolTableRecord
100
AcDbBlockTableRecord
  2
block 10
340
0
102
{BLKREFS
331
A4
102
}
  0
BLOCK_RECORD
  5
C6
330
1
100
AcDbSymbolTableRecord
100
AcDbBlockTableRecord
  2
block 11
340
0
102
{BLKREFS
331
C7
102
}
  0
BLOCK_RECORD
  5
D4
330
1
100
AcDbSymbolTableRecord
100
AcDbBlockTableRecord
  2
block 12
340
0
102
{BLKREFS
331
D5
102
}
  0
BLOCK_RECORD
  5
E2
330
1
100
AcDbSymbolTableRecord
100
AcDbBlockTableRecord
  2
block 13
340
0
102
{BLKREFS
331
E3
102
}
  0
BLOCK_RECORD
  5
F0
330
1
100
AcDbSymbolTableRecord
100
AcDbBlockTableRecord
  2
block 14
340
0
102
{BLKREFS
331
F1
102
}
  0
BLOCK_RECORD
  5
FE
330
1
100
AcDbSymbolTableRecord
100
AcDbBlockTableRecord
  2
block 15
340
0
102
{BLKREFS
331
FF
102
}
  0
BLOCK_RECORD
  5
10C
330
1
100
AcDbSymbolTableRecord
100
AcDbBlockTableRecord
  2
block 16
340
0
102
{BLKREFS
331
10D
102
}
  0
BLOCK_RECORD
  5
11A
330
1
100
AcDbSymbolTableRecord
100
AcDbBlockTableRecord
  2
block 17
340
0
102
{BLKREFS
331
11B
102
}
  0
BLOCK_RECORD
  5
128
330
1
100
AcDbSymbolTableRecord
100
AcDbBlockTableRecord
  2
block 18
340
0
102
{BLKREFS
331
129
102
}
  0
ENDTAB
  0
ENDSEC
  0
SECTION
  2
BLOCKS
  0
BLOCK
  5
20
330
1F
100
AcDbEntity
  8
0
100
AcDbBlockBegin
  2
*Model_Space
 70
     0
 71
     0
 10
0.0
 20
0.0
 30
0.0
  3
*Model_Space
  1

  0
ENDBLK
  5
21
330
1F
100
AcDbEntity
  8
0
100
AcDbBlockEnd
  0
BLOCK
  5
1C
330
1B
100
AcDbEntity
 67
     1
  8
0
100
AcDbBlockBegin
  2
*Paper_Space
 70
     0
 71
     0
 10
0.0
 20
0.0
 30
0.0
  3
*Paper_Space
  1

  0
ENDBLK
  5
1D
330
1B
100
AcDbEntity
 67
     1
  8
0
100
AcDbBlockEnd
  0
BLOCK
  5
24
330
23
100
AcDbEntity
  8
0
100
AcDbBlockBegin
  2
*Paper_Space0
 70
     0
 71
     0
 10
0.0
 20
0.0
 30
0.0
  3
*Paper_Space0
  1

  0
ENDBLK
  5
25
330
23
100
AcDbEntity
  8
0
100
AcDbBlockEnd
  0
BLOCK
  5
3E
330
3C
100
AcDbEntity
  8
0
100
AcDbBlockBegin
  2
block 2
 70
     0
 71
     0
 10
0.0
 20
0.0
 30
0.0
  3
block 2
  1

  0
INSERT
  5
41
330
3C
100
AcDbEntity
  8
Layer 1
100
AcDbBlockReference
  2
block 3
 10
0.0
 20
0.0
 30
0.0
  0
INSERT
  5
46
330
3C
100
AcDbEntity
  8
Layer 1
100
AcDbBlockReference
  2
block 4
 10
0.0
 20
0.0
 30
0.0
  0
INSERT
  5
4B
330
3C
100
AcDbEntity
  8
Layer 1
100
AcDbBlockReference
  2
block 5
 10
0.0
 20
0.0
 30
0.0
  0
INSERT
  5
50
330
3C
100
AcDbEntity
  8
Layer 1
100
AcDbBlockReference
  2
block 6
 10
0.0
 20
0.0
 30
0.0
  0
INSERT
  5
55
330
3C
100
AcDbEntity
  8
Layer 1
100
AcDbBlockReference
  2
block 7
 10
0.0
 20
0.0
 30
0.0
  0
POLYLINE
  5
59
330
3C
100
AcDbEntity
  8
Layer 1
370
     0
100
AcDb2dPolyline
 66
     1
 10
0.0
 20
0.0
 30
0.0
  0
VERTEX
  5
5A
330
59
100
AcDbEntity
  8
Layer 1
370
     0
100
AcDbVertex
100
AcDb2dVertex
 10
242.5917262735092
 20
235.2629698129973
 30
0.0
  0
VERTEX
  5
5B
330
59
100
AcDbEntity
  8
Layer 1
370
     0
100
AcDbVertex
100
AcDb2dVertex
 10
224.7554216512142
 20
235.2629698129973
 30
0.0
  0
VERTEX
  5
5C
330
59
100
AcDbEntity
  8
Layer 1
370
     0
100
AcDbVertex
100
AcDb2dVertex
 10
224.7554216512142
 20
234.4368353706381
 30
0.0
  0
VERTEX
  5
5D
330
59
100
AcDbEntity
  8
Layer 1
370
     0
100
AcDbVertex
100
AcDb2dVertex
 10
215.2548755640832
 20
234.4368353706381
 30
0.0
  0
VERTEX
  5
5E
330
59
100
AcDbEntity
  8
Layer 1
370
     0
100
AcDbVertex
100
AcDb2dVertex
 10
215.2548755640832
 20
235.2609027543426
 30
0.0
  0
VERTEX
  5
5F
330
59
100
AcDbEntity
  8
Layer 1
370
     0
100
AcDbVertex
100
AcDb2dVertex
 10
202.0064076260658
 20
235.2609027543426
 30
0.0
  0
VERTEX
  5
60
330
59
100
AcDbEntity
  8
Layer 1
370
     0
100
AcDbVertex
100
AcDb2dVertex
 10
202.0064076260658
 20
232.0135536076879
 30
0.0
  0
VERTEX
  5
61
330
59
100
AcDbEntity
  8
Layer 1
370
     0
100
AcDbVertex
100
AcDb2dVertex
 10
190.0060986057578
 20
232.0135536076879
 30
0.0
  0
VERTEX
  5
62
330
59
100
AcDbEntity
  8
Layer 1
370
     0
100
AcDbVertex
100
AcDb2dVertex
 10
190.0060986057578
 20
241.513755185043
 30
0.0
  0
VERTEX
  5
63
330
59
100
AcDbEntity
  8
Layer 1
370
     0
100
AcDbVertex
100
AcDb2dVertex
 10
202.0064076260658
 20
241.513755185043
 30
0.0
  0
VERTEX
  5
64
330
59
100
AcDbEntity
  8
Layer 1
370
     0
100
AcDbVertex
100
AcDb2dVertex
 10
202.0064076260658
 20
238.2608938819756
 30
0.0
  0
VERTEX
  5
65
330
59
100
AcDbEntity
  8
Layer 1
370
     0
100
AcDbVertex
100
AcDb2dVertex
 10
215.2548755640832
 20
238.2608938819756
 30
0.0
  0
VERTEX
  5
66
330
59
100
AcDbEntity
  8
Layer 1
370
     0
100
AcDbVertex
100
AcDb2dVertex
 10
215.2548755640832
 20
251.4366702573001
 30
0.0
  0
VERTEX
  5
67
330
59
100
AcDbEntity
  8
Layer 1
370
     0
100
AcDbVertex
100
AcDb2dVertex
 10
224.7554216512142
 20
251.4366702573001
 30
0.0
  0
VERTEX
  5
68
330
59
100
AcDbEntity
  8
Layer 1
370
     0
100
AcDbVertex
100
AcDb2dVertex
 10
224.7554216512142
 20
236.6113810754636
 30
0.0
  0
VERTEX
  5
69
330
59
100
AcDbEntity
  8
Layer 1
370
     0
100
AcDbVertex
100
AcDb2dVertex
 10
242.5917262735092
 20
236.6113810754636
 30
0.0
  0
VERTEX
  5
6A
330
59
100
AcDbEntity
  8
Layer 1
370
     0
100
AcDbVertex
100
AcDb2dVertex
 10
242.5917262735092
 20
235.2629698129973
 30
0.0
  0
SEQEND
  5
6B
330
59
100
AcDbEntity
  8
Layer 1
370
     0
  0
ENDBLK
  5
3F
330
3C
100
AcDbEntity
  8
0
100
AcDbBlockEnd
  0
BLOCK
  5
42
330
40
100
AcDbEntity
  8
0
100
AcDbBlockBegin
  2
block 3
 70
     0
 71
     0
 10
0.0
 20
0.0
 30
0.0
  3
block 3
  1

  0
SPLINE
  5
44
330
40
100
AcDbEntity
  8
Layer 1
370
     0
100
AcDbSpline
210
0.0
220
0.0
230
1.0
 70
    11
 71
     3
 72
    20
 73
    16
 74
     0
 42
0.0000000001
 43
0.0000000001
 40
0.0
 40
0.0
 40
0.0
 40
0.0
 40
1.0
 40
1.0
 40
1.0
 40
2.0
 40
2.0
 40
2.0
 40
3.0
 40
3.0
 40
3.0
 40
4.0
 40
4.0
 40
4.0
 40
5.0
 40
5.0
 40
5.0
 40
5.0
 10
265.3844930401838
 20
245.2496191937767
 30
0.0
 10
265.3844930401838
 20
250.2208952585154
 30
0.0
 10
269.4138793778957
 20
254.250970615779
 30
0.0
 10
274.3844664230829
 20
254.250970615779
 30
0.0
 10
279.35505346827
 20
254.250970615779
 30
0.0
 10
283.3847843157578
 20
250.2208952585154
 30
0.0
 10
283.3847843157578
 20
245.2496191937767
 30
0.0
 10
283.3847843157578
 20
240.2786876388138
 30
0.0
 10
279.35505346827
 20
236.2499903206534
 30
0.0
 10
274.3844664230829
 20
236.2499903206534
 30
0.0
 10
269.4138793778957
 20
236.2499903206534
 30
0.0
 10
265.3844930401838
 20
240.2790321485896
 30
0.0
 10
265.3844930401838
 20
245.2496191937767
 30
0.0
 10
265.3844930401838
 20
245.2496191937767
 30
0.0
 10
265.3844930401838
 20
245.2496191937767
 30
0.0
 10
265.3844930401838
 20
245.2496191937767
 30
0.0
  0
ENDBLK
  5
43
330
40
100
AcDbEntity
  8
0
100
AcDbBlockEnd
  0
BLOCK
  5
47
330
45
100
AcDbEntity
  8
0
100
AcDbBlockBegin
  2
block 4
 70
     0
 71
     0
 10
0.0
 20
0.0
 30
0.0
  3
block 4
  1

  0
SPLINE
  5
49
330
45
100
AcDbEntity
  8
Layer 1
370
     0
100
AcDbSpline
210
0.0
220
0.0
230
1.0
 70
    11
 71
     3
 72
    20
 73
    16
 74
     0
 42
0.0000000001
 43
0.0000000001
 40
0.0
 40
0.0
 40
0.0
 40
0.0
 40
1.0
 40
1.0
 40
1.0
 40
2.0
 40
2.0
 40
2.0
 40
3.0
 40
3.0
 40
3.0
 40
4.0
 40
4.0
 40
4.0
 40
5.0
 40
5.0
 40
5.0
 40
5.0
 10
181.8081439809122
 20
237.7620437266227
 30
0.0
 10
181.8081439809122
 20
239.6943990590634
 30
0.0
 10
183.3739409119058
 20
241.2615740291602
 30
0.0
 10
185.3076742834497
 20
241.2615740291602
 30
0.0
 10
187.240718635442
 20
241.2615740291602
 30
0.0
 10
188.8082381153145
 20
239.6943990590634
 30
0.0
 10
188.8082381153145
 20
237.7620437266227
 30
0.0
 10
188.8082381153145
 20
235.8289993746304
 30
0.0
 10
187.2414076549936
 20
234.2618244045337
 30
0.0
 10
185.3076742834497
 20
234.2618244045337
 30
0.0
 10
183.3739409119058
 20
234.2618244045337
 30
0.0
 10
181.8081439809122
 20
235.8286548648547
 30
0.0
 10
181.8081439809122
 20
237.7620437266227
 30
0.0
 10
181.8081439809122
 20
237.7620437266227
 30
0.0
 10
181.8081439809122
 20
237.7620437266227
 30
0.0
 10
181.8081439809122
 20
237.7620437266227
 30
0.0
  0
ENDBLK
  5
48
330
45
100
AcDbEntity
  8
0
100
AcDbBlockEnd
  0
BLOCK
  5
4C
330
4A
100
AcDbEntity
  8
0
100
AcDbBlockBegin
  2
block 5
 70
     0
 71
     0
 10
0.0
 20
0.0
 30
0.0
  3
block 5
  1

  0
SPLINE
  5
4E
330
4A
100
AcDbEntity
  8
Layer 1
370
     0
100
AcDbSpline
210
0.0
220
0.0
230
1.0
 70
    11
 71
     3
 72
    20
 73
    16
 74
     0
 42
0.0000000001
 43
0.0000000001
 40
0.0
 40
0.0
 40
0.0
 40
0.0
 40
1.0
 40
1.0
 40
1.0
 40
2.0
 40
2.0
 40
2.0
 40
3.0
 40
3.0
 40
3.0
 40
4.0
 40
4.0
 40
4.0
 40
5.0
 40
5.0
 40
5.0
 40
5.0
 10
245.090111167583
 20
245.2241254703678
 30
0.0
 10
245.0763307765512
 20
250.1947125155549
 30
0.0
 10
249.0943482916619
 20
254.2365012051955
 30
0.0
 10
254.0642463172975
 20
254.250970615779
 30
0.0
 10
259.035866891812
 20
254.2654400263624
 30
0.0
 10
263.076966561901
 20
250.2463889819243
 30
0.0
 10
263.0907469529329
 20
245.2764909562888
 30
0.0
 10
263.1052163635163
 20
240.3052148915501
 30
0.0
 10
259.0871988484056
 20
236.2648042410126
 30
0.0
 10
254.1166118032185
 20
236.2503348304292
 30
0.0
 10
249.1463692678071
 20
236.2358654198457
 30
0.0
 10
245.1045805781665
 20
240.2535384251806
 30
0.0
 10
245.090111167583
 20
245.2241254703678
 30
0.0
 10
245.090111167583
 20
245.2241254703678
 30
0.0
 10
245.090111167583
 20
245.2241254703678
 30
0.0
 10
245.090111167583
 20
245.2241254703678
 30
0.0
  0
ENDBLK
  5
4D
330
4A
100
AcDbEntity
  8
0
100
AcDbBlockEnd
  0
BLOCK
  5
51
330
4F
100
AcDbEntity
  8
0
100
AcDbBlockBegin
  2
block 6
 70
     0
 71
     0
 10
0.0
 20
0.0
 30
0.0
  3
block 6
  1

  0
SPLINE
  5
53
330
4F
100
AcDbEntity
  8
Layer 1
370
     0
100
AcDbSpline
210
0.0
220
0.0
230
1.0
 70
    11
 71
     3
 72
    20
 73
    16
 74
     0
 42
0.0000000001
 43
0.0000000001
 40
0.0
 40
0.0
 40
0.0
 40
0.0
 40
1.0
 40
1.0
 40
1.0
 40
2.0
 40
2.0
 40
2.0
 40
3.0
 40
3.0
 40
3.0
 40
4.0
 40
4.0
 40
4.0
 40
5.0
 40
5.0
 40
5.0
 40
5.0
 10
142.2622113270457
 20
243.3927115022353
 30
0.0
 10
142.2622113270457
 20
247.8045036910811
 30
0.0
 10
145.8392563291374
 20
251.3818932029485
 30
0.0
 10
150.2519097924226
 20
251.3818932029485
 30
0.0
 10
154.6643910008199
 20
251.3818932029485
 30
0.0
 10
158.2416082577995
 20
247.8041591813053
 30
0.0
 10
158.2416082577995
 20
243.3927115022353
 30
0.0
 10
158.2416082577995
 20
238.980230293838
 30
0.0
 10
154.6637019812684
 20
235.4031852917464
 30
0.0
 10
150.2519097924226
 20
235.4031852917464
 30
0.0
 10
145.8392563291374
 20
235.4028407819706
 30
0.0
 10
142.2622113270457
 20
238.980230293838
 30
0.0
 10
142.2622113270457
 20
243.3927115022353
 30
0.0
 10
142.2622113270457
 20
243.3927115022353
 30
0.0
 10
142.2622113270457
 20
243.3927115022353
 30
0.0
 10
142.2622113270457
 20
243.3927115022353
 30
0.0
  0
ENDBLK
  5
52
330
4F
100
AcDbEntity
  8
0
100
AcDbBlockEnd
  0
BLOCK
  5
56
330
54
100
AcDbEntity
  8
0
100
AcDbBlockBegin
  2
block 7
 70
     0
 71
     0
 10
0.0
 20
0.0
 30
0.0
  3
block 7
  1

  0
SPLINE
  5
58
330
54
100
AcDbEntity
  8
Layer 1
370
     0
100
AcDbSpline
210
0.0
220
0.0
230
1.0
 70
    11
 71
     3
 72
    20
 73
    16
 74
     0
 42
0.0000000001
 43
0.0000000001
 40
0.0
 40
0.0
 40
0.0
 40
0.0
 40
1.0
 40
1.0
 40
1.0
 40
2.0
 40
2.0
 40
2.0
 40
3.0
 40
3.0
 40
3.0
 40
4.0
 40
4.0
 40
4.0
 40
5.0
 40
5.0
 40
5.0
 40
5.0
 10
161.7380379723548
 20
243.3927115022353
 30
0.0
 10
161.7380379723548
 20
247.8045036910811
 30
0.0
 10
165.3154274842222
 20
251.3818932029485
 30
0.0
 10
169.7273919279558
 20
251.3818932029485
 30
0.0
 10
174.1393563716895
 20
251.3818932029485
 30
0.0
 10
177.7170903933327
 20
247.8041591813053
 30
0.0
 10
177.7170903933327
 20
243.3927115022353
 30
0.0
 10
177.7170903933327
 20
238.980230293838
 30
0.0
 10
174.1393563716895
 20
235.4031852917464
 30
0.0
 10
169.7273919279558
 20
235.4031852917464
 30
0.0
 10
165.3154274842222
 20
235.4031852917464
 30
0.0
 10
161.7380379723548
 20
238.980230293838
 30
0.0
 10
161.7380379723548
 20
243.3927115022353
 30
0.0
 10
161.7380379723548
 20
243.3927115022353
 30
0.0
 10
161.7380379723548
 20
243.3927115022353
 30
0.0
 10
161.7380379723548
 20
243.3927115022353
 30
0.0
  0
ENDBLK
  5
57
330
54
100
AcDbEntity
  8
0
100
AcDbBlockEnd
  0
BLOCK
  5
78
330
76
100
AcDbEntity
  8
0
100
AcDbBlockBegin
  2
block 8
 70
     0
 71
     0
 10
0.0
 20
0.0
 30
0.0
  3
block 8
  1

  0
SPLINE
  5
7A
330
76
100
AcDbEntity
  8
Layer 1
 62
     7
420
 16777215
370
    35
100
AcDbSpline
210
0.0
220
0.0
230
1.0
 70
    11
 71
     3
 72
    17
 73
    13
 74
     0
 42
0.0000000001
 43
0.0000000001
 40
0.0
 40
0.0
 40
0.0
 40
0.0
 40
1.0
 40
1.0
 40
1.0
 40
2.0
 40
2.0
 40
2.0
 40
3.0
 40
3.0
 40
3.0
 40
4.0
 40
4.0
 40
4.0
 40
4.0
 10
354.0616538398934
 20
134.3167823678587
 30
0.0
 10
354.0616538398934
 20
132.908426404404
 30
0.0
 10
352.9199484429049
 20
131.7667210074155
 30
0.0
 10
351.5115924794502
 20
131.7667210074155
 30
0.0
 10
350.1032365159954
 20
131.7667210074155
 30
0.0
 10
348.961531119007
 20
132.908426404404
 30
0.0
 10
348.961531119007
 20
134.3167823678587
 30
0.0
 10
348.961531119007
 20
135.7251383313134
 30
0.0
 10
350.1032365159954
 20
136.866843728302
 30
0.0
 10
351.5115924794502
 20
136.866843728302
 30
0.0
 10
352.9199484429049
 20
136.866843728302
 30
0.0
 10
354.0616538398934
 20
135.7251383313134
 30
0.0
 10
354.0616538398934
 20
134.3167823678587
 30
0.0
  0
POLYLINE
  5
7B
330
76
100
AcDbEntity
  8
Layer 1
 62
     7
420
 16777215
370
    35
100
AcDb2dPolyline
 66
     1
 10
0.0
 20
0.0
 30
0.0
  0
VERTEX
  5
7C
330
7B
100
AcDbEntity
  8
Layer 1
 62
     7
420
 16777215
370
    35
100
AcDbVertex
100
AcDb2dVertex
 10
356.51146285558
 20
137.3167734954918
 30
0.0
  0
VERTEX
  5
7D
330
7B
100
AcDbEntity
  8
Layer 1
 62
     7
420
 16777215
370
    35
100
AcDbVertex
100
AcDb2dVertex
 10
356.51146285558
 20
139.3166527439885
 30
0.0
  0
VERTEX
  5
7E
330
7B
100
AcDbEntity
  8
Layer 1
 62
     7
420
 16777215
370
    35
100
AcDbVertex
100
AcDb2dVertex
 10
346.5113775935446
 20
139.3166527439885
 30
0.0
  0
VERTEX
  5
7F
330
7B
100
AcDbEntity
  8
Layer 1
 62
     7
420
 16777215
370
    35
100
AcDbVertex
100
AcDb2dVertex
 10
346.5113775935446
 20
129.3165674819531
 30
0.0
  0
VERTEX
  5
80
330
7B
100
AcDbEntity
  8
Layer 1
 62
     7
420
 16777215
370
    35
100
AcDbVertex
100
AcDb2dVertex
 10
356.51146285558
 20
129.3165674819531
 30
0.0
  0
VERTEX
  5
81
330
7B
100
AcDbEntity
  8
Layer 1
 62
     7
420
 16777215
370
    35
100
AcDbVertex
100
AcDb2dVertex
 10
356.51146285558
 20
131.3167912402257
 30
0.0
  0
VERTEX
  5
82
330
7B
100
AcDbEntity
  8
Layer 1
 62
     7
420
 16777215
370
    35
100
AcDbVertex
100
AcDb2dVertex
 10
362.5114451108461
 20
131.3167912402257
 30
0.0
  0
VERTEX
  5
83
330
7B
100
AcDbEntity
  8
Layer 1
 62
     7
420
 16777215
370
    35
100
AcDbVertex
100
AcDb2dVertex
 10
362.5114451108461
 20
137.3167734954918
 30
0.0
  0
VERTEX
  5
84
330
7B
100
AcDbEntity
  8
Layer 1
 62
     7
420
 16777215
370
    35
100
AcDbVertex
100
AcDb2dVertex
 10
356.51146285558
 20
137.3167734954918
 30
0.0
  0
SEQEND
  5
85
330
7B
100
AcDbEntity
  8
Layer 1
370
    35
  0
ENDBLK
  5
79
330
76
100
AcDbEntity
  8
0
100
AcDbBlockEnd
  0
BLOCK
  5
88
330
86
100
AcDbEntity
  8
0
100
AcDbBlockBegin
  2
block 9
 70
     0
 71
     0
 10
0.0
 20
0.0
 30
0.0
  3
block 9
  1

  0
POLYLINE
  5
8A
330
86
100
AcDbEntity
  8
Layer 1
 62
     7
420
 16777215
370
    50
100
AcDb2dPolyline
 66
     1
 10
0.0
 20
0.0
 30
0.0
  0
VERTEX
  5
8B
330
8A
100
AcDbEntity
  8
Layer 1
 62
     7
420
 16777215
370
    50
100
AcDbVertex
100
AcDb2dVertex
 10
442.4166979992337
 20
113.2155586003434
 30
0.0
  0
VERTEX
  5
201
330
8A
100
AcDbEntity
  8
0
100
AcDbVertex
100
AcDb2dVertex
 10
442.4166979992337
 20
113.2155586003434
 30
0.0
  0
SEQEND
  5
8C
330
8A
100
AcDbEntity
  8
Layer 1
370
    50
  0
POLYLINE
  5
8D
330
86
100
AcDbEntity
  8
Layer 1
 62
     7
420
 16777215
370
    50
100
AcDb2dPolyline
 66
     1
 10
0.0
 20
0.0
 30
0.0
  0
VERTEX
  5
8E
330
8D
100
AcDbEntity
  8
Layer 1
 62
     7
420
 16777215
370
    50
100
AcDbVertex
100
AcDb2dVertex
 10
482.4163500278236
 20
71.9653360856133
 30
0.0
  0
VERTEX
  5
8F
330
8D
100
AcDbEntity
  8
Layer 1
 62
     7
420
 16777215
370
    50
100
AcDbVertex
100
AcDb2dVertex
 10
449.9166758183163
 20
71.9653360856133
 30
0.0
  0
VERTEX
  5
90
330
8D
100
AcDbEntity
  8
Layer 1
 62
     7
420
 16777215
370
    50
100
AcDbVertex
100
AcDb2dVertex
 10
449.9166758183163
 20
104.4650102951207
 30
0.0
  0
VERTEX
  5
91
330
8D
100
AcDbEntity
  8
Layer 1
 62
     7
420
 16777215
370
    50
100
AcDbVertex
100
AcDb2dVertex
 10
482.4163500278236
 20
104.4650102951207
 30
0.0
  0
SEQEND
  5
92
330
8D
100
AcDbEntity
  8
Layer 1
370
    50
  0
POLYLINE
  5
93
330
86
100
AcDbEntity
  8
Layer 1
 62
     7
420
 16777215
370
    50
100
AcDb2dPolyline
 66
     1
 10
0.0
 20
0.0
 30
0.0
  0
VERTEX
  5
94
330
93
100
AcDbEntity
  8
Layer 1
 62
     7
420
 16777215
370
    50
100
AcDbVertex
100
AcDb2dVertex
 10
442.4166979992337
 20
113.2155586003434
 30
0.0
  0
VERTEX
  5
95
330
93
100
AcDbEntity
  8
Layer 1
 62
     7
420
 16777215
370
    50
100
AcDbVertex
100
AcDb2dVertex
 10
442.4166979992337
 20
23.21582477135223
 30
0.0
  0
VERTEX
  5
96
330
93
100
AcDbEntity
  8
Layer 1
 62
     7
420
 16777215
370
    50
100
AcDbVertex
100
AcDb2dVertex
 10
482.4163500278236
 20
23.21582477135223
 30
0.0
  0
VERTEX
  5
97
330
93
100
AcDbEntity
  8
Layer 1
 62
     7
420
 16777215
370
    50
100
AcDbVertex
100
AcDb2dVertex
 10
510.2506728534993
 20
23.217891830007
 30
0.0
  0
VERTEX
  5
98
330
93
100
AcDbEntity
  8
Layer 1
 62
     7
420
 16777215
370
    50
100
AcDbVertex
100
AcDb2dVertex
 10
515.4141853731323
 20
28.04860790622088
 30
0.0
  0
VERTEX
  5
99
330
93
100
AcDbEntity
  8
Layer 1
 62
     7
420
 16777215
370
    50
100
AcDbVertex
100
AcDb2dVertex
 10
521.3783386117155
 20
207.5957342285828
 30
0.0
  0
VERTEX
  5
9A
330
93
100
AcDbEntity
  8
Layer 1
 62
     7
420
 16777215
370
    50
100
AcDbVertex
100
AcDb2dVertex
 10
516.4167088206991
 20
213.2153776913699
 30
0.0
  0
VERTEX
  5
9B
330
93
100
AcDbEntity
  8
Layer 1
 62
     7
420
 16777215
370
    50
100
AcDbVertex
100
AcDb2dVertex
 10
442.4166979992337
 20
213.2153776913699
 30
0.0
  0
VERTEX
  5
9C
330
93
100
AcDbEntity
  8
Layer 1
 62
     7
420
 16777215
370
    50
100
AcDbVertex
100
AcDb2dVertex
 10
442.4166979992337
 20
113.2155586003434
 30
0.0
  0
SEQEND
  5
9D
330
93
100
AcDbEntity
  8
Layer 1
370
    50
  0
POLYLINE
  5
9E
330
86
100
AcDbEntity
  8
Layer 1
 62
     7
420
 16777215
370
    50
100
AcDb2dPolyline
 66
     1
 10
0.0
 20
0.0
 30
0.0
  0
VERTEX
  5
9F
330
9E
100
AcDbEntity
  8
Layer 1
 62
     7
420
 16777215
370
    50
100
AcDbVertex
100
AcDb2dVertex
 10
482.4163500278236
 20
104.4650102951207
 30
0.0
  0
VERTEX
  5
A0
330
9E
100
AcDbEntity
  8
Layer 1
 62
     7
420
 16777215
370
    50
100
AcDbVertex
100
AcDb2dVertex
 10
482.4163500278236
 20
71.9653360856133
 30
0.0
  0
SEQEND
  5
A1
330
9E
100
AcDbEntity
  8
Layer 1
370
    50
  0
ENDBLK
  5
89
330
86
100
AcDbEntity
  8
0
100
AcDbBlockEnd
  0
BLOCK
  5
A5
330
A3
100
AcDbEntity
  8
0
100
AcDbBlockBegin
  2
block 10
 70
     0
 71
     0
 10
0.0
 20
0.0
 30
0.0
  3
block 10
  1

  0
POLYLINE
  5
A7
330
A3
100
AcDbEntity
  8
Layer 1
 62
     7
420
 16777215
370
    50
100
AcDb2dPolyline
 66
     1
 10
0.0
 20
0.0
 30
0.0
  0
VERTEX
  5
A8
330
A7
100
AcDbEntity
  8
Layer 1
 62
     7
420
 16777215
370
    50
100
AcDbVertex
100
AcDb2dVertex
 10
-71.6952404213891
 20
113.2155586003434
 30
0.0
  0
VERTEX
  5
202
330
A7
100
AcDbEntity
  8
0
100
AcDbVertex
100
AcDb2dVertex
 10
-71.6952404213891
 20
113.2155586003434
 30
0.0
  0
SEQEND
  5
A9
330
A7
100
AcDbEntity
  8
Layer 1
370
    50
  0
POLYLINE
  5
AA
330
A3
100
AcDbEntity
  8
Layer 1
 62
     7
420
 16777215
370
    50
100
AcDb2dPolyline
 66
     1
 10
0.0
 20
0.0
 30
0.0
  0
VERTEX
  5
AB
330
AA
100
AcDbEntity
  8
Layer 1
 62
     7
420
 16777215
370
    50
100
AcDbVertex
100
AcDb2dVertex
 10
-111.6948924499791
 20
71.9653360856133
 30
0.0
  0
VERTEX
  5
AC
330
AA
100
AcDbEntity
  8
Layer 1
 62
     7
420
 16777215
370
    50
100
AcDbVertex
100
AcDb2dVertex
 10
-79.1952182404717
 20
71.9653360856133
 30
0.0
  0
VERTEX
  5
AD
330
AA
100
AcDbEntity
  8
Layer 1
 62
     7
420
 16777215
370
    50
100
AcDbVertex
100
AcDb2dVertex
 10
-79.1952182404717
 20
104.4650102951207
 30
0.0
  0
VERTEX
  5
AE
330
AA
100
AcDbEntity
  8
Layer 1
 62
     7
420
 16777215
370
    50
100
AcDbVertex
100
AcDb2dVertex
 10
-111.6948924499791
 20
104.4650102951207
 30
0.0
  0
SEQEND
  5
AF
330
AA
100
AcDbEntity
  8
Layer 1
370
    50
  0
POLYLINE
  5
B0
330
A3
100
AcDbEntity
  8
Layer 1
 62
     7
420
 16777215
370
    50
100
AcDb2dPolyline
 66
     1
 10
0.0
 20
0.0
 30
0.0
  0
VERTEX
  5
B1
330
B0
100
AcDbEntity
  8
Layer 1
 62
     7
420
 16777215
370
    50
100
AcDbVertex
100
AcDb2dVertex
 10
-71.6952404213891
 20
113.2155586003434
 30
0.0
  0
VERTEX
  5
B2
330
B0
100
AcDbEntity
  8
Layer 1
 62
     7
420
 16777215
370
    50
100
AcDbVertex
100
AcDb2dVertex
 10
-71.6952404213891
 20
23.21582477135223
 30
0.0
  0
VERTEX
  5
B3
330
B0
100
AcDbEntity
  8
Layer 1
 62
     7
420
 16777215
370
    50
100
AcDbVertex
100
AcDb2dVertex
 10
-111.6948924499791
 20
23.21582477135223
 30
0.0
  0
VERTEX
  5
B4
330
B0
100
AcDbEntity
  8
Layer 1
 62
     7
420
 16777215
370
    50
100
AcDbVertex
100
AcDb2dVertex
 10
-139.5292152756548
 20
23.217891830007
 30
0.0
  0
VERTEX
  5
B5
330
B0
100
AcDbEntity
  8
Layer 1
 62
     7
420
 16777215
370
    50
100
AcDbVertex
100
AcDb2dVertex
 10
-144.6927277952877
 20
28.04860790622088
 30
0.0
  0
VERTEX
  5
B6
330
B0
100
AcDbEntity
  8
Layer 1
 62
     7
420
 16777215
370
    50
100
AcDbVertex
100
AcDb2dVertex
 10
-150.656881033871
 20
207.5957342285828
 30
0.0
  0
VERTEX
  5
B7
330
B0
100
AcDbEntity
  8
Layer 1
 62
     7
420
 16777215
370
    50
100
AcDbVertex
100
AcDb2dVertex
 10
-145.6952512428546
 20
213.2153776913699
 30
0.0
  0
VERTEX
  5
B8
330
B0
100
AcDbEntity
  8
Layer 1
 62
     7
420
 16777215
370
    50
100
AcDbVertex
100
AcDb2dVertex
 10
-71.6952404213891
 20
213.2153776913699
 30
0.0
  0
VERTEX
  5
B9
330
B0
100
AcDbEntity
  8
Layer 1
 62
     7
420
 16777215
370
    50
100
AcDbVertex
100
AcDb2dVertex
 10
-71.6952404213891
 20
113.2155586003434
 30
0.0
  0
SEQEND
  5
BA
330
B0
100
AcDbEntity
  8
Layer 1
370
    50
  0
POLYLINE
  5
BB
330
A3
100
AcDbEntity
  8
Layer 1
 62
     7
420
 16777215
370
    50
100
AcDb2dPolyline
 66
     1
 10
0.0
 20
0.0
 30
0.0
  0
VERTEX
  5
BC
330
BB
100
AcDbEntity
  8
Layer 1
 62
     7
420
 16777215
370
    50
100
AcDbVertex
100
AcDb2dVertex
 10
-111.6948924499791
 20
104.4650102951207
 30
0.0
  0
VERTEX
  5
BD
330
BB
100
AcDbEntity
  8
Layer 1
 62
     7
420
 16777215
370
    50
100
AcDbVertex
100
AcDb2dVertex
 10
-111.6948924499791
 20
71.9653360856133
 30
0.0
  0
SEQEND
  5
BE
330
BB
100
AcDbEntity
  8
Layer 1
370
    50
  0
ENDBLK
  5
A6
330
A3
100
AcDbEntity
  8
0
100
AcDbBlockEnd
  0
BLOCK
  5
C8
330
C6
100
AcDbEntity
  8
0
100
AcDbBlockBegin
  2
block 11
 70
     0
 71
     0
 10
0.0
 20
0.0
 30
0.0
  3
block 11
  1

  0
SPLINE
  5
CA
330
C6
100
AcDbEntity
  8
Layer 1
 62
     7
420
 16777215
370
    35
100
AcDbSpline
210
0.0
220
0.0
230
1.0
 70
    11
 71
     3
 72
    17
 73
    13
 74
     0
 42
0.0000000001
 43
0.0000000001
 40
0.0
 40
0.0
 40
0.0
 40
0.0
 40
1.0
 40
1.0
 40
1.0
 40
2.0
 40
2.0
 40
2.0
 40
3.0
 40
3.0
 40
3.0
 40
4.0
 40
4.0
 40
4.0
 40
4.0
 10
-40.79529735579123
 20
-18.5332478987307
 30
0.0
 10
-40.79529735579123
 20
-20.19033992031027
 30
0.0
 10
-39.45205373996197
 20
-21.53392804591533
 30
0.0
 10
-37.7953062281582
 20
-21.53392804591533
 30
0.0
 10
-36.13855871635442
 20
-21.53392804591533
 30
0.0
 10
-34.79531510052516
 20
-20.19033992031027
 30
0.0
 10
-34.79531510052516
 20
-18.5332478987307
 30
0.0
 10
-34.79531510052516
 20
-16.87684489670272
 30
0.0
 10
-36.13855871635442
 20
-15.53394579064925
 30
0.0
 10
-37.7953062281582
 20
-15.53394579064925
 30
0.0
 10
-39.45205373996197
 20
-15.53394579064925
 30
0.0
 10
-40.79529735579123
 20
-16.87684489670272
 30
0.0
 10
-40.79529735579123
 20
-18.5332478987307
 30
0.0
  0
POLYLINE
  5
CB
330
C6
100
AcDbEntity
  8
Layer 1
 62
     7
420
 16777215
370
    35
100
AcDb2dPolyline
 66
     1
 10
0.0
 20
0.0
 30
0.0
  0
VERTEX
  5
CC
330
CB
100
AcDbEntity
  8
Layer 1
 62
     7
420
 16777215
370
    35
100
AcDbVertex
100
AcDb2dVertex
 10
-45.34523796473123
 20
-11.03395909919969
 30
0.0
  0
VERTEX
  5
CD
330
CB
100
AcDbEntity
  8
Layer 1
 62
     7
420
 16777215
370
    35
100
AcDbVertex
100
AcDb2dVertex
 10
-51.34522021999731
 20
-11.03395909919969
 30
0.0
  0
VERTEX
  5
CE
330
CB
100
AcDbEntity
  8
Layer 1
 62
     7
420
 16777215
370
    35
100
AcDbVertex
100
AcDb2dVertex
 10
-51.34522021999731
 20
-26.03391473736489
 30
0.0
  0
VERTEX
  5
CF
330
CB
100
AcDbEntity
  8
Layer 1
 62
     7
420
 16777215
370
    35
100
AcDbVertex
100
AcDb2dVertex
 10
-45.34523796473123
 20
-26.03391473736489
 30
0.0
  0
VERTEX
  5
D0
330
CB
100
AcDbEntity
  8
Layer 1
 62
     7
420
 16777215
370
    35
100
AcDbVertex
100
AcDb2dVertex
 10
-30.34528232656604
 20
-26.03391473736489
 30
0.0
  0
VERTEX
  5
D1
330
CB
100
AcDbEntity
  8
Layer 1
 62
     7
420
 16777215
370
    35
100
AcDbVertex
100
AcDb2dVertex
 10
-30.34528232656604
 20
-11.03395909919969
 30
0.0
  0
VERTEX
  5
D2
330
CB
100
AcDbEntity
  8
Layer 1
 62
     7
420
 16777215
370
    35
100
AcDbVertex
100
AcDb2dVertex
 10
-45.34523796473123
 20
-11.03395909919969
 30
0.0
  0
SEQEND
  5
D3
330
CB
100
AcDbEntity
  8
Layer 1
370
    35
  0
ENDBLK
  5
C9
330
C6
100
AcDbEntity
  8
0
100
AcDbBlockEnd
  0
BLOCK
  5
D6
330
D4
100
AcDbEntity
  8
0
100
AcDbBlockBegin
  2
block 12
 70
     0
 71
     0
 10
0.0
 20
0.0
 30
0.0
  3
block 12
  1

  0
SPLINE
  5
D8
330
D4
100
AcDbEntity
  8
Layer 1
 62
     7
420
 16777215
370
    35
100
AcDbSpline
210
0.0
220
0.0
230
1.0
 70
    11
 71
     3
 72
    17
 73
    13
 74
     0
 42
0.0000000001
 43
0.0000000001
 40
0.0
 40
0.0
 40
0.0
 40
0.0
 40
1.0
 40
1.0
 40
1.0
 40
2.0
 40
2.0
 40
2.0
 40
3.0
 40
3.0
 40
3.0
 40
4.0
 40
4.0
 40
4.0
 40
4.0
 10
-8.497850384676198
 20
-18.53393691828229
 30
0.0
 10
-8.497850384676198
 20
-16.87684489670272
 30
0.0
 10
-9.840749490729666
 20
-15.53394579064925
 30
0.0
 10
-11.49784151230924
 20
-15.53394579064925
 30
0.0
 10
-13.15424451433722
 20
-15.53394579064925
 30
0.0
 10
-14.49783263994228
 20
-16.87684489670272
 30
0.0
 10
-14.49783263994228
 20
-18.53393691828229
 30
0.0
 10
-14.49783263994228
 20
-20.19102893986186
 30
0.0
 10
-13.15424451433722
 20
-21.53392804591533
 30
0.0
 10
-11.49784151230924
 20
-21.53392804591533
 30
0.0
 10
-9.840749490729666
 20
-21.53392804591533
 30
0.0
 10
-8.497850384676198
 20
-20.19102893986186
 30
0.0
 10
-8.497850384676198
 20
-18.53393691828229
 30
0.0
  0
POLYLINE
  5
D9
330
D4
100
AcDbEntity
  8
Layer 1
 62
     7
420
 16777215
370
    35
100
AcDb2dPolyline
 66
     1
 10
0.0
 20
0.0
 30
0.0
  0
VERTEX
  5
DA
330
D9
100
AcDbEntity
  8
Layer 1
 62
     7
420
 16777215
370
    35
100
AcDbVertex
100
AcDb2dVertex
 10
-3.947565265960401
 20
-26.03391473736489
 30
0.0
  0
VERTEX
  5
DB
330
D9
100
AcDbEntity
  8
Layer 1
 62
     7
420
 16777215
370
    35
100
AcDbVertex
100
AcDb2dVertex
 10
2.052416989305676
 20
-26.03391473736489
 30
0.0
  0
VERTEX
  5
DC
330
D9
100
AcDbEntity
  8
Layer 1
 62
     7
420
 16777215
370
    35
100
AcDbVertex
100
AcDb2dVertex
 10
2.052416989305676
 20
-11.03395909919969
 30
0.0
  0
VERTEX
  5
DD
330
D9
100
AcDbEntity
  8
Layer 1
 62
     7
420
 16777215
370
    35
100
AcDbVertex
100
AcDb2dVertex
 10
-3.947565265960401
 20
-11.03395909919969
 30
0.0
  0
VERTEX
  5
DE
330
D9
100
AcDbEntity
  8
Layer 1
 62
     7
420
 16777215
370
    35
100
AcDbVertex
100
AcDb2dVertex
 10
-18.94752090412559
 20
-11.03395909919969
 30
0.0
  0
VERTEX
  5
DF
330
D9
100
AcDbEntity
  8
Layer 1
 62
     7
420
 16777215
370
    35
100
AcDbVertex
100
AcDb2dVertex
 10
-18.94752090412559
 20
-26.03391473736489
 30
0.0
  0
VERTEX
  5
E0
330
D9
100
AcDbEntity
  8
Layer 1
 62
     7
420
 16777215
370
    35
100
AcDbVertex
100
AcDb2dVertex
 10
-3.947565265960401
 20
-26.03391473736489
 30
0.0
  0
SEQEND
  5
E1
330
D9
100
AcDbEntity
  8
Layer 1
370
    35
  0
ENDBLK
  5
D7
330
D4
100
AcDbEntity
  8
0
100
AcDbBlockEnd
  0
BLOCK
  5
E4
330
E2
100
AcDbEntity
  8
0
100
AcDbBlockBegin
  2
block 13
 70
     0
 71
     0
 10
0.0
 20
0.0
 30
0.0
  3
block 13
  1

  0
SPLINE
  5
E6
330
E2
100
AcDbEntity
  8
Layer 1
 62
     7
420
 16777215
370
    35
100
AcDbSpline
210
0.0
220
0.0
230
1.0
 70
    11
 71
     3
 72
    17
 73
    13
 74
     0
 42
0.0000000001
 43
0.0000000001
 40
0.0
 40
0.0
 40
0.0
 40
0.0
 40
1.0
 40
1.0
 40
1.0
 40
2.0
 40
2.0
 40
2.0
 40
3.0
 40
3.0
 40
3.0
 40
4.0
 40
4.0
 40
4.0
 40
4.0
 10
-8.447551957409958
 20
-1.537891639154098
 30
0.0
 10
-8.447551957409958
 20
0.1192003824254744
 30
0.0
 10
-9.790451063463424
 20
1.462099488478941
 30
0.0
 10
-11.447543085043
 20
1.462099488478941
 30
0.0
 10
-13.10394608707098
 20
1.462099488478941
 30
0.0
 10
-14.44753421267603
 20
0.1192003824254744
 30
0.0
 10
-14.44753421267603
 20
-1.537891639154098
 30
0.0
 10
-14.44753421267603
 20
-3.19498366073367
 30
0.0
 10
-13.10394608707098
 20
-4.537882766787136
 30
0.0
 10
-11.447543085043
 20
-4.537882766787136
 30
0.0
 10
-9.790451063463424
 20
-4.537882766787136
 30
0.0
 10
-8.447551957409958
 20
-3.19498366073367
 30
0.0
 10
-8.447551957409958
 20
-1.537891639154098
 30
0.0
  0
POLYLINE
  5
E7
330
E2
100
AcDbEntity
  8
Layer 1
 62
     7
420
 16777215
370
    35
100
AcDb2dPolyline
 66
     1
 10
0.0
 20
0.0
 30
0.0
  0
VERTEX
  5
E8
330
E7
100
AcDbEntity
  8
Layer 1
 62
     7
420
 16777215
370
    35
100
AcDbVertex
100
AcDb2dVertex
 10
-3.89726683869416
 20
-9.037869458236694
 30
0.0
  0
VERTEX
  5
E9
330
E7
100
AcDbEntity
  8
Layer 1
 62
     7
420
 16777215
370
    35
100
AcDbVertex
100
AcDb2dVertex
 10
2.102715416571916
 20
-9.037869458236694
 30
0.0
  0
VERTEX
  5
EA
330
E7
100
AcDbEntity
  8
Layer 1
 62
     7
420
 16777215
370
    35
100
AcDbVertex
100
AcDb2dVertex
 10
2.102715416571916
 20
5.962086179928498
 30
0.0
  0
VERTEX
  5
EB
330
E7
100
AcDbEntity
  8
Layer 1
 62
     7
420
 16777215
370
    35
100
AcDbVertex
100
AcDb2dVertex
 10
-3.89726683869416
 20
5.962086179928498
 30
0.0
  0
VERTEX
  5
EC
330
E7
100
AcDbEntity
  8
Layer 1
 62
     7
420
 16777215
370
    35
100
AcDbVertex
100
AcDb2dVertex
 10
-18.89722247685935
 20
5.962086179928498
 30
0.0
  0
VERTEX
  5
ED
330
E7
100
AcDbEntity
  8
Layer 1
 62
     7
420
 16777215
370
    35
100
AcDbVertex
100
AcDb2dVertex
 10
-18.89722247685935
 20
-9.037869458236694
 30
0.0
  0
VERTEX
  5
EE
330
E7
100
AcDbEntity
  8
Layer 1
 62
     7
420
 16777215
370
    35
100
AcDbVertex
100
AcDb2dVertex
 10
-3.89726683869416
 20
-9.037869458236694
 30
0.0
  0
SEQEND
  5
EF
330
E7
100
AcDbEntity
  8
Layer 1
370
    35
  0
ENDBLK
  5
E5
330
E2
100
AcDbEntity
  8
0
100
AcDbBlockEnd
  0
BLOCK
  5
F2
330
F0
100
AcDbEntity
  8
0
100
AcDbBlockBegin
  2
block 14
 70
     0
 71
     0
 10
0.0
 20
0.0
 30
0.0
  3
block 14
  1

  0
SPLINE
  5
F4
330
F0
100
AcDbEntity
  8
Layer 1
 62
     7
420
 16777215
370
    35
100
AcDbSpline
210
0.0
220
0.0
230
1.0
 70
    11
 71
     3
 72
    17
 73
    13
 74
     0
 42
0.0000000001
 43
0.0000000001
 40
0.0
 40
0.0
 40
0.0
 40
0.0
 40
1.0
 40
1.0
 40
1.0
 40
2.0
 40
2.0
 40
2.0
 40
3.0
 40
3.0
 40
3.0
 40
4.0
 40
4.0
 40
4.0
 40
4.0
 10
-40.84525127328168
 20
-1.537202619602505
 30
0.0
 10
-40.84525127328168
 20
-3.194294641182077
 30
0.0
 10
-39.50200765745242
 20
-4.537882766787136
 30
0.0
 10
-37.84526014564864
 20
-4.537882766787136
 30
0.0
 10
-36.18851263384487
 20
-4.537882766787136
 30
0.0
 10
-34.8452690180156
 20
-3.194294641182077
 30
0.0
 10
-34.8452690180156
 20
-1.537202619602505
 30
0.0
 10
-34.8452690180156
 20
0.1192003824254744
 30
0.0
 10
-36.18851263384487
 20
1.462099488478941
 30
0.0
 10
-37.84526014564864
 20
1.462099488478941
 30
0.0
 10
-39.50200765745242
 20
1.462099488478941
 30
0.0
 10
-40.84525127328168
 20
0.1192003824254744
 30
0.0
 10
-40.84525127328168
 20
-1.537202619602505
 30
0.0
  0
POLYLINE
  5
F5
330
F0
100
AcDbEntity
  8
Layer 1
 62
     7
420
 16777215
370
    35
100
AcDb2dPolyline
 66
     1
 10
0.0
 20
0.0
 30
0.0
  0
VERTEX
  5
F6
330
F5
100
AcDbEntity
  8
Layer 1
 62
     7
420
 16777215
370
    35
100
AcDbVertex
100
AcDb2dVertex
 10
-45.39519188222168
 20
5.962086179928498
 30
0.0
  0
VERTEX
  5
F7
330
F5
100
AcDbEntity
  8
Layer 1
 62
     7
420
 16777215
370
    35
100
AcDbVertex
100
AcDb2dVertex
 10
-51.39517413748776
 20
5.962086179928498
 30
0.0
  0
VERTEX
  5
F8
330
F5
100
AcDbEntity
  8
Layer 1
 62
     7
420
 16777215
370
    35
100
AcDbVertex
100
AcDb2dVertex
 10
-51.39517413748776
 20
-9.037869458236694
 30
0.0
  0
VERTEX
  5
F9
330
F5
100
AcDbEntity
  8
Layer 1
 62
     7
420
 16777215
370
    35
100
AcDbVertex
100
AcDb2dVertex
 10
-45.39519188222168
 20
-9.037869458236694
 30
0.0
  0
VERTEX
  5
FA
330
F5
100
AcDbEntity
  8
Layer 1
 62
     7
420
 16777215
370
    35
100
AcDbVertex
100
AcDb2dVertex
 10
-30.39523624405649
 20
-9.037869458236694
 30
0.0
  0
VERTEX
  5
FB
330
F5
100
AcDbEntity
  8
Layer 1
 62
     7
420
 16777215
370
    35
100
AcDbVertex
100
AcDb2dVertex
 10
-30.39523624405649
 20
5.962086179928498
 30
0.0
  0
VERTEX
  5
FC
330
F5
100
AcDbEntity
  8
Layer 1
 62
     7
420
 16777215
370
    35
100
AcDbVertex
100
AcDb2dVertex
 10
-45.39519188222168
 20
5.962086179928498
 30
0.0
  0
SEQEND
  5
FD
330
F5
100
AcDbEntity
  8
Layer 1
370
    35
  0
ENDBLK
  5
F3
330
F0
100
AcDbEntity
  8
0
100
AcDbBlockEnd
  0
BLOCK
  5
100
330
FE
100
AcDbEntity
  8
0
100
AcDbBlockBegin
  2
block 15
 70
     0
 71
     0
 10
0.0
 20
0.0
 30
0.0
  3
block 15
  1

  0
SPLINE
  5
102
330
FE
100
AcDbEntity
  8
Layer 1
 62
     7
420
 16777215
370
    35
100
AcDbSpline
210
0.0
220
0.0
230
1.0
 70
    11
 71
     3
 72
    17
 73
    13
 74
     0
 42
0.0000000001
 43
0.0000000001
 40
0.0
 40
0.0
 40
0.0
 40
0.0
 40
1.0
 40
1.0
 40
1.0
 40
2.0
 40
2.0
 40
2.0
 40
3.0
 40
3.0
 40
3.0
 40
4.0
 40
4.0
 40
4.0
 40
4.0
 10
-111.5941233405587
 20
-18.5332478987307
 30
0.0
 10
-111.5941233405587
 20
-20.19033992031027
 30
0.0
 10
-110.2508797247294
 20
-21.53392804591533
 30
0.0
 10
-108.5941322129257
 20
-21.53392804591533
 30
0.0
 10
-106.9373847011219
 20
-21.53392804591533
 30
0.0
 10
-105.5941410852926
 20
-20.19033992031027
 30
0.0
 10
-105.5941410852926
 20
-18.5332478987307
 30
0.0
 10
-105.5941410852926
 20
-16.87684489670272
 30
0.0
 10
-106.9373847011219
 20
-15.53394579064925
 30
0.0
 10
-108.5941322129257
 20
-15.53394579064925
 30
0.0
 10
-110.2508797247294
 20
-15.53394579064925
 30
0.0
 10
-111.5941233405587
 20
-16.87684489670272
 30
0.0
 10
-111.5941233405587
 20
-18.5332478987307
 30
0.0
  0
POLYLINE
  5
103
330
FE
100
AcDbEntity
  8
Layer 1
 62
     7
420
 16777215
370
    35
100
AcDb2dPolyline
 66
     1
 10
0.0
 20
0.0
 30
0.0
  0
VERTEX
  5
104
330
103
100
AcDbEntity
  8
Layer 1
 62
     7
420
 16777215
370
    35
100
AcDbVertex
100
AcDb2dVertex
 10
-116.1440639494987
 20
-11.03395909919969
 30
0.0
  0
VERTEX
  5
105
330
103
100
AcDbEntity
  8
Layer 1
 62
     7
420
 16777215
370
    35
100
AcDbVertex
100
AcDb2dVertex
 10
-122.1440462047648
 20
-11.03395909919969
 30
0.0
  0
VERTEX
  5
106
330
103
100
AcDbEntity
  8
Layer 1
 62
     7
420
 16777215
370
    35
100
AcDbVertex
100
AcDb2dVertex
 10
-122.1440462047648
 20
-26.03391473736489
 30
0.0
  0
VERTEX
  5
107
330
103
100
AcDbEntity
  8
Layer 1
 62
     7
420
 16777215
370
    35
100
AcDbVertex
100
AcDb2dVertex
 10
-116.1440639494987
 20
-26.03391473736489
 30
0.0
  0
VERTEX
  5
108
330
103
100
AcDbEntity
  8
Layer 1
 62
     7
420
 16777215
370
    35
100
AcDbVertex
100
AcDb2dVertex
 10
-101.1441083113335
 20
-26.03391473736489
 30
0.0
  0
VERTEX
  5
109
330
103
100
AcDbEntity
  8
Layer 1
 62
     7
420
 16777215
370
    35
100
AcDbVertex
100
AcDb2dVertex
 10
-101.1441083113335
 20
-11.03395909919969
 30
0.0
  0
VERTEX
  5
10A
330
103
100
AcDbEntity
  8
Layer 1
 62
     7
420
 16777215
370
    35
100
AcDbVertex
100
AcDb2dVertex
 10
-116.1440639494987
 20
-11.03395909919969
 30
0.0
  0
SEQEND
  5
10B
330
103
100
AcDbEntity
  8
Layer 1
370
    35
  0
ENDBLK
  5
101
330
FE
100
AcDbEntity
  8
0
100
AcDbBlockEnd
  0
BLOCK
  5
10E
330
10C
100
AcDbEntity
  8
0
100
AcDbBlockBegin
  2
block 16
 70
     0
 71
     0
 10
0.0
 20
0.0
 30
0.0
  3
block 16
  1

  0
SPLINE
  5
110
330
10C
100
AcDbEntity
  8
Layer 1
 62
     7
420
 16777215
370
    35
100
AcDbSpline
210
0.0
220
0.0
230
1.0
 70
    11
 71
     3
 72
    17
 73
    13
 74
     0
 42
0.0000000001
 43
0.0000000001
 40
0.0
 40
0.0
 40
0.0
 40
0.0
 40
1.0
 40
1.0
 40
1.0
 40
2.0
 40
2.0
 40
2.0
 40
3.0
 40
3.0
 40
3.0
 40
4.0
 40
4.0
 40
4.0
 40
4.0
 10
-79.29667636944367
 20
-18.53393691828229
 30
0.0
 10
-79.29667636944367
 20
-16.87684489670272
 30
0.0
 10
-80.63957547549714
 20
-15.53394579064925
 30
0.0
 10
-82.29666749707671
 20
-15.53394579064925
 30
0.0
 10
-83.9530704991047
 20
-15.53394579064925
 30
0.0
 10
-85.29665862470975
 20
-16.87684489670272
 30
0.0
 10
-85.29665862470975
 20
-18.53393691828229
 30
0.0
 10
-85.29665862470975
 20
-20.19102893986186
 30
0.0
 10
-83.9530704991047
 20
-21.53392804591533
 30
0.0
 10
-82.29666749707671
 20
-21.53392804591533
 30
0.0
 10
-80.63957547549714
 20
-21.53392804591533
 30
0.0
 10
-79.29667636944367
 20
-20.19102893986186
 30
0.0
 10
-79.29667636944367
 20
-18.53393691828229
 30
0.0
  0
POLYLINE
  5
111
330
10C
100
AcDbEntity
  8
Layer 1
 62
     7
420
 16777215
370
    35
100
AcDb2dPolyline
 66
     1
 10
0.0
 20
0.0
 30
0.0
  0
VERTEX
  5
112
330
111
100
AcDbEntity
  8
Layer 1
 62
     7
420
 16777215
370
    35
100
AcDbVertex
100
AcDb2dVertex
 10
-74.74639125072788
 20
-26.03391473736489
 30
0.0
  0
VERTEX
  5
113
330
111
100
AcDbEntity
  8
Layer 1
 62
     7
420
 16777215
370
    35
100
AcDbVertex
100
AcDb2dVertex
 10
-68.7464089954618
 20
-26.03391473736489
 30
0.0
  0
VERTEX
  5
114
330
111
100
AcDbEntity
  8
Layer 1
 62
     7
420
 16777215
370
    35
100
AcDbVertex
100
AcDb2dVertex
 10
-68.7464089954618
 20
-11.03395909919969
 30
0.0
  0
VERTEX
  5
115
330
111
100
AcDbEntity
  8
Layer 1
 62
     7
420
 16777215
370
    35
100
AcDbVertex
100
AcDb2dVertex
 10
-74.74639125072788
 20
-11.03395909919969
 30
0.0
  0
VERTEX
  5
116
330
111
100
AcDbEntity
  8
Layer 1
 62
     7
420
 16777215
370
    35
100
AcDbVertex
100
AcDb2dVertex
 10
-89.74634688889307
 20
-11.03395909919969
 30
0.0
  0
VERTEX
  5
117
330
111
100
AcDbEntity
  8
Layer 1
 62
     7
420
 16777215
370
    35
100
AcDbVertex
100
AcDb2dVertex
 10
-89.74634688889307
 20
-26.03391473736489
 30
0.0
  0
VERTEX
  5
118
330
111
100
AcDbEntity
  8
Layer 1
 62
     7
420
 16777215
370
    35
100
AcDbVertex
100
AcDb2dVertex
 10
-74.74639125072788
 20
-26.03391473736489
 30
0.0
  0
SEQEND
  5
119
330
111
100
AcDbEntity
  8
Layer 1
370
    35
  0
ENDBLK
  5
10F
330
10C
100
AcDbEntity
  8
0
100
AcDbBlockEnd
  0
BLOCK
  5
11C
330
11A
100
AcDbEntity
  8
0
100
AcDbBlockBegin
  2
block 17
 70
     0
 71
     0
 10
0.0
 20
0.0
 30
0.0
  3
block 17
  1

  0
SPLINE
  5
11E
330
11A
100
AcDbEntity
  8
Layer 1
 62
     7
420
 16777215
370
    35
100
AcDbSpline
210
0.0
220
0.0
230
1.0
 70
    11
 71
     3
 72
    17
 73
    13
 74
     0
 42
0.0000000001
 43
0.0000000001
 40
0.0
 40
0.0
 40
0.0
 40
0.0
 40
1.0
 40
1.0
 40
1.0
 40
2.0
 40
2.0
 40
2.0
 40
3.0
 40
3.0
 40
3.0
 40
4.0
 40
4.0
 40
4.0
 40
4.0
 10
-79.24637794217743
 20
-1.537891639154098
 30
0.0
 10
-79.24637794217743
 20
0.1192003824254744
 30
0.0
 10
-80.5892770482309
 20
1.462099488478941
 30
0.0
 10
-82.24636906981047
 20
1.462099488478941
 30
0.0
 10
-83.90277207183846
 20
1.462099488478941
 30
0.0
 10
-85.24636019744351
 20
0.1192003824254744
 30
0.0
 10
-85.24636019744351
 20
-1.537891639154098
 30
0.0
 10
-85.24636019744351
 20
-3.19498366073367
 30
0.0
 10
-83.90277207183846
 20
-4.537882766787136
 30
0.0
 10
-82.24636906981047
 20
-4.537882766787136
 30
0.0
 10
-80.5892770482309
 20
-4.537882766787136
 30
0.0
 10
-79.24637794217743
 20
-3.19498366073367
 30
0.0
 10
-79.24637794217743
 20
-1.537891639154098
 30
0.0
  0
POLYLINE
  5
11F
330
11A
100
AcDbEntity
  8
Layer 1
 62
     7
420
 16777215
370
    35
100
AcDb2dPolyline
 66
     1
 10
0.0
 20
0.0
 30
0.0
  0
VERTEX
  5
120
330
11F
100
AcDbEntity
  8
Layer 1
 62
     7
420
 16777215
370
    35
100
AcDbVertex
100
AcDb2dVertex
 10
-74.69609282346164
 20
-9.037869458236694
 30
0.0
  0
VERTEX
  5
121
330
11F
100
AcDbEntity
  8
Layer 1
 62
     7
420
 16777215
370
    35
100
AcDbVertex
100
AcDb2dVertex
 10
-68.69611056819556
 20
-9.037869458236694
 30
0.0
  0
VERTEX
  5
122
330
11F
100
AcDbEntity
  8
Layer 1
 62
     7
420
 16777215
370
    35
100
AcDbVertex
100
AcDb2dVertex
 10
-68.69611056819556
 20
5.962086179928498
 30
0.0
  0
VERTEX
  5
123
330
11F
100
AcDbEntity
  8
Layer 1
 62
     7
420
 16777215
370
    35
100
AcDbVertex
100
AcDb2dVertex
 10
-74.69609282346164
 20
5.962086179928498
 30
0.0
  0
VERTEX
  5
124
330
11F
100
AcDbEntity
  8
Layer 1
 62
     7
420
 16777215
370
    35
100
AcDbVertex
100
AcDb2dVertex
 10
-89.69604846162683
 20
5.962086179928498
 30
0.0
  0
VERTEX
  5
125
330
11F
100
AcDbEntity
  8
Layer 1
 62
     7
420
 16777215
370
    35
100
AcDbVertex
100
AcDb2dVertex
 10
-89.69604846162683
 20
-9.037869458236694
 30
0.0
  0
VERTEX
  5
126
330
11F
100
AcDbEntity
  8
Layer 1
 62
     7
420
 16777215
370
    35
100
AcDbVertex
100
AcDb2dVertex
 10
-74.69609282346164
 20
-9.037869458236694
 30
0.0
  0
SEQEND
  5
127
330
11F
100
AcDbEntity
  8
Layer 1
370
    35
  0
ENDBLK
  5
11D
330
11A
100
AcDbEntity
  8
0
100
AcDbBlockEnd
  0
BLOCK
  5
12A
330
128
100
AcDbEntity
  8
0
100
AcDbBlockBegin
  2
block 18
 70
     0
 71
     0
 10
0.0
 20
0.0
 30
0.0
  3
block 18
  1

  0
SPLINE
  5
12C
330
128
100
AcDbEntity
  8
Layer 1
 62
     7
420
 16777215
370
    35
100
AcDbSpline
210
0.0
220
0.0
230
1.0
 70
    11
 71
     3
 72
    17
 73
    13
 74
     0
 42
0.0000000001
 43
0.0000000001
 40
0.0
 40
0.0
 40
0.0
 40
0.0
 40
1.0
 40
1.0
 40
1.0
 40
2.0
 40
2.0
 40
2.0
 40
3.0
 40
3.0
 40
3.0
 40
4.0
 40
4.0
 40
4.0
 40
4.0
 10
-111.6440772580492
 20
-1.537202619602505
 30
0.0
 10
-111.6440772580492
 20
-3.194294641182077
 30
0.0
 10
-110.3008336422199
 20
-4.537882766787136
 30
0.0
 10
-108.6440861304161
 20
-4.537882766787136
 30
0.0
 10
-106.9873386186123
 20
-4.537882766787136
 30
0.0
 10
-105.6440950027831
 20
-3.194294641182077
 30
0.0
 10
-105.6440950027831
 20
-1.537202619602505
 30
0.0
 10
-105.6440950027831
 20
0.1192003824254744
 30
0.0
 10
-106.9873386186123
 20
1.462099488478941
 30
0.0
 10
-108.6440861304161
 20
1.462099488478941
 30
0.0
 10
-110.3008336422199
 20
1.462099488478941
 30
0.0
 10
-111.6440772580492
 20
0.1192003824254744
 30
0.0
 10
-111.6440772580492
 20
-1.537202619602505
 30
0.0
  0
POLYLINE
  5
12D
330
128
100
AcDbEntity
  8
Layer 1
 62
     7
420
 16777215
370
    35
100
AcDb2dPolyline
 66
     1
 10
0.0
 20
0.0
 30
0.0
  0
VERTEX
  5
12E
330
12D
100
AcDbEntity
  8
Layer 1
 62
     7
420
 16777215
370
    35
100
AcDbVertex
100
AcDb2dVertex
 10
-116.1940178669892
 20
5.962086179928498
 30
0.0
  0
VERTEX
  5
12F
330
12D
100
AcDbEntity
  8
Layer 1
 62
     7
420
 16777215
370
    35
100
AcDbVertex
100
AcDb2dVertex
 10
-122.1940001222552
 20
5.962086179928498
 30
0.0
  0
VERTEX
  5
130
330
12D
100
AcDbEntity
  8
Layer 1
 62
     7
420
 16777215
370
    35
100
AcDbVertex
100
AcDb2dVertex
 10
-122.1940001222552
 20
-9.037869458236694
 30
0.0
  0
VERTEX
  5
131
330
12D
100
AcDbEntity
  8
Layer 1
 62
     7
420
 16777215
370
    35
100
AcDbVertex
100
AcDb2dVertex
 10
-116.1940178669892
 20
-9.037869458236694
 30
0.0
  0
VERTEX
  5
132
330
12D
100
AcDbEntity
  8
Layer 1
 62
     7
420
 16777215
370
    35
100
AcDbVertex
100
AcDb2dVertex
 10
-101.194062228824
 20
-9.037869458236694
 30
0.0
  0
VERTEX
  5
133
330
12D
100
AcDbEntity
  8
Layer 1
 62
     7
420
 16777215
370
    35
100
AcDbVertex
100
AcDb2dVertex
 10
-101.194062228824
 20
5.962086179928498
 30
0.0
  0
VERTEX
  5
134
330
12D
100
AcDbEntity
  8
Layer 1
 62
     7
420
 16777215
370
    35
100
AcDbVertex
100
AcDb2dVertex
 10
-116.1940178669892
 20
5.962086179928498
 30
0.0
  0
SEQEND
  5
135
330
12D
100
AcDbEntity
  8
Layer 1
370
    35
  0
ENDBLK
  5
12B
330
128
100
AcDbEntity
  8
0
100
AcDbBlockEnd
  0
ENDSEC
  0
SECTION
  2
ENTITIES
  0
INSERT
  5
3D
330
1F
100
AcDbEntity
  8
Layer 1
100
AcDbBlockReference
  2
block 2
 10
0.0
 20
0.0
 30
0.0
  0
SPLINE
  5
6C
330
1F
100
AcDbEntity
  8
Layer 1
 62
     7
420
 16777215
370
    35
100
AcDbSpline
210
0.0
220
0.0
230
1.0
 70
    11
 71
     3
 72
    17
 73
    13
 74
     0
 42
0.0000000001
 43
0.0000000001
 40
0.0
 40
0.0
 40
0.0
 40
0.0
 40
1.0
 40
1.0
 40
1.0
 40
2.0
 40
2.0
 40
2.0
 40
3.0
 40
3.0
 40
3.0
 40
4.0
 40
4.0
 40
4.0
 40
4.0
 10
137.5849743559491
 20
197.601505632736
 30
0.0
 10
137.5849743559491
 20
198.4848286978773
 30
0.0
 10
136.8685662771809
 20
199.2014090315334
 30
0.0
 10
135.9848987022638
 20
199.2014090315334
 30
0.0
 10
135.1017478920103
 20
199.2014090315334
 30
0.0
 10
134.3849953034664
 20
198.4848286978773
 30
0.0
 10
134.3849953034664
 20
197.601505632736
 30
0.0
 10
134.3849953034664
 20
196.7181825675946
 30
0.0
 10
135.1017478920103
 20
196.0016022339385
 30
0.0
 10
135.9848987022638
 20
196.0016022339385
 30
0.0
 10
136.8685662771809
 20
196.0016022339385
 30
0.0
 10
137.5849743559491
 20
196.717493548043
 30
0.0
 10
137.5849743559491
 20
197.601505632736
 30
0.0
  0
SPLINE
  5
6D
330
1F
100
AcDbEntity
  8
Layer 1
 62
     7
420
 16777215
370
    35
100
AcDbSpline
210
0.0
220
0.0
230
1.0
 70
    11
 71
     3
 72
    17
 73
    13
 74
     0
 42
0.0000000001
 43
0.0000000001
 40
0.0
 40
0.0
 40
0.0
 40
0.0
 40
1.0
 40
1.0
 40
1.0
 40
2.0
 40
2.0
 40
2.0
 40
3.0
 40
3.0
 40
3.0
 40
4.0
 40
4.0
 40
4.0
 40
4.0
 10
137.5849743559491
 20
167.6084845519215
 30
0.0
 10
137.5849743559491
 20
168.4924966366145
 30
0.0
 10
136.8685662771809
 20
169.2080434409431
 30
0.0
 10
135.9848987022638
 20
169.2080434409431
 30
0.0
 10
135.1017478920103
 20
169.2080434409431
 30
0.0
 10
134.3849953034664
 20
168.4918076170629
 30
0.0
 10
134.3849953034664
 20
167.6084845519215
 30
0.0
 10
134.3849953034664
 20
166.7251614867801
 30
0.0
 10
135.1017478920103
 20
166.0085811531241
 30
0.0
 10
135.9848987022638
 20
166.0085811531241
 30
0.0
 10
136.8685662771809
 20
166.0085811531241
 30
0.0
 10
137.5849743559491
 20
166.7244724672285
 30
0.0
 10
137.5849743559491
 20
167.6084845519215
 30
0.0
  0
SPLINE
  5
6E
330
1F
100
AcDbEntity
  8
Layer 1
 62
     7
420
 16777215
370
    35
100
AcDbSpline
210
0.0
220
0.0
230
1.0
 70
    11
 71
     3
 72
    17
 73
    13
 74
     0
 42
0.0000000001
 43
0.0000000001
 40
0.0
 40
0.0
 40
0.0
 40
0.0
 40
1.0
 40
1.0
 40
1.0
 40
2.0
 40
2.0
 40
2.0
 40
3.0
 40
3.0
 40
3.0
 40
4.0
 40
4.0
 40
4.0
 40
4.0
 10
178.0981182053632
 20
167.6084845519215
 30
0.0
 10
178.0981182053632
 20
168.4924966366145
 30
0.0
 10
177.3815378717072
 20
169.2080434409431
 30
0.0
 10
176.4982148065658
 20
169.2080434409431
 30
0.0
 10
175.6148917414245
 20
169.2080434409431
 30
0.0
 10
174.8979668979926
 20
168.4918076170629
 30
0.0
 10
174.8979668979926
 20
167.6084845519215
 30
0.0
 10
174.8979668979926
 20
166.7251614867801
 30
0.0
 10
175.6148917414245
 20
166.0085811531241
 30
0.0
 10
176.4982148065658
 20
166.0085811531241
 30
0.0
 10
177.3815378717072
 20
166.0085811531241
 30
0.0
 10
178.0981182053632
 20
166.7244724672285
 30
0.0
 10
178.0981182053632
 20
167.6084845519215
 30
0.0
  0
SPLINE
  5
6F
330
1F
100
AcDbEntity
  8
Layer 1
 62
     7
420
 16777215
370
    35
100
AcDbSpline
210
0.0
220
0.0
230
1.0
 70
    11
 71
     3
 72
    17
 73
    13
 74
     0
 42
0.0000000001
 43
0.0000000001
 40
0.0
 40
0.0
 40
0.0
 40
0.0
 40
1.0
 40
1.0
 40
1.0
 40
2.0
 40
2.0
 40
2.0
 40
3.0
 40
3.0
 40
3.0
 40
4.0
 40
4.0
 40
4.0
 40
4.0
 10
188.0889017034521
 20
167.6084845519215
 30
0.0
 10
188.0889017034521
 20
168.4924966366145
 30
0.0
 10
187.3723213697961
 20
169.2080434409431
 30
0.0
 10
186.4889983046547
 20
169.2080434409431
 30
0.0
 10
185.6056752395133
 20
169.2080434409431
 30
0.0
 10
184.8890949058573
 20
168.4918076170629
 30
0.0
 10
184.8890949058573
 20
167.6084845519215
 30
0.0
 10
184.8890949058573
 20
166.7251614867801
 30
0.0
 10
185.6056752395133
 20
166.0085811531241
 30
0.0
 10
186.4889983046547
 20
166.0085811531241
 30
0.0
 10
187.3723213697961
 20
166.0085811531241
 30
0.0
 10
188.0889017034521
 20
166.7244724672285
 30
0.0
 10
188.0889017034521
 20
167.6084845519215
 30
0.0
  0
SPLINE
  5
70
330
1F
100
AcDbEntity
  8
Layer 1
 62
     7
420
 16777215
370
    35
100
AcDbSpline
210
0.0
220
0.0
230
1.0
 70
    11
 71
     3
 72
    17
 73
    13
 74
     0
 42
0.0000000001
 43
0.0000000001
 40
0.0
 40
0.0
 40
0.0
 40
0.0
 40
1.0
 40
1.0
 40
1.0
 40
2.0
 40
2.0
 40
2.0
 40
3.0
 40
3.0
 40
3.0
 40
4.0
 40
4.0
 40
4.0
 40
4.0
 10
188.0889017034521
 20
197.601505632736
 30
0.0
 10
188.0889017034521
 20
198.4848286978773
 30
0.0
 10
187.3723213697961
 20
199.2014090315334
 30
0.0
 10
186.4889983046547
 20
199.2014090315334
 30
0.0
 10
185.6056752395133
 20
199.2014090315334
 30
0.0
 10
184.8890949058573
 20
198.4848286978773
 30
0.0
 10
184.8890949058573
 20
197.601505632736
 30
0.0
 10
184.8890949058573
 20
196.7181825675946
 30
0.0
 10
185.6056752395133
 20
196.0016022339385
 30
0.0
 10
186.4889983046547
 20
196.0016022339385
 30
0.0
 10
187.3723213697961
 20
196.0016022339385
 30
0.0
 10
188.0889017034521
 20
196.717493548043
 30
0.0
 10
188.0889017034521
 20
197.601505632736
 30
0.0
  0
SPLINE
  5
71
330
1F
100
AcDbEntity
  8
Layer 1
 62
     7
420
 16777215
370
    35
100
AcDbSpline
210
0.0
220
0.0
230
1.0
 70
    11
 71
     3
 72
    17
 73
    13
 74
     0
 42
0.0000000001
 43
0.0000000001
 40
0.0
 40
0.0
 40
0.0
 40
0.0
 40
1.0
 40
1.0
 40
1.0
 40
2.0
 40
2.0
 40
2.0
 40
3.0
 40
3.0
 40
3.0
 40
4.0
 40
4.0
 40
4.0
 40
4.0
 10
250.0855029166275
 20
167.6084845519215
 30
0.0
 10
250.0855029166275
 20
168.4924966366145
 30
0.0
 10
249.3696116025231
 20
169.2080434409431
 30
0.0
 10
248.4855995178301
 20
169.2080434409431
 30
0.0
 10
247.6012429233613
 20
169.2080434409431
 30
0.0
 10
246.8856961190327
 20
168.4918076170629
 30
0.0
 10
246.8856961190327
 20
167.6084845519215
 30
0.0
 10
246.8856961190327
 20
166.7251614867801
 30
0.0
 10
247.6015874331371
 20
166.0085811531241
 30
0.0
 10
248.4855995178301
 20
166.0085811531241
 30
0.0
 10
249.3696116025231
 20
166.0078921335725
 30
0.0
 10
250.0855029166275
 20
166.7244724672285
 30
0.0
 10
250.0855029166275
 20
167.6084845519215
 30
0.0
  0
SPLINE
  5
72
330
1F
100
AcDbEntity
  8
Layer 1
 62
     7
420
 16777215
370
    35
100
AcDbSpline
210
0.0
220
0.0
230
1.0
 70
    11
 71
     3
 72
    17
 73
    13
 74
     0
 42
0.0000000001
 43
0.0000000001
 40
0.0
 40
0.0
 40
0.0
 40
0.0
 40
1.0
 40
1.0
 40
1.0
 40
2.0
 40
2.0
 40
2.0
 40
3.0
 40
3.0
 40
3.0
 40
4.0
 40
4.0
 40
4.0
 40
4.0
 10
290.5984745111538
 20
167.6084845519215
 30
0.0
 10
290.5984745111538
 20
168.4924966366145
 30
0.0
 10
289.8822386872735
 20
169.2080434409431
 30
0.0
 10
288.9985711123564
 20
169.2080434409431
 30
0.0
 10
288.1149035374392
 20
169.2080434409431
 30
0.0
 10
287.3983232037831
 20
168.4918076170629
 30
0.0
 10
287.3983232037831
 20
167.6084845519215
 30
0.0
 10
287.3983232037831
 20
166.7251614867801
 30
0.0
 10
288.1149035374392
 20
166.0085811531241
 30
0.0
 10
288.9985711123564
 20
166.0085811531241
 30
0.0
 10
289.8822386872735
 20
166.0085811531241
 30
0.0
 10
290.5984745111538
 20
166.7244724672285
 30
0.0
 10
290.5984745111538
 20
167.6084845519215
 30
0.0
  0
SPLINE
  5
73
330
1F
100
AcDbEntity
  8
Layer 1
 62
     7
420
 16777215
370
    35
100
AcDbSpline
210
0.0
220
0.0
230
1.0
 70
    11
 71
     3
 72
    17
 73
    13
 74
     0
 42
0.0000000001
 43
0.0000000001
 40
0.0
 40
0.0
 40
0.0
 40
0.0
 40
1.0
 40
1.0
 40
1.0
 40
2.0
 40
2.0
 40
2.0
 40
3.0
 40
3.0
 40
3.0
 40
4.0
 40
4.0
 40
4.0
 40
4.0
 10
290.5984745111538
 20
197.601505632736
 30
0.0
 10
290.5984745111538
 20
198.4848286978773
 30
0.0
 10
289.8822386872735
 20
199.2014090315334
 30
0.0
 10
288.9985711123564
 20
199.2014090315334
 30
0.0
 10
288.1149035374392
 20
199.2014090315334
 30
0.0
 10
287.398667713559
 20
198.4848286978773
 30
0.0
 10
287.398667713559
 20
197.601505632736
 30
0.0
 10
287.3983232037831
 20
196.7181825675946
 30
0.0
 10
288.1149035374392
 20
196.0016022339385
 30
0.0
 10
288.9985711123564
 20
196.0016022339385
 30
0.0
 10
289.8822386872735
 20
196.0016022339385
 30
0.0
 10
290.5984745111538
 20
196.717493548043
 30
0.0
 10
290.5984745111538
 20
197.601505632736
 30
0.0
  0
MTEXT
  5
74
330
1F
100
AcDbEntity
  8
Layer 1
 62
     7
420
 16777215
100
AcDbMText
 10
-430.292537714527
 20
11.45839514298058
 30
0.0
 40
17.27201138993196
 41
0.0
 71
     7
 72
     1
  1
\fMyriad Pro|b0|i0|c0|p34;\W1;BOTTOM is 
 73
     1
 44
1.0
  0
MTEXT
  5
75
330
1F
100
AcDbEntity
  8
Layer 1
 62
     7
420
 16777215
100
AcDbMText
 10
-430.292537714527
 20
-19.02176276080967
 30
0.0
 40
17.27201138993196
 41
0.0
 71
     7
 72
     1
  1
\fMyriad Pro|b0|i0|c0|p34;\W1;flipped!!!!
 73
     1
 44
1.0
  0
INSERT
  5
77
330
1F
100
AcDbEntity
  8
Layer 1
100
AcDbBlockReference
  2
block 8
 10
0.0
 20
0.0
 30
0.0
  0
INSERT
  5
87
330
1F
100
AcDbEntity
  8
Layer 1
100
AcDbBlockReference
  2
block 9
 10
0.0
 20
0.0
 30
0.0
  0
SPLINE
  5
A2
330
1F
100
AcDbEntity
  8
Layer 1
 62
     7
420
 16777215
370
    50
100
AcDbSpline
210
0.0
220
0.0
230
1.0
 70
    11
 71
     3
 72
    17
 73
    13
 74
     0
 42
0.0000000001
 43
0.0000000001
 40
0.0
 40
0.0
 40
0.0
 40
0.0
 40
1.0
 40
1.0
 40
1.0
 40
2.0
 40
2.0
 40
2.0
 40
3.0
 40
3.0
 40
3.0
 40
4.0
 40
4.0
 40
4.0
 40
4.0
 10
507.3192391712497
 20
174.7155489717086
 30
0.0
 10
507.3192391712497
 20
169.1927127559202
 30
0.0
 10
502.8423346347785
 20
164.7156359645611
 30
0.0
 10
497.3194984189901
 20
164.7156359645611
 30
0.0
 10
491.7966622032017
 20
164.7156359645611
 30
0.0
 10
487.3194131569547
 20
169.1927127559202
 30
0.0
 10
487.3194131569547
 20
174.7155489717086
 30
0.0
 10
487.3194131569547
 20
180.2385574423848
 30
0.0
 10
491.7966622032017
 20
184.7156342337439
 30
0.0
 10
497.3194984189901
 20
184.7156342337439
 30
0.0
 10
502.8423346347785
 20
184.7156342337439
 30
0.0
 10
507.3192391712497
 20
180.2385574423848
 30
0.0
 10
507.3192391712497
 20
174.7155489717086
 30
0.0
  0
INSERT
  5
A4
330
1F
100
AcDbEntity
  8
Layer 1
100
AcDbBlockReference
  2
block 10
 10
0.0
 20
0.0
 30
0.0
  0
POLYLINE
  5
BF
330
1F
100
AcDbEntity
  8
Layer 1
 62
     7
420
 16777215
370
    50
100
AcDb2dPolyline
 66
     1
 10
0.0
 20
0.0
 30
0.0
  0
VERTEX
  5
C0
330
BF
100
AcDbEntity
  8
Layer 1
 62
     7
420
 16777215
370
    50
100
AcDbVertex
100
AcDb2dVertex
 10
8.102697671837992
 20
170.7156182198271
 30
0.0
  0
VERTEX
  5
C1
330
BF
100
AcDbEntity
  8
Layer 1
 62
     7
420
 16777215
370
    50
100
AcDbVertex
100
AcDb2dVertex
 10
2.102715416571916
 20
170.7156182198271
 30
0.0
  0
VERTEX
  5
C2
330
BF
100
AcDbEntity
  8
Layer 1
 62
     7
420
 16777215
370
    50
100
AcDbVertex
100
AcDb2dVertex
 10
2.102715416571916
 20
185.7155738579923
 30
0.0
  0
VERTEX
  5
C3
330
BF
100
AcDbEntity
  8
Layer 1
 62
     7
420
 16777215
370
    50
100
AcDbVertex
100
AcDb2dVertex
 10
8.102697671837992
 20
185.7155738579923
 30
0.0
  0
VERTEX
  5
C4
330
BF
100
AcDbEntity
  8
Layer 1
 62
     7
420
 16777215
370
    50
100
AcDbVertex
100
AcDb2dVertex
 10
8.102697671837992
 20
170.7156182198271
 30
0.0
  0
SEQEND
  5
C5
330
BF
100
AcDbEntity
  8
Layer 1
370
    50
  0
INSERT
  5
C7
330
1F
100
AcDbEntity
  8
Layer 1
100
AcDbBlockReference
  2
block 11
 10
0.0
 20
0.0
 30
0.0
  0
INSERT
  5
D5
330
1F
100
AcDbEntity
  8
Layer 1
100
AcDbBlockReference
  2
block 12
 10
0.0
 20
0.0
 30
0.0
  0
INSERT
  5
E3
330
1F
100
AcDbEntity
  8
Layer 1
100
AcDbBlockReference
  2
block 13
 10
0.0
 20
0.0
 30
0.0
  0
INSERT
  5
F1
330
1F
100
AcDbEntity
  8
Layer 1
100
AcDbBlockReference
  2
block 14
 10
0.0
 20
0.0
 30
0.0
  0
INSERT
  5
FF
330
1F
100
AcDbEntity
  8
Layer 1
100
AcDbBlockReference
  2
block 15
 10
0.0
 20
0.0
 30
0.0
  0
INSERT
  5
10D
330
1F
100
AcDbEntity
  8
Layer 1
100
AcDbBlockReference
  2
block 16
 10
0.0
 20
0.0
 30
0.0
  0
INSERT
  5
11B
330
1F
100
AcDbEntity
  8
Layer 1
100
AcDbBlockReference
  2
block 17
 10
0.0
 20
0.0
 30
0.0
  0
INSERT
  5
129
330
1F
100
AcDbEntity
  8
Layer 1
100
AcDbBlockReference
  2
block 18
 10
0.0
 20
0.0
 30
0.0
  0
POLYLINE
  5
136
330
1F
100
AcDbEntity
  8
Layer 1
 62
     7
420
 16777215
370
    35
100
AcDb2dPolyline
 66
     1
 10
0.0
 20
0.0
 30
0.0
  0
VERTEX
  5
137
330
136
100
AcDbEntity
  8
Layer 1
 62
     7
420
 16777215
370
    35
100
AcDbVertex
100
AcDb2dVertex
 10
8.043958755064747
 20
50.71528409495401
 30
0.0
  0
VERTEX
  5
138
330
136
100
AcDbEntity
  8
Layer 1
 62
     7
420
 16777215
370
    35
100
AcDbVertex
100
AcDb2dVertex
 10
2.04397649979867
 20
50.71528409495401
 30
0.0
  0
VERTEX
  5
139
330
136
100
AcDbEntity
  8
Layer 1
 62
     7
420
 16777215
370
    35
100
AcDbVertex
100
AcDb2dVertex
 10
2.04397649979867
 20
65.7152397331192
 30
0.0
  0
VERTEX
  5
13A
330
136
100
AcDbEntity
  8
Layer 1
 62
     7
420
 16777215
370
    35
100
AcDbVertex
100
AcDb2dVertex
 10
8.043958755064747
 20
65.7152397331192
 30
0.0
  0
VERTEX
  5
13B
330
136
100
AcDbEntity
  8
Layer 1
 62
     7
420
 16777215
370
    35
100
AcDbVertex
100
AcDb2dVertex
 10
8.043958755064747
 20
50.71528409495401
 30
0.0
  0
SEQEND
  5
13C
330
136
100
AcDbEntity
  8
Layer 1
370
    35
  0
SPLINE
  5
13D
330
1F
100
AcDbEntity
  8
Layer 1
 62
     7
420
 16777215
370
    35
100
AcDbSpline
210
0.0
220
0.0
230
1.0
 70
    11
 71
     3
 72
    17
 73
    13
 74
     0
 42
0.0000000001
 43
0.0000000001
 40
0.0
 40
0.0
 40
0.0
 40
0.0
 40
1.0
 40
1.0
 40
1.0
 40
2.0
 40
2.0
 40
2.0
 40
3.0
 40
3.0
 40
3.0
 40
4.0
 40
4.0
 40
4.0
 40
4.0
 10
328.3422765278304
 20
178.2154237840219
 30
0.0
 10
328.3422765278304
 20
176.0064271016168
 30
0.0
 10
326.5515147132419
 20
174.2154930321404
 30
0.0
 10
324.3425180308369
 20
174.2154930321404
 30
0.0
 10
322.1331768386561
 20
174.2154930321404
 30
0.0
 10
320.3424150240676
 20
176.0064271016168
 30
0.0
 10
320.3424150240676
 20
178.2154237840219
 30
0.0
 10
320.3424150240676
 20
180.4245927213148
 30
0.0
 10
322.1331768386561
 20
182.2155267907912
 30
0.0
 10
324.3425180308369
 20
182.2155267907912
 30
0.0
 10
326.5515147132419
 20
182.2155267907912
 30
0.0
 10
328.3422765278304
 20
180.4245927213148
 30
0.0
 10
328.3422765278304
 20
178.2154237840219
 30
0.0
  0
SPLINE
  5
13E
330
1F
100
AcDbEntity
  8
Layer 1
 62
     7
420
 16777215
370
    35
100
AcDbSpline
210
0.0
220
0.0
230
1.0
 70
    11
 71
     3
 72
    17
 73
    13
 74
     0
 42
0.0000000001
 43
0.0000000001
 40
0.0
 40
0.0
 40
0.0
 40
0.0
 40
1.0
 40
1.0
 40
1.0
 40
2.0
 40
2.0
 40
2.0
 40
3.0
 40
3.0
 40
3.0
 40
4.0
 40
4.0
 40
4.0
 40
4.0
 10
328.3422765278304
 20
247.0546781640607
 30
0.0
 10
328.3422765278304
 20
244.8456814816557
 30
0.0
 10
326.5515147132419
 20
243.0547474121793
 30
0.0
 10
324.3425180308369
 20
243.0547474121793
 30
0.0
 10
322.1331768386561
 20
243.0547474121793
 30
0.0
 10
320.3424150240676
 20
244.8456814816557
 30
0.0
 10
320.3424150240676
 20
247.0546781640607
 30
0.0
 10
320.3424150240676
 20
249.2638471013536
 30
0.0
 10
322.1331768386561
 20
251.05478117083
 30
0.0
 10
324.3425180308369
 20
251.05478117083
 30
0.0
 10
326.5515147132419
 20
251.05478117083
 30
0.0
 10
328.3422765278304
 20
249.2638471013536
 30
0.0
 10
328.3422765278304
 20
247.0546781640607
 30
0.0
  0
SPLINE
  5
13F
330
1F
100
AcDbEntity
  8
Layer 1
 62
     7
420
 16777215
370
    35
100
AcDbSpline
210
0.0
220
0.0
230
1.0
 70
    11
 71
     3
 72
    17
 73
    13
 74
     0
 42
0.0000000001
 43
0.0000000001
 40
0.0
 40
0.0
 40
0.0
 40
0.0
 40
1.0
 40
1.0
 40
1.0
 40
2.0
 40
2.0
 40
2.0
 40
3.0
 40
3.0
 40
3.0
 40
4.0
 40
4.0
 40
4.0
 40
4.0
 10
43.31797018905868
 20
178.2614158390906
 30
0.0
 10
43.31797018905868
 20
176.0524191566856
 30
0.0
 10
41.52720837447019
 20
174.2614850872092
 30
0.0
 10
39.31821169206516
 20
174.2614850872092
 30
0.0
 10
37.10887049988433
 20
174.2614850872092
 30
0.0
 10
35.31810868529584
 20
176.0524191566856
 30
0.0
 10
35.31810868529584
 20
178.2614158390906
 30
0.0
 10
35.31810868529584
 20
180.4705847763836
 30
0.0
 10
37.10887049988433
 20
182.2615188458599
 30
0.0
 10
39.31821169206516
 20
182.2615188458599
 30
0.0
 10
41.52720837447019
 20
182.2615188458599
 30
0.0
 10
43.31797018905868
 20
180.4705847763836
 30
0.0
 10
43.31797018905868
 20
178.2614158390906
 30
0.0
  0
SPLINE
  5
140
330
1F
100
AcDbEntity
  8
Layer 1
 62
     7
420
 16777215
370
    35
100
AcDbSpline
210
0.0
220
0.0
230
1.0
 70
    11
 71
     3
 72
    17
 73
    13
 74
     0
 42
0.0000000001
 43
0.0000000001
 40
0.0
 40
0.0
 40
0.0
 40
0.0
 40
1.0
 40
1.0
 40
1.0
 40
2.0
 40
2.0
 40
2.0
 40
3.0
 40
3.0
 40
3.0
 40
4.0
 40
4.0
 40
4.0
 40
4.0
 10
43.31797018905868
 20
247.0548504189486
 30
0.0
 10
43.31797018905868
 20
244.8458537365436
 30
0.0
 10
41.52720837447019
 20
243.0549196670672
 30
0.0
 10
39.31821169206516
 20
243.0549196670672
 30
0.0
 10
37.10887049988433
 20
243.0549196670672
 30
0.0
 10
35.31810868529584
 20
244.8458537365436
 30
0.0
 10
35.31810868529584
 20
247.0548504189486
 30
0.0
 10
35.31810868529584
 20
249.2640193562415
 30
0.0
 10
37.10887049988433
 20
251.0549534257179
 30
0.0
 10
39.31821169206516
 20
251.0549534257179
 30
0.0
 10
41.52720837447019
 20
251.0549534257179
 30
0.0
 10
43.31797018905868
 20
249.2640193562415
 30
0.0
 10
43.31797018905868
 20
247.0548504189486
 30
0.0
  0
SPLINE
  5
141
330
1F
100
AcDbEntity
  8
Layer 1
 62
     7
420
 16777215
370
    35
100
AcDbSpline
210
0.0
220
0.0
230
1.0
 70
    11
 71
     3
 72
    17
 73
    13
 74
     0
 42
0.0000000001
 43
0.0000000001
 40
0.0
 40
0.0
 40
0.0
 40
0.0
 40
1.0
 40
1.0
 40
1.0
 40
2.0
 40
2.0
 40
2.0
 40
3.0
 40
3.0
 40
3.0
 40
4.0
 40
4.0
 40
4.0
 40
4.0
 10
43.31797018905868
 20
58.25970367511432
 30
0.0
 10
43.31797018905868
 20
56.05070699270928
 30
0.0
 10
41.52720837447019
 20
54.25994517812079
 30
0.0
 10
39.31821169206516
 20
54.25994517812079
 30
0.0
 10
37.10887049988433
 20
54.25994517812079
 30
0.0
 10
35.31810868529584
 20
56.05070699270928
 30
0.0
 10
35.31810868529584
 20
58.25970367511432
 30
0.0
 10
35.31810868529584
 20
60.46904486729515
 30
0.0
 10
37.10887049988433
 20
62.26015119165943
 30
0.0
 10
39.31821169206516
 20
62.26015119165943
 30
0.0
 10
41.52720837447019
 20
62.26015119165943
 30
0.0
 10
43.31797018905868
 20
60.46904486729515
 30
0.0
 10
43.31797018905868
 20
58.25970367511432
 30
0.0
  0
SPLINE
  5
142
330
1F
100
AcDbEntity
  8
Layer 1
 62
     7
420
 16777215
370
    35
100
AcDbSpline
210
0.0
220
0.0
230
1.0
 70
    11
 71
     3
 72
    17
 73
    13
 74
     0
 42
0.0000000001
 43
0.0000000001
 40
0.0
 40
0.0
 40
0.0
 40
0.0
 40
1.0
 40
1.0
 40
1.0
 40
2.0
 40
2.0
 40
2.0
 40
3.0
 40
3.0
 40
3.0
 40
4.0
 40
4.0
 40
4.0
 40
4.0
 10
328.3422765278304
 20
58.21526191403661
 30
0.0
 10
328.3422765278304
 20
56.00626523163158
 30
0.0
 10
326.5515147132419
 20
54.21550341704309
 30
0.0
 10
324.3425180308369
 20
54.21550341704309
 30
0.0
 10
322.1331768386561
 20
54.21550341704309
 30
0.0
 10
320.3424150240676
 20
56.00626523163158
 30
0.0
 10
320.3424150240676
 20
58.21526191403661
 30
0.0
 10
320.3424150240676
 20
60.42425859644165
 30
0.0
 10
322.1331768386561
 20
62.21536492080592
 30
0.0
 10
324.3425180308369
 20
62.21536492080592
 30
0.0
 10
326.5515147132419
 20
62.21536492080592
 30
0.0
 10
328.3422765278304
 20
60.42425859644165
 30
0.0
 10
328.3422765278304
 20
58.21526191403661
 30
0.0
  0
POLYLINE
  5
143
330
1F
100
AcDbEntity
  8
Layer 1
 62
     7
420
 16777215
370
    50
100
AcDb2dPolyline
 66
     1
 10
0.0
 20
0.0
 30
0.0
  0
VERTEX
  5
144
330
143
100
AcDbEntity
  8
Layer 1
 62
     7
420
 16777215
370
    50
100
AcDbVertex
100
AcDb2dVertex
 10
-1.406805669463655
 20
196.215542804708
 30
0.0
  0
VERTEX
  5
145
330
143
100
AcDbEntity
  8
Layer 1
 62
     7
420
 16777215
370
    50
100
AcDbVertex
100
AcDb2dVertex
 10
-16.40676130762885
 20
196.215542804708
 30
0.0
  0
VERTEX
  5
146
330
143
100
AcDbEntity
  8
Layer 1
 62
     7
420
 16777215
370
    50
100
AcDbVertex
100
AcDb2dVertex
 10
-16.40676130762885
 20
202.2155250599741
 30
0.0
  0
VERTEX
  5
147
330
143
100
AcDbEntity
  8
Layer 1
 62
     7
420
 16777215
370
    50
100
AcDbVertex
100
AcDb2dVertex
 10
-1.406805669463655
 20
202.2155250599741
 30
0.0
  0
VERTEX
  5
148
330
143
100
AcDbEntity
  8
Layer 1
 62
     7
420
 16777215
370
    50
100
AcDbVertex
100
AcDb2dVertex
 10
-1.406805669463655
 20
196.215542804708
 30
0.0
  0
SEQEND
  5
149
330
143
100
AcDbEntity
  8
Layer 1
370
    50
  0
POLYLINE
  5
14A
330
1F
100
AcDbEntity
  8
Layer 1
 62
     7
420
 16777215
370
    50
100
AcDb2dPolyline
 66
     1
 10
0.0
 20
0.0
 30
0.0
  0
VERTEX
  5
14B
330
14A
100
AcDbEntity
  8
Layer 1
 62
     7
420
 16777215
370
    50
100
AcDbVertex
100
AcDb2dVertex
 10
-1.406805669463655
 20
34.21533289297231
 30
0.0
  0
VERTEX
  5
14C
330
14A
100
AcDbEntity
  8
Layer 1
 62
     7
420
 16777215
370
    50
100
AcDbVertex
100
AcDb2dVertex
 10
-16.40676130762885
 20
34.21533289297231
 30
0.0
  0
VERTEX
  5
14D
330
14A
100
AcDbEntity
  8
Layer 1
 62
     7
420
 16777215
370
    50
100
AcDbVertex
100
AcDb2dVertex
 10
-16.40676130762885
 20
40.21531514823838
 30
0.0
  0
VERTEX
  5
14E
330
14A
100
AcDbEntity
  8
Layer 1
 62
     7
420
 16777215
370
    50
100
AcDbVertex
100
AcDb2dVertex
 10
-1.406805669463655
 20
40.21531514823838
 30
0.0
  0
VERTEX
  5
14F
330
14A
100
AcDbEntity
  8
Layer 1
 62
     7
420
 16777215
370
    50
100
AcDbVertex
100
AcDb2dVertex
 10
-1.406805669463655
 20
34.21533289297231
 30
0.0
  0
SEQEND
  5
150
330
14A
100
AcDbEntity
  8
Layer 1
370
    50
  0
POLYLINE
  5
151
330
1F
100
AcDbEntity
  8
Layer 1
 62
     7
420
 16777215
370
    50
100
AcDb2dPolyline
 66
     1
 10
0.0
 20
0.0
 30
0.0
  0
VERTEX
  5
152
330
151
100
AcDbEntity
  8
Layer 1
 62
     7
420
 16777215
370
    50
100
AcDbVertex
100
AcDb2dVertex
 10
317.3303660542817
 20
208.2155073152401
 30
0.0
  0
VERTEX
  5
153
330
151
100
AcDbEntity
  8
Layer 1
 62
     7
420
 16777215
370
    50
100
AcDbVertex
100
AcDb2dVertex
 10
46.33001915884459
 20
208.2155073152401
 30
0.0
  0
VERTEX
  5
154
330
151
100
AcDbEntity
  8
Layer 1
 62
     7
420
 16777215
370
    50
100
AcDbVertex
100
AcDb2dVertex
 10
46.33001915884459
 20
202.2155250599741
 30
0.0
  0
VERTEX
  5
155
330
151
100
AcDbEntity
  8
Layer 1
 62
     7
420
 16777215
370
    50
100
AcDbVertex
100
AcDb2dVertex
 10
31.33006352067939
 20
202.2155250599741
 30
0.0
  0
VERTEX
  5
156
330
151
100
AcDbEntity
  8
Layer 1
 62
     7
420
 16777215
370
    50
100
AcDbVertex
100
AcDb2dVertex
 10
31.33006352067939
 20
188.2155090460572
 30
0.0
  0
VERTEX
  5
157
330
151
100
AcDbEntity
  8
Layer 1
 62
     7
420
 16777215
370
    50
100
AcDbVertex
100
AcDb2dVertex
 10
31.33006352067939
 20
168.2158552866501
 30
0.0
  0
VERTEX
  5
158
330
151
100
AcDbEntity
  8
Layer 1
 62
     7
420
 16777215
370
    50
100
AcDbVertex
100
AcDb2dVertex
 10
31.33006352067939
 20
68.215347176072
 30
0.0
  0
VERTEX
  5
159
330
151
100
AcDbEntity
  8
Layer 1
 62
     7
420
 16777215
370
    50
100
AcDbVertex
100
AcDb2dVertex
 10
31.33006352067939
 20
48.21552116177701
 30
0.0
  0
VERTEX
  5
15A
330
151
100
AcDbEntity
  8
Layer 1
 62
     7
420
 16777215
370
    50
100
AcDbVertex
100
AcDb2dVertex
 10
31.33006352067939
 20
34.21533289297231
 30
0.0
  0
VERTEX
  5
15B
330
151
100
AcDbEntity
  8
Layer 1
 62
     7
420
 16777215
370
    50
100
AcDbVertex
100
AcDb2dVertex
 10
46.33001915884459
 20
34.21533289297231
 30
0.0
  0
VERTEX
  5
15C
330
151
100
AcDbEntity
  8
Layer 1
 62
     7
420
 16777215
370
    50
100
AcDbVertex
100
AcDb2dVertex
 10
46.33001915884459
 20
28.21535063770623
 30
0.0
  0
VERTEX
  5
15D
330
151
100
AcDbEntity
  8
Layer 1
 62
     7
420
 16777215
370
    50
100
AcDbVertex
100
AcDb2dVertex
 10
317.3303660542817
 20
28.21535063770623
 30
0.0
  0
VERTEX
  5
15E
330
151
100
AcDbEntity
  8
Layer 1
 62
     7
420
 16777215
370
    50
100
AcDbVertex
100
AcDb2dVertex
 10
317.3303660542817
 20
34.21533289297231
 30
0.0
  0
VERTEX
  5
15F
330
151
100
AcDbEntity
  8
Layer 1
 62
     7
420
 16777215
370
    50
100
AcDbVertex
100
AcDb2dVertex
 10
332.3303216924469
 20
34.21533289297231
 30
0.0
  0
VERTEX
  5
160
330
151
100
AcDbEntity
  8
Layer 1
 62
     7
420
 16777215
370
    50
100
AcDbVertex
100
AcDb2dVertex
 10
332.3303216924469
 20
48.21552116177701
 30
0.0
  0
VERTEX
  5
161
330
151
100
AcDbEntity
  8
Layer 1
 62
     7
420
 16777215
370
    50
100
AcDbVertex
100
AcDb2dVertex
 10
332.3303216924469
 20
68.2156916858478
 30
0.0
  0
VERTEX
  5
162
330
151
100
AcDbEntity
  8
Layer 1
 62
     7
420
 16777215
370
    50
100
AcDbVertex
100
AcDb2dVertex
 10
332.3303216924469
 20
168.2155107768743
 30
0.0
  0
VERTEX
  5
163
330
151
100
AcDbEntity
  8
Layer 1
 62
     7
420
 16777215
370
    50
100
AcDbVertex
100
AcDb2dVertex
 10
332.3303216924469
 20
188.2155090460572
 30
0.0
  0
VERTEX
  5
164
330
151
100
AcDbEntity
  8
Layer 1
 62
     7
420
 16777215
370
    50
100
AcDbVertex
100
AcDb2dVertex
 10
332.3303216924469
 20
202.2155250599741
 30
0.0
  0
VERTEX
  5
165
330
151
100
AcDbEntity
  8
Layer 1
 62
     7
420
 16777215
370
    50
100
AcDbVertex
100
AcDb2dVertex
 10
317.3303660542817
 20
202.2155250599741
 30
0.0
  0
VERTEX
  5
166
330
151
100
AcDbEntity
  8
Layer 1
 62
     7
420
 16777215
370
    50
100
AcDbVertex
100
AcDb2dVertex
 10
317.3303660542817
 20
208.2155073152401
 30
0.0
  0
SEQEND
  5
167
330
151
100
AcDbEntity
  8
Layer 1
370
    50
  0
POLYLINE
  5
168
330
1F
100
AcDbEntity
  8
Layer 1
 62
     7
420
 16777215
370
    50
100
AcDb2dPolyline
 66
     1
 10
0.0
 20
0.0
 30
0.0
  0
VERTEX
  5
169
330
168
100
AcDbEntity
  8
Layer 1
 62
     7
420
 16777215
370
    50
100
AcDbVertex
100
AcDb2dVertex
 10
-59.9164511869181
 20
208.2155073152401
 30
0.0
  0
VERTEX
  5
16A
330
168
100
AcDbEntity
  8
Layer 1
 62
     7
420
 16777215
370
    50
100
AcDbVertex
100
AcDb2dVertex
 10
-25.9160923940426
 20
208.2155073152401
 30
0.0
  0
VERTEX
  5
16B
330
168
100
AcDbEntity
  8
Layer 1
 62
     7
420
 16777215
370
    50
100
AcDbVertex
100
AcDb2dVertex
 10
-25.9160923940426
 20
104.4650102951207
 30
0.0
  0
VERTEX
  5
16C
330
168
100
AcDbEntity
  8
Layer 1
 62
     7
420
 16777215
370
    50
100
AcDbVertex
100
AcDb2dVertex
 10
6.583581815464787
 20
104.4650102951207
 30
0.0
  0
VERTEX
  5
16D
330
168
100
AcDbEntity
  8
Layer 1
 62
     7
420
 16777215
370
    50
100
AcDbVertex
100
AcDb2dVertex
 10
6.583581815464787
 20
71.9653360856133
 30
0.0
  0
VERTEX
  5
16E
330
168
100
AcDbEntity
  8
Layer 1
 62
     7
420
 16777215
370
    50
100
AcDbVertex
100
AcDb2dVertex
 10
-25.9160923940426
 20
71.9653360856133
 30
0.0
  0
VERTEX
  5
16F
330
168
100
AcDbEntity
  8
Layer 1
 62
     7
420
 16777215
370
    50
100
AcDbVertex
100
AcDb2dVertex
 10
-25.9160923940426
 20
28.21603965725782
 30
0.0
  0
VERTEX
  5
170
330
168
100
AcDbEntity
  8
Layer 1
 62
     7
420
 16777215
370
    50
100
AcDbVertex
100
AcDb2dVertex
 10
-53.91646893165202
 20
28.21603965725782
 30
0.0
  0
VERTEX
  5
171
330
168
100
AcDbEntity
  8
Layer 1
 62
     7
420
 16777215
370
    50
100
AcDbVertex
100
AcDb2dVertex
 10
-59.9164511869181
 20
208.2155073152401
 30
0.0
  0
SEQEND
  5
172
330
168
100
AcDbEntity
  8
Layer 1
370
    50
  0
POLYLINE
  5
173
330
1F
100
AcDbEntity
  8
Layer 1
 62
     7
420
 16777215
370
    50
100
AcDb2dPolyline
 66
     1
 10
0.0
 20
0.0
 30
0.0
  0
VERTEX
  5
174
330
173
100
AcDbEntity
  8
Layer 1
 62
     7
420
 16777215
370
    50
100
AcDbVertex
100
AcDb2dVertex
 10
14.08355963454738
 20
208.2155073152401
 30
0.0
  0
VERTEX
  5
203
330
173
100
AcDbEntity
  8
0
100
AcDbVertex
100
AcDb2dVertex
 10
14.08355963454738
 20
208.2155073152401
 30
0.0
  0
SEQEND
  5
175
330
173
100
AcDbEntity
  8
Layer 1
370
    50
  0
POLYLINE
  5
176
330
1F
100
AcDbEntity
  8
Layer 1
 62
     7
420
 16777215
370
    50
100
AcDb2dPolyline
 66
     1
 10
0.0
 20
0.0
 30
0.0
  0
VERTEX
  5
177
330
176
100
AcDbEntity
  8
Layer 1
 62
     7
420
 16777215
370
    50
100
AcDbVertex
100
AcDb2dVertex
 10
7.999861503762837
 20
202.2155250599741
 30
0.0
  0
VERTEX
  5
178
330
176
100
AcDbEntity
  8
Layer 1
 62
     7
420
 16777215
370
    50
100
AcDbVertex
100
AcDb2dVertex
 10
7.999861503762837
 20
208.2155073152401
 30
0.0
  0
VERTEX
  5
179
330
176
100
AcDbEntity
  8
Layer 1
 62
     7
420
 16777215
370
    50
100
AcDbVertex
100
AcDb2dVertex
 10
14.08355963454738
 20
208.2155073152401
 30
0.0
  0
VERTEX
  5
17A
330
176
100
AcDbEntity
  8
Layer 1
 62
     7
420
 16777215
370
    50
100
AcDbVertex
100
AcDb2dVertex
 10
14.08355963454738
 20
213.2153776913699
 30
0.0
  0
VERTEX
  5
17B
330
176
100
AcDbEntity
  8
Layer 1
 62
     7
420
 16777215
370
    50
100
AcDbVertex
100
AcDb2dVertex
 10
-59.9164511869181
 20
213.2153776913699
 30
0.0
  0
VERTEX
  5
17C
330
176
100
AcDbEntity
  8
Layer 1
 62
     7
420
 16777215
370
    50
100
AcDbVertex
100
AcDb2dVertex
 10
-64.87808097793452
 20
207.5957342285828
 30
0.0
  0
VERTEX
  5
17D
330
176
100
AcDbEntity
  8
Layer 1
 62
     7
420
 16777215
370
    50
100
AcDbVertex
100
AcDb2dVertex
 10
-58.91392773935124
 20
28.04860790622088
 30
0.0
  0
VERTEX
  5
17E
330
176
100
AcDbEntity
  8
Layer 1
 62
     7
420
 16777215
370
    50
100
AcDbVertex
100
AcDb2dVertex
 10
-53.75041521971826
 20
23.217891830007
 30
0.0
  0
VERTEX
  5
17F
330
176
100
AcDbEntity
  8
Layer 1
 62
     7
420
 16777215
370
    50
100
AcDbVertex
100
AcDb2dVertex
 10
-25.9160923940426
 20
23.21582477135223
 30
0.0
  0
VERTEX
  5
180
330
176
100
AcDbEntity
  8
Layer 1
 62
     7
420
 16777215
370
    50
100
AcDbVertex
100
AcDb2dVertex
 10
14.08355963454738
 20
23.21582477135223
 30
0.0
  0
VERTEX
  5
181
330
176
100
AcDbEntity
  8
Layer 1
 62
     7
420
 16777215
370
    50
100
AcDbVertex
100
AcDb2dVertex
 10
14.08355963454738
 20
28.21535063770623
 30
0.0
  0
VERTEX
  5
182
330
176
100
AcDbEntity
  8
Layer 1
 62
     7
420
 16777215
370
    50
100
AcDbVertex
100
AcDb2dVertex
 10
7.999861503762837
 20
28.21603965725782
 30
0.0
  0
VERTEX
  5
183
330
176
100
AcDbEntity
  8
Layer 1
 62
     7
420
 16777215
370
    50
100
AcDbVertex
100
AcDb2dVertex
 10
7.999861503762837
 20
34.21533289297231
 30
0.0
  0
VERTEX
  5
184
330
176
100
AcDbEntity
  8
Layer 1
 62
     7
420
 16777215
370
    50
100
AcDbVertex
100
AcDb2dVertex
 10
14.08355963454738
 20
34.21533289297231
 30
0.0
  0
VERTEX
  5
185
330
176
100
AcDbEntity
  8
Layer 1
 62
     7
420
 16777215
370
    50
100
AcDbVertex
100
AcDb2dVertex
 10
14.08355963454738
 20
48.21552116177701
 30
0.0
  0
VERTEX
  5
186
330
176
100
AcDbEntity
  8
Layer 1
 62
     7
420
 16777215
370
    50
100
AcDbVertex
100
AcDb2dVertex
 10
14.08355963454738
 20
68.2156916858478
 30
0.0
  0
VERTEX
  5
187
330
176
100
AcDbEntity
  8
Layer 1
 62
     7
420
 16777215
370
    50
100
AcDbVertex
100
AcDb2dVertex
 10
14.08355963454738
 20
113.2155586003434
 30
0.0
  0
VERTEX
  5
188
330
176
100
AcDbEntity
  8
Layer 1
 62
     7
420
 16777215
370
    50
100
AcDbVertex
100
AcDb2dVertex
 10
14.08355963454738
 20
168.2155107768743
 30
0.0
  0
VERTEX
  5
189
330
176
100
AcDbEntity
  8
Layer 1
 62
     7
420
 16777215
370
    50
100
AcDbVertex
100
AcDb2dVertex
 10
14.08355963454738
 20
188.2155090460572
 30
0.0
  0
VERTEX
  5
18A
330
176
100
AcDbEntity
  8
Layer 1
 62
     7
420
 16777215
370
    50
100
AcDbVertex
100
AcDb2dVertex
 10
14.08355963454738
 20
202.215697314862
 30
0.0
  0
VERTEX
  5
18B
330
176
100
AcDbEntity
  8
Layer 1
 62
     7
420
 16777215
370
    50
100
AcDbVertex
100
AcDb2dVertex
 10
7.999861503762837
 20
202.2155250599741
 30
0.0
  0
SEQEND
  5
18C
330
176
100
AcDbEntity
  8
Layer 1
370
    50
  0
POLYLINE
  5
18D
330
1F
100
AcDbEntity
  8
Layer 1
 62
     7
420
 16777215
370
    50
100
AcDb2dPolyline
 66
     1
 10
0.0
 20
0.0
 30
0.0
  0
VERTEX
  5
18E
330
18D
100
AcDbEntity
  8
Layer 1
 62
     7
420
 16777215
370
    50
100
AcDbVertex
100
AcDb2dVertex
 10
348.8461203441152
 20
170.7156182198271
 30
0.0
  0
VERTEX
  5
18F
330
18D
100
AcDbEntity
  8
Layer 1
 62
     7
420
 16777215
370
    50
100
AcDbVertex
100
AcDb2dVertex
 10
354.8461025993813
 20
170.7156182198271
 30
0.0
  0
VERTEX
  5
190
330
18D
100
AcDbEntity
  8
Layer 1
 62
     7
420
 16777215
370
    50
100
AcDbVertex
100
AcDb2dVertex
 10
354.8461025993813
 20
185.7155738579923
 30
0.0
  0
VERTEX
  5
191
330
18D
100
AcDbEntity
  8
Layer 1
 62
     7
420
 16777215
370
    50
100
AcDbVertex
100
AcDb2dVertex
 10
348.8461203441152
 20
185.7155738579923
 30
0.0
  0
VERTEX
  5
192
330
18D
100
AcDbEntity
  8
Layer 1
 62
     7
420
 16777215
370
    50
100
AcDbVertex
100
AcDb2dVertex
 10
348.8461203441152
 20
170.7156182198271
 30
0.0
  0
SEQEND
  5
193
330
18D
100
AcDbEntity
  8
Layer 1
370
    50
  0
POLYLINE
  5
194
330
1F
100
AcDbEntity
  8
Layer 1
 62
     7
420
 16777215
370
    35
100
AcDb2dPolyline
 66
     1
 10
0.0
 20
0.0
 30
0.0
  0
VERTEX
  5
195
330
194
100
AcDbEntity
  8
Layer 1
 62
     7
420
 16777215
370
    35
100
AcDbVertex
100
AcDb2dVertex
 10
348.9050315157764
 20
50.71528409495401
 30
0.0
  0
VERTEX
  5
196
330
194
100
AcDbEntity
  8
Layer 1
 62
     7
420
 16777215
370
    35
100
AcDbVertex
100
AcDb2dVertex
 10
354.9050137710424
 20
50.71528409495401
 30
0.0
  0
VERTEX
  5
197
330
194
100
AcDbEntity
  8
Layer 1
 62
     7
420
 16777215
370
    35
100
AcDbVertex
100
AcDb2dVertex
 10
354.9050137710424
 20
65.7152397331192
 30
0.0
  0
VERTEX
  5
198
330
194
100
AcDbEntity
  8
Layer 1
 62
     7
420
 16777215
370
    35
100
AcDbVertex
100
AcDb2dVertex
 10
348.9050315157764
 20
65.7152397331192
 30
0.0
  0
VERTEX
  5
199
330
194
100
AcDbEntity
  8
Layer 1
 62
     7
420
 16777215
370
    35
100
AcDbVertex
100
AcDb2dVertex
 10
348.9050315157764
 20
50.71528409495401
 30
0.0
  0
SEQEND
  5
19A
330
194
100
AcDbEntity
  8
Layer 1
370
    35
  0
POLYLINE
  5
19B
330
1F
100
AcDbEntity
  8
Layer 1
 62
     7
420
 16777215
370
    50
100
AcDb2dPolyline
 66
     1
 10
0.0
 20
0.0
 30
0.0
  0
VERTEX
  5
19C
330
19B
100
AcDbEntity
  8
Layer 1
 62
     7
420
 16777215
370
    50
100
AcDbVertex
100
AcDb2dVertex
 10
358.3556236854168
 20
196.215542804708
 30
0.0
  0
VERTEX
  5
19D
330
19B
100
AcDbEntity
  8
Layer 1
 62
     7
420
 16777215
370
    50
100
AcDbVertex
100
AcDb2dVertex
 10
373.355579323582
 20
196.215542804708
 30
0.0
  0
VERTEX
  5
19E
330
19B
100
AcDbEntity
  8
Layer 1
 62
     7
420
 16777215
370
    50
100
AcDbVertex
100
AcDb2dVertex
 10
373.355579323582
 20
202.2155250599741
 30
0.0
  0
VERTEX
  5
19F
330
19B
100
AcDbEntity
  8
Layer 1
 62
     7
420
 16777215
370
    50
100
AcDbVertex
100
AcDb2dVertex
 10
358.3556236854168
 20
202.2155250599741
 30
0.0
  0
VERTEX
  5
1A0
330
19B
100
AcDbEntity
  8
Layer 1
 62
     7
420
 16777215
370
    50
100
AcDbVertex
100
AcDb2dVertex
 10
358.3556236854168
 20
196.215542804708
 30
0.0
  0
SEQEND
  5
1A1
330
19B
100
AcDbEntity
  8
Layer 1
370
    50
  0
POLYLINE
  5
1A2
330
1F
100
AcDbEntity
  8
Layer 1
 62
     7
420
 16777215
370
    50
100
AcDb2dPolyline
 66
     1
 10
0.0
 20
0.0
 30
0.0
  0
VERTEX
  5
1A3
330
1A2
100
AcDbEntity
  8
Layer 1
 62
     7
420
 16777215
370
    50
100
AcDbVertex
100
AcDb2dVertex
 10
358.3556236854168
 20
34.21533289297231
 30
0.0
  0
VERTEX
  5
1A4
330
1A2
100
AcDbEntity
  8
Layer 1
 62
     7
420
 16777215
370
    50
100
AcDbVertex
100
AcDb2dVertex
 10
373.355579323582
 20
34.21533289297231
 30
0.0
  0
VERTEX
  5
1A5
330
1A2
100
AcDbEntity
  8
Layer 1
 62
     7
420
 16777215
370
    50
100
AcDbVertex
100
AcDb2dVertex
 10
373.355579323582
 20
40.21531514823838
 30
0.0
  0
VERTEX
  5
1A6
330
1A2
100
AcDbEntity
  8
Layer 1
 62
     7
420
 16777215
370
    50
100
AcDbVertex
100
AcDb2dVertex
 10
358.3556236854168
 20
40.21531514823838
 30
0.0
  0
VERTEX
  5
1A7
330
1A2
100
AcDbEntity
  8
Layer 1
 62
     7
420
 16777215
370
    50
100
AcDbVertex
100
AcDb2dVertex
 10
358.3556236854168
 20
34.21533289297231
 30
0.0
  0
SEQEND
  5
1A8
330
1A2
100
AcDbEntity
  8
Layer 1
370
    50
  0
POLYLINE
  5
1A9
330
1F
100
AcDbEntity
  8
Layer 1
 62
     7
420
 16777215
370
    50
100
AcDb2dPolyline
 66
     1
 10
0.0
 20
0.0
 30
0.0
  0
VERTEX
  5
1AA
330
1A9
100
AcDbEntity
  8
Layer 1
 62
     7
420
 16777215
370
    50
100
AcDbVertex
100
AcDb2dVertex
 10
410.8651146927173
 20
28.21603965725782
 30
0.0
  0
VERTEX
  5
1AB
330
1A9
100
AcDbEntity
  8
Layer 1
 62
     7
420
 16777215
370
    50
100
AcDbVertex
100
AcDb2dVertex
 10
382.8647381551079
 20
28.21603965725782
 30
0.0
  0
VERTEX
  5
1AC
330
1A9
100
AcDbEntity
  8
Layer 1
 62
     7
420
 16777215
370
    50
100
AcDbVertex
100
AcDb2dVertex
 10
382.8647381551079
 20
71.9653360856133
 30
0.0
  0
VERTEX
  5
1AD
330
1A9
100
AcDbEntity
  8
Layer 1
 62
     7
420
 16777215
370
    50
100
AcDbVertex
100
AcDb2dVertex
 10
350.3650639456005
 20
71.9653360856133
 30
0.0
  0
VERTEX
  5
1AE
330
1A9
100
AcDbEntity
  8
Layer 1
 62
     7
420
 16777215
370
    50
100
AcDbVertex
100
AcDb2dVertex
 10
350.3650639456005
 20
104.4650102951207
 30
0.0
  0
VERTEX
  5
1AF
330
1A9
100
AcDbEntity
  8
Layer 1
 62
     7
420
 16777215
370
    50
100
AcDbVertex
100
AcDb2dVertex
 10
382.8647381551079
 20
104.4650102951207
 30
0.0
  0
VERTEX
  5
1B0
330
1A9
100
AcDbEntity
  8
Layer 1
 62
     7
420
 16777215
370
    50
100
AcDbVertex
100
AcDb2dVertex
 10
382.8647381551079
 20
208.2155073152401
 30
0.0
  0
VERTEX
  5
1B1
330
1A9
100
AcDbEntity
  8
Layer 1
 62
     7
420
 16777215
370
    50
100
AcDbVertex
100
AcDb2dVertex
 10
416.8650969479834
 20
208.2155073152401
 30
0.0
  0
VERTEX
  5
1B2
330
1A9
100
AcDbEntity
  8
Layer 1
 62
     7
420
 16777215
370
    50
100
AcDbVertex
100
AcDb2dVertex
 10
410.8651146927173
 20
28.21603965725782
 30
0.0
  0
SEQEND
  5
1B3
330
1A9
100
AcDbEntity
  8
Layer 1
370
    50
  0
POLYLINE
  5
1B4
330
1F
100
AcDbEntity
  8
Layer 1
 62
     7
420
 16777215
370
    50
100
AcDb2dPolyline
 66
     1
 10
0.0
 20
0.0
 30
0.0
  0
VERTEX
  5
1B5
330
1B4
100
AcDbEntity
  8
Layer 1
 62
     7
420
 16777215
370
    50
100
AcDbVertex
100
AcDb2dVertex
 10
342.865086126518
 20
208.2155073152401
 30
0.0
  0
VERTEX
  5
204
330
1B4
100
AcDbEntity
  8
0
100
AcDbVertex
100
AcDb2dVertex
 10
342.865086126518
 20
208.2155073152401
 30
0.0
  0
SEQEND
  5
1B6
330
1B4
100
AcDbEntity
  8
Layer 1
370
    50
  0
POLYLINE
  5
1B7
330
1F
100
AcDbEntity
  8
Layer 1
 62
     7
420
 16777215
370
    50
100
AcDb2dPolyline
 66
     1
 10
0.0
 20
0.0
 30
0.0
  0
VERTEX
  5
1B8
330
1B7
100
AcDbEntity
  8
Layer 1
 62
     7
420
 16777215
370
    50
100
AcDbVertex
100
AcDb2dVertex
 10
342.865086126518
 20
202.215697314862
 30
0.0
  0
VERTEX
  5
1B9
330
1B7
100
AcDbEntity
  8
Layer 1
 62
     7
420
 16777215
370
    50
100
AcDbVertex
100
AcDb2dVertex
 10
342.865086126518
 20
188.2155090460572
 30
0.0
  0
VERTEX
  5
1BA
330
1B7
100
AcDbEntity
  8
Layer 1
 62
     7
420
 16777215
370
    50
100
AcDbVertex
100
AcDb2dVertex
 10
342.865086126518
 20
168.2155107768743
 30
0.0
  0
VERTEX
  5
1BB
330
1B7
100
AcDbEntity
  8
Layer 1
 62
     7
420
 16777215
370
    50
100
AcDbVertex
100
AcDb2dVertex
 10
342.865086126518
 20
113.2155586003434
 30
0.0
  0
VERTEX
  5
1BC
330
1B7
100
AcDbEntity
  8
Layer 1
 62
     7
420
 16777215
370
    50
100
AcDbVertex
100
AcDb2dVertex
 10
342.865086126518
 20
68.2156916858478
 30
0.0
  0
VERTEX
  5
1BD
330
1B7
100
AcDbEntity
  8
Layer 1
 62
     7
420
 16777215
370
    50
100
AcDbVertex
100
AcDb2dVertex
 10
342.865086126518
 20
48.21552116177701
 30
0.0
  0
VERTEX
  5
1BE
330
1B7
100
AcDbEntity
  8
Layer 1
 62
     7
420
 16777215
370
    50
100
AcDbVertex
100
AcDb2dVertex
 10
342.865086126518
 20
34.21533289297231
 30
0.0
  0
VERTEX
  5
1BF
330
1B7
100
AcDbEntity
  8
Layer 1
 62
     7
420
 16777215
370
    50
100
AcDbVertex
100
AcDb2dVertex
 10
348.9491287670783
 20
34.21533289297231
 30
0.0
  0
VERTEX
  5
1C0
330
1B7
100
AcDbEntity
  8
Layer 1
 62
     7
420
 16777215
370
    50
100
AcDbVertex
100
AcDb2dVertex
 10
348.9491287670783
 20
28.21603965725782
 30
0.0
  0
VERTEX
  5
1C1
330
1B7
100
AcDbEntity
  8
Layer 1
 62
     7
420
 16777215
370
    50
100
AcDbVertex
100
AcDb2dVertex
 10
342.865086126518
 20
28.21535063770623
 30
0.0
  0
VERTEX
  5
1C2
330
1B7
100
AcDbEntity
  8
Layer 1
 62
     7
420
 16777215
370
    50
100
AcDbVertex
100
AcDb2dVertex
 10
342.865086126518
 20
23.21582477135223
 30
0.0
  0
VERTEX
  5
1C3
330
1B7
100
AcDbEntity
  8
Layer 1
 62
     7
420
 16777215
370
    50
100
AcDbVertex
100
AcDb2dVertex
 10
382.8647381551079
 20
23.21582477135223
 30
0.0
  0
VERTEX
  5
1C4
330
1B7
100
AcDbEntity
  8
Layer 1
 62
     7
420
 16777215
370
    50
100
AcDbVertex
100
AcDb2dVertex
 10
410.6990609807836
 20
23.217891830007
 30
0.0
  0
VERTEX
  5
1C5
330
1B7
100
AcDbEntity
  8
Layer 1
 62
     7
420
 16777215
370
    50
100
AcDbVertex
100
AcDb2dVertex
 10
415.8625735004165
 20
28.04860790622088
 30
0.0
  0
VERTEX
  5
1C6
330
1B7
100
AcDbEntity
  8
Layer 1
 62
     7
420
 16777215
370
    50
100
AcDbVertex
100
AcDb2dVertex
 10
421.8267267389998
 20
207.5957342285828
 30
0.0
  0
VERTEX
  5
1C7
330
1B7
100
AcDbEntity
  8
Layer 1
 62
     7
420
 16777215
370
    50
100
AcDbVertex
100
AcDb2dVertex
 10
416.8650969479834
 20
213.2153776913699
 30
0.0
  0
VERTEX
  5
1C8
330
1B7
100
AcDbEntity
  8
Layer 1
 62
     7
420
 16777215
370
    50
100
AcDbVertex
100
AcDb2dVertex
 10
342.865086126518
 20
213.2153776913699
 30
0.0
  0
VERTEX
  5
1C9
330
1B7
100
AcDbEntity
  8
Layer 1
 62
     7
420
 16777215
370
    50
100
AcDbVertex
100
AcDb2dVertex
 10
342.865086126518
 20
208.2155073152401
 30
0.0
  0
VERTEX
  5
1CA
330
1B7
100
AcDbEntity
  8
Layer 1
 62
     7
420
 16777215
370
    50
100
AcDbVertex
100
AcDb2dVertex
 10
348.9491287670783
 20
208.2155073152401
 30
0.0
  0
VERTEX
  5
1CB
330
1B7
100
AcDbEntity
  8
Layer 1
 62
     7
420
 16777215
370
    50
100
AcDbVertex
100
AcDb2dVertex
 10
348.9491287670783
 20
202.2155250599741
 30
0.0
  0
VERTEX
  5
1CC
330
1B7
100
AcDbEntity
  8
Layer 1
 62
     7
420
 16777215
370
    50
100
AcDbVertex
100
AcDb2dVertex
 10
342.865086126518
 20
202.215697314862
 30
0.0
  0
SEQEND
  5
1CD
330
1B7
100
AcDbEntity
  8
Layer 1
370
    50
  0
POLYLINE
  5
1CE
330
1F
100
AcDbEntity
  8
Layer 1
 62
     7
420
 16777215
370
    50
100
AcDb2dPolyline
 66
     1
 10
0.0
 20
0.0
 30
0.0
  0
VERTEX
  5
1CF
330
1CE
100
AcDbEntity
  8
Layer 1
 62
     7
420
 16777215
370
    50
100
AcDbVertex
100
AcDb2dVertex
 10
331.8927942771858
 20
230.056049061614
 30
0.0
  0
VERTEX
  5
1D0
330
1CE
100
AcDbEntity
  8
Layer 1
 62
     7
420
 16777215
370
    50
100
AcDbVertex
100
AcDb2dVertex
 10
331.8927942771858
 20
264.0558910898258
 30
0.0
  0
VERTEX
  5
1D1
330
1CE
100
AcDbEntity
  8
Layer 1
 62
     7
420
 16777215
370
    50
100
AcDbVertex
100
AcDb2dVertex
 10
31.76776319082842
 20
264.0558910898258
 30
0.0
  0
VERTEX
  5
1D2
330
1CE
100
AcDbEntity
  8
Layer 1
 62
     7
420
 16777215
370
    50
100
AcDbVertex
100
AcDb2dVertex
 10
31.76776319082842
 20
230.056049061614
 30
0.0
  0
VERTEX
  5
1D3
330
1CE
100
AcDbEntity
  8
Layer 1
 62
     7
420
 16777215
370
    50
100
AcDbVertex
100
AcDb2dVertex
 10
25.76778093556235
 20
230.056049061614
 30
0.0
  0
VERTEX
  5
1D4
330
1CE
100
AcDbEntity
  8
Layer 1
 62
     7
420
 16777215
370
    50
100
AcDbVertex
100
AcDb2dVertex
 10
25.76778093556235
 20
224.056066806348
 30
0.0
  0
VERTEX
  5
1D5
330
1CE
100
AcDbEntity
  8
Layer 1
 62
     7
420
 16777215
370
    50
100
AcDbVertex
100
AcDb2dVertex
 10
31.76776319082842
 20
224.056066806348
 30
0.0
  0
VERTEX
  5
1D6
330
1CE
100
AcDbEntity
  8
Layer 1
 62
     7
420
 16777215
370
    50
100
AcDbVertex
100
AcDb2dVertex
 10
46.76771882899362
 20
224.056066806348
 30
0.0
  0
VERTEX
  5
1D7
330
1CE
100
AcDbEntity
  8
Layer 1
 62
     7
420
 16777215
370
    50
100
AcDbVertex
100
AcDb2dVertex
 10
46.76771882899362
 20
230.056049061614
 30
0.0
  0
VERTEX
  5
1D8
330
1CE
100
AcDbEntity
  8
Layer 1
 62
     7
420
 16777215
370
    50
100
AcDbVertex
100
AcDb2dVertex
 10
316.8421957019785
 20
230.056049061614
 30
0.0
  0
VERTEX
  5
1D9
330
1CE
100
AcDbEntity
  8
Layer 1
 62
     7
420
 16777215
370
    50
100
AcDbVertex
100
AcDb2dVertex
 10
316.8421957019785
 20
224.056066806348
 30
0.0
  0
VERTEX
  5
1DA
330
1CE
100
AcDbEntity
  8
Layer 1
 62
     7
420
 16777215
370
    50
100
AcDbVertex
100
AcDb2dVertex
 10
331.8421513401437
 20
224.056066806348
 30
0.0
  0
VERTEX
  5
1DB
330
1CE
100
AcDbEntity
  8
Layer 1
 62
     7
420
 16777215
370
    50
100
AcDbVertex
100
AcDb2dVertex
 10
337.8421335954098
 20
224.056066806348
 30
0.0
  0
VERTEX
  5
1DC
330
1CE
100
AcDbEntity
  8
Layer 1
 62
     7
420
 16777215
370
    50
100
AcDbVertex
100
AcDb2dVertex
 10
337.8421335954098
 20
230.056049061614
 30
0.0
  0
VERTEX
  5
1DD
330
1CE
100
AcDbEntity
  8
Layer 1
 62
     7
420
 16777215
370
    50
100
AcDbVertex
100
AcDb2dVertex
 10
331.8927942771858
 20
230.056049061614
 30
0.0
  0
SEQEND
  5
1DE
330
1CE
100
AcDbEntity
  8
Layer 1
370
    50
  0
SPLINE
  5
1DF
330
1F
100
AcDbEntity
  8
Layer 1
 62
     7
420
 16777215
370
    35
100
AcDbSpline
210
0.0
220
0.0
230
1.0
 70
    11
 71
     3
 72
    17
 73
    13
 74
     0
 42
0.0000000001
 43
0.0000000001
 40
0.0
 40
0.0
 40
0.0
 40
0.0
 40
1.0
 40
1.0
 40
1.0
 40
2.0
 40
2.0
 40
2.0
 40
3.0
 40
3.0
 40
3.0
 40
4.0
 40
4.0
 40
4.0
 40
4.0
 10
328.3422765278304
 20
-7.536151345541193
 30
0.0
 10
328.3422765278304
 20
-5.327154663136159
 30
0.0
 10
326.5515147132419
 20
-3.536048338771877
 30
0.0
 10
324.3425180308369
 20
-3.536048338771877
 30
0.0
 10
322.1331768386561
 20
-3.536048338771877
 30
0.0
 10
320.3424150240676
 20
-5.327154663136159
 30
0.0
 10
320.3424150240676
 20
-7.536151345541193
 30
0.0
 10
320.3424150240676
 20
-9.745492537722024
 30
0.0
 10
322.1331768386561
 20
-11.53625435231051
 30
0.0
 10
324.3425180308369
 20
-11.53625435231051
 30
0.0
 10
326.5515147132419
 20
-11.53625435231051
 30
0.0
 10
328.3422765278304
 20
-9.745492537722024
 30
0.0
 10
328.3422765278304
 20
-7.536151345541193
 30
0.0
  0
SPLINE
  5
1E0
330
1F
100
AcDbEntity
  8
Layer 1
 62
     7
420
 16777215
370
    35
100
AcDbSpline
210
0.0
220
0.0
230
1.0
 70
    11
 71
     3
 72
    17
 73
    13
 74
     0
 42
0.0000000001
 43
0.0000000001
 40
0.0
 40
0.0
 40
0.0
 40
0.0
 40
1.0
 40
1.0
 40
1.0
 40
2.0
 40
2.0
 40
2.0
 40
3.0
 40
3.0
 40
3.0
 40
4.0
 40
4.0
 40
4.0
 40
4.0
 10
43.31797018905868
 20
-7.53649585531699
 30
0.0
 10
43.31797018905868
 20
-5.327499172911955
 30
0.0
 10
41.52720837447019
 20
-3.536392848547673
 30
0.0
 10
39.31821169206516
 20
-3.536392848547673
 30
0.0
 10
37.10887049988433
 20
-3.536392848547673
 30
0.0
 10
35.31810868529584
 20
-5.327499172911955
 30
0.0
 10
35.31810868529584
 20
-7.53649585531699
 30
0.0
 10
35.31810868529584
 20
-9.745492537722024
 30
0.0
 10
37.10887049988433
 20
-11.53625435231051
 30
0.0
 10
39.31821169206516
 20
-11.53625435231051
 30
0.0
 10
41.52720837447019
 20
-11.53625435231051
 30
0.0
 10
43.31797018905868
 20
-9.745492537722024
 30
0.0
 10
43.31797018905868
 20
-7.53649585531699
 30
0.0
  0
POLYLINE
  5
1E1
330
1F
100
AcDbEntity
  8
Layer 1
 62
     7
420
 16777215
370
    50
100
AcDb2dPolyline
 66
     1
 10
0.0
 20
0.0
 30
0.0
  0
VERTEX
  5
1E2
330
1E1
100
AcDbEntity
  8
Layer 1
 62
     7
420
 16777215
370
    50
100
AcDbVertex
100
AcDb2dVertex
 10
331.8927942771858
 20
9.462305502017573
 30
0.0
  0
VERTEX
  5
1E3
330
1E1
100
AcDbEntity
  8
Layer 1
 62
     7
420
 16777215
370
    50
100
AcDbVertex
100
AcDb2dVertex
 10
331.8927942771858
 20
-24.53736427130633
 30
0.0
  0
VERTEX
  5
1E4
330
1E1
100
AcDbEntity
  8
Layer 1
 62
     7
420
 16777215
370
    50
100
AcDbVertex
100
AcDb2dVertex
 10
31.76776319082842
 20
-24.53736427130633
 30
0.0
  0
VERTEX
  5
1E5
330
1E1
100
AcDbEntity
  8
Layer 1
 62
     7
420
 16777215
370
    50
100
AcDbVertex
100
AcDb2dVertex
 10
31.76776319082842
 20
9.462305502017573
 30
0.0
  0
VERTEX
  5
1E6
330
1E1
100
AcDbEntity
  8
Layer 1
 62
     7
420
 16777215
370
    50
100
AcDbVertex
100
AcDb2dVertex
 10
25.76778093556235
 20
9.462305502017573
 30
0.0
  0
VERTEX
  5
1E7
330
1E1
100
AcDbEntity
  8
Layer 1
 62
     7
420
 16777215
370
    50
100
AcDbVertex
100
AcDb2dVertex
 10
25.76778093556235
 20
15.46228775728365
 30
0.0
  0
VERTEX
  5
1E8
330
1E1
100
AcDbEntity
  8
Layer 1
 62
     7
420
 16777215
370
    50
100
AcDbVertex
100
AcDb2dVertex
 10
31.76776319082842
 20
15.46228775728365
 30
0.0
  0
VERTEX
  5
1E9
330
1E1
100
AcDbEntity
  8
Layer 1
 62
     7
420
 16777215
370
    50
100
AcDbVertex
100
AcDb2dVertex
 10
46.76771882899362
 20
15.46228775728365
 30
0.0
  0
VERTEX
  5
1EA
330
1E1
100
AcDbEntity
  8
Layer 1
 62
     7
420
 16777215
370
    50
100
AcDbVertex
100
AcDb2dVertex
 10
46.76771882899362
 20
9.462305502017573
 30
0.0
  0
VERTEX
  5
1EB
330
1E1
100
AcDbEntity
  8
Layer 1
 62
     7
420
 16777215
370
    50
100
AcDbVertex
100
AcDb2dVertex
 10
316.8421957019785
 20
9.462305502017573
 30
0.0
  0
VERTEX
  5
1EC
330
1E1
100
AcDbEntity
  8
Layer 1
 62
     7
420
 16777215
370
    50
100
AcDbVertex
100
AcDb2dVertex
 10
316.8421957019785
 20
15.46228775728365
 30
0.0
  0
VERTEX
  5
1ED
330
1E1
100
AcDbEntity
  8
Layer 1
 62
     7
420
 16777215
370
    50
100
AcDbVertex
100
AcDb2dVertex
 10
331.8421513401437
 20
15.46228775728365
 30
0.0
  0
VERTEX
  5
1EE
330
1E1
100
AcDbEntity
  8
Layer 1
 62
     7
420
 16777215
370
    50
100
AcDbVertex
100
AcDb2dVertex
 10
337.8421335954098
 20
15.46228775728365
 30
0.0
  0
VERTEX
  5
1EF
330
1E1
100
AcDbEntity
  8
Layer 1
 62
     7
420
 16777215
370
    50
100
AcDbVertex
100
AcDb2dVertex
 10
337.8421335954098
 20
9.462305502017573
 30
0.0
  0
VERTEX
  5
1F0
330
1E1
100
AcDbEntity
  8
Layer 1
 62
     7
420
 16777215
370
    50
100
AcDbVertex
100
AcDb2dVertex
 10
331.8927942771858
 20
9.462305502017573
 30
0.0
  0
SEQEND
  5
1F1
330
1E1
100
AcDbEntity
  8
Layer 1
370
    50
  0
POLYLINE
  5
1F2
330
1F
100
AcDbEntity
  8
Layer 1
 62
     7
420
 16777215
370
    50
100
AcDb2dPolyline
 66
     1
 10
0.0
 20
0.0
 30
0.0
  0
VERTEX
  5
1F3
330
1F2
100
AcDbEntity
  8
Layer 1
 62
     7
420
 16777215
370
    50
100
AcDbVertex
100
AcDb2dVertex
 10
20.46112460408606
 20
224.056066806348
 30
0.0
  0
VERTEX
  5
1F4
330
1F2
100
AcDbEntity
  8
Layer 1
 62
     7
420
 16777215
370
    50
100
AcDbVertex
100
AcDb2dVertex
 10
14.46114234881998
 20
224.056066806348
 30
0.0
  0
VERTEX
  5
1F5
330
1F2
100
AcDbEntity
  8
Layer 1
 62
     7
420
 16777215
370
    50
100
AcDbVertex
100
AcDb2dVertex
 10
14.46114234881998
 20
230.056049061614
 30
0.0
  0
VERTEX
  5
1F6
330
1F2
100
AcDbEntity
  8
Layer 1
 62
     7
420
 16777215
370
    50
100
AcDbVertex
100
AcDb2dVertex
 10
20.46112460408606
 20
230.056049061614
 30
0.0
  0
VERTEX
  5
1F7
330
1F2
100
AcDbEntity
  8
Layer 1
 62
     7
420
 16777215
370
    50
100
AcDbVertex
100
AcDb2dVertex
 10
20.46112460408606
 20
224.056066806348
 30
0.0
  0
SEQEND
  5
1F8
330
1F2
100
AcDbEntity
  8
Layer 1
370
    50
  0
POLYLINE
  5
1F9
330
1F
100
AcDbEntity
  8
Layer 1
370
     0
100
AcDb2dPolyline
 66
     1
 10
0.0
 20
0.0
 30
0.0
  0
VERTEX
  5
1FA
330
1F9
100
AcDbEntity
  8
Layer 1
370
     0
100
AcDbVertex
100
AcDb2dVertex
 10
39.31803943717726
 20
34.21533289297231
 30
0.0
  0
VERTEX
  5
1FB
330
1F9
100
AcDbEntity
  8
Layer 1
370
     0
100
AcDbVertex
100
AcDb2dVertex
 10
31.33006352067939
 20
34.21533289297231
 30
0.0
  0
VERTEX
  5
1FC
330
1F9
100
AcDbEntity
  8
Layer 1
370
     0
100
AcDbVertex
100
AcDb2dVertex
 10
31.33006352067939
 20
202.2155250599741
 30
0.0
  0
VERTEX
  5
1FD
330
1F9
100
AcDbEntity
  8
Layer 1
370
     0
100
AcDbVertex
100
AcDb2dVertex
 10
39.31803943717726
 20
202.2155250599741
 30
0.0
  0
VERTEX
  5
1FE
330
1F9
100
AcDbEntity
  8
Layer 1
370
     0
100
AcDbVertex
100
AcDb2dVertex
 10
39.31803943717726
 20
34.21533289297231
 30
0.0
  0
SEQEND
  5
1FF
330
1F9
100
AcDbEntity
  8
Layer 1
370
     0
  0
ENDSEC
  0
SECTION
  2
OBJECTS
  0
DICTIONARY
  5
C
330
0
100
AcDbDictionary
281
     1
  3
ACAD_GROUP
350
D
  3
ACAD_LAYOUT
350
1A
  3
ACAD_MLINESTYLE
350
17
  3
ACAD_PLOTSETTINGS
350
19
  3
ACAD_PLOTSTYLENAME
350
E
  3
ACAD_TABLESTYLE
350
205
  3
ACAD_VISUALSTYLE
350
2A
  0
DICTIONARY
  5
D
102
{ACAD_REACTORS
330
C
102
}
330
C
100
AcDbDictionary
281
     1
  0
DICTIONARY
  5
1A
102
{ACAD_REACTORS
330
C
102
}
330
C
100
AcDbDictionary
281
     1
  3
Layout1
350
1E
  3
Layout2
350
26
  3
Model
350
22
  0
DICTIONARY
  5
17
102
{ACAD_REACTORS
330
C
102
}
330
C
100
AcDbDictionary
281
     1
  3
Standard
350
18
  0
DICTIONARY
  5
19
102
{ACAD_REACTORS
330
C
102
}
330
C
100
AcDbDictionary
281
     1
  0
ACDBDICTIONARYWDFLT
  5
E
102
{ACAD_REACTORS
330
C
102
}
330
C
100
AcDbDictionary
281
     1
  3
Normal
350
F
100
AcDbDictionaryWithDefault
340
F
  0
DICTIONARY
  5
205
102
{ACAD_REACTORS
330
C
102
}
330
C
100
AcDbDictionary
281
     1
  0
DICTIONARY
  5
2A
102
{ACAD_REACTORS
330
C
102
}
330
C
100
AcDbDictionary
281
     1
  3
2dWireframe
350
2F
  3
3D Hidden
350
31
  3
3dWireframe
350
30
  3
Basic
350
32
  3
Brighten
350
36
  3
ColorChange
350
3A
  3
Conceptual
350
34
  3
Dim
350
35
  3
Facepattern
350
39
  3
Flat
350
2B
  3
FlatWithEdges
350
2C
  3
Gouraud
350
2D
  3
GouraudWithEdges
350
2E
  3
Linepattern
350
38
  3
Realistic
350
33
  3
Thicken
350
37
  0
LAYOUT
  5
1E
102
{ACAD_REACTORS
330
1A
102
}
330
1A
100
AcDbPlotSettings
  1

  2
none_device
  4

  6

 40
0.0
 41
0.0
 42
0.0
 43
0.0
 44
0.0
 45
0.0
 46
0.0
 47
0.0
 48
0.0
 49
0.0
140
0.0
141
0.0
142
1.0
143
1.0
 70
   688
 72
     0
 73
     0
 74
     5
  7

 75
    16
 76
     0
 77
     2
 78
   300
147
1.0
148
0.0
149
0.0
100
AcDbLayout
  1
Layout1
 70
     1
 71
     1
 10
0.0
 20
0.0
 11
12.0
 21
9.0
 12
0.0
 22
0.0
 32
0.0
 14
1.000000000000000E+20
 24
1.000000000000000E+20
 34
1.000000000000000E+20
 15
-1.000000000000000E+20
 25
-1.000000000000000E+20
 35
-1.000000000000000E+20
146
0.0
 13
0.0
 23
0.0
 33
0.0
 16
1.0
 26
0.0
 36
0.0
 17
0.0
 27
1.0
 37
0.0
 76
     0
330
1B
  0
LAYOUT
  5
26
102
{ACAD_REACTORS
330
1A
102
}
330
1A
100
AcDbPlotSettings
  1

  2
none_device
  4

  6

 40
0.0
 41
0.0
 42
0.0
 43
0.0
 44
0.0
 45
0.0
 46
0.0
 47
0.0
 48
0.0
 49
0.0
140
0.0
141
0.0
142
1.0
143
1.0
 70
   688
 72
     0
 73
     0
 74
     5
  7

 75
    16
 76
     0
 77
     2
 78
   300
147
1.0
148
0.0
149
0.0
100
AcDbLayout
  1
Layout2
 70
     1
 71
     2
 10
0.0
 20
0.0
 11
0.0
 21
0.0
 12
0.0
 22
0.0
 32
0.0
 14
0.0
 24
0.0
 34
0.0
 15
0.0
 25
0.0
 35
0.0
146
0.0
 13
0.0
 23
0.0
 33
0.0
 16
1.0
 26
0.0
 36
0.0
 17
0.0
 27
1.0
 37
0.0
 76
     0
330
23
  0
LAYOUT
  5
22
102
{ACAD_REACTORS
330
1A
102
}
330
1A
100
AcDbPlotSettings
  1

  2
none_device
  4

  6

 40
0.0
 41
0.0
 42
0.0
 43
0.0
 44
0.0
 45
0.0
 46
0.0
 47
0.0
 48
0.0
 49
0.0
140
0.0
141
0.0
142
1.0
143
1.0
 70
  1712
 72
     0
 73
     0
 74
     0
  7

 75
     0
 76
     0
 77
     2
 78
   300
147
1.0
148
0.0
149
0.0
100
AcDbLayout
  1
Model
 70
     1
 71
     0
 10
0.0
 20
0.0
 11
12.0
 21
9.0
 12
0.0
 22
0.0
 32
0.0
 14
1.000000000000000E+20
 24
1.000000000000000E+20
 34
1.000000000000000E+20
 15
-1.000000000000000E+20
 25
-1.000000000000000E+20
 35
-1.000000000000000E+20
146
0.0
 13
0.0
 23
0.0
 33
0.0
 16
1.0
 26
0.0
 36
0.0
 17
0.0
 27
1.0
 37
0.0
 76
     0
330
1F
331
29
  0
MLINESTYLE
  5
18
102
{ACAD_REACTORS
330
17
102
}
330
17
100
AcDbMlineStyle
  2
Standard
 70
     0
  3

 62
   256
 51
90.0
 52
90.0
 71
     2
 49
0.5
 62
   256
  6
BYLAYER
 49
-0.5
 62
   256
  6
BYLAYER
  0
ACDBPLACEHOLDER
  5
F
102
{ACAD_REACTORS
330
E
102
}
330
E
  0
VISUALSTYLE
  5
2F
102
{ACAD_REACTORS
330
2A
102
}
330
2A
100
AcDbVisualStyle
  2
2dWireframe
 70
     4
 71
     0
 72
     2
 73
     0
 90
        0
 40
-0.6
 41
-30.0
 62
     5
 63
     7
421
 16777215
 74
     1
 91
        4
 64
     7
 65
   257
 75
     1
175
     1
 42
1.0
 92
        0
 66
   257
 43
1.0
 76
     1
 77
     6
 78
     2
 67
     7
 79
     5
170
     0
171
     0
290
     0
174
     0
 93
        1
 44
0.0
173
     0
291
     0
 45
0.0
1001
ACAD
1000
AcDbSavedByObjectVersion
1070
     0
  0
VISUALSTYLE
  5
31
102
{ACAD_REACTORS
330
2A
102
}
330
2A
100
AcDbVisualStyle
  2
3D Hidden
 70
     6
 71
     1
 72
     2
 73
     2
 90
        0
 40
-0.6
 41
-30.0
 62
     5
 63
     7
421
 16777215
 74
     2
 91
        2
 64
     7
 65
   257
 75
     2
175
     1
 42
40.0
 92
        0
 66
   257
 43
1.0
 76
     1
 77
     6
 78
     2
 67
     7
 79
     3
170
     0
171
     0
290
     0
174
     0
 93
        1
 44
0.0
173
     0
291
     0
 45
0.0
1001
ACAD
1000
AcDbSavedByObjectVersion
1070
     0
  0
VISUALSTYLE
  5
30
102
{ACAD_REACTORS
330
2A
102
}
330
2A
100
AcDbVisualStyle
  2
3dWireframe
 70
     5
 71
     0
 72
     2
 73
     0
 90
        0
 40
-0.6
 41
-30.0
 62
     5
 63
     7
421
 16777215
 74
     1
 91
        4
 64
     7
 65
   257
 75
     1
175
     1
 42
1.0
 92
        0
 66
   257
 43
1.0
 76
     1
 77
     6
 78
     2
 67
     7
 79
     5
170
     0
171
     0
290
     0
174
     0
 93
        1
 44
0.0
173
     0
291
     0
 45
0.0
1001
ACAD
1000
AcDbSavedByObjectVersion
1070
     0
  0
VISUALSTYLE
  5
32
102
{ACAD_REACTORS
330
2A
102
}
330
2A
100
AcDbVisualStyle
  2
Basic
 70
     7
 71
     1
 72
     0
 73
     1
 90
        0
 40
-0.6
 41
-30.0
 62
     5
 63
     7
421
 16777215
 74
     0
 91
        4
 64
     7
 65
   257
 75
     1
175
     1
 42
1.0
 92
        8
 66
     7
 43
1.0
 76
     1
 77
     6
 78
     2
 67
     7
 79
     5
170
     0
171
     0
290
     0
174
     0
 93
        1
 44
0.0
173
     0
291
     1
 45
0.0
1001
ACAD
1000
AcDbSavedByObjectVersion
1070
     0
  0
VISUALSTYLE
  5
36
102
{ACAD_REACTORS
330
2A
102
}
330
2A
100
AcDbVisualStyle
  2
Brighten
 70
    12
 71
     2
 72
     2
 73
     0
 90
        0
 40
-0.6
 41
-30.0
 62
     5
 63
     7
421
 16777215
 74
     1
 91
        4
 64
     7
 65
   257
 75
     1
175
     1
 42
1.0
 92
        8
 66
     7
 43
1.0
 76
     1
 77
     6
 78
     2
 67
     7
 79
     5
170
     0
171
     0
290
     0
174
     0
 93
        1
 44
50.0
173
     0
291
     1
 45
0.0
1001
ACAD
1000
AcDbSavedByObjectVersion
1070
     0
  0
VISUALSTYLE
  5
3A
102
{ACAD_REACTORS
330
2A
102
}
330
2A
100
AcDbVisualStyle
  2
ColorChange
 70
    16
 71
     2
 72
     2
 73
     3
 90
        0
 40
-0.6
 41
-30.0
 62
     5
 63
     8
421
  8421504
 74
     1
 91
        4
 64
     7
 65
   257
 75
     1
175
     1
 42
1.0
 92
        8
 66
     8
424
  8421504
 43
1.0
 76
     1
 77
     6
 78
     2
 67
     7
 79
     5
170
     0
171
     0
290
     0
174
     0
 93
        1
 44
0.0
173
     0
291
     1
 45
0.0
1001
ACAD
1000
AcDbSavedByObjectVersion
1070
     0
  0
VISUALSTYLE
  5
34
102
{ACAD_REACTORS
330
2A
102
}
330
2A
100
AcDbVisualStyle
  2
Conceptual
 70
     9
 71
     3
 72
     2
 73
     0
 90
        0
 40
-0.6
 41
-30.0
 62
     5
 63
     7
421
 16777215
 74
     2
 91
        2
 64
     7
 65
   257
 75
     1
175
     1
 42
40.0
 92
        8
 66
     7
 43
1.0
 76
     1
 77
     6
 78
     2
 67
     7
 79
     3
170
     0
171
     0
290
     0
174
     0
 93
        1
 44
0.0
173
     0
291
     0
 45
0.0
1001
ACAD
1000
AcDbSavedByObjectVersion
1070
     0
  0
VISUALSTYLE
  5
35
102
{ACAD_REACTORS
330
2A
102
}
330
2A
100
AcDbVisualStyle
  2
Dim
 70
    11
 71
     2
 72
     2
 73
     0
 90
        0
 40
-0.6
 41
-30.0
 62
     5
 63
     7
421
 16777215
 74
     1
 91
        4
 64
     7
 65
   257
 75
     1
175
     1
 42
1.0
 92
        8
 66
     7
 43
1.0
 76
     1
 77
     6
 78
     2
 67
     7
 79
     5
170
     0
171
     0
290
     0
174
     0
 93
        1
 44
-50.0
173
     0
291
     1
 45
0.0
1001
ACAD
1000
AcDbSavedByObjectVersion
1070
     0
  0
VISUALSTYLE
  5
39
102
{ACAD_REACTORS
330
2A
102
}
330
2A
100
AcDbVisualStyle
  2
Facepattern
 70
    15
 71
     2
 72
     2
 73
     0
 90
        0
 40
-0.6
 41
-30.0
 62
     5
 63
     7
421
 16777215
 74
     1
 91
        4
 64
     7
 65
   257
 75
     1
175
     1
 42
1.0
 92
        8
 66
     7
 43
1.0
 76
     1
 77
     6
 78
     2
 67
     7
 79
     5
170
     0
171
     0
290
     0
174
     0
 93
        1
 44
0.0
173
     0
291
     1
 45
0.0
1001
ACAD
1000
AcDbSavedByObjectVersion
1070
     0
  0
VISUALSTYLE
  5
2B
102
{ACAD_REACTORS
330
2A
102
}
330
2A
100
AcDbVisualStyle
  2
Flat
 70
     0
 71
     2
 72
     1
 73
     1
 90
        2
 40
-0.6
 41
30.0
 62
     5
 63
     7
421
 16777215
 74
     0
 91
        4
 64
     7
 65
   257
 75
     1
175
     1
 42
1.0
 92
        8
 66
     7
 43
1.0
 76
     1
 77
     6
 78
     2
 67
     7
 79
     5
170
     0
171
     0
290
     0
174
     0
 93
       13
 44
0.0
173
     0
291
     1
 45
0.0
1001
ACAD
1000
AcDbSavedByObjectVersion
1070
     0
  0
VISUALSTYLE
  5
2C
102
{ACAD_REACTORS
330
2A
102
}
330
2A
100
AcDbVisualStyle
  2
FlatWithEdges
 70
     1
 71
     2
 72
     1
 73
     1
 90
        2
 40
-0.6
 41
30.0
 62
     5
 63
     7
421
 16777215
 74
     1
 91
        4
 64
     7
 65
   257
 75
     1
175
     1
 42
1.0
 92
        0
 66
   257
 43
1.0
 76
     1
 77
     6
 78
     2
 67
     7
 79
     5
170
     0
171
     0
290
     0
174
     0
 93
       13
 44
0.0
173
     0
291
     1
 45
0.0
1001
ACAD
1000
AcDbSavedByObjectVersion
1070
     0
  0
VISUALSTYLE
  5
2D
102
{ACAD_REACTORS
330
2A
102
}
330
2A
100
AcDbVisualStyle
  2
Gouraud
 70
     2
 71
     2
 72
     2
 73
     1
 90
        2
 40
-0.6
 41
30.0
 62
     5
 63
     7
421
 16777215
 74
     0
 91
        4
 64
     7
 65
   257
 75
     1
175
     1
 42
1.0
 92
        0
 66
     7
 43
1.0
 76
     1
 77
     6
 78
     2
 67
     7
 79
     5
170
     0
171
     0
290
     0
174
     0
 93
       13
 44
0.0
173
     0
291
     1
 45
0.0
1001
ACAD
1000
AcDbSavedByObjectVersion
1070
     0
  0
VISUALSTYLE
  5
2E
102
{ACAD_REACTORS
330
2A
102
}
330
2A
100
AcDbVisualStyle
  2
GouraudWithEdges
 70
     3
 71
     2
 72
     2
 73
     1
 90
        2
 40
-0.6
 41
30.0
 62
     5
 63
     7
421
 16777215
 74
     1
 91
        4
 64
     7
 65
   257
 75
     1
175
     1
 42
1.0
 92
        0
 66
   257
 43
1.0
 76
     1
 77
     6
 78
     2
 67
     7
 79
     5
170
     0
171
     0
290
     0
174
     0
 93
       13
 44
0.0
173
     0
291
     1
 45
0.0
1001
ACAD
1000
AcDbSavedByObjectVersion
1070
     0
  0
VISUALSTYLE
  5
38
102
{ACAD_REACTORS
330
2A
102
}
330
2A
100
AcDbVisualStyle
  2
Linepattern
 70
    14
 71
     2
 72
     2
 73
     0
 90
        0
 40
-0.6
 41
-30.0
 62
     5
 63
     7
421
 16777215
 74
     1
 91
        4
 64
     7
 65
   257
 75
     7
175
     7
 42
1.0
 92
        8
 66
     7
 43
1.0
 76
     1
 77
     6
 78
     2
 67
     7
 79
     5
170
     0
171
     0
290
     0
174
     0
 93
        1
 44
0.0
173
     0
291
     1
 45
0.0
1001
ACAD
1000
AcDbSavedByObjectVersion
1070
     0
  0
VISUALSTYLE
  5
33
102
{ACAD_REACTORS
330
2A
102
}
330
2A
100
AcDbVisualStyle
  2
Realistic
 70
     8
 71
     2
 72
     2
 73
     0
 90
        0
 40
-0.6
 41
-30.0
 62
     5
 63
     7
421
 16777215
 74
     1
 91
        0
 64
     7
 65
   257
 75
     1
175
     1
 42
1.0
 92
        8
 66
     8
424
  7895160
 43
1.0
 76
     1
 77
     6
 78
     2
 67
     7
 79
     5
170
     0
171
     0
290
     0
174
     0
 93
       13
 44
0.0
173
     0
291
     0
 45
0.0
1001
ACAD
1000
AcDbSavedByObjectVersion
1070
     0
  0
VISUALSTYLE
  5
37
102
{ACAD_REACTORS
330
2A
102
}
330
2A
100
AcDbVisualStyle
  2
Thicken
 70
    13
 71
     2
 72
     2
 73
     0
 90
        0
 40
-0.6
 41
-30.0
 62
     5
 63
     7
421
 16777215
 74
     1
 91
        4
 64
     7
 65
   257
 75
     1
175
     1
 42
1.0
 92
       12
 66
     7
 43
1.0
 76
     1
 77
     6
 78
     2
 67
     7
 79
     5
170
     0
171
     0
290
     0
174
     0
 93
        1
 44
0.0
173
     0
291
     1
 45
0.0
1001
ACAD
1000
AcDbSavedByObjectVersion
1070
     0
  0
ENDSEC
  0
EOF
