<?xml version="1.0" encoding="utf-8"?>
<!-- Generator: Adobe Illustrator 15.0.0, SVG Export Plug-In . SVG Version: 6.00 Build 0)  -->
<!DOCTYPE svg PUBLIC "-//W3C//DTD SVG 1.1//EN" "http://www.w3.org/Graphics/SVG/1.1/DTD/svg11.dtd">
<svg version="1.1" id="Layer_1" xmlns="http://www.w3.org/2000/svg" xmlns:xlink="http://www.w3.org/1999/xlink" x="0px" y="0px"
	 width="792px" height="612px" viewBox="0 0 792 612" enable-background="new 0 0 792 612" xml:space="preserve">
<path fill="none" stroke="#000000" stroke-miterlimit="10" d="M157.545,445.407h39.685h56.694h155.904h127.559
	c0,0,81.418,0,104.488,0s23.07-23.056,23.07-23.056V304.291c0,0-0.008-55.509-0.004-78.9c0.004-26.141-30.453-25.977-30.453-25.977
	c-1.477,0-471.86-16.905-479.488-16.905s-28.635-1.683-28.635,25.404s0,204.188,0,214.438s7.873,23.056,23.086,23.056
	c23.12,0,32.034,0,0,0h1.049H157.545z"/>
<polygon fill="#231F20" points="529.167,304.291 529.165,400.666 432.789,400.67 432.792,304.291 "/>
<path d="M630.676,221.69c0,0-462.925-12.927-471.505-13.213c-8.58-0.286-10.487-0.811-12.567,11.142
	c-0.236,1.354-10.066,62.631-10.066,62.631s0,9.083,0,13.537s16.534,8.504,16.534,8.504l0,0v117.355h485.857V304.291h12.096
	L630.676,221.69z M615.827,399.251H176.172l0.002-94.96h439.653V399.251z"/>
<circle fill="#231F20" cx="237.168" cy="256.102" r="24.094"/>
<circle cx="573.481" cy="352.48" r="9.638"/>
<circle cx="303.481" cy="352.48" r="9.921"/>
<g>
	<path d="M294.077,161.083h1.043v3.898h0.036c0.216-0.312,0.432-0.6,0.636-0.864l2.471-3.034h1.295l-2.926,3.43l3.154,4.653h-1.235
		l-2.651-3.97l-0.779,0.887v3.083h-1.043V161.083z"/>
	<path d="M300.581,161.203c0.456-0.108,1.187-0.18,1.907-0.18c1.043,0,1.715,0.18,2.207,0.588c0.419,0.312,0.684,0.792,0.684,1.427
		c0,0.792-0.528,1.475-1.367,1.775v0.036c0.768,0.18,1.667,0.816,1.667,2.015c0,0.696-0.276,1.235-0.696,1.619
		c-0.552,0.516-1.463,0.755-2.782,0.755c-0.72,0-1.271-0.048-1.619-0.096V161.203z M301.625,164.513h0.947
		c1.091,0,1.739-0.588,1.739-1.367c0-0.936-0.708-1.319-1.763-1.319c-0.479,0-0.755,0.036-0.923,0.072V164.513z M301.625,168.375
		c0.216,0.036,0.503,0.048,0.875,0.048c1.079,0,2.075-0.396,2.075-1.571c0-1.091-0.947-1.559-2.087-1.559h-0.863V168.375z"/>
	<path d="M309.556,165.544v0.768h-2.962v-0.768H309.556z"/>
	<path d="M310.697,167.895c0.467,0.3,1.139,0.528,1.859,0.528c1.067,0,1.691-0.563,1.691-1.379c0-0.743-0.432-1.187-1.523-1.595
		c-1.319-0.48-2.135-1.175-2.135-2.303c0-1.259,1.043-2.195,2.614-2.195c0.815,0,1.427,0.192,1.775,0.396l-0.288,0.852
		c-0.252-0.156-0.792-0.384-1.523-0.384c-1.103,0-1.523,0.66-1.523,1.211c0,0.755,0.492,1.127,1.607,1.559
		c1.367,0.528,2.051,1.188,2.051,2.375c0,1.247-0.912,2.338-2.819,2.338c-0.779,0-1.631-0.24-2.063-0.528L310.697,167.895z"/>
	<path d="M317.884,161.73c0,0.36-0.252,0.648-0.671,0.648c-0.384,0-0.636-0.288-0.636-0.648s0.264-0.66,0.66-0.66
		C317.62,161.071,317.884,161.359,317.884,161.73z M316.708,169.167v-5.805h1.056v5.805H316.708z"/>
	<path d="M324.518,160.651v7.016c0,0.516,0.024,1.103,0.048,1.499h-0.936l-0.048-1.007h-0.036c-0.312,0.647-1.007,1.139-1.955,1.139
		c-1.403,0-2.495-1.187-2.495-2.95c-0.012-1.931,1.2-3.106,2.603-3.106c0.9,0,1.487,0.42,1.751,0.875h0.024v-3.466H324.518z
		 M323.475,165.725c0-0.132-0.012-0.312-0.048-0.444c-0.156-0.66-0.731-1.211-1.523-1.211c-1.091,0-1.739,0.959-1.739,2.231
		c0,1.175,0.588,2.146,1.715,2.146c0.708,0,1.355-0.479,1.547-1.259c0.036-0.144,0.048-0.288,0.048-0.456V165.725z"/>
	<path d="M326.873,166.456c0.024,1.427,0.923,2.015,1.991,2.015c0.755,0,1.223-0.132,1.607-0.3l0.192,0.756
		c-0.372,0.168-1.019,0.372-1.943,0.372c-1.787,0-2.854-1.187-2.854-2.938c0-1.751,1.032-3.118,2.723-3.118
		c1.907,0,2.399,1.655,2.399,2.723c0,0.216-0.012,0.372-0.036,0.492H326.873z M329.967,165.7c0.012-0.659-0.276-1.703-1.463-1.703
		c-1.08,0-1.535,0.971-1.619,1.703H329.967z"/>
	<path d="M335.079,165.544v0.768h-2.962v-0.768H335.079z"/>
	<path d="M336.353,161.191c0.527-0.096,1.295-0.168,2.003-0.168c1.115,0,1.847,0.216,2.338,0.66c0.396,0.36,0.636,0.912,0.636,1.547
		c0,1.055-0.671,1.763-1.511,2.051v0.036c0.612,0.216,0.983,0.792,1.175,1.631c0.264,1.127,0.456,1.907,0.624,2.219h-1.08
		c-0.132-0.24-0.312-0.923-0.528-1.931c-0.24-1.115-0.684-1.535-1.631-1.571h-0.983v3.502h-1.043V161.191z M337.396,164.873h1.067
		c1.115,0,1.823-0.612,1.823-1.535c0-1.043-0.755-1.5-1.859-1.5c-0.504,0-0.852,0.036-1.031,0.084V164.873z"/>
	<path d="M344.067,161.73c0,0.36-0.252,0.648-0.671,0.648c-0.384,0-0.636-0.288-0.636-0.648s0.264-0.66,0.66-0.66
		C343.804,161.071,344.067,161.359,344.067,161.73z M342.892,169.167v-5.805h1.056v5.805H342.892z"/>
	<path d="M350.666,168.315c0,1.343-0.276,2.147-0.828,2.663c-0.576,0.516-1.391,0.696-2.123,0.696c-0.696,0-1.463-0.168-1.931-0.48
		l0.264-0.815c0.384,0.252,0.983,0.468,1.703,0.468c1.08,0,1.871-0.564,1.871-2.039v-0.636h-0.024
		c-0.312,0.54-0.948,0.972-1.847,0.972c-1.439,0-2.471-1.224-2.471-2.831c0-1.967,1.284-3.07,2.627-3.07
		c1.007,0,1.547,0.516,1.811,0.996h0.024l0.036-0.875h0.936c-0.036,0.408-0.048,0.887-0.048,1.583V168.315z M349.61,165.652
		c0-0.18-0.012-0.336-0.06-0.468c-0.192-0.624-0.696-1.127-1.476-1.127c-1.007,0-1.727,0.852-1.727,2.195
		c0,1.14,0.588,2.087,1.715,2.087c0.66,0,1.247-0.408,1.463-1.079c0.06-0.18,0.083-0.384,0.083-0.564V165.652z"/>
	<path d="M352.408,160.651h1.056v3.634h0.024c0.168-0.3,0.432-0.576,0.755-0.755c0.312-0.18,0.684-0.288,1.08-0.288
		c0.779,0,2.027,0.48,2.027,2.471v3.454h-1.056v-3.334c0-0.936-0.348-1.715-1.343-1.715c-0.684,0-1.211,0.48-1.415,1.043
		c-0.06,0.156-0.072,0.312-0.072,0.504v3.502h-1.056V160.651z"/>
	<path d="M360.292,161.971v1.391h1.511v0.803h-1.511v3.13c0,0.72,0.204,1.127,0.792,1.127c0.288,0,0.456-0.024,0.611-0.072
		l0.048,0.803c-0.204,0.072-0.528,0.144-0.936,0.144c-0.492,0-0.888-0.168-1.14-0.444c-0.288-0.324-0.408-0.839-0.408-1.523v-3.167
		h-0.899v-0.803h0.899v-1.08L360.292,161.971z"/>
	<path d="M365.379,165.544v0.768h-2.962v-0.768H365.379z"/>
	<path d="M366.28,169.167v-0.647l0.828-0.804c1.991-1.895,2.902-2.902,2.902-4.078c0-0.792-0.372-1.523-1.535-1.523
		c-0.708,0-1.295,0.36-1.655,0.66l-0.336-0.744c0.528-0.443,1.307-0.792,2.195-0.792c1.679,0,2.387,1.151,2.387,2.267
		c0,1.439-1.043,2.603-2.687,4.186l-0.612,0.576v0.024h3.49v0.875H366.28z"/>
	<path d="M377.629,165.185c0,2.651-0.996,4.114-2.71,4.114c-1.523,0-2.567-1.427-2.591-4.006c0-2.626,1.14-4.054,2.723-4.054
		C376.681,161.239,377.629,162.702,377.629,165.185z M373.395,165.305c0,2.027,0.624,3.178,1.583,3.178
		c1.067,0,1.583-1.259,1.583-3.25c0-1.919-0.48-3.178-1.583-3.178C374.067,162.054,373.395,163.182,373.395,165.305z"/>
	<path d="M380.882,162.354h-0.024l-1.355,0.731l-0.204-0.804l1.703-0.912h0.9v7.796h-1.02V162.354z"/>
	<path d="M386.187,165.065c-0.875-0.408-1.248-1.08-1.248-1.751c0-1.235,1.043-2.075,2.423-2.075c1.511,0,2.279,0.936,2.279,1.919
		c0,0.66-0.336,1.379-1.295,1.823v0.036c0.972,0.384,1.571,1.08,1.571,2.015c0,1.367-1.164,2.267-2.651,2.267
		c-1.631,0-2.614-0.959-2.614-2.099c0-0.983,0.587-1.691,1.547-2.099L386.187,165.065z M388.85,167.14
		c0-0.936-0.66-1.403-1.715-1.703c-0.912,0.264-1.403,0.875-1.403,1.619c-0.036,0.78,0.564,1.475,1.56,1.475
		C388.238,168.531,388.85,167.943,388.85,167.14z M385.947,163.242c-0.012,0.78,0.587,1.199,1.487,1.439
		c0.672-0.228,1.188-0.708,1.188-1.416c0-0.624-0.372-1.271-1.319-1.271C386.427,161.995,385.947,162.57,385.947,163.242z"/>
	<path d="M393.686,165.544v0.768h-2.962v-0.768H393.686z"/>
	<path d="M399.78,165.185c0,2.651-0.995,4.114-2.711,4.114c-1.523,0-2.566-1.427-2.59-4.006c0-2.626,1.14-4.054,2.722-4.054
		C398.833,161.239,399.78,162.702,399.78,165.185z M395.546,165.305c0,2.027,0.624,3.178,1.583,3.178
		c1.067,0,1.583-1.259,1.583-3.25c0-1.919-0.479-3.178-1.583-3.178C396.218,162.054,395.546,163.182,395.546,165.305z"/>
	<path d="M402.182,165.065c-0.875-0.408-1.247-1.08-1.247-1.751c0-1.235,1.044-2.075,2.423-2.075c1.511,0,2.278,0.936,2.278,1.919
		c0,0.66-0.335,1.379-1.295,1.823v0.036c0.972,0.384,1.571,1.08,1.571,2.015c0,1.367-1.163,2.267-2.65,2.267
		c-1.632,0-2.615-0.959-2.615-2.099c0-0.983,0.588-1.691,1.548-2.099L402.182,165.065z M404.845,167.14
		c0-0.936-0.66-1.403-1.715-1.703c-0.912,0.264-1.403,0.875-1.403,1.619c-0.036,0.78,0.563,1.475,1.559,1.475
		C404.232,168.531,404.845,167.943,404.845,167.14z M401.942,163.242c-0.013,0.78,0.588,1.199,1.487,1.439
		c0.671-0.228,1.188-0.708,1.188-1.416c0-0.624-0.372-1.271-1.319-1.271C402.422,161.995,401.942,162.57,401.942,163.242z"/>
	<path d="M409.682,165.544v0.768h-2.963v-0.768H409.682z"/>
	<path d="M415.775,165.185c0,2.651-0.995,4.114-2.71,4.114c-1.523,0-2.566-1.427-2.591-4.006c0-2.626,1.14-4.054,2.723-4.054
		C414.828,161.239,415.775,162.702,415.775,165.185z M411.542,165.305c0,2.027,0.624,3.178,1.583,3.178
		c1.067,0,1.583-1.259,1.583-3.25c0-1.919-0.479-3.178-1.583-3.178C412.214,162.054,411.542,163.182,411.542,165.305z"/>
	<path d="M420.001,169.167v-2.135h-3.622v-0.684l3.479-4.978h1.139v4.846h1.092v0.815h-1.092v2.135H420.001z M420.001,166.216
		v-2.603c0-0.408,0.012-0.816,0.036-1.224h-0.036c-0.239,0.456-0.432,0.792-0.647,1.151l-1.907,2.651v0.024H420.001z"/>
	<path d="M425.677,165.544v0.768h-2.963v-0.768H425.677z"/>
	<path d="M431.771,165.185c0,2.651-0.995,4.114-2.71,4.114c-1.523,0-2.566-1.427-2.591-4.006c0-2.626,1.14-4.054,2.723-4.054
		C430.824,161.239,431.771,162.702,431.771,165.185z M427.538,165.305c0,2.027,0.624,3.178,1.583,3.178
		c1.067,0,1.583-1.259,1.583-3.25c0-1.919-0.479-3.178-1.583-3.178C428.21,162.054,427.538,163.182,427.538,165.305z"/>
	<path d="M432.734,169.167v-0.647l0.827-0.804c1.991-1.895,2.902-2.902,2.902-4.078c0-0.792-0.372-1.523-1.535-1.523
		c-0.707,0-1.295,0.36-1.655,0.66l-0.336-0.744c0.528-0.443,1.308-0.792,2.195-0.792c1.679,0,2.387,1.151,2.387,2.267
		c0,1.439-1.044,2.603-2.687,4.186l-0.611,0.576v0.024h3.489v0.875H432.734z"/>
</g>
</svg>
