<?xml version="1.0" encoding="utf-8"?>
<!-- Generator: Adobe Illustrator 15.0.0, SVG Export Plug-In . SVG Version: 6.00 Build 0)  -->
<!DOCTYPE svg PUBLIC "-//W3C//DTD SVG 1.1//EN" "http://www.w3.org/Graphics/SVG/1.1/DTD/svg11.dtd">
<svg version="1.1" id="Layer_1" xmlns="http://www.w3.org/2000/svg" xmlns:xlink="http://www.w3.org/1999/xlink" x="0px" y="0px"
	 width="612px" height="792px" viewBox="0 0 612 792" enable-background="new 0 0 612 792" xml:space="preserve">
<rect x="27.617" y="274.456" fill="none" stroke="#010101" stroke-miterlimit="10" width="890.079" height="100.63"/>
<g>
	<path d="M384.04,224.632v-0.647l0.827-0.804c1.991-1.895,2.902-2.902,2.902-4.078c0-0.792-0.372-1.523-1.535-1.523
		c-0.707,0-1.295,0.36-1.655,0.66l-0.336-0.744c0.528-0.444,1.308-0.792,2.195-0.792c1.679,0,2.387,1.151,2.387,2.267
		c0,1.439-1.044,2.603-2.687,4.186l-0.611,0.576v0.024h3.489v0.875H384.04z"/>
	<path d="M395.389,220.65c0,2.651-0.995,4.114-2.71,4.114c-1.523,0-2.566-1.427-2.591-4.006c0-2.626,1.14-4.054,2.723-4.054
		C394.441,216.704,395.389,218.167,395.389,220.65z M391.155,220.77c0,2.027,0.624,3.178,1.583,3.178
		c1.067,0,1.583-1.259,1.583-3.25c0-1.919-0.479-3.179-1.583-3.179C391.827,217.52,391.155,218.647,391.155,220.77z"/>
	<path d="M398.642,217.819h-0.023l-1.355,0.732l-0.204-0.804l1.703-0.912h0.899v7.796h-1.02V217.819z"/>
	<path d="M403.946,220.53c-0.875-0.408-1.247-1.08-1.247-1.751c0-1.235,1.044-2.075,2.423-2.075c1.511,0,2.278,0.936,2.278,1.919
		c0,0.66-0.335,1.379-1.295,1.823v0.036c0.972,0.384,1.571,1.08,1.571,2.015c0,1.367-1.163,2.267-2.65,2.267
		c-1.632,0-2.615-0.959-2.615-2.099c0-0.983,0.588-1.691,1.548-2.099L403.946,220.53z M406.609,222.605
		c0-0.936-0.66-1.403-1.715-1.703c-0.912,0.264-1.403,0.875-1.403,1.619c-0.036,0.78,0.563,1.475,1.559,1.475
		C405.998,223.996,406.609,223.409,406.609,222.605z M403.707,218.707c-0.012,0.78,0.588,1.199,1.487,1.439
		c0.671-0.228,1.187-0.708,1.187-1.416c0-0.624-0.371-1.271-1.318-1.271C404.187,217.46,403.707,218.036,403.707,218.707z"/>
	<path d="M411.445,221.01v0.768h-2.963v-0.768H411.445z"/>
	<path d="M417.54,220.65c0,2.651-0.995,4.114-2.71,4.114c-1.523,0-2.566-1.427-2.591-4.006c0-2.626,1.14-4.054,2.723-4.054
		C416.593,216.704,417.54,218.167,417.54,220.65z M413.307,220.77c0,2.027,0.624,3.178,1.583,3.178c1.067,0,1.583-1.259,1.583-3.25
		c0-1.919-0.479-3.179-1.583-3.179C413.979,217.52,413.307,218.647,413.307,220.77z"/>
	<path d="M419.941,220.53c-0.875-0.408-1.247-1.08-1.247-1.751c0-1.235,1.044-2.075,2.423-2.075c1.511,0,2.278,0.936,2.278,1.919
		c0,0.66-0.335,1.379-1.295,1.823v0.036c0.972,0.384,1.571,1.08,1.571,2.015c0,1.367-1.163,2.267-2.65,2.267
		c-1.632,0-2.615-0.959-2.615-2.099c0-0.983,0.588-1.691,1.548-2.099L419.941,220.53z M422.604,222.605
		c0-0.936-0.66-1.403-1.715-1.703c-0.912,0.264-1.403,0.875-1.403,1.619c-0.036,0.78,0.563,1.475,1.559,1.475
		C421.992,223.996,422.604,223.409,422.604,222.605z M419.702,218.707c-0.013,0.78,0.588,1.199,1.487,1.439
		c0.671-0.228,1.188-0.708,1.188-1.416c0-0.624-0.372-1.271-1.319-1.271C420.182,217.46,419.702,218.036,419.702,218.707z"/>
	<path d="M427.441,221.01v0.768h-2.963v-0.768H427.441z"/>
	<path d="M433.535,220.65c0,2.651-0.995,4.114-2.71,4.114c-1.523,0-2.566-1.427-2.591-4.006c0-2.626,1.14-4.054,2.723-4.054
		C432.588,216.704,433.535,218.167,433.535,220.65z M429.302,220.77c0,2.027,0.624,3.178,1.583,3.178
		c1.067,0,1.583-1.259,1.583-3.25c0-1.919-0.479-3.179-1.583-3.179C429.974,217.52,429.302,218.647,429.302,220.77z"/>
	<path d="M437.761,224.632v-2.135h-3.622v-0.684l3.479-4.978h1.139v4.846h1.092v0.815h-1.092v2.135H437.761z M437.761,221.682
		v-2.603c0-0.408,0.012-0.816,0.036-1.224h-0.036c-0.239,0.456-0.432,0.792-0.647,1.151l-1.907,2.65v0.024H437.761z"/>
	<path d="M443.437,221.01v0.768h-2.963v-0.768H443.437z"/>
	<path d="M449.53,220.65c0,2.651-0.995,4.114-2.71,4.114c-1.523,0-2.566-1.427-2.591-4.006c0-2.626,1.14-4.054,2.723-4.054
		C448.583,216.704,449.53,218.167,449.53,220.65z M445.297,220.77c0,2.027,0.624,3.178,1.583,3.178c1.067,0,1.583-1.259,1.583-3.25
		c0-1.919-0.479-3.179-1.583-3.179C445.969,217.52,445.297,218.647,445.297,220.77z"/>
	<path d="M450.494,224.632v-0.647l0.827-0.804c1.991-1.895,2.902-2.902,2.902-4.078c0-0.792-0.372-1.523-1.535-1.523
		c-0.707,0-1.295,0.36-1.655,0.66l-0.336-0.744c0.528-0.444,1.308-0.792,2.195-0.792c1.679,0,2.387,1.151,2.387,2.267
		c0,1.439-1.044,2.603-2.687,4.186l-0.611,0.576v0.024h3.489v0.875H450.494z"/>
</g>
</svg>
