<?xml version="1.0" encoding="utf-8"?>
<!-- Generator: Adobe Illustrator 15.0.0, SVG Export Plug-In . SVG Version: 6.00 Build 0)  -->
<!DOCTYPE svg PUBLIC "-//W3C//DTD SVG 1.1//EN" "http://www.w3.org/Graphics/SVG/1.1/DTD/svg11.dtd">
<svg version="1.1" id="Layer_1" xmlns="http://www.w3.org/2000/svg" xmlns:xlink="http://www.w3.org/1999/xlink" x="0px" y="0px"
	 width="792px" height="612px" viewBox="0 0 792 612" enable-background="new 0 0 792 612" xml:space="preserve">
<path fill="none" stroke="#000000" stroke-miterlimit="10" d="M633.766,445.407h7.045h1.049c-32.034,0-23.12,0,0,0
	c15.213,0,23.086-12.808,23.086-23.058s0-187.351,0-214.438s-21.007-25.404-28.635-25.404s-478.01,16.905-479.488,16.905
	c0,0-30.457-0.164-30.453,25.977c0.004,23.391-0.004,78.9-0.004,78.9v118.06c0,0,0,23.058,23.07,23.058s104.488,0,104.488,0h127.559
	h155.904h56.693H633.766L633.766,445.407z"/>
<path d="M140.285,304.291h12.098v117.355h485.855V304.291l0,0c0,0,16.534-4.05,16.534-8.504s0-13.537,0-13.537
	s-9.83-61.277-10.066-62.631c-2.08-11.953-3.986-11.428-12.566-11.142S160.635,221.69,160.635,221.69L140.285,304.291z
	 M175.483,304.291h439.653l0.002,94.96H175.483V304.291z"/>
<circle cx="217.83" cy="317.98" r="9.638"/>
<circle cx="487.829" cy="317.979" r="9.921"/>
<polygon points="355.263,304.291 355.261,399.248 264.555,399.252 264.557,304.291 "/>
<rect x="355.263" y="323.425" width="19.843" height="56.692"/>
<rect x="244.713" y="322.819" width="19.843" height="56.692"/>
<g>
	<path d="M347.356,154.1h1.043v3.898h0.036c0.216-0.312,0.432-0.6,0.636-0.864l2.471-3.034h1.295l-2.926,3.43l3.154,4.653h-1.235
		l-2.651-3.97l-0.779,0.887v3.083h-1.043V154.1z"/>
	<path d="M353.86,154.22c0.456-0.108,1.187-0.18,1.907-0.18c1.043,0,1.715,0.18,2.207,0.588c0.419,0.312,0.684,0.792,0.684,1.427
		c0,0.792-0.528,1.475-1.367,1.775v0.036c0.768,0.18,1.667,0.815,1.667,2.015c0,0.696-0.276,1.235-0.696,1.619
		c-0.552,0.516-1.463,0.755-2.782,0.755c-0.72,0-1.271-0.048-1.619-0.096V154.22z M354.903,157.53h0.947
		c1.091,0,1.739-0.588,1.739-1.367c0-0.936-0.708-1.319-1.763-1.319c-0.48,0-0.755,0.036-0.923,0.072V157.53z M354.903,161.392
		c0.216,0.036,0.503,0.048,0.875,0.048c1.079,0,2.075-0.396,2.075-1.571c0-1.091-0.947-1.559-2.087-1.559h-0.863V161.392z"/>
	<path d="M362.896,154.1h1.056v7.208h3.454v0.875h-4.51V154.1z"/>
	<path d="M368.956,159.473c0.024,1.427,0.923,2.015,1.991,2.015c0.755,0,1.223-0.132,1.607-0.3l0.192,0.756
		c-0.372,0.168-1.019,0.372-1.943,0.372c-1.787,0-2.854-1.188-2.854-2.938s1.032-3.118,2.723-3.118c1.907,0,2.399,1.655,2.399,2.723
		c0,0.216-0.012,0.372-0.036,0.492H368.956z M372.05,158.717c0.012-0.66-0.276-1.703-1.463-1.703c-1.08,0-1.535,0.971-1.619,1.703
		H372.05z"/>
	<path d="M374.487,162.184v-5.001h-0.804v-0.803h0.804v-0.276c0-0.815,0.192-1.559,0.672-2.027c0.396-0.384,0.923-0.54,1.415-0.54
		c0.384,0,0.696,0.084,0.899,0.168l-0.144,0.816c-0.156-0.072-0.359-0.132-0.671-0.132c-0.899,0-1.127,0.78-1.127,1.679v0.312h1.403
		v0.803h-1.403v5.001H374.487z"/>
	<path d="M379.287,154.987v1.392h1.511v0.803h-1.511v3.13c0,0.72,0.204,1.127,0.792,1.127c0.288,0,0.456-0.024,0.611-0.072
		l0.048,0.803c-0.204,0.072-0.528,0.144-0.936,0.144c-0.492,0-0.888-0.168-1.14-0.444c-0.288-0.324-0.408-0.839-0.408-1.523v-3.167
		h-0.899v-0.803h0.899v-1.08L379.287,154.987z"/>
	<path d="M384.387,161.116c0.324,0.192,0.875,0.408,1.403,0.408c0.756,0,1.115-0.372,1.115-0.863c0-0.504-0.3-0.768-1.067-1.056
		c-1.055-0.384-1.547-0.947-1.547-1.643c0-0.936,0.768-1.703,2.003-1.703c0.587,0,1.104,0.156,1.415,0.36l-0.252,0.768
		c-0.228-0.144-0.647-0.348-1.187-0.348c-0.624,0-0.959,0.36-0.959,0.792c0,0.479,0.335,0.695,1.091,0.995
		c0.996,0.372,1.523,0.876,1.523,1.739c0,1.031-0.803,1.751-2.159,1.751c-0.636,0-1.223-0.168-1.631-0.408L384.387,161.116z"/>
	<path d="M390.458,154.748c0,0.36-0.252,0.648-0.671,0.648c-0.384,0-0.636-0.288-0.636-0.648s0.264-0.66,0.66-0.66
		C390.194,154.088,390.458,154.376,390.458,154.748z M389.283,162.184v-5.805h1.056v5.805H389.283z"/>
	<path d="M397.092,153.668v7.016c0,0.516,0.024,1.103,0.049,1.499h-0.936l-0.048-1.007h-0.036c-0.312,0.647-1.007,1.139-1.955,1.139
		c-1.403,0-2.495-1.188-2.495-2.95c-0.012-1.931,1.2-3.106,2.603-3.106c0.9,0,1.487,0.42,1.751,0.875h0.024v-3.466H397.092z
		 M396.049,158.742c0-0.132-0.012-0.312-0.048-0.444c-0.156-0.66-0.731-1.211-1.523-1.211c-1.091,0-1.739,0.959-1.739,2.231
		c0,1.175,0.588,2.146,1.715,2.146c0.708,0,1.355-0.479,1.547-1.259c0.036-0.144,0.048-0.288,0.048-0.456V158.742z"/>
	<path d="M399.447,159.473c0.023,1.427,0.923,2.015,1.99,2.015c0.756,0,1.223-0.132,1.607-0.3l0.191,0.756
		c-0.371,0.168-1.02,0.372-1.943,0.372c-1.787,0-2.854-1.188-2.854-2.938s1.031-3.118,2.723-3.118c1.906,0,2.398,1.655,2.398,2.723
		c0,0.216-0.012,0.372-0.036,0.492H399.447z M402.541,158.717c0.012-0.66-0.275-1.703-1.463-1.703c-1.08,0-1.535,0.971-1.619,1.703
		H402.541z"/>
	<path d="M407.078,162.184v-0.647l0.828-0.804c1.991-1.895,2.902-2.902,2.902-4.078c0-0.792-0.371-1.523-1.535-1.523
		c-0.707,0-1.295,0.36-1.654,0.66l-0.336-0.744c0.527-0.444,1.307-0.792,2.194-0.792c1.679,0,2.387,1.151,2.387,2.267
		c0,1.439-1.044,2.603-2.687,4.186l-0.611,0.576v0.024h3.49v0.875H407.078z"/>
	<path d="M418.428,158.202c0,2.651-0.996,4.114-2.711,4.114c-1.523,0-2.566-1.427-2.59-4.006c0-2.626,1.139-4.054,2.723-4.054
		C417.48,154.256,418.428,155.719,418.428,158.202z M414.193,158.322c0,2.027,0.625,3.178,1.584,3.178
		c1.067,0,1.583-1.259,1.583-3.25c0-1.919-0.479-3.179-1.583-3.179C414.865,155.071,414.193,156.199,414.193,158.322z"/>
	<path d="M421.682,155.371h-0.024l-1.355,0.732l-0.204-0.804l1.703-0.912h0.9v7.796h-1.02V155.371z"/>
	<path d="M426.158,161.44c0.228,0.024,0.491,0,0.852-0.036c0.611-0.083,1.188-0.324,1.631-0.755
		c0.516-0.468,0.887-1.151,1.031-2.063h-0.036c-0.432,0.528-1.056,0.828-1.847,0.828c-1.392,0-2.291-1.055-2.291-2.387
		c0-1.475,1.067-2.771,2.662-2.771c1.596,0,2.579,1.283,2.579,3.298c0,1.703-0.575,2.902-1.343,3.646
		c-0.6,0.587-1.428,0.947-2.268,1.043c-0.383,0.06-0.719,0.072-0.971,0.06V161.44z M426.541,156.966c0,0.972,0.588,1.655,1.5,1.655
		c0.707,0,1.259-0.348,1.535-0.815c0.06-0.108,0.096-0.216,0.096-0.396c0-1.331-0.492-2.351-1.607-2.351
		C427.178,155.06,426.541,155.851,426.541,156.966z"/>
	<path d="M434.484,158.562v0.768h-2.963v-0.768H434.484z"/>
	<path d="M440.579,158.202c0,2.651-0.995,4.114-2.71,4.114c-1.523,0-2.567-1.427-2.592-4.006c0-2.626,1.141-4.054,2.723-4.054
		C439.631,154.256,440.579,155.719,440.579,158.202z M436.346,158.322c0,2.027,0.623,3.178,1.583,3.178
		c1.067,0,1.583-1.259,1.583-3.25c0-1.919-0.48-3.179-1.583-3.179C437.018,155.071,436.346,156.199,436.346,158.322z"/>
	<path d="M443.832,155.371h-0.023l-1.355,0.732l-0.204-0.804l1.703-0.912h0.899v7.796h-1.02V155.371z"/>
	<path d="M450.48,158.562v0.768h-2.963v-0.768H450.48z"/>
	<path d="M451.382,162.184v-0.647l0.827-0.804c1.991-1.895,2.902-2.902,2.902-4.078c0-0.792-0.372-1.523-1.535-1.523
		c-0.707,0-1.295,0.36-1.655,0.66l-0.336-0.744c0.528-0.444,1.308-0.792,2.195-0.792c1.679,0,2.387,1.151,2.387,2.267
		c0,1.439-1.044,2.603-2.687,4.186l-0.611,0.576v0.024h3.489v0.875H451.382z"/>
	<path d="M462.729,158.202c0,2.651-0.995,4.114-2.71,4.114c-1.523,0-2.566-1.427-2.591-4.006c0-2.626,1.14-4.054,2.723-4.054
		C461.782,154.256,462.729,155.719,462.729,158.202z M458.496,158.322c0,2.027,0.624,3.178,1.583,3.178
		c1.067,0,1.583-1.259,1.583-3.25c0-1.919-0.479-3.179-1.583-3.179C459.168,155.071,458.496,156.199,458.496,158.322z"/>
	<path d="M466.476,158.562v0.768h-2.963v-0.768H466.476z"/>
	<path d="M472.569,158.202c0,2.651-0.995,4.114-2.71,4.114c-1.523,0-2.566-1.427-2.591-4.006c0-2.626,1.14-4.054,2.723-4.054
		C471.622,154.256,472.569,155.719,472.569,158.202z M468.336,158.322c0,2.027,0.624,3.178,1.583,3.178
		c1.067,0,1.583-1.259,1.583-3.25c0-1.919-0.479-3.179-1.583-3.179C469.008,155.071,468.336,156.199,468.336,158.322z"/>
	<path d="M473.533,162.184v-0.647l0.827-0.804c1.991-1.895,2.902-2.902,2.902-4.078c0-0.792-0.372-1.523-1.535-1.523
		c-0.707,0-1.295,0.36-1.655,0.66l-0.336-0.744c0.528-0.444,1.308-0.792,2.195-0.792c1.679,0,2.387,1.151,2.387,2.267
		c0,1.439-1.044,2.603-2.687,4.186l-0.611,0.576v0.024h3.489v0.875H473.533z"/>
	<path d="M486.706,161.979c-0.276,0.132-0.888,0.336-1.668,0.336c-1.751,0-2.89-1.188-2.89-2.962c0-1.787,1.223-3.094,3.118-3.094
		c0.623,0,1.175,0.156,1.463,0.312l-0.24,0.803c-0.251-0.132-0.647-0.275-1.223-0.275c-1.331,0-2.051,0.995-2.051,2.194
		c0,1.343,0.863,2.171,2.015,2.171c0.6,0,0.995-0.144,1.295-0.276L486.706,161.979z"/>
	<path d="M493.126,159.233c0,2.146-1.499,3.082-2.891,3.082c-1.56,0-2.782-1.151-2.782-2.986c0-1.931,1.283-3.07,2.878-3.07
		C491.998,156.259,493.126,157.47,493.126,159.233z M488.532,159.293c0,1.271,0.72,2.231,1.751,2.231
		c1.008,0,1.763-0.947,1.763-2.255c0-0.983-0.491-2.219-1.738-2.219C489.072,157.05,488.532,158.202,488.532,159.293z"/>
	<path d="M494.461,158.274c0-0.744-0.024-1.343-0.049-1.895h0.936l0.061,0.995h0.023c0.42-0.708,1.115-1.115,2.063-1.115
		c1.415,0,2.471,1.188,2.471,2.938c0,2.087-1.283,3.118-2.651,3.118c-0.768,0-1.438-0.336-1.786-0.912h-0.024v3.154h-1.043V158.274z
		 M495.504,159.821c0,0.156,0.012,0.3,0.048,0.432c0.192,0.732,0.828,1.235,1.583,1.235c1.115,0,1.764-0.911,1.764-2.243
		c0-1.151-0.612-2.146-1.728-2.146c-0.72,0-1.403,0.503-1.595,1.295c-0.036,0.132-0.072,0.288-0.072,0.42V159.821z"/>
	<path d="M501.589,156.379l1.259,3.43c0.144,0.384,0.288,0.839,0.384,1.187h0.024c0.107-0.348,0.228-0.792,0.371-1.211l1.151-3.406
		h1.115l-1.583,4.138c-0.755,1.991-1.271,2.998-1.99,3.634c-0.528,0.444-1.032,0.624-1.296,0.672l-0.264-0.875
		c0.264-0.084,0.611-0.252,0.924-0.516c0.288-0.228,0.636-0.635,0.888-1.175c0.048-0.108,0.084-0.192,0.084-0.251
		c0-0.06-0.024-0.144-0.084-0.276l-2.135-5.349H501.589z"/>
</g>
</svg>
