<?xml version="1.0" encoding="utf-8"?>
<!-- Generator: Adobe Illustrator 15.0.0, SVG Export Plug-In . SVG Version: 6.00 Build 0)  -->
<!DOCTYPE svg PUBLIC "-//W3C//DTD SVG 1.1//EN" "http://www.w3.org/Graphics/SVG/1.1/DTD/svg11.dtd">
<svg version="1.1" id="Layer_1" xmlns="http://www.w3.org/2000/svg" xmlns:xlink="http://www.w3.org/1999/xlink" x="0px" y="0px"
	 width="792px" height="612px" viewBox="0 0 792 612" enable-background="new 0 0 792 612" xml:space="preserve">
<polygon fill="none" stroke="#000000" stroke-miterlimit="10" points="157.545,445.407 197.23,445.407 253.924,445.407 
	409.828,445.407 537.387,445.407 594.08,445.407 633.766,445.407 633.766,445.407 650.771,445.407 650.773,445.407 664.945,445.407 
	664.945,304.291 664.941,225.391 651.248,210.753 142.295,193.848 126.365,207.913 126.365,445.407 140.537,445.407 
	140.537,445.407 "/>
<polygon points="655.275,304.291 136.537,304.291 136.537,282.25 142.413,208.108 634.929,224.525 "/>
<polygon fill="#231F20" points="526.333,304.291 526.331,394.999 435.624,395 435.626,304.291 "/>
<polygon points="156.615,304.291 156.615,418.811 635.386,418.811 635.386,304.291 615.827,304.291 615.827,399.251 
	176.172,399.251 176.174,304.291 "/>
</svg>
