<?xml version="1.0" encoding="utf-8"?>
<!-- Generator: Adobe Illustrator 15.0.0, SVG Export Plug-In . SVG Version: 6.00 Build 0)  -->
<!DOCTYPE svg PUBLIC "-//W3C//DTD SVG 1.1//EN" "http://www.w3.org/Graphics/SVG/1.1/DTD/svg11.dtd">
<svg version="1.1" id="Layer_1" xmlns="http://www.w3.org/2000/svg" xmlns:xlink="http://www.w3.org/1999/xlink" x="0px" y="0px"
	 width="612px" height="792px" viewBox="0 0 612 792" enable-background="new 0 0 612 792" xml:space="preserve">
<rect x="24.783" y="-199.238" fill="none" stroke="#010101" stroke-miterlimit="10" width="895.749" height="482.258"/>
<path fill="#020202" d="M491.737-153.303c0,4.974,4.029,8.999,8.998,8.999c4.974,0,9.002-4.029,9.002-8.999
	c0-4.97-4.028-9.001-9.002-9.001C495.767-162.304,491.737-158.272,491.737-153.303"/>
<path fill="#020202" d="M491.737-68.285c0,4.973,4.029,9,8.998,9c4.974,0,9.002-4.031,9.002-9c0-4.969-4.028-9-9.002-9
	C495.767-77.285,491.737-73.255,491.737-68.285"/>
<path fill="#020202" d="M376.896-68.285c0,4.973,4.031,9,9,9c4.971,0,9-4.031,9-9c0-4.969-4.029-9-9-9
	C380.928-77.285,376.896-73.255,376.896-68.285"/>
<path fill="#020202" d="M348.577-68.285c0,4.973,4.029,9,9,9c4.969,0,9-4.031,9-9c0-4.969-4.031-9-9-9
	C352.607-77.285,348.577-73.255,348.577-68.285"/>
<path fill="#020202" d="M348.577-153.303c0,4.974,4.029,8.999,9,8.999c4.969,0,9-4.029,9-8.999c0-4.97-4.031-9.001-9-9.001
	C352.607-162.304,348.577-158.272,348.577-153.303"/>
<path fill="#020202" d="M172.839-68.285c0,4.973,4.029,9.004,9,9c4.971,0,9-4.031,9-9c0-4.969-4.029-9-9-9
	C176.868-77.285,172.839-73.255,172.839-68.285"/>
<path fill="#020202" d="M57.999-68.285c0,4.973,4.027,9,9.001,9c4.97,0,8.999-4.031,8.999-9c0-4.969-4.029-9-8.999-9
	C62.026-77.285,57.999-73.255,57.999-68.285"/>
<path fill="#020202" d="M57.998-153.303c0,4.974,4.028,8.999,9.003,8.999c4.971,0,9.001-4.029,8.997-8.999
	c0-4.97-4.026-9.001-8.997-9.001C62.026-162.304,57.998-158.272,57.998-153.303"/>
<rect x="24.783" y="-320.129" fill="none" stroke="#010101" stroke-miterlimit="10" width="895.748" height="100.629"/>
<g>
	<g id="CIRCLE_10_">
		<path stroke="#010101" stroke-miterlimit="10" d="M432.599-269.208c0-14.094,11.422-25.518,25.514-25.518
			s25.516,11.424,25.516,25.518c0,14.092-11.426,25.512-25.52,25.512C444.019-243.697,432.597-255.119,432.599-269.208
			L432.599-269.208z"/>
	</g>
	<g id="CIRCLE_9_">
		<path stroke="#010101" stroke-miterlimit="10" d="M195.688-247.984c0-5.48,4.439-9.92,9.92-9.92c5.479,0,9.924,4.438,9.924,9.92
			c0,5.479-4.441,9.922-9.924,9.922C200.128-238.062,195.688-242.505,195.688-247.984L195.688-247.984z"/>
	</g>
	<g id="CIRCLE_8_">
		<path stroke="#010101" stroke-miterlimit="10" d="M375.071-269.138c-0.037-14.09,11.352-25.547,25.438-25.588
			c14.092-0.041,25.547,11.354,25.586,25.439c0.041,14.092-11.348,25.545-25.438,25.586
			C386.569-243.66,375.11-255.048,375.071-269.138L375.071-269.138z"/>
	</g>
	<g id="CIRCLE_7_">
		<path stroke="#010101" stroke-miterlimit="10" d="M83.589-263.945c0-12.506,10.14-22.646,22.647-22.646
			c12.509,0,22.647,10.143,22.647,22.646c0,12.508-10.142,22.645-22.647,22.645C93.729-241.298,83.589-251.437,83.589-263.945
			L83.589-263.945z"/>
	</g>
	<g id="CIRCLE_6_">
		<path stroke="#010101" stroke-miterlimit="10" d="M138.797-263.945c0-12.506,10.141-22.646,22.646-22.646
			c12.506,0,22.648,10.143,22.648,22.646c0,12.508-10.142,22.645-22.648,22.645C148.938-241.3,138.797-251.437,138.797-263.945
			L138.797-263.945z"/>
	</g>
	<polygon stroke="#010101" stroke-miterlimit="10" points="367.987,-236.06 317.429,-236.06 317.429,-236.06 290.499,-236.06 
		290.499,-236.06 252.942,-236.06 252.942,-231.689 218.926,-231.689 218.926,-258.619 252.942,-258.619 252.942,-254.06 
		290.499,-254.06 290.499,-286.747 317.429,-286.747 317.429,-254.06 367.987,-254.06 	"/>
</g>
<g>
	<path d="M169.04-345.5v-0.647l0.828-0.804c1.991-1.895,2.902-2.902,2.902-4.078c0-0.792-0.372-1.523-1.535-1.523
		c-0.708,0-1.295,0.36-1.655,0.66l-0.336-0.744c0.528-0.444,1.307-0.792,2.195-0.792c1.679,0,2.387,1.151,2.387,2.267
		c0,1.439-1.043,2.603-2.687,4.186l-0.612,0.576v0.024h3.49v0.875H169.04z"/>
	<path d="M180.389-349.482c0,2.651-0.996,4.114-2.71,4.114c-1.523,0-2.567-1.427-2.591-4.006c0-2.626,1.14-4.054,2.723-4.054
		C179.441-353.428,180.389-351.964,180.389-349.482z M176.155-349.362c0,2.027,0.624,3.178,1.583,3.178
		c1.067,0,1.583-1.259,1.583-3.25c0-1.919-0.48-3.179-1.583-3.179C176.827-352.612,176.155-351.485,176.155-349.362z"/>
	<path d="M183.642-352.313h-0.024l-1.355,0.732l-0.204-0.804l1.703-0.912h0.9v7.796h-1.02V-352.313z"/>
	<path d="M188.946-349.602c-0.875-0.408-1.248-1.08-1.248-1.751c0-1.235,1.043-2.075,2.423-2.075c1.511,0,2.279,0.936,2.279,1.919
		c0,0.66-0.336,1.379-1.295,1.823v0.036c0.972,0.384,1.571,1.08,1.571,2.015c0,1.367-1.164,2.267-2.651,2.267
		c-1.631,0-2.614-0.959-2.614-2.099c0-0.983,0.587-1.691,1.547-2.099L188.946-349.602z M191.609-347.527
		c0-0.936-0.66-1.403-1.715-1.703c-0.911,0.264-1.403,0.875-1.403,1.619c-0.036,0.78,0.564,1.475,1.56,1.475
		C190.997-346.136,191.609-346.723,191.609-347.527z M188.707-351.425c-0.012,0.78,0.587,1.199,1.487,1.439
		c0.672-0.228,1.188-0.708,1.188-1.416c0-0.624-0.372-1.271-1.319-1.271C189.186-352.672,188.707-352.096,188.707-351.425z"/>
	<path d="M196.445-349.122v0.768h-2.962v-0.768H196.445z"/>
	<path d="M202.54-349.482c0,2.651-0.996,4.114-2.71,4.114c-1.523,0-2.567-1.427-2.591-4.006c0-2.626,1.14-4.054,2.723-4.054
		C201.592-353.428,202.54-351.964,202.54-349.482z M198.306-349.362c0,2.027,0.624,3.178,1.583,3.178
		c1.067,0,1.583-1.259,1.583-3.25c0-1.919-0.48-3.179-1.583-3.179C198.978-352.612,198.306-351.485,198.306-349.362z"/>
	<path d="M204.942-349.602c-0.875-0.408-1.248-1.08-1.248-1.751c0-1.235,1.043-2.075,2.423-2.075c1.511,0,2.279,0.936,2.279,1.919
		c0,0.66-0.336,1.379-1.295,1.823v0.036c0.972,0.384,1.571,1.08,1.571,2.015c0,1.367-1.164,2.267-2.651,2.267
		c-1.631,0-2.614-0.959-2.614-2.099c0-0.983,0.587-1.691,1.547-2.099L204.942-349.602z M207.604-347.527
		c0-0.936-0.66-1.403-1.715-1.703c-0.912,0.264-1.403,0.875-1.403,1.619c-0.036,0.78,0.564,1.475,1.56,1.475
		C206.993-346.136,207.604-346.723,207.604-347.527z M204.702-351.425c-0.012,0.78,0.587,1.199,1.487,1.439
		c0.672-0.228,1.188-0.708,1.188-1.416c0-0.624-0.372-1.271-1.319-1.271C205.182-352.672,204.702-352.096,204.702-351.425z"/>
	<path d="M212.441-349.122v0.768h-2.962v-0.768H212.441z"/>
	<path d="M218.536-349.482c0,2.651-0.996,4.114-2.71,4.114c-1.523,0-2.567-1.427-2.591-4.006c0-2.626,1.14-4.054,2.723-4.054
		C217.588-353.428,218.536-351.964,218.536-349.482z M214.302-349.362c0,2.027,0.624,3.178,1.583,3.178
		c1.067,0,1.583-1.259,1.583-3.25c0-1.919-0.48-3.179-1.583-3.179C214.974-352.612,214.302-351.485,214.302-349.362z"/>
	<path d="M220.938-349.602c-0.875-0.408-1.248-1.08-1.248-1.751c0-1.235,1.043-2.075,2.423-2.075c1.511,0,2.279,0.936,2.279,1.919
		c0,0.66-0.336,1.379-1.295,1.823v0.036c0.972,0.384,1.571,1.08,1.571,2.015c0,1.367-1.164,2.267-2.651,2.267
		c-1.631,0-2.614-0.959-2.614-2.099c0-0.983,0.587-1.691,1.547-2.099L220.938-349.602z M223.6-347.527
		c0-0.936-0.66-1.403-1.715-1.703c-0.911,0.264-1.403,0.875-1.403,1.619c-0.036,0.78,0.564,1.475,1.56,1.475
		C222.988-346.136,223.6-346.723,223.6-347.527z M220.698-351.425c-0.012,0.78,0.587,1.199,1.487,1.439
		c0.672-0.228,1.188-0.708,1.188-1.416c0-0.624-0.372-1.271-1.319-1.271C221.177-352.672,220.698-352.096,220.698-351.425z"/>
	<path d="M228.437-349.122v0.768h-2.962v-0.768H228.437z"/>
	<path d="M234.531-349.482c0,2.651-0.996,4.114-2.71,4.114c-1.523,0-2.567-1.427-2.591-4.006c0-2.626,1.14-4.054,2.723-4.054
		C233.583-353.428,234.531-351.964,234.531-349.482z M230.297-349.362c0,2.027,0.624,3.178,1.583,3.178
		c1.067,0,1.583-1.259,1.583-3.25c0-1.919-0.48-3.179-1.583-3.179C230.969-352.612,230.297-351.485,230.297-349.362z"/>
	<path d="M237.785-352.313h-0.024l-1.355,0.732l-0.204-0.804l1.703-0.912h0.9v7.796h-1.02V-352.313z"/>
</g>
</svg>
