<?xml version="1.0" encoding="utf-8"?>
<!-- Generator: Adobe Illustrator 15.0.0, SVG Export Plug-In . SVG Version: 6.00 Build 0)  -->
<!DOCTYPE svg PUBLIC "-//W3C//DTD SVG 1.1//EN" "http://www.w3.org/Graphics/SVG/1.1/DTD/svg11.dtd">
<svg version="1.1" id="Layer_1" xmlns="http://www.w3.org/2000/svg" xmlns:xlink="http://www.w3.org/1999/xlink" x="0px" y="0px"
	 width="612px" height="792px" viewBox="0 0 612 792" enable-background="new 0 0 612 792" xml:space="preserve">
<rect x="207.691" y="195.212" fill="#FFFFFF" stroke="#000000" stroke-miterlimit="10" width="113.385" height="56.693"/>
<g>
	<path d="M233.486,160.517h1.043v3.898h0.036c0.216-0.312,0.432-0.6,0.636-0.864l2.471-3.034h1.295l-2.926,3.43l3.154,4.653h-1.235
		l-2.651-3.97l-0.779,0.887v3.083h-1.043V160.517z"/>
	<path d="M239.99,160.636c0.456-0.108,1.187-0.18,1.907-0.18c1.043,0,1.715,0.18,2.207,0.588c0.419,0.312,0.684,0.792,0.684,1.427
		c0,0.792-0.528,1.475-1.367,1.775v0.036c0.768,0.18,1.667,0.815,1.667,2.015c0,0.696-0.276,1.235-0.696,1.619
		c-0.552,0.516-1.463,0.755-2.782,0.755c-0.72,0-1.271-0.048-1.619-0.096V160.636z M241.034,163.947h0.947
		c1.091,0,1.739-0.588,1.739-1.367c0-0.936-0.708-1.319-1.763-1.319c-0.479,0-0.755,0.036-0.923,0.072V163.947z M241.034,167.809
		c0.216,0.036,0.503,0.048,0.875,0.048c1.079,0,2.075-0.396,2.075-1.571c0-1.091-0.947-1.559-2.087-1.559h-0.863V167.809z"/>
	<path d="M250.082,161.404h-2.459v-0.887h5.985v0.887h-2.471v7.196h-1.055V161.404z"/>
	<path d="M258.792,167.005c0,0.612,0.012,1.14,0.048,1.595h-0.936l-0.06-0.947h-0.024c-0.264,0.468-0.887,1.079-1.919,1.079
		c-0.911,0-2.003-0.516-2.003-2.542v-3.394h1.056v3.202c0,1.104,0.348,1.859,1.295,1.859c0.708,0,1.199-0.492,1.391-0.971
		c0.06-0.144,0.096-0.336,0.096-0.54v-3.55h1.056V167.005z"/>
	<path d="M260.546,160.085h1.043v3.646h0.024c0.372-0.648,1.043-1.056,1.979-1.056c1.451,0,2.458,1.199,2.458,2.95
		c0,2.075-1.319,3.106-2.614,3.106c-0.84,0-1.511-0.324-1.955-1.079h-0.024l-0.06,0.947h-0.899c0.024-0.396,0.048-0.983,0.048-1.499
		V160.085z M261.589,166.273c0,0.132,0.012,0.264,0.048,0.384c0.192,0.731,0.816,1.235,1.583,1.235c1.115,0,1.763-0.899,1.763-2.231
		c0-1.163-0.6-2.159-1.739-2.159c-0.708,0-1.379,0.504-1.595,1.295c-0.036,0.132-0.06,0.276-0.06,0.443V166.273z"/>
	<path d="M267.961,165.89c0.024,1.427,0.923,2.015,1.991,2.015c0.755,0,1.223-0.132,1.607-0.3l0.192,0.756
		c-0.372,0.168-1.019,0.372-1.943,0.372c-1.787,0-2.854-1.188-2.854-2.938s1.032-3.118,2.723-3.118c1.907,0,2.399,1.655,2.399,2.723
		c0,0.216-0.012,0.372-0.036,0.492H267.961z M271.056,165.134c0.012-0.66-0.276-1.703-1.463-1.703c-1.08,0-1.535,0.971-1.619,1.703
		H271.056z"/>
	<path d="M280.067,168.396c-0.276,0.132-0.888,0.336-1.667,0.336c-1.751,0-2.891-1.188-2.891-2.962c0-1.787,1.224-3.094,3.119-3.094
		c0.624,0,1.175,0.156,1.463,0.312l-0.24,0.803c-0.252-0.132-0.647-0.275-1.223-0.275c-1.332,0-2.051,0.995-2.051,2.194
		c0,1.343,0.864,2.171,2.015,2.171c0.6,0,0.996-0.144,1.295-0.276L280.067,168.396z"/>
	<path d="M281.306,160.085h1.056v8.515h-1.056V160.085z"/>
	<path d="M288.995,167.005c0,0.612,0.012,1.14,0.048,1.595h-0.936l-0.06-0.947h-0.024c-0.264,0.468-0.887,1.079-1.919,1.079
		c-0.911,0-2.003-0.516-2.003-2.542v-3.394h1.056v3.202c0,1.104,0.348,1.859,1.295,1.859c0.708,0,1.199-0.492,1.391-0.971
		c0.06-0.144,0.096-0.336,0.096-0.54v-3.55h1.056V167.005z"/>
	<path d="M292.021,161.404v1.392h1.511v0.803h-1.511v3.13c0,0.72,0.204,1.127,0.792,1.127c0.288,0,0.456-0.024,0.611-0.072
		l0.048,0.803c-0.204,0.072-0.528,0.144-0.936,0.144c-0.492,0-0.888-0.168-1.14-0.444c-0.288-0.324-0.408-0.839-0.408-1.523v-3.167
		h-0.899v-0.803h0.899v-1.08L292.021,161.404z"/>
	<path d="M298.787,168.396c-0.276,0.132-0.888,0.336-1.667,0.336c-1.751,0-2.891-1.188-2.891-2.962c0-1.787,1.224-3.094,3.119-3.094
		c0.624,0,1.175,0.156,1.463,0.312l-0.24,0.803c-0.252-0.132-0.647-0.275-1.223-0.275c-1.332,0-2.051,0.995-2.051,2.194
		c0,1.343,0.864,2.171,2.015,2.171c0.6,0,0.996-0.144,1.295-0.276L298.787,168.396z"/>
	<path d="M300.025,160.085h1.056v3.634h0.024c0.168-0.3,0.432-0.576,0.755-0.755c0.312-0.18,0.684-0.288,1.08-0.288
		c0.779,0,2.027,0.48,2.027,2.471v3.454h-1.056v-3.334c0-0.936-0.348-1.715-1.343-1.715c-0.684,0-1.211,0.48-1.415,1.043
		c-0.06,0.156-0.072,0.312-0.072,0.504v3.502h-1.056V160.085z"/>
	<path d="M233.114,183v-0.647l0.828-0.804c1.991-1.895,2.902-2.902,2.902-4.078c0-0.792-0.372-1.523-1.535-1.523
		c-0.708,0-1.295,0.36-1.655,0.66l-0.336-0.744c0.528-0.443,1.307-0.792,2.195-0.792c1.679,0,2.387,1.151,2.387,2.267
		c0,1.439-1.043,2.603-2.687,4.186l-0.612,0.576v0.024h3.49V183H233.114z"/>
	<path d="M244.463,179.018c0,2.651-0.996,4.114-2.71,4.114c-1.523,0-2.567-1.427-2.591-4.006c0-2.626,1.14-4.054,2.723-4.054
		C243.516,175.072,244.463,176.536,244.463,179.018z M240.229,179.138c0,2.027,0.624,3.178,1.583,3.178
		c1.067,0,1.583-1.259,1.583-3.25c0-1.919-0.48-3.178-1.583-3.178C240.901,175.888,240.229,177.015,240.229,179.138z"/>
	<path d="M247.717,176.188h-0.024l-1.355,0.731l-0.204-0.804l1.703-0.912h0.9V183h-1.02V176.188z"/>
	<path d="M253.021,178.898c-0.875-0.408-1.248-1.08-1.248-1.751c0-1.235,1.043-2.075,2.423-2.075c1.511,0,2.279,0.936,2.279,1.919
		c0,0.66-0.336,1.379-1.295,1.823v0.036c0.972,0.384,1.571,1.08,1.571,2.015c0,1.367-1.164,2.267-2.651,2.267
		c-1.631,0-2.614-0.959-2.614-2.099c0-0.983,0.587-1.691,1.547-2.099L253.021,178.898z M255.684,180.973
		c0-0.936-0.66-1.403-1.715-1.703c-0.912,0.264-1.403,0.875-1.403,1.619c-0.036,0.78,0.564,1.475,1.56,1.475
		C255.072,182.364,255.684,181.777,255.684,180.973z M252.781,177.075c-0.012,0.78,0.587,1.199,1.487,1.439
		c0.672-0.228,1.188-0.708,1.188-1.416c0-0.624-0.372-1.271-1.319-1.271C253.261,175.828,252.781,176.404,252.781,177.075z"/>
	<path d="M260.521,179.378v0.768h-2.962v-0.768H260.521z"/>
	<path d="M266.615,179.018c0,2.651-0.996,4.114-2.71,4.114c-1.523,0-2.567-1.427-2.591-4.006c0-2.626,1.14-4.054,2.723-4.054
		C265.667,175.072,266.615,176.536,266.615,179.018z M262.381,179.138c0,2.027,0.624,3.178,1.583,3.178
		c1.067,0,1.583-1.259,1.583-3.25c0-1.919-0.48-3.178-1.583-3.178C263.053,175.888,262.381,177.015,262.381,179.138z"/>
	<path d="M269.017,178.898c-0.875-0.408-1.248-1.08-1.248-1.751c0-1.235,1.043-2.075,2.423-2.075c1.511,0,2.279,0.936,2.279,1.919
		c0,0.66-0.336,1.379-1.295,1.823v0.036c0.972,0.384,1.571,1.08,1.571,2.015c0,1.367-1.164,2.267-2.651,2.267
		c-1.631,0-2.614-0.959-2.614-2.099c0-0.983,0.587-1.691,1.547-2.099L269.017,178.898z M271.679,180.973
		c0-0.936-0.66-1.403-1.715-1.703c-0.911,0.264-1.403,0.875-1.403,1.619c-0.036,0.78,0.564,1.475,1.56,1.475
		C271.067,182.364,271.679,181.777,271.679,180.973z M268.777,177.075c-0.012,0.78,0.587,1.199,1.487,1.439
		c0.672-0.228,1.188-0.708,1.188-1.416c0-0.624-0.372-1.271-1.319-1.271C269.256,175.828,268.777,176.404,268.777,177.075z"/>
	<path d="M276.516,179.378v0.768h-2.962v-0.768H276.516z"/>
	<path d="M279.708,176.188h-0.024l-1.355,0.731l-0.204-0.804l1.703-0.912h0.9V183h-1.02V176.188z"/>
	<path d="M288.766,179.018c0,2.651-0.996,4.114-2.71,4.114c-1.523,0-2.567-1.427-2.591-4.006c0-2.626,1.14-4.054,2.723-4.054
		C287.818,175.072,288.766,176.536,288.766,179.018z M284.532,179.138c0,2.027,0.624,3.178,1.583,3.178
		c1.067,0,1.583-1.259,1.583-3.25c0-1.919-0.48-3.178-1.583-3.178C285.204,175.888,284.532,177.015,284.532,179.138z"/>
	<path d="M292.511,179.378v0.768h-2.962v-0.768H292.511z"/>
	<path d="M298.606,179.018c0,2.651-0.996,4.114-2.71,4.114c-1.523,0-2.567-1.427-2.591-4.006c0-2.626,1.14-4.054,2.723-4.054
		C297.658,175.072,298.606,176.536,298.606,179.018z M294.372,179.138c0,2.027,0.624,3.178,1.583,3.178
		c1.067,0,1.583-1.259,1.583-3.25c0-1.919-0.48-3.178-1.583-3.178C295.044,175.888,294.372,177.015,294.372,179.138z"/>
	<path d="M301.859,176.188h-0.024l-1.355,0.731l-0.204-0.804l1.703-0.912h0.9V183h-1.02V176.188z"/>
</g>
<path stroke="#000000" stroke-miterlimit="10" d="M292.73,218.599L292.73,218.599l-56.693,0v0c-2.74,0-4.96,2.221-4.96,4.96
	c0,2.74,2.221,4.961,4.96,4.961h56.693c2.74,0,4.96-2.221,4.96-4.961C297.69,220.819,295.47,218.599,292.73,218.599z"/>
</svg>
