<?xml version="1.0" encoding="utf-8"?>
<!-- Generator: Adobe Illustrator 15.0.0, SVG Export Plug-In . SVG Version: 6.00 Build 0)  -->
<!DOCTYPE svg PUBLIC "-//W3C//DTD SVG 1.1//EN" "http://www.w3.org/Graphics/SVG/1.1/DTD/svg11.dtd">
<svg version="1.1" id="Layer_1" xmlns="http://www.w3.org/2000/svg" xmlns:xlink="http://www.w3.org/1999/xlink" x="0px" y="0px"
	 width="612px" height="792px" viewBox="0 0 612 792" enable-background="new 0 0 612 792" xml:space="preserve">
<rect x="33.287" y="144.1" fill="none" stroke="#010101" stroke-miterlimit="10" width="878.739" height="94.96"/>
<g>
	<g id="CIRCLE_10_">
		<path fill="none" stroke="#010101" stroke-miterlimit="10" d="M503.465,189.352c0-14.094,11.422-25.518,25.514-25.518
			c14.09,0,25.514,11.424,25.514,25.518c0,14.092-11.426,25.512-25.518,25.512C514.885,214.863,503.463,203.441,503.465,189.352
			L503.465,189.352z"/>
	</g>
	<g id="CIRCLE_9_">
		<path fill="none" stroke="#010101" stroke-miterlimit="10" d="M266.554,210.576c0-5.48,4.439-9.92,9.92-9.92
			c5.479,0,9.924,4.439,9.924,9.92c0,5.479-4.441,9.922-9.924,9.922C270.994,220.498,266.554,216.055,266.554,210.576
			L266.554,210.576z"/>
	</g>
	<g id="CIRCLE_8_">
		<path fill="none" stroke="#010101" stroke-miterlimit="10" d="M445.938,189.422c-0.039-14.09,11.35-25.547,25.438-25.588
			c14.092-0.041,25.547,11.354,25.586,25.439c0.041,14.092-11.348,25.545-25.438,25.586
			C457.436,214.9,445.977,203.512,445.938,189.422L445.938,189.422z"/>
	</g>
	<g id="CIRCLE_7_">
		<path fill="none" stroke="#010101" stroke-miterlimit="10" d="M154.455,194.615c0-12.506,10.14-22.646,22.647-22.646
			c12.509,0,22.647,10.143,22.647,22.646c0,12.508-10.142,22.645-22.647,22.645C164.595,217.262,154.455,207.123,154.455,194.615
			L154.455,194.615z"/>
	</g>
	<g id="CIRCLE_6_">
		<path fill="none" stroke="#010101" stroke-miterlimit="10" d="M209.663,194.615c0-12.506,10.141-22.646,22.646-22.646
			c12.506,0,22.648,10.143,22.648,22.646c0,12.508-10.142,22.645-22.648,22.645C219.804,217.26,209.663,207.123,209.663,194.615
			L209.663,194.615z"/>
	</g>
	<polygon fill="none" stroke="#010101" stroke-miterlimit="10" points="438.854,222.5 388.295,222.5 388.295,222.5 361.365,222.5 
		361.365,222.5 323.809,222.5 323.809,226.871 289.792,226.871 289.792,199.941 323.809,199.941 323.809,204.5 361.365,204.5 
		361.365,171.813 388.295,171.813 388.295,204.5 438.854,204.5 	"/>
</g>
</svg>
