<?xml version="1.0" encoding="utf-8"?>
<!-- Generator: Adobe Illustrator 15.0.0, SVG Export Plug-In . SVG Version: 6.00 Build 0)  -->
<!DOCTYPE svg PUBLIC "-//W3C//DTD SVG 1.1//EN" "http://www.w3.org/Graphics/SVG/1.1/DTD/svg11.dtd">
<svg version="1.1" id="Layer_1" xmlns="http://www.w3.org/2000/svg" xmlns:xlink="http://www.w3.org/1999/xlink" x="0px" y="0px"
	 width="612px" height="792px" viewBox="0 0 612 792" enable-background="new 0 0 612 792" xml:space="preserve">
<rect x="24.783" y="-199.238" fill="none" stroke="#010101" stroke-miterlimit="10" width="895.749" height="482.258"/>
<path fill="#020202" d="M491.737-153.303c0,4.974,4.027,8.999,8.998,8.999c4.974,0,9.002-4.029,9.002-8.999
	c0-4.97-4.028-9.001-9.002-9.001C495.767-162.304,491.737-158.272,491.737-153.303"/>
<path fill="#020202" d="M491.737-68.285c0,4.973,4.027,9,8.998,9c4.974,0,9.002-4.031,9.002-9c0-4.969-4.028-9-9.002-9
	C495.767-77.285,491.737-73.255,491.737-68.285"/>
<path fill="#020202" d="M376.896-68.285c0,4.973,4.029,9,9,9s9-4.031,9-9c0-4.969-4.029-9-9-9
	C380.928-77.285,376.896-73.255,376.896-68.285"/>
<path fill="#020202" d="M348.577-68.285c0,4.973,4.028,9,9,9c4.969,0,9-4.031,9-9c0-4.969-4.031-9-9-9
	C352.607-77.285,348.577-73.255,348.577-68.285"/>
<path fill="#020202" d="M348.577-153.303c0,4.974,4.028,8.999,9,8.999c4.969,0,9-4.029,9-8.999c0-4.97-4.031-9.001-9-9.001
	C352.607-162.304,348.577-158.272,348.577-153.303"/>
<path fill="#020202" d="M172.839-68.285c0,4.973,4.029,9.004,9,9c4.971,0,9-4.031,9-9c0-4.969-4.029-9-9-9
	C176.868-77.285,172.839-73.255,172.839-68.285"/>
<path fill="#020202" d="M57.999-68.285c0,4.973,4.027,9,9.001,9c4.97,0,8.999-4.031,8.999-9c0-4.969-4.029-9-8.999-9
	C62.026-77.285,57.999-73.255,57.999-68.285"/>
<path fill="#020202" d="M57.998-153.303c0,4.974,4.028,8.999,9.003,8.999c4.971,0,9.001-4.029,8.997-8.999
	c0-4.97-4.026-9.001-8.997-9.001C62.026-162.304,57.998-158.272,57.998-153.303"/>
<rect x="24.783" y="-320.129" fill="none" stroke="#010101" stroke-miterlimit="10" width="895.748" height="100.629"/>
<rect x="24.783" y="311.871" fill="none" stroke="#010101" stroke-miterlimit="10" width="895.748" height="100.629"/>
<g>
	<g id="CIRCLE_10_">
		<path stroke="#010101" stroke-miterlimit="10" d="M432.599-269.208c0-14.094,11.424-25.518,25.516-25.518
			s25.516,11.424,25.516,25.518c0,14.092-11.426,25.512-25.52,25.512C444.019-243.697,432.597-255.119,432.599-269.208
			L432.599-269.208z"/>
	</g>
	<g id="CIRCLE_9_">
		<path stroke="#010101" stroke-miterlimit="10" d="M195.688-247.984c0-5.48,4.439-9.92,9.92-9.92c5.479,0,9.924,4.438,9.924,9.92
			c0,5.479-4.441,9.922-9.924,9.922C200.128-238.062,195.688-242.505,195.688-247.984L195.688-247.984z"/>
	</g>
	<g id="CIRCLE_8_">
		<path stroke="#010101" stroke-miterlimit="10" d="M375.07-269.138c-0.036-14.09,11.353-25.547,25.438-25.588
			c14.092-0.041,25.547,11.354,25.586,25.439c0.041,14.092-11.348,25.545-25.438,25.586
			C386.568-243.66,375.109-255.048,375.07-269.138L375.07-269.138z"/>
	</g>
	<g id="CIRCLE_7_">
		<path stroke="#010101" stroke-miterlimit="10" d="M83.589-263.945c0-12.506,10.14-22.646,22.647-22.646
			c12.509,0,22.647,10.143,22.647,22.646c0,12.508-10.142,22.645-22.647,22.645C93.729-241.298,83.589-251.437,83.589-263.945
			L83.589-263.945z"/>
	</g>
	<g id="CIRCLE_6_">
		<path stroke="#010101" stroke-miterlimit="10" d="M138.797-263.945c0-12.506,10.141-22.646,22.646-22.646
			c12.506,0,22.648,10.143,22.648,22.646c0,12.508-10.142,22.645-22.648,22.645C148.938-241.3,138.797-251.437,138.797-263.945
			L138.797-263.945z"/>
	</g>
	<polygon stroke="#010101" stroke-miterlimit="10" points="367.986,-236.06 317.43,-236.06 317.43,-236.06 290.499,-236.06 
		290.499,-236.06 252.942,-236.06 252.942,-231.689 218.926,-231.689 218.926,-258.619 252.942,-258.619 252.942,-254.06 
		290.499,-254.06 290.499,-286.747 317.43,-286.747 317.43,-254.06 367.986,-254.06 	"/>
</g>
<rect x="-117.886" y="-380.5" fill="none" stroke="#000000" stroke-miterlimit="10" width="1152" height="864"/>
<rect x="4362.5" y="3484.5" fill="#79C143" stroke="#000000" stroke-miterlimit="10" width="864" height="1152"/>
<rect x="3498.5" y="3484.5" fill="#79C143" stroke="#000000" stroke-miterlimit="10" width="864" height="1152"/>
<rect x="2634.5" y="3484.5" fill="#79C143" stroke="#000000" stroke-miterlimit="10" width="864" height="1152"/>
<rect x="1770.5" y="3484.5" fill="#79C143" stroke="#000000" stroke-miterlimit="10" width="864" height="1152"/>
<rect x="4362.5" y="2332.5" fill="#79C143" stroke="#000000" stroke-miterlimit="10" width="864" height="1152"/>
<rect x="3498.5" y="2332.5" fill="#79C143" stroke="#000000" stroke-miterlimit="10" width="864" height="1152"/>
<rect x="2634.5" y="2332.5" fill="#79C143" stroke="#000000" stroke-miterlimit="10" width="864" height="1152"/>
<rect x="1770.5" y="2332.5" fill="#79C143" stroke="#000000" stroke-miterlimit="10" width="864" height="1152"/>
<rect x="4362.5" y="1180.5" fill="#79C143" stroke="#000000" stroke-miterlimit="10" width="864" height="1152"/>
<rect x="3498.5" y="1180.5" fill="#79C143" stroke="#000000" stroke-miterlimit="10" width="864" height="1152"/>
<rect x="2634.5" y="1180.5" fill="#79C143" stroke="#000000" stroke-miterlimit="10" width="864" height="1152"/>
<rect x="1770.5" y="1180.5" fill="#79C143" stroke="#000000" stroke-miterlimit="10" width="864" height="1152"/>
<rect x="4362.5" y="28.5" fill="#79C143" stroke="#000000" stroke-miterlimit="10" width="864" height="1152"/>
<rect x="3498.5" y="28.5" fill="#79C143" stroke="#000000" stroke-miterlimit="10" width="864" height="1152"/>
<rect x="1770.5" y="-2275.5" fill="none" stroke="#000000" stroke-miterlimit="10" width="3456" height="6912"/>
<rect x="1770.5" y="-680.129" fill="#BB5DA4" stroke="#000000" stroke-miterlimit="10" width="720" height="720"/>
<rect x="2490.5" y="-680.129" fill="#BB5DA4" stroke="#000000" stroke-miterlimit="10" width="720" height="720"/>
<rect x="1770.5" y="36" fill="#BB5DA4" stroke="#000000" stroke-miterlimit="10" width="720" height="720"/>
<rect x="2490.5" y="36" fill="#BB5DA4" stroke="#000000" stroke-miterlimit="10" width="720" height="720"/>
<rect x="3210.5" y="-680.129" fill="#BB5DA4" stroke="#000000" stroke-miterlimit="10" width="720" height="720"/>
<rect x="3930.5" y="-680.129" fill="#BB5DA4" stroke="#000000" stroke-miterlimit="10" width="720" height="720"/>
<rect x="1770.5" y="-1400.129" fill="#BB5DA4" stroke="#000000" stroke-miterlimit="10" width="720" height="720"/>
<rect x="2490.5" y="-1400.129" fill="#BB5DA4" stroke="#000000" stroke-miterlimit="10" width="720" height="720"/>
<rect x="3210.5" y="-1400.129" fill="#BB5DA4" stroke="#000000" stroke-miterlimit="10" width="720" height="720"/>
<rect x="3930.5" y="-1400.129" fill="#BB5DA4" stroke="#000000" stroke-miterlimit="10" width="720" height="720"/>
<rect x="1770.5" y="-2120.129" fill="#BB5DA4" stroke="#000000" stroke-miterlimit="10" width="720" height="720"/>
<rect x="2490.5" y="-2120.129" fill="#BB5DA4" stroke="#000000" stroke-miterlimit="10" width="720" height="720"/>
<rect x="3210.5" y="-2120.129" fill="#BB5DA4" stroke="#000000" stroke-miterlimit="10" width="720" height="720"/>
<rect x="3930.5" y="-2120.129" fill="#BB5DA4" stroke="#000000" stroke-miterlimit="10" width="720" height="720"/>
</svg>
