G04 #@! TF.FileFunction,Soldermask,Top*
%FSLAX46Y46*%
G04 Gerber Fmt 4.6, Leading zero omitted, Abs format (unit mm)*
G04 Created by KiCad (PCBNEW 4.0.4-stable) date 03/02/17 16:11:59*
%MOMM*%
%LPD*%
G01*
G04 APERTURE LIST*
%ADD10C,0.100000*%
%ADD11C,4.064000*%
%ADD12C,1.727200*%
G04 APERTURE END LIST*
D10*
D11*
X21540000Y3000000D03*
X23540000Y61250000D03*
X188420000Y3000000D03*
X188420000Y61250000D03*
X5540000Y61250000D03*
X5540000Y3000000D03*
D12*
X6350000Y35560000D03*
X8890000Y35560000D03*
X6350000Y25400000D03*
X8890000Y25400000D03*
X6350000Y33020000D03*
X8890000Y33020000D03*
X6350000Y27940000D03*
X8890000Y27940000D03*
X6350000Y30480000D03*
X8890000Y30480000D03*
X6350000Y22860000D03*
X8890000Y22860000D03*
X6350000Y20320000D03*
X8890000Y20320000D03*
X6350000Y17780000D03*
X8890000Y17780000D03*
X6350000Y15240000D03*
X8890000Y15240000D03*
X6350000Y12700000D03*
X8890000Y12700000D03*
X6350000Y10160000D03*
X8890000Y10160000D03*
X11430000Y62230000D03*
X13970000Y62230000D03*
X16510000Y62230000D03*
X19050000Y62230000D03*
X15240000Y35560000D03*
X17780000Y35560000D03*
X20320000Y35560000D03*
X22860000Y35560000D03*
X17780000Y44450000D03*
X17780000Y20320000D03*
X16510000Y3810000D03*
X15240000Y44450000D03*
X15240000Y20320000D03*
X13970000Y3810000D03*
X12700000Y44450000D03*
X12700000Y20320000D03*
X11430000Y3810000D03*
M02*
