G04 This is an RS-274x file exported by *
G04 gerbv version 2.6.1 *
G04 More information is available about gerbv at *
G04 http://gerbv.geda-project.org/ *
G04 --End of header info--*
%MOIN*%
%FSLAX34Y34*%
%IPPOS*%
G04 --Define apertures--*
%ADD10C,0.0150*%
%ADD11C,0.0420*%
%ADD12C,0.0630*%
%AMMACRO13*
21,1,0.029190,0.037064,0.000000,0.000000,180.000000*
%
%ADD13MACRO13*%
%ADD14R,0.0264X0.0343*%
%ADD15R,0.0579X0.0429*%
%AMMACRO16*
21,1,0.014961,0.042898,0.000000,0.000000,360.000000*
21,1,0.057859,0.000000,0.000000,0.000000,360.000000*
1,1,0.042898,-0.007480,0.000000*
1,1,0.042898,0.007480,0.000000*
1,1,0.042898,0.007480,-0.000000*
1,1,0.042898,-0.007480,-0.000000*
%
%ADD16MACRO16*%
%ADD17R,0.0709X0.0709*%
%ADD18C,0.0709*%
%ADD19R,0.0292X0.0371*%
%ADD20C,0.1220*%
%AMMACRO21*
21,1,0.026406,0.034280,0.000000,0.000000,270.000000*
%
%ADD21MACRO21*%
%AMMACRO22*
21,1,0.033154,0.037064,0.000000,0.000000,270.000000*
%
%ADD22MACRO22*%
%AMMACRO23*
21,1,0.029190,0.037064,0.000000,0.000000,90.000000*
%
%ADD23MACRO23*%
%AMMACRO24*
21,1,0.031496,0.035433,0.000000,0.000000,270.000000*
%
%ADD24MACRO24*%
%ADD25R,0.0638X0.0638*%
%ADD26C,0.0638*%
%AMMACRO27*
21,1,0.029190,0.037064,0.000000,0.000000,270.000000*
%
%ADD27MACRO27*%
%AMMACRO28*
21,1,0.026406,0.034280,0.000000,0.000000,180.000000*
%
%ADD28MACRO28*%
%AMMACRO29*
21,1,0.033154,0.037064,0.000000,0.000000,90.000000*
%
%ADD29MACRO29*%
%AMMACRO30*
21,1,0.026406,0.034280,0.000000,0.000000,90.000000*
%
%ADD30MACRO30*%
%ADD31R,0.0630X0.0630*%
%ADD32R,0.0323X0.0076*%
%AMMACRO33*
21,1,0.027607,0.007578,0.000000,0.000000,360.000000*
1,1,0.007578,-0.013804,0.000000*
1,1,0.007578,0.013804,0.000000*
1,1,0.007578,0.013804,-0.000000*
1,1,0.007578,-0.013804,0.000000*
%
%ADD33MACRO33*%
%AMMACRO34*
21,1,0.025887,0.007578,0.000000,0.000000,360.000000*
1,1,0.007578,-0.012943,0.000000*
1,1,0.007578,0.012943,0.000000*
1,1,0.007578,0.012943,-0.000000*
1,1,0.007578,-0.012943,0.000000*
%
%ADD34MACRO34*%
%AMMACRO35*
21,1,0.007578,0.025887,0.000000,0.000000,360.000000*
1,1,0.007578,0.000000,0.012943*
1,1,0.007578,0.000000,0.012943*
1,1,0.007578,0.000000,-0.012943*
1,1,0.007578,-0.000000,-0.012943*
%
%ADD35MACRO35*%
%AMMACRO36*
21,1,0.007578,0.027607,0.000000,0.000000,360.000000*
1,1,0.007578,0.000000,0.013804*
1,1,0.007578,0.000000,0.013804*
1,1,0.007578,0.000000,-0.013804*
1,1,0.007578,-0.000000,-0.013804*
%
%ADD36MACRO36*%
%AMMACRO37*
21,1,0.007578,0.024706,0.000000,0.000000,360.000000*
1,1,0.007578,0.000000,0.012353*
1,1,0.007578,0.000000,0.012353*
1,1,0.007578,0.000000,-0.012353*
1,1,0.007578,-0.000000,-0.012353*
%
%ADD37MACRO37*%
%ADD38C,0.0650*%
%AMMACRO39*
21,1,0.064961,0.064961,0.000000,0.000000,270.000000*
%
%ADD39MACRO39*%
%ADD40R,0.0413X0.0236*%
%AMMACRO41*
21,1,0.033154,0.037064,0.000000,0.000000,180.000000*
%
%ADD41MACRO41*%
%AMMACRO42*
21,1,0.023622,0.059055,0.000000,0.000000,90.000000*
%
%ADD42MACRO42*%
%ADD43R,0.0332X0.0371*%
%AMMACRO44*
21,1,0.032283,0.007578,0.000000,0.000000,180.000000*
%
%ADD44MACRO44*%
%AMMACRO45*
21,1,0.027607,0.007578,0.000000,0.000000,180.000000*
1,1,0.007578,0.013804,-0.000000*
1,1,0.007578,-0.013804,-0.000000*
1,1,0.007578,-0.013804,0.000000*
1,1,0.007578,0.013804,0.000000*
%
%ADD45MACRO45*%
%AMMACRO46*
21,1,0.025887,0.007578,0.000000,0.000000,180.000000*
1,1,0.007578,0.012943,-0.000000*
1,1,0.007578,-0.012943,-0.000000*
1,1,0.007578,-0.012943,0.000000*
1,1,0.007578,0.012943,0.000000*
%
%ADD46MACRO46*%
%AMMACRO47*
21,1,0.007578,0.025887,0.000000,0.000000,180.000000*
1,1,0.007578,0.000000,-0.012943*
1,1,0.007578,-0.000000,-0.012943*
1,1,0.007578,-0.000000,0.012943*
1,1,0.007578,0.000000,0.012943*
%
%ADD47MACRO47*%
%AMMACRO48*
21,1,0.007578,0.027607,0.000000,0.000000,180.000000*
1,1,0.007578,0.000000,-0.013804*
1,1,0.007578,-0.000000,-0.013804*
1,1,0.007578,-0.000000,0.013804*
1,1,0.007578,0.000000,0.013804*
%
%ADD48MACRO48*%
%AMMACRO49*
21,1,0.007578,0.024706,0.000000,0.000000,180.000000*
1,1,0.007578,0.000000,-0.012353*
1,1,0.007578,-0.000000,-0.012353*
1,1,0.007578,-0.000000,0.012353*
1,1,0.007578,0.000000,0.012353*
%
%ADD49MACRO49*%
%AMMACRO50*
21,1,0.062992,0.062992,0.000000,0.000000,270.000000*
%
%ADD50MACRO50*%
%AMMACRO51*
21,1,0.062992,0.011811,0.000000,0.000000,180.000000*
%
%ADD51MACRO51*%
%AMMACRO52*
21,1,0.051181,0.011811,0.000000,0.000000,180.000000*
1,1,0.011811,0.025591,-0.000000*
1,1,0.011811,-0.025591,-0.000000*
1,1,0.011811,-0.025591,0.000000*
1,1,0.011811,0.025591,0.000000*
%
%ADD52MACRO52*%
%AMMACRO53*
21,1,0.051181,0.011811,0.000000,0.000000,360.000000*
1,1,0.011811,-0.025591,0.000000*
1,1,0.011811,0.025591,0.000000*
1,1,0.011811,0.025591,-0.000000*
1,1,0.011811,-0.025591,0.000000*
%
%ADD53MACRO53*%
G04 --Start main section--*
G54D10*
G01X0000000Y0000000D02*
G01X0085906Y0000000D01*
G01X0085906Y0000000D02*
G01X0085906Y0050591D01*
G01X0085906Y0050591D02*
G01X0000000Y0050591D01*
G01X0000000Y0050591D02*
G01X0000000Y0000000D01*
G01X0000000Y0000000D02*
G54D11*
G01X0081319Y0034148D03*
G01X0013750Y0033661D03*
G01X0001975Y0042106D03*
G01X0077287Y0046675D03*
G01X0021955Y0042215D03*
G01X0035758Y0034026D03*
G01X0026142Y0041841D03*
G01X0082963Y0006801D03*
G01X0078868Y0035384D03*
G01X0012313Y0014350D03*
G01X0007362Y0029419D03*
G01X0082825Y0032638D03*
G01X0023540Y0049803D03*
G01X0042963Y0034409D03*
G01X0004745Y0015945D03*
G01X0003432Y0040080D03*
G01X0061500Y0030884D03*
G01X0011172Y0015049D03*
G01X0081612Y0040770D03*
G01X0010925Y0034373D03*
G01X0020702Y0030000D03*
G01X0027050Y0046675D03*
G01X0025138Y0034754D03*
G01X0003268Y0014085D03*
G01X0084045Y0009911D03*
G01X0078680Y0038972D03*
G01X0045800Y0038758D03*
G01X0027047Y0032746D03*
G01X0014269Y0032411D03*
G01X0025289Y0037057D03*
G01X0084715Y0037926D03*
G01X0007736Y0032205D03*
G01X0026464Y0042790D03*
G01X0003445Y0016014D03*
G01X0029587Y0032750D03*
G01X0008396Y0039656D03*
G01X0084872Y0016348D03*
G01X0001833Y0033789D03*
G01X0073423Y0038972D03*
G01X0010020Y0003947D03*
G01X0004882Y0023002D03*
G01X0050090Y0030896D03*
G01X0084764Y0038573D03*
G01X0003494Y0031671D03*
G01X0035502Y0033504D03*
G01X0080059Y0034575D03*
G01X0034951Y0040915D03*
G01X0079140Y0029860D03*
G01X0080404Y0036772D03*
G01X0061560Y0046632D03*
G01X0073660Y0046634D03*
G01X0083094Y0040560D03*
G01X0083661Y0034148D03*
G01X0081380Y0028860D03*
G01X0009370Y0032144D03*
G01X0025069Y0041841D03*
G01X0077736Y0035010D03*
G01X0014281Y0011309D03*
G01X0011424Y0016319D03*
G01X0016821Y0037530D03*
G01X0083963Y0037854D03*
G01X0082024Y0037687D03*
G01X0053490Y0046632D03*
G01X0029660Y0037130D03*
G01X0043071Y0033445D03*
G01X0082520Y0037470D03*
G01X0034220Y0046683D03*
G01X0002992Y0034144D03*
G01X0021906Y0033728D03*
G01X0011634Y0011800D03*
G01X0003445Y0021988D03*
G01X0004321Y0029193D03*
G01X0030085Y0030930D03*
G01X0028217Y0034951D03*
G01X0014232Y0013992D03*
G01X0045740Y0030884D03*
G01X0003583Y0034203D03*
G01X0012160Y0031292D03*
G01X0012411Y0015744D03*
G01X0019872Y0029237D03*
G01X0074006Y0038055D03*
G01X0009283Y0031112D03*
G01X0084508Y0012628D03*
G01X0010482Y0045048D03*
G01X0074990Y0030005D03*
G01X0005482Y0037785D03*
G01X0006292Y0047992D03*
G01X0050090Y0046624D03*
G01X0007343Y0048612D03*
G01X0015551Y0031299D03*
G01X0073602Y0030886D03*
G01X0007854Y0031545D03*
G01X0015545Y0030610D03*
G01X0057870Y0030906D03*
G01X0004321Y0015650D03*
G01X0002362Y0024000D03*
G01X0069370Y0046632D03*
G01X0058030Y0046624D03*
G01X0003383Y0038990D03*
G01X0011635Y0008460D03*
G01X0058711Y0006476D03*
G01X0084951Y0043573D03*
G01X0017900Y0044770D03*
G01X0082683Y0043580D03*
G01X0014449Y0041675D03*
G01X0005945Y0029547D03*
G01X0019134Y0031457D03*
G01X0018240Y0035358D03*
G01X0014111Y0031272D03*
G01X0080610Y0036266D03*
G01X0014232Y0012269D03*
G01X0003494Y0032317D03*
G01X0045730Y0046632D03*
G01X0021476Y0043002D03*
G01X0066220Y0046634D03*
G01X0013209Y0028366D03*
G01X0084843Y0015817D03*
G01X0002490Y0034203D03*
G01X0066850Y0037057D03*
G01X0042467Y0034016D03*
G01X0082870Y0038028D03*
G01X0006555Y0040965D03*
G01X0012640Y0037205D03*
G01X0037920Y0038758D03*
G01X0028420Y0032400D03*
G01X0067382Y0040797D03*
G01X0029587Y0034232D03*
G01X0030260Y0035460D03*
G01X0038022Y0006870D03*
G01X0002520Y0031713D03*
G01X0013829Y0028917D03*
G01X0013750Y0037283D03*
G01X0072642Y0036329D03*
G01X0015955Y0008130D03*
G01X0018104Y0033486D03*
G01X0082110Y0028370D03*
G01X0034160Y0038720D03*
G01X0006880Y0033970D03*
G01X0070080Y0046632D03*
G01X0014429Y0010748D03*
G01X0012904Y0040512D03*
G01X0084783Y0015246D03*
G01X0080548Y0046030D03*
G01X0053640Y0038720D03*
G01X0023504Y0046004D03*
G01X0018888Y0033358D03*
G01X0035837Y0040915D03*
G01X0072756Y0006870D03*
G01X0004587Y0024144D03*
G01X0084340Y0034035D03*
G01X0004921Y0015049D03*
G01X0084764Y0039162D03*
G01X0041368Y0006467D03*
G01X0022954Y0034431D03*
G01X0017953Y0003937D03*
G01X0009947Y0032733D03*
G01X0076014Y0006526D03*
G01X0012791Y0034459D03*
G01X0070880Y0038800D03*
G01X0050778Y0033317D03*
G01X0027049Y0036880D03*
G01X0057930Y0038758D03*
G01X0084951Y0041407D03*
G01X0013750Y0032707D03*
G01X0069410Y0030886D03*
G01X0083730Y0035491D03*
G01X0043504Y0033927D03*
G01X0006758Y0033198D03*
G01X0007756Y0037697D03*
G01X0024540Y0042736D03*
G01X0018510Y0036153D03*
G01X0012760Y0016437D03*
G01X0029660Y0038772D03*
G01X0011596Y0015404D03*
G01X0065810Y0038758D03*
G01X0065810Y0030886D03*
G01X0010359Y0041339D03*
G01X0080610Y0034281D03*
G01X0022827Y0042736D03*
G01X0010962Y0010600D03*
G01X0022815Y0042215D03*
G01X0082660Y0030150D03*
G01X0053610Y0030884D03*
G01X0049920Y0038758D03*
G01X0012598Y0008661D03*
G01X0021955Y0042736D03*
G01X0037910Y0046632D03*
G01X0008411Y0029075D03*
G01X0022384Y0045350D03*
G01X0018300Y0034193D03*
G01X0022952Y0032835D03*
G01X0036150Y0032440D03*
G01X0066240Y0037057D03*
G01X0079518Y0034852D03*
G01X0025531Y0042608D03*
G01X0035067Y0033219D03*
G01X0011043Y0013122D03*
G01X0034390Y0030886D03*
G01X0005750Y0036626D03*
G01X0016754Y0033506D03*
G01X0052323Y0006447D03*
G01X0023562Y0030828D03*
G01X0017815Y0030526D03*
G01X0083307Y0033782D03*
G01X0006201Y0041378D03*
G01X0006565Y0044980D03*
G01X0011447Y0029183D03*
G01X0084125Y0038343D03*
G01X0010079Y0015049D03*
G01X0009953Y0033663D03*
G01X0034783Y0034144D03*
G01X0026440Y0030884D03*
G01X0021880Y0039110D03*
G01X0034331Y0033740D03*
G01X0010710Y0031791D03*
G01X0031801Y0031098D03*
G01X0072402Y0035443D03*
G01X0022136Y0034350D03*
G01X0012795Y0028799D03*
G01X0021988Y0043652D03*
G01X0083630Y0040829D03*
G01X0072520Y0037550D03*
G01X0083094Y0042190D03*
G01X0025275Y0044910D03*
G01X0055433Y0006841D03*
G01X0019281Y0049650D03*
G01X0025128Y0036004D03*
G01X0014281Y0013355D03*
G01X0067461Y0006339D03*
G01X0025827Y0038219D03*
G01X0050187Y0033878D03*
G01X0022254Y0028933D03*
G01X0030040Y0046632D03*
G01X0016821Y0038470D03*
G01X0010039Y0009598D03*
G01X0025067Y0033287D03*
G01X0083022Y0013041D03*
G01X0082579Y0036550D03*
G01X0003878Y0032988D03*
G01X0085148Y0040630D03*
G01X0065748Y0033022D03*
G01X0082192Y0029340D03*
G01X0004444Y0028031D03*
G01X0009011Y0010389D03*
G01X0009931Y0031368D03*
G01X0014530Y0012680D03*
G01X0022136Y0034946D03*
G01X0004075Y0035728D03*
G01X0008858Y0028386D03*
G01X0012002Y0014760D03*
G01X0023540Y0046942D03*
G01X0025128Y0034055D03*
G01X0084104Y0045354D03*
G01X0029587Y0007165D03*
G01X0078719Y0031098D03*
G01X0004417Y0033976D03*
G01X0023420Y0031469D03*
G01X0042100Y0030884D03*
G01X0022402Y0033170D03*
G01X0013406Y0014230D03*
G01X0037360Y0030884D03*
G01X0023562Y0038972D03*
G01X0013711Y0009252D03*
G01X0029530Y0035460D03*
G01X0004535Y0009706D03*
G01X0042310Y0038710D03*
G01X0080266Y0040018D03*
G01X0004665Y0016663D03*
G01X0066257Y0040620D03*
G01X0011583Y0031791D03*
G01X0083396Y0028730D03*
G01X0063907Y0006900D03*
G01X0001772Y0041453D03*
G01X0042080Y0046644D03*
G01X0083120Y0022431D03*
G01X0061290Y0038710D03*
G01X0032726Y0006467D03*
G01X0025128Y0035433D03*
G01X0017813Y0041831D03*
G54D12*
G01X0027825Y0049510D03*
G01X0025825Y0049510D03*
G54D13*
G01X0027159Y0049510D03*
G01X0026490Y0049510D03*
G54D14*
G01X0033100Y0030884D03*
G01X0033770Y0030884D03*
G54D15*
G01X0070039Y0040018D03*
G54D16*
G01X0071693Y0038758D03*
G01X0070039Y0038758D03*
G01X0071693Y0040018D03*
G01X0071693Y0039388D03*
G01X0070039Y0039388D03*
G54D12*
G01X0017311Y0031026D03*
G54D17*
G01X0005276Y0012874D03*
G54D18*
G01X0005276Y0011811D03*
G01X0005276Y0010748D03*
G01X0006811Y0009213D03*
G01X0007874Y0009213D03*
G01X0008937Y0009213D03*
G01X0007874Y0013622D03*
G01X0009685Y0011811D03*
G54D19*
G01X0018978Y0041026D03*
G01X0019647Y0041026D03*
G54D12*
G01X0018313Y0041026D03*
G01X0020313Y0041026D03*
G01X0044484Y0036417D03*
G01X0044484Y0035433D03*
G01X0044484Y0034449D03*
G54D20*
G01X0047244Y0037163D03*
G01X0047244Y0033703D03*
G54D12*
G01X0026545Y0016801D03*
G54D21*
G01X0083383Y0038059D03*
G01X0083383Y0037389D03*
G54D15*
G01X0038543Y0047892D03*
G54D16*
G01X0040197Y0046632D03*
G01X0038543Y0046632D03*
G01X0040197Y0047892D03*
G01X0040197Y0047262D03*
G01X0038543Y0047262D03*
G54D15*
G01X0054291Y0040018D03*
G54D16*
G01X0055945Y0038758D03*
G01X0054291Y0038758D03*
G01X0055945Y0040018D03*
G01X0055945Y0039388D03*
G01X0054291Y0039388D03*
G54D22*
G01X0003161Y0009872D03*
G01X0003161Y0009242D03*
G54D12*
G01X0052358Y0036417D03*
G01X0052358Y0035433D03*
G01X0052358Y0034449D03*
G54D20*
G01X0055118Y0037163D03*
G01X0055118Y0033703D03*
G54D12*
G01X0019685Y0004000D03*
G54D14*
G01X0025780Y0046675D03*
G01X0026449Y0046675D03*
G54D12*
G01X0081506Y0030806D03*
G01X0081506Y0032806D03*
G54D23*
G01X0081506Y0031472D03*
G01X0081506Y0032141D03*
G54D14*
G01X0025177Y0030886D03*
G01X0025846Y0030886D03*
G01X0041063Y0038758D03*
G01X0041732Y0038758D03*
G54D24*
G01X0000866Y0049685D03*
G01X0000866Y0048937D03*
G01X0001654Y0049311D03*
G54D14*
G01X0065010Y0046634D03*
G01X0065679Y0046634D03*
G54D21*
G01X0072520Y0038758D03*
G01X0072520Y0038089D03*
G54D12*
G01X0020862Y0044291D03*
G01X0020862Y0043307D03*
G01X0020862Y0042323D03*
G54D20*
G01X0023622Y0045037D03*
G01X0023622Y0041577D03*
G54D12*
G01X0036610Y0036417D03*
G01X0036610Y0035433D03*
G01X0036610Y0034449D03*
G54D20*
G01X0039370Y0037163D03*
G01X0039370Y0033703D03*
G54D14*
G01X0064626Y0030884D03*
G01X0065295Y0030884D03*
G54D15*
G01X0007047Y0032144D03*
G54D16*
G01X0008701Y0030884D03*
G01X0007047Y0030884D03*
G01X0008701Y0032144D03*
G01X0008701Y0031514D03*
G01X0007047Y0031514D03*
G54D25*
G01X0005319Y0035030D03*
G54D26*
G01X0006319Y0035030D03*
G01X0007319Y0035030D03*
G01X0008319Y0035030D03*
G01X0009319Y0035030D03*
G01X0010319Y0035030D03*
G01X0011319Y0035030D03*
G01X0012319Y0035030D03*
G01X0005319Y0036030D03*
G01X0006319Y0036030D03*
G01X0007319Y0036030D03*
G01X0008319Y0036030D03*
G01X0009319Y0036030D03*
G01X0010319Y0036030D03*
G01X0011319Y0036030D03*
G01X0012319Y0036030D03*
G54D12*
G01X0018130Y0019820D03*
G54D14*
G01X0048888Y0030884D03*
G01X0049557Y0030884D03*
G54D21*
G01X0002116Y0045246D03*
G01X0002116Y0044577D03*
G54D12*
G01X0016314Y0033026D03*
G01X0014314Y0033026D03*
G54D13*
G01X0015649Y0033026D03*
G01X0014980Y0033026D03*
G54D12*
G01X0084389Y0032833D03*
G01X0084389Y0030833D03*
G54D27*
G01X0084389Y0032167D03*
G01X0084389Y0031498D03*
G54D12*
G01X0083602Y0030833D03*
G01X0083602Y0032833D03*
G54D23*
G01X0083602Y0031498D03*
G01X0083602Y0032167D03*
G54D14*
G01X0056693Y0030927D03*
G01X0057362Y0030927D03*
G01X0072549Y0046634D03*
G01X0073219Y0046634D03*
G01X0025157Y0038758D03*
G01X0025827Y0038758D03*
G01X0033051Y0046683D03*
G01X0033720Y0046683D03*
G54D15*
G01X0014921Y0032144D03*
G54D16*
G01X0016575Y0030884D03*
G01X0014921Y0030884D03*
G01X0016575Y0032144D03*
G01X0016575Y0031514D03*
G01X0014921Y0031514D03*
G54D12*
G01X0002776Y0040526D03*
G01X0002776Y0042526D03*
G54D23*
G01X0002776Y0041191D03*
G01X0002776Y0041860D03*
G54D12*
G01X0018090Y0027844D03*
G01X0017311Y0039026D03*
G54D28*
G01X0015677Y0041884D03*
G01X0015007Y0041884D03*
G54D29*
G01X0083386Y0044075D03*
G01X0083386Y0044705D03*
G54D12*
G01X0016311Y0039026D03*
G01X0019685Y0001000D03*
G01X0028736Y0044291D03*
G01X0028736Y0043307D03*
G01X0028736Y0042323D03*
G54D20*
G01X0031496Y0045037D03*
G01X0031496Y0041577D03*
G54D15*
G01X0038543Y0040018D03*
G54D16*
G01X0040197Y0038758D03*
G01X0038543Y0038758D03*
G01X0040197Y0040018D03*
G01X0040197Y0039388D03*
G01X0038543Y0039388D03*
G54D15*
G01X0022824Y0032144D03*
G54D16*
G01X0024477Y0030884D03*
G01X0022824Y0030884D03*
G01X0024477Y0032144D03*
G01X0024477Y0031514D03*
G01X0022824Y0031514D03*
G54D12*
G01X0029287Y0030884D03*
G01X0027287Y0030884D03*
G54D13*
G01X0028622Y0030884D03*
G01X0027953Y0030884D03*
G54D12*
G01X0011311Y0039026D03*
G54D14*
G01X0040965Y0046644D03*
G01X0041634Y0046644D03*
G54D12*
G01X0003443Y0045026D03*
G01X0003443Y0043026D03*
G54D27*
G01X0003443Y0044360D03*
G01X0003443Y0043691D03*
G54D12*
G01X0016342Y0040095D03*
G01X0014342Y0040095D03*
G54D13*
G01X0015677Y0040095D03*
G01X0015007Y0040095D03*
G54D21*
G01X0083065Y0037010D03*
G01X0083065Y0036341D03*
G54D14*
G01X0056703Y0038758D03*
G01X0057372Y0038758D03*
G54D12*
G01X0060232Y0044291D03*
G01X0060232Y0043307D03*
G01X0060232Y0042323D03*
G54D20*
G01X0062992Y0045037D03*
G01X0062992Y0041577D03*
G54D12*
G01X0008311Y0039026D03*
G01X0018811Y0045630D03*
G01X0012480Y0042038D03*
G01X0012480Y0044038D03*
G54D23*
G01X0012480Y0042703D03*
G01X0012480Y0043372D03*
G54D14*
G01X0009815Y0030884D03*
G01X0010484Y0030884D03*
G54D30*
G01X0080266Y0038799D03*
G01X0080266Y0039469D03*
G54D12*
G01X0019685Y0002000D03*
G01X0004026Y0045482D03*
G01X0068106Y0036417D03*
G01X0068106Y0035433D03*
G01X0068106Y0034449D03*
G54D20*
G01X0070866Y0037163D03*
G01X0070866Y0033703D03*
G54D31*
G01X0004321Y0030026D03*
G54D12*
G01X0005321Y0030026D03*
G01X0006321Y0030026D03*
G01X0007321Y0030026D03*
G01X0008321Y0030026D03*
G01X0009321Y0030026D03*
G01X0010321Y0030026D03*
G01X0011321Y0030026D03*
G01X0012321Y0030026D03*
G01X0013321Y0030026D03*
G01X0014321Y0030026D03*
G01X0015321Y0030026D03*
G01X0016321Y0030026D03*
G01X0017321Y0030026D03*
G01X0018321Y0030026D03*
G01X0019321Y0030026D03*
G01X0019321Y0038026D03*
G01X0018321Y0038026D03*
G01X0017321Y0038026D03*
G01X0016321Y0038026D03*
G01X0015321Y0038026D03*
G01X0014321Y0038026D03*
G01X0013321Y0038026D03*
G01X0012321Y0038026D03*
G01X0011321Y0038026D03*
G01X0010321Y0038026D03*
G01X0009321Y0038026D03*
G01X0008321Y0038026D03*
G01X0019685Y0008000D03*
G54D29*
G01X0082959Y0031478D03*
G01X0082959Y0032108D03*
G54D12*
G01X0009311Y0039026D03*
G01X0022825Y0049510D03*
G01X0020825Y0049510D03*
G54D13*
G01X0022159Y0049510D03*
G01X0021490Y0049510D03*
G54D32*
G01X0011087Y0012077D03*
G54D33*
G01X0011087Y0011919D03*
G01X0011087Y0011762D03*
G01X0011087Y0011604D03*
G54D34*
G01X0011087Y0011447D03*
G01X0012181Y0011447D03*
G54D33*
G01X0012181Y0011604D03*
G01X0012181Y0011762D03*
G01X0012181Y0011919D03*
G54D34*
G01X0012181Y0012077D03*
G54D35*
G01X0011319Y0011215D03*
G54D36*
G01X0011476Y0011215D03*
G01X0011634Y0011215D03*
G01X0011791Y0011215D03*
G54D35*
G01X0011949Y0011215D03*
G01X0011949Y0012309D03*
G54D36*
G01X0011791Y0012309D03*
G01X0011634Y0012309D03*
G01X0011476Y0012309D03*
G54D37*
G01X0011319Y0012309D03*
G54D12*
G01X0013110Y0043557D03*
G01X0013110Y0045557D03*
G54D23*
G01X0013110Y0044223D03*
G01X0013110Y0044892D03*
G54D12*
G01X0019685Y0010000D03*
G01X0042420Y0016398D03*
G01X0027825Y0048510D03*
G01X0025825Y0048510D03*
G54D13*
G01X0027159Y0048510D03*
G01X0026490Y0048510D03*
G54D12*
G01X0014314Y0039026D03*
G54D14*
G01X0056850Y0046624D03*
G01X0057520Y0046624D03*
G54D24*
G01X0003577Y0037067D03*
G01X0003577Y0036319D03*
G01X0004364Y0036693D03*
G54D12*
G01X0019685Y0011000D03*
G01X0019685Y0006000D03*
G54D38*
G01X0020811Y0047500D03*
G01X0019811Y0047500D03*
G01X0018811Y0047500D03*
G01X0017811Y0047500D03*
G01X0016811Y0047500D03*
G01X0015811Y0047500D03*
G01X0014811Y0047500D03*
G01X0013811Y0047500D03*
G01X0012811Y0047500D03*
G01X0011811Y0047500D03*
G01X0010811Y0047500D03*
G01X0009811Y0047500D03*
G01X0008811Y0047500D03*
G01X0007811Y0047500D03*
G01X0006811Y0047500D03*
G01X0005811Y0047500D03*
G01X0004811Y0047500D03*
G01X0003811Y0047500D03*
G01X0002811Y0047500D03*
G01X0021811Y0046500D03*
G01X0020811Y0046500D03*
G01X0019811Y0046500D03*
G01X0018811Y0046500D03*
G01X0017811Y0046500D03*
G01X0016811Y0046500D03*
G01X0015811Y0046500D03*
G01X0014811Y0046500D03*
G01X0013811Y0046500D03*
G01X0012811Y0046500D03*
G01X0011811Y0046500D03*
G01X0010811Y0046500D03*
G01X0009811Y0046500D03*
G01X0008811Y0046500D03*
G01X0007811Y0046500D03*
G01X0006811Y0046500D03*
G01X0005811Y0046500D03*
G01X0004811Y0046500D03*
G01X0003811Y0046500D03*
G01X0002811Y0046500D03*
G54D39*
G01X0021811Y0047500D03*
G54D12*
G01X0018311Y0031026D03*
G54D40*
G01X0018311Y0032795D03*
G01X0018311Y0032421D03*
G01X0018311Y0032047D03*
G01X0019374Y0032047D03*
G01X0019374Y0032795D03*
G54D14*
G01X0040886Y0030888D03*
G01X0041555Y0030888D03*
G54D29*
G01X0018583Y0012697D03*
G01X0018583Y0013327D03*
G54D41*
G01X0004487Y0013899D03*
G01X0003857Y0013899D03*
G54D21*
G01X0011092Y0009730D03*
G01X0011092Y0009061D03*
G54D12*
G01X0005311Y0033006D03*
G01X0005311Y0031006D03*
G54D27*
G01X0005311Y0032341D03*
G01X0005311Y0031671D03*
G54D42*
G01X0019518Y0033476D03*
G01X0019518Y0033976D03*
G01X0019518Y0034476D03*
G01X0019518Y0034976D03*
G01X0019518Y0035476D03*
G01X0019518Y0035976D03*
G01X0019518Y0036476D03*
G01X0019518Y0036976D03*
G01X0017392Y0036976D03*
G01X0017392Y0036476D03*
G01X0017392Y0035976D03*
G01X0017392Y0035476D03*
G01X0017392Y0034976D03*
G01X0017392Y0034476D03*
G01X0017392Y0033976D03*
G01X0017392Y0033476D03*
G54D19*
G01X0020420Y0048444D03*
G01X0021089Y0048444D03*
G54D12*
G01X0019755Y0048444D03*
G01X0021755Y0048444D03*
G54D15*
G01X0030669Y0047892D03*
G54D16*
G01X0032323Y0046632D03*
G01X0030669Y0046632D03*
G01X0032323Y0047892D03*
G01X0032323Y0047262D03*
G01X0030669Y0047262D03*
G54D15*
G01X0062165Y0032144D03*
G54D16*
G01X0063819Y0030884D03*
G01X0062165Y0030884D03*
G01X0063819Y0032144D03*
G01X0063819Y0031514D03*
G01X0062165Y0031514D03*
G54D12*
G01X0019685Y0005000D03*
G54D14*
G01X0081630Y0038515D03*
G01X0082299Y0038515D03*
G54D12*
G01X0034518Y0016654D03*
G01X0002811Y0045482D03*
G54D14*
G01X0019901Y0032840D03*
G01X0020570Y0032840D03*
G54D15*
G01X0038543Y0032144D03*
G54D16*
G01X0040197Y0030884D03*
G01X0038543Y0030884D03*
G01X0040197Y0032144D03*
G01X0040197Y0031514D03*
G01X0038543Y0031514D03*
G54D12*
G01X0010410Y0027352D03*
G01X0019045Y0030738D03*
G01X0017811Y0045600D03*
G01X0002189Y0014002D03*
G01X0002189Y0012002D03*
G54D27*
G01X0002189Y0013337D03*
G01X0002189Y0012667D03*
G54D21*
G01X0083106Y0041728D03*
G01X0083106Y0041059D03*
G54D12*
G01X0057638Y0028360D03*
G01X0003346Y0010874D03*
G01X0003346Y0012874D03*
G54D23*
G01X0003346Y0011539D03*
G01X0003346Y0012209D03*
G54D12*
G01X0080994Y0040329D03*
G01X0080994Y0038329D03*
G54D27*
G01X0080994Y0039663D03*
G01X0080994Y0038994D03*
G54D15*
G01X0070059Y0032146D03*
G54D16*
G01X0071713Y0030886D03*
G01X0070059Y0030886D03*
G01X0071713Y0032146D03*
G01X0071713Y0031516D03*
G01X0070059Y0031516D03*
G54D12*
G01X0001181Y0047000D03*
G01X0001181Y0048000D03*
G01X0082067Y0020600D03*
G01X0019685Y0013000D03*
G01X0041516Y0028317D03*
G01X0075980Y0044291D03*
G01X0075980Y0043307D03*
G01X0075980Y0042323D03*
G54D20*
G01X0078740Y0045037D03*
G01X0078740Y0041577D03*
G54D12*
G01X0002303Y0022992D03*
G01X0002303Y0020992D03*
G54D27*
G01X0002303Y0022327D03*
G01X0002303Y0021657D03*
G54D22*
G01X0011078Y0014243D03*
G01X0011078Y0013613D03*
G54D30*
G01X0017392Y0031728D03*
G01X0017392Y0032398D03*
G54D19*
G01X0014960Y0034026D03*
G01X0015630Y0034026D03*
G54D12*
G01X0014295Y0034026D03*
G01X0016295Y0034026D03*
G54D15*
G01X0070039Y0047892D03*
G54D16*
G01X0071693Y0046632D03*
G01X0070039Y0046632D03*
G01X0071693Y0047892D03*
G01X0071693Y0047262D03*
G01X0070039Y0047262D03*
G54D12*
G01X0028530Y0038762D03*
G01X0026530Y0038762D03*
G54D13*
G01X0027864Y0038762D03*
G01X0027195Y0038762D03*
G54D12*
G01X0021969Y0032185D03*
G01X0016295Y0035026D03*
G01X0014295Y0035026D03*
G54D13*
G01X0015630Y0035026D03*
G01X0014960Y0035026D03*
G54D15*
G01X0046417Y0040018D03*
G54D16*
G01X0048071Y0038758D03*
G01X0046417Y0038758D03*
G01X0048071Y0040018D03*
G01X0048071Y0039388D03*
G01X0046417Y0039388D03*
G54D15*
G01X0030669Y0032144D03*
G54D16*
G01X0032323Y0030884D03*
G01X0030669Y0030884D03*
G01X0032323Y0032144D03*
G01X0032323Y0031514D03*
G01X0030669Y0031514D03*
G54D12*
G01X0019685Y0007000D03*
G01X0019685Y0015000D03*
G54D14*
G01X0048868Y0046624D03*
G01X0049537Y0046624D03*
G54D15*
G01X0077913Y0032144D03*
G54D16*
G01X0079567Y0030884D03*
G01X0077913Y0030884D03*
G01X0079567Y0032144D03*
G01X0079567Y0031514D03*
G01X0077913Y0031514D03*
G54D19*
G01X0005059Y0039970D03*
G01X0005728Y0039970D03*
G54D12*
G01X0004394Y0039970D03*
G01X0006394Y0039970D03*
G54D15*
G01X0062165Y0047892D03*
G54D16*
G01X0063819Y0046632D03*
G01X0062165Y0046632D03*
G01X0063819Y0047892D03*
G01X0063819Y0047262D03*
G01X0062165Y0047262D03*
G54D15*
G01X0077913Y0047892D03*
G54D16*
G01X0079567Y0046632D03*
G01X0077913Y0046632D03*
G01X0079567Y0047892D03*
G01X0079567Y0047262D03*
G01X0077913Y0047262D03*
G54D12*
G01X0034744Y0028533D03*
G01X0028736Y0036417D03*
G01X0028736Y0035433D03*
G01X0028736Y0034449D03*
G54D20*
G01X0031496Y0037163D03*
G01X0031496Y0033703D03*
G54D43*
G01X0083740Y0030150D03*
G01X0084370Y0030150D03*
G54D12*
G01X0060232Y0036417D03*
G01X0060232Y0035433D03*
G01X0060232Y0034449D03*
G54D20*
G01X0062992Y0037163D03*
G01X0062992Y0033703D03*
G54D12*
G01X0065531Y0028000D03*
G54D21*
G01X0080364Y0031326D03*
G01X0080364Y0030656D03*
G54D12*
G01X0015311Y0039026D03*
G01X0068106Y0044291D03*
G01X0068106Y0043307D03*
G01X0068106Y0042323D03*
G54D20*
G01X0070866Y0045037D03*
G01X0070866Y0041577D03*
G54D28*
G01X0021140Y0032268D03*
G01X0020470Y0032268D03*
G54D12*
G01X0019685Y0012000D03*
G54D19*
G01X0025746Y0046004D03*
G01X0026416Y0046004D03*
G54D12*
G01X0025081Y0046004D03*
G01X0027081Y0046004D03*
G01X0019685Y0014000D03*
G01X0001181Y0045000D03*
G01X0001181Y0046000D03*
G01X0020313Y0039026D03*
G01X0018313Y0039026D03*
G54D13*
G01X0019647Y0039026D03*
G01X0018978Y0039026D03*
G54D28*
G01X0084589Y0033543D03*
G01X0083920Y0033543D03*
G54D42*
G01X0019321Y0041557D03*
G01X0019321Y0042057D03*
G01X0019321Y0042557D03*
G01X0019321Y0043057D03*
G01X0019321Y0043557D03*
G01X0019321Y0044057D03*
G01X0019321Y0044557D03*
G01X0019321Y0045057D03*
G01X0017195Y0045057D03*
G01X0017195Y0044557D03*
G01X0017195Y0044057D03*
G01X0017195Y0043557D03*
G01X0017195Y0043057D03*
G01X0017195Y0042557D03*
G01X0017195Y0042057D03*
G01X0017195Y0041557D03*
G54D12*
G01X0010280Y0019880D03*
G54D30*
G01X0010541Y0009061D03*
G01X0010541Y0009730D03*
G54D12*
G01X0012791Y0033750D03*
G01X0010791Y0033750D03*
G54D13*
G01X0012126Y0033750D03*
G01X0011456Y0033750D03*
G54D19*
G01X0014980Y0037026D03*
G01X0015649Y0037026D03*
G54D12*
G01X0014314Y0037026D03*
G01X0016314Y0037026D03*
G01X0004276Y0012874D03*
G01X0004276Y0010874D03*
G54D27*
G01X0004276Y0012209D03*
G01X0004276Y0011539D03*
G54D12*
G01X0073550Y0028280D03*
G54D15*
G01X0054291Y0032144D03*
G54D16*
G01X0055945Y0030884D03*
G01X0054291Y0030884D03*
G01X0055945Y0032144D03*
G01X0055945Y0031514D03*
G01X0054291Y0031514D03*
G54D12*
G01X0058228Y0015620D03*
G54D29*
G01X0081746Y0039281D03*
G01X0081746Y0039911D03*
G54D12*
G01X0049900Y0016152D03*
G01X0073320Y0016090D03*
G54D15*
G01X0030669Y0040018D03*
G54D16*
G01X0032323Y0038758D03*
G01X0030669Y0038758D03*
G01X0032323Y0040018D03*
G01X0032323Y0039388D03*
G01X0030669Y0039388D03*
G54D15*
G01X0062165Y0040018D03*
G54D16*
G01X0063819Y0038758D03*
G01X0062165Y0038758D03*
G01X0063819Y0040018D03*
G01X0063819Y0039388D03*
G01X0062165Y0039388D03*
G54D12*
G01X0013311Y0039026D03*
G54D22*
G01X0083581Y0036939D03*
G01X0083581Y0036309D03*
G54D19*
G01X0018978Y0040026D03*
G01X0019647Y0040026D03*
G54D12*
G01X0018313Y0040026D03*
G01X0020313Y0040026D03*
G54D15*
G01X0022795Y0047892D03*
G54D16*
G01X0024449Y0046632D03*
G01X0022795Y0046632D03*
G01X0024449Y0047892D03*
G01X0024449Y0047262D03*
G01X0022795Y0047262D03*
G54D12*
G01X0036610Y0044291D03*
G01X0036610Y0043307D03*
G01X0036610Y0042323D03*
G54D20*
G01X0039370Y0045037D03*
G01X0039370Y0041577D03*
G54D12*
G01X0010478Y0012311D03*
G01X0010478Y0014311D03*
G54D23*
G01X0010478Y0012977D03*
G01X0010478Y0013646D03*
G54D21*
G01X0011595Y0014276D03*
G01X0011595Y0013607D03*
G54D12*
G01X0025423Y0028366D03*
G54D19*
G01X0014960Y0036026D03*
G01X0015630Y0036026D03*
G54D12*
G01X0014295Y0036026D03*
G01X0016295Y0036026D03*
G54D44*
G01X0083283Y0034380D03*
G54D45*
G01X0083283Y0034537D03*
G01X0083283Y0034695D03*
G01X0083283Y0034852D03*
G54D46*
G01X0083283Y0035010D03*
G01X0082189Y0035010D03*
G54D45*
G01X0082189Y0034852D03*
G01X0082189Y0034695D03*
G01X0082189Y0034537D03*
G54D46*
G01X0082189Y0034380D03*
G54D47*
G01X0083051Y0035242D03*
G54D48*
G01X0082894Y0035242D03*
G01X0082736Y0035242D03*
G01X0082579Y0035242D03*
G54D47*
G01X0082421Y0035242D03*
G01X0082421Y0034148D03*
G54D48*
G01X0082579Y0034148D03*
G01X0082736Y0034148D03*
G01X0082894Y0034148D03*
G54D49*
G01X0083051Y0034148D03*
G54D12*
G01X0011811Y0042632D03*
G01X0011811Y0040632D03*
G54D27*
G01X0011811Y0041967D03*
G01X0011811Y0041298D03*
G54D14*
G01X0072406Y0030886D03*
G01X0073076Y0030886D03*
G54D32*
G01X0083046Y0039754D03*
G54D33*
G01X0083046Y0039596D03*
G01X0083046Y0039439D03*
G01X0083046Y0039281D03*
G54D34*
G01X0083046Y0039124D03*
G01X0084139Y0039124D03*
G54D33*
G01X0084139Y0039281D03*
G01X0084139Y0039439D03*
G01X0084139Y0039596D03*
G54D34*
G01X0084139Y0039754D03*
G54D35*
G01X0083278Y0038892D03*
G54D36*
G01X0083435Y0038892D03*
G01X0083593Y0038892D03*
G01X0083750Y0038892D03*
G54D35*
G01X0083907Y0038892D03*
G01X0083907Y0039986D03*
G54D36*
G01X0083750Y0039986D03*
G01X0083593Y0039986D03*
G01X0083435Y0039986D03*
G54D37*
G01X0083278Y0039986D03*
G54D19*
G01X0014976Y0044485D03*
G01X0015646Y0044485D03*
G54D12*
G01X0014311Y0044485D03*
G01X0016311Y0044485D03*
G54D15*
G01X0046417Y0032144D03*
G54D16*
G01X0048071Y0030884D03*
G01X0046417Y0030884D03*
G01X0048071Y0032144D03*
G01X0048071Y0031514D03*
G01X0046417Y0031514D03*
G54D12*
G01X0013311Y0031026D03*
G54D14*
G01X0032992Y0038758D03*
G01X0033661Y0038758D03*
G54D12*
G01X0004252Y0043307D03*
G01X0004252Y0041307D03*
G54D27*
G01X0004252Y0042642D03*
G01X0004252Y0041972D03*
G54D12*
G01X0066330Y0015807D03*
G01X0084222Y0035010D03*
G01X0084222Y0037010D03*
G54D23*
G01X0084222Y0035675D03*
G01X0084222Y0036344D03*
G54D12*
G01X0006335Y0038691D03*
G01X0004335Y0038691D03*
G54D13*
G01X0005669Y0038691D03*
G01X0005000Y0038691D03*
G54D14*
G01X0021140Y0032849D03*
G01X0021809Y0032849D03*
G54D12*
G01X0022037Y0031201D03*
G54D14*
G01X0080276Y0046654D03*
G01X0080945Y0046654D03*
G54D12*
G01X0019685Y0009000D03*
G54D15*
G01X0022795Y0040018D03*
G54D16*
G01X0024449Y0038758D03*
G01X0022795Y0038758D03*
G01X0024449Y0040018D03*
G01X0024449Y0039388D03*
G01X0022795Y0039388D03*
G54D15*
G01X0077913Y0040018D03*
G54D16*
G01X0079567Y0038758D03*
G01X0077913Y0038758D03*
G01X0079567Y0040018D03*
G01X0079567Y0039388D03*
G01X0077913Y0039388D03*
G54D19*
G01X0015007Y0042519D03*
G01X0015677Y0042519D03*
G54D12*
G01X0014342Y0042519D03*
G01X0016342Y0042519D03*
G54D15*
G01X0046417Y0047892D03*
G54D16*
G01X0048071Y0046632D03*
G01X0046417Y0046632D03*
G01X0048071Y0047892D03*
G01X0048071Y0047262D03*
G01X0046417Y0047262D03*
G54D19*
G01X0015007Y0040876D03*
G01X0015677Y0040876D03*
G54D12*
G01X0014342Y0040876D03*
G01X0016342Y0040876D03*
G54D14*
G01X0064508Y0038758D03*
G01X0065177Y0038758D03*
G54D12*
G01X0044484Y0044291D03*
G01X0044484Y0043307D03*
G01X0044484Y0042323D03*
G54D20*
G01X0047244Y0045037D03*
G01X0047244Y0041577D03*
G54D12*
G01X0080472Y0028730D03*
G01X0012772Y0032844D03*
G01X0010772Y0032844D03*
G54D13*
G01X0012106Y0032844D03*
G01X0011437Y0032844D03*
G54D30*
G01X0082122Y0036303D03*
G01X0082122Y0036972D03*
G54D14*
G01X0002860Y0035557D03*
G01X0003530Y0035557D03*
G54D12*
G01X0084017Y0043988D03*
G01X0084017Y0041988D03*
G54D27*
G01X0084017Y0043323D03*
G01X0084017Y0042654D03*
G54D12*
G01X0001181Y0042000D03*
G01X0001181Y0041000D03*
G01X0001181Y0040000D03*
G01X0001181Y0039000D03*
G01X0001181Y0038000D03*
G01X0001181Y0037000D03*
G01X0001181Y0036000D03*
G01X0001181Y0035000D03*
G01X0001181Y0034000D03*
G01X0001181Y0033000D03*
G01X0001181Y0032000D03*
G01X0001181Y0031000D03*
G01X0001181Y0030000D03*
G01X0001181Y0029000D03*
G01X0001181Y0028000D03*
G01X0001181Y0027000D03*
G01X0001181Y0026000D03*
G01X0001181Y0025000D03*
G01X0001211Y0024000D03*
G01X0001181Y0023000D03*
G01X0001181Y0022000D03*
G01X0001181Y0021000D03*
G01X0001181Y0020000D03*
G01X0001181Y0019000D03*
G01X0001211Y0018000D03*
G01X0001181Y0017000D03*
G01X0001211Y0016000D03*
G01X0001181Y0015000D03*
G01X0001181Y0014000D03*
G01X0001181Y0013000D03*
G01X0001181Y0012000D03*
G01X0001181Y0011000D03*
G01X0001181Y0010000D03*
G01X0001181Y0009000D03*
G01X0001181Y0008000D03*
G01X0001181Y0007000D03*
G01X0001181Y0006000D03*
G01X0001181Y0005000D03*
G01X0001211Y0004000D03*
G54D50*
G01X0001181Y0043000D03*
G54D12*
G01X0051171Y0029291D03*
G01X0075980Y0036417D03*
G01X0075980Y0035433D03*
G01X0075980Y0034449D03*
G54D20*
G01X0078740Y0037163D03*
G01X0078740Y0033703D03*
G54D12*
G01X0006311Y0031006D03*
G54D19*
G01X0014976Y0045489D03*
G01X0015646Y0045489D03*
G54D12*
G01X0014311Y0045489D03*
G01X0016311Y0045489D03*
G54D29*
G01X0084750Y0035865D03*
G01X0084750Y0036495D03*
G54D19*
G01X0008868Y0040465D03*
G01X0009537Y0040465D03*
G54D12*
G01X0008203Y0040465D03*
G01X0010203Y0040465D03*
G01X0002146Y0037000D03*
G01X0002146Y0035000D03*
G54D27*
G01X0002146Y0036335D03*
G01X0002146Y0035665D03*
G54D12*
G01X0082234Y0040329D03*
G01X0082234Y0042329D03*
G54D23*
G01X0082234Y0040994D03*
G01X0082234Y0041663D03*
G54D12*
G01X0002181Y0015000D03*
G01X0002181Y0017000D03*
G54D23*
G01X0002181Y0015665D03*
G01X0002181Y0016335D03*
G54D51*
G01X0019935Y0031610D03*
G54D52*
G01X0019935Y0031354D03*
G01X0019935Y0031098D03*
G01X0019935Y0030843D03*
G54D53*
G01X0021274Y0030843D03*
G01X0021274Y0031098D03*
G01X0021274Y0031354D03*
G01X0021274Y0031610D03*
G54D17*
G01X0013150Y0012874D03*
G54D18*
G01X0013150Y0011811D03*
G01X0013150Y0010748D03*
G01X0014685Y0009213D03*
G01X0015748Y0009213D03*
G01X0016811Y0009213D03*
G01X0015748Y0013622D03*
G01X0017559Y0011811D03*
G54D14*
G01X0048780Y0038758D03*
G01X0049449Y0038758D03*
G54D12*
G01X0004311Y0031006D03*
G01X0016311Y0043519D03*
G01X0014311Y0043519D03*
G54D13*
G01X0015646Y0043519D03*
G01X0014976Y0043519D03*
G54D15*
G01X0054291Y0047892D03*
G54D16*
G01X0055945Y0046632D03*
G01X0054291Y0046632D03*
G01X0055945Y0047892D03*
G01X0055945Y0047262D03*
G01X0054291Y0047262D03*
G54D12*
G01X0082236Y0030806D03*
G01X0082236Y0032806D03*
G54D23*
G01X0082236Y0031472D03*
G01X0082236Y0032141D03*
G54D14*
G01X0016886Y0032894D03*
G01X0017555Y0032894D03*
G54D12*
G01X0012311Y0039026D03*
G01X0005114Y0044291D03*
G01X0005114Y0043307D03*
G01X0005114Y0042323D03*
G54D20*
G01X0007874Y0045037D03*
G01X0007874Y0041577D03*
G54D12*
G01X0020862Y0036417D03*
G01X0020862Y0035433D03*
G01X0020862Y0034449D03*
G54D20*
G01X0023622Y0037163D03*
G01X0023622Y0033703D03*
G54D12*
G01X0052358Y0044291D03*
G01X0052358Y0043307D03*
G01X0052358Y0042323D03*
G54D20*
G01X0055118Y0045037D03*
G01X0055118Y0041577D03*
M02*
